<svg xmlns="http://www.w3.org/2000/svg" id="svg1" version="1.1" viewBox="-253 -208 1433.9999 1445">
  <path id="黄浦区" fill="#ff6347" fill-opacity="1" fill-rule="evenodd" stroke="#ffffff" stroke-dasharray="none" stroke-linecap="round" stroke-linejoin="round" stroke-opacity="1" stroke-width="0.5" d="m367 582 5 20 4-1 4 16 5 1 1 3 19-6 7-8 9-18-4-11-11-11-2-4 1-8-7-2-9 5-5-2-5 3-7-3 3 8 2 14h-11z"/>
  <path id="徐汇区" fill="#ff6347" fill-opacity="1" fill-rule="evenodd" stroke="#ffffff" stroke-dasharray="none" stroke-linecap="round" stroke-linejoin="round" stroke-opacity="1" stroke-width="0.5" d="m367 582-19 7-4 4 2 8-14 9-2 2v4l-10 1 1 5h2v4l-16 6-1-2-4 3 1 4-3 2 1 4-2 1 3 11 8-3 2 5-9 2 1 4 5-1-1-2 4-2 7 18 11 18 15-2 2 12-3 6 3 2 13-4-1 3 2 5-5 2-1 2 6 2 3 4 8-2 1-8 6-12-1-11-11-17v-5l11-14 1-5-5-19 4-8 8-4-1-3-5-1-4-16-4 1-2-12z"/>
  <path id="长宁区" fill="#ff6347" fill-opacity="1" fill-rule="evenodd" stroke="#ffffff" stroke-dasharray="none" stroke-linecap="round" stroke-linejoin="round" stroke-opacity="1" stroke-width="0.5" d="m348 589-4-13-1-1-6 3-1-7-5 1-3 4-5-4 1 5-8 2-5 3-3-1-1 3h-11l-12-3-4 1-8-7h-4l-9-15-4-1v-6l-2 1v3l-3-3 1 4h-5l-2 3 5 4 2 5v3l-4 2v2l4 1-2 1-1 6-3 1 1 6h-2v23l-7 4 7 11 3 1 10-5 2 2 4-1 1-4 8 1 15-6 12-2 29 1 2-1v-4l2-2 14-9-2-8 2-1z"/>
  <path id="静安区" fill="#ff6347" fill-opacity="1" fill-rule="evenodd" stroke="#ffffff" stroke-dasharray="none" stroke-linecap="round" stroke-linejoin="round" stroke-opacity="1" stroke-width="0.5" d="m367 582-1-4h11l-2-14-3-8 7 3 5-3 5 2 4-2-4-10 2-1-2-3 1-6-11-11-7-10-1-4v-7l-2-6 3-3 2-7-1-9 4-1 1-17h-12l-2 2-7 2-2-3-13-1-1 2 2 8-3 3 1 5-1 2-5 1v6l-7 2-1 5 1 2h4l-1 8 2 5v10l5-4 3 4 11 5 8 14-2 4 2 1-3 8 2 2-15 10h-5l-3 5v8l1 1 6-3 5 14 13-4z"/>
  <path id="普陀区" fill="#ff6347" fill-opacity="1" fill-rule="evenodd" stroke="#ffffff" stroke-dasharray="none" stroke-linecap="round" stroke-linejoin="round" stroke-opacity="1" stroke-width="0.5" d="m260 562 8 13h4l8 7 4-1 12 3h11l1-3 3 1 5-3 8-2-1-4 5 3 3-4 5-1 3-7h5l15-10-2-2 2-3 1-5-2-1 2-4-8-14-11-5-3-4-11 12-3-1-1-4-5-1 1-4h-6l1-4-7-2 5-10-4 1-2-2 1-2-6-3 1-4-10 1-4 2v4l-5-2-2 2-4-2-1 2-11-5 5-11-9 3-2-2-4 3 1 2h-9v4l-3 1-2-2-4 2v3l-6 2 1 5 5-1 2 7h2v5l2 1v3l5 1 1-3 13 3 2 3 2-2 7 1-1 4h-7l-1 4 3 4 4 1v2l9 1 1-3 6 2-6 16-2-2-1 3-4-5-2 1-6 10-1-2h-4v3z"/>
  <path id="虹口区" fill="#ff6347" fill-opacity="1" fill-rule="evenodd" stroke="#ffffff" stroke-dasharray="none" stroke-linecap="round" stroke-linejoin="round" stroke-opacity="1" stroke-width="0.5" d="M395 472v-4l-17-2-1 12-4 1 1 9-2 7-3 3 3 17 7 10 11 11-1 6 2 3-2 1 4 10 3-3 9 2 12-5h10v-6h2l-10-13-2-10-10-7-1-8 2-4 5-4-2-7-11 4-4-13z"/>
  <path id="杨浦区" fill="#ff6347" fill-opacity="1" fill-rule="evenodd" stroke="#ffffff" stroke-dasharray="none" stroke-linecap="round" stroke-linejoin="round" stroke-opacity="1" stroke-width="0.5" d="m427 550 21-3 5-3 18-15 10-14 1-5v-6l-8-22v-22l-3-12-10-8-24-11-3 5-3-1-2 4-13-6-12 18 4 3 1 3-3 3 1 14h-12l1 10 4 13 11-4 2 7-5 4-2 4 1 8 10 7 2 10 10 13h-2z"/>
  <path id="闵行区" fill="#ff6347" fill-opacity="1" fill-rule="evenodd" stroke="#ffffff" stroke-dasharray="none" stroke-linecap="round" stroke-linejoin="round" stroke-opacity="1" stroke-width="0.5" d="m265 873 36-12 20-3 19-10 5-6 4-2 8-2h12l12-6 18-3 4 2-1 4 4 14h3l9-8 10-3 4 3 1 3h-2v4l3-1 6 5h6l4 3h8l3 6 4-1v-5h3v-2l15-4-3-3 3-2 1-4-2-6-1 1-3-2 4-1 1-5 4-3v-2l-2-7-4 1v2l-4 3-5-3-3 6h-3l-2-2 1-3 6-2-1-6 2-1v-13l2-3-5-5-1 1-1-4-2 2-3-1-1 2-1-1-2 2-5 1 1-3-2-4 3-2v-2l5-2v-8h3l1-2 5-2-4-3 6-3-1-1 5-1 13-7-3-2-1 2-10-5-5 1-3 3-4-3-2-5 3-1 1-3 10-4v2l6-2-6-9 2-1-3-4 1-1-4-4 2-3-5-3-2 2-4-1 1 3-3 2-3-2-2-6-5 3-2-5-3 1-1-2-7 2-2 2h-9v-3l-3-4-6 2-2 2 2 3-4 1-3-8-6 3-3-7h-4v3l-4 2-1 3-4 1 4 8h-4l-3-5v2l-4 2-5-1-3 12-8 2-2-1-1-3-6-2 1-2 5-2-2-5 1-3-13 4-3-2 3-6-2-12-15 2-8-12-10-24-4 2 1 2-5 1-1-4 9-2-2-5-8 3-3-11 2-1-1-4 3-2-1-4 4-3 1 2 16-6v-4h-2l-1-5-21-1-12 2-15 6-8-1-1 4-4 1-2-2-10 5-3-1-7-11 7-4v-23h2l-1-6 3-1 1-6 2-1-4-1v-2l4-2-2-8-5-4-4 2-1 5-19 6-13-5h-6l-4-2-6-13-6-6 3-4-9-2-4 1-7-5-1-3-4 1-6-2v2l-7 6-1 5-5 2-1 8h8l2 5 1-2 6 9 1 13 3 6-1 3 5 7-2 1 15 15 7-1 3-2 6-8 5 2 14 20 16 33h2l3 9 2 1 5 10-2 2 6 5 7 20h4l-2 3 3 5 2-1 1 2-5 5v-2l-4 2 3 9 8-2v2l4-1 10 24-2 2h-5l-1 5-3 2 3 3-1 2-7 2 1 3-15 6-2-5-6 3-3 57 10-2 2 1-5 4-1 5-8 12-4 2-1 14 2 3h7l9 5 8 1z"/>
  <path id="宝山区" fill="#ff6347" fill-opacity="1" fill-rule="evenodd" stroke="#ffffff" stroke-dasharray="none" stroke-linecap="round" stroke-linejoin="round" stroke-opacity="1" stroke-width="0.5" d="M333 521v-11l-2-5 1-8h-4l-1-2 1-5 7-2v-6l5-1 1-2-1-5 3-3-2-8 1-2 13 1 2 3 7-2 2-2 9-1 3 1v5l17 2v4h12l-1-14 3-3-1-3-4-3 12-18 13 6 2-4 3 1 3-5-11-6-7-6-5-9v-11l9-15 9-10-14-14 2-3 7 4 1-1-15-9-1 2 6 3-1 3-26-25-48-37-16-15-15-10-1-3 3-5-1-2-30-17-14-7-20-6-14 9h-3l-4 3 1 3h-4v-4l2-1-2-3-3 1-2 5-3-2-2-4-5 1v2l-3 1-3 4 1 3 9 6 1 3-2 1 5 10 3-1 3 8-5 3 4 5 3-1-1 3h-3l1 8 3 3-2 1 1 2h4l4 7-2 1 3 9 5 1 3 9v16l-4 3 2 4h-2l1 3-3 1-2-2-15 6 3 4-2 6 7 1 1 2v3l-3 5 3 1 4 9h4l1 3-3 2 7 8-1 4 6 8 1 3-4 2v3l-3 3h-2v5h4l1 3 5 4 2-1 2 7h-3l-2 4 6 11-2 1v3l4-1-1 6-5-1-8 17-4 2 3 7 1-2 3 5 3-1v-4h9l-1-2 4-3 2 2 9-3-5 11 5 1 6 4 1-2 4 2 2-2 5 2v-4l7-3h7l-1 4 4 1 3 6 4-1-5 10 7 2-1 4h6l-1 4 5 1 1 4 3 1z"/>
  <path id="嘉定区" fill="#ff6347" fill-opacity="1" fill-rule="evenodd" stroke="#ffffff" stroke-dasharray="none" stroke-linecap="round" stroke-linejoin="round" stroke-opacity="1" stroke-width="0.5" d="m54 514-2 11 4 2 2-6 3 4 2-2 5 6 1 5 2 1-2 4 3 1 3-2 3 3 2-2v3l2-1 3 2h2l2-3 9 5-1-3 8-3-1-2 4-3 2 3 2-1-1-3 3 1 2 7 7-3-1-1 4-2v-2l12-2 7 4 4-1 1 2h7v-2l6 2 4-1 1 3 7 5 4-1 9 2-3 4 6 6 6 13 23 7 19-6 1-5 4-2 2-3h5l-1-4 3 3v-3l2-1v6l4 1 1 2 2-1v-3h4l1 2 6-10 2-1 4 5 1-3 2 2 6-16-4-2h-2l-1 3-9-1v-2l-4-1-3-4 1-4h7l1-4-7-1-2 2-2-3-13-3-1 3-5-1v-3l-2-1v-5h-2l-2-7-4 1-2-5 6-2v-3l4-2-1-3-1 2-3-7 4-2 8-17 5 1 1-6-4 1v-3l2-1-6-11 2-4h3l-2-7-2 1-6-7h-4v-5h2l3-3v-3l4-2-1-3-6-8 1-4-7-8 3-2-1-3h-4l-4-9-3-1 3-5v-3l-1-2-7-1 2-6-3-4 15-6 2 2 3-1-1-3h2l-2-4 4-3v-16l-3-9-5-1-3-9 2-1-4-7h-4l-1-2 2-1-3-3-1-8h3l1-3-3 1-4-5 5-3-3-8-3 1-5-10 2-1-1-3-3-1-2-3-4-2-2 7-5 2-3-2-2 3-4-2h-6l1 2-8 5-4-3-1 5-6 3v2l-7 2 1-8-6 8h-3l-1-3 2-3-4 1v-7l-3-4v-4l-4 2-3-1 1 6h-3l-4 7 2 1v5l-5-1v2l-13 1 2-2-1-2-8 5-3 3-1 4-8 1-9 9v8l-11 6-6-1-2 2-2-2h-5l-14 7-1 6 2 4 5 3 10 1v4l2 2h-3v2h-7l-4 5-5 1 3 2v4l7 3-1 2 4 2-1 3-5 2 1 3-4 2v3l3 1-5 1 1 4-5 2 5 7-1 2-11 3 1 2-7 3-8 2-1-2-9 5 1 4 4 1 1 2-7 2v2l-4 1v-2H6l-1 2 2 5v12l9-1 3 4-3 1 1 4h13l-1 11 4 11h-2v3l-5 7 2 4-1 3 2 4v7l10-1v-3l5-5 7 13h-2l4 6-2 3 4 2 2 3h3l2 4-2 3-4 1v3z"/>
  <path id="浦东新区" fill="#ff6347" fill-opacity="1" fill-rule="evenodd" stroke="#ffffff" stroke-dasharray="none" stroke-linecap="round" stroke-linejoin="round" stroke-opacity="1" stroke-width="0.5" d="m483 849 14-3h11l1-2 20 1 6 11 35-1 15 2 4 2 1-2 14 2 12 3 13 8 20 16 6 8-1 2 4 3h3l5 6 1-2 10 5 2 2v3l4 4-3 2v2h3l-1 2h3l1-2 2 4 4 1v3l4 1v5l4 11-3 16 1 6-3 22h-3l-6 21 2 15 25 41 125 4 10 8 19 35 27-14-15-34v-10l31-30 9-15 3-14 2-30-3-43-5-39-14-58-15-37-17-22-59-67-5-11-32-30-45-50-68-104-21-24-124-84-9-4-57-15-18-7-9 10-9 15v11l5 9 7 6 35 17 10 8 3 12v22l8 22-1 11-10 14-23 18-9 2-22 1-12 5-1 8 2 4 11 11 4 11-9 18-7 8-27 10-4 8 4 13v11l-11 14v5l11 17 1 4v7l-4 8 5 1 4-2v-2l3 5h4l-4-8 4-1 1-3 4-2v-3h4l3 7 6-3 3 8 4-1-2-3 2-2 6-2 3 4v3h9l2-2 7-2 1 2 3-1 2 5 5-3 2 6 3 2 3-2-1-3 4 1 2-2 5 3-2 3 4 4-1 1 3 4-2 1 6 9-3 2h-3v-2l-10 4-1 3-3 1 2 5 4 3 3-3 5-1 10 5 1-2 3 2-18 8 1 1-6 3 4 3-5 2-1 2h-3v8l-5 2v2l-3 2 2 4-1 3 5-1 2-2 1 1 1-2 3 1 2-2 1 4 1-1 5 5-2 3v13l-2 1 1 6-6 2-1 3 2 2h3l3-6 5 3 4-3v-2l4-1 2 9-4 3-1 5-4 1 3 2 1-1 2 6-1 4-3 2zm384-261-2 9 3 25 8 24 8 9 6 2 31-4 4-5 13-32-1-31-3-4-19-4-10-5-11-2h-13l-6 2-5 5zm-63-31v18l7 13 20 24 6 2 5-1 3-3 3-10 3-23-1-7-3-4-9-4-18-6-8-1z"/>
  <path id="金山区" fill="#ff6347" fill-opacity="1" fill-rule="evenodd" stroke="#ffffff" stroke-dasharray="none" stroke-linecap="round" stroke-linejoin="round" stroke-opacity="1" stroke-width="0.5" d="m-108 907-1 7 5 8-2 33 6 1v3l-2 2-4-1v3l-3-1-3 2-2 8 2 2 1 5 15 2v6l9 1 5 4-3 3 3 2-2 1 1 3-3-2-3 3 3 2-4 6 2 1-5 9 4 3-2 2-3-2-2 3h-2l-2 6h-4l-1 3-2-1-2 7h-3l-3 4-1 3 4 1-4 3 4 4-2 4 4 1 6-9 3 3 8-10 3-1 1 2 15 7 9 17 7-2-1-5-5 2-2-2 2-1 2-6-1-2 3-1 2 3 4 1-2-7 9-6 6-2-2-6 2-1-1-2 6-5h14l18-10v3l7 7 7-3 2-3 2 3 5 3 1-1 3 3-4 5v7l-2 3 3-2 9 2 2-1 3 3-2 2 2 4h2l1-2v6l-10 18-2 20 1 5-7 1-3 3 7 8 8 2 7-1 2 2 4-4 9 1 8 3v4l3-3h5l2-2 4 6 9-3 3-2v-3h4l1-2 6 9 4-1v-11l5-3 13 1 6 11 1-2 6 16 2 10 24 14 11 13 2-2 3 3-2 2 3 9-2 3v4l-4 3 2 3-3 3 3 9 2 1 4 29 17-1 57 3 16-5 47-46 20-15 53-31-27-50-6-9-1 1-4-2-4-14-17-2-2 5h-4l-1-7-10-2-4-5v-3h3l1-5-7 1-1 6h-5v-2h-4v-3l-4-2-5-7v-4h6l-2-19 1-5-2-1v-18l-5-1-10-8h-4l-7-26-5-6-1 2-4-2-3 5-8 3-6-1-3-3h-22v-3h-3v4l-2 1-3-2-2-6h-2v-4l-6 2 2 17-3 8-6-1v2l-3 1v-4l-5 2-1-6-3 1-1-2h-3v-6h-4l-1-2-3 1-4-3h-9l-3-10 2 1-5-9-6-1v-3l-7 2-5-5-16 13-22 5-15 1-5-2-2-4h-7l-2 9 1 3h-4l-11-7 1-3-4-2-2 8 3 3-1 4 2 3v4h-7l-3 2-1-3-7-1-2 3-4-1-5 5-2-4 8-13 3-10-8-2-9 2-5-8-12 14v4l5 2 3-1 2 5-2 4-2 1v-3l-3 2-8-2-2 1-1-2-9 1v2l-4 1-1-3-23 4-3 3-2-7-2 3h-4v-4l-9-4-1-3 7-29-2-10-13 3 1 3-3-1-1-5-3 1v-5l2 1 2-2-5-3-3 4h-5v-4zm443 321v2l2-1zm-4-11h-4v2l7 3 3-2-2-3zm-17-16v2l3-2z"/>
  <path id="松江区" fill="#ff6347" fill-opacity="1" fill-rule="evenodd" stroke="#ffffff" stroke-dasharray="none" stroke-linecap="round" stroke-linejoin="round" stroke-opacity="1" stroke-width="0.5" d="m229 651-3 5-3 1-2-3-21 8-9 2-2-2-2 2 1 1-4 1-2-2v5l-2 2 1 2 2-1 3 4 2-1 4 4-7 8-16-4v2l-2-1-3 4 1 6h-4v-6l-11-2-2 4-6 1h6l-1 5h-8l-1 8-2 2-10 2h-3l7-28h-7l-13 4-2-3h-6l1-4-7 4-13-7v14h-2v6h2v3h2v7l-5 2-3-2-2 1v11l-8 1-1 8-6 1-6-2v4h3v7h-2v3l-2-2-2 1-2-5-3 2-2-4h-2l-1-2h-8l-2-4-1 2-3-3h-2l-10-10-2 2-2-3-9 11v3l-3 3-3-2 2 4v3h-2l3 6v10l7-2 5 6 5 2 5 6v4l4 1v11H0v4l-3-3h-4l-2-2 2-5-2-3h-5l-2 2 1 2-6 5 1 4 4 4 1-3 3 1v5l7 4-4 5h3l2 2 3 7-1 2h-3v6l-6 1-1-3-4 3 17 17 2 4v16h-4l-1 26-4-1v7l2 3-10 2v2h-7v3h-3l1 2-3 1v2l-11 1-5-2-4-6 1-5-5 2-2-6h-8l3 7-4 3 1 4h-7l-3 12-6 2 4 7v5l-3 10v6l-3 7v9l9 4v4h4l2-3 2 7 3-3 23-4 1 3 4-1v-2l9-1 1 2 2-1 8 2 3-2v3l4-5-2-5-3 1-5-2v-4l12-14 5 8 6-2 11 2-3 10-8 13 2 4 5-5 4 1 2-3 7 1 1 3 3-2h7v-4l-2-3 1-4-3-3 2-8 4 2-1 3 11 7h4l-1-3 2-9h7l2 4 5 2 15-1 22-5 16-13 5 5 7-2v3l6 1 5 9-2-1 3 10h9l1 2h6l1 2h4v6h3l1 2 3-1 1 6 5-2v4l3-1v-2l6 1 3-8-2-17 6-2v4h2l2 6 3 2 2-1v-4h3v3h22l3 3 6 1 8-3 3-5 4 2 5-10-4-5-1-8 5-2-1-1 8-2-2-11 3-1 2-3-3-2v-13l-2-7 1-6-3-9-8 3-8-1-9-5h-7l-2-3 1-14 4-2 8-12 1-5 5-4-2-1-10 2 3-57 6-3 2 5 15-6-1-3 7-2 1-2-3-3 3-2 1-5h5l2-2-10-24-4 1v-2l-8 2-3-9 4-2v2l5-5-1-2-2 1-3-5 2-3h-4l-7-20-6-5 2-2-5-10-2-1-3-9h-2z"/>
  <path id="青浦区" fill="#ff6347" fill-opacity="1" fill-rule="evenodd" stroke="#ffffff" stroke-dasharray="none" stroke-linecap="round" stroke-linejoin="round" stroke-opacity="1" stroke-width="0.5" d="m54 514-11 1v-2h-6l1-2-7-3-1 2-11-7-5 1-12 12 2 2-7-4-3-13-3-1-3-4h-3l-6 17 4 2-3 5-2 2-17 2-3 26h-3l4 2 3-1-1 9-2 1 1 4 2 2h3v2h-3v4l-2 1 5 31 2 5h-3v2h3l3 3-2 2 1 6-3 1 1 3 6-2v2l-4 2v2l4 7-3 1v4l3-1 2 7-4 2h4v5l-3 2-2 4-5 2 2 4h-4l1-3-4-2h-5l-2 3h-6l-1-5-4 1v3l-4 2v3l4 2-3 8-6 2v-4l-3-2-5 1v-3h-2l-1 4h-4l1 3-4 5-36 2-55-11-14 6-12 2-6-2-19 2-9 9-2 9-10 12-3 1-1 7 3 3h4l2 3 4 1v-2h3l1-2 3 1v2h3l-1 3 10 2 3-1v-3l2 1-1 3 4 4 1 5 3-1 3 2-1 2 3 6-5 1-5 23v6l3 7-1 3 3 7 3 3-2 20 1 4h9l1 8 7-3 8 3 1-2 5 1 2 2 5 1 2-1-5-7 1-2h14l1-8-2-1v-6l2 1 1-2 7 2 2 9 4 1-1 5h20l1 2 6 1v4l2 3v13l-2 1 1 2h4v4l3 3 2 11 1-1 2 4h-2v4l-3 2h-5l-1 5 3 11-3 1 1 4h2l2 6 6-1v4h5l3-4 5 3-2 2-2-1v5l3-1 1 5 3 1-1-3 11-3v-2l6-2 3-12h7l-1-4 4-3-3-7h8l2 6 5-2-1 5 4 6 5 2 11-1v-2l3-1-1-2h3v-3h7v-2l10-2-2-3v-7l4 1 1-26h4v-16l-2-4-17-17 4-3 1 3 6-1v-6h3l1-2-3-7-2-2h-3l4-5-7-4v-5l-3-1-1 3-4-4-1-4 6-5-1-2 2-2h5l2 3-2 5 2 2h4l3 3v-4l7-1v2h10v-2l8 1 2-3-2-8-4-1v-4l-4-6-6-2-5-6-7 2v-10l-3-6h2v-3l-2-4 3 2 3-3v-3l9-11 2 3 2-2 10 10h2l3 3 1-2 2 4h8l1 2h2l2 4 3-2 2 5 2-1 1 2 1-3h2v-7h-3v-4l6 2 6-1 1-8 8-1v-11l2-1 3 2 5-2v-7h-2v-3h-2v-6h2v-14l13 7 7-4-1 4h6l2 3 13-4h7l-7 28h3l10-2 2-2 1-8h8l1-5h-6l6-1 2-4 11 2v6h4l-1-6 3-4 2 1v-2l16 4 7-8-4-4-2 1-3-4-2 1-1-2 2-2v-5l2 2 4-1-1-1 2-2 2 2 9-2 21-8 2 3 3-1 3-5-13-26-14-20-5-2-6 8-3 2-7 1-15-15 2-1-5-7 1-3-3-6-1-13-6-9-1 2-2-5h-8l1-8 5-2 1-5 7-6h-7l-1-2-4 1-7-4h-7l-5 2v2l-4 2 1 1-7 3-2-7-3-1 1 3-2 1-2-3-4 3 1 2-8 3 1 3-9-5-2 3h-2l-3-2-2 1v-3l-2 2-3-3-3 2-3-1 2-4-2-1-1-5-5-6-2 2-3-4-2 6-4-2 2-6z"/>
  <path id="奉贤区" fill="#ff6347" fill-opacity="1" fill-rule="evenodd" stroke="#ffffff" stroke-dasharray="none" stroke-linecap="round" stroke-linejoin="round" stroke-opacity="1" stroke-width="0.5" d="m483 849-15 4v2h-3v5l-4 1-3-6h-8l-4-3h-6l-6-5-3 1v-4h2l-1-3-4-3-10 3-12 8-4-14 1-4-4-2-18 3-12 6h-12l-8 2-4 2-5 6-19 10-20 3-36 12 3 9-1 6 2 7v13l3 2-2 3-3 1 2 11-8 2 1 1-5 2 1 8 4 5-4 8 5 6 7 26h4l10 8 5 1v18l2 1-1 5 2 19h-6v4l5 7 4 2v3h4v2h5l1-6 7-1-1 5h-3v3l4 5 10 2 1 7h4l2-5 17 2 4 14 4 2 1-1 6 9 27 50 40-23 37-16 50-19 48-14 34-2 116 2-25-41-2-15 6-21h3l3-22-1-6 3-16-4-11v-5l-4-1v-3l-4-1-2-4-1 2h-3l1-2h-3v-2l3-2-4-4v-3l-2-2-10-5-1 2-5-6h-3l-4-3 1-2-6-8-20-16-13-8-12-3-14-2-1 2-4-2-15-2-35 1-6-11-20-1-1 2-19 1z"/>
  <path id="崇明区" fill="#ff6347" fill-opacity="1" fill-rule="evenodd" stroke="#ffffff" stroke-dasharray="none" stroke-linecap="round" stroke-linejoin="round" stroke-opacity="1" stroke-width="0.5" d="M900 103 632 34 557 6l-9 1-32-13h-2l-1 5-22-9-14-8-14-12h-2l-10-10-13-6-14-4-15-12h-11l-12-3-13-1-33-15-11-13-10-19 5-3-5-10-6-4-6-10-15-19-16-12-55-34-15-2-21 5-16 6-67 35-20 18-33 40-32 34 28 6 148 167 58 54 28 22 24-39 8-5 12-2 20 1 38 20 78 52 63 29 18 6 59 13 83 40 57 24 27 8 38 4 19-2 18-6 66-35 10-15 4-20-2-23-6-21zM698 474l6-2 6 4 6 1 2-4-3-23v-19l-5-26-3-6-19-23-28-19-14-4-21-12-12-5-24-4-91-33-10-11-8-24-5-3-13-4-34-6-8 6 1 9 7 6 13 7 21 17 23 26 118 71 42 27 17 13 7 7 13 27 7 5zm476-132 2 2 4-2-2-2zm-453 75 2 35 3 5 17 20 11 9 7 5 13 4 8-3h5l36 4 33 10 44 4 42-3 57 19 16 11 11 2 8-8 18-54-1-10-6-7-39-3h-38l-41-6-51-10-110-45-14-1-7-4-8-2h-24l-1 3 8 17zM541 311l7-1 3-5-2-4-27-26-22-6h-10l-2 2 1 4 10 13 8 7 24 14z"/>
</svg>
