<?xml version="1.0" encoding="UTF-8" standalone="no"?>
<svg
   width="1433.9999"
   height="1445"
   viewBox="-253 -208 1433.9999 1445"
   version="1.1"
   id="svg1"
   xmlns="http://www.w3.org/2000/svg"
   xmlns:svg="http://www.w3.org/2000/svg">
  <defs
     id="defs1" />
  <path
     stroke="#ffff00"
     stroke-opacity="1"
     stroke-width="0.5"
     stroke-linecap="round"
     stroke-linejoin="round"
     stroke-dasharray="none"
     fill="#1e90ff"
     fill-opacity="1"
     fill-rule="evenodd"
     d="m 366.99999,582 5,20 4,-1 4,16 5,1 1,3 19,-6 7,-8 9,-18 -4,-11 -11,-11 -2,-4 1,-8 -7,-2 -9,5 -5,-2 -5,3 -7,-3 3,8 2,14 h -11 z"
     id="黄浦区" />
  <path
     stroke="#ffff00"
     stroke-opacity="1"
     stroke-width="0.5"
     stroke-linecap="round"
     stroke-linejoin="round"
     stroke-dasharray="none"
     fill="#1e90ff"
     fill-opacity="1"
     fill-rule="evenodd"
     d="m 366.99999,582 -19,7 -4,4 2,8 -14,9 -2,2 v 4 l -10,1 1,5 h 2 v 4 l -16,6 -1,-2 -4,3 1,4 -3,2 1,4 -2,1 3,11 8,-3 2,5 -9,2 1,4 5,-1 -1,-2 4,-2 7,18 11,18 15,-2 2,12 -3,6 3,2 13,-4 -1,3 2,5 -5,2 -1,2 6,2 3,4 8,-2 1,-8 6,-12 -1,-11 -11,-17 v -5 l 11,-14 1,-5 -5,-19 4,-8 8,-4 -1,-3 -5,-1 -4,-16 -4,1 -2,-12 z"
     id="徐汇区" />
  <path
     stroke="#ffff00"
     stroke-opacity="1"
     stroke-width="0.5"
     stroke-linecap="round"
     stroke-linejoin="round"
     stroke-dasharray="none"
     fill="#1e90ff"
     fill-opacity="1"
     fill-rule="evenodd"
     d="m 347.99999,589 -4,-13 -1,-1 -6,3 -1,-7 -5,1 -3,4 -5,-4 1,5 -8,2 -5,3 -3,-1 -1,3 h -11 l -12,-3 -4,1 -8,-7 h -4 l -9,-15 -4,-1 v -6 l -2,1 v 3 l -3,-3 1,4 h -5 l -2,3 5,4 2,5 v 3 l -4,2 v 2 l 4,1 -2,1 -1,6 -3,1 1,6 h -2 v 23 l -7,4 7,11 3,1 10,-5 2,2 4,-1 1,-4 8,1 15,-6 12,-2 29,1 2,-1 v -4 l 2,-2 14,-9 -2,-8 2,-1 z"
     id="长宁区" />
  <path
     stroke="#ffff00"
     stroke-opacity="1"
     stroke-width="0.5"
     stroke-linecap="round"
     stroke-linejoin="round"
     stroke-dasharray="none"
     fill="#1e90ff"
     fill-opacity="1"
     fill-rule="evenodd"
     d="m 366.99999,582 -1,-4 h 11 l -2,-14 -3,-8 7,3 5,-3 5,2 4,-2 -4,-10 2,-1 -2,-3 1,-6 -11,-11 -7,-10 -1,-4 v -7 l -2,-6 3,-3 2,-7 -1,-9 4,-1 1,-17 h -12 l -2,2 -7,2 -2,-3 -13,-1 -1,2 2,8 -3,3 1,5 -1,2 -5,1 v 6 l -7,2 -1,5 1,2 h 4 l -1,8 2,5 v 10 l 5,-4 3,4 11,5 8,14 -2,4 2,1 -3,8 2,2 -15,10 h -5 l -3,5 v 8 l 1,1 6,-3 5,14 13,-4 z"
     id="静安区" />
  <path
     stroke="#ffff00"
     stroke-opacity="1"
     stroke-width="0.5"
     stroke-linecap="round"
     stroke-linejoin="round"
     stroke-dasharray="none"
     fill="#1e90ff"
     fill-opacity="1"
     fill-rule="evenodd"
     d="m 259.99999,562 8,13 h 4 l 8,7 4,-1 12,3 h 11 l 1,-3 3,1 5,-3 8,-2 -1,-4 5,3 3,-4 5,-1 3,-7 h 5 l 15,-10 -2,-2 2,-3 1,-5 -2,-1 2,-4 -8,-14 -11,-5 -3,-4 -11,12 -3,-1 -1,-4 -5,-1 1,-4 h -6 l 1,-4 -7,-2 5,-10 -4,1 -2,-2 1,-2 -6,-3 1,-4 -10,1 -4,2 v 4 l -5,-2 -2,2 -4,-2 -1,2 -11,-5 5,-11 -9,3 -2,-2 -4,3 1,2 h -9 v 4 l -3,1 -2,-2 -4,2 v 3 l -6,2 1,5 5,-1 2,7 h 2 v 5 l 2,1 v 3 l 5,1 1,-3 13,3 2,3 2,-2 7,1 -1,4 h -7 l -1,4 3,4 4,1 v 2 l 9,1 1,-3 6,2 -6,16 -2,-2 -1,3 -4,-5 -2,1 -6,10 -1,-2 h -4 v 3 z"
     id="普陀区" />
  <path
     stroke="#ffff00"
     stroke-opacity="1"
     stroke-width="0.5"
     stroke-linecap="round"
     stroke-linejoin="round"
     stroke-dasharray="none"
     fill="#1e90ff"
     fill-opacity="1"
     fill-rule="evenodd"
     d="m 394.99999,472 v -4 l -17,-2 -1,12 -4,1 1,9 -2,7 -3,3 3,17 7,10 11,11 -1,6 2,3 -2,1 4,10 3,-3 9,2 12,-5 h 10 v -6 h 2 l -10,-13 -2,-10 -10,-7 -1,-8 2,-4 5,-4 -2,-7 -11,4 -4,-13 z"
     id="虹口区" />
  <path
     stroke="#ffff00"
     stroke-opacity="1"
     stroke-width="0.5"
     stroke-linecap="round"
     stroke-linejoin="round"
     stroke-dasharray="none"
     fill="#1e90ff"
     fill-opacity="1"
     fill-rule="evenodd"
     d="m 426.99999,550 21,-3 5,-3 18,-15 10,-14 1,-5 v -6 l -8,-22 v -22 l -3,-12 -10,-8 -24,-11 -3,5 -3,-1 -2,4 -13,-6 -12,18 4,3 1,3 -3,3 1,14 h -12 l 1,10 4,13 11,-4 2,7 -5,4 -2,4 1,8 10,7 2,10 10,13 h -2 z"
     id="杨浦区" />
  <path
     stroke="#ffff00"
     stroke-opacity="1"
     stroke-width="0.5"
     stroke-linecap="round"
     stroke-linejoin="round"
     stroke-dasharray="none"
     fill="#1e90ff"
     fill-opacity="1"
     fill-rule="evenodd"
     d="m 264.99999,873 36,-12 20,-3 19,-10 5,-6 4,-2 8,-2 h 12 l 12,-6 18,-3 4,2 -1,4 4,14 h 3 l 9,-8 10,-3 4,3 1,3 h -2 v 4 l 3,-1 6,5 h 6 l 4,3 h 8 l 3,6 4,-1 v -5 h 3 v -2 l 15,-4 -3,-3 3,-2 1,-4 -2,-6 -1,1 -3,-2 4,-1 1,-5 4,-3 v -2 l -2,-7 -4,1 v 2 l -4,3 -5,-3 -3,6 h -3 l -2,-2 1,-3 6,-2 -1,-6 2,-1 v -13 l 2,-3 -5,-5 -1,1 -1,-4 -2,2 -3,-1 -1,2 -1,-1 -2,2 -5,1 1,-3 -2,-4 3,-2 v -2 l 5,-2 v -8 h 3 l 1,-2 5,-2 -4,-3 6,-3 -1,-1 5,-1 13,-7 -3,-2 -1,2 -10,-5 -5,1 -3,3 -4,-3 -2,-5 3,-1 1,-3 10,-4 v 2 l 6,-2 -6,-9 2,-1 -3,-4 1,-1 -4,-4 2,-3 -5,-3 -2,2 -4,-1 1,3 -3,2 -3,-2 -2,-6 -5,3 -2,-5 -3,1 -1,-2 -7,2 -2,2 h -9 v -3 l -3,-4 -6,2 -2,2 2,3 -4,1 -3,-8 -6,3 -3,-7 h -4 v 3 l -4,2 -1,3 -4,1 4,8 h -4 l -3,-5 v 2 l -4,2 -5,-1 -3,12 -8,2 -2,-1 -1,-3 -6,-2 1,-2 5,-2 -2,-5 1,-3 -13,4 -3,-2 3,-6 -2,-12 -15,2 -8,-12 -10,-24 -4,2 1,2 -5,1 -1,-4 9,-2 -2,-5 -8,3 -3,-11 2,-1 -1,-4 3,-2 -1,-4 4,-3 1,2 16,-6 v -4 h -2 l -1,-5 -21,-1 -12,2 -15,6 -8,-1 -1,4 -4,1 -2,-2 -10,5 -3,-1 -7,-11 7,-4 v -23 h 2 l -1,-6 3,-1 1,-6 2,-1 -4,-1 v -2 l 4,-2 -2,-8 -5,-4 -4,2 -1,5 -19,6 -13,-5 h -6 l -4,-2 -6,-13 -6,-6 3,-4 -9,-2 -4,1 -7,-5 -1,-3 -4,1 -6,-2 v 2 l -7,6 -1,5 -5,2 -1,8 h 8 l 2,5 1,-2 6,9 1,13 3,6 -1,3 5,7 -2,1 15,15 7,-1 3,-2 6,-8 5,2 14,20 16,33 h 2 l 3,9 2,1 5,10 -2,2 6,5 7,20 h 4 l -2,3 3,5 2,-1 1,2 -5,5 v -2 l -4,2 3,9 8,-2 v 2 l 4,-1 10,24 -2,2 h -5 l -1,5 -3,2 3,3 -1,2 -7,2 1,3 -15,6 -2,-5 -6,3 -3,57 10,-2 2,1 -5,4 -1,5 -8,12 -4,2 -1,14 2,3 h 7 l 9,5 8,1 z"
     id="闵行区" />
  <path
     stroke="#ffff00"
     stroke-opacity="1"
     stroke-width="0.5"
     stroke-linecap="round"
     stroke-linejoin="round"
     stroke-dasharray="none"
     fill="#1e90ff"
     fill-opacity="1"
     fill-rule="evenodd"
     d="m 332.99999,521 v -11 l -2,-5 1,-8 h -4 l -1,-2 1,-5 7,-2 v -6 l 5,-1 1,-2 -1,-5 3,-3 -2,-8 1,-2 13,1 2,3 7,-2 2,-2 9,-1 3,1 v 5 l 17,2 v 4 h 12 l -1,-14 3,-3 -1,-3 -4,-3 12,-18 13,6 2,-4 3,1 3,-5 -11,-6 -7,-6 -5,-9 v -11 l 9,-15 9,-10 -14,-14 2,-3 7,4 1,-1 -15,-9 -1,2 6,3 -1,3 -26,-25 -48,-37 -16,-15 -15,-10 -1,-3 3,-5 -1,-2 -30,-17 -14,-7 -20,-6 -14,9 h -3 l -4,3 1,3 h -4 v -4 l 2,-1 -2,-3 -3,1 -2,5 -3,-2 -2,-4 -5,1 v 2 l -3,1 -3,4 1,3 9,6 1,3 -2,1 5,10 3,-1 3,8 -5,3 4,5 3,-1 -1,3 h -3 l 1,8 3,3 -2,1 1,2 h 4 l 4,7 -2,1 3,9 5,1 3,9 v 16 l -4,3 2,4 h -2 l 1,3 -3,1 -2,-2 -15,6 3,4 -2,6 7,1 1,2 v 3 l -3,5 3,1 4,9 h 4 l 1,3 -3,2 7,8 -1,4 6,8 1,3 -4,2 v 3 l -3,3 h -2 v 5 h 4 l 1,3 5,4 2,-1 2,7 h -3 l -2,4 6,11 -2,1 v 3 l 4,-1 -1,6 -5,-1 -8,17 -4,2 3,7 1,-2 3,5 3,-1 v -4 h 9 l -1,-2 4,-3 2,2 9,-3 -5,11 5,1 6,4 1,-2 4,2 2,-2 5,2 v -4 l 7,-3 h 7 l -1,4 4,1 3,6 4,-1 -5,10 7,2 -1,4 h 6 l -1,4 5,1 1,4 3,1 z"
     id="宝山区" />
  <path
     stroke="#ffff00"
     stroke-opacity="1"
     stroke-width="0.5"
     stroke-linecap="round"
     stroke-linejoin="round"
     stroke-dasharray="none"
     fill="#1e90ff"
     fill-opacity="1"
     fill-rule="evenodd"
     d="m 53.99999,514 -2,11 4,2 2,-6 3,4 2,-2 5,6 1,5 2,1 -2,4 3,1 3,-2 3,3 2,-2 v 3 l 2,-1 3,2 h 2 l 2,-3 9,5 -1,-3 8,-3 -1,-2 4,-3 2,3 2,-1 -1,-3 3,1 2,7 7,-3 -1,-1 4,-2 v -2 l 12,-2 7,4 4,-1 1,2 h 7 v -2 l 6,2 4,-1 1,3 7,5 4,-1 9,2 -3,4 6,6 6,13 23,7 19,-6 1,-5 4,-2 2,-3 h 5 l -1,-4 3,3 v -3 l 2,-1 v 6 l 4,1 1,2 2,-1 v -3 h 4 l 1,2 6,-10 2,-1 4,5 1,-3 2,2 6,-16 -4,-2 h -2 l -1,3 -9,-1 v -2 l -4,-1 -3,-4 1,-4 h 7 l 1,-4 -7,-1 -2,2 -2,-3 -13,-3 -1,3 -5,-1 v -3 l -2,-1 v -5 h -2 l -2,-7 -4,1 -2,-5 6,-2 v -3 l 4,-2 -1,-3 -1,2 -3,-7 4,-2 8,-17 5,1 1,-6 -4,1 v -3 l 2,-1 -6,-11 2,-4 h 3 l -2,-7 -2,1 -6,-7 h -4 v -5 h 2 l 3,-3 v -3 l 4,-2 -1,-3 -6,-8 1,-4 -7,-8 3,-2 -1,-3 h -4 l -4,-9 -3,-1 3,-5 v -3 l -1,-2 -7,-1 2,-6 -3,-4 15,-6 2,2 3,-1 -1,-3 h 2 l -2,-4 4,-3 v -16 l -3,-9 -5,-1 -3,-9 2,-1 -4,-7 h -4 l -1,-2 2,-1 -3,-3 -1,-8 h 3 l 1,-3 -3,1 -4,-5 5,-3 -3,-8 -3,1 -5,-10 2,-1 -1,-3 -3,-1 -2,-3 -4,-2 -2,7 -5,2 -3,-2 -2,3 -4,-2 h -6 l 1,2 -8,5 -4,-3 -1,5 -6,3 v 2 l -7,2 1,-8 -6,8 h -3 l -1,-3 2,-3 -4,1 v -7 l -3,-4 v -4 l -4,2 -3,-1 1,6 h -3 l -4,7 2,1 v 5 l -5,-1 v 2 l -13,1 2,-2 -1,-2 -8,5 -3,3 -1,4 -8,1 -9,9 v 8 l -11,6 -6,-1 -2,2 -2,-2 h -5 l -14,7 -1,6 2,4 5,3 10,1 v 4 l 2,2 h -3 v 2 h -7 l -4,5 -5,1 3,2 v 4 l 7,3 -1,2 4,2 -1,3 -5,2 1,3 -4,2 v 3 l 3,1 -5,1 1,4 -5,2 5,7 -1,2 -11,3 1,2 -7,3 -8,2 -1,-2 -9,5 1,4 4,1 1,2 -7,2 v 2 l -4,1 v -2 h -2 l -1,2 2,5 v 12 l 9,-1 3,4 -3,1 1,4 h 13 l -1,11 4,11 h -2 v 3 l -5,7 2,4 -1,3 2,4 v 7 l 10,-1 v -3 l 5,-5 7,13 h -2 l 4,6 -2,3 4,2 2,3 h 3 l 2,4 -2,3 -4,1 v 3 z"
     id="嘉定区" />
  <path
     stroke="#ffff00"
     stroke-opacity="1"
     stroke-width="0.5"
     stroke-linecap="round"
     stroke-linejoin="round"
     stroke-dasharray="none"
     fill="#1e90ff"
     fill-opacity="1"
     fill-rule="evenodd"
     d="m 482.99999,849 14,-3 h 11 l 1,-2 20,1 6,11 35,-1 15,2 4,2 1,-2 14,2 12,3 13,8 20,16 6,8 -1,2 4,3 h 3 l 5,6 1,-2 10,5 2,2 v 3 l 4,4 -3,2 v 2 h 3 l -1,2 h 3 l 1,-2 2,4 4,1 v 3 l 4,1 v 5 l 4,11 -3,16 1,6 -3,22 h -3 l -6,21 2,15 25,41 125,4 10,8 19,35 27,-14 -15,-34 v -10 l 31,-30 9,-15 3,-14 2,-30 -3,-43 -5,-39 -14,-58 -15,-37 -17,-22 -59,-67 -5,-11 -32,-30 -45,-50 -68,-104 -21,-24 -124,-84 -9,-4 -57,-15 -18,-7 -9,10 -9,15 v 11 l 5,9 7,6 35,17 10,8 3,12 v 22 l 8,22 -1,11 -10,14 -23,18 -9,2 -22,1 -12,5 -1,8 2,4 11,11 4,11 -9,18 -7,8 -27,10 -4,8 4,13 v 11 l -11,14 v 5 l 11,17 1,4 v 7 l -4,8 5,1 4,-2 v -2 l 3,5 h 4 l -4,-8 4,-1 1,-3 4,-2 v -3 h 4 l 3,7 6,-3 3,8 4,-1 -2,-3 2,-2 6,-2 3,4 v 3 h 9 l 2,-2 7,-2 1,2 3,-1 2,5 5,-3 2,6 3,2 3,-2 -1,-3 4,1 2,-2 5,3 -2,3 4,4 -1,1 3,4 -2,1 6,9 -3,2 h -3 v -2 l -10,4 -1,3 -3,1 2,5 4,3 3,-3 5,-1 10,5 1,-2 3,2 -18,8 1,1 -6,3 4,3 -5,2 -1,2 h -3 v 8 l -5,2 v 2 l -3,2 2,4 -1,3 5,-1 2,-2 1,1 1,-2 3,1 2,-2 1,4 1,-1 5,5 -2,3 v 13 l -2,1 1,6 -6,2 -1,3 2,2 h 3 l 3,-6 5,3 4,-3 v -2 l 4,-1 2,9 -4,3 -1,5 -4,1 3,2 1,-1 2,6 -1,4 -3,2 z m 384,-261 -2,9 3,25 8,24 8,9 6,2 31,-4 4,-5 13,-32 -1,-31 -3,-4 -19,-4 -10,-5 -11,-2 h -13 l -6,2 -5,5 z m -63,-31 v 18 l 7,13 20,24 6,2 5,-1 3,-3 3,-10 3,-23 -1,-7 -3,-4 -9,-4 -18,-6 -8,-1 z"
     id="浦东新区" />
  <path
     stroke="#ffff00"
     stroke-opacity="1"
     stroke-width="0.5"
     stroke-linecap="round"
     stroke-linejoin="round"
     stroke-dasharray="none"
     fill="#1e90ff"
     fill-opacity="1"
     fill-rule="evenodd"
     d="m -108.00001,907 -1,7 5,8 -2,33 6,1 v 3 l -2,2 -4,-1 v 3 l -3,-1 -3,2 -2,8 2,2 1,5 15,2 v 6 l 9,1 5,4 -3,3 3,2 -2,1 1,3 -3,-2 -3,3 3,2 -4,6 2,1 -5,9 4,3 -2,2 -3,-2 -2,3 h -2 l -2,6 h -4 l -1,3 -2,-1 -2,7 h -3 l -3,4 -1,3 4,1 -4,3 4,4 -2,4 4,1 6,-9 3,3 8,-10 3,-1 1,2 15,7 9,17 7,-2 -1,-5 -5,2 -2,-2 2,-1 2,-6 -1,-2 3,-1 2,3 4,1 -2,-7 9,-6 6,-2 -2,-6 2,-1 -1,-2 6,-5 h 14 l 18,-10 v 3 l 7,7 7,-3 2,-3 2,3 5,3 1,-1 3,3 -4,5 v 7 l -2,3 3,-2 9,2 2,-1 3,3 -2,2 2,4 h 2 l 1,-2 v 6 l -10,18 -2,20 1,5 -7,1 -3,3 7,8 8,2 7,-1 2,2 4,-4 9,1 8,3 v 4 l 3,-3 h 5 l 2,-2 4,6 9,-3 3,-2 v -3 h 4 l 1,-2 6,9 4,-1 v -11 l 5,-3 13,1 6,11 1,-2 6,16 2,10 24,14 11,13 2,-2 3,3 -2,2 3,9 -2,3 v 4 l -4,3 2,3 -3,3 3,9 2,1 4,29 17,-1 57,3 16,-5 47,-46 20,-15 53,-31 -27,-50 -6,-9 -1,1 -4,-2 -4,-14 -17,-2 -2,5 h -4 l -1,-7 -10,-2 -4,-5 v -3 h 3 l 1,-5 -7,1 -1,6 h -5 v -2 h -4 v -3 l -4,-2 -5,-7 v -4 h 6 l -2,-19 1,-5 -2,-1 v -18 l -5,-1 -10,-8 h -4 l -7,-26 -5,-6 -1,2 -4,-2 -3,5 -8,3 -6,-1 -3,-3 h -22 v -3 h -3 v 4 l -2,1 -3,-2 -2,-6 h -2 v -4 l -6,2 2,17 -3,8 -6,-1 v 2 l -3,1 v -4 l -5,2 -1,-6 -3,1 -1,-2 h -3 v -6 h -4 l -1,-2 -3,1 -4,-3 h -9 l -3,-10 2,1 -5,-9 -6,-1 v -3 l -7,2 -5,-5 -16,13 -22,5 -15,1 -5,-2 -2,-4 h -7 l -2,9 1,3 h -4 l -11,-7 1,-3 -4,-2 -2,8 3,3 -1,4 2,3 v 4 h -7 l -3,2 -1,-3 -7,-1 -2,3 -4,-1 -5,5 -2,-4 8,-13 3,-10 -8,-2 -9,2 -5,-8 -12,14 v 4 l 5,2 3,-1 2,5 -2,4 -2,1 v -3 l -3,2 -8,-2 -2,1 -1,-2 -9,1 v 2 l -4,1 -1,-3 -23,4 -3,3 -2,-7 -2,3 h -4 v -4 l -9,-4 -1,-3 7,-29 -2,-10 -13,3 1,3 -3,-1 -1,-5 -3,1 v -5 l 2,1 2,-2 -5,-3 -3,4 h -5 v -4 z m 443,321 v 2 l 2,-1 z m -4,-11 h -4 v 2 l 7,3 3,-2 -2,-3 z m -17,-16 v 2 l 3,-2 z"
     id="金山区" />
  <path
     stroke="#ffff00"
     stroke-opacity="1"
     stroke-width="0.5"
     stroke-linecap="round"
     stroke-linejoin="round"
     stroke-dasharray="none"
     fill="#1e90ff"
     fill-opacity="1"
     fill-rule="evenodd"
     d="m 228.99999,651 -3,5 -3,1 -2,-3 -21,8 -9,2 -2,-2 -2,2 1,1 -4,1 -2,-2 v 5 l -2,2 1,2 2,-1 3,4 2,-1 4,4 -7,8 -16,-4 v 2 l -2,-1 -3,4 1,6 h -4 v -6 l -11,-2 -2,4 -6,1 h 6 l -1,5 h -8 l -1,8 -2,2 -10,2 h -3 l 7,-28 h -7 l -13,4 -2,-3 h -6 l 1,-4 -7,4 -13,-7 v 14 h -2 v 6 h 2 v 3 h 2 v 7 l -5,2 -3,-2 -2,1 v 11 l -8,1 -1,8 -6,1 -6,-2 v 4 h 3 v 7 h -2 v 3 l -2,-2 -2,1 -2,-5 -3,2 -2,-4 h -2 l -1,-2 h -8 l -2,-4 -1,2 -3,-3 h -2 l -10,-10 -2,2 -2,-3 -9,11 v 3 l -3,3 -3,-2 2,4 v 3 h -2 l 3,6 v 10 l 7,-2 5,6 5,2 5,6 v 4 l 4,1 v 11 h -25 v 4 l -3,-3 h -4 l -2,-2 2,-5 -2,-3 h -5 l -2,2 1,2 -6,5 1,4 4,4 1,-3 3,1 v 5 l 7,4 -4,5 h 3 l 2,2 3,7 -1,2 h -3 v 6 l -6,1 -1,-3 -4,3 17,17 2,4 v 16 h -4 l -1,26 -4,-1 v 7 l 2,3 -10,2 v 2 h -7 v 3 h -3 l 1,2 -3,1 v 2 l -11,1 -5,-2 -4,-6 1,-5 -5,2 -2,-6 h -8 l 3,7 -4,3 1,4 h -7 l -3,12 -6,2 4,7 v 5 l -3,10 v 6 l -3,7 v 9 l 9,4 v 4 h 4 l 2,-3 2,7 3,-3 23,-4 1,3 4,-1 v -2 l 9,-1 1,2 2,-1 8,2 3,-2 v 3 l 4,-5 -2,-5 -3,1 -5,-2 v -4 l 12,-14 5,8 6,-2 11,2 -3,10 -8,13 2,4 5,-5 4,1 2,-3 7,1 1,3 3,-2 h 7 v -4 l -2,-3 1,-4 -3,-3 2,-8 4,2 -1,3 11,7 h 4 l -1,-3 2,-9 h 7 l 2,4 5,2 15,-1 22,-5 16,-13 5,5 7,-2 v 3 l 6,1 5,9 -2,-1 3,10 h 9 l 1,2 h 6 l 1,2 h 4 v 6 h 3 l 1,2 3,-1 1,6 5,-2 v 4 l 3,-1 v -2 l 6,1 3,-8 -2,-17 6,-2 v 4 h 2 l 2,6 3,2 2,-1 v -4 h 3 v 3 h 22 l 3,3 6,1 8,-3 3,-5 4,2 5,-10 -4,-5 -1,-8 5,-2 -1,-1 8,-2 -2,-11 3,-1 2,-3 -3,-2 v -13 l -2,-7 1,-6 -3,-9 -8,3 -8,-1 -9,-5 h -7 l -2,-3 1,-14 4,-2 8,-12 1,-5 5,-4 -2,-1 -10,2 3,-57 6,-3 2,5 15,-6 -1,-3 7,-2 1,-2 -3,-3 3,-2 1,-5 h 5 l 2,-2 -10,-24 -4,1 v -2 l -8,2 -3,-9 4,-2 v 2 l 5,-5 -1,-2 -2,1 -3,-5 2,-3 h -4 l -7,-20 -6,-5 2,-2 -5,-10 -2,-1 -3,-9 h -2 z"
     id="松江区" />
  <path
     stroke="#ffff00"
     stroke-opacity="1"
     stroke-width="0.5"
     stroke-linecap="round"
     stroke-linejoin="round"
     stroke-dasharray="none"
     fill="#1e90ff"
     fill-opacity="1"
     fill-rule="evenodd"
     d="m 53.99999,514 -11,1 v -2 h -6 l 1,-2 -7,-3 -1,2 -11,-7 -5,1 -12,12 2,2 -7,-4 -3,-13 -3,-1 -3,-4 h -3 l -6,17 4,2 -3,5 -2,2 -17,2 -3,26 h -3 l 4,2 3,-1 -1,9 -2,1 1,4 2,2 h 3 v 2 h -3 v 4 l -2,1 5,31 2,5 h -3 v 2 h 3 l 3,3 -2,2 1,6 -3,1 1,3 6,-2 v 2 l -4,2 v 2 l 4,7 -3,1 v 4 l 3,-1 2,7 -4,2 h 4 v 5 l -3,2 -2,4 -5,2 2,4 h -4 l 1,-3 -4,-2 h -5 l -2,3 h -6 l -1,-5 -4,1 v 3 l -4,2 v 3 l 4,2 -3,8 -6,2 v -4 l -3,-2 -5,1 v -3 h -2 l -1,4 h -4 l 1,3 -4,5 -36,2 -55,-11 -14,6 -12,2 -6,-2 -19,2 -9,9 -2,9 -10,12 -3,1 -1,7 3,3 h 4 l 2,3 4,1 v -2 h 3 l 1,-2 3,1 v 2 h 3 l -1,3 10,2 3,-1 v -3 l 2,1 -1,3 4,4 1,5 3,-1 3,2 -1,2 3,6 -5,1 -5,23 v 6 l 3,7 -1,3 3,7 3,3 -2,20 1,4 h 9 l 1,8 7,-3 8,3 1,-2 5,1 2,2 5,1 2,-1 -5,-7 1,-2 h 14 l 1,-8 -2,-1 v -6 l 2,1 1,-2 7,2 2,9 4,1 -1,5 h 20 l 1,2 6,1 v 4 l 2,3 v 13 l -2,1 1,2 h 4 v 4 l 3,3 2,11 1,-1 2,4 h -2 v 4 l -3,2 h -5 l -1,5 3,11 -3,1 1,4 h 2 l 2,6 6,-1 v 4 h 5 l 3,-4 5,3 -2,2 -2,-1 v 5 l 3,-1 1,5 3,1 -1,-3 11,-3 v -2 l 6,-2 3,-12 h 7 l -1,-4 4,-3 -3,-7 h 8 l 2,6 5,-2 -1,5 4,6 5,2 11,-1 v -2 l 3,-1 -1,-2 h 3 v -3 h 7 v -2 l 10,-2 -2,-3 v -7 l 4,1 1,-26 h 4 v -16 l -2,-4 -17,-17 4,-3 1,3 6,-1 v -6 h 3 l 1,-2 -3,-7 -2,-2 h -3 l 4,-5 -7,-4 v -5 l -3,-1 -1,3 -4,-4 -1,-4 6,-5 -1,-2 2,-2 h 5 l 2,3 -2,5 2,2 h 4 l 3,3 v -4 l 7,-1 v 2 h 10 v -2 l 8,1 2,-3 -2,-8 -4,-1 v -4 l -4,-6 -6,-2 -5,-6 -7,2 v -10 l -3,-6 h 2 v -3 l -2,-4 3,2 3,-3 v -3 l 9,-11 2,3 2,-2 10,10 h 2 l 3,3 1,-2 2,4 h 8 l 1,2 h 2 l 2,4 3,-2 2,5 2,-1 1,2 1,-3 h 2 v -7 h -3 v -4 l 6,2 6,-1 1,-8 8,-1 v -11 l 2,-1 3,2 5,-2 v -7 h -2 v -3 h -2 v -6 h 2 v -14 l 13,7 7,-4 -1,4 h 6 l 2,3 13,-4 h 7 l -7,28 h 3 l 10,-2 2,-2 1,-8 h 8 l 1,-5 h -6 l 6,-1 2,-4 11,2 v 6 h 4 l -1,-6 3,-4 2,1 v -2 l 16,4 7,-8 -4,-4 -2,1 -3,-4 -2,1 -1,-2 2,-2 v -5 l 2,2 4,-1 -1,-1 2,-2 2,2 9,-2 21,-8 2,3 3,-1 3,-5 -13,-26 -14,-20 -5,-2 -6,8 -3,2 -7,1 -15,-15 2,-1 -5,-7 1,-3 -3,-6 -1,-13 -6,-9 -1,2 -2,-5 h -8 l 1,-8 5,-2 1,-5 7,-6 h -7 l -1,-2 -4,1 -7,-4 h -7 l -5,2 v 2 l -4,2 1,1 -7,3 -2,-7 -3,-1 1,3 -2,1 -2,-3 -4,3 1,2 -8,3 1,3 -9,-5 -2,3 h -2 l -3,-2 -2,1 v -3 l -2,2 -3,-3 -3,2 -3,-1 2,-4 -2,-1 -1,-5 -5,-6 -2,2 -3,-4 -2,6 -4,-2 2,-6 z"
     id="青浦区" />
  <path
     stroke="#ffff00"
     stroke-opacity="1"
     stroke-width="0.5"
     stroke-linecap="round"
     stroke-linejoin="round"
     stroke-dasharray="none"
     fill="#1e90ff"
     fill-opacity="1"
     fill-rule="evenodd"
     d="m 482.99999,849 -15,4 v 2 h -3 v 5 l -4,1 -3,-6 h -8 l -4,-3 h -6 l -6,-5 -3,1 v -4 h 2 l -1,-3 -4,-3 -10,3 -12,8 -4,-14 1,-4 -4,-2 -18,3 -12,6 h -12 l -8,2 -4,2 -5,6 -19,10 -20,3 -36,12 3,9 -1,6 2,7 v 13 l 3,2 -2,3 -3,1 2,11 -8,2 1,1 -5,2 1,8 4,5 -4,8 5,6 7,26 h 4 l 10,8 5,1 v 18 l 2,1 -1,5 2,19 h -6 v 4 l 5,7 4,2 v 3 h 4 v 2 h 5 l 1,-6 7,-1 -1,5 h -3 v 3 l 4,5 10,2 1,7 h 4 l 2,-5 17,2 4,14 4,2 1,-1 6,9 27,50 40,-23 37,-16 50,-19 48,-14 34,-2 116,2 -25,-41 -2,-15 6,-21 h 3 l 3,-22 -1,-6 3,-16 -4,-11 v -5 l -4,-1 v -3 l -4,-1 -2,-4 -1,2 h -3 l 1,-2 h -3 v -2 l 3,-2 -4,-4 v -3 l -2,-2 -10,-5 -1,2 -5,-6 h -3 l -4,-3 1,-2 -6,-8 -20,-16 -13,-8 -12,-3 -14,-2 -1,2 -4,-2 -15,-2 -35,1 -6,-11 -20,-1 -1,2 -19,1 z"
     id="奉贤区" />
  <path
     stroke="#ffff00"
     stroke-opacity="1"
     stroke-width="0.5"
     stroke-linecap="round"
     stroke-linejoin="round"
     stroke-dasharray="none"
     fill="#1e90ff"
     fill-opacity="1"
     fill-rule="evenodd"
     d="m 899.99999,103 -268,-69 -75,-28 -9,1 -32,-13 h -2 l -1,5 -22,-9 -14,-8 -14,-12 h -2 l -10,-10 -13,-6 -14,-4 -15,-12 h -11 l -12,-3 -13,-1 -33,-15 -11,-13 -10,-19 5,-3 -5,-10 -6,-4 -6,-10 -15,-19 -16,-12 -55,-34 -15,-2 -21,5 -16,6 -67,35 -20,18 -33,40 -32,34 28,6 148,167 58,54 28,22 24,-39 8,-5 12,-2 20,1 38,20 78,52 63,29 18,6 59,13 83,40 57,24 27,8 38,4 19,-2 18,-6 66,-35 10,-15 4,-20 -2,-23 -6,-21 z m -202,371 6,-2 6,4 6,1 2,-4 -3,-23 v -19 l -5,-26 -3,-6 -19,-23 -28,-19 -14,-4 -21,-12 -12,-5 -24,-4 -91,-33 -10,-11 -8,-24 -5,-3 -13,-4 -34,-6 -8,6 1,9 7,6 13,7 21,17 23,26 118,71 42,27 17,13 7,7 13,27 7,5 z M 1174,342 l 2,2 4,-2 -2,-2 z m -453.00001,75 2,35 3,5 17,20 11,9 7,5 13,4 8,-3 h 5 l 36,4 33,10 44,4 42,-3 57,19 16.00001,11 11,2 8,-8 18,-54 -1,-10 -6,-7 -39,-3 h -38.00001 l -41,-6 -51,-10 -110,-45 -14,-1 -7,-4 -8,-2 h -24 l -1,3 8,17 z m -180,-106 7,-1 3,-5 -2,-4 -27,-26 -22,-6 h -10 l -2,2 1,4 10,13 8,7 24,14 z"
     id="崇明区" />
</svg>