<svg xmlns="http://www.w3.org/2000/svg" id="svg1" version="1.1" viewBox="-251 -228 1579 1629">
  <path id="昆明市" fill="#ff6347" fill-opacity="1" fill-rule="evenodd" stroke="#ffffff" stroke-dasharray="none" stroke-linecap="round" stroke-linejoin="round" stroke-opacity="1" stroke-width="0.5" d="m765 736 6-4h2l3 3 2-2 11 3 2-1-2-4 4-4-2-6 2-5 3 1 1-4-2-2 3-5 3 3 15 7 6 6 5 1 2 3h6l-3 3 2 2-6 4 4 3 11-6 1-6h4l13-12-3-2 4-6-1-1 6-12-2-3 3-5-3-4 1-2-2-6v-12l-7 1-5-3-2 8-5-3-4 7h-5l-9-12-1-6 5-4-1-12-5-4 1-1-6-4v-3l2-2 6-1 8-6-5-3 2-4-3-3v-5l-8-2-2 2-1 6-5-3h-9v5l-3-1v-6l-4-2 2-4-7-2 2-9h4v-5l2-1v-4l3-3h-5l-4-3 6-13 7-4 5-6-2-4 2-3h10l1-5-2-4 2-4-2-4 3-1 2 3 7 2 5-4h4l2-2-4-6-4 1-2-3v-6l5-6-2-3 4-5-3-3 1-4 7-5-3-4 1-4-6 3-2-5-5 3-2-2 1-6-2-2-7 7-6-2 1-3-6 2-6-3-2 4-3-4-2-6 3-5v-6l-2-1-2-11 4-9-1-4-6-5-2-11-3-2 3-3-2-4-6-5-4-1v4l-3-1-1-3-3-1v-5l-3 1-5-3 1-7-3-7 1-7-8-31v-6l-1 6-4 6-7 1 1 6-2 9 2 7-2 5-17 2-2-6-3 6-6 6-9 2-3 4-5 2-3 5v5l-9 3-2-3-11-6 2-7 5-5-2-6-10-5h-4l-2 5-19 8h-7l-9 11-12 5h-5l-2 2-1 5 4 12 6 3 4 5 6 2 1 3-4 12 1 3-3 5v4l4 3-3 1 1 5-2 2 1 7 5 1 4 4-1 6 2 2-3 1-1 14 4 5v6l-3 5 3 2v3l9 8 4-2-1 10 3 1-1 5 3 2 1 8-4 7-5 4 1 3-8 3-3-4-5 8 4 3-1 5 2 2v6l6-2 1 6-1 8h-3l-6 11 1 8-4 11-8-1-3 3-9 4v-4l-6-3v-4h-2l-3 7 2 2-1 4 5 6 4-2 4 4-4 8v6l6-2v6l6 3 1 5-2 6 1 4h-2l3 9-1 12-2 2 2 5-4 2 4 12-2 7-3-1-3 6-4 1-3 4h-2l1 5h2l5 5 1 4 2-1 8 5-2 2 3 4 5-3 4 1 3-8-3-1 3-2 1-6 4-3 3 4 6-7 7 2 3-4 6 2 4-5h7l2 5-4 2 4 2 10-2 4 2-1 4 2 2 9-5 4 2 2-4 7-3-3-2-2-6 2-8 3-4-2-3 3-3 1-5 5-8-3-8h6l8-4-2-7 1-11 3 2 2-3h4l1-4h3l4-3v-5l5 12-3 20 2 1 3-3 7 4-6 10-2 12 2 8-1 7 2 2 6 1 5-3z"/>
  <path id="曲靖市" fill="#ff6347" fill-opacity="1" fill-rule="evenodd" stroke="#ffffff" stroke-dasharray="none" stroke-linecap="round" stroke-linejoin="round" stroke-opacity="1" stroke-width="0.5" d="m816 286 3 6-6-2-1-4-5 4-7-4-1 2-10 1v5l-4 6 2 3-3 2v3l-7 3-10-5-2 3-6 2-3 20 8 31-1 7 3 7-1 7 5 3 3-1v5l3 1 1 3 3 1v-4l4 1 6 5 2 4-3 3 3 2 2 11 6 5 1 4-4 9 2 11 2 1v6l-3 5 2 6 3 4 2-4 6 3 6-2-1 3 6 2 7-7 2 2-1 6 2 2 5-3 2 5 6-3-1 4 3 4-7 5-1 4 3 3-4 5 2 3-5 6v6l2 3 4-1 4 6-2 2h-4l-5 4-7-2-2-3-3 1 2 4-2 4 2 4-1 5h-10l-2 3 2 4-5 6-7 4-6 13 4 3h5l-3 3v4l-2 1v5h-4l-2 9 7 2-2 4 4 2v6l3 1v-5h9l5 3 1-6 2-2 8 2v5l3 3-2 4 5 3-8 6-6 1-2 2v3l6 4-1 1 5 4 1 12-5 4 1 6 9 12h5l4-7 5 3 2-8 5 3 7-1v12l2 6-1 2 3 4-3 5 2 3 7-6h5l4-2-6 9 7 5 5-8 1 2 4-1 4 6 6 2 4 4h7v4l4 2 3-4 5 7-5 6 3 2 3 6h2l3 5h2l-1 7-5 2 2 6-1 1 8 5 14-7 2 2 6-2 9 13-3 3 1 4 10-2 3 3 11-3 2-2 10-1 1-8 9-4 11 1-1-3h5l3-4-4-3 1-6-3-4h-3l-3-11 1-7-6-4 5-4 3-12 4-6v-11l10-15 7-4 5-11 9-7-2-8-3-4-12-1 10-1 3-2 1-9 4-4 3-7-1-4 3-4 4 2 7 9 3-2-2-4v-7l3-2-2-5-3 1-3-3h-8l-5-2-1-4-6 1-2 2-4-2 1-13-5-1-9-8-1 2-4-2 3-24-2 1-4-2-8 7h-6l-2 4-3-5 3-5v-7l-2-1-1-5-6-2-3 3-2-4-4 1-5-10 3-12v-11l9 6 4-6 1-8 5-4-1-5 3-5-1-5h-3l-1-3 4-4 1-6 5-10-1-4 2-5-3-4v-3l8 3 5-6-2-6v-8l2-1 4-8-2-8 7-8 2-5 13-4-1-3 5-2v-3l-3-4v-8l-6-3 1-6-4-6-4-3h-4l1-9-4-4h-10l-3 2-4-3-1-3 2-7-9-14-4 1-3 12-3 1-3 5-6 1-5-4-3 3-4-2-4 2-12-6-7 2-10 13-1 3 2 8-4 3-2-2-6 1-1-2h-21l-4 2-4-4h-4l-1-5-9-6 1-3-4-5 4-19-1-4-3 2-4-3-1-6-3-5v-7l3-5 9-3-1-10 2-4v-3l-4-2-4-12-5-6h-5l-4 5-8 4v3l-3 1-7-4-7 3-6-3-5 4-6-4-1 2 4 4v5l-5 11-3-1 2 5-4 7v6l-3 8 3 4zm1 0v1z"/>
  <path id="玉溪市" fill="#ff6347" fill-opacity="1" fill-rule="evenodd" stroke="#ffffff" stroke-dasharray="none" stroke-linecap="round" stroke-linejoin="round" stroke-opacity="1" stroke-width="0.5" d="m605 655-1 2-9-2-2-4-7-4v5l-2 4-5 2-1 6-5 1-9-2-1 2 2 5-2 6-2-1-1 4-7 5-2 11 1 7 3-1-9 9 3 3 3-2 2 9-5 2-3-1-2 3 4 4-2 3 3 3 1 5h3l1 6 5 1 7-3-2 3 3 5-3 5 5 3v5l-4 3-1 11-6 5-3-1-4 5-5-2v2l-11 2-2-2-3 2-1-8 3-5-5-1-1 6-4-1-4-7-10-4-5-7-3 2-13 25-12 4-4-1-7-22-1-10-6-3-3-4-4 5 2 3-1 4-4 4-15 7v3l7 13 5 6 2 11 5 3v6l5 6v5l6 3 2 6 5 4 2 6 4 1 4 5-6 4-7 11-3-2-9 5 4 3 1 6-3 3 1 4 2 1 1 4 5-1 2-6h2l3-4 6-1 7 8-1 4h-4l-1 6 5 4 2-4 8 11 13-7 4 3-5 7-3-1v4l4-1v4l3 4 4 1-3 6 4 4 2-1 7 10 1 5-4 5h-4l1 5 2 2 5-1 7 3-1 4h4l6 5v-2l6-5 11 2 3 3 5-2 8 5 2-2 5 3 6-1 4-5 1-7 6-9 5 4 1-3h10l2 2h6l3-9 4-5-1-7-7-6 1-5-4-5-1-5-12-13-5-2-7 1-3-5 7-9-9-13 5-8 7-3 4-4 5-1 3 2 3-5h-3v-7l-8-9 2-3 18-5-1-3-4 1-2-5 5-3 10 2 8 4-2 2 4 1 11-3 5 7 5-2 3 3 9-4 2 2-2 2 4 1 2 3-2 3 3 3-3 5 4 8 3-3 3 1v-5l4-4 4-1 3-9h6l9-6 2 1-1 3 4 8 5-2-2-3h4l3-6 10-5 8 7h4v-4l3-6 5-2 4-11 7-5-1-6 3-3v-4l-5-3 3-10-3-1-2-4-2 1-2-4 2-12-6-2-1-4 5-2 3-6 1-19-5 3-6-1-2-2 1-7-2-8 2-12 6-10-7-4-3 3-2-1 3-20-5-12v5l-4 3h-3l-1 4h-4l-2 3-3-2-1 11 2 7-8 4h-6l3 8-5 8-1 5-3 3 2 3-3 4-2 8 2 6 3 2-7 3-2 4-4-2-9 5-2-2 1-4-4-2-10 2-4-2 4-2-2-5h-7l-4 5-6-2-3 4-7-2-6 7-3-4-4 3-1 6-3 2 3 1-3 8-4-1-5 3-3-4 2-2-8-5-2 1-1-4-5-5h-2l-1-5h2l3-4 4-1 3-6 3 1 2-7-4-12 4-2-2-5 2-2 1-12-3-9h2l-1-4 2-6-1-5-6-3v-6z"/>
  <path id="保山市" fill="#ff6347" fill-opacity="1" fill-rule="evenodd" stroke="#ffffff" stroke-dasharray="none" stroke-linecap="round" stroke-linejoin="round" stroke-opacity="1" stroke-width="0.5" d="m-3 509-3 1 3 4-3 12-19-1-3-5 3-10-2-6 2-4-4-5 2-3-3-4 1-6-4-2-2-6 3-5-4-4-5 4v4h-3l-4 3-6-2-7-6h-7l-9 11v5l-4 5v11l-8 2-2 16-4-1-2 3-8 3-2 5-8-10-5-3-14-3 4 11-5 9-6 2 5 11-1 10-3 5-6-1-2 11 4 8 2 2 5 1 1 3 6 4v7l-4 8 2 6 3 1 7 7 4-1 2 4-3 9-5 7v9l3 3-1 3 3 3 4-4h3l5-4 2 2 1 8 5 2 14-1 1 5 13-5 4 2v6l4 7-2 5-9-2-5 6-7 1-2 3 5 7-2 5 3 5-7 6v2h5l3 5v3l3 2 2 4-2 3 2 2 3-2h8l6-4 7-2 7 4h6l1 3-2 2 5 8 3 2-8 8 2 5-1 2 4 4 2 5-2 5 2 2-4 10v6l3 3 2 6-7 4-1 11 5 2 26-2 10-10 7-1 6-4 7-1 1-4 5 1 7-2 11-9 12-13-1-5 7-8 3-6 6-1 6 6 4 17 3 4-2 5v9l12 2 4-3 2 1 4-4v-4l4-7 9-2 7-6 2-10 6-9 3-1 5 2 1-5-2-4h2l-3-15-4-3 3-3h4l3-7h5v-8h3l6-5h5l2-8-3-6-5-2v-2l6-4 1-3 5-2-5-4 1-4h4l5-7-4-5 1-4 16-12h5l5-4 10-4-3-7 2-3-4-2-7 2v-4l-10-13v-4l-9 3-4 3 1 4-6 9v5h-13l-4 3 1 2-8 2-3-3h-4l-5-6-14-4-2-3-6 2-22-23-5-11h-3l-11-15 2-2-2-10 9 3 2-1-1-5 3-4-5-8v-3l-14-7-6 2-5 5-6-2 1 5-7 5-6 1-5-6 3-5-4-8H18l1-13-10-2-7 2z"/>
  <path id="昭通市" fill="#ff6347" fill-opacity="1" fill-rule="evenodd" stroke="#ffffff" stroke-dasharray="none" stroke-linecap="round" stroke-linejoin="round" stroke-opacity="1" stroke-width="0.5" d="m756 325 1 2 2-16 6-2 2-3 10 5 7-3v-3l3-2-2-3 4-6v-5l10-1 1-2 7 4 5-4 1 4 6 2-3-6v-4l-3-4 3-8v-6l4-7-2-5 3 1 5-11v-5l-4-4 1-2 6 4 5-4 6 3 7-3 7 4 3-1v-3l3-2-5-10 3-3 8 3-1-6-6-1v-3l9-4 4 1 10-17h3l6-8 1-4 4 1 3-5 4 1 2-10h2l3-3v-8l4-6 1-6 5 4 6 1 4-2 1 9 2 4 5 2 5 5 5-1 4 3v3l7 9 3-5 6 2-2-4 7 1 2-3-2-6 8-8 3-6h2l4-6-2-2 4-5 10 2 1 5 15 5-1 2h5l-2 3 6 12 5-1 8 5 3-2h9l2-3 6-2 3 2 3-3 3 6 3-1 4-7 9 5-2 6 4 3 6-4 2-4 5-4 13-7 3-4 7-4 5 2 5-2 5 3 3-1 3 4v5l9-14-1-1 2-10 2-1 2-5-2-6-3 1 5-8 8-6-2-5 3-4-1-11-2-1V74l-3-5 7-5-7 1-6-3 1-3-3-10 9-8-2-13-4-3-6 4-6-1-3-6 3-3v-4l-3-3-4 1-7-3h-5l-4-3-8 6-7 1v9l-5 5v3l-3-1-5 5 3 4-4 1-2 5-5 2h-12l-5 4-4-4-12 4-8 7-5-2-5 3-4-2v-3l-5-4-4 2-2-4-5-2-3-4-9-5-4-4v-5l-5-5-5-1-5-4 1-2h13l4-3 1-5 3-1 3-4h3l-1-10-7-2-1-6 6-1 5-8-4-3 1-2h-7l-3-4-1-8-5-2-3 1-5 6-5-2 3-3-5-4-4-13 2-2-1-7 2-3-2-3 1-4-3-1v-4l2-2 5 1 7-2 1-4 5 1 2-6 3-3h6l1-6-4-3-5-1-6 1-5 6-3-4-5-1-3-5h-2l-2 5h-20l-6 7-6-5-21 5-1-4-5-2-2 3-4-2v-5l-4-3-3 9v8l-7 5v6l-3 1 5 6 4 8-1 4 5 7v10l4 7-1 5-8 3-2 4-5 2-3 5-6-1-3 7-4 1-1-6-11-7-3 4-8 2-7 13-12 10-3-1v8l-4 3v6l5 4 4-2 3 2v8l3 4h5l4-3-1 5h-3l-7 9 1 15-3 9-6 4-2 4-5 3-5 7h-4l-16 18 3 4-1 7-3 1-7-2-4 2-2 7-3 1-8 15v6l-6 4-6 1-4-3-6 6-7 3-6-9-13 24v7l3 5 3 19-3 13-5 11 4 5-1 10 2 8 9 14 3 1 5 13-1 2 4 17 4 4v12l-2 2 3 8z"/>
  <path id="丽江市" fill="#ff6347" fill-opacity="1" fill-rule="evenodd" stroke="#ffffff" stroke-dasharray="none" stroke-linecap="round" stroke-linejoin="round" stroke-opacity="1" stroke-width="0.5" d="m365 402 4-8 10-9 7-4 5-7 8-3 5-4 8-1 5-4 6 2 20-4 9-4 9 1v-4l6-3 1-5-4-4 2-3-4-6-1-6-3 2-4-15 12-1-1-7 4-6-5-4v-2l8-6-1-3 3-2 1-3-10-3-2 2 2 9-4-2-3 3-6 1 1-6-6-4 4-3-2-3 5-9-6-8-8-1-2-3h-8l-2-4 2-7-7-1v-5l-16-7 3-16-2-1 5-19-10-3-11 3-3-5-2-15-4-4 2-6-4-3-8-14 1-3-4-6h-3l-3 3 1-14-8-14-2-1v-6l-5 2 5-6-4-1 3-4-2-3h-9l-2-12-12-12-1-4 2-8-3-2v-4l-4-7-4 2-4-1-5 8v4l-11 10-2-3-4-1-2-5-1 2-10-5-5 6-4 11-3 2v4h-5l-1 5-3 2-5-3-4 10 3 1v4l-7 9 2 4-5 2 1 6-10 12-2 7 3 4 3 9-1 3 5 8 1 7-1 3-5 1-19 25-7 4-1 10 4 13-2 2 2 3-4 12v5l-2 1-2 6-11 7-3-1 1-4-2-2v-11l2-1-3-4v-3l-4-4-1-5-4-2v-5l-7-4-3-7-8-8-5-8-5-1-5-8h-2l-8-8v-3l-4-4 3-5-11-16 2-5-4-1-3-4-2-5 2-6-3-3v-4l-9 4-1 7-2 3-14 4 1 6-2 3 2 5v7l5 5-8 13 3 11-6 3 5 5 2 7 3 2 1 7h-3v8l3 7 5 4 5 16 5 7 6 2v8l3 1-2 4 3 1-2 7 6 19 4 1 4 4h3l5 4 2 7 5 1 4-3 7-2 7 4 12 1v-5h4l6 7 12 5 7-2 1-10 4 1 6 7h4l4-3 8-14 7-2 1 11 9-2v4l3 2h6l-1 5 4-3 2 5-1 5h7l2 6h7l-2 5 5 5h-5l-3 2 3 7v4l4-1 5 3v3h-7l-3 9h2l-4 6-4 2-2 3 3 3 4 14 3 3-6 4 1 7 6 4 3-2 4 5-3 2 1 12 2 5 5 1 2-3 7 4v4l10-3 8 1-3-9-1-11 8-6 3-5 6-1 6-6 9-2 1 3 7 5 5 1z"/>
  <path id="普洱市" fill="#ff6347" fill-opacity="1" fill-rule="evenodd" stroke="#ffffff" stroke-dasharray="none" stroke-linecap="round" stroke-linejoin="round" stroke-opacity="1" stroke-width="0.5" d="m432 779-4-1-9-8-6-2-2-5-7-9-7-6-1-5-4-3-2-4-2-10-6-8-6-12-4-3-1-11h-6l-1-4-6 5-10-2-2 2-7-5v-5l-22-10-3 7-1 8-11 9-9-4v-3l-13 1-4 5h-2l-1 5 3 2v3l8 13h3l3 14 6 3 3 6-1 3-5 3-1 5v33l2 2 1 11-5 21-13 5-6-2-5 4 3 6-1 5 3 4v7l4 5-2 8-4 1-1 3-3-1-2 3 3 2-2 4 1 10-2 3 5 3 2 4v6l9 5-13 9-11-1-3-4-6 1-3 5-5-2-5 1-5 26-2 5-7 6v9l-5 6 2 14-1 7-8 6-13-2-5-5-10-1-8 8-8 3-13-7-11-2-1 3-9 8 5 8h-4l-5-4-9 7v2l-7 4 2 6 3 2-2 11 3 9 2 1 3 6-2 4-4 2-15-7-2 4 5 13h-4l-4 4h-4l-2 13-11 2-2 3 4 5 9 27-5 8v2l4 4-18 20-6 1 5 7v3l-4 3-4 7v9l-5 3-6 11 3 3-6-1 2 4 4 1 6 6h6l3 2 4-2 1 2h18l9-2 4-4 8 6 9-2 2 3 3-3 4 3 7-1 8 7-1 4 4 2 2-5 7-2 12 5 1 3h7v-7l18 2 3-4 2-7h3l6-4 4-6 4-16 3-1 7 3 5-1 2-3h3l-1-4 2-4 11 1 2 3 12 6 5-4 4-21-2-6 6-7 6 2v-2l4-3 11-2 9 1 2 3 5-3-1-2 2-5 6-1v-4l12-1 6-10 10-1v-3l9 2 4 5v4l4 2h4l6-5 7-1-1-5 3 2 4-3 12 8 5 1 10-2 5 4 9-2 10 2 7-5h4l6-4 8-1 1 7 3 4 4 15 3 3v6l4 5 6 2-2 8 10-2 7 2 1-7 4-1-4-6 5-15h7l9-6 3 1 2 4 6 5-1 6 8 7 7 1 1-10 5-1 8 3 12-6 15 5v3l3 4 6-7 17 2-3-7 12-19-5-4-3-8-5 2-7-4-2 2-22-8-4-9v-5l-5-4-7-10h-4l-9-5-5 5-3-1-10-8-4-7 7-7 2 1 2-6-2-7 4-2 2-6 4-1 1 2 10-2 1 5 8 1 8-10-2-7 4-4-6-6-7-4 1-2-9-4-3 6-3-3-7 2-9-3-1-2 3-7-4-6 6-4h4l3-6-3-2v-5l-6-5h-4l1-4-7-3-5 1-2-2-1-5h4l4-5-1-5-3-6-10-7 3-6-4-1-3-4v-4l-4 1v-4l3 1 5-7-4-3-13 7-8-11-2 4-5-4 1-6h4l1-4-7-8-6 1-3 4h-2l-2 6-5 1-4-9 3-3-1-6-4-3 9-5 3 2 7-11 6-4-4-5-4-1-2-6-5-4-2-6-6-3v-5l-5-6v-6l-5-3-2-11-7-11z"/>
  <path id="临沧市" fill="#ff6347" fill-opacity="1" fill-rule="evenodd" stroke="#ffffff" stroke-dasharray="none" stroke-linecap="round" stroke-linejoin="round" stroke-opacity="1" stroke-width="0.5" d="m274 696-4-4h-3l-4-5-2 1-3-2h-5l-19 4-3 3-7 3-1 9-6-1v-9l6-4 4-12v-5l9-19 2-11-5-2v-2h-15l-5 2-3 6-6-1-2-13-4-3-5 4h-5l-16 12-1 4 4 5-5 7h-4l-1 4 5 4-5 2-1 3-6 4v2l5 2 3 6-2 8h-5l-6 5h-3v8h-5l-3 7h-4l-3 3 4 3 3 15h-2l2 4-1 5-5-2-3 1-6 9-2 10-7 6-9 2-4 7v4l-4 4-2-1-4 3-12-2v-9l2-5-3-4-4-17-6-6-6 1-3 6-7 8 1 5-12 13-11 9-7 2-5-1-1 4-7 1-6 4-7 1-6 6 4 9-6 5-1 3-10 8-6 1-5 8-3 2-5-2-5 4 5 3-2 5v14l2 3-6 7h3l2 3h7l3 2 6-1 7 11-2 4 5 4 2 11 6 2v5l-7 3-7 8v3l4 11 8-3 5 5-1 3 3 3 2 15h-5l-4 4 2 2 4-2 6 4-2 3 1 6-4 3v4l-4 4v7l4-2 17 5 10-1-2 10 11 6 3-2 11-1 3-2 3 4 7 2 5-4 8-2v-4h4l6 6 11 4 6-1 7 2-2-6 7-4v-2l9-7 5 4h4l-5-8 9-8 1-3 11 2 13 7 8-3 8-8 10 1 5 5 13 2 8-6 1-7-2-14 5-6v-9l7-6 2-5 5-26 5-1 5 2 3-5 6-1 3 4 11 1 13-9-9-5v-6l-2-4-5-3 2-3-1-10 2-4-3-2 2-3 3 1 1-3 4-1 2-8-4-5v-7l-3-4 1-5-3-6 5-4 6 2 13-5 5-21-1-11-2-2v-33l1-5 5-3 1-3-3-6-6-3-3-14h-3l-8-13v-3l-3-2z"/>
  <path id="楚雄彝族自治州" fill="#ff6347" fill-opacity="1" fill-rule="evenodd" stroke="#ffffff" stroke-dasharray="none" stroke-linecap="round" stroke-linejoin="round" stroke-opacity="1" stroke-width="0.5" d="M605 655v-6l4-8-4-4-4 2-5-6 1-4-2-2 3-7h2v4l6 3v4l9-4 3-3 8 1 4-11-1-8 6-11h3l1-8-1-6-6 2v-6l-2-2 1-5-4-3 5-8 3 4 8-3-1-3 5-4 4-7-1-8-3-2 1-5-3-1 1-10-4 2-9-8v-3l-3-2 3-5v-6l-4-5 1-14 3-1-2-2 1-6-4-4-5-1-1-7 2-2-1-5 3-1-4-3v-4l3-5-1-3 4-12-1-3-6-2-4-5-6-3-4-12-12 8-12 16-10-2-6-4-12 2-6-4-4 1-7 11h-4v-7l-3-1-5-6 1-6 2-2-7-3-7-10-5-1-3-3-11 3-2-6-4-2-2-3 2-5 5-2 4 2 3-2-4-1 4-6-5-2 1-6-4-2v-2l-10-10-6-2-4-7-9 1 1 3-2 3 4 4-1 5-6 3v4l-9-1-9 4-20 4-6-2-5 4-8 1-5 4-8 3-5 7-7 4-10 9-4 8 2 3-1 20 5 4-7 8 3 5h4l4 4-3 10-6 4 4 4-9 7 2 3 5 2 4 7-2 5 7-1-8 9 5 5-2 4h7l3 19h-8l-3 18 3 3-1 4 5 3v2h7l3 2-2 7 2 4-7 1-1 3-4 1 1 4-3 1 5 7-1 3-7-2-2 3-4 1-4-3-7-1-4-3-2 1 3 7-3 1 1 7-8-1v4l-5 6 2 5-2 5 4 8-5 3 6 8-10 6 3 4 1 5 2-1 1 8-4 6 1 6 3 1v3l-3 1 1 6-2-1 5 3v5l7 5 2-2 10 2 6-5 1 4h6l1 11 4 3 6 12 6 8 2 10 2 4 4 3 1 5 7 6 7 9 2 5 6 2 9 8 4 1v-3l15-7 4-4 1-4-2-3 4-5 3 4 6 3 1 10 7 22 4 1 12-4 13-25 3-2 5 7 10 4 4 7 4 1 1-6 5 1-3 5 1 8 3-2 2 2 11-2v-2l5 2 4-5 3 1 6-5 1-11 4-3v-5l-5-3 3-5-3-5 2-3-7 3-5-1-1-6h-3l-1-5-3-3 2-3-4-4 2-3 3 1 5-2-2-9-3 2-3-3 9-9-3 1-1-7 2-11 7-5 1-4 2 1 2-6-2-5 1-2 9 2 5-1 1-6 5-2 2-4v-5l7 4 2 4 9 2z"/>
  <path id="红河哈尼族彝族自治州" fill="#ff6347" fill-opacity="1" fill-rule="evenodd" stroke="#ffffff" stroke-dasharray="none" stroke-linecap="round" stroke-linejoin="round" stroke-opacity="1" stroke-width="0.5" d="M765 736v7l-3 6-5 2 1 4 6 2-2 12 2 4 2-1 2 4 3 1-3 10 5 3v4l-3 3 1 6-7 5-4 11-5 2-3 6v2l3 1-3 3v-2h-4l-8-7-10 5-3 6h-4l2 3-5 2-4-8 1-3-2-1-9 6h-6l-3 9-4 1-4 4v5l-3-1-3 3-4-8 3-5-3-3 2-3-2-3-4-1 2-2-2-2-9 4-3-3-5 2-5-7-11 3-4-1 2-2-8-4-10-2-5 3 2 5 4-1 1 3-18 5-2 3 8 9v7h3l-3 5-3-2-5 1-4 4-7 3-5 8 9 13-7 9 3 5 7-1 5 2 12 13 1 5 4 5-1 5 7 6 1 7-4 5-3 9h-6l-2-2h-10l-1 3-5-4-6 9-1 7-4 5-6 1-5-3-2 2-8-5-5 2-3-3-11-2-6 5v7l3 2-3 6h-4l-6 4 4 6-3 7 1 2 9 3 7-2 3 3 3-6 9 4-1 2 7 4 6 6-4 4 2 7-8 10-8-1-1-5-10 2-1-2-4 1-2 6-4 2 2 7-2 6-2-1-7 7 4 7 10 8 3 1 5-5 9 5h4l7 10 5 4v5l4 9 22 8 2-2 7 4 5-2 3 8 5 4 6-2-1-4 5-2 8-9-3-1-3-7h4l5-4 4-6v-6l7-3 3 1 10 11v3l7-6 9 8 7-2 8 7h2l2 3 5 2 2 4 4-1 7 3 4 4-1 3 3 8 6 6 1 4 10 1 1 3 7 4 8-1v-8l2-4 6-2 4-4h3l5-4-3-4v-6l5-8 4 1 12-7 1-10 6-9v-6l10 2 12 9-2 4 1 6 4 5v3l9 12 5 1 4-8 3-2 1-5-2-6 3-6 5-5 2-6 4-2 4 3 3 6 5 2 8 11h3l10 14 10 10 2-1 13 13 8-3v-11l4-11v-11l3-9 13-15 4 1 5-4 10-1 7-3 3 3v-7l-3-2h-8l-5 6-2-1v-5l-4 2-3-7-4 1-9 14-4-1v-3l-4 4 3 5-5 10-2-1v5l-2 3-5 2-5-1-2 3-5-2-2-4 3-4-2-8 1-4-2-3h4l2-4v-11l-2-5 5-7h2l2-10-4-7 2-10-2-2v-10l-5-10 1-6 4-4-4-11-6-4-5-1-4-4-3 3-2-14 3-4-4-4 1-4-3-1 2-4h-12l-2-6 3-3-2-2-4 1-2 5-3-2-4 5-4-1-7-6-2-8 5-1 7-9 2-5-2-4v-8l-4-7 3-3 1-12 3-5-1-3 8-5-3-6 2-2-1-2h-3l-8-6 1-3-3-5-8-7-1-8 3-6 6-4 3-7 6-3h4v-4l6 2 8-1 3-3v-6l4-2 2-3v-6l4-2 4-9 8-4 7-11 4-2 4 1 5-3-2-6 5-2 1-7h-2l-11-13 5-6-5-7-3 4-4-2v-4h-7l-4-4-6-2-4-6-4 1-1-2-5 8-7-5 6-9-4 2h-5l-2 3h-3l-11 22 3 2-3 4-10 8h-4l-1 6-11 6-4-3 6-4-2-2 3-3h-6l-2-3-5-1-6-6-15-7-3-3-3 5 2 2-1 4-3-1-2 5 2 6-4 4 2 4-2 1-11-3-2 2-3-3h-2zm-10 94-3-1v4z"/>
  <path id="文山壮族苗族自治州" fill="#ff6347" fill-opacity="1" fill-rule="evenodd" stroke="#ffffff" stroke-dasharray="none" stroke-linecap="round" stroke-linejoin="round" stroke-opacity="1" stroke-width="0.5" d="m1031 743-3 4h-5l1 3-11-1-9 4-1 8-10 1-2 2-11 3-3-3-10 2-1-4 3-3-9-13-6 2-2-2-14 7-8-5-4 2-4-1-4 2-7 11-8 4-4 9-4 2v6l-2 3-4 2v6l-3 3-8 1-6-2v4h-4l-6 3-3 7-6 4-3 6 1 8 8 7 3 5-1 3 8 6h3l1 2-2 2 3 6-8 5 1 3-3 5-1 12-3 3 4 7v8l2 4-2 5-7 9-5 1 2 8 7 6 4 1 4-5 3 2 2-5 4-1 2 2-3 3 2 6h12l-2 4 3 1-1 4 4 4-3 4 2 14 3-3 4 4 5 1 6 4 4 11-4 4-1 6 5 10v10l2 2-2 10 4 7-2 10h-2l-5 7 2 5v11l-2 4h-4l2 3-1 4 2 8-3 4 2 4 5 2 2-3 5 1 5-2 2-3v-5l2 1 5-10-3-5 4-4v3l4 1 6-11 3-3 4-1 3 7 4-2v5l2 1 5-6h8l3 2 1 4-5 13 3 7 13 4v3l6 3 5-2 4-7 6-2 8-6 5-8 5-2 4-4h3l4 7 1-5 6 1 3 3 12-2-1-5 5-2 2-6 16-9v-6l-4-5-3-8-3-15 13-3 2-9 5-1 6 5 2-8 7-1 1-3 10-7 7-3 2 3h3l11-6 10 2 4-10v-4h4l8-10 4 4 1 5 4 5 7 7 5-3 3 7 7 8 1 4 7 3 1-3-4-7 1-2 6-2 1-5 5-6 13-7 1 4h5l-5-4 4-3-8-7 4-2 5 1 11-11 8-2 2-7 7-5 7 1 4 5 4-2 4 3 5 1 2 3-1 5 4-2 4-5 7-2 2-6 4-2 6-7-3-3v-4l5-12 1-12-2-4-1-10 3-4 7-2-4-7h4v-4l-7-3-5-12-7-9 1-3-4-2-3-5-1-7-7-3-3-5-6 3-5-2-5 1v9l-3 6-6-3-3 5-8 2-2-4 3-2-2-4-10 2-7-1-4 6-5 1-4-14v-5l-6-2-9 3-5 5-2 14-2 2-15-5-3-5-9-4-5-6-5 1-4 4 4 3-6 3-5-3-9-11v-7h8l3-8-2-2h-3l-3-6-4-1-2-5 1-5 4-5-1-4-8-6-5 1-3-2 2-6-10-5h-7l-7 5h-9l-3-3-14-4-9 1-6-3v4l-7-1-2 4 3 16-2 4-5-2-4-5-9-4 3-4-2-5h-7z"/>
  <path id="西双版纳傣族自治州" fill="#ff6347" fill-opacity="1" fill-rule="evenodd" stroke="#ffffff" stroke-dasharray="none" stroke-linecap="round" stroke-linejoin="round" stroke-opacity="1" stroke-width="0.5" d="m499 1168-7-2-10 2 2-8-6-2-4-5v-6l-3-3-4-15-3-4-1-7-8 1-6 4h-4l-7 5-10-2-9 2-5-4-10 2-5-1-12-8-4 3-3-2 1 5-7 1-6 5h-4l-4-2v-4l-4-5-9-2v3l-10 1-6 10-12 1v4l-6 1-2 5 1 2-5 3-2-3-9-1-11 2-4 3v2l-6-2-6 7 2 6-4 21-5 4-12-6-2-3-11-1-2 4 1 4h-3l-2 3-5 1-7-3-3 1-4 16-4 6-6 4h-3l-2 7-5 8 1 4 5 5 1 4-3 10-4 2 1 4-3 5-1 8 3 5 4 15 2 3 8 2-1 4 3 1 9-7h4l5 3 4 5v3h-3l-8 12 3 4-1 4 2 7 7 5 2-6 5 1 4 7 3 2 7-4 2 1 4-2 6-8 7 1 6-3 3 1 8 15 8-3 6 4h4l16-7 4-4 7-2 5-7 5-2 4-9 7-4 5-8 3-2h5l5-3 5 1 8-3 14-13 6 1-2 4 1 11 3 4 3 1 3 15-3 1-1 5 12 1v9l3 1-6 6v9l-2 2-8 2 8 14 12 8-5 12 12 11 10-4 8-6h11l5-3 10-2 13 4-2 8 3 4 6-4 6-1 5 10h12l5-12h8l-1-9-5-2-2-4h-5l-4-3-3-7 2-13 2-1-2-15 6-6-3-5 1-4-3-2 2-3 6 3 3-1 4-8-3-5h-6l-2-15-3-2 2-12 3-7-7-4-1-6-6-4 1-6-3-3-5 1-1-2-9-4 3-7-1-6-6-9-2-7 5-3-1-6-9-14 3-7h8l3-3 2-6z"/>
  <path id="大理白族自治州" fill="#ff6347" fill-opacity="1" fill-rule="evenodd" stroke="#ffffff" stroke-dasharray="none" stroke-linecap="round" stroke-linejoin="round" stroke-opacity="1" stroke-width="0.5" d="m-3 509 5 2 7-2 10 2-1 13h10l4 8-3 5 5 6 6-1 7-5-1-5 6 2 5-5 6-2 14 7v3l5 8-3 4 1 5-2 1-9-3 2 10-2 2 11 15h3l5 11 22 23 6-2 2 3 14 4 5 6h4l3 3 8-2-1-2 4-3h13v-5l6-9-1-4 4-3 9-3v4l10 13v4l7-2 4 2-2 3 3 7-10 4 4 3 2 13 6 1 3-6 5-2h15v2l5 2-2 11-9 19v5l-4 12-6 4v9l6 1 1-9 7-3 3-3 24-4 3 2 2-1 4 5h3l4 4h2l4-5 13-1v3l9 4 11-9 1-8 3-7 8 3 1 2 10 3-1-6 3-1v-3l-3-1-1-6 4-6-1-8-2 1-1-5-3-4 10-6-6-8 5-3-4-8 2-5-2-5 5-6v-4l8 1-1-7 3-1-3-7 2-1 4 3 7 1 4 3 4-1 2-3 7 2 1-3-5-7 3-1-1-4 4-1 1-3 7-1-2-4 2-7-3-2h-7v-2l-5-3 1-4-3-3 3-18h8l-3-19h-7l2-4-5-5 8-9-7 1 2-5-4-7-5-2-2-3 9-7-4-4 6-4 3-10-4-4h-4l-3-5 7-8-5-4 1-20-2-3-3 3-5-1-7-5-1-3-9 2-6 6-6 1-3 5-8 6 1 11 3 9-8-1-10 3v-4l-7-4-2 3-5-1-2-5-1-12 3-2-4-5-3 2-6-4-1-7 6-4-3-3-4-14-3-3 2-3 4-2 4-6h-2l3-9h7v-3l-5-3-4 1v-4l-3-7 3-2h5l-5-5 2-5h-7l-2-6h-7l1-5-2-5-4 3 1-5h-6l-3-2v-4l-9 2-1-11-7 2-8 14-4 3h-4l-6-7-4-1-1 10-7 2-12-5-6-7h-4v5l-12-1-7-4-7 2-4 3-5-1-2-7-5-4h-3l-3 2-2 9h-4l-19 11 2 11-1 8 4 5-1 5-15 17-8-1-7 7-5-1-4 9 5 3-3 4-3 2-4-1-13 8-5 6-3 1 3 6 5 3-1 2-11-6-6 2v-5l-10-1-4 2v3l-3 4-2 10 2 6v15l9-2 2 2 12 35-7-1-4 2-3-4 2-2-8-2-1 7 5 6v3l-4-1-1 3-3 1-17-7v-4l-7 1-1 4 4 3-3 9z"/>
  <path id="德宏傣族景颇族自治州" fill="#ff6347" fill-opacity="1" fill-rule="evenodd" stroke="#ffffff" stroke-dasharray="none" stroke-linecap="round" stroke-linejoin="round" stroke-opacity="1" stroke-width="0.5" d="m-148 570-3 1-1 3-6 2-2-1-4 4 1 2-11 12-6 2-8-10-6-2-11 30-6 8h-5l2 7-2 7v7l3 6-1 8 6 6h4l3 6-6 4-10-1-2-2-9 10-15 5-4 6 3 2 1 24-3 23-4 12 25-4 2 3v6l7 10-6 4h-4v8h11l5 3 3 5-7 6v9h3l2 4-4 2-1 8-7 4-10 9-1 8-10 5-1 3-7 5v3l19 9 2 8 2-5 1 3 3-2 1-3 5 3 3-7 6-2 1-4 5-5 3 2 5-6 4-2 7 1-3-4 4-4h6l9-3 2-3 20-9 16-1 4-3 26 3 1-3 17-3h17v4l7 3v2l10-5 6 1 6-4-5-2 1-11 7-4-2-6-3-3v-6l4-10-2-2 2-5-2-5-4-4 1-2-2-5 8-8-3-2-5-8 2-2-1-3h-6l-7-4-7 2-6 4h-8l-3 2-2-2 2-3-2-4-3-2v-3l-3-5h-5v-2l7-6-3-5 2-5-5-7 2-3 7-1 5-6 9 2 2-5-4-7v-6l-4-2-13 5-1-5-14 1-5-2-1-8-2-2-5 4h-3l-4 4-3-3 1-3-3-3v-9l5-7 3-9-2-4-4 1-7-7-3-1-2-6 4-8v-7l-6-4-1-3-5-1-4-8z"/>
  <path id="怒江傈僳族自治州" fill="#ff6347" fill-opacity="1" fill-rule="evenodd" stroke="#ffffff" stroke-dasharray="none" stroke-linecap="round" stroke-linejoin="round" stroke-opacity="1" stroke-width="0.5" d="m135 298-4-4-4-1-6-19 2-7-3-1 2-4-3-1v-8l-6-2-5-7-1-4h-6l-3-2-3 3-2-3-4 4 5 4-8 5-4-7 1-3-11-23-8-1 3 10-11 9-10-2-2-2h-5l-3-2-3 3-7 2-9-2v-7l3 1 1-4-3 1-4-2 1-2-3-5 2-4v-12l-3-1v-6l3-2 2-4-1-7 4-7-3-8-5 1-5-3-3 2v-6l-3-7 2-5-1-9-3-6 3-6-3-8-3-2 8-12-6-8-9-8-1-3 6-4 1-5-5-10 1-5-6 2-3-4 1-5-2-1-2-7 2-23-3-6-5-3 2-1-2-4-3-1-2-7-3-2-4-10 2-6-8 4-5 7-7-4h-5l-6 3-3 5-8-1-1 4-6 5h-5l-2-2V-7l-3-4 1-13-4-10h-3l-4-6 1-5-3-2-1-6-3-2-2 3-7 2-1 5-3-2-1 6 5 4 6 14-7 3-2 3-3-1-6 3 1 8-4 2-2 3 1 6 3 2-4 12 1 5-3 7 2 7 3 2h6l3 11-2 3h-3l-2 5 1 3 6 4h3v13l4 3-4 2v3l2 5 5 3 1 3 3 1 5 15-1 6 2 7 4 2h6l6-7 4-1 2-16-1-6 2-2 6 6h5l1 2 5 1v-3l4-2 5 12 11 4 3-4 4 5h3l-1 5 2 4-4 6 4 5-3 3-1 5 3 3 1 10 5 2 1 5-1 8-3 6 2 3-2 3 1 2-5 2 3 15v13h5l5 5-1 6-5 3 2 4-2 4 4 17-5 6 6 11-3 21 5 1-2 6 4 8v4l-5 9-2 35-3 2 1 6-9 8-2 14 7 2 4 9-1 4-4 4 3 4-11 8 1-6-2-5-5-1-5 3-2-2-3 5 5 12 2 18 4-1 5 4 7 12 1 8 4 4-3 5 2 6 4 2-1 6 3 4-2 3 4 5-2 4 2 6-3 10 3 5 19 1 3-12-3-4 3-1-3-12 3-9-4-3 1-4 7-1v4l17 7 3-1 1-3 4 1v-3l-5-6 1-7 8 2-2 2 3 4 4-2 7 1-12-35-2-2-9 2v-15l-2-6 5-17 4-2 10 1v5l6-2 11 6 1-2-5-3-3-6 3-1 5-6 13-8 4 1 3-2 3-4-5-3 4-9 5 1 7-7 8 1 5-7 4-2 6-8 1-5-4-5 1-8-2-11 19-11h4l2-9z"/>
  <path id="迪庆藏族自治州" fill="#ff6347" fill-opacity="1" fill-rule="evenodd" stroke="#ffffff" stroke-dasharray="none" stroke-linecap="round" stroke-linejoin="round" stroke-opacity="1" stroke-width="0.5" d="m254 81 1-11-3-3 4-5v-6l-3-2-7 1-8-3-8-6 5-6-14-17-6-2-8-21-4-4 3-7h3l2-2 5 2 3-4 8-1 3-3-1-2 5-4-8-8 4-1 1-5-7-6-15-6 4-10-2-5-3 1-8-4-4-8 1-5-4-3-1-4-7-8-7-2-2-5-7 1 2-5-9-10h-7l-4-4-2-8-1-18-7 7-10-1v4l-3 5 2 6-3 4-9 3-4 6 2 2v10l-4 2-4-1v3l-6 5v6l-7-1-4 2-2 5 2 2-2 4 4 3 2 5-4 2 2 6h3l1 4-3 6-3 2 1 5-3 3 4 5v6l-2 1-3 9v7l3 7-5-6-3-1-5-7-5-2-1-7h-3l1-5-2-3-7-4-2-6-5-3v-3l-5-5-1-5 3-3 1-12-4-14 3-5-3-1 1-4-2-4-3-2-3-12 1-7-4-6 1-3-3-8v-5l4-10 1-13v-14l-2-3v-15l-2-7 2-13-1-4-4-1-3 3h-7l-2 4-9-3v5l-3 2 1 9 8 10 1 8-10 8-1 3-5 2-2 19 11 5-2 3 1 3-9 2v4h-8l-5 2-4-5-2-16 1-5-2-2 1-4-6-8v-2l-3-2-11 9-14-2 1 7 4 3-2 7 1 7 3 3-3 6 2 6 3 3v9l-2 3-6 3v2l-7 2 4 13-1 1 4 17-3 4 2 5 8 2 3 10 3 4v4l9 11-2 4-5 2-1 16-3 3-2 6 4 10 3 2 2 7 3 1 2 4-2 1 5 3 3 6-2 23 2 7 2 1-1 5 3 4 6-2-1 5 5 10-1 5-6 4 1 3 9 8 6 8-8 12 3 2 3 8-3 6 3 6 1 9-2 5 3 7v6l3-2 5 3 5-1 3 8-4 7 1 7-2 4-3 2v6l3 1v12l-2 4 3 5-1 2 4 2 3-1-1 4-3-1v7l9 2 7-2 3-3 3 2h5l2 2 10 2 11-9-3-9h8l11 23-1 3 4 7 8-5-5-4 4-4 2 3 3-3 3 2h6l-4-12-5-4-3-7v-8h3l-1-7-3-2-2-7-5-5 6-3-3-11 8-13-5-5v-7l-2-5 2-3-1-6 14-4 2-3 1-7 9-4v4l3 3-2 6 2 5 3 4 4 1-2 5 11 16-3 5 4 4v3l8 8h2l5 8 5 1 5 8 8 8 3 7 7 4v5l4 2 1 5 4 4v3l3 4-2 1v11l2 2-1 4 3 1 11-7 2-6 2-1v-5l4-12-2-3 2-2-4-13 1-10 7-4 19-25 5-1v-10l-5-8 1-3-3-9-3-4 2-7 10-12-1-6 5-2-2-4 7-9v-4l-3-1 3-5z"/>
</svg>
