<?xml version="1.0" encoding="UTF-8" standalone="no"?>
<svg
   width="1579"
   height="1629"
   viewBox="-251 -228 1579 1629"
   version="1.1"
   id="svg1"
   xmlns="http://www.w3.org/2000/svg"
   xmlns:svg="http://www.w3.org/2000/svg">
  <defs
     id="defs1" />
  <path
     stroke="#ffff00"
     stroke-opacity="1"
     stroke-width="0.5"
     stroke-linecap="round"
     stroke-linejoin="round"
     stroke-dasharray="none"
     fill="#1e90ff"
     fill-opacity="1"
     fill-rule="evenodd"
     d="m 765,735.99999 6,-4 h 2 l 3,3 2,-2 11,3 2,-1 -2,-4 4,-4 -2,-6 2,-5 3,1 1,-4 -2,-2 3,-5 3,3 15,7 6,6 5,1 2,3 h 6 l -3,3 2,2 -6,4 4,3 11,-6 1,-6 h 4 l 13,-12 -3,-2 4,-6 -1,-1 6,-12 -2,-3 3,-5 -3,-4 1,-2 -2,-6 v -12 l -7,1 -5,-3 -2,8 -5,-3 -4,7 h -5 l -9,-12 -1,-6 5,-4 -1,-12 -5,-4 1,-1 -6,-4 v -3 l 2,-2 6,-1 8,-6 -5,-3 2,-4 -3,-3 v -5 l -8,-2 -2,2 -1,6 -5,-3 h -9 v 5 l -3,-1 v -6 l -4,-2 2,-4 -7,-2 2,-9 h 4 v -5 l 2,-1 v -4 l 3,-3 h -5 l -4,-3 6,-13 7,-4 5,-6 -2,-4 2,-3 h 10 l 1,-5 -2,-4 2,-4 -2,-4 3,-1 2,3 7,2 5,-4 h 4 l 2,-2 -4,-6 -4,1 -2,-3 v -6 l 5,-6 -2,-3 4,-5 -3,-3 1,-4 7,-5 -3,-4 1,-4 -6,3 -2,-5 -5,3 -2,-2 1,-6 -2,-2 -7,7 -6,-2 1,-3 -6,2 -6,-3 -2,4 -3,-4 -2,-6 3,-5 v -6 l -2,-1 -2,-11 4,-9 -1,-4 -6,-5 -2,-11 -3,-2 3,-3 -2,-4 -6,-5 -4,-1 v 4 l -3,-1 -1,-3 -3,-1 v -5 l -3,1 -5,-3 1,-7 -3,-7 1,-7 -8,-31 v -6 l -1,6 -4,6 -7,1 1,6 -2,9 2,7 -2,5 -17,2 -2,-6 -3,6 -6,6 -9,2 -3,4 -5,2 -3,5 v 5 l -9,3 -2,-3 -11,-6 2,-7 5,-5 -2,-6 -10,-5 h -4 l -2,5 -19,8 h -7 l -9,11 -12,5 h -5 l -2,2 -1,5 4,12 6,3 4,5 6,2 1,3 -4,12 1,3 -3,5 v 4 l 4,3 -3,1 1,5 -2,2 1,7 5,1 4,4 -1,6 2,2 -3,1 -1,14 4,5 v 6 l -3,5 3,2 v 3 l 9,8 4,-2 -1,10 3,1 -1,5 3,2 1,8 -4,7 -5,4 1,3 -8,3 -3,-4 -5,8 4,3 -1,5 2,2 v 6 l 6,-2 1,6 -1,8 h -3 l -6,11 1,8 -4,11 -8,-1 -3,3 -9,4 v -4 l -6,-3 v -4 h -2 l -3,7 2,2 -1,4 5,6 4,-2 4,4 -4,8 v 6 l 6,-2 v 6 l 6,3 1,5 -2,6 1,4 h -2 l 3,9 -1,12 -2,2 2,5 -4,2 4,12 -2,7 -3,-1 -3,6 -4,1 -3,4 h -2 l 1,5 h 2 l 5,5 1,4 2,-1 8,5 -2,2 3,4 5,-3 4,1 3,-8 -3,-1 3,-2 1,-6 4,-3 3,4 6,-7 7,2 3,-4 6,2 4,-5 h 7 l 2,5 -4,2 4,2 10,-2 4,2 -1,4 2,2 9,-5 4,2 2,-4 7,-3 -3,-2 -2,-6 2,-8 3,-4 -2,-3 3,-3 1,-5 5,-8 -3,-8 h 6 l 8,-4 -2,-7 1,-11 3,2 2,-3 h 4 l 1,-4 h 3 l 4,-3 v -5 l 5,12 -3,20 2,1 3,-3 7,4 -6,10 -2,12 2,8 -1,7 2,2 6,1 5,-3 z"
     id="昆明市" />
  <path
     stroke="#ffff00"
     stroke-opacity="1"
     stroke-width="0.5"
     stroke-linecap="round"
     stroke-linejoin="round"
     stroke-dasharray="none"
     fill="#1e90ff"
     fill-opacity="1"
     fill-rule="evenodd"
     d="m 816,285.99999 3,6 -6,-2 -1,-4 -5,4 -7,-4 -1,2 -10,1 v 5 l -4,6 2,3 -3,2 v 3 l -7,3 -10,-5 -2,3 -6,2 -3,20 8,31 -1,7 3,7 -1,7 5,3 3,-1 v 5 l 3,1 1,3 3,1 v -4 l 4,1 6,5 2,4 -3,3 3,2 2,11 6,5 1,4 -4,9 2,11 2,1 v 6 l -3,5 2,6 3,4 2,-4 6,3 6,-2 -1,3 6,2 7,-7 2,2 -1,6 2,2 5,-3 2,5 6,-3 -1,4 3,4 -7,5 -1,4 3,3 -4,5 2,3 -5,6 v 6 l 2,3 4,-1 4,6 -2,2 h -4 l -5,4 -7,-2 -2,-3 -3,1 2,4 -2,4 2,4 -1,5 h -10 l -2,3 2,4 -5,6 -7,4 -6,13 4,3 h 5 l -3,3 v 4 l -2,1 v 5 h -4 l -2,9 7,2 -2,4 4,2 v 6 l 3,1 v -5 h 9 l 5,3 1,-6 2,-2 8,2 v 5 l 3,3 -2,4 5,3 -8,6 -6,1 -2,2 v 3 l 6,4 -1,1 5,4 1,12 -5,4 1,6 9,12 h 5 l 4,-7 5,3 2,-8 5,3 7,-1 v 12 l 2,6 -1,2 3,4 -3,5 2,3 7,-6 h 5 l 4,-2 -6,9 7,5 5,-8 1,2 4,-1 4,6 6,2 4,4 h 7 v 4 l 4,2 3,-4 5,7 -5,6 3,2 3,6 h 2 l 3,5 h 2 l -1,7 -5,2 2,6 -1,1 8,5 14,-7 2,2 6,-2 9,13 -3,3 1,4 10,-2 3,3 11,-3 2,-2 10,-1 1,-8 9,-4 11,1 -1,-3 h 5 l 3,-4 -4,-3 1,-6 -3,-4 h -3 l -3,-11 1,-7 -6,-4 5,-4 3,-12 4,-6 v -11 l 10,-15 7,-4 5,-11 9,-7 -2,-8 -3,-4 -12,-1 10,-1 3,-2 1,-9 4,-4 3,-7 -1,-4 3,-4 4,2 7,9 3,-2 -2,-4 v -7 l 3,-2 -2,-5 -3,1 -3,-3 h -8 l -5,-2 -1,-4 -6,1 -2,2 -4,-2 1,-13 -5,-1 -9,-8 -1,2 -4,-2 3,-24 -2,1 -4,-2 -8,7 h -6 l -2,4 -3,-5 3,-5 v -7 l -2,-1 -1,-5 -6,-2 -3,3 -2,-4 -4,1 -5,-10 3,-12 v -11 l 9,6 4,-6 1,-8 5,-4 -1,-5 3,-5 -1,-5 h -3 l -1,-3 4,-4 1,-6 5,-10 -1,-4 2,-5 -3,-4 v -3 l 8,3 5,-6 -2,-6 v -8 l 2,-1 4,-8 -2,-8 7,-8 2,-5 13,-4 -1,-3 5,-2 v -3 l -3,-4 v -8 l -6,-3 1,-6 -4,-6 -4,-3 h -4 l 1,-9 -4,-4 h -10 l -3,2 -4,-3 -1,-3 2,-7 -9,-14 -4,1 -3,12 -3,1 -3,5 -6,1 -5,-4 -3,3 -4,-2 -4,2 -12,-6 -7,2 -10,13 -1,3 2,8 -4,3 -2,-2 -6,1 -1,-2 h -21 l -4,2 -4,-4 h -4 l -1,-5 -9,-6 1,-3 -4,-5 4,-19 -1,-4 -3,2 -4,-3 -1,-6 -3,-5 v -7 l 3,-5 9,-3 -1,-10 2,-4 v -3 l -4,-2 -4,-12 -5,-6 h -5 l -4,5 -8,4 v 3 l -3,1 -7,-4 -7,3 -6,-3 -5,4 -6,-4 -1,2 4,4 v 5 l -5,11 -3,-1 2,5 -4,7 v 6 l -3,8 3,4 z m 1,0 v 1 z"
     id="曲靖市" />
  <path
     stroke="#ffff00"
     stroke-opacity="1"
     stroke-width="0.5"
     stroke-linecap="round"
     stroke-linejoin="round"
     stroke-dasharray="none"
     fill="#1e90ff"
     fill-opacity="1"
     fill-rule="evenodd"
     d="m 605,654.99999 -1,2 -9,-2 -2,-4 -7,-4 v 5 l -2,4 -5,2 -1,6 -5,1 -9,-2 -1,2 2,5 -2,6 -2,-1 -1,4 -7,5 -2,11 1,7 3,-1 -9,9 3,3 3,-2 2,9 -5,2 -3,-1 -2,3 4,4 -2,3 3,3 1,5 h 3 l 1,6 5,1 7,-3 -2,3 3,5 -3,5 5,3 v 5 l -4,3 -1,11 -6,5 -3,-1 -4,5 -5,-2 v 2 l -11,2 -2,-2 -3,2 -1,-8 3,-5 -5,-1 -1,6 -4,-1 -4,-7 -10,-4 -5,-7 -3,2 -13,25 -12,4 -4,-1 -7,-22 -1,-10 -6,-3 -3,-4 -4,5 2,3 -1,4 -4,4 -15,7 v 3 l 7,13 5,6 2,11 5,3 v 6 l 5,6 v 5 l 6,3 2,6 5,4 2,6 4,1 4,5 -6,4 -7,11 -3,-2 -9,5 4,3 1,6 -3,3 1,4 2,1 1,4 5,-1 2,-6 h 2 l 3,-4 6,-1 7,8 -1,4 h -4 l -1,6 5,4 2,-4 8,11 13,-7 4,3 -5,7 -3,-1 v 4 l 4,-1 v 4 l 3,4 4,1 -3,6 4,4 2,-1 7,10 1,5 -4,5 h -4 l 1,5 2,2 5,-1 7,3 -1,4 h 4 l 6,5 v -2 l 6,-5 11,2 3,3 5,-2 8,5 2,-2 5,3 6,-1 4,-5 1,-7 6,-9 5,4 1,-3 h 10 l 2,2 h 6 l 3,-9 4,-5 -1,-7 -7,-6 1,-5 -4,-5 -1,-5 -12,-13 -5,-2 -7,1 -3,-5 7,-9 -9,-13 5,-8 7,-3 4,-4 5,-1 3,2 3,-5 h -3 v -7 l -8,-9 2,-3 18,-5 -1,-3 -4,1 -2,-5 5,-3 10,2 8,4 -2,2 4,1 11,-3 5,7 5,-2 3,3 9,-4 2,2 -2,2 4,1 2,3 -2,3 3,3 -3,5 4,8 3,-3 3,1 v -5 l 4,-4 4,-1 3,-9 h 6 l 9,-6 2,1 -1,3 4,8 5,-2 -2,-3 h 4 l 3,-6 10,-5 8,7 h 4 v -4 l 3,-6 5,-2 4,-11 7,-5 -1,-6 3,-3 v -4 l -5,-3 3,-10 -3,-1 -2,-4 -2,1 -2,-4 2,-12 -6,-2 -1,-4 5,-2 3,-6 1,-19 -5,3 -6,-1 -2,-2 1,-7 -2,-8 2,-12 6,-10 -7,-4 -3,3 -2,-1 3,-20 -5,-12 v 5 l -4,3 h -3 l -1,4 h -4 l -2,3 -3,-2 -1,11 2,7 -8,4 h -6 l 3,8 -5,8 -1,5 -3,3 2,3 -3,4 -2,8 2,6 3,2 -7,3 -2,4 -4,-2 -9,5 -2,-2 1,-4 -4,-2 -10,2 -4,-2 4,-2 -2,-5 h -7 l -4,5 -6,-2 -3,4 -7,-2 -6,7 -3,-4 -4,3 -1,6 -3,2 3,1 -3,8 -4,-1 -5,3 -3,-4 2,-2 -8,-5 -2,1 -1,-4 -5,-5 h -2 l -1,-5 h 2 l 3,-4 4,-1 3,-6 3,1 2,-7 -4,-12 4,-2 -2,-5 2,-2 1,-12 -3,-9 h 2 l -1,-4 2,-6 -1,-5 -6,-3 v -6 z"
     id="玉溪市" />
  <path
     stroke="#ffff00"
     stroke-opacity="1"
     stroke-width="0.5"
     stroke-linecap="round"
     stroke-linejoin="round"
     stroke-dasharray="none"
     fill="#1e90ff"
     fill-opacity="1"
     fill-rule="evenodd"
     d="m -3,508.99999 -3,1 3,4 -3,12 -19,-1 -3,-5 3,-10 -2,-6 2,-4 -4,-5 2,-3 -3,-4 1,-6 -4,-2 -2,-6 3,-5 -4,-4 -5,4 v 4 h -3 l -4,3 -6,-2 -7,-6 h -7 l -9,11 v 5 l -4,5 v 11 l -8,2 -2,16 -4,-1 -2,3 -8,3 -2,5 -8,-10 -5,-3 -14,-3 4,11 -5,9 -6,2 5,11 -1,10 -3,5 -6,-1 -2,11 4,8 2,2 5,1 1,3 6,4 v 7 l -4,8 2,6 3,1 7,7 4,-1 2,4 -3,9 -5,7 v 9 l 3,3 -1,3 3,3 4,-4 h 3 l 5,-4 2,2 1,8 5,2 14,-1 1,5 13,-5 4,2 v 6 l 4,7 -2,5 -9,-2 -5,6 -7,1 -2,3 5,7 -2,5 3,5 -7,6 v 2 h 5 l 3,5 v 3 l 3,2 2,4 -2,3 2,2 3,-2 h 8 l 6,-4 7,-2 7,4 h 6 l 1,3 -2,2 5,8 3,2 -8,8 2,5 -1,2 4,4 2,5 -2,5 2,2 -4,10 v 6 l 3,3 2,6 -7,4 -1,11 5,2 26,-2 10,-10 7,-1 6,-4 7,-1 1,-4 5,1 7,-2 11,-9 12,-13 -1,-5 7,-8 3,-6 6,-1 6,6 4,17 3,4 -2,5 v 9 l 12,2 4,-3 2,1 4,-4 v -4 l 4,-7 9,-2 7,-6 2,-10 6,-9 3,-1 5,2 1,-5 -2,-4 h 2 l -3,-15 -4,-3 3,-3 h 4 l 3,-7 h 5 v -8 h 3 l 6,-5 h 5 l 2,-8 -3,-6 -5,-2 v -2 l 6,-4 1,-3 5,-2 -5,-4 1,-4 h 4 l 5,-7 -4,-5 1,-4 16,-12 h 5 l 5,-4 10,-4 -3,-7 2,-3 -4,-2 -7,2 v -4 l -10,-13 v -4 l -9,3 -4,3 1,4 -6,9 v 5 h -13 l -4,3 1,2 -8,2 -3,-3 h -4 l -5,-6 -14,-4 -2,-3 -6,2 -22,-23 -5,-11 h -3 l -11,-15 2,-2 -2,-10 9,3 2,-1 -1,-5 3,-4 -5,-8 v -3 l -14,-7 -6,2 -5,5 -6,-2 1,5 -7,5 -6,1 -5,-6 3,-5 -4,-8 H 18 l 1,-13 -10,-2 -7,2 z"
     id="保山市" />
  <path
     stroke="#ffff00"
     stroke-opacity="1"
     stroke-width="0.5"
     stroke-linecap="round"
     stroke-linejoin="round"
     stroke-dasharray="none"
     fill="#1e90ff"
     fill-opacity="1"
     fill-rule="evenodd"
     d="m 756,324.99999 1,2 2,-16 6,-2 2,-3 10,5 7,-3 v -3 l 3,-2 -2,-3 4,-6 v -5 l 10,-1 1,-2 7,4 5,-4 1,4 6,2 -3,-6 v -4 l -3,-4 3,-8 v -6 l 4,-7 -2,-5 3,1 5,-11 v -5 l -4,-4 1,-2 6,4 5,-4 6,3 7,-3 7,4 3,-1 v -3 l 3,-2 -5,-10 3,-3 8,3 -1,-6 -6,-1 v -3 l 9,-4 4,1 10,-17 h 3 l 6,-8 1,-4 4,1 3,-5 4,1 2,-10 h 2 l 3,-3 v -8 l 4,-6 1,-6 5,4 6,1 4,-2 1,9 2,4 5,2 5,5 5,-1 4,3 v 3 l 7,9 3,-5 6,2 -2,-4 7,1 2,-3 -2,-6 8,-8 3,-6 h 2 l 4,-6 -2,-2 4,-5 10,2 1,5 15,5 -1,2 h 5 l -2,3 6,12 5,-1 8,5 3,-2 h 9 l 2,-3 6,-2 3,2 3,-3 3,6 3,-1 4,-7 9,5 -2,6 4,3 6,-4 2,-4 5,-4 13,-7 3,-4 7,-4 5,2 5,-2 5,3 3,-1 3,4 v 5 l 9,-14 -1,-1 2,-10 2,-1 2,-5 -2,-6 -3,1 5,-8 8,-6 -2,-5 3,-4 -1,-11 -2,-1 v -12 l -3,-5 7,-5 -7,1 -6,-3 1,-3 -3,-10 9,-8 -2,-13 -4,-3 -6,4 -6,-1 -3,-6 3,-3 v -4 l -3,-3 -4,1 -7,-3 h -5 l -4,-3 -8,6 -7,1 v 9 l -5,5 v 3 l -3,-1 -5,5 3,4 -4,1 -2,5 -5,2 h -12 l -5,4 -4,-4 -12,4 -8,7 -5,-2 -5,3 -4,-2 v -3 l -5,-4 -4,2 -2,-4 -5,-2 -3,-4 -9,-5 -4,-4 v -5 l -5,-5 -5,-1 -5,-4 1,-2 h 13 l 4,-3 1,-5 3,-1 3,-4 h 3 l -1,-10 -7,-2 -1,-6 6,-1 5,-8 -4,-3 1,-2 h -7 l -3,-4 -1,-8 -5,-2 -3,1 -5,6 -5,-2 3,-3 -5,-4 -4,-13 2,-2 -1,-7 2,-3 -2,-3 1,-4 -3,-1 v -4 l 2,-2 5,1 7,-2 1,-4 5,1 2,-6 3,-3 h 6 l 1,-6 -4,-3 -5,-1 -6,1 -5,6 -3,-4 -5,-1 -3,-5 h -2 l -2,5 h -20 l -6,7 -6,-5 -21,5 -1,-4 -5,-2 -2,3 -4,-2 v -5 l -4,-3 -3,9 v 8 l -7,5 v 6 l -3,1 5,6 4,8 -1,4 5,7 v 10 l 4,7 -1,5 -8,3 -2,4 -5,2 -3,5 -6,-1 -3,7 -4,1 -1,-6 -11,-7 -3,4 -8,2 -7,13 -12,10 -3,-1 v 8 l -4,3 v 6 l 5,4 4,-2 3,2 v 8 l 3,4 h 5 l 4,-3 -1,5 h -3 l -7,9 1,15 -3,9 -6,4 -2,4 -5,3 -5,7 h -4 l -16,18 3,4 -1,7 -3,1 -7,-2 -4,2 -2,7 -3,1 -8,15 v 6 l -6,4 -6,1 -4,-3 -6,6 -7,3 -6,-9 -13,24 v 7 l 3,5 3,19 -3,13 -5,11 4,5 -1,10 2,8 9,14 3,1 5,13 -1,2 4,17 4,4 v 12 l -2,2 3,8 z"
     id="昭通市" />
  <path
     stroke="#ffff00"
     stroke-opacity="1"
     stroke-width="0.5"
     stroke-linecap="round"
     stroke-linejoin="round"
     stroke-dasharray="none"
     fill="#1e90ff"
     fill-opacity="1"
     fill-rule="evenodd"
     d="m 365,401.99999 4,-8 10,-9 7,-4 5,-7 8,-3 5,-4 8,-1 5,-4 6,2 20,-4 9,-4 9,1 v -4 l 6,-3 1,-5 -4,-4 2,-3 -4,-6 -1,-6 -3,2 -4,-15 12,-1 -1,-7 4,-6 -5,-4 v -2 l 8,-6 -1,-3 3,-2 1,-3 -10,-3 -2,2 2,9 -4,-2 -3,3 -6,1 1,-6 -6,-4 4,-3 -2,-3 5,-9 -6,-8 -8,-1 -2,-3 h -8 l -2,-4 2,-7 -7,-1 v -5 l -16,-7 3,-16 -2,-1 5,-19 -10,-3 -11,3 -3,-5 -2,-15 -4,-4 2,-6 -4,-3 -8,-14 1,-3 -4,-6 h -3 l -3,3 1,-14 -8,-14 -2,-1 v -6 l -5,2 5,-6 -4,-1 3,-4 -2,-3 h -9 l -2,-12 -12,-12 -1,-4 2,-8 -3,-2 v -4 l -4,-7 -4,2 -4,-1 -5,8 v 4 l -11,10 -2,-3 -4,-1 -2,-5 -1,2 -10,-5 -5,6 -4,11 -3,2 v 4 h -5 l -1,5 -3,2 -5,-3 -4,10 3,1 v 4 l -7,9 2,4 -5,2 1,6 -10,12 -2,7 3,4 3,9 -1,3 5,8 1,7 -1,3 -5,1 -19,25 -7,4 -1,10 4,13 -2,2 2,3 -4,12 v 5 l -2,1 -2,6 -11,7 -3,-1 1,-4 -2,-2 v -11 l 2,-1 -3,-4 v -3 l -4,-4 -1,-5 -4,-2 v -5 l -7,-4 -3,-7 -8,-8 -5,-8 -5,-1 -5,-8 h -2 l -8,-8 v -3 l -4,-4 3,-5 -11,-16 2,-5 -4,-1 -3,-4 -2,-5 2,-6 -3,-3 v -4 l -9,4 -1,7 -2,3 -14,4 1,6 -2,3 2,5 v 7 l 5,5 -8,13 3,11 -6,3 5,5 2,7 3,2 1,7 h -3 v 8 l 3,7 5,4 5,16 5,7 6,2 v 8 l 3,1 -2,4 3,1 -2,7 6,19 4,1 4,4 h 3 l 5,4 2,7 5,1 4,-3 7,-2 7,4 12,1 v -5 h 4 l 6,7 12,5 7,-2 1,-10 4,1 6,7 h 4 l 4,-3 8,-14 7,-2 1,11 9,-2 v 4 l 3,2 h 6 l -1,5 4,-3 2,5 -1,5 h 7 l 2,6 h 7 l -2,5 5,5 h -5 l -3,2 3,7 v 4 l 4,-1 5,3 v 3 h -7 l -3,9 h 2 l -4,6 -4,2 -2,3 3,3 4,14 3,3 -6,4 1,7 6,4 3,-2 4,5 -3,2 1,12 2,5 5,1 2,-3 7,4 v 4 l 10,-3 8,1 -3,-9 -1,-11 8,-6 3,-5 6,-1 6,-6 9,-2 1,3 7,5 5,1 z"
     id="丽江市" />
  <path
     stroke="#ffff00"
     stroke-opacity="1"
     stroke-width="0.5"
     stroke-linecap="round"
     stroke-linejoin="round"
     stroke-dasharray="none"
     fill="#1e90ff"
     fill-opacity="1"
     fill-rule="evenodd"
     d="m 432,778.99999 -4,-1 -9,-8 -6,-2 -2,-5 -7,-9 -7,-6 -1,-5 -4,-3 -2,-4 -2,-10 -6,-8 -6,-12 -4,-3 -1,-11 h -6 l -1,-4 -6,5 -10,-2 -2,2 -7,-5 v -5 l -22,-10 -3,7 -1,8 -11,9 -9,-4 v -3 l -13,1 -4,5 h -2 l -1,5 3,2 v 3 l 8,13 h 3 l 3,14 6,3 3,6 -1,3 -5,3 -1,5 v 33 l 2,2 1,11 -5,21 -13,5 -6,-2 -5,4 3,6 -1,5 3,4 v 7 l 4,5 -2,8 -4,1 -1,3 -3,-1 -2,3 3,2 -2,4 1,10 -2,3 5,3 2,4 v 6 l 9,5 -13,9 -11,-1 -3,-4 -6,1 -3,5 -5,-2 -5,1 -5,26 -2,5 -7,6 v 9 l -5,6 2,14 -1,7 -8,6 -13,-2 -5,-5 -10,-1 -8,8 -8,3 -13,-7 -11,-2 -1,3 -9,8 5,8.00001 h -4 l -5,-4 -9,7 v 2 l -7,4 2,6 3,2 -2,11 3,9 2,1 3,6 -2,4 -4,2 -15,-7 -2,4 5,13 h -4 l -4,4 h -4 l -2,13 -11,2 -2,3 4,5 9,27 -5,8 v 2 l 4,4 -18,20 -6,1 5,7 v 3 l -4,3 -4,7 v 9 l -5,3 -6,11 3,3 -6,-1 2,4 4,1 6,6 h 6 l 3,2 4,-2 1,2 h 18 l 9,-2 4,-4 8,6 9,-2 2,3 3,-3 4,3 7,-1 8,7 -1,4 4,2 2,-5 7,-2 12,5 1,3 h 7 v -7 l 18,2 3,-4 2,-7 h 3 l 6,-4 4,-6 4,-16 3,-1 7,3 5,-1 2,-3 h 3 l -1,-4 2,-4 11,1 2,3 12,6 5,-4 4,-21 -2,-6 6,-7 6,2 v -2 l 4,-3 11,-2 9,1 2,3 5,-3 -1,-2 2,-5 6,-1 v -4 l 12,-1 6,-10 10,-1 v -3 l 9,2 4,5 v 4 l 4,2 h 4 l 6,-5 7,-1 -1,-5 3,2 4,-3 12,8 5,1 10,-2 5,4 9,-2 10,2 7,-5 h 4 l 6,-4 8,-1 1,7 3,4 4,15 3,3 v 6 l 4,5 6,2 -2,8 10,-2 7,2 1,-7 4,-1 -4,-6 5,-15 h 7 l 9,-6 3,1 2,4 6,5 -1,6 8,7 7,1 1,-10 5,-1 8,3 12,-6 15,5 v 3 l 3,4 6,-7 17,2 -3,-7 12,-19 -5,-4 -3,-8 -5,2 -7,-4 -2,2 -22,-8 -4,-9 v -5 l -5,-4 -7,-10 h -4 l -9,-5 -5,5 -3,-1 -10,-8 -4,-7 7,-7 2,1 2,-6 -2,-7 4,-2 2,-6 4,-1 1,2 10,-2 1,5 8,1 8,-10 -2,-7 4,-4 -6,-6 -7,-4 1,-2 -9,-4 -3,6 -3,-3 -7,2 -9,-3 -1,-2 3,-7.00001 -4,-6 6,-4 h 4 l 3,-6 -3,-2 v -5 l -6,-5 h -4 l 1,-4 -7,-3 -5,1 -2,-2 -1,-5 h 4 l 4,-5 -1,-5 -3,-6 -10,-7 3,-6 -4,-1 -3,-4 v -4 l -4,1 v -4 l 3,1 5,-7 -4,-3 -13,7 -8,-11 -2,4 -5,-4 1,-6 h 4 l 1,-4 -7,-8 -6,1 -3,4 h -2 l -2,6 -5,1 -4,-9 3,-3 -1,-6 -4,-3 9,-5 3,2 7,-11 6,-4 -4,-5 -4,-1 -2,-6 -5,-4 -2,-6 -6,-3 v -5 l -5,-6 v -6 l -5,-3 -2,-11 -7,-11 z"
     id="普洱市" />
  <path
     stroke="#ffff00"
     stroke-opacity="1"
     stroke-width="0.5"
     stroke-linecap="round"
     stroke-linejoin="round"
     stroke-dasharray="none"
     fill="#1e90ff"
     fill-opacity="1"
     fill-rule="evenodd"
     d="m 274,695.99999 -4,-4 h -3 l -4,-5 -2,1 -3,-2 h -5 l -19,4 -3,3 -7,3 -1,9 -6,-1 v -9 l 6,-4 4,-12 v -5 l 9,-19 2,-11 -5,-2 v -2 h -15 l -5,2 -3,6 -6,-1 -2,-13 -4,-3 -5,4 h -5 l -16,12 -1,4 4,5 -5,7 h -4 l -1,4 5,4 -5,2 -1,3 -6,4 v 2 l 5,2 3,6 -2,8 h -5 l -6,5 h -3 v 8 h -5 l -3,7 h -4 l -3,3 4,3 3,15 h -2 l 2,4 -1,5 -5,-2 -3,1 -6,9 -2,10 -7,6 -9,2 -4,7 v 4 l -4,4 -2,-1 -4,3 -12,-2 v -9 l 2,-5 -3,-4 -4,-17 -6,-6 -6,1 -3,6 -7,8 1,5 -12,13 -11,9 -7,2 -5,-1 -1,4 -7,1 -6,4 -7,1 -6,6 4,9 -6,5 -1,3 -10,8 -6,1 -5,8 -3,2 -5,-2 -5,4 5,3 -2,5 v 14 l 2,3 -6,7 h 3 l 2,3 h 7 l 3,2 6,-1 7,11 -2,4 5,4 2,11 6,2 v 5 l -7,3 -7,8 v 3 l 4,11 8,-3 5,5 -1,3 3,3 2,15 h -5 l -4,4 2,2 4,-2 6,4 -2,3 1,6 -4,3 v 4 l -4,4 V 1001 l 4,-2.00001 17,5.00001 10,-1 -2,10 11,6 3,-2 11,-1 3,-2 3,4 7,2 5,-4 8,-2 v -4 h 4 l 6,6 11,4 6,-1 7,2 -2,-6 7,-4 v -2 l 9,-7 5,4 h 4 l -5,-8.00001 9,-8 1,-3 11,2 13,7 8,-3 8,-8 10,1 5,5 13,2 8,-6 1,-7 -2,-14 5,-6 v -9 l 7,-6 2,-5 5,-26 5,-1 5,2 3,-5 6,-1 3,4 11,1 13,-9 -9,-5 v -6 l -2,-4 -5,-3 2,-3 -1,-10 2,-4 -3,-2 2,-3 3,1 1,-3 4,-1 2,-8 -4,-5 v -7 l -3,-4 1,-5 -3,-6 5,-4 6,2 13,-5 5,-21 -1,-11 -2,-2 v -33 l 1,-5 5,-3 1,-3 -3,-6 -6,-3 -3,-14 h -3 l -8,-13 v -3 l -3,-2 z"
     id="临沧市" />
  <path
     stroke="#ffff00"
     stroke-opacity="1"
     stroke-width="0.5"
     stroke-linecap="round"
     stroke-linejoin="round"
     stroke-dasharray="none"
     fill="#1e90ff"
     fill-opacity="1"
     fill-rule="evenodd"
     d="m 605,654.99999 v -6 l 4,-8 -4,-4 -4,2 -5,-6 1,-4 -2,-2 3,-7 h 2 v 4 l 6,3 v 4 l 9,-4 3,-3 8,1 4,-11 -1,-8 6,-11 h 3 l 1,-8 -1,-6 -6,2 v -6 l -2,-2 1,-5 -4,-3 5,-8 3,4 8,-3 -1,-3 5,-4 4,-7 -1,-8 -3,-2 1,-5 -3,-1 1,-10 -4,2 -9,-8 v -3 l -3,-2 3,-5 v -6 l -4,-5 1,-14 3,-1 -2,-2 1,-6 -4,-4 -5,-1 -1,-7 2,-2 -1,-5 3,-1 -4,-3 v -4 l 3,-5 -1,-3 4,-12 -1,-3 -6,-2 -4,-5 -6,-3 -4,-12 -12,8 -12,16 -10,-2 -6,-4 -12,2 -6,-4 -4,1 -7,11 h -4 v -7 l -3,-1 -5,-6 1,-6 2,-2 -7,-3 -7,-10 -5,-1 -3,-3 -11,3 -2,-6 -4,-2 -2,-3 2,-5 5,-2 4,2 3,-2 -4,-1 4,-6 -5,-2 1,-6 -4,-2 v -2 l -10,-10 -6,-2 -4,-7 -9,1 1,3 -2,3 4,4 -1,5 -6,3 v 4 l -9,-1 -9,4 -20,4 -6,-2 -5,4 -8,1 -5,4 -8,3 -5,7 -7,4 -10,9 -4,8 2,3 -1,20 5,4 -7,8 3,5 h 4 l 4,4 -3,10 -6,4 4,4 -9,7 2,3 5,2 4,7 -2,5 7,-1 -8,9 5,5 -2,4 h 7 l 3,19 h -8 l -3,18 3,3 -1,4 5,3 v 2 h 7 l 3,2 -2,7 2,4 -7,1 -1,3 -4,1 1,4 -3,1 5,7 -1,3 -7,-2 -2,3 -4,1 -4,-3 -7,-1 -4,-3 -2,1 3,7 -3,1 1,7 -8,-1 v 4 l -5,6 2,5 -2,5 4,8 -5,3 6,8 -10,6 3,4 1,5 2,-1 1,8 -4,6 1,6 3,1 v 3 l -3,1 1,6 -2,-1 5,3 v 5 l 7,5 2,-2 10,2 6,-5 1,4 h 6 l 1,11 4,3 6,12 6,8 2,10 2,4 4,3 1,5 7,6 7,9 2,5 6,2 9,8 4,1 v -3 l 15,-7 4,-4 1,-4 -2,-3 4,-5 3,4 6,3 1,10 7,22 4,1 12,-4 13,-25 3,-2 5,7 10,4 4,7 4,1 1,-6 5,1 -3,5 1,8 3,-2 2,2 11,-2 v -2 l 5,2 4,-5 3,1 6,-5 1,-11 4,-3 v -5 l -5,-3 3,-5 -3,-5 2,-3 -7,3 -5,-1 -1,-6 h -3 l -1,-5 -3,-3 2,-3 -4,-4 2,-3 3,1 5,-2 -2,-9 -3,2 -3,-3 9,-9 -3,1 -1,-7 2,-11 7,-5 1,-4 2,1 2,-6 -2,-5 1,-2 9,2 5,-1 1,-6 5,-2 2,-4 v -5 l 7,4 2,4 9,2 z"
     id="楚雄彝族自治州" />
  <path
     stroke="#ffff00"
     stroke-opacity="1"
     stroke-width="0.5"
     stroke-linecap="round"
     stroke-linejoin="round"
     stroke-dasharray="none"
     fill="#1e90ff"
     fill-opacity="1"
     fill-rule="evenodd"
     d="m 765,735.99999 v 7 l -3,6 -5,2 1,4 6,2 -2,12 2,4 2,-1 2,4 3,1 -3,10 5,3 v 4 l -3,3 1,6 -7,5 -4,11 -5,2 -3,6 v 2 l 3,1 -3,3 v -2 h -4 l -8,-7 -10,5 -3,6 h -4 l 2,3 -5,2 -4,-8 1,-3 -2,-1 -9,6 h -6 l -3,9 -4,1 -4,4 v 5 l -3,-1 -3,3 -4,-8 3,-5 -3,-3 2,-3 -2,-3 -4,-1 2,-2 -2,-2 -9,4 -3,-3 -5,2 -5,-7 -11,3 -4,-1 2,-2 -8,-4 -10,-2 -5,3 2,5 4,-1 1,3 -18,5 -2,3 8,9 v 7 h 3 l -3,5 -3,-2 -5,1 -4,4 -7,3 -5,8 9,13 -7,9 3,5 7,-1 5,2 12,13 1,5 4,5 -1,5 7,6 1,7 -4,5 -3,9 h -6 l -2,-2 h -10 l -1,3 -5,-4 -6,9 -1,7 -4,5 -6,1 -5,-3 -2,2 -8,-5 -5,2 -3,-3 -11,-2 -6,5 v 7 l 3,2 -3,6 h -4 l -6,4 4,6 -3,7.00001 1,2 9,3 7,-2 3,3 3,-6 9,4 -1,2 7,4 6,6 -4,4 2,7 -8,10 -8,-1 -1,-5 -10,2 -1,-2 -4,1 -2,6 -4,2 2,7 -2,6 -2,-1 -7,7 4,7 10,8 3,1 5,-5 9,5 h 4 l 7,10 5,4 v 5 l 4,9 22,8 2,-2 7,4 5,-2 3,8 5,4 6,-2 -1,-4 5,-2 8,-9 -3,-1 -3,-7 h 4 l 5,-4 4,-6 v -6 l 7,-3 3,1 10,11 v 3 l 7,-6 9,8 7,-2 8,7 h 2 l 2,3 5,2 2,4 4,-1 7,3 4,4 -1,3 3,8 6,6 1,4 10,1 1,3 7,4 8,-1 v -8 l 2,-4 6,-2 4,-4 h 3 l 5,-4 -3,-4 v -6 l 5,-8 4,1 12,-7 1,-10 6,-9 v -6 l 10,2 12,9 -2,4 1,6 4,5 v 3 l 9,12 5,1 4,-8 3,-2 1,-5 -2,-6 3,-6 5,-5 2,-6 4,-2 4,3 3,6 5,2 8,11 h 3 l 10,14 10,10 2,-1 13,13 8,-3 v -11 l 4,-11 v -11 l 3,-9 13,-15 4,1 5,-4 10,-1 7,-3 3,3 v -7 l -3,-2 h -8 l -5,6 -2,-1 v -5 l -4,2 -3,-7 -4,1 -9,14 -4,-1 v -3 l -4,4 3,5 -5,10 -2,-1 v 5 l -2,3 -5,2 -5,-1 -2,3 -5,-2 -2,-4 3,-4 -2,-8 1,-4 -2,-3 h 4 l 2,-4 v -11 l -2,-5 5,-7 h 2 l 2,-10 -4,-7 2,-10 -2,-2 v -10 l -5,-10.00001 1,-6 4,-4 -4,-11 -6,-4 -5,-1 -4,-4 -3,3 -2,-14 3,-4 -4,-4 1,-4 -3,-1 2,-4 h -12 l -2,-6 3,-3 -2,-2 -4,1 -2,5 -3,-2 -4,5 -4,-1 -7,-6 -2,-8 5,-1 7,-9 2,-5 -2,-4 v -8 l -4,-7 3,-3 1,-12 3,-5 -1,-3 8,-5 -3,-6 2,-2 -1,-2 h -3 l -8,-6 1,-3 -3,-5 -8,-7 -1,-8 3,-6 6,-4 3,-7 6,-3 h 4 v -4 l 6,2 8,-1 3,-3 v -6 l 4,-2 2,-3 v -6 l 4,-2 4,-9 8,-4 7,-11 4,-2 4,1 5,-3 -2,-6 5,-2 1,-7 h -2 l -11,-13 5,-6 -5,-7 -3,4 -4,-2 v -4 h -7 l -4,-4 -6,-2 -4,-6 -4,1 -1,-2 -5,8 -7,-5 6,-9 -4,2 h -5 l -2,3 h -3 l -11,22 3,2 -3,4 -10,8 h -4 l -1,6 -11,6 -4,-3 6,-4 -2,-2 3,-3 h -6 l -2,-3 -5,-1 -6,-6 -15,-7 -3,-3 -3,5 2,2 -1,4 -3,-1 -2,5 2,6 -4,4 2,4 -2,1 -11,-3 -2,2 -3,-3 h -2 z m -10,94 -3,-1 v 4 z"
     id="红河哈尼族彝族自治州" />
  <path
     stroke="#ffff00"
     stroke-opacity="1"
     stroke-width="0.5"
     stroke-linecap="round"
     stroke-linejoin="round"
     stroke-dasharray="none"
     fill="#1e90ff"
     fill-opacity="1"
     fill-rule="evenodd"
     d="m 1031,742.99999 -3,4 h -5 l 1,3 -11,-1 -9,4 -1,8 -10,1 -2,2 -11,3 -3,-3 -10,2 -1,-4 3,-3 -9,-13 -6,2 -2,-2 -14,7 -8,-5 -4,2 -4,-1 -4,2 -7,11 -8,4 -4,9 -4,2 v 6 l -2,3 -4,2 v 6 l -3,3 -8,1 -6,-2 v 4 h -4 l -6,3 -3,7 -6,4 -3,6 1,8 8,7 3,5 -1,3 8,6 h 3 l 1,2 -2,2 3,6 -8,5 1,3 -3,5 -1,12 -3,3 4,7 v 8 l 2,4 -2,5 -7,9 -5,1 2,8 7,6 4,1 4,-5 3,2 2,-5 4,-1 2,2 -3,3 2,6 h 12 l -2,4 3,1 -1,4 4,4 -3,4 2,14 3,-3 4,4 5,1 6,4 4,11 -4,4 -1,6 5,10.00001 v 10 l 2,2 -2,10 4,7 -2,10 h -2 l -5,7 2,5 v 11 l -2,4 h -4 l 2,3 -1,4 2,8 -3,4 2,4 5,2 2,-3 5,1 5,-2 2,-3 v -5 l 2,1 5,-10 -3,-5 4,-4 v 3 l 4,1 6,-11 3,-3 4,-1 3,7 4,-2 v 5 l 2,1 5,-6 h 8 l 3,2 1,4 -5,13 3,7 13,4 v 3 l 6,3 5,-2 4,-7 6,-2 8,-6 5,-8 5,-2 4,-4 h 3 l 4,7 1,-5 6,1 3,3 12,-2 -1,-5 5,-2 2,-6 16,-9 v -6 l -4,-5 -3,-8 -3,-15 13,-3 2,-9 5,-1 6,5 2,-8.00001 7,-1 1,-3 10,-7 7,-3 2,3 h 3 l 11,-6 10,2 4,-10 v -4 h 4 l 8,-10 4,4 1,5 4,5 7,7 5,-3 3,7 7,8 1,4 7,3 1,-3 -4,-7 1,-2 6,-2 1,-5 5,-6 13,-7 1,4 h 5 l -5,-4 4,-3 -8,-7 4,-2 5,1 11,-11 8,-2 2,-7 7,-5 7,1 4,5 4,-2 4,3 5,1 2,3 -1,5 4,-2 4,-5 7,-2 2,-6 4,-2 6,-7 -3,-3 v -4 l 5,-12 1,-12 -2,-4 -1,-10 3,-4 7,-2 -4,-7 h 4 v -4 l -7,-3 -5,-12 -7,-9 1,-3 -4,-2 -3,-5 -1,-7 -7,-3 -3,-5 -6,3 -5,-2 -5,1 v 9 l -3,6 -6,-3 -3,5 -8,2 -2,-4 3,-2 -2,-4 -10,2 -7,-1 -4,6 -5,1 -4,-14 v -5 l -6,-2 -9,3 -5,5 -2,14 -2,2 -15,-5 -3,-5 -9,-4 -5,-6 -5,1 -4,4 4,3 -6,3 -5,-3 -9,-11 v -7 h 8 l 3,-8 -2,-2 h -3 l -3,-6 -4,-1 -2,-5 1,-5 4,-5 -1,-4 -8,-6 -5,1 -3,-2 2,-6 -10,-5 h -7 l -7,5 h -9 l -3,-3 -14,-4 -9,1 -6,-3 v 4 l -7,-1 -2,4 3,16 -2,4 -5,-2 -4,-5 -9,-4 3,-4 -2,-5 h -7 z"
     id="文山壮族苗族自治州" />
  <path
     stroke="#ffff00"
     stroke-opacity="1"
     stroke-width="0.5"
     stroke-linecap="round"
     stroke-linejoin="round"
     stroke-dasharray="none"
     fill="#1e90ff"
     fill-opacity="1"
     fill-rule="evenodd"
     d="m 499,1168 -7,-2 -10,2 2,-8 -6,-2 -4,-5 v -6 l -3,-3 -4,-15 -3,-4 -1,-7 -8,1 -6,4 h -4 l -7,5 -10,-2 -9,2 -5,-4 -10,2 -5,-1 -12,-8 -4,3 -3,-2 1,5 -7,1 -6,5 h -4 l -4,-2 v -4 l -4,-5 -9,-2 v 3 l -10,1 -6,10 -12,1 v 4 l -6,1 -2,5 1,2 -5,3 -2,-3 -9,-1 -11,2 -4,3 v 2 l -6,-2 -6,7 2,6 -4,21 -5,4 -12,-6 -2,-3 -11,-1 -2,4 1,4 h -3 l -2,3 -5,1 -7,-3 -3,1 -4,16 -4,6 -6,4 h -3 l -2,7 -5,8 1,4 5,5 1,4 -3,10 -4,2 1,4 -3,5 -1,8 3,5 4,15 2,3 8,2 -1,4 3,1 9,-7 h 4 l 5,3 4,5 v 3 h -3 l -8,12 3,4 -1,4 2,7 7,5 2,-6 5,1 4,7 3,2 7,-4 2,1 4,-2 6,-8 7,1 6,-3 3,1 8,15 8,-3 6,4 h 4 l 16,-7 4,-4 7,-2 5,-7 5,-2 4,-9 7,-4 5,-8 3,-2 h 5 l 5,-3 5,1 8,-3 14,-13 6,1 -2,4 1,11 3,4 3,1 3,15 -3,1 -1,5 12,1 v 9 l 3,1 -6,6 v 9 l -2,2 -8,2 8,14 12,8 -5,12 12,11 10,-4 8,-6 h 11 l 5,-3 10,-2 13,4 -2,8 3,4 6,-4 6,-1 5,10 h 12 l 5,-12 h 8 l -1,-9 -5,-2 -2,-4 h -5 l -4,-3 -3,-7 2,-13 2,-1 -2,-15 6,-6 -3,-5 1,-4 -3,-2 2,-3 6,3 3,-1 4,-8 -3,-5 h -6 l -2,-15 -3,-2 2,-12 3,-7 -7,-4 -1,-6 -6,-4 1,-6 -3,-3 -5,1 -1,-2 -9,-4 3,-7 -1,-6 -6,-9 -2,-7 5,-3 -1,-6 -9,-14 3,-7 h 8 l 3,-3 2,-6 z"
     id="西双版纳傣族自治州" />
  <path
     stroke="#ffff00"
     stroke-opacity="1"
     stroke-width="0.5"
     stroke-linecap="round"
     stroke-linejoin="round"
     stroke-dasharray="none"
     fill="#1e90ff"
     fill-opacity="1"
     fill-rule="evenodd"
     d="m -3,508.99999 5,2 7,-2 10,2 -1,13 h 10 l 4,8 -3,5 5,6 6,-1 7,-5 -1,-5 6,2 5,-5 6,-2 14,7 v 3 l 5,8 -3,4 1,5 -2,1 -9,-3 2,10 -2,2 11,15 h 3 l 5,11 22,23 6,-2 2,3 14,4 5,6 h 4 l 3,3 8,-2 -1,-2 4,-3 h 13 v -5 l 6,-9 -1,-4 4,-3 9,-3 v 4 l 10,13 v 4 l 7,-2 4,2 -2,3 3,7 -10,4 4,3 2,13 6,1 3,-6 5,-2 h 15 v 2 l 5,2 -2,11 -9,19 v 5 l -4,12 -6,4 v 9 l 6,1 1,-9 7,-3 3,-3 24,-4 3,2 2,-1 4,5 h 3 l 4,4 h 2 l 4,-5 13,-1 v 3 l 9,4 11,-9 1,-8 3,-7 8,3 1,2 10,3 -1,-6 3,-1 v -3 l -3,-1 -1,-6 4,-6 -1,-8 -2,1 -1,-5 -3,-4 10,-6 -6,-8 5,-3 -4,-8 2,-5 -2,-5 5,-6 v -4 l 8,1 -1,-7 3,-1 -3,-7 2,-1 4,3 7,1 4,3 4,-1 2,-3 7,2 1,-3 -5,-7 3,-1 -1,-4 4,-1 1,-3 7,-1 -2,-4 2,-7 -3,-2 h -7 v -2 l -5,-3 1,-4 -3,-3 3,-18 h 8 l -3,-19 h -7 l 2,-4 -5,-5 8,-9 -7,1 2,-5 -4,-7 -5,-2 -2,-3 9,-7 -4,-4 6,-4 3,-10 -4,-4 h -4 l -3,-5 7,-8 -5,-4 1,-20 -2,-3 -3,3 -5,-1 -7,-5 -1,-3 -9,2 -6,6 -6,1 -3,5 -8,6 1,11 3,9 -8,-1 -10,3 v -4 l -7,-4 -2,3 -5,-1 -2,-5 -1,-12 3,-2 -4,-5 -3,2 -6,-4 -1,-7 6,-4 -3,-3 -4,-14 -3,-3 2,-3 4,-2 4,-6 h -2 l 3,-9 h 7 v -3 l -5,-3 -4,1 v -4 l -3,-7 3,-2 h 5 l -5,-5 2,-5 h -7 l -2,-6 h -7 l 1,-5 -2,-5 -4,3 1,-5 h -6 l -3,-2 v -4 l -9,2 -1,-11 -7,2 -8,14 -4,3 h -4 l -6,-7 -4,-1 -1,10 -7,2 -12,-5 -6,-7 h -4 v 5 l -12,-1 -7,-4 -7,2 -4,3 -5,-1 -2,-7 -5,-4 h -3 l -3,2 -2,9 h -4 l -19,11 2,11 -1,8 4,5 -1,5 -15,17 -8,-1 -7,7 -5,-1 -4,9 5,3 -3,4 -3,2 -4,-1 -13,8 -5,6 -3,1 3,6 5,3 -1,2 -11,-6 -6,2 v -5 l -10,-1 -4,2 v 3 l -3,4 -2,10 2,6 v 15 l 9,-2 2,2 12,35 -7,-1 -4,2 -3,-4 2,-2 -8,-2 -1,7 5,6 v 3 l -4,-1 -1,3 -3,1 -17,-7 v -4 l -7,1 -1,4 4,3 -3,9 z"
     id="大理白族自治州" />
  <path
     stroke="#ffff00"
     stroke-opacity="1"
     stroke-width="0.5"
     stroke-linecap="round"
     stroke-linejoin="round"
     stroke-dasharray="none"
     fill="#1e90ff"
     fill-opacity="1"
     fill-rule="evenodd"
     d="m -148,569.99999 -3,1 -1,3 -6,2 -2,-1 -4,4 1,2 -11,12 -6,2 -8,-10 -6,-2 -11,30 -6,8 h -5 l 2,7 -2,7 v 7 l 3,6 -1,8 6,6 h 4 l 3,6 -6,4 -10,-1 -2,-2 -9,10 -15,5 -4,6 3,2 1,24 -3,23 -4,12 25,-4 2,3 v 6 l 7,10 -6,4 h -4 v 8 h 11 l 5,3 3,5 -7,6 v 9 h 3 l 2,4 -4,2 -1,8 -7,4 -10,9 -1,8 -10,5 -1,3 -7,5 v 3 l 19,9 2,8 2,-5 1,3 3,-2 1,-3 5,3 3,-7 6,-2 1,-4 5,-5 3,2 5,-6 4,-2 7,1 -3,-4 4,-4 h 6 l 9,-3 2,-3 20,-9 16,-1 4,-3 26,3 1,-3 17,-3 h 17 v 4 l 7,3 v 2 l 10,-5 6,1 6,-4 -5,-2 1,-11 7,-4 -2,-6 -3,-3 v -6 l 4,-10 -2,-2 2,-5 -2,-5 -4,-4 1,-2 -2,-5 8,-8 -3,-2 -5,-8 2,-2 -1,-3 h -6 l -7,-4 -7,2 -6,4 h -8 l -3,2 -2,-2 2,-3 -2,-4 -3,-2 v -3 l -3,-5 h -5 v -2 l 7,-6 -3,-5 2,-5 -5,-7 2,-3 7,-1 5,-6 9,2 2,-5 -4,-7 v -6 l -4,-2 -13,5 -1,-5 -14,1 -5,-2 -1,-8 -2,-2 -5,4 h -3 l -4,4 -3,-3 1,-3 -3,-3 v -9 l 5,-7 3,-9 -2,-4 -4,1 -7,-7 -3,-1 -2,-6 4,-8 v -7 l -6,-4 -1,-3 -5,-1 -4,-8 z"
     id="德宏傣族景颇族自治州" />
  <path
     stroke="#ffff00"
     stroke-opacity="1"
     stroke-width="0.5"
     stroke-linecap="round"
     stroke-linejoin="round"
     stroke-dasharray="none"
     fill="#1e90ff"
     fill-opacity="1"
     fill-rule="evenodd"
     d="m 135,297.99999 -4,-4 -4,-1 -6,-19 2,-7 -3,-1 2,-4 -3,-1 v -8 l -6,-2 -5,-7 -1,-4 h -6 l -3,-2 -3,3 -2,-3 -4,4 5,4 -8,5 -4,-7 1,-3 -11,-23 -8,-1 3,10 -11,9 -10,-2 -2,-2 h -5 l -3,-2 -3,3 -7,2 -9,-2 v -7 l 3,1 1,-4 -3,1 -4,-2 1,-2 -3,-5 2,-4 v -12 l -3,-1 v -6 l 3,-2 2,-4 -1,-7 4,-7 -3,-8 -5,1 -5,-3 -3,2 v -6 l -3,-7 2,-5 -1,-9 -3,-6 3,-6 -3,-8 -3,-2 8,-12 -6,-8 -9,-8 -1,-3 6,-4 1,-5 -5,-10 1,-5 -6,2 -3,-4 1,-5 -2,-1 -2,-7 2,-23 -3,-6 -5,-3 2,-1 -2,-4 -3,-1 -2,-7 -3,-2 -4,-10 2,-6 -8,4 -5,7 -7,-4 h -5 l -6,3 -3,5 -8,-1 -1,4 -6,5 h -5 l -2,-2 v -10 l -3,-4 1,-13 -4,-10 h -3 l -4,-6 1,-5 -3,-2 -1,-6 -3,-2 -2,3 -7,2 -1,5 -3,-2 -1,6 5,4 6,14 -7,3 -2,3 -3,-1 -6,3 1,8 -4,2 -2,3 1,6 3,2 -4,12 1,5 -3,7 2,7 3,2 h 6 l 3,11 -2,3 h -3 l -2,5 1,3 6,4 h 3 v 13 l 4,3 -4,2 v 3 l 2,5 5,3 1,3 3,1 5,15 -1,6 2,7 4,2 h 6 l 6,-7 4,-1 2,-16 -1,-6 2,-2 6,6 h 5 l 1,2 5,1 v -3 l 4,-2 5,12 11,4 3,-4 4,5 h 3 l -1,5 2,4 -4,6 4,5 -3,3 -1,5 3,3 1,10 5,2 1,5 -1,8 -3,6 2,3 -2,3 1,2 -5,2 3,15 v 13 h 5 l 5,5 -1,6 -5,3 2,4 -2,4 4,17 -5,6 6,11 -3,21 5,1 -2,6 4,8 v 4 l -5,9 -2,35 -3,2 1,6 -9,8 -2,14 7,2 4,9 -1,4 -4,4 3,4 -11,8 1,-6 -2,-5 -5,-1 -5,3 -2,-2 -3,5 5,12 2,18 4,-1 5,4 7,12 1,8 4,4 -3,5 2,6 4,2 -1,6 3,4 -2,3 4,5 -2,4 2,6 -3,10 3,5 19,1 3,-12 -3,-4 3,-1 -3,-12 3,-9 -4,-3 1,-4 7,-1 v 4 l 17,7 3,-1 1,-3 4,1 v -3 l -5,-6 1,-7 8,2 -2,2 3,4 4,-2 7,1 -12,-35 -2,-2 -9,2 v -15 l -2,-6 5,-17 4,-2 10,1 v 5 l 6,-2 11,6 1,-2 -5,-3 -3,-6 3,-1 5,-6 13,-8 4,1 3,-2 3,-4 -5,-3 4,-9 5,1 7,-7 8,1 5,-7 4,-2 6,-8 1,-5 -4,-5 1,-8 -2,-11 19,-11 h 4 l 2,-9 z"
     id="怒江傈僳族自治州" />
  <path
     stroke="#ffff00"
     stroke-opacity="1"
     stroke-width="0.5"
     stroke-linecap="round"
     stroke-linejoin="round"
     stroke-dasharray="none"
     fill="#1e90ff"
     fill-opacity="1"
     fill-rule="evenodd"
     d="m 254,80.99999 1,-11 -3,-3 4,-5 v -6 l -3,-2 -7,1 -8,-3 -8,-6 5,-6 -14,-17 -6,-2 -8,-21 -4,-4 3,-7 h 3 l 2,-2 5,2 3,-4 8,-1 3,-3 -1,-2 5,-4 -8,-8 4,-1 1,-5 -7,-6 -15,-6 4,-10 -2,-5 -3,1 -8,-4 -4,-8 1,-5 -4,-3 -1,-4 -7,-8 -7,-2 -2,-5 -7,1 2,-5 -9,-10 h -7 l -4,-4 -2,-8 -1,-18 -7,7 -10,-1 v 4 l -3,5 2,6 -3,4 -9,3 -4,6 2,2 v 10 l -4,2 -4,-1 v 3 l -6,5 v 6 l -7,-1 -4,2 -2,5 2,2 -2,4 4,3 2,5 -4,2 2,6 h 3 l 1,4 -3,6 -3,2 1,5 -3,3 4,5 v 6 l -2,1 -3,9 v 7 l 3,7 -5,-6 -3,-1 -5,-7 -5,-2 -1,-7 h -3 l 1,-5 -2,-3 -7,-4 -2,-6 -5,-3 v -3 l -5,-5 -1,-5 3,-3 1,-12 -4,-14 3,-5 -3,-1 1,-4 -2,-4 -3,-2 -3,-12 1,-7 -4,-6 1,-3 -3,-8 v -5 l 4,-10 1,-13 v -14 l -2,-3 v -15 l -2,-7 2,-13 -1,-4 -4,-1 -3,3 h -7 l -2,4 -9,-3 v 5 l -3,2 1,9 8,10 1,8 -10,8 -1,3 -5,2 -2,19 11,5 -2,3 1,3 -9,2 v 4 h -8 l -5,2 -4,-5 -2,-16 1,-5 -2,-2 1,-4 -6,-8 v -2 l -3,-2 -11,9 -14,-2 1,7 4,3 -2,7 1,7 3,3 -3,6 2,6 3,3 v 9 l -2,3 -6,3 v 2 l -7,2 4,13 -1,1 4,17 -3,4 2,5 8,2 3,10 3,4 v 4 l 9,11 -2,4 -5,2 -1,16 -3,3 -2,6 4,10 3,2 2,7 3,1 2,4 -2,1 5,3 3,6 -2,23 2,7 2,1 -1,5 3,4 6,-2 -1,5 5,10 -1,5 -6,4 1,3 9,8 6,8 -8,12 3,2 3,8 -3,6 3,6 1,9 -2,5 3,7 v 6 l 3,-2 5,3 5,-1 3,8 -4,7 1,7 -2,4 -3,2 v 6 l 3,1 v 12 l -2,4 3,5 -1,2 4,2 3,-1 -1,4 -3,-1 v 7 l 9,2 7,-2 3,-3 3,2 h 5 l 2,2 10,2 11,-9 -3,-9 h 8 l 11,23 -1,3 4,7 8,-5 -5,-4 4,-4 2,3 3,-3 3,2 h 6 l -4,-12 -5,-4 -3,-7 v -8 h 3 l -1,-7 -3,-2 -2,-7 -5,-5 6,-3 -3,-11 8,-13 -5,-5 v -7 l -2,-5 2,-3 -1,-6 14,-4 2,-3 1,-7 9,-4 v 4 l 3,3 -2,6 2,5 3,4 4,1 -2,5 11,16 -3,5 4,4 v 3 l 8,8 h 2 l 5,8 5,1 5,8 8,8 3,7 7,4 v 5 l 4,2 1,5 4,4 v 3 l 3,4 -2,1 v 11 l 2,2 -1,4 3,1 11,-7 2,-6 2,-1 v -5 l 4,-12 -2,-3 2,-2 -4,-13 1,-10 7,-4 19,-25 5,-1 v -10 l -5,-8 1,-3 -3,-9 -3,-4 2,-7 10,-12 -1,-6 5,-2 -2,-4 7,-9 v -4 l -3,-1 3,-5 z"
     id="迪庆藏族自治州" />
</svg>