<svg xmlns="http://www.w3.org/2000/svg" id="svg1" version="1.1" viewBox="-251 -228 1860.9999 1476">
  <path id="呼和浩特市" fill="#ff6347" fill-opacity="1" fill-rule="evenodd" stroke="#ffffff" stroke-dasharray="none" stroke-linecap="round" stroke-linejoin="round" stroke-opacity="1" stroke-width="0.5" d="m642 1009 9 5 4 5 5 1 7 11 1 11-5 9v5l5 5v2l4-2 18 6 4-2 5 1 3-16 7-10 15-29-3-8h-2l2-3-3-3v-2l-11-9v-2h3l-3-6 4-1 1-3-2-4 4-2 2-4-4-13-2 2-3-2-2-4 1-3-10-7-2-10-4-1-3-4h-10l-3-2-12 1-5 2-2 5-9-6v2l-4-1-5-5-1 3-4-1-1-2h-3v-3h-5l-7 6-3-1-2 4h-2l2 4 3 1 1 5h2v6l2 4-3 5 1 6 4-2 2 2-2 9 1 2h4l1 15 2 2h3l-3 5 5 4 3-1v2l4 1 1 3h3l2 8-5 1z"/>
  <path id="包头市" fill="#ff6347" fill-opacity="1" fill-rule="evenodd" stroke="#ffffff" stroke-dasharray="none" stroke-linecap="round" stroke-linejoin="round" stroke-opacity="1" stroke-width="0.5" d="M667 921v-3l-3-2 3-3 1-10-6-10-7-2-8-9-4-2-8-20-9-13-4-23-2-3-4-1-5-10-8-8-6-4-15 8-13 1-14 7-9 7-11 2 4 2 6 25-10 18-2 3-4 1v2l5 8-1 3 5 7v10l2 3h13l-2 6 5 5v5l-5 1v2l6 12v2l-3 1 1 6 8 3 6 10-8 11-16 2-3-1-5 3v7l2 1v9h5l4-4h2l6 6 10-2 3-2 7 3 1-3 9 2 1-4 3 2 1 4 3-1 1 4 4-1 8 8 1-2 3 5 1-1 4 3h9v3l2 1 8 1 2-2 1 2 4-3v-3l5-1-2-8h-3l-1-3-4-1v-2l-3 1-5-4 3-5h-3l-2-2-1-15h-4l-1-2 2-9-2-2-4 2-1-6 3-5-2-4v-6h-2l-1-5-3-1-2-4h2l2-4 3 1 7-6h5v3h3l1 2 4 1 1-3 5 5 4 1v-2l9 6 2-5 5-2z"/>
  <path id="乌海市" fill="#ff6347" fill-opacity="1" fill-rule="evenodd" stroke="#ffffff" stroke-dasharray="none" stroke-linecap="round" stroke-linejoin="round" stroke-opacity="1" stroke-width="0.5" d="m366 1045 1 12 2 2-2 5-10 7 1 4 8 5v5h2l2 5-1 9 2 1 3 9 10 4 2-2 1 1 4-19-5 5-8-7 2-12-5-19 2-2-3-9 4-4h2v-5h-2l-5 6-5 3-1-5z"/>
  <path id="赤峰市" fill="#ff6347" fill-opacity="1" fill-rule="evenodd" stroke="#ffffff" stroke-dasharray="none" stroke-linecap="round" stroke-linejoin="round" stroke-opacity="1" stroke-width="0.5" d="m1276 839-8-9v-2l-6-4-7-9v-5l-2-1-7-22-2-2 2-3v-6h-2l-3-6 2-4 5-3 1-3 19-21-1-2-6 3-15 1 8-4h4l5-4v-2l5-5 11-5 3-4-9-12-4-2v-11l-6-9 1-4 3-3-3-1-4-10h-4l-1-2h-7l-5-11-4-3 1-2-3-7-8-9 1-2-3-1-3-6-10-12-11-7-6-16-11-11-10-3-2 6 4 2v6l-2 2-3-1v-3l-5-3-4 7 5 5-1 2-3-1-1 2 5 5v2l-9-2-1 6 5 4 2 6h-4l2 2-5 2h-5l-2-2-2 2 4 6-2 10-8 3-4 5-2-2-6 2-3-1-3 3v2l-5 1v4l-5 4-10-2v8l-2-2-2 4-3 1-2 7-3 2-9-2-3 2v3h-3l-3 4-5 1-4-3 3-4-11-12h-20l-6 4-10 14 5 7-2 3 1 6-2 1 1 5 3 2-5 7-7 2-4 8 2 5-3 2-7-3-4 1-1 8-11 8-1 6-3 2-1 7 5 7 5 3v3l8 5 3 6v11l-6 14 3-1v3l2 2 2-4 7 2 1 3 4 1 2 8-1 5 8-6 4-1 1-2 5 2 6-2 4 2 5-1 2-10 2-1h8l5 2 7-4 6 10 8 8 2 3-1 4 3 3-6 5 4 4 5 2-1 5 4 3-2 4 4 1 3-6 3 1 1 3-4 2 5 3v4l-3 1 5 5-3 9h-3l-1-3-4-1-3 7 3 6 2 1 2 6 4 1 1 5-2 4 3 2 2 5-1 4 2 3 9-4h11l4 3 2-3 4-2v3l3 4 6-1 14 2 4-4h2l3-5-2-2 5-1 1-8-2-4h3v-2l-7-6 1-9-2-3 2-1v-14l4-10-2-3-3-1-2-5-2-1 3-6 9-4 5-6 4 2-2 6 5 1 2 3 5 1 1 2h7v10l7 11v4l6 13-2 3 1 3h4l3-2-1-4 8-10h3l-3-1 2-3 11-7v-4l2-1-1-3 7-5 3 1 8-6 5-1v-2l4 1z"/>
  <path id="通辽市" fill="#ff6347" fill-opacity="1" fill-rule="evenodd" stroke="#ffffff" stroke-dasharray="none" stroke-linecap="round" stroke-linejoin="round" stroke-opacity="1" stroke-width="0.5" d="m1276 839 3-1 6 3 3-1 9-10 4-1 2-5 5-3 12-1 2-3 4 7h3l2-4 5-2v-2h3l5-14 5-1 2-2 5 3h4l1-4 3 4h3l2 2 4-2v-2l4-4-5-1-2-4 1-2 13 1 1 3 3 2 7-1 7 6 3-5h2l1 2 3-2h5l10-5-3-2 1-7 5-5 13-5 7 4 6-16-2-3 2-1v-4l2-1v-8l-6 1-4-5-2 1-2-3h-3l-1 3-3-6-4-2 1-2-2-3 4-1 6 2-2-5 6 1 1-6-1-5-2-2 1-5-2-6-6-10 2-1-5-4v-5l4-7-7-5v-3l-6-9-4-2v-13l-7 2-10 8-7 3-5 8-12 4h-11l-3-2h-7l-9-4-6-4-3-5-4-1-3-3-1-3-7-7-4-9-3-1-1-5-8-6v-5l-10-8-14-6-4-11v-6l-9-3v-3l-11-4-7-6 1-5-4-4h-4l-1-4-5-2-1-2-11-4h-9l-2 1v3l3 2-2 4-6-2 1-5-3 1-6-2-14-8-5 10-12 7 1 8-5 7 5 6 1-1 10 3 11 11 6 16 11 7 10 12 3 6 3 1-1 2 8 9 3 7-1 2 4 3 5 11h7l1 2h4l4 10 3 1-3 3-1 4 6 9v11l4 2 9 12-3 4-11 5-5 5v2l-5 4h-4l-8 4 15-1 6-3 1 2-19 21-1 3-5 3-2 4 3 6h2v6l-2 3 2 2 7 22 2 1v5l7 9 6 4v2z"/>
  <path id="鄂尔多斯市" fill="#ff6347" fill-opacity="1" fill-rule="evenodd" stroke="#ffffff" stroke-dasharray="none" stroke-linecap="round" stroke-linejoin="round" stroke-opacity="1" stroke-width="0.5" d="m380 1112-1 9-16 19-3 9-1 11-3 6-7 6 4 5 12 5 1 2 12 4 5 1 3-2h4l1-2 3 1 9 5 7 8-1 4h5l10 7 2-2 4 3 15 5 3 7-1 3 8 3 7-3 4 2 8-1 7-3 5 3 11-4 1-19 2-5-2-4 2-1 3 3 4 8 3-4h2l1-4h2v-6l-8-6v-4l2-3-1-1 3-8 3-2v-4l8-7 1-3 6-6 3 2 2-2-2-3 1-3 4-1 7-10 2 2 5-4 4-6-1-4 5-6 7-6 4 1-2-2 5-5-6-4 2-2 4 5h3l12-6-1-6-3-3v-5l7 2 9 9 3-2v-3l3 1 3-2 6 10h5l3-7 9-13 5-1 4-3h5l2-3 1 5-6 7 1 4h2v4l5-6h11l1-4 4-3 1-13-5-5v-5l5-9-1-11-7-11-5-1-8-8-5-2-4 3-1-2-2 2-8-1-2-1v-3h-9l-4-3-1 1-3-5-1 2-8-8-4 1-1-4-3 1-1-4-3-2-1 4-9-2-1 3-7-3-3 2-10 2-6-6h-2l-4 4h-5l-2 4-10-4-2 2v-3l-4-1h-12l-9-3-4 1v-5h-3l-8-4 1-1-3-5h-6l1-2-4-3-13-2v-3h-15l-2-2-3 2-4-2-2 3-4-2-2 4h-2v4l-2 1-4-2-5 7-3-1-6 6-7-1-3 8-4-2-1 5 3 1-3 5 1 5-8 5-2 6-10 8-2 5-6 5-1 11 2 5 1-1 1 5 5-3 5-6h2v5h-2l-4 4 3 9-2 2 5 19-2 12 8 7 5-5-4 19-1-1-4 2z"/>
  <path id="呼伦贝尔市" fill="#ff6347" fill-opacity="1" fill-rule="evenodd" stroke="#ffffff" stroke-dasharray="none" stroke-linecap="round" stroke-linejoin="round" stroke-opacity="1" stroke-width="0.5" d="m1374 377-7 5-4 5-7 3-3 3-21-9-6 3-2 4 1 3-4 1-2-3-8 1-3 4-8 3-11-4-7 6-7-5h-3l-6-7-7-2-1-5 6-4 2-4-10-12 2-3-9-2-9-5-4-5-2 3-2-1-2 3h-4l-2 3-4 2-4-3-9 8v3l-3 3-8 4-2 3-9 3-8-9h-2l3-5-14-6-1-11-23-11-13-21-19-2-3-3-14 3h-13l-21 25-7 11-18-18-14-6-6-1-8 1-14 5-12-4-10 6-11 13-23-23-3-23 19-10-2-24 18-30-2-5 43-97h2l21 16 14 5 13 1 21 11 3-7 6-1 2-2h6l3-5 2 1 2-3 1 1 1-5 4-1 2-3 5-1v-5l5 1 2-2-1-3 3-1 3-5 25-6 8 1 2-4 4-3 1-4 2 2 4-5 1-4h2l2-4-3-2 2-8 2-2-2-4-5-1-2 2-1-2-2 2-3-2 2-1-2-3h4l3-6-1-4 4-8-1-2 5-3 2-3-1-2h3l4-6 2-7-2-1v-6l5-5 4-8 3-1 3-3v-3l3-2 1-7-2-5h4v-7l4-1v-5h3l1-3-2-1 1-2h3l2-6-1-5 4-4-1-4 2-6 2-1v-3h5l3-4 5-3 1-4 9-6 3-5 2 1 1-3 7-2v-3l3-2 1-4-2-2 5-8v-15l-3-1-1-3-5-3v-4l2-1-1-2 3-4v-10l3-2-19-11-3 3-7-1-6 5-9-2-1-6 2-6-2-7 4-1 3-3h3l7-6 4-8 11-11 1-3 6-3 1-4h2v-4l8-7h2l-1-3 8-3 6 1 3-2 2 3h7l3-1 3-4 6 1 5-2 8 8 4 2-1 8 6 2 2 5-1 1 3 2-2 6-5 2-3 9-4 2 1 5-2 3-7 5-7 10h-3l-9 9 3 2h6l6 8 5 2 1 3 3-1 8 4-2 4 4 7 8 4h4l3-2 2-5 4-3v-4l3-1 5-9 3 4h6l2 6h2l3 4 2-2 3 6-1 4 6 2 1 2 6-1 2 2h5l-1 8-5 4h-4v7l3 10h3l-1 9 4 12-1 3 4 12 3 2-2 3 3 2v5l-2 4 3 3v3l5 3v6l3 2 3-1 6 2 9 5 3-2 2 1 13-3v-2l5-1 4-8 5 4 3-1 5 7 10-2 3-3 8 1 3 4 7 3 3-9 3-2h4l4 5h5l6-6 5 1 5-7-2-3 1-2 8-4v-6l3-7h2v3l3-1 7 1 2 2 2-1 2 4 9 9 12 20 4 4-1 4 6 1 1 8h3l2 3 3-1-1 3 2 3 4 1-2 4 2 4-1 4h-2l-1 6-3-3-1 5h-2l1 2-3 2 1 1-4 2 1 3-3-2-3 3h3l-1 2 3 2-3 3 3 12-5 5-1-2-7 8-4 1 1 4-3-2-1 1 1 8-4 3v3l-2 1 1 3-4 5-4 2 3 2-7 1v6l4 1-1 2-2-2-2 2 3 3-4 2-1 3h-2l3 9-1 4h-3l3 3v13l-2 2-2-2-2 2 1 3 1-1 3 4 1-1v11l3 3-1 14-3 4 1 9h-3l-1 4-3 2-5-3v-2l-4 1-4-2-3 2-1 4-3 1 2 4-5 9-1 6h-2l-1 8h-3l-3 20-5 8 2 2v6l-3 2 4 15-4 13 1 1-4 5-3 1 4-7-4-3 1-4-7-11 1-3-2-2v-10l-3-3-11 9-22 23-8 12-6 5-16 8-4 11-4 4-11 7-8 3-6 6-11 7-4 5-2 9zm124-277 2-7V83h2l2-3V64l-7 2-4-3-11-1v3h-4v2l-3 1 2 7-3 4h-2l-1 3-5-4-1-4-3 1v10l6 7-1 4 6 4 4-3 3 2 3-2v-2l5 2 6-1 1 4z"/>
  <path id="巴彦淖尔市" fill="#ff6347" fill-opacity="1" fill-rule="evenodd" stroke="#ffffff" stroke-dasharray="none" stroke-linecap="round" stroke-linejoin="round" stroke-opacity="1" stroke-width="0.5" d="m373 1019 10-8 2-6 8-5-1-5 3-5-3-1 1-5 4 2 3-8 7 1 6-6 3 1 5-7 4 2 2-1v-4h2l2-4 4 2 2-3 4 2 3-2 2 2h15v3l13 2 4 3-1 2h6l3 5-1 1 8 4h3v5l4-1 9 3 7-1 9 2v3l2-2 10 3 2-3v-9l-2-1v-7l5-3 3 1 16-2 8-11-6-10-8-3-1-6 3-1v-2l-6-12v-2l5-1v-5l-5-5 2-6h-13l-2-3v-10l-5-7 1-3-5-8v-2l4-1 2-3 9-18-1-11-4-10v-4l-4-2-5 1-18-2-11 6-3-2-32-2-4-2-20 5-23-1-7-4-10 4-2 5-15 4-17 2-11 4-66 31-19 12h-4l-2 18 3 19 5 10v8l4 4 1 7 20 14 15 6 11 2 3 2 1-1 2 3h2l1 4 3 3 1-1 11 4 1 6-8-1-6-4v3l-5-1 1 5 7 10 7-1 2 2 3-4 5-1 14 2-3 6-4 3 2 5 5 2 3-1z"/>
  <path id="乌兰察布市" fill="#ff6347" fill-opacity="1" fill-rule="evenodd" stroke="#ffffff" stroke-dasharray="none" stroke-linecap="round" stroke-linejoin="round" stroke-opacity="1" stroke-width="0.5" d="m724 1011 9-3 11 5 8 6 6-4 3-10 23-7 5 8h4l11-3 8-8 5-2 2-4 4 5h2l4-5 8-1v-4l-2-3 2-8 4-2-6-8 2-3-2-5-14-15 4-2 2-4h3l4-6-2-3-1 3-5-7 2-1 1-5-5-2 4-6 7-4 4-1 8 2v-9h2l-3-5 2-2-2-3v-5l9-11v-3l5 1 5-2-2-6 2-6 4-2 4 2 8-1 4-3-2-3 2-1-4-2-5 2 1-2-2-2 2-1-6-2-1-2-5 7-6 2 4 2v5l-2 2-4-1v-4l-6-3-3 2-1 3h-8v6l-2 1 2 6h-6l-3 3-3-4v-5l-8-1-3-2-2-4-4 2-5-2-13-1-8 10-6 4 1 3-3-1-2 2-3-5-7-2-5-9-8-2-3-10-3-2 1-3-4-3-13-3-9-9-5-2v-2l-9-5-18-35-9-6-7-11h-8l-11-8-4-10-5 2-21 24-4 5-3 9-11 8-2 5-6 4 14 12 5 10 4 1 2 3 4 23 9 13 8 20 4 2 8 9 7 2 6 10-1 10-3 3 3 2v3l7-1 3 2h10l3 4 4 1-1 2 3 8 10 7-1 3 2 4 3 2 2-2 4 13-2 4-4 2 2 4-1 3-4 1 3 6h-3v2l11 9v2l3 3-2 3h2l2 4z"/>
  <path id="兴安盟" fill="#ff6347" fill-opacity="1" fill-rule="evenodd" stroke="#ffffff" stroke-dasharray="none" stroke-linecap="round" stroke-linejoin="round" stroke-opacity="1" stroke-width="0.5" d="m1365 663 1-20h-4v-4l-2-3-4-2-2-8 1-3 3-2-1-2-3 1 1-3h3l-3-1-4-12h2l-1-9 2-1 1-11 2-4 3 1 3-9-6-2v-7l2-3-1-4-10-5-3-9h2l1-2-2-6-7-3-4 1v2l-6-1-4-5v-2l3 1 4-3 2-6 2-1-1-8-3-4 5-2 13 6 3 4v3l7 2 4 6 4-3 1-3h2v-5h5l3 5 1 7 3-3 3 4h3l2 7 4-1 3-5-2-7 3-2 2-5-3-15 17-2 4-3-1-4h2v-3l3-4-10-17-1-14h3v-3l2-1 1 2 5-1 4 2 3-2v-5l21-2 1-12-3-1 3-2-2-2 1-2h-2l-1 6h-3l-2-2 3-10-3-1-4 3-8-6v3l4-1 3 4-2 9-2 1-2-3h-5l-4 11h-6l-3 2-2-4-6-4-1-15-4 3-4-4 5-9-10-3-1 1-8-8-9-17-7 5-4 5-7 3-3 3-21-9-6 3-2 4 1 3-4 1-2-3-8 1-3 4-8 3-11-4-7 6-7-5h-3l-6-7-7-2-1-5 6-4 2-4-10-12 2-3-1-1-8-1-9-5-4-5-2 3-2-1-2 3h-4l-2 3-4 2-4-3-9 8v3l-3 3-8 4-2 3-9 3 5 3 1 5h3l6 5 10 26 4 2 1 10-2 3 2 5-2 4 3 6-3 6 2 4-2 6 5 1-2 2-8 2 3 3-3 2v8l4 3-2 2 1 4-2 3-1 10-2 1 2 2-2 14-3 5-4 3 1 3-2 3-7 1 14 8 6 2 3-1-1 5 6 2 2-4-3-2v-3l2-1h9l11 4 1 2 5 2 1 4h4l4 4-1 5 7 6 11 4v3l9 3-1 6 5 11 14 6 10 8v5l8 6 1 5 3 1 4 9 11 13 4 1 3 5 6 4 9 4h4z"/>
  <path id="锡林郭勒盟" fill="#ff6347" fill-opacity="1" fill-rule="evenodd" stroke="#ffffff" stroke-dasharray="none" stroke-linecap="round" stroke-linejoin="round" stroke-opacity="1" stroke-width="0.5" d="m885 849 3 4v5l4 6 1 12-5 3 2 3 1 7-3 8 11-2 2 2 2-2 6 2 1 2 4-1v-2l2-1 1 2h4l-2-3 1-3-3-2 2-2 6-1 26-18 1 1 4-2 6 15h6l2-3-2-2 1-3h5l2-7 4-2 2-3 3-1 3 2-2 3 3 2 3-4 4 4h7l5-1 3-4 3 1 4-3 1-7-7-9 7 1 1-4-2-10 2-8-2-8-4-1-1-3-7-2-2 4-2-2v-3l-3 1 6-14v-11l-3-6-8-5v-3l-5-3-5-7 1-7 3-2 1-6 11-8 1-8 4-1 7 3 3-2-2-5 1-4 3-4 7-2 5-7-3-2-1-5 2-1-1-6 2-3-5-7 10-14 6-4h20l11 12-3 4 4 3 5-1 3-4h3v-3l3-2 9 2 3-2 2-7 3-1 2-4 2 2v-8l10 2 5-4v-4l5-1v-2l3-3 3 1 6-2 2 2 4-5 8-3 2-10-4-6 2-2 2 2h5l5-2-2-2h4l-2-6-5-3 1-7 9 2v-2l-5-5 1-2 3 1 1-2-5-5 1-2 3-5 5 3v3l3 1 2-2v-6l-4-2 2-6-1 1-5-6 5-7-1-8 12-7 5-10 7-1 2-3-1-3 4-3 3-5 2-14-2-2 2-1 1-10 2-3-1-4 2-2-4-3v-8l3-2-3-3 8-2 2-2-5-1 2-6-2-4 3-6-3-5-6-1-2 4-7 4-1-4-4 1-3-2h-8l-4 3-1-2-2 1-4-3h-9l-7-9-4 2-2-1v-4h-5l-3 5v3l-7-1-3-2-3 3-18-5-8 6h-4l-5 4h-3l-1 2-4 1-3 3v2l-4 2-3-1-4 2-7-8h-6l-5 2 1 5-3 6-1 10-36-2v2l-5 3h-4l-6 3-20 30-2 9 3 3v6h-2l-6 8h-8l-1 2-6 3-4 6-11 10-22 6-25 2-14-6-13 5-2 9-4 7-7 8-10 8-5 7-3 2-10 2-3 4-15 11-6-1-2-2-25-2-26-7-8-5-3-6-7-7h-21l-3-2-10 4-9 8-9 17-4 12v6l-3 7-3 1-4 12 1 4 5 2 2 3 1 8 7 10 7 4 12 17v12l-10 2-15 16-7-1-7 5-13 5 4 10 11 8h8l7 11 9 6 12 25 6 9 9 6v2l5 2 9 9 13 3 4 3-1 3 3 2 3 10 8 2 5 9 7 2 3 5 2-2 3 1-1-3 6-4 8-10 13 1 5 2 4-2 2 4 3 2 8 1v5l3 4 3-3h6l-2-6 2-1v-6h8l1-3 3-2 6 3v4l4 1 2-2v-5l-4-2 6-2 5-7 1 2 6 2-2 1 2 2-1 2 5-2 4 2-2 1z"/>
  <path id="阿拉善盟" fill="#ff6347" fill-opacity="1" fill-rule="evenodd" stroke="#ffffff" stroke-dasharray="none" stroke-linecap="round" stroke-linejoin="round" stroke-opacity="1" stroke-width="0.5" d="m268 884-14 14-6-6-15 1-10-2v-18l-28 6h-15l-29-7-45-23-11-1-6 2-23-7-18-25-15-1-46-13-35-2-3 5-20-1-29 7-85-8-65-12 43 99-15 15 1 4 22 29 18 13 5 2 1 30 18-9-4-6 7-2 1 6 7 7v-8l12-6 4 7 4 2 1-4 3-2v-10l26 1 6-7 25 2 12 16v9l-5 6v22l-10 7-3 4-2 7-4 4-8 1-2 3-12 7h-5 14l10 3 5 6 9 2 6 5 8 1 4 7v8l12 2v7h22l1 24-2 3v4l3 2 2-2 4 3v4l17-6-2 6 2 3v4l6 1v6l15 5 3 5 5-3 6 2 10-12 9-7-16-16 30-9 10-5 9 6 27 7 22-19 5-2 27-9h7l9 3-3 11 8 12 2 5v8l-2 4-8 4-12 21-29 19 4 5 4 16-11 5v9l2 10 19 7 10 10 2 4 20 16 14-5 1-4 25-2 4-2 10-1 5-5 19-6 13 1 1-6 9-2 3-6v-6l2-5-4-9v-6l5-4 1-5-3-6 3-13-1-3 2-2-2-4 4-8-1-4 7-7-2-3 3-4 3-1 2-10 3-5 7 1 3-3-1-7 8-3 6 2 6-9 5 2 5-2v-5l-5-2-3-3-1-4 10-7 2-5-2-2-1-12-2-5 1-11 6-5 2-7-3 1-5-2-2-5 4-3 3-5-9-3h-5l-5 1-3 4-2-2-7 1-7-10-1-5 5 1v-3l6 4 8 1-1-6-11-4-1 1-3-3-1-4h-2l-2-3-1 1-3-2-11-2-15-6-20-14-1-7-4-4v-8l-5-10-3-19 2-12z"/>
</svg>
