<?xml version="1.0" encoding="UTF-8" standalone="no"?>
<svg
   width="1860.9999"
   height="1476"
   viewBox="-251 -228 1860.9999 1476"
   version="1.1"
   id="svg1"
   xmlns="http://www.w3.org/2000/svg"
   xmlns:svg="http://www.w3.org/2000/svg">
  <defs
     id="defs1" />
  <path
     stroke="#ffff00"
     stroke-opacity="1"
     stroke-width="0.5"
     stroke-linecap="round"
     stroke-linejoin="round"
     stroke-dasharray="none"
     fill="#1e90ff"
     fill-opacity="1"
     fill-rule="evenodd"
     d="m 641.99993,1009 9,5 4,5 5,1 7,11 1,11 -5,9 v 5 l 5,5 v 2 l 4,-2 18,6 4,-2 5,1 3,-16 7,-10 15,-29 -3,-8 h -2 l 2,-3.00002 -3,-3 v -2 l -11,-9 v -2 h 3 l -3,-6 4,-1 1,-3 -2,-4 4,-2 2,-4 -4,-13 -2,2 -3,-2 -2,-4 1,-3 -10,-7 -2,-10 -4,-1 -3,-4 h -10 l -3,-2 -12,1 -5,2 -2,5 -9,-6 v 2 l -4,-1 -5,-5 -1,3 -4,-1 -1,-2 h -3 v -3 h -5 l -7,6 -3,-1 -2,4 h -2 l 2,4 3,1 1,5 h 2 v 6 l 2,4 -3,5 1,6 4,-2 2,2 -2,9 1,2 h 4 l 1,15 2,2 h 3 l -3,5 5,4 3,-1 v 2 l 4,1 1,3 h 3 l 2,8.00002 -5,1 z"
     id="呼和浩特市" />
  <path
     stroke="#ffff00"
     stroke-opacity="1"
     stroke-width="0.5"
     stroke-linecap="round"
     stroke-linejoin="round"
     stroke-dasharray="none"
     fill="#1e90ff"
     fill-opacity="1"
     fill-rule="evenodd"
     d="m 666.99993,920.99998 v -3 l -3,-2 3,-3 1,-10 -6,-10 -7,-2 -8,-9 -4,-2 -8,-20 -9,-13 -4,-23 -2,-3 -4,-1 -5,-10 -8,-8 -6,-4 -15,8 -13,1 -14,7 -9,7 -11,2 4,2 6,25 -10,18 -2,3 -4,1 v 2 l 5,8 -1,3 5,7 v 10 l 2,3 h 13 l -2,6 5,5 v 5 l -5,1 v 2 l 6,12 v 2 l -3,1 1,6 8,3 6,10 -8,11 -16,2 -3,-1 -5,3 v 7 l 2,1 v 9 h 5 l 4,-4 h 2 l 6,6 10,-2 3,-2 7,3 1,-3 9,2 1,-4 3,2 1,4 3,-1 1,4 4,-1 8,8.00002 1,-2.00002 3,5.00002 1,-1 4,3 h 9 v 3 l 2,1 8,1 2,-2 1,2 4,-3 v -3 l 5,-1 -2,-8.00002 h -3 l -1,-3 -4,-1 v -2 l -3,1 -5,-4 3,-5 h -3 l -2,-2 -1,-15 h -4 l -1,-2 2,-9 -2,-2 -4,2 -1,-6 3,-5 -2,-4 v -6 h -2 l -1,-5 -3,-1 -2,-4 h 2 l 2,-4 3,1 7,-6 h 5 v 3 h 3 l 1,2 4,1 1,-3 5,5 4,1 v -2 l 9,6 2,-5 5,-2 z"
     id="包头市" />
  <path
     stroke="#ffff00"
     stroke-opacity="1"
     stroke-width="0.5"
     stroke-linecap="round"
     stroke-linejoin="round"
     stroke-dasharray="none"
     fill="#1e90ff"
     fill-opacity="1"
     fill-rule="evenodd"
     d="m 365.99993,1045 1,12 2,2 -2,5 -10,7 1,4 8,5 v 5 h 2 l 2,5 -1,9 2,1 3,9 10,4 2,-2 1,1 4,-19 -5,5 -8,-7 2,-12 -5,-19 2,-2 -3,-9 4,-4 h 2 v -5 h -2 l -5,6 -5,3 -1,-5 z"
     id="乌海市" />
  <path
     stroke="#ffff00"
     stroke-opacity="1"
     stroke-width="0.5"
     stroke-linecap="round"
     stroke-linejoin="round"
     stroke-dasharray="none"
     fill="#1e90ff"
     fill-opacity="1"
     fill-rule="evenodd"
     d="m 1275.9999,838.99998 -8,-9 v -2 l -6,-4 -7,-9 v -5 l -2,-1 -7,-22 -2,-2 2,-3 v -6 h -2 l -3,-6 2,-4 5,-3 1,-3 19,-21 -1,-2 -6,3 -15,1 8,-4 h 4 l 5,-4 v -2 l 5,-5 11,-5 3,-4 -9,-12 -4,-2 v -11 l -6,-9 1,-4 3,-3 -3,-1 -4,-10 h -4 l -1,-2 h -7 l -5,-11 -4,-3 1,-2 -3,-7 -8,-9 1,-2 -3,-1 -3,-6 -10,-12 -11,-7 -6,-16 -11,-11 -10,-3 -2,6 4,2 v 6 l -2,2 -3,-1 v -3 l -5,-3 -4,7 5,5 -1,2 -3,-1 -1,2 5,5 v 2 l -9,-2 -1,6 5,4 2,6 h -4 l 2,2 -5,2 h -5 l -2,-2 -2,2 4,6 -2,10 -8,3 -4,5 -2,-2 -6,2 -3,-1 -3,3 v 2 l -5,1 v 4 l -5,4 -10,-2 v 8 l -2,-2 -2,4 -3,1 -2,7 -3,2 -9,-2 -3,2 v 3 h -3 l -3,4 -5,1 -4,-3 3,-4 -11,-12 h -20 l -6,4 -10,14 5,7 -2,3 1,6 -2,1 1,5 3,2 -5,7 -7,2 -4,8 2,5 -3,2 -7,-3 -4,1 -0.99997,8 -11,8 -1,6 -3,2 -1,7 5,7 5,3 v 3 l 7.99997,5 3,6 v 11 l -5.99997,14 2.99997,-1 v 3 l 2,2 2,-4 7,2 1,3 4,1 2,8 -1,5 8,-6 4,-1 1,-2 5,2 6,-2 4,2 5,-1 2,-10 2,-1 h 8 l 5,2 7,-4 6,10 8,8 2,3 -1,4 3,3 -6,5 4,4 5,2 -1,5 4,3 -2,4 4,1 3,-6 3,1 1,3 -4,2 5,3 v 4 l -3,1 5,5 -3,9 h -3 l -1,-3 -4,-1 -3,7 3,6 2,1 2,6 4,1 1,5 -2,4 3,2 2,5 -1,4 2,3 9,-4 h 11 l 4,3 2,-3 4,-2 v 3 l 3,4 6,-1 14,2 4,-4 h 2 l 3,-5 -2,-2 5,-1 1,-8 -2,-4 h 3 v -2 l -7,-6 1,-9 -2,-3 2,-1 v -14 l 4,-10 -2,-3 -3,-1 -2,-5 -2,-1 3,-6 9,-4 5,-6 4,2 -2,6 5,1 2,3 5,1 1,2 h 7 v 10 l 7,11 v 4 l 6,13 -2,3 1,3 h 4 l 3,-2 -1,-4 8,-10 h 3 l -3,-1 2,-3 11,-7 v -4 l 2,-1 -1,-3 7,-5 3,1 8,-6 5,-1 v -2 l 4,1 z"
     id="赤峰市" />
  <path
     stroke="#ffff00"
     stroke-opacity="1"
     stroke-width="0.5"
     stroke-linecap="round"
     stroke-linejoin="round"
     stroke-dasharray="none"
     fill="#1e90ff"
     fill-opacity="1"
     fill-rule="evenodd"
     d="m 1275.9999,838.99998 3,-1 6,3 3,-1 9,-10 4,-1 2,-5 5,-3 12,-1 2,-3 4,7 h 3 l 2,-4 5,-2 v -2 h 3 l 5,-14 5,-1 2,-2 5,3 h 4 l 1,-4 3,4 h 3 l 2,2 4,-2 v -2 l 4,-4 -5,-1 -2,-4 1,-2 13,1 1,3 3,2 7,-1 7,6 3,-5 h 2 l 1,2 3,-2 h 5 l 10,-5 -3,-2 1,-7 5,-5 13,-5 7,4 6,-16 -2,-3 2,-1 v -4 l 2,-1 v -8 l -6,1 -4,-5 -2,1 -2,-3 h -3 l -1,3 -3,-6 -4,-2 1,-2 -2,-3 4,-1 6,2 -2,-5 6,1 1,-6 -1,-5 -2,-2 1,-5 -2,-6 -6,-10 2,-1 -5,-4 v -5 l 4,-7 -7,-5 v -3 l -6,-9 -4,-2 v -13 l -7,2 -10,8 -7,3 -5,8 -12,4 h -11 l -3,-2 h -7 l -9,-4 -6,-4 -3,-5 -4,-1 -3,-3 -1,-3 -7,-7 -4,-9 -3,-1 -1,-5 -8,-6 v -5 l -10,-8 -14,-6 -4,-11 v -6 l -9,-3 v -3 l -11,-4 -7,-6 1,-5 -4,-4 h -4 l -1,-4 -5,-2 -1,-2 -11,-4 h -9 l -2,1 v 3 l 3,2 -2,4 -6,-2 1,-5 -3,1 -6,-2 -14,-8 -5,10 -12,7 1,8 -5,7 5,6 1,-1 10,3 11,11 6,16 11,7 10,12 3,6 3,1 -1,2 8,9 3,7 -1,2 4,3 5,11 h 7 l 1,2 h 4 l 4,10 3,1 -3,3 -1,4 6,9 v 11 l 4,2 9,12 -3,4 -11,5 -5,5 v 2 l -5,4 h -4 l -8,4 15,-1 6,-3 1,2 -19,21 -1,3 -5,3 -2,4 3,6 h 2 v 6 l -2,3 2,2 7,22 2,1 v 5 l 7,9 6,4 v 2 z"
     id="通辽市" />
  <path
     stroke="#ffff00"
     stroke-opacity="1"
     stroke-width="0.5"
     stroke-linecap="round"
     stroke-linejoin="round"
     stroke-dasharray="none"
     fill="#1e90ff"
     fill-opacity="1"
     fill-rule="evenodd"
     d="m 379.99993,1112 -1,9 -16,19 -3,9 -1,11 -3,6 -7,6 4,5 12,5 1,2 12,4 5,1 3,-2 h 4 l 1,-2 3,1 9,5 7,8 -1,4 h 5 l 10,7 2,-2 4,3 15,5 3,7 -1,3 8,3 7,-3 4,2 8,-1 7,-3 5,3 11,-4 1,-19 2,-5 -2,-4 2,-1 3,3 4,8 3,-4 h 2 l 1,-4 h 2 v -6 l -8,-6 v -4 l 2,-3 -1,-1 3,-8 3,-2 v -4 l 8,-7 1,-3 6,-6 3,2 2,-2 -2,-3 1,-3 4,-1 7,-10 2,2 5,-4 4,-6 -1,-4 5,-6 7,-6 4,1 -2,-2 5,-5 -6,-4 2,-2 4,5 h 3 l 12,-6 -1,-6 -3,-3 v -5 l 7,2 9,9 3,-2 v -3 l 3,1 3,-2 6,10 h 5 l 3,-7 9,-13 5,-1 4,-3 h 5 l 2,-3 1,5 -6,7 1,4 h 2 v 4 l 5,-6 h 11 l 1,-4 4,-3 1,-13 -5,-5 v -5 l 5,-9 -1,-11 -7,-11 -5,-1 -8,-8 -5,-2 -4,3 -1,-2 -2,2 -8,-1 -2,-1 v -3 h -9 l -4,-3 -1,1 -3,-5.00002 -1,2.00002 -8,-8.00002 -4,1 -1,-4 -3,1 -1,-4 -3,-2 -1,4 -9,-2 -1,3 -7,-3 -3,2 -10,2 -6,-6 h -2 l -4,4 h -5 l -2,4 -10,-4 -2,2 v -3 l -4,-1 h -12 l -9,-3 -4,1 v -5 h -3 l -8,-4 1,-1 -3,-5 h -6 l 1,-2 -4,-3 -13,-2 v -3 h -15 l -2,-2 -3,2 -4,-2 -2,3 -4,-2 -2,4 h -2 v 4 l -2,1 -4,-2 -5,7 -3,-1 -6,6 -7,-1 -3,8 -4,-2 -1,5 3,1 -3,5 1,5 -8,5.00002 -2,6 -10,8 -2,5 -6,5 -1,11 2,5 1,-1 1,5 5,-3 5,-6 h 2 v 5 h -2 l -4,4 3,9 -2,2 5,19 -2,12 8,7 5,-5 -4,19 -1,-1 -4,2 z"
     id="鄂尔多斯市" />
  <path
     stroke="#ffff00"
     stroke-opacity="1"
     stroke-width="0.5"
     stroke-linecap="round"
     stroke-linejoin="round"
     stroke-dasharray="none"
     fill="#1e90ff"
     fill-opacity="1"
     fill-rule="evenodd"
     d="m 1373.9999,376.99998 -7,5 -4,5 -7,3 -3,3 -21,-9 -6,3 -2,4 1,3 -4,1 -2,-3 -8,1 -3,4 -8,3 -11,-4 -7,6 -7,-5 h -3 l -6,-7 -7,-2 -1,-5 6,-4 2,-4 -10,-12 2,-3 -9,-2 -9,-5 -4,-5 -2,3 -2,-1 -2,3 h -4 l -2,3 -4,2 -4,-3 -9,8 v 3 l -3,3 -8,4 -2,3 -9,3 -8,-9 h -2 l 3,-5 -14,-6 -1,-11 -23,-11 -13,-21 -19,-2 -3,-3 -14,3 h -13 l -21,25 -7,11 -18,-18 -14,-6 -6,-1 -8,1 -13.99997,5 -12,-4 -10,6 -11,13 -23,-23 -3,-23 19,-10 -2,-24 18,-30 -2,-5 42.99997,-97 h 2 l 21,16 14,5 13,1 21,11 3,-7 6,-1 2,-2 h 6 l 3,-5 2,1 2,-3 1,1 1,-5 4,-1 2,-3 5,-1 v -5 l 5,1 2,-2 -1,-3 3,-1 3,-5 25,-6 8,1 2,-4 4,-3 1,-4 2,2 4,-5 1,-4 h 2 l 2,-4 -3,-2 2,-8 2,-2 -2,-4 -5,-1 -2,2 -1,-2 -2,2 -3,-2 2,-1 -2,-3 h 4 l 3,-6 -1,-4 4,-8 -1,-2 5,-3 2,-3 -1,-2 h 3 l 4,-6 2,-7 -2,-1 v -6 l 5,-5 4,-8 3,-1 3,-3 v -3 l 3,-2 1,-7 -2,-5 h 4 v -7 l 4,-1 v -5 h 3 l 1,-3 -2,-1 1,-2 h 3 l 2,-6 -1,-5 4,-4 -1,-4 2,-6 2,-1 v -3 h 5 l 3,-4 5,-3 1,-4 9,-6 3,-5 2,1 1,-3 7,-2 v -3 l 3,-2 1,-4 -2,-2 5,-8 v -15 l -3,-1 -1,-3 -5,-3 v -4 l 2,-1 -1,-2 3,-4 v -10 l 3,-2 -19,-11 -3,3 -7,-1 -6,5 -9,-2 -1,-6 2,-6 -2,-7 4,-1 3,-3 h 3 l 7,-6 4,-8 11,-11 1,-3 6,-3 1,-4 h 2 v -4 l 8,-7 h 2 l -1,-3 8,-3 6,1 3,-2 2,3 h 7 l 3,-1 3,-4 6,1 5,-2 8,8 4,2 -1,8 6,2 2,5 -1,1 3,2 -2,6 -5,2 -3,9 -4,2 1,5 -2,3 -7,5 -7,10 h -3 l -9,9 3,2 h 6 l 6,8 5,2 1,3 3,-1 8,4 -2,4 4,7 8,4 h 4 l 3,-2 2,-5 4,-3 v -4 l 3,-1 5,-9 3,4 h 6 l 2,6 h 2 l 3,4 2,-2 3,6 -1,4 6,2 1,2 6,-1 2,2 h 5 l -1,8 -5,4 h -4 v 7 l 3,10 h 3 l -1,9 4,12 -1,3 4,12 3,2 -2,3 3,2 v 5 l -2,4 3,3 v 3 l 5,3 v 6 l 3,2 3,-1 6,2 9,5 3,-2 2,1 13,-3 v -2 l 5,-1 4,-8 5,4 3,-1 5,7 10,-2 3,-3 8,1 3,4 7,3 3,-9 3,-2 h 4 l 4,5 h 5 l 6,-6 5,1 5,-7 -2,-3 1,-2 8,-4 v -6 l 3,-7 h 2 v 3 l 3,-1 7,1 2,2 2,-1 2,4 9,9 12,20 4,4 -1,4 6,1 1,8 h 3 l 2,3 3,-1 -1,3 2,3 4,1 -2,4 2,4 -1,4 h -2 l -1,6 -3,-3 -1,5 h -2 l 1,2 -3,2 1,1 -4,2 1,3 -3,-2 -3,3 h 3 l -1,2 3,2 -3,3 3,12 -5,5 -1,-2 -7,8 -4,1 1,4 -3,-2 -1,1 1,8 -4,3 v 3 l -2,1 1,3 -4,5 -4,2 3,2 -7,1 v 6 l 4,1 -1,2 -2,-2 -2,2 3,3 -4,2 -1,3 h -2 l 3,9 -1,4 h -3 l 3,3 v 13 l -2,2 -2,-2 -2,2 1,3 1,-1 3,4 1,-1 v 11 l 3,3 -1,14 -3,4 1,9 h -3 l -1,4 -3,2 -5,-3 v -2 l -4,1 -4,-2 -3,2 -1,4 -3,1 2,4 -5,9 -1,6 h -2 l -1,8 h -3 l -3,20 -5,8 2,2 v 6 l -3,2 4,15 -4,13 1,1 -4,5 -3,1 4,-7 -4,-3 1,-4 -7,-11 1,-3 -2,-2 v -10 l -3,-3 -11,9 -22,23 -8,12 -6,5 -16,8 -4,11 -4,4 -11,7 -8,3 -6,6 -11,7 -4,5 -2,9 z m 124,-277 2,-7 v -10 h 2 l 2,-3 v -16 l -7,2 -4,-3 -11,-1 v 3 h -4 v 2 l -3,1 2,7 -3,4 h -2 l -1,3 -5,-4 -1,-4 -3,1 v 10 l 6,7 -1,4 6,4 4,-3 3,2 3,-2 v -2 l 5,2 6,-1 1,4 z"
     id="呼伦贝尔市" />
  <path
     stroke="#ffff00"
     stroke-opacity="1"
     stroke-width="0.5"
     stroke-linecap="round"
     stroke-linejoin="round"
     stroke-dasharray="none"
     fill="#1e90ff"
     fill-opacity="1"
     fill-rule="evenodd"
     d="m 372.99993,1019 10,-8 2,-6 8,-5.00002 -1,-5 3,-5 -3,-1 1,-5 4,2 3,-8 7,1 6,-6 3,1 5,-7 4,2 2,-1 v -4 h 2 l 2,-4 4,2 2,-3 4,2 3,-2 2,2 h 15 v 3 l 13,2 4,3 -1,2 h 6 l 3,5 -1,1 8,4 h 3 v 5 l 4,-1 9,3 7,-1 9,2 v 3 l 2,-2 10,3 2,-3 v -9 l -2,-1 v -7 l 5,-3 3,1 16,-2 8,-11 -6,-10 -8,-3 -1,-6 3,-1 v -2 l -6,-12 v -2 l 5,-1 v -5 l -5,-5 2,-6 h -13 l -2,-3 v -10 l -5,-7 1,-3 -5,-8 v -2 l 4,-1 2,-3 9,-18 -1,-11 -4,-10 v -4 l -4,-2 -5,1 -18,-2 -11,6 -3,-2 -32,-2 -4,-2 -20,5 -23,-1 -7,-4 -10,4 -2,5 -15,4 -17,2 -11,4 -66,31 -19,12 h -4 l -2,18 3,19 5,10 v 8 l 4,4 1,7 20,14 15,6 11,2 3,2 1,-1 2,3 h 2 l 1,4 3,3 1,-1 11,4 1,6 -8,-1 -6,-4 v 3 l -5,-1 1,5 7,10.00002 7,-1 2,2 3,-4 5,-1.00002 14,2.00002 -3,6 -4,3 2,5 5,2 3,-1 z"
     id="巴彦淖尔市" />
  <path
     stroke="#ffff00"
     stroke-opacity="1"
     stroke-width="0.5"
     stroke-linecap="round"
     stroke-linejoin="round"
     stroke-dasharray="none"
     fill="#1e90ff"
     fill-opacity="1"
     fill-rule="evenodd"
     d="m 723.99993,1011 9,-3 11,5 8,6 6,-4 3,-10 23,-7.00002 5,8.00002 h 4 l 11,-3 8,-8.00002 5,-2 2,-4 4,5 h 2 l 4,-5 8,-1 v -4 l -2,-3 2,-8 4,-2 -6,-8 2,-3 -2,-5 -14,-15 4,-2 2,-4 h 3 l 4,-6 -2,-3 -1,3 -5,-7 2,-1 1,-5 -5,-2 4,-6 7,-4 4,-1 8,2 v -9 h 2 l -3,-5 2,-2 -2,-3 v -5 l 9,-11 v -3 l 5,1 5,-2 -2,-6 2,-6 4,-2 4,2 8,-1 4,-3 -2,-3 2,-1 -4,-2 -5,2 1,-2 -2,-2 2,-1 -6,-2 -1,-2 -5,7 -6,2 4,2 v 5 l -2,2 -4,-1 v -4 l -6,-3 -3,2 -1,3 h -8 v 6 l -2,1 2,6 h -6 l -3,3 -3,-4 v -5 l -8,-1 -3,-2 -2,-4 -4,2 -5,-2 -13,-1 -8,10 -6,4 1,3 -3,-1 -2,2 -3,-5 -7,-2 -5,-9 -8,-2 -3,-10 -3,-2 1,-3 -4,-3 -13,-3 -9,-9 -5,-2 v -2 l -9,-5 -18,-35 -9,-6 -7,-11 h -8 l -11,-8 -4,-10 -5,2 -21,24 -4,5 -3,9 -11,8 -2,5 -6,4 14,12 5,10 4,1 2,3 4,23 9,13 8,20 4,2 8,9 7,2 6,10 -1,10 -3,3 3,2 v 3 l 7,-1 3,2 h 10 l 3,4 4,1 -1,2 3,8 10,7 -1,3 2,4 3,2 2,-2 4,13 -2,4 -4,2 2,4 -1,3 -4,1 3,6 h -3 v 2 l 11,9 v 2 l 3,3 -2,3.00002 h 2 l 2,4 z"
     id="乌兰察布市" />
  <path
     stroke="#ffff00"
     stroke-opacity="1"
     stroke-width="0.5"
     stroke-linecap="round"
     stroke-linejoin="round"
     stroke-dasharray="none"
     fill="#1e90ff"
     fill-opacity="1"
     fill-rule="evenodd"
     d="m 1364.9999,662.99998 1,-20 h -4 v -4 l -2,-3 -4,-2 -2,-8 1,-3 3,-2 -1,-2 -3,1 1,-3 h 3 l -3,-1 -4,-12 h 2 l -1,-9 2,-1 1,-11 2,-4 3,1 3,-9 -6,-2 v -7 l 2,-3 -1,-4 -10,-5 -3,-9 h 2 l 1,-2 -2,-6 -7,-3 -4,1 v 2 l -6,-1 -4,-5 v -2 l 3,1 4,-3 2,-6 2,-1 -1,-8 -3,-4 5,-2 13,6 3,4 v 3 l 7,2 4,6 4,-3 1,-3 h 2 v -5 h 5 l 3,5 1,7 3,-3 3,4 h 3 l 2,7 4,-1 3,-5 -2,-7 3,-2 2,-5 -3,-15 17,-2 4,-3 -1,-4 h 2 v -3 l 3,-4 -10,-17 -1,-14 h 3 v -3 l 2,-1 1,2 5,-1 4,2 3,-2 v -5 l 21,-2 1,-12 -3,-1 3,-2 -2,-2 1,-2 h -2 l -1,6 h -3 l -2,-2 3,-10 -3,-1 -4,3 -8,-6 v 3 l 4,-1 3,4 -2,9 -2,1 -2,-3 h -5 l -4,11 h -6 l -3,2 -2,-4 -6,-4 -1,-15 -4,3 -4,-4 5,-9 -10,-3 -1,1 -8,-8 -9,-17 -7,5 -4,5 -7,3 -3,3 -21,-9 -6,3 -2,4 1,3 -4,1 -2,-3 -8,1 -3,4 -8,3 -11,-4 -7,6 -7,-5 h -3 l -6,-7 -7,-2 -1,-5 6,-4 2,-4 -10,-12 2,-3 -1,-1 -8,-1 -9,-5 -4,-5 -2,3 -2,-1 -2,3 h -4 l -2,3 -4,2 -4,-3 -9,8 v 3 l -3,3 -8,4 -2,3 -9,3 5,3 1,5 h 3 l 6,5 10,26 4,2 1,10 -2,3 2,5 -2,4 3,6 -3,6 2,4 -2,6 5,1 -2,2 -8,2 3,3 -3,2 v 8 l 4,3 -2,2 1,4 -2,3 -1,10 -2,1 2,2 -2,14 -3,5 -4,3 1,3 -2,3 -7,1 14,8 6,2 3,-1 -1,5 6,2 2,-4 -3,-2 v -3 l 2,-1 h 9 l 11,4 1,2 5,2 1,4 h 4 l 4,4 -1,5 7,6 11,4 v 3 l 9,3 -1,6 5,11 14,6 10,8 v 5 l 8,6 1,5 3,1 4,9 11,13 4,1 3,5 6,4 9,4 h 4 z"
     id="兴安盟" />
  <path
     stroke="#ffff00"
     stroke-opacity="1"
     stroke-width="0.5"
     stroke-linecap="round"
     stroke-linejoin="round"
     stroke-dasharray="none"
     fill="#1e90ff"
     fill-opacity="1"
     fill-rule="evenodd"
     d="m 884.99993,848.99998 3,4 v 5 l 4,6 1,12 -5,3 2,3 1,7 -3,8 11,-2 2,2 2,-2 6,2 1,2 4,-1 v -2 l 2,-1 1,2 h 4 l -2,-3 1,-3 -3,-2 2,-2 6,-1 26,-18 1,1 4,-2 6,15 h 6 l 2,-3 -2,-2 1,-3 h 5 l 2,-7 4,-2 2,-3 3,-1 3,2 -2,3 3,2 3,-4 4,4 h 6.99997 l 5,-1 3,-4 3,1 4,-3 1,-7 -7,-9 7,1 1,-4 -2,-10 2,-8 -2,-8 -4,-1 -1,-3 -7,-2 -2,4 -2,-2 v -3 l -2.99997,1 5.99997,-14 v -11 l -3,-6 -7.99997,-5 v -3 l -5,-3 -5,-7 1,-7 3,-2 1,-6 11,-8 0.99997,-8 4,-1 7,3 3,-2 -2,-5 1,-4 3,-4 7,-2 5,-7 -3,-2 -1,-5 2,-1 -1,-6 2,-3 -5,-7 10,-14 6,-4 h 20 l 11,12 -3,4 4,3 5,-1 3,-4 h 3 v -3 l 3,-2 9,2 3,-2 2,-7 3,-1 2,-4 2,2 v -8 l 10,2 5,-4 v -4 l 5,-1 v -2 l 3,-3 3,1 6,-2 2,2 4,-5 8,-3 2,-10 -4,-6 2,-2 2,2 h 5 l 5,-2 -2,-2 h 4 l -2,-6 -5,-3 1,-7 9,2 v -2 l -5,-5 1,-2 3,1 1,-2 -5,-5 1,-2 3,-5 5,3 v 3 l 3,1 2,-2 v -6 l -4,-2 2,-6 -1,1 -5,-6 5,-7 -1,-8 12,-7 5,-10 7,-1 2,-3 -1,-3 4,-3 3,-5 2,-14 -2,-2 2,-1 1,-10 2,-3 -1,-4 2,-2 -4,-3 v -8 l 3,-2 -3,-3 8,-2 2,-2 -5,-1 2,-6 -2,-4 3,-6 -3,-5 -6,-1 -2,4 -7,4 -1,-4 -4,1 -3,-2 h -8 l -4,3 -1,-2 -2,1 -4,-3 h -9 l -7,-9 -4,2 -2,-1 v -4 h -5 l -3,5 v 3 l -7,-1 -3,-2 -3,3 -18,-5 -8,6 h -4 l -5,4 h -3 l -1,2 -4,1 -3,3 v 2 l -4,2 -3,-1 -4,2 -7,-8 h -6 l -5,2 1,5 -3,6 -1,10 -36,-2 v 2 l -5,3 h -4 l -5.99997,3 -20,30 -2,9 3,3 v 6 h -2 l -6,8 h -8 l -1,2 -6,3 -4,6 -11,10 -22,6 -25,2 -14,-6 -13,5 -2,9 -4,7 -7,8 -10,8 -5,7 -3,2 -10,2 -3,4 -15,11 -6,-1 -2,-2 -25,-2 -26,-7 -8,-5 -3,-6 -7,-7 h -21 l -3,-2 -10,4 -9,8 -9,17 -4,12 v 6 l -3,7 -3,1 -4,12 1,4 5,2 2,3 1,8 7,10 7,4 12,17 v 12 l -10,2 -15,16 -7,-1 -7,5 -13,5 4,10 11,8 h 8 l 7,11 9,6 12,25 6,9 9,6 v 2 l 5,2 9,9 13,3 4,3 -1,3 3,2 3,10 8,2 5,9 7,2 3,5 2,-2 3,1 -1,-3 6,-4 8,-10 13,1 5,2 4,-2 2,4 3,2 8,1 v 5 l 3,4 3,-3 h 6 l -2,-6 2,-1 v -6 h 8 l 1,-3 3,-2 6,3 v 4 l 4,1 2,-2 v -5 l -4,-2 6,-2 5,-7 1,2 6,2 -2,1 2,2 -1,2 5,-2 4,2 -2,1 z"
     id="锡林郭勒盟" />
  <path
     stroke="#ffff00"
     stroke-opacity="1"
     stroke-width="0.5"
     stroke-linecap="round"
     stroke-linejoin="round"
     stroke-dasharray="none"
     fill="#1e90ff"
     fill-opacity="1"
     fill-rule="evenodd"
     d="m 267.99993,883.99998 -14,14 -6,-6 -15,1 -10,-2 v -18 l -28,6 h -15 l -29,-7 -45,-23 -11,-1 -6,2 -23,-7 -18,-25 -15,-1 -46,-13 -35,-2 -3,5 -20,-1 -29,7 -85,-8 -65,-12 43,99 -15,15 1,4 22,29 18,13 5,2 1,30 18,-9 -4,-6 7,-2 1,6 7,7 v -8 l 12,-6 4,7 4,2 1,-4 3,-2 v -10 l 26,1 6,-7 25,2 12,16 v 9 l -5,6 V 1009 l -10,7 -3,4 -2,7 -4,4 -8,1 -2,3 -12,7 h -5 14 l 10,3 5,6 9,2 6,5 8,1 4,7 v 8 l 12,2 v 7 h 22 l 1,24 -2,3 v 4 l 3,2 2,-2 4,3 v 4 l 17,-6 -2,6 2,3 v 4 l 6,1 v 6 l 15,5 3,5 5,-3 6,2 10,-12 9,-7 -16,-16 30,-9 10,-5 9,6 27,7 22,-19 5,-2 27,-9 h 7 l 9,3 -3,11 8,12 2,5 v 8 l -2,4 -8,4 -12,21 -29,19 4,5 4,16 -11,5 v 9 l 2,10 19,7 10,10 2,4 20,16 14,-5 1,-4 25,-2 4,-2 10,-1 5,-5 19,-6 13,1 1,-6 9,-2 3,-6 v -6 l 2,-5 -4,-9 v -6 l 5,-4 1,-5 -3,-6 3,-13 -1,-3 2,-2 -2,-4 4,-8 -1,-4 7,-7 -2,-3 3,-4 3,-1 2,-10 3,-5 7,1 3,-3 -1,-7 8,-3 6,2 6,-9 5,2 5,-2 v -5 l -5,-2 -3,-3 -1,-4 10,-7 2,-5 -2,-2 -1,-12 -2,-5 1,-11 6,-5 2,-7 -3,1 -5,-2 -2,-5 4,-3 3,-5 -9,-3.00002 h -5 l -5,1.00002 -3,4 -2,-2 -7,1 -7,-10.00002 -1,-5 5,1 v -3 l 6,4 8,1 -1,-6 -11,-4 -1,1 -3,-3 -1,-4 h -2 l -2,-3 -1,1 -3,-2 -11,-2 -15,-6 -20,-14 -1,-7 -4,-4 v -8 l -5,-10 -3,-19 2,-12 z"
     id="阿拉善盟" />
</svg>