<?xml version="1.0" encoding="UTF-8" standalone="no"?>
<svg
   width="1525"
   height="1546"
   viewBox="-253 -208 1525 1546"
   version="1.1"
   id="svg1"
   xmlns="http://www.w3.org/2000/svg"
   xmlns:svg="http://www.w3.org/2000/svg">
  <defs
     id="defs1" />
  <path
     stroke="#ffff00"
     stroke-opacity="1"
     stroke-width="0.5"
     stroke-linecap="round"
     stroke-linejoin="round"
     stroke-dasharray="none"
     fill="#1e90ff"
     fill-opacity="1"
     fill-rule="evenodd"
     d="m 491,930 v -16 l 5,-1 v -3 h -3 l 1,-9 -9,1 -1,-25 h 7 l 2,-17 -5,1 2,-4 -5,-2 1,2 h -6 v -7 l -3,-5 h -8 l -2,-2 v -7 l -3,-2 1,11 -14,-1 -2,6 h 5 l 2,27 3,5 -6,1 v 14 h 3 l 2,34 -13,1 v 4 l 5,-1 6,8 h 12 l 2,-4 -1,-7 7,-2 14,1 z"
     id="东城区" />
  <path
     stroke="#ffff00"
     stroke-opacity="1"
     stroke-width="0.5"
     stroke-linecap="round"
     stroke-linejoin="round"
     stroke-dasharray="none"
     fill="#1e90ff"
     fill-opacity="1"
     fill-rule="evenodd"
     d="m 405,907 v 6 l -4,9 1,6 3,-2 7,2 4,-1 2,2 h 4 l 1,5 35,-3 -1,-26 -1,-8 h -3 v -14 l 6,-1 -3,-5 -2,-27 h -5 l 3,-11 3,-1 v -3 h -10 v 4 l -8,1 1,18 -11,4 -3,-6 v 7 l -8,1 -6,-2 -4,2 4,4 3,39 z"
     id="西城区" />
  <path
     stroke="#ffff00"
     stroke-opacity="1"
     stroke-width="0.5"
     stroke-linecap="round"
     stroke-linejoin="round"
     stroke-dasharray="none"
     fill="#1e90ff"
     fill-opacity="1"
     fill-rule="evenodd"
     d="m 601,793 -13,-10 1,-5 h -6 l -5,-6 -12,-9 4,-6 -1,-5 -2,-2 -4,3 -12,-12 -9,1 -11,-9 -9,-1 -10,-4 -1,-4 -3,-1 -1,8 -3,1 v 4 l -2,1 v 5 l 2,3 -2,7 -6,-1 v 2 l -13,-3 -13,6 h -4 l -3,6 2,6 -2,4 -8,2 -1,-4 h -2 v 4 l 3,4 -32,6 19,32 3,19 h 10 v 3 l -3,1 -2,7 1,-2 14,1 -1,-11 3,2 v 7 l 2,2 h 8 l 3,5 v 7 h 6 l -1,-2 5,2 -2,4 5,-1 -2,17 h -7 l 1,25 9,-1 -1,9 h 3 v 3 l -5,1 1,10 -2,12 3,5 1,-2 4,4 2,-2 5,5 h 3 l -5,7 -7,-3 v 3 h -4 l 1,4 -3,1 -2,3 -2,-1 -4,8 -5,1 4,2 5,-1 v 3 l 6,1 -1,5 6,-2 8,7 4,1 4,5 8,-3 v -4 l 7,-2 2,3 6,-2 -2,-1 5,-2 v -6 l 4,-2 h 7 l 1,3 6,2 2,-4 -3,-4 7,2 1,-4 18,1 6,3 v 3 l 7,-1 -2,3 h 11 v -6 h 2 v -9 l 5,-5 h -3 v -3 h 6 l 10,-10 -5,-8 4,-8 -1,-4 h 4 l -1,-9 -9,1 v -5 l 4,-4 2,-5 -3,-3 2,-6 -1,-9 7,2 -5,-8 4,-1 v -8 l 3,-2 -2,-5 1,-4 9,5 -3,-35 -5,1 v -5 h 4 l 1,-3 h 2 v -7 l -4,-5 -4,2 -5,-3 2,-4 -6,-4 -14,-2 z m 6,-34 4,-2 -4,-37 -4,-10 1,10 -2,3 -12,2 -1,-13 -3,-5 v 11 l 5,27 v -6 h 4 l 2,17 -1,5 2,-1 1,8 5,2 v -6 h 2 l -3,-5 z"
     id="朝阳区" />
  <path
     stroke="#ffff00"
     stroke-opacity="1"
     stroke-width="0.5"
     stroke-linecap="round"
     stroke-linejoin="round"
     stroke-dasharray="none"
     fill="#1e90ff"
     fill-opacity="1"
     fill-rule="evenodd"
     d="m 356,907 -18,5 v 2 l -5,1 v 5 l -3,-1 -3,3 v 4 l -6,-1 1,3 -3,1 -2,-6 -4,-3 -7,2 -8,-1 -9,-6 -2,2 -6,-2 -3,4 -3,-1 -20,8 -6,4 h -5 l -1,4 -12,2 -6,-4 -6,2 -2,3 2,5 v 6 l -10,3 -2,5 5,3 6,1 11,12 1,-3 3,2 v 13 h -3 l -1,4 2,8 -1,8 5,7 -1,3 3,3 4,-4 h 5 l -1,-3 10,-1 1,4 7,2 1,4 h -4 l -2,2 -2,-2 -3,5 3,11 h 5 l 4,-4 h 10 l 1,-2 5,1 5,-2 5,-14 10,1 v 3 l 4,-2 4,1 v 2 l 5,1 1,-21 4,-6 v -4 l 6,-6 -1,-7 9,-1 1,-2 11,2 1,6 5,5 v 20 l 5,-5 3,5 8,-4 10,-2 1,3 h 5 l -3,2 3,3 4,15 4,4 3,-1 5,-11 h 3 l 1,-14 h 3 l 1,-3 8,-1 1,-5 11,2 v 5 h 8 v 14 h 8 l 1,6 8,-1 1,14 5,-1 -2,-19 18,-1 v -6 h 6 v -9 l -5,-7 h -3 l -2,-2 -4,1 v -5 l 7,2 -1,-8 -3,-1 1,-5 4,3 3,-5 5,-1 4,-8 2,1 2,-3 3,-1 -1,-4 h 4 v -3 l 7,3 5,-7 h -3 l -5,-5 -2,2 -4,-4 -1,2 -3,-5 1,-6 h -15 l -7,2 1,7 -2,4 h -12 l -6,-8 -5,1 v -4 l -22,2 -1,-5 h -4 l -2,-2 -4,1 -7,-2 -3,2 -1,-6 4,-9 v -6 h -9 l -14,10 v -9 h -21 z"
     id="丰台区" />
  <path
     stroke="#ffff00"
     stroke-opacity="1"
     stroke-width="0.5"
     stroke-linecap="round"
     stroke-linejoin="round"
     stroke-dasharray="none"
     fill="#1e90ff"
     fill-opacity="1"
     fill-rule="evenodd"
     d="m 289,915 9,6 8,1 7,-2 4,3 2,6 3,-1 -1,-3 6,1 v -4 l 3,-3 3,1 v -5 l 5,-1 v -2 l 18,-5 h -4 v -18 l -2,-4 -13,3 -1,-2 -18,2 1,-8 6,-1 -2,-2 2,-2 -2,-2 2,-3 v -7 l -2,-5 -9,-12 -11,-8 v -13 l -5,-5 -1,6 -5,5 -3,-10 -6,3 -5,-9 -5,5 -19,2 -4,5 3,9 4,4 -1,6 -4,3 3,7 -4,2 -2,5 6,10 3,-2 3,4 -1,4 2,2 7,2 6,12 4,3 v 5 l 6,4 z"
     id="石景山区" />
  <path
     stroke="#ffff00"
     stroke-opacity="1"
     stroke-width="0.5"
     stroke-linecap="round"
     stroke-linejoin="round"
     stroke-dasharray="none"
     fill="#1e90ff"
     fill-opacity="1"
     fill-rule="evenodd"
     d="m 405,907 h 8 l -3,-39 -4,-4 4,-2 6,2 8,-1 v -7 l 3,6 11,-4 -1,-18 8,-1 v -9 l -3,-14 -19,-32 32,-6 -3,-4 v -4 l -10,-1 v -3 l -5,-1 -2,-7 h 4 v -4 l 5,-1 2,-2 v -5 l -7,1 v -3 h -7 v 3 l -4,-1 -8,3 v 3 l -3,1 1,4 h -3 l -1,-4 -6,-4 1,6 -4,2 -6,-6 -6,1 -3,-3 -2,2 -9,-21 -8,3 -5,-12 1,-3 -6,1 -5,-6 4,-3 -1,-6 -3,-1 1,5 -3,2 -2,-2 -5,1 -4,-2 5,-27 -10,-1 -13,-6 -3,3 -4,-3 -3,-17 -6,1 -2,4 -6,-2 -2,10 -5,4 -4,1 v 6 l 3,8 -3,-1 1,4 -27,3 v 6 l -14,-1 -5,-2 -3,2 -4,-5 -5,2 -4,-1 -5,5 -3,-1 v 6 l -3,4 -5,2 v 4 l -5,3 -5,10 2,1 2,6 7,5 1,5 4,5 -2,10 8,18 4,2 8,-1 2,-2 5,2 7,-1 7,3 4,-1 8,2 6,6 6,1 5,4 1,3 7,7 -2,6 h -8 l -7,6 5,9 6,-3 3,10 5,-5 1,-6 5,5 v 13 l 11,8 9,12 2,5 v 7 l -2,3 2,2 -2,2 2,2 -6,1 -1,8 18,-2 1,2 13,-3 2,4 v 18 l 30,1 v 9 l 14,-10 z"
     id="海淀区" />
  <path
     stroke="#ffff00"
     stroke-opacity="1"
     stroke-width="0.5"
     stroke-linecap="round"
     stroke-linejoin="round"
     stroke-dasharray="none"
     fill="#1e90ff"
     fill-opacity="1"
     fill-rule="evenodd"
     d="m 278,815 7,-6 h 8 l 2,-6 -7,-7 -1,-3 -5,-4 -6,-1 -6,-6 -8,-2 -4,1 -7,-3 -7,1 -5,-2 -2,2 -8,1 -4,-2 -8,-18 2,-10 -4,-5 -1,-5 -7,-5 -2,-6 h -10 l -3,4 -2,-2 -7,7 -10,-5 -15,-3 -13,7 -6,-16 1,-9 -3,1 -1,5 -3,-5 -7,-2 4,-4 -11,-17 -9,-9 -10,-3 -2,2 -3,-3 H 81 l -12,-9 -6,1 -2,-2 -5,2 -9,-3 1,5 -10,-7 -11,-1 -12,-15 -3,-1 1,-8 -11,3 -3,10 -10,2 -4,10 4,7 -4,7 -11,8 -7,1 -6,-5 -5,-1 -7,2 8,4 1,2 -7,-2 -4,2 -3,-5 -4,1 -5,-2 -1,2 -16,2 -2,-3 -7,5 -2,5 1,3 -5,2 -4,-2 -4,2 -3,-3 -4,2 -7,-3 h -5 l -3,4 -1,7 -1,-2 -1,14 h -9 l -2,-5 -6,4 -3,-1 -7,6 1,9 -2,3 -6,3 -5,-2 -8,2 -9,9 -3,1 v 2 l -7,10 -9,6 1,3 -8,7 -7,4 h -6 l -5,2 -1,8 -8,10 6,8 v 9 l -4,-2 -12,10 v 5 l -3,9 2,4 -2,9 2,5 h 7 l 2,-2 4,1 2,3 h 4 l 9,8 11,4 5,12 6,5 6,2 12,13 2,3 -10,14 1,3 14,5 -2,6 -3,1 v 9 l -5,11 -3,2 2,7 9,3 3,5 3,-1 8,4 2,4 15,9 h 6 l 7,-1 7,-7 2,-8 4,-5 2,-6 4,-2 2,-13 5,-9 6,-5 h 6 l 4,-4 3,1 4,-7 10,-1 2,-2 5,-1 3,-6 7,-6 13,-6 7,1 2,-2 7,-1 13,-7 v -3 l 9,-3 6,-4 3,5 17,-2 7,3 3,5 h 6 l 6,3 6,11 2,-1 5,3 11,-4 6,-4 3,-7 4,-3 9,-1 10,3 h 17 l 6,-4 4,1 3,6 v 8 l -7,4 -10,13 4,8 16,4 3,5 5,-1 5,-4 1,4 6,-1 -1,-2 10,-5 6,1 -4,7 -4,3 1,4 -3,11 5,8 12,-9 h 7 l 1,8 2,1 9,-5 6,1 3,-3 6,2 2,-5 10,-3 v -6 l -2,-5 2,-3 6,-2 6,4 12,-2 1,-4 h 5 l 6,-4 20,-8 3,1 3,-4 6,2 2,-2 -4,-8 -6,-4 v -5 l -4,-3 -6,-12 -7,-2 -2,-2 1,-4 -3,-4 -3,2 -6,-10 2,-5 4,-2 -3,-7 4,-3 1,-6 -4,-4 -3,-9 4,-5 19,-2 z"
     id="门头沟区" />
  <path
     stroke="#ffff00"
     stroke-opacity="1"
     stroke-width="0.5"
     stroke-linecap="round"
     stroke-linejoin="round"
     stroke-dasharray="none"
     fill="#1e90ff"
     fill-opacity="1"
     fill-rule="evenodd"
     d="m 207,956 -6,-2 -3,3 -6,-1 -9,5 -2,-1 -1,-8 h -7 l -12,9 -5,-8 3,-11 -1,-4 4,-3 4,-7 -6,-1 -10,5 1,2 -6,1 -1,-4 -5,4 -5,1 -3,-5 -16,-4 -4,-8 10,-13 7,-4 v -8 l -3,-6 -4,-1 -6,4 H 98 l -10,-3 -9,1 -4,3 -3,7 -6,4 -11,4 -5,-3 -2,1 -6,-11 -6,-3 h -6 l -3,-5 -7,-3 -17,2 -3,-5 -6,4 -9,3 v 3 l -13,7 -7,1 -2,2 -7,-1 -13,6 -7,6 -3,6 -5,1 -2,2 -10,1 -4,7 -3,-1 -4,4 h -6 l -6,5 -5,9 -2,13 -4,2 -2,6 -4,5 -2,8 -7,7 -13,1 -2,3 v 5 l -3,1 -6,7 -11,1 -2,3 -16,3 -4,4 -12,-11 -7,-3 -5,7 -13,9 h -4 l -7,-3 -6,3 -3,6 -4,2 1,4 3,-2 4,2 -1,5 3,11 14,7 6,5 3,-2 h 9 l 7,3 -3,5 4,25 -3,5 h 2 l 5,5 v 5 l -2,5 h -2 l -4,4 1,4 -2,4 3,4 -6,6 -4,8 1,4 12,1 1,-3 h 7 l 4,7 8,5 -2,6 1,10 2,2 -7,7 -2,8 3,13 2,-2 v -4 l 9,-5 2,-8 4,-5 5,-2 6,8 8,4 2,6 4,3 -1,4 10,2 10,-10 14,-3 10,6 2,-6 h 5 l 1,4 5,-2 5,1 6,-5 2,-4 -1,-5 16,15 v 6 l 4,5 -1,7 4,1 v 8 l -3,1 -2,4 5,2 h 9 l 5,3 2,5 1,11 4,-1 v -4 l 9,3 -1,6 4,12 6,10 5,2 5,-1 2,5 2,-2 -3,-4 7,3 1,-1 5,3 27,1 5,2 v -5 l -5,-2 -2,-4 h 4 v -3 l -4,-3 v -5 h 3 l 1,-3 3,-2 v -5 h 10 l 3,-2 1,-7 h 2 l 3,-4 5,6 3,-1 v 3 h 5 v -2 h 7 l 1,-2 h 3 l 1,-5 h 3 v -6 l -2,-5 4,-2 9,3 3,-6 -1,-1 3,-9 -5,-1 1,-4 -2,-1 2,-10 10,3 v 3 l 5,1 v 3 l 3,2 v 6 h 3 l -1,4 h 4 v 2 l 5,2 1,6 h 3 l 2,5 4,-4 3,1 1,-6 h 4 l 3,-2 v -22 l 9,2 v 7 l 4,3 -1,6 h 9 l 2,-6 h 3 v -4 l 5,2 4,-2 -1,11 6,1 v 3 l 48,-3 2,-1 -1,-4 4,4 v 5 h 5 l 6,-4 v 4 l 7,1 v 2 l 14,-5 1,-10 h 10 l 8,-2 1,-4 5,-1 5,1 -1,2 5,-1 v 3 l 4,-1 3,3 1,5 10,-1 3,-5 v -7 l -2,-2 -4,-13 1,-19 -2,-14 5,-21 -1,-2 3,-6 -3,-5 7,-13 2,-11 -1,-2 3,-6 6,-6 3,-9 -4,-13 6,-7 v -9 l 2,-4 -2,-8 v -40 l -5,-5 -1,-6 -11,-2 -1,2 -9,1 1,7 -6,6 v 4 l -4,6 -1,21 -5,-1 v -2 l -4,-1 -4,2 v -3 l -10,-1 -5,14 -5,2 -5,-1 -1,2 h -10 l -4,4 h -5 l -3,-11 3,-5 2,2 2,-2 h 4 l -1,-4 -7,-2 -1,-4 -10,1 1,3 h -5 l -4,4 -3,-3 1,-3 -5,-7 1,-8 -2,-8 1,-4 h 3 v -13 l -3,-2 -1,3 -11,-12 -6,-1 z"
     id="房山区" />
  <path
     stroke="#ffff00"
     stroke-opacity="1"
     stroke-width="0.5"
     stroke-linecap="round"
     stroke-linejoin="round"
     stroke-dasharray="none"
     fill="#1e90ff"
     fill-opacity="1"
     fill-rule="evenodd"
     d="m 696,1166 3,1 1,3 5,4 8,-4 10,5 8,8 3,12 h 5 l 1,-3 h 3 l -1,-6 h 3 l -2,-8 9,-1 12,-7 4,2 v 3 l 8,-3 -1,-4 3,-1 -9,-10 2,-2 -1,-3 5,-3 v -2 h 5 l -1,-4 9,-5 -1,-13 h 7 l 3,-3 6,-1 8,-4 6,1 11,-3 -1,-4 3,-1 -5,-7 -9,2 -2,-3 4,-2 v -2 l -5,-11 1,-7 -4,-4 4,-6 9,-1 2,-3 10,-2 v -4 h -3 l -1,-5 3,-1 -1,-4 -5,-9 -4,1 v -8 l 5,-3 2,4 7,-7 -3,-6 4,-5 9,-1 4,1 4,4 3,-2 -1,-6 4,-1 -2,-5 -9,-1 -3,-8 h 6 l -10,-12 -2,-20 -6,-11 -5,-4 -6,2 v 7 l 4,7 -4,3 -4,-2 -8,-11 -6,-1 v 3 h -5 l -4,-2 v -2 l -5,-2 -5,-10 -3,1 -6,-7 -2,1 -7,-12 -3,-2 -4,1 -3,-3 -1,-8 h -3 v 5 h -3 v 6 l -7,-3 -5,-5 -2,-5 v -10 l -2,-8 v -35 l -1,-2 -13,-6 -4,-5 2,-8 5,-6 v -6 l 6,-10 1,-10 -4,-8 1,-3 -14,-1 -1,-4 -3,-2 v -3 l -8,-2 -3,2 v 3 l -6,-2 v 3 l -3,-1 -2,3 -1,-4 -5,-3 -4,6 -5,4 h -8 l 2,7 h -2 l -1,-5 h -12 l -2,-5 -4,-2 -3,3 -3,-4 v -3 l -11,6 -2,-4 -5,2 -2,-2 -3,1 v -4 l -4,-2 v -3 l -8,3 -2,9 -4,2 4,3 14,2 6,4 -2,4 5,3 4,-2 4,5 v 7 h -2 l -1,3 h -4 v 5 l 5,-1 3,35 -9,-5 -1,4 2,5 -3,2 v 8 l -4,1 5,8 -7,-2 1,9 -2,6 3,3 -2,5 -4,4 v 5 l 9,-1 1,9 h -4 l 1,4 -4,8 5,8 -10,10 h -6 v 3 h 3 l -5,5 v 9 h -2 v 6 h -11 l 2,-3 -7,1 v -3 l -6,-3 -18,-1 -1,4 -7,-2 3,4 -2,4 4,3 -5,1 5,8 1,8 -5,3 2,3 -5,5 5,10 -5,2 4,9 6,-3 1,4 h -7 l 3,2 v 5 h -9 l -3,-8 -3,4 4,3 -2,12 6,2 -2,4 6,2 1,3 -4,-2 v 9 l 4,2 v 6 l -2,4 -4,-2 -1,3 3,1 -1,2 4,2 6,-3 h 21 v 5 l 5,-1 1,-2 6,-1 v 2 l 10,-3 1,-4 8,-6 4,-1 v -2 l 5,1 2,4 5,-1 1,7 4,7 6,1 v 4 h -4 l -1,3 1,6 h 3 v 6 l 5,2 v -2 l 6,1 2,3 -2,4 1,5 5,-2 4,2 4,-2 h 5 l 1,2 h 7 l 1,7 -2,16 3,7 3,3 h 9 l -1,10 z"
     id="通州区" />
  <path
     stroke="#ffff00"
     stroke-opacity="1"
     stroke-width="0.5"
     stroke-linecap="round"
     stroke-linejoin="round"
     stroke-dasharray="none"
     fill="#1e90ff"
     fill-opacity="1"
     fill-rule="evenodd"
     d="m 730,795 4,-12 v -5 l 3,-2 h 6 v 3 l 7,3 3,-3 12,3 v -10 l 2,-1 v -6 l 6,-2 v -2 l 13,-1 1,-3 5,3 8,9 4,1 5,-5 7,1 8,-2 4,-4 5,-1 3,8 5,-3 2,-7 3,3 5,1 -1,4 6,-2 v 7 l 12,-10 v -11 h 6 l 2,-3 4,2 6,-13 -4,-3 1,-8 -2,-4 -3,-1 -6,-6 4,-2 2,-8 -3,-2 -2,-5 2,-5 -4,-3 3,-12 6,-11 -5,-4 -2,-7 -5,-8 v -4 l -8,1 -4,-6 v -5 h 3 l -3,-7 -4,1 -7,-14 v -4 l 6,1 2,-13 -4,-6 h -3 l -7,10 -5,-2 -1,2 -4,-2 -1,-6 -5,-1 -4,-4 5,-3 -5,-3 -6,-12 v -3 l -9,-12 2,-6 -4,-7 v -9 h -9 l -3,-12 -4,-7 -8,1 -7,5 1,5 -2,1 -2,12 -9,3 -2,-3 -6,-3 h -10 v 7 l -2,2 -1,6 -8,6 -3,-3 -4,1 -14,-10 -4,1 2,-4 -2,-2 -20,27 -4,-1 v 6 l -6,3 v 5 l -4,2 -5,6 h -5 l -1,-4 -4,4 -1,-4 3,-8 -5,-14 -13,1 -4,3 -1,-2 -4,1 -1,-3 -8,1 -1,10 -7,-2 -7,1 1,-5 -3,-2 -1,-7 -6,2 -2,-5 -2,3 -2,-2 -9,-1 v -4 h -4 l 1,-5 -10,4 -5,-2 -4,1 -2,-2 2,10 -3,5 h -7 l -2,4 -11,-1 -2,-3 -2,2 -2,8 h -5 l -8,6 -1,6 2,13 h -4 l -3,4 -1,15 11,13 v 6 l 2,4 -4,4 -1,5 h -2 l -3,8 1,3 h 5 l 5,3 -1,7 -7,2 1,6 2,1 1,15 4,12 -2,10 -6,4 -6,-1 -5,3 1,4 3,1 1,4 10,4 9,1 11,9 9,-1 12,12 4,-3 2,2 20,-15 -3,-19 v -11 l 3,5 1,13 12,-2 2,-3 -1,-10 4,10 4,37 -4,2 5,21 3,-1 v 3 l 4,2 v 4 l 3,-1 2,2 5,-2 2,4 11,-6 v 3 l 3,4 3,-3 4,2 2,5 h 12 l 1,5 h 2 l -2,-7 h 8 l 5,-4 4,-6 5,3 1,4 2,-3 3,1 v -3 l 6,2 v -3 l 3,-2 8,2 v 3 l 3,2 1,4 h 9 z m -141,-58 -20,15 1,5 -4,6 12,9 5,6 h 6 l -1,5 13,10 4,-2 2,-9 5,-2 -5,-21 h -4 l 3,5 h -2 v 6 l -5,-2 -1,-8 -2,1 1,-5 -2,-17 h -4 v 6 z"
     id="顺义区" />
  <path
     stroke="#ffff00"
     stroke-opacity="1"
     stroke-width="0.5"
     stroke-linecap="round"
     stroke-linejoin="round"
     stroke-dasharray="none"
     fill="#1e90ff"
     fill-opacity="1"
     fill-rule="evenodd"
     d="m 452,770 h 2 l 1,4 8,-2 2,-4 -2,-6 3,-6 h 4 l 13,-6 13,3 v -2 l 6,1 2,-7 -2,-3 v -5 l 2,-1 v -4 l 3,-1 v -12 l 5,-3 6,1 6,-4 2,-10 -4,-12 -1,-15 -2,-1 -1,-6 7,-2 1,-7 -5,-3 h -5 l -1,-3 3,-8 h 2 l 1,-5 4,-4 -2,-4 v -6 l -11,-13 1,-15 3,-4 h 4 l -2,-13 1,-6 8,-6 h 5 l 2,-8 2,-2 -9,-1 -7,-5 v -8 l -4,-3 -5,-1 -8,-6 -4,2 -4,-2 1,-6 -2,-7 -3,-2 8,-13 -4,-5 -4,-1 -4,-10 -3,4 h -5 l -2,-2 -6,1 -6,-3 v -2 h -9 l -3,-3 -5,-1 -7,2 1,3 -8,2 2,-3 1,-7 -4,-6 4,-7 -4,-3 -11,3 3,-8 h 3 l 2,-2 -4,-5 -7,-1 -6,-7 -9,-7 -8,-2 -8,2 -5,3 -1,-8 -3,1 v 8 l -5,8 -9,-8 -7,2 -2,-2 -4,2 -1,5 -3,1 -3,-5 -1,2 h -4 l -4,3 -3,-6 -11,-1 -2,6 -12,3 -9,5 -2,-3 -5,1 -1,3 h -7 l -8,4 -2,11 3,1 4,5 -2,6 -6,1 2,-3 -2,-8 -5,3 2,2 -2,3 v 4 h 4 l -4,5 v 6 l 3,7 -7,5 -7,-1 -5,-9 1,-1 -5,-7 h -17 l -3,-5 -7,-4 -4,3 h -4 l -7,10 3,4 -4,6 -6,-1 -2,4 -7,1 -3,-12 -7,-10 -7,2 -6,7 -4,-3 -8,4 -2,4 -5,1 2,10 9,5 2,4 -6,1 -3,8 2,5 -2,3 2,5 -10,10 1,2 -2,4 -5,3 h -7 l -5,3 -5,-2 -14,8 -3,12 -11,-2 1,2 -11,17 v 7 l 2,3 -7,5 v 7 l -2,1 -3,6 h -5 l -6,-3 -5,5 4,4 -5,10 -2,1 7,14 v 4 l 2,2 6,-1 12,9 h 14 l 3,3 2,-2 10,3 9,9 11,17 -4,4 7,2 3,5 1,-5 3,-1 -1,9 6,16 13,-7 15,3 10,5 7,-7 2,2 3,-4 4,1 4,-2 5,-10 5,-3 v -4 l 5,-2 3,-4 v -6 l 3,1 5,-5 4,1 5,-2 4,5 3,-2 5,2 14,1 v -6 l 27,-3 -1,-4 3,1 -3,-8 v -6 l 4,-1 5,-4 2,-10 6,2 2,-4 6,-1 3,17 4,3 3,-3 13,6 10,1 -5,27 4,2 5,-1 2,2 3,-2 -1,-5 3,1 1,6 -4,3 5,6 6,-1 -1,3 5,12 8,-3 9,21 2,-2 3,3 6,-1 6,6 4,-2 -1,-6 6,4 1,4 h 3 l -1,-4 3,-1 v -3 l 8,-3 4,1 v -3 h 7 v 3 l 7,-1 v 5 l -2,2 -5,1 v 4 h -4 l 2,7 5,1 v 3 h 6 z"
     id="昌平区" />
  <path
     stroke="#ffff00"
     stroke-opacity="1"
     stroke-width="0.5"
     stroke-linecap="round"
     stroke-linejoin="round"
     stroke-dasharray="none"
     fill="#1e90ff"
     fill-opacity="1"
     fill-rule="evenodd"
     d="m 696,1166 -3,-5 1,-10 h -9 l -3,-3 -3,-7 2,-16 -1,-7 h -7 l -1,-2 h -5 l -4,2 -4,-2 -5,2 -1,-5 2,-4 -2,-3 -6,-1 v 2 l -5,-2 v -6 h -3 l -1,-6 1,-3 h 4 v -4 l -6,-1 -4,-7 -1,-7 -5,1 -2,-4 -5,-1 v 2 l -4,1 -8,6 -1,4 -10,3 v -2 l -6,1 -1,2 -5,1 v -5 h -21 l -6,3 -4,-2 1,-2 -3,-1 1,-3 4,2 2,-4 v -6 l -4,-2 v -9 l 4,2 -1,-3 -6,-2 2,-4 -6,-2 2,-12 -4,-3 3,-4 3,8 h 9 v -5 l -3,-2 h 7 l -1,-4 -6,3 -4,-9 5,-2 -5,-10 5,-5 -2,-3 5,-3 -1,-8 -5,-8 5,-1 -10,-5 -1,-3 h -7 l -4,2 v 6 l -5,2 2,1 -6,2 -2,-3 -7,2 v 4 l -8,3 -4,-5 -4,-1 -8,-7 -6,2 1,-5 -6,-1 v -3 l -5,1 -4,-2 -3,5 -4,-3 -1,5 3,1 1,8 -7,-2 v 5 l 4,-1 2,2 h 3 l 5,7 v 9 h -6 v 6 l -18,1 2,19 -5,1 -1,-14 -8,1 -1,-6 h -8 v -14 h -8 v -5 l -11,-2 -1,5 -8,1 -1,3 h -3 l -1,14 h -3 l -5,11 -3,1 -4,-4 -4,-15 -3,-3 3,-2 h -5 l -1,-3 -10,2 -8,4 -3,-5 -5,5 v 20 l 2,8 -2,4 v 9 l -6,7 4,13 -3,9 -6,6 -3,6 1,2 -2,11 -7,13 3,5 -3,6 1,2 -5,21 2,14 -1,19 4,13 2,2 v 7 l -3,5 3,10 3,3 5,-3 -1,4 h 4 l 2,6 2,1 -3,4 3,12 -1,9 h 2 l -1,5 -2,1 2,4 v 5 l 5,4 3,5 v 4 l 9,5 h 4 l 3,4 3,-2 16,4 1,4 10,11 v 4 l 4,6 6,5 12,4 v -2 h 8 l 4,3 16,1 2,-2 6,3 19,3 6,4 2,-3 10,-3 v -4 h 3 l -5,-11 v -11 l -3,-2 v -3 l -6,-1 -2,4 -3,2 -3,-5 h 4 l -2,-6 -3,3 -8,3 -1,-3 3,-3 2,-8 h 4 l -3,-9 -8,-2 -1,-4 -3,-2 v -12 l 2,-1 4,4 8,-1 2,15 5,-1 1,3 8,-3 -5,-15 h 12 v -2 l 8,1 v -4 l 3,-3 7,-1 v -7 l -5,-11 1,2 12,-1 v 3 h 14 v -9 l 2,-5 6,-1 1,-5 5,-1 -1,-4 h -4 l -1,-4 3,-5 -2,-3 3,-6 4,-2 8,5 -1,-8 3,-2 v 7 h 4 l 5,-5 h 4 l 3,-3 v -6 l 2,-1 -2,-7 h 10 l -1,-4 10,2 1,3 5,-1 1,-5 h 4 v 5 l 3,1 1,4 h 3 l 2,12 6,2 5,-1 v -4 l 8,2 v 3 l 9,-1 -1,-2 4,-3 6,1 -1,1 14,5 4,-3 2,6 h 2 l 1,4 3,3 16,-5 -1,-5 -17,-11 -1,-11 h 3 l 3,3 5,-3 h 4 z"
     id="大兴区" />
  <path
     stroke="#ffff00"
     stroke-opacity="1"
     stroke-width="0.5"
     stroke-linecap="round"
     stroke-linejoin="round"
     stroke-dasharray="none"
     fill="#1e90ff"
     fill-opacity="1"
     fill-rule="evenodd"
     d="m 379,436 3,-1 1,8 5,-3 8,-2 8,2 9,7 6,7 7,1 4,5 -2,2 h -3 l -3,8 11,-3 4,3 -4,7 4,6 -1,7 -2,3 8,-2 -1,-3 7,-2 5,1 3,3 h 9 v 2 l 6,3 6,-1 2,2 h 5 l 3,-4 4,10 4,1 4,5 -8,13 3,2 2,7 -1,6 4,2 4,-2 8,6 5,1 4,3 v 8 l 7,5 9,1 2,3 11,1 2,-4 h 7 l 3,-5 -2,-10 2,2 4,-1 5,2 10,-4 -1,5 h 4 v 4 l 9,1 2,2 2,-3 2,5 6,-2 1,7 3,2 -1,5 7,-1 7,2 1,-10 8,-1 1,3 4,-1 1,2 4,-3 13,-1 5,14 -3,8 1,4 4,-4 1,4 h 5 l 5,-6 4,-2 v -5 l 6,-3 v -6 l 4,1 20,-27 1,1 11,-19 2,1 4,-8 8,-5 -4,-2 -4,-8 h -2 l -1,-7 -5,-2 -5,2 -1,-5 -9,4 v -4 h -6 l 1,-5 2,-2 v -14 h -6 l 1,-8 -4,1 -6,-5 7,-10 -3,-3 1,-14 h 4 l 3,-3 1,-4 h 3 l 9,-5 -6,-6 -5,3 -2,-6 v -11 l -5,-6 4,1 3,-2 -5,-6 1,-6 3,-3 -4,-2 -1,3 -8,-2 -6,-8 -2,1 -1,-14 8,2 -8,-6 v -5 l 3,-2 2,-17 8,-6 v -5 l 4,-3 -3,-4 -5,-3 -4,-7 1,-5 -8,-4 h -7 l -3,-5 -9,2 3,-5 10,1 -2,-5 4,-3 10,1 8,-2 v -3 l 3,-2 v -9 l -4,-9 2,-2 -2,-3 2,-5 -5,-3 2,-3 -1,-4 -6,-7 2,-3 3,1 v -6 l -3,-6 8,-8 -1,-7 2,-5 -2,-9 3,-3 v -13 l 8,-5 v -4 l 16,-8 6,-8 5,-1 5,4 11,2 2,-4 -1,-5 2,-3 1,-15 -7,-22 2,-6 8,9 6,2 6,-3 h 11 l 4,-2 6,-9 -4,-9 12,-5 v -3 l 5,-1 v -3 l 7,-2 -3,-8 6,-2 2,-4 3,2 6,-4 -4,-3 1,-9 -4,-4 v -3 h -5 l -6,-4 -4,-10 -5,-1 -1,-3 -6,1 -1,-3 -5,-1 -2,2 -4,-2 -2,-5 h -5 l -6,7 -2,-2 v -8 l -4,-4 v -4 l -15,-18 h -3 l -2,-5 -5,3 -3,-2 1,-7 -7,-2 -8,-5 -6,-1 -4,-3 -1,-5 -5,-4 h -3 l 3,-11 4,-5 -7,-2 -1,-6 -3,1 -4,-2 v -4 l -9,-10 -2,-11 -7,-8 v -5 l 6,-7 -2,-3 v -14 l 6,-6 v -6 l 6,-8 -3,-4 v -7 l -3,-5 1,-3 -3,-3 -4,2 -4,-1 -3,-3 h -6 l -6,-5 -2,-5 -5,-3 -5,1 -2,-2 h -5 l -5,6 -5,1 v 5 l -3,7 1,5 2,1 3,6 1,8 -6,16 2,5 -2,15 -12,8 -6,-2 -15,-14 -6,-2 -2,5 h -7 l -5,-2 -12,9 -4,-1 -2,7 -9,-1 -6,-3 -2,1 -6,-4 -5,3 h -3 l -7,-5 -7,3 -2,12 1,4 -5,10 6,4 v 4 l 5,10 v 3 l 4,1 1,6 3,5 3,17 -2,6 h -7 l -4,-5 -16,2 -5,-4 -12,3 -7,-6 h -4 l -10,-16 -4,-12 -7,-8 -4,1 -4,6 h -6 l -8,7 -4,8 v 16 l 6,4 2,5 6,7 9,7 1,4 6,4 5,8 5,2 2,7 5,4 6,16 6,4 5,6 11,2 2,11 8,7 1,4 h 4 l 3,9 -1,6 4,8 4,3 h 6 l 4,6 7,5 4,-1 2,4 -1,10 3,3 6,2 -3,5 1,9 -3,6 h -2 l -1,4 2,5 -4,8 2,5 h -5 l -5,5 -4,12 2,5 h 4 l 7,3 3,-2 6,1 4,8 -1,3 6,2 2,4 8,-2 3,3 v 3 l 4,3 1,4 h 2 l 7,6 8,1 v 4 l -4,6 -6,-3 -7,3 -5,-2 -4,2 v 6 l -4,12 2,7 -4,3 1,5 -5,8 -5,3 -6,7 -4,9 -6,7 -9,3 -3,11 -7,5 -7,11 4,5 h 3 l 4,5 16,-4 2,7 4,2 4,7 6,4 v 5 l -8,8 -12,2 h -4 l -2,-3 h -11 l -8,-4 -1,7 h -10 l -7,3 -9,-2 -3,-3 -2,2 -5,-1 -10,9 -5,-3 1,-6 -8,-3 1,-11 -15,-5 -7,3 -4,-1 -4,2 -5,-3 -5,1 -14,14 h -9 l 2,10 5,7 4,2 -9,12 -3,12 v 5 l 5,14 -4,4 -2,-1 2,9 -3,3 2,2 -3,7 z"
     id="怀柔区" />
  <path
     stroke="#ffff00"
     stroke-opacity="1"
     stroke-width="0.5"
     stroke-linecap="round"
     stroke-linejoin="round"
     stroke-dasharray="none"
     fill="#1e90ff"
     fill-opacity="1"
     fill-rule="evenodd"
     d="m 868,760 2,4 3,-1 2,11 10,-2 5,2 6,5 v 2 l 13,-1 2,-2 3,3 -1,-4 h 4 l -2,-5 5,-3 4,-7 9,-1 2,-2 -1,-6 6,-1 7,-4 v -3 l 8,-1 v 3 l 3,-3 v -6 l 13,-1 3,4 9,-1 7,7 7,1 13,-5 2,-6 -1,-1 13,5 h 5 l 3,-4 -4,-4 3,-4 3,1 1,10 5,3 v 2 l 5,-3 2,-6 h -3 l 1,-3 7,-6 -3,-4 1,-6 9,2 v -4 l 3,-1 7,-11 5,-1 3,-4 5,3 8,2 2,4 4,2 1,-8 7,-7 8,2 8,-17 4,-3 4,1 3,-2 6,5 v 2 l 13,-3 2,-3 3,-1 1,-4 h -5 l 4,-3 -3,-2 6,-6 -2,-7 -5,-7 2,-2 h 5 l 3,-3 3,4 3,-4 h 3 l 3,4 v -4 l 9,2 -1,-3 7,-6 3,1 2,-4 -8,-5 -6,4 h -4 l 1,-7 -2,1 -2,-6 10,-2 -5,-5 -6,-2 v -8 l 12,-3 -3,-6 -3,1 -9,-5 h -10 l -3,3 h -3 l -3,-5 h -2 l -1,-8 -3,-3 2,-10 -3,-6 -3,-22 -2,-4 -6,5 h -5 l 1,3 -15,3 -3,-7 v -10 l -5,-6 -8,-6 -3,-16 3,-6 -6,-4 h -5 l 1,-3 -3,-2 -2,-15 -3,-1 -2,-6 -4,-5 h -12 l -1,-6 -4,-2 -5,4 -5,1 -4,-3 -10,-2 -4,3 h -7 l -2,3 -7,-3 -2,3 -6,2 -4,6 -10,4 -2,3 -6,2 -12,-6 -21,16 h -3 l -5,5 h -6 l -3,-3 -7,1 -4,3 -5,-1 -4,2 -6,9 -2,6 -2,1 v 5 l 3,7 -7,7 2,5 -4,3 h -6 v 3 h -5 l -9,6 -1,5 -6,3 -8,12 8,8 5,-2 5,5 -1,4 -10,12 h -3 l -2,-4 h -5 l -1,3 -6,1 -1,2 4,6 -2,13 -6,-1 v 4 l 7,14 4,-1 3,7 h -3 v 5 l 4,6 8,-1 v 4 l 5,8 2,7 5,4 -6,11 -3,12 4,3 -2,5 2,5 3,2 -2,8 -4,2 6,6 3,1 2,4 -1,8 4,3 -6,13 -4,-2 -2,3 h -6 z"
     id="平谷区" />
  <path
     stroke="#ffff00"
     stroke-opacity="1"
     stroke-width="0.5"
     stroke-linecap="round"
     stroke-linejoin="round"
     stroke-dasharray="none"
     fill="#1e90ff"
     fill-opacity="1"
     fill-rule="evenodd"
     d="m 1059,451 4,-11 4,-2 1,-4 3,-1 v -3 l -3,-3 1,-7 -3,-8 7,-6 15,-19 -8,-3 -1,-4 -6,-5 -5,-1 -2,-7 3,-5 -5,-2 -4,-5 2,-5 -8,-13 h -4 l -2,-6 4,-6 v -5 l 4,-1 8,3 6,-6 6,5 6,-3 5,2 1,-4 -9,-19 -3,-3 2,-2 v -6 l 7,-4 6,-7 4,-2 4,1 5,-4 10,-2 9,-11 h 10 l 2,2 h 4 l 6,-5 6,-1 2,4 9,2 3,6 4,2 2,5 8,2 4,-7 5,-1 2,-5 7,4 6,1 6,-7 v -3 l -5,-2 -2,-9 1,-2 -7,-12 13,-20 6,1 8,-3 3,-14 -1,-3 3,-3 -5,-2 9,-2 2,5 3,-1 3,5 h 2 l 2,8 6,2 3,-2 h 7 l 1,-8 3,-2 -2,-7 8,-3 1,-4 -16,-14 -8,-3 -12,5 -9,-4 -8,1 -4,-7 -3,2 -10,-5 h -7 l -9,3 h -7 l -7,5 -5,-1 -8,5 -13,1 -4,6 1,3 -12,5 -23,-1 -8,-4 v -3 l -13,-13 -14,4 -6,-4 v -3 l -11,-5 -1,-3 h -5 l -1,-2 h -8 l -3,-2 -8,-1 -1,3 -4,1 -5,-6 h -3 l -4,3 -9,-3 -3,2 -8,-1 -2,-2 h -8 l -6,-8 -24,8 h -24 l -6,3 v 3 l -4,2 -2,-2 -7,-2 -3,2 -6,-1 -13,-8 -6,1 -2,-3 -5,-1 -4,-3 1,-5 -4,-6 -13,-8 -1,-10 -11,-5 -2,-5 3,-7 -3,-9 v -6 l -14,-4 -4,1 -3,-5 v -9 l 2,-5 -6,-2 -2,-3 -6,4 -3,-2 -2,4 -6,2 3,8 -7,2 v 3 l -5,1 v 3 l -12,5 4,9 -6,9 -4,2 h -11 l -6,3 -6,-2 -8,-9 -2,6 7,22 -1,15 -2,3 1,5 -2,4 -11,-2 -5,-4 -5,1 -6,8 -16,8 v 4 l -8,5 v 13 l -3,3 2,9 -2,5 1,7 -8,8 3,6 v 6 l -3,-1 -2,3 6,7 1,4 -2,3 5,3 -2,5 2,3 -2,2 4,9 v 9 l -3,2 v 3 l -8,2 -10,-1 -4,3 2,5 -10,-1 -3,5 9,-2 3,5 h 7 l 8,4 -1,5 4,7 5,3 3,4 -4,3 v 5 l -8,6 -2,17 -3,2 v 5 l 8,6 -8,-2 1,14 2,-1 6,8 8,2 1,-3 4,2 -3,3 -1,6 5,6 -3,2 -4,-1 5,6 v 11 l 2,6 5,-3 6,6 -9,5 h -3 l -1,4 -3,3 h -4 l -1,14 3,3 -7,10 6,5 4,-1 -1,8 h 6 v 14 l -2,2 -1,5 h 6 v 4 l 9,-4 1,5 5,-2 5,2 1,7 h 2 l 4,8 4,2 -8,5 -4,8 -2,-1 -11,19 1,1 -2,4 4,-1 14,10 4,-1 3,3 8,-6 1,-6 2,-2 v -7 h 10 l 6,3 2,3 9,-3 2,-12 2,-1 -1,-5 7,-5 8,-1 4,7 3,12 h 9 v 9 l 4,7 -2,6 9,12 v 3 l 6,12 5,3 -5,3 4,4 5,1 1,6 4,2 1,-2 5,2 7,-10 10,-3 1,-3 h 5 l 2,4 h 3 l 10,-12 1,-4 -5,-5 -5,2 -8,-8 8,-12 6,-3 1,-5 9,-6 h 5 v -3 h 6 l 4,-3 -2,-5 7,-7 -3,-7 v -5 l 2,-1 2,-6 6,-9 4,-2 5,1 4,-3 7,-1 3,3 h 6 l 5,-5 h 3 l 21,-16 12,6 6,-2 2,-3 10,-4 4,-6 6,-2 2,-3 7,3 2,-3 h 7 l 4,-3 10,2 4,3 5,-1 5,-4 z"
     id="密云区" />
  <path
     stroke="#ffff00"
     stroke-opacity="1"
     stroke-width="0.5"
     stroke-linecap="round"
     stroke-linejoin="round"
     stroke-dasharray="none"
     fill="#1e90ff"
     fill-opacity="1"
     fill-rule="evenodd"
     d="m 144,556 10,-10 -2,-5 2,-3 -2,-5 3,-8 6,-1 -2,-4 -9,-5 -2,-10 5,-1 2,-4 8,-4 4,3 6,-7 7,-2 7,10 3,12 7,-1 2,-4 6,1 4,-6 -3,-4 7,-10 h 4 l 4,-3 7,4 3,5 h 17 l 5,7 -1,1 5,9 7,1 7,-5 -3,-7 v -6 l 4,-5 h -4 v -4 l 2,-3 -2,-2 5,-3 2,8 -2,3 6,-1 2,-6 -4,-5 -3,-1 2,-11 8,-4 h 7 l 1,-3 5,-1 2,3 9,-5 12,-3 2,-6 11,1 3,6 4,-3 h 4 l 1,-2 3,5 3,-1 1,-5 4,-2 2,2 7,-2 9,8 5,-8 v -8 l -3,-4 3,-7 -2,-2 3,-3 -2,-9 2,1 4,-4 -5,-14 v -5 l 3,-12 9,-12 -4,-2 -5,-7 -2,-10 h 9 l 14,-14 5,-1 5,3 4,-2 4,1 7,-3 15,5 -1,11 8,3 -1,6 5,3 10,-9 5,1 2,-2 3,3 9,2 7,-3 h 10 l 1,-7 8,4 h 11 l 2,3 h 4 l 12,-2 8,-8 v -5 l -6,-4 -4,-7 -4,-2 -2,-7 -16,4 -4,-5 h -3 l -4,-5 7,-11 7,-5 3,-11 9,-3 6,-7 4,-9 6,-7 5,-3 5,-8 -1,-5 4,-3 -2,-7 4,-12 v -6 l 4,-2 5,2 7,-3 6,3 4,-6 v -4 l -8,-1 -7,-6 h -2 l -1,-4 -4,-3 v -3 l -3,-3 -8,2 -2,-4 -6,-2 1,-3 -4,-8 -6,-1 -3,2 -7,-3 h -4 l -2,-5 4,-12 5,-5 h 5 l -2,-5 4,-8 -2,-5 1,-4 h 2 l 3,-6 -1,-9 3,-5 -6,-2 -3,-3 1,-10 -2,-4 -4,1 -7,-5 -4,-6 h -6 l -4,-2 -9,7 -7,-3 -5,2 h -9 l -6,-2 -2,-8 -4,-3 -4,2 h -7 l -10,6 h -13 l -6,2 -8,-3 -18,1 -7,8 2,8 -2,3 -2,-3 -5,-1 -6,-7 h -6 l -3,2 -3,-1 v -3 l -3,-5 v -6 l -6,-5 -3,-5 -7,-4 -9,9 v 7 l -3,4 -1,8 3,3 -8,6 -2,8 -5,5 -2,-2 -4,2 v 7 l -5,6 -4,2 -11,16 -1,7 -4,4 2,7 -4,10 v 6 l -4,9 h -8 l -6,-4 -5,-1 -8,13 -9,6 v 7 l 7,11 -3,2 h -10 l -4,-3 -17,10 -2,8 -3,2 -5,-1 -3,4 -5,1 -16,8 -1,-10 -2,1 -15,22 h -6 l -1,4 -9,1 -8,-23 -4,1 1,-4 -9,-4 -5,1 -10,-4 h -5 l -5,-4 h -10 l -9,10 -7,11 -13,-1 -1,3 -8,3 -6,-3 -14,6 -5,18 1,5 -2,3 -3,2 H 21 l -5,-4 -5,3 -8,10 H 0 l -4,7 -3,2 -4,-1 -1,3 2,6 -5,4 -4,8 v 4 l -6,9 6,9 v -3 h 18 l 4,4 6,2 -4,9 v 5 l -4,4 -1,8 2,2 5,-1 -4,6 1,5 -2,-1 1,5 -3,4 12,6 3,5 h 5 l -1,5 30,40 v 4 h 3 l 4,6 7,-2 4,3 -1,11 h 3 v 3 h 6 l 2,-3 2,3 h 4 l 1,2 4,-1 2,2 12,-2 6,4 4,12 -2,3 1,5 4,3 -4,4 3,6 2,-2 5,4 1,4 5,2 -3,6 4,8 v 7 h 3 l 1,7 3,4 4,2 1,6 z"
     id="延庆区" />
</svg>