<svg xmlns="http://www.w3.org/2000/svg" id="svg1" version="1.1" viewBox="-253 -208 1525 1546">
  <path id="东城区" fill="#ff6347" fill-opacity="1" fill-rule="evenodd" stroke="#ffffff" stroke-dasharray="none" stroke-linecap="round" stroke-linejoin="round" stroke-opacity="1" stroke-width="0.5" d="M491 930v-16l5-1v-3h-3l1-9-9 1-1-25h7l2-17-5 1 2-4-5-2 1 2h-6v-7l-3-5h-8l-2-2v-7l-3-2 1 11-14-1-2 6h5l2 27 3 5-6 1v14h3l2 34-13 1v4l5-1 6 8h12l2-4-1-7 7-2 14 1z"/>
  <path id="西城区" fill="#ff6347" fill-opacity="1" fill-rule="evenodd" stroke="#ffffff" stroke-dasharray="none" stroke-linecap="round" stroke-linejoin="round" stroke-opacity="1" stroke-width="0.5" d="M405 907v6l-4 9 1 6 3-2 7 2 4-1 2 2h4l1 5 35-3-1-26-1-8h-3v-14l6-1-3-5-2-27h-5l3-11 3-1v-3h-10v4l-8 1 1 18-11 4-3-6v7l-8 1-6-2-4 2 4 4 3 39z"/>
  <path id="朝阳区" fill="#ff6347" fill-opacity="1" fill-rule="evenodd" stroke="#ffffff" stroke-dasharray="none" stroke-linecap="round" stroke-linejoin="round" stroke-opacity="1" stroke-width="0.5" d="m601 793-13-10 1-5h-6l-5-6-12-9 4-6-1-5-2-2-4 3-12-12-9 1-11-9-9-1-10-4-1-4-3-1-1 8-3 1v4l-2 1v5l2 3-2 7-6-1v2l-13-3-13 6h-4l-3 6 2 6-2 4-8 2-1-4h-2v4l3 4-32 6 19 32 3 19h10v3l-3 1-2 7 1-2 14 1-1-11 3 2v7l2 2h8l3 5v7h6l-1-2 5 2-2 4 5-1-2 17h-7l1 25 9-1-1 9h3v3l-5 1 1 10-2 12 3 5 1-2 4 4 2-2 5 5h3l-5 7-7-3v3h-4l1 4-3 1-2 3-2-1-4 8-5 1 4 2 5-1v3l6 1-1 5 6-2 8 7 4 1 4 5 8-3v-4l7-2 2 3 6-2-2-1 5-2v-6l4-2h7l1 3 6 2 2-4-3-4 7 2 1-4 18 1 6 3v3l7-1-2 3h11v-6h2v-9l5-5h-3v-3h6l10-10-5-8 4-8-1-4h4l-1-9-9 1v-5l4-4 2-5-3-3 2-6-1-9 7 2-5-8 4-1v-8l3-2-2-5 1-4 9 5-3-35-5 1v-5h4l1-3h2v-7l-4-5-4 2-5-3 2-4-6-4-14-2zm6-34 4-2-4-37-4-10 1 10-2 3-12 2-1-13-3-5v11l5 27v-6h4l2 17-1 5 2-1 1 8 5 2v-6h2l-3-5z"/>
  <path id="丰台区" fill="#ff6347" fill-opacity="1" fill-rule="evenodd" stroke="#ffffff" stroke-dasharray="none" stroke-linecap="round" stroke-linejoin="round" stroke-opacity="1" stroke-width="0.5" d="m356 907-18 5v2l-5 1v5l-3-1-3 3v4l-6-1 1 3-3 1-2-6-4-3-7 2-8-1-9-6-2 2-6-2-3 4-3-1-20 8-6 4h-5l-1 4-12 2-6-4-6 2-2 3 2 5v6l-10 3-2 5 5 3 6 1 11 12 1-3 3 2v13h-3l-1 4 2 8-1 8 5 7-1 3 3 3 4-4h5l-1-3 10-1 1 4 7 2 1 4h-4l-2 2-2-2-3 5 3 11h5l4-4h10l1-2 5 1 5-2 5-14 10 1v3l4-2 4 1v2l5 1 1-21 4-6v-4l6-6-1-7 9-1 1-2 11 2 1 6 5 5v20l5-5 3 5 8-4 10-2 1 3h5l-3 2 3 3 4 15 4 4 3-1 5-11h3l1-14h3l1-3 8-1 1-5 11 2v5h8v14h8l1 6 8-1 1 14 5-1-2-19 18-1v-6h6v-9l-5-7h-3l-2-2-4 1v-5l7 2-1-8-3-1 1-5 4 3 3-5 5-1 4-8 2 1 2-3 3-1-1-4h4v-3l7 3 5-7h-3l-5-5-2 2-4-4-1 2-3-5 1-6h-15l-7 2 1 7-2 4h-12l-6-8-5 1v-4l-22 2-1-5h-4l-2-2-4 1-7-2-3 2-1-6 4-9v-6h-9l-14 10v-9h-21z"/>
  <path id="石景山区" fill="#ff6347" fill-opacity="1" fill-rule="evenodd" stroke="#ffffff" stroke-dasharray="none" stroke-linecap="round" stroke-linejoin="round" stroke-opacity="1" stroke-width="0.5" d="m289 915 9 6 8 1 7-2 4 3 2 6 3-1-1-3 6 1v-4l3-3 3 1v-5l5-1v-2l18-5h-4v-18l-2-4-13 3-1-2-18 2 1-8 6-1-2-2 2-2-2-2 2-3v-7l-2-5-9-12-11-8v-13l-5-5-1 6-5 5-3-10-6 3-5-9-5 5-19 2-4 5 3 9 4 4-1 6-4 3 3 7-4 2-2 5 6 10 3-2 3 4-1 4 2 2 7 2 6 12 4 3v5l6 4z"/>
  <path id="海淀区" fill="#ff6347" fill-opacity="1" fill-rule="evenodd" stroke="#ffffff" stroke-dasharray="none" stroke-linecap="round" stroke-linejoin="round" stroke-opacity="1" stroke-width="0.5" d="M405 907h8l-3-39-4-4 4-2 6 2 8-1v-7l3 6 11-4-1-18 8-1v-9l-3-14-19-32 32-6-3-4v-4l-10-1v-3l-5-1-2-7h4v-4l5-1 2-2v-5l-7 1v-3h-7v3l-4-1-8 3v3l-3 1 1 4h-3l-1-4-6-4 1 6-4 2-6-6-6 1-3-3-2 2-9-21-8 3-5-12 1-3-6 1-5-6 4-3-1-6-3-1 1 5-3 2-2-2-5 1-4-2 5-27-10-1-13-6-3 3-4-3-3-17-6 1-2 4-6-2-2 10-5 4-4 1v6l3 8-3-1 1 4-27 3v6l-14-1-5-2-3 2-4-5-5 2-4-1-5 5-3-1v6l-3 4-5 2v4l-5 3-5 10 2 1 2 6 7 5 1 5 4 5-2 10 8 18 4 2 8-1 2-2 5 2 7-1 7 3 4-1 8 2 6 6 6 1 5 4 1 3 7 7-2 6h-8l-7 6 5 9 6-3 3 10 5-5 1-6 5 5v13l11 8 9 12 2 5v7l-2 3 2 2-2 2 2 2-6 1-1 8 18-2 1 2 13-3 2 4v18l30 1v9l14-10z"/>
  <path id="门头沟区" fill="#ff6347" fill-opacity="1" fill-rule="evenodd" stroke="#ffffff" stroke-dasharray="none" stroke-linecap="round" stroke-linejoin="round" stroke-opacity="1" stroke-width="0.5" d="m278 815 7-6h8l2-6-7-7-1-3-5-4-6-1-6-6-8-2-4 1-7-3-7 1-5-2-2 2-8 1-4-2-8-18 2-10-4-5-1-5-7-5-2-6h-10l-3 4-2-2-7 7-10-5-15-3-13 7-6-16 1-9-3 1-1 5-3-5-7-2 4-4-11-17-9-9-10-3-2 2-3-3H81l-12-9-6 1-2-2-5 2-9-3 1 5-10-7-11-1-12-15-3-1 1-8-11 3-3 10-10 2-4 10 4 7-4 7-11 8-7 1-6-5-5-1-7 2 8 4 1 2-7-2-4 2-3-5-4 1-5-2-1 2-16 2-2-3-7 5-2 5 1 3-5 2-4-2-4 2-3-3-4 2-7-3h-5l-3 4-1 7-1-2-1 14h-9l-2-5-6 4-3-1-7 6 1 9-2 3-6 3-5-2-8 2-9 9-3 1v2l-7 10-9 6 1 3-8 7-7 4h-6l-5 2-1 8-8 10 6 8v9l-4-2-12 10v5l-3 9 2 4-2 9 2 5h7l2-2 4 1 2 3h4l9 8 11 4 5 12 6 5 6 2 12 13 2 3-10 14 1 3 14 5-2 6-3 1v9l-5 11-3 2 2 7 9 3 3 5 3-1 8 4 2 4 15 9h6l7-1 7-7 2-8 4-5 2-6 4-2 2-13 5-9 6-5h6l4-4 3 1 4-7 10-1 2-2 5-1 3-6 7-6 13-6 7 1 2-2 7-1 13-7v-3l9-3 6-4 3 5 17-2 7 3 3 5h6l6 3 6 11 2-1 5 3 11-4 6-4 3-7 4-3 9-1 10 3h17l6-4 4 1 3 6v8l-7 4-10 13 4 8 16 4 3 5 5-1 5-4 1 4 6-1-1-2 10-5 6 1-4 7-4 3 1 4-3 11 5 8 12-9h7l1 8 2 1 9-5 6 1 3-3 6 2 2-5 10-3v-6l-2-5 2-3 6-2 6 4 12-2 1-4h5l6-4 20-8 3 1 3-4 6 2 2-2-4-8-6-4v-5l-4-3-6-12-7-2-2-2 1-4-3-4-3 2-6-10 2-5 4-2-3-7 4-3 1-6-4-4-3-9 4-5 19-2z"/>
  <path id="房山区" fill="#ff6347" fill-opacity="1" fill-rule="evenodd" stroke="#ffffff" stroke-dasharray="none" stroke-linecap="round" stroke-linejoin="round" stroke-opacity="1" stroke-width="0.5" d="m207 956-6-2-3 3-6-1-9 5-2-1-1-8h-7l-12 9-5-8 3-11-1-4 4-3 4-7-6-1-10 5 1 2-6 1-1-4-5 4-5 1-3-5-16-4-4-8 10-13 7-4v-8l-3-6-4-1-6 4H98l-10-3-9 1-4 3-3 7-6 4-11 4-5-3-2 1-6-11-6-3h-6l-3-5-7-3-17 2-3-5-6 4-9 3v3l-13 7-7 1-2 2-7-1-13 6-7 6-3 6-5 1-2 2-10 1-4 7-3-1-4 4h-6l-6 5-5 9-2 13-4 2-2 6-4 5-2 8-7 7-13 1-2 3v5l-3 1-6 7-11 1-2 3-16 3-4 4-12-11-7-3-5 7-13 9h-4l-7-3-6 3-3 6-4 2 1 4 3-2 4 2-1 5 3 11 14 7 6 5 3-2h9l7 3-3 5 4 25-3 5h2l5 5v5l-2 5h-2l-4 4 1 4-2 4 3 4-6 6-4 8 1 4 12 1 1-3h7l4 7 8 5-2 6 1 10 2 2-7 7-2 8 3 13 2-2v-4l9-5 2-8 4-5 5-2 6 8 8 4 2 6 4 3-1 4 10 2 10-10 14-3 10 6 2-6h5l1 4 5-2 5 1 6-5 2-4-1-5 16 15v6l4 5-1 7 4 1v8l-3 1-2 4 5 2h9l5 3 2 5 1 11 4-1v-4l9 3-1 6 4 12 6 10 5 2 5-1 2 5 2-2-3-4 7 3 1-1 5 3 27 1 5 2v-5l-5-2-2-4h4v-3l-4-3v-5h3l1-3 3-2v-5h10l3-2 1-7h2l3-4 5 6 3-1v3h5v-2h7l1-2h3l1-5h3v-6l-2-5 4-2 9 3 3-6-1-1 3-9-5-1 1-4-2-1 2-10 10 3v3l5 1v3l3 2v6h3l-1 4h4v2l5 2 1 6h3l2 5 4-4 3 1 1-6h4l3-2v-22l9 2v7l4 3-1 6h9l2-6h3v-4l5 2 4-2-1 11 6 1v3l48-3 2-1-1-4 4 4v5h5l6-4v4l7 1v2l14-5 1-10h10l8-2 1-4 5-1 5 1-1 2 5-1v3l4-1 3 3 1 5 10-1 3-5v-7l-2-2-4-13 1-19-2-14 5-21-1-2 3-6-3-5 7-13 2-11-1-2 3-6 6-6 3-9-4-13 6-7v-9l2-4-2-8v-40l-5-5-1-6-11-2-1 2-9 1 1 7-6 6v4l-4 6-1 21-5-1v-2l-4-1-4 2v-3l-10-1-5 14-5 2-5-1-1 2h-10l-4 4h-5l-3-11 3-5 2 2 2-2h4l-1-4-7-2-1-4-10 1 1 3h-5l-4 4-3-3 1-3-5-7 1-8-2-8 1-4h3v-13l-3-2-1 3-11-12-6-1z"/>
  <path id="通州区" fill="#ff6347" fill-opacity="1" fill-rule="evenodd" stroke="#ffffff" stroke-dasharray="none" stroke-linecap="round" stroke-linejoin="round" stroke-opacity="1" stroke-width="0.5" d="m696 1166 3 1 1 3 5 4 8-4 10 5 8 8 3 12h5l1-3h3l-1-6h3l-2-8 9-1 12-7 4 2v3l8-3-1-4 3-1-9-10 2-2-1-3 5-3v-2h5l-1-4 9-5-1-13h7l3-3 6-1 8-4 6 1 11-3-1-4 3-1-5-7-9 2-2-3 4-2v-2l-5-11 1-7-4-4 4-6 9-1 2-3 10-2v-4h-3l-1-5 3-1-1-4-5-9-4 1v-8l5-3 2 4 7-7-3-6 4-5 9-1 4 1 4 4 3-2-1-6 4-1-2-5-9-1-3-8h6l-10-12-2-20-6-11-5-4-6 2v7l4 7-4 3-4-2-8-11-6-1v3h-5l-4-2v-2l-5-2-5-10-3 1-6-7-2 1-7-12-3-2-4 1-3-3-1-8h-3v5h-3v6l-7-3-5-5-2-5v-10l-2-8v-35l-1-2-13-6-4-5 2-8 5-6v-6l6-10 1-10-4-8 1-3-14-1-1-4-3-2v-3l-8-2-3 2v3l-6-2v3l-3-1-2 3-1-4-5-3-4 6-5 4h-8l2 7h-2l-1-5h-12l-2-5-4-2-3 3-3-4v-3l-11 6-2-4-5 2-2-2-3 1v-4l-4-2v-3l-8 3-2 9-4 2 4 3 14 2 6 4-2 4 5 3 4-2 4 5v7h-2l-1 3h-4v5l5-1 3 35-9-5-1 4 2 5-3 2v8l-4 1 5 8-7-2 1 9-2 6 3 3-2 5-4 4v5l9-1 1 9h-4l1 4-4 8 5 8-10 10h-6v3h3l-5 5v9h-2v6h-11l2-3-7 1v-3l-6-3-18-1-1 4-7-2 3 4-2 4 4 3-5 1 5 8 1 8-5 3 2 3-5 5 5 10-5 2 4 9 6-3 1 4h-7l3 2v5h-9l-3-8-3 4 4 3-2 12 6 2-2 4 6 2 1 3-4-2v9l4 2v6l-2 4-4-2-1 3 3 1-1 2 4 2 6-3h21v5l5-1 1-2 6-1v2l10-3 1-4 8-6 4-1v-2l5 1 2 4 5-1 1 7 4 7 6 1v4h-4l-1 3 1 6h3v6l5 2v-2l6 1 2 3-2 4 1 5 5-2 4 2 4-2h5l1 2h7l1 7-2 16 3 7 3 3h9l-1 10z"/>
  <path id="顺义区" fill="#ff6347" fill-opacity="1" fill-rule="evenodd" stroke="#ffffff" stroke-dasharray="none" stroke-linecap="round" stroke-linejoin="round" stroke-opacity="1" stroke-width="0.5" d="m730 795 4-12v-5l3-2h6v3l7 3 3-3 12 3v-10l2-1v-6l6-2v-2l13-1 1-3 5 3 8 9 4 1 5-5 7 1 8-2 4-4 5-1 3 8 5-3 2-7 3 3 5 1-1 4 6-2v7l12-10v-11h6l2-3 4 2 6-13-4-3 1-8-2-4-3-1-6-6 4-2 2-8-3-2-2-5 2-5-4-3 3-12 6-11-5-4-2-7-5-8v-4l-8 1-4-6v-5h3l-3-7-4 1-7-14v-4l6 1 2-13-4-6h-3l-7 10-5-2-1 2-4-2-1-6-5-1-4-4 5-3-5-3-6-12v-3l-9-12 2-6-4-7v-9h-9l-3-12-4-7-8 1-7 5 1 5-2 1-2 12-9 3-2-3-6-3h-10v7l-2 2-1 6-8 6-3-3-4 1-14-10-4 1 2-4-2-2-20 27-4-1v6l-6 3v5l-4 2-5 6h-5l-1-4-4 4-1-4 3-8-5-14-13 1-4 3-1-2-4 1-1-3-8 1-1 10-7-2-7 1 1-5-3-2-1-7-6 2-2-5-2 3-2-2-9-1v-4h-4l1-5-10 4-5-2-4 1-2-2 2 10-3 5h-7l-2 4-11-1-2-3-2 2-2 8h-5l-8 6-1 6 2 13h-4l-3 4-1 15 11 13v6l2 4-4 4-1 5h-2l-3 8 1 3h5l5 3-1 7-7 2 1 6 2 1 1 15 4 12-2 10-6 4-6-1-5 3 1 4 3 1 1 4 10 4 9 1 11 9 9-1 12 12 4-3 2 2 20-15-3-19v-11l3 5 1 13 12-2 2-3-1-10 4 10 4 37-4 2 5 21 3-1v3l4 2v4l3-1 2 2 5-2 2 4 11-6v3l3 4 3-3 4 2 2 5h12l1 5h2l-2-7h8l5-4 4-6 5 3 1 4 2-3 3 1v-3l6 2v-3l3-2 8 2v3l3 2 1 4h9zm-141-58-20 15 1 5-4 6 12 9 5 6h6l-1 5 13 10 4-2 2-9 5-2-5-21h-4l3 5h-2v6l-5-2-1-8-2 1 1-5-2-17h-4v6z"/>
  <path id="昌平区" fill="#ff6347" fill-opacity="1" fill-rule="evenodd" stroke="#ffffff" stroke-dasharray="none" stroke-linecap="round" stroke-linejoin="round" stroke-opacity="1" stroke-width="0.5" d="M452 770h2l1 4 8-2 2-4-2-6 3-6h4l13-6 13 3v-2l6 1 2-7-2-3v-5l2-1v-4l3-1v-12l5-3 6 1 6-4 2-10-4-12-1-15-2-1-1-6 7-2 1-7-5-3h-5l-1-3 3-8h2l1-5 4-4-2-4v-6l-11-13 1-15 3-4h4l-2-13 1-6 8-6h5l2-8 2-2-9-1-7-5v-8l-4-3-5-1-8-6-4 2-4-2 1-6-2-7-3-2 8-13-4-5-4-1-4-10-3 4h-5l-2-2-6 1-6-3v-2h-9l-3-3-5-1-7 2 1 3-8 2 2-3 1-7-4-6 4-7-4-3-11 3 3-8h3l2-2-4-5-7-1-6-7-9-7-8-2-8 2-5 3-1-8-3 1v8l-5 8-9-8-7 2-2-2-4 2-1 5-3 1-3-5-1 2h-4l-4 3-3-6-11-1-2 6-12 3-9 5-2-3-5 1-1 3h-7l-8 4-2 11 3 1 4 5-2 6-6 1 2-3-2-8-5 3 2 2-2 3v4h4l-4 5v6l3 7-7 5-7-1-5-9 1-1-5-7h-17l-3-5-7-4-4 3h-4l-7 10 3 4-4 6-6-1-2 4-7 1-3-12-7-10-7 2-6 7-4-3-8 4-2 4-5 1 2 10 9 5 2 4-6 1-3 8 2 5-2 3 2 5-10 10 1 2-2 4-5 3h-7l-5 3-5-2-14 8-3 12-11-2 1 2-11 17v7l2 3-7 5v7l-2 1-3 6h-5l-6-3-5 5 4 4-5 10-2 1 7 14v4l2 2 6-1 12 9h14l3 3 2-2 10 3 9 9 11 17-4 4 7 2 3 5 1-5 3-1-1 9 6 16 13-7 15 3 10 5 7-7 2 2 3-4 4 1 4-2 5-10 5-3v-4l5-2 3-4v-6l3 1 5-5 4 1 5-2 4 5 3-2 5 2 14 1v-6l27-3-1-4 3 1-3-8v-6l4-1 5-4 2-10 6 2 2-4 6-1 3 17 4 3 3-3 13 6 10 1-5 27 4 2 5-1 2 2 3-2-1-5 3 1 1 6-4 3 5 6 6-1-1 3 5 12 8-3 9 21 2-2 3 3 6-1 6 6 4-2-1-6 6 4 1 4h3l-1-4 3-1v-3l8-3 4 1v-3h7v3l7-1v5l-2 2-5 1v4h-4l2 7 5 1v3h6z"/>
  <path id="大兴区" fill="#ff6347" fill-opacity="1" fill-rule="evenodd" stroke="#ffffff" stroke-dasharray="none" stroke-linecap="round" stroke-linejoin="round" stroke-opacity="1" stroke-width="0.5" d="m696 1166-3-5 1-10h-9l-3-3-3-7 2-16-1-7h-7l-1-2h-5l-4 2-4-2-5 2-1-5 2-4-2-3-6-1v2l-5-2v-6h-3l-1-6 1-3h4v-4l-6-1-4-7-1-7-5 1-2-4-5-1v2l-4 1-8 6-1 4-10 3v-2l-6 1-1 2-5 1v-5h-21l-6 3-4-2 1-2-3-1 1-3 4 2 2-4v-6l-4-2v-9l4 2-1-3-6-2 2-4-6-2 2-12-4-3 3-4 3 8h9v-5l-3-2h7l-1-4-6 3-4-9 5-2-5-10 5-5-2-3 5-3-1-8-5-8 5-1-10-5-1-3h-7l-4 2v6l-5 2 2 1-6 2-2-3-7 2v4l-8 3-4-5-4-1-8-7-6 2 1-5-6-1v-3l-5 1-4-2-3 5-4-3-1 5 3 1 1 8-7-2v5l4-1 2 2h3l5 7v9h-6v6l-18 1 2 19-5 1-1-14-8 1-1-6h-8v-14h-8v-5l-11-2-1 5-8 1-1 3h-3l-1 14h-3l-5 11-3 1-4-4-4-15-3-3 3-2h-5l-1-3-10 2-8 4-3-5-5 5v20l2 8-2 4v9l-6 7 4 13-3 9-6 6-3 6 1 2-2 11-7 13 3 5-3 6 1 2-5 21 2 14-1 19 4 13 2 2v7l-3 5 3 10 3 3 5-3-1 4h4l2 6 2 1-3 4 3 12-1 9h2l-1 5-2 1 2 4v5l5 4 3 5v4l9 5h4l3 4 3-2 16 4 1 4 10 11v4l4 6 6 5 12 4v-2h8l4 3 16 1 2-2 6 3 19 3 6 4 2-3 10-3v-4h3l-5-11v-11l-3-2v-3l-6-1-2 4-3 2-3-5h4l-2-6-3 3-8 3-1-3 3-3 2-8h4l-3-9-8-2-1-4-3-2v-12l2-1 4 4 8-1 2 15 5-1 1 3 8-3-5-15h12v-2l8 1v-4l3-3 7-1v-7l-5-11 1 2 12-1v3h14v-9l2-5 6-1 1-5 5-1-1-4h-4l-1-4 3-5-2-3 3-6 4-2 8 5-1-8 3-2v7h4l5-5h4l3-3v-6l2-1-2-7h10l-1-4 10 2 1 3 5-1 1-5h4v5l3 1 1 4h3l2 12 6 2 5-1v-4l8 2v3l9-1-1-2 4-3 6 1-1 1 14 5 4-3 2 6h2l1 4 3 3 16-5-1-5-17-11-1-11h3l3 3 5-3h4z"/>
  <path id="怀柔区" fill="#ff6347" fill-opacity="1" fill-rule="evenodd" stroke="#ffffff" stroke-dasharray="none" stroke-linecap="round" stroke-linejoin="round" stroke-opacity="1" stroke-width="0.5" d="m379 436 3-1 1 8 5-3 8-2 8 2 9 7 6 7 7 1 4 5-2 2h-3l-3 8 11-3 4 3-4 7 4 6-1 7-2 3 8-2-1-3 7-2 5 1 3 3h9v2l6 3 6-1 2 2h5l3-4 4 10 4 1 4 5-8 13 3 2 2 7-1 6 4 2 4-2 8 6 5 1 4 3v8l7 5 9 1 2 3 11 1 2-4h7l3-5-2-10 2 2 4-1 5 2 10-4-1 5h4v4l9 1 2 2 2-3 2 5 6-2 1 7 3 2-1 5 7-1 7 2 1-10 8-1 1 3 4-1 1 2 4-3 13-1 5 14-3 8 1 4 4-4 1 4h5l5-6 4-2v-5l6-3v-6l4 1 20-27 1 1 11-19 2 1 4-8 8-5-4-2-4-8h-2l-1-7-5-2-5 2-1-5-9 4v-4h-6l1-5 2-2v-14h-6l1-8-4 1-6-5 7-10-3-3 1-14h4l3-3 1-4h3l9-5-6-6-5 3-2-6v-11l-5-6 4 1 3-2-5-6 1-6 3-3-4-2-1 3-8-2-6-8-2 1-1-14 8 2-8-6v-5l3-2 2-17 8-6v-5l4-3-3-4-5-3-4-7 1-5-8-4h-7l-3-5-9 2 3-5 10 1-2-5 4-3 10 1 8-2v-3l3-2v-9l-4-9 2-2-2-3 2-5-5-3 2-3-1-4-6-7 2-3 3 1v-6l-3-6 8-8-1-7 2-5-2-9 3-3v-13l8-5v-4l16-8 6-8 5-1 5 4 11 2 2-4-1-5 2-3 1-15-7-22 2-6 8 9 6 2 6-3h11l4-2 6-9-4-9 12-5v-3l5-1v-3l7-2-3-8 6-2 2-4 3 2 6-4-4-3 1-9-4-4v-3h-5l-6-4-4-10-5-1-1-3-6 1-1-3-5-1-2 2-4-2-2-5h-5l-6 7-2-2v-8l-4-4v-4l-15-18h-3l-2-5-5 3-3-2 1-7-7-2-8-5-6-1-4-3-1-5-5-4h-3l3-11 4-5-7-2-1-6-3 1-4-2v-4l-9-10-2-11-7-8v-5l6-7-2-3v-14l6-6v-6l6-8-3-4v-7l-3-5 1-3-3-3-4 2-4-1-3-3h-6l-6-5-2-5-5-3-5 1-2-2h-5l-5 6-5 1v5l-3 7 1 5 2 1 3 6 1 8-6 16 2 5-2 15-12 8-6-2-15-14-6-2-2 5h-7l-5-2-12 9-4-1-2 7-9-1-6-3-2 1-6-4-5 3h-3l-7-5-7 3-2 12 1 4-5 10 6 4v4l5 10v3l4 1 1 6 3 5 3 17-2 6h-7l-4-5-16 2-5-4-12 3-7-6h-4l-10-16-4-12-7-8-4 1-4 6h-6l-8 7-4 8v16l6 4 2 5 6 7 9 7 1 4 6 4 5 8 5 2 2 7 5 4 6 16 6 4 5 6 11 2 2 11 8 7 1 4h4l3 9-1 6 4 8 4 3h6l4 6 7 5 4-1 2 4-1 10 3 3 6 2-3 5 1 9-3 6h-2l-1 4 2 5-4 8 2 5h-5l-5 5-4 12 2 5h4l7 3 3-2 6 1 4 8-1 3 6 2 2 4 8-2 3 3v3l4 3 1 4h2l7 6 8 1v4l-4 6-6-3-7 3-5-2-4 2v6l-4 12 2 7-4 3 1 5-5 8-5 3-6 7-4 9-6 7-9 3-3 11-7 5-7 11 4 5h3l4 5 16-4 2 7 4 2 4 7 6 4v5l-8 8-12 2h-4l-2-3h-11l-8-4-1 7h-10l-7 3-9-2-3-3-2 2-5-1-10 9-5-3 1-6-8-3 1-11-15-5-7 3-4-1-4 2-5-3-5 1-14 14h-9l2 10 5 7 4 2-9 12-3 12v5l5 14-4 4-2-1 2 9-3 3 2 2-3 7z"/>
  <path id="平谷区" fill="#ff6347" fill-opacity="1" fill-rule="evenodd" stroke="#ffffff" stroke-dasharray="none" stroke-linecap="round" stroke-linejoin="round" stroke-opacity="1" stroke-width="0.5" d="m868 760 2 4 3-1 2 11 10-2 5 2 6 5v2l13-1 2-2 3 3-1-4h4l-2-5 5-3 4-7 9-1 2-2-1-6 6-1 7-4v-3l8-1v3l3-3v-6l13-1 3 4 9-1 7 7 7 1 13-5 2-6-1-1 13 5h5l3-4-4-4 3-4 3 1 1 10 5 3v2l5-3 2-6h-3l1-3 7-6-3-4 1-6 9 2v-4l3-1 7-11 5-1 3-4 5 3 8 2 2 4 4 2 1-8 7-7 8 2 8-17 4-3 4 1 3-2 6 5v2l13-3 2-3 3-1 1-4h-5l4-3-3-2 6-6-2-7-5-7 2-2h5l3-3 3 4 3-4h3l3 4v-4l9 2-1-3 7-6 3 1 2-4-8-5-6 4h-4l1-7-2 1-2-6 10-2-5-5-6-2v-8l12-3-3-6-3 1-9-5h-10l-3 3h-3l-3-5h-2l-1-8-3-3 2-10-3-6-3-22-2-4-6 5h-5l1 3-15 3-3-7v-10l-5-6-8-6-3-16 3-6-6-4h-5l1-3-3-2-2-15-3-1-2-6-4-5h-12l-1-6-4-2-5 4-5 1-4-3-10-2-4 3h-7l-2 3-7-3-2 3-6 2-4 6-10 4-2 3-6 2-12-6-21 16h-3l-5 5h-6l-3-3-7 1-4 3-5-1-4 2-6 9-2 6-2 1v5l3 7-7 7 2 5-4 3h-6v3h-5l-9 6-1 5-6 3-8 12 8 8 5-2 5 5-1 4-10 12h-3l-2-4h-5l-1 3-6 1-1 2 4 6-2 13-6-1v4l7 14 4-1 3 7h-3v5l4 6 8-1v4l5 8 2 7 5 4-6 11-3 12 4 3-2 5 2 5 3 2-2 8-4 2 6 6 3 1 2 4-1 8 4 3-6 13-4-2-2 3h-6z"/>
  <path id="密云区" fill="#ff6347" fill-opacity="1" fill-rule="evenodd" stroke="#ffffff" stroke-dasharray="none" stroke-linecap="round" stroke-linejoin="round" stroke-opacity="1" stroke-width="0.5" d="m1059 451 4-11 4-2 1-4 3-1v-3l-3-3 1-7-3-8 7-6 15-19-8-3-1-4-6-5-5-1-2-7 3-5-5-2-4-5 2-5-8-13h-4l-2-6 4-6v-5l4-1 8 3 6-6 6 5 6-3 5 2 1-4-9-19-3-3 2-2v-6l7-4 6-7 4-2 4 1 5-4 10-2 9-11h10l2 2h4l6-5 6-1 2 4 9 2 3 6 4 2 2 5 8 2 4-7 5-1 2-5 7 4 6 1 6-7v-3l-5-2-2-9 1-2-7-12 13-20 6 1 8-3 3-14-1-3 3-3-5-2 9-2 2 5 3-1 3 5h2l2 8 6 2 3-2h7l1-8 3-2-2-7 8-3 1-4-16-14-8-3-12 5-9-4-8 1-4-7-3 2-10-5h-7l-9 3h-7l-7 5-5-1-8 5-13 1-4 6 1 3-12 5-23-1-8-4v-3l-13-13-14 4-6-4v-3l-11-5-1-3h-5l-1-2h-8l-3-2-8-1-1 3-4 1-5-6h-3l-4 3-9-3-3 2-8-1-2-2h-8l-6-8-24 8h-24l-6 3v3l-4 2-2-2-7-2-3 2-6-1-13-8-6 1-2-3-5-1-4-3 1-5-4-6-13-8-1-10-11-5-2-5 3-7-3-9v-6l-14-4-4 1-3-5v-9l2-5-6-2-2-3-6 4-3-2-2 4-6 2 3 8-7 2v3l-5 1v3l-12 5 4 9-6 9-4 2h-11l-6 3-6-2-8-9-2 6 7 22-1 15-2 3 1 5-2 4-11-2-5-4-5 1-6 8-16 8v4l-8 5v13l-3 3 2 9-2 5 1 7-8 8 3 6v6l-3-1-2 3 6 7 1 4-2 3 5 3-2 5 2 3-2 2 4 9v9l-3 2v3l-8 2-10-1-4 3 2 5-10-1-3 5 9-2 3 5h7l8 4-1 5 4 7 5 3 3 4-4 3v5l-8 6-2 17-3 2v5l8 6-8-2 1 14 2-1 6 8 8 2 1-3 4 2-3 3-1 6 5 6-3 2-4-1 5 6v11l2 6 5-3 6 6-9 5h-3l-1 4-3 3h-4l-1 14 3 3-7 10 6 5 4-1-1 8h6v14l-2 2-1 5h6v4l9-4 1 5 5-2 5 2 1 7h2l4 8 4 2-8 5-4 8-2-1-11 19 1 1-2 4 4-1 14 10 4-1 3 3 8-6 1-6 2-2v-7h10l6 3 2 3 9-3 2-12 2-1-1-5 7-5 8-1 4 7 3 12h9v9l4 7-2 6 9 12v3l6 12 5 3-5 3 4 4 5 1 1 6 4 2 1-2 5 2 7-10 10-3 1-3h5l2 4h3l10-12 1-4-5-5-5 2-8-8 8-12 6-3 1-5 9-6h5v-3h6l4-3-2-5 7-7-3-7v-5l2-1 2-6 6-9 4-2 5 1 4-3 7-1 3 3h6l5-5h3l21-16 12 6 6-2 2-3 10-4 4-6 6-2 2-3 7 3 2-3h7l4-3 10 2 4 3 5-1 5-4z"/>
  <path id="延庆区" fill="#ff6347" fill-opacity="1" fill-rule="evenodd" stroke="#ffffff" stroke-dasharray="none" stroke-linecap="round" stroke-linejoin="round" stroke-opacity="1" stroke-width="0.5" d="m144 556 10-10-2-5 2-3-2-5 3-8 6-1-2-4-9-5-2-10 5-1 2-4 8-4 4 3 6-7 7-2 7 10 3 12 7-1 2-4 6 1 4-6-3-4 7-10h4l4-3 7 4 3 5h17l5 7-1 1 5 9 7 1 7-5-3-7v-6l4-5h-4v-4l2-3-2-2 5-3 2 8-2 3 6-1 2-6-4-5-3-1 2-11 8-4h7l1-3 5-1 2 3 9-5 12-3 2-6 11 1 3 6 4-3h4l1-2 3 5 3-1 1-5 4-2 2 2 7-2 9 8 5-8v-8l-3-4 3-7-2-2 3-3-2-9 2 1 4-4-5-14v-5l3-12 9-12-4-2-5-7-2-10h9l14-14 5-1 5 3 4-2 4 1 7-3 15 5-1 11 8 3-1 6 5 3 10-9 5 1 2-2 3 3 9 2 7-3h10l1-7 8 4h11l2 3h4l12-2 8-8v-5l-6-4-4-7-4-2-2-7-16 4-4-5h-3l-4-5 7-11 7-5 3-11 9-3 6-7 4-9 6-7 5-3 5-8-1-5 4-3-2-7 4-12v-6l4-2 5 2 7-3 6 3 4-6v-4l-8-1-7-6h-2l-1-4-4-3v-3l-3-3-8 2-2-4-6-2 1-3-4-8-6-1-3 2-7-3h-4l-2-5 4-12 5-5h5l-2-5 4-8-2-5 1-4h2l3-6-1-9 3-5-6-2-3-3 1-10-2-4-4 1-7-5-4-6h-6l-4-2-9 7-7-3-5 2h-9l-6-2-2-8-4-3-4 2h-7l-10 6h-13l-6 2-8-3-18 1-7 8 2 8-2 3-2-3-5-1-6-7h-6l-3 2-3-1v-3l-3-5v-6l-6-5-3-5-7-4-9 9v7l-3 4-1 8 3 3-8 6-2 8-5 5-2-2-4 2v7l-5 6-4 2-11 16-1 7-4 4 2 7-4 10v6l-4 9h-8l-6-4-5-1-8 13-9 6v7l7 11-3 2h-10l-4-3-17 10-2 8-3 2-5-1-3 4-5 1-16 8-1-10-2 1-15 22h-6l-1 4-9 1-8-23-4 1 1-4-9-4-5 1-10-4h-5l-5-4h-10l-9 10-7 11-13-1-1 3-8 3-6-3-14 6-5 18 1 5-2 3-3 2H21l-5-4-5 3-8 10H0l-4 7-3 2-4-1-1 3 2 6-5 4-4 8v4l-6 9 6 9v-3h18l4 4 6 2-4 9v5l-4 4-1 8 2 2 5-1-4 6 1 5-2-1 1 5-3 4 12 6 3 5h5l-1 5 30 40v4h3l4 6 7-2 4 3-1 11h3v3h6l2-3 2 3h4l1 2 4-1 2 2 12-2 6 4 4 12-2 3 1 5 4 3-4 4 3 6 2-2 5 4 1 4 5 2-3 6 4 8v7h3l1 7 3 4 4 2 1 6z"/>
</svg>
