<?xml version="1.0" encoding="UTF-8" standalone="no"?>
<svg
   width="1883"
   height="1618"
   viewBox="-251 -228 1883 1618"
   version="1.1"
   id="svg1"
   xmlns="http://www.w3.org/2000/svg"
   xmlns:svg="http://www.w3.org/2000/svg">
  <defs
     id="defs1" />
  <path
     stroke="#ffff00"
     stroke-opacity="1"
     stroke-width="0.5"
     stroke-linecap="round"
     stroke-linejoin="round"
     fill="#1e90ff"
     fill-opacity="1"
     fill-rule="evenodd"
     d="m 122,1170 27,13 19,18 26,48 7,34 1,34 -4,14 6,19 12,22 15,5 14,-4 27,16 6,-5 -2,-34 15,-19 -1,-34 4,-72 24,-89 12,-22 7,-26 16,-8 34,-21 14,-19 10,-26 32,-43.00002 11,-25 6,-30 14,-7 7,-14 -5,-23 9,-30 14,-20 7,-39 9,-25 v -22 l 24,-88 12,-64 14,-34 -7,-23 1,-13 13,-15 4,-16 43,-66 7,-34 15,-22 6,-20 3,-35 -11,-22 -9,-35 2,-31 32,-41 29,-25 -11,-12 h -12 l -11,-43 -28,1 -21,-10 h -12 l -16,-13 -2,-14 -17,-6 -11,-21 -14,-6 -18,1 -33,15 -12,12 -15,32 -19,8 -40,5 -28,20 -11,1 -28,14 -6,19 -17,21 -20,36 -5,34 -25,31 -23,12 -27,24 -16,44 -20,23 -15,25 -10,23 -18,28 -7,24 -22,25 -27,54 -14,22 -12,35 -25,13 -27,43 -3,45 10,33 -5,64 -10,20 -22,87 3,9 38,19 6,41 19,70.00002 27,63 8,12 z m 1493,-1382.00002 16,-4 -5,-11 -12,4 z m -400,72 10,5 13,-4 2,-11 -11,-7 -14,9 z m -1383,871 h 20 l -9,-19 -24,-2 -6,11 -10,-3 -2,21 4,10 13,1 z m 1464,-947 14,-1 -10,-9 z m -1515,918 v 19 l -12,8 18,-3 1,-24 z m -3,94 -1,15 h 8 z m 22,-111 17,20 4,-18 -11,-6 z M 495,1077 l 3,14 14,4 v -18 z m 16,232 -1,16 9,10 22,10 4,-10 -11,-6 v -19 z m 213,-1358.00002 -1,11 11,-1 z m -974,913 v 11 l 12,-12 z M 90,1215 l 15,-6 -5,-5 z"
     id="台湾省" />
</svg>