<?xml version="1.0" encoding="UTF-8" standalone="no"?>
<svg
   width="1763"
   height="1370"
   viewBox="-251 -228 1763 1370"
   version="1.1"
   id="svg1"
   xmlns="http://www.w3.org/2000/svg"
   xmlns:svg="http://www.w3.org/2000/svg">
  <defs
     id="defs1" />
  <path
     stroke="#ffff00"
     stroke-opacity="1"
     stroke-width="0.5"
     stroke-linecap="round"
     stroke-linejoin="round"
     stroke-dasharray="none"
     fill="#1e90ff"
     fill-opacity="1"
     fill-rule="evenodd"
     d="m 487.99998,553.99999 15,-8 6,-6 5,6 h 3 l 10,-4 v -2 l 8,-3 v -2 h 4 l 7,-4 -1,-5 h -2 l -2,-8 -6,2 -4,-10 -4,-2 v -2 l -6,-2 -2,-8 -3,-1 2,-4 -2,-7 3,-1 -1,-2 5,-13 v -5 l -1,-7 h -2 l 1,-5 -3,-3 1,-2 -4,-1 -4,-16 h -2 l 1,-2 h -2 l 2,-2 -3,-4 v -5 l 2,-1 -2,-1 4,-11 h 6 l 1,2 3,-2 h 2 v 2 l 5,-2 6,3 h 4 l 2,-1 v -4 l 2,-2 1,1 7,-2 1,-4 h -2 l 2,-6 -4,-3 2,-1 v -3 l -6,-12 1,-8 6,-8 4,-2 v -3 l 3,-2 5,-10 5,3 1,-1 -1,-3 5,-2 v -5 h 9 l 3,-5 4,-1 h 4 l 1,6 2,-5 2,1 v -5 l 6,2 3,3 10,-2 v 2 l 2,-1 2,2 8,-3 v -5 l 2,-3 4,-2 -1,-5 h -5 l -1,-4 3,-9 3,-1 -5,-5 1,-5 -4,-5 6,-4 1,-4 -2,-2 1,-6 -3,-2 -6,2 -2,-2 3,-3 v -3 l -4,-4 1,-6 3,-1 1,-3 -5,-2 -1,-4 2,-2 h 3 l -1,-1 3,-4 2,2 9,2 6,-2 v -2 h 3 l -1,-2 7,-2 5,3 -3,-4 h 4 v 4 l 3,1 v 3 l 12,3 4,-1 v 5 l 12,-2 6,-3 h 5 v 2 l 4,4 7,-5 5,2 2,-2 6,1 2,-1 2,-5 7,-4 -4,-8 3,-13 -3,-7 2,-9 -8,-14 -2,-15 5,-17 6,-4 h 5 l 3,-6 -1,-4 h 2 l -7,-12 -3,-1 2,-2 -3,-1 v -2 l -3,-2 -6,-11 -3,-2 1,-6 -1,-5 -2,-1 v -5 h -3 l -2,2 -3,-3 -7,1 -3,-2 -4,4 -3,-4 -1,3 h -4 l -1,-6 -5,-5 -4,1 -1,-3 -4,-1 -5,1 -1,-3 -1,1 -4,-5 h -2 l 1,-3 h -3 l -1,-3 h -3 l -1,-2 -5,-2 h -3 l -2,3 -5,-2 -1,2 -7,2 -3,-1 -1,3 h -2 l -2,-3 -6,4 -7,8 -2,1 -2,-2 -3,4 h -3 l -1,-4 -2,1 1,2 -2,3 2,1 h -5 l -1,4 h -2 v 2 l -2,1 -2,-4 -2,2 h -4 v -2 l -2,3 -2,-1 1,6 3,5 -4,4 v 10 l 3,5 v 8 l -8,5 v 5 l 5,3 v 3 l 3,1 1,4 -3,2 -2,-1 v 3 h -4 v -6 h -7 l -2,9 -6,-3 -2,10 h -2 v 4 h 3 l -2,5 1,1 -3,5 2,1 1,4 -8,1 -10,5 -6,-2 -2,-10 -5,-1 -1,-6 -9,-1 -3,3 -2,-3 2,-2 -5,-4 1,-3 -7,-5 v -3 l -5,-8 h -12 l -3,2 v 3 l -5,4 -2,4 -4,-2 -6,1 -12,5 -2,-3 h -4 l -2,-4 -3,2 -1,4 -4,1 -2,-1 2,-2 h -4 l -5,1 -2,3 -5,1 -1,3 -6,-2 -6,2 v 2 l 4,3 5,-1 6,6 -10,4 -4,-3 -12,6 -3,-1 v -2 l -6,7 -3,1 -7,-3 -5,2 v -2 h -2 l -1,-3 -5,8 -6,2 -1,-1 -11,7 -5,-1 -12,7 5,5 -1,5 -1,-2 -3,2 -4,-4 -1,3 -6,5 -4,-3 -16,5 -3,3 2,2 -14,13 4,7 v 4 l -4,1 -1,2 2,3 1,-1 5,4 -2,4 3,3 1,-2 8,6 -2,4 -4,-1 -1,2 h -4 l -3,-2 -3,3 4,8 2,-1 1,3 2,-1 1,6 1,-1 2,3 v 3 l -3,1 v 2 l 4,10 -3,2 1,1 -3,3 3,16 1,-2 v 2 l 2,1 6,-1 1,3 5,-2 3,3 6,-4 v -3 l 2,-1 -1,6 -6,6 3,5 -1,3 -2,-1 -6,2 -6,4 -25,3 -3,2 1,2 -7,5 v 2 l -6,3 -2,6 -1,-1 -3,3 -1,-3 v 3 l -15,5 -1,4 -10,-2 -4,3 -4,-2 -4,2 -4,-2 -2,-4 -3,1 -12,-3 -2,3 -9,1 5,20 8,16 -1,5 -3,-2 2,10 h -3 l -1,3 -2,-1 v 8 h 4 l 1,5 3,3 -2,5 6,4 12,-1 4,-2 3,-10 2,-1 25,-3 13,4 6,-1 6,3 5,-2 5,4 1,3 3,1 5,8 12,8 3,8 -1,9 3,4 -1,12 -2,3 1,5 6,16 3,3 v 5 l 4,4 1,9 3,6 -4,7 1,4 3,2 4,8 -4,3 v 5 l 12,12 3,-4 -3,-3 -2,-6 1,-5 2,-1 3,-7 v -5 l 5,-2 7,-6 -2,-8 -7,-2 1,-3 -3,-9 h -2 l 2,-4 h 5 l 3,-5 v -5 l -3,-2 -1,-3 4,-4 13,-5 4,-6 -2,-3 1,-1 1,2 8,-11 10,-5 h 4 l 17,-6 2,-2 10,-1 4,9 -2,3 h -2 l 2,2 -4,4 2,10 -5,1 3,9 -7,4 3,9 4,-1 v 2 l 3,-3 2,2 v -2 h 2 l 8,-7 4,2 1,-3 -2,-1 -3,-7 6,-5 -3,-4 4,-3 -2,-4 h 3 v -2 h 4 l 4,-3 2,10 -2,8 2,1 v 6 l 7,7 -1,4 2,1 v 2 h 2 l -3,6 3,3 6,-1 1,2 h 6 l -1,7 -6,2 -1,2 2,4 14,12 10,5 v 2 z m 185,-321 1,-1 z m 0,0 z"
     id="长春市" />
  <path
     stroke="#ffff00"
     stroke-opacity="1"
     stroke-width="0.5"
     stroke-linecap="round"
     stroke-linejoin="round"
     stroke-dasharray="none"
     fill="#1e90ff"
     fill-opacity="1"
     fill-rule="evenodd"
     d="m 678.99998,700.99999 h 5 l 1,-5 6,-5 -3,-6 3,-5 1,-6 h 11 l 3,-2 v -4 l 10,-2 7,2 5,4 4,-5 2,1 4,-2 4,3 6,-2 6,1 v -2 l 4,-3 2,-5 v 10 l 2,5 -1,5 2,4 3,2 1,5 4,2 -1,8 -6,9 1,4 -2,1 v 5 l 2,-1 3,2 8,-5 1,-4 6,-2 3,9 3,1 v 3 l 10,4 -1,1 5,-1 5,3 2,-1 -1,-7 6,-2 v -2 l -2,-1 v -4 l 9,-3 4,-4 h 2 l 1,-3 h 3 l 2,-6 4,-4 4,-1 v -9 l 2,-2 3,1 1,-3 7,-3 -1,-2 3,-3 -3,-1 3,-5 13,3 4,5 3,1 2,-3 -1,-2 2,-1 -4,-6 -3,-1 2,-7 -1,-2 h -5 l -6,-7 -3,3 h -6 l -7,-3 -6,-4 -1,-4 -5,-5 h -4 l -5,-6 -2,1 -3,-2 -6,-10 -3,1 -2,-2 3,-8 3,-1 -2,-7 2,-7 -4,-5 10,-1 3,-3 -1,-1 3,-2 1,-4 8,-5 4,-5 v -3 l 4,-6 v -6 l -7,-4 3,-6 -3,-2 1,-2 11,-3 -1,-3 2,-1 3,-6 -1,-2 2,-7 h -2 l -1,-2 2,-7 -1,-5 4,-6 4,1 3,-5 h 3 l -1,-6 1,-2 h 3 l 1,-4 4,-3 -1,-2 3,-2 2,1 4,-7 h 6 v -5 l 3,-2 -2,-10 2,-1 -1,-2 3,-1 -2,-6 -7,-1 -3,-3 -4,-8 1,-4 -3,-4 h -2 l 1,-2 -2,-2 v -4 l 1,-3 4,-3 3,2 v -10 h -3 l -14,-10 h 3 v -3 l 2,-2 -1,-4 h 2 l -2,-1 v -5 l 16,-15 -4,-7 -5,1 -2,-2 -5,4 -10,-7 2,-4 -3,-10 v -11 h -2 l -2,6 -3,2 -3,-1 v -2 l -5,-4 v 2 h -2 l -1,-3 -3,-2 -3,-6 6,-7 v -5 l -2,-5 h -3 l -11,-16 h -2 l -3,-9 -4,-1 v -3 l 3,-3 1,-4 -1,-3 -4,-2 -3,-8 2,-3 -2,-4 8,-4 1,2 h 4 l 2,-4 4,-3 v -2 l -2,-4 -8,-2 -1,-3 -6,-4 -2,1 -2,-2 h -3 l -4,-2 -2,-3 -23,-2 -2,7 -9,-3 2,-4 -3,-2 -5,1 -8,10 -8,-2 -1,5 -5,6 -9,5 -2,5 h -8 l -2,2 -5,-2 -7,5 -4,-4 v -2 h -5 l -6,3 -12,2 v -5 l -4,1 -12,-3 -3,-4 v -4 h -4 l 3,4 -8,-3 -4,2 1,2 h -3 v 2 l -6,2 -9,-2 -2,-2 -3,4 1,1 h -3 l -2,4 1,2 5,2 -1,3 -3,1 -1,6 4,4 v 3 l -3,3 2,2 6,-2 3,2 -1,6 2,2 -1,4 -6,4 4,5 -1,5 5,5 -3,1 -3,9 1,4 h 5 l 1,2 v 3 l -4,2 -2,3 v 5 l -8,3 -2,-2 -2,1 v -2 l -10,2 -3,-3 -6,-2 v 5 l -2,-1 -2,5 -1,-6 -8,1 -3,5 h -9 v 5 l -5,2 1,3 -1,1 -5,-3 -5,10 -3,2 v 3 h -2 l -8,10 -1,8 6,12 v 3 l -2,1 4,3 -2,6 h 2 l -1,4 -7,2 -1,-1 -2,2 v 4 l -2,1 h -4 l -6,-3 -4,2 -1,-2 -5,2 -1,-2 h -6 l -4,9 v 2 l 2,1 -2,1 v 5 l 3,4 -2,2 h 2 l -1,2 h 2 l 4,16 3,1 v 2 l 3,3 -1,5 h 2 l 1,7 -3,16 -2,2 1,2 -3,1 3,4 -3,6 3,2 -1,2 3,6 6,2 v 2 l 4,2 4,10 6,-2 2,8 h 2 l 1,5 -7,4 h -4 v 2 l -8,3 v 2 l -10,4 h -3 l -5,-6 -6,6 -9,5 h -3 l -10,10 v 2 l -3,1 2,5 h 2 l 3,6 -1,2 3,6 1,-1 2,6 8,-1 4,7 h 2 l -7,4 -3,-2 v 7 l -5,2 -5,-1 -2,-4 -1,5 2,3 10,5 v 3 l 2,2 1,-2 5,-2 7,4 4,6 v 3 l 6,3 -3,1 3,1 -4,6 h 3 l 9,5 -1,7 h 2 l 1,6 6,7 5,3 3,-1 2,5 4,2 13,1 9,-2 3,2 5,-2 4,1 2,3 h 3 l 5,-5 5,-1 2,-4 h 3 l 5,3 2,-3 h 4 l 2,5 -2,4 2,4 v 6 l -3,7 1,3 3,1 3,4 3,1 9,-3 1,2 3,-2 5,4 h 5 l 1,-4 3,-3 2,1 10,-9 6,3 v 3 l 9,3 z m -5,-469 h -2 l 1,1 z m -3,0 1,1 z"
     id="吉林市" />
  <path
     stroke="#ffff00"
     stroke-opacity="1"
     stroke-width="0.5"
     stroke-linecap="round"
     stroke-linejoin="round"
     stroke-dasharray="none"
     fill="#1e90ff"
     fill-opacity="1"
     fill-rule="evenodd"
     d="m 180.99998,366.99999 -11,2 -17,-1 -8,4 -9,-5 1,-5 -3,-4 h -4 l -7,-11 1,-2 -3,-5 -4,1 v 4 l -4,3 -12,-2 -4,2 -13,-1 -15,3 h -13 l 1,4 -2,1 2,6 6,4 6,8 -4,4 1,3 h 3 l 1,4 h 2 l 5,10 v 5 h 2 l 2,3 v 13 h 2 l 1,5 3,2 -3,12 7,8 v 7 l 3,12 -4,2 v 5 l -3,4 -5,1 -5,-3 -3,-4 -1,4 2,5 3,-1 2,3 -1,5 -18,-5 -9,4 v 4 l 5,4 -3,7 4,3 5,-1 2,2 2,7 5,6 1,4 4,-3 v -4 l 8,-2 7,12 4,-5 7,10 4,3 18,-1 -1,-3 2,-1 -2,-1 v -3 l 2,-4 7,-6 1,-6 -2,-2 5,-3 3,1 2,-2 1,2 12,7 -3,4 -1,5 1,3 9,6 -1,5 h 4 l 8,5 5,8 8,7 1,-2 10,-1 v 3 l 4,1 -1,7 h 3 l 1,-2 6,3 1,-1 1,2 4,-1 3,-3 2,6 h 9 l 2,7 -2,2 1,2 -2,3 5,5 -1,1 6,2 18,17 -17,20 5,5 h 12 l 3,4 v 5 l -5,3 v 2 h -3 l -2,3 -1,-1 -3,2 1,6 13,1 -1,2 3,4 v 6 h 4 l -2,-5 3,-3 6,-3 5,1 v -4 l 4,-1 7,-8 v -3 l 4,-2 v -2 h 2 v -6 h 5 v -3 l 2,-1 1,-4 -1,-5 4,-8 4,-3 7,-1 6,-11 10,-2 3,1 6,-3 2,-3 12,-8 -1,-3 10,-4 4,-4 4,2 17,-4 h 8 l 13,19 12,6 8,6 4,-8 -1,-3 h -5 l -2,-3 3,-11 -2,-3 2,-2 3,2 3,-1 3,-3 3,3 1,-1 3,5 3,1 2,5 -2,8 3,12 11,2 5,5 9,1 5,3 1,-5 2,4 5,1 5,-2 v -7 l 3,2 7,-3 -2,-1 -3,-7 -9,1 -2,-6 -1,1 -3,-6 1,-2 -3,-6 h -2 l -2,-4 10,-11 -3,-2 v -2 l -15,-9 -9,-8 -2,-4 1,-2 6,-2 1,-7 h -6 l -1,-2 -6,1 -3,-3 3,-6 h -2 v -2 l -2,-1 1,-4 -7,-7 v -6 l -2,-1 2,-4 -1,-14 -5,3 h -4 v 2 h -3 l 2,4 -4,3 3,4 -6,5 3,7 2,1 -1,3 -4,-2 -5,3 -3,4 h -2 v 2 l -2,-2 -3,3 v -2 l -4,1 -3,-9 7,-4 -3,-9 5,-1 -2,-7 4,-7 -2,-2 h 2 l 2,-3 -4,-9 -10,1 -2,2 -17,6 h -4 l -10,5 -8,11 -1,-2 -1,1 2,3 -4,6 -13,5 -4,4 1,3 3,2 v 5 l -3,5 h -5 l -2,4 h 2 l 3,9 -1,3 7,2 2,8 -7,6 -5,2 v 5 l -3,7 -2,1 -1,5 2,6 3,3 -3,4 -12,-12 v -5 l 4,-3 -4,-8 -3,-2 -1,-4 4,-7 -3,-6 -1,-9 -4,-4 v -5 l -3,-3 -6,-16 -1,-5 2,-3 1,-12 -3,-4 1,-9 -3,-8 -12,-8 -5,-8 -3,-1 -6,-7 -5,2 -6,-3 -6,1 -13,-4 -25,3 -2,1 -3,10 -4,2 -12,1 -6,-4 2,-5 -3,-3 -1,-5 h -4 v -8 l 2,1 1,-3 h 3 l -2,-10 3,2 1,-5 -8,-16 -4,-17 z"
     id="四平市" />
  <path
     stroke="#ffff00"
     stroke-opacity="1"
     stroke-width="0.5"
     stroke-linecap="round"
     stroke-linejoin="round"
     stroke-dasharray="none"
     fill="#1e90ff"
     fill-opacity="1"
     fill-rule="evenodd"
     d="m 340.99998,585.99999 v 4 l -2,2 1,9 -5,5 v 5 l -3,-1 6,17 -2,2 1,6 -4,11 3,21 2,4 4,1 3,-4 v -4 h 3 l 3,3 5,1 3,9 -2,2 3,3 -2,5 -1,-1 -2,2 4,6 -1,3 -4,2 h 4 l 5,3 v 8 l 5,5 3,-3 h 5 l 3,3 -4,6 2,5 -2,1 v 6 l -2,1 4,5 -4,4 7,2 v 3 l 8,5 v 2 l -2,1 7,4 4,6 -3,6 3,1 1,3 -2,2 -2,-1 -3,3 2,1 1,4 -2,5 7,2 6,-3 2,2 1,-2 h 5 l 2,-3 h 3 l 4,-4 1,-4 12,-6 h 6 l 22,-13 4,-12 v -6 l 6,-2 -1,-2 h 2 l 2,-6 2,-1 4,3 4,-8 h 2 l 5,-8 -9,-1 2,-2 -6,-8 v -10 l 3,-6 -5,-5 20,-2 5,-1 2,-2 3,2 2,-4 2,1 2,-2 -10,-8 v -2 l -5,-3 -1,-5 -2,-2 -2,-10 2,-5 v -6 l 2,-1 1,-5 -4,-12 -2,-2 v -3 l -10,-5 -7,-6 -9,-1 -5,-5 -11,-2 -3,-12 2,-8 -2,-5 -3,-1 -3,-5 -1,1 -3,-3 -3,3 -3,1 -3,-2 -2,2 2,3 -3,11 2,3 h 5 l 1,3 -4,8 -8,-6 -12,-6 -13,-19 h -8 l -17,4 -4,-2 -7,6 h -4 l -3,2 1,3 -12,8 z"
     id="辽源市" />
  <path
     stroke="#ffff00"
     stroke-opacity="1"
     stroke-width="0.5"
     stroke-linecap="round"
     stroke-linejoin="round"
     stroke-dasharray="none"
     fill="#1e90ff"
     fill-opacity="1"
     fill-rule="evenodd"
     d="m 407.99998,788.99999 7,6 -4,6 2,3 -2,5 6,3 -2,3 2,1 -3,2 -2,5 h 3 l 3,-5 v 8 l -2,4 h 10 l -1,-8 3,-1 3,2 v 2 l 6,3 5,1 3,-2 5,6 -3,2 1,1 -3,1 v 2 l -1,-1 -2,4 -6,-1 2,6 -11,15 1,3 -5,1 -1,3 -4,3 h -3 l -1,4 9,5 2,3 -4,-1 -4,2 -1,7 -2,3 v 14 l 2,6 2,2 1,5 h 3 l 2,2 -3,4 v 7 l -3,10 2,2 16,-6 3,5 3,-1 2,8 2,1 -4,10 5,9 v 3 l 6,4 -2,6 2,1 2,6 h 3 l 1,2 -1,10.00001 3,5 -1,2 6,1 v 7 l 2,2 h 6 l 3,4 v 3 l -4,3 4,6 1,7 6,-3 3,8 h 10 l 2,3 -5,9 1,4 10,3 -5,4 -2,5 -4,1 -4,5 v 2 h 4 l 1,2 -2,8 -7,7 -2,7 1,2 -2,3 -1,-1 -3,2 -3,7 h -4 l -4,3 -2,8 1,1 13,-6 7,6 2,6 7,-2 5,-5 6,3 2,4 8,-5 3,-5 4,2 4,-2 -1,5 2,2 h 6 l 3,-6 4,2 6,-1 -4,-4 -4,2 -1,-2 5,-4 h 3 l 1,2 2,-1 2,-8 6,-3 -3,-3 v -3 l 3,-2 4,1 -1,-7 1,-2 4,-1 1,-3 -4,-4 2,-4 h 8 l 4,-6 7,-4 1,-3 10,-4 v -7 l 4,-1 3,-10 5,-2 2,-9 7,-7 1,-4 2,-2 h 3 l 1,-5 4,-1 3,-3 h 6 v 3 l -6,3 h 7 l 4,-4 -6,-5 -2,-5 6,-17.00001 4,-4 h -2 l 2,-10 -5,-1 -4,9 h -6 l -1,-5 h -4 l -2,3 -6,-2 3,-4 -3,-2 -3,-8 4,-3 1,-10 3,-7 -4,-4 -2,2 h -10 l -4,2 v -2 l -3,-1 1,-2 -4,-5 2,-8 -1,-2 5,-5 -1,-4 2,-6 -6,-9 v 2 l -2,-1 v -2 l -6,-2 -3,2 -2,-3 5,-7 -1,-2 h -4 l -2,-4 -3,1 -7,-8 h -2 v -2 l -3,-1 v -2 l 2,-3 2,1 5,-4 5,2 7,-7 2,1 8,-10 h 6 l 8,-7 h 5 l 1,-3 -2,-2 v -3 l 7,-6 4,-1 -1,-3 4,-5 v -4 l 7,-5 7,3 v -2 l 5,-3 v -8 l -5,-1 -1,-2 h -2 l -1,-3 v -13 l 3,-8 -5,-9 v -7 l 12,-13 6,1 3,-3 2,-15 -1,-8 -2,-3 5,-4 h 4 l 3,-3 h 3 l 7,-13 -1,-2 2,-1 -3,-6 -9,-3 v -3 l -6,-3 -10,9 -2,-1 -3,3 -1,4 h -4 l -6,-4 -3,2 -1,-2 -9,3 -3,-1 -6,-5 -1,-3 3,-7 v -6 l -2,-2 2,-6 -2,-5 h -4 l -2,3 -5,-3 h -3 l -2,4 -5,1 -5,5 h -3 l -2,-3 -4,-1 -5,2 -3,-2 -9,2 -13,-1 -4,-2 -2,-5 -3,1 -7,-5 -4,-5 -1,-6 h -2 l 1,-7 -9,-5 h -3 l 4,-6 -3,-1 3,-1 -6,-3 -2,-7 -9,-6 -5,2 -1,2 4,15 -3,3 v 6 l -2,5 5,17 5,3 v 2 l 4,2 5,6 -1,2 -2,-1 -2,3 -3,-1 -2,2 -12,2 -2,-1 -3,2 -8,-1 5,6 -3,6 v 10 l 6,8 -2,2 9,1 -5,8 h -2 l -4,8 -4,-3 -2,1 v 3 l -2,3 h -2 l 1,2 -6,2 v 6 l -4,12 -22,13 h -5 l -13,6 -1,4 -4,4 h -3 l -2,3 z"
     id="通化市" />
  <path
     stroke="#ffff00"
     stroke-opacity="1"
     stroke-width="0.5"
     stroke-linecap="round"
     stroke-linejoin="round"
     stroke-dasharray="none"
     fill="#1e90ff"
     fill-opacity="1"
     fill-rule="evenodd"
     d="m 642.99998,979.99999 2,-4 4,-3 -4,-11 1,-4 h 4 l 3,-4 v -7 l 2,-2 8,4 5,-3 v -3 l 3,-1 4,-5 -1,-3 -6,-2 -1,-2 2,-3 5,-1 10,9 1,5 h 3 l -1,-5 3,-7 1,-1 4,6 7,-14 10,-7 4,2 -1,4 h -2 l 1,4 7,-1 1,2 5,1 -1,3 9,3 v 8 l 5,1 -3,3 -2,-1 -3,4 6,5 1,3 5,-1 1,2 -3,2 v 2 h 6 v 5 l 2,1 h 8 v 2 h -5 l -2,4 -3,1 -1,5 -3,-1 v 2 l 6,1 1,3 4,-3 2,3 7,-1 -1,3 h 6 l -2,3 3,2 5,-4 2,3 -1,2 -5,2 2,2 5,-2 11,6 1,-4 6,-1 5,6 9,-2 v -4 h 2 l 1,3 3,-2 5,3 2,-2 1,6 4,5.00001 5,1 4,-2 7,7 2,-1 -2,-4 h 2 l 2,3 1,-2 18,-1 2,4 v -2 l 3,-2 3,4 h 2 v -3 h 3 l 2,4 1,-8 2,-2 2,3 2,-1 1,2 4,-3 v -3.00001 h 2 l 2,1 -1,3.00001 h 4 l 3,2 -1,2 h 2 l 2,-5 2,-1 -1,4 2,1 v 2 l 2,1 1,-2 2,2 -1,5 h 6 l 1,3 1,-3 h 5 l -4,4 4,3 4,-5 2,1 3,-2 2,-4 3,-2 4,1 v -5 l 6,-6.00001 h -2 l 2,-5 -1,-5 8,-7 v -2 l 3,-1 -1,-3 5,-6 -1,-8 -4,-2 2,-1 v -3 l -3,1 -3,-10 h -2 l -4,-4 -3,1 v -2 h -2 l -4,-5 -3,-1 -5,-10 1,-6 -7,-4 -1,-13 2,-11 -2,-3 v -11 h -2 l -11,-12 5,-3 -4,-4 -3,-10 -7,-14 -4,-3 v -8 h -2 l -7,-8 -1,-10 -1,1 -4,-2 -2,-7 -1,1 -2,-2 h -4 l -4,-4 2,-6 5,-2 h 7 l 3,-5 v -4 h 7 l 3,-6 7,-6 h 2 l 2,-3 v -6 l 5,-7 -3,-4 1,-8 h -2 l 1,-3 h -2 l 2,-5 -3,-1 1,-1 -4,-3 -2,-4 2,-1 -5,-3 1,-2 h -3 l -1,-5 2,-1 v -2 l -5,-2 -2,-3 h -7 l -1,-3 1,-1 2,2 v -2 l -4,-1 -2,-6 -3,-2 2,-2 h 3 l -2,-1 1,-3 -6,-3 v -6 l -3,-1 -2,-4 -15,-4 -3,5 h 3 l -3,4 1,2 -7,3 -1,3 -3,-1 -2,2 v 9 l -4,1 -4,4 -2,6 h -3 l -1,3 h -2 l -3,4 -10,3 v 4 l 2,1 v 2 l -6,2 1,7 -2,1 -5,-3 -5,1 1,-1 -10,-4 v -3 l -3,-1 -3,-9 -6,2 -1,4 -8,5 -3,-2 -2,1 -1,-2 3,-4 -1,-4 6,-9 1,-8 -4,-2 -1,-5 -3,-2 -2,-4 1,-5 -2,-5 v -10 l -6,10 -6,-1 -6,2 -4,-3 -4,2 -2,-1 -4,5 -5,-4 -7,-2 -10,2 v 4 l -3,2 h -11 l -1,6 -3,5 3,6 -1,2 h -2 l -3,3 -1,5 -7,1 1,2 -7,13 h -3 l -3,3 h -4 l -5,4 2,3 1,8 -2,15 -3,3 -5,-1 -13,13 v 7 l 5,9 -3,8 v 13 l 1,3 8,3 v 8 l -5,3 v 2 l -7,-3 -7,5 v 4 l -4,5 1,3 -4,1 -7,6 v 3 l 2,2 -1,3 h -5 l -8,7 h -6 l -8,10 -2,-1 -7,7 -5,-2 -5,4 -2,-1 -2,3 v 2 l 3,1 v 2 h 2 l 7,8 3,-1 2,4 h 4 l 1,2 -5,7 2,3 3,-2 6,2 v 2 l 2,1 v -2 l 6,9 -2,6 1,4 -3,4 h -2 l 1,3 -2,8 4,5 -1,2 3,1 v 2 l 4,-2 h 10 l 2,-2 4,4 -3,7 -1,10 -4,3 3,8 3,2 -3,4 6,2 2,-3 h 4 l 1,5 h 6 l 4,-9 z"
     id="白山市" />
  <path
     stroke="#ffff00"
     stroke-opacity="1"
     stroke-width="0.5"
     stroke-linecap="round"
     stroke-linejoin="round"
     stroke-dasharray="none"
     fill="#1e90ff"
     fill-opacity="1"
     fill-rule="evenodd"
     d="m 18.99998,238.99999 2,1 v 5 l -2,2 2,4 -2,1 3,7 -1,6 -4,1 3,9 -1,1 h 5 l 4,5 h 4 l 15,23 4,15 3,1 1,3 12,4 -1,5 -4,2 -2,10 -4,3 v 3 l 6,-1 7,2 2,-2 5,-1 h 20 l 5,-2 11,2 5,-3 v -4 l 4,-1 3,5 -1,2 7,11 h 4 l 3,4 -1,5 9,5 8,-4 17,1 20,-3 2,-3 11,3 4,-1 2,4 4,2 4,-2 4,2 4,-3 10,2 1,-3 15,-6 v -3 l 1,3 3,-3 1,1 2,-6 h 2 l 7,-8 4,-2 -1,-2 3,-2 h 8 l 12,-3 5,1 6,-5 6,-2 2,1 1,-3 -3,-5 6,-6 1,-6 -2,1 v 3 l -6,4 -3,-3 -5,2 -1,-3 -6,1 -2,-1 v -2 l -1,2 -3,-16 3,-3 -1,-1 3,-2 -4,-10 v -2 l 3,-1 v -3 l -2,-3 -1,1 -1,-6 -2,1 -1,-3 -2,1 -4,-8 3,-3 3,2 h 4 l 1,-2 4,1 2,-4 -8,-6 -1,2 -3,-3 2,-4 -5,-4 -1,1 -2,-3 1,-2 4,-1 v -4 l -4,-7 14,-13 -2,-2 3,-3 16,-5 4,3 6,-5 1,-3 4,4 3,-2 1,2 1,-5 -5,-5 12,-7 5,1 11,-7 1,1 6,-2 5,-8 1,3 h 2 v 2 l 5,-2 7,3 3,-1 6,-7 v 2 l 3,1 12,-6 4,3 10,-4 -6,-6 -5,1 -4,-3 v -2 l 3,-2 9,2 1,-3 5,-1 2,-3 9,-1 -2,2 h 6 l 1,-4 3,-2 2,4 h 4 l 2,3 12,-5 6,-1 4,2 2,-4 5,-4 v -3 l 3,-2 h 12 l 5,8 v 3 l 7,5 -1,3 5,4 -2,2 2,3 3,-3 9,1 1,6 5,1 2,10 6,2 10,-5 8,-1 -1,-4 -2,-1 3,-5 -1,-1 2,-5 h -3 v -4 h 2 l 2,-10 6,3 2,-9 h 7 v 6 h 4 v -3 l 2,1 3,-2 -4,-8 -5,-3 v -5 l 8,-5 v -8 l -3,-5 2,-6 -2,-4 4,-4 -4,-8 -1,1 -2,-3 h -5 l -2,-2 -1,2 -3,-1 -2,-4 -6,-2 -10,2 v -4 l -2,1 -1,-3 2,-1 -1,-1 -3,1 -2,-3 -9,1 -4,-6 h -3 v -2 h -2 l -2,-3 -4,1 -3,-3 1,-5 -5,-3 -2,-4 -3,1 v 2 l -2,-1 1,-3 -6,-7 1,-3 -4,-1 -2,-3 2,-1 -2,-2 4,-10 v -5 l -2,-1 v -5 l -2,-2 3,-1 v -2 h -2 l 2,-5 -4,-1 2,-4 -2,-3 -5,2 -3,-1 -1,-3 h -2 l -11,9 h -3 l -10,5 -3,-5 h -10 l 2,7 -12,17 h -4 l -6,-7 -2,1 1,2 -2,2 -4,-4 h -5 l -11,5 -9,-3 -9,7 h -4 v -4 l 4,-3 v -2 l -5,-1 -2,-2 -4,-16 -13,-1 -3,-4 v -5 l -5,-3 -1,6 -4,6 -1,4 2,6 -1,4 -2,1 -7,-5 h -2 l -6,5 -3,-1 v -7 h -3 l -6,6 -7,-2 -9,5 -12,-5 2,5 -7,6 -7,-4 -6,-9 -9,3 -2,3 -6,-3 -1,-3 -46,32 -7,2 -4,11 4,6 -3,7 -23,4 -40,44 -20,14 -7,8 -6,3 h -2 l -2,-3 -5,1 1,8 -14,19 5,11 14,22 v 5 l -13,3 -6,6 -9,2 -14,7 -9,10 -4,2 -2,4 -2,-1 -9,6 -2,3 v 5 z"
     id="松原市" />
  <path
     stroke="#ffff00"
     stroke-opacity="1"
     stroke-width="0.5"
     stroke-linecap="round"
     stroke-linejoin="round"
     stroke-dasharray="none"
     fill="#1e90ff"
     fill-opacity="1"
     fill-rule="evenodd"
     d="m 246.99998,-6.00001 -2,-6 -2,-1 3,-7 -2,-8 -2,-1 -12,2 -4,-7 2,-4 -1,-2 h -4 l -3,-2 -1,-3 3,-3 -2,-3 -7,5 -8,-2 -3,-6 3,-1 1,-3 -1,-2 h -4 l 3,-3 v -2 l -7,-4 -2,-7 -7,-6 -6,1 -3,-6 1,-3 10,-4 -4,-4 -1,-6 6,-2 v -6 l -2,-6 -12,-5 -4,-6 -1,-8 2,-3 7,-2 1,-2 -5,-5 v -2 h 7 l 2,-4 -2,-5 -4,-2 -1,-3 3,-2 v -2 l -4,-4 1,-3 3,-2 -5,-7 4,-4 -2,-2 h -6 l 1,-4 -3,-6 1,-2 3,-1 v -2 l -4,-5 -1,-4 2,-3 -1,-5 -4,1 -3,8 -3,-1 -1,-1 2,-8 -2,-3 -9,1 -4,4 -4,1 v 2 h -2 l -1,2 -6,2 -2,-1 -3,2 -4,-1 -5,2 -2,-2 -11,2 -2,2 v 3 l -5,2 -1,-3 -6,-1 -6,-5 -4,3 1,1 -5,3 -4,-3 h -7 l -3,6 -4,-2 -1,-4 h -2 l -3,-3 -4,2 -4,-1 v -2 l -5,-4 -5,1 -14,11 -3,5 v 9 l -5,1 2,11 -8,2 -4,6 -46,7 6,46 -5,11 h -5 l -1,3 -3,2 8,18 -4,4 v 2 l -4,2 2,4 h -3 v 4 l -13,1 -2,-5 1,-2 -3,-1 -2,-10 -7,-2 -8,-11 -2,1 -5,9 -3,-1 -1,-19 -9,-15 h -16 l 2,16 -6,-1 v 2 l -3,2 v 4 h -3 l 1,1 -5,4 v 2 l -2,-1 -2,3 -3,-4 v -4 l -2,-2 -3,1 v -4 l -3,-3 -8,-3 -2,1 -1,-3 -9,-2 -2,-4 v -6 l -2,-3 h -3 l -2,-3 v -4 l -6,-2 -1,-5 -2,1 -1,3 -5,-3 1,-1 -7,-1 v -4 l -6,-1 v 2 h -5 l -4,-6 -6,-1 1,2 -9,5 -1,2 1,2 h 3 l 5,6 -1,8 2,1 1,3 -3,4 2,7 h -2 l -4,4 -4,7 2,2 -3,2 v 6 l -6,2 -6,6 -6,-2 -2,5 4,3 v 5 l 16,8 5,-1 5,2 v -5 l 10,-4 5,2 h 9 l 5,5 6,19 -1,6 -6,1 1,7 4,4 2,12 11,9 17,7 4,9 -6,9 v 21 l 17,5 -2,18 -2,3 -5,3 h -8 l -7,10 2,19 -4,12 -4,4 2,14 -1,10 h -6 v 4 l 2,4 h 2 l 1,6 2,2 -1,3 4,8 -2,2 2,5 10,1 2,2 -5,4 -5,-3 -3,5 1,3 9,-2 2,4 -2,3 -6,3 -3,8 2,15 5,7 -2,2 13,6 1,4 4,5 -2,7 2,3 8,2 3,-1 1,42 -5,11 1,3 7,6 31,-1 29,-12 h 6 l 3,-3 2,-6 11,-13 17,-7 34,-26 15,-2 3,-4 v -5 l 2,-3 9,-6 2,1 2,-4 11,-9 1,-3 5,-1 10,-6 9,-2 6,-6 13,-3 v -5 l -14,-22 -5,-11 14,-19 -1,-8 5,-1 2,3 h 2 l 6,-3 7,-8 20,-14 40,-44 23,-4 3,-7 -4,-6 4,-11 7,-2 25,-17 5,-5 11,-6 z"
     id="白城市" />
  <path
     stroke="#ffff00"
     stroke-opacity="1"
     stroke-width="0.5"
     stroke-linecap="round"
     stroke-linejoin="round"
     stroke-dasharray="none"
     fill="#1e90ff"
     fill-opacity="1"
     fill-rule="evenodd"
     d="m 917.99998,862.99999 5,-2 11,-1 h 53 l 1,2 4,-1 5,5 10.00002,-1 3,2 6,-3 1,-5 6,-2 3,2 1,3 3,1 5,-2 6,-7 8,4 2,-2 h 4 l 5,3 9,1 1,2 6,1 5,-4 1,-7 -2,-2 v -4 l 4,-4 6,1 6,-3 v -6 l 3,-3 h 4 l -2,-3 2,-1 2,4 4,-1 v 2 l 4,-4 v -3 l 6,-1 v -4 l 5,-3 v -2 h 4 l 1,-2 -4,-3 2,-2 -2,-2 -2,2 -1,-1 v -5 l 8,-2 v -4 l -4,-1 7,-4 v -2 h -7 l 2,-2 h 6 l 2,-3 -5,-5 2,-6 3,1 3,-3 3,2 2,-2 h 3 l 1,-1 -3,-3 2,-2 -1,-3 3,-1 2,4 h 2 l -1,-1 2,-1 -3,-5 2,-4 3,-1 1,4 -2,3 3,2 2,-1 v -4 l 2,-1 4,3 5,-1 3,4 6,3 1,4 3,1 4,7 h 2 v -3 l 4,-1 -2,-2 v -3 l 3,-3 h 3 l 3,-8 -5,-1 5,-4 h 2 l 4,9 h 10 l 3,-2 5,-9 -2,-7 2,-11 -2,-7 4,-4 1,-4 h 4 v -3 h -5 l 2,-4 -3,-3 3,-3 3,4 1,-2 -2,-1 -1,-4 4,-3 -5,-6 -1,-4 3,-6 v -4 l 5,-8 1,-14 3,-2 3,-15 5,-1 -3,-5 v -6 l 11,-1 -1,-2 h -4 l -1,-3 10,-5 h 2 l 2,8 h 7 l 3,3 h 9 l 8,-5 6,3 -4,6 1,5 -5,2 7,5 6,-2 11,3 5,-1 3,3 -6,23 3,2 -3,3 v 10 l 2,6 2,2 5,1 7,13 8,5 2,7 6,-4 5,3 -4,5 3,9 4,-1 3,-4 -4,-5 1,-4 4,-5 2,-1 5,2 1,4 -2,3 3,12 4,5 1,7 5,4 -3,7 2,4 h 5 l 5,3 1,-1 -8,-5 v -9 l -6,-5 v -6 l 2,-3 -1,-3 2,-2 h 3 l 2,2 v -3 l 4,-6 -2,-10 -2,-1 -3,-9 -4,-2 v -2 l -8,-4 -11,4 -2,-4 -4,-2 -2,1 -4,-6 h 5 l -1,-3 2,-2 6,-5 12,-4 5,-7 3,-1 2,2 1,-2 13,-7 h 8 l 2,4 6,-4 3,3 2,-1 1,-6 3,-4 h 8 l 8,7 3,-2 1,-3 2,1 1,-2 h 4 l 2,3 2,-1 1,3 12,-2 -1,-5 -3,-3 -1,-4 3,-4 5,2 2,-2 3,3 h 5 l 2,-4 3,-1 1,-8 h -4 l -2,-2 v -10 l -3,-1 5,-8 -1,-4 7,-2 2,2 v -10 l 4,-2 3,-7 h 2 l -2,-6 2,-6 -4,-4 1,-7 9,-7 v -4 l 3,-4 v -15 l 2,-5 7,-5 -4,-10 1,-5 2,-1 1,-9 -3,-1 -1,2 2,2 -3,2 v 2 l -10,-2 v 3 l -6,3 -1,3 -4,-1 -3,4 -3,1 -3,-2 -1,-4 h -3 l -14,-15 h -5 l -3,4 -12,9 -2,6 h -3 l -6,-2 -3,-3 -3,-13 h -3 l -3,-6 -3,2 -3,-6 h -4 l -2,-4 h -4 l -1,-2 -5,1 -1,-5 -2,1 -1,-2 h -5 l 2,-7 -2,-2 -5,1 -1,2 -3,-4 -3,-1 -2,2 -8,-4 -2,-4 h -4 l -2,2 -8,-1 -3,-13 5,-10 -8,-10 v -11 l -3,-5 4,-2 -3,-4 1,-1 -2,-4 4,-4 -1,-2 h -2 l -2,-7 -4,-1 v -5 h 2 l 3,-6 -1,-3 2,-4 -2,-2 1,-5 -3,-2 -4,3 -3,5 v 4 l -7,6 1,3 -3,3 v 2 l -4,2 -2,-2 -7,2 v 2 l -6,5 v 6 l -2,1 v 2 h -5 l -1,6 -6,5 -5,-2 v -2 h -4 l -2,-4 -2,-6 3,-7 v -7 l -2,-3 1,-1 -3,-1 1,-1 -3,-3 2,-2 -1,-3 h -2 l -1,-3 -5,-4 h -3 l -2,3 -1,-2 h -2 l -1,3 h -2 l -2,3 h -2 v -3 l -3,4 h -2 l -4,6 -6,2 -1,2 2,6 -3,1 2,3 -1,6 -5,-1 -3,1 v 3 l -2,1 -5,-1 -6,1 -1,2 -2,-1 v -2 h -7 l -8,3 h -7 l -6,-3 -1,2 h -4 l -3,6 -6,2 -2,6 h -4 v 2 l -7,3 -7,-3 -1,4 -5,-5 -4,-1 -8,8 2,9 -2,1 2,1 -1,5 3,2 v 2 l -3,3 v 12 h 2 l 1,3 -1,12 -10,7 -1,-3 h -3 l -5,4 -2,-1 -3,3 -10,2 -5,4 -14,-8 -4,3 -6,1 -3,-4 h -2 v -5 l -3,-3 -5,-20 -4,-5 -3,-11 -3,1 -5,-3 v -2 l 4,-3 h 3 l -4,-11 -4,-4 7,-10 -9,-10 -3,-1 v 2 l -4,-1 -2,2 h -4 v -15 h -3 l -7,-10 -2,-15 -7,-11 1,-2 -4,-5 -3.00002,-1 -5,-9 -3,-11 v -6 l 3,-6 -4,-2 4,-16 -5,-5 5,-2 1,-7 -4,-9 1,-6 -5,-5 -1,-5 -8,-4 -2,-7 -7,3 -7,6 -1,3 -6,3 -1,3 h -5 l -3,3 -4,18 -3,4 -2,1 -1,-3 -3,-1 -2,3 -3,-3 -3,1 -4,-4 -4,5 3,11 h 2 l 1,3 h 3 l -2,5 -5,4 v 3 h 5 v 3 l 3,2 v 4 l -2,-1 v 9 h -4 l -2,3 2,3 h 3 l -1,3 3,3 -11,8 -3,-1 -3,3 -11,2 -6,6 h -9 l 1,2 -16,15 v 5 l 2,1 h -2 l 1,4 -2,2 v 3 h -3 l 4,2 2,3 11,5 v 10 l -3,-2 -4,3 -1,7 2,2 -1,2 h 2 l 3,3 -1,5 4,8 3,3 6,1 2,3 1,3 -3,1 1,2 -2,1 2,9 -3,3 v 5 h -6 l -4,7 -2,-1 -3,2 1,2 -4,3 -1,4 h -3 v 8 h -3 l -3,5 -4,-1 -4,6 1,5 -2,7 1,2 h 2 l -2,7 1,2 -3,6 -2,1 1,3 -11,3 -1,2 3,2 -3,5 5,3 3,5 -5,9 v 3 l -4,5 -8,5 -1,4 -3,2 1,1 -3,3 -10,1 4,5 -2,7 2,6 -3,2 -3,8 2,2 3,-1 6,10 3,2 2,-1 5,6 h 4 l 5,5 1,4 6,4 7,3 h 6 l 3,-3 6,7 h 5 l 1,2 -2,7 3,1 1,4 3,2 -2,1 1,2 -3,6 1,3 6,3 -1,3 2,1 -5,1 3,3 2,6 4,1 v 2 l -2,-2 -1,1 1,3 h 7 l 2,3 5,2 v 2 l -2,1 1,5 h 3 l -1,2 5,3 -2,1 2,4 4,3 -1,1 3,1 -2,5 h 2 v 11 l 3,4 -5,7 v 6 l -2,3 h -2 l -7,6 -3,6 h -7 v 4 l -3,5 h -7 l -5,2 -2,6 4,4 h 4 l 2,2 1,-1 2,7 4,2 1,-1 1,10 7,8 h 2 v 8 l 4,3 7,14 3,10 z"
     id="延边朝鲜族自治州" />
</svg>