<svg xmlns="http://www.w3.org/2000/svg" id="svg1" version="1.1" viewBox="-251 -228 1763 1370">
  <path id="长春市" fill="#ff6347" fill-opacity="1" fill-rule="evenodd" stroke="#ffffff" stroke-dasharray="none" stroke-linecap="round" stroke-linejoin="round" stroke-opacity="1" stroke-width="0.5" d="m488 554 15-8 6-6 5 6h3l10-4v-2l8-3v-2h4l7-4-1-5h-2l-2-8-6 2-4-10-4-2v-2l-6-2-2-8-3-1 2-4-2-7 3-1-1-2 5-13v-5l-1-7h-2l1-5-3-3 1-2-4-1-4-16h-2l1-2h-2l2-2-3-4v-5l2-1-2-1 4-11h6l1 2 3-2h2v2l5-2 6 3h4l2-1v-4l2-2 1 1 7-2 1-4h-2l2-6-4-3 2-1v-3l-6-12 1-8 6-8 4-2v-3l3-2 5-10 5 3 1-1-1-3 5-2v-5h9l3-5 4-1h4l1 6 2-5 2 1v-5l6 2 3 3 10-2v2l2-1 2 2 8-3v-5l2-3 4-2-1-5h-5l-1-4 3-9 3-1-5-5 1-5-4-5 6-4 1-4-2-2 1-6-3-2-6 2-2-2 3-3v-3l-4-4 1-6 3-1 1-3-5-2-1-4 2-2h3l-1-1 3-4 2 2 9 2 6-2v-2h3l-1-2 7-2 5 3-3-4h4v4l3 1v3l12 3 4-1v5l12-2 6-3h5v2l4 4 7-5 5 2 2-2 6 1 2-1 2-5 7-4-4-8 3-13-3-7 2-9-8-14-2-15 5-17 6-4h5l3-6-1-4h2l-7-12-3-1 2-2-3-1v-2l-3-2-6-11-3-2 1-6-1-5-2-1v-5h-3l-2 2-3-3-7 1-3-2-4 4-3-4-1 3h-4l-1-6-5-5-4 1-1-3-4-1-5 1-1-3-1 1-4-5h-2l1-3h-3l-1-3h-3l-1-2-5-2h-3l-2 3-5-2-1 2-7 2-3-1-1 3h-2l-2-3-6 4-7 8-2 1-2-2-3 4h-3l-1-4-2 1 1 2-2 3 2 1h-5l-1 4h-2v2l-2 1-2-4-2 2h-4v-2l-2 3-2-1 1 6 3 5-4 4v10l3 5v8l-8 5v5l5 3v3l3 1 1 4-3 2-2-1v3h-4v-6h-7l-2 9-6-3-2 10h-2v4h3l-2 5 1 1-3 5 2 1 1 4-8 1-10 5-6-2-2-10-5-1-1-6-9-1-3 3-2-3 2-2-5-4 1-3-7-5v-3l-5-8h-12l-3 2v3l-5 4-2 4-4-2-6 1-12 5-2-3h-4l-2-4-3 2-1 4-4 1-2-1 2-2h-4l-5 1-2 3-5 1-1 3-6-2-6 2v2l4 3 5-1 6 6-10 4-4-3-12 6-3-1v-2l-6 7-3 1-7-3-5 2v-2h-2l-1-3-5 8-6 2-1-1-11 7-5-1-12 7 5 5-1 5-1-2-3 2-4-4-1 3-6 5-4-3-16 5-3 3 2 2-14 13 4 7v4l-4 1-1 2 2 3 1-1 5 4-2 4 3 3 1-2 8 6-2 4-4-1-1 2h-4l-3-2-3 3 4 8 2-1 1 3 2-1 1 6 1-1 2 3v3l-3 1v2l4 10-3 2 1 1-3 3 3 16 1-2v2l2 1 6-1 1 3 5-2 3 3 6-4v-3l2-1-1 6-6 6 3 5-1 3-2-1-6 2-6 4-25 3-3 2 1 2-7 5v2l-6 3-2 6-1-1-3 3-1-3v3l-15 5-1 4-10-2-4 3-4-2-4 2-4-2-2-4-3 1-12-3-2 3-9 1 5 20 8 16-1 5-3-2 2 10h-3l-1 3-2-1v8h4l1 5 3 3-2 5 6 4 12-1 4-2 3-10 2-1 25-3 13 4 6-1 6 3 5-2 5 4 1 3 3 1 5 8 12 8 3 8-1 9 3 4-1 12-2 3 1 5 6 16 3 3v5l4 4 1 9 3 6-4 7 1 4 3 2 4 8-4 3v5l12 12 3-4-3-3-2-6 1-5 2-1 3-7v-5l5-2 7-6-2-8-7-2 1-3-3-9h-2l2-4h5l3-5v-5l-3-2-1-3 4-4 13-5 4-6-2-3 1-1 1 2 8-11 10-5h4l17-6 2-2 10-1 4 9-2 3h-2l2 2-4 4 2 10-5 1 3 9-7 4 3 9 4-1v2l3-3 2 2v-2h2l8-7 4 2 1-3-2-1-3-7 6-5-3-4 4-3-2-4h3v-2h4l4-3 2 10-2 8 2 1v6l7 7-1 4 2 1v2h2l-3 6 3 3 6-1 1 2h6l-1 7-6 2-1 2 2 4 14 12 10 5v2zm185-321 1-1zm0 0z"/>
  <path id="吉林市" fill="#ff6347" fill-opacity="1" fill-rule="evenodd" stroke="#ffffff" stroke-dasharray="none" stroke-linecap="round" stroke-linejoin="round" stroke-opacity="1" stroke-width="0.5" d="M679 701h5l1-5 6-5-3-6 3-5 1-6h11l3-2v-4l10-2 7 2 5 4 4-5 2 1 4-2 4 3 6-2 6 1v-2l4-3 2-5v10l2 5-1 5 2 4 3 2 1 5 4 2-1 8-6 9 1 4-2 1v5l2-1 3 2 8-5 1-4 6-2 3 9 3 1v3l10 4-1 1 5-1 5 3 2-1-1-7 6-2v-2l-2-1v-4l9-3 4-4h2l1-3h3l2-6 4-4 4-1v-9l2-2 3 1 1-3 7-3-1-2 3-3-3-1 3-5 13 3 4 5 3 1 2-3-1-2 2-1-4-6-3-1 2-7-1-2h-5l-6-7-3 3h-6l-7-3-6-4-1-4-5-5h-4l-5-6-2 1-3-2-6-10-3 1-2-2 3-8 3-1-2-7 2-7-4-5 10-1 3-3-1-1 3-2 1-4 8-5 4-5v-3l4-6v-6l-7-4 3-6-3-2 1-2 11-3-1-3 2-1 3-6-1-2 2-7h-2l-1-2 2-7-1-5 4-6 4 1 3-5h3l-1-6 1-2h3l1-4 4-3-1-2 3-2 2 1 4-7h6v-5l3-2-2-10 2-1-1-2 3-1-2-6-7-1-3-3-4-8 1-4-3-4h-2l1-2-2-2v-4l1-3 4-3 3 2v-10h-3l-14-10h3v-3l2-2-1-4h2l-2-1v-5l16-15-4-7-5 1-2-2-5 4-10-7 2-4-3-10v-11h-2l-2 6-3 2-3-1v-2l-5-4v2h-2l-1-3-3-2-3-6 6-7v-5l-2-5h-3l-11-16h-2l-3-9-4-1v-3l3-3 1-4-1-3-4-2-3-8 2-3-2-4 8-4 1 2h4l2-4 4-3v-2l-2-4-8-2-1-3-6-4-2 1-2-2h-3l-4-2-2-3-23-2-2 7-9-3 2-4-3-2-5 1-8 10-8-2-1 5-5 6-9 5-2 5h-8l-2 2-5-2-7 5-4-4v-2h-5l-6 3-12 2v-5l-4 1-12-3-3-4v-4h-4l3 4-8-3-4 2 1 2h-3v2l-6 2-9-2-2-2-3 4 1 1h-3l-2 4 1 2 5 2-1 3-3 1-1 6 4 4v3l-3 3 2 2 6-2 3 2-1 6 2 2-1 4-6 4 4 5-1 5 5 5-3 1-3 9 1 4h5l1 2v3l-4 2-2 3v5l-8 3-2-2-2 1v-2l-10 2-3-3-6-2v5l-2-1-2 5-1-6-8 1-3 5h-9v5l-5 2 1 3-1 1-5-3-5 10-3 2v3h-2l-8 10-1 8 6 12v3l-2 1 4 3-2 6h2l-1 4-7 2-1-1-2 2v4l-2 1h-4l-6-3-4 2-1-2-5 2-1-2h-6l-4 9v2l2 1-2 1v5l3 4-2 2h2l-1 2h2l4 16 3 1v2l3 3-1 5h2l1 7-3 16-2 2 1 2-3 1 3 4-3 6 3 2-1 2 3 6 6 2v2l4 2 4 10 6-2 2 8h2l1 5-7 4h-4v2l-8 3v2l-10 4h-3l-5-6-6 6-9 5h-3l-10 10v2l-3 1 2 5h2l3 6-1 2 3 6 1-1 2 6 8-1 4 7h2l-7 4-3-2v7l-5 2-5-1-2-4-1 5 2 3 10 5v3l2 2 1-2 5-2 7 4 4 6v3l6 3-3 1 3 1-4 6h3l9 5-1 7h2l1 6 6 7 5 3 3-1 2 5 4 2 13 1 9-2 3 2 5-2 4 1 2 3h3l5-5 5-1 2-4h3l5 3 2-3h4l2 5-2 4 2 4v6l-3 7 1 3 3 1 3 4 3 1 9-3 1 2 3-2 5 4h5l1-4 3-3 2 1 10-9 6 3v3l9 3zm-5-469h-2l1 1zm-3 0 1 1z"/>
  <path id="四平市" fill="#ff6347" fill-opacity="1" fill-rule="evenodd" stroke="#ffffff" stroke-dasharray="none" stroke-linecap="round" stroke-linejoin="round" stroke-opacity="1" stroke-width="0.5" d="m181 367-11 2-17-1-8 4-9-5 1-5-3-4h-4l-7-11 1-2-3-5-4 1v4l-4 3-12-2-4 2-13-1-15 3H56l1 4-2 1 2 6 6 4 6 8-4 4 1 3h3l1 4h2l5 10v5h2l2 3v13h2l1 5 3 2-3 12 7 8v7l3 12-4 2v5l-3 4-5 1-5-3-3-4-1 4 2 5 3-1 2 3-1 5-18-5-9 4v4l5 4-3 7 4 3 5-1 2 2 2 7 5 6 1 4 4-3v-4l8-2 7 12 4-5 7 10 4 3 18-1-1-3 2-1-2-1v-3l2-4 7-6 1-6-2-2 5-3 3 1 2-2 1 2 12 7-3 4-1 5 1 3 9 6-1 5h4l8 5 5 8 8 7 1-2 10-1v3l4 1-1 7h3l1-2 6 3 1-1 1 2 4-1 3-3 2 6h9l2 7-2 2 1 2-2 3 5 5-1 1 6 2 18 17-17 20 5 5h12l3 4v5l-5 3v2h-3l-2 3-1-1-3 2 1 6 13 1-1 2 3 4v6h4l-2-5 3-3 6-3 5 1v-4l4-1 7-8v-3l4-2v-2h2v-6h5v-3l2-1 1-4-1-5 4-8 4-3 7-1 6-11 10-2 3 1 6-3 2-3 12-8-1-3 10-4 4-4 4 2 17-4h8l13 19 12 6 8 6 4-8-1-3h-5l-2-3 3-11-2-3 2-2 3 2 3-1 3-3 3 3 1-1 3 5 3 1 2 5-2 8 3 12 11 2 5 5 9 1 5 3 1-5 2 4 5 1 5-2v-7l3 2 7-3-2-1-3-7-9 1-2-6-1 1-3-6 1-2-3-6h-2l-2-4 10-11-3-2v-2l-15-9-9-8-2-4 1-2 6-2 1-7h-6l-1-2-6 1-3-3 3-6h-2v-2l-2-1 1-4-7-7v-6l-2-1 2-4-1-14-5 3h-4v2h-3l2 4-4 3 3 4-6 5 3 7 2 1-1 3-4-2-5 3-3 4h-2v2l-2-2-3 3v-2l-4 1-3-9 7-4-3-9 5-1-2-7 4-7-2-2h2l2-3-4-9-10 1-2 2-17 6h-4l-10 5-8 11-1-2-1 1 2 3-4 6-13 5-4 4 1 3 3 2v5l-3 5h-5l-2 4h2l3 9-1 3 7 2 2 8-7 6-5 2v5l-3 7-2 1-1 5 2 6 3 3-3 4-12-12v-5l4-3-4-8-3-2-1-4 4-7-3-6-1-9-4-4v-5l-3-3-6-16-1-5 2-3 1-12-3-4 1-9-3-8-12-8-5-8-3-1-6-7-5 2-6-3-6 1-13-4-25 3-2 1-3 10-4 2-12 1-6-4 2-5-3-3-1-5h-4v-8l2 1 1-3h3l-2-10 3 2 1-5-8-16-4-17z"/>
  <path id="辽源市" fill="#ff6347" fill-opacity="1" fill-rule="evenodd" stroke="#ffffff" stroke-dasharray="none" stroke-linecap="round" stroke-linejoin="round" stroke-opacity="1" stroke-width="0.5" d="M341 586v4l-2 2 1 9-5 5v5l-3-1 6 17-2 2 1 6-4 11 3 21 2 4 4 1 3-4v-4h3l3 3 5 1 3 9-2 2 3 3-2 5-1-1-2 2 4 6-1 3-4 2h4l5 3v8l5 5 3-3h5l3 3-4 6 2 5-2 1v6l-2 1 4 5-4 4 7 2v3l8 5v2l-2 1 7 4 4 6-3 6 3 1 1 3-2 2-2-1-3 3 2 1 1 4-2 5 7 2 6-3 2 2 1-2h5l2-3h3l4-4 1-4 12-6h6l22-13 4-12v-6l6-2-1-2h2l2-6 2-1 4 3 4-8h2l5-8-9-1 2-2-6-8v-10l3-6-5-5 20-2 5-1 2-2 3 2 2-4 2 1 2-2-10-8v-2l-5-3-1-5-2-2-2-10 2-5v-6l2-1 1-5-4-12-2-2v-3l-10-5-7-6-9-1-5-5-11-2-3-12 2-8-2-5-3-1-3-5-1 1-3-3-3 3-3 1-3-2-2 2 2 3-3 11 2 3h5l1 3-4 8-8-6-12-6-13-19h-8l-17 4-4-2-7 6h-4l-3 2 1 3-12 8z"/>
  <path id="通化市" fill="#ff6347" fill-opacity="1" fill-rule="evenodd" stroke="#ffffff" stroke-dasharray="none" stroke-linecap="round" stroke-linejoin="round" stroke-opacity="1" stroke-width="0.5" d="m408 789 7 6-4 6 2 3-2 5 6 3-2 3 2 1-3 2-2 5h3l3-5v8l-2 4h10l-1-8 3-1 3 2v2l6 3 5 1 3-2 5 6-3 2 1 1-3 1v2l-1-1-2 4-6-1 2 6-11 15 1 3-5 1-1 3-4 3h-3l-1 4 9 5 2 3-4-1-4 2-1 7-2 3v14l2 6 2 2 1 5h3l2 2-3 4v7l-3 10 2 2 16-6 3 5 3-1 2 8 2 1-4 10 5 9v3l6 4-2 6 2 1 2 6h3l1 2-1 10 3 5-1 2 6 1v7l2 2h6l3 4v3l-4 3 4 6 1 7 6-3 3 8h10l2 3-5 9 1 4 10 3-5 4-2 5-4 1-4 5v2h4l1 2-2 8-7 7-2 7 1 2-2 3-1-1-3 2-3 7h-4l-4 3-2 8 1 1 13-6 7 6 2 6 7-2 5-5 6 3 2 4 8-5 3-5 4 2 4-2-1 5 2 2h6l3-6 4 2 6-1-4-4-4 2-1-2 5-4h3l1 2 2-1 2-8 6-3-3-3v-3l3-2 4 1-1-7 1-2 4-1 1-3-4-4 2-4h8l4-6 7-4 1-3 10-4v-7l4-1 3-10 5-2 2-9 7-7 1-4 2-2h3l1-5 4-1 3-3h6v3l-6 3h7l4-4-6-5-2-5 6-17 4-4h-2l2-10-5-1-4 9h-6l-1-5h-4l-2 3-6-2 3-4-3-2-3-8 4-3 1-10 3-7-4-4-2 2h-10l-4 2v-2l-3-1 1-2-4-5 2-8-1-2 5-5-1-4 2-6-6-9v2l-2-1v-2l-6-2-3 2-2-3 5-7-1-2h-4l-2-4-3 1-7-8h-2v-2l-3-1v-2l2-3 2 1 5-4 5 2 7-7 2 1 8-10h6l8-7h5l1-3-2-2v-3l7-6 4-1-1-3 4-5v-4l7-5 7 3v-2l5-3v-8l-5-1-1-2h-2l-1-3v-13l3-8-5-9v-7l12-13 6 1 3-3 2-15-1-8-2-3 5-4h4l3-3h3l7-13-1-2 2-1-3-6-9-3v-3l-6-3-10 9-2-1-3 3-1 4h-4l-6-4-3 2-1-2-9 3-3-1-6-5-1-3 3-7v-6l-2-2 2-6-2-5h-4l-2 3-5-3h-3l-2 4-5 1-5 5h-3l-2-3-4-1-5 2-3-2-9 2-13-1-4-2-2-5-3 1-7-5-4-5-1-6h-2l1-7-9-5h-3l4-6-3-1 3-1-6-3-2-7-9-6-5 2-1 2 4 15-3 3v6l-2 5 5 17 5 3v2l4 2 5 6-1 2-2-1-2 3-3-1-2 2-12 2-2-1-3 2-8-1 5 6-3 6v10l6 8-2 2 9 1-5 8h-2l-4 8-4-3-2 1v3l-2 3h-2l1 2-6 2v6l-4 12-22 13h-5l-13 6-1 4-4 4h-3l-2 3z"/>
  <path id="白山市" fill="#ff6347" fill-opacity="1" fill-rule="evenodd" stroke="#ffffff" stroke-dasharray="none" stroke-linecap="round" stroke-linejoin="round" stroke-opacity="1" stroke-width="0.5" d="m643 980 2-4 4-3-4-11 1-4h4l3-4v-7l2-2 8 4 5-3v-3l3-1 4-5-1-3-6-2-1-2 2-3 5-1 10 9 1 5h3l-1-5 3-7 1-1 4 6 7-14 10-7 4 2-1 4h-2l1 4 7-1 1 2 5 1-1 3 9 3v8l5 1-3 3-2-1-3 4 6 5 1 3 5-1 1 2-3 2v2h6v5l2 1h8v2h-5l-2 4-3 1-1 5-3-1v2l6 1 1 3 4-3 2 3 7-1-1 3h6l-2 3 3 2 5-4 2 3-1 2-5 2 2 2 5-2 11 6 1-4 6-1 5 6 9-2v-4h2l1 3 3-2 5 3 2-2 1 6 4 5 5 1 4-2 7 7 2-1-2-4h2l2 3 1-2 18-1 2 4v-2l3-2 3 4h2v-3h3l2 4 1-8 2-2 2 3 2-1 1 2 4-3v-3h2l2 1-1 3h4l3 2-1 2h2l2-5 2-1-1 4 2 1v2l2 1 1-2 2 2-1 5h6l1 3 1-3h5l-4 4 4 3 4-5 2 1 3-2 2-4 3-2 4 1v-5l6-6h-2l2-5-1-5 8-7v-2l3-1-1-3 5-6-1-8-4-2 2-1v-3l-3 1-3-10h-2l-4-4-3 1v-2h-2l-4-5-3-1-5-10 1-6-7-4-1-13 2-11-2-3v-11h-2l-11-12 5-3-4-4-3-10-7-14-4-3v-8h-2l-7-8-1-10-1 1-4-2-2-7-1 1-2-2h-4l-4-4 2-6 5-2h7l3-5v-4h7l3-6 7-6h2l2-3v-6l5-7-3-4 1-8h-2l1-3h-2l2-5-3-1 1-1-4-3-2-4 2-1-5-3 1-2h-3l-1-5 2-1v-2l-5-2-2-3h-7l-1-3 1-1 2 2v-2l-4-1-2-6-3-2 2-2h3l-2-1 1-3-6-3v-6l-3-1-2-4-15-4-3 5h3l-3 4 1 2-7 3-1 3-3-1-2 2v9l-4 1-4 4-2 6h-3l-1 3h-2l-3 4-10 3v4l2 1v2l-6 2 1 7-2 1-5-3-5 1 1-1-10-4v-3l-3-1-3-9-6 2-1 4-8 5-3-2-2 1-1-2 3-4-1-4 6-9 1-8-4-2-1-5-3-2-2-4 1-5-2-5v-10l-6 10-6-1-6 2-4-3-4 2-2-1-4 5-5-4-7-2-10 2v4l-3 2h-11l-1 6-3 5 3 6-1 2h-2l-3 3-1 5-7 1 1 2-7 13h-3l-3 3h-4l-5 4 2 3 1 8-2 15-3 3-5-1-13 13v7l5 9-3 8v13l1 3 8 3v8l-5 3v2l-7-3-7 5v4l-4 5 1 3-4 1-7 6v3l2 2-1 3h-5l-8 7h-6l-8 10-2-1-7 7-5-2-5 4-2-1-2 3v2l3 1v2h2l7 8 3-1 2 4h4l1 2-5 7 2 3 3-2 6 2v2l2 1v-2l6 9-2 6 1 4-3 4h-2l1 3-2 8 4 5-1 2 3 1v2l4-2h10l2-2 4 4-3 7-1 10-4 3 3 8 3 2-3 4 6 2 2-3h4l1 5h6l4-9z"/>
  <path id="松原市" fill="#ff6347" fill-opacity="1" fill-rule="evenodd" stroke="#ffffff" stroke-dasharray="none" stroke-linecap="round" stroke-linejoin="round" stroke-opacity="1" stroke-width="0.5" d="m19 239 2 1v5l-2 2 2 4-2 1 3 7-1 6-4 1 3 9-1 1h5l4 5h4l15 23 4 15 3 1 1 3 12 4-1 5-4 2-2 10-4 3v3l6-1 7 2 2-2 5-1h20l5-2 11 2 5-3v-4l4-1 3 5-1 2 7 11h4l3 4-1 5 9 5 8-4 17 1 20-3 2-3 11 3 4-1 2 4 4 2 4-2 4 2 4-3 10 2 1-3 15-6v-3l1 3 3-3 1 1 2-6h2l7-8 4-2-1-2 3-2h8l12-3 5 1 6-5 6-2 2 1 1-3-3-5 6-6 1-6-2 1v3l-6 4-3-3-5 2-1-3-6 1-2-1v-2l-1 2-3-16 3-3-1-1 3-2-4-10v-2l3-1v-3l-2-3-1 1-1-6-2 1-1-3-2 1-4-8 3-3 3 2h4l1-2 4 1 2-4-8-6-1 2-3-3 2-4-5-4-1 1-2-3 1-2 4-1v-4l-4-7 14-13-2-2 3-3 16-5 4 3 6-5 1-3 4 4 3-2 1 2 1-5-5-5 12-7 5 1 11-7 1 1 6-2 5-8 1 3h2v2l5-2 7 3 3-1 6-7v2l3 1 12-6 4 3 10-4-6-6-5 1-4-3v-2l3-2 9 2 1-3 5-1 2-3 9-1-2 2h6l1-4 3-2 2 4h4l2 3 12-5 6-1 4 2 2-4 5-4v-3l3-2h12l5 8v3l7 5-1 3 5 4-2 2 2 3 3-3 9 1 1 6 5 1 2 10 6 2 10-5 8-1-1-4-2-1 3-5-1-1 2-5h-3v-4h2l2-10 6 3 2-9h7v6h4v-3l2 1 3-2-4-8-5-3v-5l8-5v-8l-3-5 2-6-2-4 4-4-4-8-1 1-2-3h-5l-2-2-1 2-3-1-2-4-6-2-10 2v-4l-2 1-1-3 2-1-1-1-3 1-2-3-9 1-4-6h-3v-2h-2l-2-3-4 1-3-3 1-5-5-3-2-4-3 1v2l-2-1 1-3-6-7 1-3-4-1-2-3 2-1-2-2 4-10V4l-2-1v-5l-2-2 3-1v-2h-2l2-5-4-1 2-4-2-3-5 2-3-1-1-3h-2l-11 9h-3l-10 5-3-5h-10l2 7-12 17h-4l-6-7-2 1 1 2-2 2-4-4h-5l-11 5-9-3-9 7h-4v-4l4-3V5l-5-1-2-2-4-16-13-1-3-4v-5l-5-3-1 6-4 6-1 4 2 6-1 4-2 1-7-5h-2l-6 5-3-1v-7h-3l-6 6-7-2-9 5-12-5 2 5-7 6-7-4-6-9-9 3-2 3-6-3-1-3-46 32-7 2-4 11 4 6-3 7-23 4-40 44-20 14-7 8-6 3h-2l-2-3-5 1 1 8-14 19 5 11 14 22v5l-13 3-6 6-9 2-14 7-9 10-4 2-2 4-2-1-9 6-2 3v5z"/>
  <path id="白城市" fill="#ff6347" fill-opacity="1" fill-rule="evenodd" stroke="#ffffff" stroke-dasharray="none" stroke-linecap="round" stroke-linejoin="round" stroke-opacity="1" stroke-width="0.5" d="m247-6-2-6-2-1 3-7-2-8-2-1-12 2-4-7 2-4-1-2h-4l-3-2-1-3 3-3-2-3-7 5-8-2-3-6 3-1 1-3-1-2h-4l3-3v-2l-7-4-2-7-7-6-6 1-3-6 1-3 10-4-4-4-1-6 6-2v-6l-2-6-12-5-4-6-1-8 2-3 7-2 1-2-5-5v-2h7l2-4-2-5-4-2-1-3 3-2v-2l-4-4 1-3 3-2-5-7 4-4-2-2h-6l1-4-3-6 1-2 3-1v-2l-4-5-1-4 2-3-1-5-4 1-3 8-3-1-1-1 2-8-2-3-9 1-4 4-4 1v2h-2l-1 2-6 2-2-1-3 2-4-1-5 2-2-2-11 2-2 2v3l-5 2-1-3-6-1-6-5-4 3 1 1-5 3-4-3h-7l-3 6-4-2-1-4h-2l-3-3-4 2-4-1v-2l-5-4-5 1-14 11-3 5v9l-5 1 2 11-8 2-4 6-46 7 6 46-5 11h-5l-1 3-3 2 8 18-4 4v2l-4 2 2 4h-3v4l-13 1-2-5 1-2-3-1-2-10-7-2-8-11-2 1-5 9-3-1-1-19-9-15h-16l2 16-6-1v2l-3 2v4h-3l1 1-5 4v2l-2-1-2 3-3-4v-4l-2-2-3 1v-4l-3-3-8-3-2 1-1-3-9-2-2-4v-6l-2-3h-3l-2-3v-4l-6-2-1-5-2 1-1 3-5-3 1-1-7-1v-4l-6-1v2h-5l-4-6-6-1 1 2-9 5-1 2 1 2h3l5 6-1 8 2 1 1 3-3 4 2 7h-2l-4 4-4 7 2 2-3 2v6l-6 2-6 6-6-2-2 5 4 3v5l16 8 5-1 5 2v-5l10-4 5 2h9l5 5 6 19-1 6-6 1 1 7 4 4 2 12 11 9 17 7 4 9-6 9v21l17 5-2 18-2 3-5 3h-8l-7 10 2 19-4 12-4 4 2 14-1 10h-6v4l2 4h2l1 6 2 2-1 3 4 8-2 2 2 5 10 1 2 2-5 4-5-3-3 5 1 3 9-2 2 4-2 3-6 3-3 8 2 15 5 7-2 2 13 6 1 4 4 5-2 7 2 3 8 2 3-1 1 42-5 11 1 3 7 6 31-1 29-12h6l3-3 2-6 11-13 17-7 34-26 15-2 3-4v-5l2-3 9-6 2 1 2-4 11-9 1-3 5-1 10-6 9-2 6-6 13-3v-5l-14-22-5-11 14-19-1-8 5-1 2 3h2l6-3 7-8 20-14 40-44 23-4 3-7-4-6 4-11 7-2 25-17 5-5 11-6z"/>
  <path id="延边朝鲜族自治州" fill="#ff6347" fill-opacity="1" fill-rule="evenodd" stroke="#ffffff" stroke-dasharray="none" stroke-linecap="round" stroke-linejoin="round" stroke-opacity="1" stroke-width="0.5" d="m918 863 5-2 11-1h53l1 2 4-1 5 5 10-1 3 2 6-3 1-5 6-2 3 2 1 3 3 1 5-2 6-7 8 4 2-2h4l5 3 9 1 1 2 6 1 5-4 1-7-2-2v-4l4-4 6 1 6-3v-6l3-3h4l-2-3 2-1 2 4 4-1v2l4-4v-3l6-1v-4l5-3v-2h4l1-2-4-3 2-2-2-2-2 2-1-1v-5l8-2v-4l-4-1 7-4v-2h-7l2-2h6l2-3-5-5 2-6 3 1 3-3 3 2 2-2h3l1-1-3-3 2-2-1-3 3-1 2 4h2l-1-1 2-1-3-5 2-4 3-1 1 4-2 3 3 2 2-1v-4l2-1 4 3 5-1 3 4 6 3 1 4 3 1 4 7h2v-3l4-1-2-2v-3l3-3h3l3-8-5-1 5-4h2l4 9h10l3-2 5-9-2-7 2-11-2-7 4-4 1-4h4v-3h-5l2-4-3-3 3-3 3 4 1-2-2-1-1-4 4-3-5-6-1-4 3-6v-4l5-8 1-14 3-2 3-15 5-1-3-5v-6l11-1-1-2h-4l-1-3 10-5h2l2 8h7l3 3h9l8-5 6 3-4 6 1 5-5 2 7 5 6-2 11 3 5-1 3 3-6 23 3 2-3 3v10l2 6 2 2 5 1 7 13 8 5 2 7 6-4 5 3-4 5 3 9 4-1 3-4-4-5 1-4 4-5 2-1 5 2 1 4-2 3 3 12 4 5 1 7 5 4-3 7 2 4h5l5 3 1-1-8-5v-9l-6-5v-6l2-3-1-3 2-2h3l2 2v-3l4-6-2-10-2-1-3-9-4-2v-2l-8-4-11 4-2-4-4-2-2 1-4-6h5l-1-3 2-2 6-5 12-4 5-7 3-1 2 2 1-2 13-7h8l2 4 6-4 3 3 2-1 1-6 3-4h8l8 7 3-2 1-3 2 1 1-2h4l2 3 2-1 1 3 12-2-1-5-3-3-1-4 3-4 5 2 2-2 3 3h5l2-4 3-1 1-8h-4l-2-2v-10l-3-1 5-8-1-4 7-2 2 2v-10l4-2 3-7h2l-2-6 2-6-4-4 1-7 9-7v-4l3-4v-15l2-5 7-5-4-10 1-5 2-1 1-9-3-1-1 2 2 2-3 2v2l-10-2v3l-6 3-1 3-4-1-3 4-3 1-3-2-1-4h-3l-14-15h-5l-3 4-12 9-2 6h-3l-6-2-3-3-3-13h-3l-3-6-3 2-3-6h-4l-2-4h-4l-1-2-5 1-1-5-2 1-1-2h-5l2-7-2-2-5 1-1 2-3-4-3-1-2 2-8-4-2-4h-4l-2 2-8-1-3-13 5-10-8-10v-11l-3-5 4-2-3-4 1-1-2-4 4-4-1-2h-2l-2-7-4-1v-5h2l3-6-1-3 2-4-2-2 1-5-3-2-4 3-3 5v4l-7 6 1 3-3 3v2l-4 2-2-2-7 2v2l-6 5v6l-2 1v2h-5l-1 6-6 5-5-2v-2h-4l-2-4-2-6 3-7v-7l-2-3 1-1-3-1 1-1-3-3 2-2-1-3h-2l-1-3-5-4h-3l-2 3-1-2h-2l-1 3h-2l-2 3h-2v-3l-3 4h-2l-4 6-6 2-1 2 2 6-3 1 2 3-1 6-5-1-3 1v3l-2 1-5-1-6 1-1 2-2-1v-2h-7l-8 3h-7l-6-3-1 2h-4l-3 6-6 2-2 6h-4v2l-7 3-7-3-1 4-5-5-4-1-8 8 2 9-2 1 2 1-1 5 3 2v2l-3 3v12h2l1 3-1 12-10 7-1-3h-3l-5 4-2-1-3 3-10 2-5 4-14-8-4 3-6 1-3-4h-2v-5l-3-3-5-20-4-5-3-11-3 1-5-3v-2l4-3h3l-4-11-4-4 7-10-9-10-3-1v2l-4-1-2 2h-4v-15h-3l-7-10-2-15-7-11 1-2-4-5-3-1-5-9-3-11v-6l3-6-4-2 4-16-5-5 5-2 1-7-4-9 1-6-5-5-1-5-8-4-2-7-7 3-7 6-1 3-6 3-1 3h-5l-3 3-4 18-3 4-2 1-1-3-3-1-2 3-3-3-3 1-4-4-4 5 3 11h2l1 3h3l-2 5-5 4v3h5v3l3 2v4l-2-1v9h-4l-2 3 2 3h3l-1 3 3 3-11 8-3-1-3 3-11 2-6 6h-9l1 2-16 15v5l2 1h-2l1 4-2 2v3h-3l4 2 2 3 11 5v10l-3-2-4 3-1 7 2 2-1 2h2l3 3-1 5 4 8 3 3 6 1 2 3 1 3-3 1 1 2-2 1 2 9-3 3v5h-6l-4 7-2-1-3 2 1 2-4 3-1 4h-3v8h-3l-3 5-4-1-4 6 1 5-2 7 1 2h2l-2 7 1 2-3 6-2 1 1 3-11 3-1 2 3 2-3 5 5 3 3 5-5 9v3l-4 5-8 5-1 4-3 2 1 1-3 3-10 1 4 5-2 7 2 6-3 2-3 8 2 2 3-1 6 10 3 2 2-1 5 6h4l5 5 1 4 6 4 7 3h6l3-3 6 7h5l1 2-2 7 3 1 1 4 3 2-2 1 1 2-3 6 1 3 6 3-1 3 2 1-5 1 3 3 2 6 4 1v2l-2-2-1 1 1 3h7l2 3 5 2v2l-2 1 1 5h3l-1 2 5 3-2 1 2 4 4 3-1 1 3 1-2 5h2v11l3 4-5 7v6l-2 3h-2l-7 6-3 6h-7v4l-3 5h-7l-5 2-2 6 4 4h4l2 2 1-1 2 7 4 2 1-1 1 10 7 8h2v8l4 3 7 14 3 10z"/>
</svg>
