<?xml version="1.0" encoding="UTF-8" standalone="no"?>
<svg
   width="2039.9999"
   height="1745"
   viewBox="-251 -228 2039.9999 1745"
   version="1.1"
   id="svg1"
   xmlns="http://www.w3.org/2000/svg"
   xmlns:svg="http://www.w3.org/2000/svg">
  <defs
     id="defs1" />
  <path
     stroke="#ffff00"
     stroke-opacity="1"
     stroke-width="0.5"
     stroke-linecap="round"
     stroke-linejoin="round"
     stroke-dasharray="none"
     fill="#1e90ff"
     fill-opacity="1"
     fill-rule="evenodd"
     d="m 952.99999,633 7,12 9,-1 8,4 5,5 6,-4 v -4 l 5,-11 3,-3 1,3 H 1003 v 7 l 2,3 -2,3 6,3 1,5 2,-1 6,4 9,3 -1,3 5,2 2,8 h 2 l 4,8 4,-3 -3,-1 4,-3 -2,-2 4,-6 3,1 v -6 l 9,-2 1,2 5,-3 6,-5 v -5 l 10,1 -3,-6 1,-3 9,2 2,-6 3,-1 3,3 7,-2 3,5 3,-4 3,1 4,-3 v -7 l -2,-5 3,3 1,-3 4,1 3,-5 -3,-2 -1,-10 v -16 l 3,-6 -6,-8 h -7 v -4 l 5,-7 -1,-3 -4,1 v -5 l -6,-6 v -6 l -4,1 -3,-2 -3,-11 -3,2 -3,-12 -11,-2 -2,-3 -3,1 -3,-4 -14,-4 3,-7 -4,-4 -9,-3 -3,2 -9,-1 -1,4 -5,-2 -2,7 -6,2 -6,-2 -13.00001,1 -3,-3 h -9 l -1,-3 4,-5 v -9 l -4,-4 -5,-1 -2,-4 h -2 l -6,-6 -1,-3 -7,-6 1,-8 -3,-2 1,-3 -5,-7 -7,-4 -3,-4 v -8 l -3,-1 -4,-6 v -4 l 7,-6 -7,-12 1,-1 h -13 l -2,-4 h -5 l -7,3 -2,4 -7,2 -6,8 -7,2 -4,-2 -7,3 2,10 -2,7 2,3 1,12 -4,3 -1,6 -6,10 -1,7 -3,6 3,2 v 12 l -10,7 -2,3 v 7 l -8,6 h -5 l -5,3 -3,5 -6,3 -8,-6 -6,1 -5,-2 -6,1 -8,10 -7,-4 -9,2 -8,5 3,7 5,6 -1,3 7,-3 6,10 h 3 l 3,3 -1,13 7,8 -2,6 4,1 1,3 -4,8 h -4 l -2,4 -2,8 v 7 l 2,3 -12,14 v 7 l 2,2 1,8 12,3 7,-9 5,4 1,4 h 3 l 2,-7 7,-4 6,1 1,5 9,1 -2,13 2,4 -2,3 7,9 8,-6 2,5 h 2 l 1,-4 -3,-3 h 4 l 2,6 3,-6 6,-3 2,-3 -2,-4 11,-5 4,1 2,-4 4,3 v -6 l 8,-3 -2,-5 h 4 l 2,-3 4,-1 -2,-4 h 4 l 8,-8 15,-1 2,4 h 4 l 1,-5 5,-1 -1,3 z m 27,-151 v 1 z m -121,193 v 1 z M 1003,641 Z"
     id="成都市" />
  <path
     stroke="#ffff00"
     stroke-opacity="1"
     stroke-width="0.5"
     stroke-linecap="round"
     stroke-linejoin="round"
     stroke-dasharray="none"
     fill="#1e90ff"
     fill-opacity="1"
     fill-rule="evenodd"
     d="m 992.99999,869 3,-5 -1,-3 8.00001,6 4,-2 2,-4 -3,-6 6,1 3,3 4,1 9,-2 2,2 h 11 l -1,4 5,-1 v 3 l 8,11 6,3 7,-5 3,-5 5,-3 13,1 v 5 l -3,4 4,8 3,-1 3,4 1,5 -6,7 3,10 4,2 4,-2 h 6 l 2,2 2,-3 h 7 v -3 l 4,-1 v -6 l 4,1 7,-3 1,8 4,1 3,5 4,1 12,11 16,-2 1,3 h 6 l 1,-4 2,-1 2,4 h 3 l 2,2 2,-3 -5,-3 5,-5 1,-6 -7,-4 -3,2 -5,-2 v -6 l 11,-13 -1,-3 5,-6 -3,-3 2,-3 -5,-5 -4,2 -4,-4 2,-3 -8,-5 -5,1 -4,-6 2,-3 -9,-7 -2,-6 -5,-4 2,-6 6,1 1,-3 -4,-5 1,-2 -4,-6 -3,2 2,2 -4,2 2,3 h -7 l -5,5 -5,-6 -3,2 -9,-5 1,-3 -5,1 -3,8 -4,-6 h -4 l -2,2 -5,-1 v 11 l 3,-1 -1,7 -4,-2 1,4 h -6 l -1,-2 -6,-2 v -3 l -10,-10 -5,4 -4,-3 -2,2 -2,-2 -2,4 -5,-8 h 5 l -1,-13 -8,-9 1,-8 h -9 l -8,-4 -3,3 v 5 l -7,4 -6,-9 -5,-1 -2,-4 -4,-1 v 3 l -7.00001,2 -5,-5 -3,8 -5,2 5,6 -1,4 -5,4 h 3 l 3,5 -3,5 -4,-5 -7,7 -5,-2 -2,3 1,7 8,-2 1,4 h -3 v 5 l 2,2 6,-4 1,6 4,-2 v 4 l -4,2 -1,3 h -5 l -4,-2 -1,5 2,2 9,2 1,5 -5,4 -1,4 1,1 5,-4 1,13 z m -5,-58 v 1 z m 3,-5 z"
     id="自贡市" />
  <path
     stroke="#ffff00"
     stroke-opacity="1"
     stroke-width="0.5"
     stroke-linecap="round"
     stroke-linejoin="round"
     stroke-dasharray="none"
     fill="#1e90ff"
     fill-opacity="1"
     fill-rule="evenodd"
     d="m 566.99999,1509 -1,-7 2,-9 5,-4 7,-2 -1,-11 3,-5 1,-8 2,-3 -2,-8 3,-18 7,-1 3,5 4,2 6,-15 -3,-9 1,-7 -2,-5 h -3 l -2,-7 -3,-1 2,-3 v -9 l -4,-3 1,-5 h -2 l -2,5 -2,1 -2,14 h -3 l -1,-17 -10,-1 -4,-4 -1,-4 h -2 l -1,-6 -8,-6 -7,-2 -5,-8 -1,-15 13,-9 v -3 l 6,-10 2,-10 -10,-6 -3,2 -6,-1 -5,-5 -6,-11 -1,-8 4,-9 -1,-5 -5,-3 v -2 l -7,-1 -7,10 -5,3 -3,10 -8,-2 -9,5 1,5 -2,6 -4,3 -7,-8 -4,1 -3,-3 h -6 l -7,3 h -9 l -5,3 -4,13 2,2 -3,15 16,7 v 5 l 7,1 -2,7 2,4 h 8 l 2,3 8,1 6,9 -5,8 2,3 -4,3 6,4 -1,6 6,-1 3,-3 4,2 -2,-9 3,-2 9,3 -1,3 -3,2 1,3 -8,6 v 2 l 5,4 -4,6 1,7 -12,1 4,15 3,-2 1,5 3,4 9,-1 4,7 6,2 5,6 8,6 -1,8 6,2 -4,6 4,1 -3,2 -4,-2 -5,2 -2,4 2,4 4,3 2,5 4,-2 4,1 3,-3 3,4 5,1 7,10 7,3 -3,8 5,6 z m 63,-149 -5,-7 9,-1 2,-7 -2,-5 4,-2 v -5 l -2,-2 2,-9 -2,-9 4,-4 v -9 l -5,-2 -1,-3 -5,-1 -3,-9 -7,2 -7,5 -6,13 -3,2 -2,-4 -4,-1 -5,-5 -7,4 -2,-7 3,-1 -6,-10 1,-5 -2,-1 2,-5 -3,-5 -4,10 v 6 l -2,2 3,3 -2,8 -7,1 -3,4 -2,10 -6,10 v 3 l -13,9 1,15 5,8 7,2 8,6 1,6 h 2 l 1,4 4,4 10,1 v 4 l 8,-2 2,-5 h 2 l -1,5 4,3 2,-4 5,1 2,-5 3,4 -1,5 3,4 -1,3 8,5 4,-1 v -8 l 4,-1 v -2 l 4,-3 v -4 l 3,-4 v -4 l -4,-2 3,-3 -3,-3 z m 4,-8 -9,1 5,7 h 6 l -3,-5 z"
     id="攀枝花市" />
  <path
     stroke="#ffff00"
     stroke-opacity="1"
     stroke-width="0.5"
     stroke-linecap="round"
     stroke-linejoin="round"
     stroke-dasharray="none"
     fill="#1e90ff"
     fill-opacity="1"
     fill-rule="evenodd"
     d="m 1219,844 -4,1 -3,6 -3,-2 -5,2 -9,13 -1,6 h -3 l -2,3 3,3 -5,6 1,3 -11,13 v 6 l 5,2 3,-2 7,4 -1,6 -5,5 5,3 -2,3 -2,-2 h -3 l -2,-4 -2,1 -1,4 h -6 l -1,-3 -3,1 4,3 2,4 5,2 2,16 4,10 -6,5 2,2 1,5 -3,1 1,3 -2,5 -6,4 1,9 6,8 v 5 l 4,1 2,4 -1,6 -8,10 19,-1 v 3 l 5,1 v 9 l -2,3 -4,1 3,2 1,4 5,5 -1,12 3,10 -1,5 3,6 -2,3 -13,1 -9,7 -4,6 -5,1 1,6 -3,3 3,6 6,1 5,-4 5,3 2,13 -3,4 h -3 l -3,3 3,11 -1,4 13,1 v 2 l -5,1 -2,2 3,5 v 12 l 3,1 3,-4 h 3 l 2,-4 16,-6 3,2 4,-2 7,2 4,3 2,5 10,2 3,10 4,2 4,-5 h 10 v -5 l 11,-2 11,3 5,-6 9,-3 2,4 10,-5 7,1 7,-3 v -3 l 12,-1 12,5 6,-1 8,-4 5,-5 8,-3 -5,-4 5,-5 -3,-3 v -4 h -4 l 1,-8 3,-4 -6,-10 -8,-2 -1,-3 4,-4 -2,-9 -4,-1 -1,-4 -4,-4 -15,-7 -5,1 -12,7 1,4 -4,-2 -7,3 -1,-5 -4,-3 -2,3 h -6 l -1,2 -4,-2 1,-2 -4,-4 2,-9 4,-7 -3,-4 -2,1 -3,-2 -4,-10 -5,-1 -2,-5 -3,4 3,2 -9,1 -1,7 -8,-3 -3,-5 -6,-3 3,-8 -2,-14 -6,-2 v -7 l 3,-7 10,-6 2,-11 h 5 l 5,-6 2,6 5,-5 2,2 16,2 4,-3 -3,-3 v -10 l 8,-2 v -5 l 4,-2 2,-10 2,3 5,2 4,9 9,2 5,10 h 11 l 5,12 8,4 3,4 7,1 2,7 5,4 9,1 -1,-10 -5,-3 -1,2 -2,-5 3,-6 -4,-7 1,-3 -5,-4 3,-3 -2,-1 -1,-7 -3,-6 -3,-1 -1,-8 -4,-8 4,-6 -11,-12 -6,-4 -4,4 -9,1 -5,-5 -4,3 -2,-2 1,-8 h -5 l -3,-4 -6,2 -4,5 -7,4 v 4 l -3,-1 -3,-6 -4,2 -4,-4 -6,2 1,-2 -3,-7 -5,-3 1,-4 -4,-7 3,-4 -5,-7 v -5 l 4,-1 -5,-1 -1,-8 -3,-1 1,-9 -3,-14 4,-1 -2,-2 -5,6 -2,-1 v 5 h -3 l -3,-6 -5,5 1,-3 -10,-1 -7,3 -2,-5 -6,1 -2,-2 1,-6 z m -35,252 -1,2 z m 29,-245 v -1 z m -28,173 z"
     id="泸州市" />
  <path
     stroke="#ffff00"
     stroke-opacity="1"
     stroke-width="0.5"
     stroke-linecap="round"
     stroke-linejoin="round"
     stroke-dasharray="none"
     fill="#1e90ff"
     fill-opacity="1"
     fill-rule="evenodd"
     d="m 1173,552 h -2 v -6 l -7,-4 v -2 l -7,1 -1,-3 -9,-2 -5,-6 -2,-7 1,-6 -6,1 2,-6 -4,-1 -3,-10 h -5 l 1,1 -1,-1 -2,2 h -3 l -1,-2 h -5 l 2,-3 -1,-5 -4,-3 2,-4 -2,-2 -1,-8 -3,-1 -5,-7 3,-4 -1,-2 -5,-1 -3,-7 -4,1 -1,-12 5,-3 1,-9 -3,-2 -1,3 h -9 l -1,-7 -3,-2 v -4 l -13,-6 v -9 l -11,-9 -5,7 -3,1 v 4 l -11,2 -6,-1 -2,2 -3,-3 -2,1 -14,-17 h -6 l -6.00001,-11 -4,-2 -2,2 -3,-1 -1,-5 2,-3 -3,-2 -2,-9 -6,-5 v -4 l 3,-6 -4,-4 -2,2 -8,-2 -4,4 -5,-1 -11,9 -4,16 1,6 -3,5 -7,-5 -12,14 2,9 2,-1 2,4 h 13 l -1,1 7,12 -7,6 v 4 l 4,6 3,1 v 8 l 3,4 7,4 5,7 -1,3 3,2 -1,8 7,6 1,3 6,6 h 2 l 2,4 5,1 4,4 v 9 l -4,5 1,3 h 9 l 3,3 13.00001,-1 6,2 6,-2 2,-7 5,2 1,-4 9,1 3,-2 9,3 4,4 -3,7 14,4 3,4 3,-1 2,3 11,2 3,12 3,-2 3,11 3,2 4,-1 v 6 l 6,6 v 5 l 4,-1 1,3 -5,7 v 4 h 7 v -6 l 4,-2 1,2 4,-3 4,1 v 4 l 4,-3 3,6 -1,4 4,8 h 7 v -4 l 8,3 2,-2 3,-9 6,-8 5,-3 -2,-3 v -4 h 3 l 2,-6 z m -53,-49 z m 3,0 z m 2,-2 1,1 z m -27,-43 1,1 z"
     id="德阳市" />
  <path
     stroke="#ffff00"
     stroke-opacity="1"
     stroke-width="0.5"
     stroke-linecap="round"
     stroke-linejoin="round"
     stroke-dasharray="none"
     fill="#1e90ff"
     fill-opacity="1"
     fill-rule="evenodd"
     d="m 1226,377 -8,-7 h -3 l -1,-13 -5,1 -6,-3 2,-10 -5,-6 v -3 l -6,4 -5,-2 5,-4 v -3 h 5 v -6 l -4,-5 -4,1 -1,2 -3,-3 v -8 l -7,-1 3,-10 -3,-5 -4,-1 4,-8 -4,-4 1,-4 -3,-3 4,1 3,-4 1,2 4,-3 3,7 2,-10 h -3 l 1,-11 6,-6 -5,-3 5,-3 -2,-4 -5,-2 4,-6 -6,-2 4,-5 -1,-2 3,-6 v -3 l -3,1 -3,-3 3,-3 -1,-4 -13,4 -12,-2 -4,2 -1,4 -7,-1 -2,5 -7,4 1,-5 -7,-6 2,-8 h -6 l -5,2 -5,-7 -8,1 -13,-10 1,-4 -4,-4 1,-2 -2,-4 2,-7 -2,-2 1,-5 -8,-6 -10,-1 -4,-8 -3,-1 v -5 l 3,-9 -7,-6 -2,-6 -5,-2 -5,1 -3,-6 -10,1 -7,-4 v -3 l -9,-5 -1,-3 -13,-3 -3,-13 -5,3 -10.00001,-8 -6,-9 -9,-9 -8,-1 -10,-8 -5,1 -2,7 1,4 -4,10 1,4 -2,1 1,6 7,2 v 4 l -5,5 6,5 6,-1 v -3 l 8,-5 4,2 1,10 h 3 l 4,10 -3,5 5,4 5,11 -3,18 1,10 -5,13 -9,1 7,-5 -1,-8 -8,-9 -3,-8 v -5 l -6,-5 -5,3 -3,-2 -13,3 -5,-1 -3,4 -4,2 -2,6 12,16 -1,3 2,14 -5,14 6,11 11,2 10,12 h 6 l 1,3 10,3 1,-3 5,-3 4,-13 5,3 v 2 l 7.00001,8 1,8 -6,-1 -7.00001,4 -4,5 -1,4 -3,2 2,5 -4,-3 -5,3 -9,-1 -10,2 -4,-5 h -9 l -5,-3 -9,-1 1,8 -5,-1 v 3 l -3,4 3,6 -2,3 -4,2 -6,10 -1,7 2,4 9,2 6,4 h 5 l 8,-5 7,8 3,11 8,-2 2,4 3,-1 3,4 3,-2 9,2 1,3 h 3 l 4,8 v 10 l -4,1 -1,3 -8,1 -1,3 4,4 -3,6 v 4 l 6,5 2,9 3,2 -2,3 1,5 3,1 2,-2 4,2 6.00001,11 h 6 l 3,5 4,2 3,6 4,4 2,-1 3,3 2,-2 6,1 11,-2 v -4 l 3,-1 5,-7 11,9 v 9 l 13,6 v 4 l 3,2 1,7 h 9 l 1,-3 3,2 -1,9 -5,3 1,12 4,-1 3,7 5,1 1,2 -3,4 5,7 3,1 1,8 2,2 -2,4 4,3 1,5 -2,3 h 5 l 4,2 2,-2 h 5 l 3,10 4,1 -2,6 6,-1 -1,6 2,7 5,6 9,2 1,3 7,-1 v 2 l 7,4 v 6 l 11,-6 5,1 5,-5 -2,-15 -5,-5 -1,-7 -5,-2 -1,-2 3,-2 -6,-11 3,-1 v -6 l -4,-12 3,-1 2,-5 -1,-2 5,-5 4,2 10,-1 8,-5 2,-7 5,2 5,17 4,-1 4,3 h 4 l 3,6 3,2 h 5 l 6,3 1,5 4,3 4,-1 -1,-3 8,-2 1,-3 h 5 l 5,-5 -1,-7 2,-3 -2,-2 3,-3 -2,-4 1,-5 -3,-4 h -6 v -17 l -4,-2 -2,-5 -4,-3 -3,2 -1,-3 3,-5 -1,-3 4,-1 3,-6 -1,-5 -3,-2 -2,2 h -4 l -3,3 -1,-5 -3,3 -3,-2 -2,2 -5,-2 -3,-5 1,-4 3,-3 -6,-6 -2,2 -3,-1 4,-4 z"
     id="绵阳市" />
  <path
     stroke="#ffff00"
     stroke-opacity="1"
     stroke-width="0.5"
     stroke-linecap="round"
     stroke-linejoin="round"
     stroke-dasharray="none"
     fill="#1e90ff"
     fill-opacity="1"
     fill-rule="evenodd"
     d="m 1226,377 7,-5 v -5 h 6 l 1,2 h 8 l 4,-4 1,7 2,-1 1,-6 3,-1 -1,-3 4,-3 v 3 l 5,-1 3,-9 4,-3 1,-14 4,2 4,-4 9,15 h 5 l -2,3 5,8 4,-3 -1,-4 5,5 4,-5 -1,-3 6,-2 4,2 5,-5 h 5 l 3,-3 5,1 -2,-3 6,-5 2,-6 3,-1 -1,-6 -2,1 3,-9 2,4 3,1 6,-3 2,1 -1,7 3,3 7,-3 2,2 3,-5 -1,-3 4,1 3,-4 3,-1 2,-4 4,1 5,9 4,-1 v -14 l 3,-4 -3,-2 4,-3 -2,-1 5,-5 h 3 v -3 l -3,-4 h 6 l 2,-7 3,-4 -1,-5 h 3 v -4 l 3,-3 h 5 l -5,-3 6,-7 -2,-10 2,-11 18,-5 2,-5 7,1 v -6 l 7,2 4,-2 -6,-6 -1,2 -2,-5 -7,-2 v -23 l -2,-7 -5,-4 2,-13 -2,-5 2,-7 -3,-3 -1,-11 -2,1 -7,-2 -4,3 -9,2 -4,4 -8,-2 v 4 l -6,5 -5,-2 -2,-5 -5,-5 -9,-2 -5,2 -4,-5 -15,-1 v -2 l -3,1 -2,-4 -4,1 -11,-11 1,-3 5,-3 v -6 h -5 l -4,-6 -4,-1 -2,6 h -3 l -5,-4 -8,5 -6,-3 -6,2 -1,2 -4,-1 -3,7 1,4 -7,5 -2,-4 h -4 l -2,3 -3,-1 -8,7 -9,5 -6,1 -2,-6 -5,-1 v -5 l 2,-1 -2,-3 v -4 h -4 l -2,-12 -5,-6 -2,-10 -5,-3 -6,1 -2,2 -1,8 -5,1 8,23 5,1 1,4 -2,4 h -4 l -6,4 -5,1 -3,6 -7,2 -2,3 -7,1 -3,-3 h -4 l -1,7 -13,7 -6,2 -3,-3 -3,-7 -9,-2 -3,2 -7,1 -8,6 -9,1 -1,-4 -5,-7 -5,-2 -4,4 h -6 l -5,2 -8,-8 -5,2 -6,-1 -3,9 v 5 l 3,1 4,8 10,1 8,6 -1,5 2,2 -2,7 2,4 -1,2 4,4 -1,4 13,10 8,-1 5,7 5,-2 h 6 l -2,8 7,6 -1,5 7,-4 2,-5 7,1 1,-4 4,-2 12,2 13,-4 1,4 -3,3 3,3 3,-1 v 3 l -3,6 1,2 -4,5 6,2 -4,6 5,2 2,4 -5,3 5,3 -6,6 -1,11 h 3 l -2,10 -3,-7 -4,3 -1,-2 -3,4 -4,-1 3,3 -1,4 4,4 -4,8 4,1 3,5 -3,10 7,1 v 8 l 3,3 1,-2 4,-1 4,5 v 6 h -5 v 3 l -5,4 5,2 6,-4 v 3 l 5,6 -2,10 6,3 5,-1 1,13 h 3 z m 175,-84 2,1 -1,-2 z"
     id="广元市" />
  <path
     stroke="#ffff00"
     stroke-opacity="1"
     stroke-width="0.5"
     stroke-linecap="round"
     stroke-linejoin="round"
     stroke-dasharray="none"
     fill="#1e90ff"
     fill-opacity="1"
     fill-rule="evenodd"
     d="m 1155,588 -1,2 4,6 -1,3 2,5 v 3 h -3 l -1,2 4,2 -3,5 4,1 6,12 h 4 l 1,3 12,4 v 4 l 7,2 1,-2 11,-3 3,1 3,-2 2,6 7,-4 3,8 4,-1 6,5 v 4 l 8,4 1,-4 9,10 3,-2 9,-1 2,-7 h -4 l -3,-3 1,-9 8,3 1,2 h 9 l 2,-5 -4,-1 1,-8 h 5 l -2,-3 4,-3 3,-6 -2,-1 2,-5 2,1 2,-5 5,-3 5,6 v 4 l 5,-4 4,1 1,4 3,-2 4,5 5,-1 4,2 2,-2 -3,-3 1,-4 -2,-4 -3,1 -3,-4 4,-3 -3,-12 -1,3 -2,-3 -4,1 2,3 h 4 l -5,6 -6,2 v -8 h -3 l -2,2 -2,-1 3,-4 2,-8 -9,-12 v -4 h -3 l 1,-6 -4,-13 v -10 l -2,-5 3,-4 -8,-8 -4,-8 h 2 l -2,-6 -5,-1 -2,-5 -6,4 v -5 l -8,-8 -4,1 -4,-3 -1,-5 -6,-3 h -5 l -3,-2 -3,-6 h -4 l -4,-3 -4,1 -5,-17 -5,-2 -2,7 -8,5 -10,1 -4,-2 -5,5 1,2 -2,5 -3,1 4,12 v 6 l -3,1 6,11 -3,2 1,2 5,2 1,7 5,5 2,15 -5,5 -5,-1 -9,6 1,1 -2,6 h -3 v 4 l 2,3 -5,3 -6,8 -3,9 z m 5,29 z m -4,-10 z m 23,28 z"
     id="遂宁市" />
  <path
     stroke="#ffff00"
     stroke-opacity="1"
     stroke-width="0.5"
     stroke-linecap="round"
     stroke-linejoin="round"
     stroke-dasharray="none"
     fill="#1e90ff"
     fill-opacity="1"
     fill-rule="evenodd"
     d="m 1046,693 -2,7 4,3 -3,8 3,2 -1,1 3,3 v 4 l 2,1 -4,18 4,1 -3,4 -3,1 -2,7 -3,3 -5,1 -3,-4 -11,6 2,4 -5,-2 -9,17 2,4 5,1 6,9 7,-4 v -5 l 3,-3 8,4 h 9 l -1,8 8,9 1,13 h -5 l 5,8 2,-4 2,2 2,-2 4,3 5,-4 10,10 v 3 l 6,2 1,2 h 6 l -1,-4 4,2 1,-7 -3,1 v -11 l 5,1 2,-2 h 4 l 4,6 3,-8 5,-1 -1,3 9,5 3,-2 5,6 5,-5 h 7 l -2,-3 4,-2 -2,-2 3,-2 4,6 -1,2 4,5 -1,3 -6,-1 -2,6 5,4 2,6 9,7 -2,3 4,6 5,-1 8,5 -2,3 4,4 4,-2 5,5 h 3 l 1,-6 9,-13 5,-2 3,2 3,-6 4,-1 v -8 l 3,-2 -1,-3 2,-5 -3,-4 h -9 l 4,-4 -2,-3 h -4 l -1,2 -6,-1 2,-2 -3,-4 v -7 l -5,-5 -1,-4 2,-4 3,-1 -1,-3 2,-4 3,3 2,-5 6,-1 -1,-4 3,-1 v -6 l 2,1 4,-3 -1,-7 -5,-5 2,-9 -4,-2 -1,-6 -3,-2 -1,5 -10,-2 -2,5 h -6 l -4,-1 1,-3 -4,-6 h -7 l -9,3 -6,-4 -3,-7 h 4 l -1,-4 -6,-4 2,-5 h -4 l -6,-7 h -4 l -4,-3 h -4 l -4,3 -1,7 -4,1 4,1 -5,7 -3,-2 -3,4 -7,2 2,4 -6,-2 -2,1 3,3 -3,1 -2,-2 3,-4 -9,-6 -3,-9 -7,-1 -2,-2 -2,4 7,3 -4,2 v 4 l -3,-1 -5,-11 -2,4 -5,2 -3,-4 h -2 l -2,-10 -4,-2 -2,2 -2,-6 -5,-2 1,3 -6,-1 z m 167,157 z m -4,-1 z m 1,1 z m -85,-129 z"
     id="内江市" />
  <path
     stroke="#ffff00"
     stroke-opacity="1"
     stroke-width="0.5"
     stroke-linecap="round"
     stroke-linejoin="round"
     stroke-dasharray="none"
     fill="#1e90ff"
     fill-opacity="1"
     fill-rule="evenodd"
     d="m 992.99999,869 h -5 l -1,-13 -5,4 -1,-1 1,-4 5,-4 -1,-5 -9,-2 -2,-2 1,-5 4,2 h 5 l 1,-3 4,-2 v -4 l -4,2 -1,-6 -6,4 -2,-2 v -5 h 3 l -1,-4 -8,2 -1,-7 2,-3 5,2 7,-7 4,5 3,-5 -3,-5 h -3 l 5,-4 1,-4 -5,-6 5,-2 3,-8 5,5 7.00001,-2 -4,-12 -4.00001,3 -3,-5 v -4 l -6,-2 -1,2 -4,-2 -2,-4 -5,-2 -5,-7 5,-7 -8,-4 2,-3 -1,-5 h -9 l -3,4 -3,-1 -3,3 2,3 h -7 l 2,5 -6,4 2,2 -4,7 -7,-1 -2,3 h -4 l -4,4 -6,1 -2,-3 -9,1 v -4 l -3,-5 3,-3 8,-3 -2,-5 -2,-1 v -7 l -6,-10 -3,-1 v -4 l -5,-1 -8,4 -3,-2 v 3 l -3,1 2,4 -5,2 -8,-2 4,4 v 4 l -3,-1 -6,6 -10,-1 v 7 l 2,4 -5,-1 -4,-7 -2,3 h -9 l -3,4 v 7 l -3,3 1,4 -2,3 2,3 3,-1 3,2 3,-5 1,8 -4,2 v 3 l -7,7 -6,1 1,5 -3,3 3,6 -2,4 6,1 -3,4 -3,2 -10,-1 -3,2 -2,9 -4,1 -5,-3 -7,3 -6,-4 -8,-1 -5,6 -2,5 4,6 -3,6 v 4 l 4,7 5,1 -2,6 h -10 l 2,6 -5,7 -3,16 7,10 -2,3 -7,3 -2,3 7,21 -4,5 3,8 -3,12 3,7 -1,6 5,12 5,2 1,-2 6,3 4,-1 3,-4 v -10 l 7,-7 1,-8 8,-4 h 6 l 7,5 2,-2 6,2 12,13 -1,5 -4,4 -7,18 -5,4 v 9 l 10,6 7,16 4,1 2,3 3,1 8,-7 2,-5 -1,-4 -3,-3 2,-4 9,-3 4,-3 5,-8 v -3 h 10 l 5,3 v -3 l 13,-4 7,-11 1,-7 -2,-4 -3,-2 2,-2 6,-1 5,-8 -2,-3 5,-1 8,-5 19,17 4,-5 4,-1 4,-13 4,2 2,-2 -1,-6 10,-7 -2,-1 -2,-9 2,-1 6,4 3,-3 v -7 l 3,-5 1,-10 3,-10 3,-2 -2,-5 5,-2 -4,-5 z m -8,-43 z"
     id="乐山市" />
  <path
     stroke="#ffff00"
     stroke-opacity="1"
     stroke-width="0.5"
     stroke-linecap="round"
     stroke-linejoin="round"
     stroke-dasharray="none"
     fill="#1e90ff"
     fill-opacity="1"
     fill-rule="evenodd"
     d="m 1500,436 -3,-3 3,-6 -3,1 -2,-5 2,-4 -5,-10 -10,-5 4,-4 -7,-8 -1,-10 -5,-2 1,-7 -6,3 -4,-1 1,-7 -9,1 v -2 l -5,3 -4,-2 -4,-5 -3,5 2,5 -3,7 -4,1 -7,-2 v -6 l -6,-6 -8,1 -1,-3 -4,-1 -1,-10 -3,-4 -5,-1 -2,-5 -7,-3 3,-5 v -3 l 4,2 1,-7 h 3 l -3,-4 -2,-7 -2,1 -5,-9 -4,-1 -2,4 -3,1 -3,4 -4,-1 1,3 -3,5 -2,-2 -7,3 -3,-3 1,-7 -2,-1 -6,3 -3,-1 -2,-4 -3,9 2,-1 1,6 -3,1 -2,6 -6,5 2,3 -5,-1 -3,3 h -5 l -5,5 -4,-2 -6,2 1,3 -4,5 -5,-5 1,4 -4,3 -5,-8 2,-3 h -5 l -9,-15 -4,4 -4,-2 -1,14 -4,3 -3,9 -5,1 v -3 l -4,3 1,3 -3,1 -1,6 -2,1 -1,-7 -4,4 h -8 l -1,-2 h -6 v 5 l -7,5 1,6 -4,4 3,1 2,-2 6,6 -3,3 -1,4 3,5 5,2 2,-2 3,2 3,-3 1,5 3,-3 h 4 l 2,-2 3,2 1,5 -3,6 -4,1 1,3 -3,5 1,3 3,-2 4,3 2,5 4,2 v 17 h 6 l 3,4 -1,5 2,4 -3,3 2,2 -2,3 1,7 -5,5 h -5 l -1,3 -8,2 1,3 8,8 v 5 l 6,-4 2,5 5,1 2,6 h -2 l 4,8 8,8 -3,4 2,5 v 10 l 4,13 -1,6 h 3 v 4 l 5,8 3,1 1,3 -2,8 -3,4 2,1 2,-2 h 3 v 8 l 6,-2 -2,-3 3,-3 -2,-3 4,-1 2,3 1,-3 3,8 2,-2 8,1 3,-8 5,6 5,-3 h 3 l 2,-8 6,-12 5,1 2,-4 -3,-1 -2,-6 9,-6 2,-4 2,2 v -5 l -4,1 -1,-4 14,4 2,4 10,-8 2,2 v 3 l 5,4 2,-3 h 4 l -1,-3 4,-4 1,-5 4,-2 3,-6 4,1 v 5 l 4,6 3,-2 h 8 l -1,-3 6,-2 2,-5 -2,-3 v -5 l 2,1 9,-4 v -6 l 2,-3 -4,-6 2,-2 5,1 3,-6 4,-1 -2,-5 h 10 v -5 l 3,1 3,-4 2,-9 7,-6 5,-1 2,-5 5,-2 -1,-3 4,-6 -2,-3 v -7 l 3,-4 z m -189,160 -3,3 1,3 6,-6 z m -78,-224 z"
     id="南充市" />
  <path
     stroke="#ffff00"
     stroke-opacity="1"
     stroke-width="0.5"
     stroke-linecap="round"
     stroke-linejoin="round"
     stroke-dasharray="none"
     fill="#1e90ff"
     fill-opacity="1"
     fill-rule="evenodd"
     d="m 773.99999,827 7,-11 8,1 6,4 7,-3 5,3 4,-1 2,-9 3,-2 10,1 3,-2 3,-4 -6,-1 2,-4 -3,-6 3,-3 -1,-5 6,-1 7,-7 v -3 l 4,-2 -1,-8 -3,5 -3,-2 -3,1 -2,-3 2,-3 -1,-4 3,-3 v -7 l 3,-4 h 9 l 2,-3 4,7 5,1 -2,-4 v -7 l 10,1 6,-6 v -3 h 3 l -4,-4 8,2 5,-2 -2,-4 3,-1 v -3 l 3,2 8,-4 5,1 v 4 l 3,1 6,10 v 7 l 2,1 2,5 -8,3 -3,3 3,5 v 4 l 9,-1 2,3 6,-1 4,-4 h 4 l 2,-3 7,1 4,-7 -2,-2 6,-4 -2,-5 h 7 l -2,-3 3,-3 3,1 3,-4 h 9 l 1,5 -2,3 8,4 -5,7 5,7 5,2 2,4 4,2 1,-2 6,2 v 4 l 3,5 4.00001,-3 2,7 6,3 9,-17 5,2 -2,-4 11,-6 3,4 5,-1 3,-3 2,-7 3,-1 3,-4 -4,-1 v -9 l 4,-9 -2,-1 v -4 l -3,-3 1,-1 -3,-2 3,-8 -4,-3 2,-7 -1,-3 3,1 -2,-5 2,-4 h -3 l -2,-3 -4,3 -4,-8 h -2 l -2,-8 -5,-2 1,-3 -9,-3 -6,-4 -2,1 -1,-5 -6,-3 2,-3 -2,-3 v -7 h -6.00001 l -1,-3 -3,3 -5,11 v 4 l -6,4 -5,-5 -8,-4 -9,1 -11,-17 1,-3 -5,1 -1,5 h -4 l -2,-4 -15,1 -8,8 h -4 l 2,4 -4,1 -2,3 h -4 l 2,5 -8,3 v 6 l -4,-3 -2,4 -4,-1 -11,5 2,4 -2,3 -6,3 -3,6 -2,-6 h -4 l 3,3 -1,4 h -2 l -2,-4 -8,5 -4,-1 -1,3 -4,-3 -2,5 h -5 l -1,-3 -9,10 -5,15 -7,1 1,4 h -3 l -3,3 -9,3 -3,6 5,5 8,20 -4,2 3,5 -3,1 2,4 -3,2 2,6 h -4 l -5,-4 -2,2 -7,2 -1,-6 -7,-5 -2,4 -6,-3 -6,2 v 20 l -3,13 -8,5 -9,14 11,10 9,3 z m 102,-97 h -3 v 2 l 3,2 z m 77,-97 -1,2 2,-1 z M 1049,731 v 1 z"
     id="眉山市" />
  <path
     stroke="#ffff00"
     stroke-opacity="1"
     stroke-width="0.5"
     stroke-linecap="round"
     stroke-linejoin="round"
     stroke-dasharray="none"
     fill="#1e90ff"
     fill-opacity="1"
     fill-rule="evenodd"
     d="m 920.99999,1008 3,-1 v -6 l 7,-5 v -8 l 3,-9 4,3 v 5 l 4,2 2,-3 5,2 1,4 21,-5 7,5 5,-7 H 1003 l 2,-5 h 2 l 3,6 h 5 l 3,4 5,-6 6,-1 5,1 4,3 -1,6 h -6 l -3,3 -2,6 -5,-1 -2,5 h -11 l -2,2 v 4 l 3,1 -1,4 2,4 -2,2 1,7 -2,2 4,13 5,4 -3,3 5,2 4,-5 4,-2 5,2 1,8 3,4 h 7 l -1,2 4,4 -3,6 -8,2 v 5 l 6,2 3,-1 v 12 l -10,6 v 5 l -4,2 h -13 l -1,2 5,4 5,1 5,5 v 5 l 4,4 12,9 5,2 1,3 6,-1 4,4 v 3 l 4,2 5,-3 5,2 8,-7 12,-4 3,4 6,-4 15,-1 3,-5 5,-2 -3,-4 5,-5 3,1 v -3 l 5,-5 1,-9 6,-1 8,-6 16,6 11,-1 4,-6 9,-7 13,-1 2,-3 -3,-6 1,-5 -3,-10 1,-12 -5,-5 -1,-4 -3,-2 4,-1 2,-3 v -9 l -5,-1 v -3 l -19,1 8,-10 1,-6 -2,-4 -4,-1 v -5 l -6,-8 -1,-9 6,-4 2,-5 -1,-3 3,-1 -1,-5 -2,-2 6,-5 -4,-10 -2,-16 -5,-2 -2,-4 -4,-3 -3,-1 -3,2 h -7 l -12,-11 -4,-1 -3,-5 -4,-1 -1,-8 -7,3 -4,-1 v 6 l -4,1 v 3 h -7 l -2,3 -2,-2 h -6 l -4,2 -4,-2 -3,-10 6,-7 -1,-5 -3,-4 -3,1 -4,-8 3,-4 v -5 l -13,-1 -5,3 -3,5 -7,5 -6,-3 -8,-11 v -3 l -5,1 1,-4 h -11 l -2,-2 -9,2 -4,-1 -3,-3 -6,-1 3,6 -2,4 -4,2 -8.00001,-6 1,3 -4,7 4,5 -5,2 2,5 -3,2 -3,10 -1,10 -3,5 v 7 l -3,3 -6,-4 -2,1 2,9 2,1 -10,7 1,6 -2,2 -4,-2 -4,13 -4,1 -4,5 -19,-17 -8,5 -5,1 2,3 -5,8 -6,1 -2,2 3,2 2,4 -1,7 -7,11 -13,4 v 3 l 5,-1 5,2 4,7 4,2 -5,11 7,5 3,-8 3,-2 z"
     id="宜宾市" />
  <path
     stroke="#ffff00"
     stroke-opacity="1"
     stroke-width="0.5"
     stroke-linecap="round"
     stroke-linejoin="round"
     stroke-dasharray="none"
     fill="#1e90ff"
     fill-opacity="1"
     fill-rule="evenodd"
     d="m 1502,683 1,-1 8,11 h 4 l -1,-4 4,2 4,-4 -2,-3 1,-3 5,1 v -5 l 5,-2 1,-3 15,-16 6,-11 3,-9 -3,-3 v -5 h -6 l 1,-8 -3,-2 1,-3 -2,-1 4,-3 -1,-3 -5,1 -1,-3 -4,-2 5,-7 4,-2 -2,-5 -4,-2 1,4 -2,3 -12,-5 -3,4 7,4 2,3 h -4 l -1,-3 h -6 l -1,-6 -12,-1 -2,3 -3,1 -2,-7 2,-3 h 6 l 5,-20 -3,-1 -6,2 -5,-2 -3,2 -9,-6 -2,-7 2,-1 4,4 5,-5 -12,-1 -1,-4 -7,-1 -2,-4 -17,-11 -1,-5 h -9 l -1,-2 -9,4 -2,-1 v 5 l 2,3 -2,5 -6,2 1,3 h -8 l -3,2 -4,-6 v -5 l -4,-1 -3,6 -4,2 -1,5 -4,4 1,3 h -4 l -2,3 -5,-4 v -3 l -2,-2 -10,8 -2,-4 -14,-4 1,4 4,-1 v 5 l -2,-2 -2,4 -9,6 2,6 3,1 -2,4 -5,-1 -6,12 -2,8 h -3 l -5,3 -5,-6 -3,8 -8,-1 -2,2 v 4 l -4,3 3,4 3,-1 2,4 -1,4 3,3 6,1 v 2 l 7,6 3,-2 v 4 l 8,5 v -5 l 3,3 4,1 2,6 v 10 l 3,1 -1,2 3,3 4,-2 2,3 h 3 l 1,-3 2,3 4,-2 v -7 l 7,3 2,-4 5,-1 5,2 5,-3 -4,-5 h 5 l -1,-3 21,-1 3,-4 9,5 4,6 2,4 -6,4 h 2 l 2,8 8,6 -1,8 6,1 -1,9 5,4 1,6 10,2 2,-3 6,-1 2,-3 4,5 4,-2 5,2 v -2 l 6,-1 2,-6 z m 46,-63 v 3 z m 5,13 3,3 6,-10 -3,-2 -2,1 1,3 -2,5 -3,-1 z m -2,-6 v 2 l 2,-1 z m -178,29 -1,3 z m 130,26 -1,1 z m 51,-51 v 1 z m -40,-39 z"
     id="广安市" />
  <path
     stroke="#ffff00"
     stroke-opacity="1"
     stroke-width="0.5"
     stroke-linecap="round"
     stroke-linejoin="round"
     stroke-dasharray="none"
     fill="#1e90ff"
     fill-opacity="1"
     fill-rule="evenodd"
     d="m 1562,626 6,-7 4,-15 9,-13 2,1 4,-4 -2,-3 6,-5 10,-15 -3,-4 -8,-4 v -5 l -6,-8 3,-1 1,-7 4,1 2,-5 3,-2 -1,-5 -2,-1 6,-4 3,3 9,-2 7,3 3,4 15,-15 4,1 4,4 -1,4 2,6 h 4 l 6,4 6,1 7,-8 12,-9 v -2 l 6,-4 -8,-4 -2,-7 2,-8 6,2 4,-9 10,-3 1,-3 -6,-2 -3,-10 2,-1 2,-6 9,-10 1,-4 -2,-5 -7,3 -4,-6 14,-4 v -2 l 9,-6 8,-8 -6,-7 5,-4 4,-1 2,-3 -1,-6 3,-2 -1,-4 h -5 l -1,-5 7,-3 h 18 l 3,-2 v -6 h 7 l 2,-4 -2,-2 4,-7 7,-7 5,3 1,-4 h 3 l 3,-4 7,-2 -5,-6 v -7 l -2,-1 5,-5 -8,-5 h -5 v -6 h -4 l -9,-5 -1,-5 -8,-2 -6,-9 -5,-3 v -7 l -4,-3 2,-4 2,1 5,-4 8,6 3,-3 -7,-7 6,-4 v -3 l -4,-3 6,-3 4,3 3,-1 3,2 4,-3 v -4 l -4,-2 -4,-9 -7,-7 7,-4 13,3 6,-5 -1,-9 -4,-1 -2,-4 -11,3 -4,-2 -8,2 -3,5 h -3 l -12,-9 -7,3 1,2 -6,6 -5,-4 -2,5 -14,-3 -4,3 -5,1 1,8 -5,6 h -3 l -5,-3 -5,-8 -6,-3 -4,2 -6,-4 -9,-12 -6,-13 -7,2 -2,2 v 8 l -5,7 2,7 -10,4 -1,10 2,3 8,-1 5,6 1,-1 5,4 4,7 -16,13 -10,-1 -7,3 -3,4 3,4 -3,3 -5,1 -1,3 -3,1 6,6 -3,4 -7,2 14,7 -3,14 -4,2 1,5 -9,2 5,10 3,-1 -3,10 -3,3 -2,6 h -3 l -4,3 -1,-2 -3,4 -7,2 -5,5 -2,-2 -4,4 -1,8 -7,1 -3,8 -2,1 -4,-4 -2,7 -10,1 -5,10 1,5 -5,5 h -4 l -5,-8 -5,5 2,5 -4,1 1,6 -4,-3 -6,12 h -4 l -1,5 -3,4 v 7 l 2,3 -4,6 1,3 -5,2 -2,5 -5,1 -7,6 -2,9 -3,4 -3,-1 v 5 h -10 l 2,5 -4,1 -3,6 -5,-1 -2,2 4,6 -2,3 1,8 h 9 l 1,5 17,11 2,4 7,1 1,4 12,1 -5,5 -4,-4 -2,1 2,7 9,6 3,-2 5,2 6,-2 3,1 -5,20 h -6 l -2,3 2,7 3,-1 2,-3 12,1 1,6 h 6 l 1,3 h 4 l -2,-3 -7,-4 3,-4 12,5 2,-3 -1,-4 4,2 2,5 -4,2 -5,7 4,2 1,3 5,-1 1,5 -3,5 3,2 -1,8 h 6 l 3,5 2,-5 -3,-1 2,-1 v -4 l 2,2 z m -14,-14 -4,2 2,1 2,-2 z m 5,20 z m 4,-10 v 3 l 2,-1 z m 0,4 -2,1 3,1 z m -6,1 -1,1 z"
     id="达州市" />
  <path
     stroke="#ffff00"
     stroke-opacity="1"
     stroke-width="0.5"
     stroke-linecap="round"
     stroke-linejoin="round"
     stroke-dasharray="none"
     fill="#1e90ff"
     fill-opacity="1"
     fill-rule="evenodd"
     d="m 850.99999,681 -7,-9 2,-3 -2,-4 2,-13 -9,-1 -1,-5 -6,-1 -7,4 -2,7 h -3 l -1,-4 -5,-4 -7,9 -12,-3 -1,-8 -2,-2 v -7 l 12,-14 -2,-3 2,-15 2,-4 h 4 l 4,-8 -1,-3 -4,-1 2,-6 -7,-8 1,-13 -3,-3 h -3 l -6,-10 -7,3 1,-3 -5,-6 -3,-7 -5,2 -12,1 -6,-7 4,-14 v -8 l -2,-4 -4,-3 h -9 l -9,4 h -9 l -7,14 -14,1 -5,5 -6,2 -2,4 -5,1 -4,4 5,12 -4,9 -1,7 -5,4 -2,5 -2,30 3,7 -2,8 1,6 -5,25 -14,10 -6,12 v 6 l -5,5 2,13 3,5 2,8 -6,15 4,6 v 4 l 5,2 1,6 3,2 2,5 -5,6 2,3 -8,8 -3,17 6,6 2,4 -1,4 -20,16 -5,-2 v -9 l -2,-5 -4,1 v 5 l -2,-1 -8,3 -10,-1 -11,3 -7,-3 3,8 v 5 l 6,4 -7,16 2,6 5,3 11,1 9,5 5,7 -1,3 -11,10 6,1 3,-3 4,2 6,10 -2,5 3,6 -2,6 6,5 -2,2 8,11 6,13 h 6 l 6,3 6,6 14,2 9,-16 -3,-10 1,-3 5,-4 2,-5 3,-2 v -8 l -2,-4 2,-4 4,-1 2,-3 -1,-4 2,-2 h 6 l 1,-2 -2,-4 5,-4 h 3 l 3,7 4,3 5,-1 7,3 6,-2 1,-2 -2,-3 3,-11 4,-2 5,1 1,7 8,1 4,-4 2,-8 5,-8 h 4 l 7,3 -4,-7 v -4 l 3,-6 -4,-6 -17,-4 -11,-10 9,-14 8,-5 3,-13 v -20 l 6,-2 6,3 2,-4 7,5 1,6 7,-2 2,-2 5,4 h 4 l -2,-6 3,-2 -2,-4 3,-1 -3,-5 4,-2 -8,-20 -5,-5 3,-6 9,-3 3,-3 h 3 l -1,-4 7,-1 5,-15 9,-10 1,3 h 5 l 2,-5 4,3 1,-3 z"
     id="雅安市" />
  <path
     stroke="#ffff00"
     stroke-opacity="1"
     stroke-width="0.5"
     stroke-linecap="round"
     stroke-linejoin="round"
     stroke-dasharray="none"
     fill="#1e90ff"
     fill-opacity="1"
     fill-rule="evenodd"
     d="m 1500,436 h 4 l 6,-12 4,3 -1,-6 4,-1 -2,-5 5,-5 5,8 h 4 l 5,-5 -1,-5 5,-10 10,-1 2,-7 4,4 2,-1 3,-8 7,-1 1,-8 4,-4 2,2 5,-5 7,-2 3,-4 1,2 4,-3 h 3 l 2,-6 3,-3 3,-10 -3,1 -5,-10 9,-2 -1,-5 4,-2 3,-14 -14,-7 7,-2 3,-4 -6,-6 3,-1 1,-3 5,-1 3,-3 -3,-4 3,-4 7,-3 10,1 16,-13 -4,-7 -5,-4 -1,1 -5,-6 -8,1 -2,-3 1,-10 10,-4 -2,-7 5,-7 v -8 l 2,-2 -4,-7 -2,-8 -6,-3 h -8 l -6,2 -1,2 -10,2 -4,-9 -6,2 v -9 l -3,-2 -2,-7 1,-6 -5,-2 h -5 l -4,7 -8,3 -5,8 -4,11 -10,-6 -4,-8 -11,-3 -9,-13 3,-2 2,-11 -1,-10 -2,-4 -4,-1 -1,-3 1,-5 -7,-1 -3,-2 -4,2 -8,-1 -6,3 -2,-4 -5,-1 -5,1 -5,4 -5,-2 -2,3 v -8 l -9,-1 -13,11 -4,1 1,11 3,3 -2,7 2,5 -2,13 5,4 2,7 v 23 l 7,2 2,5 1,-2 6,6 -4,2 -7,-2 v 6 l -7,-1 -2,5 -18,5 -2,11 2,10 -6,7 5,3 h -5 l -3,3 v 4 h -3 l 1,5 -3,4 -2,7 h -6 l 3,4 v 3 h -3 l -3,6 -4,3 3,2 -3,4 v 14 h -2 l 2,7 3,4 h -3 l -1,7 -4,-2 v 3 l -3,5 7,3 2,5 5,1 3,4 1,10 4,1 1,3 8,-1 6,6 v 6 l 7,2 4,-1 3,-7 -2,-5 3,-5 4,5 4,2 5,-3 v 2 l 9,-1 -1,7 4,1 6,-3 -1,7 5,2 1,10 7,8 -4,4 10,5 5,10 -2,4 2,5 3,-1 -3,6 z m -3,-3 z"
     id="巴中市" />
  <path
     stroke="#ffff00"
     stroke-opacity="1"
     stroke-width="0.5"
     stroke-linecap="round"
     stroke-linejoin="round"
     stroke-dasharray="none"
     fill="#1e90ff"
     fill-opacity="1"
     fill-rule="evenodd"
     d="m 1124,721 5,-7 -4,-1 4,-1 1,-7 4,-3 12,3 6,7 h 4 l -2,5 6,4 1,4 h -4 l 3,7 6,4 9,-3 h 7 l 4,6 -1,3 4,1 h 6 l 2,-5 10,2 1,-5 3,2 1,6 4,2 -2,9 5,5 1,7 2,2 7,1 1,-9 11,5 -2,-3 4,-3 v -3 l 3,2 3,-20 4,1 1,-4 9,-1 3,-3 6,3 2,-3 3,-1 v -7 h -4 l -2,-7 5,-6 -2,-4 2,-5 4,-4 -1,-4 -4,2 -1,-3 h -6 l -3,-6 -2,1 -4,-3 1,-5 -8,-1 -6,-6 5,-2 v -3 h -4 l -3,2 -4,-1 4,-7 -2,-5 -3,-2 -1,4 -8,-4 v -4 l -6,-5 -4,1 -3,-8 -7,4 -2,-6 -3,2 -3,-1 -11,3 -1,2 -7,-2 v -4 l -12,-4 -1,-3 h -4 l -6,-12 -4,-1 3,-5 -4,-2 1,-2 h 3 v -3 l -2,-5 1,-3 -4,-6 1,-2 -8,-3 v 4 h -7 l -4,-8 1,-4 -3,-6 -4,3 v -4 l -4,-1 -4,3 -1,-2 -4,2 v 6 l 6,8 -3,6 v 16 l 1,10 3,2 -3,5 -4,-1 -1,3 -3,-3 2,5 v 7 l -4,3 -3,-1 -3,4 -3,-5 -7,2 -3,-3 -3,1 -2,6 -9,-2 -1,3 3,6 -10,-1 v 5 l -6,5 -5,3 -1,-2 -9,2 v 6 l -3,-1 1,2 h -2 l -3,4 2,2 -4,3 3,1 2,3 h 3 l -2,4 2,5 -3,-1 1,5 6,1 -1,-3 5,2 2,6 2,-2 4,2 2,10 h 2 l 3,4 5,-2 2,-4 5,11 3,1 v -4 l 4,-2 -7,-3 2,-4 2,2 7,1 3,9 9,6 -3,4 2,2 3,-1 -3,-3 2,-1 6,2 -2,-4 7,-2 3,-4 z m 36,-104 z m -113,52 -1,-2 v 2 z m 114,-50 z m 84,43 -1,-1 -1,2 z m -88,-48 z"
     id="资阳市" />
  <path
     stroke="#ffff00"
     stroke-opacity="1"
     stroke-width="0.5"
     stroke-linecap="round"
     stroke-linejoin="round"
     stroke-dasharray="none"
     fill="#1e90ff"
     fill-opacity="1"
     fill-rule="evenodd"
     d="m 353.99999,163 -1,2 -7,2 2,6 -7,11 -6,1 -5,6 v 6 l -2,4 1,4 4,5 v 5 h 4 l 3,3 -2,2 4,6 h 7 l 5,3 3,6 7,1 1,5 -6,1 1,5 5,7 6,3 4,8 h 3 l -3,9 8,4 1,3 7,4 14,-7 3,2 h 5 l 4,7 -4,4 -1,4 2,2 -1,8 -7,1 -7,12 -10,4 -1,5 3,5 h 5 l 6,-3 6,7 1,8 10,9 7,2 -2,8 4,4 -2,1 -1,4 4,12 4,2 1,3 7,-5 10,-3 4,-6 8,15 -4,14 2,5 h 5 l 3,4 5,-6 2,4 10,-7 2,1 2,-9 6,1 3,5 -1,4 -5,4 -1,6 2,8 3,3 3,-8 -4,-4 5,-1 1,-3 12,-2 3,2 2,6 7,-9 3,-1 10,7 1,6 4,2 1,6 9,-5 v 6 h 13 l 4,4 1,13 3,3 1,6 4,3 4,-5 8,-1 2,4 5,3 4,15 8,-3 9,-10 5,-2 3,7 -2,4 v 20 l 3,2 4,16 -5,3 -2,-1 -14,2 -4,5 1,16 -5,6 5,5 -2,1 -3,6 2,2 -1,8 4,-1 7,2 1,4 6,6 6,3 1,-7 8,-2 3,3 5,-3 v -3 l 5,-5 h 3 l 6,-6 8,-2 10,7 5,-3 -1,-16 4,-4 5,-1 2,-4 6,-2 5,-5 14,-1 7,-14 h 9 l 9,-4 h 9 l 4,3 2,4 v 8 l -4,14 6,7 12,-1 13,-7 9,-2 7,4 8,-10 6,-1 5,2 6,-1 8,6 6,-3 3,-5 5,-3 h 5 l 8,-6 v -7 l 2,-3 10,-7 v -12 l -3,-2 3,-6 1,-7 6,-10 1,-6 4,-3 -1,-12 -2,-3 2,-7 -2,-10 7,-3 4,2 7,-2 6,-8 7,-2 2,-4 7,-3 3,1 -2,-9 12,-14 7,5 3,-5 -1,-6 4,-16 11,-9 5,1 4,-4 8,2 3,-5 8,-1 1,-3 4,-1 v -10 l -4,-8 h -3 l -1,-3 -9,-2 -3,2 -3,-4 -3,1 -2,-4 -8,2 -3,-11 -7,-8 -8,5 h -5 l -6,-4 -9,-2 -2,-4 1,-7 6,-10 4,-2 2,-3 -3,-6 3,-4 v -3 l 5,1 -1,-8 9,1 5,3 h 9 l 4,5 10,-2 9,1 5,-3 4,3 -2,-5 3,-2 1,-4 4,-5 7.00001,-4 6,1 -1,-8 -7.00001,-8 v -2 l -5,-3 -4,13 -5,3 -1,3 -10,-3 -1,-3 h -6 l -10,-12 -11,-2 -6,-11 5,-14 -2,-14 1,-3 -12,-16 2,-6 4,-2 3,-4 5,1 13,-3 3,2 5,-3 6,5 v 5 l 3,8 8,9 1,8 -7,5 9,-1 5,-13 -1,-10 3,-18 -5,-11 -5,-4 3,-5 -4,-10 h -3 l -1,-10 -4,-2 -8,5 v 3 l -6,1 -6,-5 5,-5 v -4 l -7,-2 -1,-6 2,-1 -1,-4 4,-10 -1,-4 2,-7 5,-1 10,8 8,1 9,9 6,9 10.00001,8 5,-3 2,-10 3,-3 7,3 7,-3 v -9 l 8,-3 -1,-3 -5,-3 -6,2 -4,-2 5,-11 -1,-3 3,-1 v -3 l -5,-9 -4,-14 1,-6 -5,-11 6,-2 2,3 h 9 l -1,-3 5,-3 -9,-4 -14,2 -4,-13 -5,-3 -4,1 v -5 l -7.00001,-10 -5,-16 2,-5 2,-1 -2,-8 -12,-12 -9,-4 h -7 l -8,3 -20,-3 -15,5 -16,-7 -4,1 v -2 l -3,-1 3,-2 -3,-2 -1,2 -2,-2 h -6 l -7,4 -2,7 -6,-2 6,-13 -4,-2 2,-4 -4,-9 -2,-1 -8,2 -6,11 -15,2 -13,-7 1,-6 -6,-3 -4,5 -12,-3 -1,-3 5,-18 -2,-5 -7,-1 -2,-3 v -5 l 6,-7 -2,-8 -5,-1 2,-6 h 8 l 1,-3 -5,-5 -3,1 -2,-3 2,-4 -2,-7 -4,-4 -9,-3 -2,2 h -6 l -6,-5 1,-7 -7,-13 -5,-3 h -6 l -4,2 -1,7 -9,-1 -4,4 -1,5 -8,-1 -6,9 -7,1 -3,3 1,3 h -5 l -5,4 11,8 1,6 -2,1 -6,-4 -6,-1 -21,6 -6,-3 -3,10 -4,6 -1,10 h -9 l -3,-3 -3,3 1,-5 -5,3 -2,-2 -3,3 -4,-1 v 4 l -7,-1 v -3 l -6,-1 -6,4 13,13 5,8 4,2 1,8 -4,8 11,1 5,6 -8,7 3,3 5,-5 3,3 -3,3 -2,8 5,14 8,1 4,5 6,1 2,4 5,3 -1,3 -5,-1 3,6 -2,5 2,7 -4,-1 -1,3 -6,3 -1,5 -6,-1 1,3 -4,-3 -7,2 -2,-3 -4,1 -3,-2 v 5 l -4,1 -3,8 -6,5 3,2 -1,4 3,12 -2,5 -6,-2 -4,-4 -1,-5 -6,-2 -4,12 v 5 l -6,4 -9,-1 -3,-2 -6,3 h -4 l -2,7 -8,5 -3,6 -7,-3 3,-9 v -6 l -3,-6 -5,-4 -2,1 -4,-7 8,-6 2,4 2,-5 5,-4 h 3 v -8 l 2,-7 5,-5 v -5 l 6,-3 -4,-2 v -5 l -3,-2 -2,-8 2,-5 -5,-8 -7,-5 -2,10 -5,2 -4,-2 -2,2 1,12 -2,6 2,2 -3,2 -12,2 v 3 l -6,9 -2,12 5,6 h 5 l 5,3 1,3 -5,12 -6,3 1,4 -5,5 1,5 -5,8 -22,-20 -5,-7 h -15 l -3,4 2,4 -1,7 h -2 l -10,-15 V 8 l -3,-1 -2,-4 h -10 l -4,-2 -3,3 -1,-3 h -3 l -5,7 -5,3 -2,8 h 3 l -1,4 5,6 -1,2 3,7 -4,4 v 6 h 3 l 4,3 -2,6 2,6 -10,-1 1,9 -2,8 10,4 8,8 v 4 l 3,2 -3,12 v 10 l -6,9 -6,5 h -5 l -3,5 v -7 h -5 l -2,-2 -8,4 -6,7 -7,2 -5,4 -3,-3 h -3 l -2,-4 h -5 l -5,-3 -6,-1 -5,3 -1,-5 -3,3 -11,-6 -1,1 5,5 1,7 -2,1 -5,-4 -2,1 -2,6 v 11 z"
     id="阿坝藏族羌族自治州" />
  <path
     stroke="#ffff00"
     stroke-opacity="1"
     stroke-width="0.5"
     stroke-linecap="round"
     stroke-linejoin="round"
     stroke-dasharray="none"
     fill="#1e90ff"
     fill-opacity="1"
     fill-rule="evenodd"
     d="m 243.99999,1100 2,-1 5,8 18,13 5,-1 1,4 4,2 3,-1 6,-9 h 6 l 2,-2 13,3 1,-3 -7,-24 -1,-11 -3,-4 1,-9 8,-8 v -3 l -4,-4 1,-7 4,-6 1,-7 -2,-3 4,-3 2,-5 8,-6 3,-5 1,-7 3,-3 -2,-9 1,-11 -6,-5 h -4 v -3 h 7 l 10,-8 6,1 -3,-11 1,-5 -4,-3 -4,-11 v -6 l -4,-7 5,-1 5,2 6,-2 9,-10 -1,-3 10,4 13,-2 4,4 4,-1 4,-6 -2,-7 h -8 l -3,-2 v -5 l 6,-4 6,-1 8,-7 6,2 2,4 -1,4 3,2 -1,6 5,-3 9,-11 8,-4 1,-4 7,4 4,7 v 9 l 4,4 v 4 l 3,3 -2,4 3,11 4,1 -1,7 3,3 -4,12 v 10 l 6,7 -1,7 2,4 -2,10 5,-3 13,-1 10,1 3,4 -1,4 11,-4 4,5 5,-2 3,1 5,8 6,-2 12,13 v 6 l 2,3 -6,4 h -5 l -10,-4 -7,-1 -1,-2 h -8 l -2,-3 -9,10 1,2 10,-5 3,3 2,13 3,1 2,18 5,1 10,-4 10,-9 2,5 h 7 l 9,-6 3,-6 v -5 l 4,-12 v -9 l 14,-12 8,-4 h 8 l 1,-6 4,-6 7,-7 6,-2 1,-2 -5,-5 -1,-11 -5,-5 4,-7 v -6 l 4,-4 8,-3 1,-7 8,-5 9,-11 3,-1 -2,-2 2,-6 -3,-6 2,-5 -6,-10 -4,-2 -3,3 -6,-1 11,-10 1,-3 -5,-7 -9,-5 -11,-1 -5,-3 -2,-6 7,-16 -6,-4 v -5 l -3,-8 7,3 11,-3 10,1 8,-3 2,1 v -5 l 4,-1 2,5 v 9 l 5,2 20,-16 1,-4 -8,-10 3,-17 8,-8 -2,-3 5,-6 -2,-5 -3,-2 -1,-6 -5,-2 v -4 l -4,-6 6,-15 -2,-8 -3,-5 -2,-13 5,-5 v -6 l 6,-12 14,-10 5,-25 -1,-6 2,-8 -3,-7 2,-30 2,-5 5,-4 1,-7 4,-9 -2,-7 -3,-5 1,16 -5,3 -10,-7 -8,2 -6,6 h -3 l -5,5 v 3 l -5,3 -3,-3 -8,2 -1,7 -6,-3 -6,-6 -1,-4 -7,-2 -4,1 1,-8 -2,-2 3,-6 2,-1 -5,-5 5,-6 -1,-16 4,-5 14,-2 2,1 5,-3 -4,-16 -3,-2 v -20 l 2,-4 -3,-7 -5,2 -9,10 -8,3 -4,-15 -5,-3 -2,-4 -8,1 -4,5 -4,-3 -1,-6 -3,-3 -1,-13 -4,-4 h -13 v -6 l -9,5 -1,-6 -4,-2 -1,-6 -10,-7 -3,1 -7,9 -2,-6 -3,-2 -12,2 -1,3 -5,1 4,4 -3,8 -3,-3 -2,-8 1,-6 5,-4 1,-4 -3,-5 -6,-1 -2,9 -2,-1 -10,7 -2,-4 -5,6 -3,-4 h -5 l -2,-5 4,-14 -8,-15 -4,6 -10,3 -7,5 -1,-3 -4,-2 -4,-12 1,-4 2,-1 -4,-4 2,-8 -7,-2 -10,-9 -1,-8 -6,-7 -6,3 h -5 l -3,-5 1,-5 10,-4 7,-12 7,-1 1,-8 -2,-2 1,-4 4,-4 -4,-7 h -5 l -3,-2 -14,7 -7,-4 -1,-3 -8,-4 3,-9 h -3 l -4,-8 -6,-3 -5,-7 -1,-5 6,-1 -1,-5 -7,-1 -3,-6 -5,-3 h -7 l -4,-6 2,-2 -3,-3 h -4 v -5 l -4,-5 -1,-4 2,-4 v -6 l 5,-6 6,-1 7,-11 -2,-6 7,-2 1,-2 -17,-7 -2,-3 h -3 v -2 l -4,-3 v -4 h -3 l 1,-4 -7,-9 -1,-5 h -4 l -5,-8 -6,8 -2,-1 4,-12 -12,8 -12,-5 -1,3 -4,1 -2,6 v 10 l -3,9 -4,-5 -15,-2 v -4 l -4,-2 7,-10 3,-2 -4,-17 1,-8 -11,-13 h -6 l 1,-7 -12,-2 -2,-2 -2,-8 -7,-8 -1,-5 h -5 v 11 l -5,11 h -8 l -3,-3 -2,1 -3,6 2,1 4,8 -5,13 1,5 -2,7 -4,5 v 3 h -4 l -2,-7 -10,-2 -2,-4 -6,2 -4,-2 -1,-5 -4,-5 -19,-5 -3,-3 -11,-5 -4,3 -2,-2 -3,3 h -11 l -1,-6 -3,-5 1,-5 h -3 v -7 l -3,-1 -2,-6 -5,-6 h -10 l -6,-7 -12,-4 -2,3 -8,-4 -2,-4 -4,1 -6,-2 -8,-6 -6,-7 1,-3 -5,-5 V 2 l -9,-3 3,-5 -2,-4 4,-5 -1,-6 -8,-8 2,-10 -1,-5 -3,-2 v -4 l -8,-4 -2,-5 -4,-1 2,-6 -1,-4 -5,-3 -1,-6 7,-2 -11,-12 v -3 l -3,-4 -8,-3 -4,-6 -3,1 -6,-17 -5,1 -6,-5 4,-9 -3,-4 1,-7 3,-1 2,-4 -3,-11 -6,-6 2,-7 -12,-1 -23,3 -10,-6 -3,1 -8,-4 -8,1 -5,-2 -2,-4 -13,-12 -24,-2 -3,2 -4,8 -19,8 -1,2 7,13 v 4 l -3,5 -5,1 v 12 l -4,8 -6,-2 -15,6 -3,-2 -4,3 -2,-1 -2,3 h -12 l -1,2 2,7 -5,1 -1,4 7,6 1,7 2,2 -1,6 4,10 -6,12 2,5 4,1 2,4 4,-1 10,2 -2,13 5,6 2,6 5,-1 4,4 4,-3 4,3 h 3 l 2,4 12,4 2,3 -6,3 -3,6 h -5 v 4 l -7,-1 -2,2 -3,10 v 6 l -6,6 v 3 l -5,4 -3,-1 -2,5 -6,3 v 5 l 2,2 -2,7 5,2 5,13 -4,3 h -4 l 5,7 -11,4 -3,-1 -13,4 -3,3 2,4 -4,5 1,3 4,1 3,12 -2,1 1,10 7,11 -1,5 12,11 5,1 5,6 12,1 v 4 l 4,5 12,8 7,2 4,-1 2,3 h 5 l 2,4 6,-1 8,4 4,-1 8,4 h 4 l 7,5 3,-1 2,5 3,1 6,6 h 7 l 3,4 10,4 4,4 -2,5 4,12 -2,2 v 4 l 7,5 7,14 1,5 5,3 3,5 11,9 v 4 l 6,4 -2,2 1,8 -2,4 2,4 -5,3 -1,3 5,8 -2,6 h 5 v 5 l 3,2 v 4 l 3,-1 3,3 5,9 v 3 h 5 l 2,5 -1,7 12,14 6,3 16,18 6,4 h 3 l 1,4 8,4 1,4 8,10 -14,14 -1,6 -5,6 -6,-3 -2,-5 -4,-3 -4,-7 -8,-1 -5,8 -3,10 1,6 3,1 -4,8 7,1 13,13 v 8 l 4,3 1,4 6,4 6,7 -2,10 -4,9 14,12 1,4 4,2 1,5 4,3 9,3 2,8 -5,3 -1,3 -4,1 -1,3 3,10 v 6 l 4,4 -3,4 2,5 -1,4 3,6 -1,4 4,7 2,11 -2,4 2,5 -2,4 3,3 1,10 -3,3 1,6 3,3 -2,7 1,7 5,3 -1,3 7,9 -2,12 3,17 3,2 -2,2 -1,6 -2,2 -1,6 -4,8 1,5 -5,27 4,12 7,9 -1,15 3,3 -1,4 2,8 -2,1 2,25 3,1 5,10 1,9 -2,8 2,12 v 15 l 2,3 v 14 l -1,13 -4,10 v 5 l 3,7 -1,3 4,7 -2,7 3,4 1,8 3,1 -1,3 3,2 -1,4 3,1 -3,5 4,15 -1,11 -3,3 1,5 5,5 v 3 l 5,3 2,6 7,4 2,3 -1,5 h 3 l 1,7 10,9 3,1 5,6 -3,-7 v -6 l 3,-10 2,-1 v -6 l -4,-5 3,-3 -1,-5 3,-2 3,-6 -1,-4 h -3 l -2,-6 4,-2 -2,-5 -4,-3 2,-4 -2,-3 2,-4 4,-2 7,1 v -6 l 6,-5 v -3 l 4,1 4,-2 v -10 l -2,-2 4,-6 9,-3 3,-4 -2,-6 3,-5 v -4 l 10,1 7,-7 1,18 2,8 4,4 h 7 l 9,10 -2,5 7,-1 1,4 8,3 7,8 1,4 4,3 1,10 2,3 8,4 3,-1 2,5 -4,10 15,5 7,7 -1,5 -4,1 8,8 -5,4 1,2 -3,3 -9,1 -2,4 -5,-2 -2,2 h -3 l -3,7 4,4 z"
     id="甘孜藏族自治州" />
  <path
     stroke="#ffff00"
     stroke-opacity="1"
     stroke-width="0.5"
     stroke-linecap="round"
     stroke-linejoin="round"
     stroke-dasharray="none"
     fill="#1e90ff"
     fill-opacity="1"
     fill-rule="evenodd"
     d="m 889.99999,993 -5,-3 h -10 v 3 l -5,8 -4,3 -9,3 -2,4 3,3 1,4 -2,5 -8,7 -3,-1 -2,-3 -4,-1 -7,-16 -10,-6 v -9 l 5,-4 7,-18 4,-4 1,-5 -12,-13 -6,-2 -2,2 -7,-5 h -6 l -8,4 -1,8 -7,7 v 10 l -3,4 -4,1 -6,-3 -1,2 -5,-2 -5,-12 1,-6 -3,-7 3,-12 -3,-8 4,-5 -7,-21 2,-3 7,-3 2,-3 -7,-10 3,-16 5,-7 -2,-6 h 10 l 2,-6 -16,-4 -5,8 -2,8 -4,4 -8,-1 -1,-7 -5,-1 -4,2 -3,11 2,3 -1,2 -6,2 -7,-3 -5,1 -4,-3 -3,-7 h -3 l -5,4 2,4 -1,2 h -6 l -2,2 1,4 -2,3 -4,1 -2,4 2,4 v 8 l -3,2 -2,5 -5,4 -1,3 3,10 -9,16 -14,-2 -6,-6 -6,-3 h -6 l -6,-13 -8,-11 2,-2 -4,-3 -3,1 -9,11 -8,5 -1,7 -8,3 -4,4 v 6 l -4,7 5,5 1,11 5,5 -1,2 -6,2 -7,7 -4,6 -1,6 h -8 l -8,4 -14,12 v 9 l -4,12 v 5 l -3,6 -9,6 h -7 l -2,-5 -10,9 -10,4 -5,-1 -2,-18 -3,-1 -2,-13 -3,-3 -10,5 -1,-2 9,-10 2,3 h 8 l 1,2 7,1 10,4 h 5 l 6,-4 -2,-3 v -6 l -12,-13 -6,2 -5,-8 -3,-1 -5,2 -4,-5 -11,4 1,-4 -3,-4 -10,-1 -13,1 -5,3 2,-10 -2,-4 1,-7 -6,-7 v -10 l 4,-12 -3,-3 1,-7 -4,-1 -3,-11 2,-4 -3,-3 v -4 l -4,-4 v -9 l -4,-7 -7,-4 -1,4 -8,4 -9,11 -5,3 1,-6 -3,-2 1,-4 -2,-4 -6,-2 -8,7 -6,1 -6,4 v 5 l 3,2 h 8 l 2,7 -4,6 -4,1 -4,-4 -13,2 -10,-4 1,3 -9,10 -6,2 -5,-2 -5,1 4,7 v 6 l 4,11 4,3 -1,5 3,11 -6,-1 -10,8 h -7 v 3 h 4 l 6,5 -1,11 2,9 -3,3 -1,7 -3,5 -8,6 -2,5 -4,3 2,3 -1,7 -4,6 -1,7 4,4 v 3 l -8,8 -1,9 3,4 1,11 7,24 -1,3 -13,-3 -2,2 h -6 l -6,9 -3,1 -4,-2 -1,-4 -5,1 -18,-13 -5,-8 -2,1 4,11 6,2 14,17 -5,6 8,6 8,3 7,-1 3,2 v 6 l -4,5 3,3 -1,11 5,3 3,-2 1,-5 h 5 v -4 l 3,-2 4,-11 5,-6 10,5 1,-2 1,5 5,1 2,3 2,-3 9,-6 v -5 l 5,-8 4,1 4,-3 5,8 -1,4 3,2 -2,3 v 9 l 8,6 5,6 2,12 h 9 l 2,3 -3,4 3,2 -4,5 5,-2 v 6 l 2,1 8,14 -1,14 3,-3 h 3 l 4,6 -1,3 9,16 3,1 -2,6 4,4 v 6 l 5,13 5,1 6,-3 10,3 -1,6 5,-3 h 9 l 7,-3 h 6 l 3,3 4,-1 7,8 4,-3 2,-6 -1,-5 9,-5 8,2 3,-10 5,-3 7,-10 7,1 v 2 l 5,3 1,5 -4,9 1,8 6,11 5,5 6,1 3,-2 10,6 3,-4 7,-1 2,-8 -3,-3 2,-2 v -6 l 4,-10 3,5 -2,5 2,1 -1,5 6,10 -3,1 2,7 7,-4 5,5 4,1 2,4 3,-2 6,-13 7,-5 7,-2 3,9 5,1 1,3 5,2 v 9 l -4,4 2,9 -2,9 2,2 v 5 l -4,2 2,5 -3,10 3,5 -4,-1 -4,3 3,3 -3,3 4,2 v 4 l -3,4 v 4 l -4,3 v 2 l -4,1 v 8 l -4,1 -8,-5 1,-3 -3,-4 1,-5 -3,-4 -2,5 -5,-1 -2,4 v 9 l -2,3 3,1 2,7 h 3 l 2,5 -1,7 3,9 -6,15 -4,-2 -3,-5 -7,1 -3,18 2,8 -2,3 -1,8 -3,5 1,11 -7,2 -5,4 -2,9 1,14 4,-1 7,-10 4,-1 6,4 12,-2 6,4 10,2 12,-16 13,-9 v -4 l 2,-2 h 5 l 12,-5 9,-11 h 8 l 18,-8 2,-5 h 3 l 11,5 2,6 -5,5 -2,7 11,6 2,3 9,-3 v -4 l 3,-6 4,-1 4,-5 9,-2 6,-6 3,-6 2,6 6,1 9,-2 4,-6 -2,-7 2,-11 -1,-5 h 7 l 5,-9 -1,-5 h -3 l -3,-7 2,-3 v -11 l -4,-4 v -6 l -4,-12 1,-2 -5,-13 -3,-1 -9,-14 -2,-9 2,-9 -5,-6 5,-10 3,-11 -2,-21 -4,-5 v -7 l 11,-23 2,-1 3,7 3,2 9,-4 4,-5 4,3 6,-1 6,-5 v -5 l 8,-15 3,-1 2,-7 4,-2 7,2 3,-1 1,-6 -3,-5 16,-18 h 4 l 5,-7 13,-11 3,-9 -1,-15 4,-6 7,-5 v -3 l -4,3 h -4 l -4,-4 v -7 l -2,-3 -5,2 -5,-4 v -6 l 4,-3 v -8 l 3,1 12,-10 7,-13 6,-1 5,-5 11,7 1,6 4,-1 3,-7 6,1 3,-5 5,-2 2,-4 8,-3 1,-5 -4,-7 v -10 l -4,-6 v -5 l -4,-8 -5,-6 -5,1 -3,2 -3,8 -7,-5 5,-11 -4,-2 -4,-7 -5,-2 z m -309,390 1,13 h 3 l 2,-14 z"
     id="凉山彝族自治州" />
</svg>