<svg xmlns="http://www.w3.org/2000/svg" id="svg1" version="1.1" viewBox="-251 -228 2039.9999 1745">
  <path id="成都市" fill="#ff6347" fill-opacity="1" fill-rule="evenodd" stroke="#ffffff" stroke-dasharray="none" stroke-linecap="round" stroke-linejoin="round" stroke-opacity="1" stroke-width="0.5" d="m953 633 7 12 9-1 8 4 5 5 6-4v-4l5-11 3-3 1 3h6v7l2 3-2 3 6 3 1 5 2-1 6 4 9 3-1 3 5 2 2 8h2l4 8 4-3-3-1 4-3-2-2 4-6 3 1v-6l9-2 1 2 5-3 6-5v-5l10 1-3-6 1-3 9 2 2-6 3-1 3 3 7-2 3 5 3-4 3 1 4-3v-7l-2-5 3 3 1-3 4 1 3-5-3-2-1-10v-16l3-6-6-8h-7v-4l5-7-1-3-4 1v-5l-6-6v-6l-4 1-3-2-3-11-3 2-3-12-11-2-2-3-3 1-3-4-14-4 3-7-4-4-9-3-3 2-9-1-1 4-5-2-2 7-6 2-6-2-13 1-3-3h-9l-1-3 4-5v-9l-4-4-5-1-2-4h-2l-6-6-1-3-7-6 1-8-3-2 1-3-5-7-7-4-3-4v-8l-3-1-4-6v-4l7-6-7-12 1-1h-13l-2-4h-5l-7 3-2 4-7 2-6 8-7 2-4-2-7 3 2 10-2 7 2 3 1 12-4 3-1 6-6 10-1 7-3 6 3 2v12l-10 7-2 3v7l-8 6h-5l-5 3-3 5-6 3-8-6-6 1-5-2-6 1-8 10-7-4-9 2-8 5 3 7 5 6-1 3 7-3 6 10h3l3 3-1 13 7 8-2 6 4 1 1 3-4 8h-4l-2 4-2 8v7l2 3-12 14v7l2 2 1 8 12 3 7-9 5 4 1 4h3l2-7 7-4 6 1 1 5 9 1-2 13 2 4-2 3 7 9 8-6 2 5h2l1-4-3-3h4l2 6 3-6 6-3 2-3-2-4 11-5 4 1 2-4 4 3v-6l8-3-2-5h4l2-3 4-1-2-4h4l8-8 15-1 2 4h4l1-5 5-1-1 3zm27-151v1zM859 675v1zm144-34Z"/>
  <path id="自贡市" fill="#ff6347" fill-opacity="1" fill-rule="evenodd" stroke="#ffffff" stroke-dasharray="none" stroke-linecap="round" stroke-linejoin="round" stroke-opacity="1" stroke-width="0.5" d="m993 869 3-5-1-3 8 6 4-2 2-4-3-6 6 1 3 3 4 1 9-2 2 2h11l-1 4 5-1v3l8 11 6 3 7-5 3-5 5-3 13 1v5l-3 4 4 8 3-1 3 4 1 5-6 7 3 10 4 2 4-2h6l2 2 2-3h7v-3l4-1v-6l4 1 7-3 1 8 4 1 3 5 4 1 12 11 16-2 1 3h6l1-4 2-1 2 4h3l2 2 2-3-5-3 5-5 1-6-7-4-3 2-5-2v-6l11-13-1-3 5-6-3-3 2-3-5-5-4 2-4-4 2-3-8-5-5 1-4-6 2-3-9-7-2-6-5-4 2-6 6 1 1-3-4-5 1-2-4-6-3 2 2 2-4 2 2 3h-7l-5 5-5-6-3 2-9-5 1-3-5 1-3 8-4-6h-4l-2 2-5-1v11l3-1-1 7-4-2 1 4h-6l-1-2-6-2v-3l-10-10-5 4-4-3-2 2-2-2-2 4-5-8h5l-1-13-8-9 1-8h-9l-8-4-3 3v5l-7 4-6-9-5-1-2-4-4-1v3l-7 2-5-5-3 8-5 2 5 6-1 4-5 4h3l3 5-3 5-4-5-7 7-5-2-2 3 1 7 8-2 1 4h-3v5l2 2 6-4 1 6 4-2v4l-4 2-1 3h-5l-4-2-1 5 2 2 9 2 1 5-5 4-1 4 1 1 5-4 1 13zm-5-58v1zm3-5z"/>
  <path id="攀枝花市" fill="#ff6347" fill-opacity="1" fill-rule="evenodd" stroke="#ffffff" stroke-dasharray="none" stroke-linecap="round" stroke-linejoin="round" stroke-opacity="1" stroke-width="0.5" d="m567 1509-1-7 2-9 5-4 7-2-1-11 3-5 1-8 2-3-2-8 3-18 7-1 3 5 4 2 6-15-3-9 1-7-2-5h-3l-2-7-3-1 2-3v-9l-4-3 1-5h-2l-2 5-2 1-2 14h-3l-1-17-10-1-4-4-1-4h-2l-1-6-8-6-7-2-5-8-1-15 13-9v-3l6-10 2-10-10-6-3 2-6-1-5-5-6-11-1-8 4-9-1-5-5-3v-2l-7-1-7 10-5 3-3 10-8-2-9 5 1 5-2 6-4 3-7-8-4 1-3-3h-6l-7 3h-9l-5 3-4 13 2 2-3 15 16 7v5l7 1-2 7 2 4h8l2 3 8 1 6 9-5 8 2 3-4 3 6 4-1 6 6-1 3-3 4 2-2-9 3-2 9 3-1 3-3 2 1 3-8 6v2l5 4-4 6 1 7-12 1 4 15 3-2 1 5 3 4 9-1 4 7 6 2 5 6 8 6-1 8 6 2-4 6 4 1-3 2-4-2-5 2-2 4 2 4 4 3 2 5 4-2 4 1 3-3 3 4 5 1 7 10 7 3-3 8 5 6zm63-149-5-7 9-1 2-7-2-5 4-2v-5l-2-2 2-9-2-9 4-4v-9l-5-2-1-3-5-1-3-9-7 2-7 5-6 13-3 2-2-4-4-1-5-5-7 4-2-7 3-1-6-10 1-5-2-1 2-5-3-5-4 10v6l-2 2 3 3-2 8-7 1-3 4-2 10-6 10v3l-13 9 1 15 5 8 7 2 8 6 1 6h2l1 4 4 4 10 1v4l8-2 2-5h2l-1 5 4 3 2-4 5 1 2-5 3 4-1 5 3 4-1 3 8 5 4-1v-8l4-1v-2l4-3v-4l3-4v-4l-4-2 3-3-3-3zm4-8-9 1 5 7h6l-3-5z"/>
  <path id="泸州市" fill="#ff6347" fill-opacity="1" fill-rule="evenodd" stroke="#ffffff" stroke-dasharray="none" stroke-linecap="round" stroke-linejoin="round" stroke-opacity="1" stroke-width="0.5" d="m1219 844-4 1-3 6-3-2-5 2-9 13-1 6h-3l-2 3 3 3-5 6 1 3-11 13v6l5 2 3-2 7 4-1 6-5 5 5 3-2 3-2-2h-3l-2-4-2 1-1 4h-6l-1-3-3 1 4 3 2 4 5 2 2 16 4 10-6 5 2 2 1 5-3 1 1 3-2 5-6 4 1 9 6 8v5l4 1 2 4-1 6-8 10 19-1v3l5 1v9l-2 3-4 1 3 2 1 4 5 5-1 12 3 10-1 5 3 6-2 3-13 1-9 7-4 6-5 1 1 6-3 3 3 6 6 1 5-4 5 3 2 13-3 4h-3l-3 3 3 11-1 4 13 1v2l-5 1-2 2 3 5v12l3 1 3-4h3l2-4 16-6 3 2 4-2 7 2 4 3 2 5 10 2 3 10 4 2 4-5h10v-5l11-2 11 3 5-6 9-3 2 4 10-5 7 1 7-3v-3l12-1 12 5 6-1 8-4 5-5 8-3-5-4 5-5-3-3v-4h-4l1-8 3-4-6-10-8-2-1-3 4-4-2-9-4-1-1-4-4-4-15-7-5 1-12 7 1 4-4-2-7 3-1-5-4-3-2 3h-6l-1 2-4-2 1-2-4-4 2-9 4-7-3-4-2 1-3-2-4-10-5-1-2-5-3 4 3 2-9 1-1 7-8-3-3-5-6-3 3-8-2-14-6-2v-7l3-7 10-6 2-11h5l5-6 2 6 5-5 2 2 16 2 4-3-3-3v-10l8-2v-5l4-2 2-10 2 3 5 2 4 9 9 2 5 10h11l5 12 8 4 3 4 7 1 2 7 5 4 9 1-1-10-5-3-1 2-2-5 3-6-4-7 1-3-5-4 3-3-2-1-1-7-3-6-3-1-1-8-4-8 4-6-11-12-6-4-4 4-9 1-5-5-4 3-2-2 1-8h-5l-3-4-6 2-4 5-7 4v4l-3-1-3-6-4 2-4-4-6 2 1-2-3-7-5-3 1-4-4-7 3-4-5-7v-5l4-1-5-1-1-8-3-1 1-9-3-14 4-1-2-2-5 6-2-1v5h-3l-3-6-5 5 1-3-10-1-7 3-2-5-6 1-2-2 1-6zm-35 252-1 2zm29-245v-1zm-28 173z"/>
  <path id="德阳市" fill="#ff6347" fill-opacity="1" fill-rule="evenodd" stroke="#ffffff" stroke-dasharray="none" stroke-linecap="round" stroke-linejoin="round" stroke-opacity="1" stroke-width="0.5" d="M1173 552h-2v-6l-7-4v-2l-7 1-1-3-9-2-5-6-2-7 1-6-6 1 2-6-4-1-3-10h-5l1 1-1-1-2 2h-3l-1-2h-5l2-3-1-5-4-3 2-4-2-2-1-8-3-1-5-7 3-4-1-2-5-1-3-7-4 1-1-12 5-3 1-9-3-2-1 3h-9l-1-7-3-2v-4l-13-6v-9l-11-9-5 7-3 1v4l-11 2-6-1-2 2-3-3-2 1-14-17h-6l-6-11-4-2-2 2-3-1-1-5 2-3-3-2-2-9-6-5v-4l3-6-4-4-2 2-8-2-4 4-5-1-11 9-4 16 1 6-3 5-7-5-12 14 2 9 2-1 2 4h13l-1 1 7 12-7 6v4l4 6 3 1v8l3 4 7 4 5 7-1 3 3 2-1 8 7 6 1 3 6 6h2l2 4 5 1 4 4v9l-4 5 1 3h9l3 3 13-1 6 2 6-2 2-7 5 2 1-4 9 1 3-2 9 3 4 4-3 7 14 4 3 4 3-1 2 3 11 2 3 12 3-2 3 11 3 2 4-1v6l6 6v5l4-1 1 3-5 7v4h7v-6l4-2 1 2 4-3 4 1v4l4-3 3 6-1 4 4 8h7v-4l8 3 2-2 3-9 6-8 5-3-2-3v-4h3l2-6zm-53-49zm3 0zm2-2 1 1zm-27-43 1 1z"/>
  <path id="绵阳市" fill="#ff6347" fill-opacity="1" fill-rule="evenodd" stroke="#ffffff" stroke-dasharray="none" stroke-linecap="round" stroke-linejoin="round" stroke-opacity="1" stroke-width="0.5" d="m1226 377-8-7h-3l-1-13-5 1-6-3 2-10-5-6v-3l-6 4-5-2 5-4v-3h5v-6l-4-5-4 1-1 2-3-3v-8l-7-1 3-10-3-5-4-1 4-8-4-4 1-4-3-3 4 1 3-4 1 2 4-3 3 7 2-10h-3l1-11 6-6-5-3 5-3-2-4-5-2 4-6-6-2 4-5-1-2 3-6v-3l-3 1-3-3 3-3-1-4-13 4-12-2-4 2-1 4-7-1-2 5-7 4 1-5-7-6 2-8h-6l-5 2-5-7-8 1-13-10 1-4-4-4 1-2-2-4 2-7-2-2 1-5-8-6-10-1-4-8-3-1v-5l3-9-7-6-2-6-5-2-5 1-3-6-10 1-7-4v-3l-9-5-1-3-13-3-3-13-5 3-10-8-6-9-9-9-8-1-10-8-5 1-2 7 1 4-4 10 1 4-2 1 1 6 7 2v4l-5 5 6 5 6-1v-3l8-5 4 2 1 10h3l4 10-3 5 5 4 5 11-3 18 1 10-5 13-9 1 7-5-1-8-8-9-3-8v-5l-6-5-5 3-3-2-13 3-5-1-3 4-4 2-2 6 12 16-1 3 2 14-5 14 6 11 11 2 10 12h6l1 3 10 3 1-3 5-3 4-13 5 3v2l7 8 1 8-6-1-7 4-4 5-1 4-3 2 2 5-4-3-5 3-9-1-10 2-4-5h-9l-5-3-9-1 1 8-5-1v3l-3 4 3 6-2 3-4 2-6 10-1 7 2 4 9 2 6 4h5l8-5 7 8 3 11 8-2 2 4 3-1 3 4 3-2 9 2 1 3h3l4 8v10l-4 1-1 3-8 1-1 3 4 4-3 6v4l6 5 2 9 3 2-2 3 1 5 3 1 2-2 4 2 6 11h6l3 5 4 2 3 6 4 4 2-1 3 3 2-2 6 1 11-2v-4l3-1 5-7 11 9v9l13 6v4l3 2 1 7h9l1-3 3 2-1 9-5 3 1 12 4-1 3 7 5 1 1 2-3 4 5 7 3 1 1 8 2 2-2 4 4 3 1 5-2 3h5l4 2 2-2h5l3 10 4 1-2 6 6-1-1 6 2 7 5 6 9 2 1 3 7-1v2l7 4v6l11-6 5 1 5-5-2-15-5-5-1-7-5-2-1-2 3-2-6-11 3-1v-6l-4-12 3-1 2-5-1-2 5-5 4 2 10-1 8-5 2-7 5 2 5 17 4-1 4 3h4l3 6 3 2h5l6 3 1 5 4 3 4-1-1-3 8-2 1-3h5l5-5-1-7 2-3-2-2 3-3-2-4 1-5-3-4h-6v-17l-4-2-2-5-4-3-3 2-1-3 3-5-1-3 4-1 3-6-1-5-3-2-2 2h-4l-3 3-1-5-3 3-3-2-2 2-5-2-3-5 1-4 3-3-6-6-2 2-3-1 4-4z"/>
  <path id="广元市" fill="#ff6347" fill-opacity="1" fill-rule="evenodd" stroke="#ffffff" stroke-dasharray="none" stroke-linecap="round" stroke-linejoin="round" stroke-opacity="1" stroke-width="0.5" d="m1226 377 7-5v-5h6l1 2h8l4-4 1 7 2-1 1-6 3-1-1-3 4-3v3l5-1 3-9 4-3 1-14 4 2 4-4 9 15h5l-2 3 5 8 4-3-1-4 5 5 4-5-1-3 6-2 4 2 5-5h5l3-3 5 1-2-3 6-5 2-6 3-1-1-6-2 1 3-9 2 4 3 1 6-3 2 1-1 7 3 3 7-3 2 2 3-5-1-3 4 1 3-4 3-1 2-4 4 1 5 9 4-1v-14l3-4-3-2 4-3-2-1 5-5h3v-3l-3-4h6l2-7 3-4-1-5h3v-4l3-3h5l-5-3 6-7-2-10 2-11 18-5 2-5 7 1v-6l7 2 4-2-6-6-1 2-2-5-7-2v-23l-2-7-5-4 2-13-2-5 2-7-3-3-1-11-2 1-7-2-4 3-9 2-4 4-8-2v4l-6 5-5-2-2-5-5-5-9-2-5 2-4-5-15-1v-2l-3 1-2-4-4 1-11-11 1-3 5-3v-6h-5l-4-6-4-1-2 6h-3l-5-4-8 5-6-3-6 2-1 2-4-1-3 7 1 4-7 5-2-4h-4l-2 3-3-1-8 7-9 5-6 1-2-6-5-1v-5l2-1-2-3v-4h-4l-2-12-5-6-2-10-5-3-6 1-2 2-1 8-5 1 8 23 5 1 1 4-2 4h-4l-6 4-5 1-3 6-7 2-2 3-7 1-3-3h-4l-1 7-13 7-6 2-3-3-3-7-9-2-3 2-7 1-8 6-9 1-1-4-5-7-5-2-4 4h-6l-5 2-8-8-5 2-6-1-3 9v5l3 1 4 8 10 1 8 6-1 5 2 2-2 7 2 4-1 2 4 4-1 4 13 10 8-1 5 7 5-2h6l-2 8 7 6-1 5 7-4 2-5 7 1 1-4 4-2 12 2 13-4 1 4-3 3 3 3 3-1v3l-3 6 1 2-4 5 6 2-4 6 5 2 2 4-5 3 5 3-6 6-1 11h3l-2 10-3-7-4 3-1-2-3 4-4-1 3 3-1 4 4 4-4 8 4 1 3 5-3 10 7 1v8l3 3 1-2 4-1 4 5v6h-5v3l-5 4 5 2 6-4v3l5 6-2 10 6 3 5-1 1 13h3zm175-84 2 1-1-2z"/>
  <path id="遂宁市" fill="#ff6347" fill-opacity="1" fill-rule="evenodd" stroke="#ffffff" stroke-dasharray="none" stroke-linecap="round" stroke-linejoin="round" stroke-opacity="1" stroke-width="0.5" d="m1155 588-1 2 4 6-1 3 2 5v3h-3l-1 2 4 2-3 5 4 1 6 12h4l1 3 12 4v4l7 2 1-2 11-3 3 1 3-2 2 6 7-4 3 8 4-1 6 5v4l8 4 1-4 9 10 3-2 9-1 2-7h-4l-3-3 1-9 8 3 1 2h9l2-5-4-1 1-8h5l-2-3 4-3 3-6-2-1 2-5 2 1 2-5 5-3 5 6v4l5-4 4 1 1 4 3-2 4 5 5-1 4 2 2-2-3-3 1-4-2-4-3 1-3-4 4-3-3-12-1 3-2-3-4 1 2 3h4l-5 6-6 2v-8h-3l-2 2-2-1 3-4 2-8-9-12v-4h-3l1-6-4-13v-10l-2-5 3-4-8-8-4-8h2l-2-6-5-1-2-5-6 4v-5l-8-8-4 1-4-3-1-5-6-3h-5l-3-2-3-6h-4l-4-3-4 1-5-17-5-2-2 7-8 5-10 1-4-2-5 5 1 2-2 5-3 1 4 12v6l-3 1 6 11-3 2 1 2 5 2 1 7 5 5 2 15-5 5-5-1-9 6 1 1-2 6h-3v4l2 3-5 3-6 8-3 9zm5 29zm-4-10zm23 28z"/>
  <path id="内江市" fill="#ff6347" fill-opacity="1" fill-rule="evenodd" stroke="#ffffff" stroke-dasharray="none" stroke-linecap="round" stroke-linejoin="round" stroke-opacity="1" stroke-width="0.5" d="m1046 693-2 7 4 3-3 8 3 2-1 1 3 3v4l2 1-4 18 4 1-3 4-3 1-2 7-3 3-5 1-3-4-11 6 2 4-5-2-9 17 2 4 5 1 6 9 7-4v-5l3-3 8 4h9l-1 8 8 9 1 13h-5l5 8 2-4 2 2 2-2 4 3 5-4 10 10v3l6 2 1 2h6l-1-4 4 2 1-7-3 1v-11l5 1 2-2h4l4 6 3-8 5-1-1 3 9 5 3-2 5 6 5-5h7l-2-3 4-2-2-2 3-2 4 6-1 2 4 5-1 3-6-1-2 6 5 4 2 6 9 7-2 3 4 6 5-1 8 5-2 3 4 4 4-2 5 5h3l1-6 9-13 5-2 3 2 3-6 4-1v-8l3-2-1-3 2-5-3-4h-9l4-4-2-3h-4l-1 2-6-1 2-2-3-4v-7l-5-5-1-4 2-4 3-1-1-3 2-4 3 3 2-5 6-1-1-4 3-1v-6l2 1 4-3-1-7-5-5 2-9-4-2-1-6-3-2-1 5-10-2-2 5h-6l-4-1 1-3-4-6h-7l-9 3-6-4-3-7h4l-1-4-6-4 2-5h-4l-6-7h-4l-4-3h-4l-4 3-1 7-4 1 4 1-5 7-3-2-3 4-7 2 2 4-6-2-2 1 3 3-3 1-2-2 3-4-9-6-3-9-7-1-2-2-2 4 7 3-4 2v4l-3-1-5-11-2 4-5 2-3-4h-2l-2-10-4-2-2 2-2-6-5-2 1 3-6-1zm167 157zm-4-1zm1 1zm-85-129z"/>
  <path id="乐山市" fill="#ff6347" fill-opacity="1" fill-rule="evenodd" stroke="#ffffff" stroke-dasharray="none" stroke-linecap="round" stroke-linejoin="round" stroke-opacity="1" stroke-width="0.5" d="M993 869h-5l-1-13-5 4-1-1 1-4 5-4-1-5-9-2-2-2 1-5 4 2h5l1-3 4-2v-4l-4 2-1-6-6 4-2-2v-5h3l-1-4-8 2-1-7 2-3 5 2 7-7 4 5 3-5-3-5h-3l5-4 1-4-5-6 5-2 3-8 5 5 7-2-4-12-4 3-3-5v-4l-6-2-1 2-4-2-2-4-5-2-5-7 5-7-8-4 2-3-1-5h-9l-3 4-3-1-3 3 2 3h-7l2 5-6 4 2 2-4 7-7-1-2 3h-4l-4 4-6 1-2-3-9 1v-4l-3-5 3-3 8-3-2-5-2-1v-7l-6-10-3-1v-4l-5-1-8 4-3-2v3l-3 1 2 4-5 2-8-2 4 4v4l-3-1-6 6-10-1v7l2 4-5-1-4-7-2 3h-9l-3 4v7l-3 3 1 4-2 3 2 3 3-1 3 2 3-5 1 8-4 2v3l-7 7-6 1 1 5-3 3 3 6-2 4 6 1-3 4-3 2-10-1-3 2-2 9-4 1-5-3-7 3-6-4-8-1-5 6-2 5 4 6-3 6v4l4 7 5 1-2 6h-10l2 6-5 7-3 16 7 10-2 3-7 3-2 3 7 21-4 5 3 8-3 12 3 7-1 6 5 12 5 2 1-2 6 3 4-1 3-4v-10l7-7 1-8 8-4h6l7 5 2-2 6 2 12 13-1 5-4 4-7 18-5 4v9l10 6 7 16 4 1 2 3 3 1 8-7 2-5-1-4-3-3 2-4 9-3 4-3 5-8v-3h10l5 3v-3l13-4 7-11 1-7-2-4-3-2 2-2 6-1 5-8-2-3 5-1 8-5 19 17 4-5 4-1 4-13 4 2 2-2-1-6 10-7-2-1-2-9 2-1 6 4 3-3v-7l3-5 1-10 3-10 3-2-2-5 5-2-4-5zm-8-43z"/>
  <path id="南充市" fill="#ff6347" fill-opacity="1" fill-rule="evenodd" stroke="#ffffff" stroke-dasharray="none" stroke-linecap="round" stroke-linejoin="round" stroke-opacity="1" stroke-width="0.5" d="m1500 436-3-3 3-6-3 1-2-5 2-4-5-10-10-5 4-4-7-8-1-10-5-2 1-7-6 3-4-1 1-7-9 1v-2l-5 3-4-2-4-5-3 5 2 5-3 7-4 1-7-2v-6l-6-6-8 1-1-3-4-1-1-10-3-4-5-1-2-5-7-3 3-5v-3l4 2 1-7h3l-3-4-2-7-2 1-5-9-4-1-2 4-3 1-3 4-4-1 1 3-3 5-2-2-7 3-3-3 1-7-2-1-6 3-3-1-2-4-3 9 2-1 1 6-3 1-2 6-6 5 2 3-5-1-3 3h-5l-5 5-4-2-6 2 1 3-4 5-5-5 1 4-4 3-5-8 2-3h-5l-9-15-4 4-4-2-1 14-4 3-3 9-5 1v-3l-4 3 1 3-3 1-1 6-2 1-1-7-4 4h-8l-1-2h-6v5l-7 5 1 6-4 4 3 1 2-2 6 6-3 3-1 4 3 5 5 2 2-2 3 2 3-3 1 5 3-3h4l2-2 3 2 1 5-3 6-4 1 1 3-3 5 1 3 3-2 4 3 2 5 4 2v17h6l3 4-1 5 2 4-3 3 2 2-2 3 1 7-5 5h-5l-1 3-8 2 1 3 8 8v5l6-4 2 5 5 1 2 6h-2l4 8 8 8-3 4 2 5v10l4 13-1 6h3v4l5 8 3 1 1 3-2 8-3 4 2 1 2-2h3v8l6-2-2-3 3-3-2-3 4-1 2 3 1-3 3 8 2-2 8 1 3-8 5 6 5-3h3l2-8 6-12 5 1 2-4-3-1-2-6 9-6 2-4 2 2v-5l-4 1-1-4 14 4 2 4 10-8 2 2v3l5 4 2-3h4l-1-3 4-4 1-5 4-2 3-6 4 1v5l4 6 3-2h8l-1-3 6-2 2-5-2-3v-5l2 1 9-4v-6l2-3-4-6 2-2 5 1 3-6 4-1-2-5h10v-5l3 1 3-4 2-9 7-6 5-1 2-5 5-2-1-3 4-6-2-3v-7l3-4zm-189 160-3 3 1 3 6-6zm-78-224z"/>
  <path id="眉山市" fill="#ff6347" fill-opacity="1" fill-rule="evenodd" stroke="#ffffff" stroke-dasharray="none" stroke-linecap="round" stroke-linejoin="round" stroke-opacity="1" stroke-width="0.5" d="m774 827 7-11 8 1 6 4 7-3 5 3 4-1 2-9 3-2 10 1 3-2 3-4-6-1 2-4-3-6 3-3-1-5 6-1 7-7v-3l4-2-1-8-3 5-3-2-3 1-2-3 2-3-1-4 3-3v-7l3-4h9l2-3 4 7 5 1-2-4v-7l10 1 6-6v-3h3l-4-4 8 2 5-2-2-4 3-1v-3l3 2 8-4 5 1v4l3 1 6 10v7l2 1 2 5-8 3-3 3 3 5v4l9-1 2 3 6-1 4-4h4l2-3 7 1 4-7-2-2 6-4-2-5h7l-2-3 3-3 3 1 3-4h9l1 5-2 3 8 4-5 7 5 7 5 2 2 4 4 2 1-2 6 2v4l3 5 4-3 2 7 6 3 9-17 5 2-2-4 11-6 3 4 5-1 3-3 2-7 3-1 3-4-4-1v-9l4-9-2-1v-4l-3-3 1-1-3-2 3-8-4-3 2-7-1-3 3 1-2-5 2-4h-3l-2-3-4 3-4-8h-2l-2-8-5-2 1-3-9-3-6-4-2 1-1-5-6-3 2-3-2-3v-7h-6l-1-3-3 3-5 11v4l-6 4-5-5-8-4-9 1-11-17 1-3-5 1-1 5h-4l-2-4-15 1-8 8h-4l2 4-4 1-2 3h-4l2 5-8 3v6l-4-3-2 4-4-1-11 5 2 4-2 3-6 3-3 6-2-6h-4l3 3-1 4h-2l-2-4-8 5-4-1-1 3-4-3-2 5h-5l-1-3-9 10-5 15-7 1 1 4h-3l-3 3-9 3-3 6 5 5 8 20-4 2 3 5-3 1 2 4-3 2 2 6h-4l-5-4-2 2-7 2-1-6-7-5-2 4-6-3-6 2v20l-3 13-8 5-9 14 11 10 9 3zm102-97h-3v2l3 2zm77-97-1 2 2-1zm96 98v1z"/>
  <path id="宜宾市" fill="#ff6347" fill-opacity="1" fill-rule="evenodd" stroke="#ffffff" stroke-dasharray="none" stroke-linecap="round" stroke-linejoin="round" stroke-opacity="1" stroke-width="0.5" d="m921 1008 3-1v-6l7-5v-8l3-9 4 3v5l4 2 2-3 5 2 1 4 21-5 7 5 5-7h20l2-5h2l3 6h5l3 4 5-6 6-1 5 1 4 3-1 6h-6l-3 3-2 6-5-1-2 5h-11l-2 2v4l3 1-1 4 2 4-2 2 1 7-2 2 4 13 5 4-3 3 5 2 4-5 4-2 5 2 1 8 3 4h7l-1 2 4 4-3 6-8 2v5l6 2 3-1v12l-10 6v5l-4 2h-13l-1 2 5 4 5 1 5 5v5l4 4 12 9 5 2 1 3 6-1 4 4v3l4 2 5-3 5 2 8-7 12-4 3 4 6-4 15-1 3-5 5-2-3-4 5-5 3 1v-3l5-5 1-9 6-1 8-6 16 6 11-1 4-6 9-7 13-1 2-3-3-6 1-5-3-10 1-12-5-5-1-4-3-2 4-1 2-3v-9l-5-1v-3l-19 1 8-10 1-6-2-4-4-1v-5l-6-8-1-9 6-4 2-5-1-3 3-1-1-5-2-2 6-5-4-10-2-16-5-2-2-4-4-3-3-1-3 2h-7l-12-11-4-1-3-5-4-1-1-8-7 3-4-1v6l-4 1v3h-7l-2 3-2-2h-6l-4 2-4-2-3-10 6-7-1-5-3-4-3 1-4-8 3-4v-5l-13-1-5 3-3 5-7 5-6-3-8-11v-3l-5 1 1-4h-11l-2-2-9 2-4-1-3-3-6-1 3 6-2 4-4 2-8-6 1 3-4 7 4 5-5 2 2 5-3 2-3 10-1 10-3 5v7l-3 3-6-4-2 1 2 9 2 1-10 7 1 6-2 2-4-2-4 13-4 1-4 5-19-17-8 5-5 1 2 3-5 8-6 1-2 2 3 2 2 4-1 7-7 11-13 4v3l5-1 5 2 4 7 4 2-5 11 7 5 3-8 3-2z"/>
  <path id="广安市" fill="#ff6347" fill-opacity="1" fill-rule="evenodd" stroke="#ffffff" stroke-dasharray="none" stroke-linecap="round" stroke-linejoin="round" stroke-opacity="1" stroke-width="0.5" d="m1502 683 1-1 8 11h4l-1-4 4 2 4-4-2-3 1-3 5 1v-5l5-2 1-3 15-16 6-11 3-9-3-3v-5h-6l1-8-3-2 1-3-2-1 4-3-1-3-5 1-1-3-4-2 5-7 4-2-2-5-4-2 1 4-2 3-12-5-3 4 7 4 2 3h-4l-1-3h-6l-1-6-12-1-2 3-3 1-2-7 2-3h6l5-20-3-1-6 2-5-2-3 2-9-6-2-7 2-1 4 4 5-5-12-1-1-4-7-1-2-4-17-11-1-5h-9l-1-2-9 4-2-1v5l2 3-2 5-6 2 1 3h-8l-3 2-4-6v-5l-4-1-3 6-4 2-1 5-4 4 1 3h-4l-2 3-5-4v-3l-2-2-10 8-2-4-14-4 1 4 4-1v5l-2-2-2 4-9 6 2 6 3 1-2 4-5-1-6 12-2 8h-3l-5 3-5-6-3 8-8-1-2 2v4l-4 3 3 4 3-1 2 4-1 4 3 3 6 1v2l7 6 3-2v4l8 5v-5l3 3 4 1 2 6v10l3 1-1 2 3 3 4-2 2 3h3l1-3 2 3 4-2v-7l7 3 2-4 5-1 5 2 5-3-4-5h5l-1-3 21-1 3-4 9 5 4 6 2 4-6 4h2l2 8 8 6-1 8 6 1-1 9 5 4 1 6 10 2 2-3 6-1 2-3 4 5 4-2 5 2v-2l6-1 2-6zm46-63v3zm5 13 3 3 6-10-3-2-2 1 1 3-2 5-3-1zm-2-6v2l2-1zm-178 29-1 3zm130 26-1 1zm51-51v1zm-40-39z"/>
  <path id="达州市" fill="#ff6347" fill-opacity="1" fill-rule="evenodd" stroke="#ffffff" stroke-dasharray="none" stroke-linecap="round" stroke-linejoin="round" stroke-opacity="1" stroke-width="0.5" d="m1562 626 6-7 4-15 9-13 2 1 4-4-2-3 6-5 10-15-3-4-8-4v-5l-6-8 3-1 1-7 4 1 2-5 3-2-1-5-2-1 6-4 3 3 9-2 7 3 3 4 15-15 4 1 4 4-1 4 2 6h4l6 4 6 1 7-8 12-9v-2l6-4-8-4-2-7 2-8 6 2 4-9 10-3 1-3-6-2-3-10 2-1 2-6 9-10 1-4-2-5-7 3-4-6 14-4v-2l9-6 8-8-6-7 5-4 4-1 2-3-1-6 3-2-1-4h-5l-1-5 7-3h18l3-2v-6h7l2-4-2-2 4-7 7-7 5 3 1-4h3l3-4 7-2-5-6v-7l-2-1 5-5-8-5h-5v-6h-4l-9-5-1-5-8-2-6-9-5-3v-7l-4-3 2-4 2 1 5-4 8 6 3-3-7-7 6-4v-3l-4-3 6-3 4 3 3-1 3 2 4-3v-4l-4-2-4-9-7-7 7-4 13 3 6-5-1-9-4-1-2-4-11 3-4-2-8 2-3 5h-3l-12-9-7 3 1 2-6 6-5-4-2 5-14-3-4 3-5 1 1 8-5 6h-3l-5-3-5-8-6-3-4 2-6-4-9-12-6-13-7 2-2 2v8l-5 7 2 7-10 4-1 10 2 3 8-1 5 6 1-1 5 4 4 7-16 13-10-1-7 3-3 4 3 4-3 3-5 1-1 3-3 1 6 6-3 4-7 2 14 7-3 14-4 2 1 5-9 2 5 10 3-1-3 10-3 3-2 6h-3l-4 3-1-2-3 4-7 2-5 5-2-2-4 4-1 8-7 1-3 8-2 1-4-4-2 7-10 1-5 10 1 5-5 5h-4l-5-8-5 5 2 5-4 1 1 6-4-3-6 12h-4l-1 5-3 4v7l2 3-4 6 1 3-5 2-2 5-5 1-7 6-2 9-3 4-3-1v5h-10l2 5-4 1-3 6-5-1-2 2 4 6-2 3 1 8h9l1 5 17 11 2 4 7 1 1 4 12 1-5 5-4-4-2 1 2 7 9 6 3-2 5 2 6-2 3 1-5 20h-6l-2 3 2 7 3-1 2-3 12 1 1 6h6l1 3h4l-2-3-7-4 3-4 12 5 2-3-1-4 4 2 2 5-4 2-5 7 4 2 1 3 5-1 1 5-3 5 3 2-1 8h6l3 5 2-5-3-1 2-1v-4l2 2zm-14-14-4 2 2 1 2-2zm5 20zm4-10v3l2-1zm0 4-2 1 3 1zm-6 1-1 1z"/>
  <path id="雅安市" fill="#ff6347" fill-opacity="1" fill-rule="evenodd" stroke="#ffffff" stroke-dasharray="none" stroke-linecap="round" stroke-linejoin="round" stroke-opacity="1" stroke-width="0.5" d="m851 681-7-9 2-3-2-4 2-13-9-1-1-5-6-1-7 4-2 7h-3l-1-4-5-4-7 9-12-3-1-8-2-2v-7l12-14-2-3 2-15 2-4h4l4-8-1-3-4-1 2-6-7-8 1-13-3-3h-3l-6-10-7 3 1-3-5-6-3-7-5 2-12 1-6-7 4-14v-8l-2-4-4-3h-9l-9 4h-9l-7 14-14 1-5 5-6 2-2 4-5 1-4 4 5 12-4 9-1 7-5 4-2 5-2 30 3 7-2 8 1 6-5 25-14 10-6 12v6l-5 5 2 13 3 5 2 8-6 15 4 6v4l5 2 1 6 3 2 2 5-5 6 2 3-8 8-3 17 6 6 2 4-1 4-20 16-5-2v-9l-2-5-4 1v5l-2-1-8 3-10-1-11 3-7-3 3 8v5l6 4-7 16 2 6 5 3 11 1 9 5 5 7-1 3-11 10 6 1 3-3 4 2 6 10-2 5 3 6-2 6 6 5-2 2 8 11 6 13h6l6 3 6 6 14 2 9-16-3-10 1-3 5-4 2-5 3-2v-8l-2-4 2-4 4-1 2-3-1-4 2-2h6l1-2-2-4 5-4h3l3 7 4 3 5-1 7 3 6-2 1-2-2-3 3-11 4-2 5 1 1 7 8 1 4-4 2-8 5-8h4l7 3-4-7v-4l3-6-4-6-17-4-11-10 9-14 8-5 3-13v-20l6-2 6 3 2-4 7 5 1 6 7-2 2-2 5 4h4l-2-6 3-2-2-4 3-1-3-5 4-2-8-20-5-5 3-6 9-3 3-3h3l-1-4 7-1 5-15 9-10 1 3h5l2-5 4 3 1-3z"/>
  <path id="巴中市" fill="#ff6347" fill-opacity="1" fill-rule="evenodd" stroke="#ffffff" stroke-dasharray="none" stroke-linecap="round" stroke-linejoin="round" stroke-opacity="1" stroke-width="0.5" d="M1500 436h4l6-12 4 3-1-6 4-1-2-5 5-5 5 8h4l5-5-1-5 5-10 10-1 2-7 4 4 2-1 3-8 7-1 1-8 4-4 2 2 5-5 7-2 3-4 1 2 4-3h3l2-6 3-3 3-10-3 1-5-10 9-2-1-5 4-2 3-14-14-7 7-2 3-4-6-6 3-1 1-3 5-1 3-3-3-4 3-4 7-3 10 1 16-13-4-7-5-4-1 1-5-6-8 1-2-3 1-10 10-4-2-7 5-7v-8l2-2-4-7-2-8-6-3h-8l-6 2-1 2-10 2-4-9-6 2v-9l-3-2-2-7 1-6-5-2h-5l-4 7-8 3-5 8-4 11-10-6-4-8-11-3-9-13 3-2 2-11-1-10-2-4-4-1-1-3 1-5-7-1-3-2-4 2-8-1-6 3-2-4-5-1-5 1-5 4-5-2-2 3v-8l-9-1-13 11-4 1 1 11 3 3-2 7 2 5-2 13 5 4 2 7v23l7 2 2 5 1-2 6 6-4 2-7-2v6l-7-1-2 5-18 5-2 11 2 10-6 7 5 3h-5l-3 3v4h-3l1 5-3 4-2 7h-6l3 4v3h-3l-3 6-4 3 3 2-3 4v14h-2l2 7 3 4h-3l-1 7-4-2v3l-3 5 7 3 2 5 5 1 3 4 1 10 4 1 1 3 8-1 6 6v6l7 2 4-1 3-7-2-5 3-5 4 5 4 2 5-3v2l9-1-1 7 4 1 6-3-1 7 5 2 1 10 7 8-4 4 10 5 5 10-2 4 2 5 3-1-3 6zm-3-3z"/>
  <path id="资阳市" fill="#ff6347" fill-opacity="1" fill-rule="evenodd" stroke="#ffffff" stroke-dasharray="none" stroke-linecap="round" stroke-linejoin="round" stroke-opacity="1" stroke-width="0.5" d="m1124 721 5-7-4-1 4-1 1-7 4-3 12 3 6 7h4l-2 5 6 4 1 4h-4l3 7 6 4 9-3h7l4 6-1 3 4 1h6l2-5 10 2 1-5 3 2 1 6 4 2-2 9 5 5 1 7 2 2 7 1 1-9 11 5-2-3 4-3v-3l3 2 3-20 4 1 1-4 9-1 3-3 6 3 2-3 3-1v-7h-4l-2-7 5-6-2-4 2-5 4-4-1-4-4 2-1-3h-6l-3-6-2 1-4-3 1-5-8-1-6-6 5-2v-3h-4l-3 2-4-1 4-7-2-5-3-2-1 4-8-4v-4l-6-5-4 1-3-8-7 4-2-6-3 2-3-1-11 3-1 2-7-2v-4l-12-4-1-3h-4l-6-12-4-1 3-5-4-2 1-2h3v-3l-2-5 1-3-4-6 1-2-8-3v4h-7l-4-8 1-4-3-6-4 3v-4l-4-1-4 3-1-2-4 2v6l6 8-3 6v16l1 10 3 2-3 5-4-1-1 3-3-3 2 5v7l-4 3-3-1-3 4-3-5-7 2-3-3-3 1-2 6-9-2-1 3 3 6-10-1v5l-6 5-5 3-1-2-9 2v6l-3-1 1 2h-2l-3 4 2 2-4 3 3 1 2 3h3l-2 4 2 5-3-1 1 5 6 1-1-3 5 2 2 6 2-2 4 2 2 10h2l3 4 5-2 2-4 5 11 3 1v-4l4-2-7-3 2-4 2 2 7 1 3 9 9 6-3 4 2 2 3-1-3-3 2-1 6 2-2-4 7-2 3-4zm36-104zm-113 52-1-2v2zm114-50zm84 43-1-1-1 2zm-88-48z"/>
  <path id="阿坝藏族羌族自治州" fill="#ff6347" fill-opacity="1" fill-rule="evenodd" stroke="#ffffff" stroke-dasharray="none" stroke-linecap="round" stroke-linejoin="round" stroke-opacity="1" stroke-width="0.5" d="m354 163-1 2-7 2 2 6-7 11-6 1-5 6v6l-2 4 1 4 4 5v5h4l3 3-2 2 4 6h7l5 3 3 6 7 1 1 5-6 1 1 5 5 7 6 3 4 8h3l-3 9 8 4 1 3 7 4 14-7 3 2h5l4 7-4 4-1 4 2 2-1 8-7 1-7 12-10 4-1 5 3 5h5l6-3 6 7 1 8 10 9 7 2-2 8 4 4-2 1-1 4 4 12 4 2 1 3 7-5 10-3 4-6 8 15-4 14 2 5h5l3 4 5-6 2 4 10-7 2 1 2-9 6 1 3 5-1 4-5 4-1 6 2 8 3 3 3-8-4-4 5-1 1-3 12-2 3 2 2 6 7-9 3-1 10 7 1 6 4 2 1 6 9-5v6h13l4 4 1 13 3 3 1 6 4 3 4-5 8-1 2 4 5 3 4 15 8-3 9-10 5-2 3 7-2 4v20l3 2 4 16-5 3-2-1-14 2-4 5 1 16-5 6 5 5-2 1-3 6 2 2-1 8 4-1 7 2 1 4 6 6 6 3 1-7 8-2 3 3 5-3v-3l5-5h3l6-6 8-2 10 7 5-3-1-16 4-4 5-1 2-4 6-2 5-5 14-1 7-14h9l9-4h9l4 3 2 4v8l-4 14 6 7 12-1 13-7 9-2 7 4 8-10 6-1 5 2 6-1 8 6 6-3 3-5 5-3h5l8-6v-7l2-3 10-7v-12l-3-2 3-6 1-7 6-10 1-6 4-3-1-12-2-3 2-7-2-10 7-3 4 2 7-2 6-8 7-2 2-4 7-3 3 1-2-9 12-14 7 5 3-5-1-6 4-16 11-9 5 1 4-4 8 2 3-5 8-1 1-3 4-1v-10l-4-8h-3l-1-3-9-2-3 2-3-4-3 1-2-4-8 2-3-11-7-8-8 5h-5l-6-4-9-2-2-4 1-7 6-10 4-2 2-3-3-6 3-4v-3l5 1-1-8 9 1 5 3h9l4 5 10-2 9 1 5-3 4 3-2-5 3-2 1-4 4-5 7-4 6 1-1-8-7-8v-2l-5-3-4 13-5 3-1 3-10-3-1-3h-6l-10-12-11-2-6-11 5-14-2-14 1-3-12-16 2-6 4-2 3-4 5 1 13-3 3 2 5-3 6 5v5l3 8 8 9 1 8-7 5 9-1 5-13-1-10 3-18-5-11-5-4 3-5-4-10h-3l-1-10-4-2-8 5v3l-6 1-6-5 5-5v-4l-7-2-1-6 2-1-1-4 4-10-1-4 2-7 5-1 10 8 8 1 9 9 6 9 10 8 5-3 2-10 3-3 7 3 7-3v-9l8-3-1-3-5-3-6 2-4-2 5-11-1-3 3-1v-3l-5-9-4-14 1-6-5-11 6-2 2 3h9l-1-3 5-3-9-4-14 2-4-13-5-3-4 1v-5l-7-10-5-16 2-5 2-1-2-8-12-12-9-4h-7l-8 3-20-3-15 5-16-7-4 1v-2l-3-1 3-2-3-2-1 2-2-2h-6l-7 4-2 7-6-2 6-13-4-2 2-4-4-9-2-1-8 2-6 11-15 2-13-7 1-6-6-3-4 5-12-3-1-3 5-18-2-5-7-1-2-3v-5l6-7-2-8-5-1 2-6h8l1-3-5-5-3 1-2-3 2-4-2-7-4-4-9-3-2 2h-6l-6-5 1-7-7-13-5-3h-6l-4 2-1 7-9-1-4 4-1 5-8-1-6 9-7 1-3 3 1 3h-5l-5 4 11 8 1 6-2 1-6-4-6-1-21 6-6-3-3 10-4 6-1 10h-9l-3-3-3 3 1-5-5 3-2-2-3 3-4-1v4l-7-1v-3l-6-1-6 4 13 13 5 8 4 2 1 8-4 8 11 1 5 6-8 7 3 3 5-5 3 3-3 3-2 8 5 14 8 1 4 5 6 1 2 4 5 3-1 3-5-1 3 6-2 5 2 7-4-1-1 3-6 3-1 5-6-1 1 3-4-3-7 2-2-3-4 1-3-2v5l-4 1-3 8-6 5 3 2-1 4 3 12-2 5-6-2-4-4-1-5-6-2-4 12v5l-6 4-9-1-3-2-6 3h-4l-2 7-8 5-3 6-7-3 3-9v-6l-3-6-5-4-2 1-4-7 8-6 2 4 2-5 5-4h3v-8l2-7 5-5v-5l6-3-4-2v-5l-3-2-2-8 2-5-5-8-7-5-2 10-5 2-4-2-2 2 1 12-2 6 2 2-3 2-12 2v3l-6 9-2 12 5 6h5l5 3 1 3-5 12-6 3 1 4-5 5 1 5-5 8-22-20-5-7h-15l-3 4 2 4-1 7h-2l-10-15V8l-3-1-2-4h-10l-4-2-3 3-1-3h-3l-5 7-5 3-2 8h3l-1 4 5 6-1 2 3 7-4 4v6h3l4 3-2 6 2 6-10-1 1 9-2 8 10 4 8 8v4l3 2-3 12v10l-6 9-6 5h-5l-3 5v-7h-5l-2-2-8 4-6 7-7 2-5 4-3-3h-3l-2-4h-5l-5-3-6-1-5 3-1-5-3 3-11-6-1 1 5 5 1 7-2 1-5-4-2 1-2 6v11z"/>
  <path id="甘孜藏族自治州" fill="#ff6347" fill-opacity="1" fill-rule="evenodd" stroke="#ffffff" stroke-dasharray="none" stroke-linecap="round" stroke-linejoin="round" stroke-opacity="1" stroke-width="0.5" d="m244 1100 2-1 5 8 18 13 5-1 1 4 4 2 3-1 6-9h6l2-2 13 3 1-3-7-24-1-11-3-4 1-9 8-8v-3l-4-4 1-7 4-6 1-7-2-3 4-3 2-5 8-6 3-5 1-7 3-3-2-9 1-11-6-5h-4v-3h7l10-8 6 1-3-11 1-5-4-3-4-11v-6l-4-7 5-1 5 2 6-2 9-10-1-3 10 4 13-2 4 4 4-1 4-6-2-7h-8l-3-2v-5l6-4 6-1 8-7 6 2 2 4-1 4 3 2-1 6 5-3 9-11 8-4 1-4 7 4 4 7v9l4 4v4l3 3-2 4 3 11 4 1-1 7 3 3-4 12v10l6 7-1 7 2 4-2 10 5-3 13-1 10 1 3 4-1 4 11-4 4 5 5-2 3 1 5 8 6-2 12 13v6l2 3-6 4h-5l-10-4-7-1-1-2h-8l-2-3-9 10 1 2 10-5 3 3 2 13 3 1 2 18 5 1 10-4 10-9 2 5h7l9-6 3-6v-5l4-12v-9l14-12 8-4h8l1-6 4-6 7-7 6-2 1-2-5-5-1-11-5-5 4-7v-6l4-4 8-3 1-7 8-5 9-11 3-1-2-2 2-6-3-6 2-5-6-10-4-2-3 3-6-1 11-10 1-3-5-7-9-5-11-1-5-3-2-6 7-16-6-4v-5l-3-8 7 3 11-3 10 1 8-3 2 1v-5l4-1 2 5v9l5 2 20-16 1-4-8-10 3-17 8-8-2-3 5-6-2-5-3-2-1-6-5-2v-4l-4-6 6-15-2-8-3-5-2-13 5-5v-6l6-12 14-10 5-25-1-6 2-8-3-7 2-30 2-5 5-4 1-7 4-9-2-7-3-5 1 16-5 3-10-7-8 2-6 6h-3l-5 5v3l-5 3-3-3-8 2-1 7-6-3-6-6-1-4-7-2-4 1 1-8-2-2 3-6 2-1-5-5 5-6-1-16 4-5 14-2 2 1 5-3-4-16-3-2v-20l2-4-3-7-5 2-9 10-8 3-4-15-5-3-2-4-8 1-4 5-4-3-1-6-3-3-1-13-4-4h-13v-6l-9 5-1-6-4-2-1-6-10-7-3 1-7 9-2-6-3-2-12 2-1 3-5 1 4 4-3 8-3-3-2-8 1-6 5-4 1-4-3-5-6-1-2 9-2-1-10 7-2-4-5 6-3-4h-5l-2-5 4-14-8-15-4 6-10 3-7 5-1-3-4-2-4-12 1-4 2-1-4-4 2-8-7-2-10-9-1-8-6-7-6 3h-5l-3-5 1-5 10-4 7-12 7-1 1-8-2-2 1-4 4-4-4-7h-5l-3-2-14 7-7-4-1-3-8-4 3-9h-3l-4-8-6-3-5-7-1-5 6-1-1-5-7-1-3-6-5-3h-7l-4-6 2-2-3-3h-4v-5l-4-5-1-4 2-4v-6l5-6 6-1 7-11-2-6 7-2 1-2-17-7-2-3h-3v-2l-4-3v-4h-3l1-4-7-9-1-5h-4l-5-8-6 8-2-1 4-12-12 8-12-5-1 3-4 1-2 6v10l-3 9-4-5-15-2v-4l-4-2 7-10 3-2-4-17 1-8-11-13h-6l1-7-12-2-2-2-2-8-7-8-1-5h-5v11l-5 11h-8l-3-3-2 1-3 6 2 1 4 8-5 13 1 5-2 7-4 5v3h-4l-2-7-10-2-2-4-6 2-4-2-1-5-4-5-19-5-3-3-11-5-4 3-2-2-3 3H99l-1-6-3-5 1-5h-3v-7l-3-1-2-6-5-6H73l-6-7-12-4-2 3-8-4-2-4-4 1-6-2-8-6-6-7 1-3-5-5V2L6-1l3-5-2-4 4-5-1-6-8-8 2-10-1-5-3-2v-4l-8-4-2-5-4-1 2-6-1-4-5-3-1-6 7-2-11-12v-3l-3-4-8-3-4-6-3 1-6-17-5 1-6-5 4-9-3-4 1-7 3-1 2-4-3-11-6-6 2-7-12-1-23 3-10-6-3 1-8-4-8 1-5-2-2-4-13-12-24-2-3 2-4 8-19 8-1 2 7 13v4l-3 5-5 1v12l-4 8-6-2-15 6-3-2-4 3-2-1-2 3h-12l-1 2 2 7-5 1-1 4 7 6 1 7 2 2-1 6 4 10-6 12 2 5 4 1 2 4 4-1 10 2-2 13 5 6 2 6 5-1 4 4 4-3 4 3h3l2 4 12 4 2 3-6 3-3 6h-5v4l-7-1-2 2-3 10v6l-6 6v3l-5 4-3-1-2 5-6 3v5l2 2-2 7 5 2 5 13-4 3h-4l5 7-11 4-3-1-13 4-3 3 2 4-4 5 1 3 4 1 3 12-2 1 1 10 7 11-1 5 12 11 5 1 5 6 12 1v4l4 5 12 8 7 2 4-1 2 3h5l2 4 6-1 8 4 4-1 8 4h4l7 5 3-1 2 5 3 1 6 6h7l3 4 10 4 4 4-2 5 4 12-2 2v4l7 5 7 14 1 5 5 3 3 5 11 9v4l6 4-2 2 1 8-2 4 2 4-5 3-1 3 5 8-2 6h5v5l3 2v4l3-1 3 3 5 9v3h5l2 5-1 7 12 14 6 3 16 18 6 4h3l1 4 8 4 1 4 8 10-14 14-1 6-5 6-6-3-2-5-4-3-4-7-8-1-5 8-3 10 1 6 3 1-4 8 7 1 13 13v8l4 3 1 4 6 4 6 7-2 10-4 9 14 12 1 4 4 2 1 5 4 3 9 3 2 8-5 3-1 3-4 1-1 3 3 10v6l4 4-3 4 2 5-1 4 3 6-1 4 4 7 2 11-2 4 2 5-2 4 3 3 1 10-3 3 1 6 3 3-2 7 1 7 5 3-1 3 7 9-2 12 3 17 3 2-2 2-1 6-2 2-1 6-4 8 1 5-5 27 4 12 7 9-1 15 3 3-1 4 2 8-2 1 2 25 3 1 5 10 1 9-2 8 2 12v15l2 3v14l-1 13-4 10v5l3 7-1 3 4 7-2 7 3 4 1 8 3 1-1 3 3 2-1 4 3 1-3 5 4 15-1 11-3 3 1 5 5 5v3l5 3 2 6 7 4 2 3-1 5h3l1 7 10 9 3 1 5 6-3-7v-6l3-10 2-1v-6l-4-5 3-3-1-5 3-2 3-6-1-4h-3l-2-6 4-2-2-5-4-3 2-4-2-3 2-4 4-2 7 1v-6l6-5v-3l4 1 4-2v-10l-2-2 4-6 9-3 3-4-2-6 3-5v-4l10 1 7-7 1 18 2 8 4 4h7l9 10-2 5 7-1 1 4 8 3 7 8 1 4 4 3 1 10 2 3 8 4 3-1 2 5-4 10 15 5 7 7-1 5-4 1 8 8-5 4 1 2-3 3-9 1-2 4-5-2-2 2h-3l-3 7 4 4z"/>
  <path id="凉山彝族自治州" fill="#ff6347" fill-opacity="1" fill-rule="evenodd" stroke="#ffffff" stroke-dasharray="none" stroke-linecap="round" stroke-linejoin="round" stroke-opacity="1" stroke-width="0.5" d="m890 993-5-3h-10v3l-5 8-4 3-9 3-2 4 3 3 1 4-2 5-8 7-3-1-2-3-4-1-7-16-10-6v-9l5-4 7-18 4-4 1-5-12-13-6-2-2 2-7-5h-6l-8 4-1 8-7 7v10l-3 4-4 1-6-3-1 2-5-2-5-12 1-6-3-7 3-12-3-8 4-5-7-21 2-3 7-3 2-3-7-10 3-16 5-7-2-6h10l2-6-16-4-5 8-2 8-4 4-8-1-1-7-5-1-4 2-3 11 2 3-1 2-6 2-7-3-5 1-4-3-3-7h-3l-5 4 2 4-1 2h-6l-2 2 1 4-2 3-4 1-2 4 2 4v8l-3 2-2 5-5 4-1 3 3 10-9 16-14-2-6-6-6-3h-6l-6-13-8-11 2-2-4-3-3 1-9 11-8 5-1 7-8 3-4 4v6l-4 7 5 5 1 11 5 5-1 2-6 2-7 7-4 6-1 6h-8l-8 4-14 12v9l-4 12v5l-3 6-9 6h-7l-2-5-10 9-10 4-5-1-2-18-3-1-2-13-3-3-10 5-1-2 9-10 2 3h8l1 2 7 1 10 4h5l6-4-2-3v-6l-12-13-6 2-5-8-3-1-5 2-4-5-11 4 1-4-3-4-10-1-13 1-5 3 2-10-2-4 1-7-6-7v-10l4-12-3-3 1-7-4-1-3-11 2-4-3-3v-4l-4-4v-9l-4-7-7-4-1 4-8 4-9 11-5 3 1-6-3-2 1-4-2-4-6-2-8 7-6 1-6 4v5l3 2h8l2 7-4 6-4 1-4-4-13 2-10-4 1 3-9 10-6 2-5-2-5 1 4 7v6l4 11 4 3-1 5 3 11-6-1-10 8h-7v3h4l6 5-1 11 2 9-3 3-1 7-3 5-8 6-2 5-4 3 2 3-1 7-4 6-1 7 4 4v3l-8 8-1 9 3 4 1 11 7 24-1 3-13-3-2 2h-6l-6 9-3 1-4-2-1-4-5 1-18-13-5-8-2 1 4 11 6 2 14 17-5 6 8 6 8 3 7-1 3 2v6l-4 5 3 3-1 11 5 3 3-2 1-5h5v-4l3-2 4-11 5-6 10 5 1-2 1 5 5 1 2 3 2-3 9-6v-5l5-8 4 1 4-3 5 8-1 4 3 2-2 3v9l8 6 5 6 2 12h9l2 3-3 4 3 2-4 5 5-2v6l2 1 8 14-1 14 3-3h3l4 6-1 3 9 16 3 1-2 6 4 4v6l5 13 5 1 6-3 10 3-1 6 5-3h9l7-3h6l3 3 4-1 7 8 4-3 2-6-1-5 9-5 8 2 3-10 5-3 7-10 7 1v2l5 3 1 5-4 9 1 8 6 11 5 5 6 1 3-2 10 6 3-4 7-1 2-8-3-3 2-2v-6l4-10 3 5-2 5 2 1-1 5 6 10-3 1 2 7 7-4 5 5 4 1 2 4 3-2 6-13 7-5 7-2 3 9 5 1 1 3 5 2v9l-4 4 2 9-2 9 2 2v5l-4 2 2 5-3 10 3 5-4-1-4 3 3 3-3 3 4 2v4l-3 4v4l-4 3v2l-4 1v8l-4 1-8-5 1-3-3-4 1-5-3-4-2 5-5-1-2 4v9l-2 3 3 1 2 7h3l2 5-1 7 3 9-6 15-4-2-3-5-7 1-3 18 2 8-2 3-1 8-3 5 1 11-7 2-5 4-2 9 1 14 4-1 7-10 4-1 6 4 12-2 6 4 10 2 12-16 13-9v-4l2-2h5l12-5 9-11h8l18-8 2-5h3l11 5 2 6-5 5-2 7 11 6 2 3 9-3v-4l3-6 4-1 4-5 9-2 6-6 3-6 2 6 6 1 9-2 4-6-2-7 2-11-1-5h7l5-9-1-5h-3l-3-7 2-3v-11l-4-4v-6l-4-12 1-2-5-13-3-1-9-14-2-9 2-9-5-6 5-10 3-11-2-21-4-5v-7l11-23 2-1 3 7 3 2 9-4 4-5 4 3 6-1 6-5v-5l8-15 3-1 2-7 4-2 7 2 3-1 1-6-3-5 16-18h4l5-7 13-11 3-9-1-15 4-6 7-5v-3l-4 3h-4l-4-4v-7l-2-3-5 2-5-4v-6l4-3v-8l3 1 12-10 7-13 6-1 5-5 11 7 1 6 4-1 3-7 6 1 3-5 5-2 2-4 8-3 1-5-4-7v-10l-4-6v-5l-4-8-5-6-5 1-3 2-3 8-7-5 5-11-4-2-4-7-5-2zm-309 390 1 13h3l2-14z"/>
</svg>
