<?xml version="1.0" encoding="UTF-8" standalone="no"?>
<svg
   width="991"
   height="1602"
   viewBox="-253 -208 991 1602"
   version="1.1"
   id="svg1"
   xmlns="http://www.w3.org/2000/svg"
   xmlns:svg="http://www.w3.org/2000/svg">
  <defs
     id="defs1" />
  <path
     stroke="#ffff00"
     stroke-opacity="1"
     stroke-width="0.5"
     stroke-linecap="round"
     stroke-linejoin="round"
     stroke-dasharray="none"
     fill="#1e90ff"
     fill-opacity="1"
     fill-rule="evenodd"
     d="m 123,867.99999 -6,-9 -1,-5 -2,-1 -8,3 -7,-6 -6,-1 -2,33 h 13 l 12,-11 z"
     id="和平区" />
  <path
     stroke="#ffff00"
     stroke-opacity="1"
     stroke-width="0.5"
     stroke-linecap="round"
     stroke-linejoin="round"
     stroke-dasharray="none"
     fill="#1e90ff"
     fill-opacity="1"
     fill-rule="evenodd"
     d="m 151,828.99999 h -9 l 1,9 -15,-1 -6,5 -4,-6 -7,6 -2,4 6,5 -1,2 2,1 1,5 20,27 2,8 3,3 8,5 5,1 4,-10 h 5 l 1,4 4,-1 v -2 l 9,3 1,4 2,-4 2,1 3,-15 -24,-6 -5,-18 2,-2 11,-3 -5,-14 9,-3 -2,-6 -10,-6 z"
     id="河东区" />
  <path
     stroke="#ffff00"
     stroke-opacity="1"
     stroke-width="0.5"
     stroke-linecap="round"
     stroke-linejoin="round"
     stroke-dasharray="none"
     fill="#1e90ff"
     fill-opacity="1"
     fill-rule="evenodd"
     d="m 155,940.99999 v -2 l 4,-1 -3,-7 7,-3 2,4 5,-2 -3,-7 4,-1 -2,-10 5,-7 -24,-3 -8,-5 -3,-3 -2,-8 -14,-18 -7,3 -12,11 H 91 l 3,28 4,5 11,-4 8,11 -2,1 4,2 v 21 l 13,1 12,-4 z"
     id="河西区" />
  <path
     stroke="#ffff00"
     stroke-opacity="1"
     stroke-width="0.5"
     stroke-linecap="round"
     stroke-linejoin="round"
     stroke-dasharray="none"
     fill="#1e90ff"
     fill-opacity="1"
     fill-rule="evenodd"
     d="m 98,914.99999 -4,-5 -3,-28 2,-33 9,3 v -12 l -16,1 v 4 h -9 l -11,-2 v -4 l -6,2 -6,-6 -1,4 -4,2 1,3 -9,8 16,18 1,17 2,6 -11,6 8,4 20,17 h 9 z"
     id="南开区" />
  <path
     stroke="#ffff00"
     stroke-opacity="1"
     stroke-width="0.5"
     stroke-linecap="round"
     stroke-linejoin="round"
     stroke-dasharray="none"
     fill="#1e90ff"
     fill-opacity="1"
     fill-rule="evenodd"
     d="m 131,796.99999 -9,8 -4,-6 -4,-2 -10,6 -3,-5 -18,7 4,3 3,-1 2,13 -3,3 1,3 7,6 5,8 v 12 l 4,4 8,-3 1,-2 -6,-5 2,-4 7,-6 4,6 6,-5 15,1 -1,-9 h 9 v -8 l -2,-2 -5,1 -1,-2 h -7 l 7,-7 z"
     id="河北区" />
  <path
     stroke="#ffff00"
     stroke-opacity="1"
     stroke-width="0.5"
     stroke-linecap="round"
     stroke-linejoin="round"
     stroke-dasharray="none"
     fill="#1e90ff"
     fill-opacity="1"
     fill-rule="evenodd"
     d="m 102,839.99999 -5,-8 -7,-6 -1,-3 3,-3 -2,-13 -3,1 -10,-9 -8,2 -5,-2 -5,5 -3,6 -3,19 1,6 6,6 6,-2 v 4 l 11,2 h 9 v -4 h 12 z m -46,-40 7,-3 1,-5 -7,-5 -5,2 2,5 -1,1 z"
     id="红桥区" />
  <path
     stroke="#ffff00"
     stroke-opacity="1"
     stroke-width="0.5"
     stroke-linecap="round"
     stroke-linejoin="round"
     stroke-dasharray="none"
     fill="#1e90ff"
     fill-opacity="1"
     fill-rule="evenodd"
     d="m 155,902.99999 28,3 6,2 11,6 7,8 7,5 8,3 16,-2 3,2 6,16 4,5 16,8 h 12 l 9,-2 11,-10 h 3 l 2,4 -1,10 4,4 15,-2 9,18 2,1 12,-10 -2,-8 v -11 l -2,3 -3,-3 2,-10 -1,-1 3,-8 3,1 2,-11 21,3 -1,-11 4,-12 h -8 l 1,-20 h -13 v -6 l -24,-1 5,-28 3,-12 3,-1 17,8 8,-4 2,-11 8,-3 2,-15 -23,-4 -17,-10 v -11 l -3,-3 1,5 -6,3 v 4 l -8,-3 7,-3 2,-7 -8,4 h -5 l -3,-2 4,-4 v -9 l -11,-8 -12,-2 -4,-5 -2,4 -4,2 -12,-1 v 3 l -6,4 -7,-2 2,-10 -6,-4 -5,1 -8,6 1,3 -13,-3 -25,-2 -5,1 -2,-3 -18,-6 -7,-4 -5,4 v 2 l 7,-2 2,3 2,16 -5,4 -23,8 -9,6 -10,11 12,14 -7,7 h 7 l 1,2 5,-1 2,2 v 8 l 11,-4 10,6 2,6 -9,3 5,14 -11,3 -2,2 5,18 24,6 -3,15 -2,-1 -2,4 -1,-4 -9,-3 v 2 l -4,1 -1,-4 h -5 l -3,5 z"
     id="东丽区" />
  <path
     stroke="#ffff00"
     stroke-opacity="1"
     stroke-width="0.5"
     stroke-linecap="round"
     stroke-linejoin="round"
     stroke-dasharray="none"
     fill="#1e90ff"
     fill-opacity="1"
     fill-rule="evenodd"
     d="m 54,834.99999 -1,-6 2,-12 -4,-2 -14,-2 -14,2 -8,4 v 9 l -5,1 -1,-6 -13,5 h -7 l -5,3 -2,-14 -3,1 1,6 -3,1 1,6 2,1 -10,5 -1,-11 -2,1 -3,-9 -8,2 -1,-3 -14,4 -4,-1 v -5 l -4,-3 -3,8 -3,-2 -3,4 -2,7 -5,-2 1,-2 -9,2 v 4 l 7,2 v 4 l -11,1 4,13 -4,1 -1,3 3,11 -2,1 -3,9 -6,-2 -1,7 h -3 l -3,12 -3,-1 -2,7 -3,-1 -3,8 -3,-1 -1,6 13,4 -1,4 -8,3 2,4 9,-6 3,4 2,-3 10,1 14,9 3,-6 12,5 -1,4 6,1 1,7 15,2 18,6 17,8 -4,5 5,3 -2,2 -1,12 15,2 1,-5 4,-4 11,11 32,17.00001 11,11 30,50 11,14 40,41 7,4 40,15 10,7 3,-1 3,-4 -4,-1 1,-2 -3,-4 9,-7 -2,-6 6,-1 -2,-9 h -3 v -4 h 2 l -4,-4 -1,-6 -3,1 -1,-8 -3,-3 -12,1 -28,-32 2,-4 -8,-5 4,-13 -15,-9 10,1 7,-11 v -4 l 3,-2 -4,-3 4,-5.00001 6,5.00001 2,4 1,-11.00001 5,-7 -2,-3 3,-3 -4,-1 5,-2 -3,-5 -6,4 -4,-3 -2,-12 -6,-5 h -7 l 2,-2 4,2 -2,-5 3,-13 -23,6 -13,-1 v -21 l -4,-2 2,-1 -8,-11 -23,9 h -9 l -20,-17 -8,-4 11,-6 -2,-6 -1,-17 -16,-18 9,-8 -1,-3 4,-2 z"
     id="西青区" />
  <path
     stroke="#ffff00"
     stroke-opacity="1"
     stroke-width="0.5"
     stroke-linecap="round"
     stroke-linejoin="round"
     stroke-dasharray="none"
     fill="#1e90ff"
     fill-opacity="1"
     fill-rule="evenodd"
     d="m 155,940.99999 -3,13 2,5 -4,-2 -2,2 h 7 l 6,5 2,12 4,3 6,-4 3,5 -5,2 4,1 -3,3 2,3 -5,7 -1,11.00001 -2,-4 -6,-5.00001 -4,5.00001 4,3 -3,2 v 4 l -7,11 -10,-2 15,10 -4,13 8,5 -2,4 28,32 12,-1 3,3 1,8 3,-1 1,6 4,4 h -2 v 4 h 3 l 2,9 -6,1 2,6 50,-40 21,26 3,-10 5,-9 28,-25 12,-2 -4,-32 10,-5 1,2 7,-6 5,-1 11,9 h 5 l -2,-14 2,-1 -1,-8 4,-13.00001 4,-7 -2,-3 -6,1 -7,-9 -9,-5 -12,10 -2,-1 -9,-18 -15,2 -4,-4 1,-10 -2,-4 h -3 l -11,10 -9,2 h -12 l -16,-8 -4,-5 -6,-16 -3,-2 -16,2 -8,-3 -7,-5 -7,-8 -11,-6 -15,-3 -5,7 2,10 -4,1 3,7 -5,2 -2,-4 -7,3 3,7 -4,1 z"
     id="津南区" />
  <path
     stroke="#ffff00"
     stroke-opacity="1"
     stroke-width="0.5"
     stroke-linecap="round"
     stroke-linejoin="round"
     stroke-dasharray="none"
     fill="#1e90ff"
     fill-opacity="1"
     fill-rule="evenodd"
     d="m -76,821.99999 -6,-5 2,-2 -3,-1 -1,-6 2,-7 12,-1 5,2 2,-19 3,-1 -2,-5 2,-2 -3,-12 7,-3 2,1 7,-8 1,-5 4,2 h 7 l 4,-6 v -7 h 9 v -13 l -4,2 -1,-4 h 2 l -3,-8 h 2 l -1,-6 15,-4 -1,3 9,-2 4,9 16,-2 -3,-1 -1,-3 5,-2 -2,-4 10,-5 -6,-8 18,-5 11,2 5,-1 6,6 h 9 l -1,-2 5,-2 4,-6 -2,-7 3,-1 1,5 3,-2 v -6 l -4,1 1,-3 5,-2 v 3 h 3 l 1,3 5,-1 3,-6 h 6 l -1,-10 3,-2 v -3 l 3,3 h 4 v -4 l 13,-6 8,3 v -2 l 4,-2 9,4 2,5 h 7 l 1,3 h 2 l 1,-6 4,-1 3,4 h 9 l 4,10 6,1 1,4 -3,2 1,3 9,-2 1,3 5,-4 6,9 2,-3 3,4 -1,6 -4,3 4,4 4,-4 6,7 8,6 -5,3 6,5 4,-4 10,11 10,-4 3,-3 3,5 1,7 -5,15 -4,1 v 9 l 4,2 2,5 -5,1 -8,6 1,3 -13,-3 -25,-2 -5,1 -2,-3 -18,-6 -7,-4 -5,4 v 2 l 7,-2 2,3 2,16 -5,4 -23,8 -9,6 -19,19 -4,-6 -4,-2 -10,6 -3,-5 -18,7 -6,-6 -8,2 -5,-2 -5,5 -3,6 -1,7 -4,-2 -14,-2 -14,2 -8,4 v 9 l -5,1 -1,-6 -13,5 h -7 l -5,3 -2,-14 -3,1 1,6 -3,1 1,6 2,1 -10,5 -1,-11 -2,1 -3,-9 -8,2 -1,-3 -14,4 -4,-1 v -5 l -4,-3 -3,8 -3,-2 z m 132,-22 7,-3 1,-5 -7,-5 -5,2 2,5 -1,1 z"
     id="北辰区" />
  <path
     stroke="#ffff00"
     stroke-opacity="1"
     stroke-width="0.5"
     stroke-linecap="round"
     stroke-linejoin="round"
     stroke-dasharray="none"
     fill="#1e90ff"
     fill-opacity="1"
     fill-rule="evenodd"
     d="m 197,667.99999 3,-9 -4,-9 4,-1 h -6 l -3,-5 -1,-10 -8,-3 -3,-9 4,-2 6,-8 -4,-10 4,-2 v -4 l 5,4 -1,8 5,-4 -1,-3 6,6 6,-6 -3,-3 -2,-13 -3,-4 -3,-13 -3,-5 4,-2 -1,-2 -4,1 -9,-15 -3,-1 -3,-8 -4,-3 1,-4 3,-1 -4,-12 -4,-4 h -5 l -2,-4 -5,1 -1,-2 h -4 l 1,-7 4,-2 -1,-5 -5,-7 -6,-1 -1,-3 h 16 l -1,-5 -15,-12 h -6 l -1,4 -2,-5 -6,-1 4,-6 -67,-57 2,-2 -2,-6 -8,4 -8,-3 1,4 -10,-4 v -3 h -7 l -2,-5 -32,-14 -30,-9 -8,9 -22,8 1,-8 -3,-4 -5,5 -5,-7 -2,-7 2,-7 -9,-5 v -5 l 4,-2 -5,-8 v -8 l 3,-7 3,3 -1,-7 -10,1 -2,2 -1,-3 -12,1 v 6 l -4,4 1,6 -5,1 3,5 -3,1 1,4 -11,3 -6,-1 -8,4 -6,1 -3,3 h -7 l 1,13 -9,5 1,4 h -5 v 2 l -5,3 1,3 -2,2 9,10 -3,1 1,4 -8,3 v -3 l -4,-2 -5,3 3,9 -3,2 1,4 h -4 l -1,-4 2,-4 -7,5 h 4 l -1,2 3,4 -3,-1 -4,4 1,8 9,8 -3,1 -1,4 -7,4 1,1 -5,6 1,4 h -3 l -1,7 6,3 2,8 h 3 v 6 l 3,2 h 9 v -4 l 2,-2 3,7 h -2 l 2,14 -9,2 2,8 -4,1 5,4 2,13 -7,2 v 3 l -9,2 1,2 -8,1 -3,6 h 4 l 1,5 2,-1 3,4 v 6 l -4,-3 2,7 3,-3 6,4 2,-5 4,-1 8,6 v 7 l 4,3 5,-4 6,1 v -3 l 6,-2 5,6 h 4 l 5,3 -3,6 -5,-3 v 5 l -3,1 -6,7 v 3 h -9 v 9 l -4,2 1,5 3,3 -1,2 2,10 -3,3 1,4 h -15 l 2,7 5,2 6,-2 -1,5 -8,3 4,18 10,-2 3,-3 2,4 6,-8 3,-1 -1,-5 8,-3 4,5 h -3 v 10 l 2,2 5,-1 5,2 1,6 h -2 v 17 h -4 l 1,8 -11,3 -1,4 -3,1 v 4 l 3,2 4,-1 2,8 1,12 -4,1 6,13 -3,2 1,12 4,2 2,-2 1,8 4,1 -1,3 2,4 -4,-1 -2,3 -4,-8 h -4 l 1,13 -3,-1 -11,2 1,9 h 2 l 2,4 v 25 l 2,1 v 15 l 3,4 18,-1 11,4 3,4 1,7 h 3 l 3,14 h -4 l 1,3 5,1 -3,-11 1,-3 4,-1 -4,-13 11,-1 v -4 l -7,-2 v -4 l 9,-2 -1,2 5,2 2,-7 -6,-5 2,-2 -3,-1 -1,-6 2,-7 12,-1 5,2 2,-19 3,-1 -2,-5 2,-2 -3,-12 7,-3 2,1 7,-8 1,-5 4,2 h 7 l 4,-6 v -7 h 9 v -13 l -4,2 -1,-4 h 2 l -3,-8 h 2 l -1,-6 15,-4 -1,3 9,-2 4,9 16,-2 -3,-1 -1,-3 5,-2 -2,-4 10,-5 -6,-8 18,-5 11,2 5,-1 6,6 h 9 l -1,-2 5,-2 4,-6 -2,-7 3,-1 1,5 3,-2 v -6 l -4,1 1,-3 5,-2 v 3 h 3 l 1,3 5,-1 3,-6 h 6 l -1,-10 3,-2 v -3 l 3,3 h 4 v -4 l 13,-6 8,3 v -2 l 4,-2 9,4 2,5 h 7 l 1,3 h 2 l 1,-6 4,-1 3,4 h 9 l 4,10 6,1 1,4 -3,2 1,3 9,-2 1,3 z"
     id="武清区" />
  <path
     stroke="#ffff00"
     stroke-opacity="1"
     stroke-width="0.5"
     stroke-linecap="round"
     stroke-linejoin="round"
     stroke-dasharray="none"
     fill="#1e90ff"
     fill-opacity="1"
     fill-rule="evenodd"
     d="m 148,195.99999 -14,-4 -13,6 v -3 l -5,-2 -3,1 -1,-3 -5,2 -1,-2 -5,2 2,7 -3,-1 -17,3 v 4 l -4,1 -2,-4 -2,5 4,9 -4,1 v 9 l 8,-3 8,5 1,12 9,6 10,11 -3,4 h -5 l -2,5 -4,-1 -2,4 h -8 l -8,3 3,10 -4,-1 v 2 h -5 l 1,7 -2,6 h 4 l 2,2 4,-1 2,4 -4,2 v 4 l 4,-2 1,5 h -2 l 2,18 -2,2 2,13 h -3 l -1,6 h -4 v 5 l 3,3 v 6 h 4 v 4 l 6,2 v 3 l -3,1 v 5 H 76 l -2,5 -4,2 3,3 -5,3 2,6 -2,2 67,57 -4,6 6,1 2,5 1,-4 h 6 l 15,12 1,5 h -16 l 1,3 6,1 5,7 1,5 -4,2 -1,7 h 4 l 1,2 5,-1 2,4 h 5 l 4,4 4,12 -3,1 -1,4 4,3 3,8 3,1 9,15 4,-1 1,2 -4,2 3,5 3,13 3,4 2,13 3,3 -6,6 -6,-6 1,3 -5,4 1,-8 -5,-4 v 4 l -4,2 4,10 -6,8 -4,2 3,9 8,3 1,10 3,5 h 6 l 1,-3 h 4 l 2,-6 9,-2 23,2 2,-3 3,2 v 6 l 3,2 17,2 -1,3 h 14 l 2,-5 -3,-3 v -4 l 4,2 2,-4 6,3 4,-3 5,-1 3,3 5,-2 -1,-3 4,-1 7,-6 -2,-2 1,-5 17,-3 -2,-3 -3,1 -3,-7 -2,-12 h 2 l -2,-9 -3,1 -5,-33 h 4 l 2,-3 5,-2 -1,-5 4,-2 5,5 7,-3 -1,-3 4,-1 1,-2 12,1 11,-6 6,-9 -2,-5 -3,-1 -1,-7 8,-3 v 4 l 4,-1 v 3 h 3 l 2,6 20,-5 -1,-4 2,-5 1,-11 15,-4 5,-6 -3,-12 1,-2 17,5 1,4 6,-3 1,-2 6,-1 3,-3 5,2 2,-3 v -9 l 3,-3 4,-1 6,3 v -6 l -14,-4 -3,-5 2,-5 7,5 4,-1 4,-3 v -5 l -20,-15 -6,1 -1,6 -8,7 h -4 l -3,-4 3,-8 -3,-6 -9,1 -1,-10 -4,1 -4,8 -3,2 -2,-14 4,4 4,-3 1,-8 7,1 -1,-6 3,-4 -2,-4 2,-2 5,2 1,-11 7,3 3,-6 -1,-3 2,-5 -3,-6 3,-4 v -5 l -3,1 -5,-3 3,-5 -6,-4 4,-4 -5,1 -1,-3 -4,-3 3,-6 -1,-5 -3,-1 -4,4 -2,-4 -6,-3 -4,1 -4,-3 -10,1 -6,-5 -1,-6 -3,-3 h -6 l 4,-2 -5,-1 -1,-4 h 5 v -4 l 3,1 1,-7 3,2 3,-1 -4,-6 3,-3 -11,-3 -10,-7 -6,1 -3,-6 -5,5 -4,-4 h -8 l 1,-5 -7,-2 -3,4 -2,-5 -4,4 -3,-2 -3,-6 -8,2 -1,-7 -5,4 -10,-3 2,3 -6,6 -3,-1 2,-6 -4,3 -2,4 h -4 l -7,4 -2,8 h -4 l -12,-4 -2,-3 v -5 l -4,-4 -6,2 -4,-6 v -5 h -3 l 1,-3 -5,-2 h -6 v -3 h -6 l -1,-3 -7,1 -8,-5 -2,2 -2,-2 -4,1 -3,5 -5,-2 -3,-6 1,-4 -10,-4 -3,3 -9,-8 -3,1 v -6 l -6,-6 -3,1 -3,-4 -2,2 z"
     id="宝坻区" />
  <path
     stroke="#ffff00"
     stroke-opacity="1"
     stroke-width="0.5"
     stroke-linecap="round"
     stroke-linejoin="round"
     stroke-dasharray="none"
     fill="#1e90ff"
     fill-opacity="1"
     fill-rule="evenodd"
     d="m 345,971.99999 9,5 7,9 6,-1 2,3 -8,20.00001 1,8 -2,1 2,14 h -5 l -11,-9 -5,1 -7,6 -1,-2 -10,5 4,32 -12,2 -28,25 -5,9 -3,10 -21,-26 -59,47 3,4 -1,2 4,1 -3,4 -3,1 -10,-7 -40,-15 -8,12 -18,21 -11,-8 -8,10 6,4 -7,9 15,12 -37,25 -2,-2 -5,-1 -1,8 -14,9 h 2 v 7 l 3,-2 3,3 v 3 l 7,3 3,-5 13,-2 v 2 l -12,2 -2,13 v 16 l -3,8 -3,-2 -1,4 v 11 l 4,-1 v 5 l 3,1 2,4 v 5 l -3,2 4,1 1,9 -5,14 v 11 l -4,3 10,1 1,2 7,-3 7,1 3,-4 8,-1 2,-7 h 5 l 2,-9 3,-3 6,-1 4,2 -4,10 h 8 l -4,6 h 3 l 2,5 h 6 l 7,5 2,5 1,5 h -3 l 1,4 -9,3 -5,9 v 4 l 17,-5 1,3 -17,5 4,11 6,10 8,-6 1,5 20,-5 -1,-9 h 6 l 4,14 2,1 5,-2 7,-6 16,-1 3,4 v -4 l 6,-5 -3,-9 10,-2 1,17 19,-10 10,-9 -6,-3 6,-6 4,3 13,-10 28,-9 3,2 4,-2 -1,-5 12,1 5,-2 2,4 h 4 l 4,3 5,-1 v 5 h 2 l -1,5 h 3 l 9,-3 -2,-5 3,-2 3,-6 6,1 2,3 18,-5 41,-7 2,-16 11,-16 53,-18 7,-8 2,-61 -4,-7 -5,-3 -42,-7 -13,-6 -5,-9 -1,-38 9,-7 23,-1 46,-9 12,-16 7,-4 31,11 19,1 9,-15 v -16 l 11,-29 13,-5 4,-15 v -7 l -31,-8 -2,-5 -4,-45.00001 -6,-21 -1,-22 2,-16 4,-14 19,-32 67,-47 7,-15 3,-16 40,-13 1,1 2,-11 20,-1 v -23 l -20,-9 -3,-6 2,-3 -5,-3 2,-7 -2,-5 -3,-2 -2,6 -4,2 -7,-5 -8,1 -3,-8 -6,2 -1,-3 -3,-2 -4,-9 v -4 l -5,-2 -10,1 -3,-2 h -6 l -5,-2 h -16 l -4,3 -2,-4 -8,-2 1,-4 -3,-5 -16,2 -4,-4 -4,2 v 3 l -5,2 -2,-2 -1,3 4,3 v 7 h -3 l -1,-8 -4,6 3,5 -4,2 -1,4 12,7 -20,36 -14,-8 5,-10 h -3 l -15,-8 2,-13 -5,-3 -14,5 -3,4 -21,4 h -8 v 8 l -9,-1 v 14 l 5,11 h 2 l 2,6 3,-1 v 5 l 13,8 -16,28 -4,12 3,1 -1,19 h -26 l -2,2 v -16 h -10 l -17,-25 -6,2 v 2 l -5,3 -8,3 1,17 2,-1 2,4 -5,8 -1,8 -17,-4 -17,-7 -2,15 -8,3 -2,11 -8,4 -17,-8 -3,1 -8,40 24,1 v 6 h 13 l -1,20 h 8 l -4,12 1,11 -21,-3 -2,11 -3,-1 -3,8 1,1 -2,10 3,3 2,-3 v 11 z"
     id="滨海新区" />
  <path
     stroke="#ffff00"
     stroke-opacity="1"
     stroke-width="0.5"
     stroke-linecap="round"
     stroke-linejoin="round"
     stroke-dasharray="none"
     fill="#1e90ff"
     fill-opacity="1"
     fill-rule="evenodd"
     d="m 547,626.99999 -1,11 2,5 7,2 4,-2 h 9 l 2,5 12,-9 -4,-6 3,-2 2,3 -1,3 6,-2 1,3 -7,10 -2,8 h -3 l -3,6 4,4 -2,6 4,3 v 7 h -3 l -1,-8 -4,6 3,5 -4,2 -1,4 12,7 -20,36 -14,-8 5,-10 h -3 l -15,-8 2,-13 -5,-3 -14,5 -3,4 -21,4 h -8 v 8 l -9,-1 v 14 l 5,11 h 2 l 2,6 3,-1 v 5 l 13,8 -16,28 -4,12 3,1 -1,19 h -26 l -2,2 v -16 h -10 l -17,-25 -6,2 v 2 l -5,3 -8,3 1,17 2,-1 2,4 -5,8 -1,8 -17,-4 -17,-7 -23,-4 -17,-10 v -11 l -3,-3 1,5 -6,3 v 4 l -8,-3 7,-3 2,-7 -8,4 h -5 l -3,-2 4,-4 v -9 l -11,-8 -12,-2 -4,-5 -2,4 -4,2 -12,-1 v 3 l -6,4 -7,-2 2,-10 -6,-4 -2,-5 -4,-2 v -9 l 4,-1 5,-15 -1,-7 -3,-5 -3,3 -10,4 -10,-11 -4,4 -6,-5 5,-3 -8,-6 -6,-7 -4,4 -4,-4 4,-3 1,-6 -3,-4 -2,3 -6,-9 3,-9 -4,-9 4,-1 1,-3 h 4 l 2,-6 9,-2 23,2 2,-3 3,2 v 6 l 3,2 17,2 -1,3 h 14 l 2,-5 -3,-3 v -4 l 4,2 2,-4 6,3 4,-3 5,-1 3,3 5,-2 -1,-3 4,-1 7,-6 -2,-2 1,-5 17,-3 -2,-3 -3,1 -3,-7 -2,-12 h 2 l -2,-9 -3,1 -5,-33 h 4 l 2,-3 5,-2 -1,-5 4,-2 5,5 7,-3 -1,-3 4,-1 1,-2 12,1 11,-6 6,-9 -2,-5 -3,-1 -1,-7 8,-3 v 4 l 4,-1 v 3 h 3 l 2,6 20,-5 -1,-4 2,-5 1,-11 15,-4 5,-6 -3,-12 1,-2 17,5 1,4 6,-3 1,-2 6,-1 3,-3 5,2 2,-3 v -9 l 3,-3 4,-1 6,3 v 10 l 5,7 6,-4 7,-1 8,-12 -6,-12 1,-12 h 8 l 3,-2 2,-5 -6,-8 15,-9 16,2 3,-4 h 6 l 18,10 h 15 l 3,2 1,-3 h 3 l 8,-5 12,7 6,-2 5,2 22,11 3,4 -2,5 -10,13 v 6 l -3,6 h -3 v 4 l -3,3 v 4 l 4,2 -1,5 2,2 v 5 l -2,3 -8,3 -1,19 -3,2 3,1 2,9 -1,4 -9,5 h -6 l -3,11 h -2 l 1,41 -18,4 v 5 l 9,-1 2,6 -2,12 4,6 -5,4 -5,-7 -2,2 -7,2 h -13 z m -29,-26 -20,-9 -28,3 2,18 -21,2 -3,-24 -4,-1 -6,3 1,2 -10,2 -1,5 -4,2 -1,-6 h -2 l -1,-4 -12,1 -2,-9 -7,-2 v 3 l -3,1 -5,9 -14,1 v 4 l -2,3 h -6 v 4 h -5 l 3,7 -4,3 -6,1 1,3 h -5 l -2,4 1,9 -2,2 -4,-4 -2,1 2,4 -6,3 6,10 3,-2 2,10 25,-4 18,-6 2,4 7,-2 1,4 6,-2 v 6 l 13,-5 h 5 v 4 l -3,3 4,4 3,9 h 3 v 7 l 9,-2 4,-6 1,-32 12,-1 14,7 28,-3 29,-21 -2,-17 z"
     id="宁河区" />
  <path
     stroke="#ffff00"
     stroke-opacity="1"
     stroke-width="0.5"
     stroke-linecap="round"
     stroke-linejoin="round"
     stroke-dasharray="none"
     fill="#1e90ff"
     fill-opacity="1"
     fill-rule="evenodd"
     d="m 149,1121 -7,-4 -40,-41 -11,-14 -30,-50 -11,-11 -32,-17.00001 -11,-11 -4,4 -1,5 -15,-2 1,-12 2,-2 -5,-3 4,-5 -17,-8 -18,-6 -15,-2 -1,-7 -6,-1 1,-4 -12,-5 -3,6 -14,-9 -10,-1 -2,3 -3,-4 -9,6 -2,-4 8,-3 1,-4 -15,-5 -6,2 3,9 -3,1 1,5 -8,1 v 3 l -21,1 -7,2 -2,-4 h -12 l -4,-3 -10,4 1,-5 8,-1 1,-4 -7,-1 v 2 l -4,1 v 5 l -2,4 -3,-1 -1,3 -12,-3 -4,10 v 5 l 6,2 -1,10 -3,2 v 15 h -2 l -1,9 -4,2 -3,10 h -4 v 3 l -5,2.00001 -2,8 h -2 v 10 l -3,12 -2,4 h -4 v 7 h -2 v 32 h 11 v 42 l 17,1 -2,19 h 6 l -2,6 h -2 l -1,7 -5,10 4,1 -2,6 h 4 v 3 h -3 l -3,11 h 3 v 3 l 7,1 -4,24 9,-1 6,12 13,2 v 2 l 5,-2 v -5 l 4,-1 45,5 1,-3 5,-1 2,15 -2,12 h 4 l 2,4 -2,10 3,19 14,1 11,-5 7,-1 -2,6 h 7 v -7 l 2,2 h 11 l 1,-4 35,-6 -1,4 15,2 1,-10 20,-6 2,1 -3,4 -2,12 5,-4 -1,6 h 6 l 1,2 7,1 v 3 h 3 l -4,5 -4,19 v 9 l -4,1 3,4 h 4 v 3 h 3 l 5,27 11,1 v 6 l 7,-1 v 5 l -2,1 3,3 v 4 l 9,2 v -4 l 7,-1 1,-7 3,-2 8,1 1,-5 7,-2 3,-3 v -8 l 4,-3 v -11 l 5,-14 -1,-9 -4,-1 3,-2 v -5 l -2,-4 -3,-1 v -5 l -4,1 -1,-5 2,-1 v -9 l 3,2 3,-8 v -16 l 2,-13 12,-2 v -2 l -13,2 -3,5 -7,-3 v -3 l -3,-3 -3,2 v -7 h -2 l 14,-9 1,-8 5,1 2,2 37,-25 -15,-12 7,-9 -6,-4 8,-10 11,8 24,-29 z"
     id="静海区" />
  <path
     stroke="#ffff00"
     stroke-opacity="1"
     stroke-width="0.5"
     stroke-linecap="round"
     stroke-linejoin="round"
     stroke-dasharray="none"
     fill="#1e90ff"
     fill-opacity="1"
     fill-rule="evenodd"
     d="m 353,261.99999 5,-3 h 4 l 3,-8 -7,-4 2,-5 4,-3 1,-11 4,1 6,-4 -5,-1 -3,-11 -7,-12 -5,2 -3,-12 5,2 -1,-5 4,-2 v -5 l -2,-2 -1,3 -5,-8 -2,1 -3,-9 -7,-10 -1,-18 -2,-4 -5,1 -2,-10 h -2 l 2,-4 5,2 v -10 l -7,1 -1,-3 8,-2 6,1 2,-9 -9,-4 -1,-7 3,-5 3,-2 4,2 2,-5 4,-1 4,-17 6,-6 v -4 l -7,-8 v -7 l 5,3 2,-5 12,3 -1,3 3,2 3,-4 4,-1 2,2 h 5 l 3,-3 2,2 5,1 3,6 6,5 h 3 v 3 l -3,4 6,4 9,2 4,-3 h 15 l 4,-3 h 8 l 5,-5 3,1 3,-5 12,-1 10,5 h 3 l 3,7 4,2 6,-2 7,6 4,1 5,-7 4,3 9,3 4,-7 v -7 l 3,-12 4,-3 -3,-8 3,-4 -4,-3 v -3 l -4,-2 -1,3 -1,-8 h -9 l -2,4 -5,-1 -2,2 v 5 l -2,2 -8,-7 -1,-12 3,-3 v -13 l 8,3 6,-3 5,-4 2,-7 -5,-2 -1,-5 -7,1 -3,-3 -1,-4 h 4 l -2,-6 -3,-3 -5,3 -8,2 -2,-3 h -6 l -8,-5 -3,-8 -3,2 -5,-3 -4,1 -2,10 -7,-2 -3,3 v -9 l -5,-9 -3,5 -2,-1 -2,4 -6,1 -4,-4 3,-3 1,-6 6,-4 -4,-1 -3,-15 1,-2 -10,-3 1,-5 -4,-4 -1,-6 -7,1 -2,-5 v -6 h -4 l -2,-2 -6,-11 -10,3 -8,-10 -3,-11 2,-1 -3,-3 1,-5 -3,-4 -4,-1 1,-6 3,-2 2,-5 -5,-10 -10,1 -3,-5 -14,4 -16,2 -5,-4 -7,-1 -4,-3 -2,-6 -5,1 -1,-2 -16,-9 -9,-1 -3,5 -3,1 -10,-2 -3,5 2,7 -3,1 -4,5 -2,-3 -4,-2 -5,7 3,6 -12,3 v 8 l 6,2 5,5 -7,1 -1,-2 -2,5 2,4 2,-1 -1,7 h 4 l 6,-4 8,5 -2,4 -3,-1 -7,6 1,3 -9,-2 v 4 l -3,-4 h -3 l -3,4 -3,-4 -1,4 -7,-1 -2,2 5,7 2,7 -6,6 3,2 -4,3 h 5 l -1,4 -3,1 -2,3 -13,3 v -2 l -6,-5 -3,2 -4,-1 -4,3 -8,17 -8,-2 -8,7 v 8 l -4,-2 -2,-4 -8,-2 -5,-3 -3,4 -5,1 -7,11 -3,2 v 3 l -9,-2 -1,6 3,5 -3,3 3,8 4,3 2,4 -4,2 -18,-2 v 5 l -6,-1 -2,3 1,6 4,5 v 21 l 4,4 -1,4 4,6 -2,7 2,10 -5,6 v 5 l -2,2 -7,2 1,11 -3,6 -3,-4 h -5 v 11 l -5,1 -5,6 -3,-3 7,9 -1,4 -3,-2 -4,3 3,8 -9,3 -1,2 h 5 l 1,7 10,3 v 4 l -6,2 -1,6 7,6 -4,12 1,1 3,-3 3,2 2,4 h 2 l 2,-4 2,4 -5,4 1,2 h 6 l 1,-4 3,1 -1,4 4,-1 5,4 h 5 l 9,3 1,3 5,-1 6,4 2,-4 4,1 2,-4 6,-1 9,17 -3,1 -3,7 4,5 7,3 2,-2 3,4 3,-1 6,6 v 6 l 3,-1 9,8 3,-3 10,4 -1,4 3,6 5,2 3,-5 4,-1 2,2 2,-2 8,5 7,-1 1,3 h 6 v 3 h 6 l 5,2 -1,3 h 3 v 5 l 4,6 6,-2 4,4 v 5 l 2,3 12,4 h 4 l 2,-8 7,-4 h 4 l 2,-4 4,-3 -2,6 3,1 6,-6 -2,-3 10,3 5,-4 1,7 8,-2 3,6 3,2 4,-4 2,5 3,-4 7,2 -1,5 z"
     id="蓟州区" />
</svg>