<svg xmlns="http://www.w3.org/2000/svg" id="svg1" version="1.1" viewBox="-253 -208 991 1602">
  <path id="和平区" fill="#ff6347" fill-opacity="1" fill-rule="evenodd" stroke="#ffffff" stroke-dasharray="none" stroke-linecap="round" stroke-linejoin="round" stroke-opacity="1" stroke-width="0.5" d="m123 868-6-9-1-5-2-1-8 3-7-6-6-1-2 33h13l12-11z"/>
  <path id="河东区" fill="#ff6347" fill-opacity="1" fill-rule="evenodd" stroke="#ffffff" stroke-dasharray="none" stroke-linecap="round" stroke-linejoin="round" stroke-opacity="1" stroke-width="0.5" d="M151 829h-9l1 9-15-1-6 5-4-6-7 6-2 4 6 5-1 2 2 1 1 5 20 27 2 8 3 3 8 5 5 1 4-10h5l1 4 4-1v-2l9 3 1 4 2-4 2 1 3-15-24-6-5-18 2-2 11-3-5-14 9-3-2-6-10-6z"/>
  <path id="河西区" fill="#ff6347" fill-opacity="1" fill-rule="evenodd" stroke="#ffffff" stroke-dasharray="none" stroke-linecap="round" stroke-linejoin="round" stroke-opacity="1" stroke-width="0.5" d="M155 941v-2l4-1-3-7 7-3 2 4 5-2-3-7 4-1-2-10 5-7-24-3-8-5-3-3-2-8-14-18-7 3-12 11H91l3 28 4 5 11-4 8 11-2 1 4 2v21l13 1 12-4z"/>
  <path id="南开区" fill="#ff6347" fill-opacity="1" fill-rule="evenodd" stroke="#ffffff" stroke-dasharray="none" stroke-linecap="round" stroke-linejoin="round" stroke-opacity="1" stroke-width="0.5" d="m98 915-4-5-3-28 2-33 9 3v-12l-16 1v4h-9l-11-2v-4l-6 2-6-6-1 4-4 2 1 3-9 8 16 18 1 17 2 6-11 6 8 4 20 17h9z"/>
  <path id="河北区" fill="#ff6347" fill-opacity="1" fill-rule="evenodd" stroke="#ffffff" stroke-dasharray="none" stroke-linecap="round" stroke-linejoin="round" stroke-opacity="1" stroke-width="0.5" d="m131 797-9 8-4-6-4-2-10 6-3-5-18 7 4 3 3-1 2 13-3 3 1 3 7 6 5 8v12l4 4 8-3 1-2-6-5 2-4 7-6 4 6 6-5 15 1-1-9h9v-8l-2-2-5 1-1-2h-7l7-7z"/>
  <path id="红桥区" fill="#ff6347" fill-opacity="1" fill-rule="evenodd" stroke="#ffffff" stroke-dasharray="none" stroke-linecap="round" stroke-linejoin="round" stroke-opacity="1" stroke-width="0.5" d="m102 840-5-8-7-6-1-3 3-3-2-13-3 1-10-9-8 2-5-2-5 5-3 6-3 19 1 6 6 6 6-2v4l11 2h9v-4h12zm-46-40 7-3 1-5-7-5-5 2 2 5-1 1z"/>
  <path id="东丽区" fill="#ff6347" fill-opacity="1" fill-rule="evenodd" stroke="#ffffff" stroke-dasharray="none" stroke-linecap="round" stroke-linejoin="round" stroke-opacity="1" stroke-width="0.5" d="m155 903 28 3 6 2 11 6 7 8 7 5 8 3 16-2 3 2 6 16 4 5 16 8h12l9-2 11-10h3l2 4-1 10 4 4 15-2 9 18 2 1 12-10-2-8v-11l-2 3-3-3 2-10-1-1 3-8 3 1 2-11 21 3-1-11 4-12h-8l1-20h-13v-6l-24-1 5-28 3-12 3-1 17 8 8-4 2-11 8-3 2-15-23-4-17-10v-11l-3-3 1 5-6 3v4l-8-3 7-3 2-7-8 4h-5l-3-2 4-4v-9l-11-8-12-2-4-5-2 4-4 2-12-1v3l-6 4-7-2 2-10-6-4-5 1-8 6 1 3-13-3-25-2-5 1-2-3-18-6-7-4-5 4v2l7-2 2 3 2 16-5 4-23 8-9 6-10 11 12 14-7 7h7l1 2 5-1 2 2v8l11-4 10 6 2 6-9 3 5 14-11 3-2 2 5 18 24 6-3 15-2-1-2 4-1-4-9-3v2l-4 1-1-4h-5l-3 5z"/>
  <path id="西青区" fill="#ff6347" fill-opacity="1" fill-rule="evenodd" stroke="#ffffff" stroke-dasharray="none" stroke-linecap="round" stroke-linejoin="round" stroke-opacity="1" stroke-width="0.5" d="m54 835-1-6 2-12-4-2-14-2-14 2-8 4v9l-5 1-1-6-13 5h-7l-5 3-2-14-3 1 1 6-3 1 1 6 2 1-10 5-1-11-2 1-3-9-8 2-1-3-14 4-4-1v-5l-4-3-3 8-3-2-3 4-2 7-5-2 1-2-9 2v4l7 2v4l-11 1 4 13-4 1-1 3 3 11-2 1-3 9-6-2-1 7h-3l-3 12-3-1-2 7-3-1-3 8-3-1-1 6 13 4-1 4-8 3 2 4 9-6 3 4 2-3 10 1 14 9 3-6 12 5-1 4 6 1 1 7 15 2 18 6 17 8-4 5 5 3-2 2-1 12 15 2 1-5 4-4 11 11 32 17 11 11 30 50 11 14 40 41 7 4 40 15 10 7 3-1 3-4-4-1 1-2-3-4 9-7-2-6 6-1-2-9h-3v-4h2l-4-4-1-6-3 1-1-8-3-3-12 1-28-32 2-4-8-5 4-13-15-9 10 1 7-11v-4l3-2-4-3 4-5 6 5 2 4 1-11 5-7-2-3 3-3-4-1 5-2-3-5-6 4-4-3-2-12-6-5h-7l2-2 4 2-2-5 3-13-23 6-13-1v-21l-4-2 2-1-8-11-23 9h-9l-20-17-8-4 11-6-2-6-1-17-16-18 9-8-1-3 4-2z"/>
  <path id="津南区" fill="#ff6347" fill-opacity="1" fill-rule="evenodd" stroke="#ffffff" stroke-dasharray="none" stroke-linecap="round" stroke-linejoin="round" stroke-opacity="1" stroke-width="0.5" d="m155 941-3 13 2 5-4-2-2 2h7l6 5 2 12 4 3 6-4 3 5-5 2 4 1-3 3 2 3-5 7-1 11-2-4-6-5-4 5 4 3-3 2v4l-7 11-10-2 15 10-4 13 8 5-2 4 28 32 12-1 3 3 1 8 3-1 1 6 4 4h-2v4h3l2 9-6 1 2 6 50-40 21 26 3-10 5-9 28-25 12-2-4-32 10-5 1 2 7-6 5-1 11 9h5l-2-14 2-1-1-8 4-13 4-7-2-3-6 1-7-9-9-5-12 10-2-1-9-18-15 2-4-4 1-10-2-4h-3l-11 10-9 2h-12l-16-8-4-5-6-16-3-2-16 2-8-3-7-5-7-8-11-6-15-3-5 7 2 10-4 1 3 7-5 2-2-4-7 3 3 7-4 1z"/>
  <path id="北辰区" fill="#ff6347" fill-opacity="1" fill-rule="evenodd" stroke="#ffffff" stroke-dasharray="none" stroke-linecap="round" stroke-linejoin="round" stroke-opacity="1" stroke-width="0.5" d="m-76 822-6-5 2-2-3-1-1-6 2-7 12-1 5 2 2-19 3-1-2-5 2-2-3-12 7-3 2 1 7-8 1-5 4 2h7l4-6v-7h9v-13l-4 2-1-4h2l-3-8h2l-1-6 15-4-1 3 9-2 4 9 16-2-3-1-1-3 5-2-2-4 10-5-6-8 18-5 11 2 5-1 6 6h9l-1-2 5-2 4-6-2-7 3-1 1 5 3-2v-6l-4 1 1-3 5-2v3h3l1 3 5-1 3-6h6l-1-10 3-2v-3l3 3h4v-4l13-6 8 3v-2l4-2 9 4 2 5h7l1 3h2l1-6 4-1 3 4h9l4 10 6 1 1 4-3 2 1 3 9-2 1 3 5-4 6 9 2-3 3 4-1 6-4 3 4 4 4-4 6 7 8 6-5 3 6 5 4-4 10 11 10-4 3-3 3 5 1 7-5 15-4 1v9l4 2 2 5-5 1-8 6 1 3-13-3-25-2-5 1-2-3-18-6-7-4-5 4v2l7-2 2 3 2 16-5 4-23 8-9 6-19 19-4-6-4-2-10 6-3-5-18 7-6-6-8 2-5-2-5 5-3 6-1 7-4-2-14-2-14 2-8 4v9l-5 1-1-6-13 5h-7l-5 3-2-14-3 1 1 6-3 1 1 6 2 1-10 5-1-11-2 1-3-9-8 2-1-3-14 4-4-1v-5l-4-3-3 8-3-2zm132-22 7-3 1-5-7-5-5 2 2 5-1 1z"/>
  <path id="武清区" fill="#ff6347" fill-opacity="1" fill-rule="evenodd" stroke="#ffffff" stroke-dasharray="none" stroke-linecap="round" stroke-linejoin="round" stroke-opacity="1" stroke-width="0.5" d="m197 668 3-9-4-9 4-1h-6l-3-5-1-10-8-3-3-9 4-2 6-8-4-10 4-2v-4l5 4-1 8 5-4-1-3 6 6 6-6-3-3-2-13-3-4-3-13-3-5 4-2-1-2-4 1-9-15-3-1-3-8-4-3 1-4 3-1-4-12-4-4h-5l-2-4-5 1-1-2h-4l1-7 4-2-1-5-5-7-6-1-1-3h16l-1-5-15-12h-6l-1 4-2-5-6-1 4-6-67-57 2-2-2-6-8 4-8-3 1 4-10-4v-3h-7l-2-5-32-14-30-9-8 9-22 8 1-8-3-4-5 5-5-7-2-7 2-7-9-5v-5l4-2-5-8v-8l3-7 3 3-1-7-10 1-2 2-1-3-12 1v6l-4 4 1 6-5 1 3 5-3 1 1 4-11 3-6-1-8 4-6 1-3 3h-7l1 13-9 5 1 4h-5v2l-5 3 1 3-2 2 9 10-3 1 1 4-8 3v-3l-4-2-5 3 3 9-3 2 1 4h-4l-1-4 2-4-7 5h4l-1 2 3 4-3-1-4 4 1 8 9 8-3 1-1 4-7 4 1 1-5 6 1 4h-3l-1 7 6 3 2 8h3v6l3 2h9v-4l2-2 3 7h-2l2 14-9 2 2 8-4 1 5 4 2 13-7 2v3l-9 2 1 2-8 1-3 6h4l1 5 2-1 3 4v6l-4-3 2 7 3-3 6 4 2-5 4-1 8 6v7l4 3 5-4 6 1v-3l6-2 5 6h4l5 3-3 6-5-3v5l-3 1-6 7v3h-9v9l-4 2 1 5 3 3-1 2 2 10-3 3 1 4h-15l2 7 5 2 6-2-1 5-8 3 4 18 10-2 3-3 2 4 6-8 3-1-1-5 8-3 4 5h-3v10l2 2 5-1 5 2 1 6h-2v17h-4l1 8-11 3-1 4-3 1v4l3 2 4-1 2 8 1 12-4 1 6 13-3 2 1 12 4 2 2-2 1 8 4 1-1 3 2 4-4-1-2 3-4-8h-4l1 13-3-1-11 2 1 9h2l2 4v25l2 1v15l3 4 18-1 11 4 3 4 1 7h3l3 14h-4l1 3 5 1-3-11 1-3 4-1-4-13 11-1v-4l-7-2v-4l9-2-1 2 5 2 2-7-6-5 2-2-3-1-1-6 2-7 12-1 5 2 2-19 3-1-2-5 2-2-3-12 7-3 2 1 7-8 1-5 4 2h7l4-6v-7h9v-13l-4 2-1-4h2l-3-8h2l-1-6 15-4-1 3 9-2 4 9 16-2-3-1-1-3 5-2-2-4 10-5-6-8 18-5 11 2 5-1 6 6h9l-1-2 5-2 4-6-2-7 3-1 1 5 3-2v-6l-4 1 1-3 5-2v3h3l1 3 5-1 3-6h6l-1-10 3-2v-3l3 3h4v-4l13-6 8 3v-2l4-2 9 4 2 5h7l1 3h2l1-6 4-1 3 4h9l4 10 6 1 1 4-3 2 1 3 9-2 1 3z"/>
  <path id="宝坻区" fill="#ff6347" fill-opacity="1" fill-rule="evenodd" stroke="#ffffff" stroke-dasharray="none" stroke-linecap="round" stroke-linejoin="round" stroke-opacity="1" stroke-width="0.5" d="m148 196-14-4-13 6v-3l-5-2-3 1-1-3-5 2-1-2-5 2 2 7-3-1-17 3v4l-4 1-2-4-2 5 4 9-4 1v9l8-3 8 5 1 12 9 6 10 11-3 4h-5l-2 5-4-1-2 4h-8l-8 3 3 10-4-1v2h-5l1 7-2 6h4l2 2 4-1 2 4-4 2v4l4-2 1 5h-2l2 18-2 2 2 13h-3l-1 6h-4v5l3 3v6h4v4l6 2v3l-3 1v5H76l-2 5-4 2 3 3-5 3 2 6-2 2 67 57-4 6 6 1 2 5 1-4h6l15 12 1 5h-16l1 3 6 1 5 7 1 5-4 2-1 7h4l1 2 5-1 2 4h5l4 4 4 12-3 1-1 4 4 3 3 8 3 1 9 15 4-1 1 2-4 2 3 5 3 13 3 4 2 13 3 3-6 6-6-6 1 3-5 4 1-8-5-4v4l-4 2 4 10-6 8-4 2 3 9 8 3 1 10 3 5h6l1-3h4l2-6 9-2 23 2 2-3 3 2v6l3 2 17 2-1 3h14l2-5-3-3v-4l4 2 2-4 6 3 4-3 5-1 3 3 5-2-1-3 4-1 7-6-2-2 1-5 17-3-2-3-3 1-3-7-2-12h2l-2-9-3 1-5-33h4l2-3 5-2-1-5 4-2 5 5 7-3-1-3 4-1 1-2 12 1 11-6 6-9-2-5-3-1-1-7 8-3v4l4-1v3h3l2 6 20-5-1-4 2-5 1-11 15-4 5-6-3-12 1-2 17 5 1 4 6-3 1-2 6-1 3-3 5 2 2-3v-9l3-3 4-1 6 3v-6l-14-4-3-5 2-5 7 5 4-1 4-3v-5l-20-15-6 1-1 6-8 7h-4l-3-4 3-8-3-6-9 1-1-10-4 1-4 8-3 2-2-14 4 4 4-3 1-8 7 1-1-6 3-4-2-4 2-2 5 2 1-11 7 3 3-6-1-3 2-5-3-6 3-4v-5l-3 1-5-3 3-5-6-4 4-4-5 1-1-3-4-3 3-6-1-5-3-1-4 4-2-4-6-3-4 1-4-3-10 1-6-5-1-6-3-3h-6l4-2-5-1-1-4h5v-4l3 1 1-7 3 2 3-1-4-6 3-3-11-3-10-7-6 1-3-6-5 5-4-4h-8l1-5-7-2-3 4-2-5-4 4-3-2-3-6-8 2-1-7-5 4-10-3 2 3-6 6-3-1 2-6-4 3-2 4h-4l-7 4-2 8h-4l-12-4-2-3v-5l-4-4-6 2-4-6v-5h-3l1-3-5-2h-6v-3h-6l-1-3-7 1-8-5-2 2-2-2-4 1-3 5-5-2-3-6 1-4-10-4-3 3-9-8-3 1v-6l-6-6-3 1-3-4-2 2z"/>
  <path id="滨海新区" fill="#ff6347" fill-opacity="1" fill-rule="evenodd" stroke="#ffffff" stroke-dasharray="none" stroke-linecap="round" stroke-linejoin="round" stroke-opacity="1" stroke-width="0.5" d="m345 972 9 5 7 9 6-1 2 3-8 20 1 8-2 1 2 14h-5l-11-9-5 1-7 6-1-2-10 5 4 32-12 2-28 25-5 9-3 10-21-26-59 47 3 4-1 2 4 1-3 4-3 1-10-7-40-15-8 12-18 21-11-8-8 10 6 4-7 9 15 12-37 25-2-2-5-1-1 8-14 9h2v7l3-2 3 3v3l7 3 3-5 13-2v2l-12 2-2 13v16l-3 8-3-2-1 4v11l4-1v5l3 1 2 4v5l-3 2 4 1 1 9-5 14v11l-4 3 10 1 1 2 7-3 7 1 3-4 8-1 2-7h5l2-9 3-3 6-1 4 2-4 10h8l-4 6h3l2 5h6l7 5 2 5 1 5h-3l1 4-9 3-5 9v4l17-5 1 3-17 5 4 11 6 10 8-6 1 5 20-5-1-9h6l4 14 2 1 5-2 7-6 16-1 3 4v-4l6-5-3-9 10-2 1 17 19-10 10-9-6-3 6-6 4 3 13-10 28-9 3 2 4-2-1-5 12 1 5-2 2 4h4l4 3 5-1v5h2l-1 5h3l9-3-2-5 3-2 3-6 6 1 2 3 18-5 41-7 2-16 11-16 53-18 7-8 2-61-4-7-5-3-42-7-13-6-5-9-1-38 9-7 23-1 46-9 12-16 7-4 31 11 19 1 9-15v-16l11-29 13-5 4-15v-7l-31-8-2-5-4-45-6-21-1-22 2-16 4-14 19-32 67-47 7-15 3-16 40-13 1 1 2-11 20-1v-23l-20-9-3-6 2-3-5-3 2-7-2-5-3-2-2 6-4 2-7-5-8 1-3-8-6 2-1-3-3-2-4-9v-4l-5-2-10 1-3-2h-6l-5-2h-16l-4 3-2-4-8-2 1-4-3-5-16 2-4-4-4 2v3l-5 2-2-2-1 3 4 3v7h-3l-1-8-4 6 3 5-4 2-1 4 12 7-20 36-14-8 5-10h-3l-15-8 2-13-5-3-14 5-3 4-21 4h-8v8l-9-1v14l5 11h2l2 6 3-1v5l13 8-16 28-4 12 3 1-1 19h-26l-2 2v-16h-10l-17-25-6 2v2l-5 3-8 3 1 17 2-1 2 4-5 8-1 8-17-4-17-7-2 15-8 3-2 11-8 4-17-8-3 1-8 40 24 1v6h13l-1 20h8l-4 12 1 11-21-3-2 11-3-1-3 8 1 1-2 10 3 3 2-3v11z"/>
  <path id="宁河区" fill="#ff6347" fill-opacity="1" fill-rule="evenodd" stroke="#ffffff" stroke-dasharray="none" stroke-linecap="round" stroke-linejoin="round" stroke-opacity="1" stroke-width="0.5" d="m547 627-1 11 2 5 7 2 4-2h9l2 5 12-9-4-6 3-2 2 3-1 3 6-2 1 3-7 10-2 8h-3l-3 6 4 4-2 6 4 3v7h-3l-1-8-4 6 3 5-4 2-1 4 12 7-20 36-14-8 5-10h-3l-15-8 2-13-5-3-14 5-3 4-21 4h-8v8l-9-1v14l5 11h2l2 6 3-1v5l13 8-16 28-4 12 3 1-1 19h-26l-2 2v-16h-10l-17-25-6 2v2l-5 3-8 3 1 17 2-1 2 4-5 8-1 8-17-4-17-7-23-4-17-10v-11l-3-3 1 5-6 3v4l-8-3 7-3 2-7-8 4h-5l-3-2 4-4v-9l-11-8-12-2-4-5-2 4-4 2-12-1v3l-6 4-7-2 2-10-6-4-2-5-4-2v-9l4-1 5-15-1-7-3-5-3 3-10 4-10-11-4 4-6-5 5-3-8-6-6-7-4 4-4-4 4-3 1-6-3-4-2 3-6-9 3-9-4-9 4-1 1-3h4l2-6 9-2 23 2 2-3 3 2v6l3 2 17 2-1 3h14l2-5-3-3v-4l4 2 2-4 6 3 4-3 5-1 3 3 5-2-1-3 4-1 7-6-2-2 1-5 17-3-2-3-3 1-3-7-2-12h2l-2-9-3 1-5-33h4l2-3 5-2-1-5 4-2 5 5 7-3-1-3 4-1 1-2 12 1 11-6 6-9-2-5-3-1-1-7 8-3v4l4-1v3h3l2 6 20-5-1-4 2-5 1-11 15-4 5-6-3-12 1-2 17 5 1 4 6-3 1-2 6-1 3-3 5 2 2-3v-9l3-3 4-1 6 3v10l5 7 6-4 7-1 8-12-6-12 1-12h8l3-2 2-5-6-8 15-9 16 2 3-4h6l18 10h15l3 2 1-3h3l8-5 12 7 6-2 5 2 22 11 3 4-2 5-10 13v6l-3 6h-3v4l-3 3v4l4 2-1 5 2 2v5l-2 3-8 3-1 19-3 2 3 1 2 9-1 4-9 5h-6l-3 11h-2l1 41-18 4v5l9-1 2 6-2 12 4 6-5 4-5-7-2 2-7 2h-13zm-29-26-20-9-28 3 2 18-21 2-3-24-4-1-6 3 1 2-10 2-1 5-4 2-1-6h-2l-1-4-12 1-2-9-7-2v3l-3 1-5 9-14 1v4l-2 3h-6v4h-5l3 7-4 3-6 1 1 3h-5l-2 4 1 9-2 2-4-4-2 1 2 4-6 3 6 10 3-2 2 10 25-4 18-6 2 4 7-2 1 4 6-2v6l13-5h5v4l-3 3 4 4 3 9h3v7l9-2 4-6 1-32 12-1 14 7 28-3 29-21-2-17z"/>
  <path id="静海区" fill="#ff6347" fill-opacity="1" fill-rule="evenodd" stroke="#ffffff" stroke-dasharray="none" stroke-linecap="round" stroke-linejoin="round" stroke-opacity="1" stroke-width="0.5" d="m149 1121-7-4-40-41-11-14-30-50-11-11-32-17-11-11-4 4-1 5-15-2 1-12 2-2-5-3 4-5-17-8-18-6-15-2-1-7-6-1 1-4-12-5-3 6-14-9-10-1-2 3-3-4-9 6-2-4 8-3 1-4-15-5-6 2 3 9-3 1 1 5-8 1v3l-21 1-7 2-2-4h-12l-4-3-10 4 1-5 8-1 1-4-7-1v2l-4 1v5l-2 4-3-1-1 3-12-3-4 10v5l6 2-1 10-3 2v15h-2l-1 9-4 2-3 10h-4v3l-5 2-2 8h-2v10l-3 12-2 4h-4v7h-2v32h11v42l17 1-2 19h6l-2 6h-2l-1 7-5 10 4 1-2 6h4v3h-3l-3 11h3v3l7 1-4 24 9-1 6 12 13 2v2l5-2v-5l4-1 45 5 1-3 5-1 2 15-2 12h4l2 4-2 10 3 19 14 1 11-5 7-1-2 6h7v-7l2 2h11l1-4 35-6-1 4 15 2 1-10 20-6 2 1-3 4-2 12 5-4-1 6h6l1 2 7 1v3h3l-4 5-4 19v9l-4 1 3 4h4v3h3l5 27 11 1v6l7-1v5l-2 1 3 3v4l9 2v-4l7-1 1-7 3-2 8 1 1-5 7-2 3-3v-8l4-3v-11l5-14-1-9-4-1 3-2v-5l-2-4-3-1v-5l-4 1-1-5 2-1v-9l3 2 3-8v-16l2-13 12-2v-2l-13 2-3 5-7-3v-3l-3-3-3 2v-7h-2l14-9 1-8 5 1 2 2 37-25-15-12 7-9-6-4 8-10 11 8 24-29z"/>
  <path id="蓟州区" fill="#ff6347" fill-opacity="1" fill-rule="evenodd" stroke="#ffffff" stroke-dasharray="none" stroke-linecap="round" stroke-linejoin="round" stroke-opacity="1" stroke-width="0.5" d="m353 262 5-3h4l3-8-7-4 2-5 4-3 1-11 4 1 6-4-5-1-3-11-7-12-5 2-3-12 5 2-1-5 4-2v-5l-2-2-1 3-5-8-2 1-3-9-7-10-1-18-2-4-5 1-2-10h-2l2-4 5 2v-10l-7 1-1-3 8-2 6 1 2-9-9-4-1-7 3-5 3-2 4 2 2-5 4-1 4-17 6-6v-4l-7-8v-7l5 3 2-5 12 3-1 3 3 2 3-4 4-1 2 2h5l3-3 2 2 5 1 3 6 6 5h3v3l-3 4 6 4 9 2 4-3h15l4-3h8l5-5 3 1 3-5 12-1 10 5h3l3 7 4 2 6-2 7 6 4 1 5-7 4 3 9 3 4-7v-7l3-12 4-3-3-8 3-4-4-3v-3l-4-2-1 3-1-8h-9l-2 4-5-1-2 2v5l-2 2-8-7-1-12 3-3v-13l8 3 6-3 5-4 2-7-5-2-1-5-7 1-3-3-1-4h4l-2-6-3-3-5 3-8 2-2-3h-6l-8-5-3-8-3 2-5-3-4 1-2 10-7-2-3 3v-9l-5-9-3 5-2-1-2 4-6 1-4-4 3-3 1-6 6-4-4-1-3-15 1-2-10-3 1-5-4-4-1-6-7 1-2-5v-6h-4l-2-2-6-11-10 3-8-10-3-11 2-1-3-3 1-5-3-4-4-1 1-6 3-2 2-5-5-10-10 1-3-5-14 4-16 2-5-4-7-1-4-3-2-6-5 1-1-2-16-9-9-1-3 5-3 1-10-2-3 5 2 7-3 1-4 5-2-3-4-2-5 7 3 6-12 3v8l6 2 5 5-7 1-1-2-2 5 2 4 2-1-1 7h4l6-4 8 5-2 4-3-1-7 6 1 3-9-2v4l-3-4h-3l-3 4-3-4-1 4-7-1-2 2 5 7 2 7-6 6 3 2-4 3h5l-1 4-3 1-2 3-13 3v-2l-6-5-3 2-4-1-4 3-8 17-8-2-8 7v8l-4-2-2-4-8-2-5-3-3 4-5 1-7 11-3 2v3l-9-2-1 6 3 5-3 3 3 8 4 3 2 4-4 2-18-2v5l-6-1-2 3 1 6 4 5v21l4 4-1 4 4 6-2 7 2 10-5 6v5l-2 2-7 2 1 11-3 6-3-4h-5v11l-5 1-5 6-3-3 7 9-1 4-3-2-4 3 3 8-9 3-1 2h5l1 7 10 3v4l-6 2-1 6 7 6-4 12 1 1 3-3 3 2 2 4h2l2-4 2 4-5 4 1 2h6l1-4 3 1-1 4 4-1 5 4h5l9 3 1 3 5-1 6 4 2-4 4 1 2-4 6-1 9 17-3 1-3 7 4 5 7 3 2-2 3 4 3-1 6 6v6l3-1 9 8 3-3 10 4-1 4 3 6 5 2 3-5 4-1 2 2 2-2 8 5 7-1 1 3h6v3h6l5 2-1 3h3v5l4 6 6-2 4 4v5l2 3 12 4h4l2-8 7-4h4l2-4 4-3-2 6 3 1 6-6-2-3 10 3 5-4 1 7 8-2 3 6 3 2 4-4 2 5 3-4 7 2-1 5z"/>
</svg>
