<?xml version="1.0" encoding="UTF-8" standalone="no"?>
<svg
   width="1230"
   height="1899"
   viewBox="-251 -228 1230 1899"
   version="1.1"
   id="svg1"
   xmlns="http://www.w3.org/2000/svg"
   xmlns:svg="http://www.w3.org/2000/svg">
  <defs
     id="defs1" />
  <path
     stroke="#ffff00"
     stroke-opacity="1"
     stroke-width="0.5"
     stroke-linecap="round"
     stroke-linejoin="round"
     stroke-dasharray="none"
     fill="#1e90ff"
     fill-opacity="1"
     fill-rule="evenodd"
     d="m 674,341.99997 -17,-4 -9,-5 -9,-10 -27,-12 -10,-1 -26,-15 -15,-16 -9,-4 -3,-6 44,-34 17,-37 5,-60 -8,-8 1,-9 -2,-2 -19,-6 3,-6 1,-7 -9,1 -12,-3 -5,-5 h -11 l -7,-5 -6,1 -1,3 -7,3 v -12 h -12 l -3,-3 v -12 l -8,-1 3,-8 h -11 l -6,-2 -6,2 -3,-2 v -6 l -11,4 v -3 l -9,-6 h -5 l -5,-7 -8,5 -12,-6 -13,-1 -4,-5 -1,-5 -9,-1 -13,-7 -5,-5 -17,-4 -4,9 -17,15 -4,7 v 3 h -3 l -6,6 h -4 v 6 l 3,4 -3,6 3,9 -1,3 -7,6 3,11 -8,10 v 7 l -7,7 2,14 2,2 1,5 3,2 -1,5 -4,1 -2,4 3,15 -1,6 -6,6 1,8 -4,10 5,15 -7,3 -1,13 3,8 -5,11 2,10 5,11 6,6 3,6 -5,15 14,2 6,7 22,10 1,2 -11,27 9,7 5,-16 9,3 3,-6 11,5 5,-5 1,-4 7,-7 -1,3 3,2 -2,1 v 6 l 4,2 3,-3 4,2 v 3 l 6,3 1,11 5,-5 4,-1 4,3 8,1 -1,3 13,6 v 3 l 4,8 -1,4 -5,4 -2,8 1,3 6,3 5,11 h 3 l -4,-5 10,1 v 11 h -2 v 5 l 5,10 4,-3 3,2 2,6 5,5 -5,8 2,3 h 12 v 7 l 8,1 v 18 l -5,5 -20,2 -4,7 2,2 -1,6 8,9 v 2 l 14,3 v 3 l 13,10 5,9 12,9 5,1 12,8 10,13 17,11 -3,6 24,1 15,5 2,-6 23,7 22,1 1,-9 -3,-30 1,-7 22,-11 11,-16 7,-18 2,-13 -15,-1 -4,3 -4,-7 -2,-26 2,-6 h -11 l -4,2 -4,-7 -2,-10 -1,-12 8,-17 17,2 10,-6 -15,-30 -2,-11 2,-7 4,-3 z"
     id="银川市" />
  <path
     stroke="#ffff00"
     stroke-opacity="1"
     stroke-width="0.5"
     stroke-linecap="round"
     stroke-linejoin="round"
     stroke-dasharray="none"
     fill="#1e90ff"
     fill-opacity="1"
     fill-rule="evenodd"
     d="m 615,137.99997 14,-50 3,-5 17,-13 17,-30 12,-17 43,-43 2,-4 4,-32 -1,-18 -5,-3 h -3 l -5,-7 -10,-2 -9,-4 -4,-3 -6,-10 -10,-36 -11,-10 1,-8 -3,-4 1,-6 5,-11 -2,-8 2,-12 -5,-8 2,-5 -6,-12 h -9 l -2,-4 -7,3 h -6 l -15,9 -11,-1 -5,-4 -10,-4 -17,25 -5,2 -3,4 h -3 l -4,16 -3,2 -13,-3 -4,-3 -21,-4 -43,10 -2,4 4,20 -1,15 3,9 -3,9 -4,4 -8,4 -24,-6 -6,-9 -9,5 -13,25 -5,6 -5,16 -1,7 2,1 -3,4 4,5 -1,5 -9,13 v 5 l -14,6 -5,9 -15,14 1,7 5,8 7,-1 17,4 5,5 13,7 9,1 1,5 4,5 13,1 12,6 8,-5 5,7 h 5 l 9,6 v 3 l 11,-4 v 6 l 3,2 6,-2 6,2 h 11 l -3,8 8,1 v 12 l 3,3 h 12 v 12 l 7,-3 1,-3 6,-1 7,5 h 11 l 5,5 12,3 9,-1 -1,7 -3,6 19,6 2,2 -1,9 z"
     id="石嘴山市" />
  <path
     stroke="#ffff00"
     stroke-opacity="1"
     stroke-width="0.5"
     stroke-linecap="round"
     stroke-linejoin="round"
     stroke-dasharray="none"
     fill="#1e90ff"
     fill-opacity="1"
     fill-rule="evenodd"
     d="m 320,294.99997 -4,11 -14,9 -8,8 -5,38 5,17 17,27 4,9 -6,15 -4,6 -5,15 v 9 l 4,16 -2,6 -6,8 -6,15 -4,6 -13,5 -10,6 -7,1 -16,-4 -4,2 -2,11 v 14 l -3,7 15,-1 1,-3 10,-4 h 6 l 8,-3 9,2 15,-5 11,2 4,-1 7,3 3,-5 11,2 6,-1 1,5 -5,6 v 16 l -4,15 3,2 3,6 -4,7 h 8 l 2,-7 7,-12 1,-6 7,5 9,-1 10,2 7,5 v 14 l -1,2 h -5 l -2,3 v 5 l 12,15 -2,1 11,6 6,8 -7,1 -3,4 -4,-1 -2,5 -6,4 -1,6 -3,5 h -16 l -1,3 6,2 3,6 -17,2 v 8 l -4,2 -4,-3 -10,3 -4,4 4,8 -1,3 -12,-2 -3,7 23,13 h 4 l 10,9 -1,5 -6,7 -48,-5 v 3 l -6,5 -15,5 7,15 1,6 5,4 v 8 l 4,2 -2,3 2,3 -5,3 -20,3 -2,-5 -9,-9 4,-6 v -4 l -5,-10 -1,-7 -26,24 -16,3 5,7 4,2 h 11 l 6,3 h 11 l 3,7 -1,7 2,10 3,5 10,5 14,14 h 11 l 25,48 -5,3 -1,7 -3,5 -14,9 v 3 l -6,3 v 3 l -9,-3 6,7 -5,7 1,9 -4,1 v 10 l 3,11 5,-4 3,2 h 8 l 7,-4 5,3 1,9 4,-2 1,-10 12,-8 1,-4 3,-2 6,-8 -1,-2 4,-4 v -2 l -7,-10 h 7 l 6,-4 1,-4 3,1 v 4 l 8,5 -2,5 4,1 1,5 6,5 -1,5 2,3 -5,5 2,3 h 10 l 9,8 v 13 l 16,17 -2,8 4,9.00003 10,14 v 7 l 5,6 v 6 l 5,2 7,10 -2,8 2,8 5,4 6,-4 h 10 v -8 l 2,-3 6,-1 6,3 3,-6 6,3 1,3 5,-2 3,1 3,6 5,1 23,-9 -1,-4 3,-1 6,2 2,-2 7,-2 1,-3 4,5 9,2 8,-4 2,-8 -2,-18 7,-3 3,2 5,-1 -6,-11 7,-7.00003 6,-1 1,-3 7,2 v -6 l 5,1 3,-2 6,9 2,-3 6,6.00003 h 4 l -4,-5.00003 -2,-8 2,-1 2,-15 2,-2 -1,-5 6,-4 v -4 l -6,-6 v -9 l -6,-4 5,-4 -3,-3 3,-3 -4,-4 -4,2 -3,5 -3,-6 4,-6 -3,-7 -5,-1 -4,-4 -6,-1 -5,-5 2,-4 -4,-8 -1,-7 15,17 -5,1 5,5 4,-3 -1,-7 2,-5 10,4 8,-2 -2,-5 3,-11 -2,-6 6,2 3,-4 -5,-8 -3,-14 -4,-9 -5,-6 -5,-14 4,-4 7,4 2,4 7,-3 3,6 3,-1 4,-7 4,5 11,-1 -1,5 4,4 h 4 l 1,7 3,2 2,-6 -3,-3 6,-10 -2,-4 2,-9 h 3 v -3 l 8,6 5,1 3,5 12,8 5,-1 7,8 4,-5 h 3 l -1,-6 h 3 l -1,-4 -8,-4 5,-5 6,2 11,8 3,7 9,3 6,-1 -4,-4 2,-1 4,3 2,-1 6,3 1,-3 -2,-7 2,-4 5,5 6,2 6,-2 6,6 6,-5 h 4 l 4,-3 18,-4 19,20 5,-3 13,4 -2,-3 -2,-10 2,-1 10,12 9,-13 v -4 l 3,-7 -3,-12 -5,-9 -17,-13 1,-4 7,-2 6,2 v -6 l -6,-12 -7,-7 -6,-21 3,-6 -1,-9 8,-32 v -19 l 22,-17 5,-9 5,-19 -1,-4 -10,3 -4,-1 -7,-12 5,2 9,-1 4,-3 1,-4 13,-14 7,1 1,-6 -12,-3 -1,-9 8,-1 8,4 13,-3 7,-7 3,-13 -1,-5 3,-10 9,-3 18,-2 7,-5 -3,1 -2,-3 3,-3 v 4 h 5 l 3,6 4,1 10,-14 5,-18 -1,-7 -8,-6 -27,-10 -15,-12 -10,-11 -13,1 -3,4 -11,-3 -3,-4 11,-22 -4,-5 -12,-3 -7,-11 -7,-7 v -3 l -10,-13 -8,-4 -8,-1 -15,-5 -7,-10 -5,-1 -8,-10 h -14 l -5,-3 -4,5 -1,6 -2,1 h -10 l -2,2 -6,-4 -7,8 -8,-3 -4,1 -1,3 -25,-6 -44,-14 1,2 -4,3 -2,7 2,11 15,30 -10,6 -17,-2 -8,17 1,12 2,10 4,7 4,-2 h 11 l -2,6 2,26 4,7 4,-3 15,1 -2,13 -7,18 -11,16 -22,11 -1,7 3,30 -1,9 -22,-1 -23,-7 -2,6 -15,-5 -24,-1 3,-6 -17,-11 -10,-13 -12,-8 -5,-1 -12,-9 -5,-9 -13,-10 v -3 l -14,-3 v -2 l -8,-9 1,-6 -2,-2 4,-7 20,-2 5,-5 v -18 l -8,-1 v -7 h -12 l -2,-3 5,-8 -5,-5 -2,-6 -3,-2 -4,3 -5,-10 v -5 h 2 v -11 l -10,-1 4,5 h -3 l -5,-11 -6,-3 -1,-3 2,-8 5,-4 1,-4 -4,-8 v -3 l -13,-6 1,-3 -8,-1 -4,-3 -4,1 -4,5 -2,-11 -6,-3 v -3 l -4,-2 -3,3 -4,-2 v -6 l 2,-1 -3,-2 1,-3 -7,7 -1,4 -5,5 -11,-5 -3,6 -9,-3 -5,16 -9,-7 11,-27 -1,-2 -22,-10 -6,-7 z"
     id="吴忠市" />
  <path
     stroke="#ffff00"
     stroke-opacity="1"
     stroke-width="0.5"
     stroke-linecap="round"
     stroke-linejoin="round"
     stroke-dasharray="none"
     fill="#1e90ff"
     fill-opacity="1"
     fill-rule="evenodd"
     d="m 399,1576 2,1 4,20 h 5 l -1,5 3,1 v 10 l 4,2 -1,-4 3,-1 3,-9 9,-10 4,-2 2,-6 3,-1 v 5 l 3,-1 1,7 17,1 4,19 -3,4 4,5 1,4 3,3 5,1 4,8 -1,4 6,6 h 3 l 4,5 -1,4 7,8 h 6 l 1,5 h 3 l 4,-4 -3,-11 3,-2 4,3 9,-4 h 4 l 3,-6 5,-2 5,-5 5,-1 7,-8 -1,-4 2,-6 6,-3 -3,-2 -2,-6 1,-5 -2,-3 4,-10 -2,-6 -6,-9 3,-14 h -9 l -1,-9 -5,-4 1,-3 -3,-1 -1,-3 5,-5 -1,-8 3,-11 7,2 -3,-12 -2,-1 v -8 l -4,-3 v -4 l 2,-3 -4,-2 -1,-7 -3,1 -1,-12 5,-3 6,-10 8,-4 2,-5 11,-1 3,6 v -7 l 13,1 5,4 6,1 1,-7 h 2 l 3,7 1,-6 2,-1 1,8 3,5 6,3 1,-3 4,3 4,-9 h 3 l 4,6 16,12 6,-1 v -4 l -3,1 2,-13 2,2 3,-3 1,3 5,-1 9,7 4,-4 v -5 l 2,-1 -2,-4 4,-2 2,3 1,-3 h 6 l 5,3 1,-16 2,-1 4,2 v 4 l 4,1 2,-7 2,3 2,-10 -3,-1 v -5 l -3,-2 8,2 3,-3 -4,-1 1,-3 -3,-5 -4,2 -8,-12 -1,-10 3,3 -1,-5 -3,1 -7,-2 -1,-2 4,-4 v -6 l 4,1 5,-5 7,2 v -5 l 3,-3 4,2 4,-3 2,1 1,-4 -2,-6 -6,2 -1,4 -6,-2 -2,-2 -2,-8 3,3 3,-1 1,6 3,1 v -6 l 6,-9 3,-2 3,-9 -7,-1 -2,-2 1,-8 4,-2 v -14 l 3,-1 v -5 l 4,1 -2,-3 1,-4 -2,-4 h -3 l -1,-4 2,-6 -2,-2 -3,6 -3,-1 2,-10 -4,4 -4,-3 2,-8 -6,-7 -3,1 -4,-6 -1,1 -3,-3 v -4 l -3,-5 -6,-1 -1,-7 -2,-3 -2,6 -2,-2 -4,1 -1,3 -7,-7 -2,4 -3,-3 -1,5 -4,-1 -8,-6 -2,-4 -2,2 -4,-2 -1,3 -3,-4 h -2 l -6,-15 -8,5 -2,-2 -1,4 -2,-1 -2,-11 -2,8 -11,-4 v -7 l -3,-1 v 8 l -2,2 -5,-8 -1,1 -7,-3 1,9 -2,6 h -4 l -2,3 -8,-8 h -6 l -6,-7 -5,-9 v -3 l 3,-1 6,5 1,4 4,4 v -8 l -4,-4 3,-7 1,-23 6,3 2,-3 -2,-2 v -3 l -4,-1 -4,-4 -4,1 v -11 l 4,4 2,-6 -3,-2 1,-4 6,-7 1,-5 -2,-6 -6,-2 -2,-4 -2,5 -2,1 -3,-6 -8,-2 -8,-9 -4,2 -4,-2 -3,4 -11,-3 -6,3 -3,5 -4,-1 -2,7 -7,3 2,13 4,-2 -4,8 -1,11 -9,2 -3,-2 -4,14 h -9 l -7,4 -8,8 -3,6 -14,4 -6,4 -5,-1 -8,5 -7,-7 -3,-1 -1,4 -6,-4 -8,3 -4,-1 -4,7 -11,-3 -2,4 1,4 -4,1 -1,4 9,20 4,24 -8,-1 -11,-7 -24,-2 v 11 l -9,11 -2,7 -6,4 -8,9 -2,-2 -1,-5 -3,-2 -6,2 -4,-1 -3,3 -3,-1 8,-9 -4,-9 -3,-2 -5,4 -7,-2 -7,4 -4,5 h -8 l -11,-10 -3,-6 -4,-2 -6,-9 -2,-7 -6,-3 -18,9 -18,12 5,15 4,3 -3,10 -3,-1 2,4 -4,10 h -8 l -3,-3 -3,3 -8,-2 -8,13 -3,-2 -3,2 v 4 l -5,2 -6,8 2,5 h -8 l -2,7 1,6 -3,2 1,9 -2,13 -2,4 3,5 2,10 -5,2 3,8 6,5 3,-2 4,4 8,2 2,5 -2,4 -2,-3 -6,4 3,9 -1,4 4,-1 -4,6 3,5 9,-13 h 3 v 3 l 4,-1 2,14 2,3 h 3 l 4,4 -1,10 3,-2 3,1 4,11 10,3 7,-3 3,2 3,-3 6,2 2,4 -3,7 2,5 4,-5 -2,-7 h 9 l 1,-3 9,-3 17,-10 4,6 1,-4 h 3 v 5 l 4,1 2,-2 7,3 3,3 4,-3 h 3 l 1,6 -7,9 -3,-1 -3,-12 -6,11 -5,1 v 7 l 5,-1 5,4 -1,14 4,3 h 6 l -1,6 4,1 3,-5 1,2 -2,6 h -3 l 5,6 6,2 2,3 -3,3 8,9 7,-4 2,7 -1,2 3,3 -2,4 4,-1 1,21 4,2 8,-22 5,2 v -4 l 7,-2 4,4 22,3 8,3 3,3 4,-2 1,5 -2,1 3,7 17,-4 1,5 2,-1 1,-7 6,1 2,4 -4,4 -8,1 2,8 v 9 z m -6,-1 -1,-10 3,-5 -2,-2 -5,2 -4,-1 -2,2 -13,3 -10,6 -8,1 -5,4 h -10 l -3,5 2,11 11,-2 2,-2 6,1 1,-3 4,-2 2,4 3,-4 7,-2 1,-6 3,6 2,-2 -1,-5 10,-7 3,7 z m 7,14 1,-5 -4,-3 v 6 z m 0,-15 -1,-2 1,4 z"
     id="固原市" />
  <path
     stroke="#ffff00"
     stroke-opacity="1"
     stroke-width="0.5"
     stroke-linecap="round"
     stroke-linejoin="round"
     stroke-dasharray="none"
     fill="#1e90ff"
     fill-opacity="1"
     fill-rule="evenodd"
     d="m 523,1095 3,-4 -4,-4 -2,-5 -7,1 -4,-2 v -4 l -4,-6 1,-3 10,10 2,-8 h 4 l 4,5 9,2 4,-1 2,-4 -4,-4 8,-1 -4,-6 -6,-3 1,-7 -1,-4 -4,-5 -1,3 -7,2 -2,2 -6,-2 -3,1 1,4 -23,9 -5,-1 -3,-6 -3,-1 -5,2 -1,-3 -6,-3 -3,6 -6,-3 -6,1 -2,3 v 8 l -6,-1 -10,5 -5,-4 -2,-8 2,-8 -7,-10 -5,-2 v -6 l -5,-6 v -7 l -10,-14 -4,-9.00003 2,-8 -16,-17 v -13 l -9,-8 h -10 l -2,-3 5,-5 -2,-3 1,-5 -6,-5 -1,-5 -4,-1 2,-5 -8,-5 v -4 l -3,-1 -1,4 -6,4 h -7 l 7,10 v 2 l -4,4 1,2 -9,10 -1,4 -12,8 -1,10 -4,2 -1,-9 -5,-3 -7,4 h -8 l -3,-2 -5,4 -3,-11 v -10 l 4,-1 -1,-9 5,-7 -6,-7 9,3 v -3 l 6,-3 v -3 l 14,-9 3,-5 1,-7 5,-3 -25,-48 h -11 l -14,-14 -10,-5 -3,-5 -2,-10 1,-7 -3,-7 h -11 l -6,-3 h -11 l -4,-2 -5,-7 16,-3 26,-24 1,7 5,10 v 4 l -4,6 9,9 2,5 20,-3 5,-3 -2,-3 2,-3 -4,-2 v -8 l -5,-4 -1,-6 -7,-15 15,-5 6,-5 v -3 l 48,5 6,-7 1,-5 -10,-9 h -4 l -23,-13 3,-7 12,2 1,-3 -4,-8 4,-4 10,-3 4,3 4,-2 v -8 l 17,-2 -3,-6 -6,-2 1,-3 h 16 l 3,-5 1,-6 6,-4 2,-5 4,1 3,-4 7,-1 -6,-8 -11,-6 2,-1 -12,-15 v -5 l 2,-3 h 5 l 1,-2 v -14 l -7,-5 -10,-2 -9,1 -7,-5 -1,6 -7,12 -2,7 h -8 l 4,-7 -3,-6 -3,-2 4,-15 v -16 l 5,-6 -1,-5 -6,1 -11,-2 -3,5 -7,-3 -4,1 -11,-2 -15,5 -9,-2 -8,3 h -6 l -10,4 -1,3 -15,1 -4,4 -47,2 -8,-1 -9,-5 -7,-1 -32,4 -13,6 -19,4 -14,10 -20,9 -8,2 -9,9 -23,16 -35,3 -8,3 h -14 l -13,5 -10,7 -66,8 -69,3 -1,2 h -4 l -4,22 -13,1 -6,6 -7,2 -5,-2 -7,3 -6,7 v 3 l 4,3 17,-3 7,1 15,-9 12,-4 5,11 17,1 8,-7 4,1 4,5 8,-4 16,3 2,3 4,1 5,-2 7,4 8,2 -3,3 -4,14 3,6 12,5 6,-2 v 6 l -2,4 -3,-1 -7,5 h -3 l -4,4 -1,5 -4,4 h -3 l -4,-3 h -3 l -2,3 2,3 -1,3 h -3 l -4,7 -1,9 4,9 5,5 v 3 l 5,2 9,-3 1,2 6,1 12,-3 11,-9 1,-3 10,-5 3,2 3,6 4,-3 2,2 h 5 l 3,4 9,4 1,13 2,5 9,7 3,8 v 6 l 5,2 3,6 -1,6 5,5 6,1 3,3 v 17 l 4,4 14,-2 3,2 -1,6 11,5 3,-6 4,-1 6,4 19,8 h 14 l 1,13 6,12 -1,5 h -2 l 2,13 -1,4 4,3 v -3 l 6,-2 7,5 5,-5 12,12 3,6 -1,2 7,4 -2,4 2,1 2,6 9,7 1,-1 4,19 -3,1 -5,9 -5,1 -3,-3 -8,-2 -2,6 -11,-1 v 3 h -5 l -4,3 -6,12.00003 3,10 6,7 -1,12 4,5 h 3 v 6 l 3,5 h 4 l 4,4 -2,2 3,5 1,7 -9,4 -1,3 3,1 1,5 5,1 3,4 2,-2 6,1 6,-5 15,17 2,6 -1,7 2,4 -2,8 2,3 5,-2 6,6 -1,9 2,10 4,1 2,3 -2,3 h -4 l 1,6 5,5 2,7 11,4 2,6 3,2 3,6 -1,7 h -3 l -2,5 2,6 -3,7 1,5 7,5 3,10 18,-12 18,-9 6,3 2,7 6,9 4,2 3,6 11,10 h 8 l 4,-5 7,-4 7,2 5,-4 3,2 4,9 -8,9 3,1 3,-3 4,1 6,-2 3,2 1,5 2,2 8,-9 6,-4 2,-7 9,-11 v -11 l 24,2 11,7 8,1 -4,-24 -9,-20 1,-4 4,-1 -1,-4 2,-4 11,3 4,-7 4,1 8,-3 6,4 1,-4 3,1 7,7 8,-5 5,1 6,-4 14,-4 3,-6 8,-8 7,-4 h 9 l 4,-14 3,2 9,-2 1,-11 4,-8 -4,2 -2,-13 7,-3 2,-7 4,1 3,-5 6,-3 11,3 z"
     id="中卫市" />
</svg>