<svg xmlns="http://www.w3.org/2000/svg" id="svg1" version="1.1" viewBox="-251 -228 1230 1899">
  <path id="银川市" fill="#ff6347" fill-opacity="1" fill-rule="evenodd" stroke="#ffffff" stroke-dasharray="none" stroke-linecap="round" stroke-linejoin="round" stroke-opacity="1" stroke-width="0.5" d="m674 342-17-4-9-5-9-10-27-12-10-1-26-15-15-16-9-4-3-6 44-34 17-37 5-60-8-8 1-9-2-2-19-6 3-6 1-7-9 1-12-3-5-5h-11l-7-5-6 1-1 3-7 3V83h-12l-3-3V68l-8-1 3-8h-11l-6-2-6 2-3-2v-6l-11 4v-3l-9-6h-5l-5-7-8 5-12-6-13-1-4-5-1-5-9-1-13-7-5-5-17-4-4 9-17 15-4 7v3h-3l-6 6h-4v6l3 4-3 6 3 9-1 3-7 6 3 11-8 10v7l-7 7 2 14 2 2 1 5 3 2-1 5-4 1-2 4 3 15-1 6-6 6 1 8-4 10 5 15-7 3-1 13 3 8-5 11 2 10 5 11 6 6 3 6-5 15 14 2 6 7 22 10 1 2-11 27 9 7 5-16 9 3 3-6 11 5 5-5 1-4 7-7-1 3 3 2-2 1v6l4 2 3-3 4 2v3l6 3 1 11 5-5 4-1 4 3 8 1-1 3 13 6v3l4 8-1 4-5 4-2 8 1 3 6 3 5 11h3l-4-5 10 1v11h-2v5l5 10 4-3 3 2 2 6 5 5-5 8 2 3h12v7l8 1v18l-5 5-20 2-4 7 2 2-1 6 8 9v2l14 3v3l13 10 5 9 12 9 5 1 12 8 10 13 17 11-3 6 24 1 15 5 2-6 23 7 22 1 1-9-3-30 1-7 22-11 11-16 7-18 2-13-15-1-4 3-4-7-2-26 2-6h-11l-4 2-4-7-2-10-1-12 8-17 17 2 10-6-15-30-2-11 2-7 4-3z"/>
  <path id="石嘴山市" fill="#ff6347" fill-opacity="1" fill-rule="evenodd" stroke="#ffffff" stroke-dasharray="none" stroke-linecap="round" stroke-linejoin="round" stroke-opacity="1" stroke-width="0.5" d="m615 138 14-50 3-5 17-13 17-30 12-17 43-43 2-4 4-32-1-18-5-3h-3l-5-7-10-2-9-4-4-3-6-10-10-36-11-10 1-8-3-4 1-6 5-11-2-8 2-12-5-8 2-5-6-12h-9l-2-4-7 3h-6l-15 9-11-1-5-4-10-4-17 25-5 2-3 4h-3l-4 16-3 2-13-3-4-3-21-4-43 10-2 4 4 20-1 15 3 9-3 9-4 4-8 4-24-6-6-9-9 5-13 25-5 6-5 16-1 7 2 1-3 4 4 5-1 5-9 13v5l-14 6-5 9-15 14 1 7 5 8 7-1 17 4 5 5 13 7 9 1 1 5 4 5 13 1 12 6 8-5 5 7h5l9 6v3l11-4v6l3 2 6-2 6 2h11l-3 8 8 1v12l3 3h12v12l7-3 1-3 6-1 7 5h11l5 5 12 3 9-1-1 7-3 6 19 6 2 2-1 9z"/>
  <path id="吴忠市" fill="#ff6347" fill-opacity="1" fill-rule="evenodd" stroke="#ffffff" stroke-dasharray="none" stroke-linecap="round" stroke-linejoin="round" stroke-opacity="1" stroke-width="0.5" d="m320 295-4 11-14 9-8 8-5 38 5 17 17 27 4 9-6 15-4 6-5 15v9l4 16-2 6-6 8-6 15-4 6-13 5-10 6-7 1-16-4-4 2-2 11v14l-3 7 15-1 1-3 10-4h6l8-3 9 2 15-5 11 2 4-1 7 3 3-5 11 2 6-1 1 5-5 6v16l-4 15 3 2 3 6-4 7h8l2-7 7-12 1-6 7 5 9-1 10 2 7 5v14l-1 2h-5l-2 3v5l12 15-2 1 11 6 6 8-7 1-3 4-4-1-2 5-6 4-1 6-3 5h-16l-1 3 6 2 3 6-17 2v8l-4 2-4-3-10 3-4 4 4 8-1 3-12-2-3 7 23 13h4l10 9-1 5-6 7-48-5v3l-6 5-15 5 7 15 1 6 5 4v8l4 2-2 3 2 3-5 3-20 3-2-5-9-9 4-6v-4l-5-10-1-7-26 24-16 3 5 7 4 2h11l6 3h11l3 7-1 7 2 10 3 5 10 5 14 14h11l25 48-5 3-1 7-3 5-14 9v3l-6 3v3l-9-3 6 7-5 7 1 9-4 1v10l3 11 5-4 3 2h8l7-4 5 3 1 9 4-2 1-10 12-8 1-4 3-2 6-8-1-2 4-4v-2l-7-10h7l6-4 1-4 3 1v4l8 5-2 5 4 1 1 5 6 5-1 5 2 3-5 5 2 3h10l9 8v13l16 17-2 8 4 9 10 14v7l5 6v6l5 2 7 10-2 8 2 8 5 4 6-4h10v-8l2-3 6-1 6 3 3-6 6 3 1 3 5-2 3 1 3 6 5 1 23-9-1-4 3-1 6 2 2-2 7-2 1-3 4 5 9 2 8-4 2-8-2-18 7-3 3 2 5-1-6-11 7-7 6-1 1-3 7 2v-6l5 1 3-2 6 9 2-3 6 6h4l-4-5-2-8 2-1 2-15 2-2-1-5 6-4v-4l-6-6v-9l-6-4 5-4-3-3 3-3-4-4-4 2-3 5-3-6 4-6-3-7-5-1-4-4-6-1-5-5 2-4-4-8-1-7 15 17-5 1 5 5 4-3-1-7 2-5 10 4 8-2-2-5 3-11-2-6 6 2 3-4-5-8-3-14-4-9-5-6-5-14 4-4 7 4 2 4 7-3 3 6 3-1 4-7 4 5 11-1-1 5 4 4h4l1 7 3 2 2-6-3-3 6-10-2-4 2-9h3v-3l8 6 5 1 3 5 12 8 5-1 7 8 4-5h3l-1-6h3l-1-4-8-4 5-5 6 2 11 8 3 7 9 3 6-1-4-4 2-1 4 3 2-1 6 3 1-3-2-7 2-4 5 5 6 2 6-2 6 6 6-5h4l4-3 18-4 19 20 5-3 13 4-2-3-2-10 2-1 10 12 9-13v-4l3-7-3-12-5-9-17-13 1-4 7-2 6 2v-6l-6-12-7-7-6-21 3-6-1-9 8-32v-19l22-17 5-9 5-19-1-4-10 3-4-1-7-12 5 2 9-1 4-3 1-4 13-14 7 1 1-6-12-3-1-9 8-1 8 4 13-3 7-7 3-13-1-5 3-10 9-3 18-2 7-5-3 1-2-3 3-3v4h5l3 6 4 1 10-14 5-18-1-7-8-6-27-10-15-12-10-11-13 1-3 4-11-3-3-4 11-22-4-5-12-3-7-11-7-7v-3l-10-13-8-4-8-1-15-5-7-10-5-1-8-10h-14l-5-3-4 5-1 6-2 1h-10l-2 2-6-4-7 8-8-3-4 1-1 3-25-6-44-14 1 2-4 3-2 7 2 11 15 30-10 6-17-2-8 17 1 12 2 10 4 7 4-2h11l-2 6 2 26 4 7 4-3 15 1-2 13-7 18-11 16-22 11-1 7 3 30-1 9-22-1-23-7-2 6-15-5-24-1 3-6-17-11-10-13-12-8-5-1-12-9-5-9-13-10v-3l-14-3v-2l-8-9 1-6-2-2 4-7 20-2 5-5v-18l-8-1v-7h-12l-2-3 5-8-5-5-2-6-3-2-4 3-5-10v-5h2v-11l-10-1 4 5h-3l-5-11-6-3-1-3 2-8 5-4 1-4-4-8v-3l-13-6 1-3-8-1-4-3-4 1-4 5-2-11-6-3v-3l-4-2-3 3-4-2v-6l2-1-3-2 1-3-7 7-1 4-5 5-11-5-3 6-9-3-5 16-9-7 11-27-1-2-22-10-6-7z"/>
  <path id="固原市" fill="#ff6347" fill-opacity="1" fill-rule="evenodd" stroke="#ffffff" stroke-dasharray="none" stroke-linecap="round" stroke-linejoin="round" stroke-opacity="1" stroke-width="0.5" d="m399 1576 2 1 4 20h5l-1 5 3 1v10l4 2-1-4 3-1 3-9 9-10 4-2 2-6 3-1v5l3-1 1 7 17 1 4 19-3 4 4 5 1 4 3 3 5 1 4 8-1 4 6 6h3l4 5-1 4 7 8h6l1 5h3l4-4-3-11 3-2 4 3 9-4h4l3-6 5-2 5-5 5-1 7-8-1-4 2-6 6-3-3-2-2-6 1-5-2-3 4-10-2-6-6-9 3-14h-9l-1-9-5-4 1-3-3-1-1-3 5-5-1-8 3-11 7 2-3-12-2-1v-8l-4-3v-4l2-3-4-2-1-7-3 1-1-12 5-3 6-10 8-4 2-5 11-1 3 6v-7l13 1 5 4 6 1 1-7h2l3 7 1-6 2-1 1 8 3 5 6 3 1-3 4 3 4-9h3l4 6 16 12 6-1v-4l-3 1 2-13 2 2 3-3 1 3 5-1 9 7 4-4v-5l2-1-2-4 4-2 2 3 1-3h6l5 3 1-16 2-1 4 2v4l4 1 2-7 2 3 2-10-3-1v-5l-3-2 8 2 3-3-4-1 1-3-3-5-4 2-8-12-1-10 3 3-1-5-3 1-7-2-1-2 4-4v-6l4 1 5-5 7 2v-5l3-3 4 2 4-3 2 1 1-4-2-6-6 2-1 4-6-2-2-2-2-8 3 3 3-1 1 6 3 1v-6l6-9 3-2 3-9-7-1-2-2 1-8 4-2v-14l3-1v-5l4 1-2-3 1-4-2-4h-3l-1-4 2-6-2-2-3 6-3-1 2-10-4 4-4-3 2-8-6-7-3 1-4-6-1 1-3-3v-4l-3-5-6-1-1-7-2-3-2 6-2-2-4 1-1 3-7-7-2 4-3-3-1 5-4-1-8-6-2-4-2 2-4-2-1 3-3-4h-2l-6-15-8 5-2-2-1 4-2-1-2-11-2 8-11-4v-7l-3-1v8l-2 2-5-8-1 1-7-3 1 9-2 6h-4l-2 3-8-8h-6l-6-7-5-9v-3l3-1 6 5 1 4 4 4v-8l-4-4 3-7 1-23 6 3 2-3-2-2v-3l-4-1-4-4-4 1v-11l4 4 2-6-3-2 1-4 6-7 1-5-2-6-6-2-2-4-2 5-2 1-3-6-8-2-8-9-4 2-4-2-3 4-11-3-6 3-3 5-4-1-2 7-7 3 2 13 4-2-4 8-1 11-9 2-3-2-4 14h-9l-7 4-8 8-3 6-14 4-6 4-5-1-8 5-7-7-3-1-1 4-6-4-8 3-4-1-4 7-11-3-2 4 1 4-4 1-1 4 9 20 4 24-8-1-11-7-24-2v11l-9 11-2 7-6 4-8 9-2-2-1-5-3-2-6 2-4-1-3 3-3-1 8-9-4-9-3-2-5 4-7-2-7 4-4 5h-8l-11-10-3-6-4-2-6-9-2-7-6-3-18 9-18 12 5 15 4 3-3 10-3-1 2 4-4 10h-8l-3-3-3 3-8-2-8 13-3-2-3 2v4l-5 2-6 8 2 5h-8l-2 7 1 6-3 2 1 9-2 13-2 4 3 5 2 10-5 2 3 8 6 5 3-2 4 4 8 2 2 5-2 4-2-3-6 4 3 9-1 4 4-1-4 6 3 5 9-13h3v3l4-1 2 14 2 3h3l4 4-1 10 3-2 3 1 4 11 10 3 7-3 3 2 3-3 6 2 2 4-3 7 2 5 4-5-2-7h9l1-3 9-3 17-10 4 6 1-4h3v5l4 1 2-2 7 3 3 3 4-3h3l1 6-7 9-3-1-3-12-6 11-5 1v7l5-1 5 4-1 14 4 3h6l-1 6 4 1 3-5 1 2-2 6h-3l5 6 6 2 2 3-3 3 8 9 7-4 2 7-1 2 3 3-2 4 4-1 1 21 4 2 8-22 5 2v-4l7-2 4 4 22 3 8 3 3 3 4-2 1 5-2 1 3 7 17-4 1 5 2-1 1-7 6 1 2 4-4 4-8 1 2 8v9zm-6-1-1-10 3-5-2-2-5 2-4-1-2 2-13 3-10 6-8 1-5 4h-10l-3 5 2 11 11-2 2-2 6 1 1-3 4-2 2 4 3-4 7-2 1-6 3 6 2-2-1-5 10-7 3 7zm7 14 1-5-4-3v6zm0-15-1-2 1 4z"/>
  <path id="中卫市" fill="#ff6347" fill-opacity="1" fill-rule="evenodd" stroke="#ffffff" stroke-dasharray="none" stroke-linecap="round" stroke-linejoin="round" stroke-opacity="1" stroke-width="0.5" d="m523 1095 3-4-4-4-2-5-7 1-4-2v-4l-4-6 1-3 10 10 2-8h4l4 5 9 2 4-1 2-4-4-4 8-1-4-6-6-3 1-7-1-4-4-5-1 3-7 2-2 2-6-2-3 1 1 4-23 9-5-1-3-6-3-1-5 2-1-3-6-3-3 6-6-3-6 1-2 3v8l-6-1-10 5-5-4-2-8 2-8-7-10-5-2v-6l-5-6v-7l-10-14-4-9 2-8-16-17v-13l-9-8h-10l-2-3 5-5-2-3 1-5-6-5-1-5-4-1 2-5-8-5v-4l-3-1-1 4-6 4h-7l7 10v2l-4 4 1 2-9 10-1 4-12 8-1 10-4 2-1-9-5-3-7 4h-8l-3-2-5 4-3-11v-10l4-1-1-9 5-7-6-7 9 3v-3l6-3v-3l14-9 3-5 1-7 5-3-25-48h-11l-14-14-10-5-3-5-2-10 1-7-3-7h-11l-6-3h-11l-4-2-5-7 16-3 26-24 1 7 5 10v4l-4 6 9 9 2 5 20-3 5-3-2-3 2-3-4-2v-8l-5-4-1-6-7-15 15-5 6-5v-3l48 5 6-7 1-5-10-9h-4l-23-13 3-7 12 2 1-3-4-8 4-4 10-3 4 3 4-2v-8l17-2-3-6-6-2 1-3h16l3-5 1-6 6-4 2-5 4 1 3-4 7-1-6-8-11-6 2-1-12-15v-5l2-3h5l1-2v-14l-7-5-10-2-9 1-7-5-1 6-7 12-2 7h-8l4-7-3-6-3-2 4-15v-16l5-6-1-5-6 1-11-2-3 5-7-3-4 1-11-2-15 5-9-2-8 3h-6l-10 4-1 3-15 1-4 4-47 2-8-1-9-5-7-1-32 4-13 6-19 4-14 10-20 9-8 2-9 9-23 16-35 3-8 3h-14l-13 5-10 7-66 8-69 3-1 2h-4l-4 22-13 1-6 6-7 2-5-2-7 3-6 7v3l4 3 17-3 7 1 15-9 12-4 5 11 17 1 8-7 4 1 4 5 8-4 16 3 2 3 4 1 5-2 7 4 8 2-3 3-4 14 3 6 12 5 6-2v6l-2 4-3-1-7 5h-3l-4 4-1 5-4 4h-3l-4-3h-3l-2 3 2 3-1 3h-3l-4 7-1 9 4 9 5 5v3l5 2 9-3 1 2 6 1 12-3 11-9 1-3 10-5 3 2 3 6 4-3 2 2h5l3 4 9 4 1 13 2 5 9 7 3 8v6l5 2 3 6-1 6 5 5 6 1 3 3v17l4 4 14-2 3 2-1 6 11 5 3-6 4-1 6 4 19 8h14l1 13 6 12-1 5h-2l2 13-1 4 4 3v-3l6-2 7 5 5-5 12 12 3 6-1 2 7 4-2 4 2 1 2 6 9 7 1-1 4 19-3 1-5 9-5 1-3-3-8-2-2 6-11-1v3h-5l-4 3-6 12 3 10 6 7-1 12 4 5h3v6l3 5h4l4 4-2 2 3 5 1 7-9 4-1 3 3 1 1 5 5 1 3 4 2-2 6 1 6-5 15 17 2 6-1 7 2 4-2 8 2 3 5-2 6 6-1 9 2 10 4 1 2 3-2 3h-4l1 6 5 5 2 7 11 4 2 6 3 2 3 6-1 7h-3l-2 5 2 6-3 7 1 5 7 5 3 10 18-12 18-9 6 3 2 7 6 9 4 2 3 6 11 10h8l4-5 7-4 7 2 5-4 3 2 4 9-8 9 3 1 3-3 4 1 6-2 3 2 1 5 2 2 8-9 6-4 2-7 9-11v-11l24 2 11 7 8 1-4-24-9-20 1-4 4-1-1-4 2-4 11 3 4-7 4 1 8-3 6 4 1-4 3 1 7 7 8-5 5 1 6-4 14-4 3-6 8-8 7-4h9l4-14 3 2 9-2 1-11 4-8-4 2-2-13 7-3 2-7 4 1 3-5 6-3 11 3z"/>
</svg>
