<?xml version="1.0" encoding="UTF-8" standalone="no"?>
<svg
   width="1228.9999"
   height="1598"
   viewBox="-251 -228 1228.9999 1598"
   version="1.1"
   id="svg1"
   xmlns="http://www.w3.org/2000/svg"
   xmlns:svg="http://www.w3.org/2000/svg">
  <defs
     id="defs1" />
  <path
     stroke="#ffff00"
     stroke-opacity="1"
     stroke-width="0.5"
     stroke-linecap="round"
     stroke-linejoin="round"
     stroke-dasharray="none"
     fill="#1e90ff"
     fill-opacity="1"
     fill-rule="evenodd"
     d="m 303,813.99998 6,7 4,-1 13,27 -1,19 10,4 5,-5 4,6 5,3 4,6 1,5 12,11 h 5 l 2,-5 5,4 6,-1 6,8 v 4 h 3 l 1,-4 7,-4 7,3 2,-4 3,-2 9,-2 3,-3 -3,-8 -3,-1 v -2 l 7,-2 4,-6 v -8 l -4,-4 4,-3 1,-6 6,-2 1,-4 -1,-6 -7,-7 8,-4 1,-6 4,-6 -1,-5 8,-1 3,-6 5,-1 5,-16 10,-17 3,-16 4,-2 5,1 4,-3 3,2 3,-4 4,-1 h 14 l 13,-6 h 5 l 7,5 5,-4 -3,-6 -4,-2 4,-3 -7,-1 -2,-3 -3,1 v -3 l 2,-3 4,-1 v -5 l 2,-1 -1,-9 2,-2 5,-1 v 4 l 3,-2 -2,-11 1,-1 -5,-3 h -3 l 1,-2 -7,-8 v -14 l 3,-3 -4,-2 -1,-3 2,-3 -3,-7 1,-7 7,-7 5,-15 -14,-7 h -8 l -1,-8 -5,-2 v -4 l -2,-1 -2,-5 -5,-2 6,-4 v -6 l 8,-4 5,-5 -4,-4 v -3 l -3,-2 3,-1 v -3 h -4 l 1,-5 4,-5 -2,-17 -4,-7 -4,-1 -3,-3 -8,4 -2,-4 -11,-5 -7,4 -1,-3 -9,-2 v -3 h -5 l -6,4 v -3 l -2,3 -2,-1 -3,4 -7,2 -6,5 -14,4 -13,-10 h -3 l -2,-2 -1,-5 -8,-8 5,-11 3,-4 5,-3 -1,-7 -9,-3 -3,-4 -6,2 -3,-1 5,-4 1,-10 7,-11 -4,-3 -7,7 -10,4 -5,-3 -7,3 -9,-6 h -7 l -3,-3 1,-14 -3,-5 -11,-1 -4,5 h -7 l -1,-2 -7,-1 -2,4 v 8 l -2,3 1,4 -6,9 -2,7 -8,3 -1,6 h 9 l 1,12 -2,1 2,3 2,-1 1,3 -5,10 v 4 h 8 l 1,5 -3,9 -3,3 -9,1 -3,3 1,3 5,3 v 5 l -5,4 h -6 l -1,3 2,8 6,4 3,5 2,10 5,4 -2,8 -5,7 -6,3 v -4 l -3,-3 -6,1 -1,-3 -5,-2 -4,4 3,8 -15,4 -17,16 h -5 l -7,6 -13,6 3,7 4,1 -10,7 -3,4 7,12 3,-1 v 6 l 7,1 1,4 -2,6 4,17 -3,4 -1,7 3,5 v 11 l 7,12 10,7 12,-4 6,1 9,-3 4,2 6,-2 3,2 1,-8 h 3 l 1,3 9,3 7,-4 11,4 4,-2 2,1 v -3 l 3,-1 2,3 9,-2 h 3 l 5,4 2,-2 6,15 -3,2 -14,-1 -9,3 -9,13 -10,20 2,8 -3,8 v 6 l -2,3 -5,2 v 5 z"
     id="合肥市" />
  <path
     stroke="#ffff00"
     stroke-opacity="1"
     stroke-width="0.5"
     stroke-linecap="round"
     stroke-linejoin="round"
     stroke-dasharray="none"
     fill="#1e90ff"
     fill-opacity="1"
     fill-rule="evenodd"
     d="m 721,799.99998 -10,3 -11,1 -6,-12 2,-5 -4,-6 -5,-4 v -6 l -3,-2 -6,1 -1,3 h -4 l -2,-2 -4,2 -6,-19 2,-1 v -4 l -3,-3 -1,-4 -6,-3 -4,-8 -7,20 -2,4 -4,3 h -2 l -1,-3 2,-10 -3,-3 v -3 h -2 v 3 l -9,-4 v -2 l -5,-4 -12,1 -1,-3 -3,-1 -13,7 v 5 l 2,7 2,2 -3,-1 -3,4 1,7 10,2 -2,5 1,3 -45,-11 -3,2 -2,-1 1,-3 -2,-6 h 3 l 2,-2 -7,-4 1,-4 -5,4 -7,-5 h -5 l -13,6 h -14 l -4,1 -3,4 -3,-2 -4,3 -5,-1 -4,2 -3,16 -10,17 -5,16 -5,1 -3,6 -8,1 1,5 -4,6 -1,6 -8,4 7,7 1,6 -1,4 -6,2 -1,6 -4,3 4,4 v 8 l -4,6 -7,2 v 2 l 3,1 3,8 8,4 -1,5 4,2 3,-2 2,2 4,-1 2,-2 9,2 6,4 v 2 l 3,3 1,-8 h 4 l 1,-5 4,-5 -1,-3 h 3 l 2,-2 1,2 h 3 l 9,-25 10,-11 12,-3 5,2 5,15 8,5 9,-2 4,-3 9,2 4,4 -3,6 1,3 3,1 1,4 10,2 9,12 h 10 l 4,2 -2,10 3,7 -2,2 h -5 l -15,10 -5,-1 -5,4 2,1 -1,3 h -5 l -3,-5 -5,2 -3,3 2,5 -6,9 5,1 3,5 9,1 5,5 12,6 5,6 h 2 l 1,5 h 2 l -8,12 -1,6 9,-3 9,-12 12,-5 7,1 6,-3 10,5 2,-2 -10,-9 v -3 l 5,-4 1,-4 2,-1 -1,-6 1,-2 2,2 -2,-4 3,-4 5,-2 3,1 2,-6 13,-1 4,2 3,5 -1,3 h -3 l 3,6 4,-2 2,3 -1,4 8,4 1,-8 4,-3 1,-3 -6,-3 -1,-4 3,-2 2,-5 -3,-2 -2,2 2,-4 -3,-1 v -2 l 3,1 2,-2 -1,-5 6,-4 -4,-8 5,1 -2,-4 11,-6 h 5 l 3,-3 v -4 l -3,-6 3,-3 3,-7 2,1 1,7 h 6 l 5,-5 9,-11 -2,-4 3,-2 -1,-5 2,-4 7,-6 4,-1 -4,-8 -6,-4 -3,-8 -4,-3 -1,-4 -4,-2 3,-8 v -6 z"
     id="芜湖市" />
  <path
     stroke="#ffff00"
     stroke-opacity="1"
     stroke-width="0.5"
     stroke-linecap="round"
     stroke-linejoin="round"
     stroke-dasharray="none"
     fill="#1e90ff"
     fill-opacity="1"
     fill-rule="evenodd"
     d="m 227,305.99998 5,2 1,2 2,-2 4,2 2,3 13,6 -2,3 12,10 h 4 v 3 l 7,6 -1,2 h 4 l 7,5 10,4 4,7 3,-1 v 4 l 3,4 4,1 -3,3 6,-1 2,2 4,-3 -2,-5 11,-5 9,3 v 3 h 5 l 4,2 15,-22 3,1 4,-2 1,-3 h 6 l 1,-3 h 10 l 3,-4 13,3 2,-5 3,2 10,1 5,-8 6,-3 -1,-4 -3,-3 3,-11 5,-2 v -13 l 19,18 6,-1 8,5 4,-3 1,-8 8,-18 3,-1 4,2 3,-3 4,-9 3,-2 h 3 l 4,5 5,1 17,-6 3,8 -5,5 5,4 4,1 9,-8 5,4 4,-3 7,3 5,-4 1,-4 -4,-2 -4,1 v -8 l 7,-5 8,-1 3,-2 -2,-5 2,-11 -6,3 v -3 h 5 v -2 l -8,2 v -6 l -3,-1 -7,-7 h -3 l -2,-7 3,-1 v -2 l -4,-4 h -9 l -1,-3 3,-5 -3,-3 8,-5 4,-6 v -7 l 2,-4 -3,-1 -2,2 h -15 l -1,-5 -3,2 -1,3 -9,1 -3,9 -6,-1 -4,1 v 4 l -4,2 -5,-2 -9,3 -3,-3 -9,-2 -1,-5 -3,-1 -2,-6 -7,-1 -5,-4 -9,7 -6,-3 -6,1 -3,-3 -14,-3 -11,-9 -2,-7 -6,-7 -3,-10 -6,-5 -12,-1 -3,-5 -17,-3 -3,9 -6,6 -1,9 -11,-11 -2,6 -3,-1 -3,3 -1,3 5,4 -5,9 -5,-4 1,-1 h -4 l -3,-3 -6,5 -2,6 3,-1 8,6 v 3 h -4 l -1,4 h -3 v 3 l 7,2 2,3 -1,7 -18,-4 -3,5 -10,1 -13,-9 -5,2 h -7 l -2,4 -5,2 -8,-7 h -4 l -1,8 7,14 -3,23 h -3 l -3,-4 -4,6 -1,-1 -4,4 -1,3 3,5 v 7 l -4,5 v 5 l 1,2 13,6 3,6 -1,6 -2,-2 -1,2 -6,-1 v -2 l -2,1 v -2 l -3,1 -4,17 z"
     id="蚌埠市" />
  <path
     stroke="#ffff00"
     stroke-opacity="1"
     stroke-width="0.5"
     stroke-linecap="round"
     stroke-linejoin="round"
     stroke-dasharray="none"
     fill="#1e90ff"
     fill-opacity="1"
     fill-rule="evenodd"
     d="m 236,615.99998 5,-3 h 5 l 17,-16 15,-4 -3,-8 4,-4 5,2 1,3 6,-1 3,3 v 4 l 6,-3 5,-7 2,-8 -5,-4 -2,-10 -3,-5 -6,-4 -2,-8 1,-3 h 6 l 5,-4 v -5 l -5,-3 -1,-3 3,-3 9,-1 3,-3 3,-9 -1,-5 h -8 v -4 l 5,-10 -1,-3 -2,1 -2,-3 2,-1 v -10 l -1,-2 h -9 l 1,-6 8,-3 2,-7 6,-9 -1,-4 2,-3 v -8 l 2,-4 7,1 1,2 h 7 l 4,-5 11,1 3,-4 1,-4 -4,-6 -1,-9 -9,-22 v -2 l 6,-3 1,-6 4,-3 -2,-2 -9,-2 v -3 l -9,-3 -11,5 2,5 -4,3 -2,-2 -6,2 3,-4 -4,-1 -3,-8 -3,1 -4,-7 -10,-4 -7,-5 h -4 l 1,-2 -7,-6 v -3 h -4 l -12,-10 2,-3 -13,-6 -2,-3 -4,-2 -2,2 -1,-2 -13,-4 -20,-2 -47,-13 -16,-6 -2,3 v 8 l -3,7 8,11 v 8 l -2,5 1,3 h 8 l 6,4 -2,7 3,2 -2,2 2,6 -2,12 1,5 2,1 v 5 l -3,2 1,3 4,5 h 10 l 2,6 5,1 2,9 2,2 -1,6 4,1 v 4 l 12,-1 5,2 2,2 2,7 -6,3 h -12 l -11,10 v 7 l -4,8 -4,-1 -2,8 -1,10 3,3 -3,6 1,5 6,5 5,22 -2,3 2,6 -3,6 -4,2 4,4 -2,5 2,7 3,3 1,6 -2,5 2,6 5,6 -2,3 2,8 -1,4 10,3 7,5 17,8 v 18 l 2,4 9,-4 7,-1 z"
     id="淮南市" />
  <path
     stroke="#ffff00"
     stroke-opacity="1"
     stroke-width="0.5"
     stroke-linecap="round"
     stroke-linejoin="round"
     stroke-dasharray="none"
     fill="#1e90ff"
     fill-opacity="1"
     fill-rule="evenodd"
     d="m 780,740.99998 -4,11 v 13 l -10,13 -15,4 -2,-7 -3,1 -8,18 -5,5 -3,-1 -2,2 -28,4 -6,-12 2,-5 -4,-6 -5,-4 v -6 l -3,-2 -6,1 -1,3 h -4 l -2,-2 -4,2 -6,-19 2,-1 v -4 l -3,-3 -1,-4 -6,-3 -4,-8 -7,20 -2,4 -4,3 h -2 l -1,-3 2,-10 -3,-3 v -3 h -2 v 3 l -9,-4 v -2 l -5,-4 -12,1 -1,-3 -3,-1 -13,7 v 5 l 2,7 2,2 -3,-1 -3,4 1,7 10,2 -2,5 1,3 -45,-11 -3,2 -2,-1 1,-3 -2,-6 h 3 l 2,-2 -7,-4 1,-4 -3,-6 -4,-2 4,-3 -7,-1 -2,-3 -3,1 v -3 l 2,-3 4,-1 v -5 l 2,-1 -1,-9 2,-2 5,-1 v 4 l 3,-2 -2,-11 1,-1 -5,-3 h -3 l 1,-2 -7,-8 v -14 l 3,-3 -4,-2 -1,-3 2,-3 -3,-7 1,-7 7,-7 5,-15 3,1 6,6 15,7 h 4 l 3,3 3,-1 v -7 l 9,-9 3,1 4,-2 6,3 3,-2 1,-4 5,-3 4,1 5,-6 17,-12 v -4 l 3,-7 17,-11 3,3 -3,4 4,5 -3,2 1,7 -1,2 h -3 l 1,4 -3,4 -1,8 3,1 2,3 5,1 12,9 6,1 -2,3 v 4 l 10,5 -6,19 h 6 l 2,4 3,1 2,-2 2,2 v 3 l -5,2 6,4 h 3 l 4,-5 1,2 5,-1 4,-4 2,2 2,-3 4,1 2,3 -2,1 3,1 v 3 l 8,2 1,3 3,2 -7,4 v 2 l -4,4 -2,-1 -1,2 v 7 l 3,2 h 4 l 3,2 9,-1 v 3 l 3,-2 1,1 4,-14 6,-1 7,5 -4,3 5,11 h 3 l 1,-3 h 4 l 6,1 3,4 -1,6 3,1 -1,5 2,2 -2,4 v 6 h 3 v 4 z"
     id="马鞍山市" />
  <path
     stroke="#ffff00"
     stroke-opacity="1"
     stroke-width="0.5"
     stroke-linecap="round"
     stroke-linejoin="round"
     stroke-dasharray="none"
     fill="#1e90ff"
     fill-opacity="1"
     fill-rule="evenodd"
     d="m 138,42.99998 4,4 v 2 h 7 v 7 l 7,2 v 4 l 5,4 -1,3 h 2 l 2,5 v 4 l -2,1 -1,4 6,7 v 4 l 8,1 2,5 h 2 v 3 h -3 l 2,6 -4,1 -2,4 v 7 l 3,2 1,3 -1,10 3,4 5,1 7,-5 8,-1 h 3 l 1,2 15,1 6,8 h 6 l 6,5 9,3 -2,6 v 15 l -2,2 v 9 l 4,5 h 4 l 8,7 5,-2 2,-4 h 7 l 5,-2 1,-6 -2,-1 -2,-5 h 3 l 5,-10 4,1 v -2 l 4,-3 -3,-3 2,-4 v -5 l -3,-7 h -5 l -3,-3 v -3 l -6,-2 4,-4 -4,-5 3,-10 3,-1 2,-11 h -5 l -4,2 -7,-5 -4,-11 3,-4 1,-12 8,2 3,-2 3,1 v -9 l 3,-1 -2,-11 1,-2 h 4 l -2,-3 v -5 l 2,-5 2,-28 1,-4 6,-2 3,-5 -2,-3 2,-4 -2,-8 -8,-1 5,-9 v -4 l -3,-6 -5,-1 v -7 l 4,-3 3,-5 -12,-1 v -3 l -7,-2 -3,5 -4,3 -6,-3 -1,4 -5,3 -3,-4 1,-4 -3,3 1,2 -2,11 v 12 l -2,-3 -13,-4 -3,2 -1,-2 -5,1 -2,2 -3,-3 -3,2 -8,-3 h -11 v 7 l 6,4 1,3 4,1 1,4 -3,3 1,18 -4,1 -8,-5 -8,-1 -2,2 v 6 h -3 l -2,3 -1,-3 -3,1 -1,3 h -9 l -3,3 h -3 l -2,4 h -4 v 14 l -2,2 h -3 l -3,-3 z m 165,-119 -2,-1 1,-5 5,-6 1,-5 -2,-1 1,-6 -2,-2 -2,2 1,3 -4,6 -3,-2 v -4 l -4,3 -1,6 1,-1 -4,4 1,7 3,1 -4,4 1,-3 -2,-1 -1,4 3,6 5,-2 1,-3 2,1 3,-4 2,2 z"
     id="淮北市" />
  <path
     stroke="#ffff00"
     stroke-opacity="1"
     stroke-width="0.5"
     stroke-linecap="round"
     stroke-linejoin="round"
     stroke-dasharray="none"
     fill="#1e90ff"
     fill-opacity="1"
     fill-rule="evenodd"
     d="m 335,869.99998 -3,5 v 5 l -2,3 1,4 -2,2 -6,-2 -4,1 v 7 l -4,8 7,40 -1,18 6,8 13,12 3,-2 1,3 2,-1 1,3 h 10 l -5,1 -3,3 -2,7 3,7.00002 24,-14.00002 15,-5 h 7 l 7,4 13,1 6,-6 3,-9 18,-9 24,-7 8,-8 -1,5 h 6 l 6,-5 3,5 -2,4 3,3 v 2 l 6,-1 v 5 h 4 l 1,-3 10,-5 1,-4 7,-6 11,-3 5,-5 5,5 10,-11 5,-2 3,5 h 5 l 1,-3 -2,-1 5,-4 5,1 15,-10 h 5 l 2,-2 -3,-7 2,-10 -4,-2 h -10 l -9,-12 -10,-2 -1,-4 -3,-1 -1,-3 3,-6 -4,-4 -9,-2 -10,5 -9,-3 -2,-2 -5,-15 -5,-2 -12,3 -6,6 -4,5 -9,25 h -3 l -1,-2 -2,2 h -3 l 1,3 -4,5 -1,5 h -4 l -1,8 -3,-3 v -2 l -6,-4 -9,-2 -2,2 -4,1 -2,-2 -3,2 -4,-2 1,-5 -8,-4 -3,3 -9,2 -3,2 -2,4 -7,-3 -7,4 -1,4 h -3 v -4 l -6,-8 -6,1 -5,-4 -2,5 h -5 l -12,-11 -1,-5 -4,-6 -5,-3 -4,-6 z M 371,1045 l -6,7 -5,3 3,4 -4,6 h 5 l 3,2 5,-3 -2,-5 9,-9 -2,-7 h -3 z m -87,-42 5,-5.00002 -3,-4 -4,1 -4,-2 -3,2 -1,3 4,4.00002 z"
     id="铜陵市" />
  <path
     stroke="#ffff00"
     stroke-opacity="1"
     stroke-width="0.5"
     stroke-linecap="round"
     stroke-linejoin="round"
     stroke-dasharray="none"
     fill="#1e90ff"
     fill-opacity="1"
     fill-rule="evenodd"
     d="m 270,1084 1,7 5,13 v 5 l -2,4 -14,14 -1,10 -5,10 -18,21 -6,5 -7,1 -14,-7 -15,2 -6,7 -4,10 -3,27 -4,6 -5,2 h -14 l -7,5 -26,13 -7,8 -14,8 h -2 l -6,-10 -5,-4 -19,3 v -17 l -2,-7 -13,-17 -1,-4 2,-3 -1,-9 4,-8 -3,-6 2,-16 -1,-4 -3,-2 -3,-6 -1,-5 2,-11 -5,-5 -4,-1 -1,-4 -8,-5 -4,-12 -6,-3 h -5 l -4,2 -5,-5 3,-2 1,-3 -6,-7 -3,-7 7,-6 3,-5 h 4 l 2,-2 -6,-2 -2,-4 -5,-3 2,-5 -1,-3 5,-10 -5,-7 -3,-1 -1,-6 -2,-2 1,-3 -8,-7 -5,-2 -1,4 -1,-1 -3,-5 v -8.00002 l -3,-3 v -2 l -6,-3 v -3 l -3,-2 5,-20 3,-2 h 4 l 3,2 8,-2 1,-3 3,-2 1,-2 -3,-1 2,-4 -1,-5 -4,-4 v -4 l 5,-7 12,-7 h 5 l 1,-4 9,-6 1,-3 12,-7 3,1 1,-2 h 9 l -4,-16 -3,-1 1,-10 4,-7 7,-3 v -3 l 3,-1 4,2 12,-3 4,4 v 6 l 5,2 5,-1 10,-6 2,-6 7,-4 4,-8 8,-3 1,-4 4,-3 5,3 9,1 6,10 6,1 2,-3 7,-4 1,2 h 2 l 3,-6 6,-6 h 2 l 2,10 -1,7 2,4 -8,16 v 11 h 3 l 7,-9 5,1 6,-6 v -2 h 2 l 8,7 3,-2 12,4 3,-4 4,-2 4,1 6,-3 3,2 11,-11 3,-1 1,-6 4,-2 4,1 5,-2 6,-5 1,-3 h 5 l 1,-6 9,-19 6,-7 h 3 l 10,10 4,-1 13,27 -1,19 10,4 -3,5 v 5 l -2,3 1,4 -2,2 -6,-2 -4,1 v 7 l -4,8 7,40 -1,18 6,8 13,12 3,-2 1,3 2,-1 1,3 h 10 l -5,1 -3,3 -2,7 4,10.00002 7,10 2,7 -5,18 -5,8 -6,3 -7,-2 -8,-5 -6,-1 -26,1 -9,10 -6,4 -4,1 -5,4 -4,-3 -2,2 v 15 z m 13,-90.00002 -1,1 -4,-2 -3,2 -1,3 4,4.00002 6,1 5,-5.00002 -3,-4 z"
     id="安庆市" />
  <path
     stroke="#ffff00"
     stroke-opacity="1"
     stroke-width="0.5"
     stroke-linecap="round"
     stroke-linejoin="round"
     stroke-dasharray="none"
     fill="#1e90ff"
     fill-opacity="1"
     fill-rule="evenodd"
     d="m 776,1160 -5,-3 -8,3 -8,7 -9,-1 -3,-3 -3,6 -8,4 -3,9 -15,3 -4,5 v 6 l -2,3 -8,2 -3,5 -4,1 -7,-9 1,-6 -4,-1 -1,2 -2,-5 v -3 l 4,-4 v -2 l -5,-10 -6,-3 -5,-6 -12,1 -2,-2 -3,2 h -4 l -4,-4 1,-3 -3,-4 -2,-9 -7,-8 -5,-2 -1,-10 -5,-3 v -5 l 1,-3 5,-4 h 4 l 4,-3 h -3 l -4,-3 3,-2 1,-3 -3,-6 2,-3 -3,-2 1,-4 -5,-1 v -2 l -6,1 -2,-5 -7,-6 -2,-7 4,-1 1,-2 -5,-4 v -2 l -7,1 v -3 l -5,6 4,2 h -5 l -1,4 h -4 l -5,3 -4,-2 -1,-10 4,-9 3,-1 -4,-4 -7,-2 -14,6 h -13 l -4,-4 -4,6 -4,20 4,6 v 3 l -4,5 -5,3 3,3 3,7 -4,1 2,1 -1,2 -6,3 2,3 -3,2 h -4 v 7 l -11,3 -5,5 1,5 8,3 -2,7 -5,3 h -3 l -6,6 -5,2 h -9 l -11,4 -5,3 1,2 -3,1 1,4 -8,-2 -1,3 -3,2 -4,-4 -1,-6 -13,8 3,1 -1,4 -2,1 -5,-8 -3,4 1,4 3,-1 -2,3 1,8 -13,5 -8,-1 -3,4 -4,1 -5,-3 h -5 l -2,6 -9,1 -7,3 -30,7 v 14 l 10,3 2,2 2,9 -3,10 2,4 9,3 1,-4 11,-4 4,11 5,-2 2,-7 9,-2 2,4 -4,10 6,12 6,4 -1,16 6,8 5,2 6,-1 3,3 -2,7 5,12 1,-1 11,2 10,-6 9,-2 2,5 h 2 l 3,12 5,2 11,-3 5,1 9,-5 h 4 l 2,3 12,5 12,-3 4,2 4,-5 3,-1 5,2 5,-5 10,4 2,7 8,3 h 6 l 1,3 7,4 2,3 v 3 l -4,5 3,5 v 5 l -3,1 2,5 10,4 3,-1 2,3 h 3 l 3,-7 8,-3 7,2 3,-1 1,2 6,-1 -2,-16 1,-5 4,-1 6,7 8,-8 1,-3 12,2 5,-2 2,2 10,-4 -1,-10 2,-7 9,-4 10,-14 12,-5 3,1 2,3 2,-1 7,-8 6,-11 h 5 l 7,-9 1,-7 -3,-8 2,-9 4,1 1,-2 -4,-3 2,-4 2,-1 4,2 16,-14 1,-8 -2,-5 2,-2 4,1 3,-3 5,3 v -7 l 2,-6 -3,-9 3,-5 -3,-4 2,-3 -6,-6 v -7 z"
     id="黄山市" />
  <path
     stroke="#ffff00"
     stroke-opacity="1"
     stroke-width="0.5"
     stroke-linecap="round"
     stroke-linejoin="round"
     stroke-dasharray="none"
     fill="#1e90ff"
     fill-opacity="1"
     fill-rule="evenodd"
     d="m 540,617.99998 3,1 6,6 15,7 h 4 l 3,3 3,-1 v -7 l 9,-9 3,1 4,-2 6,3 3,-2 1,-4 5,-3 4,1 5,-6 17,-12 v -4 l 3,-7 17,-11 3,-5 5,-4 h 5 l 7,-4 3,-4 7,-2 -2,-4 2,-3 2,2 -3,-13 2,-1 1,-4 4,2 2,-2 2,1 3,-2 h 12 l 12,-3 6,-8 2,-6 -4,-3 3,-6 -3,-6 5,-4 h 4 l -3,-2 1,-2 h 4 l 1,-2 -2,-4 h -2 l 3,-2 -2,-3 1,-5 -2,1 -3,-4 2,-4 1,-18 -1,-3 -3,1 -7,-2 -1,2 -4,1 -9,-3 v -7 h 4 l 2,-3 -3,-4 1,-4 -12,-8 2,-7 3,-3 4,-2 1,2 6,1 2,4 5,-4 4,-1 6,2 -1,-5 2,5 1,-5 7,-1 v 4 l 4,2 1,-3 3,-1 5,1 -1,3 3,2 h 4 l 6,-6 -1,5 2,4 5,1 16,-7 v 2 l -3,3 v 5 l -2,1 7,2 v -2 h 5 l 11,16 h 5 l 2,-3 4,-1 5,1 1,5 5,5 2,8 3,1 13,-12 h 4 l -2,-3 7,-11 -1,-3 -3,-2 v -3 l 6,-2 v -7 l 3,-2 1,6 4,2 3,-1 v -5 l 3,-4 -3,-1 v -6 l -3,-4 v -30 l -2,-3 -4,-23 -18,1 -3,-2 -8,-11 -4,-3 -3,-6 v -6 l -7,2 -1,-2 2,-4 h 2 l -2,-9 -7,-1 -9,4 -10,2 -4,-2 -3,1 -1,-3 2,-2 -3,-1 -9,2 v 3 l -2,1 2,5 -3,1 -1,3 -4,-2 -2,1 v 19 l -5,2 -11,-3 -2,1 1,16 -2,3 v 6 l 5,11 -13,5 -13,-5 -4,-3 -2,2 h -4 l -3,4 -8,2 -4,-3 -20,3 -6,-2 -2,-5 -7,8 -12,-1 -2,-1 -1,-4 2,-2 -2,-8 -4,-1 -6,3 -1,-5 h -4 l -2,-2 -1,-4 3,-4 -2,-6 1,-5 -3,1 -2,-4 h -5 l -3,3 -5,-21 1,-3 3,-3 12,-4 4,-3 -2,-3 h -9 l -4,-4 -2,-5 -1,-15 -2,-4 -5,-1 v -3 l 4,1 -1,-4 -6,-2 h 5 v -5 h -3 v -2 l 3,-1 v -21 l -2,-5 -9,-6 -6,7 1,5 -3,3 -15,6 -5,3 v 2 h -5 v 3 l 6,-3 -2,11 2,5 -3,2 -8,1 -7,5 v 8 l 4,-1 4,2 -1,4 -5,4 -7,-3 -4,3 -5,-4 -9,8 -4,-1 -5,-4 5,-5 -3,-8 -17,6 -5,-1 -4,-5 h -3 l -3,2 -4,9 -3,3 -4,-2 -3,1 -8,18 -1,8 -4,3 -8,-5 -6,1 -19,-18 v 13 l -5,2 -3,11 3,3 1,4 -6,3 -5,8 -10,-1 -3,-2 -2,5 -13,-3 -3,4 h -10 l -1,3 h -6 l -1,3 -4,2 -3,-1 -10,16 -3,2 -2,4 2,2 -4,3 -1,6 -6,3 9,24 1,9 4,6 -4,8 3,5 -1,14 3,3 h 7 l 9,6 7,-3 5,3 10,-4 7,-7 4,3 -7,11 -1,10 -5,4 3,1 6,-2 3,4 9,3 1,7 -5,3 -3,4 -5,11 8,8 1,5 2,2 h 3 l 13,10 14,-4 6,-5 7,-2 3,-4 2,1 2,-3 v 3 l 6,-4 h 5 v 3 l 9,2 1,3 7,-4 11,5 2,4 8,-4 3,3 4,1 4,7 2,17 -4,5 -1,5 h 4 v 3 l -3,1 3,2 v 3 l 4,4 -5,5 -6,2 -2,2 v 6 l -6,4 5,2 2,5 2,1 v 4 l 5,2 1,8 h 8 l 8,3 z"
     id="滁州市" />
  <path
     stroke="#ffff00"
     stroke-opacity="1"
     stroke-width="0.5"
     stroke-linecap="round"
     stroke-linejoin="round"
     stroke-dasharray="none"
     fill="#1e90ff"
     fill-opacity="1"
     fill-rule="evenodd"
     d="m -89,446.99998 -3,-8 -6,-8 -9,-4 1,-3 h -2 l -1,-3 -6,1 1,-8 -28,7 -2,-2 1,-3 h 3 l -3,-1 v -5 l -1,3 -2,-3 -6,3 -3,-2 2,-2 -2,-1 -3,1 -3,4 -2,-1 2,-2 -8,-1 -2,-3 5,-3 -3,-2 -1,-7 2,-1 2,3 -1,-4 3,-3 -4,1 v -6 l -2,-3 -2,2 2,2 -3,1 -1,-5 2,-27 -1,-5 7,1 -1,-4 -3,-1 -1,-3 1,-5 -2,-4 4,-1 -1,-3 -10,-3 -1,-4 -4,-3 v -3 l -6,-1 -5,2 -3,-3 -15,-1 v -2 l 2,-1 v -5 l -15,-3 -7,2 -9,-11 h -6 l -2,-4 v -3 l 4,-2 -2,-6 8,1 3,-3 -3,-3 -2,-14 -5,-1 v -4 l 3,-6 -1,-4 2,-2 h 4 l 1,-5 9,2 1,4 6,4 -1,6 6,1 7,4 3,-2 1,3 25,-1 4,-1 1,-6 6,-4 4,2 3,-4 h 4 l 2,-3 h 6 l 5,2 1,-4 2,1 v -7 l -2,-4 1,-8 8,-3 -3,-2 v -2 l 4,-3 v -5 l 2,-3 -1,-11 h 6 l 2,-12 -5,-1 v -6 l -2,-1 1,-3 h -7 l -1,-2 4,-7 -3,-5 v -10 h 2 v -3 l 3,4 3,-1 v -17 l 5,-6 8,7 2,-5 -1,-2 5,-10 11,-3 3,3 7,-3 2,4 5,-3 h 8 l 1,-4 19,-3 3,13 8,12 4,-2 h 6 l 8,3 v 2 l 5,1 7,7 9,5 h 4 l 13,16 v 13 l 6,11 -1,3 3,4 -4,1 -2,13 5,8 -2,4 -11,-10 -9,-5 -2,2 -1,8 4,12 -1,4 -4,5 v 4 l 2,-2 5,1 v 5 l -3,1 1,3 8,1 -2,8 h 8 l 13,4 18,8 -2,4 8,-2 2,2 v 7 l 2,1 1,4 -2,3 18,6 h 8 l 3,2 v 8 l 6,9 2,6 9,1 3,2 1,3 8,4 3,1 4,-3 11,-3 6,-7 4,1 2,2 -2,7 1,3 h 8 l 6,4 -2,7 3,2 -2,2 2,6 -2,12 1,5 2,1 v 5 l -3,2 1,3 4,5 h 10 l 2,6 5,1 2,9 2,2 -1,6 4,1 v 4 l 12,-1 5,2 2,2 2,7 -6,3 h -12 l -11,10 v 7 l -4,8 -4,-1 -2,8 -12,-4 -9,3 -12,-7 -6,-14 -3,-3 h -13 l -2,8 -4,3 1,6 -2,3 -2,-3 -3,2 -3,-2 -2,5 -4,-2 -3,9 -3,-4 h -5 l -1,-7 -5,-3 -8,-21 -9,-2 -5,-3 -4,-11 -14,-4 -10,12 -4,-3 H 9 l -8,12 -4,2 -1,9 h -4 l -9,10 h -2 l 1,-5 -4,-6 -3,7 -4,2 -11,-6 -2,2 2,5 -6,2 1,8 -2,2 -1,7 h -3 v -6 l -8,7 -6,-6 -10,7 -3,-1 4,-3 v -2 l -5,-1 -3,-4 -4,-1 1,-2 -3,-1 z"
     id="阜阳市" />
  <path
     stroke="#ffff00"
     stroke-opacity="1"
     stroke-width="0.5"
     stroke-linecap="round"
     stroke-linejoin="round"
     stroke-dasharray="none"
     fill="#1e90ff"
     fill-opacity="1"
     fill-rule="evenodd"
     d="m 193,-31.00002 h 11 l 8,3 3,-2 3,3 2,-2 5,-1 1,2 3,-2 10,2 5,5 v -12 l 2,-11 -1,-2 3,-3 -1,4 3,4 5,-3 1,-4 6,3 4,-3 3,-5 7,2 v 3 l 12,1 -3,5 -4,3 v 7 l 5,1 3,6 v 4 l -5,9 8,1 2,8 -2,4 2,3 -3,5 -6,2 -1,4 -2,28 -2,5 v 5 l 2,3 h -4 l -1,2 2,11 -3,1 v 9 l -3,-1 -3,2 -8,-2 v 8 l -4,8 4,11 7,5 4,-2 h 5 l -2,11 -3,1 -3,10 4,5 -4,3 6,3 v 3 l 3,3 h 5 l 2,3 1,9 -2,4 3,3 -4,3 v 2 l -4,-1 -5,10 h -3 l 2,5 2,1 -1,6 13,9 10,-1 3,-5 18,4 1,-7 -2,-3 -7,-2 v -3 h 3 l 1,-4 h 4 v -3 l -8,-6 -3,1 2,-6 6,-5 3,3 h 4 l -1,1 5,4 5,-9 -5,-4 1,-3 3,-3 3,1 2,-6 11,11 1,-9 6,-6 3,-9 17,3 3,5 12,1 6,5 3,10 6,7 2,7 11,9 14,3 3,3 6,-1 6,3 9,-7 5,4 7,1 2,6 3,1 1,5 9,2 3,3 9,-3 5,2 4,-2 v -4 h 10 l 3,-9 9,-1 1,-3 3,-2 1,5 h 15 l 2,-2 -3,-3 1,-1 9,-1 6,-6 -1,-6 -3,-5 2,-4 1,-12 6,-10 15,5 v -14 l -2,-3 h 2 l 2,-20 -1,-7 14,-14 v -16 l -4,-2 2,-4 5,-1 2,-2 -6,-2 -4,1 -5,-2 -3,-4 h -13 l -5,5 -5,1 1,2 -3,1 v -3 l -12,-1 -2,-4 -3,4 -1,5 -3,1 -10,-2 1,5 -11,-4 -9,-1 -9,1 -3,4 h -3 l -4,3 -7,-9 v -3 l 3,-1 2,-3 2,-15 v -16 l 2,-7 -1,-2 h -4 l -6,4 -3,-3 -8,-14 v -6 l -3,-5 2,-5 -1,-4 -9,-9 -4,-2 -1,1 2,4 -2,6 h -4 l -5,5 -2,-1 -3,-7 -3,-2 v -6 l -2,-3 -8,-6 -2,3 -16,8 h -5 l -3,-1 -4,-8 -5,-1 2,-4 -5,-5 -4,2 -6,-1 -2,5 -9,-3 -5,4 -9,1 -3,-4 -1,2 h -4 l -10,-5 1,-4 -7,-1 v -5 l -2,-3 -4,-1 -4,-5 h -5 l -4,-3 -2,1 -3,-5 -1,4 -2,-2 -3,4 -2,-1 -1,3 -5,2 -3,-6 1,-4 2,1 -1,3 4,-4 -3,-1 -1,-7 4,-4 -1,1 1,-6 4,-3 v 4 l 3,2 4,-6 -1,-3 h -3 l -1,-4 h -3 l -9,-9 2,-8 -2,-4 3,-9 -5,-4 2,-8 -16,-6 -11,5 -10,1 -11,-12 v -3 l -6,-8 -10,-3 h -15 l -10,-5 h -13 l -1,-1 2,-2 4,2 v -6 h -2 l -10,-10 h -7 l 2,-3 -5,-1 -4,-4 v -6 l -4,-5 v -3 l -8,-2 -3,-3 -1,-6 -15,3 v 2 l -6,4 h -4 l -2,6 -10,-2 -7,13 h -2 l -1,5 -4,-1 -4,-7 h -5 l -2,13 4,5 v 3 l -4,4 h -3 v 4 l -4,7 4,9 10,9 -2,4 1,3 7,2 4,-1 4,2 1,3 3,1 4,5 14,7 4,8 -2,6 2,3 1,-2 8,-2 2,3 5,-1 -1,-2 4,-3 3,6 8,-7 6,-2 15,4 3,3 v 3 l -7,7 -3,1 1,14 5,8 -5,2 -3,4 v 7 l -2,1 4,4 -1,2 5,2 2,7 4,3 -1,1 4,7 z"
     id="宿州市" />
  <path
     stroke="#ffff00"
     stroke-opacity="1"
     stroke-width="0.5"
     stroke-linecap="round"
     stroke-linejoin="round"
     stroke-dasharray="none"
     fill="#1e90ff"
     fill-opacity="1"
     fill-rule="evenodd"
     d="m 236,615.99998 -6,-2 -7,1 -9,4 -2,-4 v -18 l -17,-8 -7,-5 -10,-3 1,-4 -2,-8 2,-3 -5,-6 -2,-6 2,-5 -1,-6 -3,-3 -2,-7 2,-5 -4,-4 4,-2 3,-6 -2,-6 2,-3 -5,-22 -6,-5 -1,-5 3,-6 -3,-3 1,-10 -12,-4 -9,3 -12,-7 -6,-14 -3,-3 h -13 l -2,8 -4,3 1,6 -2,3 -2,-3 -3,2 -3,-2 -2,5 -4,-2 -3,9 -3,-4 h -5 l -1,-7 -5,-3 -8,-21 -9,-2 -5,-3 -4,-11 -14,-4 -10,12 h -5 l -8,7 -2,5 -6,5 -1,3 7,-1 3,5 v 5 l -3,1 -2,3 5,1 -1,7 3,2 2,11 v 14 l 2,1 v 9 l -2,3 6,8 -2,6 v 8 l 3,12 4,7 v 6 l -4,13 4,8 v 4 l -5,4 2,4 -3,3 3,1 -1,5 2,2 -6,13 v 5 l 2,2 1,5 -7,16 v 10 l 5,4 -1,8 -6,5 -7,1 -2,-4 -4,4 -1,-1 -4,5 -7,-6 -6,-2 -8,3 -1,4 -5,-2 -4,1 -2,-3 h -3 l -24,19 -5,2 -3,4 -5,-1 -10,8 -5,9 4,5 -1,4 -12,7 v 3 l -3,5 v 5 l -3,6 -10,7 -2,3 5,13 -4,13 5,5 -5,6 2,4 -3,2 7,2 2,2 4,-4 5,1 2,9 h 3 v 11 l 2,1 1,4 h 12 l 6,10 v 12 l 5,9 6,5 3,-2 2,-7 7,-3 1,-5 3,-3 14,3 14,18 2,7 2,1 h 3 l 4,-4 4,-1 7,1 4,-5 3,-1 3,2 2,4 v 6 l 4,6 2,-1 8,6 -1,7 2,2 4,-2 12,4 2,7 8,-1 1,-10 4,-7 7,-3 v -3 l 3,-1 4,2 12,-3 4,4 v 6 l 5,2 5,-1 10,-6 2,-6 7,-4 4,-8 8,-3 1,-4 4,-3 5,3 9,1 6,10 6,1 2,-3 7,-4 1,2 h 2 l 3,-6 6,-6 h 2 l 2,10 -1,7 2,4 -8,16 v 11 h 3 l 7,-9 5,1 6,-6 v -2 h 2 l 8,7 3,-2 12,4 3,-4 4,-2 4,1 6,-3 3,2 11,-11 3,-1 1,-6 4,-2 4,1 5,-2 6,-5 1,-3 h 5 l 5,-16 11,-16 h 3 l 4,3 3,-3 v -5 l 5,-2 2,-3 v -6 l 3,-8 -2,-8 10,-20 9,-13 9,-3 14,1 3,-2 v -2 l -6,-13 -2,2 -5,-4 -12,2 -2,-3 -3,1 v 3 l -2,-1 -4,2 -11,-4 -7,4 -9,-3 -1,-3 h -3 l -1,8 -3,-2 -6,2 -4,-2 -9,3 -6,-1 -12,4 -10,-7 -6,-9 -1,-14 -3,-5 1,-7 3,-4 -4,-17 2,-6 -1,-4 -7,-1 v -6 l -3,1 -7,-12 3,-4 10,-7 -4,-1 -3,-6 13,-7 z"
     id="六安市" />
  <path
     stroke="#ffff00"
     stroke-opacity="1"
     stroke-width="0.5"
     stroke-linecap="round"
     stroke-linejoin="round"
     stroke-dasharray="none"
     fill="#1e90ff"
     fill-opacity="1"
     fill-rule="evenodd"
     d="m 138,42.99998 -8,2 -3,-1 -5,2 v 2 l -3,-2 -3,5 -6,2 -5,6 -5,1 -4,-2 -1,4 -5,-2 -8,6 -5,-1 -6,-13 -6,-2 -2,-7 h -7 v -4 l -5,-3 2,-3 -4,-3 4,-1 1,-6 -2,-1 -4,-8 -2,1 v -2 l -5,-2 -1,-4 -6,-1 -1,-5 4,-14 -4,-8 -7,-6 -14,-1 -4,-7 -2,1 -1,9 -6,-1 -2,-2 v -6 l -9,-10 h -4 l -3,-3 v 3 l -12,-4 -8,5 -1,-2 h -5 l -3,3 -4,-1 -2,4 1,3 -7,2 -2,-1 -4,3 2,3 -4,1 -2,7 2,1 -3,4 -1,7 -2,1 -2,10 2,2 -3,1 v 5 h -3 v 4 h 9 l 7,3 4,-3 3,3 v 8 l -2,1 v 4 l -3,1 2,3 -2,11 -8,-4 -5,3 v 2 l 10,17 -2,5 3,4 h -2 l 1,10 6,9 6,26 8,12 4,-2 h 6 l 8,3 v 2 l 5,1 7,7 9,5 h 4 l 13,16 v 13 l 6,11 -1,3 3,4 -4,1 -2,13 5,8 -2,4 -11,-10 -9,-5 -2,2 -1,8 4,12 -1,4 -4,5 v 4 l 2,-2 5,1 v 5 l -3,1 1,3 8,1 -2,8 h 8 l 13,4 18,8 -2,4 8,-2 2,2 v 7 l 2,1 1,4 -2,3 18,6 h 8 l 3,2 v 8 l 6,9 2,6 9,1 3,2 1,3 11,5 4,-3 11,-3 6,-7 6,3 v -6 l -8,-10 3,-8 v -8 l 2,-3 16,6 47,13 28,4 5,-23 3,-1 v 2 l 2,-1 v 2 l 6,1 1,-2 2,2 1,-6 -3,-6 -6,-2 -8,-6 v -5 l 4,-5 v -7 l -3,-5 1,-3 4,-4 1,1 4,-6 3,4 h 3 l 3,-17 v -6 l -7,-14 1,-8 -4,-5 v -9 l 2,-2 -1,-1 2,-9 -1,-5 2,-6 -9,-3 -6,-5 h -6 l -6,-8 -3,-1 -5,1 -11,-3 -8,1 -7,5 -5,-1 -3,-4 1,-10 -1,-3 -3,-2 v -7 l 2,-4 4,-1 -2,-6 h 3 v -3 h -2 l -2,-5 -8,-1 v -4 l -6,-7 1,-4 2,-1 -2,-9 h -2 l 1,-3 -5,-4 v -4 l -7,-2 v -7 h -7 v -2 z"
     id="亳州市" />
  <path
     stroke="#ffff00"
     stroke-opacity="1"
     stroke-width="0.5"
     stroke-linecap="round"
     stroke-linejoin="round"
     stroke-dasharray="none"
     fill="#1e90ff"
     fill-opacity="1"
     fill-rule="evenodd"
     d="m 211,1276 3,-7 4,-2 15,-18 5,3 8,-6 5,-9 8,-7 8,-16 2,-9 -3,-5 -5,-4 -9,3 v 4 l -2,-2 1,-13 -7,3 -5,-10 -4,-1 -1,-4 h -3 l -1,-3 6,-5 18,-21 5,-10 1,-10 14,-14 2,-4 v -5 l -9,-27 -1,-8 1,-7 2,-2 4,3 15,-9 9,-10 4,-1 28,1 8,5 7,2 6,-3 5,-8 5,-18 -2,-7 -8,-13 24,-14.00002 15,-5 h 7 l 7,4 13,1 6,-6 3,-9 18,-9 24,-7 8,-8 -1,5 h 6 l 6,-5 3,5 -2,4 3,3 v 2 l 6,-1 v 5 h 4 l 1,-3 10,-5 1,-4 7,-6 11,-3 5,-5 5,5 7,-8 2,5 -6,9 5,1 3,5 9,1 5,5 12,6 5,6 h 2 l 1,5 h 2 l -8,12 -1,6 -6,5.00002 -3,7 -5,1 -6,7 -7,1 -3,3 1,7 -9,14 -2,7 -2,13 4,6 v 3 l -4,5 -5,3 3,3 3,7 -4,1 2,1 -1,2 -6,3 2,3 -3,2 h -4 v 7 l -11,3 -5,5 1,5 8,3 -2,7 -5,3 h -3 l -6,6 -5,2 h -9 l -11,4 -5,3 1,2 -3,1 1,4 -8,-2 -1,3 -3,2 -4,-4 -1,-6 -13,8 3,1 -1,4 -2,1 -5,-8 -3,4 1,4 3,-1 -2,3 1,8 -8,4 h -13 l -3,4 -4,1 -5,-3 h -5 l -2,6 -9,1 -7,3 -30,7 v 14 l -8,1 -11,6 v 9 l -2,3 -4,2 -5,6 -5,1 5,7 10,4 1,7 -7,8 4,5 -2,5 -19,9 -11,-1 -7,8 -8,3 -17,11 -6,10 -3,2 h -15 l 2,-7 h -5 l -2,-2 -10,10 -1,-7 -8,-4 v -3 l -9,-7 v -3 l 7,-10 -2,-2 h -4 v -2 l 3,-2 z m 6,1 2,3 -1,-4 z m 2,3 v 3 l 3,-1 -1,-2 z m 152,-235 -6,7 -5,3 3,4 -4,6 h 5 l 3,2 5,-3 -2,-5 9,-9 -2,-7 h -3 z"
     id="池州市" />
  <path
     stroke="#ffff00"
     stroke-opacity="1"
     stroke-width="0.5"
     stroke-linecap="round"
     stroke-linejoin="round"
     stroke-dasharray="none"
     fill="#1e90ff"
     fill-opacity="1"
     fill-rule="evenodd"
     d="m 776,1160 v -3 l 4,-2 3,-9 h -11 l -2,-2 2,-3 15,-7 4,-4 -1,-3 -5,-2 -3,-7 -3,-1 2,-2 -3,-9 1,-9 19,-14 1,4 7,-1 v 5 l 5,1 6,5 h 5 l 1,2 h 3 l 2,-3 5,-2 10,6 h 5 l 13,4 1,-4 5,1 1,3 5,-10 -2,-1 2,-4 h 8 l 6,-7 7,-2 4,2 1,4 7,-1 7,-6 -2,-3 -7,-1 -1,-7 -4,1 1,-9 -4,-2 v -19 l -2,-8 -14,7 -3,-2 v -2 l -5,-2 -2,-5 8,-8 v -2 l -3,-2 v -3 l -4,-3 3,-4 2,2 h 8 l 6,-2 8,-13.00002 7,-5 2,1 3,-2 2,8 4,4 h 5 l 4,-3 1,-5 8,-10 -1,-21 3,-1 4,3 4,-2 8,-15 6,-1 -1,-8 -4,-5 v -8 l 2,-6 4,-3 v -12 l 14,-15 -1,-20 1,-3 4,-3 -7,-3 v -5 l -3,1 -3,6 h -5 l -5,-10 -10,-6 -2,2 -5,-3 -3,1 v 3 l -2,-2 h -4 l -6,-6 -4,-1 -2,2 h -6 v -4 l 4,-2 -3,-2 -4,4 -2,-3 -1,1 -2,-5 5,-18 h -2 l -1,-6 -3,-4 -2,11 -3,3 -1,-2 h -10 l -7,4 -1,-3 -6,2 -1,-2 -4,-1 -1,-3 -3,3 -2,-3 1,-6 -5,-2 -1,2 h -5 l -2,5 h -2 l -9,8 v 5 l -6,-2 -3,2 -15,-2 -7,3 -1,-2 -17,-2 -7,2 -10,-1 -7,3 -1,-2 -4,3 -6,-4 v -6 l -5,-5 -9,-1 -5,-5 -1,-2 4,3 1,-9 -5,5 -3,-1 -2,2 h -7 l 1,10 -3,8 4,2 1,4 4,3 3,8 6,4 4,8 -4,1 -7,6 -2,4 1,5 -3,2 2,4 -9,11 -5,5 h -6 l -1,-7 -2,-1 -3,7 -3,3 3,6 v 4 l -3,3 h -5 l -11,6 2,4 -5,-1 4,8 -6,4 1,5 -2,2 -3,-1 v 2 l 3,1 -2,4 2,-2 3,2 -2,5 -3,2 1,4 6,3 -1,3 -4,3 -1,8 -8,-4 1,-4 -2,-3 -4,2 -3,-6 h 3 l 1,-3 -3,-5 -4,-2 -13,1 -2,6 -3,-1 -5,2 -3,4 2,4 -2,-2 -1,2 1,6 -2,1 -1,4 -5,4 v 3 l 10,9 -2,2 -10,-5 -6,3 -7,-1 -12,5 -9,12 -9,3 -6,5.00002 -3,7 -5,1 -6,7 -7,1 -3,3 1,7 -5,8 4,4 h 13 l 14,-6 7,2 4,4 -3,1 -4,9 1,10 4,2 2,-2 7,-1 1,-4 h 5 l -4,-2 5,-6 v 3 l 7,-1 v 2 l 5,4 -1,2 -4,1 2,7 7,6 2,5 6,-1 v 2 l 5,1 -1,4 3,2 -2,3 3,6 -1,3 -3,2 4,3 h 3 l -4,3 h -4 l -5,4 -1,3 v 5 l 5,3 1,10 5,2 7,8 2,9 3,4 -1,3 4,4 h 4 l 3,-2 2,2 12,-1 5,6 6,3 5,10 v 2 l -4,4 v 3 l 2,5 1,-2 4,1 -1,6 7,9 4,-1 3,-5 8,-2 2,-3 v -6 l 4,-5 15,-3 3,-9 8,-4 3,-6 3,3 9,1 8,-7 8,-3 z"
     id="宣城市" />
</svg>