<svg xmlns="http://www.w3.org/2000/svg" id="svg1" version="1.1" viewBox="-251 -228 1228.9999 1598">
  <path id="合肥市" fill="#ff6347" fill-opacity="1" fill-rule="evenodd" stroke="#ffffff" stroke-dasharray="none" stroke-linecap="round" stroke-linejoin="round" stroke-opacity="1" stroke-width="0.5" d="m303 814 6 7 4-1 13 27-1 19 10 4 5-5 4 6 5 3 4 6 1 5 12 11h5l2-5 5 4 6-1 6 8v4h3l1-4 7-4 7 3 2-4 3-2 9-2 3-3-3-8-3-1v-2l7-2 4-6v-8l-4-4 4-3 1-6 6-2 1-4-1-6-7-7 8-4 1-6 4-6-1-5 8-1 3-6 5-1 5-16 10-17 3-16 4-2 5 1 4-3 3 2 3-4 4-1h14l13-6h5l7 5 5-4-3-6-4-2 4-3-7-1-2-3-3 1v-3l2-3 4-1v-5l2-1-1-9 2-2 5-1v4l3-2-2-11 1-1-5-3h-3l1-2-7-8v-14l3-3-4-2-1-3 2-3-3-7 1-7 7-7 5-15-14-7h-8l-1-8-5-2v-4l-2-1-2-5-5-2 6-4v-6l8-4 5-5-4-4v-3l-3-2 3-1v-3h-4l1-5 4-5-2-17-4-7-4-1-3-3-8 4-2-4-11-5-7 4-1-3-9-2v-3h-5l-6 4v-3l-2 3-2-1-3 4-7 2-6 5-14 4-13-10h-3l-2-2-1-5-8-8 5-11 3-4 5-3-1-7-9-3-3-4-6 2-3-1 5-4 1-10 7-11-4-3-7 7-10 4-5-3-7 3-9-6h-7l-3-3 1-14-3-5-11-1-4 5h-7l-1-2-7-1-2 4v8l-2 3 1 4-6 9-2 7-8 3-1 6h9l1 12-2 1 2 3 2-1 1 3-5 10v4h8l1 5-3 9-3 3-9 1-3 3 1 3 5 3v5l-5 4h-6l-1 3 2 8 6 4 3 5 2 10 5 4-2 8-5 7-6 3v-4l-3-3-6 1-1-3-5-2-4 4 3 8-15 4-17 16h-5l-7 6-13 6 3 7 4 1-10 7-3 4 7 12 3-1v6l7 1 1 4-2 6 4 17-3 4-1 7 3 5v11l7 12 10 7 12-4 6 1 9-3 4 2 6-2 3 2 1-8h3l1 3 9 3 7-4 11 4 4-2 2 1v-3l3-1 2 3 9-2h3l5 4 2-2 6 15-3 2-14-1-9 3-9 13-10 20 2 8-3 8v6l-2 3-5 2v5z"/>
  <path id="芜湖市" fill="#ff6347" fill-opacity="1" fill-rule="evenodd" stroke="#ffffff" stroke-dasharray="none" stroke-linecap="round" stroke-linejoin="round" stroke-opacity="1" stroke-width="0.5" d="m721 800-10 3-11 1-6-12 2-5-4-6-5-4v-6l-3-2-6 1-1 3h-4l-2-2-4 2-6-19 2-1v-4l-3-3-1-4-6-3-4-8-7 20-2 4-4 3h-2l-1-3 2-10-3-3v-3h-2v3l-9-4v-2l-5-4-12 1-1-3-3-1-13 7v5l2 7 2 2-3-1-3 4 1 7 10 2-2 5 1 3-45-11-3 2-2-1 1-3-2-6h3l2-2-7-4 1-4-5 4-7-5h-5l-13 6h-14l-4 1-3 4-3-2-4 3-5-1-4 2-3 16-10 17-5 16-5 1-3 6-8 1 1 5-4 6-1 6-8 4 7 7 1 6-1 4-6 2-1 6-4 3 4 4v8l-4 6-7 2v2l3 1 3 8 8 4-1 5 4 2 3-2 2 2 4-1 2-2 9 2 6 4v2l3 3 1-8h4l1-5 4-5-1-3h3l2-2 1 2h3l9-25 10-11 12-3 5 2 5 15 8 5 9-2 4-3 9 2 4 4-3 6 1 3 3 1 1 4 10 2 9 12h10l4 2-2 10 3 7-2 2h-5l-15 10-5-1-5 4 2 1-1 3h-5l-3-5-5 2-3 3 2 5-6 9 5 1 3 5 9 1 5 5 12 6 5 6h2l1 5h2l-8 12-1 6 9-3 9-12 12-5 7 1 6-3 10 5 2-2-10-9v-3l5-4 1-4 2-1-1-6 1-2 2 2-2-4 3-4 5-2 3 1 2-6 13-1 4 2 3 5-1 3h-3l3 6 4-2 2 3-1 4 8 4 1-8 4-3 1-3-6-3-1-4 3-2 2-5-3-2-2 2 2-4-3-1v-2l3 1 2-2-1-5 6-4-4-8 5 1-2-4 11-6h5l3-3v-4l-3-6 3-3 3-7 2 1 1 7h6l5-5 9-11-2-4 3-2-1-5 2-4 7-6 4-1-4-8-6-4-3-8-4-3-1-4-4-2 3-8v-6z"/>
  <path id="蚌埠市" fill="#ff6347" fill-opacity="1" fill-rule="evenodd" stroke="#ffffff" stroke-dasharray="none" stroke-linecap="round" stroke-linejoin="round" stroke-opacity="1" stroke-width="0.5" d="m227 306 5 2 1 2 2-2 4 2 2 3 13 6-2 3 12 10h4v3l7 6-1 2h4l7 5 10 4 4 7 3-1v4l3 4 4 1-3 3 6-1 2 2 4-3-2-5 11-5 9 3v3h5l4 2 15-22 3 1 4-2 1-3h6l1-3h10l3-4 13 3 2-5 3 2 10 1 5-8 6-3-1-4-3-3 3-11 5-2v-13l19 18 6-1 8 5 4-3 1-8 8-18 3-1 4 2 3-3 4-9 3-2h3l4 5 5 1 17-6 3 8-5 5 5 4 4 1 9-8 5 4 4-3 7 3 5-4 1-4-4-2-4 1v-8l7-5 8-1 3-2-2-5 2-11-6 3v-3h5v-2l-8 2v-6l-3-1-7-7h-3l-2-7 3-1v-2l-4-4h-9l-1-3 3-5-3-3 8-5 4-6v-7l2-4-3-1-2 2h-15l-1-5-3 2-1 3-9 1-3 9-6-1-4 1v4l-4 2-5-2-9 3-3-3-9-2-1-5-3-1-2-6-7-1-5-4-9 7-6-3-6 1-3-3-14-3-11-9-2-7-6-7-3-10-6-5-12-1-3-5-17-3-3 9-6 6-1 9-11-11-2 6-3-1-3 3-1 3 5 4-5 9-5-4 1-1h-4l-3-3-6 5-2 6 3-1 8 6v3h-4l-1 4h-3v3l7 2 2 3-1 7-18-4-3 5-10 1-13-9-5 2h-7l-2 4-5 2-8-7h-4l-1 8 7 14-3 23h-3l-3-4-4 6-1-1-4 4-1 3 3 5v7l-4 5v5l1 2 13 6 3 6-1 6-2-2-1 2-6-1v-2l-2 1v-2l-3 1-4 17z"/>
  <path id="淮南市" fill="#ff6347" fill-opacity="1" fill-rule="evenodd" stroke="#ffffff" stroke-dasharray="none" stroke-linecap="round" stroke-linejoin="round" stroke-opacity="1" stroke-width="0.5" d="m236 616 5-3h5l17-16 15-4-3-8 4-4 5 2 1 3 6-1 3 3v4l6-3 5-7 2-8-5-4-2-10-3-5-6-4-2-8 1-3h6l5-4v-5l-5-3-1-3 3-3 9-1 3-3 3-9-1-5h-8v-4l5-10-1-3-2 1-2-3 2-1v-10l-1-2h-9l1-6 8-3 2-7 6-9-1-4 2-3v-8l2-4 7 1 1 2h7l4-5 11 1 3-4 1-4-4-6-1-9-9-22v-2l6-3 1-6 4-3-2-2-9-2v-3l-9-3-11 5 2 5-4 3-2-2-6 2 3-4-4-1-3-8-3 1-4-7-10-4-7-5h-4l1-2-7-6v-3h-4l-12-10 2-3-13-6-2-3-4-2-2 2-1-2-13-4-20-2-47-13-16-6-2 3v8l-3 7 8 11v8l-2 5 1 3h8l6 4-2 7 3 2-2 2 2 6-2 12 1 5 2 1v5l-3 2 1 3 4 5h10l2 6 5 1 2 9 2 2-1 6 4 1v4l12-1 5 2 2 2 2 7-6 3h-12l-11 10v7l-4 8-4-1-2 8-1 10 3 3-3 6 1 5 6 5 5 22-2 3 2 6-3 6-4 2 4 4-2 5 2 7 3 3 1 6-2 5 2 6 5 6-2 3 2 8-1 4 10 3 7 5 17 8v18l2 4 9-4 7-1z"/>
  <path id="马鞍山市" fill="#ff6347" fill-opacity="1" fill-rule="evenodd" stroke="#ffffff" stroke-dasharray="none" stroke-linecap="round" stroke-linejoin="round" stroke-opacity="1" stroke-width="0.5" d="m780 741-4 11v13l-10 13-15 4-2-7-3 1-8 18-5 5-3-1-2 2-28 4-6-12 2-5-4-6-5-4v-6l-3-2-6 1-1 3h-4l-2-2-4 2-6-19 2-1v-4l-3-3-1-4-6-3-4-8-7 20-2 4-4 3h-2l-1-3 2-10-3-3v-3h-2v3l-9-4v-2l-5-4-12 1-1-3-3-1-13 7v5l2 7 2 2-3-1-3 4 1 7 10 2-2 5 1 3-45-11-3 2-2-1 1-3-2-6h3l2-2-7-4 1-4-3-6-4-2 4-3-7-1-2-3-3 1v-3l2-3 4-1v-5l2-1-1-9 2-2 5-1v4l3-2-2-11 1-1-5-3h-3l1-2-7-8v-14l3-3-4-2-1-3 2-3-3-7 1-7 7-7 5-15 3 1 6 6 15 7h4l3 3 3-1v-7l9-9 3 1 4-2 6 3 3-2 1-4 5-3 4 1 5-6 17-12v-4l3-7 17-11 3 3-3 4 4 5-3 2 1 7-1 2h-3l1 4-3 4-1 8 3 1 2 3 5 1 12 9 6 1-2 3v4l10 5-6 19h6l2 4 3 1 2-2 2 2v3l-5 2 6 4h3l4-5 1 2 5-1 4-4 2 2 2-3 4 1 2 3-2 1 3 1v3l8 2 1 3 3 2-7 4v2l-4 4-2-1-1 2v7l3 2h4l3 2 9-1v3l3-2 1 1 4-14 6-1 7 5-4 3 5 11h3l1-3h4l6 1 3 4-1 6 3 1-1 5 2 2-2 4v6h3v4z"/>
  <path id="淮北市" fill="#ff6347" fill-opacity="1" fill-rule="evenodd" stroke="#ffffff" stroke-dasharray="none" stroke-linecap="round" stroke-linejoin="round" stroke-opacity="1" stroke-width="0.5" d="m138 43 4 4v2h7v7l7 2v4l5 4-1 3h2l2 5v4l-2 1-1 4 6 7v4l8 1 2 5h2v3h-3l2 6-4 1-2 4v7l3 2 1 3-1 10 3 4 5 1 7-5 8-1h3l1 2 15 1 6 8h6l6 5 9 3-2 6v15l-2 2v9l4 5h4l8 7 5-2 2-4h7l5-2 1-6-2-1-2-5h3l5-10 4 1v-2l4-3-3-3 2-4v-5l-3-7h-5l-3-3v-3l-6-2 4-4-4-5 3-10 3-1 2-11h-5l-4 2-7-5-4-11 3-4 1-12 8 2 3-2 3 1v-9l3-1-2-11 1-2h4l-2-3v-5l2-5 2-28 1-4 6-2 3-5-2-3 2-4-2-8-8-1 5-9v-4l-3-6-5-1v-7l4-3 3-5-12-1v-3l-7-2-3 5-4 3-6-3-1 4-5 3-3-4 1-4-3 3 1 2-2 11v12l-2-3-13-4-3 2-1-2-5 1-2 2-3-3-3 2-8-3h-11v7l6 4 1 3 4 1 1 4-3 3 1 18-4 1-8-5-8-1-2 2v6h-3l-2 3-1-3-3 1-1 3h-9l-3 3h-3l-2 4h-4v14l-2 2h-3l-3-3zM303-76l-2-1 1-5 5-6 1-5-2-1 1-6-2-2-2 2 1 3-4 6-3-2v-4l-4 3-1 6 1-1-4 4 1 7 3 1-4 4 1-3-2-1-1 4 3 6 5-2 1-3 2 1 3-4 2 2z"/>
  <path id="铜陵市" fill="#ff6347" fill-opacity="1" fill-rule="evenodd" stroke="#ffffff" stroke-dasharray="none" stroke-linecap="round" stroke-linejoin="round" stroke-opacity="1" stroke-width="0.5" d="m335 870-3 5v5l-2 3 1 4-2 2-6-2-4 1v7l-4 8 7 40-1 18 6 8 13 12 3-2 1 3 2-1 1 3h10l-5 1-3 3-2 7 3 7 24-14 15-5h7l7 4 13 1 6-6 3-9 18-9 24-7 8-8-1 5h6l6-5 3 5-2 4 3 3v2l6-1v5h4l1-3 10-5 1-4 7-6 11-3 5-5 5 5 10-11 5-2 3 5h5l1-3-2-1 5-4 5 1 15-10h5l2-2-3-7 2-10-4-2h-10l-9-12-10-2-1-4-3-1-1-3 3-6-4-4-9-2-10 5-9-3-2-2-5-15-5-2-12 3-6 6-4 5-9 25h-3l-1-2-2 2h-3l1 3-4 5-1 5h-4l-1 8-3-3v-2l-6-4-9-2-2 2-4 1-2-2-3 2-4-2 1-5-8-4-3 3-9 2-3 2-2 4-7-3-7 4-1 4h-3v-4l-6-8-6 1-5-4-2 5h-5l-12-11-1-5-4-6-5-3-4-6zm36 175-6 7-5 3 3 4-4 6h5l3 2 5-3-2-5 9-9-2-7h-3zm-87-42 5-5-3-4-4 1-4-2-3 2-1 3 4 4z"/>
  <path id="安庆市" fill="#ff6347" fill-opacity="1" fill-rule="evenodd" stroke="#ffffff" stroke-dasharray="none" stroke-linecap="round" stroke-linejoin="round" stroke-opacity="1" stroke-width="0.5" d="m270 1084 1 7 5 13v5l-2 4-14 14-1 10-5 10-18 21-6 5-7 1-14-7-15 2-6 7-4 10-3 27-4 6-5 2h-14l-7 5-26 13-7 8-14 8h-2l-6-10-5-4-19 3v-17l-2-7-13-17-1-4 2-3-1-9 4-8-3-6 2-16-1-4-3-2-3-6-1-5 2-11-5-5-4-1-1-4-8-5-4-12-6-3h-5l-4 2-5-5 3-2 1-3-6-7-3-7 7-6 3-5h4l2-2-6-2-2-4-5-3 2-5-1-3 5-10-5-7-3-1-1-6-2-2 1-3-8-7-5-2-1 4-1-1-3-5v-8l-3-3v-2l-6-3v-3l-3-2 5-20 3-2h4l3 2 8-2 1-3 3-2 1-2-3-1 2-4-1-5-4-4v-4l5-7 12-7h5l1-4 9-6 1-3 12-7 3 1 1-2h9l-4-16-3-1 1-10 4-7 7-3v-3l3-1 4 2 12-3 4 4v6l5 2 5-1 10-6 2-6 7-4 4-8 8-3 1-4 4-3 5 3 9 1 6 10 6 1 2-3 7-4 1 2h2l3-6 6-6h2l2 10-1 7 2 4-8 16v11h3l7-9 5 1 6-6v-2h2l8 7 3-2 12 4 3-4 4-2 4 1 6-3 3 2 11-11 3-1 1-6 4-2 4 1 5-2 6-5 1-3h5l1-6 9-19 6-7h3l10 10 4-1 13 27-1 19 10 4-3 5v5l-2 3 1 4-2 2-6-2-4 1v7l-4 8 7 40-1 18 6 8 13 12 3-2 1 3 2-1 1 3h10l-5 1-3 3-2 7 4 10 7 10 2 7-5 18-5 8-6 3-7-2-8-5-6-1-26 1-9 10-6 4-4 1-5 4-4-3-2 2v15zm13-90-1 1-4-2-3 2-1 3 4 4 6 1 5-5-3-4z"/>
  <path id="黄山市" fill="#ff6347" fill-opacity="1" fill-rule="evenodd" stroke="#ffffff" stroke-dasharray="none" stroke-linecap="round" stroke-linejoin="round" stroke-opacity="1" stroke-width="0.5" d="m776 1160-5-3-8 3-8 7-9-1-3-3-3 6-8 4-3 9-15 3-4 5v6l-2 3-8 2-3 5-4 1-7-9 1-6-4-1-1 2-2-5v-3l4-4v-2l-5-10-6-3-5-6-12 1-2-2-3 2h-4l-4-4 1-3-3-4-2-9-7-8-5-2-1-10-5-3v-5l1-3 5-4h4l4-3h-3l-4-3 3-2 1-3-3-6 2-3-3-2 1-4-5-1v-2l-6 1-2-5-7-6-2-7 4-1 1-2-5-4v-2l-7 1v-3l-5 6 4 2h-5l-1 4h-4l-5 3-4-2-1-10 4-9 3-1-4-4-7-2-14 6h-13l-4-4-4 6-4 20 4 6v3l-4 5-5 3 3 3 3 7-4 1 2 1-1 2-6 3 2 3-3 2h-4v7l-11 3-5 5 1 5 8 3-2 7-5 3h-3l-6 6-5 2h-9l-11 4-5 3 1 2-3 1 1 4-8-2-1 3-3 2-4-4-1-6-13 8 3 1-1 4-2 1-5-8-3 4 1 4 3-1-2 3 1 8-13 5-8-1-3 4-4 1-5-3h-5l-2 6-9 1-7 3-30 7v14l10 3 2 2 2 9-3 10 2 4 9 3 1-4 11-4 4 11 5-2 2-7 9-2 2 4-4 10 6 12 6 4-1 16 6 8 5 2 6-1 3 3-2 7 5 12 1-1 11 2 10-6 9-2 2 5h2l3 12 5 2 11-3 5 1 9-5h4l2 3 12 5 12-3 4 2 4-5 3-1 5 2 5-5 10 4 2 7 8 3h6l1 3 7 4 2 3v3l-4 5 3 5v5l-3 1 2 5 10 4 3-1 2 3h3l3-7 8-3 7 2 3-1 1 2 6-1-2-16 1-5 4-1 6 7 8-8 1-3 12 2 5-2 2 2 10-4-1-10 2-7 9-4 10-14 12-5 3 1 2 3 2-1 7-8 6-11h5l7-9 1-7-3-8 2-9 4 1 1-2-4-3 2-4 2-1 4 2 16-14 1-8-2-5 2-2 4 1 3-3 5 3v-7l2-6-3-9 3-5-3-4 2-3-6-6v-7z"/>
  <path id="滁州市" fill="#ff6347" fill-opacity="1" fill-rule="evenodd" stroke="#ffffff" stroke-dasharray="none" stroke-linecap="round" stroke-linejoin="round" stroke-opacity="1" stroke-width="0.5" d="m540 618 3 1 6 6 15 7h4l3 3 3-1v-7l9-9 3 1 4-2 6 3 3-2 1-4 5-3 4 1 5-6 17-12v-4l3-7 17-11 3-5 5-4h5l7-4 3-4 7-2-2-4 2-3 2 2-3-13 2-1 1-4 4 2 2-2 2 1 3-2h12l12-3 6-8 2-6-4-3 3-6-3-6 5-4h4l-3-2 1-2h4l1-2-2-4h-2l3-2-2-3 1-5-2 1-3-4 2-4 1-18-1-3-3 1-7-2-1 2-4 1-9-3v-7h4l2-3-3-4 1-4-12-8 2-7 3-3 4-2 1 2 6 1 2 4 5-4 4-1 6 2-1-5 2 5 1-5 7-1v4l4 2 1-3 3-1 5 1-1 3 3 2h4l6-6-1 5 2 4 5 1 16-7v2l-3 3v5l-2 1 7 2v-2h5l11 16h5l2-3 4-1 5 1 1 5 5 5 2 8 3 1 13-12h4l-2-3 7-11-1-3-3-2v-3l6-2v-7l3-2 1 6 4 2 3-1v-5l3-4-3-1v-6l-3-4v-30l-2-3-4-23-18 1-3-2-8-11-4-3-3-6v-6l-7 2-1-2 2-4h2l-2-9-7-1-9 4-10 2-4-2-3 1-1-3 2-2-3-1-9 2v3l-2 1 2 5-3 1-1 3-4-2-2 1v19l-5 2-11-3-2 1 1 16-2 3v6l5 11-13 5-13-5-4-3-2 2h-4l-3 4-8 2-4-3-20 3-6-2-2-5-7 8-12-1-2-1-1-4 2-2-2-8-4-1-6 3-1-5h-4l-2-2-1-4 3-4-2-6 1-5-3 1-2-4h-5l-3 3-5-21 1-3 3-3 12-4 4-3-2-3h-9l-4-4-2-5-1-15-2-4-5-1v-3l4 1-1-4-6-2h5v-5h-3v-2l3-1v-21l-2-5-9-6-6 7 1 5-3 3-15 6-5 3v2h-5v3l6-3-2 11 2 5-3 2-8 1-7 5v8l4-1 4 2-1 4-5 4-7-3-4 3-5-4-9 8-4-1-5-4 5-5-3-8-17 6-5-1-4-5h-3l-3 2-4 9-3 3-4-2-3 1-8 18-1 8-4 3-8-5-6 1-19-18v13l-5 2-3 11 3 3 1 4-6 3-5 8-10-1-3-2-2 5-13-3-3 4h-10l-1 3h-6l-1 3-4 2-3-1-10 16-3 2-2 4 2 2-4 3-1 6-6 3 9 24 1 9 4 6-4 8 3 5-1 14 3 3h7l9 6 7-3 5 3 10-4 7-7 4 3-7 11-1 10-5 4 3 1 6-2 3 4 9 3 1 7-5 3-3 4-5 11 8 8 1 5 2 2h3l13 10 14-4 6-5 7-2 3-4 2 1 2-3v3l6-4h5v3l9 2 1 3 7-4 11 5 2 4 8-4 3 3 4 1 4 7 2 17-4 5-1 5h4v3l-3 1 3 2v3l4 4-5 5-6 2-2 2v6l-6 4 5 2 2 5 2 1v4l5 2 1 8h8l8 3z"/>
  <path id="阜阳市" fill="#ff6347" fill-opacity="1" fill-rule="evenodd" stroke="#ffffff" stroke-dasharray="none" stroke-linecap="round" stroke-linejoin="round" stroke-opacity="1" stroke-width="0.5" d="m-89 447-3-8-6-8-9-4 1-3h-2l-1-3-6 1 1-8-28 7-2-2 1-3h3l-3-1v-5l-1 3-2-3-6 3-3-2 2-2-2-1-3 1-3 4-2-1 2-2-8-1-2-3 5-3-3-2-1-7 2-1 2 3-1-4 3-3-4 1v-6l-2-3-2 2 2 2-3 1-1-5 2-27-1-5 7 1-1-4-3-1-1-3 1-5-2-4 4-1-1-3-10-3-1-4-4-3v-3l-6-1-5 2-3-3-15-1v-2l2-1v-5l-15-3-7 2-9-11h-6l-2-4v-3l4-2-2-6 8 1 3-3-3-3-2-14-5-1v-4l3-6-1-4 2-2h4l1-5 9 2 1 4 6 4-1 6 6 1 7 4 3-2 1 3 25-1 4-1 1-6 6-4 4 2 3-4h4l2-3h6l5 2 1-4 2 1v-7l-2-4 1-8 8-3-3-2v-2l4-3v-5l2-3-1-11h6l2-12-5-1v-6l-2-1 1-3h-7l-1-2 4-7-3-5v-10h2v-3l3 4 3-1v-17l5-6 8 7 2-5-1-2 5-10 11-3 3 3 7-3 2 4 5-3h8l1-4 19-3 3 13 8 12 4-2h6l8 3v2l5 1 7 7 9 5h4l13 16v13l6 11-1 3 3 4-4 1-2 13 5 8-2 4-11-10-9-5-2 2-1 8 4 12-1 4-4 5v4l2-2 5 1v5l-3 1 1 3 8 1-2 8h8l13 4 18 8-2 4 8-2 2 2v7l2 1 1 4-2 3 18 6h8l3 2v8l6 9 2 6 9 1 3 2 1 3 8 4 3 1 4-3 11-3 6-7 4 1 2 2-2 7 1 3h8l6 4-2 7 3 2-2 2 2 6-2 12 1 5 2 1v5l-3 2 1 3 4 5h10l2 6 5 1 2 9 2 2-1 6 4 1v4l12-1 5 2 2 2 2 7-6 3h-12l-11 10v7l-4 8-4-1-2 8-12-4-9 3-12-7-6-14-3-3h-13l-2 8-4 3 1 6-2 3-2-3-3 2-3-2-2 5-4-2-3 9-3-4h-5l-1-7-5-3-8-21-9-2-5-3-4-11-14-4-10 12-4-3H9l-8 12-4 2-1 9h-4l-9 10h-2l1-5-4-6-3 7-4 2-11-6-2 2 2 5-6 2 1 8-2 2-1 7h-3v-6l-8 7-6-6-10 7-3-1 4-3v-2l-5-1-3-4-4-1 1-2-3-1z"/>
  <path id="宿州市" fill="#ff6347" fill-opacity="1" fill-rule="evenodd" stroke="#ffffff" stroke-dasharray="none" stroke-linecap="round" stroke-linejoin="round" stroke-opacity="1" stroke-width="0.5" d="M193-31h11l8 3 3-2 3 3 2-2 5-1 1 2 3-2 10 2 5 5v-12l2-11-1-2 3-3-1 4 3 4 5-3 1-4 6 3 4-3 3-5 7 2v3l12 1-3 5-4 3v7l5 1 3 6v4l-5 9 8 1 2 8-2 4 2 3-3 5-6 2-1 4-2 28-2 5v5l2 3h-4l-1 2 2 11-3 1v9l-3-1-3 2-8-2v8l-4 8 4 11 7 5 4-2h5l-2 11-3 1-3 10 4 5-4 3 6 3v3l3 3h5l2 3 1 9-2 4 3 3-4 3v2l-4-1-5 10h-3l2 5 2 1-1 6 13 9 10-1 3-5 18 4 1-7-2-3-7-2v-3h3l1-4h4v-3l-8-6-3 1 2-6 6-5 3 3h4l-1 1 5 4 5-9-5-4 1-3 3-3 3 1 2-6 11 11 1-9 6-6 3-9 17 3 3 5 12 1 6 5 3 10 6 7 2 7 11 9 14 3 3 3 6-1 6 3 9-7 5 4 7 1 2 6 3 1 1 5 9 2 3 3 9-3 5 2 4-2v-4h10l3-9 9-1 1-3 3-2 1 5h15l2-2-3-3 1-1 9-1 6-6-1-6-3-5 2-4 1-12 6-10 15 5v-14l-2-3h2l2-20-1-7 14-14V64l-4-2 2-4 5-1 2-2-6-2-4 1-5-2-3-4h-13l-5 5-5 1 1 2-3 1v-3l-12-1-2-4-3 4-1 5-3 1-10-2 1 5-11-4-9-1-9 1-3 4h-3l-4 3-7-9v-3l3-1 2-3 2-15V18l2-7-1-2h-4l-6 4-3-3-8-14v-6l-3-5 2-5-1-4-9-9-4-2-1 1 2 4-2 6h-4l-5 5-2-1-3-7-3-2v-6l-2-3-8-6-2 3-16 8h-5l-3-1-4-8-5-1 2-4-5-5-4 2-6-1-2 5-9-3-5 4-9 1-3-4-1 2h-4l-10-5 1-4-7-1v-5l-2-3-4-1-4-5h-5l-4-3-2 1-3-5-1 4-2-2-3 4-2-1-1 3-5 2-3-6 1-4 2 1-1 3 4-4-3-1-1-7 4-4-1 1 1-6 4-3v4l3 2 4-6-1-3h-3l-1-4h-3l-9-9 2-8-2-4 3-9-5-4 2-8-16-6-11 5-10 1-11-12v-3l-6-8-10-3h-15l-10-5h-13l-1-1 2-2 4 2v-6h-2l-10-10h-7l2-3-5-1-4-4v-6l-4-5v-3l-8-2-3-3-1-6-15 3v2l-6 4h-4l-2 6-10-2-7 13h-2l-1 5-4-1-4-7h-5l-2 13 4 5v3l-4 4h-3v4l-4 7 4 9 10 9-2 4 1 3 7 2 4-1 4 2 1 3 3 1 4 5 14 7 4 8-2 6 2 3 1-2 8-2 2 3 5-1-1-2 4-3 3 6 8-7 6-2 15 4 3 3v3l-7 7-3 1 1 14 5 8-5 2-3 4v7l-2 1 4 4-1 2 5 2 2 7 4 3-1 1 4 7z"/>
  <path id="六安市" fill="#ff6347" fill-opacity="1" fill-rule="evenodd" stroke="#ffffff" stroke-dasharray="none" stroke-linecap="round" stroke-linejoin="round" stroke-opacity="1" stroke-width="0.5" d="m236 616-6-2-7 1-9 4-2-4v-18l-17-8-7-5-10-3 1-4-2-8 2-3-5-6-2-6 2-5-1-6-3-3-2-7 2-5-4-4 4-2 3-6-2-6 2-3-5-22-6-5-1-5 3-6-3-3 1-10-12-4-9 3-12-7-6-14-3-3h-13l-2 8-4 3 1 6-2 3-2-3-3 2-3-2-2 5-4-2-3 9-3-4h-5l-1-7-5-3-8-21-9-2-5-3-4-11-14-4-10 12h-5l-8 7-2 5-6 5-1 3 7-1 3 5v5l-3 1-2 3 5 1-1 7 3 2 2 11v14l2 1v9l-2 3 6 8-2 6v8l3 12 4 7v6l-4 13 4 8v4l-5 4 2 4-3 3 3 1-1 5 2 2-6 13v5l2 2 1 5-7 16v10l5 4-1 8-6 5-7 1-2-4-4 4-1-1-4 5-7-6-6-2-8 3-1 4-5-2-4 1-2-3h-3l-24 19-5 2-3 4-5-1-10 8-5 9 4 5-1 4-12 7v3l-3 5v5l-3 6-10 7-2 3 5 13-4 13 5 5-5 6 2 4-3 2 7 2 2 2 4-4 5 1 2 9h3v11l2 1 1 4h12l6 10v12l5 9 6 5 3-2 2-7 7-3 1-5 3-3 14 3 14 18 2 7 2 1h3l4-4 4-1 7 1 4-5 3-1 3 2 2 4v6l4 6 2-1 8 6-1 7 2 2 4-2 12 4 2 7 8-1 1-10 4-7 7-3v-3l3-1 4 2 12-3 4 4v6l5 2 5-1 10-6 2-6 7-4 4-8 8-3 1-4 4-3 5 3 9 1 6 10 6 1 2-3 7-4 1 2h2l3-6 6-6h2l2 10-1 7 2 4-8 16v11h3l7-9 5 1 6-6v-2h2l8 7 3-2 12 4 3-4 4-2 4 1 6-3 3 2 11-11 3-1 1-6 4-2 4 1 5-2 6-5 1-3h5l5-16 11-16h3l4 3 3-3v-5l5-2 2-3v-6l3-8-2-8 10-20 9-13 9-3 14 1 3-2v-2l-6-13-2 2-5-4-12 2-2-3-3 1v3l-2-1-4 2-11-4-7 4-9-3-1-3h-3l-1 8-3-2-6 2-4-2-9 3-6-1-12 4-10-7-6-9-1-14-3-5 1-7 3-4-4-17 2-6-1-4-7-1v-6l-3 1-7-12 3-4 10-7-4-1-3-6 13-7z"/>
  <path id="亳州市" fill="#ff6347" fill-opacity="1" fill-rule="evenodd" stroke="#ffffff" stroke-dasharray="none" stroke-linecap="round" stroke-linejoin="round" stroke-opacity="1" stroke-width="0.5" d="m138 43-8 2-3-1-5 2v2l-3-2-3 5-6 2-5 6-5 1-4-2-1 4-5-2-8 6-5-1-6-13-6-2-2-7h-7v-4l-5-3 2-3-4-3 4-1 1-6-2-1-4-8-2 1v-2l-5-2-1-4-6-1-1-5 4-14-4-8-7-6-14-1-4-7-2 1-1 9-6-1-2-2v-6l-9-10h-4l-3-3v3l-12-4-8 5-1-2h-5l-3 3-4-1-2 4 1 3-7 2-2-1-4 3 2 3-4 1-2 7 2 1-3 4-1 7-2 1-2 10 2 2-3 1v5h-3v4h9l7 3 4-3 3 3v8l-2 1v4l-3 1 2 3-2 11-8-4-5 3v2l10 17-2 5 3 4h-2l1 10 6 9 6 26 8 12 4-2h6l8 3v2l5 1 7 7 9 5h4l13 16v13l6 11-1 3 3 4-4 1-2 13 5 8-2 4-11-10-9-5-2 2-1 8 4 12-1 4-4 5v4l2-2 5 1v5l-3 1 1 3 8 1-2 8h8l13 4 18 8-2 4 8-2 2 2v7l2 1 1 4-2 3 18 6h8l3 2v8l6 9 2 6 9 1 3 2 1 3 11 5 4-3 11-3 6-7 6 3v-6l-8-10 3-8v-8l2-3 16 6 47 13 28 4 5-23 3-1v2l2-1v2l6 1 1-2 2 2 1-6-3-6-6-2-8-6v-5l4-5v-7l-3-5 1-3 4-4 1 1 4-6 3 4h3l3-17v-6l-7-14 1-8-4-5v-9l2-2-1-1 2-9-1-5 2-6-9-3-6-5h-6l-6-8-3-1-5 1-11-3-8 1-7 5-5-1-3-4 1-10-1-3-3-2v-7l2-4 4-1-2-6h3v-3h-2l-2-5-8-1v-4l-6-7 1-4 2-1-2-9h-2l1-3-5-4v-4l-7-2v-7h-7v-2z"/>
  <path id="池州市" fill="#ff6347" fill-opacity="1" fill-rule="evenodd" stroke="#ffffff" stroke-dasharray="none" stroke-linecap="round" stroke-linejoin="round" stroke-opacity="1" stroke-width="0.5" d="m211 1276 3-7 4-2 15-18 5 3 8-6 5-9 8-7 8-16 2-9-3-5-5-4-9 3v4l-2-2 1-13-7 3-5-10-4-1-1-4h-3l-1-3 6-5 18-21 5-10 1-10 14-14 2-4v-5l-9-27-1-8 1-7 2-2 4 3 15-9 9-10 4-1 28 1 8 5 7 2 6-3 5-8 5-18-2-7-8-13 24-14 15-5h7l7 4 13 1 6-6 3-9 18-9 24-7 8-8-1 5h6l6-5 3 5-2 4 3 3v2l6-1v5h4l1-3 10-5 1-4 7-6 11-3 5-5 5 5 7-8 2 5-6 9 5 1 3 5 9 1 5 5 12 6 5 6h2l1 5h2l-8 12-1 6-6 5-3 7-5 1-6 7-7 1-3 3 1 7-9 14-2 7-2 13 4 6v3l-4 5-5 3 3 3 3 7-4 1 2 1-1 2-6 3 2 3-3 2h-4v7l-11 3-5 5 1 5 8 3-2 7-5 3h-3l-6 6-5 2h-9l-11 4-5 3 1 2-3 1 1 4-8-2-1 3-3 2-4-4-1-6-13 8 3 1-1 4-2 1-5-8-3 4 1 4 3-1-2 3 1 8-8 4h-13l-3 4-4 1-5-3h-5l-2 6-9 1-7 3-30 7v14l-8 1-11 6v9l-2 3-4 2-5 6-5 1 5 7 10 4 1 7-7 8 4 5-2 5-19 9-11-1-7 8-8 3-17 11-6 10-3 2h-15l2-7h-5l-2-2-10 10-1-7-8-4v-3l-9-7v-3l7-10-2-2h-4v-2l3-2zm6 1 2 3-1-4zm2 3v3l3-1-1-2zm152-235-6 7-5 3 3 4-4 6h5l3 2 5-3-2-5 9-9-2-7h-3z"/>
  <path id="宣城市" fill="#ff6347" fill-opacity="1" fill-rule="evenodd" stroke="#ffffff" stroke-dasharray="none" stroke-linecap="round" stroke-linejoin="round" stroke-opacity="1" stroke-width="0.5" d="M776 1160v-3l4-2 3-9h-11l-2-2 2-3 15-7 4-4-1-3-5-2-3-7-3-1 2-2-3-9 1-9 19-14 1 4 7-1v5l5 1 6 5h5l1 2h3l2-3 5-2 10 6h5l13 4 1-4 5 1 1 3 5-10-2-1 2-4h8l6-7 7-2 4 2 1 4 7-1 7-6-2-3-7-1-1-7-4 1 1-9-4-2v-19l-2-8-14 7-3-2v-2l-5-2-2-5 8-8v-2l-3-2v-3l-4-3 3-4 2 2h8l6-2 8-13 7-5 2 1 3-2 2 8 4 4h5l4-3 1-5 8-10-1-21 3-1 4 3 4-2 8-15 6-1-1-8-4-5v-8l2-6 4-3v-12l14-15-1-20 1-3 4-3-7-3v-5l-3 1-3 6h-5l-5-10-10-6-2 2-5-3-3 1v3l-2-2h-4l-6-6-4-1-2 2h-6v-4l4-2-3-2-4 4-2-3-1 1-2-5 5-18h-2l-1-6-3-4-2 11-3 3-1-2h-10l-7 4-1-3-6 2-1-2-4-1-1-3-3 3-2-3 1-6-5-2-1 2h-5l-2 5h-2l-9 8v5l-6-2-3 2-15-2-7 3-1-2-17-2-7 2-10-1-7 3-1-2-4 3-6-4v-6l-5-5-9-1-5-5-1-2 4 3 1-9-5 5-3-1-2 2h-7l1 10-3 8 4 2 1 4 4 3 3 8 6 4 4 8-4 1-7 6-2 4 1 5-3 2 2 4-9 11-5 5h-6l-1-7-2-1-3 7-3 3 3 6v4l-3 3h-5l-11 6 2 4-5-1 4 8-6 4 1 5-2 2-3-1v2l3 1-2 4 2-2 3 2-2 5-3 2 1 4 6 3-1 3-4 3-1 8-8-4 1-4-2-3-4 2-3-6h3l1-3-3-5-4-2-13 1-2 6-3-1-5 2-3 4 2 4-2-2-1 2 1 6-2 1-1 4-5 4v3l10 9-2 2-10-5-6 3-7-1-12 5-9 12-9 3-6 5-3 7-5 1-6 7-7 1-3 3 1 7-5 8 4 4h13l14-6 7 2 4 4-3 1-4 9 1 10 4 2 2-2 7-1 1-4h5l-4-2 5-6v3l7-1v2l5 4-1 2-4 1 2 7 7 6 2 5 6-1v2l5 1-1 4 3 2-2 3 3 6-1 3-3 2 4 3h3l-4 3h-4l-5 4-1 3v5l5 3 1 10 5 2 7 8 2 9 3 4-1 3 4 4h4l3-2 2 2 12-1 5 6 6 3 5 10v2l-4 4v3l2 5 1-2 4 1-1 6 7 9 4-1 3-5 8-2 2-3v-6l4-5 15-3 3-9 8-4 3-6 3 3 9 1 8-7 8-3z"/>
</svg>
