<?xml version="1.0" encoding="UTF-8" standalone="no"?>
<svg
   width="2035"
   height="1289"
   viewBox="-251 -228 2035 1289"
   version="1.1"
   id="svg1"
   xmlns="http://www.w3.org/2000/svg"
   xmlns:svg="http://www.w3.org/2000/svg">
  <defs
     id="defs1" />
  <path
     stroke="#ffff00"
     stroke-opacity="1"
     stroke-width="0.5"
     stroke-linecap="round"
     stroke-linejoin="round"
     stroke-dasharray="none"
     fill="#1e90ff"
     fill-opacity="1"
     fill-rule="evenodd"
     d="m 194.99998,418.99996 -11,13 -5,10 h -9 l -2,5 -9,1 -8,5 -12,4 -13,22 -14,16 6,7 3,9 3,4 v 21 l 6,4 h 2 l 2,-7 h 4 l 3,-2 6,-8 7,-2 3,2 v 3 l 3,2 h 4 l 2,3 v 7 l 4,-3 1,-4 4,-2 h 9 l 7,-3 6,-11 h 3 l 1,-3 -2,-1 -1,-4 -4,-2 -5,2 1,-3 -5,1 5,-9 -4,-2 -3,-6 -5,-1 -2,-6 4,-4 -1,-2 5,-2 2,-4 h 3 l 3,3 4,-1 2,-4 4,-1 2,2 1,-4 4,-1 2,-6 6,-2 4,1 7,6 9,-1 16,-11 4,1 5,4 6,1 6,-2 v 3 l 4,3 1,6 5,2 9,-4 1,2 5,2 1,-1 5,5 7,-3 v -4 l 7,-1 v -3 l 12,-6 v -8 l 3,-7 13,3 1,-3 10,-3 v -6 l 3,-2 4,-8 9,-4 2,-7 3,-3 4,-1 3,-8 5,1 v 2 l 10,1 -2,12 3,15 9,13 1,4 -3,3 2,10 h 3 l -1,6 5,-1 1,8 -6,2 1,7 4,2 4,-4 5,1 v 5 l -2,4 2,1 3,6 4,-1 3,4 -3,3 h -4 l -3,9 4,2 -2,1 v 4 l -2,3 1,1 6,-1 2,-3 6,1 7,-5 4,2 3,9 11,1 14,8 8,-1 9,7 5,-2 3,6 v 8 l 2,1 5,-2 v -3 l 3,-3 9,2 3,-1 4,2 10,-5 h 5 l 6,8 h 3 l -2,-7 h 2 l -1,-8 -3,-3 v -3 h 4 l -2,-3 1,-3 h 2 v -3 l -2,-3 -1,2 h -3 l -2,-8 -3,-4 1,-3 -2,-4 3,-3 -2,-3 h -2 l 3,-9 2,-1 2,2 4,-3 4,1 2,-4 -1,-3 3,-12 -1,-2 -7,-2 -3,1 -2,-2 v -11 l -2,-1 v -3 l 4,-3 v -2 l -5,-4 -3,1 -2,4 v -7 l -1,-2 -2,3 -1,-4 -5,-6 -1,-8 -7,-1 -1,-3 2,-6 h -3 l -1,3 -5,1 v -2 l -3,1 -2,-2 -6,-1 2,-3 -2,-2 3,-3 -5,-3 3,-2 -1,-4 h -3 l -2,-2 8,-2 -4,-5 h -2 l -1,-5 -4,-2 -1,-4 -7,-3 4,-4 2,1 -2,-5 2,-2 -7,-1 4,-1 v -2 l 3,1 -2,-13 -3,-1 1,-10 4,-2 1,-4 5,-6 -1,-2 3,-7 -6,-2 -7,1 -5,-10 -8,-7 -10,-5 -7,-10 -1,-3 2,-10 -4,-7 -9,-5 1,-4 4,3 v -2 l 3,-2 v -5 l -4,-1 2,-2 -2,-3 -3,1 -5,6 -2,-4 -4,-1 -5,2 1,2 -16,3 -1,-2 -2,3 v -2 l -4,1 -3,-2 -3,-12 -13,-8 v -3 l 3,-2 3,-7 -1,-5 8,1 6,-4 13,-4 5,-5 -4,-20 -11,-17 2,-5 h 5 l -1,-1 2,-4 3,2 -4,-12 -3,-3 -2,-8 v -11 l 2,-3 -15,-14 3,-9 -4,-5 -12,1 -3,-2 3,-3 -6,-3 v -2 l 7,-3 1,-4 -2,-3 h -6 v -4 l -3,-4 -11,1 -8,14 h -6 l -3,3 -8,1 -2,-3 -4,2 -3,3 2,4 -4,7 h -14 l -2,-3 -3,3 -1,5 2,5 -6,9 3,5 -6,6 v 2 l 4,16 10,7 h -3 l 4,8 -2,1 v 4 l -4,3 4,3 v 4 l 2,-1 5,5 -1,5 -2,2 2,7 -3,1 -1,4 h -10 l -19,7 -3,3 v 3 l 2,10 5,5 -1,2 -9,3 -4,6 -5,1 3,2 v 3 l 4,2 -1,5 3,-1 6,2 1,8 h -3 l 9,5 1,24 -4,1 -3,-2 v 5 l -4,3 -8,-4 -2,3 2,4 h -4 l -2,11 1,6 h 4 v 4 l -6,5 -8,2 -7,6 -1,4 -5,1 -1,10 -3,3 -1,6 -5,4 -12,4 v 5 l -3,3 -6,1 v 8 l -3,3 h -5 l -5,8 5,3 -1,4 -6,1 -2,3 v 2 l 5,2 2,14 -8,4 z"
     id="济南市" />
  <path
     stroke="#ffff00"
     stroke-opacity="1"
     stroke-width="0.5"
     stroke-linecap="round"
     stroke-linejoin="round"
     stroke-dasharray="none"
     fill="#1e90ff"
     fill-opacity="1"
     fill-rule="evenodd"
     d="m 1303,353.99996 -17,8 -2,-4 -5,-2 -2,-3 -6,-3 -5,1 v 3 l -2,2 1,3 -6,3 h -4 l -7,4 2,-16 h 3 l 1,-7 -3,-3 1,-2 -3,-1 -4,2 -2,-10 -7,-1 -1,-2 2,-2 -3,-9 -9,-3 -2,-8 4,-3 2,-8 10,-1 3,-7 -1,-2 -6,-3 2,-3 -4,-2 -1,-7 h 5 l 7,-3 v -6 l -7,-1 -5,-5 -1,-7 -3,-4 2,-1 v -6 l 2,-1 v -4 l 2,-1 3,3 3,-3 -1,-4 3,-3 -2,-8 h -5 l -1,-3 -3,4 -3,-1 -3,2 -4,-4 2,-2 -1,-7 3,-10 -1,-5 -4,-3 v -2 l -6,-1 -3,4 v 3 l -8,3 -6,-2 v 2 l -6,2 -2,-1 v 6 l -5,-3 h -5 l -2,1 -3,8 -5,-12 -3,2 -5,-4 1,-3 -6,-1 -4,6 -7,-4 -2,12 h -2 l -2,6 1,4 -3,6 -3,2 -1,-2 -3,2 -2,-1 -1,6 -2,1 h -4 l -2,-3 -9,3 -13,-2 -4,7 h -3 l -5,-5 -3,1 -3,-2 -1,2 -4,-1 -3,3 h -3 l -4,4 -18,-3 -8,1 -4,-5 -9,2 v 4 l -5,2 -8,-1 -1,-5 -9,3 -14.00002,-6 -5,1 -6,21 4,9 -1,21 -7,16 -1,1 -4,-2 -3,3 -2,11 1,7 3,6 4,1 2,3 h 3 l 11,24 15.00002,10 5,1 7,7 v 6 l 5,-3 9,6 11,4 24,5 1,10 4,-1 v -4 l 3,-3 6,-1 v 2 l 6,4 4,-2 -2,7 2,1 -2,2 2,8 -4,2 h -12 l -4,6 v 3 h -2 v 5 l 4,3 1,3 -11,1 -3,20 -7,3 v 2 h -3 l -1,4 -4,4 -1,6 -2,1 v 4 l -4,4 3,6 3,1 -2,3 3,6 -3,1 v 2 l -2,-1 v 2 l -6,-1 -2,2 -3,-1 -6,3 -4,-1 v -3 l -2,-1 h -8 l -3,-2 -3.00002,1 -5,15 -2,1 4,6 v 3 l -7,3 1,7 8,2 2,-1 6.00002,4 2,-1 3,4 -3,5 -6,5 2,4 -1,5 4,13 v 6 l 4,-1 5,20 h -4 l 1,2 -2,2 -3,-4 -5,1 -2,6 -7.00002,-1 -6,4 -1,5 -3,1 -1,5 3,3 -2,4 -4,1 -1,6 9,10 -1,3 h -15 l -1,-3 h -9 v -3 l -2,3 1,2 -2,6 3,7 -2,19 5,3 v 5 l 5,-1 5,2 4,-4 2,3 4,-5 9,5 H 1002 l 9,-8 9,-1 v 9 l 3,4 4,-2 2,2 4,-1 -2,-4 2,-2 v -3 l -2,-2 8,-10 2,9 3,-2 6,5 2,-1 7,-7 6,-1 v -4 l -4,-3 v -5 l 3,-7 8,-5 v -4 l -6,-1 -2,-3 1,-6 3,-2 6,1 2,6 4,4 -1,4 5,-1 3,2 2,-3 3,-9 2,-1 1,-7 2,-2 -2,-5 -3,-2 1,-6 7,-15 4,-5 2,2 8,-3 2,-2 v -3 l 5,-1 -1,-4 2,4 h 2 l 6,-9 7,-3 1,2 -4,2 -6,9 v 5 l 4,1 4,-2 2,-8 13,-15 h 6 l 5,-2 3,-10 -1,-4 -5,-1 -4,4 1,3 -2,1 -2,-2 -2,6 -2,-1 v -3 l 4,-7 -2,-3 -11,8 -4,1 9,-11 -1,-4 3,-1 v -4 l -15,-2 -2,-4 -3,-1 -3,-4 -9,-3 -2,-8 h 5 l 4,-5 -1,-9 11,-10 9,-3 2,7 2,1 3,-4 4,1 1,5 3,-1 1,2 3,-2 h 5 l 1,-4 -4,-2 -2,-5 1,-2 6,-2 10,10 3,7 -3,1 v 3 l -3,3 -5,14 -4,4 v 4 l -6,13 h 3 l -1,-2 3,1 2,-3 h 3 l -1,3 4,-2 v 4 l 5,-2 2,3 1,-4 5,-2 v 2 h 4 l 5,-1 3,-3 2,1 6,-8 h 8 l 7,-2 6,1 v -6 l 5,1 2,-3 1,4 h 5 l 4,-5 5,2 10,-5 10,1 2,-3 -1,-2 h -2 l -2,-6 h 2 v -2 l -3,-1 v -11 l -4,-11 2,-4 v -9 h -9 l 3,-6 -2,-8 2,-3 19,3 2,-2 -5,-10 h -3 l -1,-3 -3,-1 -1,-6 4,-6 4,-1 v -3 l 3,-3 6,-1 -1,-9 18,-1 4,3 -1,6 5,4 v 4 l -2,2 1,8 5,3 -1,2 7,-3 -2,-4 3,-6 4,-4 3,3 2,-3 h -3 l -2,-2 -2,-6 3,-3 h 4 v 2 l 3,-1 1,-3 3,-1 1,-5 -3,-3 v -6 l 7,-11 -5,-7 -7,-1 -3,-2 -3,1 -5,-3 -2,-7 -5,-2 z m -69,165 -1,2 h 4 l -2,-3 z m 105,-101 -5,-6 -6,3 1,3 8,-1 z m 3,-24 -3,-1 -1,2 z m -32,190 -1,1 4,-2 z m -294,94 1,4 v -5 z m 109,-53 -1,4 4,3 4,-2 2,-3 -3,-3 -1,-7 -2,1 z m 158,-151 -1,2 2,3 z"
     id="青岛市" />
  <path
     stroke="#ffff00"
     stroke-opacity="1"
     stroke-width="0.5"
     stroke-linecap="round"
     stroke-linejoin="round"
     stroke-dasharray="none"
     fill="#1e90ff"
     fill-opacity="1"
     fill-rule="evenodd"
     d="m 565.99998,565.99996 h 8 l 3,-5 v -3 l 3,-4 4,-2 2,-5 h 3 v -3 l 2,2 2,-1 1,-3 3,-2 h 6 l 1,2 11,2 5,4 2,9 -3,1 4,6 7,2 v 3 l 2,2 6,2 3,-3 h 4 l 2,-4 4,1 9,-3 2,-5 5,-1 2,-4 7,-1 4,7 7,5 3,-3 9,-1 -1,-4 -4,-4 2,-2 -6,-8 2,-3 3,2 h 4 l 1,-2 2,2 2,-6 -3,-7 1,-1 -2,-2 -3,2 -4,-2 -1,-7 2,-2 -2,-5 4,-3 -8,-4 -1,3 -3,-3 -1,3 h -10 v -10 l -4,-4 -4,-9 2,-1 2,-10 -10,-8 -9,4 -2,-1 3,-11 -2,-2 1,-3 -3,-6 -3,-1 2,-4 -10,-2 1,-2 -6,-8 -1,-4 4,-4 -1,-3 -5,1 -1,-2 2,-14 -4,-7 v -6 l -2,-2 v -7 l 3,-2 -8,-5 -3,-11 v -4 l 9,-9 -2,-5 h -2 l 5,-4 1,-4 2,1 -1,-3 h -2 v -4 l 3,-4 4,1 -4,-2 2,-5 -2,-2 1,-2 5,-2 6,4 2,-1 -3,-7 2,-3 h 5 v -8 l 2,1 3,-2 1,3 7,1 10,-7 8,-2 5,-4 -1,-9 h 4 l 1,-7 2,1 v 3 l 5,-2 v -2 l -4,-1 4,-6 v -6 l -2,-2 6,-6 -1,-6 h -23 l -1,-2 h -3 l -1,-8 h -8 l -2,4 -5,-1 -1,-3 -7,1 -1,-8 -5,-4 -2,2 h -3 l -1,5 h -3 l -1,4 -6,3 -4,-1 v -3 l -9,-2 1,-2 h -3 v -4 l -3,-1 -1,-7 1,-6 3,-1 v -2 l 2,-1 -1,-2 h -5 l -1,-9 -4,-3 -1,2 -7,1 -6,3 -1,-4 -3,-1 v -3 h 3 l 6,-4 -6,-10 1,-4 3,-2 -1,-3 3,-2 -2,-6 -2,-2 -5,1 v -3 l -3,-2 h -3 l -1,4 -2,1 -4,-2 -3,1 -1,-3 -2,1 2,-7 4,-3 -1,-5 -7,-3 -5,3 1,-2 -2,-4 -8,5 -6,1 -2,-4 -7,-3 h -4 l -5,2 -9,9 -6,1 -17,-4 -4,-4 -5,-1 -4,3 -4,12 -3,5 -4,3 -3,14 -4,3 -5,1 1,8 4,1 1,2 -2,1 2,7 4,1 4,-2 17,6 14,1 3,2 8,-2 20,1 -2,13 7,1 1,12 9,1 2,10 6,6 -1,6 2,-5 2,4 3,-1 v 3 l -3,3 h -2 v 3 l -6,4 v 4 l -7,-1 v 2 h -7 l -2,2 -7,1 1,6 -3,4 v 7 l -2,2 1,3 h 2 v 4 l 4,-1 3,4 v 5 l -5,2 -2,-6 -8,14 v 4 l -3,1 -1,3 -16,-1 v 2 l -4,2 -1,10 3,1 2,13 -3,-1 v 2 l -4,1 7,1 -2,2 2,5 -2,-1 -4,4 7,3 1,4 4,2 1,5 h 2 l 4,4 -8,3 2,2 h 3 l 1,4 -3,2 5,3 -3,3 2,2 -2,3 6,1 2,2 3,-1 v 2 l 5,-1 1,-3 h 3 l -2,6 1,3 7,1 1,8 2,1 4,9 2,-3 1,2 v 7 l 2,-4 3,-1 5,4 v 2 l -4,3 v 3 l 2,1 v 11 l 2,2 3,-1 7,2 1,2 -3,12 1,3 -2,4 -4,-1 -4,3 -2,-2 -2,1 -3,9 h 2 l 2,3 -3,3 2,4 -1,3 3,4 2,8 h 3 l 1,-2 2,3 v 3 h -2 l -1,3 2,3 h -4 v 3 l 3,3 1,8 h -2 l 2,7 h -3 v 5 l 2,6 2,1 5,-4 h 5 l -2,5 z"
     id="淄博市" />
  <path
     stroke="#ffff00"
     stroke-opacity="1"
     stroke-width="0.5"
     stroke-linecap="round"
     stroke-linejoin="round"
     stroke-dasharray="none"
     fill="#1e90ff"
     fill-opacity="1"
     fill-rule="evenodd"
     d="m 412.99998,998.99996 2,2.00004 1,7 5,3 v 4 l 4,2 -1,1 4,3 3,7 h 6 v 5 l 2,-2 11,2 3,-2 5,3 h 6 l 5,-8 h 5 l 3,-2 1,1 7,-7 3,-10 30,9 -3,-21.00004 2,-11 -1,-10 3,2 7,-19 -2,-2 1,-15 -8,-2 -3,-4 -2,-7 5,-2 1,-7 -10,-5 -5,-8 -4,-1 -8,-14 2,-4 h 2 l 3,-8 -1,-3 2,-3 v -9 l 3,-2 1,-3 -2,-3 h -8 l 1,-6 -13,-8 -2,-5 -7,-6 -8,-13 h -2 v -4 l -4,-1 -5,2 -5,-7 -1,-5 h -5 l -7,-7 -8,-3 v -5 l -2,-3 -4,-1 -5,-7 -1,-6 -11,-5 -3,1 -8,-2 -2,3 1,8 -2,-3 -4,-1 -7,4 2,8 -13,-1 -4,2 -1,3 -12,5 h -8 l -8,4 -7,-3 -3,2 h -6 l -4,2 -5,6 -6,3 -2,3 -6,2 -4,-3 h -5 l -2,-4 -5,2 -3,5 -3,1 -5,-5 -6,2 v 6 l 4,4 1,7 8,10 h 7 l 3,7 -5,2 v 2 l 5,-1 2,4 11,9 1,8 -3,6 10,11 9,-1 7,3 -1,3 h 9 l 2,-3 5,-1 2,10 h 3 l 1,13 8,9 10,6 -4,5 h -2 l -3,5 8,1 8,11 h 4 l 1,5 3,2 4,-1 2,3 h 9 l 4,4 -1,2 3,2 -2,4 5,2 2,6 3,1 3,9 1,-2 7,1 v 4 l -3,2 -1,5 z"
     id="枣庄市" />
  <path
     stroke="#ffff00"
     stroke-opacity="1"
     stroke-width="0.5"
     stroke-linecap="round"
     stroke-linejoin="round"
     stroke-dasharray="none"
     fill="#1e90ff"
     fill-opacity="1"
     fill-rule="evenodd"
     d="m 631.99998,-142.00004 -4,8 3,2 1,3 -2,7 -3,1 1,14 49,-5 v 9 l -3,-1 -47,9 v 13 l -3,2 v 2 l 3,-1 v 9 h 2 l 3,9 -2,4 1,5 2,3 v -4 l 3,9 2,-3 5,-1 4,-5 3,3 3,-1 4,9 -2,2 h 3 v 2 l 3,2 -1,2 2,7 h -3 l -2,6 v 3 l 3,2 v 3 l -3,1 -1,5 -5,1 v 5 l -1,-1 -3,8 1,2 -6,7 -6,3 -4,-2 -1,1 -4,-2 h -5 l -1,-2 -6,4 -4,8 -2,1 v 8 l -7,9 1,2 h 2 v 5 l 9,-3 v 6 l -4,2 -4,7 h -2 v 7 l -4,5 -2,6 3,1 -2,6 9,1 3,7 v 9 l -5,-1 -2,2 1,3 h 4 v 4 l 16,-7 1,6 h 6 v -3 l 4,-1 v 5 h 7 v 4 h 7 l 1,15 h 2 v 3 h 4 v 3 l 7,2 -2,2 h 3 l 1,5 h -2 l -2,5 h -3 l -1,3 5,8 3,1 3,9 -2,1 -1,7 -5,5 -2,-1 -2,3 1,3 h -2 l 3,7 -3,-1 v 16 l -3,3 v 3 l -4,2 -5,7 -1,3 2,9 7,-1 1,3 5,1 2,-4 h 8 l 1,8 h 3 l 1,2 16,-1 3,-4 7,2 v 3 l 5,-1 3,3 5,-1 1,-2 v -10 l -2,-1 1,-6 6,1 -3,-1 1,-2 5,1 -2,-2 1,-3 -4,-2 h -6 l -1,-5 4,-1 1,-7 h 4 l 3,-2 5,2 6,-1 6,-5 h 2 l 2,-20 -5,-2 -1,-4 h -4 v -3 l 3,-2 1,-3 h 3 l 5,-13 8,-4 17,-13 12,-3 56,-5 -10,-4 -4,-7 v -9 l 6,-1 1,-2 -3,-2 h -6 l -9,-37 -1,-10 8,-22 5,-8 9,-7 24,-2 9,-3 21,1 7,-2 5,-11 5,-20 2,-16 -1,-14 -3,-7 -8,-4 -6,1 -7,13 -13,6 -7,-3 -3,-12 v -10 l -3,-8 -27,-23 -8,-34 -11,-11 -14,-7 -6,-2 h -20 l -39,6 -5,3 v 9 l -2,7 -12,8 -4,-3 -8,-16 -6,-3 -8,-1 -5,6 h -3 l -7,-5 -8,1 -22,-6 z m 43,30 -47,5 -1,12 47,-9 z"
     id="东营市" />
  <path
     stroke="#ffff00"
     stroke-opacity="1"
     stroke-width="0.5"
     stroke-linecap="round"
     stroke-linejoin="round"
     stroke-dasharray="none"
     fill="#1e90ff"
     fill-opacity="1"
     fill-rule="evenodd"
     d="m 974.99998,187.99996 -2,9 2,4 -4,5 1,5 12,8 -1,6 5,-1 14.00002,6 9,-3 1,5 8,1 5,-2 v -4 l 9,-2 4,5 8,-1 18,3 4,-4 h 3 l 3,-3 4,1 1,-2 3,2 3,-1 5,5 h 3 l 4,-7 13,2 9,-3 2,3 h 4 l 2,-1 1,-6 2,1 3,-2 1,2 3,-2 3,-6 -1,-4 2,-6 h 2 l 2,-12 7,4 4,-6 6,1 -1,3 5,4 3,-2 5,12 3,-8 2,-1 h 5 l 5,3 v -6 l 2,1 6,-2 v -2 l 6,2 8,-3 v -3 l 3,-3 h 6 v 2 l 4,3 1,5 -3,10 1,7 -2,2 4,4 3,-2 3,1 3,-4 1,3 h 5 l 2,8 -3,3 1,4 -3,3 -3,-3 -2,1 v 4 l -2,1 v 6 l -2,1 3,4 1,7 5,5 7,1 v 6 l -7,3 h -5 l 1,7 4,2 -2,3 6,3 1,2 -3,7 -10,1 -2,8 -4,3 2,8 9,3 3,9 -2,2 1,2 7,1 v 3 l 3,3 -1,4 4,-2 3,1 -1,2 3,3 -1,7 h -3 l -2,16 17,-7 -1,-3 2,-2 v -3 l 5,-1 6,3 2,3 5,2 2,4 17,-8 -1,-2 9,-2 6,1 5,3 1,7 7,5 19,1 4,-2 8,-9 10,-5 12,-9 9,-1 6,-6 h 8 l 9,-9 18,-4 h 2 l 3,4 8,-1 1,-4 -2,-3 -3,-1 1,-3 5,-3 10,-2 6,-6 -7,-6 -14,-1 1,-3 -6,-9 v -3 h -4 l -1,-4 v -4 l 8,-4 -6,-6 1,-2 -2,-6 h -3 l -9,5 -2,-4 h -6 l -8,-6 -1,-5 -3,-2 -3,-9 h -4 l -7,-3 v -7 l 4,-3 -2,-1 1,-14 13,-6 1,-4 10,-10 5,-2 h 2 l 1,3 6,2 5,-5 1,4 -3,1 5,5 1,-2 2,1 2,5 9,-1 6,-7 13,6 h 12 l 7,-2 2,1 2,-3 v -9 l 3,1 3,5 4,-4 h 3 v 2 l 7,4 1,3 3,-7 h 2 l -2,-3 h 3 l 1,5 h 9 l 1,-3 h 3 l 5,-12 -2,-2 -2,2 -1,-1 3,-1 v -4 l 2,-2 -2,-7 -1,2 v -3 h -2 v -6 l 2,-2 5,-1 5,-18 5,2 5,-6 7,-4 2,-13 10,-10 7,-17 -3,-6 h -22 l -17,2 -27,-3 -3,-6 h -6 l -8,8 h -4 l -3,9 h -2 l -7,-3 -2,-4 h -4 l -9,-4 -5,-6 v -9 l -6,-7 -6,-2 -3,-3 -2,-10 -2,-1 1,-2 5,2 8,-1 -1,-2 -7,-3 -6,-6 -10,-2 -1,2 4,4 -1,7 -13,4 h -23 l -12,-6 -5,-6 3,-9 -1,-3 -4,-2 5,-12 -3,-7 -14,-1 -5,2 -2,-2 -3,3 -5,-1 -5,-4 v -4 l -17,-11 -3,-6 2,-1 v -5 l -3,-3 h -9 l -3,-3 -20,3 -9,-3 -4,1 -2,-3 -3,2 -2,-1 -20,14 h -9 l -7,8 -4,2 -13,1 -3,2 -12,-2 -6,1 -2,4 -18,15 -37,1 -2,2 1,5 6,5 6,-1 1,7 -2,3 -4,2 -10,2 2,4 -2,5 9,10 -6,8 -6,3 -1,4 -13,10 -15,5 -5,5 -14,2 -7,6 -9,2 -3,8 -3,3 -21,3 -2,11 3,2 1,3 8,5 v 10 l 3,2 -1,3 -8,1 v 3 h 7 l -6,6 -9,3 -6,9 -7,7 -2,5 -8,8 -4,-3 h -10 v -4 l -14.00002,5 z m 497.00002,-137 5,-3 -2,-1 -3,2 z m -200,-129 -2,1 v 4 l 2,1 v 3 l -2,1 1,3 h 4 l 5,6 1,-2 -2,-5 2,-4 -5,-9 -2,-1 z m -10,-12 1,4 10,4 1,-4 h -2 l -2,-5 -7,-2 -3,1 z m -10,2 -2,5 h 2 l 1,-4 z m -52,68 3,-5 -2,-1 -5,1 2,5 z m 60,-52 2,-6 -3,1 v 3 l -2,2 z m 17,-72 3,-3 h 7 l -3,-4 -4,-2 -4,-8 -2,13 z m 43,-64 -1,-3 2,-3 h -2 v -3 h -3 l -2,3 3,5 z m -19,3 4,-2 -4,-4 z m 15,-15 h 8 v -3 l -4,-4 -5,5 z m -71,143 2,-11 -5,-2 -3,2 -1,3 2,4 z m 45,-111 4,-1 2,-3 5,-1 2,-4 -4,-3 -5,1 -5,10 z m 37,87 2,-2 -1,-3 h -4 v 2 z m -289,231 1,-2 -2,-1 z m 403,335 2,1 -1,-3 z m -191,-603 2,-3 -1,-3 -3,4 z m 60,34 v 3 z m -60,-9 2,-1 v -4 h -2 l -1,3 z"
     id="烟台市" />
  <path
     stroke="#ffff00"
     stroke-opacity="1"
     stroke-width="0.5"
     stroke-linecap="round"
     stroke-linejoin="round"
     stroke-dasharray="none"
     fill="#1e90ff"
     fill-opacity="1"
     fill-rule="evenodd"
     d="m 699.99998,525.99996 4,-3 1,-3 v -3 l -6,-1 1,-3 2,2 6,-5 6,-2 v -5 l 2,-3 3,2 6,-4 4,-5 5,2 1,-2 5,3 h 3 l 2,3 -1,2 6,3 v -2 l 3,-1 3,4 3,-2 -1,-6 h 2 l 2,-5 -1,-3 5,-5 5,3 5,-2 1,2 7,-2 3,1 1,4 -2,1 1,4 3,3 v 15 l 2,1 -1,4 5,5 7,-2 3,-5 -1,-2 h 5 l 2,-2 3,2 1,3 h 3 l 5,3 8,-3 4,4 3,-1 5,4 -7,8 v 4 l 3,2 -1,4 h -8 l -1,4 h 3 v 3 l -3,2 2,6 8,-1 7,7 11,-1 8,-3 v 2 l 6,-2 2,17 h -4 l -9,8 6,3 1,-4 h 2 l 6,5 h 6 l 6,-1 11,-9 h 3 l 1,6 5,2 7,-2 4,3 3,7 -3,5 4,9 -2,15 h 2 l 14,-10 9,-2 7,6 1,3 -2,2 v 6 l 4,1 6,6 v 3 h 9 l 1,3 h 15 l 1,-3 -9,-10 1,-6 4,-1 2,-4 -3,-3 1,-5 3,-1 1,-5 6,-4 7.00002,1 2,-6 5,-1 3,4 2,-2 -1,-2 h 4 l -5,-20 -4,1 v -6 l -4,-13 1,-5 -2,-4 6,-5 3,-5 -3,-4 -2,1 -6.00002,-4 -2,1 -8,-2 -1,-7 7,-3 v -3 l -4,-6 2,-1 5,-15 3.00002,-1 3,2 h 8 l 2,1 v 3 l 4,1 6,-3 3,1 2,-2 6,1 v -2 l 2,1 v -2 l 3,-1 -3,-6 2,-3 -3,-1 -3,-6 4,-4 v -4 l 2,-1 1,-6 4,-4 1,-4 h 3 v -2 l 7,-3 3,-20 11,-1 -1,-3 -4,-3 v -5 h 2 v -3 l 4,-6 h 12 l 4,-2 -2,-8 2,-2 -2,-1 2,-7 -4,2 -6,-4 v -2 l -6,1 -3,3 v 4 l -4,1 -1,-9 -35,-10 -9,-6 -5,3 v -6 l -7,-7 -5,-1 -15.00002,-10 -3,-9 -8,-15 h -3 l -2,-3 -4,-1 -3,-6 -1,-7 2,-11 3,-3 4,2 1,-1 7,-16 1,-7 v -14 l -4,-9 3,-13 2,-2 2,-12 -12,-8 -1,-5 4,-5 -2,-4 2,-9 -22,-1 -2,-8 -1,1 3,6 -12,1 -5,2 h -15 l -6,3 h -4 l -7,-8 -2,-8 1,-13 -4,-2 h -10 l -5,-4 -4,1 -1,9 -3,-1 v -8 l 3,-8 v -2 h -3 v -2 l 5,-5 -2,-2 -17,16 -2,-2 3,-8 v -6 h 4 l 2,2 1,-1 -3,-3 -6,1 v 7 l -2,2 -9,-1 -2,6 h -4 l -4,-5 v -7 l -3,-9 -56,5 -12,3 -17,13 -8,4 -3,10 -2,3 h -3 l -1,3 -3,2 v 3 h 4 l 1,4 5,2 -2,20 -14,6 -5,-2 -3,2 h -4 l -1,7 -4,1 1,5 h 6 l 4,2 -1,3 2,2 -5,-1 -1,2 3,1 -6,-1 v 19 l -5,1 -3,-3 -5,1 v -3 l -7,-2 -3,4 7,1 1,6 -6,6 2,2 v 6 l -4,6 4,1 v 2 l -5,2 v -3 l -2,-1 -1,7 h -4 l 1,9 -5,4 -8,2 -10,7 -7,-1 -1,-3 -3,2 -2,-1 v 8 h -5 l -2,3 3,7 -2,1 -6,-4 -5,2 -1,2 2,2 -2,5 4,2 -4,-1 -3,4 v 4 h 2 l 1,3 -2,-1 -1,4 -5,4 h 2 l 2,5 -9,9 1,11 2,4 8,5 -3,2 v 7 l 2,2 v 6 l 4,7 v 8 l -2,6 1,2 5,-1 1,3 -4,4 1,4 4,4 2,4 -1,2 10,2 -2,4 3,1 3,6 -1,3 2,2 -3,11 2,1 9,-4 10,8 -2,10 -2,1 4,9 4,4 v 10 h 10 l 1,-3 3,3 1,-3 7,3 1,1 -4,3 2,5 -2,2 1,7 4,2 z"
     id="潍坊市" />
  <path
     stroke="#ffff00"
     stroke-opacity="1"
     stroke-width="0.5"
     stroke-linecap="round"
     stroke-linejoin="round"
     stroke-dasharray="none"
     fill="#1e90ff"
     fill-opacity="1"
     fill-rule="evenodd"
     d="m 159.99998,911.99996 11,-15 7,1 6,-2 14,-1 14,-5 2,-5 9,3 5,-1 1,-2 14,5 12,2 2,-7 h 2 l -3,-2 -1,-5 2,1 v -5 l 4,1 -1,14 h 3 l -1,-13 2,1 2,11 9,1 5,5 12,5 v 7 l 11,-1 3,2 -11,2 -2,6 h 10 l 3,9 -7,2 v 5 l 4,3 v 3 l 3,1 v 2 h 3 l 1,2 h 7 l 13,14 -1,2 2,3 -4,7 3,11 3,1 5,-4 5,14 8,14.00004 -3,7 v 5 l 4,13 2,14 h 9 v -2 l 6,-1 v -2 h 6 l 2,-3 v -4 l -3,-2 3,-2 v 3 l 2,1 1,-2 -2,-5 4,-2 -1,-9 8,-3 1,-3 -8,-2 9,-5.00004 -1,4.00004 4,-2 3,1 -2,-2 7,-5.00004 4,2 1,-2 6,3 1,-9 3,-2 v -4 l -7,-1 -1,2 -1,-5 -2,-4 -3,-1 -2,-6 -5,-2 2,-4 -3,-2 1,-2 -4,-4 h -9 l -2,-3 -4,1 -3,-2 -1,-5 h -4 l -8,-11 -8,-1 3,-5 h 2 l 4,-5 -10,-6 -8,-9 -1,-13 h -3 l -2,-10 -5,1 -2,3 -4,-2 -5,2 1,-3 -2,-1 -5,-2 -9,1 -4,-4 -6,-7 3,-6 -1,-8 -11,-9 -2,-4 -5,1 v -2 l 5,-2 -3,-7 h -7 l -8,-10 -1,-7 -4,-4 v -6 l 6,-2 5,5 3,-1 3,-5 5,-2 2,4 h 5 l 4,3 6,-2 2,-3 6,-3 5,-6 4,-2 h 6 l 3,-2 7,3 8,-4 h 8 l 12,-5 1,-3 4,-2 13,1 -2,-8 7,-4 4,1 2,3 -1,-8 2,-3 8,2 3,-1 10,4 2,7 3,3 12,-4 4,-9 -7,-3 -3,-11 6,-5 v -5 l 3,-3 -2,-6 -3,-2 -1,-5 -6,-5 11,-18 7,3 1,-3 h 3 l 1,-4 -4,-2 -2,-3 1,-3 8,2 14,-3 2,-4 v -7 l -2,-1 3,-12 -17,-16 -2,-5 2,-3 -5,-2 -5,2 -3,-8 -10,-4 -6,-10 -7,3 -3,-3 -4,2 -6,-8 -9,-1 -2,3 -9,6 -9,-1 -2,-2 h -11 l -9,2 -2,2 -1,-1 2,-2 -2,-3 -7,-1 -1,-4 -4,-1 -3,4 -6,-3 -6,1 -4,-3 -5,1 1,3 -5,11 -6,1 v 13 l -5,1 -6,4 -7,1 v 4 l -5,2 -6,-6 h -4 v -3 h -3 l -2,9 h -6 l -3,-8 -17,-2 -1,-4 -3,-1 -15,6 h -3 l -1,-2 v -11 l 2,-3 4,-2 7,2 2,-1 4,-12 v -5 l -3,-3 -7,-3 -8,-7 -1,-3 3,-4 6,-2 5,-5 2,-8 -2,-5 -13,1 -6,10 -7,2 -2,3 -2,10 -4,3 -4,-1 -1,3 h -8 l -2,3 -2,-1 -3,2 v 4 l -5,3 -3,4 h -7 l -4,-2 -5,2 -2,-2 -5,1 -7,8 -2,-1 v -7 l -6,-3 -1,1 -7,-6 -4,-9 v -12 l -3,-1 -1,4 -1,-3 -1,1 -5,-2 -1,-2 -5,-2 -3,6 -3,-3 -4,2 -9,-5 -3,-3 1,-3 -3,-1 v -4 l -4,1 -2,-4 3,-2 1,-3 -1,-3 -3,-2 v 3 l -3,2 -8,-3 h -6 l -19,5 -1,10 -8,2 -1,4 h 3 l 2,3 -2,1 v 5 l -2,2 v 17 l 2,4 4,1 3,-2 4,2 -1,2 12,5 13,8 6,7 10,7 2,4 8,8 4,12 -5,6 2,8 -2,5 2,12 -1,13 2,3 v 4 l 6,2 3,-1 -1,8 5,-1 v -5 l 3,-3 v 3 h 4 v 10 h 3 l -1,8 3,12 -2,7 -4,1 -2,3 2,10 4,4 2,10 11,-3 5,9 -5,16 -5,-1 -4,-4 -1,4 -4,-1 3,8 -11,19 -7,-1 -4,8 h 4 l -4,9 1,2 h -6 l -1,9 6,10 8,6 v 3 l -4,6 10,2 2,6 17,7 5,5 10,2 2,3 8,2 2,-2 z"
     id="济宁市" />
  <path
     stroke="#ffff00"
     stroke-opacity="1"
     stroke-width="0.5"
     stroke-linecap="round"
     stroke-linejoin="round"
     stroke-dasharray="none"
     fill="#1e90ff"
     fill-opacity="1"
     fill-rule="evenodd"
     d="m 552.99998,550.99996 -6,-8 h -5 l -10,5 -4,-2 -3,1 -9,-2 -3,3 v 3 l -5,2 -2,-1 v -8 l -3,-6 -5,2 -9,-7 -8,1 -14,-8 -11,-1 -3,-9 -4,-2 -7,5 -6,-1 -2,3 -6,1 -1,-1 2,-3 v -4 l 2,-1 -4,-2 3,-9 h 4 l 3,-3 -3,-4 -4,1 -3,-6 -2,-1 3,-4 -1,-5 -5,-1 -4,4 -4,-2 -1,-7 6,-2 -1,-8 -5,1 1,-6 h -3 l -2,-10 3,-3 -1,-4 -9,-13 -3,-15 2,-12 -10,-1 v -2 l -5,-1 -3,8 -4,1 -3,3 -2,7 -9,4 -4,8 -3,2 v 6 l -10,3 -1,3 -13,-3 -3,7 v 8 l -12,6 v 3 l -7,1 v 4 l -7,3 -5,-5 -1,1 -5,-2 -1,-2 -9,4 -5,-2 -1,-6 -4,-3 v -3 l -6,2 -6,-1 -5,-4 -4,-1 -16,11 -9,1 -7,-6 -4,-1 -6,2 -2,6 -4,1 -1,4 -2,-2 -4,1 -2,4 -4,1 -3,-3 h -3 l -2,4 -5,2 1,2 -4,4 2,6 5,1 3,6 4,2 -5,9 5,-1 -1,3 5,-2 4,2 1,4 2,1 -1,3 h -3 l -6,11 -7,3 h -9 l -4,2 -1,4 -4,3 v -7 l -2,-3 h -4 l -3,-2 v -3 l -3,-2 -7,2 -2,4 -7,6 h -4 l -2,7 h -2 l -6,-4 -1,-3 1,-18 -3,-4 -3,-9 -6,-7 -16,1 v 7 l -10,3 -6,8 -1,7 -5,11 1,4 -2,6 -3,-1 -3,15 3,2 1,3 -1,3 -3,2 2,4 4,-1 v 4 l 3,1 -1,3 3,3 9,5 4,-2 3,3 3,-6 5,2 1,2 5,2 1,-1 1,3 1,-4 3,1 v 12 l 4,9 7,6 1,-1 6,3 v 7 l 2,1 7,-8 5,-1 2,2 5,-2 4,2 h 7 l 3,-4 5,-3 v -4 l 3,-2 2,1 2,-3 h 8 l 1,-3 4,1 4,-3 2,-10 2,-3 7,-2 6,-10 13,-1 2,5 -2,8 -5,5 -6,2 -3,4 1,3 8,7 7,3 3,3 v 5 l -4,12 -2,1 -7,-2 -4,2 -2,3 1,13 18,-6 3,1 1,4 17,2 3,8 h 6 l 2,-9 h 3 v 3 h 4 l 6,6 5,-2 v -4 l 7,-1 12,-6 -2,-8 1,-4 6,-1 5,-11 -1,-3 5,-1 4,3 6,-1 6,3 3,-4 4,1 1,4 7,1 2,3 -2,2 1,1 2,-2 9,-2 h 11 l 2,2 9,1 9,-6 2,-3 9,1 6,8 4,-2 3,3 7,-3 6,10 10,4 3,8 5,-2 5,2 -2,3 2,5 17,16 2,-14 8,-11 11,-1 8,-4 6,4 6,1 7,-8 7,1 7,-3 -2,-10 1,-4 3,-3 -4,-10 3,-6 4,-2 7,-10 h 6 l 14,4 2,-4 3,-2 v -5 l 5,-6 -4,-10 2,-5 h -5 l -5,4 -2,-1 -2,-6 z"
     id="泰安市" />
  <path
     stroke="#ffff00"
     stroke-opacity="1"
     stroke-width="0.5"
     stroke-linecap="round"
     stroke-linejoin="round"
     stroke-dasharray="none"
     fill="#1e90ff"
     fill-opacity="1"
     fill-rule="evenodd"
     d="m 1579,76.99996 3,6 -7,17 -10,10 -2,13 -7,4 -5,6 -5,-2 -5,18 -5,1 -2,2 v 6 h 2 v 3 l 1,-2 2,7 -2,2 v 4 l -3,1 1,1 2,-2 2,2 -5,12 h -3 l -1,3 h -9 l -1,-5 h -3 l 2,3 h -2 v 3 l -3,4 -1,-3 -7,-4 v -2 h -3 l -4,4 -3,-5 -3,-1 v 9 l -2,3 -2,-1 -7,2 h -12 l -13,-6 -6,7 -9,1 -2,-5 -2,-1 -1,2 -5,-5 3,-1 -1,-4 -5,5 -6,-2 -1,-3 h -2 l -5,2 -10,10 -1,4 -13,6 -1,14 2,1 -4,3 v 7 l 7,3 h 4 l 1,5 2,4 3,2 1,5 8,6 h 6 l 1,4 10,-5 h 3 l 2,6 -1,2 6,6 -6,2 -2,2 v 4 l 1,4 h 4 v 3 l 6,9 -1,3 14,1 7,6 1,-4 11,-8 4,-5 7,-2 1,1 -4,3 -2,4 h -5 l -8,4 -4,4 1,2 6,1 v 4 l 3,-1 v 4 l 3,-1 4,2 v 2 l -4,1 v 2 l 3,-1 6,2 2,-6 -4,-6 h 3 l 4,3 4,-2 1,8 h 4 l 8,4 1,-1 -7,-18 v -4 l 11,-7 9,-1 3,-2 2,1 8,-5 2,-3 1,-8 41,-19 10,-1 3,-3 1,-4 3,1 5,-2 3,6 v 11 l 3,4 2,8 1,-6 2,-2 -1,-3 6,-3 h 5 l 2,-2 -1,-4 2,-3 2,1 4,-2 3,2 -6,14 10,4 2,-3 h 3 l 3,9 -1,3 -3,1 1,3 12,-2 6,5 1,-2 20,3 2,-2 2,3 9,-5 2,-7 8,2 8,-5 2,2 2,-4 -2,-1 -2,-5 -5,-3 2,-2 15,1 -2,3 v 4 l 3,1 5,-1 8,-11 -1,-10 3,-4 v -4 l -3,-3 v -5 l 3,-6 7,-4 -2,-6 -7,1 -6,4 -7,2 -9,-2 -1,-2 5,-5 1,-18 3,-8 2,-2 8,-2 12,2 2,-2 v -3 l -4,-4 2,-3 4,1 3,-4 4,1 2,-4 -7,-6 -3,-13 h -6 l 2,-3 -1,-3 2,-2 -1,-3 5,-8 4,-3 v -3 l -4,1 v -4 l 4,-6 4,-1 4,-5 4,-1 5,2 1,3 4,-1 v -3 l 5,-3 -3,-7 -5,-4 h -4 l 2,5 h -3 v -4 l -2,-1 -2,3 -1,-3 -13,2 -4,4 h -17 l -5,-1 -2,-2 1,-4 -2,-1 -17,7 -7,-2 -13,2 -7,-1 v -2 l -7,-1 v -7 l -8,-7 h -5 v 3 l -3,-1 -2,2 h -5 l -3,8 -4,-2 -5,-14 1,-2 -5,-4 1,-4 7,-2 2,-7 -7,-3 2,-3 -5,1 -2,-4 v 5 l -5,1 -9,-6 v 10 l -4,-2 -3,4 h -7 l -1,7 -3,1 -1,4 -5,2 -3,-1 z m 67,-9 8,1 -8,-6 -3,4 z m 19,240 1,2 2,-1 z m -199,8 4,-2 -2,-1 z m 35,6 3,-4 -2,-1 z m 222,-237 2,-1 -2,-2 z"
     id="威海市" />
  <path
     stroke="#ffff00"
     stroke-opacity="1"
     stroke-width="0.5"
     stroke-linecap="round"
     stroke-linejoin="round"
     stroke-dasharray="none"
     fill="#1e90ff"
     fill-opacity="1"
     fill-rule="evenodd"
     d="m 996.99998,679.99996 h -3 l -9,-5 -4,5 -2,-3 -4,4 -5,-2 -5,1 v -5 l -5,-3 2,-19 -3,-7 2,-6 -1,-2 2,-3 -6,-6 -4,-1 v -6 l 2,-2 -1,-3 -7,-6 -9,2 -14,10 h -2 l 2,-15 -4,-9 3,-5 -3,-7 -4,-3 -7,2 -5,-2 -1,-6 h -3 l -11,9 -6,1 h -6 l -6,-5 h -2 l -1,4 -6,-3 9,-8 h 4 l -2,-17 -6,2 v -2 l -8,3 -11,1 -7,-7 -8,1 -2,-6 3,-2 v -3 h -3 l 1,-4 2,-1 -7,-3 -4,6 -7,3 -15,1 -4,4 4,5 -1,5 -14,4 h -6 l -3,3 v 5 l -7,2 v 7 l -3,-1 -4,16 h -4 l -3,4 1,5 -7,9 2,8 v 9 l 13,4 11,-1 2,3 -4,7 v 5 l -14,18 -1,10 2,4 -5,6 1,3 -8,7 1,5 9,9 -6,9 -3,1 -1,-2 h -9 l -8,3 1,6 2,2 -10,3 1,8 5,1 v 5 l 2,1 5,-2 8,2 3,-4 4,4 v 2 l 3,-2 4,3 10,-5 5,2 12,-1 6,-6 2,1 -1,6 5,4 8,2 3,6 4,-2 4,1 3,-2 4,-8 -2,-5 4,-2 h 7 l 6,5 7,2 5,12 10,-3 3,1 1,2 -2,4 4,4 v 3 l 6,2 2,9 -2,2 -3,12 -2,3 h -6 l -1,4 4,1 6,8 -2,6 6,2 4,8 4,1 5,-5 12,3 4,7 1,5 12,-2 1,3 6,1 -1,-3 6,-4 1,-4 3,-2 h 5 l -1,-3 -9,-7 v -5 h 6 v -3 l -5,1 3,-21 17,-24 7,-4 3,1 1,4 h 3 l 2,3 v -8 l 4,-1 v -2 h -4 l 1,-5 12,-6 v -3 l -3,-3 1,-7 5,-12 5,-5 2,-13 3,-3 7,-19 z"
     id="日照市" />
  <path
     stroke="#ffff00"
     stroke-opacity="1"
     stroke-width="0.5"
     stroke-linecap="round"
     stroke-linejoin="round"
     stroke-dasharray="none"
     fill="#1e90ff"
     fill-opacity="1"
     fill-rule="evenodd"
     d="m 878.99998,830.99996 -2,-6 -8,-4 2,-6 -2,-1 -2,-5 -6,-3 1,-4 h 6 l 5,-15 2,-2 -2,-9 -6,-2 v -3 l -4,-4 2,-4 -1,-2 -3,-1 -10,3 -5,-12 -7,-2 -6,-5 h -7 l -4,2 2,5 -4,8 -3,2 -4,-1 -4,2 -3,-6 -8,-2 -5,-4 1,-6 -2,-1 -6,6 -12,1 -5,-2 -10,5 -4,-3 -3,2 v -2 l -4,-4 -3,4 -8,-2 -5,2 -2,-1 v -5 l -5,-1 -1,-8 10,-3 -2,-2 -1,-6 8,-3 h 9 l 1,2 3,-1 6,-9 -9,-9 -1,-5 8,-7 -1,-3 5,-6 -2,-4 1,-10 14,-18 v -5 l 4,-7 -1,-3 -12,1 -13,-4 v -9 l -2,-8 7,-9 -1,-5 3,-4 h 4 l 4,-16 3,1 v -7 l 7,-2 v -5 l 3,-3 h 6 l 14,-4 1,-5 -4,-5 4,-4 15,-1 7,-3 4,-6 10,5 3,-1 1,-4 -3,-2 v -4 l 7,-8 -5,-4 -3,1 -4,-4 -8,3 -8,-3 -1,-3 -3,-2 -2,2 h -5 l 1,2 -3,5 -7,2 -5,-5 1,-4 -2,-1 v -15 l -3,-3 v -9 l -3,-1 -7,2 -1,-2 -5,2 -5,-3 -5,5 1,3 -2,5 h -2 l 1,6 -3,2 -3,-4 -3,1 v 2 l -6,-3 1,-2 -2,-3 h -3 l -5,-3 -1,2 -5,-2 -4,5 -6,4 -3,-2 -2,3 v 5 l -6,2 -6,5 -2,-2 -1,3 6,1 -1,6 -4,3 2,2 -1,1 3,7 -2,6 -2,-2 -1,2 h -4 l -3,-2 -2,3 6,8 -2,2 4,4 v 5 h -8 l -3,3 -7,-5 -4,-7 -7,1 -2,4 -5,1 -2,5 -9,3 -4,-1 -2,4 h -4 l -3,3 h -3 l -5,-4 v -3 l -7,-2 -4,-6 3,-1 -2,-9 -5,-4 -11,-2 -1,-2 h -6 l -6,6 -2,-2 v 3 h -3 l -2,5 -4,2 -3,4 v 3 l -3,5 h -8 l 3,8 -5,6 v 5 l -3,2 -2,4 -9,-3 -11,-1 -7,10 -4,2 -3,6 4,10 -3,3 -1,4 2,10 -7,3 -7,-1 -7,8 -6,-1 -6,-4 -8,4 -11,1 -2,2 -6,9 -2,14 -2,4 -1,8 2,1 v 7 l -2,4 -14,3 -8,-2 -1,3 2,3 4,2 -1,4 h -3 l -1,3 -7,-3 -11,18 6,5 1,5 3,2 2,6 -3,3 v 5 l -6,5 v 3 l 3,8 7,3 -4,9 -12,4 2,4 4,1 2,3 v 5 l 5,1 10,9 h 5 l 1,5 5,7 5,-2 4,1 v 4 h 2 l 2,5 6,8 7,6 2,5 13,8 -1,6 h 8 l 2,3 -1,3 -3,2 v 9 l -2,3 1,3 -3,8 h -2 l -2,4 8,14 4,1 5,8 10,5 -1,7 -5,2 2,7 3,4 8,2 -1,15 2,2 -7,19 h 4 l 3,-2 v 2 l 4,-2 v 2 l 8,-1 6,2 2,-8 7,1 4,-4 10,3 v 2 l 4,2 v 3 h 3 v -4 l 9,3 1,-2 h 7 l 4,3 -2,3 6,7 -10,14.00004 13,5 2,-3 1,3 12,3 -6,12 -5,3 -3,4 12,9 v 14 l -2,9 h 2 l 1,-3 2,3 h 7 l 1,-8 2,2 3,-2 9,1 1,-3 h 2 l 1,-4 16,1 v 2 h 7 l 6,-4 3,-14 1,-3 3,-2 3,-11 -4,-12 -1,-9.00004 4,-11 4,3 2,-2 h 3 v -4 l -2,-2 -1,-5 2,-5 h 8 l 2,-4 4,-1 v -7 l 6,2 6,-2 h 8 l 1,5 7,3 8,-2 4,5 h 3 l 7,-5 h 5 l 12,-9 -4,-5 -3,-1 -4,2 -3,-3 h -3 l -1,-6 6,-1 1,-4 -3,-2 2,-2 5,1 4,-2 2,-4 v -6 l -3,-3 v -3 l 9,1 v -9 l 15,-22 -1,-6 2,-10 v -11 l 16,-7 4,3 12,-2 2,-2 h 30 l 1,-5 3,-2 2,-6 9,-4 z"
     id="临沂市" />
  <path
     stroke="#ffff00"
     stroke-opacity="1"
     stroke-width="0.5"
     stroke-linecap="round"
     stroke-linejoin="round"
     stroke-dasharray="none"
     fill="#1e90ff"
     fill-opacity="1"
     fill-rule="evenodd"
     d="m 381.99998,56.99996 2,-11 9,-11 -1,-11 -2,-2 h 2 l 2,-7 7,-7 -1,-3 2,-5 4,3 -2,13 1,3 3,1 5,-4 3,-6 6,4 4,-2 8,6 3,-8 4,-1 1,-2 6,-1 3,-4 v -4 l 4,-1 -4,-3 1,-7 h -4 l -2,-2 1,-3 5,-1 v -3 l 4,-8 2,-1 -1,-3 6,-3 5,-7 -7,-5 v -5 l -3,-3 h -6 l -1,-2 -3,-14 10,-5 -1,-16 -6,-5 -4,8 -3,15 -9,9 -3,8 -8,12 -3,2 -5,1 -6,-3 h -5 l -5,-3 h -6 l -16,8 -19,-4 -5,3 -23,-3 -12,6 -28,-5 -20,4 -12,-4 -2,1 v 6 l -7,8 -4,2 2,1 v 7 l -2,4 -6,-3 -1,2 2,5 -4,3 -3,-1 v 3 l -5,1 -4,13 -4,4 -2,-2 v 5 l -2,4 -7,9 -13,9 2,1 -4,4 -2,5 -5,2 -3,6 -7,7 -5,1 -4,6 -3,9 -8,-12 -4,-2 -1,-3 -4,-1 2,-6 v -5 l -2,-2 h -6 l -2,-5 -5,1 4,2 -7,3 -2,-2 v 4 l -3,3 1,8 h -3 v 4 l 5,1 -4,3 3,1 -2,2 1,2 -5,2 1,4 -5,-4 1,-2 -5,-2 -1,3 h -3 l 1,7 4,1 v 3 l -4,4 1,3 h 10 l -2,1 3,1 -1,2 3,4 -3,1 v 3 h -3 l -7,9 -10,-2 -6,-6 -16,5 h -13 l -2,4 -7,-1 -2,4 -4,-1 3,3 h -6 l -3,2 2,3 -3,1 1,2 2,-1 -4,11 2,6 -2,1 1,3 -2,2 2,1 -5,7 -3,-1 -4,3 -1,-2 v 3 l -3,3 -1,5 2,4 -9,9 v 4 l 2,3 -6,19 h -2 v 3 l -6,5 -2,4 -3,1 -1,6 -5,2 -3,5 2,2 v 4 l 2,-1 1,2 -6,10 -3,-1 v 5 l 5,4 -1,2 3,-3 h 6 l 1,2 2,-2 2,1 v -2 l 4,2 2,-1 1,2 -2,1 4,1 4,-5 1,4 9,4 22,3 11,-3 7,1 1,2 h 4 v -2 l 5,-2 2,2 13,-13 v -6 l 2,-3 2,-2 h 6 l -1,-2 3,-3 -2,-1 v -2 l 4,-2 2,-5 h -4 l 1,-5 2,-2 5,2 -1,2 2,4 3,-1 6,5 h 4 v 2 l 3,2 2,4 h 4 v -3 l 6,3 1,2 10,-1 4,-3 5,7 h 4 l 3,3 v 2 l -7,2 1,3 -2,2 3,1 1,3 -2,2 -3,-3 -3,1 v 5 l -2,3 5,1 -1,4 -5,1 v 8 l -3,4 2,6 -3,-1 -5,4 5,1 3,10 -5,12 5,7 2,19 -2,4 1,5 -1,11 -2,5 v 13 l 11,9 4,6 -1,5 2,4 5,1 2,-2 5,2 1,6 h 7 l -1,3 4,1 -1,2 17,-4 2,-2 -2,-14 -5,-2 v -2 l 2,-3 6,-1 1,-4 -5,-2 5,-9 h 5 l 3,-3 v -8 l 6,-1 3,-3 v -5 l 12,-4 5,-4 1,-6 3,-3 1,-10 5,-1 1,-4 7,-6 8,-2 6,-5 v -4 h -4 l -1,-6 2,-11 h 4 l -2,-4 2,-3 8,4 3,-1 1,-7 3,2 4,-1 -1,-24 -9,-5 h 3 l -1,-8 -6,-2 -3,1 1,-5 -4,-2 v -3 l -3,-2 5,-1 4,-6 9,-3 1,-2 -5,-5 -2,-10 v -3 l 3,-3 19,-7 h 10 l 1,-4 3,-1 -2,-7 2,-2 1,-5 -5,-5 -2,1 v -4 l -4,-3 4,-3 v -4 l 2,-1 -4,-8 h 3 l -10,-7 -4,-16 v -2 l 6,-6 -3,-5 6,-9 -2,-5 1,-5 3,-3 2,3 h 14 l 4,-7 -2,-4 3,-3 4,-2 2,3 8,-1 3,-3 h 6 l 8,-14 h 8 z"
     id="德州市" />
  <path
     stroke="#ffff00"
     stroke-opacity="1"
     stroke-width="0.5"
     stroke-linecap="round"
     stroke-linejoin="round"
     stroke-dasharray="none"
     fill="#1e90ff"
     fill-opacity="1"
     fill-rule="evenodd"
     d="m 194.99998,418.99996 1,-2 -4,-1 1,-3 h -7 l -1,-6 -5,-2 -2,2 -5,-1 -2,-4 1,-5 -4,-6 -11,-9 v -13 l 2,-5 1,-11 -1,-5 2,-4 -2,-19 -5,-7 5,-12 -3,-10 -5,-1 5,-4 3,1 -2,-6 3,-4 v -8 l 5,-1 1,-4 -5,-1 2,-3 v -5 l 3,-1 3,3 2,-2 -1,-3 -3,-1 2,-2 -1,-3 7,-2 v -2 l -3,-3 h -4 l -5,-7 -4,3 -10,1 -1,-2 -6,-3 v 3 h -4 l -2,-4 -3,-2 v -2 h -4 l -6,-5 -3,1 -2,-4 1,-2 -5,-2 -2,2 -1,5 h 4 l -2,5 -4,2 v 2 l 2,1 -3,3 1,2 h -6 l -2,2 -2,3 v 6 l -13,13 -2,-2 -5,2 v 2 h -4 l -1,-2 -7,-1 -11,3 -22,-3 -9,-4 -1,-4 -4,5 -4,-1 2,-1 -1,-2 -2,1 -4,-2 v 2 l -2,-1 -2,2 -1,-2 h -6 l -3,3 1,-2 -3,-3 -3,6 -5,-1 -1,3 -6,4 -6,14 1,4 -2,5 h -5 l -7,5 -17,7 -3,-3 v 3 h -2 l -1,-3 h -3 v 4 l -2,-1 -2,4 -4,-3 -7,4 -1,5 -4,4 v 5 l -2,1 -1,6 -7,2 -4,8 -5,2 1,3 -6,8 -3,-2 -3,5 2,2 -2,1 -1,3 h 3 l -4,4 -1,10 -6,7 h -5 l 2,2 v 4 l -2,4 h -4 l 3,4 v 3 h 2 v 5 l 2,-2 4,4 v 7 l -1,-1 -4,7 11,5 3,11 5,7 v 3 l -3,4 2,3 7,-4 6,-1 2,1 v 6 l -2,4 5,5 h 7 v 8 l 3,1 v 17 l 3,17 -3,14 -2,1 v 4 h -2 l -1,3 1,3 -5,2 2,3 v 11 l -7,2 -6,5 -3,5 -6,1 -2,5 v 6 l 3,5 -3,16 h -3 l -1,2 3,1 -4,20 7,6 2,-3 10,-6 2,-6 4,-2 v -2 l 7,-9 7,-4 2,-5 -1,-4 4,-2 v 5 l 2,3 9,-3 9,-7 6,-2 9,2 2,-3 9,-4 1,-4 3,-3 4,-2 4,1 11,-2 v -2 l 3,-3 -2,-1 5,-4 10,-2 6,3 3,-4 6,-3 6,2 5,-4 13,-5 11,-8 7,-11 11,-2 6,-8 10,-3 v -7 l 16,-1 14,-16 13,-22 12,-4 8,-5 9,-1 2,-5 h 9 l 5,-10 6,-6 z m -271,164 -2,5 4,-3 h 3 l -2,-3 z"
     id="聊城市" />
  <path
     stroke="#ffff00"
     stroke-opacity="1"
     stroke-width="0.5"
     stroke-linecap="round"
     stroke-linejoin="round"
     stroke-dasharray="none"
     fill="#1e90ff"
     fill-opacity="1"
     fill-rule="evenodd"
     d="m 381.99998,56.99996 3,4 v 4 h 6 l 2,3 -1,4 -7,3 v 2 l 6,3 -3,3 3,2 12,-1 4,5 -3,9 15,14 -2,3 v 11 l 2,8 3,3 4,12 -3,-2 -2,4 1,1 h -5 l -2,5 11,17 4,20 -5,5 -13,4 -6,4 -8,-1 1,5 -3,7 -3,2 v 3 l 13,8 3,12 3,2 4,-1 v 2 l 2,-3 1,2 16,-3 -1,-2 5,-2 4,1 2,4 5,-6 3,-1 2,3 -2,2 4,1 v 5 l -3,2 v 2 l -4,-3 -1,4 9,5 4,7 -2,10 1,3 7,10 10,5 8,7 5,10 7,-1 6,2 -3,7 1,2 -6,8 16,1 1,-3 3,-1 v -4 l 8,-14 2,6 5,-2 v -5 l -3,-4 -4,1 v -4 h -2 l -1,-3 2,-2 v -7 l 3,-4 -1,-6 7,-1 2,-2 h 7 v -2 l 7,1 v -4 l 6,-4 v -3 h 2 l 3,-3 v -3 l -3,1 -2,-4 -2,5 1,-6 -6,-6 -2,-10 -9,-1 -1,-12 -7,-1 2,-13 -20,-1 -8,2 -3,-2 -14,-1 -17,-6 -4,2 -4,-1 -2,-7 2,-1 -1,-2 -4,-1 -1,-8 5,-1 4,-3 3,-14 4,-3 3,-5 4,-12 4,-3 5,1 4,4 9,3 12,1 11,-10 9,-2 7,3 2,4 6,-1 8,-5 2,4 -1,2 5,-3 7,3 1,5 -4,3 -2,7 2,-1 1,3 3,-1 4,2 2,-1 1,-4 h 3 l 3,2 v 3 l 5,-1 4,8 -3,2 1,3 -3,2 -1,4 6,10 -6,4 h -3 v 3 l 3,1 1,4 6,-3 7,-1 1,-2 4,3 1,9 h 5 l 1,2 -2,1 v 2 l -3,1 v 13 l 3,1 v 4 h 3 l -1,2 9,2 v 3 l 4,1 6,-3 1,-4 h 3 l 1,-5 h 3 l 2,-2 4,3 6,-10 4,-2 v -3 l 3,-3 v -16 l 3,1 -3,-7 h 2 l -1,-3 2,-3 2,1 1,-3 4,-2 1,-7 2,-1 -3,-9 -3,-1 -5,-8 1,-3 h 3 l 2,-5 h 2 l -1,-5 h -3 l 2,-2 -7,-2 v -3 h -4 v -3 h -2 l -1,-15 h -7 v -4 h -7 v -5 l -4,1 v 3 h -6 l -1,-6 -15,7 -1,-4 h -4 l -1,-3 2,-2 5,1 v -9 l -3,-7 -9,-1 2,-6 -3,-1 2,-6 4,-5 v -7 h 2 l 4,-7 4,-2 v -6 l -9,3 v -5 h -2 l -1,-2 7,-9 v -8 l 2,-1 1,-4 9,-8 1,2 h 5 l 4,2 1,-1 4,2 6,-3 6,-7 -1,-2 3,-8 1,1 v -5 l 5,-1 1,-5 3,-1 v -3 l -3,-2 v -3 l 2,-6 h 3 l -2,-7 1,-2 -3,-2 v -2 h -3 l 2,-2 -4,-9 -3,1 -3,-3 -4,5 -5,1 -2,3 -3,-9 v 4 l -2,-3 -1,-5 2,-4 -3,-9 h -2 v -9 l -3,1 v -2 l 3,-2 -1,-7 2,-2 -1,-30 3,-1 2,-7 -1,-3 -3,-2 4,-8 -7,-1 -10,-13 -17,-8 -17,-1 -3,3 -4,1 -6,-3 -26,-22 v -8 l -9,9 -3,7 -10,8 -5,16 3,2 -2,2 -6,1 -1,11 -6,3 -4,9 -6,6 -7,-1 -3,2 -13,2 -3,-2 -10,3 -2,2 1,6 -4,4 -1,5 6,5 1,16 -10,5 4,16 h 6 l 3,3 v 5 l 7,5 -5,7 -6,3 1,3 -2,1 -4,8 v 3 l -5,1 -1,3 2,2 h 4 l -1,7 4,3 -4,1 v 4 l -3,4 -6,1 -1,2 -4,1 -3,8 -8,-6 -4,2 -6,-4 -3,6 -5,4 -3,-1 -1,-3 2,-13 -4,-3 -2,5 1,3 -7,7 -2,7 h -2 l 2,2 1,11 -9,11 -1,7 z m 292,-161 3,1 v -9 h -2 z"
     id="滨州市" />
  <path
     stroke="#ffff00"
     stroke-opacity="1"
     stroke-width="0.5"
     stroke-linecap="round"
     stroke-linejoin="round"
     stroke-dasharray="none"
     fill="#1e90ff"
     fill-opacity="1"
     fill-rule="evenodd"
     d="m 21.99998,591.99996 -1,3 v -5 l -3,5 h -5 v 3 l -5,-1 -1,2 -11,-3 -3,5 h -3 l 1,2 h -5 l -2,5 h -2 l -1,5 -2,-1 -1,5 h -2 l -1,11 -19,5 h -8 l -1,2 -6,-2 -2,3 -5,-2 -2,3 h -4 l -13,14 -2,7 -9,11 -1,7 -6,8 h -2 v 3 l -3,-1 v 4 l -3,-2 v 3 l -3,1 v 2 l 3,1 -2,4 2,7 -1,6 -4,-1 -8,4 -10,7 1,3 -9,8 h -26 l -3,1 -2,6 v -6 l -1,5 h -2 l -4,-4 -1,7 -3,6 -8,-1 -7,12 -1,7 h -2 l -5,5 -6,9 3,1 v 3 h -4 l -1,2 -6,2 v 16 l -18,5 -5,7 v 3 l 8,7 3,9 -6,5 -8,3 -3,7 4,3 h 4 l 1,2 -2,4 -5,4 8,2 3,-7 4,1 -1,6 2,3 5,1 4,7 6,-6 h 16 l 5,5 2,-3 4,-1 6,-5 14,-1 v 6 l 4,1 3,4 v 3 l 5,-1 7,3 4,-3 1,5 -3,1 -2,9 13,2 -4,10 1,8 4,2 4,-3 4,1 4,-3 h 3 l 16,10 4,-1 4,2 2,4 -1,1 4,1 5,19 -4,6 3,5 v 11 l 4,6 v 6 l 5,3 9,14 5,3 11,1.00004 12,-2.00004 12,6.00004 h 4 l 3,-4 1,-9.00004 h 3 l 2,2 11,1 9,3 8,7.00004 3,-1 -1,-2 34,-5.00004 4,-2 v -6 l 5,-3 9,8 11,-5 5,1 6,10 6,6.00004 13,-7.00004 h 5 l 4,7.00004 4,1 1,-5 h 2 l 7,-13.00004 10,2 2,-6 h 4 l 6,-4 -2,-6 7,-18 -7,-2 v -8 l 2,-2 8,-2 2,-31 -10,-4 -2,2 -8,-1 -2,-4 -10,-2 -5,-5 -14,-5 -3,-2 -2,-6 -10,-2 4,-6 v -3 l -8,-6 -6,-10 1,-9 h 6 l -1,-2 4,-9 h -4 l 4,-8 7,1 11,-19 -3,-8 4,1 1,-4 4,4 5,1 5,-16 -4,-9 -12,3 -2,-10 -4,-4 -2,-10 2,-3 4,-1 2,-7 -3,-12 1,-8 h -3 v -10 h -4 v -3 l -3,3 v 5 l -5,1 1,-8 -3,1 -6,-2 v -4 l -2,-3 1,-13 -2,-12 2,-5 -2,-8 5,-6 -4,-12 -8,-8 -2,-4 -10,-7 -6,-7 -13,-8 -12,-5 1,-2 -4,-2 -3,2 -4,-1 -2,-4 v -5 z"
     id="菏泽市" />
</svg>