<svg xmlns="http://www.w3.org/2000/svg" id="svg1" version="1.1" viewBox="-251 -228 2035 1289">
  <path id="济南市" fill="#ff6347" fill-opacity="1" fill-rule="evenodd" stroke="#ffffff" stroke-dasharray="none" stroke-linecap="round" stroke-linejoin="round" stroke-opacity="1" stroke-width="0.5" d="m195 419-11 13-5 10h-9l-2 5-9 1-8 5-12 4-13 22-14 16 6 7 3 9 3 4v21l6 4h2l2-7h4l3-2 6-8 7-2 3 2v3l3 2h4l2 3v7l4-3 1-4 4-2h9l7-3 6-11h3l1-3-2-1-1-4-4-2-5 2 1-3-5 1 5-9-4-2-3-6-5-1-2-6 4-4-1-2 5-2 2-4h3l3 3 4-1 2-4 4-1 2 2 1-4 4-1 2-6 6-2 4 1 7 6 9-1 16-11 4 1 5 4 6 1 6-2v3l4 3 1 6 5 2 9-4 1 2 5 2 1-1 5 5 7-3v-4l7-1v-3l12-6v-8l3-7 13 3 1-3 10-3v-6l3-2 4-8 9-4 2-7 3-3 4-1 3-8 5 1v2l10 1-2 12 3 15 9 13 1 4-3 3 2 10h3l-1 6 5-1 1 8-6 2 1 7 4 2 4-4 5 1v5l-2 4 2 1 3 6 4-1 3 4-3 3h-4l-3 9 4 2-2 1v4l-2 3 1 1 6-1 2-3 6 1 7-5 4 2 3 9 11 1 14 8 8-1 9 7 5-2 3 6v8l2 1 5-2v-3l3-3 9 2 3-1 4 2 10-5h5l6 8h3l-2-7h2l-1-8-3-3v-3h4l-2-3 1-3h2v-3l-2-3-1 2h-3l-2-8-3-4 1-3-2-4 3-3-2-3h-2l3-9 2-1 2 2 4-3 4 1 2-4-1-3 3-12-1-2-7-2-3 1-2-2v-11l-2-1v-3l4-3v-2l-5-4-3 1-2 4v-7l-1-2-2 3-1-4-5-6-1-8-7-1-1-3 2-6h-3l-1 3-5 1v-2l-3 1-2-2-6-1 2-3-2-2 3-3-5-3 3-2-1-4h-3l-2-2 8-2-4-5h-2l-1-5-4-2-1-4-7-3 4-4 2 1-2-5 2-2-7-1 4-1v-2l3 1-2-13-3-1 1-10 4-2 1-4 5-6-1-2 3-7-6-2-7 1-5-10-8-7-10-5-7-10-1-3 2-10-4-7-9-5 1-4 4 3v-2l3-2v-5l-4-1 2-2-2-3-3 1-5 6-2-4-4-1-5 2 1 2-16 3-1-2-2 3v-2l-4 1-3-2-3-12-13-8v-3l3-2 3-7-1-5 8 1 6-4 13-4 5-5-4-20-11-17 2-5h5l-1-1 2-4 3 2-4-12-3-3-2-8v-11l2-3-15-14 3-9-4-5-12 1-3-2 3-3-6-3v-2l7-3 1-4-2-3h-6v-4l-3-4-11 1-8 14h-6l-3 3-8 1-2-3-4 2-3 3 2 4-4 7h-14l-2-3-3 3-1 5 2 5-6 9 3 5-6 6v2l4 16 10 7h-3l4 8-2 1v4l-4 3 4 3v4l2-1 5 5-1 5-2 2 2 7-3 1-1 4h-10l-19 7-3 3v3l2 10 5 5-1 2-9 3-4 6-5 1 3 2v3l4 2-1 5 3-1 6 2 1 8h-3l9 5 1 24-4 1-3-2v5l-4 3-8-4-2 3 2 4h-4l-2 11 1 6h4v4l-6 5-8 2-7 6-1 4-5 1-1 10-3 3-1 6-5 4-12 4v5l-3 3-6 1v8l-3 3h-5l-5 8 5 3-1 4-6 1-2 3v2l5 2 2 14-8 4z"/>
  <path id="青岛市" fill="#ff6347" fill-opacity="1" fill-rule="evenodd" stroke="#ffffff" stroke-dasharray="none" stroke-linecap="round" stroke-linejoin="round" stroke-opacity="1" stroke-width="0.5" d="m1303 354-17 8-2-4-5-2-2-3-6-3-5 1v3l-2 2 1 3-6 3h-4l-7 4 2-16h3l1-7-3-3 1-2-3-1-4 2-2-10-7-1-1-2 2-2-3-9-9-3-2-8 4-3 2-8 10-1 3-7-1-2-6-3 2-3-4-2-1-7h5l7-3v-6l-7-1-5-5-1-7-3-4 2-1v-6l2-1v-4l2-1 3 3 3-3-1-4 3-3-2-8h-5l-1-3-3 4-3-1-3 2-4-4 2-2-1-7 3-10-1-5-4-3v-2l-6-1-3 4v3l-8 3-6-2v2l-6 2-2-1v6l-5-3h-5l-2 1-3 8-5-12-3 2-5-4 1-3-6-1-4 6-7-4-2 12h-2l-2 6 1 4-3 6-3 2-1-2-3 2-2-1-1 6-2 1h-4l-2-3-9 3-13-2-4 7h-3l-5-5-3 1-3-2-1 2-4-1-3 3h-3l-4 4-18-3-8 1-4-5-9 2v4l-5 2-8-1-1-5-9 3-14-6-5 1-6 21 4 9-1 21-7 16-1 1-4-2-3 3-2 11 1 7 3 6 4 1 2 3h3l11 24 15 10 5 1 7 7v6l5-3 9 6 11 4 24 5 1 10 4-1v-4l3-3 6-1v2l6 4 4-2-2 7 2 1-2 2 2 8-4 2h-12l-4 6v3h-2v5l4 3 1 3-11 1-3 20-7 3v2h-3l-1 4-4 4-1 6-2 1v4l-4 4 3 6 3 1-2 3 3 6-3 1v2l-2-1v2l-6-1-2 2-3-1-6 3-4-1v-3l-2-1h-8l-3-2-3 1-5 15-2 1 4 6v3l-7 3 1 7 8 2 2-1 6 4 2-1 3 4-3 5-6 5 2 4-1 5 4 13v6l4-1 5 20h-4l1 2-2 2-3-4-5 1-2 6-7-1-6 4-1 5-3 1-1 5 3 3-2 4-4 1-1 6 9 10-1 3h-15l-1-3h-9v-3l-2 3 1 2-2 6 3 7-2 19 5 3v5l5-1 5 2 4-4 2 3 4-5 9 5h8l9-8 9-1v9l3 4 4-2 2 2 4-1-2-4 2-2v-3l-2-2 8-10 2 9 3-2 6 5 2-1 7-7 6-1v-4l-4-3v-5l3-7 8-5v-4l-6-1-2-3 1-6 3-2 6 1 2 6 4 4-1 4 5-1 3 2 2-3 3-9 2-1 1-7 2-2-2-5-3-2 1-6 7-15 4-5 2 2 8-3 2-2v-3l5-1-1-4 2 4h2l6-9 7-3 1 2-4 2-6 9v5l4 1 4-2 2-8 13-15h6l5-2 3-10-1-4-5-1-4 4 1 3-2 1-2-2-2 6-2-1v-3l4-7-2-3-11 8-4 1 9-11-1-4 3-1v-4l-15-2-2-4-3-1-3-4-9-3-2-8h5l4-5-1-9 11-10 9-3 2 7 2 1 3-4 4 1 1 5 3-1 1 2 3-2h5l1-4-4-2-2-5 1-2 6-2 10 10 3 7-3 1v3l-3 3-5 14-4 4v4l-6 13h3l-1-2 3 1 2-3h3l-1 3 4-2v4l5-2 2 3 1-4 5-2v2h4l5-1 3-3 2 1 6-8h8l7-2 6 1v-6l5 1 2-3 1 4h5l4-5 5 2 10-5 10 1 2-3-1-2h-2l-2-6h2v-2l-3-1v-11l-4-11 2-4v-9h-9l3-6-2-8 2-3 19 3 2-2-5-10h-3l-1-3-3-1-1-6 4-6 4-1v-3l3-3 6-1-1-9 18-1 4 3-1 6 5 4v4l-2 2 1 8 5 3-1 2 7-3-2-4 3-6 4-4 3 3 2-3h-3l-2-2-2-6 3-3h4v2l3-1 1-3 3-1 1-5-3-3v-6l7-11-5-7-7-1-3-2-3 1-5-3-2-7-5-2zm-69 165-1 2h4l-2-3zm105-101-5-6-6 3 1 3 8-1zm3-24-3-1-1 2zm-32 190-1 1 4-2zm-294 94 1 4v-5zm109-53-1 4 4 3 4-2 2-3-3-3-1-7-2 1zm158-151-1 2 2 3z"/>
  <path id="淄博市" fill="#ff6347" fill-opacity="1" fill-rule="evenodd" stroke="#ffffff" stroke-dasharray="none" stroke-linecap="round" stroke-linejoin="round" stroke-opacity="1" stroke-width="0.5" d="M566 566h8l3-5v-3l3-4 4-2 2-5h3v-3l2 2 2-1 1-3 3-2h6l1 2 11 2 5 4 2 9-3 1 4 6 7 2v3l2 2 6 2 3-3h4l2-4 4 1 9-3 2-5 5-1 2-4 7-1 4 7 7 5 3-3 9-1-1-4-4-4 2-2-6-8 2-3 3 2h4l1-2 2 2 2-6-3-7 1-1-2-2-3 2-4-2-1-7 2-2-2-5 4-3-8-4-1 3-3-3-1 3h-10v-10l-4-4-4-9 2-1 2-10-10-8-9 4-2-1 3-11-2-2 1-3-3-6-3-1 2-4-10-2 1-2-6-8-1-4 4-4-1-3-5 1-1-2 2-14-4-7v-6l-2-2v-7l3-2-8-5-3-11v-4l9-9-2-5h-2l5-4 1-4 2 1-1-3h-2v-4l3-4 4 1-4-2 2-5-2-2 1-2 5-2 6 4 2-1-3-7 2-3h5v-8l2 1 3-2 1 3 7 1 10-7 8-2 5-4-1-9h4l1-7 2 1v3l5-2v-2l-4-1 4-6v-6l-2-2 6-6-1-6h-23l-1-2h-3l-1-8h-8l-2 4-5-1-1-3-7 1-1-8-5-4-2 2h-3l-1 5h-3l-1 4-6 3-4-1v-3l-9-2 1-2h-3v-4l-3-1-1-7 1-6 3-1v-2l2-1-1-2h-5l-1-9-4-3-1 2-7 1-6 3-1-4-3-1v-3h3l6-4-6-10 1-4 3-2-1-3 3-2-2-6-2-2-5 1v-3l-3-2h-3l-1 4-2 1-4-2-3 1-1-3-2 1 2-7 4-3-1-5-7-3-5 3 1-2-2-4-8 5-6 1-2-4-7-3h-4l-5 2-9 9-6 1-17-4-4-4-5-1-4 3-4 12-3 5-4 3-3 14-4 3-5 1 1 8 4 1 1 2-2 1 2 7 4 1 4-2 17 6 14 1 3 2 8-2 20 1-2 13 7 1 1 12 9 1 2 10 6 6-1 6 2-5 2 4 3-1v3l-3 3h-2v3l-6 4v4l-7-1v2h-7l-2 2-7 1 1 6-3 4v7l-2 2 1 3h2v4l4-1 3 4v5l-5 2-2-6-8 14v4l-3 1-1 3-16-1v2l-4 2-1 10 3 1 2 13-3-1v2l-4 1 7 1-2 2 2 5-2-1-4 4 7 3 1 4 4 2 1 5h2l4 4-8 3 2 2h3l1 4-3 2 5 3-3 3 2 2-2 3 6 1 2 2 3-1v2l5-1 1-3h3l-2 6 1 3 7 1 1 8 2 1 4 9 2-3 1 2v7l2-4 3-1 5 4v2l-4 3v3l2 1v11l2 2 3-1 7 2 1 2-3 12 1 3-2 4-4-1-4 3-2-2-2 1-3 9h2l2 3-3 3 2 4-1 3 3 4 2 8h3l1-2 2 3v3h-2l-1 3 2 3h-4v3l3 3 1 8h-2l2 7h-3v5l2 6 2 1 5-4h5l-2 5z"/>
  <path id="枣庄市" fill="#ff6347" fill-opacity="1" fill-rule="evenodd" stroke="#ffffff" stroke-dasharray="none" stroke-linecap="round" stroke-linejoin="round" stroke-opacity="1" stroke-width="0.5" d="m413 999 2 2 1 7 5 3v4l4 2-1 1 4 3 3 7h6v5l2-2 11 2 3-2 5 3h6l5-8h5l3-2 1 1 7-7 3-10 30 9-3-21 2-11-1-10 3 2 7-19-2-2 1-15-8-2-3-4-2-7 5-2 1-7-10-5-5-8-4-1-8-14 2-4h2l3-8-1-3 2-3v-9l3-2 1-3-2-3h-8l1-6-13-8-2-5-7-6-8-13h-2v-4l-4-1-5 2-5-7-1-5h-5l-7-7-8-3v-5l-2-3-4-1-5-7-1-6-11-5-3 1-8-2-2 3 1 8-2-3-4-1-7 4 2 8-13-1-4 2-1 3-12 5h-8l-8 4-7-3-3 2h-6l-4 2-5 6-6 3-2 3-6 2-4-3h-5l-2-4-5 2-3 5-3 1-5-5-6 2v6l4 4 1 7 8 10h7l3 7-5 2v2l5-1 2 4 11 9 1 8-3 6 10 11 9-1 7 3-1 3h9l2-3 5-1 2 10h3l1 13 8 9 10 6-4 5h-2l-3 5 8 1 8 11h4l1 5 3 2 4-1 2 3h9l4 4-1 2 3 2-2 4 5 2 2 6 3 1 3 9 1-2 7 1v4l-3 2-1 5z"/>
  <path id="东营市" fill="#ff6347" fill-opacity="1" fill-rule="evenodd" stroke="#ffffff" stroke-dasharray="none" stroke-linecap="round" stroke-linejoin="round" stroke-opacity="1" stroke-width="0.5" d="m632-142-4 8 3 2 1 3-2 7-3 1 1 14 49-5v9l-3-1-47 9v13l-3 2v2l3-1v9h2l3 9-2 4 1 5 2 3v-4l3 9 2-3 5-1 4-5 3 3 3-1 4 9-2 2h3v2l3 2-1 2 2 7h-3l-2 6v3l3 2v3l-3 1-1 5-5 1v5l-1-1-3 8 1 2-6 7-6 3-4-2-1 1-4-2h-5l-1-2-6 4-4 8-2 1v8l-7 9 1 2h2v5l9-3v6l-4 2-4 7h-2v7l-4 5-2 6 3 1-2 6 9 1 3 7v9l-5-1-2 2 1 3h4v4l16-7 1 6h6v-3l4-1v5h7v4h7l1 15h2v3h4v3l7 2-2 2h3l1 5h-2l-2 5h-3l-1 3 5 8 3 1 3 9-2 1-1 7-5 5-2-1-2 3 1 3h-2l3 7-3-1v16l-3 3v3l-4 2-5 7-1 3 2 9 7-1 1 3 5 1 2-4h8l1 8h3l1 2 16-1 3-4 7 2v3l5-1 3 3 5-1 1-2v-10l-2-1 1-6 6 1-3-1 1-2 5 1-2-2 1-3-4-2h-6l-1-5 4-1 1-7h4l3-2 5 2 6-1 6-5h2l2-20-5-2-1-4h-4v-3l3-2 1-3h3l5-13 8-4 17-13 12-3 56-5-10-4-4-7v-9l6-1 1-2-3-2h-6l-9-37-1-10 8-22 5-8 9-7 24-2 9-3 21 1 7-2 5-11 5-20 2-16-1-14-3-7-8-4-6 1-7 13-13 6-7-3-3-12v-10l-3-8-27-23-8-34-11-11-14-7-6-2h-20l-39 6-5 3v9l-2 7-12 8-4-3-8-16-6-3-8-1-5 6h-3l-7-5-8 1-22-6zm43 30-47 5-1 12 47-9z"/>
  <path id="烟台市" fill="#ff6347" fill-opacity="1" fill-rule="evenodd" stroke="#ffffff" stroke-dasharray="none" stroke-linecap="round" stroke-linejoin="round" stroke-opacity="1" stroke-width="0.5" d="m975 188-2 9 2 4-4 5 1 5 12 8-1 6 5-1 14 6 9-3 1 5 8 1 5-2v-4l9-2 4 5 8-1 18 3 4-4h3l3-3 4 1 1-2 3 2 3-1 5 5h3l4-7 13 2 9-3 2 3h4l2-1 1-6 2 1 3-2 1 2 3-2 3-6-1-4 2-6h2l2-12 7 4 4-6 6 1-1 3 5 4 3-2 5 12 3-8 2-1h5l5 3v-6l2 1 6-2v-2l6 2 8-3v-3l3-3h6v2l4 3 1 5-3 10 1 7-2 2 4 4 3-2 3 1 3-4 1 3h5l2 8-3 3 1 4-3 3-3-3-2 1v4l-2 1v6l-2 1 3 4 1 7 5 5 7 1v6l-7 3h-5l1 7 4 2-2 3 6 3 1 2-3 7-10 1-2 8-4 3 2 8 9 3 3 9-2 2 1 2 7 1v3l3 3-1 4 4-2 3 1-1 2 3 3-1 7h-3l-2 16 17-7-1-3 2-2v-3l5-1 6 3 2 3 5 2 2 4 17-8-1-2 9-2 6 1 5 3 1 7 7 5 19 1 4-2 8-9 10-5 12-9 9-1 6-6h8l9-9 18-4h2l3 4 8-1 1-4-2-3-3-1 1-3 5-3 10-2 6-6-7-6-14-1 1-3-6-9v-3h-4l-1-4v-4l8-4-6-6 1-2-2-6h-3l-9 5-2-4h-6l-8-6-1-5-3-2-3-9h-4l-7-3v-7l4-3-2-1 1-14 13-6 1-4 10-10 5-2h2l1 3 6 2 5-5 1 4-3 1 5 5 1-2 2 1 2 5 9-1 6-7 13 6h12l7-2 2 1 2-3v-9l3 1 3 5 4-4h3v2l7 4 1 3 3-7h2l-2-3h3l1 5h9l1-3h3l5-12-2-2-2 2-1-1 3-1v-4l2-2-2-7-1 2v-3h-2v-6l2-2 5-1 5-18 5 2 5-6 7-4 2-13 10-10 7-17-3-6h-22l-17 2-27-3-3-6h-6l-8 8h-4l-3 9h-2l-7-3-2-4h-4l-9-4-5-6v-9l-6-7-6-2-3-3-2-10-2-1 1-2 5 2 8-1-1-2-7-3-6-6-10-2-1 2 4 4-1 7-13 4h-23l-12-6-5-6 3-9-1-3-4-2 5-12-3-7-14-1-5 2-2-2-3 3-5-1-5-4v-4l-17-11-3-6 2-1v-5l-3-3h-9l-3-3-20 3-9-3-4 1-2-3-3 2-2-1-20 14h-9l-7 8-4 2-13 1-3 2-12-2-6 1-2 4-18 15-37 1-2 2 1 5 6 5 6-1 1 7-2 3-4 2-10 2 2 4-2 5 9 10-6 8-6 3-1 4-13 10-15 5-5 5-14 2-7 6-9 2-3 8-3 3-21 3-2 11 3 2 1 3 8 5v10l3 2-1 3-8 1v3h7l-6 6-9 3-6 9-7 7-2 5-8 8-4-3h-10v-4l-14 5zm497-137 5-3-2-1-3 2zM1272-78l-2 1v4l2 1v3l-2 1 1 3h4l5 6 1-2-2-5 2-4-5-9-2-1zm-10-12 1 4 10 4 1-4h-2l-2-5-7-2-3 1zm-10 2-2 5h2l1-4zm-52 68 3-5-2-1-5 1 2 5zm60-52 2-6-3 1v3l-2 2zm17-72 3-3h7l-3-4-4-2-4-8-2 13zm43-64-1-3 2-3h-2v-3h-3l-2 3 3 5zm-19 3 4-2-4-4zm15-15h8v-3l-4-4-5 5zm-71 143 2-11-5-2-3 2-1 3 2 4zm45-111 4-1 2-3 5-1 2-4-4-3-5 1-5 10zm37 87 2-2-1-3h-4v2zm-289 231 1-2-2-1zm403 335 2 1-1-3zm-191-603 2-3-1-3-3 4zm60 34v3zm-60-9 2-1v-4h-2l-1 3z"/>
  <path id="潍坊市" fill="#ff6347" fill-opacity="1" fill-rule="evenodd" stroke="#ffffff" stroke-dasharray="none" stroke-linecap="round" stroke-linejoin="round" stroke-opacity="1" stroke-width="0.5" d="m700 526 4-3 1-3v-3l-6-1 1-3 2 2 6-5 6-2v-5l2-3 3 2 6-4 4-5 5 2 1-2 5 3h3l2 3-1 2 6 3v-2l3-1 3 4 3-2-1-6h2l2-5-1-3 5-5 5 3 5-2 1 2 7-2 3 1 1 4-2 1 1 4 3 3v15l2 1-1 4 5 5 7-2 3-5-1-2h5l2-2 3 2 1 3h3l5 3 8-3 4 4 3-1 5 4-7 8v4l3 2-1 4h-8l-1 4h3v3l-3 2 2 6 8-1 7 7 11-1 8-3v2l6-2 2 17h-4l-9 8 6 3 1-4h2l6 5h6l6-1 11-9h3l1 6 5 2 7-2 4 3 3 7-3 5 4 9-2 15h2l14-10 9-2 7 6 1 3-2 2v6l4 1 6 6v3h9l1 3h15l1-3-9-10 1-6 4-1 2-4-3-3 1-5 3-1 1-5 6-4 7 1 2-6 5-1 3 4 2-2-1-2h4l-5-20-4 1v-6l-4-13 1-5-2-4 6-5 3-5-3-4-2 1-6-4-2 1-8-2-1-7 7-3v-3l-4-6 2-1 5-15 3-1 3 2h8l2 1v3l4 1 6-3 3 1 2-2 6 1v-2l2 1v-2l3-1-3-6 2-3-3-1-3-6 4-4v-4l2-1 1-6 4-4 1-4h3v-2l7-3 3-20 11-1-1-3-4-3v-5h2v-3l4-6h12l4-2-2-8 2-2-2-1 2-7-4 2-6-4v-2l-6 1-3 3v4l-4 1-1-9-35-10-9-6-5 3v-6l-7-7-5-1-15-10-3-9-8-15h-3l-2-3-4-1-3-6-1-7 2-11 3-3 4 2 1-1 7-16 1-7v-14l-4-9 3-13 2-2 2-12-12-8-1-5 4-5-2-4 2-9-22-1-2-8-1 1 3 6-12 1-5 2h-15l-6 3h-4l-7-8-2-8 1-13-4-2h-10l-5-4-4 1-1 9-3-1v-8l3-8v-2h-3v-2l5-5-2-2-17 16-2-2 3-8v-6h4l2 2 1-1-3-3-6 1v7l-2 2-9-1-2 6h-4l-4-5v-7l-3-9-56 5-12 3-17 13-8 4-3 10-2 3h-3l-1 3-3 2v3h4l1 4 5 2-2 20-14 6-5-2-3 2h-4l-1 7-4 1 1 5h6l4 2-1 3 2 2-5-1-1 2 3 1-6-1v19l-5 1-3-3-5 1v-3l-7-2-3 4 7 1 1 6-6 6 2 2v6l-4 6 4 1v2l-5 2v-3l-2-1-1 7h-4l1 9-5 4-8 2-10 7-7-1-1-3-3 2-2-1v8h-5l-2 3 3 7-2 1-6-4-5 2-1 2 2 2-2 5 4 2-4-1-3 4v4h2l1 3-2-1-1 4-5 4h2l2 5-9 9 1 11 2 4 8 5-3 2v7l2 2v6l4 7v8l-2 6 1 2 5-1 1 3-4 4 1 4 4 4 2 4-1 2 10 2-2 4 3 1 3 6-1 3 2 2-3 11 2 1 9-4 10 8-2 10-2 1 4 9 4 4v10h10l1-3 3 3 1-3 7 3 1 1-4 3 2 5-2 2 1 7 4 2z"/>
  <path id="济宁市" fill="#ff6347" fill-opacity="1" fill-rule="evenodd" stroke="#ffffff" stroke-dasharray="none" stroke-linecap="round" stroke-linejoin="round" stroke-opacity="1" stroke-width="0.5" d="m160 912 11-15 7 1 6-2 14-1 14-5 2-5 9 3 5-1 1-2 14 5 12 2 2-7h2l-3-2-1-5 2 1v-5l4 1-1 14h3l-1-13 2 1 2 11 9 1 5 5 12 5v7l11-1 3 2-11 2-2 6h10l3 9-7 2v5l4 3v3l3 1v2h3l1 2h7l13 14-1 2 2 3-4 7 3 11 3 1 5-4 5 14 8 14-3 7v5l4 13 2 14h9v-2l6-1v-2h6l2-3v-4l-3-2 3-2v3l2 1 1-2-2-5 4-2-1-9 8-3 1-3-8-2 9-5-1 4 4-2 3 1-2-2 7-5 4 2 1-2 6 3 1-9 3-2v-4l-7-1-1 2-1-5-2-4-3-1-2-6-5-2 2-4-3-2 1-2-4-4h-9l-2-3-4 1-3-2-1-5h-4l-8-11-8-1 3-5h2l4-5-10-6-8-9-1-13h-3l-2-10-5 1-2 3-4-2-5 2 1-3-2-1-5-2-9 1-4-4-6-7 3-6-1-8-11-9-2-4-5 1v-2l5-2-3-7h-7l-8-10-1-7-4-4v-6l6-2 5 5 3-1 3-5 5-2 2 4h5l4 3 6-2 2-3 6-3 5-6 4-2h6l3-2 7 3 8-4h8l12-5 1-3 4-2 13 1-2-8 7-4 4 1 2 3-1-8 2-3 8 2 3-1 10 4 2 7 3 3 12-4 4-9-7-3-3-11 6-5v-5l3-3-2-6-3-2-1-5-6-5 11-18 7 3 1-3h3l1-4-4-2-2-3 1-3 8 2 14-3 2-4v-7l-2-1 3-12-17-16-2-5 2-3-5-2-5 2-3-8-10-4-6-10-7 3-3-3-4 2-6-8-9-1-2 3-9 6-9-1-2-2h-11l-9 2-2 2-1-1 2-2-2-3-7-1-1-4-4-1-3 4-6-3-6 1-4-3-5 1 1 3-5 11-6 1v13l-5 1-6 4-7 1v4l-5 2-6-6h-4v-3h-3l-2 9h-6l-3-8-17-2-1-4-3-1-15 6h-3l-1-2v-11l2-3 4-2 7 2 2-1 4-12v-5l-3-3-7-3-8-7-1-3 3-4 6-2 5-5 2-8-2-5-13 1-6 10-7 2-2 3-2 10-4 3-4-1-1 3h-8l-2 3-2-1-3 2v4l-5 3-3 4h-7l-4-2-5 2-2-2-5 1-7 8-2-1v-7l-6-3-1 1-7-6-4-9v-12l-3-1-1 4-1-3-1 1-5-2-1-2-5-2-3 6-3-3-4 2-9-5-3-3 1-3-3-1v-4l-4 1-2-4 3-2 1-3-1-3-3-2v3l-3 2-8-3h-6l-19 5-1 10-8 2-1 4h3l2 3-2 1v5l-2 2v17l2 4 4 1 3-2 4 2-1 2 12 5 13 8 6 7 10 7 2 4 8 8 4 12-5 6 2 8-2 5 2 12-1 13 2 3v4l6 2 3-1-1 8 5-1v-5l3-3v3h4v10h3l-1 8 3 12-2 7-4 1-2 3 2 10 4 4 2 10 11-3 5 9-5 16-5-1-4-4-1 4-4-1 3 8-11 19-7-1-4 8h4l-4 9 1 2h-6l-1 9 6 10 8 6v3l-4 6 10 2 2 6 17 7 5 5 10 2 2 3 8 2 2-2z"/>
  <path id="泰安市" fill="#ff6347" fill-opacity="1" fill-rule="evenodd" stroke="#ffffff" stroke-dasharray="none" stroke-linecap="round" stroke-linejoin="round" stroke-opacity="1" stroke-width="0.5" d="m553 551-6-8h-5l-10 5-4-2-3 1-9-2-3 3v3l-5 2-2-1v-8l-3-6-5 2-9-7-8 1-14-8-11-1-3-9-4-2-7 5-6-1-2 3-6 1-1-1 2-3v-4l2-1-4-2 3-9h4l3-3-3-4-4 1-3-6-2-1 3-4-1-5-5-1-4 4-4-2-1-7 6-2-1-8-5 1 1-6h-3l-2-10 3-3-1-4-9-13-3-15 2-12-10-1v-2l-5-1-3 8-4 1-3 3-2 7-9 4-4 8-3 2v6l-10 3-1 3-13-3-3 7v8l-12 6v3l-7 1v4l-7 3-5-5-1 1-5-2-1-2-9 4-5-2-1-6-4-3v-3l-6 2-6-1-5-4-4-1-16 11-9 1-7-6-4-1-6 2-2 6-4 1-1 4-2-2-4 1-2 4-4 1-3-3h-3l-2 4-5 2 1 2-4 4 2 6 5 1 3 6 4 2-5 9 5-1-1 3 5-2 4 2 1 4 2 1-1 3h-3l-6 11-7 3h-9l-4 2-1 4-4 3v-7l-2-3h-4l-3-2v-3l-3-2-7 2-2 4-7 6h-4l-2 7h-2l-6-4-1-3 1-18-3-4-3-9-6-7-16 1v7l-10 3-6 8-1 7-5 11 1 4-2 6-3-1-3 15 3 2 1 3-1 3-3 2 2 4 4-1v4l3 1-1 3 3 3 9 5 4-2 3 3 3-6 5 2 1 2 5 2 1-1 1 3 1-4 3 1v12l4 9 7 6 1-1 6 3v7l2 1 7-8 5-1 2 2 5-2 4 2h7l3-4 5-3v-4l3-2 2 1 2-3h8l1-3 4 1 4-3 2-10 2-3 7-2 6-10 13-1 2 5-2 8-5 5-6 2-3 4 1 3 8 7 7 3 3 3v5l-4 12-2 1-7-2-4 2-2 3 1 13 18-6 3 1 1 4 17 2 3 8h6l2-9h3v3h4l6 6 5-2v-4l7-1 12-6-2-8 1-4 6-1 5-11-1-3 5-1 4 3 6-1 6 3 3-4 4 1 1 4 7 1 2 3-2 2 1 1 2-2 9-2h11l2 2 9 1 9-6 2-3 9 1 6 8 4-2 3 3 7-3 6 10 10 4 3 8 5-2 5 2-2 3 2 5 17 16 2-14 8-11 11-1 8-4 6 4 6 1 7-8 7 1 7-3-2-10 1-4 3-3-4-10 3-6 4-2 7-10h6l14 4 2-4 3-2v-5l5-6-4-10 2-5h-5l-5 4-2-1-2-6z"/>
  <path id="威海市" fill="#ff6347" fill-opacity="1" fill-rule="evenodd" stroke="#ffffff" stroke-dasharray="none" stroke-linecap="round" stroke-linejoin="round" stroke-opacity="1" stroke-width="0.5" d="m1579 77 3 6-7 17-10 10-2 13-7 4-5 6-5-2-5 18-5 1-2 2v6h2v3l1-2 2 7-2 2v4l-3 1 1 1 2-2 2 2-5 12h-3l-1 3h-9l-1-5h-3l2 3h-2v3l-3 4-1-3-7-4v-2h-3l-4 4-3-5-3-1v9l-2 3-2-1-7 2h-12l-13-6-6 7-9 1-2-5-2-1-1 2-5-5 3-1-1-4-5 5-6-2-1-3h-2l-5 2-10 10-1 4-13 6-1 14 2 1-4 3v7l7 3h4l1 5 2 4 3 2 1 5 8 6h6l1 4 10-5h3l2 6-1 2 6 6-6 2-2 2v4l1 4h4v3l6 9-1 3 14 1 7 6 1-4 11-8 4-5 7-2 1 1-4 3-2 4h-5l-8 4-4 4 1 2 6 1v4l3-1v4l3-1 4 2v2l-4 1v2l3-1 6 2 2-6-4-6h3l4 3 4-2 1 8h4l8 4 1-1-7-18v-4l11-7 9-1 3-2 2 1 8-5 2-3 1-8 41-19 10-1 3-3 1-4 3 1 5-2 3 6v11l3 4 2 8 1-6 2-2-1-3 6-3h5l2-2-1-4 2-3 2 1 4-2 3 2-6 14 10 4 2-3h3l3 9-1 3-3 1 1 3 12-2 6 5 1-2 20 3 2-2 2 3 9-5 2-7 8 2 8-5 2 2 2-4-2-1-2-5-5-3 2-2 15 1-2 3v4l3 1 5-1 8-11-1-10 3-4v-4l-3-3v-5l3-6 7-4-2-6-7 1-6 4-7 2-9-2-1-2 5-5 1-18 3-8 2-2 8-2 12 2 2-2v-3l-4-4 2-3 4 1 3-4 4 1 2-4-7-6-3-13h-6l2-3-1-3 2-2-1-3 5-8 4-3v-3l-4 1v-4l4-6 4-1 4-5 4-1 5 2 1 3 4-1v-3l5-3-3-7-5-4h-4l2 5h-3v-4l-2-1-2 3-1-3-13 2-4 4h-17l-5-1-2-2 1-4-2-1-17 7-7-2-13 2-7-1v-2l-7-1v-7l-8-7h-5v3l-3-1-2 2h-5l-3 8-4-2-5-14 1-2-5-4 1-4 7-2 2-7-7-3 2-3-5 1-2-4v5l-5 1-9-6v10l-4-2-3 4h-7l-1 7-3 1-1 4-5 2-3-1zm67-9 8 1-8-6-3 4zm19 240 1 2 2-1zm-199 8 4-2-2-1zm35 6 3-4-2-1zm222-237 2-1-2-2z"/>
  <path id="日照市" fill="#ff6347" fill-opacity="1" fill-rule="evenodd" stroke="#ffffff" stroke-dasharray="none" stroke-linecap="round" stroke-linejoin="round" stroke-opacity="1" stroke-width="0.5" d="M997 680h-3l-9-5-4 5-2-3-4 4-5-2-5 1v-5l-5-3 2-19-3-7 2-6-1-2 2-3-6-6-4-1v-6l2-2-1-3-7-6-9 2-14 10h-2l2-15-4-9 3-5-3-7-4-3-7 2-5-2-1-6h-3l-11 9-6 1h-6l-6-5h-2l-1 4-6-3 9-8h4l-2-17-6 2v-2l-8 3-11 1-7-7-8 1-2-6 3-2v-3h-3l1-4 2-1-7-3-4 6-7 3-15 1-4 4 4 5-1 5-14 4h-6l-3 3v5l-7 2v7l-3-1-4 16h-4l-3 4 1 5-7 9 2 8v9l13 4 11-1 2 3-4 7v5l-14 18-1 10 2 4-5 6 1 3-8 7 1 5 9 9-6 9-3 1-1-2h-9l-8 3 1 6 2 2-10 3 1 8 5 1v5l2 1 5-2 8 2 3-4 4 4v2l3-2 4 3 10-5 5 2 12-1 6-6 2 1-1 6 5 4 8 2 3 6 4-2 4 1 3-2 4-8-2-5 4-2h7l6 5 7 2 5 12 10-3 3 1 1 2-2 4 4 4v3l6 2 2 9-2 2-3 12-2 3h-6l-1 4 4 1 6 8-2 6 6 2 4 8 4 1 5-5 12 3 4 7 1 5 12-2 1 3 6 1-1-3 6-4 1-4 3-2h5l-1-3-9-7v-5h6v-3l-5 1 3-21 17-24 7-4 3 1 1 4h3l2 3v-8l4-1v-2h-4l1-5 12-6v-3l-3-3 1-7 5-12 5-5 2-13 3-3 7-19z"/>
  <path id="临沂市" fill="#ff6347" fill-opacity="1" fill-rule="evenodd" stroke="#ffffff" stroke-dasharray="none" stroke-linecap="round" stroke-linejoin="round" stroke-opacity="1" stroke-width="0.5" d="m879 831-2-6-8-4 2-6-2-1-2-5-6-3 1-4h6l5-15 2-2-2-9-6-2v-3l-4-4 2-4-1-2-3-1-10 3-5-12-7-2-6-5h-7l-4 2 2 5-4 8-3 2-4-1-4 2-3-6-8-2-5-4 1-6-2-1-6 6-12 1-5-2-10 5-4-3-3 2v-2l-4-4-3 4-8-2-5 2-2-1v-5l-5-1-1-8 10-3-2-2-1-6 8-3h9l1 2 3-1 6-9-9-9-1-5 8-7-1-3 5-6-2-4 1-10 14-18v-5l4-7-1-3-12 1-13-4v-9l-2-8 7-9-1-5 3-4h4l4-16 3 1v-7l7-2v-5l3-3h6l14-4 1-5-4-5 4-4 15-1 7-3 4-6 10 5 3-1 1-4-3-2v-4l7-8-5-4-3 1-4-4-8 3-8-3-1-3-3-2-2 2h-5l1 2-3 5-7 2-5-5 1-4-2-1v-15l-3-3v-9l-3-1-7 2-1-2-5 2-5-3-5 5 1 3-2 5h-2l1 6-3 2-3-4-3 1v2l-6-3 1-2-2-3h-3l-5-3-1 2-5-2-4 5-6 4-3-2-2 3v5l-6 2-6 5-2-2-1 3 6 1-1 6-4 3 2 2-1 1 3 7-2 6-2-2-1 2h-4l-3-2-2 3 6 8-2 2 4 4v5h-8l-3 3-7-5-4-7-7 1-2 4-5 1-2 5-9 3-4-1-2 4h-4l-3 3h-3l-5-4v-3l-7-2-4-6 3-1-2-9-5-4-11-2-1-2h-6l-6 6-2-2v3h-3l-2 5-4 2-3 4v3l-3 5h-8l3 8-5 6v5l-3 2-2 4-9-3-11-1-7 10-4 2-3 6 4 10-3 3-1 4 2 10-7 3-7-1-7 8-6-1-6-4-8 4-11 1-2 2-6 9-2 14-2 4-1 8 2 1v7l-2 4-14 3-8-2-1 3 2 3 4 2-1 4h-3l-1 3-7-3-11 18 6 5 1 5 3 2 2 6-3 3v5l-6 5v3l3 8 7 3-4 9-12 4 2 4 4 1 2 3v5l5 1 10 9h5l1 5 5 7 5-2 4 1v4h2l2 5 6 8 7 6 2 5 13 8-1 6h8l2 3-1 3-3 2v9l-2 3 1 3-3 8h-2l-2 4 8 14 4 1 5 8 10 5-1 7-5 2 2 7 3 4 8 2-1 15 2 2-7 19h4l3-2v2l4-2v2l8-1 6 2 2-8 7 1 4-4 10 3v2l4 2v3h3v-4l9 3 1-2h7l4 3-2 3 6 7-10 14 13 5 2-3 1 3 12 3-6 12-5 3-3 4 12 9v14l-2 9h2l1-3 2 3h7l1-8 2 2 3-2 9 1 1-3h2l1-4 16 1v2h7l6-4 3-14 1-3 3-2 3-11-4-12-1-9 4-11 4 3 2-2h3v-4l-2-2-1-5 2-5h8l2-4 4-1v-7l6 2 6-2h8l1 5 7 3 8-2 4 5h3l7-5h5l12-9-4-5-3-1-4 2-3-3h-3l-1-6 6-1 1-4-3-2 2-2 5 1 4-2 2-4v-6l-3-3v-3l9 1v-9l15-22-1-6 2-10v-11l16-7 4 3 12-2 2-2h30l1-5 3-2 2-6 9-4z"/>
  <path id="德州市" fill="#ff6347" fill-opacity="1" fill-rule="evenodd" stroke="#ffffff" stroke-dasharray="none" stroke-linecap="round" stroke-linejoin="round" stroke-opacity="1" stroke-width="0.5" d="m382 57 2-11 9-11-1-11-2-2h2l2-7 7-7-1-3 2-5 4 3-2 13 1 3 3 1 5-4 3-6 6 4 4-2 8 6 3-8 4-1 1-2 6-1 3-4v-4l4-1-4-3 1-7h-4l-2-2 1-3 5-1v-3l4-8 2-1-1-3 6-3 5-7-7-5v-5l-3-3h-6l-1-2-3-14 10-5-1-16-6-5-4 8-3 15-9 9-3 8-8 12-3 2-5 1-6-3h-5l-5-3h-6l-16 8-19-4-5 3-23-3-12 6-28-5-20 4-12-4-2 1v6l-7 8-4 2 2 1v7l-2 4-6-3-1 2 2 5-4 3-3-1v3l-5 1-4 13-4 4-2-2v5l-2 4-7 9-13 9 2 1-4 4-2 5-5 2-3 6-7 7-5 1-4 6-3 9-8-12-4-2-1-3-4-1 2-6v-5l-2-2h-6l-2-5-5 1 4 2-7 3-2-2v4l-3 3 1 8h-3v4l5 1-4 3 3 1-2 2 1 2-5 2 1 4-5-4 1-2-5-2-1 3h-3l1 7 4 1v3l-4 4 1 3h10l-2 1 3 1-1 2 3 4-3 1v3h-3l-7 9-10-2-6-6-16 5H69l-2 4-7-1-2 4-4-1 3 3h-6l-3 2 2 3-3 1 1 2 2-1-4 11 2 6-2 1 1 3-2 2 2 1-5 7-3-1-4 3-1-2v3l-3 3-1 5 2 4-9 9v4l2 3-6 19h-2v3l-6 5-2 4-3 1-1 6-5 2-3 5 2 2v4l2-1 1 2-6 10-3-1v5l5 4-1 2 3-3h6l1 2 2-2 2 1v-2l4 2 2-1 1 2-2 1 4 1 4-5 1 4 9 4 22 3 11-3 7 1 1 2h4v-2l5-2 2 2 13-13v-6l2-3 2-2h6l-1-2 3-3-2-1v-2l4-2 2-5h-4l1-5 2-2 5 2-1 2 2 4 3-1 6 5h4v2l3 2 2 4h4v-3l6 3 1 2 10-1 4-3 5 7h4l3 3v2l-7 2 1 3-2 2 3 1 1 3-2 2-3-3-3 1v5l-2 3 5 1-1 4-5 1v8l-3 4 2 6-3-1-5 4 5 1 3 10-5 12 5 7 2 19-2 4 1 5-1 11-2 5v13l11 9 4 6-1 5 2 4 5 1 2-2 5 2 1 6h7l-1 3 4 1-1 2 17-4 2-2-2-14-5-2v-2l2-3 6-1 1-4-5-2 5-9h5l3-3v-8l6-1 3-3v-5l12-4 5-4 1-6 3-3 1-10 5-1 1-4 7-6 8-2 6-5v-4h-4l-1-6 2-11h4l-2-4 2-3 8 4 3-1 1-7 3 2 4-1-1-24-9-5h3l-1-8-6-2-3 1 1-5-4-2v-3l-3-2 5-1 4-6 9-3 1-2-5-5-2-10v-3l3-3 19-7h10l1-4 3-1-2-7 2-2 1-5-5-5-2 1v-4l-4-3 4-3v-4l2-1-4-8h3l-10-7-4-16v-2l6-6-3-5 6-9-2-5 1-5 3-3 2 3h14l4-7-2-4 3-3 4-2 2 3 8-1 3-3h6l8-14h8z"/>
  <path id="聊城市" fill="#ff6347" fill-opacity="1" fill-rule="evenodd" stroke="#ffffff" stroke-dasharray="none" stroke-linecap="round" stroke-linejoin="round" stroke-opacity="1" stroke-width="0.5" d="m195 419 1-2-4-1 1-3h-7l-1-6-5-2-2 2-5-1-2-4 1-5-4-6-11-9v-13l2-5 1-11-1-5 2-4-2-19-5-7 5-12-3-10-5-1 5-4 3 1-2-6 3-4v-8l5-1 1-4-5-1 2-3v-5l3-1 3 3 2-2-1-3-3-1 2-2-1-3 7-2v-2l-3-3h-4l-5-7-4 3-10 1-1-2-6-3v3h-4l-2-4-3-2v-2h-4l-6-5-3 1-2-4 1-2-5-2-2 2-1 5h4l-2 5-4 2v2l2 1-3 3 1 2h-6l-2 2-2 3v6l-13 13-2-2-5 2v2h-4l-1-2-7-1-11 3-22-3-9-4-1-4-4 5-4-1 2-1-1-2-2 1-4-2v2l-2-1-2 2-1-2H0l-3 3 1-2-3-3-3 6-5-1-1 3-6 4-6 14 1 4-2 5h-5l-7 5-17 7-3-3v3h-2l-1-3h-3v4l-2-1-2 4-4-3-7 4-1 5-4 4v5l-2 1-1 6-7 2-4 8-5 2 1 3-6 8-3-2-3 5 2 2-2 1-1 3h3l-4 4-1 10-6 7h-5l2 2v4l-2 4h-4l3 4v3h2v5l2-2 4 4v7l-1-1-4 7 11 5 3 11 5 7v3l-3 4 2 3 7-4 6-1 2 1v6l-2 4 5 5h7v8l3 1v17l3 17-3 14-2 1v4h-2l-1 3 1 3-5 2 2 3v11l-7 2-6 5-3 5-6 1-2 5v6l3 5-3 16h-3l-1 2 3 1-4 20 7 6 2-3 10-6 2-6 4-2v-2l7-9 7-4 2-5-1-4 4-2v5l2 3 9-3 9-7 6-2 9 2 2-3 9-4 1-4 3-3 4-2 4 1 11-2v-2l3-3-2-1 5-4 10-2 6 3 3-4 6-3 6 2 5-4 13-5 11-8 7-11 11-2 6-8 10-3v-7l16-1 14-16 13-22 12-4 8-5 9-1 2-5h9l5-10 6-6zM-76 583l-2 5 4-3h3l-2-3z"/>
  <path id="滨州市" fill="#ff6347" fill-opacity="1" fill-rule="evenodd" stroke="#ffffff" stroke-dasharray="none" stroke-linecap="round" stroke-linejoin="round" stroke-opacity="1" stroke-width="0.5" d="m382 57 3 4v4h6l2 3-1 4-7 3v2l6 3-3 3 3 2 12-1 4 5-3 9 15 14-2 3v11l2 8 3 3 4 12-3-2-2 4 1 1h-5l-2 5 11 17 4 20-5 5-13 4-6 4-8-1 1 5-3 7-3 2v3l13 8 3 12 3 2 4-1v2l2-3 1 2 16-3-1-2 5-2 4 1 2 4 5-6 3-1 2 3-2 2 4 1v5l-3 2v2l-4-3-1 4 9 5 4 7-2 10 1 3 7 10 10 5 8 7 5 10 7-1 6 2-3 7 1 2-6 8 16 1 1-3 3-1v-4l8-14 2 6 5-2v-5l-3-4-4 1v-4h-2l-1-3 2-2v-7l3-4-1-6 7-1 2-2h7v-2l7 1v-4l6-4v-3h2l3-3v-3l-3 1-2-4-2 5 1-6-6-6-2-10-9-1-1-12-7-1 2-13-20-1-8 2-3-2-14-1-17-6-4 2-4-1-2-7 2-1-1-2-4-1-1-8 5-1 4-3 3-14 4-3 3-5 4-12 4-3 5 1 4 4 9 3 12 1 11-10 9-2 7 3 2 4 6-1 8-5 2 4-1 2 5-3 7 3 1 5-4 3-2 7 2-1 1 3 3-1 4 2 2-1 1-4h3l3 2v3l5-1 4 8-3 2 1 3-3 2-1 4 6 10-6 4h-3v3l3 1 1 4 6-3 7-1 1-2 4 3 1 9h5l1 2-2 1v2l-3 1v13l3 1v4h3l-1 2 9 2v3l4 1 6-3 1-4h3l1-5h3l2-2 4 3 6-10 4-2v-3l3-3v-16l3 1-3-7h2l-1-3 2-3 2 1 1-3 4-2 1-7 2-1-3-9-3-1-5-8 1-3h3l2-5h2l-1-5h-3l2-2-7-2v-3h-4v-3h-2l-1-15h-7v-4h-7v-5l-4 1v3h-6l-1-6-15 7-1-4h-4l-1-3 2-2 5 1v-9l-3-7-9-1 2-6-3-1 2-6 4-5v-7h2l4-7 4-2v-6l-9 3v-5h-2l-1-2 7-9v-8l2-1 1-4 9-8 1 2h5l4 2 1-1 4 2 6-3 6-7-1-2 3-8 1 1v-5l5-1 1-5 3-1v-3l-3-2v-3l2-6h3l-2-7 1-2-3-2v-2h-3l2-2-4-9-3 1-3-3-4 5-5 1-2 3-3-9v4l-2-3-1-5 2-4-3-9h-2v-9l-3 1v-2l3-2-1-7 2-2-1-30 3-1 2-7-1-3-3-2 4-8-7-1-10-13-17-8-17-1-3 3-4 1-6-3-26-22v-8l-9 9-3 7-10 8-5 16 3 2-2 2-6 1-1 11-6 3-4 9-6 6-7-1-3 2-13 2-3-2-10 3-2 2 1 6-4 4-1 5 6 5 1 16-10 5 4 16h6l3 3v5l7 5-5 7-6 3 1 3-2 1-4 8v3l-5 1-1 3 2 2h4l-1 7 4 3-4 1v4l-3 4-6 1-1 2-4 1-3 8-8-6-4 2-6-4-3 6-5 4-3-1-1-3 2-13-4-3-2 5 1 3-7 7-2 7h-2l2 2 1 11-9 11-1 7zm292-161 3 1v-9h-2z"/>
  <path id="菏泽市" fill="#ff6347" fill-opacity="1" fill-rule="evenodd" stroke="#ffffff" stroke-dasharray="none" stroke-linecap="round" stroke-linejoin="round" stroke-opacity="1" stroke-width="0.5" d="m22 592-1 3v-5l-3 5h-5v3l-5-1-1 2-11-3-3 5h-3l1 2h-5l-2 5h-2l-1 5-2-1-1 5h-2l-1 11-19 5h-8l-1 2-6-2-2 3-5-2-2 3h-4l-13 14-2 7-9 11-1 7-6 8h-2v3l-3-1v4l-3-2v3l-3 1v2l3 1-2 4 2 7-1 6-4-1-8 4-10 7 1 3-9 8h-26l-3 1-2 6v-6l-1 5h-2l-4-4-1 7-3 6-8-1-7 12-1 7h-2l-5 5-6 9 3 1v3h-4l-1 2-6 2v16l-18 5-5 7v3l8 7 3 9-6 5-8 3-3 7 4 3h4l1 2-2 4-5 4 8 2 3-7 4 1-1 6 2 3 5 1 4 7 6-6h16l5 5 2-3 4-1 6-5 14-1v6l4 1 3 4v3l5-1 7 3 4-3 1 5-3 1-2 9 13 2-4 10 1 8 4 2 4-3 4 1 4-3h3l16 10 4-1 4 2 2 4-1 1 4 1 5 19-4 6 3 5v11l4 6v6l5 3 9 14 5 3 11 1 12-2 12 6h4l3-4 1-9h3l2 2 11 1 9 3 8 7 3-1-1-2 34-5 4-2v-6l5-3 9 8 11-5 5 1 6 10 6 6 13-7h5l4 7 4 1 1-5h2l7-13 10 2 2-6h4l6-4-2-6 7-18-7-2v-8l2-2 8-2 2-31-10-4-2 2-8-1-2-4-10-2-5-5-14-5-3-2-2-6-10-2 4-6v-3l-8-6-6-10 1-9h6l-1-2 4-9h-4l4-8 7 1 11-19-3-8 4 1 1-4 4 4 5 1 5-16-4-9-12 3-2-10-4-4-2-10 2-3 4-1 2-7-3-12 1-8h-3v-10h-4v-3l-3 3v5l-5 1 1-8-3 1-6-2v-4l-2-3 1-13-2-12 2-5-2-8 5-6-4-12-8-8-2-4-10-7-6-7-13-8-12-5 1-2-4-2-3 2-4-1-2-4v-5z"/>
</svg>
