<?xml version="1.0" encoding="UTF-8" standalone="no"?>
<svg
   width="792"
   height="1419"
   viewBox="-251 -228 792 1419"
   version="1.1"
   id="svg1"
   xmlns="http://www.w3.org/2000/svg"
   xmlns:svg="http://www.w3.org/2000/svg">
  <defs
     id="defs1" />
  <path
     stroke="#ffff00"
     stroke-opacity="1"
     stroke-width="0.5"
     stroke-linecap="round"
     stroke-linejoin="round"
     stroke-dasharray="none"
     fill="#1e90ff"
     fill-opacity="1"
     fill-rule="evenodd"
     d="m 266,404.99998 -4,-6 -6,-1 -7,-6 -2,-6 h -4 l -4,-4 4,-2 -1,-3 4,-9 8,-7 5,-2 1,-4 3,-1 5,-7 h 6 l 7,-5 2,-4 -3,-3 2,-4 -2,-4 1,-4 -5,-2 -6,1 -1,4 -8,4 -6,9 h -5 l -1,-4 -5,6 -17,6 -10,13 -9,2 h -10 l -2,2 -8,-3 2,4 -5,5 -9,-1 -3,-3 1,-3 -6,-7 v 4 l -5,3 -8,-3 -2,-6 -2,-1 -5,3 -8,-2 -4,-6 -12,-3 -5,6 4,5 -9,4 6,7 3,9 -3,7 -3,2 h -4 v 2 l -10,-4 -4,3 -7,-7 -16,-3 -11,3 -10,-7 -4,1 -1,-6 -4,-2 1,3 -6,1 -2,4 -8,4 -4,-1 -5,2 v 3 l -5,6 -8,4 -3,4 -11,1 -3,2 -1,3 -4,2 -1,3 2,3 -2,5 4,6 1,8 5,6 2,7 -6,4 3,2 1,5 20,-2 4,-4 8,2 v 3 l 4,4 v 2 l 7,3 2,5 17,1 4,12 7,6 4,-2 h 5 l 2,3 8,-2 5,1 3,4 10,5 v 9 l 9,10 2,5 4,2 6,-1 1,4 -4,6 h 4 l 3,6 -4,2 5,3 2,4 4,-1 1,-5 h 6 l 1,5 7,1 1,-5 4,2 9,-2 v -7 l 6,-2 9,3 v -4 l 6,-1 -4,-6 1,-4 -2,-7 -3,-1 -1,-7 8,-2 -3,-5 4,-4 v -5 l 4,-1 1,-5 3,-2 -3,-8 6,-5 -2,-3 5,-10 h 4 l 2,-5 4,-2 5,3 -4,-10 3,-2 -2,-4 9,-10 1,-5 7,4 3,-2 11,1 5,-6 4,4 6,-6 -2,-3 2,-3 5,1 z"
     id="太原市" />
  <path
     stroke="#ffff00"
     stroke-opacity="1"
     stroke-width="0.5"
     stroke-linecap="round"
     stroke-linejoin="round"
     stroke-dasharray="none"
     fill="#1e90ff"
     fill-opacity="1"
     fill-rule="evenodd"
     d="m 359,82.99998 2,-1 2,4 9,-3 9,4 h 8 l 5,3 1,4 3,3 20,1 v 6 l 8,9 v 3 l 4,3 -1,14 -4,4 2,19 2,6 h 7 l 1,-5 8,-3 3,10 6,2 2,7 3,1 6,-3 4,3 h 3 l 5,-4 14,-3 3,2 6,-1 3,-8 -1,-6 5,-10 10,1 2,-5 2,1 2,-7 -7,-2 -4,-3 4,-5 -3,-5 3,-8 5,-3 2,-5 -1,-14 5,-7 1,-9 5,-2 1,-6 4,-5 2,-10 -3,-1 -7,4 -4,-11 -11,-1 -5,-9 2,-29 -5,-10 3,-4 -2,-8 -20,2 v -3 l -12,3 -3,-3 v -3 l 5,-3 -2,-4 -8,4 -13,-4 -3,1 -4,-3 -3,1 -4,-10 -1,-7 -16,-5 -3,1 1,-5 6,-1 4,-5 v -14 l 8,2 4,11 9,-4 1,-8 -6,-17 6,-3 5,1 v 2 h 3 l 17,-5 1,-5 3,-4 6,2 13,-5 8,1 12,-5 10,-14 1,-5 -6,-2 -5,1 -5,-5 -7,4 h -4 l -7,-4 h -6 l -5,-12 2,-6 -4,-3 -1,-4 5,-14 -1,-4 h -3 l 2,-9 -5,-5 -4,1 -5,-6 1,-1 -3,-7 -3,-2 -3,-10 -5,-6 -12,4 v 15 l -5,12 6,8 1,7 -4,4 -9,3 h -11 l -4,6 -12,9 -2,-1 -3,-7 -7,-7 -1,4 -5,7 -14,6 -3,6 -16,12 -4,6 -31,7 -13,-1 -3,-3 -5,-13 -5,-6 -5,3 -9,1 -10,4 -23,5 -17,8 -7,26 -2,3 -17,9 h -4 l -19,-17 v 3 l -3,2 -1,3 3,5 v 5 h -6 l -1,8 2,3 -1,4 6,2 -2,3 6,10 -5,21 -3,6 1,10 -2,11 1,4 4,2 v 11 l 5,5 4,-1 4,-6 8,4 3,-1 v -4 h 12 v -3 l 2,-2 6,-1 5,-6 8,-4 1,-4 3,1 2,-3 -4,-5 -1,-6 20,-1 13,2 9,-2 12,-10 9,3 7,4 5,6 h 5 l 11,13 -12,4 -5,7 -3,1 2,6 10,7 3,7 -5,8 2,4 -2,4 8,10 1,6 h 5 l 2,6 7,8 -1,4 2,5 10,7 z"
     id="大同市" />
  <path
     stroke="#ffff00"
     stroke-opacity="1"
     stroke-width="0.5"
     stroke-linecap="round"
     stroke-linejoin="round"
     stroke-dasharray="none"
     fill="#1e90ff"
     fill-opacity="1"
     fill-rule="evenodd"
     d="m 355,296.99998 -13,3 h -5 l -4,-3 -3,1 -22,12 -2,3 -15,9 -10,1 -1,4 2,4 -2,4 3,3 -2,4 -7,5 h -6 l -5,7 -3,1 -1,4 -5,2 -8,7 -4,9 1,3 -4,2 4,4 h 4 l 2,6 7,6 6,1 4,6 h 6 v -2 l 6,-4 6,6 h 6 l 3,-6 3,-2 h 4 l 3,5 -3,3 2,5 4,1 3,10 6,2 1,4 -3,14 8,8 1,6 4,4 8,13 1,5 7,10 6,1 3,4 h 15 l 10,4 7,-5 h 9 l 3,5 11,-3 9,-7 h 4 l 13,7 3,-2 1,-12 8,-5 v -5 l -5,-4 -2,-4 h -4 l -2,-5 -2,-16 -4,-4 -7,-14 -5,-2 1,-15 -4,-2 v -3 l -6,-7 -3,-1 3,-9 2,1 -2,-5 h -17 l -2,-1 3,-4 -4,-1 v -4 l -6,2 -6,-6 -4,-1 -5,2 -5,-3 -5,-7 2,-17 -4,-5 -1,-5 2,-8 8,-11 -6,-6 1,-3 z"
     id="阳泉市" />
  <path
     stroke="#ffff00"
     stroke-opacity="1"
     stroke-width="0.5"
     stroke-linecap="round"
     stroke-linejoin="round"
     stroke-dasharray="none"
     fill="#1e90ff"
     fill-opacity="1"
     fill-rule="evenodd"
     d="m 71,718.99998 5,2 v 5 l 3,4 1,8 8,5 3,8 5,5 5,2 4,13 6,11 8,-1 6,7 12,9 h 16 l 3,6 -1,2 3,4 v 4 l 6,3 h 6 l 5,-3 2,2 -3,8 v 14 l 2,7 -1,4 -12,7 -2,4 3,8 23,-7 5,4 5,9 5,-2 5,4 10,4 5,-2 9,2 1,11 h 16 l 13,3 5,6 h 10 l 4,4 10,-6 1,2 7,-1 6,7 9,-5 5,1 5,4 2,7 5,-1 5,-7 11,4 4,-1 8,6 6,1 4,-2 3,2 3,-3 v -4 h -3 l -1,-4 3,-10 -1,-12 -2,-2 2,-4 7,2 2,-3 -3,-3 3,-3 -5,-1 -2,-3 5,-3 -2,-12 -4,-3 h 7 l 4,-2 -1,-3 -5,-1 v -2 l -5,-3 8,-2 -2,-3 3,-1 -1,-3 -4,-2 5,-4 v -3 l 2,-2 -1,-9 3,-1 2,-4 -1,-13 -4,-9 -7,-1 -7,-7 -8,-1 -1,-5 -5,-3 2,-11 3,1 1,-5 -3,-5 -6,-2 1,-5 -2,-3 -8,-1 -2,-5 4,-6 1,-5 -5,1 -2,-2 2,-4 4,-3 7,1 1,-2 -6,-6 -3,-9 -21,-16 h -3 l 2,-6 -8,-9 -3,-7 h -3 l -3,5 -10,5 -2,-3 -1,4 -5,-1 -1,-4 h -4 v 6 l -8,-1 -4,2 -4,-2 -10,-1 -15,13 h -6 l -3,-4 1,-10 -2,-3 v -8 l -4,-1 -3,-4 h -7 l -7,-10 h -4 l 1,-5 -5,-5 -6,-1 -5,-5 -3,3 -4,1 -4,5 -10,-2 -3,-7 -4,-1 -10,2 1,3 6,2 v 10 l 4,4 1,9 h 5 l 2,5 -1,3 -6,2 -5,-3 -6,5 -5,1 -3,-3 -9,-1 -5,5 -9,-11 -6,-1 -6,-7 -7,1 -2,3 -12,5 h -7 v 3 l 5,5 -4,7 3,4 -1,2 -5,1 -4,-2 -4,16 -3,2 -1,9 4,5 -1,4 z"
     id="长治市" />
  <path
     stroke="#ffff00"
     stroke-opacity="1"
     stroke-width="0.5"
     stroke-linecap="round"
     stroke-linejoin="round"
     stroke-dasharray="none"
     fill="#1e90ff"
     fill-opacity="1"
     fill-rule="evenodd"
     d="m 83,1035 29,6 -1,3 5,1 11,-3 -2,7 h 14 l 4,-4 h 6 l 6,2 6,-1 4,3 5,-1 5,3 2,-3 8,1 3,-2 -3,-6 3,-2 v 3 l 3,-2 v 3 l 10,6 -1,4 2,3 1,-4 h 9 l 10,-12 8,3 h 7 l 4,-3 1,-6 6,-2 3,2 v -12 l 3,-5 h 7 l 8,5 h 5 l 3,2 4,-5 1,-6 3,-1 v -6 l 3,1 1,-9.00002 7,-1 6,4.00002 7,2 -1,-3.00002 2,-5 -2,-1 3,-4 2,3 h 4 l 5,-2 3,-6 5,-2 4,2 8,-3 4,1 v -12 l 7,-6 2,-6 -1,-8 2,-1 3,6 9,1 -2,-12 -4,-2 2,-3 -3,-8 2,-7 -3,-5 4,-1 -3,-1 v -5 h -3 l -8,-6 -4,1 -11,-4 -5,7 -5,1 -2,-7 -5,-4 -5,-1 -9,5 -6,-7 -7,1 -1,-2 -10,6 -4,-4 h -10 l -5,-6 -13,-3 h -16 l -1,-11 -9,-2 -5,2 -10,-4 -5,-4 -5,2 -5,-9 -5,-4 -18,5 -2,2 2,10 -3,5 -10,5 -9,8 -6,2 -6,-1 -3,2 -9,-2 -7,1 -9,-4 -5,2 -4,-1 3,9 4,-1 5,6 1,4 -5,3 -10,-1 -12,-5 -4,-4 -2,1 v 11 l 4,8 -5,5 2,6 -2,5 -7,7 -4,1 -2,6 -3,3 2,11 3,2 v 10 l -4,4 5,11 V 1002 l 5,6 6,3 -2,8 6,3 3,5 z"
     id="晋城市" />
  <path
     stroke="#ffff00"
     stroke-opacity="1"
     stroke-width="0.5"
     stroke-linecap="round"
     stroke-linejoin="round"
     stroke-dasharray="none"
     fill="#1e90ff"
     fill-opacity="1"
     fill-rule="evenodd"
     d="m 186,-107.00002 -21,-8 -10,-7 -7,1 -13,10 h -7 l -3,7 2,3 -13,10 -1,10 -8,10 v 6 l -7,8 -12,25 -6,9 -2,7 -10,13 -2,4 v 17 l -2,6 -6,5 3,5 -2,8 3,6 5,4 5,7 -2,3 h -8 l -7,2 -2,5 3,8 h 7 l 4,4 3,-1 4,11 -1,5 11,18 -3,2 7,10 4,-4 5,-2 8,3 2,4 v 5 l 2,4 3,2 v 6 h 8 l 2,12 4,-1 v 7 h 3 v -4 l 3,-2 6,4 8,-1 6,2 12,-8 h 7 l 3,5 3,1 2,6 9,1 6,-12 3,2 7,-3 4,-5 1,-6 5,-2 5,5 2,-1 3,-7 7,-1 2,-7 3,-1 4,-10 21,-8 3,-7 10,-2 5,4 -1,4 6,4 9,3 8,-4 h 19 l 3,3 8,-8 5,3 v -4 l 12,-2 3,-9 5,-4 v -6 l 3,-2 -1,-4 -10,-7 -2,-5 1,-4 -7,-8 -2,-6 h -5 l -1,-6 -8,-10 2,-4 -2,-4 5,-8 -3,-7 -10,-7 -2,-6 3,-1 5,-7 12,-4 -11,-13 h -5 l -5,-6 -7,-4 -9,-3 -12,10 -9,2 -13,-2 -20,1 1,6 4,5 -2,3 -3,-1 -1,4 -8,4 -5,6 -6,1 -2,2 v 3 h -12 v 4 l -3,1 -8,-4 -4,6 -4,1 -5,-5 v -11 l -4,-2 -1,-4 2,-11 -1,-10 3,-6 5,-21 -6,-10 2,-3 -6,-2 1,-4 -2,-3 v -6 l 1,-2 h 6 v -5 l -3,-5 1,-3 3,-2 z"
     id="朔州市" />
  <path
     stroke="#ffff00"
     stroke-opacity="1"
     stroke-width="0.5"
     stroke-linecap="round"
     stroke-linejoin="round"
     stroke-dasharray="none"
     fill="#1e90ff"
     fill-opacity="1"
     fill-rule="evenodd"
     d="m 353,705.99998 5,-3 5,1 10,-8 5,-1 -1,-4 2,-4 -2,-7 4,-6 2,-1 4,2 v 5 l 2,1 8,-4 1,-5 -5,-14 6,-9 -4,-5 3,-6 v -4 l -4,-1 -2,-3 3,-7 -1,-8 1,-2 10,-4 4,-11 6,-5 v -5 l 3,-4 v -7 l 4,-5 7,-4 2,-13 4,-4 h 4 l 2,-4 v -8 l 18,-29 -2,-4 5,-13 -3,-5 -11,-6 -12,4 -1,5 -3,2 -13,-7 h -4 l -9,7 -11,3 -3,-5 h -9 l -7,5 -10,-4 h -15 l -3,-4 -6,-1 -7,-10 -1,-5 -8,-13 -4,-4 -1,-6 -8,-8 3,-14 -1,-4 -6,-2 -3,-10 -4,-1 -2,-5 3,-3 -3,-5 h -4 l -3,2 -3,6 h -6 l -6,-6 -6,4 v 2 h -6 l -3,2 -5,-1 -2,3 2,3 -6,6 -4,-4 -5,6 -11,-1 -3,2 -7,-4 -1,5 -9,10 2,4 -3,2 4,10 -5,-3 -4,2 -2,5 h -4 l -5,10 2,3 -6,5 3,8 -3,2 -1,5 -4,1 v 5 l -4,4 3,5 -8,2 1,7 3,1 2,7 -1,4 4,6 -6,1 v 4 l -9,-3 -6,2 v 7 l -9,2 -4,-2 -1,5 -7,-1 -1,-5 h -6 l -1,5 -4,1 v 2 l -12,6 -1,7 -7,12 -8,7 -7,10 -3,-2 -1,-5 -4,-4 -4,-1 -4,4 -1,5 -5,2 h -7 l -1,4 -6,-1 3,4 v 4 l -2,3 1,7 -5,16 -3,2 -5,10 -6,5 -4,-3 -6,5 -6,2 -4,4 -10,2 v 4 l -6,2 -2,5 -15,-9 -3,1 -2,-5 -5,2 2,4 5,4 v 5 l 6,1 2,2 -7,6 -7,1 -3,4 -4,1 -2,4 -7,1 -1,3 v 6 l 9,7 5,-1 2,-6 3,6 v -2 h 5 v 9 l 5,7 16,14 3,1 2,-2 -3,-8 9,-4 7,-1 5,3 10,-2 -1,4 7,-2 h 11 l 9,6 2,-2 2,-14 -4,-5 1,-9 3,-2 4,-16 4,2 5,-1 1,-2 -3,-4 4,-7 -5,-5 v -3 h 7 l 12,-5 2,-3 7,-1 6,7 6,1 9,11 5,-5 9,1 3,3 5,-1 6,-5 5,3 6,-2 1,-3 -2,-5 h -5 l -1,-9 -4,-4 v -10 l -6,-2 -1,-3 10,-2 4,1 3,7 10,2 4,-5 4,-1 3,-3 5,5 6,1 5,5 -1,5 h 4 l 7,10 h 7 l 3,4 4,1 v 8 l 2,3 -1,10 3,4 h 6 l 15,-13 10,1 4,2 4,-2 8,1 v -6 h 4 l 1,4 5,1 1,-4 2,3 10,-5 3,-5 h 3 l 3,7 8,9 -2,6 h 3 l 21,16 5,12 z"
     id="晋中市" />
  <path
     stroke="#ffff00"
     stroke-opacity="1"
     stroke-width="0.5"
     stroke-linecap="round"
     stroke-linejoin="round"
     stroke-dasharray="none"
     fill="#1e90ff"
     fill-opacity="1"
     fill-rule="evenodd"
     d="m -187,932.99998 v 8 l 3,4 v 5 l 2,1 1,6 -4,6 -1,9 -13,18 -6,15.00002 -5,20 -9,9 -5,8 1,9 -3,3 v 12 l 2,2 -5,11 -2,9 -3,1 v 8 l -10,13 -6,14 v 10 l 3,11 -3,21 1,5 6,9 5,4 10,1 10,4 15,-5 8,6 h 3 l 11,-5 h 17 l 8,-10 h 8 l 6,8 5,-4 6,-2 3,-6 3,-13 3,-1 5,6 h 3 l 10,-8 15,-3 6,-12 2,-1 12,5 3,-1 2,-5 7,2 9,-5 10,4 8,-5 5,2 6,-1 5,-4 5,-1 3,2 4,-8 4,-3 1,-5 5,-5 6,-3 -2,-8 h 3 l 5,-3 h 5 l 1,-3 h 4 l 2,-3 5,-2 v -5 l 2,-2 h 12 l 3,-2 3,2 2,-3 6,1 3,3 h 8 l 3,5 4,-3 -1,-9 2,-14 -4,-9 6,-4 v -5 l -3,-9 2,-8 -3,-5 -6,-3 2,-8 -6,-3 -5,-6 -4,8 -11,1 -7,-2 -2,-8 -5,1 5,-6.00002 -1,-4 2,-2 1,-6 9,-3 1,-4 -11,-3 -1,-7 4,-3 h -7 l -11,-3 -7,-7 -8,1 -1,-4 -4,3 -8,-1 -2,11 -3,9 -2,1 -3,-3 -9,-2 -15,4 -2,-3 -9,5 -12,3 -5,-5 3,-3 -4,-6 1,-7 h 4 l 2,-4 -2,-5 4,-2 6,2 -2,-9 -2,-1 -6,2 -5,6 h -2 l -3,-5 -9,-6 -1,-8 -7,-11 h -8 l -8,16 -10,2 -4,-17 -5,5 1,15 -8,7 -12,-7 -16,-3 -2,-3 -11,4 -1,-3 3,-5 -4,-1 -4,-4 h -5 l -2,5 z"
     id="运城市" />
  <path
     stroke="#ffff00"
     stroke-opacity="1"
     stroke-width="0.5"
     stroke-linecap="round"
     stroke-linejoin="round"
     stroke-dasharray="none"
     fill="#1e90ff"
     fill-opacity="1"
     fill-rule="evenodd"
     d="m 59,41.99998 -5,-2 -4,3 -7,-3 -10,7 -12,-4 -2,-4 -11,-5 -6,2 -21,-7 -11,5 1,3 3,2 -2,3 -1,-2 -3,1 2,3 -3,14 2,4 -1,5 -7,3 -5,6 v 5 l -2,4 -3,2 -30,-1 -5,3 -4,8 1,2 h 5 v 7 h 2 l 3,-3 2,1 -2,5 1,3 5,3 h 6 l -4,4 -2,6 1,3 -10,22 2,4 -2,6 -3,2 -2,8 -8,8 -10,3 -10,9 5,11 1,9 -1,4 -3,2 3,7 -3,3 -3,9 -4,3 2,5 -4,6 2,4 -1,6 h 6 l 3,5 5,1 23,-15 9,-1 3,4 1,10 4,3 v 5 l 5,9 13,-2 v 4 l 5,3 13,2 1,8 3,5 7,6 v -8 l 3,-2 5,5 11,-9 14,-5 4,-8 2,-1 5,5 4,11 -8,5 1,3 11,12 v 5 l -2,2 2,7 6,5 -1,7 4,4 v 4 l -12,2 1,11 4,3 3,5 6,-1 -1,-3 4,2 1,6 4,-1 10,7 11,-3 16,3 7,7 4,-3 10,4 v -2 h 4 l 3,-2 3,-7 -3,-9 -6,-7 9,-4 -4,-5 5,-6 12,3 4,6 8,2 5,-3 2,1 2,6 8,3 5,-3 v -4 l 6,7 -1,3 3,3 9,1 5,-5 -2,-4 8,3 2,-2 h 10 l 9,-2 10,-13 17,-6 5,-6 1,4 h 5 l 6,-9 8,-4 1,-4 h 21 l 15,-9 2,-3 25,-13 4,3 18,-3 1,-8 8,-7 2,-14 16,-1 2,-3 -1,-8 4,-3 3,2 5,-2 5,-12 7,1 -1,-9 3,-3 1,-4 -10,-7 -5,-7 -1,-17 1,-6 6,-1 17,-18 5,1 6,-9 -2,-6 -2,-19 4,-4 1,-14 -4,-3 v -3 l -8,-9 v -6 l -20,-1 -3,-3 -1,-4 -5,-3 h -8 l -9,-4 -9,3 -2,-4 -5,3 v 6 l -5,4 -3,9 -12,2 v 4 l -5,-3 -8,8 -3,-3 h -19 l -8,4 -9,-3 -6,-4 1,-4 -5,-4 h -4 l -6,2 -3,7 -21,8 -4,10 -3,1 -2,7 -7,1 -3,7 -2,1 -5,-5 -5,2 -1,6 -4,5 -7,3 -3,-2 -6,12 -9,-1 -2,-6 -3,-1 -3,-5 h -7 l -12,8 -6,-2 -8,1 -6,-4 -3,2 v 4 h -3 l -1,-3 2,-1 -1,-3 -4,1 -2,-12 h -8 v -6 l -3,-2 -2,-4 v -5 l -2,-4 -8,-3 -5,2 -4,4 -7,-10 3,-2 -11,-18 1,-5 -4,-11 -3,1 -4,-4 h -7 l -3,-8 2,-5 7,-2 h 8 l 2,-3 -5,-7 -5,-4 z"
     id="忻州市" />
  <path
     stroke="#ffff00"
     stroke-opacity="1"
     stroke-width="0.5"
     stroke-linecap="round"
     stroke-linejoin="round"
     stroke-dasharray="none"
     fill="#1e90ff"
     fill-opacity="1"
     fill-rule="evenodd"
     d="m -217,669.99998 -2,3 -5,1 1,2 8,4 -1,5 -2,2 3,2 -1,4 -5,8 h 4 l 3,3 -2,5 1,2 3,-4 2,3 -3,3 1,6 h -4 l -3,-3 -1,5 5,4 4,9 9,9 -1,7 2,3 1,11 -6,9 3,6 v 6 l -4,6 -1,9 2,4 v 14 l -3,6 1,6 -3,7 1,7 4,9 -1,4 6,15 -1,3 4,5 v 3 l -3,4 3,5 -1,9 7,1 v 8 l 4,9 -1,3 2,11 7,-6 2,-5 h 5 l 4,4 4,1 -3,5 1,3 11,-4 2,3 16,3 12,7 8,-7 -1,-15 5,-5 4,17 10,-2 8,-16 5,-1 3,1 7,11 1,8 9,6 3,5 h 2 l 5,-6 6,-2 2,1 2,9 -6,-2 -4,2 2,5 -2,4 h -4 l -1,7 4,6 -3,3 5,5 12,-3 9,-5 2,3 15,-4 9,2 3,3 2,-1 5,-20 8,1 4,-3 1,4 8,-1 7,7 11,3 h 7 l -4,3 1,7 11,3 -1,4 -9,3 -1,6 -2,2 1,4 -5,6.00002 5,-1 2,8 7,2 11,-1 4,-6 v -8.00002 l -5,-11 4,-4 v -10 l -3,-2 -2,-11 3,-3 2,-6 4,-1 7,-7 2,-5 -2,-6 5,-5 -4,-8 v -11 l 2,-1 4,4 12,5 10,1 5,-3 -1,-4 -5,-6 -4,1 -3,-9 4,1 5,-2 9,4 h 25 l 6,-2 9,-8 10,-5 3,-5 -2,-10 h -3 l -3,-8 2,-4 12,-7 1,-4 -2,-7 v -14 l 3,-8 -2,-2 -5,3 h -6 l -6,-3 v -4 l -3,-4 1,-2 -3,-6 h -16 l -12,-9 -6,-7 -8,1 -6,-11 -4,-13 -5,-2 -5,-5 -3,-8 -8,-5 -1,-8 -3,-4 v -5 l -5,-2 -2,2 -9,-6 H 49 l -7,2 1,-4 -10,2 -5,-3 -7,1 -9,4 3,8 -2,2 -3,-1 -16,-14 -5,-7 v -9 h -5 v 2 l -3,-6 -2,6 -5,1 -9,-7 -8,6 -2,5 -6,1 v 3 h -9 v -4 h -6 l -2,3 -4,-1 -2,-13 -3,-5 1,-3 -9,-1 -8,2 -5,-4 3,-12 2,-2 -2,-4 -11,3 -1,4 -3,1 1,-6 -3,-1 1,5 -4,2 -6,-2 -8,5 v 2 l -10,4 -12,-4 -2,-6 -7,-2 -1,-5 h -11 l -2,2 v 7 l -3,5 -5,-1 -6,3 -2,-2 -4,2 -1,-2 -6,-2 -6,1 -1,-3 -5,1 z"
     id="临汾市" />
  <path
     stroke="#ffff00"
     stroke-opacity="1"
     stroke-width="0.5"
     stroke-linecap="round"
     stroke-linejoin="round"
     stroke-dasharray="none"
     fill="#1e90ff"
     fill-opacity="1"
     fill-rule="evenodd"
     d="m 132,542.99998 -2,-4 -5,-3 4,-2 -3,-6 h -4 l 4,-6 -1,-4 -6,1 -4,-2 -2,-5 -9,-10 v -9 l -10,-5 -3,-4 -5,-1 -8,2 -2,-3 h -5 l -4,2 -7,-6 -4,-12 -17,-1 -2,-5 -7,-3 v -2 l -4,-4 v -3 l -8,-2 -4,4 -20,2 -1,-5 -3,-2 6,-4 -2,-7 -5,-6 -1,-8 -4,-6 2,-5 -2,-3 1,-3 4,-2 1,-3 3,-2 11,-1 3,-4 8,-4 5,-6 v -3 l 5,-2 4,1 8,-4 2,-4 -3,-5 -4,-3 -1,-11 12,-2 v -4 l -4,-4 1,-7 -6,-5 -2,-7 2,-2 v -5 l -11,-12 -1,-3 8,-5 -4,-11 -5,-5 -2,1 -4,8 -14,5 -11,9 -5,-5 -3,2 v 8 l -7,-6 -3,-5 -1,-8 -13,-2 -5,-3 v -4 l -13,2 -5,-9 v -5 l -4,-3 -1,-10 -3,-4 -9,1 -23,15 -5,-1 -3,-5 h -6 l 1,-6 -2,-4 -5,6 v 7 l -4,3 -3,8 3,9 4,1 -2,5 v 9 l -7,3 1,13 -6,3 -8,-3 -4,3 -5,17 -8,3 -6,9 -6,3 -7,-1 -4,2 -2,19 -8,1 -3,6 3,14 -4,6 2,9 -2,5 1,6 4,6 -2,3 1,5 12,6 11,20 2,7 4,5 10,4 3,4 v 4 l -7,2 -2,2 1,3 5,4 7,2 4,4 -1,3 -5,2 1,11 5,6 -5,6 -2,16 -2,5 -18,2 -3,13 2,5 9,3 v 5 l -3,2 3,7 -6,1 -2,6 -20,26 -1,6 -13,16 -7,1 v 4 l 5,2 -2,2 -5,-3 h -5 l -1,2 5,5 3,6 -2,14 4,4 5,-1 1,3 6,-1 6,2 1,2 4,-2 2,2 6,-3 5,1 3,-5 v -7 l 2,-2 h 11 l 1,5 7,2 2,6 12,4 10,-4 v -2 l 8,-5 6,2 4,-2 -1,-5 3,1 -1,6 3,-1 1,-4 11,-3 2,4 -2,2 -3,12 5,4 8,-2 9,1 -1,3 3,5 2,13 4,1 2,-3 h 6 v 4 h 9 v -3 l 6,-1 2,-5 8,-6 1,-9 7,-1 2,-4 4,-1 3,-4 7,-1 7,-6 -2,-2 -6,-1 v -5 l -5,-4 -2,-4 5,-2 2,5 3,-1 15,9 2,-5 6,-2 v -4 l 10,-2 4,-4 6,-2 6,-5 4,3 6,-5 5,-10 3,-2 5,-16 -1,-7 2,-3 v -4 l -3,-4 6,1 1,-4 h 7 l 5,-2 1,-5 4,-4 4,1 4,4 1,5 3,2 7,-10 8,-7 7,-12 1,-7 12,-6 z"
     id="吕梁市" />
</svg>