<svg xmlns="http://www.w3.org/2000/svg" id="svg1" version="1.1" viewBox="-251 -228 792 1419">
  <path id="太原市" fill="#ff6347" fill-opacity="1" fill-rule="evenodd" stroke="#ffffff" stroke-dasharray="none" stroke-linecap="round" stroke-linejoin="round" stroke-opacity="1" stroke-width="0.5" d="m266 405-4-6-6-1-7-6-2-6h-4l-4-4 4-2-1-3 4-9 8-7 5-2 1-4 3-1 5-7h6l7-5 2-4-3-3 2-4-2-4 1-4-5-2-6 1-1 4-8 4-6 9h-5l-1-4-5 6-17 6-10 13-9 2h-10l-2 2-8-3 2 4-5 5-9-1-3-3 1-3-6-7v4l-5 3-8-3-2-6-2-1-5 3-8-2-4-6-12-3-5 6 4 5-9 4 6 7 3 9-3 7-3 2h-4v2l-10-4-4 3-7-7-16-3-11 3-10-7-4 1-1-6-4-2 1 3-6 1-2 4-8 4-4-1-5 2v3l-5 6-8 4-3 4-11 1-3 2-1 3-4 2-1 3 2 3-2 5 4 6 1 8 5 6 2 7-6 4 3 2 1 5 20-2 4-4 8 2v3l4 4v2l7 3 2 5 17 1 4 12 7 6 4-2h5l2 3 8-2 5 1 3 4 10 5v9l9 10 2 5 4 2 6-1 1 4-4 6h4l3 6-4 2 5 3 2 4 4-1 1-5h6l1 5 7 1 1-5 4 2 9-2v-7l6-2 9 3v-4l6-1-4-6 1-4-2-7-3-1-1-7 8-2-3-5 4-4v-5l4-1 1-5 3-2-3-8 6-5-2-3 5-10h4l2-5 4-2 5 3-4-10 3-2-2-4 9-10 1-5 7 4 3-2 11 1 5-6 4 4 6-6-2-3 2-3 5 1z"/>
  <path id="大同市" fill="#ff6347" fill-opacity="1" fill-rule="evenodd" stroke="#ffffff" stroke-dasharray="none" stroke-linecap="round" stroke-linejoin="round" stroke-opacity="1" stroke-width="0.5" d="m359 83 2-1 2 4 9-3 9 4h8l5 3 1 4 3 3 20 1v6l8 9v3l4 3-1 14-4 4 2 19 2 6h7l1-5 8-3 3 10 6 2 2 7 3 1 6-3 4 3h3l5-4 14-3 3 2 6-1 3-8-1-6 5-10 10 1 2-5 2 1 2-7-7-2-4-3 4-5-3-5 3-8 5-3 2-5-1-14 5-7 1-9 5-2 1-6 4-5 2-10-3-1-7 4-4-11-11-1-5-9 2-29-5-10 3-4-2-8-20 2v-3l-12 3-3-3v-3l5-3-2-4-8 4-13-4-3 1-4-3-3 1-4-10-1-7-16-5-3 1 1-5 6-1 4-5v-14l8 2 4 11 9-4 1-8-6-17 6-3 5 1v2h3l17-5 1-5 3-4 6 2 13-5 8 1 12-5 10-14 1-5-6-2-5 1-5-5-7 4h-4l-7-4h-6l-5-12 2-6-4-3-1-4 5-14-1-4h-3l2-9-5-5-4 1-5-6 1-1-3-7-3-2-3-10-5-6-12 4v15l-5 12 6 8 1 7-4 4-9 3h-11l-4 6-12 9-2-1-3-7-7-7-1 4-5 7-14 6-3 6-16 12-4 6-31 7-13-1-3-3-5-13-5-6-5 3-9 1-10 4-23 5-17 8-7 26-2 3-17 9h-4l-19-17v3l-3 2-1 3 3 5v5h-6l-1 8 2 3-1 4 6 2-2 3 6 10-5 21-3 6 1 10-2 11 1 4 4 2V6l5 5 4-1 4-6 8 4 3-1V3h12V0l2-2 6-1 5-6 8-4 1-4 3 1 2-3-4-5-1-6 20-1 13 2 9-2 12-10 9 3 7 4 5 6h5l11 13-12 4-5 7-3 1 2 6 10 7 3 7-5 8 2 4-2 4 8 10 1 6h5l2 6 7 8-1 4 2 5 10 7z"/>
  <path id="阳泉市" fill="#ff6347" fill-opacity="1" fill-rule="evenodd" stroke="#ffffff" stroke-dasharray="none" stroke-linecap="round" stroke-linejoin="round" stroke-opacity="1" stroke-width="0.5" d="m355 297-13 3h-5l-4-3-3 1-22 12-2 3-15 9-10 1-1 4 2 4-2 4 3 3-2 4-7 5h-6l-5 7-3 1-1 4-5 2-8 7-4 9 1 3-4 2 4 4h4l2 6 7 6 6 1 4 6h6v-2l6-4 6 6h6l3-6 3-2h4l3 5-3 3 2 5 4 1 3 10 6 2 1 4-3 14 8 8 1 6 4 4 8 13 1 5 7 10 6 1 3 4h15l10 4 7-5h9l3 5 11-3 9-7h4l13 7 3-2 1-12 8-5v-5l-5-4-2-4h-4l-2-5-2-16-4-4-7-14-5-2 1-15-4-2v-3l-6-7-3-1 3-9 2 1-2-5h-17l-2-1 3-4-4-1v-4l-6 2-6-6-4-1-5 2-5-3-5-7 2-17-4-5-1-5 2-8 8-11-6-6 1-3z"/>
  <path id="长治市" fill="#ff6347" fill-opacity="1" fill-rule="evenodd" stroke="#ffffff" stroke-dasharray="none" stroke-linecap="round" stroke-linejoin="round" stroke-opacity="1" stroke-width="0.5" d="m71 719 5 2v5l3 4 1 8 8 5 3 8 5 5 5 2 4 13 6 11 8-1 6 7 12 9h16l3 6-1 2 3 4v4l6 3h6l5-3 2 2-3 8v14l2 7-1 4-12 7-2 4 3 8 23-7 5 4 5 9 5-2 5 4 10 4 5-2 9 2 1 11h16l13 3 5 6h10l4 4 10-6 1 2 7-1 6 7 9-5 5 1 5 4 2 7 5-1 5-7 11 4 4-1 8 6 6 1 4-2 3 2 3-3v-4h-3l-1-4 3-10-1-12-2-2 2-4 7 2 2-3-3-3 3-3-5-1-2-3 5-3-2-12-4-3h7l4-2-1-3-5-1v-2l-5-3 8-2-2-3 3-1-1-3-4-2 5-4v-3l2-2-1-9 3-1 2-4-1-13-4-9-7-1-7-7-8-1-1-5-5-3 2-11 3 1 1-5-3-5-6-2 1-5-2-3-8-1-2-5 4-6 1-5-5 1-2-2 2-4 4-3 7 1 1-2-6-6-3-9-21-16h-3l2-6-8-9-3-7h-3l-3 5-10 5-2-3-1 4-5-1-1-4h-4v6l-8-1-4 2-4-2-10-1-15 13h-6l-3-4 1-10-2-3v-8l-4-1-3-4h-7l-7-10h-4l1-5-5-5-6-1-5-5-3 3-4 1-4 5-10-2-3-7-4-1-10 2 1 3 6 2v10l4 4 1 9h5l2 5-1 3-6 2-5-3-6 5-5 1-3-3-9-1-5 5-9-11-6-1-6-7-7 1-2 3-12 5h-7v3l5 5-4 7 3 4-1 2-5 1-4-2-4 16-3 2-1 9 4 5-1 4z"/>
  <path id="晋城市" fill="#ff6347" fill-opacity="1" fill-rule="evenodd" stroke="#ffffff" stroke-dasharray="none" stroke-linecap="round" stroke-linejoin="round" stroke-opacity="1" stroke-width="0.5" d="m83 1035 29 6-1 3 5 1 11-3-2 7h14l4-4h6l6 2 6-1 4 3 5-1 5 3 2-3 8 1 3-2-3-6 3-2v3l3-2v3l10 6-1 4 2 3 1-4h9l10-12 8 3h7l4-3 1-6 6-2 3 2v-12l3-5h7l8 5h5l3 2 4-5 1-6 3-1v-6l3 1 1-9 7-1 6 4 7 2-1-3 2-5-2-1 3-4 2 3h4l5-2 3-6 5-2 4 2 8-3 4 1v-12l7-6 2-6-1-8 2-1 3 6 9 1-2-12-4-2 2-3-3-8 2-7-3-5 4-1-3-1v-5h-3l-8-6-4 1-11-4-5 7-5 1-2-7-5-4-5-1-9 5-6-7-7 1-1-2-10 6-4-4h-10l-5-6-13-3h-16l-1-11-9-2-5 2-10-4-5-4-5 2-5-9-5-4-18 5-2 2 2 10-3 5-10 5-9 8-6 2-6-1-3 2-9-2-7 1-9-4-5 2-4-1 3 9 4-1 5 6 1 4-5 3-10-1-12-5-4-4-2 1v11l4 8-5 5 2 6-2 5-7 7-4 1-2 6-3 3 2 11 3 2v10l-4 4 5 11v6l5 6 6 3-2 8 6 3 3 5z"/>
  <path id="朔州市" fill="#ff6347" fill-opacity="1" fill-rule="evenodd" stroke="#ffffff" stroke-dasharray="none" stroke-linecap="round" stroke-linejoin="round" stroke-opacity="1" stroke-width="0.5" d="m186-107-21-8-10-7-7 1-13 10h-7l-3 7 2 3-13 10-1 10-8 10v6l-7 8-12 25-6 9-2 7L68-3l-2 4v17l-2 6-6 5 3 5-2 8 3 6 5 4 5 7-2 3h-8l-7 2-2 5 3 8h7l4 4 3-1 4 11-1 5 11 18-3 2 7 10 4-4 5-2 8 3 2 4v5l2 4 3 2v6h8l2 12 4-1v7h3v-4l3-2 6 4 8-1 6 2 12-8h7l3 5 3 1 2 6 9 1 6-12 3 2 7-3 4-5 1-6 5-2 5 5 2-1 3-7 7-1 2-7 3-1 4-10 21-8 3-7 10-2 5 4-1 4 6 4 9 3 8-4h19l3 3 8-8 5 3v-4l12-2 3-9 5-4v-6l3-2-1-4-10-7-2-5 1-4-7-8-2-6h-5l-1-6-8-10 2-4-2-4 5-8-3-7-10-7-2-6 3-1 5-7 12-4-11-13h-5l-5-6-7-4-9-3-12 10-9 2-13-2-20 1 1 6 4 5-2 3-3-1-1 4-8 4-5 6-6 1-2 2v3h-12v4l-3 1-8-4-4 6-4 1-5-5V-5l-4-2-1-4 2-11-1-10 3-6 5-21-6-10 2-3-6-2 1-4-2-3v-6l1-2h6v-5l-3-5 1-3 3-2z"/>
  <path id="晋中市" fill="#ff6347" fill-opacity="1" fill-rule="evenodd" stroke="#ffffff" stroke-dasharray="none" stroke-linecap="round" stroke-linejoin="round" stroke-opacity="1" stroke-width="0.5" d="m353 706 5-3 5 1 10-8 5-1-1-4 2-4-2-7 4-6 2-1 4 2v5l2 1 8-4 1-5-5-14 6-9-4-5 3-6v-4l-4-1-2-3 3-7-1-8 1-2 10-4 4-11 6-5v-5l3-4v-7l4-5 7-4 2-13 4-4h4l2-4v-8l18-29-2-4 5-13-3-5-11-6-12 4-1 5-3 2-13-7h-4l-9 7-11 3-3-5h-9l-7 5-10-4h-15l-3-4-6-1-7-10-1-5-8-13-4-4-1-6-8-8 3-14-1-4-6-2-3-10-4-1-2-5 3-3-3-5h-4l-3 2-3 6h-6l-6-6-6 4v2h-6l-3 2-5-1-2 3 2 3-6 6-4-4-5 6-11-1-3 2-7-4-1 5-9 10 2 4-3 2 4 10-5-3-4 2-2 5h-4l-5 10 2 3-6 5 3 8-3 2-1 5-4 1v5l-4 4 3 5-8 2 1 7 3 1 2 7-1 4 4 6-6 1v4l-9-3-6 2v7l-9 2-4-2-1 5-7-1-1-5h-6l-1 5-4 1v2l-12 6-1 7-7 12-8 7-7 10-3-2-1-5-4-4-4-1-4 4-1 5-5 2h-7l-1 4-6-1 3 4v4l-2 3 1 7-5 16-3 2-5 10-6 5-4-3-6 5-6 2-4 4-10 2v4l-6 2-2 5-15-9-3 1-2-5-5 2 2 4 5 4v5l6 1 2 2-7 6-7 1-3 4-4 1-2 4-7 1-1 3v6l9 7 5-1 2-6 3 6v-2h5v9l5 7 16 14 3 1 2-2-3-8 9-4 7-1 5 3 10-2-1 4 7-2h11l9 6 2-2 2-14-4-5 1-9 3-2 4-16 4 2 5-1 1-2-3-4 4-7-5-5v-3h7l12-5 2-3 7-1 6 7 6 1 9 11 5-5 9 1 3 3 5-1 6-5 5 3 6-2 1-3-2-5h-5l-1-9-4-4v-10l-6-2-1-3 10-2 4 1 3 7 10 2 4-5 4-1 3-3 5 5 6 1 5 5-1 5h4l7 10h7l3 4 4 1v8l2 3-1 10 3 4h6l15-13 10 1 4 2 4-2 8 1v-6h4l1 4 5 1 1-4 2 3 10-5 3-5h3l3 7 8 9-2 6h3l21 16 5 12z"/>
  <path id="运城市" fill="#ff6347" fill-opacity="1" fill-rule="evenodd" stroke="#ffffff" stroke-dasharray="none" stroke-linecap="round" stroke-linejoin="round" stroke-opacity="1" stroke-width="0.5" d="M-187 933v8l3 4v5l2 1 1 6-4 6-1 9-13 18-6 15-5 20-9 9-5 8 1 9-3 3v12l2 2-5 11-2 9-3 1v8l-10 13-6 14v10l3 11-3 21 1 5 6 9 5 4 10 1 10 4 15-5 8 6h3l11-5h17l8-10h8l6 8 5-4 6-2 3-6 3-13 3-1 5 6h3l10-8 15-3 6-12 2-1 12 5 3-1 2-5 7 2 9-5 10 4 8-5 5 2 6-1 5-4 5-1 3 2 4-8 4-3 1-5 5-5 6-3-2-8h3l5-3h5l1-3h4l2-3 5-2v-5l2-2h12l3-2 3 2 2-3 6 1 3 3h8l3 5 4-3-1-9 2-14-4-9 6-4v-5l-3-9 2-8-3-5-6-3 2-8-6-3-5-6-4 8-11 1-7-2-2-8-5 1 5-6-1-4 2-2 1-6 9-3 1-4-11-3-1-7 4-3h-7l-11-3-7-7-8 1-1-4-4 3-8-1-2 11-3 9-2 1-3-3-9-2-15 4-2-3-9 5-12 3-5-5 3-3-4-6 1-7h4l2-4-2-5 4-2 6 2-2-9-2-1-6 2-5 6h-2l-3-5-9-6-1-8-7-11h-8l-8 16-10 2-4-17-5 5 1 15-8 7-12-7-16-3-2-3-11 4-1-3 3-5-4-1-4-4h-5l-2 5z"/>
  <path id="忻州市" fill="#ff6347" fill-opacity="1" fill-rule="evenodd" stroke="#ffffff" stroke-dasharray="none" stroke-linecap="round" stroke-linejoin="round" stroke-opacity="1" stroke-width="0.5" d="m59 42-5-2-4 3-7-3-10 7-12-4-2-4-11-5-6 2-21-7-11 5 1 3 3 2-2 3-1-2-3 1 2 3-3 14 2 4-1 5-7 3-5 6v5l-2 4-3 2-30-1-5 3-4 8 1 2h5v7h2l3-3 2 1-2 5 1 3 5 3h6l-4 4-2 6 1 3-10 22 2 4-2 6-3 2-2 8-8 8-10 3-10 9 5 11 1 9-1 4-3 2 3 7-3 3-3 9-4 3 2 5-4 6 2 4-1 6h6l3 5 5 1 23-15 9-1 3 4 1 10 4 3v5l5 9 13-2v4l5 3 13 2 1 8 3 5 7 6v-8l3-2 5 5 11-9 14-5 4-8 2-1 5 5 4 11-8 5 1 3 11 12v5l-2 2 2 7 6 5-1 7 4 4v4l-12 2 1 11 4 3 3 5 6-1-1-3 4 2 1 6 4-1 10 7 11-3 16 3 7 7 4-3 10 4v-2h4l3-2 3-7-3-9-6-7 9-4-4-5 5-6 12 3 4 6 8 2 5-3 2 1 2 6 8 3 5-3v-4l6 7-1 3 3 3 9 1 5-5-2-4 8 3 2-2h10l9-2 10-13 17-6 5-6 1 4h5l6-9 8-4 1-4h21l15-9 2-3 25-13 4 3 18-3 1-8 8-7 2-14 16-1 2-3-1-8 4-3 3 2 5-2 5-12 7 1-1-9 3-3 1-4-10-7-5-7-1-17 1-6 6-1 17-18 5 1 6-9-2-6-2-19 4-4 1-14-4-3v-3l-8-9v-6l-20-1-3-3-1-4-5-3h-8l-9-4-9 3-2-4-5 3v6l-5 4-3 9-12 2v4l-5-3-8 8-3-3h-19l-8 4-9-3-6-4 1-4-5-4h-4l-6 2-3 7-21 8-4 10-3 1-2 7-7 1-3 7-2 1-5-5-5 2-1 6-4 5-7 3-3-2-6 12-9-1-2-6-3-1-3-5h-7l-12 8-6-2-8 1-6-4-3 2v4h-3l-1-3 2-1-1-3-4 1-2-12h-8v-6l-3-2-2-4v-5l-2-4-8-3-5 2-4 4-7-10 3-2-11-18 1-5-4-11-3 1-4-4h-7l-3-8 2-5 7-2h8l2-3-5-7-5-4z"/>
  <path id="临汾市" fill="#ff6347" fill-opacity="1" fill-rule="evenodd" stroke="#ffffff" stroke-dasharray="none" stroke-linecap="round" stroke-linejoin="round" stroke-opacity="1" stroke-width="0.5" d="m-217 670-2 3-5 1 1 2 8 4-1 5-2 2 3 2-1 4-5 8h4l3 3-2 5 1 2 3-4 2 3-3 3 1 6h-4l-3-3-1 5 5 4 4 9 9 9-1 7 2 3 1 11-6 9 3 6v6l-4 6-1 9 2 4v14l-3 6 1 6-3 7 1 7 4 9-1 4 6 15-1 3 4 5v3l-3 4 3 5-1 9 7 1v8l4 9-1 3 2 11 7-6 2-5h5l4 4 4 1-3 5 1 3 11-4 2 3 16 3 12 7 8-7-1-15 5-5 4 17 10-2 8-16 5-1 3 1 7 11 1 8 9 6 3 5h2l5-6 6-2 2 1 2 9-6-2-4 2 2 5-2 4h-4l-1 7 4 6-3 3 5 5 12-3 9-5 2 3 15-4 9 2 3 3 2-1 5-20 8 1 4-3 1 4 8-1 7 7 11 3h7l-4 3 1 7 11 3-1 4-9 3-1 6-2 2 1 4-5 6 5-1 2 8 7 2 11-1 4-6v-8l-5-11 4-4v-10l-3-2-2-11 3-3 2-6 4-1 7-7 2-5-2-6 5-5-4-8v-11l2-1 4 4 12 5 10 1 5-3-1-4-5-6-4 1-3-9 4 1 5-2 9 4h25l6-2 9-8 10-5 3-5-2-10h-3l-3-8 2-4 12-7 1-4-2-7v-14l3-8-2-2-5 3h-6l-6-3v-4l-3-4 1-2-3-6h-16l-12-9-6-7-8 1-6-11-4-13-5-2-5-5-3-8-8-5-1-8-3-4v-5l-5-2-2 2-9-6H49l-7 2 1-4-10 2-5-3-7 1-9 4 3 8-2 2-3-1-16-14-5-7v-9h-5v2l-3-6-2 6-5 1-9-7-8 6-2 5-6 1v3h-9v-4h-6l-2 3-4-1-2-13-3-5 1-3-9-1-8 2-5-4 3-12 2-2-2-4-11 3-1 4-3 1 1-6-3-1 1 5-4 2-6-2-8 5v2l-10 4-12-4-2-6-7-2-1-5h-11l-2 2v7l-3 5-5-1-6 3-2-2-4 2-1-2-6-2-6 1-1-3-5 1z"/>
  <path id="吕梁市" fill="#ff6347" fill-opacity="1" fill-rule="evenodd" stroke="#ffffff" stroke-dasharray="none" stroke-linecap="round" stroke-linejoin="round" stroke-opacity="1" stroke-width="0.5" d="m132 543-2-4-5-3 4-2-3-6h-4l4-6-1-4-6 1-4-2-2-5-9-10v-9l-10-5-3-4-5-1-8 2-2-3h-5l-4 2-7-6-4-12-17-1-2-5-7-3v-2l-4-4v-3l-8-2-4 4-20 2-1-5-3-2 6-4-2-7-5-6-1-8-4-6 2-5-2-3 1-3 4-2 1-3 3-2 11-1 3-4 8-4 5-6v-3l5-2 4 1 8-4 2-4-3-5-4-3-1-11 12-2v-4l-4-4 1-7-6-5-2-7 2-2v-5l-11-12-1-3 8-5-4-11-5-5-2 1-4 8-14 5-11 9-5-5-3 2v8l-7-6-3-5-1-8-13-2-5-3v-4l-13 2-5-9v-5l-4-3-1-10-3-4-9 1-23 15-5-1-3-5h-6l1-6-2-4-5 6v7l-4 3-3 8 3 9 4 1-2 5v9l-7 3 1 13-6 3-8-3-4 3-5 17-8 3-6 9-6 3-7-1-4 2-2 19-8 1-3 6 3 14-4 6 2 9-2 5 1 6 4 6-2 3 1 5 12 6 11 20 2 7 4 5 10 4 3 4v4l-7 2-2 2 1 3 5 4 7 2 4 4-1 3-5 2 1 11 5 6-5 6-2 16-2 5-18 2-3 13 2 5 9 3v5l-3 2 3 7-6 1-2 6-20 26-1 6-13 16-7 1v4l5 2-2 2-5-3h-5l-1 2 5 5 3 6-2 14 4 4 5-1 1 3 6-1 6 2 1 2 4-2 2 2 6-3 5 1 3-5v-7l2-2h11l1 5 7 2 2 6 12 4 10-4v-2l8-5 6 2 4-2-1-5 3 1-1 6 3-1 1-4 11-3 2 4-2 2-3 12 5 4 8-2 9 1-1 3 3 5 2 13 4 1 2-3h6v4h9v-3l6-1 2-5 8-6 1-9 7-1 2-4 4-1 3-4 7-1 7-6-2-2-6-1v-5l-5-4-2-4 5-2 2 5 3-1 15 9 2-5 6-2v-4l10-2 4-4 6-2 6-5 4 3 6-5 5-10 3-2 5-16-1-7 2-3v-4l-3-4 6 1 1-4h7l5-2 1-5 4-4 4 1 4 4 1 5 3 2 7-10 8-7 7-12 1-7 12-6z"/>
</svg>
