<svg xmlns="http://www.w3.org/2000/svg" id="svg1" version="1.1" viewBox="-251 -228 1942 1485">
  <path id="广州市" fill="#ff6347" fill-opacity="1" fill-rule="evenodd" stroke="#ffffff" stroke-dasharray="none" stroke-linecap="round" stroke-linejoin="round" stroke-opacity="1" stroke-width="0.5" d="m705 547 12 9 14 4-1 2 16 11 4 4-2 3 7 13 5 1 11 7 8 18h10l9-2 3-3-6-31-8-20-9-13-17-19-3-6 1-10-12-26-2-16 9-12 8-2 6-4h8v-3l2-2 3 1v2l14-8 6-1 4 4h16l6 3 3-9 6-4h5l2-4h-3l-2-4 3-6h2l-3-8 1-3-4-3 3-5 1-18 9 2 3-1 5 3v5l5 4 4 1v-4l-3-6h3l1-4-4-9 4-4-3-4v-7h-7l-2-3 1-7 5 1 2-2-6-3h-8l4-3-9-3-6-9-4-2-2-7-3-1 3-5-1-6-6-2-1-2h-4v-3l3-4-2-2h5l2-7 9-1 4-4 1-5h3l2-4h4l1-2h8l1-6 6-1 4-4-1 4h2l2 3v-2l3-3 6-2-6-5 3-2-4-3 5-5 1-5-2-2v-4l-2-1-1-8-2-1 1-4-7-4-6 2-8-1-3 2-1-2-8 1-3-2-2 3-2-2h-3l-15 8-4-1-3 2-2 6-6 6-10-2-1 2 3 3v5l-3 3-5-3-1 4h-5l-3-2-3 1-2 5-5 5 6 8-2 4 2 2-2 1-1 4 3 2-7 5 1 2-4 4-8-4-2-6h-3l-1 2-5 2-11 1-4-2-1-5-5-2-1-3-9 1-2-2h-5l-1 6h-2l-5 12h-2l-1 3h-2v3h-10l3 2-2 6-3 2-1-2-7 4-2-1 1 5-5-2v3l-6 2-1 4 3 3v2l-5 6v3h-5l-5 3-6-3-5 4-7 1-7 7-3-1-7 1-3 2h-8v4l-3 1v6l4-5h3l-2 2 5 8-3 1v4l-2 2 2 8h6l1 3 5-4 2 2-5 7 3 1-1 6 5 6v4l-2 3 9 1 1-3-3-7 9-1v-4l5-1 1-2 6 4v3l7 5 1 5-2 9 4 2 5 6v4l-6 5v3l1 2h5v6h-2l1 6h2l-1 4-9 2 2 5 7 5 11-1v21l12 10-5 2 1 7-2 2 6 5-1 4 3 3 1 6 6 4 10-2 5 4-3 3-6 2z"/>
  <path id="韶关市" fill="#ff6347" fill-opacity="1" fill-rule="evenodd" stroke="#ffffff" stroke-dasharray="none" stroke-linecap="round" stroke-linejoin="round" stroke-opacity="1" stroke-width="0.5" d="m817 231 10-5h3l4-3h3l2 2 2-3 3 2 8-1 1 2 3-2 14-1 7 4-1 4 2 1 5-10 5 3 10-1 1-2 10-1 1-4 3-1h3l4 5 3-2 7 1 6-5 2 1v3l-5 2 1 2-5 6h7l4 3 2-1 4 4 8-3 4 4 4-4-1-3h2l1-4 3-2v-10l2-1-2-3v-3h2l-2-3 4-4v-2l3-1 2 3 2-4h4l-1-8 2-3 5-1 4-3 3-6-1-2 2-1 3 3 7-9v4l3-2 2 2 3-3-2-4 3-3 6-1 2-3-3-4v-4l2-3-2-4h-3l-6-5-2 4-14 11-3 6h-5v2h2l-1 7 5 6-1 1-4 1-7-3-1-3-10-3-8 3-3-3-3 2-1 3-2-1v-3l-9-10-1-2 2-4-2-3-4-2v-3l-5-9 4-1-4-2 3-2-1-1 4-7-2-7 6-6-4-5-8 1 2-11-3-3v-4l13-12 3-1 1-3-8-8-1-7 4-1 1-4 4-2v-4l-2-1-3-6v-6h-2l-1-3h-3l-2-3h-7l-6-2v-2l-9 3v-4l2 2 2-2-5-9 6-1 4 2 6-3 10-1 2-2 1-5 3-2h4l7-5 1-4-2-4 3-3-1-5 2-3h2v-3l6-9 6-5v-4l-3-6 3-4-2-3v-4l8-2-1-4h5l4-2v-5l6-2 7 1 2-7 4 1 8-16h6l3 2 2-4 1 3h8l7-5-1-3h8l11-5-1-10-2-2h-6l-4-3 1-2-3-4h4v-6l2-2h3l3-3 4 2 2-3-3 1v-2l3-1-2-9-4-3-3-9-3 1-3-2-1 2-6-4-7 1-6-10h-3v-8l-4-2-1 3h-2l1-4-12-5-7 5 1 4-3 2-5 1-7-4-3 3-2 8-3 4h-4l-5 5-18-6-2 1v6h2l-5 4 2 2-2 1-2-3-4-1-1 3-16-2v-3l-3-2-5 3-1-2-6 2-4-1-1 3-3-1-8 8h-4l-1-2-2 1-5 8-2-1v-3l-4-5 3-2v-4l8-3-6-2-1-2 2-4h3l-2-5 2-2-7-2 6-3-1-2-5 2-3-1-1-3-5-2-1-3 5-5-1-3-10-3-2 3-4 2-3-2-10 2-1 5 2 2-2 1-1 8-10 5-2 2-2 7-2 1-9-2-6 1 2-1-3-8h-3l-2 4-3-3h-4v2h-5l-2 5-4-1-2 3h-12l-6 6-2-3v-7l-6-3-3-4-2-1-3 5-3-2 1-3-10-2-2 3-2-1-3 3-6-4-1-6-4-2-4 1-1-2-4 1-2-9-2-2-2 1-3-4-6 2v-7l-2-4 1-2-4-6 2-2h-3v5l-2 2-4-4-2 2-5-5-4 2-7 9-6 2-2-5-4-1-1 7h-4l-3 3 2 2-3 1 2 2 2 7-10-1 1 2-2 1v3l-3 4-13 6-1 5-4-2-10 1-1 2-4 1-1 3-4 1-1 7h-4l-3-3-1-8-5 1-2 2-3-3-1 1 1 12 2 5h2l-2 4 1 3 9 3 5-3 7 1 2-2 6 3 3-1 6 10h3l2 3-1 2-6 1-4 4-5 2-1 8 5 9 3 2 1 4 4 2-5 3v4l-6 9 4 2-1 6 3 2 2 4v4l-2 1 3 3-5 3v3l3 4 4 16-6 2-12 9 2 5-2 3 1 2-5 8 1 4-2 6-8 1 4 15-5 3v5l-3 5 1 6 3-2 1 2 3-2 3 2h6l4 3-1 4 2 1 3 7 2-1 3 5 5 4 1 6 10 7 6-1 3-7 4-2 6 6 4 1v3l2-3 4 1 3-2 2 2h3l3-6 4-3 3 1 1-2 6 12 6 3 9-4h5l6-6 2 2h9l-1 4 2 3 5 2 7-2 3-5 3 2 5-4 2 4 3-2 3-8 9-1 1 3 3-4h2l-1 4 4 3 4-1 15 11v5l7 7 3-1v-6l10 1 1 4 10 5-1 7 5 7-1 2 6 2 3 5-2 4v7l2 2-3 2 4 4 2-2 2 1v4h5l2 9 6 2v3l2-1v2h-7l-12 8 4 5-2 3-6 3-1 3 2 2-2 1v3l2 1-2 4h-2l1 2-7 3-4 5-1 4-8-1-9 9 3 3 3 7 6-1 2 2v4l5 2 2 3z"/>
  <path id="深圳市" fill="#ff6347" fill-opacity="1" fill-rule="evenodd" stroke="#ffffff" stroke-dasharray="none" stroke-linecap="round" stroke-linejoin="round" stroke-opacity="1" stroke-width="0.5" d="m927 536-3 2-2 5-5 1-2 3 2 1-2 1 5 1 4 8-2 2v4l-3 1v8l-6 7-5-4 2 1 1-4-4-3-2-6-9-3-2-7h-4l-3 2-2-4h-4v-4l-8 3-4-1-2-2-1-8h-4l1-2-2-2h-4v-2l-5-3h-7l-4-4 1-3-3-1-1 3-1-1-2 4-4 2-1-2-3 1-1 9-3 3h-3v3l-3-1-3 9-7 4-3 6 2 11 6 14 15 19-1 5h4l3 7v11l5 8 2 1 7-3 8-6 3-8 4-2 12 1 8 3 3-4h4l3-6h6v2l10-4 3-5 15 2 2 3 7-5 9-1 8-7h6l9-4h4l6 3 2 2 1 5 9 9 1 19 4 6 5 2 4-1 4-2 3-5 16-5 4-5v-5l-4-7-6-1-8-7v-3l11-15v-5l-5-2-7 2h-10l-3-4-7 2-6-2-6 3-1-5 4-1 1-2-1-3h-4l-2-4h-2l-2-3 3-3 1-9-4-4-2 1v5l-2 1-6-3-2 1-1-4-3-2 3-1v-5l-6-1-4 3-5-1-2-2-6 8h-3l-2-3h-2zM822 652l1-2-3-4-4-1-3 3 6 3zm6-31 3 1-3-3zm-1 3 2 2 1-2-2-2z"/>
  <path id="珠海市" fill="#ff6347" fill-opacity="1" fill-rule="evenodd" stroke="#ffffff" stroke-dasharray="none" stroke-linecap="round" stroke-linejoin="round" stroke-opacity="1" stroke-width="0.5" d="m678 654-3-3-3 3-7-2v3l-5 1-2-5h-5l1 6 6 6-1 18-3 4-2 11-2 3-10 5h-4l1 2-3 4-3 17 1 17 3 5 11 10 2 9 8 8 13 18 8 4 6-3 3-4 5-3 3-15 2-2 18-6 9-5 4-10 6-3h5l7-5h9v-5l-3-3 1-11-6-9 2-7-1-3h6l2-4 6-1 2-2-2-16 1-3 5-1 1-3-4-6 6-3 11-18v-6l-11-2-2 2-2 8-6 2-5-3-8-1-11 2v4l-2 1 2 10-1 4 4 4-9 4 11 14v3l-9 3 2 3-14 8-4-1-7-8-1 1-9-6-8-17v-5l-12-15zm204 85 1-3-3-4-5 2 2 3zm46 19 2-2 7-1 4-3 7-1v-2l4-2-1-2-4 1-1 2-16 5-4 4zm-133 2 4-2-2-3-5-1-2 3 3 3zm28 2v3l2 1 3-3h-3zm48 41 5-5-5 2zm-50-84-2-5-2 2zm47 31v3l2-3zm-60 23 4-7-2-3-2 2-4-1-2 2 4 6zm69 21 4 1 1-3h3l-2-2-4 2zm-30-42h5l-4-3zm-199 57v-2l4-3 4-1 1 2h2l5-7h-4l-3 3-3-4-4 3-2-2-2 1v8zm149-25 5-2 2-3-2-3-4-1-2 1-1 4 2 1zm40-54-2 1 2 2 1-2zm-13 0 3-4-3-7-3 1 1 9zm93 36 8-1 1-5-11-1v7zm-264 9 2 4v-4zm255-6 5-5h-4l-2-2-1 3-6 2 5 1zm-262 16-3 6 9-8-2-3h-2l-2 3zm136-33v4l3-2-1-4zm5 28 6-2v-4l-4-1-3 4zm56-49-1-3h-2l-1 4zm-50-8v2l4-2zm77 32h3l-1-3zm-78-21-1 2 3 1zm109 39 4-1-1-1zm-142-69v3h3l1-3z"/>
  <path id="汕头市" fill="#ff6347" fill-opacity="1" fill-rule="evenodd" stroke="#ffffff" stroke-dasharray="none" stroke-linecap="round" stroke-linejoin="round" stroke-opacity="1" stroke-width="0.5" d="m1525 454 4-8 3-2 22-4 13-15 8-1 11 4h5l2-2 2-7-2-3-4-1-4-19 6-10 7-5 6-11 4-2v-9l3-2 3-7h-3l1-7 3-5 4-3 1-9-3-5 1-6-3-3v-2l-2-1-5 2-3-2v-2l-8-4-2 3v2l2 1-1 3-6 2-2-1v6l-3 2-3-1-3 3-6-8-6 1v4l-3 3 4 3v3l-3 3v7l3 13-1 3-3 1v5l-4 3-1-3-4 3h-10l-10-7v-3l-2 1-1 3 3 2v4l-2 1-4 13-3-10-8-7-15-1 7-10v-4l-3-2h-4l-10 9-3-4v-8l-2-1-2 4h-6l-7 14-4 2-4-2 1 8 3-1 3 5 2 17-1 3-8 1v2l3 2v5l-2-1-3 2 1 3-3 2 1 1-2 3-1 7-4 4-3-1-2 3v3h2l-1 3-3 1 3 5h-3l1 6-3 4 4 4 8 4v3l3 1 3-2 7 5 1 7 6 1 2 2-2 1 3 2 12-7 5-6v-2l8-3 11 2zm153-98-5-1 2-4-1-3-5 2-4 5-3-1-1-3h-4l-11 10-5-5h-7l-8 5v4l10 3h12v2l6 2 7-3 5 1 1 4 3-2 3 3 4-3 1-4-2-3v-4h3l1-2-2-1z"/>
  <path id="佛山市" fill="#ff6347" fill-opacity="1" fill-rule="evenodd" stroke="#ffffff" stroke-dasharray="none" stroke-linecap="round" stroke-linejoin="round" stroke-opacity="1" stroke-width="0.5" d="m604 354-4 4-7-4 1-2h-2v-4l-6-1-4-8 7-10-4-4-2 4-8-6-3 2h-6l1 8 5 3-1 11-2 1-2 5-5 1-2 8-2 2-2 16 5 1v-6l2-1 6 1 6 7 1 4 5 1-4 15-3 1-3 7-6 5 6 2-1 4-2 2h-5l-1 5h-2l1-4-2-4-1 6h-2l-1-5h-4l1 2-2 4 2 1 1 9 5 5 1 11 5 11v5l4 11-10 7-2-1 1-3-4 2-4 5-2-4-5 3v11l-6 4-3-6-6 2 6 7-3 3 2 1h-4l-5 4-17 5-2 2-6-3-1 3 1 3 3 2v4l-11 2-1 3-2-4h-5v4l-3 1-1 4-5 2-5-1-8 5-6 1v7l5 11-2 2 2 8h4l3-3 3-8 4-1 3 3v-4l6-3h6l10 9-2 4-5 1v8l3 2 10-6v-4l4-3-3-2 4-3 3-1 1 2 1-2 4-1 2-4h3l1 4h2l-1-3 3 3 1-2-2-2 2-2 2 2h3l-6-5 5-4 3 4-3 3 3 1-1 4-3 3v3l4-4 2 5 4-2 2 2h4l6-7 7-3 1-6-2-1 2-4h2l1-5-3-2 2-3h5l1-2h3l-2-7h6l1-4 3-1 1 2h3l6-3 10 8 7 8 16-2 2 1 4 7 3 17 4 5 3-1 12 8 3-2 5 2 3-1v-6l5-4 5-9 7 5 4-3 4 1 7-2 4-5 4-1 2-3-2-5 6-2 3-3-5-4-10 2-6-4-1-6-3-3 1-4-6-5 2-2-1-7 5-2-12-10v-21l-11 1-7-5-2-5 9-2 1-4h-2l-1-6h2v-6h-5l-1-2v-3l6-5v-4l-5-6-4-2 2-9-1-5-7-5v-3l-6-4-1 2-5 1v4l-9 1 3 7-1 3-9-1 2-3v-4l-5-6 1-6-3-1 5-7-2-2-5 4-1-3h-6l-2-8 2-2v-4l3-1-5-8 2-2h-3l-4 5v-6l3-1zm-47 129-1 1z"/>
  <path id="江门市" fill="#ff6347" fill-opacity="1" fill-rule="evenodd" stroke="#ffffff" stroke-dasharray="none" stroke-linecap="round" stroke-linejoin="round" stroke-opacity="1" stroke-width="0.5" d="m396 655-5 8v5l-3 1v-4h-2l-2 4v-6l-3 3-7-1-4 7 1 2-2 4 2 2-2 4-6 5h-7l-2 5 5 1 4 3v5l4 2v3l-3 2-1 6 3 6-3 4-3 1 2 4 10-3v-2h4v-2l5 1v3l5 5v3h8l7 8 4 1 3-2 4 2 1 3-4 4 1 6 3-1-2 2 10 3 3 2 1 3 10 2 4 5 2 4v7h2l-1 4 2 1-2 7 7 4-5 3 2 5-5 4 1 2-4 3 1 8-7 7 1 4-2 5 3 4 3-2h7l15-6 4-17 3-4 10 2 15 12 16 1 14-3 9-14 29-32h9l15 23h13l12-7 15-24 2-14-1-4-5-7 1-9 11-11 3-5 2-15 3-4-1-2h4l10-5 2-3 2-11 3-4 1-18-6-6-1-6h5l2 5 5-1v-3l7 2 3-3 3 3-1-13-4-11-14-18-1-9-7-11 2-11h2l-3-6-12-8-3 1-4-5-3-17-4-7-2-1-16 2-7-8-10-8-6 3h-3l-1-2-3 1-1 4h-6l2 7h-3l-1 2h-5l-2 3 3 2-1 5h-2l-2 4 2 1-1 6-7 3-6 7h-4l-2-2-4 2-2-5-4 4v-3l3-3 1-4-3-1 3-3-3-4-5 4 6 5h-3l-2-2-2 2 2 2-1 2-3-3 1 3h-2l-1-4h-3l-2 4-4 1-1 2-1-2-3 1-4 3 3 2-4 3v4l-10 6-3-2v-8l5-1 2-4-10-9h-6l-6 3v4l4 4-1 3 5 5-1 6 3 3 2 6-12 6h-3l-2-5-4-1-2-4 2-2v-4l-3-4 1-2h-4l-1 4-4 4 2 4h-2l-2 7h-3l-2 10 1 2-8-3 4 5-4-2-2 2-3-3 2-2-1-2-5-1-2 4 2 1-2 3v8l-7 1-4 3 1 6-7 15 2 5h-4l-4 3-4-2-2 2v9l-4-1v-4zm157 228 11-7-5-6 2-8 4-3-4-8 1-6 6-9 11-4v-6l-9-2-11 5h-3l-2-2-1 5 2 3-2 2-3-1-10 4-4 6 1 3-2 2 2 2h4l1 2 8-4 4 3-1 4-6 2-6 10 2 3 5-3-1 8h5l-3 3zm-63-5 2-2h6l-4-3v-2l6-3 7 2v2l4-2 2 2 1-3 3-2v-3l6 1 2-3-4-1-3-3v-5l7-3 1-3-2-5-14 3-4 3-1 4-8 3 3 6-5 3-2-1-5 11v3zm-25-22 3 4h3l3-5-1-6-2-1-2 5zm64-10h2l-1-4-2 2zm52 29 5-2v-3l-5-1-6 3 2 3zm36-70 2-2h4v-8l-6 1-4 3 3 5zm-95 70 3-4-3 1zm-17 2 3-1v-2l-5-1-1 3zm22-7h-3zm33 13 3-1 1-3-6 3z"/>
  <path id="湛江市" fill="#ff6347" fill-opacity="1" fill-rule="evenodd" stroke="#ffffff" stroke-dasharray="none" stroke-linecap="round" stroke-linejoin="round" stroke-opacity="1" stroke-width="0.5" d="m5 976-2-17-7 1-5 6-6-5-12-6v-3l4-4 3 1v-2l3-1-1-2 3-5-3-2v-2l-3 2-2-2-2-6 1-3-3-1-4-4v-2l-6-3v-3l3-5-1-2 4 1 1-6-3-5-4 1-2-3 2-5-2-3-1 2-4-2h-6l-3-2 2-4 4-3-5-4-3 4-2-4 2-1v-3l-2-1v-4h-2l2-4-6-5 8-3-1-3h-2l-1 4-2-2-1 2-5-3 1-1-5-7 4-2-1-8 3-3-1-7 4-1v-2l-3-1 1-2-4 3-4-2 1-2 3 1-1-2-3 1-1 3v-10l3-6-1-2 3-1 2 3 4 2 3-3-4-9-12 2-6-6-6-3-2 7-12 4-6-2v-2h-7l-1-2-5 2-3-1-2 4-2-5h-4l-3 5v3l-2 1-1-5-3 6-8 2-4-3-13-3-2 4-9 5 2 1-2 4 1 1-3 3 1 13-2 4 2 5-4 2v7l-2-1-3 5 2 1-2 3 3 1-5 6h-3l-3-3-8 6-9-1v3h-3l-3-2-2-9-3 1-6 18 3 5v8l5 6v7l4 5-1 9 15 4h13l3 3-9 18-9 2h-17l-3 3 2 34-23 25-2 4 1 14-4 50 2 7 12 24 5 15 4 28 8-1 4 2 3 4 2 7 1 16 2 4 4 4 13 4 2 3v10l-3 5-5 2-1 7 2 4 8 6 4 6-2 24 1 3 4 2 5-1 5-3 7-8 23-1 9 11h13l6-2 6-7 16 1 2 3 3-3 13-3 7-8 16-2 4-4 16-26 7-4 2-12-1-5-6-9-6-16-3-19-6-11-6 3h-8l-5-3 4-11v-17l-3-9-10-7-6-2h-11l-5 2-10-5h-6l-8-13 1-21 7-7-2-6 3-7 2 1-1 3 5 7 3-1 1-7 12-14 13-3 7-8 3 3 4-2 5-16 2-1 6 2 3-5 9-4 9 4 7-2 17-1zm-36-72 2 2-2 3-3-1-3 5h2l-2 3 6 3v2l7 5-1 3 2 6 2 2 3-2v2l3 2-3 5 1 2-3 1v2l-3-1-4 4v3l12 6 6 5 5-6 7-1 2 17 24-32 7-6 7-2 24 2 5-1 6-2 12-8-3-7-4-3-5-1-5 2-2 4-6-6 4-1v-3l-6-3 1-7-2-3-3 3-4 1 4-3-2-7-7-4-1-2 2-2-3-7-5 1 1-14-7-5h-3l-1 4-2-1-3 4v4l2 1 1 5h-3l-2 4-1 7 3 4-2 1v2l-4-1 5 7h-6l1-3-2-3-3 2-4-2-2 3 3 1 2 4-2 1-4-2-2 2v-4l-4 1 1 5h-7l-5-7-6 2v-4l-5 1-4 5 1 4-2 1-5-1v-3zm-29-115 5-2-3-1h3v-5l7-1-6-2-1-3-6 1-5 5 3 1 3 5zm-3 34-1 5 3 1v-5zm42 193 7-1 2-2 6-17 3-6 4-3v-6l-5 1-2 3-4 1-1-2h-7l-8 3-5-6h-3l-3 3h-5l-2 4-6 1 1 4 4 1 3 4 6 3h6l2 7 3-1 1 2v6zm-7 1-5 1-5 4h-5l-12-9-20 5-2-3h-6l-6 9-2 6-18 15-1 11 28-7 10-6 27-1 5 2 6 9 2 7 2 2h4l3-6v-13l6-17v-4l-8-4zm50-123-2 1 3 1zm-79 234h4l1-2 1 3 2-2v-5l-3-3-4 1v3l-2 1zm61-71-10-5h-4l-5 8-5 4v10l3 4h13l9-16zm-22 167 2 1 7-10v-3l-2-2-2 8zm-35-229-1 3h6l2-3-5-1zm-7 15v2l8 1 1-3-3-2z"/>
  <path id="茂名市" fill="#ff6347" fill-opacity="1" fill-rule="evenodd" stroke="#ffffff" stroke-dasharray="none" stroke-linecap="round" stroke-linejoin="round" stroke-opacity="1" stroke-width="0.5" d="M20 895h6v-2l2-1-3-4 3-11h3l-1-5-2-1v-4l3-4 2 1 1-4h3l7 5-1 14 5-1 3 7-2 2 1 2 7 4 2 7-4 3 4-1 3-3 2 3-1 7 6 3v3l-4 1 6 6 2-4 5-2 5 1 4 3 3 7 22-12 22-3 6 1 17-4 4-3 10-1 1 3-4 5v3l-2 1-5-3-1 1 2 4v6l7-1 4-5 8-3 6-5 7-9 18-5 2-5-3-11-2-1-3 2 1-3-3 2 1-5-2-2 3-5h-2l-1-9 6-12-2-7-7-3h-4l-2-2 2-6-4-5 13-11-2-10-3-1v-2h-8l-3-4h-6l-5-6-2 1-5-4-1-4 2-4-3-4v-10l1-3 5-4-1-5h-2l-3-5 1-3 3-1 1-6 3 1-1-2 4-4-1-3 4-1 1-3-3-4 1-5-2-3 7-6-2-5 4-6 4-3 1 1 2-3 11-7 6 1 1-7 2-1-2-3 2-4 3-2h4v-2l4-3 2-4 4 2 3-3 2 1 5-3 5 2 3-2 1-5 3 1 16-19v-11l-12-1-2-3-2 4v-10h-2l-1-4-3-1-7 3-2 5-4 2v5l-5 5-10-7-4 4 3 9-3 5h-6l-2 4h-5v-6l-3-3-1-6 2-3v-6l-2-1-5 2-3-2-6 2-3-4-2 2-10 3-4 4v-8l2-1 3-7h7l1-3-6-3v-3l-6-3-16 2-5-7-6 1-3-4-5-2v-3l-4-8 2-2v-3l-3-3v-2l-4-1-1 3h-4l-4 8h-3l-2 5-6 1-1-2-5 2-3 4-2-3-8 1v6l-4 2-12-1 1 6-3 2H53l-5 2-2 2v3l-2 1-1-4-4-4-5 1 1 4-4 3 2 2 1 9h-2l-3 5 2 6-2 3-4 1-5-1-4-3-2 1 3 4v3h3l2 3v6l-2 3 2 3v7l3 2h4l3 5-1 4 3 1 3 5v3l4 1 1 2-8 3-5-2-4-4-3 5-5 2v4l-2 2-8 3-2 5 1 4 4 1 3 9h-2l-1 2-2-1-1 2-7 3-8-4 2-5-11-4-8 9v3l-5 2h-6l-1-1 2-2-16-14h-4l-1 5h-3l-2 3 1 2-3 2-9-9-1 4-2-1v4l-3 2v3l7 6h2l2 9-4 1 2 5-2 1 1 3-2 7 4 9-2-1 1 4-2 5 6 2 4 5 6-1 1 3 6 1-7 2v5h-3l3 1-5 2-2 4 3 8-3 3-4-2-2-3-3 1 1 2-3 6-1 8 1 2 1-3 3-1 1 2-3-1-1 2 4 2 4-3-1 2 3 1v2l-2 1 3 2v5l-3-1-4 4 1 8-4 2 5 7-1 1 5 3 1-2 2 2 1-4h2l1 3-8 3 6 5-2 4h2v4l2 1v3l-2 1 2 4 3-4 5 4-1 2h-3l-2 5 3 2h6l4 2 1-2 2 3-2 5 2 3 4-1 3 5-1 3h3v3l5 1 2-1-1-4 4-5 5-1v4l6-2 5 7h7l-1-5 4-1v4l2-2 4 2 2-1-2-4-3-1 2-3 4 2zm-51 9v3l-4-1 1 2 3 1 2-3zm-33-76 1-5-3-1 1 7zm87 68h-2v5h6zm120 41 3-3v-3l-3 3zm-180-21 2-3h-2z"/>
  <path id="肇庆市" fill="#ff6347" fill-opacity="1" fill-rule="evenodd" stroke="#ffffff" stroke-dasharray="none" stroke-linecap="round" stroke-linejoin="round" stroke-opacity="1" stroke-width="0.5" d="M567 331h-7l-2-2 1-10h-4l-3-4h-4l-1-2v-5l7-4v-8l-3-2-6 2v-5l-4 3-4-4 3-5-3 1-1-2 9-11-4-2-6 2-2-4 2-11h-4l-4-3-5 1 5-5-1-6 2-2-2-2 6-7-2-1 2-5-3-3v-5h-2l-3-3-5 3-5-1-13-7-2 1v-3h-13l-2-9 3-3-3-9-3-4 1-5-3-1v-8l-6-2-3 1 1-2-3 1-4-2v-13l6-10 1-8-2-12-1-2-6 1-3-7h-2l-2-5-3-1-2-5-9-2-5-7h-4l-4-3-1 4 2 14-10 2 2 8-2 3-1 10h-8l-1 6-5 6-7 1-3 4-2-1-1-4-4-1-2-5-4-1-5-8-5-1-4 4-1 6-2 2v7l-4 1h-7l-5-10-5-3h-10l-2 4-9-2-2 14 4 4-2 10 1 9 2 1-1 4 3 2 2 7 4 3v7l5 7-6 10h-2l1 2-4-1-5 3-3-3h-3l-1 4 2 4-3 4-2-2h-4l-3 7 3 4v11l-2 1-1 6-4-2-1 2h-5l-2-2-3 1-2-2-7-2-1-3h-5l-1 6-7-5h-3l-4 13h-2v14l-3 1 1 2 12 2-2 4 1 2-6 1-2 3 1 2h-3l-3 5v6l-5-2-2 2-1-2-5 3-3-2-4 3-13 1-1 6 2 4v9h-2v8l-6 9-2-1-6 10-7-1-4 20 2 2-1 5-3 1-4 11 3 5 1-2 4-1 7 2 6 4-1 2 9 6 5-3 3 1 3-2 1-5 2-1-1-3 2-1 11 15v5l-2 3-6 2-3 4 11 8 16 2 5 8 18 2 11 5h17l6-3 5 1 5 4 16-2 5 3 1 7 2 3 9 1 3 3 12-2 4-3 5 2 4-1 8 3h7l11-11 13-4 7 2v2l4 3-3 6-4 1-4 10v6l3 3-5 11 3 5-5 3-3-3v12h7l2-2 3 2-2 13 4 4-1 7h3l4 5-3 1-2 4h10l5-2 2 1 2 6 6-1 8-5 5 1 5-2 1-4 3-1v-4h5l2 4 1-3 11-2v-4l-3-2-1-3 1-3 6 3 2-2 17-5 5-4h4l-2-1 3-3-6-7 6-2 3 6 6-4 2-6-2-5 5-3 2 4 4-5 4-2-1 3 2 1 10-7-4-11v-5l-5-11-1-11-5-5-1-9-2-1 2-4-1-2h4l1 5h2l1-6 2 4-1 4h2l1-5h5l2-2 1-4-6-2 6-5 3-7 3-1 4-15-5-1-1-4-6-7-6-1-2 1v6l-5-1 2-16 2-2 2-8 5-1 2-5 2-1 1-11-5-3z"/>
  <path id="惠州市" fill="#ff6347" fill-opacity="1" fill-rule="evenodd" stroke="#ffffff" stroke-dasharray="none" stroke-linecap="round" stroke-linejoin="round" stroke-opacity="1" stroke-width="0.5" d="m1001 579 11-7 13-3-1-5-3-2 2-3 22-10 2-2v-3l4-1 11 8-5 11 1 10-2 4v5l3 4 1 5-2 4 3 7 33-3 2 6v8l8-1 3-4-1-14 4-8 18-17 4-1v-4l-4-3v-4l-4-4 2-5-2 1-4-2-1-3-5-2-3-4 2-2v-5l-5-2v-5l-2-2 4-1 1-2-6-8 3-4 9-2 2-3h6l3-5h3l6-4 1 1 4-7 6-4 3 3 3-4 9 5 5-6v-4l8-5 2 1 4-3 7-2 1-4 4-3-1-2 7-1v-6l-2-2 1-9h7l1-2 2 1 3-3 2-6 9-4 3-4h4l-1-3 2-2 4 1-5-4-1-8-2-3h-2l-2-4-3 1-8-6-6 4-2-5v-10l-2 1-8-8-6 2-2-2-7 2-8-1-2 1v3l-7 2-5-2-6 3-3 4-2-1-2 4h-3l-1 3-12-3-4 10h-4l-2-2 2-4-2 1-2-4h-4l2-4-3-2-5 3h-3l2 7-2 5v6l-4 5 1 3-5 1-1 5-4 4 2 6-5 7-4-2-2-4-6-4v-2h-4v-17h-2v-2l-3-1 3-5-1-5h-4l-2-4h-4l-1-2-1 2-3-6 1-3-6-2-1-7 3-3-5-3-5 1-2 2-2-3v5l-5-3 11-14 6-1v-3l-4-7 1-4 3-3-2-3-3 1-4-2-2-8-5 4h-3v6l-5-3 2-2-3-3-9-4v-3l-3-3 1-1-2-3 2-5-3-2-4-10-3-1-2-5-10-4-8 4-5-3v-3h-4l-7-10-3 5-3-3v-3l-4-1-1-5 3-6-2-2v-3h-2l-2-7 1-5 7-5-3-3 1-2-4-4-8 3-4-4-2 1-4-3h-7l5-6-1-2 5-2v-3l-2-1-6 5-7-1-3 2-4-5h-3l-3 1-1 4-10 1-1 2-10 1-5-3-5 10 1 8 2 1v4l2 2-1 5-5 5 4 3-3 2 6 5-6 2-3 3v2l-2-3h-2l2-4-5 4-6 1-1 6h-8l-1 2h-4l-2 4h-3l-1 5-4 4-9 1-2 7h-5l2 2-3 4v3h4l1 2 6 2 1 6-3 5 3 1 2 7 4 2 6 9 9 3-4 3h8l6 3-2 2-5-1-1 7 2 3h7v7l3 4-4 4 4 9-1 4h-3l3 6v4l-4-1-5-4v-5l-5-3-3 1-9-2-1 18-3 5 4 3-1 3 3 8h-2l-3 6 2 4h3l-2 4h-5l-4 2-2 2-2 7 1 2 4 1 3-3 5 4 3-1 8 2 9-2 4 3 1 3 5 3 5-1 9-5 6 3 4 9 12 10v2l-3-2-4 9 2-1 2 3 5 2 6-5 5 3 3-1 2 2 1 5-3 3v7l4 4 8 2-2 6-5 1 1 12-2 7 2 6h2l2 3h3l6-8 2 2 5 1 4-3 6 1v5l-3 1 3 2 1 4 2-1 6 3 2-1v-5l2-1 4 4-1 9-3 3 2 3h2l2 4h4v5l-4 1 1 5 6-3 6 2 7-2zm35 24 2 4v-5l-5-2v3zm-6 35 6-2 1-2-6-2-3 1zm-5-62 1 2 1-2zm59 44 1 3 4-3-3-1zm-49-45 1 3zm20 27-1-3-1 2zm-22 41h3l1-4z"/>
  <path id="梅州市" fill="#ff6347" fill-opacity="1" fill-rule="evenodd" stroke="#ffffff" stroke-dasharray="none" stroke-linecap="round" stroke-linejoin="round" stroke-opacity="1" stroke-width="0.5" d="m1478 278 1-2 2 1 6-7v-2l8-3 8 7 8 1 2-3v-9l3-2-2-7 3 1 2-3-7-7-1-3 5 1 2-5h3l6-4v-3l8 2 4-3v-11l5 1-4-4v-2h7l1-6 2-1 9 1 1 2 2-3-1-3h2l3-4v-4l-3-5 4-3 5 2 3-2 3-6 3 2 1-5-2-4v-5l6-9h2l4-4 5 2 1-3 3-2 3 1 2 4 3-1 2-8h4l1-2-2-5 5-4 4 3 2-4-1-13-6-1v-7l2-2-6-9v-3l2-2-5-8-3 2-1-5-4-5h-2l-2-5 1-3h3l2-2-8-10-4 4v-2l-8-8-1-5-6-3v-3l3-2-2-6 10-11v-4l3-2 1-3-4-7h-6l-6 7-3-3h-9l-2 3-8-1-8 3-1 2-9-4-3 5-4 2v2l-10 5-5-3 1-10-3-4-1-9-4-6-10 1-2-5-5-3v-7l-5-7-3 1-3-5v-4l11-6-6-4v-6h-4l-1 3-4-1-3 4 1 2-2 6h-3l-11 8h-7l-3 2-5-2 5-7-3-2-3 2-2-2v-3l-8-10-9 9-10-2-5 1-2 3-1-4-4 1-7-6-1-5-4-4-2-1-3 3-5-1-2-5-3 1-3-2-11-1-3-4-5 1 2 10 5 5-3 3h-6l-3 2 2-8h-3l-1-3-5-2-3 1-3 4-1 8h-6l2 2-1 3 2 2-3 1-4 12 3 5-5 7v4l3 3v4l3 3 5-1 2 2-3 6h-5l-4 2 5 2 2 5-1 3 3 1 5 8 6 5 2 4-1 2-15-1-11 7-6 1-3-2h-6l-2-5 3-2-4-10h-3l-3-3-4 1-1-2-6-2-3 3h-4l-2-1-3-7-10 5-4 7 2 7-5 2 1 2h-4l2 11-1 2 2 5 3 2h6l2 3 4-1v5l2-3h3l1 5h4l-1 3-3 2-1 4 3 2v3l-2 4-5 3-2 8 1 7 2 1 1 5 2 1-1 4 2 1v6l4 4v4h-4l-1 2v9l-4-1-5 4 2 6-6-3-2-3-3 1 2 4-1 2 4 7-3 1h3v3l3 2 1 3-2 3h-4l-4-8-1 2-3-1v-5h-2l-6 5-1-2v5l-8 13 2 4 5 4 2 20-11 5 1 3-3 3 1 6-4 3 1 4-3 1-3 4 2 4-6 2-1 7 3 4-3 1 2 3-11 8 8 2 5-1 5-5 3 2-4 6 2 4 6 3-1 6 3 2 6-2v-2l3 1-1 12-3 6-2 1-1 16 2 5 4 2-4 6-1 5 2 4-2 2h-4v3h2v5l2-1 2 6-1 5 5 4v9l2 3 11-1 2-8-2-1 3-4 2 1v-2l5-3 4 1 6-4 3-6 5-1 2-4v-5l4-2v-4l5-1 3-5 5-2 3 6 6 6 3-1v-3l10 1 3 2 2-2-1-4 3-1 2-3-2-1 3-6-4-6h3l-2-5 4-8 5-4h6l1 4 9 7 14-7 1-3 4-2 3-4h6l3 4-2 2 3 3 4-1 4 3 1-2 4 1 7 5 1-1 3 2 4-1 9 2 3-3v-3l3-1-3-4 1-8h4l4-5v-5l4-3 2 1-1 2 10-7v-4h6l7-5 3 1 1 4 4 4z"/>
  <path id="汕尾市" fill="#ff6347" fill-opacity="1" fill-rule="evenodd" stroke="#ffffff" stroke-dasharray="none" stroke-linecap="round" stroke-linejoin="round" stroke-opacity="1" stroke-width="0.5" d="M1282 352h-3l-3 6-6 4-4-1-5 3v2l-2-1-3 4 2 1-2 8-8 1-1 5v8l7 2-3 2h-7v4l-2 2 2 1-4 3h-5l2 2-4 4 2 6-4-1-2 2 1 3h-4l-3 4-9 4-2 6-3 3-2-1-1 2h-7l-1 9 2 2v6l-7 1 1 2-4 3-1 4-7 2-4 3-2-1-4 2-4 3v4l-5 6-9-5-3 4-3-3-6 4-4 7-1-1-6 4h-3l-3 5h-6l-2 3-9 2-3 4 6 8-1 2-4 1 2 2v5l5 2v5l-2 2 3 4 5 2 1 3 4 2 2-1-2 5 4 4v4l4 3v4l4-2-1-3-3-2v-3l2-2 5-1 1-8 3-2 22-5 5 8h6l-1-5-2-2 2-5 14-2 3 2-6 4v8l13-3 14 2 2 10-1 5 2 4 7 4 1 3h12l3-3 8-1 17 10 5-1 4 4 2-6-4-3 6-11 5-2v-6l-5 2-4-2-6 1-2-2 1-3 7-5 3-12 12-9 6-2 7 1 4 6 15 1 9 8 2 7-1 11 6 4 3-1 14-14 7-1 5-4 8 2 9-9h4l7-4h8l3 2 2 4 5 1 18-12 13-15-1-4-3 1-4-2-8 5 2 6-5 2-3-1-2-3-3 2h-4l-6-3-1-4-7-1-7-5-2 1-3-3-6 6-1-4-3-1 2-3-1-5-2 6-1-2h-4l1-5-2-4h2l-1-2 4-6-2-1-3 4-5-3 4-4 3 2 2-4 3-2-5-6h-3l1-4-5-5v-3l-3-4-3-1-9 3-3 5-5-4v-3l-8-2-3-2-2-5-5-1-10-7 3-2-1-2 2-3 3 5 2-7-2-2v-3l2-3 13-1 6-2-2-4-7-4 1-11 5-3-9-9-2-5-19 5-3 4-4-1-1-11 2-3-6-4-11-14zm299 750v4l-2 2 2 2 7-1 4 2h16l4 7v9l-4 8-6 7-15 4-9-2-2 2v3l5 4 15 1 9-2 7-4 4-4 8-16-7-23-6-4-17-1zm-428-554 3-3-2-1zm419 575 1-1-4-2-2 2zm-398-566 2 1v-2zm195 455 2 9 16 12 6 1 4-2 3-4v-7l-2-6-4-6-5-4h-15l-4 4zm-5 32 1 5 6 10 4 2 8-1v-7l-3-5-9-9-6 2z"/>
  <path id="河源市" fill="#ff6347" fill-opacity="1" fill-rule="evenodd" stroke="#ffffff" stroke-dasharray="none" stroke-linecap="round" stroke-linejoin="round" stroke-opacity="1" stroke-width="0.5" d="m1234 416-1-4 4-4-2-2h5l4-3-2-1 2-2v-4l2 1 8-3-7-2 1-13h-3l-2-3v-9l-5-4 1-5-2-6-2 1v-5h-2v-3h4l2-2-2-4 1-5 4-6-4-2-2-5 1-16 2-1 2-6 2-12-3-1v2l-6 2-3-2 1-6-6-3-2-4 4-6-3-2-5 5-5 1-8-2 11-8-2-3 3-1-3-4 1-7 6-2-2-4 3-4 3-1-1-4 4-3-1-6 3-3-1-3 11-5-2-20-5-4-2-4 8-13v-5l1 2 6-5h2v5l3 1 1-2 4 8h4l2-3-1-3-3-2v-3h-3l3-1-4-7 1-2-2-4 3-1 2 3 6 3-2-6 5-4 4 1v-9l1-2h4v-4l-4-4v-6l-2-1 1-4-2-1-1-5-2-1-1-7 2-8 5-3 2-4v-3l-3-2 1-4 3-2 1-3h-4l-1-5h-3l-2 3v-5l-4 1-2-3h-6l-3-2-2-5 1-2-2-11h4l-1-2 5-2-2-7 4-7 10-5-1-11-6-2-3-4 2-2-2-2-4 1v-3l-3-2 1-2-4-3-1-3-3-2-4 1-10-8-3 1-3 4h-4l-3 5-1 6-5-4-8-2-8 1-2 1-3 6-3-1-3 3-3-1-10 4 3 6h-12l-3 3h-3l-1 4-3-2-1 1-5-5-1-4h-6l-1-3-3 4 1 2-6 6-4-1-1-2-7 2-4 2-2 3-4 1-1-4-7 1-4 23h-2v3l-4 2-4-5 1-5-3-1-5 4-6-5-2 1-4-3-3 2-4-3-6 2 2 13-3 4-2-1-3 8-2-4h-3l-6-13-6 4-4-1-4 3-4 7-12-1-3-5-9 7-5 1-3 6-7 3-3 4-5-5-2 1 1-5-1-3-3-2v-8h-3l-4-5-3 1-4-2-1 2-2-1-4 2v4l-4 2-1 4-4 1 1 7 8 8-1 3-3 1-13 12v4l3 3-2 11 8-1 4 4-6 7 2 7-4 7 1 1-3 2 4 2-4 1 5 9v3l4 2 2 3-2 4 1 2 3 2 3 6 3 2v3l2 1 1-3 3-2 3 3 8-3 6 1 1 2h3l1 3 7 3 4-1 1-1-5-6 1-7h-2v-2h5l3-6 14-11 2-4 6 5h3l2 4-2 3v4l3 4-2 3-6 1-3 3 2 4-3 3-2-2-3 2v-4l-7 9-3-3-2 1 1 2-3 6-4 3-5 1-2 3 1 8h-4l-2 4-2-3-3 1v2l-4 4 2 3h-2l2 6-2 1v10l-3 2-1 4h-2l1 3-5 6 3 3-7 5-1 5 2 7h2v3l2 2-3 6 1 5 4 1v3l3 3 3-5 7 10h4v3l5 3 8-4 10 4 2 5 3 1 4 10 3 2-2 5 2 3-1 1 3 3v3l9 4 3 3-2 2 5 3v-6h3l5-4 2 8 4 2 3-1 2 3-3 3-1 4 4 7v3l-6 1-11 14 5 3v-5l2 3 2-2 5-1 5 3-3 3 2 7 5 2-1 3 3 6 1-2 1 2h4l2 4h4l1 5-3 5 3 1v2h2v17h4v2l6 4 2 4 4 2 5-7-2-6 4-4 1-5 5-1-1-3 4-5v-6l2-5-2-7h3l5-3 3 2-2 4h4l2 4 2-1-2 4 2 2h4l4-10 12 3 1-3h3l2-4 2 1 3-4 6-3 5 2 7-2v-3l2-1 8 1 4-2h3l2 2 6-2 8 8 2-1v10l2 5 6-4 8 6 3-1 2 4h2l2 3 1 8z"/>
  <path id="阳江市" fill="#ff6347" fill-opacity="1" fill-rule="evenodd" stroke="#ffffff" stroke-dasharray="none" stroke-linecap="round" stroke-linejoin="round" stroke-opacity="1" stroke-width="0.5" d="m433 845-2-3 2-5-1-4 7-7-1-8 4-3-1-2 5-4-2-5 5-3-7-4 2-7-2-1 1-4h-2v-7l-2-4-4-5-10-2-1-3-3-2-10-3 2-2-3 1-1-6 4-4-1-3-4-2-3 2-4-1-3-5-4-3h-8v-3l-5-5v-3l-5-1v2h-4v2l-10 3-2-4 3-1 3-4-3-6 1-6 3-2v-3l-4-2v-5l-4-3-5-1 2-5h7l6-5 2-4-2-2 2-4-1-2 4-7 7 1 3-3v6l2-4h2v4l3-1v-5l5-8-1-4-5-4-2 3-12-3-3-2-5-8h-3l-3-4-5-2-1-5h-4l-3-4-4-12 2-4 4-1 2-6-11-13-6 8-4 4-1-1-3 4v3l-7-3-1 2-9-4v-2l-4-1 3-3 2 1 2-2 3 2v-8h3v-7h-2l-3-5h-3l1-3h-2l-4 3v3l-3 3 2 6-4 2-4 5-1 4-11 7-5 8 1 4-2 6-6 6h-3v7l-5 7-11 12-3-1-1 5-3 2-5-2-5 3-2-1-3 3-4-2-2 4-4 3v2l-7 1-2 5 2 3-2 1-1 7-6-1-11 7-2 3-1-1-4 3-4 6 2 5-7 6 2 3-1 5 3 4-1 3-4 1 1 3-4 4 1 2-3-1-1 6-3 1-1 3 3 5h2l1 5-5 4-1 3v10l3 4-2 4 1 4 5 4 2-1 5 6h6l2 4h9v2l3 1 2 10-13 11 4 5-2 6 2 2h4l7 3 2 7-3 4 1 2-2 2-2 8 1 5h2l-3 5 2 2-1 5 3-2-1 3 3-2 2 1 3 11-2 5 6 4h5l6-4 6-1v3l5 1 12-7 10 3 1 2 3-4 4-1v-10l4-7 17-6h9l10 8-5 3v5l9-4 6 3 4-6 9-5 5-2 8 1 14-8-1-4-5-3-8 1-4-4-2-7 2-5 21-14 25-9 10-2 5 3 1 15 3-1 3 3h3l2 3v4l5 1 1 2 3-2h5zm-33 43h6l-4-1v-2l-2 1zm-10-15h2l-1-3zm-6-9 3-2h-3z"/>
  <path id="清远市" fill="#ff6347" fill-opacity="1" fill-rule="evenodd" stroke="#ffffff" stroke-dasharray="none" stroke-linecap="round" stroke-linejoin="round" stroke-opacity="1" stroke-width="0.5" d="m609-59-2 2-7-1-4 2-10-2-6 4-2 4-8-1-14 2-2-2 2-4-1-7-3-4-7-1-1-12-7-8 1-15-12-10-3-6-8-2-1 2-16 3-6-3-8-1-1-2-12-2-1-6-3-4-3 3-1 6-3 4h-4l-3-3 2-2-8-9-9 5h-4l-3 5-5-3-7 2v-4l-2-3-12-1-3 1 1 3-2 9-3 3 1 7-4 11-3 3 1 9-5 8-3 2-1 7 6 8 8 3-2 17 1 1-2 5-3 2-2-2-5 1-3 3-4 1v3l-3 4-6 1-7 8-1 8-4 3-14 3-2 7-3 3v5l2 1 1 5-5 2-1 3 2 10 9 5 5 8 2-1 3 14-4 2-2 4v5l3 4 6 2 5 9 1 5 3 2 1 5v8l-3 2-1 4-3 2-2 5h-3l-3 4h-3l-1 6h-8l-4 4 1 3h4l5 3 5 10h7l4-1 1-2-1-5 2-2 1-6 4-4 5 1 5 8 4 1 2 5 4 1 1 4 2 1 3-4 7-1 5-6 1-6h8l1-10 2-3-2-8 10-2-2-14 1-4 4 3h4l5 7 9 2 2 5 3 1 2 5h2l3 7 6-1 1 2 2 12-1 8-6 10v13l4 2 3-1-1 2 3-1 6 2v8l3 1-1 5 3 4 3 9-3 3 2 9h13v3l2-1 13 7 5 1 5-3 3 3h2v5l3 3-2 5 2 1-6 7 2 2-2 2 1 6-5 5 5-1 4 3h4l-2 11 2 4 6-2 4 2-9 11 1 2 3-1-3 5 4 4 4-3v5l6-2 3 2v8l-7 4 1 7h4l3 4h4l-1 10 2 2h7l-1-6h6l3-2 8 6 2-4 4 4-7 10 4 8 6 1v4h2l-1 2 7 4 4-4h8l3-2 7-1 3 1 7-7 7-1 5-4 6 3 5-3h5v-3l5-6v-2l-3-3 1-4 6-2v-3l5 2-1-5 2 1 7-4 1 2 3-2 2-6-3-2h10v-3h2l1-3h2l5-12h2l1-6h5l2 2 9-1 1 3 5 2 1 5 4 2h7l9-3 1-2h3l2 6 8 4 4-4-1-2 7-5-3-2 1-4 2-1-2-2 2-4-6-8 5-5 2-5 3-1 3 2h5l1-4 5 3 3-3v-5l-3-3 1-2 10 2 6-6 2-6 3-2 2 1v-6l-2-3-5-2v-4l-2-2-6 1-3-7-3-3 9-9 8 1 1-4 4-5 7-3-1-2h2l2-4-2-1v-3l2-1-2-2 1-3 6-3 2-3-4-5 12-8h7v-2l-2 1v-3l-6-2-2-9h-5v-4l-2-1-2 2-4-4 3-2-2-2v-7l2-4-3-5-6-2 1-2-5-7 1-7-10-5-1-4-2-1h-7l-1 6-3 1-7-7v-5l-15-11-4 1-4-3 1-4h-2l-3 4-1-3-9 1-3 8-3 2-2-4-5 4-3-2-3 5-7 2-5-2-2-3 1-4h-9l-2-2-6 6h-5l-9 4-6-3-6-12-1 2-3-1-4 3-3 6h-3l-2-2-3 2-4-1-2 3v-3l-4-1-6-6-4 2-3 7-6 1-10-7-1-6-5-4-3-5-2 1-3-7-2-1 1-4-4-3h-6l-3-2-3 2-1-2-3 2-1-6 3-5v-5l5-3-4-15 8-1 2-6-1-4 5-8-1-2 2-3-2-5 12-9 6-2-4-16z"/>
  <path id="东莞市" fill="#ff6347" fill-opacity="1" fill-rule="evenodd" stroke="#ffffff" stroke-dasharray="none" stroke-linecap="round" stroke-linejoin="round" stroke-opacity="1" stroke-width="0.5" d="m927 536 2-7-1-12 5-1 2-6-8-2-4-4v-7l3-3-1-5-2-2-3 1-5-3-6 5-5-2-2-3-2 1 4-9 3 2v-2l-12-10-4-9-6-3-9 5-5 1-5-3-1-3-4-3-9 2-8-2-3 1-5-4-3 3-4-1-1-2-1 2-6-3h-16l-4-4-6 1-14 8v-2l-3-1-2 2v3h-8l-6 4-8 2-9 12 2 16 12 26-1 10 3 6 24 29 5-3h7l6 3 1 3 3-6 7-4 3-9 3 1v-3h3l3-3 1-9 3-1 1 2 4-2 4-6 3 1-1 3 4 4h7l5 3v2h4l2 2-1 2h4l1 8 2 2 4 1 8-3v4h4l2 4 3-2h4l2 7 9 3 2 6 4 3-1 4-2-1 5 4 6-7v-8l3-1v-4l2-2-4-8-5-1 2-1-2-1 2-3 5-1 2-5z"/>
  <path id="中山市" fill="#ff6347" fill-opacity="1" fill-rule="evenodd" stroke="#ffffff" stroke-dasharray="none" stroke-linecap="round" stroke-linejoin="round" stroke-opacity="1" stroke-width="0.5" d="m757 648 11-9 5-9 10-1 6-10h-10l-8-18-11-7-5-1-7-13 2-3-20-15 1-2-14-4-12-9-2 3-4 1-4 5-7 2-4-1-4 3-7-5-5 9-5 4v6l-3 1-5-2-3 2 3 6h-2l-2 11 5 6 3 14 14 18 4 11 1 13 12 12 3 5v5l8 17 9 6 1-1 7 8 4 1 14-8-2-3 9-3v-3l-11-14 9-4-3-4-2-14 2-1v-4l11-2z"/>
  <path id="潮州市" fill="#ff6347" fill-opacity="1" fill-rule="evenodd" stroke="#ffffff" stroke-dasharray="none" stroke-linecap="round" stroke-linejoin="round" stroke-opacity="1" stroke-width="0.5" d="m1619 335 4 1 2 4 18 3 9-10h14l24-7v-19l-2-2-3 1-6-5h-4l-2 2-3-6-7-1-3-6-2 1-4-3-1-17-4-9-3-3-1-3 2-2-3-10-6-2-2 2-5-2-1-2 4-1 1-3-1-3-4-2-1-5 5-2 2-9-2-9 2-2-3-3-3 2-1-6-4-3 3-2v-4h-4l-2-3v-10l2-8 8-7h2l1-3 3-1 2-3-11-11h-3l-7-5-5 4 2 5-1 2h-4l-2 8-3 1-2-4-3-1-3 2-1 3-5-2-4 4h-2l-6 9v5l2 4-1 5-3-2-3 6-3 2-5-2-4 3 3 5v4l-3 4h-2l1 3-2 3-1-2h-11l-1 6h-7v2l4 3h-5v11l-4 3-8-2v3l-9 4-2 5-5-1 1 3 7 7-2 3-3-1 2 7-3 2v9l-2 3-8-1-8-7-8 3v2l-6 7-2-1-1 2 2 6 2-1 5 6 7 1 4 6 1-2 5 2 1 4h10l4 6 2 8-2 1v3h2l-1 3 3 2 2-2 4 3 1 6-4 2v2l-3 2v6l3 3 1 4 13 5 3-1 3 5-1 6h10l4-3 1 3 4-3v-5l3-1 1-3-3-13v-7l3-3v-3l-4-3 3-3v-4l6-1 5 8 4-3 3 1 3-2v-6l2 1 6-2 1-3-2-1v-2l2-3h2l9 8 5-2 2 1v2l3 3-1 6 3 5z"/>
  <path id="揭阳市" fill="#ff6347" fill-opacity="1" fill-rule="evenodd" stroke="#ffffff" stroke-dasharray="none" stroke-linecap="round" stroke-linejoin="round" stroke-opacity="1" stroke-width="0.5" d="m1525 454-8 3-11-2-8 3v2l-5 6-12 7-3-2 2-1-2-2-6-1-1-7-7-5-3 2-3-1v-3l-8-4-4-4 3-4-1-6h3l-3-5 3-1 1-3h-2v-3l2-3 3 1 4-4 1-7 2-3-1-1 3-2-1-3 3-2 2 1v-5l-3-2v-2l8-1 1-3-2-17-3-5-3 1-1-8 4 2 4-2 7-14h6l2-4 2 1v8l3 4 10-9h4l3 2v4l-7 10 15 1 8 7 3 10 4-13 2-1v-4l-3-2 1-3 2-1v3l10 7 1-6-3-5-3 1-13-5-1-4-3-3v-6l3-2v-2l4-2-1-6-4-3-2 2-3-2 1-3h-2v-3l2-1-2-8-4-6h-10l-1-4-5-2-1 2-4-6-7-1-5-6-2 1-2-6-8-7-1-4-3-1-7 5h-6v4l-10 7 1-2-2-1-4 3v5l-4 5h-4l-1 8 3 4-3 1v3l-3 3-9-2-4 1-3-2-1 1-11-6-1 2-4-3-4 1-3-3 2-2-3-4h-6l-3 4-4 2-1 3-14 7-9-7-1-4h-6l-5 4-4 8 2 5h-3l4 6-3 6 2 1-2 3-3 1 1 4-2 2-3-2-10-1v3l-3 1-3-2-6-10-5 2-3 5-5 1 1 4-5 2v5l-4 5h2l11 14 6 4-2 3 1 11 4 1 3-4 19-5 2 5 9 9-5 3-1 11 7 4 2 4-6 2-13 1-2 3v3l2 2-2 7-3-5-2 3 1 2-3 2 10 7 5 1 2 5 3 2 8 2v3l5 4 3-5 9-3 3 1 3 4v3l5 5-1 4h3l5 6-3 2-2 4-3-2-4 4 5 3 3-4 2 1-4 6 1 2h-2l2 4-1 5h4l1 2 2-6 1 5-2 3 3 1 1 4 6-6 3 3 2-1 7 5 7 1 1 4 6 3h4l3-2 2 3 3 1 5-2-2-6 4-3 4-2 4 2 3-1 1 4 5-2 5-5 9-4h4l4 4 13 5 23-5 3 2h5l3-2 6-16 3 1 6-7-3-2v-19z"/>
  <path id="云浮市" fill="#ff6347" fill-opacity="1" fill-rule="evenodd" stroke="#ffffff" stroke-dasharray="none" stroke-linecap="round" stroke-linejoin="round" stroke-opacity="1" stroke-width="0.5" d="m476 567-3-3-4 1-3 8-3 3h-4l-2-6 2-4-5-11v-7l-2-6-2-1-5 2h-10l2-4 3-1-4-5h-3l1-7-4-4 2-13-3-2-2 2h-7v-12l3 3 5-3-3-5 5-11-3-3v-6l4-10 4-1 3-6-4-3v-2l-7-2-13 4-11 11h-7l-8-3-4 1-5-2-4 3-12 2-3-3-9-1-2-3-1-7-5-3-16 2-5-4-5-1-6 3h-17l-11-5-18-2-5-8-16-2-11-8 3-4 6-2 2-3v-5l-11-15-2 1 1 3-2 1-1 5-3 2-3-1-5 3-9-6 1-2-6-4-7-2-4 1v5l-6 4 1 2-2 4 3-1 3 2-2 8 6 7-1 12 2-1 2 3-9 4 3 1 1 5-2 4v5l5 7 11-1-2 3 2 7-12 8 4 4-2 3-5 2v2h-4l2 5-1 1 3 5-4 5-1 6-4 5-10 7 1 2-5 6 1 3-5 2v2l-4-1v2l-4 2-2 6-4 3h-3l-1 2-7 2v-2h-20l-3 3h-7l1 3 5 3 2 4h4l1-3 4 1v2l3 3v3l-2 2 4 8v3l5 2 3 4 6-1 5 7 16-2 6 3v3l6 3-1 3h-7l-3 7-2 1v8l4-4 10-3 2-2 3 4 6-2 3 2 5-2 2 1v6l-2 3 1 6 3 3v6h5l2-4h6l3-5-3-9 4-4 10 7 5-5v-5l4-2 2-5 7-3 3 1 1 4h2v10l2-4 2 3h10l2 1v4h3l6-6 2-6-1-4 5-8 11-7 1-4 4-5 4-2-2-6 3-3v-3l6-3-1 3h3l3 5h2v7h-3v8l-3-2-2 2-2-1-3 3 4 1v2l9 4 1-2 7 3v-3l3-4 1 1 10-12 3 2 5 9 3 2-2 6-4 1-2 4 4 12 3 4h4l1 5 5 2 3 4h3l5 8 3 2 12 3 2-3 5 4 1 4 2 1v4l4 1v-9l2-2 4 2 4-3h4l-2-5 7-15-1-6 4-3 7-1v-8l2-3-2-1 2-4 5 1 1 2-2 2 3 3 2-2 4 2-4-4h5l1 2h2l-1-2 2-10h3l2-7h2l-2-4 4-4 1-4h4l-1 2 3 4v4l-2 2 2 4 4 1 2 5h3l12-6-2-6-3-3 1-6-5-5 1-3z"/>
</svg>
