<?xml version="1.0" encoding="UTF-8" standalone="no"?>
<svg
   width="1942"
   height="1485"
   viewBox="-251 -228 1942 1485"
   version="1.1"
   id="svg1"
   xmlns="http://www.w3.org/2000/svg"
   xmlns:svg="http://www.w3.org/2000/svg">
  <defs
     id="defs1" />
  <path
     stroke="#ffff00"
     stroke-opacity="1"
     stroke-width="0.5"
     stroke-linecap="round"
     stroke-linejoin="round"
     stroke-dasharray="none"
     fill="#1e90ff"
     fill-opacity="1"
     fill-rule="evenodd"
     d="m 705,547 12,9 14,4 -1,2 16,11 4,4 -2,3 7,13 5,1 11,7 8,18 h 10 l 9,-2 3,-3 -6,-31 -8,-20 -9,-13 -17,-19 -3,-6 1,-10 -12,-26 -2,-16 9,-12 8,-2 6,-4 h 8 v -3 l 2,-2 3,1 v 2 l 14,-8 6,-1 4,4 h 16 l 6,3 3,-9 6,-4 h 5 l 2,-4 h -3 l -2,-4 3,-6 h 2 l -3,-8 1,-3 -4,-3 3,-5 1,-18 9,2 3,-1 5,3 v 5 l 5,4 4,1 v -4 l -3,-6 h 3 l 1,-4 -4,-9 4,-4 -3,-4 v -7 h -7 l -2,-3 1,-7 5,1 2,-2 -6,-3 h -8 l 4,-3 -9,-3 -6,-9 -4,-2 -2,-7 -3,-1 3,-5 -1,-6 -6,-2 -1,-2 h -4 v -3 l 3,-4 -2,-2 h 5 l 2,-7 9,-1 4,-4 1,-5 h 3 l 2,-4 h 4 l 1,-2 h 8 l 1,-6 6,-1 4,-4 -1,4 h 2 l 2,3 v -2 l 3,-3 6,-2 -6,-5 3,-2 -4,-3 5,-5 1,-5 -2,-2 v -4 l -2,-1 -1,-8 -2,-1 1,-4 -7,-4 -6,2 -8,-1 -3,2 -1,-2 -8,1 -3,-2 -2,3 -2,-2 h -3 l -15,8 -4,-1 -3,2 -2,6 -6,6 -10,-2 -1,2 3,3 v 5 l -3,3 -5,-3 -1,4 h -5 l -3,-2 -3,1 -2,5 -5,5 6,8 -2,4 2,2 -2,1 -1,4 3,2 -7,5 1,2 -4,4 -8,-4 -2,-6 h -3 l -1,2 -5,2 -11,1 -4,-2 -1,-5 -5,-2 -1,-3 -9,1 -2,-2 h -5 l -1,6 h -2 l -5,12 h -2 l -1,3 h -2 v 3 h -10 l 3,2 -2,6 -3,2 -1,-2 -7,4 -2,-1 1,5 -5,-2 v 3 l -6,2 -1,4 3,3 v 2 l -5,6 v 3 h -5 l -5,3 -6,-3 -5,4 -7,1 -7,7 -3,-1 -7,1 -3,2 h -8 v 4 l -3,1 v 6 l 4,-5 h 3 l -2,2 5,8 -3,1 v 4 l -2,2 2,8 h 6 l 1,3 5,-4 2,2 -5,7 3,1 -1,6 5,6 v 4 l -2,3 9,1 1,-3 -3,-7 9,-1 v -4 l 5,-1 1,-2 6,4 v 3 l 7,5 1,5 -2,9 4,2 5,6 v 4 l -6,5 v 3 l 1,2 h 5 v 6 h -2 l 1,6 h 2 l -1,4 -9,2 2,5 7,5 11,-1 v 21 l 12,10 -5,2 1,7 -2,2 6,5 -1,4 3,3 1,6 6,4 10,-2 5,4 -3,3 -6,2 z"
     id="广州市" />
  <path
     stroke="#ffff00"
     stroke-opacity="1"
     stroke-width="0.5"
     stroke-linecap="round"
     stroke-linejoin="round"
     stroke-dasharray="none"
     fill="#1e90ff"
     fill-opacity="1"
     fill-rule="evenodd"
     d="m 817,231 10,-5 h 3 l 4,-3 h 3 l 2,2 2,-3 3,2 8,-1 1,2 3,-2 14,-1 7,4 -1,4 2,1 5,-10 5,3 10,-1 1,-2 10,-1 1,-4 3,-1 h 3 l 4,5 3,-2 7,1 6,-5 2,1 v 3 l -5,2 1,2 -5,6 h 7 l 4,3 2,-1 4,4 8,-3 4,4 4,-4 -1,-3 h 2 l 1,-4 3,-2 v -10 l 2,-1 -2,-3 v -3 h 2 l -2,-3 4,-4 v -2 l 3,-1 2,3 2,-4 h 4 l -1,-8 2,-3 5,-1 4,-3 3,-6 -1,-2 2,-1 3,3 7,-9 v 4 l 3,-2 2,2 3,-3 -2,-4 3,-3 6,-1 2,-3 -3,-4 v -4 l 2,-3 -2,-4 h -3 l -6,-5 -2,4 -14,11 -3,6 h -5 v 2 h 2 l -1,7 5,6 -1,1 -4,1 -7,-3 -1,-3 -10,-3 -8,3 -3,-3 -3,2 -1,3 -2,-1 v -3 l -9,-10 -1,-2 2,-4 -2,-3 -4,-2 v -3 l -5,-9 4,-1 -4,-2 3,-2 -1,-1 4,-7 -2,-7 6,-6 -4,-5 -8,1 2,-11 -3,-3 v -4 l 13,-12 3,-1 1,-3 -8,-8 -1,-7 4,-1 1,-4 4,-2 v -4 l -2,-1 -3,-6 v -6 h -2 l -1,-3 h -3 l -2,-3 h -7 l -6,-2 v -2 l -9,3 v -4 l 2,2 2,-2 -5,-9 6,-1 4,2 6,-3 10,-1 2,-2 1,-5 3,-2 h 4 l 7,-5 1,-4 -2,-4 3,-3 -1,-5 2,-3 h 2 v -3 l 6,-9 6,-5 v -4 l -3,-6 3,-4 -2,-3 v -4 l 8,-2 -1,-4 h 5 l 4,-2 v -5 l 6,-2 7,1 2,-7 4,1 8,-16 h 6 l 3,2 2,-4 1,3 h 8 l 7,-5 -1,-3 h 8 l 11,-5 -1,-10 -2,-2 h -6 l -4,-3 1,-2 -3,-4 h 4 v -6 l 2,-2 h 3 l 3,-3 4,2 2,-3 -3,1 v -2 l 3,-1 -2,-9 -4,-3 -3,-9 -3,1 -3,-2 -1,2 -6,-4 -7,1 -6,-10 h -3 v -8 l -4,-2 -1,3 h -2 l 1,-4 -12,-5 -7,5 1,4 -3,2 -5,1 -7,-4 -3,3 -2,8 -3,4 h -4 l -5,5 -18,-6 -2,1 v 6 h 2 l -5,4 2,2 -2,1 -2,-3 -4,-1 -1,3 -16,-2 v -3 l -3,-2 -5,3 -1,-2 -6,2 -4,-1 -1,3 -3,-1 -8,8 h -4 l -1,-2 -2,1 -5,8 -2,-1 v -3 l -4,-5 3,-2 v -4 l 8,-3 -6,-2 -1,-2 2,-4 h 3 l -2,-5 2,-2 -7,-2 6,-3 -1,-2 -5,2 -3,-1 -1,-3 -5,-2 -1,-3 5,-5 -1,-3 -10,-3 -2,3 -4,2 -3,-2 -10,2 -1,5 2,2 -2,1 -1,8 -10,5 -2,2 -2,7 -2,1 -9,-2 -6,1 2,-1 -3,-8 h -3 l -2,4 -3,-3 h -4 v 2 h -5 l -2,5 -4,-1 -2,3 h -12 l -6,6 -2,-3 v -7 l -6,-3 -3,-4 -2,-1 -3,5 -3,-2 1,-3 -10,-2 -2,3 -2,-1 -3,3 -6,-4 -1,-6 -4,-2 -4,1 -1,-2 -4,1 -2,-9 -2,-2 -2,1 -3,-4 -6,2 v -7 l -2,-4 1,-2 -4,-6 2,-2 h -3 v 5 l -2,2 -4,-4 -2,2 -5,-5 -4,2 -7,9 -6,2 -2,-5 -4,-1 -1,7 h -4 l -3,3 2,2 -3,1 2,2 2,7 -10,-1 1,2 -2,1 v 3 l -3,4 -13,6 -1,5 -4,-2 -10,1 -1,2 -4,1 -1,3 -4,1 -1,7 h -4 l -3,-3 -1,-8 -5,1 -2,2 -3,-3 -1,1 1,12 2,5 h 2 l -2,4 1,3 9,3 5,-3 7,1 2,-2 6,3 3,-1 6,10 h 3 l 2,3 -1,2 -6,1 -4,4 -5,2 -1,8 5,9 3,2 1,4 4,2 -5,3 v 4 l -6,9 4,2 -1,6 3,2 2,4 v 4 l -2,1 3,3 -5,3 v 3 l 3,4 4,16 -6,2 -12,9 2,5 -2,3 1,2 -5,8 1,4 -2,6 -8,1 4,15 -5,3 v 5 l -3,5 1,6 3,-2 1,2 3,-2 3,2 h 6 l 4,3 -1,4 2,1 3,7 2,-1 3,5 5,4 1,6 10,7 6,-1 3,-7 4,-2 6,6 4,1 v 3 l 2,-3 4,1 3,-2 2,2 h 3 l 3,-6 4,-3 3,1 1,-2 6,12 6,3 9,-4 h 5 l 6,-6 2,2 h 9 l -1,4 2,3 5,2 7,-2 3,-5 3,2 5,-4 2,4 3,-2 3,-8 9,-1 1,3 3,-4 h 2 l -1,4 4,3 4,-1 15,11 v 5 l 7,7 3,-1 v -6 l 10,1 1,4 10,5 -1,7 5,7 -1,2 6,2 3,5 -2,4 v 7 l 2,2 -3,2 4,4 2,-2 2,1 v 4 h 5 l 2,9 6,2 v 3 l 2,-1 v 2 h -7 l -12,8 4,5 -2,3 -6,3 -1,3 2,2 -2,1 v 3 l 2,1 -2,4 h -2 l 1,2 -7,3 -4,5 -1,4 -8,-1 -9,9 3,3 3,7 6,-1 2,2 v 4 l 5,2 2,3 z"
     id="韶关市" />
  <path
     stroke="#ffff00"
     stroke-opacity="1"
     stroke-width="0.5"
     stroke-linecap="round"
     stroke-linejoin="round"
     stroke-dasharray="none"
     fill="#1e90ff"
     fill-opacity="1"
     fill-rule="evenodd"
     d="m 927,536 -3,2 -2,5 -5,1 -2,3 2,1 -2,1 5,1 4,8 -2,2 v 4 l -3,1 v 8 l -6,7 -5,-4 2,1 1,-4 -4,-3 -2,-6 -9,-3 -2,-7 h -4 l -3,2 -2,-4 h -4 v -4 l -8,3 -4,-1 -2,-2 -1,-8 h -4 l 1,-2 -2,-2 h -4 v -2 l -5,-3 h -7 l -4,-4 1,-3 -3,-1 -1,3 -1,-1 -2,4 -4,2 -1,-2 -3,1 -1,9 -3,3 h -3 v 3 l -3,-1 -3,9 -7,4 -3,6 2,11 6,14 15,19 -1,5 h 4 l 3,7 v 11 l 5,8 2,1 7,-3 8,-6 3,-8 4,-2 12,1 8,3 3,-4 h 4 l 3,-6 h 6 v 2 l 10,-4 3,-5 15,2 2,3 7,-5 9,-1 8,-7 h 6 l 9,-4 h 4 l 6,3 2,2 1,5 9,9 1,19 4,6 5,2 4,-1 4,-2 3,-5 16,-5 4,-5 v -5 l -4,-7 -6,-1 -8,-7 v -3 l 11,-15 v -5 l -5,-2 -7,2 h -10 l -3,-4 -7,2 -6,-2 -6,3 -1,-5 4,-1 1,-2 -1,-3 h -4 l -2,-4 h -2 l -2,-3 3,-3 1,-9 -4,-4 -2,1 v 5 l -2,1 -6,-3 -2,1 -1,-4 -3,-2 3,-1 v -5 l -6,-1 -4,3 -5,-1 -2,-2 -6,8 h -3 l -2,-3 h -2 z m -105,116 1,-2 -3,-4 -4,-1 -3,3 6,3 z m 6,-31 3,1 -3,-3 z m -1,3 2,2 1,-2 -2,-2 z"
     id="深圳市" />
  <path
     stroke="#ffff00"
     stroke-opacity="1"
     stroke-width="0.5"
     stroke-linecap="round"
     stroke-linejoin="round"
     stroke-dasharray="none"
     fill="#1e90ff"
     fill-opacity="1"
     fill-rule="evenodd"
     d="m 678,654 -3,-3 -3,3 -7,-2 v 3 l -5,1 -2,-5 h -5 l 1,6 6,6 -1,18 -3,4 -2,11 -2,3 -10,5 h -4 l 1,2 -3,4 -3,17 1,17 3,5 11,10 2,9 8,8 13,18 8,4 6,-3 3,-4 5,-3 3,-15 2,-2 18,-6 9,-5 4,-10 6,-3 h 5 l 7,-5 h 9 v -5 l -3,-3 1,-11 -6,-9 2,-7 -1,-3 h 6 l 2,-4 6,-1 2,-2 -2,-16 1,-3 5,-1 1,-3 -4,-6 6,-3 11,-18 v -6 l -11,-2 -2,2 -2,8 -6,2 -5,-3 -8,-1 -11,2 v 4 l -2,1 2,10 -1,4 4,4 -9,4 11,14 v 3 l -9,3 2,3 -14,8 -4,-1 -7,-8 -1,1 -9,-6 -8,-17 v -5 l -12,-15 z m 204,85 1,-3 -3,-4 -5,2 2,3 z m 46,19 2,-2 7,-1 4,-3 7,-1 v -2 l 4,-2 -1,-2 -4,1 -1,2 -16,5 -4,4 z m -133,2 4,-2 -2,-3 -5,-1 -2,3 3,3 z m 28,2 v 3 l 2,1 3,-3 h -3 z m 48,41 5,-5 -5,2 z m -50,-84 -2,-5 -2,2 z m 47,31 v 3 l 2,-3 z m -60,23 4,-7 -2,-3 -2,2 -4,-1 -2,2 4,6 z m 69,21 4,1 1,-3 h 3 l -2,-2 -4,2 z m -30,-42 h 5 l -4,-3 z m -199,57 v -2 l 4,-3 4,-1 1,2 h 2 l 5,-7 h -4 l -3,3 -3,-4 -4,3 -2,-2 -2,1 v 8 z m 149,-25 5,-2 2,-3 -2,-3 -4,-1 -2,1 -1,4 2,1 z m 40,-54 -2,1 2,2 1,-2 z m -13,0 3,-4 -3,-7 -3,1 1,9 z m 93,36 8,-1 1,-5 -11,-1 v 7 z m -264,9 2,4 v -4 z m 255,-6 5,-5 h -4 l -2,-2 -1,3 -6,2 5,1 z m -262,16 -3,6 9,-8 -2,-3 h -2 l -2,3 z m 136,-33 v 4 l 3,-2 -1,-4 z m 5,28 6,-2 v -4 l -4,-1 -3,4 z m 56,-49 -1,-3 h -2 l -1,4 z m -50,-8 v 2 l 4,-2 z m 77,32 h 3 l -1,-3 z m -78,-21 -1,2 3,1 z m 109,39 4,-1 -1,-1 z M 759,704 v 3 h 3 l 1,-3 z"
     id="珠海市" />
  <path
     stroke="#ffff00"
     stroke-opacity="1"
     stroke-width="0.5"
     stroke-linecap="round"
     stroke-linejoin="round"
     stroke-dasharray="none"
     fill="#1e90ff"
     fill-opacity="1"
     fill-rule="evenodd"
     d="m 1525,454 4,-8 3,-2 22,-4 13,-15 8,-1 11,4 h 5 l 2,-2 2,-7 -2,-3 -4,-1 -4,-19 6,-10 7,-5 6,-11 4,-2 v -9 l 3,-2 3,-7 h -3 l 1,-7 3,-5 4,-3 1,-9 -3,-5 1,-6 -3,-3 v -2 l -2,-1 -5,2 -3,-2 v -2 l -8,-4 -2,3 v 2 l 2,1 -1,3 -6,2 -2,-1 v 6 l -3,2 -3,-1 -3,3 -6,-8 -6,1 v 4 l -3,3 4,3 v 3 l -3,3 v 7 l 3,13 -1,3 -3,1 v 5 l -4,3 -1,-3 -4,3 h -10 l -10,-7 v -3 l -2,1 -1,3 3,2 v 4 l -2,1 -4,13 -3,-10 -8,-7 -15,-1 7,-10 v -4 l -3,-2 h -4 l -10,9 -3,-4 v -8 l -2,-1 -2,4 h -6 l -7,14 -4,2 -4,-2 1,8 3,-1 3,5 2,17 -1,3 -8,1 v 2 l 3,2 v 5 l -2,-1 -3,2 1,3 -3,2 1,1 -2,3 -1,7 -4,4 -3,-1 -2,3 v 3 h 2 l -1,3 -3,1 3,5 h -3 l 1,6 -3,4 4,4 8,4 v 3 l 3,1 3,-2 7,5 1,7 6,1 2,2 -2,1 3,2 12,-7 5,-6 v -2 l 8,-3 11,2 z m 153,-98 -5,-1 2,-4 -1,-3 -5,2 -4,5 -3,-1 -1,-3 h -4 l -11,10 -5,-5 h -7 l -8,5 v 4 l 10,3 h 12 v 2 l 6,2 7,-3 5,1 1,4 3,-2 3,3 4,-3 1,-4 -2,-3 v -4 h 3 l 1,-2 -2,-1 z"
     id="汕头市" />
  <path
     stroke="#ffff00"
     stroke-opacity="1"
     stroke-width="0.5"
     stroke-linecap="round"
     stroke-linejoin="round"
     stroke-dasharray="none"
     fill="#1e90ff"
     fill-opacity="1"
     fill-rule="evenodd"
     d="m 604,354 -4,4 -7,-4 1,-2 h -2 v -4 l -6,-1 -4,-8 7,-10 -4,-4 -2,4 -8,-6 -3,2 h -6 l 1,8 5,3 -1,11 -2,1 -2,5 -5,1 -2,8 -2,2 -2,16 5,1 v -6 l 2,-1 6,1 6,7 1,4 5,1 -4,15 -3,1 -3,7 -6,5 6,2 -1,4 -2,2 h -5 l -1,5 h -2 l 1,-4 -2,-4 -1,6 h -2 l -1,-5 h -4 l 1,2 -2,4 2,1 1,9 5,5 1,11 5,11 v 5 l 4,11 -10,7 -2,-1 1,-3 -4,2 -4,5 -2,-4 -5,3 v 11 l -6,4 -3,-6 -6,2 6,7 -3,3 2,1 h -4 l -5,4 -17,5 -2,2 -6,-3 -1,3 1,3 3,2 v 4 l -11,2 -1,3 -2,-4 h -5 v 4 l -3,1 -1,4 -5,2 -5,-1 -8,5 -6,1 v 7 l 5,11 -2,2 2,8 h 4 l 3,-3 3,-8 4,-1 3,3 v -4 l 6,-3 h 6 l 10,9 -2,4 -5,1 v 8 l 3,2 10,-6 v -4 l 4,-3 -3,-2 4,-3 3,-1 1,2 1,-2 4,-1 2,-4 h 3 l 1,4 h 2 l -1,-3 3,3 1,-2 -2,-2 2,-2 2,2 h 3 l -6,-5 5,-4 3,4 -3,3 3,1 -1,4 -3,3 v 3 l 4,-4 2,5 4,-2 2,2 h 4 l 6,-7 7,-3 1,-6 -2,-1 2,-4 h 2 l 1,-5 -3,-2 2,-3 h 5 l 1,-2 h 3 l -2,-7 h 6 l 1,-4 3,-1 1,2 h 3 l 6,-3 10,8 7,8 16,-2 2,1 4,7 3,17 4,5 3,-1 12,8 3,-2 5,2 3,-1 v -6 l 5,-4 5,-9 7,5 4,-3 4,1 7,-2 4,-5 4,-1 2,-3 -2,-5 6,-2 3,-3 -5,-4 -10,2 -6,-4 -1,-6 -3,-3 1,-4 -6,-5 2,-2 -1,-7 5,-2 -12,-10 v -21 l -11,1 -7,-5 -2,-5 9,-2 1,-4 h -2 l -1,-6 h 2 v -6 h -5 l -1,-2 v -3 l 6,-5 v -4 l -5,-6 -4,-2 2,-9 -1,-5 -7,-5 v -3 l -6,-4 -1,2 -5,1 v 4 l -9,1 3,7 -1,3 -9,-1 2,-3 v -4 l -5,-6 1,-6 -3,-1 5,-7 -2,-2 -5,4 -1,-3 h -6 l -2,-8 2,-2 v -4 l 3,-1 -5,-8 2,-2 h -3 l -4,5 v -6 l 3,-1 z m -47,129 -1,1 z"
     id="佛山市" />
  <path
     stroke="#ffff00"
     stroke-opacity="1"
     stroke-width="0.5"
     stroke-linecap="round"
     stroke-linejoin="round"
     stroke-dasharray="none"
     fill="#1e90ff"
     fill-opacity="1"
     fill-rule="evenodd"
     d="m 396,655 -5,8 v 5 l -3,1 v -4 h -2 l -2,4 v -6 l -3,3 -7,-1 -4,7 1,2 -2,4 2,2 -2,4 -6,5 h -7 l -2,5 5,1 4,3 v 5 l 4,2 v 3 l -3,2 -1,6 3,6 -3,4 -3,1 2,4 10,-3 v -2 h 4 v -2 l 5,1 v 3 l 5,5 v 3 h 8 l 7,8 4,1 3,-2 4,2 1,3 -4,4 1,6 3,-1 -2,2 10,3 3,2 1,3 10,2 4,5 2,4 v 7 h 2 l -1,4 2,1 -2,7 7,4 -5,3 2,5 -5,4 1,2 -4,3 1,8 -7,7 1,4 -2,5 3,4 3,-2 h 7 l 15,-6 4,-17 3,-4 10,2 15,12 16,1 14,-3 9,-14 29,-32 h 9 l 15,23 h 13 l 12,-7 15,-24 2,-14 -1,-4 -5,-7 1,-9 11,-11 3,-5 2,-15 3,-4 -1,-2 h 4 l 10,-5 2,-3 2,-11 3,-4 1,-18 -6,-6 -1,-6 h 5 l 2,5 5,-1 v -3 l 7,2 3,-3 3,3 -1,-13 -4,-11 -14,-18 -1,-9 -7,-11 2,-11 h 2 l -3,-6 -12,-8 -3,1 -4,-5 -3,-17 -4,-7 -2,-1 -16,2 -7,-8 -10,-8 -6,3 h -3 l -1,-2 -3,1 -1,4 h -6 l 2,7 h -3 l -1,2 h -5 l -2,3 3,2 -1,5 h -2 l -2,4 2,1 -1,6 -7,3 -6,7 h -4 l -2,-2 -4,2 -2,-5 -4,4 v -3 l 3,-3 1,-4 -3,-1 3,-3 -3,-4 -5,4 6,5 h -3 l -2,-2 -2,2 2,2 -1,2 -3,-3 1,3 h -2 l -1,-4 h -3 l -2,4 -4,1 -1,2 -1,-2 -3,1 -4,3 3,2 -4,3 v 4 l -10,6 -3,-2 v -8 l 5,-1 2,-4 -10,-9 h -6 l -6,3 v 4 l 4,4 -1,3 5,5 -1,6 3,3 2,6 -12,6 h -3 l -2,-5 -4,-1 -2,-4 2,-2 v -4 l -3,-4 1,-2 h -4 l -1,4 -4,4 2,4 h -2 l -2,7 h -3 l -2,10 1,2 -8,-3 4,5 -4,-2 -2,2 -3,-3 2,-2 -1,-2 -5,-1 -2,4 2,1 -2,3 v 8 l -7,1 -4,3 1,6 -7,15 2,5 h -4 l -4,3 -4,-2 -2,2 v 9 l -4,-1 v -4 z m 157,228 11,-7 -5,-6 2,-8 4,-3 -4,-8 1,-6 6,-9 11,-4 v -6 l -9,-2 -11,5 h -3 l -2,-2 -1,5 2,3 -2,2 -3,-1 -10,4 -4,6 1,3 -2,2 2,2 h 4 l 1,2 8,-4 4,3 -1,4 -6,2 -6,10 2,3 5,-3 -1,8 h 5 l -3,3 z m -63,-5 2,-2 h 6 l -4,-3 v -2 l 6,-3 7,2 v 2 l 4,-2 2,2 1,-3 3,-2 v -3 l 6,1 2,-3 -4,-1 -3,-3 v -5 l 7,-3 1,-3 -2,-5 -14,3 -4,3 -1,4 -8,3 3,6 -5,3 -2,-1 -5,11 v 3 z m -25,-22 3,4 h 3 l 3,-5 -1,-6 -2,-1 -2,5 z m 64,-10 h 2 l -1,-4 -2,2 z m 52,29 5,-2 v -3 l -5,-1 -6,3 2,3 z m 36,-70 2,-2 h 4 v -8 l -6,1 -4,3 3,5 z m -95,70 3,-4 -3,1 z m -17,2 3,-1 v -2 l -5,-1 -1,3 z m 22,-7 h -3 z m 33,13 3,-1 1,-3 -6,3 z"
     id="江门市" />
  <path
     stroke="#ffff00"
     stroke-opacity="1"
     stroke-width="0.5"
     stroke-linecap="round"
     stroke-linejoin="round"
     stroke-dasharray="none"
     fill="#1e90ff"
     fill-opacity="1"
     fill-rule="evenodd"
     d="m 5,976 -2,-17 -7,1 -5,6 -6,-5 -12,-6 v -3 l 4,-4 3,1 v -2 l 3,-1 -1,-2 3,-5 -3,-2 v -2 l -3,2 -2,-2 -2,-6 1,-3 -3,-1 -4,-4 v -2 l -6,-3 v -3 l 3,-5 -1,-2 4,1 1,-6 -3,-5 -4,1 -2,-3 2,-5 -2,-3 -1,2 -4,-2 h -6 l -3,-2 2,-4 4,-3 -5,-4 -3,4 -2,-4 2,-1 v -3 l -2,-1 v -4 h -2 l 2,-4 -6,-5 8,-3 -1,-3 h -2 l -1,4 -2,-2 -1,2 -5,-3 1,-1 -5,-7 4,-2 -1,-8 3,-3 -1,-7 4,-1 v -2 l -3,-1 1,-2 -4,3 -4,-2 1,-2 3,1 -1,-2 -3,1 -1,3 v -10 l 3,-6 -1,-2 3,-1 2,3 4,2 3,-3 -4,-9 -12,2 -6,-6 -6,-3 -2,7 -12,4 -6,-2 v -2 h -7 l -1,-2 -5,2 -3,-1 -2,4 -2,-5 h -4 l -3,5 v 3 l -2,1 -1,-5 -3,6 -8,2 -4,-3 -13,-3 -2,4 -9,5 2,1 -2,4 1,1 -3,3 1,13 -2,4 2,5 -4,2 v 7 l -2,-1 -3,5 2,1 -2,3 3,1 -5,6 h -3 l -3,-3 -8,6 -9,-1 v 3 h -3 l -3,-2 -2,-9 -3,1 -6,18 3,5 v 8 l 5,6 v 7 l 4,5 -1,9 15,4 h 13 l 3,3 -9,18 -9,2 h -17 l -3,3 2,34 -23,25 -2,4 1,14 -4,50 2,7 12,24 5,15 4,28 8,-1 4,2 3,4 2,7 1,16 2,4 4,4 13,4 2,3 v 10 l -3,5 -5,2 -1,7 2,4 8,6 4,6 -2,24 1,3 4,2 5,-1 5,-3 7,-8 23,-1 9,11 h 13 l 6,-2 6,-7 16,1 2,3 3,-3 13,-3 7,-8 16,-2 4,-4 16,-26 7,-4 2,-12 -1,-5 -6,-9 -6,-16 -3,-19 -6,-11 -6,3 h -8 l -5,-3 4,-11 v -17 l -3,-9 -10,-7 -6,-2 h -11 l -5,2 -10,-5 h -6 l -8,-13 1,-21 7,-7 -2,-6 3,-7 2,1 -1,3 5,7 3,-1 1,-7 12,-14 13,-3 7,-8 3,3 4,-2 5,-16 2,-1 6,2 3,-5 9,-4 9,4 7,-2 17,-1 z m -36,-72 2,2 -2,3 -3,-1 -3,5 h 2 l -2,3 6,3 v 2 l 7,5 -1,3 2,6 2,2 3,-2 v 2 l 3,2 -3,5 1,2 -3,1 v 2 l -3,-1 -4,4 v 3 l 12,6 6,5 5,-6 7,-1 2,17 24,-32 7,-6 7,-2 24,2 5,-1 6,-2 12,-8 -3,-7 -4,-3 -5,-1 -5,2 -2,4 -6,-6 4,-1 v -3 l -6,-3 1,-7 -2,-3 -3,3 -4,1 4,-3 -2,-7 -7,-4 -1,-2 2,-2 -3,-7 -5,1 1,-14 -7,-5 h -3 l -1,4 -2,-1 -3,4 v 4 l 2,1 1,5 h -3 l -2,4 -1,7 3,4 -2,1 v 2 l -4,-1 5,7 h -6 l 1,-3 -2,-3 -3,2 -4,-2 -2,3 3,1 2,4 -2,1 -4,-2 -2,2 v -4 l -4,1 1,5 h -7 l -5,-7 -6,2 v -4 l -5,1 -4,5 1,4 -2,1 -5,-1 v -3 z m -29,-115 5,-2 -3,-1 h 3 v -5 l 7,-1 -6,-2 -1,-3 -6,1 -5,5 3,1 3,5 z m -3,34 -1,5 3,1 v -5 z m 42,193 7,-1 2,-2 6,-17 3,-6 4,-3 v -6 l -5,1 -2,3 -4,1 -1,-2 h -7 l -8,3 -5,-6 h -3 l -3,3 h -5 l -2,4 -6,1 1,4 4,1 3,4 6,3 h 6 l 2,7 3,-1 1,2 v 6 z m -7,1 -5,1 -5,4 h -5 l -12,-9 -20,5 -2,-3 h -6 l -6,9 -2,6 -18,15 -1,11 28,-7 10,-6 27,-1 5,2 6,9 2,7 2,2 h 4 l 3,-6 v -13 l 6,-17 v -4 l -8,-4 z m 50,-123 -2,1 3,1 z m -79,234 h 4 l 1,-2 1,3 2,-2 v -5 l -3,-3 -4,1 v 3 l -2,1 z m 61,-71 -10,-5 h -4 l -5,8 -5,4 v 10 l 3,4 h 13 l 9,-16 z m -22,167 2,1 7,-10 v -3 l -2,-2 -2,8 z m -35,-229 -1,3 h 6 l 2,-3 -5,-1 z m -7,15 v 2 l 8,1 1,-3 -3,-2 z"
     id="湛江市" />
  <path
     stroke="#ffff00"
     stroke-opacity="1"
     stroke-width="0.5"
     stroke-linecap="round"
     stroke-linejoin="round"
     stroke-dasharray="none"
     fill="#1e90ff"
     fill-opacity="1"
     fill-rule="evenodd"
     d="m 20,895 h 6 v -2 l 2,-1 -3,-4 3,-11 h 3 l -1,-5 -2,-1 v -4 l 3,-4 2,1 1,-4 h 3 l 7,5 -1,14 5,-1 3,7 -2,2 1,2 7,4 2,7 -4,3 4,-1 3,-3 2,3 -1,7 6,3 v 3 l -4,1 6,6 2,-4 5,-2 5,1 4,3 3,7 22,-12 22,-3 6,1 17,-4 4,-3 10,-1 1,3 -4,5 v 3 l -2,1 -5,-3 -1,1 2,4 v 6 l 7,-1 4,-5 8,-3 6,-5 7,-9 18,-5 2,-5 -3,-11 -2,-1 -3,2 1,-3 -3,2 1,-5 -2,-2 3,-5 h -2 l -1,-9 6,-12 -2,-7 -7,-3 h -4 l -2,-2 2,-6 -4,-5 13,-11 -2,-10 -3,-1 v -2 h -8 l -3,-4 h -6 l -5,-6 -2,1 -5,-4 -1,-4 2,-4 -3,-4 v -10 l 1,-3 5,-4 -1,-5 h -2 l -3,-5 1,-3 3,-1 1,-6 3,1 -1,-2 4,-4 -1,-3 4,-1 1,-3 -3,-4 1,-5 -2,-3 7,-6 -2,-5 4,-6 4,-3 1,1 2,-3 11,-7 6,1 1,-7 2,-1 -2,-3 2,-4 3,-2 h 4 v -2 l 4,-3 2,-4 4,2 3,-3 2,1 5,-3 5,2 3,-2 1,-5 3,1 16,-19 v -11 l -12,-1 -2,-3 -2,4 v -10 h -2 l -1,-4 -3,-1 -7,3 -2,5 -4,2 v 5 l -5,5 -10,-7 -4,4 3,9 -3,5 h -6 l -2,4 h -5 v -6 l -3,-3 -1,-6 2,-3 v -6 l -2,-1 -5,2 -3,-2 -6,2 -3,-4 -2,2 -10,3 -4,4 v -8 l 2,-1 3,-7 h 7 l 1,-3 -6,-3 v -3 l -6,-3 -16,2 -5,-7 -6,1 -3,-4 -5,-2 v -3 l -4,-8 2,-2 v -3 l -3,-3 v -2 l -4,-1 -1,3 h -4 l -4,8 h -3 l -2,5 -6,1 -1,-2 -5,2 -3,4 -2,-3 -8,1 v 6 l -4,2 -12,-1 1,6 -3,2 H 53 l -5,2 -2,2 v 3 l -2,1 -1,-4 -4,-4 -5,1 1,4 -4,3 2,2 1,9 h -2 l -3,5 2,6 -2,3 -4,1 -5,-1 -4,-3 -2,1 3,4 v 3 h 3 l 2,3 v 6 l -2,3 2,3 v 7 l 3,2 h 4 l 3,5 -1,4 3,1 3,5 v 3 l 4,1 1,2 -8,3 -5,-2 -4,-4 -3,5 -5,2 v 4 l -2,2 -8,3 -2,5 1,4 4,1 3,9 h -2 l -1,2 -2,-1 -1,2 -7,3 -8,-4 2,-5 -11,-4 -8,9 v 3 l -5,2 h -6 l -1,-1 2,-2 -16,-14 h -4 l -1,5 h -3 l -2,3 1,2 -3,2 -9,-9 -1,4 -2,-1 v 4 l -3,2 v 3 l 7,6 h 2 l 2,9 -4,1 2,5 -2,1 1,3 -2,7 4,9 -2,-1 1,4 -2,5 6,2 4,5 6,-1 1,3 6,1 -7,2 v 5 h -3 l 3,1 -5,2 -2,4 3,8 -3,3 -4,-2 -2,-3 -3,1 1,2 -3,6 -1,8 1,2 1,-3 3,-1 1,2 -3,-1 -1,2 4,2 4,-3 -1,2 3,1 v 2 l -2,1 3,2 v 5 l -3,-1 -4,4 1,8 -4,2 5,7 -1,1 5,3 1,-2 2,2 1,-4 h 2 l 1,3 -8,3 6,5 -2,4 h 2 v 4 l 2,1 v 3 l -2,1 2,4 3,-4 5,4 -1,2 h -3 l -2,5 3,2 h 6 l 4,2 1,-2 2,3 -2,5 2,3 4,-1 3,5 -1,3 h 3 v 3 l 5,1 2,-1 -1,-4 4,-5 5,-1 v 4 l 6,-2 5,7 h 7 l -1,-5 4,-1 v 4 l 2,-2 4,2 2,-1 -2,-4 -3,-1 2,-3 4,2 z m -51,9 v 3 l -4,-1 1,2 3,1 2,-3 z m -33,-76 1,-5 -3,-1 1,7 z m 87,68 h -2 v 5 h 6 z m 120,41 3,-3 v -3 l -3,3 z m -180,-21 2,-3 h -2 z"
     id="茂名市" />
  <path
     stroke="#ffff00"
     stroke-opacity="1"
     stroke-width="0.5"
     stroke-linecap="round"
     stroke-linejoin="round"
     stroke-dasharray="none"
     fill="#1e90ff"
     fill-opacity="1"
     fill-rule="evenodd"
     d="m 567,331 h -7 l -2,-2 1,-10 h -4 l -3,-4 h -4 l -1,-2 v -5 l 7,-4 v -8 l -3,-2 -6,2 v -5 l -4,3 -4,-4 3,-5 -3,1 -1,-2 9,-11 -4,-2 -6,2 -2,-4 2,-11 h -4 l -4,-3 -5,1 5,-5 -1,-6 2,-2 -2,-2 6,-7 -2,-1 2,-5 -3,-3 v -5 h -2 l -3,-3 -5,3 -5,-1 -13,-7 -2,1 v -3 h -13 l -2,-9 3,-3 -3,-9 -3,-4 1,-5 -3,-1 v -8 l -6,-2 -3,1 1,-2 -3,1 -4,-2 v -13 l 6,-10 1,-8 -2,-12 -1,-2 -6,1 -3,-7 h -2 l -2,-5 -3,-1 -2,-5 -9,-2 -5,-7 h -4 l -4,-3 -1,4 2,14 -10,2 2,8 -2,3 -1,10 h -8 l -1,6 -5,6 -7,1 -3,4 -2,-1 -1,-4 -4,-1 -2,-5 -4,-1 -5,-8 -5,-1 -4,4 -1,6 -2,2 v 7 l -4,1 h -7 l -5,-10 -5,-3 h -10 l -2,4 -9,-2 -2,14 4,4 -2,10 1,9 2,1 -1,4 3,2 2,7 4,3 v 7 l 5,7 -6,10 h -2 l 1,2 -4,-1 -5,3 -3,-3 h -3 l -1,4 2,4 -3,4 -2,-2 h -4 l -3,7 3,4 v 11 l -2,1 -1,6 -4,-2 -1,2 h -5 l -2,-2 -3,1 -2,-2 -7,-2 -1,-3 h -5 l -1,6 -7,-5 h -3 l -4,13 h -2 v 14 l -3,1 1,2 12,2 -2,4 1,2 -6,1 -2,3 1,2 h -3 l -3,5 v 6 l -5,-2 -2,2 -1,-2 -5,3 -3,-2 -4,3 -13,1 -1,6 2,4 v 9 h -2 v 8 l -6,9 -2,-1 -6,10 -7,-1 -4,20 2,2 -1,5 -3,1 -4,11 3,5 1,-2 4,-1 7,2 6,4 -1,2 9,6 5,-3 3,1 3,-2 1,-5 2,-1 -1,-3 2,-1 11,15 v 5 l -2,3 -6,2 -3,4 11,8 16,2 5,8 18,2 11,5 h 17 l 6,-3 5,1 5,4 16,-2 5,3 1,7 2,3 9,1 3,3 12,-2 4,-3 5,2 4,-1 8,3 h 7 l 11,-11 13,-4 7,2 v 2 l 4,3 -3,6 -4,1 -4,10 v 6 l 3,3 -5,11 3,5 -5,3 -3,-3 v 12 h 7 l 2,-2 3,2 -2,13 4,4 -1,7 h 3 l 4,5 -3,1 -2,4 h 10 l 5,-2 2,1 2,6 6,-1 8,-5 5,1 5,-2 1,-4 3,-1 v -4 h 5 l 2,4 1,-3 11,-2 v -4 l -3,-2 -1,-3 1,-3 6,3 2,-2 17,-5 5,-4 h 4 l -2,-1 3,-3 -6,-7 6,-2 3,6 6,-4 2,-6 -2,-5 5,-3 2,4 4,-5 4,-2 -1,3 2,1 10,-7 -4,-11 v -5 l -5,-11 -1,-11 -5,-5 -1,-9 -2,-1 2,-4 -1,-2 h 4 l 1,5 h 2 l 1,-6 2,4 -1,4 h 2 l 1,-5 h 5 l 2,-2 1,-4 -6,-2 6,-5 3,-7 3,-1 4,-15 -5,-1 -1,-4 -6,-7 -6,-1 -2,1 v 6 l -5,-1 2,-16 2,-2 2,-8 5,-1 2,-5 2,-1 1,-11 -5,-3 z"
     id="肇庆市" />
  <path
     stroke="#ffff00"
     stroke-opacity="1"
     stroke-width="0.5"
     stroke-linecap="round"
     stroke-linejoin="round"
     stroke-dasharray="none"
     fill="#1e90ff"
     fill-opacity="1"
     fill-rule="evenodd"
     d="m 1001,579 11,-7 13,-3 -1,-5 -3,-2 2,-3 22,-10 2,-2 v -3 l 4,-1 11,8 -5,11 1,10 -2,4 v 5 l 3,4 1,5 -2,4 3,7 33,-3 2,6 v 8 l 8,-1 3,-4 -1,-14 4,-8 18,-17 4,-1 v -4 l -4,-3 v -4 l -4,-4 2,-5 -2,1 -4,-2 -1,-3 -5,-2 -3,-4 2,-2 v -5 l -5,-2 v -5 l -2,-2 4,-1 1,-2 -6,-8 3,-4 9,-2 2,-3 h 6 l 3,-5 h 3 l 6,-4 1,1 4,-7 6,-4 3,3 3,-4 9,5 5,-6 v -4 l 8,-5 2,1 4,-3 7,-2 1,-4 4,-3 -1,-2 7,-1 v -6 l -2,-2 1,-9 h 7 l 1,-2 2,1 3,-3 2,-6 9,-4 3,-4 h 4 l -1,-3 2,-2 4,1 -5,-4 -1,-8 -2,-3 h -2 l -2,-4 -3,1 -8,-6 -6,4 -2,-5 v -10 l -2,1 -8,-8 -6,2 -2,-2 -7,2 -8,-1 -2,1 v 3 l -7,2 -5,-2 -6,3 -3,4 -2,-1 -2,4 h -3 l -1,3 -12,-3 -4,10 h -4 l -2,-2 2,-4 -2,1 -2,-4 h -4 l 2,-4 -3,-2 -5,3 h -3 l 2,7 -2,5 v 6 l -4,5 1,3 -5,1 -1,5 -4,4 2,6 -5,7 -4,-2 -2,-4 -6,-4 v -2 h -4 v -17 h -2 v -2 l -3,-1 3,-5 -1,-5 h -4 l -2,-4 h -4 l -1,-2 -1,2 -3,-6 1,-3 -6,-2 -1,-7 3,-3 -5,-3 -5,1 -2,2 -2,-3 v 5 l -5,-3 11,-14 6,-1 v -3 l -4,-7 1,-4 3,-3 -2,-3 -3,1 -4,-2 -2,-8 -5,4 h -3 v 6 l -5,-3 2,-2 -3,-3 -9,-4 v -3 l -3,-3 1,-1 -2,-3 2,-5 -3,-2 -4,-10 -3,-1 -2,-5 -10,-4 -8,4 -5,-3 v -3 h -4 l -7,-10 -3,5 -3,-3 v -3 l -4,-1 -1,-5 3,-6 -2,-2 v -3 h -2 l -2,-7 1,-5 7,-5 -3,-3 1,-2 -4,-4 -8,3 -4,-4 -2,1 -4,-3 h -7 l 5,-6 -1,-2 5,-2 v -3 l -2,-1 -6,5 -7,-1 -3,2 -4,-5 h -3 l -3,1 -1,4 -10,1 -1,2 -10,1 -5,-3 -5,10 1,8 2,1 v 4 l 2,2 -1,5 -5,5 4,3 -3,2 6,5 -6,2 -3,3 v 2 l -2,-3 h -2 l 2,-4 -5,4 -6,1 -1,6 h -8 l -1,2 h -4 l -2,4 h -3 l -1,5 -4,4 -9,1 -2,7 h -5 l 2,2 -3,4 v 3 h 4 l 1,2 6,2 1,6 -3,5 3,1 2,7 4,2 6,9 9,3 -4,3 h 8 l 6,3 -2,2 -5,-1 -1,7 2,3 h 7 v 7 l 3,4 -4,4 4,9 -1,4 h -3 l 3,6 v 4 l -4,-1 -5,-4 v -5 l -5,-3 -3,1 -9,-2 -1,18 -3,5 4,3 -1,3 3,8 h -2 l -3,6 2,4 h 3 l -2,4 h -5 l -4,2 -2,2 -2,7 1,2 4,1 3,-3 5,4 3,-1 8,2 9,-2 4,3 1,3 5,3 5,-1 9,-5 6,3 4,9 12,10 v 2 l -3,-2 -4,9 2,-1 2,3 5,2 6,-5 5,3 3,-1 2,2 1,5 -3,3 v 7 l 4,4 8,2 -2,6 -5,1 1,12 -2,7 2,6 h 2 l 2,3 h 3 l 6,-8 2,2 5,1 4,-3 6,1 v 5 l -3,1 3,2 1,4 2,-1 6,3 2,-1 v -5 l 2,-1 4,4 -1,9 -3,3 2,3 h 2 l 2,4 h 4 v 5 l -4,1 1,5 6,-3 6,2 7,-2 z m 35,24 2,4 v -5 l -5,-2 v 3 z m -6,35 6,-2 1,-2 -6,-2 -3,1 z m -5,-62 1,2 1,-2 z m 59,44 1,3 4,-3 -3,-1 z m -49,-45 1,3 z m 20,27 -1,-3 -1,2 z m -22,41 h 3 l 1,-4 z"
     id="惠州市" />
  <path
     stroke="#ffff00"
     stroke-opacity="1"
     stroke-width="0.5"
     stroke-linecap="round"
     stroke-linejoin="round"
     stroke-dasharray="none"
     fill="#1e90ff"
     fill-opacity="1"
     fill-rule="evenodd"
     d="m 1478,278 1,-2 2,1 6,-7 v -2 l 8,-3 8,7 8,1 2,-3 v -9 l 3,-2 -2,-7 3,1 2,-3 -7,-7 -1,-3 5,1 2,-5 h 3 l 6,-4 v -3 l 8,2 4,-3 v -11 l 5,1 -4,-4 v -2 h 7 l 1,-6 2,-1 9,1 1,2 2,-3 -1,-3 h 2 l 3,-4 v -4 l -3,-5 4,-3 5,2 3,-2 3,-6 3,2 1,-5 -2,-4 v -5 l 6,-9 h 2 l 4,-4 5,2 1,-3 3,-2 3,1 2,4 3,-1 2,-8 h 4 l 1,-2 -2,-5 5,-4 4,3 2,-4 -1,-13 -6,-1 v -7 l 2,-2 -6,-9 v -3 l 2,-2 -5,-8 -3,2 -1,-5 -4,-5 h -2 l -2,-5 1,-3 h 3 l 2,-2 -8,-10 -4,4 v -2 l -8,-8 -1,-5 -6,-3 v -3 l 3,-2 -2,-6 10,-11 v -4 l 3,-2 1,-3 -4,-7 h -6 l -6,7 -3,-3 h -9 l -2,3 -8,-1 -8,3 -1,2 -9,-4 -3,5 -4,2 v 2 l -10,5 -5,-3 1,-10 -3,-4 -1,-9 -4,-6 -10,1 -2,-5 -5,-3 v -7 l -5,-7 -3,1 -3,-5 v -4 l 11,-6 -6,-4 v -6 h -4 l -1,3 -4,-1 -3,4 1,2 -2,6 h -3 l -11,8 h -7 l -3,2 -5,-2 5,-7 -3,-2 -3,2 -2,-2 v -3 l -8,-10 -9,9 -10,-2 -5,1 -2,3 -1,-4 -4,1 -7,-6 -1,-5 -4,-4 -2,-1 -3,3 -5,-1 -2,-5 -3,1 -3,-2 -11,-1 -3,-4 -5,1 2,10 5,5 -3,3 h -6 l -3,2 2,-8 h -3 l -1,-3 -5,-2 -3,1 -3,4 -1,8 h -6 l 2,2 -1,3 2,2 -3,1 -4,12 3,5 -5,7 v 4 l 3,3 v 4 l 3,3 5,-1 2,2 -3,6 h -5 l -4,2 5,2 2,5 -1,3 3,1 5,8 6,5 2,4 -1,2 -15,-1 -11,7 -6,1 -3,-2 h -6 l -2,-5 3,-2 -4,-10 h -3 l -3,-3 -4,1 -1,-2 -6,-2 -3,3 h -4 l -2,-1 -3,-7 -10,5 -4,7 2,7 -5,2 1,2 h -4 l 2,11 -1,2 2,5 3,2 h 6 l 2,3 4,-1 v 5 l 2,-3 h 3 l 1,5 h 4 l -1,3 -3,2 -1,4 3,2 v 3 l -2,4 -5,3 -2,8 1,7 2,1 1,5 2,1 -1,4 2,1 v 6 l 4,4 v 4 h -4 l -1,2 v 9 l -4,-1 -5,4 2,6 -6,-3 -2,-3 -3,1 2,4 -1,2 4,7 -3,1 h 3 v 3 l 3,2 1,3 -2,3 h -4 l -4,-8 -1,2 -3,-1 v -5 h -2 l -6,5 -1,-2 v 5 l -8,13 2,4 5,4 2,20 -11,5 1,3 -3,3 1,6 -4,3 1,4 -3,1 -3,4 2,4 -6,2 -1,7 3,4 -3,1 2,3 -11,8 8,2 5,-1 5,-5 3,2 -4,6 2,4 6,3 -1,6 3,2 6,-2 v -2 l 3,1 -1,12 -3,6 -2,1 -1,16 2,5 4,2 -4,6 -1,5 2,4 -2,2 h -4 v 3 h 2 v 5 l 2,-1 2,6 -1,5 5,4 v 9 l 2,3 11,-1 2,-8 -2,-1 3,-4 2,1 v -2 l 5,-3 4,1 6,-4 3,-6 5,-1 2,-4 v -5 l 4,-2 v -4 l 5,-1 3,-5 5,-2 3,6 6,6 3,-1 v -3 l 10,1 3,2 2,-2 -1,-4 3,-1 2,-3 -2,-1 3,-6 -4,-6 h 3 l -2,-5 4,-8 5,-4 h 6 l 1,4 9,7 14,-7 1,-3 4,-2 3,-4 h 6 l 3,4 -2,2 3,3 4,-1 4,3 1,-2 4,1 7,5 1,-1 3,2 4,-1 9,2 3,-3 v -3 l 3,-1 -3,-4 1,-8 h 4 l 4,-5 v -5 l 4,-3 2,1 -1,2 10,-7 v -4 h 6 l 7,-5 3,1 1,4 4,4 z"
     id="梅州市" />
  <path
     stroke="#ffff00"
     stroke-opacity="1"
     stroke-width="0.5"
     stroke-linecap="round"
     stroke-linejoin="round"
     stroke-dasharray="none"
     fill="#1e90ff"
     fill-opacity="1"
     fill-rule="evenodd"
     d="m 1282,352 h -3 l -3,6 -6,4 -4,-1 -5,3 v 2 l -2,-1 -3,4 2,1 -2,8 -8,1 -1,5 v 8 l 7,2 -3,2 h -7 v 4 l -2,2 2,1 -4,3 h -5 l 2,2 -4,4 2,6 -4,-1 -2,2 1,3 h -4 l -3,4 -9,4 -2,6 -3,3 -2,-1 -1,2 h -7 l -1,9 2,2 v 6 l -7,1 1,2 -4,3 -1,4 -7,2 -4,3 -2,-1 -4,2 -4,3 v 4 l -5,6 -9,-5 -3,4 -3,-3 -6,4 -4,7 -1,-1 -6,4 h -3 l -3,5 h -6 l -2,3 -9,2 -3,4 6,8 -1,2 -4,1 2,2 v 5 l 5,2 v 5 l -2,2 3,4 5,2 1,3 4,2 2,-1 -2,5 4,4 v 4 l 4,3 v 4 l 4,-2 -1,-3 -3,-2 v -3 l 2,-2 5,-1 1,-8 3,-2 22,-5 5,8 h 6 l -1,-5 -2,-2 2,-5 14,-2 3,2 -6,4 v 8 l 13,-3 14,2 2,10 -1,5 2,4 7,4 1,3 h 12 l 3,-3 8,-1 17,10 5,-1 4,4 2,-6 -4,-3 6,-11 5,-2 v -6 l -5,2 -4,-2 -6,1 -2,-2 1,-3 7,-5 3,-12 12,-9 6,-2 7,1 4,6 15,1 9,8 2,7 -1,11 6,4 3,-1 14,-14 7,-1 5,-4 8,2 9,-9 h 4 l 7,-4 h 8 l 3,2 2,4 5,1 18,-12 13,-15 -1,-4 -3,1 -4,-2 -8,5 2,6 -5,2 -3,-1 -2,-3 -3,2 h -4 l -6,-3 -1,-4 -7,-1 -7,-5 -2,1 -3,-3 -6,6 -1,-4 -3,-1 2,-3 -1,-5 -2,6 -1,-2 h -4 l 1,-5 -2,-4 h 2 l -1,-2 4,-6 -2,-1 -3,4 -5,-3 4,-4 3,2 2,-4 3,-2 -5,-6 h -3 l 1,-4 -5,-5 v -3 l -3,-4 -3,-1 -9,3 -3,5 -5,-4 v -3 l -8,-2 -3,-2 -2,-5 -5,-1 -10,-7 3,-2 -1,-2 2,-3 3,5 2,-7 -2,-2 v -3 l 2,-3 13,-1 6,-2 -2,-4 -7,-4 1,-11 5,-3 -9,-9 -2,-5 -19,5 -3,4 -4,-1 -1,-11 2,-3 -6,-4 -11,-14 z m 299,750 v 4 l -2,2 2,2 7,-1 4,2 h 16 l 4,7 v 9 l -4,8 -6,7 -15,4 -9,-2 -2,2 v 3 l 5,4 15,1 9,-2 7,-4 4,-4 8,-16 -7,-23 -6,-4 -17,-1 z m -428,-554 3,-3 -2,-1 z m 419,575 1,-1 -4,-2 -2,2 z m -398,-566 2,1 v -2 z m 195,455 2,9 16,12 6,1 4,-2 3,-4 v -7 l -2,-6 -4,-6 -5,-4 h -15 l -4,4 z m -5,32 1,5 6,10 4,2 8,-1 v -7 l -3,-5 -9,-9 -6,2 z"
     id="汕尾市" />
  <path
     stroke="#ffff00"
     stroke-opacity="1"
     stroke-width="0.5"
     stroke-linecap="round"
     stroke-linejoin="round"
     stroke-dasharray="none"
     fill="#1e90ff"
     fill-opacity="1"
     fill-rule="evenodd"
     d="m 1234,416 -1,-4 4,-4 -2,-2 h 5 l 4,-3 -2,-1 2,-2 v -4 l 2,1 8,-3 -7,-2 1,-13 h -3 l -2,-3 v -9 l -5,-4 1,-5 -2,-6 -2,1 v -5 h -2 v -3 h 4 l 2,-2 -2,-4 1,-5 4,-6 -4,-2 -2,-5 1,-16 2,-1 2,-6 2,-12 -3,-1 v 2 l -6,2 -3,-2 1,-6 -6,-3 -2,-4 4,-6 -3,-2 -5,5 -5,1 -8,-2 11,-8 -2,-3 3,-1 -3,-4 1,-7 6,-2 -2,-4 3,-4 3,-1 -1,-4 4,-3 -1,-6 3,-3 -1,-3 11,-5 -2,-20 -5,-4 -2,-4 8,-13 v -5 l 1,2 6,-5 h 2 v 5 l 3,1 1,-2 4,8 h 4 l 2,-3 -1,-3 -3,-2 v -3 h -3 l 3,-1 -4,-7 1,-2 -2,-4 3,-1 2,3 6,3 -2,-6 5,-4 4,1 v -9 l 1,-2 h 4 v -4 l -4,-4 v -6 l -2,-1 1,-4 -2,-1 -1,-5 -2,-1 -1,-7 2,-8 5,-3 2,-4 v -3 l -3,-2 1,-4 3,-2 1,-3 h -4 l -1,-5 h -3 l -2,3 v -5 l -4,1 -2,-3 h -6 l -3,-2 -2,-5 1,-2 -2,-11 h 4 l -1,-2 5,-2 -2,-7 4,-7 10,-5 -1,-11 -6,-2 -3,-4 2,-2 -2,-2 -4,1 v -3 l -3,-2 1,-2 -4,-3 -1,-3 -3,-2 -4,1 -10,-8 -3,1 -3,4 h -4 l -3,5 -1,6 -5,-4 -8,-2 -8,1 -2,1 -3,6 -3,-1 -3,3 -3,-1 -10,4 3,6 h -12 l -3,3 h -3 l -1,4 -3,-2 -1,1 -5,-5 -1,-4 h -6 l -1,-3 -3,4 1,2 -6,6 -4,-1 -1,-2 -7,2 -4,2 -2,3 -4,1 -1,-4 -7,1 -4,23 h -2 v 3 l -4,2 -4,-5 1,-5 -3,-1 -5,4 -6,-5 -2,1 -4,-3 -3,2 -4,-3 -6,2 2,13 -3,4 -2,-1 -3,8 -2,-4 h -3 l -6,-13 -6,4 -4,-1 -4,3 -4,7 -12,-1 -3,-5 -9,7 -5,1 -3,6 -7,3 -3,4 -5,-5 -2,1 1,-5 -1,-3 -3,-2 v -8 h -3 l -4,-5 -3,1 -4,-2 -1,2 -2,-1 -4,2 v 4 l -4,2 -1,4 -4,1 1,7 8,8 -1,3 -3,1 -13,12 v 4 l 3,3 -2,11 8,-1 4,4 -6,7 2,7 -4,7 1,1 -3,2 4,2 -4,1 5,9 v 3 l 4,2 2,3 -2,4 1,2 3,2 3,6 3,2 v 3 l 2,1 1,-3 3,-2 3,3 8,-3 6,1 1,2 h 3 l 1,3 7,3 4,-1 1,-1 -5,-6 1,-7 h -2 v -2 h 5 l 3,-6 14,-11 2,-4 6,5 h 3 l 2,4 -2,3 v 4 l 3,4 -2,3 -6,1 -3,3 2,4 -3,3 -2,-2 -3,2 v -4 l -7,9 -3,-3 -2,1 1,2 -3,6 -4,3 -5,1 -2,3 1,8 h -4 l -2,4 -2,-3 -3,1 v 2 l -4,4 2,3 h -2 l 2,6 -2,1 v 10 l -3,2 -1,4 h -2 l 1,3 -5,6 3,3 -7,5 -1,5 2,7 h 2 v 3 l 2,2 -3,6 1,5 4,1 v 3 l 3,3 3,-5 7,10 h 4 v 3 l 5,3 8,-4 10,4 2,5 3,1 4,10 3,2 -2,5 2,3 -1,1 3,3 v 3 l 9,4 3,3 -2,2 5,3 v -6 h 3 l 5,-4 2,8 4,2 3,-1 2,3 -3,3 -1,4 4,7 v 3 l -6,1 -11,14 5,3 v -5 l 2,3 2,-2 5,-1 5,3 -3,3 2,7 5,2 -1,3 3,6 1,-2 1,2 h 4 l 2,4 h 4 l 1,5 -3,5 3,1 v 2 h 2 v 17 h 4 v 2 l 6,4 2,4 4,2 5,-7 -2,-6 4,-4 1,-5 5,-1 -1,-3 4,-5 v -6 l 2,-5 -2,-7 h 3 l 5,-3 3,2 -2,4 h 4 l 2,4 2,-1 -2,4 2,2 h 4 l 4,-10 12,3 1,-3 h 3 l 2,-4 2,1 3,-4 6,-3 5,2 7,-2 v -3 l 2,-1 8,1 4,-2 h 3 l 2,2 6,-2 8,8 2,-1 v 10 l 2,5 6,-4 8,6 3,-1 2,4 h 2 l 2,3 1,8 z"
     id="河源市" />
  <path
     stroke="#ffff00"
     stroke-opacity="1"
     stroke-width="0.5"
     stroke-linecap="round"
     stroke-linejoin="round"
     stroke-dasharray="none"
     fill="#1e90ff"
     fill-opacity="1"
     fill-rule="evenodd"
     d="m 433,845 -2,-3 2,-5 -1,-4 7,-7 -1,-8 4,-3 -1,-2 5,-4 -2,-5 5,-3 -7,-4 2,-7 -2,-1 1,-4 h -2 v -7 l -2,-4 -4,-5 -10,-2 -1,-3 -3,-2 -10,-3 2,-2 -3,1 -1,-6 4,-4 -1,-3 -4,-2 -3,2 -4,-1 -3,-5 -4,-3 h -8 v -3 l -5,-5 v -3 l -5,-1 v 2 h -4 v 2 l -10,3 -2,-4 3,-1 3,-4 -3,-6 1,-6 3,-2 v -3 l -4,-2 v -5 l -4,-3 -5,-1 2,-5 h 7 l 6,-5 2,-4 -2,-2 2,-4 -1,-2 4,-7 7,1 3,-3 v 6 l 2,-4 h 2 v 4 l 3,-1 v -5 l 5,-8 -1,-4 -5,-4 -2,3 -12,-3 -3,-2 -5,-8 h -3 l -3,-4 -5,-2 -1,-5 h -4 l -3,-4 -4,-12 2,-4 4,-1 2,-6 -11,-13 -6,8 -4,4 -1,-1 -3,4 v 3 l -7,-3 -1,2 -9,-4 v -2 l -4,-1 3,-3 2,1 2,-2 3,2 v -8 h 3 v -7 h -2 l -3,-5 h -3 l 1,-3 h -2 l -4,3 v 3 l -3,3 2,6 -4,2 -4,5 -1,4 -11,7 -5,8 1,4 -2,6 -6,6 h -3 v 7 l -5,7 -11,12 -3,-1 -1,5 -3,2 -5,-2 -5,3 -2,-1 -3,3 -4,-2 -2,4 -4,3 v 2 l -7,1 -2,5 2,3 -2,1 -1,7 -6,-1 -11,7 -2,3 -1,-1 -4,3 -4,6 2,5 -7,6 2,3 -1,5 3,4 -1,3 -4,1 1,3 -4,4 1,2 -3,-1 -1,6 -3,1 -1,3 3,5 h 2 l 1,5 -5,4 -1,3 v 10 l 3,4 -2,4 1,4 5,4 2,-1 5,6 h 6 l 2,4 h 9 v 2 l 3,1 2,10 -13,11 4,5 -2,6 2,2 h 4 l 7,3 2,7 -3,4 1,2 -2,2 -2,8 1,5 h 2 l -3,5 2,2 -1,5 3,-2 -1,3 3,-2 2,1 3,11 -2,5 6,4 h 5 l 6,-4 6,-1 v 3 l 5,1 12,-7 10,3 1,2 3,-4 4,-1 v -10 l 4,-7 17,-6 h 9 l 10,8 -5,3 v 5 l 9,-4 6,3 4,-6 9,-5 5,-2 8,1 14,-8 -1,-4 -5,-3 -8,1 -4,-4 -2,-7 2,-5 21,-14 25,-9 10,-2 5,3 1,15 3,-1 3,3 h 3 l 2,3 v 4 l 5,1 1,2 3,-2 h 5 z m -33,43 h 6 l -4,-1 v -2 l -2,1 z m -10,-15 h 2 l -1,-3 z m -6,-9 3,-2 h -3 z"
     id="阳江市" />
  <path
     stroke="#ffff00"
     stroke-opacity="1"
     stroke-width="0.5"
     stroke-linecap="round"
     stroke-linejoin="round"
     stroke-dasharray="none"
     fill="#1e90ff"
     fill-opacity="1"
     fill-rule="evenodd"
     d="m 609,-59 -2,2 -7,-1 -4,2 -10,-2 -6,4 -2,4 -8,-1 -14,2 -2,-2 2,-4 -1,-7 -3,-4 -7,-1 -1,-12 -7,-8 1,-15 -12,-10 -3,-6 -8,-2 -1,2 -16,3 -6,-3 -8,-1 -1,-2 -12,-2 -1,-6 -3,-4 -3,3 -1,6 -3,4 h -4 l -3,-3 2,-2 -8,-9 -9,5 h -4 l -3,5 -5,-3 -7,2 v -4 l -2,-3 -12,-1 -3,1 1,3 -2,9 -3,3 1,7 -4,11 -3,3 1,9 -5,8 -3,2 -1,7 6,8 8,3 -2,17 1,1 -2,5 -3,2 -2,-2 -5,1 -3,3 -4,1 v 3 l -3,4 -6,1 -7,8 -1,8 -4,3 -14,3 -2,7 -3,3 v 5 l 2,1 1,5 -5,2 -1,3 2,10 9,5 5,8 2,-1 3,14 -4,2 -2,4 v 5 l 3,4 6,2 5,9 1,5 3,2 1,5 v 8 l -3,2 -1,4 -3,2 -2,5 h -3 l -3,4 h -3 l -1,6 h -8 l -4,4 1,3 h 4 l 5,3 5,10 h 7 l 4,-1 1,-2 -1,-5 2,-2 1,-6 4,-4 5,1 5,8 4,1 2,5 4,1 1,4 2,1 3,-4 7,-1 5,-6 1,-6 h 8 l 1,-10 2,-3 -2,-8 10,-2 -2,-14 1,-4 4,3 h 4 l 5,7 9,2 2,5 3,1 2,5 h 2 l 3,7 6,-1 1,2 2,12 -1,8 -6,10 v 13 l 4,2 3,-1 -1,2 3,-1 6,2 v 8 l 3,1 -1,5 3,4 3,9 -3,3 2,9 h 13 v 3 l 2,-1 13,7 5,1 5,-3 3,3 h 2 v 5 l 3,3 -2,5 2,1 -6,7 2,2 -2,2 1,6 -5,5 5,-1 4,3 h 4 l -2,11 2,4 6,-2 4,2 -9,11 1,2 3,-1 -3,5 4,4 4,-3 v 5 l 6,-2 3,2 v 8 l -7,4 1,7 h 4 l 3,4 h 4 l -1,10 2,2 h 7 l -1,-6 h 6 l 3,-2 8,6 2,-4 4,4 -7,10 4,8 6,1 v 4 h 2 l -1,2 7,4 4,-4 h 8 l 3,-2 7,-1 3,1 7,-7 7,-1 5,-4 6,3 5,-3 h 5 v -3 l 5,-6 v -2 l -3,-3 1,-4 6,-2 v -3 l 5,2 -1,-5 2,1 7,-4 1,2 3,-2 2,-6 -3,-2 h 10 v -3 h 2 l 1,-3 h 2 l 5,-12 h 2 l 1,-6 h 5 l 2,2 9,-1 1,3 5,2 1,5 4,2 h 7 l 9,-3 1,-2 h 3 l 2,6 8,4 4,-4 -1,-2 7,-5 -3,-2 1,-4 2,-1 -2,-2 2,-4 -6,-8 5,-5 2,-5 3,-1 3,2 h 5 l 1,-4 5,3 3,-3 v -5 l -3,-3 1,-2 10,2 6,-6 2,-6 3,-2 2,1 v -6 l -2,-3 -5,-2 v -4 l -2,-2 -6,1 -3,-7 -3,-3 9,-9 8,1 1,-4 4,-5 7,-3 -1,-2 h 2 l 2,-4 -2,-1 v -3 l 2,-1 -2,-2 1,-3 6,-3 2,-3 -4,-5 12,-8 h 7 v -2 l -2,1 v -3 l -6,-2 -2,-9 h -5 v -4 l -2,-1 -2,2 -4,-4 3,-2 -2,-2 v -7 l 2,-4 -3,-5 -6,-2 1,-2 -5,-7 1,-7 -10,-5 -1,-4 -2,-1 h -7 l -1,6 -3,1 -7,-7 v -5 l -15,-11 -4,1 -4,-3 1,-4 h -2 l -3,4 -1,-3 -9,1 -3,8 -3,2 -2,-4 -5,4 -3,-2 -3,5 -7,2 -5,-2 -2,-3 1,-4 h -9 l -2,-2 -6,6 h -5 l -9,4 -6,-3 -6,-12 -1,2 -3,-1 -4,3 -3,6 h -3 l -2,-2 -3,2 -4,-1 -2,3 v -3 l -4,-1 -6,-6 -4,2 -3,7 -6,1 -10,-7 -1,-6 -5,-4 -3,-5 -2,1 -3,-7 -2,-1 1,-4 -4,-3 h -6 l -3,-2 -3,2 -1,-2 -3,2 -1,-6 3,-5 v -5 l 5,-3 -4,-15 8,-1 2,-6 -1,-4 5,-8 -1,-2 2,-3 -2,-5 12,-9 6,-2 -4,-16 z"
     id="清远市" />
  <path
     stroke="#ffff00"
     stroke-opacity="1"
     stroke-width="0.5"
     stroke-linecap="round"
     stroke-linejoin="round"
     stroke-dasharray="none"
     fill="#1e90ff"
     fill-opacity="1"
     fill-rule="evenodd"
     d="m 927,536 2,-7 -1,-12 5,-1 2,-6 -8,-2 -4,-4 v -7 l 3,-3 -1,-5 -2,-2 -3,1 -5,-3 -6,5 -5,-2 -2,-3 -2,1 4,-9 3,2 v -2 l -12,-10 -4,-9 -6,-3 -9,5 -5,1 -5,-3 -1,-3 -4,-3 -9,2 -8,-2 -3,1 -5,-4 -3,3 -4,-1 -1,-2 -1,2 -6,-3 h -16 l -4,-4 -6,1 -14,8 v -2 l -3,-1 -2,2 v 3 h -8 l -6,4 -8,2 -9,12 2,16 12,26 -1,10 3,6 24,29 5,-3 h 7 l 6,3 1,3 3,-6 7,-4 3,-9 3,1 v -3 h 3 l 3,-3 1,-9 3,-1 1,2 4,-2 4,-6 3,1 -1,3 4,4 h 7 l 5,3 v 2 h 4 l 2,2 -1,2 h 4 l 1,8 2,2 4,1 8,-3 v 4 h 4 l 2,4 3,-2 h 4 l 2,7 9,3 2,6 4,3 -1,4 -2,-1 5,4 6,-7 v -8 l 3,-1 v -4 l 2,-2 -4,-8 -5,-1 2,-1 -2,-1 2,-3 5,-1 2,-5 z"
     id="东莞市" />
  <path
     stroke="#ffff00"
     stroke-opacity="1"
     stroke-width="0.5"
     stroke-linecap="round"
     stroke-linejoin="round"
     stroke-dasharray="none"
     fill="#1e90ff"
     fill-opacity="1"
     fill-rule="evenodd"
     d="m 757,648 11,-9 5,-9 10,-1 6,-10 h -10 l -8,-18 -11,-7 -5,-1 -7,-13 2,-3 -20,-15 1,-2 -14,-4 -12,-9 -2,3 -4,1 -4,5 -7,2 -4,-1 -4,3 -7,-5 -5,9 -5,4 v 6 l -3,1 -5,-2 -3,2 3,6 h -2 l -2,11 5,6 3,14 14,18 4,11 1,13 12,12 3,5 v 5 l 8,17 9,6 1,-1 7,8 4,1 14,-8 -2,-3 9,-3 v -3 l -11,-14 9,-4 -3,-4 -2,-14 2,-1 v -4 l 11,-2 z"
     id="中山市" />
  <path
     stroke="#ffff00"
     stroke-opacity="1"
     stroke-width="0.5"
     stroke-linecap="round"
     stroke-linejoin="round"
     stroke-dasharray="none"
     fill="#1e90ff"
     fill-opacity="1"
     fill-rule="evenodd"
     d="m 1619,335 4,1 2,4 18,3 9,-10 h 14 l 24,-7 v -19 l -2,-2 -3,1 -6,-5 h -4 l -2,2 -3,-6 -7,-1 -3,-6 -2,1 -4,-3 -1,-17 -4,-9 -3,-3 -1,-3 2,-2 -3,-10 -6,-2 -2,2 -5,-2 -1,-2 4,-1 1,-3 -1,-3 -4,-2 -1,-5 5,-2 2,-9 -2,-9 2,-2 -3,-3 -3,2 -1,-6 -4,-3 3,-2 v -4 h -4 l -2,-3 v -10 l 2,-8 8,-7 h 2 l 1,-3 3,-1 2,-3 -11,-11 h -3 l -7,-5 -5,4 2,5 -1,2 h -4 l -2,8 -3,1 -2,-4 -3,-1 -3,2 -1,3 -5,-2 -4,4 h -2 l -6,9 v 5 l 2,4 -1,5 -3,-2 -3,6 -3,2 -5,-2 -4,3 3,5 v 4 l -3,4 h -2 l 1,3 -2,3 -1,-2 h -11 l -1,6 h -7 v 2 l 4,3 h -5 v 11 l -4,3 -8,-2 v 3 l -9,4 -2,5 -5,-1 1,3 7,7 -2,3 -3,-1 2,7 -3,2 v 9 l -2,3 -8,-1 -8,-7 -8,3 v 2 l -6,7 -2,-1 -1,2 2,6 2,-1 5,6 7,1 4,6 1,-2 5,2 1,4 h 10 l 4,6 2,8 -2,1 v 3 h 2 l -1,3 3,2 2,-2 4,3 1,6 -4,2 v 2 l -3,2 v 6 l 3,3 1,4 13,5 3,-1 3,5 -1,6 h 10 l 4,-3 1,3 4,-3 v -5 l 3,-1 1,-3 -3,-13 v -7 l 3,-3 v -3 l -4,-3 3,-3 v -4 l 6,-1 5,8 4,-3 3,1 3,-2 v -6 l 2,1 6,-2 1,-3 -2,-1 v -2 l 2,-3 h 2 l 9,8 5,-2 2,1 v 2 l 3,3 -1,6 3,5 z"
     id="潮州市" />
  <path
     stroke="#ffff00"
     stroke-opacity="1"
     stroke-width="0.5"
     stroke-linecap="round"
     stroke-linejoin="round"
     stroke-dasharray="none"
     fill="#1e90ff"
     fill-opacity="1"
     fill-rule="evenodd"
     d="m 1525,454 -8,3 -11,-2 -8,3 v 2 l -5,6 -12,7 -3,-2 2,-1 -2,-2 -6,-1 -1,-7 -7,-5 -3,2 -3,-1 v -3 l -8,-4 -4,-4 3,-4 -1,-6 h 3 l -3,-5 3,-1 1,-3 h -2 v -3 l 2,-3 3,1 4,-4 1,-7 2,-3 -1,-1 3,-2 -1,-3 3,-2 2,1 v -5 l -3,-2 v -2 l 8,-1 1,-3 -2,-17 -3,-5 -3,1 -1,-8 4,2 4,-2 7,-14 h 6 l 2,-4 2,1 v 8 l 3,4 10,-9 h 4 l 3,2 v 4 l -7,10 15,1 8,7 3,10 4,-13 2,-1 v -4 l -3,-2 1,-3 2,-1 v 3 l 10,7 1,-6 -3,-5 -3,1 -13,-5 -1,-4 -3,-3 v -6 l 3,-2 v -2 l 4,-2 -1,-6 -4,-3 -2,2 -3,-2 1,-3 h -2 v -3 l 2,-1 -2,-8 -4,-6 h -10 l -1,-4 -5,-2 -1,2 -4,-6 -7,-1 -5,-6 -2,1 -2,-6 -8,-7 -1,-4 -3,-1 -7,5 h -6 v 4 l -10,7 1,-2 -2,-1 -4,3 v 5 l -4,5 h -4 l -1,8 3,4 -3,1 v 3 l -3,3 -9,-2 -4,1 -3,-2 -1,1 -11,-6 -1,2 -4,-3 -4,1 -3,-3 2,-2 -3,-4 h -6 l -3,4 -4,2 -1,3 -14,7 -9,-7 -1,-4 h -6 l -5,4 -4,8 2,5 h -3 l 4,6 -3,6 2,1 -2,3 -3,1 1,4 -2,2 -3,-2 -10,-1 v 3 l -3,1 -3,-2 -6,-10 -5,2 -3,5 -5,1 1,4 -5,2 v 5 l -4,5 h 2 l 11,14 6,4 -2,3 1,11 4,1 3,-4 19,-5 2,5 9,9 -5,3 -1,11 7,4 2,4 -6,2 -13,1 -2,3 v 3 l 2,2 -2,7 -3,-5 -2,3 1,2 -3,2 10,7 5,1 2,5 3,2 8,2 v 3 l 5,4 3,-5 9,-3 3,1 3,4 v 3 l 5,5 -1,4 h 3 l 5,6 -3,2 -2,4 -3,-2 -4,4 5,3 3,-4 2,1 -4,6 1,2 h -2 l 2,4 -1,5 h 4 l 1,2 2,-6 1,5 -2,3 3,1 1,4 6,-6 3,3 2,-1 7,5 7,1 1,4 6,3 h 4 l 3,-2 2,3 3,1 5,-2 -2,-6 4,-3 4,-2 4,2 3,-1 1,4 5,-2 5,-5 9,-4 h 4 l 4,4 13,5 23,-5 3,2 h 5 l 3,-2 6,-16 3,1 6,-7 -3,-2 v -19 z"
     id="揭阳市" />
  <path
     stroke="#ffff00"
     stroke-opacity="1"
     stroke-width="0.5"
     stroke-linecap="round"
     stroke-linejoin="round"
     stroke-dasharray="none"
     fill="#1e90ff"
     fill-opacity="1"
     fill-rule="evenodd"
     d="m 476,567 -3,-3 -4,1 -3,8 -3,3 h -4 l -2,-6 2,-4 -5,-11 v -7 l -2,-6 -2,-1 -5,2 h -10 l 2,-4 3,-1 -4,-5 h -3 l 1,-7 -4,-4 2,-13 -3,-2 -2,2 h -7 v -12 l 3,3 5,-3 -3,-5 5,-11 -3,-3 v -6 l 4,-10 4,-1 3,-6 -4,-3 v -2 l -7,-2 -13,4 -11,11 h -7 l -8,-3 -4,1 -5,-2 -4,3 -12,2 -3,-3 -9,-1 -2,-3 -1,-7 -5,-3 -16,2 -5,-4 -5,-1 -6,3 h -17 l -11,-5 -18,-2 -5,-8 -16,-2 -11,-8 3,-4 6,-2 2,-3 v -5 l -11,-15 -2,1 1,3 -2,1 -1,5 -3,2 -3,-1 -5,3 -9,-6 1,-2 -6,-4 -7,-2 -4,1 v 5 l -6,4 1,2 -2,4 3,-1 3,2 -2,8 6,7 -1,12 2,-1 2,3 -9,4 3,1 1,5 -2,4 v 5 l 5,7 11,-1 -2,3 2,7 -12,8 4,4 -2,3 -5,2 v 2 h -4 l 2,5 -1,1 3,5 -4,5 -1,6 -4,5 -10,7 1,2 -5,6 1,3 -5,2 v 2 l -4,-1 v 2 l -4,2 -2,6 -4,3 h -3 l -1,2 -7,2 v -2 h -20 l -3,3 h -7 l 1,3 5,3 2,4 h 4 l 1,-3 4,1 v 2 l 3,3 v 3 l -2,2 4,8 v 3 l 5,2 3,4 6,-1 5,7 16,-2 6,3 v 3 l 6,3 -1,3 h -7 l -3,7 -2,1 v 8 l 4,-4 10,-3 2,-2 3,4 6,-2 3,2 5,-2 2,1 v 6 l -2,3 1,6 3,3 v 6 h 5 l 2,-4 h 6 l 3,-5 -3,-9 4,-4 10,7 5,-5 v -5 l 4,-2 2,-5 7,-3 3,1 1,4 h 2 v 10 l 2,-4 2,3 h 10 l 2,1 v 4 h 3 l 6,-6 2,-6 -1,-4 5,-8 11,-7 1,-4 4,-5 4,-2 -2,-6 3,-3 v -3 l 6,-3 -1,3 h 3 l 3,5 h 2 v 7 h -3 v 8 l -3,-2 -2,2 -2,-1 -3,3 4,1 v 2 l 9,4 1,-2 7,3 v -3 l 3,-4 1,1 10,-12 3,2 5,9 3,2 -2,6 -4,1 -2,4 4,12 3,4 h 4 l 1,5 5,2 3,4 h 3 l 5,8 3,2 12,3 2,-3 5,4 1,4 2,1 v 4 l 4,1 v -9 l 2,-2 4,2 4,-3 h 4 l -2,-5 7,-15 -1,-6 4,-3 7,-1 v -8 l 2,-3 -2,-1 2,-4 5,1 1,2 -2,2 3,3 2,-2 4,2 -4,-4 h 5 l 1,2 h 2 l -1,-2 2,-10 h 3 l 2,-7 h 2 l -2,-4 4,-4 1,-4 h 4 l -1,2 3,4 v 4 l -2,2 2,4 4,1 2,5 h 3 l 12,-6 -2,-6 -3,-3 1,-6 -5,-5 1,-3 z"
     id="云浮市" />
</svg>