<?xml version="1.0" encoding="UTF-8" standalone="no"?>
<svg
   width="1961"
   height="1544.9999"
   viewBox="-251 -228 1961 1544.9999"
   version="1.1"
   id="svg1"
   xmlns="http://www.w3.org/2000/svg"
   xmlns:svg="http://www.w3.org/2000/svg">
  <defs
     id="defs1" />
  <path
     stroke="#ffff00"
     stroke-opacity="1"
     stroke-width="0.5"
     stroke-linecap="round"
     stroke-linejoin="round"
     stroke-dasharray="none"
     fill="#1e90ff"
     fill-opacity="1"
     fill-rule="evenodd"
     d="m 977,649.99999 -3,-1 -3,5 3,2 -2,2 -7,-3 -1,-3 h -5 l -2,-3 -2,1 v 3 l -2,-2 h -4 l -6,-6 v -4 l 4,-4 -5,-1 1,3 -6,4 -3,-5 v -5 l -4,1 -4,-2 -2,3 h -6 l -2,-5 -3,-1 -1,5 -2,-3 -1,2 -6,-3 -2,-6 -3,-2 2,-2 v -4 l -3,-4 -4,-1 v -2 h -6 l -1,-8 -2,1 -6,-3 1,-2 -4,-3 1,-7 -3,-6 -1,-8 -7,-13 4,-5 -5,-3 v -13 h 3 l 4,-7 -4,-3 h -3 l 2,-4 -1,-8 -2,-2 -7,-1 -1,-4 -4,-1 -4,4 h -10 l -1,3 -4,2 h -7 v 3 l -4,1 -1,2 h -4 l 1,2 -8,4 v 4 l -3,1 -6,7 v 2 l -7,3 v -3 l -2,-1 2,-8 -1,-2 h -3 l -1,-4 -2,1 v -5 h 3 v -6 l -5,-2 2,-2 -4,-3 -1,2 -5,-2 2,-4 -3,-2 v 3 l -4,-1 2,-2 -2,-4 3,-3 6,-1 1,-2 -3,-3 5,-5 -1,-4 4,-2 -8,-1 3,-4 -3,-2 -5,1 -1,-3 4,-4 1,-4 -2,-2 7,-7 4,2 3,-3 h 3 l -5,-8 -5,2 -2,-4 -5,-2 h -6 l -12,8 2,1 -4,10 2,-1 1,4 v 11 l -10,1 1,2 h -3 l -2,3 1,3 -7,10 5,2 -1,3 -6,4 -1,5 -4,-6 -3,4 v -3 l -2,3 h -3 v -5 l -2,-1 -1,-8 h -3 l -1,-5 -4,3 -3,5 2,4 -1,2 -5,-1 -2,-4 -6,-3 -9,15 -7,1 -2,-2 -10,7 -1,5 2,7 5,4 -6,8 v 4 l -5,1 -2,7 1,3 -4,3 h -4 l -2,-5 -4,-3 -5,5 h -5 l 1,3 -9,7 -7,1 v -2 l -2,-1 -4,3 -1,-2 -7,7 v 4 l -6,-2 -7,3 -1,-1 -4,4 h -2 l 5,5 1,4 -2,7 2,1 v 12 l 3,2 5,-2 2,3 5,2 8,-1 2,2 2,-2 3,1 4,-4 4,2 -10,17 -4,1 -1,2 1,4 -2,3 h 4 l -2,2 h -3 v -2 l -10,-2 -4,1 -4,3 -1,8 -8,2 -3,5 h -8 l -4,2 -11,-5 h -7 l -2,4 1,4 -2,1 3,4 v 4 l -4,3 -2,5 h -8 l -3,-5 -5,-1 -1,-2 -2,2 -1,-2 -4,2 -2,-1 4,-4 -2,-2 h -8 l -2,-3 -8,6 -4,-2 -3,9 -2,1 1,3 h -4 l -2,3 2,7 -2,2 h 3 v 2 h -5 l -2,3 1,3 4,2 4,5 6,1 v 2 l -9,3 v 4 l -4,2 v 4 l 8,4 3,-4 3,-1 1,2 4,-2 5,2 4,-2 4,2 2,3 h 2 v 5 l 2,2 1,6 3,1 -2,9 2,4 -6,3 v 2 l 3,6 v 7 l 4,7 h 3 l 7,-4 h 8 l -1,-8 h 3 l 8,-4 10,1 -1,3 6,9 5,-2 3,-3 -9,-12 -8,-5 v -4 l 10,2 1,-1 5,2 3,-3 5,3 4,-1 2,6 3,1 7,10 17,2 6,7 19,1 4,3 3,5 -2,7 15,4 -2,3 -1,-1 -1,4 3,3 -3,1 -1,6 -4,1 v 6 l 2,4 4,1 1,3 6,3 3,-3 h 2 l 2,-3 v -5 l 3,-2 2,6 -1,3 3,5 v 3 l -4,6 -4,-2 -11,5 h -6 l -3,8 6,9 -1,4 -7,8 3,4 3,-2 1,5 12,3 v 2 l 2,1 h 5 l -1,13 1,2 3,-1 4,3 v 2 l -5,5 3,5 2,-1 5,5 1,10 h 2 l 1,4 h 4 l 6,4 5,-5 1,2 2,-2 4,3 v 5 l 2,2 1,5 4,3 1,-1 4,2 v 5 l 4,-1 1,-4 9,-5 h 9 l 3,-3 4,-2 2,1 4,-3 4,5 8,3 h 7 l 2,-3 -1,-3 2,-1 v -3 h 5 l 7,-14 -3,-1 v -5 l 7,-7 -1,-4 -5,-3 3,-3 v -3 l 7,-3 3,4 h 2 l 4,-6 4,-2 -2,-2 2,-2 5,3 2,5 h 3 l 4,-9 h 2 l 1,3 h 5 l -3,-9 6,-1 4,-5 5,-1 4,-3 v -2 l 7,1 8,-5 4,5 4,1 v 2 h 12 l 3,-3 4,-1 4,2 4,-6 5,1 5,8 h 7 l 1,-3 8,-1 5,3 h 12 l 8,-2 -6,-7 3,-2 1,2 h 5 l 3,2 v 2 l -4,4 9,-1 1,2 2,-2 v 4 l 5,-1 4,4 v 3 l 9,-7 5,-1 1,-3 -8,-6 1,-7 8,-11 7,-5 h 3 l 2,-3 h 4 l 3,3 2,-2 8,1 v 5 l 2,-1 1,-4 6,-1 1,-3 4,-2 6,5 5,-4 5,-1 v -2 l 2,1 5,-7 7,2 3,-1 -4,-7 -3,-3 -2,1 v -4 l -2,-3 1,-4 -2,-3 -4,-2 v -2 l -14,1 2,-3 -1,-2 2,-7 h 5 l -4,-4 -10,1 -3,-6 -4,-1 v -5 l 8,-3 -1,-4 -13,-6 h -6 v -4 h -6 l -2,-6 -4,-3 -1,-5 -7,-7 -4,-1 -1,-3 6,-5 -1,-1 4,-1 -2,-2 3,-4 -6,-9 -4,1 -6,-3 -2,2 h -7 l -1,-2 2,-2 -2,-2 1,-2 -2,-12 4,-12 -2,-1 v -4 l -5,-2 2,-4 -2,-1 v -3 l -5,-2 h 3 l 4,-4 -5,-1 z"
     id="南宁市" />
  <path
     stroke="#ffff00"
     stroke-opacity="1"
     stroke-width="0.5"
     stroke-linecap="round"
     stroke-linejoin="round"
     stroke-dasharray="none"
     fill="#1e90ff"
     fill-opacity="1"
     fill-rule="evenodd"
     d="m 1208,321.99999 4,-3 1,-3 v -12 l 5,-1 5,-6 -3,-5 1,-7 -3,-7 1,-3 3,1 2,-2 -2,-5 -7,1 -2,-2 -6,-1 -4,2 -8,-10 -2,3 -8,4 -1,-3 -3,-2 h -5 l -2,-10 -3,4 -3,-1 -2,-5 h -4 l 3,-9 -2,-8 -3,2 v 2 h -4 l -2,2 -4,-3 v -12 l -3,-2 -1,2 -5,1 -5,-7 -2,2 h -4 l -1,3 -4,-2 -13,-1 -17,-7 h -3 l -4,3 h -8 l 3,-7 -1,-3 2,-2 -2,-2 1,-8 -2,-1 -1,-5 h 4 l -3,-3 -1,-4 1,-5 4,-3 3,2 -1,-10 3,-7 -1,-6 3,-4 -1,-5 -6,-7 4,-13 7,-3 8,-10 4,-10 v -6 l 6,-9 -1,-19 1,-4 2,1 1,-2 -2,-2 3,-8 -3,-2 3,-1 1,-3 -2,-2 5,-16 -3,-9 -5,-4 v -3 l -3,-4 7,-11 4,-1 2,-2 1,-5 6,-4 v -2 l -4,-4 h -3 l -1,-3 5,-15 -6,-2 -4,-11 -10,-4 -2,-3 3,-13 9,-7 1,-4 -13,2 -2,-1 -2,2 h -5 l 1,-2 -2,-2 1,-2 2,1 v -3 l -3,-4 3,-4 v -6 l 5,1 5,-11 -2,-3 -4,-3 -2,4 h -3 l 1,-2 -11,-3 -1,-7 -3,-2 -7,6 -16,4 -1,4 -3,1 -4,-1 -4,-7 -4,-2 -2,7 -17,11 v 2 l 5,2 2,6 -2,5 -8,4 -2,9 -5,8 -8,3 v 12 l -2,2 1,3 -2,3 4,4 v 5 l -7,-1 v 3 l -5,3 h -5 l -11,-7 -7,-1 v -13 l -3,-4 -5,-1 -2,2 4,2 -1,2 3,2 -2,4 -6,1 -2,5 -2,-1 -3,-5 3,-4 v -5 l -2,-3 -5,-1 -6,2 1,2 -2,-1 -3,6 -7,-4 -5,-1 -4,1 -1,3 -4,-1 -2,1 3,5 h -3 l -2,5 h -4 v 3 l -3,1 -3,-3 -8,5 v 2 l -4,1 1,9 4,1 4,-2 5,2 2,-4 4,-2 3,-6 4,-1 1,-4 7,4 3,-4 h 3 v 2 l 6,3 -2,3 1,5 -8,10 v 5 l -3,3 4,3 -1,3 2,12 10,5 -3,4 -3,-1 -3,4 -3,-1 -5,4 -9,-6 -4,1 v -3 l -5,-4 h -6 l -8,4 -3,-1 1,-3 -4,1 -2,-2 -4,1 1,2 h -8 l -3,6 -6,-8 h -2 l 1,-5 3,-1 -1,-5 -4,-2 1,-8 -5,-2 h -10 l -3,4 h -6 l -2,5 h 2 l -1,5 -3,-1 -3,2 -1,3 2,3 -2,3 7,5 1,4 -6,-3 -9,3 v 3 l -3,5 h -3 l 3,2 v 3 l 2,-1 2,4 -4,-1 -2,-3 -3,7 v 6 l -3,3 2,4 h 5 l 2,5 v 4 l -2,3 4,9 -2,3 v 5 h 2 l 4,4 v 12 l 2,4 v 6 l 16,11 -1,6 -1,-2 h -4 l -2,10 h -2 l -1,3 1,3 3,-2 3,3 h 6 l 2,2 4,-5 v -3 l 2,-1 2,2 9,-2 1,4 h 5 v -4 l 4,-3 2,-5 5,4 h 4 l 5,-3 2,2 -1,4 h 7 l 5,3 7,-5 2,-9 h 7 l 10,-9 3,1 2,5 h 2 l 4,6 3,16 -2,9 -8,17 -19,15 -2,5 2,6 10,2 12,-1 6,-3 v -5 l 4,-1 11,11 -2,4 -4,2 1,6 2,1 -3,8 h 4 l 2,3 -2,5 -5,4 -4,-3 -5,-1 -1,-5 -4,-2 -13,5 -3,5 v 3 l -5,2 -1,5 -3,3 -5,1 -1,2 2,2 -8,1 -1,4 5,5 1,4 4,5 -5,7 -6,1 -7,7 1,3 3,2 -10,7 h -6 l -2,2 v 4 l -2,3 7,7 v -2 l 5,-2 2,8 h 5 l 7,7 h 6 l 6,-3 h 12 l 4,7 -1,7 -9,2 -2,2 v 13 l -6,-4 -2,3 -4,-1 -5,2 -3,4 2,6 -4,20 1,4 6,3 1,5 -4,3 2,5 -1,4 6,6 5,11 7,-2 8,3 7,6 h 4 l 7,4 -4,6 7,2 2,-2 3,2 2,3 1,7 6,-2 3,3 h 7 l 3,-4 -1,-5 4,-2 12,3 3,2 1,3 -1,6 4,4 5,2 1,7 5,2 -1,5 h 2 l 1,4 2,1 -2,2 5,1 2,-2 11,2 4,-3 2,-6 5,-3 v -5 l 4,2 2,-3 2,-5 -4,-6 4,-10 2,-2 h 5 l 5,-3 9,-2 4,-4 4,-16 8,-2 6,1 4,-3 6,1 1,-7 9,-10 6,-1 6,-5 4,-7 3,2 3,-2 h 5 v -4 h 9 v -4 l 4,-4 7,2 1,6 h -7 l 1,8 6,3 11,-8 6,2 9,-5 -1,-2 2,-3 -2,-8 -3,-5 4,-2 4,-6 -1,-7 7,-14 -1,-5 3,-3 3,3 1,-1 z"
     id="柳州市" />
  <path
     stroke="#ffff00"
     stroke-opacity="1"
     stroke-width="0.5"
     stroke-linecap="round"
     stroke-linejoin="round"
     stroke-dasharray="none"
     fill="#1e90ff"
     fill-opacity="1"
     fill-rule="evenodd"
     d="m 1461,185.99999 -12,4 h -14 l -4,3 4,-4 -2,-3 1,-5 -6,-5 2,-3 -4,-4 -3,-12 4,-9 -1,-1 6,-7 -2,-2 1,-5 6,-11 13,-6 h 3 l 3,-4 9,-5 1,-6 -4,-13 10,-5 11,-18 7,1 7,-4 1,-3 4,-2 2,-9 4,1 5,-7 v -7 l 5,-7 2,-7 -1,-8 5,-15 -8,-13 1,-10 -2,-3 v -7 l 5,-5 5,1 14,-4 4,-7 h 6 l 1,-3 -2,-10 -3,-3 2,-6 6,-1 10,-5 -6,-2 -4,1 v -5 h -6 l -4,3 -2,-2 -7,1 -1,-7 -3,1 -1,3 h -2 l -2,-4 -11,6 -3,9 -3,-2 h -5 l -2,-1 -3,-7 -5,-6 3,-1 -4,-7 -3,-1 v -4 h -4 l 3,-6 3,-13 6,-8 7,-2 -5,-6 6,-9 v -6 l -3,-6 5,-10 -3,-2 2,-3 v -4 l 5,-1 1,-5 -4,-10 -8,2 -2,-1 -2,2 -2,-2 h -3 l -3,-4 2,-2 -1,-5 -25,-1 -1,2 -11,-6 h -6 l 1,-2 -10,-3 1,-5 -4,-1 -2,-5 -3,-2 -4,1 -3,3 1,5 -2,8 -4,3 3,9 -2,9 h -2 l -2,-6 h -4 l -11,2 -6,4 -13,-1 -6,3 v -2 l -6,-5 4,-5 -3,-7 -5,6 h -3 l -3,-5 -8,-2 -6,2 -4,-2 -1,-4 -3,-1 -7,11 -8,3 -3,19 -6,9 -7,6 -5,-4 -24,25 -7,11 2,3 -9,20 -16,4 -4,-2 v -15 l -9,-6 -3,-7 -5,2 -6,12 -12,-5 -3,4 -4,-5 -5,-3 9,-24 v -11 h -12 l -3,2 -3,-1 -3,-5 -9,1 -4,-4 -9,10 -5,2 -4,17 -4,5 v 6 l -3,6 -8,2 -6,-4 -4,2 -5,11 1,3 6,3 1,9 4,9 -4,9 -3,3 -5,1 -4,-3 -9,7 -3,13 2,3 10,4 4,11 6,2 -5,15 1,3 h 3 l 4,4 v 2 l -6,4 -1,5 -2,2 -4,1 -7,11 3,4 v 3 l 5,4 3,9 -5,16 2,2 -1,3 -3,1 3,2 -3,8 2,2 -1,2 -2,-1 -1,4 1,19 -6,9 v 6 l -4,10 -8,10 -7,3 -4,13 6,7 1,5 -3,4 1,6 -3,7 1,10 -3,-2 -4,3 -1,5 1,4 3,3 h -4 l 1,5 2,1 1,10 -2,2 1,3 -3,7 3,1 12,-4 17,7 13,1 4,2 1,-3 h 4 l 2,-2 5,7 5,-1 1,-2 3,2 v 12 l 4,3 2,-2 h 4 v -2 l 3,-2 2,8 -3,9 h 4 l 2,5 3,1 3,-4 2,10 h 5 l 3,2 1,3 8,-4 2,-3 8,10 4,-2 6,1 2,2 7,-1 2,5 -2,2 -3,-1 -1,3 3,7 -1,7 3,5 -5,6 -5,1 v 12 l -1,3 -4,3 1,3 4,1 3,3 3,-2 2,2 10,-4 -2,6 2,4 -4,3 6,1 -6,5 1,3 h 2 v 7 h 5 l 2,-4 1,3 7,-3 2,1 -2,10 3,1 v 4 l 2,-1 3,2 7,1 6,-1 3,-4 15,-3 4,-4 1,3 h 4 v 3 l 3,2 h 7 l -4,-13 4,3 6,1 v -5 l 2,-1 v -3 l 6,-7 4,-1 v 11 l 4,1 7,-10 6,1 5,3 4,6 7,4 12,6 7,-1 4,3 5,1 2,-5 -2,-4 5,-10 9,-1 3,7 v 9 l 5,5 2,15 7,-8 v -3 h 3 l -1,-3 h 3 l 3,-8 4,5 1,6 4,1 4,-4 h 3 l 3,-7 h 3 l -3,-6 h -6 l -8,-4 2,-2 h 6 l 1,-5 6,-7 2,-8 3,-5 -3,-5 4,-2 v -3 l -6,-6 -2,-6 -8,-8 1,-4 5,-6 -4,-4 2,-3 3,-1 3,-10 3,-2 7,1 3,-3 2,-6 3,1 4,-2 -1,-3 2,-4 2,1 4,-2 4,-9 6,-2 -3,-18 2,-7 -1,-10 -3,-1 -4,3 -5,-1 -5,-10 z"
     id="桂林市" />
  <path
     stroke="#ffff00"
     stroke-opacity="1"
     stroke-width="0.5"
     stroke-linecap="round"
     stroke-linejoin="round"
     stroke-dasharray="none"
     fill="#1e90ff"
     fill-opacity="1"
     fill-rule="evenodd"
     d="m 1279,439.99999 2,3 -2,10 2,9 -5,7 -5,2 -2,6 1,6 5,2 v 2 l 6,-1 3,5 9,-1 4,5 4,-2 4,4 -2,3 4,7 9,1 4,-7 h 2 l 6,12 -3,7 -4,3 -1,9 1,4 5,-1 -2,7 1,1 -3,3 h -3 l -1,3 2,3 7,3 v 2 l 3,2 -2,9 h 4 l 2,3 -1,5 h 3 l 1,2 1,15 3,4 v 4 l -2,3 -8,2 -2,4 1,3 -4,10 2,5 -4,2 1,2 3,-1 2,3 -2,2 3,3 -1,3 7,-1 9,4 2,6 -2,10 -5,4 -2,5 -5,3 -8,-3 -6,5 -2,4 3,8 -2,11 3,4 h 5 l 4,3 3,-1 2,-5 12,1 2,2 v 6 h 4 l -1,4 2,3 6,1 1,5 h 3 l 4,-4 3,3 -2,2 4,5 -3,9 2,5 3,2 -1,3 h -5 l -5,8 2,4 -2,1 1,5 6,10 4,2 5,-4 3,1 1,3 -8,22 5,7 v 6 l 10,4 4,-1 2,2 9,17 -1,5 3,3 12,1 4,-2 v -6 l 8,-1 2,3 7,-6 3,2 5,-1 2,-5 h 3 l 4,-6 -2,-6 -5,-3 -1,-3 h 7 l 3,-3 5,-1 3,2 12,-1 v 2 l 7,-2 1,-2 h 3 l 4,-3 2,-6 4,-2 v -2 l 4,1 v -2 l 5,-2 -1,-3 5,-6 -1,-2 4,-2 2,-4 h 3 l 1,-3 4,-3 1,-6 4,-5 -3,-5 v -6 h 3 v -2 l 5,-2 2,-3 -4,-4 12,-8 -2,-7 2,-3 -11,1 -5,-7 2,-9 -1,-5 -3,-1 9,-4 -2,-3 -2,1 1,-12 -6,-7 2,-8 -3,-2 -3,1 2,-4 -1,-2 6,-4 v -3 l -3,-2 -1,-3 4,-11 3,-1 1,-5 -2,-2 4,-20 7,1 5,-6 1,-4 2,1 6,-9 -1,-4 1,-4 h 2 v -9 l -2,-4 1,-6 13,-1 4,-3 3,2 5,-3 1,2 2,-2 5,2 v -6 l 3,-5 h 3 l 1,-5 6,-1 -1,-2 2,-4 -12,-2 -1,-2 3,-1 v -14 h 2 l 3,-7 -1,-1 2,-2 v -11 l 2,-3 -3,-9 v -11 l -3,-5 -4,-3 h -4 l -4,-6 -4,-2 h -3 l -1,2 -4,-2 1,-2 -3,-5 1,-9 11,-9 -3,-5 2,-3 -2,-2 1,-5 -6,1 -3,-3 h -3 l -1,-3 -3,-2 -3,1 -3,7 h 3 v 2 h -4 l -2,5 2,5 -5,3 -5,-1 -6,4 -5,-2 -2,2 2,9 -4,7 5,6 1,13 -2,8 -10,11 v 5 l -4,-2 -7,2 -5,-1 -4,-4 -14,-1 -2,-9 -5,-6 -12,-1 -2,2 -5,14 -7,2 -3,12 -3,2 h -6 l -2,5 -4,2 -5,-3 -1,1 3,10 -2,5 h -3 l -4,-3 -2,2 v 11 l -4,-1 -3,5 2,3 -1,3 3,5 v 2 l -4,3 v -4 l -3,-1 -3,3 -2,-1 v -3 l -2,-3 -4,-1 -2,-5 1,-13 -3,-3 3,-7 -2,-4 1,-4 -3,-1 -6,3 -4,-8 7,-5 1,-5 -4,-6 -10,-4 -6,-9 -4,-2 -11,-1 -3,2 -2,-3 3,-5 1,-8 2,-3 h 2 l -1,-3 -14,-5 -3,-6 3,-11 -1,-6 4,-8 5,-5 -2,-4 -6,-2 -4,-7 -6,-1 -6,-4 -3,-7 -3,-2 2,-10 -1,-2 3,-4 h -9 l -3,-2 -1,-2 2,-5 -2,-3 -4,-1 v -11 l -4,1 -6,7 v 3 l -2,1 v 5 l -6,-1 -4,-3 4,13 h -7 l -3,-2 v -3 h -4 l -1,-3 -4,4 -9,1 -6,2 -3,4 -6,1 3,9 2,-3 9,1 1,3 h -2 l -2,12 2,-2 4,4 6,-2 3,5 10,5 -3,6 -3,-1 -1,3 h -2 l -4,4 h 11 l 2,5 -2,2 h -10 l 1,3 -2,2 -5,-7 -6,6 v 2 l 3,3 -5,2 -3,5 h 5 l -1,2 4,3 2,-3 4,-1 v 3 z"
     id="梧州市" />
  <path
     stroke="#ffff00"
     stroke-opacity="1"
     stroke-width="0.5"
     stroke-linecap="round"
     stroke-linejoin="round"
     stroke-dasharray="none"
     fill="#1e90ff"
     fill-opacity="1"
     fill-rule="evenodd"
     d="m 1077,1037 -5,-1 -3,4 -4,1 -5,-2 -4,8 -8,-2 -3,-6 h -2 l -1,4 h -2 l -5,-3 v -5 l -4,-1 -2,4 -6,-2 -2,6 -4,-2 -3,1 -6,-4 -7,7 v -5 l -2,-1 -1,2 -2,-5 -3,2 -3,-1 3,6 h -5 l -1,7 -6,4 h -20 l -4,2 -9,-9 -3,1 -2,6 -6,4 -7,-2 -3,2 -6,-1 -5,2 -2,5 -1,-2 2,-3 -5,2 v 4 l 2,-1 1,2 -4,6 -2,7 -2,-1 -13,7 -2,-2 -5,2 -3,14 8,17 9,8 13,3 33,2 3,4 5,-2 5,2 2,7 v 5 l -2,3 -5,3 -17,5 -5,8 v 6 l 2,2 5,-1 7,2 12,9 6,1 17,-7 4,-4 19,-3 25,-1 18,-4 11,5 4,-2 -1,-7 7,-3 2,-4 8,-8 v -6 l 2,-4 5,5 8,16 10,5 15,3 6,-1 1,-9 -4,-5 v -7 l -5,-6 v -8 l -3,-5 6,-18 h -2 l -2,4 -1,-2 h -3 l -5,-3 -2,3 -3,-2 -2,-5 2,-5 v -17 l 3,-10 -4,-6 4,-4 v -3 l -3,-4 3,-3 -1,-5 -2,-3 -8,2 -6,-4 -5,3 z m -133,247 4,3 -1,-4 2,-2 1,2 4,1 4,-7 v -5 l -4,-4 -9,4 -2,4 z m 30,30 3,2 1,-3 -4,-2 z"
     id="北海市" />
  <path
     stroke="#ffff00"
     stroke-opacity="1"
     stroke-width="0.5"
     stroke-linecap="round"
     stroke-linejoin="round"
     stroke-dasharray="none"
     fill="#1e90ff"
     fill-opacity="1"
     fill-rule="evenodd"
     d="m 688,907.99999 -3,1 -4,5 -5,-1 -7,7 -4,-2 -3,2 -4,5 2,4 -7,3 v 2 l -3,2 1,6 h -8 l -2,11 -4,2 v -3 l -4,-1 -2,2 h -9 l -5,-2 -21,5 -3,4 -5,-2 -12,4 -7,-3 -1,2 5,14 3,2 -1,7 2,1 v 2 l 4,2 -3,4 -3,1 -1,3 h -2 l 2,3 -5,1.00001 1,3 h -3 l -2,6 -10,8 2,2 -3,1 1,2 -2,2 3,4 -4,2 -2,-1 v 6 l -4,7 3,2 4,9 -3,9 2,8 -4,7 2,10 -4,1 -7,10 -5,3 2,3 -6,2 2,8 3,4 -1,3 -3,2 16,2 4,-6 6,-2 4,5 14,-2 2,-2 7,1 14,-8 8,-1 3,-3 h 11 l 2,3 3,1 v -2 l 3,-2 5,4 v 3 l 3,1 v 3 l -2,1 3,2 -1,1 7,4 2,-1 5,7 2,7 4,1 3,-3 12,-1 5,2 3,4 12,5 7,1 7,-1 9,-4 v -3 l -12,-7 10,-5 4,-6 5,-2 6,3 1,5 v 4 l -11,18 2,2 h 4 l 13,-9 10,-4 5,-1 15,2 21,-4 3,-2 2,-5 5,-3 4,-5 1,-4 14,-17 1,-4 -3,-4 -10,-6 -5,3 -5,-2 v -10 l 5,-3 -2,-2 -1,-8 -12,-12 v -10 l -3,-6 -13,-2 -4,-4 -8,3 -6,-1 -12,3 -7,-3 v -5 l -5,-2 v -4 l -2,-2 -8,-3 -2,-4 2,-6 -1,-3 5,-7.00001 -4,-2 -2,-3 2,-3 -1,-4 h 2 l 2,-4 -5,-2 v -4 l -3,-3 2,-6 5,-2 v -2 l 4,-1 3,-4 h 4 l 6,-4 1,1 v -5 l -4,-2 -1,1 -4,-3 -1,-5 -2,-2 v -5 l -4,-3 -2,2 -1,-2 -5,5 -6,-4 h -4 l -1,-4 h -2 l -1,-10 -5,-5 -2,1 z"
     id="防城港市" />
  <path
     stroke="#ffff00"
     stroke-opacity="1"
     stroke-width="0.5"
     stroke-linecap="round"
     stroke-linejoin="round"
     stroke-dasharray="none"
     fill="#1e90ff"
     fill-opacity="1"
     fill-rule="evenodd"
     d="m 1077,1037 v -6 l -3,3 v -4 l 2,-2 -1,-2 -6,-3 v -3 l 5,2 2,-2 -2,-12 -5,-10.00001 1,-3 -6,-6 -1,-5 2,-18 3,-6 5,-5 -3,-8 v -5 l 4,-11 4,-4 8,-4 h 2 l 7,6 1,-1 -5,-5 4,-6 2,2 1,-4 2,1 4,-4 h 4 v -5 l 2,-1 1,3 3,1 -2,2 1,2 3,1 2,3 6,2 7,5 6,-2 2,-2 -1,-6 4,-7 v -4 l -3,-3 -1,-4 -8,-6 v -2 l 12,-16 v -2 l 3,-1 v -2 h -2 v -4 l -2,-3 1,-4 -4,-2 -1,-3 -16,-4 -4,1 v 8 l -2,-3 -3,3 -4,-2 -2,1 1,-5 -12,-8 -3,-5 -1,-10 -2,-2 -7,4 -4,-6 -7,-2 -5,7 -2,-1 v 2 l -5,1 -5,4 -6,-5 -4,2 -1,3 -6,1 -1,4 -2,1 v -5 l -3,-1 h -5 l -2,2 -3,-3 h -4 l -2,3 h -3 l -12,11 -4,8 v 4 l 8,6 -1,3 -5,1 -9,7 v -3 l -4,-4 -5,1 v -4 l -2,2 -1,-2 -9,1 4,-4 v -2 l -3,-2 h -5 l -1,-2 -3,2 6,7 -8,2 h -12 l -5,-3 -8,1 -1,3 h -7 l -5,-8 -5,-1 -4,6 -4,-2 -4,1 -3,3 h -12 v -2 l -4,-1 -4,-5 -8,5 -7,-1 v 2 l -4,3 -5,1 -4,5 -6,1 3,9 h -5 l -1,-3 h -2 l -4,9 h -3 l -2,-5 -5,-3 -2,2 2,2 -4,2 -4,6 h -2 l -3,-4 -7,3 v 3 l -3,3 5,3 1,4 -5,4 -1,3 -1,5 3,1 -7,14 h -5 v 3 l -2,1 1,3 -2,3 h -7 l -8,-3 -4,-5 -4,3 -2,-1 -4,2 -3,3 h -9 l -9,5 -1,4 h -5 l -10,4 -3,4 -4,1 v 2 l -5,2 -2,6 3,3 v 4 l 5,2 -2,4 h -2 l 1,4 -2,3 2,3 4,2 -5,7.00001 1,3 -2,6 2,4 8,3 2,2 v 4 l 5,2 v 5 l 7,3 12,-3 6,1 8,-3 4,4 13,2 3,6 v 10 l 12,12 1,8 2,2 -5,3 v 10 l 5,2 5,-3 10,6 3,4 -1,4 9,-1 8,10 4,2 1,-6 h 2 l 5,9 v 3 l -8,5 1,3 7,-4 2,-4 -2,-7 1,-2 7,5 v 4 l 3,4 h 2 v -2 h 5 l 1,-3 4,-2 6,1 4,3 12,-4 -8,-17 3,-14 5,-2 2,2 13,-7 2,1 2,-7 4,-6 -1,-2 -2,1 v -4 l 5,-2 -2,3 1,2 2,-5 5,-2 6,1 3,-2 7,2 6,-4 2,-6 3,-1 9,9 4,-2 h 20 l 6,-4 1,-7 h 5 l -3,-6 3,1 3,-2 2,5 1,-2 2,1 v 5 l 7,-7 6,4 3,-1 4,2 2,-6 6,2 2,-4 4,1 v 5 l 5,3 h 2 l 1,-4 h 2 l 3,6 8,2 4,-8 5,2 4,-1 3,-4 h 2 z m -197,83 v 6 h 6 z"
     id="钦州市" />
  <path
     stroke="#ffff00"
     stroke-opacity="1"
     stroke-width="0.5"
     stroke-linecap="round"
     stroke-linejoin="round"
     stroke-dasharray="none"
     fill="#1e90ff"
     fill-opacity="1"
     fill-rule="evenodd"
     d="m 1091,826.99999 3,-4 5,-3 6,-2 1,1 3,-3 -3,-1 3,-7 4,-2 2,3 1,-2 7,-1 2,-5 -8,-6 1,-9 -3,-8 3,-2 v -3 h 5 l 4,3 2,-1 v -2 l 2,-1 1,-7 h 6 l 1,2 5,2 -4,-5 v 3 l -1,-3 -4,-3 3,-2 3,2 2,-1 -5,-4 v -4 l -1,1 -5,-9 h -3 l -1,-5 4,2 4,-2 4,-5 9,-5 v -3 l 17,1 15,10 -1,2 3,1 -1,3 3,2 h 4 l 4,4 4,-5 h 3 l 4,10 3,3 2,7 12,-5 h 12 l 5,5 v 6 h 8 l 2,-1 -3,-19 11,-11 v -5 l -3,-1 1,-4 3,-3 1,4 4,-2 -2,-2 3,-7 h 2 l 1,2 2,-2 4,2 5,-1 7,-5 3,4 12,-6 h 8 l 1,-6 11,-9 2,-11 -3,-8 2,-4 6,-5 8,3 5,-3 2,-5 5,-4 2,-10 -2,-6 -9,-4 -7,1 1,-3 -3,-3 2,-2 -2,-3 -3,1 -1,-2 4,-2 -2,-5 4,-10 -1,-3 2,-4 h 4 l 4,-2 2,-3 v -4 l -3,-4 -1,-15 -1,-2 h -3 l 1,-5 -2,-3 h -4 l 2,-9 -3,-2 v -2 l -7,-3 -2,-3 1,-3 h 3 l 3,-3 -1,-1 2,-7 -5,1 -1,-4 1,-9 4,-3 3,-7 -6,-12 h -2 l -4,7 -9,-1 -4,-7 2,-3 -4,-4 -4,2 -4,-5 -9,1 -3,-5 -6,1 v -2 l -5,-2 -1,-6 2,-6 5,-2 5,-7 -2,-9 2,-10 -2,-3 -6,3 -6,-1 -7,3 -2,3 -1,11 -4,5 2,1 v 10 h 3 l 2,3 -2,4 -4,3 2,5 -4,4 -6,-12 -5,1 -8,-6 -3,12 -5,2 -6,-5 h -2 l -5,3 -11,11 -5,8 -10,6 -8,1 -3,2 -2,6 -6,6 -2,11 -5,1 v 14 l -3,11 -4,5 -2,7 v 22 l -7,5 -1,5 -3,-3 v -5 l -3,-3 -11,-2 -3,1 -1,4 -3,3 h -4 l -3,-3 -7,16 h -4 l 1,2 h -4 l -3,-5 -4,-2 -4,2 -4,8 -5,4 v 3 l -4,3 -1,-2 -4,2 1,2 -3,9 -7,5 v -2 l -10,-8 1,-3 -6,-6 v -5 l -9,1 -5,6 -7,-6 h -7 v -5 l -5,-5 -2,2 -6,-2 -3,6 h -2 l -2,4 h -3 l -2,2 1,4 h -2 l -2,4 -4,-2 -10,6 3,3 -4,3 4,3 v 3 l 5,1 -4,4 h -3 l 5,2 v 3 l 2,1 -2,4 5,2 v 4 l 2,1 -1,5 -2,1 -2,12 3,6 -1,2 2,2 -2,2 1,2 h 7 l 2,-2 6,3 4,-1 6,9 -3,4 2,2 -4,1 1,1 -6,5 1,3 4,1 7,7 1,5 4,3 2,6 h 6 v 4 h 6 l 13,6 1,4 -8,3 v 5 l 4,1 3,6 10,-1 4,4 h -5 l -2,7 1,2 -2,3 14,-1 v 2 l 4,2 2,3 -1,4 2,3 v 4 l 2,-1 6,7 1,3 -3,1 1,3 3,3 7,-4 z"
     id="贵港市" />
  <path
     stroke="#ffff00"
     stroke-opacity="1"
     stroke-width="0.5"
     stroke-linecap="round"
     stroke-linejoin="round"
     stroke-dasharray="none"
     fill="#1e90ff"
     fill-opacity="1"
     fill-rule="evenodd"
     d="m 1091,826.99999 1,11 3,5 12,8 -1,5 2,-1 4,2 3,-3 2,3 v -8 l 4,-1 16,4 1,3 4,2 -1,4 2,3 v 4 h 2 v 2 l -3,1 v 2 l -12,16 v 2 l 8,6 1,4 3,3 v 4 l -4,7 1,6 -8,4 -3,-1 -4,-4 -6,-2 -2,-3 -3,-1 -1,-2 2,-2 -3,-1 -1,-3 -2,1 v 5 h -4 l -4,4 -2,-1 -1,4 -2,-2 -4,6 5,5 -1,1 -7,-6 -10,4 -4,4 -4,11 v 5 l 3,8 -5,5 -3,6 -2,12 1,11 5,4 v 5 l 5,10.00001 2,12 -2,2 -5,-2 v 3 l 6,3 1,2 -2,2 v 4 l 3,-3 v 6 l 4,3 5,-3 6,4 8,-2 2,3 1,5 -3,3 3,4 v 3 l -4,4 4,6 -3,10 v 17 l -2,5 2,5 3,2 2,-3 5,3 h 3 l 1,2 2,-4 5,-1 2,9 3,2 h 3 v -4 l 3,2 h 6 l 8,-6 2,3 h 4 l 5,-6 -2,-2 1,-2 h -2 v -3 l 3,-3 h 2 v -6 l 4,-3 -2,-3 2,-4 -1,-14 3,-3 -1,-1 2,-4 h -2 l 11,-10 h 5 l 12,6 8,-2 3,-6 2,5 4,-9 h 4 l 1,5 3,-4 3,1 5,-2 1,2 3,-2 4,2 v 2 l 5,2 h 7 l 4,-4 h 2 l 2,-7 6,3 6,6 14,-2 v -3 l 2,-1 -3,-6 -4,-1 5,-5 -4,-5 -6,-2 2,-3 -1,-6 2,1 -4,-7 3,-15.00001 -2,-3 4,-1 -2,-9 h -2 l -7,-6 v -3 l 3,-2 v -3 l 3,-4 3,3 v 2 l 6,4 3,-2 -1,-2 2,-3 h 3 v -4 l 2,-2 9,5 2,4 8,6 -2,2 5,2 5,-2 10,-13 11,4 -2,5 8,4 7,-3 1,-2 2,1 1,-2 h 2 l -3,-9 -4,-1 -1,-4 2,-5 8,-3 2,-2 v -4 l 4,-1 4,-6 4,4 5,2 8,-3 -1,-2 -4,-1 v -3 l -3,-5 -3,-1 1,-4 -3,-5 h -4 l -3,-2 v -7 l -2,-3 2,-3 v -6 l -2,-3 h -3 v -3 l -3,-4 2,-1 4,3 5,1 4,-1 2,-3 -2,-6 3,-5 h 2 l -1,-9 -2,-2 4,-3 -1,-4 5,-1 4,4 1,4 2,-1 v -3 l 2,-2 5,-2 h 14 l 3,-2 -1,-6 -3,-3 1,-5 -9,-17 -2,-2 -4,1 -10,-4 v -6 l -5,-7 8,-22 -1,-3 -3,-1 -5,4 -4,-2 -6,-10 -1,-5 2,-1 -2,-4 5,-8 h 5 l 1,-3 -3,-2 -2,-5 3,-9 -4,-5 2,-2 -3,-3 -4,4 h -3 l -1,-5 -6,-1 -2,-3 1,-4 h -4 v -6 l -2,-2 -9,-1 h -3 l -2,5 -3,1 -4,-3 h -5 l -3,-4 -11,9 -1,6 h -8 l -8,5 -4,1 -3,-4 -7,5 -5,1 -4,-2 -2,2 -1,-2 h -2 l -3,7 2,2 -4,2 -1,-4 -3,3 -1,4 3,1 v 5 l -11,11 3,19 -2,1 h -8 v -6 l -5,-5 h -12 l -12,5 -2,-7 -3,-3 -4,-10 h -3 l -3,5 -5,-4 h -4 l -3,-2 1,-3 -3,-1 1,-2 -15,-10 -17,-1 v 3 l -9,5 -4,5 -4,2 -4,-2 1,5 h 3 l 5,9 1,-1 v 4 l 5,4 -2,1 -3,-2 -3,2 4,3 1,3 v -3 l 4,5 -5,-2 -1,-2 h -6 l -1,7 -2,1 v 2 l -2,1 -4,-3 h -5 v 3 l -3,2 3,8 -1,9 8,6 -2,5 -7,1 -1,2 -2,-3 -4,2 -3,7 3,1 -3,3 -1,-1 -11,5 z"
     id="玉林市" />
  <path
     stroke="#ffff00"
     stroke-opacity="1"
     stroke-width="0.5"
     stroke-linecap="round"
     stroke-linejoin="round"
     stroke-dasharray="none"
     fill="#1e90ff"
     fill-opacity="1"
     fill-rule="evenodd"
     d="m 296,144.99999 -10,3 -5,6 -13,4 -4,2 -1,3 -10,5 h -4 l -9,4 h -6 l -7,5 -7,-2 -9,2 -7,-3 -8,9 -2,-2 -6,-1 -2,2 1,3 4,3 5,9 2,1 1,8 3,5 -2,3 v 7 l -7,16 -2,1 -4,-2 -2,2 -2,8 -3,1 -6,6 h -4 l -9,6 -2,8 -4,6 h -3 l -6,-5 v -2 l -3,-3 -4,-2 -4,-8 -1,-6 -13,1 -3,-2 h -4 l -2,4 -13,4 -11,-5 -1,-5 -6,-2 -8,-7 -21,-3 -3,-2 -1,-5 -5,-1 -4,3 -13,-1 -7,-3 -1,-7 -2,-3 -4,-2 -7,-20 -13,-5 -7,-1 -7,3 -1,2 -6,1 -11,-2 -3,-3 2,-4 -3,-4 -4,1 -1,-4 h -4 l -1,-5 -9,3 -5,8 -3,-2 -4,1 -2,4 -7,5 1,2 -3,2 -3,-1 -2,7 -8,6 1,6 -4,11 2,7 -13,5 -22,5 -6,4 -4,11 -5,7 -20,5 -3,3 -2,7 h -9 l -2,-3 1,-3 -18,-4 -9,-11 -1,-4 -5,-1 -4,-4 -8,-1 -2,2 -8,21 h -3 l -3,3 -4,-1 v 2 l 3,1 h 2 l 1,-3 h 3 l 5,5 -1,10 5,16 h 3 l 4,5 -2,2 4,10 3,1 2,14 h 10 l 4,7 -3,1 -2,5 8,2 14,13 h 3 l 3,-5 -4,-23 3,-6 3,-1 7,3 v -6 l 3,-1 5,5 13,-1 20,6 4,4 4,1 9,-1 6,-6 10,-3 3,1 1,3 h 4 l 9,5 -1,8 3,3 6,-1 13,8 2,3 v 3 l -7,8 2,3 h -3 l -2,2 3,1 3,4 -1,3 h 5 l 5,10 4,-1 v 2 l 3,2 -4,11 -5,3 v -3 h -7 v 10 l 5,7 15,13 6,-1 3,-4 -6,-4 v -2 h 3 l 3,-4 7,-1 6,9 8,2 1,3 4,1 5,7 20,6 4,-2 1,-3 -2,-2 1,-5 3,-4 -1,-6 4,-5 -1,-3 11,-2 4,1 2,-3 9,3 v 7 l 4,11 -1,6 2,3 7,-2 8,-8 9,2 6,-4 7,1 3,4 -4,5 2,4 12,-2 2,-7 11,5 4,-8 -2,-9 2,-4 6,-3 8,4 9,-4 4,7 3,-1 6,4 1,11 6,6 3,-1 2,4 -1,5 -2,2 3,1 6,8 3,1 2,10 4,4 1,4 3,3 6,1 2,2 -2,3 h -5 l 5,7 v 3 l -4,3 -5,1 -5,5 5,24 -5,22 -4,7 1,6 4,4 -5,3 -4,7 -5,3 -6,10 -11,4 -5,7 -4,-2 3,-7 -16,-8 h -3 l -3,3 -3,-2 -2,-5 -3,-1 h -7 l -7,3 -3,4 -2,10 h -7 l -6,2 -5,8 -12,9 -5,-3 -2,3 h -8 4 l 5,3 2,4 5,3 -6,2 8,8 h -4 l -1,2 -3,-2 1,-3 -2,-2 h -5 v 2 l -9,5 1,2 h -6 l -9,16 -7,2 -1,4 1,5 5,5 -2,4 h 3 l 2,4 1,17 -2,7 4,5 7,-1 6,2 4,-4 h 2 l 11,5 6,1 3,-2 3,8 6,1 12,10 8,2 1,5 4,4 v 4 l 3,1 2,6 h 5 l -2,-2 1,-3 8,-3 3,3 6,-1 v -3 l 9,3 5,-4 -2,-7 4,-3 9,1 8,-3 5,4 14,-2 12,3 16,20 v 2 l -3,3 3,4 5,2 8,2 4,-2 5,3 h 3 l 2,-7 10,1 2,-3 7,1 3,-4 2,1 10,-4 1,-8 4,-2 9,6 4,1 5,-3 3,2 4,8 3,2 -1,2 7,5 3,-3 -1,-9 12,-10 4,-7 5,-2 5,-8 8,-6 v -7 l 3,-5 -4,-5 -7,3 -1,-4 2,-3 v -9 l 4,-6 -2,-8 16,-5 15,-7 5,-5 v -5 l 7,-9 5,-2 h 8 l 3,-3 5,2 4,-1 -2,4 2,2 v 3 l 19,-3 21,-14 3,5 3,1 21,-11 3,4 7,1 3,11 4,7 4,1 -2,5 6,3 8,-6 2,3 h 8 l 2,2 -4,4 2,1 4,-2 1,2 2,-2 1,2 5,1 3,5 h 8 l 2,-5 4,-3 v -4 l -3,-4 2,-1 -1,-4 2,-4 h 7 l 11,5 4,-2 h 8 l 3,-5 8,-2 1,-8 4,-3 4,-1 10,2 v 2 h 3 l 2,-2 h -4 l 2,-3 -1,-4 1,-2 4,-1 10,-17 -4,-2 -4,4 -3,-1 -2,2 -2,-2 -8,1 -5,-2 -2,-3 -5,2 -3,-2 v -12 l -2,-1 2,-7 -1,-4 -5,-5 -2,-10 1,-11 12,-8 2,-3 4,-1 7,2 4,-2 2,-11 -7,-15 -3,-2 -10,3 -4,-6 2,-5 -8,1 -9,-2 -11,7 -8,-2 -9,-6 v -8 l -9,-2 -2,-3 4,-6 v -3 l -6,-2 -4,1 -2,3 -5,1 -6,9 -3,2 -3,-1 -6,-11 -4,1 -2,-2 1,-6 -4,-6 h -2 l -1,4 -8,-2 -1,-2 h -5 l -3,-9 -4,-6 -1,-8 -6,8 -4,2 -9,-1 -14,-5 -6,-17 -12,-1 -4,-2 -6,8 -5,2 -4,-5 h -2 l -2,-5 -11,-7 -1,-2 6,-2 -2,-3 -3,-1 -1,3 -7,1 -6,-4 1,-2 -7,-12 -2,-8 11,-6 4,-4 2,-8 -6,-6 -4,-11 3,-7 -4,-7 5,-4 -4,-6 -6,2 -3,-2 -1,-6 -10,-9 2,-6 -1,-6 -4,-5 h -4 l -3,-3 -1,-5 2,-4 v -13 l -5,-5 -8,1 1,2 -11,3 2,-6 h 2 l 5,-7 20,-4 3,-2 1,-3 -8,-6 -5,-8 -20,-9 -6,-8 2,-5 13,-4 16,8 5,-10 -2,-1 11,-9 4,3 v -3 l -6,-11 -7,-3 v -3 l -8,-6 -10,-14 -1,-9 2,-2 7,-1 -6,-12 4,-3 -3,-4 h -6 l -5,2 v 3 l -9,7 -3,-2 h -9 v 3 l -4,2 -6,-7 z m -380,45 -5,2 1,1 z"
     id="百色市" />
  <path
     stroke="#ffff00"
     stroke-opacity="1"
     stroke-width="0.5"
     stroke-linecap="round"
     stroke-linejoin="round"
     stroke-dasharray="none"
     fill="#1e90ff"
     fill-opacity="1"
     fill-rule="evenodd"
     d="m 1604,498.99999 h 3 l 7,5 2,-6 h 4 l 1,3 7,2 2,2 3,-1 2,2 h 5 l 1,-2 4,2 1,-6 2,-1 v -11 l -2,-1 -1,-3 3,-7 h 4 l 2,2 3,-4 -2,-4 1,-4 h 3 l 3,3 5,-3 4,1 -1,-2 h 2 l 6,-10 -5,-7 v -7 l -4,-3 -2,-6 -3,-3 1,-4 -2,-1 -1,-4 2,-15 -4,-4 2,-14 10,1 1,-3 5,1 v -4 l 4,-4 3,-1 2,2 h 3 l 1,-7 h 3 l 3,-4 h 3 l 2,-5 3,-2 1,-4 3,-2 -1,-13 -3,-2 -1,-5 -5,-9 -6,-2 -1,-3 -2,-1 v -5 l 2,-4 4,-2 -3,-14 -2,1 -10,-13 h -4 l -2,-10 1,-3 5,-2 -3,-5 v -6 l 3,-3 2,-7 10,-3 3,1 4,-3 -16,-9 -7,4 -8,-2 -8,2 -1,-4 -9,-2 -6,2 -5,-1 -2,-3 -13,2 -7,-3 -1,3 h -4 l -6,5 -6,9 v 13 h -6 l -5,-3 -2,1 -2,2 -3,11 -3,2 -3,-3 -5,3 -2,-1 -4,-7 -5,-2 -4,-1 -1,3 h -4 l -1,-5 -3,1 -1,-2 8,-13 v -5 l 4,-13 -2,-7 -5,-7 2,-10 -3,-3 4,-5 2,-6 h -3 l -5,-4 -2,-8 9,-9 v -6 l -7,-1 -4,-2 -2,-3 5,-13 -2,-3 -4,1 -2,-2 -1,-5 -3,-2 -4,1 -1,5 -4,2 -8,-1 -3,-3 -4,-1 -2,-6 -3,-3 -3,2 v 3 l -11,8 -1,4 -3,2 -1,3 -16,9 -10,2 2,7 -3,10 v 13 l 5,10 5,1 4,-3 3,1 1,10 -2,7 3,18 -6,2 -4,9 -4,2 -2,-1 -2,4 1,3 -4,2 -3,-1 -2,6 -3,3 -7,-1 -3,2 -3,10 -3,1 -2,3 4,4 -5,6 -1,4 8,8 2,6 6,6 v 3 l -4,2 3,5 -3,5 -2,8 -6,7 -1,5 h -6 l -2,2 8,4 h 6 l 3,6 h -3 l -3,7 h -3 l -4,4 -4,-1 -1,-6 -4,-5 -3,8 h -3 l 1,3 h -3 v 3 l -7,8 -2,-15 -5,-5 v -9 l -3,-7 -9,1 -5,10 2,4 -2,5 -5,-1 -4,-3 -7,1 -19,-10 -4,-6 -5,-3 -6,-1 -7,10 2,3 -2,5 4,4 h 9 l -3,4 1,2 -2,10 3,2 3,7 6,4 6,1 4,7 6,2 2,4 -5,5 -4,8 1,6 -3,11 3,6 14,5 1,3 h -2 l -2,3 -1,8 -3,5 2,3 3,-2 11,1 4,2 6,9 10,4 4,6 -1,5 -7,5 4,8 6,-3 3,1 -1,4 2,4 -3,5 v 2 l 3,3 -1,13 2,5 4,1 2,6 2,1 3,-3 3,1 v 4 l 4,-3 -3,-7 1,-3 -2,-3 3,-5 4,1 -1,-5 1,-6 2,-2 4,3 h 3 l 2,-5 -3,-10 1,-1 5,3 4,-2 2,-5 h 6 l 3,-2 3,-12 7,-2 5,-14 2,-2 12,1 5,6 2,9 14,1 4,4 5,1 7,-2 4,2 v -5 l 10,-11 2,-8 -1,-13 -5,-6 4,-7 -2,-9 2,-2 5,2 6,-4 5,1 5,-3 -2,-5 2,-5 h 4 v -2 h -3 l 1,-4 2,-3 3,-1 3,2 1,3 h 3 l 3,3 6,-1 -1,5 2,2 -2,3 3,4 -11,10 -1,9 3,5 -1,2 4,2 1,-2 h 3 l 4,2 4,6 h 4 l 4,3 4,9 -1,7 3,9 -2,3 z"
     id="贺州市" />
  <path
     stroke="#ffff00"
     stroke-opacity="1"
     stroke-width="0.5"
     stroke-linecap="round"
     stroke-linejoin="round"
     stroke-dasharray="none"
     fill="#1e90ff"
     fill-opacity="1"
     fill-rule="evenodd"
     d="m 296,144.99999 8,11 4,-2 v -3 h 9 l 3,2 9,-7 v -3 l 5,-2 h 6 l 3,4 -4,3 6,12 -7,1 -2,2 1,9 10,14 8,6 v 3 l 7,3 6,11 v 3 l -4,-3 -11,9 2,1 -5,10 -16,-8 -13,4 -2,5 6,8 20,9 5,8 8,6 -1,3 -3,2 -20,4 -5,7 h -2 l -2,6 11,-3 -1,-2 8,-1 5,5 v 13 l -2,4 1,5 3,3 h 4 l 4,5 1,6 -2,6 10,9 1,6 3,2 6,-2 4,6 -5,4 4,7 -3,7 4,11 6,6 -2,8 -4,4 -11,6 2,8 7,12 -1,2 6,4 7,-1 1,-3 3,1 2,3 -6,2 1,2 11,7 2,5 h 2 l 4,5 5,-2 6,-8 4,2 12,1 6,17 14,5 9,1 4,-2 6,-8 1,8 4,6 3,9 h 5 l 1,2 8,2 1,-4 h 2 l 4,6 -1,6 2,2 4,-1 6,11 3,1 3,-2 6,-9 5,-1 2,-3 4,-1 6,2 v 3 l -4,6 2,3 9,2 v 8 l 9,6 8,2 11,-7 9,2 8,-1 -2,5 4,6 10,-3 3,2 7,15 -2,11 -4,2 -7,-2 -4,1 -2,3 -12,8 -1,11 2,10 h 2 l 4,-4 1,1 7,-3 6,2 v -4 l 7,-7 1,2 4,-3 2,1 v 2 l 7,-1 9,-7 -1,-3 h 5 l 5,-5 4,3 2,5 h 4 l 4,-3 -1,-3 2,-7 5,-1 v -4 l 6,-8 -5,-4 -2,-7 1,-5 10,-7 2,2 7,-1 9,-15 6,3 2,4 5,1 1,-2 -2,-4 3,-5 4,-3 1,5 h 3 l 1,8 2,1 v 5 h 3 l 2,-3 v 3 l 3,-4 4,6 1,-5 6,-4 1,-3 -5,-2 7,-10 -1,-3 2,-3 h 3 l -1,-2 10,-1 v -11 l -1,-4 -2,1 4,-10 -2,-1 12,-8 h 6 l 5,2 2,4 5,-2 2,-3 4,1 1,4 8,2 6,-1 1,-4 -3,-4 1,-2 6,2 4,-3 -3,-14 3,-14 4,3 13,-2 4,-3 -1,-5 3,-10 4,-7 -3,-1 -1,-4 2,-3 -6,-8 4,-2 6,1 8,-6 v -3 l -3,-3 3,-5 v -3 l 4,-5 1,3 5,2 6,-1 9,4 5,9 -2,4 3,11 3,-1 12,4 -1,-4 4,-20 -2,-6 3,-4 5,-2 4,1 2,-3 6,4 v -13 l 2,-2 9,-2 1,-7 -4,-7 h -12 l -6,3 h -6 l -7,-7 h -5 l -2,-8 -5,2 v 2 l -7,-7 2,-3 v -4 l 2,-2 h 6 l 8,-5 2,-2 -3,-2 -1,-3 7,-7 6,-1 5,-7 -4,-5 -1,-4 -5,-5 1,-4 8,-1 -2,-2 1,-2 5,-1 3,-3 1,-5 5,-2 v -3 l 3,-5 13,-5 4,2 1,5 5,1 4,3 5,-4 2,-5 -2,-3 h -4 l 3,-8 -2,-1 -1,-6 4,-2 2,-4 -5,-4 -3,-5 -3,-2 -4,1 v 5 l -6,3 -12,1 -10,-2 -2,-6 2,-5 19,-15 8,-17 2,-9 -3,-16 -4,-6 h -2 l -2,-5 -3,-1 -10,9 h -7 l -2,9 -7,5 -5,-3 h -7 l 1,-4 -2,-2 -5,3 h -4 l -5,-4 -2,5 -4,3 v 4 h -5 l -1,-4 -9,2 -2,-2 -2,1 v 3 l -4,5 -2,-2 h -6 l -3,-3 -3,2 -1,-3 1,-3 h 2 l 2,-10 h 4 l 1,2 1,-6 -16,-11 -2,-10 v -12 l -4,-4 -4,-1 -7,-7 2,-4 -3,-5 -6,-2 1,-3 -5,-6 -6,-4 -3,1 1,-4 -7,-8 -13,3 -1,3 -3,-1 -5,-15 -11,-6 -2,-6 -2,-1 -7,2 v 2 h -2 l -2,7 -5,6 -5,1 -6,4 -1,3 4,3 v 3 l -6,1 -1,-7 h -5 l -3,-2 -9,5 2,4 1,-2 3,1 3,4 v 3 l -3,4 h -10 l 3,4 v 7 l -4,3 4,5 -1,4 -3,3 1,8 -2,3 v 8 h -3 l -2,6 -9,5 -7,-2 -11,2 -2,-1 -8,6 -5,1 -6,5 -14,4 -1,3 -8,4 -5,-4 -6,4 -5,-2 -2,2 -2,-2 5,-3 2,-6 -1,-4 -6,-5 v -12 l -2,-3 h -3 l -11,13 -2,-10 -8,-8 v -10 l 2,-4 -2,-3 -7,2 -7,16 -3,-3 1,4 -4,-2 -6,3 -4,3 -1,3 -5,1 -1,4 -3,-3 v 2 h -7 l -2,-6 5,-13 -2,-6 h -3 l -5,3 h -5 l -1,-7 -5,-10 1,-7 3,-3 -1,-3 h -4 l -4,-5 h -3 l -3,5 h -3 l -2,-3 -8,1 -2,-9 2,1 5,-5 -3,-11 v -2 l 2,-1 -4,-3 -2,2 -3,-6 -8,-6 -7,-3 -2,-4 2,-5 -2,-6 -5,-1 -3,1 -3,4 v 4 l -13,3 -11,-1 -7,3 2,11 -1,3 -14,5 -5,14 -4,-1 -4,3 4,18 2,4 6,1 1,3 -2,11 2,3 v 6 l -6,3 -1,3 3,3 -6,3 -5,-4 -6,-1 -5,2 -3,3 -1,11 -3,3 -9,-1 -14,5 h -3 l -6,-4 -8,6 -10,-5 -12,4 -2,3 v 6 l -2,4 -9,4 -2,6 z"
     id="河池市" />
  <path
     stroke="#ffff00"
     stroke-opacity="1"
     stroke-width="0.5"
     stroke-linecap="round"
     stroke-linejoin="round"
     stroke-dasharray="none"
     fill="#1e90ff"
     fill-opacity="1"
     fill-rule="evenodd"
     d="m 900,379.99999 -12,-4 -3,1 -3,-11 2,-4 -5,-9 -9,-4 -6,1 -5,-2 -1,-3 -7,12 3,4 v 3 l -8,6 -6,-1 -4,2 3,5 h 2 v 10 l 3,1 -4,7 -3,10 1,5 -4,3 -13,2 -4,-3 -3,14 3,14 -4,3 -6,-2 -1,2 3,4 -1,4 -6,1 -8,-2 -1,-4 -4,-1 -2,3 5,8 h -3 l -3,3 -4,-2 -7,7 2,2 -1,4 -4,4 1,3 5,-1 3,2 -3,4 8,1 -4,2 1,4 -5,5 3,3 -1,2 -6,1 -3,3 2,4 -2,2 4,1 v -3 l 3,2 -2,4 5,2 1,-2 4,3 -2,2 5,2 v 6 h -3 v 5 l 2,-1 1,4 h 3 l 1,2 -2,8 2,1 v 3 l 7,-3 5,-9 4,-1 v -4 l 8,-4 -1,-2 h 4 l 1,-2 4,-1 v -3 h 7 l 4,-2 1,-3 4,-1 6,1 4,-4 4,1 1,4 7,1 2,2 1,8 -2,4 h 3 l 4,3 -4,7 h -3 v 13 l 5,3 -4,5 5,8 6,19 -1,7 4,3 -1,2 6,3 2,-1 1,8 h 6 v 2 l 4,1 3,4 v 4 l -2,2 3,2 4,8 4,1 1,-2 2,3 1,-5 3,1 2,5 h 6 l 2,-3 4,2 4,-1 v 5 l 3,5 6,-4 -1,-3 5,1 -4,4 v 4 l 6,6 h 4 l 2,2 v -3 l 2,-1 2,3 h 5 l 1,3 7,3 2,-2 -3,-2 3,-5 h 4 l -4,-3 4,-3 -3,-3 10,-6 4,2 2,-4 h 2 l -1,-4 2,-2 h 3 l 7,-10 6,2 2,-2 5,5 v 5 h 7 l 7,6 5,-6 9,-1 v 5 l 6,6 -1,3 3,1 7,7 v 2 l 7,-5 3,-9 -1,-2 4,-2 1,2 4,-3 v -3 l 5,-4 4,-8 4,-2 4,2 3,5 h 4 l -1,-2 h 4 l 7,-16 3,3 h 4 l 3,-3 1,-4 3,-1 11,2 3,3 v 5 l 3,3 1,-5 7,-5 v -22 l 2,-7 4,-5 3,-11 v -14 l 5,-1 2,-11 4,-3 4,-9 3,-2 8,-1 10,-6 5,-8 11,-11 5,-3 h 2 l 6,5 5,-2 3,-12 8,6 5,-1 6,12 4,-4 -2,-5 4,-3 2,-4 -2,-3 h -3 v -10 l -2,-1 4,-5 1,-11 2,-3 7,-3 6,1 8,-4 v -3 l -4,1 -1,3 -5,-3 1,-2 h -5 l 3,-5 5,-1 -3,-6 6,-6 4,4 v 3 l 3,-2 -1,-3 h 10 l 2,-2 -2,-5 h -11 l 4,-4 h 2 l 1,-3 3,1 3,-6 -10,-5 -3,-5 -6,2 -4,-4 -2,2 2,-12 h 2 l -1,-3 -9,-1 -2,3 -3,-9 -7,-1 -3,-2 -2,1 v -4 l -3,-1 v -5 h 2 v -5 l -2,-1 -7,3 -1,-3 -2,4 h -5 v -7 h -2 l -1,-3 6,-5 -6,-1 4,-3 -2,-4 2,-6 -10,4 -2,-2 -3,2 -3,-3 -4,-1 -1,-3 -6,1 -3,-3 -3,3 1,5 -7,14 1,7 -4,6 -4,2 3,5 2,8 -2,3 1,2 -9,5 -6,-2 -11,8 -6,-3 -1,-8 h 7 l -1,-6 -7,-2 -4,4 v 4 h -9 v 4 l -3,1 -2,-1 -3,2 -3,-2 -4,7 -6,5 -6,1 -9,10 -1,7 -6,-1 -4,3 -6,-1 -8,2 -4,16 -4,4 -9,2 -5,3 h -5 l -2,2 -4,10 4,6 -2,5 -2,3 -4,-2 v 5 l -5,3 -2,6 -4,3 -11,-2 -2,2 -5,-1 2,-2 -2,-1 -1,-4 h -2 l 1,-5 -5,-2 -1,-7 -5,-2 -4,-4 1,-6 -1,-3 -3,-2 -12,-3 -4,2 1,5 -3,4 h -7 l -3,-3 -6,2 -1,-7 -2,-3 -3,-2 -2,2 -7,-2 4,-6 -7,-4 h -4 l -7,-6 -8,-3 -7,2 -5,-11 -6,-6 1,-4 -2,-5 4,-3 -1,-5 -4,-3 z"
     id="来宾市" />
  <path
     stroke="#ffff00"
     stroke-opacity="1"
     stroke-width="0.5"
     stroke-linecap="round"
     stroke-linejoin="round"
     stroke-dasharray="none"
     fill="#1e90ff"
     fill-opacity="1"
     fill-rule="evenodd"
     d="m 321,763.99999 4,-1 8,3 v 3 l -2,1 12,11 4,1 -1,4 14,-2 5,5 -5,8 -9,2 1,3 -6,4 2,1 -2,2 v 3 l 4,3 h -2 l -5,5 2,1 -1,4 -3,1 -6,9 2,1 -1,4 -3,1 5,4 -2,4 -4,2 -8,-1 -8,2 -4,-5 v -3 h -5 l -2,5 1,2 -2,1 1,4 -1,3 h -2 l -1,7 -2,2 1,12 -2,2 -2,-1 -3,2 v 5 l 3,2 -2,5 3,5 4,3 -1,5 -6,3 v 4 l 2,3 h 12 l 1,2 4,-2 6,1 v 5 l 2,1 1,8 5,2 -1,4 4,12 -2,4 h -4 l 1,3 -3,3 2,4 6,2 1,2 h -2 l -2,6 2,7 4,5 -2,9 V 1006 l -7,7 1,5 h 2 v 4 l 2,1 7,-6 3,-8 3,-1 9,1 4,8 3,1 12,-3 16,5 2,1 2,10 5,2 6,-1 5,-6 5,1 8,5 3,9 -13,12 2,9 18,4 15,12 9,4 3,3 1,5 5,2 8,2 6,-7 8,-3 2,1 14,22 v 15 l 6,2 3,-5 12,-11 15,-3 -2,-3 5,-3 7,-10 4,-1 -2,-10 4,-7 -2,-8 3,-9 -4,-9 -3,-2 4,-7 v -6 l 2,1 4,-2 -3,-4 2,-2 -1,-2 3,-1 -2,-2 10,-8 2,-6 h 3 l -1,-3 5,-1.00001 -2,-3 h 2 l 1,-3 3,-1 3,-4 -4,-2 v -2 l -2,-1 1,-7 -3,-2 -5,-14 1,-2 7,3 12,-4 5,2 3,-4 21,-5 5,2 h 9 l 2,-2 4,1 v 3 l 4,-2 2,-11 h 8 l -1,-6 3,-2 v -2 l 7,-3 -2,-4 4,-5 3,-2 4,2 7,-7 h 7 l 2,-4 8,-6 v -2 l -4,-3 -3,1 -1,-2 1,-13 h -5 l -2,-1 v -2 l -12,-3 -1,-5 -3,2 -3,-4 7,-8 1,-4 -6,-9 3,-8 h 6 l 11,-5 4,2 4,-6 -1,-6 -2,-2 1,-3 -2,-6 -3,2 v 5 l -2,3 h -2 l -3,3 -6,-3 -1,-3 -4,-1 -2,-4 v -6 l 4,-1 1,-6 3,-1 -3,-3 1,-4 1,1 2,-3 -15,-4 2,-7 -3,-5 -4,-3 -19,-1 -6,-7 -17,-2 -7,-10 -3,-1 -2,-6 -4,1 -5,-3 -3,3 -5,-2 -1,1 -10,-2 v 4 l 8,5 9,12 -3,3 -5,2 -6,-9 1,-3 -10,-1 -8,4 h -3 l 1,8 h -8 l -7,4 h -3 l -4,-7 v -7 l -3,-6 v -2 l 6,-3 -2,-4 2,-9 -3,-1 -1,-6 -2,-2 v -5 h -2 l -2,-3 -4,-2 -4,2 -5,-2 -4,2 -1,-2 -3,1 -3,4 -8,-4 v -4 l 4,-2 v -4 l 9,-3 v -2 l -6,-1 -4,-5 -4,-2 -1,-3 2,-3 h 5 v -2 h -3 l 2,-2 -2,-7 2,-3 h 4 l -1,-3 2,-1 3,-9 -2,-1 2,-5 -4,-1 -4,-7 -3,-11 -7,-1 -3,-4 -21,11 -3,-1 -3,-5 -21,14 -19,3 v -3 l -2,-2 2,-4 -4,1 -5,-2 -3,3 h -8 l -5,2 -6,7 -1,7 -5,5 -15,7 -16,5 2,8 -4,6 v 9 l -2,3 1,4 7,-3 2,1 2,4 -3,5 v 7 l -8,6 -5,8 -5,2 -4,7 -12,10 z"
     id="崇左市" />
</svg>