<svg xmlns="http://www.w3.org/2000/svg" id="svg1" version="1.1" viewBox="-251 -228 1961 1544.9999">
  <path id="南宁市" fill="#ff6347" fill-opacity="1" fill-rule="evenodd" stroke="#ffffff" stroke-dasharray="none" stroke-linecap="round" stroke-linejoin="round" stroke-opacity="1" stroke-width="0.5" d="m977 650-3-1-3 5 3 2-2 2-7-3-1-3h-5l-2-3-2 1v3l-2-2h-4l-6-6v-4l4-4-5-1 1 3-6 4-3-5v-5l-4 1-4-2-2 3h-6l-2-5-3-1-1 5-2-3-1 2-6-3-2-6-3-2 2-2v-4l-3-4-4-1v-2h-6l-1-8-2 1-6-3 1-2-4-3 1-7-3-6-1-8-7-13 4-5-5-3v-13h3l4-7-4-3h-3l2-4-1-8-2-2-7-1-1-4-4-1-4 4h-10l-1 3-4 2h-7v3l-4 1-1 2h-4l1 2-8 4v4l-3 1-6 7v2l-7 3v-3l-2-1 2-8-1-2h-3l-1-4-2 1v-5h3v-6l-5-2 2-2-4-3-1 2-5-2 2-4-3-2v3l-4-1 2-2-2-4 3-3 6-1 1-2-3-3 5-5-1-4 4-2-8-1 3-4-3-2-5 1-1-3 4-4 1-4-2-2 7-7 4 2 3-3h3l-5-8-5 2-2-4-5-2h-6l-12 8 2 1-4 10 2-1 1 4v11l-10 1 1 2h-3l-2 3 1 3-7 10 5 2-1 3-6 4-1 5-4-6-3 4v-3l-2 3h-3v-5l-2-1-1-8h-3l-1-5-4 3-3 5 2 4-1 2-5-1-2-4-6-3-9 15-7 1-2-2-10 7-1 5 2 7 5 4-6 8v4l-5 1-2 7 1 3-4 3h-4l-2-5-4-3-5 5h-5l1 3-9 7-7 1v-2l-2-1-4 3-1-2-7 7v4l-6-2-7 3-1-1-4 4h-2l5 5 1 4-2 7 2 1v12l3 2 5-2 2 3 5 2 8-1 2 2 2-2 3 1 4-4 4 2-10 17-4 1-1 2 1 4-2 3h4l-2 2h-3v-2l-10-2-4 1-4 3-1 8-8 2-3 5h-8l-4 2-11-5h-7l-2 4 1 4-2 1 3 4v4l-4 3-2 5h-8l-3-5-5-1-1-2-2 2-1-2-4 2-2-1 4-4-2-2h-8l-2-3-8 6-4-2-3 9-2 1 1 3h-4l-2 3 2 7-2 2h3v2h-5l-2 3 1 3 4 2 4 5 6 1v2l-9 3v4l-4 2v4l8 4 3-4 3-1 1 2 4-2 5 2 4-2 4 2 2 3h2v5l2 2 1 6 3 1-2 9 2 4-6 3v2l3 6v7l4 7h3l7-4h8l-1-8h3l8-4 10 1-1 3 6 9 5-2 3-3-9-12-8-5v-4l10 2 1-1 5 2 3-3 5 3 4-1 2 6 3 1 7 10 17 2 6 7 19 1 4 3 3 5-2 7 15 4-2 3-1-1-1 4 3 3-3 1-1 6-4 1v6l2 4 4 1 1 3 6 3 3-3h2l2-3v-5l3-2 2 6-1 3 3 5v3l-4 6-4-2-11 5h-6l-3 8 6 9-1 4-7 8 3 4 3-2 1 5 12 3v2l2 1h5l-1 13 1 2 3-1 4 3v2l-5 5 3 5 2-1 5 5 1 10h2l1 4h4l6 4 5-5 1 2 2-2 4 3v5l2 2 1 5 4 3 1-1 4 2v5l4-1 1-4 9-5h9l3-3 4-2 2 1 4-3 4 5 8 3h7l2-3-1-3 2-1v-3h5l7-14-3-1v-5l7-7-1-4-5-3 3-3v-3l7-3 3 4h2l4-6 4-2-2-2 2-2 5 3 2 5h3l4-9h2l1 3h5l-3-9 6-1 4-5 5-1 4-3v-2l7 1 8-5 4 5 4 1v2h12l3-3 4-1 4 2 4-6 5 1 5 8h7l1-3 8-1 5 3h12l8-2-6-7 3-2 1 2h5l3 2v2l-4 4 9-1 1 2 2-2v4l5-1 4 4v3l9-7 5-1 1-3-8-6 1-7 8-11 7-5h3l2-3h4l3 3 2-2 8 1v5l2-1 1-4 6-1 1-3 4-2 6 5 5-4 5-1v-2l2 1 5-7 7 2 3-1-4-7-3-3-2 1v-4l-2-3 1-4-2-3-4-2v-2l-14 1 2-3-1-2 2-7h5l-4-4-10 1-3-6-4-1v-5l8-3-1-4-13-6h-6v-4h-6l-2-6-4-3-1-5-7-7-4-1-1-3 6-5-1-1 4-1-2-2 3-4-6-9-4 1-6-3-2 2h-7l-1-2 2-2-2-2 1-2-2-12 4-12-2-1v-4l-5-2 2-4-2-1v-3l-5-2h3l4-4-5-1z"/>
  <path id="柳州市" fill="#ff6347" fill-opacity="1" fill-rule="evenodd" stroke="#ffffff" stroke-dasharray="none" stroke-linecap="round" stroke-linejoin="round" stroke-opacity="1" stroke-width="0.5" d="m1208 322 4-3 1-3v-12l5-1 5-6-3-5 1-7-3-7 1-3 3 1 2-2-2-5-7 1-2-2-6-1-4 2-8-10-2 3-8 4-1-3-3-2h-5l-2-10-3 4-3-1-2-5h-4l3-9-2-8-3 2v2h-4l-2 2-4-3v-12l-3-2-1 2-5 1-5-7-2 2h-4l-1 3-4-2-13-1-17-7h-3l-4 3h-8l3-7-1-3 2-2-2-2 1-8-2-1-1-5h4l-3-3-1-4 1-5 4-3 3 2-1-10 3-7-1-6 3-4-1-5-6-7 4-13 7-3 8-10 4-10v-6l6-9-1-19 1-4 2 1 1-2-2-2 3-8-3-2 3-1 1-3-2-2 5-16-3-9-5-4v-3l-3-4 7-11 4-1 2-2 1-5 6-4v-2l-4-4h-3l-1-3 5-15-6-2-4-11-10-4-2-3 3-13 9-7 1-4-13 2-2-1-2 2h-5l1-2-2-2 1-2 2 1v-3l-3-4 3-4v-6l5 1 5-11-2-3-4-3-2 4h-3l1-2-11-3-1-7-3-2-7 6-16 4-1 4-3 1-4-1-4-7-4-2-2 7-17 11v2l5 2 2 6-2 5-8 4-2 9-5 8-8 3v12l-2 2 1 3-2 3 4 4v5l-7-1v3l-5 3h-5l-11-7-7-1v-13l-3-4-5-1-2 2 4 2-1 2 3 2-2 4-6 1-2 5-2-1-3-5 3-4v-5l-2-3-5-1-6 2 1 2-2-1-3 6-7-4-5-1-4 1-1 3-4-1-2 1 3 5h-3l-2 5h-4v3l-3 1-3-3-8 5v2l-4 1 1 9 4 1 4-2 5 2 2-4 4-2 3-6 4-1 1-4 7 4 3-4h3v2l6 3-2 3 1 5-8 10v5l-3 3 4 3-1 3 2 12 10 5-3 4-3-1-3 4-3-1-5 4-9-6-4 1v-3l-5-4h-6l-8 4-3-1 1-3-4 1-2-2-4 1 1 2h-8l-3 6-6-8h-2l1-5 3-1-1-5-4-2 1-8-5-2h-10l-3 4h-6l-2 5h2l-1 5-3-1-3 2-1 3 2 3-2 3 7 5 1 4-6-3-9 3v3l-3 5h-3l3 2v3l2-1 2 4-4-1-2-3-3 7v6l-3 3 2 4h5l2 5v4l-2 3 4 9-2 3v5h2l4 4v12l2 4v6l16 11-1 6-1-2h-4l-2 10h-2l-1 3 1 3 3-2 3 3h6l2 2 4-5v-3l2-1 2 2 9-2 1 4h5v-4l4-3 2-5 5 4h4l5-3 2 2-1 4h7l5 3 7-5 2-9h7l10-9 3 1 2 5h2l4 6 3 16-2 9-8 17-19 15-2 5 2 6 10 2 12-1 6-3v-5l4-1 11 11-2 4-4 2 1 6 2 1-3 8h4l2 3-2 5-5 4-4-3-5-1-1-5-4-2-13 5-3 5v3l-5 2-1 5-3 3-5 1-1 2 2 2-8 1-1 4 5 5 1 4 4 5-5 7-6 1-7 7 1 3 3 2-10 7h-6l-2 2v4l-2 3 7 7v-2l5-2 2 8h5l7 7h6l6-3h12l4 7-1 7-9 2-2 2v13l-6-4-2 3-4-1-5 2-3 4 2 6-4 20 1 4 6 3 1 5-4 3 2 5-1 4 6 6 5 11 7-2 8 3 7 6h4l7 4-4 6 7 2 2-2 3 2 2 3 1 7 6-2 3 3h7l3-4-1-5 4-2 12 3 3 2 1 3-1 6 4 4 5 2 1 7 5 2-1 5h2l1 4 2 1-2 2 5 1 2-2 11 2 4-3 2-6 5-3v-5l4 2 2-3 2-5-4-6 4-10 2-2h5l5-3 9-2 4-4 4-16 8-2 6 1 4-3 6 1 1-7 9-10 6-1 6-5 4-7 3 2 3-2h5v-4h9v-4l4-4 7 2 1 6h-7l1 8 6 3 11-8 6 2 9-5-1-2 2-3-2-8-3-5 4-2 4-6-1-7 7-14-1-5 3-3 3 3 1-1z"/>
  <path id="桂林市" fill="#ff6347" fill-opacity="1" fill-rule="evenodd" stroke="#ffffff" stroke-dasharray="none" stroke-linecap="round" stroke-linejoin="round" stroke-opacity="1" stroke-width="0.5" d="m1461 186-12 4h-14l-4 3 4-4-2-3 1-5-6-5 2-3-4-4-3-12 4-9-1-1 6-7-2-2 1-5 6-11 13-6h3l3-4 9-5 1-6-4-13 10-5 11-18 7 1 7-4 1-3 4-2 2-9 4 1 5-7v-7l5-7 2-7-1-8 5-15-8-13 1-10-2-3v-7l5-5 5 1 14-4 4-7h6l1-3-2-10-3-3 2-6 6-1 10-5-6-2-4 1v-5h-6l-4 3-2-2-7 1-1-7-3 1-1 3h-2l-2-4-11 6-3 9-3-2h-5l-2-1-3-7-5-6 3-1-4-7-3-1v-4h-4l3-6 3-13 6-8 7-2-5-6 6-9v-6l-3-6 5-10-3-2 2-3v-4l5-1 1-5-4-10-8 2-2-1-2 2-2-2h-3l-3-4 2-2-1-5-25-1-1 2-11-6h-6l1-2-10-3 1-5-4-1-2-5-3-2-4 1-3 3 1 5-2 8-4 3 3 9-2 9h-2l-2-6h-4l-11 2-6 4-13-1-6 3v-2l-6-5 4-5-3-7-5 6h-3l-3-5-8-2-6 2-4-2-1-4-3-1-7 11-8 3-3 19-6 9-7 6-5-4-24 25-7 11 2 3-9 20-16 4-4-2v-15l-9-6-3-7-5 2-6 12-12-5-3 4-4-5-5-3 9-24v-11h-12l-3 2-3-1-3-5-9 1-4-4-9 10-5 2-4 17-4 5v6l-3 6-8 2-6-4-4 2-5 11 1 3 6 3 1 9 4 9-4 9-3 3-5 1-4-3-9 7-3 13 2 3 10 4 4 11 6 2-5 15 1 3h3l4 4v2l-6 4-1 5-2 2-4 1-7 11 3 4v3l5 4 3 9-5 16 2 2-1 3-3 1 3 2-3 8 2 2-1 2-2-1-1 4 1 19-6 9v6l-4 10-8 10-7 3-4 13 6 7 1 5-3 4 1 6-3 7 1 10-3-2-4 3-1 5 1 4 3 3h-4l1 5 2 1 1 10-2 2 1 3-3 7 3 1 12-4 17 7 13 1 4 2 1-3h4l2-2 5 7 5-1 1-2 3 2v12l4 3 2-2h4v-2l3-2 2 8-3 9h4l2 5 3 1 3-4 2 10h5l3 2 1 3 8-4 2-3 8 10 4-2 6 1 2 2 7-1 2 5-2 2-3-1-1 3 3 7-1 7 3 5-5 6-5 1v12l-1 3-4 3 1 3 4 1 3 3 3-2 2 2 10-4-2 6 2 4-4 3 6 1-6 5 1 3h2v7h5l2-4 1 3 7-3 2 1-2 10 3 1v4l2-1 3 2 7 1 6-1 3-4 15-3 4-4 1 3h4v3l3 2h7l-4-13 4 3 6 1v-5l2-1v-3l6-7 4-1v11l4 1 7-10 6 1 5 3 4 6 7 4 12 6 7-1 4 3 5 1 2-5-2-4 5-10 9-1 3 7v9l5 5 2 15 7-8v-3h3l-1-3h3l3-8 4 5 1 6 4 1 4-4h3l3-7h3l-3-6h-6l-8-4 2-2h6l1-5 6-7 2-8 3-5-3-5 4-2v-3l-6-6-2-6-8-8 1-4 5-6-4-4 2-3 3-1 3-10 3-2 7 1 3-3 2-6 3 1 4-2-1-3 2-4 2 1 4-2 4-9 6-2-3-18 2-7-1-10-3-1-4 3-5-1-5-10z"/>
  <path id="梧州市" fill="#ff6347" fill-opacity="1" fill-rule="evenodd" stroke="#ffffff" stroke-dasharray="none" stroke-linecap="round" stroke-linejoin="round" stroke-opacity="1" stroke-width="0.5" d="m1279 440 2 3-2 10 2 9-5 7-5 2-2 6 1 6 5 2v2l6-1 3 5 9-1 4 5 4-2 4 4-2 3 4 7 9 1 4-7h2l6 12-3 7-4 3-1 9 1 4 5-1-2 7 1 1-3 3h-3l-1 3 2 3 7 3v2l3 2-2 9h4l2 3-1 5h3l1 2 1 15 3 4v4l-2 3-8 2-2 4 1 3-4 10 2 5-4 2 1 2 3-1 2 3-2 2 3 3-1 3 7-1 9 4 2 6-2 10-5 4-2 5-5 3-8-3-6 5-2 4 3 8-2 11 3 4h5l4 3 3-1 2-5 12 1 2 2v6h4l-1 4 2 3 6 1 1 5h3l4-4 3 3-2 2 4 5-3 9 2 5 3 2-1 3h-5l-5 8 2 4-2 1 1 5 6 10 4 2 5-4 3 1 1 3-8 22 5 7v6l10 4 4-1 2 2 9 17-1 5 3 3 12 1 4-2v-6l8-1 2 3 7-6 3 2 5-1 2-5h3l4-6-2-6-5-3-1-3h7l3-3 5-1 3 2 12-1v2l7-2 1-2h3l4-3 2-6 4-2v-2l4 1v-2l5-2-1-3 5-6-1-2 4-2 2-4h3l1-3 4-3 1-6 4-5-3-5v-6h3v-2l5-2 2-3-4-4 12-8-2-7 2-3-11 1-5-7 2-9-1-5-3-1 9-4-2-3-2 1 1-12-6-7 2-8-3-2-3 1 2-4-1-2 6-4v-3l-3-2-1-3 4-11 3-1 1-5-2-2 4-20 7 1 5-6 1-4 2 1 6-9-1-4 1-4h2v-9l-2-4 1-6 13-1 4-3 3 2 5-3 1 2 2-2 5 2v-6l3-5h3l1-5 6-1-1-2 2-4-12-2-1-2 3-1v-14h2l3-7-1-1 2-2v-11l2-3-3-9v-11l-3-5-4-3h-4l-4-6-4-2h-3l-1 2-4-2 1-2-3-5 1-9 11-9-3-5 2-3-2-2 1-5-6 1-3-3h-3l-1-3-3-2-3 1-3 7h3v2h-4l-2 5 2 5-5 3-5-1-6 4-5-2-2 2 2 9-4 7 5 6 1 13-2 8-10 11v5l-4-2-7 2-5-1-4-4-14-1-2-9-5-6-12-1-2 2-5 14-7 2-3 12-3 2h-6l-2 5-4 2-5-3-1 1 3 10-2 5h-3l-4-3-2 2v11l-4-1-3 5 2 3-1 3 3 5v2l-4 3v-4l-3-1-3 3-2-1v-3l-2-3-4-1-2-5 1-13-3-3 3-7-2-4 1-4-3-1-6 3-4-8 7-5 1-5-4-6-10-4-6-9-4-2-11-1-3 2-2-3 3-5 1-8 2-3h2l-1-3-14-5-3-6 3-11-1-6 4-8 5-5-2-4-6-2-4-7-6-1-6-4-3-7-3-2 2-10-1-2 3-4h-9l-3-2-1-2 2-5-2-3-4-1v-11l-4 1-6 7v3l-2 1v5l-6-1-4-3 4 13h-7l-3-2v-3h-4l-1-3-4 4-9 1-6 2-3 4-6 1 3 9 2-3 9 1 1 3h-2l-2 12 2-2 4 4 6-2 3 5 10 5-3 6-3-1-1 3h-2l-4 4h11l2 5-2 2h-10l1 3-2 2-5-7-6 6v2l3 3-5 2-3 5h5l-1 2 4 3 2-3 4-1v3z"/>
  <path id="北海市" fill="#ff6347" fill-opacity="1" fill-rule="evenodd" stroke="#ffffff" stroke-dasharray="none" stroke-linecap="round" stroke-linejoin="round" stroke-opacity="1" stroke-width="0.5" d="m1077 1037-5-1-3 4-4 1-5-2-4 8-8-2-3-6h-2l-1 4h-2l-5-3v-5l-4-1-2 4-6-2-2 6-4-2-3 1-6-4-7 7v-5l-2-1-1 2-2-5-3 2-3-1 3 6h-5l-1 7-6 4h-20l-4 2-9-9-3 1-2 6-6 4-7-2-3 2-6-1-5 2-2 5-1-2 2-3-5 2v4l2-1 1 2-4 6-2 7-2-1-13 7-2-2-5 2-3 14 8 17 9 8 13 3 33 2 3 4 5-2 5 2 2 7v5l-2 3-5 3-17 5-5 8v6l2 2 5-1 7 2 12 9 6 1 17-7 4-4 19-3 25-1 18-4 11 5 4-2-1-7 7-3 2-4 8-8v-6l2-4 5 5 8 16 10 5 15 3 6-1 1-9-4-5v-7l-5-6v-8l-3-5 6-18h-2l-2 4-1-2h-3l-5-3-2 3-3-2-2-5 2-5v-17l3-10-4-6 4-4v-3l-3-4 3-3-1-5-2-3-8 2-6-4-5 3zm-133 247 4 3-1-4 2-2 1 2 4 1 4-7v-5l-4-4-9 4-2 4zm30 30 3 2 1-3-4-2z"/>
  <path id="防城港市" fill="#ff6347" fill-opacity="1" fill-rule="evenodd" stroke="#ffffff" stroke-dasharray="none" stroke-linecap="round" stroke-linejoin="round" stroke-opacity="1" stroke-width="0.5" d="m688 908-3 1-4 5-5-1-7 7-4-2-3 2-4 5 2 4-7 3v2l-3 2 1 6h-8l-2 11-4 2v-3l-4-1-2 2h-9l-5-2-21 5-3 4-5-2-12 4-7-3-1 2 5 14 3 2-1 7 2 1v2l4 2-3 4-3 1-1 3h-2l2 3-5 1 1 3h-3l-2 6-10 8 2 2-3 1 1 2-2 2 3 4-4 2-2-1v6l-4 7 3 2 4 9-3 9 2 8-4 7 2 10-4 1-7 10-5 3 2 3-6 2 2 8 3 4-1 3-3 2 16 2 4-6 6-2 4 5 14-2 2-2 7 1 14-8 8-1 3-3h11l2 3 3 1v-2l3-2 5 4v3l3 1v3l-2 1 3 2-1 1 7 4 2-1 5 7 2 7 4 1 3-3 12-1 5 2 3 4 12 5 7 1 7-1 9-4v-3l-12-7 10-5 4-6 5-2 6 3 1 5v4l-11 18 2 2h4l13-9 10-4 5-1 15 2 21-4 3-2 2-5 5-3 4-5 1-4 14-17 1-4-3-4-10-6-5 3-5-2v-10l5-3-2-2-1-8-12-12v-10l-3-6-13-2-4-4-8 3-6-1-12 3-7-3v-5l-5-2v-4l-2-2-8-3-2-4 2-6-1-3 5-7-4-2-2-3 2-3-1-4h2l2-4-5-2v-4l-3-3 2-6 5-2v-2l4-1 3-4h4l6-4 1 1v-5l-4-2-1 1-4-3-1-5-2-2v-5l-4-3-2 2-1-2-5 5-6-4h-4l-1-4h-2l-1-10-5-5-2 1z"/>
  <path id="钦州市" fill="#ff6347" fill-opacity="1" fill-rule="evenodd" stroke="#ffffff" stroke-dasharray="none" stroke-linecap="round" stroke-linejoin="round" stroke-opacity="1" stroke-width="0.5" d="M1077 1037v-6l-3 3v-4l2-2-1-2-6-3v-3l5 2 2-2-2-12-5-10 1-3-6-6-1-5 2-18 3-6 5-5-3-8v-5l4-11 4-4 8-4h2l7 6 1-1-5-5 4-6 2 2 1-4 2 1 4-4h4v-5l2-1 1 3 3 1-2 2 1 2 3 1 2 3 6 2 7 5 6-2 2-2-1-6 4-7v-4l-3-3-1-4-8-6v-2l12-16v-2l3-1v-2h-2v-4l-2-3 1-4-4-2-1-3-16-4-4 1v8l-2-3-3 3-4-2-2 1 1-5-12-8-3-5-1-10-2-2-7 4-4-6-7-2-5 7-2-1v2l-5 1-5 4-6-5-4 2-1 3-6 1-1 4-2 1v-5l-3-1h-5l-2 2-3-3h-4l-2 3h-3l-12 11-4 8v4l8 6-1 3-5 1-9 7v-3l-4-4-5 1v-4l-2 2-1-2-9 1 4-4v-2l-3-2h-5l-1-2-3 2 6 7-8 2h-12l-5-3-8 1-1 3h-7l-5-8-5-1-4 6-4-2-4 1-3 3h-12v-2l-4-1-4-5-8 5-7-1v2l-4 3-5 1-4 5-6 1 3 9h-5l-1-3h-2l-4 9h-3l-2-5-5-3-2 2 2 2-4 2-4 6h-2l-3-4-7 3v3l-3 3 5 3 1 4-5 4-1 3-1 5 3 1-7 14h-5v3l-2 1 1 3-2 3h-7l-8-3-4-5-4 3-2-1-4 2-3 3h-9l-9 5-1 4h-5l-10 4-3 4-4 1v2l-5 2-2 6 3 3v4l5 2-2 4h-2l1 4-2 3 2 3 4 2-5 7 1 3-2 6 2 4 8 3 2 2v4l5 2v5l7 3 12-3 6 1 8-3 4 4 13 2 3 6v10l12 12 1 8 2 2-5 3v10l5 2 5-3 10 6 3 4-1 4 9-1 8 10 4 2 1-6h2l5 9v3l-8 5 1 3 7-4 2-4-2-7 1-2 7 5v4l3 4h2v-2h5l1-3 4-2 6 1 4 3 12-4-8-17 3-14 5-2 2 2 13-7 2 1 2-7 4-6-1-2-2 1v-4l5-2-2 3 1 2 2-5 5-2 6 1 3-2 7 2 6-4 2-6 3-1 9 9 4-2h20l6-4 1-7h5l-3-6 3 1 3-2 2 5 1-2 2 1v5l7-7 6 4 3-1 4 2 2-6 6 2 2-4 4 1v5l5 3h2l1-4h2l3 6 8 2 4-8 5 2 4-1 3-4h2zm-197 83v6h6z"/>
  <path id="贵港市" fill="#ff6347" fill-opacity="1" fill-rule="evenodd" stroke="#ffffff" stroke-dasharray="none" stroke-linecap="round" stroke-linejoin="round" stroke-opacity="1" stroke-width="0.5" d="m1091 827 3-4 5-3 6-2 1 1 3-3-3-1 3-7 4-2 2 3 1-2 7-1 2-5-8-6 1-9-3-8 3-2v-3h5l4 3 2-1v-2l2-1 1-7h6l1 2 5 2-4-5v3l-1-3-4-3 3-2 3 2 2-1-5-4v-4l-1 1-5-9h-3l-1-5 4 2 4-2 4-5 9-5v-3l17 1 15 10-1 2 3 1-1 3 3 2h4l4 4 4-5h3l4 10 3 3 2 7 12-5h12l5 5v6h8l2-1-3-19 11-11v-5l-3-1 1-4 3-3 1 4 4-2-2-2 3-7h2l1 2 2-2 4 2 5-1 7-5 3 4 12-6h8l1-6 11-9 2-11-3-8 2-4 6-5 8 3 5-3 2-5 5-4 2-10-2-6-9-4-7 1 1-3-3-3 2-2-2-3-3 1-1-2 4-2-2-5 4-10-1-3 2-4h4l4-2 2-3v-4l-3-4-1-15-1-2h-3l1-5-2-3h-4l2-9-3-2v-2l-7-3-2-3 1-3h3l3-3-1-1 2-7-5 1-1-4 1-9 4-3 3-7-6-12h-2l-4 7-9-1-4-7 2-3-4-4-4 2-4-5-9 1-3-5-6 1v-2l-5-2-1-6 2-6 5-2 5-7-2-9 2-10-2-3-6 3-6-1-7 3-2 3-1 11-4 5 2 1v10h3l2 3-2 4-4 3 2 5-4 4-6-12-5 1-8-6-3 12-5 2-6-5h-2l-5 3-11 11-5 8-10 6-8 1-3 2-2 6-6 6-2 11-5 1v14l-3 11-4 5-2 7v22l-7 5-1 5-3-3v-5l-3-3-11-2-3 1-1 4-3 3h-4l-3-3-7 16h-4l1 2h-4l-3-5-4-2-4 2-4 8-5 4v3l-4 3-1-2-4 2 1 2-3 9-7 5v-2l-10-8 1-3-6-6v-5l-9 1-5 6-7-6h-7v-5l-5-5-2 2-6-2-3 6h-2l-2 4h-3l-2 2 1 4h-2l-2 4-4-2-10 6 3 3-4 3 4 3v3l5 1-4 4h-3l5 2v3l2 1-2 4 5 2v4l2 1-1 5-2 1-2 12 3 6-1 2 2 2-2 2 1 2h7l2-2 6 3 4-1 6 9-3 4 2 2-4 1 1 1-6 5 1 3 4 1 7 7 1 5 4 3 2 6h6v4h6l13 6 1 4-8 3v5l4 1 3 6 10-1 4 4h-5l-2 7 1 2-2 3 14-1v2l4 2 2 3-1 4 2 3v4l2-1 6 7 1 3-3 1 1 3 3 3 7-4z"/>
  <path id="玉林市" fill="#ff6347" fill-opacity="1" fill-rule="evenodd" stroke="#ffffff" stroke-dasharray="none" stroke-linecap="round" stroke-linejoin="round" stroke-opacity="1" stroke-width="0.5" d="m1091 827 1 11 3 5 12 8-1 5 2-1 4 2 3-3 2 3v-8l4-1 16 4 1 3 4 2-1 4 2 3v4h2v2l-3 1v2l-12 16v2l8 6 1 4 3 3v4l-4 7 1 6-8 4-3-1-4-4-6-2-2-3-3-1-1-2 2-2-3-1-1-3-2 1v5h-4l-4 4-2-1-1 4-2-2-4 6 5 5-1 1-7-6-10 4-4 4-4 11v5l3 8-5 5-3 6-2 12 1 11 5 4v5l5 10 2 12-2 2-5-2v3l6 3 1 2-2 2v4l3-3v6l4 3 5-3 6 4 8-2 2 3 1 5-3 3 3 4v3l-4 4 4 6-3 10v17l-2 5 2 5 3 2 2-3 5 3h3l1 2 2-4 5-1 2 9 3 2h3v-4l3 2h6l8-6 2 3h4l5-6-2-2 1-2h-2v-3l3-3h2v-6l4-3-2-3 2-4-1-14 3-3-1-1 2-4h-2l11-10h5l12 6 8-2 3-6 2 5 4-9h4l1 5 3-4 3 1 5-2 1 2 3-2 4 2v2l5 2h7l4-4h2l2-7 6 3 6 6 14-2v-3l2-1-3-6-4-1 5-5-4-5-6-2 2-3-1-6 2 1-4-7 3-15-2-3 4-1-2-9h-2l-7-6v-3l3-2v-3l3-4 3 3v2l6 4 3-2-1-2 2-3h3v-4l2-2 9 5 2 4 8 6-2 2 5 2 5-2 10-13 11 4-2 5 8 4 7-3 1-2 2 1 1-2h2l-3-9-4-1-1-4 2-5 8-3 2-2v-4l4-1 4-6 4 4 5 2 8-3-1-2-4-1v-3l-3-5-3-1 1-4-3-5h-4l-3-2v-7l-2-3 2-3v-6l-2-3h-3v-3l-3-4 2-1 4 3 5 1 4-1 2-3-2-6 3-5h2l-1-9-2-2 4-3-1-4 5-1 4 4 1 4 2-1v-3l2-2 5-2h14l3-2-1-6-3-3 1-5-9-17-2-2-4 1-10-4v-6l-5-7 8-22-1-3-3-1-5 4-4-2-6-10-1-5 2-1-2-4 5-8h5l1-3-3-2-2-5 3-9-4-5 2-2-3-3-4 4h-3l-1-5-6-1-2-3 1-4h-4v-6l-2-2-9-1h-3l-2 5-3 1-4-3h-5l-3-4-11 9-1 6h-8l-8 5-4 1-3-4-7 5-5 1-4-2-2 2-1-2h-2l-3 7 2 2-4 2-1-4-3 3-1 4 3 1v5l-11 11 3 19-2 1h-8v-6l-5-5h-12l-12 5-2-7-3-3-4-10h-3l-3 5-5-4h-4l-3-2 1-3-3-1 1-2-15-10-17-1v3l-9 5-4 5-4 2-4-2 1 5h3l5 9 1-1v4l5 4-2 1-3-2-3 2 4 3 1 3v-3l4 5-5-2-1-2h-6l-1 7-2 1v2l-2 1-4-3h-5v3l-3 2 3 8-1 9 8 6-2 5-7 1-1 2-2-3-4 2-3 7 3 1-3 3-1-1-11 5z"/>
  <path id="百色市" fill="#ff6347" fill-opacity="1" fill-rule="evenodd" stroke="#ffffff" stroke-dasharray="none" stroke-linecap="round" stroke-linejoin="round" stroke-opacity="1" stroke-width="0.5" d="m296 145-10 3-5 6-13 4-4 2-1 3-10 5h-4l-9 4h-6l-7 5-7-2-9 2-7-3-8 9-2-2-6-1-2 2 1 3 4 3 5 9 2 1 1 8 3 5-2 3v7l-7 16-2 1-4-2-2 2-2 8-3 1-6 6h-4l-9 6-2 8-4 6h-3l-6-5v-2l-3-3-4-2-4-8-1-6-13 1-3-2h-4l-2 4-13 4-11-5-1-5-6-2-8-7-21-3-3-2-1-5-5-1-4 3-13-1-7-3-1-7-2-3-4-2-7-20-13-5-7-1-7 3-1 2-6 1-11-2-3-3 2-4-3-4-4 1-1-4h-4l-1-5-9 3-5 8-3-2-4 1-2 4-7 5 1 2-3 2-3-1-2 7-8 6 1 6-4 11 2 7-13 5-22 5-6 4-4 11-5 7-20 5-3 3-2 7h-9l-2-3 1-3-18-4-9-11-1-4-5-1-4-4-8-1-2 2-8 21h-3l-3 3-4-1v2l3 1h2l1-3h3l5 5-1 10 5 16h3l4 5-2 2 4 10 3 1 2 14h10l4 7-3 1-2 5 8 2 14 13h3l3-5-4-23 3-6 3-1 7 3v-6l3-1 5 5 13-1 20 6 4 4 4 1 9-1 6-6 10-3 3 1 1 3h4l9 5-1 8 3 3 6-1 13 8 2 3v3l-7 8 2 3h-3l-2 2 3 1 3 4-1 3h5l5 10 4-1v2l3 2-4 11-5 3v-3h-7v10l5 7 15 13 6-1 3-4-6-4v-2h3l3-4 7-1 6 9 8 2 1 3 4 1 5 7 20 6 4-2 1-3-2-2 1-5 3-4-1-6 4-5-1-3 11-2 4 1 2-3 9 3v7l4 11-1 6 2 3 7-2 8-8 9 2 6-4 7 1 3 4-4 5 2 4 12-2 2-7 11 5 4-8-2-9 2-4 6-3 8 4 9-4 4 7 3-1 6 4 1 11 6 6 3-1 2 4-1 5-2 2 3 1 6 8 3 1 2 10 4 4 1 4 3 3 6 1 2 2-2 3h-5l5 7v3l-4 3-5 1-5 5 5 24-5 22-4 7 1 6 4 4-5 3-4 7-5 3-6 10-11 4-5 7-4-2 3-7-16-8h-3l-3 3-3-2-2-5-3-1h-7l-7 3-3 4-2 10h-7l-6 2-5 8-12 9-5-3-2 3h-8 4l5 3 2 4 5 3-6 2 8 8h-4l-1 2-3-2 1-3-2-2h-5v2l-9 5 1 2h-6l-9 16-7 2-1 4 1 5 5 5-2 4h3l2 4 1 17-2 7 4 5 7-1 6 2 4-4h2l11 5 6 1 3-2 3 8 6 1 12 10 8 2 1 5 4 4v4l3 1 2 6h5l-2-2 1-3 8-3 3 3 6-1v-3l9 3 5-4-2-7 4-3 9 1 8-3 5 4 14-2 12 3 16 20v2l-3 3 3 4 5 2 8 2 4-2 5 3h3l2-7 10 1 2-3 7 1 3-4 2 1 10-4 1-8 4-2 9 6 4 1 5-3 3 2 4 8 3 2-1 2 7 5 3-3-1-9 12-10 4-7 5-2 5-8 8-6v-7l3-5-4-5-7 3-1-4 2-3v-9l4-6-2-8 16-5 15-7 5-5v-5l7-9 5-2h8l3-3 5 2 4-1-2 4 2 2v3l19-3 21-14 3 5 3 1 21-11 3 4 7 1 3 11 4 7 4 1-2 5 6 3 8-6 2 3h8l2 2-4 4 2 1 4-2 1 2 2-2 1 2 5 1 3 5h8l2-5 4-3v-4l-3-4 2-1-1-4 2-4h7l11 5 4-2h8l3-5 8-2 1-8 4-3 4-1 10 2v2h3l2-2h-4l2-3-1-4 1-2 4-1 10-17-4-2-4 4-3-1-2 2-2-2-8 1-5-2-2-3-5 2-3-2v-12l-2-1 2-7-1-4-5-5-2-10 1-11 12-8 2-3 4-1 7 2 4-2 2-11-7-15-3-2-10 3-4-6 2-5-8 1-9-2-11 7-8-2-9-6v-8l-9-2-2-3 4-6v-3l-6-2-4 1-2 3-5 1-6 9-3 2-3-1-6-11-4 1-2-2 1-6-4-6h-2l-1 4-8-2-1-2h-5l-3-9-4-6-1-8-6 8-4 2-9-1-14-5-6-17-12-1-4-2-6 8-5 2-4-5h-2l-2-5-11-7-1-2 6-2-2-3-3-1-1 3-7 1-6-4 1-2-7-12-2-8 11-6 4-4 2-8-6-6-4-11 3-7-4-7 5-4-4-6-6 2-3-2-1-6-10-9 2-6-1-6-4-5h-4l-3-3-1-5 2-4v-13l-5-5-8 1 1 2-11 3 2-6h2l5-7 20-4 3-2 1-3-8-6-5-8-20-9-6-8 2-5 13-4 16 8 5-10-2-1 11-9 4 3v-3l-6-11-7-3v-3l-8-6-10-14-1-9 2-2 7-1-6-12 4-3-3-4h-6l-5 2v3l-9 7-3-2h-9v3l-4 2-6-7zm-380 45-5 2 1 1z"/>
  <path id="贺州市" fill="#ff6347" fill-opacity="1" fill-rule="evenodd" stroke="#ffffff" stroke-dasharray="none" stroke-linecap="round" stroke-linejoin="round" stroke-opacity="1" stroke-width="0.5" d="M1604 499h3l7 5 2-6h4l1 3 7 2 2 2 3-1 2 2h5l1-2 4 2 1-6 2-1v-11l-2-1-1-3 3-7h4l2 2 3-4-2-4 1-4h3l3 3 5-3 4 1-1-2h2l6-10-5-7v-7l-4-3-2-6-3-3 1-4-2-1-1-4 2-15-4-4 2-14 10 1 1-3 5 1v-4l4-4 3-1 2 2h3l1-7h3l3-4h3l2-5 3-2 1-4 3-2-1-13-3-2-1-5-5-9-6-2-1-3-2-1v-5l2-4 4-2-3-14-2 1-10-13h-4l-2-10 1-3 5-2-3-5v-6l3-3 2-7 10-3 3 1 4-3-16-9-7 4-8-2-8 2-1-4-9-2-6 2-5-1-2-3-13 2-7-3-1 3h-4l-6 5-6 9v13h-6l-5-3-2 1-2 2-3 11-3 2-3-3-5 3-2-1-4-7-5-2-4-1-1 3h-4l-1-5-3 1-1-2 8-13v-5l4-13-2-7-5-7 2-10-3-3 4-5 2-6h-3l-5-4-2-8 9-9v-6l-7-1-4-2-2-3 5-13-2-3-4 1-2-2-1-5-3-2-4 1-1 5-4 2-8-1-3-3-4-1-2-6-3-3-3 2v3l-11 8-1 4-3 2-1 3-16 9-10 2 2 7-3 10v13l5 10 5 1 4-3 3 1 1 10-2 7 3 18-6 2-4 9-4 2-2-1-2 4 1 3-4 2-3-1-2 6-3 3-7-1-3 2-3 10-3 1-2 3 4 4-5 6-1 4 8 8 2 6 6 6v3l-4 2 3 5-3 5-2 8-6 7-1 5h-6l-2 2 8 4h6l3 6h-3l-3 7h-3l-4 4-4-1-1-6-4-5-3 8h-3l1 3h-3v3l-7 8-2-15-5-5v-9l-3-7-9 1-5 10 2 4-2 5-5-1-4-3-7 1-19-10-4-6-5-3-6-1-7 10 2 3-2 5 4 4h9l-3 4 1 2-2 10 3 2 3 7 6 4 6 1 4 7 6 2 2 4-5 5-4 8 1 6-3 11 3 6 14 5 1 3h-2l-2 3-1 8-3 5 2 3 3-2 11 1 4 2 6 9 10 4 4 6-1 5-7 5 4 8 6-3 3 1-1 4 2 4-3 5v2l3 3-1 13 2 5 4 1 2 6 2 1 3-3 3 1v4l4-3-3-7 1-3-2-3 3-5 4 1-1-5 1-6 2-2 4 3h3l2-5-3-10 1-1 5 3 4-2 2-5h6l3-2 3-12 7-2 5-14 2-2 12 1 5 6 2 9 14 1 4 4 5 1 7-2 4 2v-5l10-11 2-8-1-13-5-6 4-7-2-9 2-2 5 2 6-4 5 1 5-3-2-5 2-5h4v-2h-3l1-4 2-3 3-1 3 2 1 3h3l3 3 6-1-1 5 2 2-2 3 3 4-11 10-1 9 3 5-1 2 4 2 1-2h3l4 2 4 6h4l4 3 4 9-1 7 3 9-2 3z"/>
  <path id="河池市" fill="#ff6347" fill-opacity="1" fill-rule="evenodd" stroke="#ffffff" stroke-dasharray="none" stroke-linecap="round" stroke-linejoin="round" stroke-opacity="1" stroke-width="0.5" d="m296 145 8 11 4-2v-3h9l3 2 9-7v-3l5-2h6l3 4-4 3 6 12-7 1-2 2 1 9 10 14 8 6v3l7 3 6 11v3l-4-3-11 9 2 1-5 10-16-8-13 4-2 5 6 8 20 9 5 8 8 6-1 3-3 2-20 4-5 7h-2l-2 6 11-3-1-2 8-1 5 5v13l-2 4 1 5 3 3h4l4 5 1 6-2 6 10 9 1 6 3 2 6-2 4 6-5 4 4 7-3 7 4 11 6 6-2 8-4 4-11 6 2 8 7 12-1 2 6 4 7-1 1-3 3 1 2 3-6 2 1 2 11 7 2 5h2l4 5 5-2 6-8 4 2 12 1 6 17 14 5 9 1 4-2 6-8 1 8 4 6 3 9h5l1 2 8 2 1-4h2l4 6-1 6 2 2 4-1 6 11 3 1 3-2 6-9 5-1 2-3 4-1 6 2v3l-4 6 2 3 9 2v8l9 6 8 2 11-7 9 2 8-1-2 5 4 6 10-3 3 2 7 15-2 11-4 2-7-2-4 1-2 3-12 8-1 11 2 10h2l4-4 1 1 7-3 6 2v-4l7-7 1 2 4-3 2 1v2l7-1 9-7-1-3h5l5-5 4 3 2 5h4l4-3-1-3 2-7 5-1v-4l6-8-5-4-2-7 1-5 10-7 2 2 7-1 9-15 6 3 2 4 5 1 1-2-2-4 3-5 4-3 1 5h3l1 8 2 1v5h3l2-3v3l3-4 4 6 1-5 6-4 1-3-5-2 7-10-1-3 2-3h3l-1-2 10-1v-11l-1-4-2 1 4-10-2-1 12-8h6l5 2 2 4 5-2 2-3 4 1 1 4 8 2 6-1 1-4-3-4 1-2 6 2 4-3-3-14 3-14 4 3 13-2 4-3-1-5 3-10 4-7-3-1-1-4 2-3-6-8 4-2 6 1 8-6v-3l-3-3 3-5v-3l4-5 1 3 5 2 6-1 9 4 5 9-2 4 3 11 3-1 12 4-1-4 4-20-2-6 3-4 5-2 4 1 2-3 6 4v-13l2-2 9-2 1-7-4-7h-12l-6 3h-6l-7-7h-5l-2-8-5 2v2l-7-7 2-3v-4l2-2h6l8-5 2-2-3-2-1-3 7-7 6-1 5-7-4-5-1-4-5-5 1-4 8-1-2-2 1-2 5-1 3-3 1-5 5-2v-3l3-5 13-5 4 2 1 5 5 1 4 3 5-4 2-5-2-3h-4l3-8-2-1-1-6 4-2 2-4-5-4-3-5-3-2-4 1v5l-6 3-12 1-10-2-2-6 2-5 19-15 8-17 2-9-3-16-4-6h-2l-2-5-3-1-10 9h-7l-2 9-7 5-5-3h-7l1-4-2-2-5 3h-4l-5-4-2 5-4 3v4h-5l-1-4-9 2-2-2-2 1v3l-4 5-2-2h-6l-3-3-3 2-1-3 1-3h2l2-10h4l1 2 1-6-16-11-2-10V86l-4-4-4-1-7-7 2-4-3-5-6-2 1-3-5-6-6-4-3 1 1-4-7-8-13 3-1 3-3-1-5-15-11-6-2-6-2-1-7 2v2h-2l-2 7-5 6-5 1-6 4-1 3 4 3v3l-6 1-1-7h-5l-3-2-9 5 2 4 1-2 3 1 3 4v3l-3 4h-10l3 4v7l-4 3 4 5-1 4-3 3 1 8-2 3v8h-3l-2 6-9 5-7-2-11 2-2-1-8 6-5 1-6 5-14 4-1 3-8 4-5-4-6 4-5-2-2 2-2-2 5-3 2-6-1-4-6-5v-12l-2-3h-3l-11 13-2-10-8-8V86l2-4-2-3-7 2-7 16-3-3 1 4-4-2-6 3-4 3-1 3-5 1-1 4-3-3v2h-7l-2-6 5-13-2-6h-3l-5 3h-5l-1-7-5-10 1-7 3-3-1-3h-4l-4-5h-3l-3 5h-3l-2-3-8 1-2-9 2 1 5-5-3-11v-2l2-1-4-3-2 2-3-6-8-6-7-3-2-4 2-5-2-6-5-1-3 1-3 4v4l-13 3-11-1-7 3 2 11-1 3-14 5-5 14-4-1-4 3 4 18 2 4 6 1 1 3-2 11 2 3v6l-6 3-1 3 3 3-6 3-5-4-6-1-5 2-3 3-1 11-3 3-9-1-14 5h-3l-6-4-8 6-10-5-12 4-2 3v6l-2 4-9 4-2 6z"/>
  <path id="来宾市" fill="#ff6347" fill-opacity="1" fill-rule="evenodd" stroke="#ffffff" stroke-dasharray="none" stroke-linecap="round" stroke-linejoin="round" stroke-opacity="1" stroke-width="0.5" d="m900 380-12-4-3 1-3-11 2-4-5-9-9-4-6 1-5-2-1-3-7 12 3 4v3l-8 6-6-1-4 2 3 5h2v10l3 1-4 7-3 10 1 5-4 3-13 2-4-3-3 14 3 14-4 3-6-2-1 2 3 4-1 4-6 1-8-2-1-4-4-1-2 3 5 8h-3l-3 3-4-2-7 7 2 2-1 4-4 4 1 3 5-1 3 2-3 4 8 1-4 2 1 4-5 5 3 3-1 2-6 1-3 3 2 4-2 2 4 1v-3l3 2-2 4 5 2 1-2 4 3-2 2 5 2v6h-3v5l2-1 1 4h3l1 2-2 8 2 1v3l7-3 5-9 4-1v-4l8-4-1-2h4l1-2 4-1v-3h7l4-2 1-3 4-1 6 1 4-4 4 1 1 4 7 1 2 2 1 8-2 4h3l4 3-4 7h-3v13l5 3-4 5 5 8 6 19-1 7 4 3-1 2 6 3 2-1 1 8h6v2l4 1 3 4v4l-2 2 3 2 4 8 4 1 1-2 2 3 1-5 3 1 2 5h6l2-3 4 2 4-1v5l3 5 6-4-1-3 5 1-4 4v4l6 6h4l2 2v-3l2-1 2 3h5l1 3 7 3 2-2-3-2 3-5h4l-4-3 4-3-3-3 10-6 4 2 2-4h2l-1-4 2-2h3l7-10 6 2 2-2 5 5v5h7l7 6 5-6 9-1v5l6 6-1 3 3 1 7 7v2l7-5 3-9-1-2 4-2 1 2 4-3v-3l5-4 4-8 4-2 4 2 3 5h4l-1-2h4l7-16 3 3h4l3-3 1-4 3-1 11 2 3 3v5l3 3 1-5 7-5v-22l2-7 4-5 3-11v-14l5-1 2-11 4-3 4-9 3-2 8-1 10-6 5-8 11-11 5-3h2l6 5 5-2 3-12 8 6 5-1 6 12 4-4-2-5 4-3 2-4-2-3h-3v-10l-2-1 4-5 1-11 2-3 7-3 6 1 8-4v-3l-4 1-1 3-5-3 1-2h-5l3-5 5-1-3-6 6-6 4 4v3l3-2-1-3h10l2-2-2-5h-11l4-4h2l1-3 3 1 3-6-10-5-3-5-6 2-4-4-2 2 2-12h2l-1-3-9-1-2 3-3-9-7-1-3-2-2 1v-4l-3-1v-5h2v-5l-2-1-7 3-1-3-2 4h-5v-7h-2l-1-3 6-5-6-1 4-3-2-4 2-6-10 4-2-2-3 2-3-3-4-1-1-3-6 1-3-3-3 3 1 5-7 14 1 7-4 6-4 2 3 5 2 8-2 3 1 2-9 5-6-2-11 8-6-3-1-8h7l-1-6-7-2-4 4v4h-9v4l-3 1-2-1-3 2-3-2-4 7-6 5-6 1-9 10-1 7-6-1-4 3-6-1-8 2-4 16-4 4-9 2-5 3h-5l-2 2-4 10 4 6-2 5-2 3-4-2v5l-5 3-2 6-4 3-11-2-2 2-5-1 2-2-2-1-1-4h-2l1-5-5-2-1-7-5-2-4-4 1-6-1-3-3-2-12-3-4 2 1 5-3 4h-7l-3-3-6 2-1-7-2-3-3-2-2 2-7-2 4-6-7-4h-4l-7-6-8-3-7 2-5-11-6-6 1-4-2-5 4-3-1-5-4-3z"/>
  <path id="崇左市" fill="#ff6347" fill-opacity="1" fill-rule="evenodd" stroke="#ffffff" stroke-dasharray="none" stroke-linecap="round" stroke-linejoin="round" stroke-opacity="1" stroke-width="0.5" d="m321 764 4-1 8 3v3l-2 1 12 11 4 1-1 4 14-2 5 5-5 8-9 2 1 3-6 4 2 1-2 2v3l4 3h-2l-5 5 2 1-1 4-3 1-6 9 2 1-1 4-3 1 5 4-2 4-4 2-8-1-8 2-4-5v-3h-5l-2 5 1 2-2 1 1 4-1 3h-2l-1 7-2 2 1 12-2 2-2-1-3 2v5l3 2-2 5 3 5 4 3-1 5-6 3v4l2 3h12l1 2 4-2 6 1v5l2 1 1 8 5 2-1 4 4 12-2 4h-4l1 3-3 3 2 4 6 2 1 2h-2l-2 6 2 7 4 5-2 9v10l-7 7 1 5h2v4l2 1 7-6 3-8 3-1 9 1 4 8 3 1 12-3 16 5 2 1 2 10 5 2 6-1 5-6 5 1 8 5 3 9-13 12 2 9 18 4 15 12 9 4 3 3 1 5 5 2 8 2 6-7 8-3 2 1 14 22v15l6 2 3-5 12-11 15-3-2-3 5-3 7-10 4-1-2-10 4-7-2-8 3-9-4-9-3-2 4-7v-6l2 1 4-2-3-4 2-2-1-2 3-1-2-2 10-8 2-6h3l-1-3 5-1-2-3h2l1-3 3-1 3-4-4-2v-2l-2-1 1-7-3-2-5-14 1-2 7 3 12-4 5 2 3-4 21-5 5 2h9l2-2 4 1v3l4-2 2-11h8l-1-6 3-2v-2l7-3-2-4 4-5 3-2 4 2 7-7h7l2-4 8-6v-2l-4-3-3 1-1-2 1-13h-5l-2-1v-2l-12-3-1-5-3 2-3-4 7-8 1-4-6-9 3-8h6l11-5 4 2 4-6-1-6-2-2 1-3-2-6-3 2v5l-2 3h-2l-3 3-6-3-1-3-4-1-2-4v-6l4-1 1-6 3-1-3-3 1-4 1 1 2-3-15-4 2-7-3-5-4-3-19-1-6-7-17-2-7-10-3-1-2-6-4 1-5-3-3 3-5-2-1 1-10-2v4l8 5 9 12-3 3-5 2-6-9 1-3-10-1-8 4h-3l1 8h-8l-7 4h-3l-4-7v-7l-3-6v-2l6-3-2-4 2-9-3-1-1-6-2-2v-5h-2l-2-3-4-2-4 2-5-2-4 2-1-2-3 1-3 4-8-4v-4l4-2v-4l9-3v-2l-6-1-4-5-4-2-1-3 2-3h5v-2h-3l2-2-2-7 2-3h4l-1-3 2-1 3-9-2-1 2-5-4-1-4-7-3-11-7-1-3-4-21 11-3-1-3-5-21 14-19 3v-3l-2-2 2-4-4 1-5-2-3 3h-8l-5 2-6 7-1 7-5 5-15 7-16 5 2 8-4 6v9l-2 3 1 4 7-3 2 1 2 4-3 5v7l-8 6-5 8-5 2-4 7-12 10z"/>
</svg>
