<?xml version="1.0" encoding="UTF-8" standalone="no"?>
<svg
   width="2084"
   height="1826"
   viewBox="-251 -228 2084 1826"
   version="1.1"
   id="svg1"
   xmlns="http://www.w3.org/2000/svg"
   xmlns:svg="http://www.w3.org/2000/svg">
  <defs
     id="defs1" />
  <path
     stroke="#ffff00"
     stroke-opacity="1"
     stroke-width="0.5"
     stroke-linecap="round"
     stroke-linejoin="round"
     stroke-dasharray="none"
     fill="#1e90ff"
     fill-opacity="1"
     fill-rule="evenodd"
     d="m 1023.9999,451 -4,-2 -7,4 -9,11 -2,5 1,15 -15.99999,26 -9,8 -3,7 -6,6 v 4 l 3,4 -1,5 -3,3 -3,11 -4,5 3,2 -4,6 10,4 1,3 12,4 5,-3 v -2 l 14.99999,4 12,8 8,3 4,4 20,1 11,9 h 6 l -1,-3 -7,-4 -9,-10 -11,-4 v -5 h -4 l -10,-8 -9,-3 1,-7 -3,-13 20,3 15,-5 h 13 l 8,-2 2,2 15,-4 5,1 v 7 l 3,6 5,1 4,-2 7,4 5,-6 4,-2 v -11 l 2,1 8,-2 11,-5 8,1 2,-3 6,-3 v -7 l 4,-7 -4,-11 -9,-11 -12,2 2,-4 -3,-3 h -6 l -2,-5 h -7 l -1,-7 -5,6 -4,2 -7,-1 -2,2 -3,-6 -4,4 2,2 -5,4 -4,-2 -2,2 -1,-8 -4,1 -2,-5 -4,-3 v -8 l -2,-7 -12,-9 -4,-8 -5,1 4,-13 v -9 l -2,-5 1,-6 18,-80 h -60 l 19,43 3,9 -1,2 2,6 v 7 l 5,4 1,4 h 3 v 6 l 2,2 v 12 l -2,5 -4,3 -1,-4 -5,-1 -2,8 1,7 -4,3 -3,11 z"
     id="乌鲁木齐市" />
  <path
     stroke="#ffff00"
     stroke-opacity="1"
     stroke-width="0.5"
     stroke-linecap="round"
     stroke-linejoin="round"
     stroke-dasharray="none"
     fill="#1e90ff"
     fill-opacity="1"
     fill-rule="evenodd"
     d="m 796.99991,363 3,-2 -2,-6 v -9 l 3,-6 9,-5 2,-6 h 6 l 1,-2 v -16 l -4,-6 -1,-5 4,-6 v -11 l 4,-6 9,-2 10,-10 9,-17 2,-15 2,-4 18,-17 5,-2 -1,-2 5,-3 2,-4 v -5 l 6,-3 -3,-8 -8,-7 h -8 l -2,-2 -10,1 -3,-3 -8,2 -11,6 -2,3 -4,-2 -8,7 -2,5 3,7 -4,2 3,2 -3,5 -2,10 -9,14 -7,4 -3,-1 -6,2 -4,7 -6,3 -5,-4 -2,1 3,6 -2,1 -6,19 -6,7 -2,7 -4,4 v 9 l 8,11 -1,12 h 4 l 9,5 5,16 5,2 v 6 l -6,2 5,3 h 5 z m 9,52 -12,-5 -18,-1 2,17 -6,17 5,-4 11,-3 5,-15 9,-2 4,1 z"
     id="克拉玛依市" />
  <path
     stroke="#ffff00"
     stroke-opacity="1"
     stroke-width="0.5"
     stroke-linecap="round"
     stroke-linejoin="round"
     stroke-dasharray="none"
     fill="#1e90ff"
     fill-opacity="1"
     fill-rule="evenodd"
     d="m 1424.9999,797 -1,-16 -7,-12 -3,-1 -1,-6 4,-2 3,-21 -4,-12 -7,-20 -4,-7 -5,-1 v -8 l -12,-8 -4,-5 1,-6 -2,-25 -4,-22 2,-7 -2,-7 1,-6 -6,-33 -3,-4 -6,-20 1,-5 -5,-3 2,-3 -2,-5 -4,-3 v -6 h -13 l -2,-3 -5,2 -6,-4 -11,2 -6,-1 -5,3 h -7 l -13,-3 -3,3 -2,-2 -4,1 -4,-3 h -6 l -3,-3 -11,5 h -4 v 3 h -4 v 2 l -4,3 -2,-2 -13,1 -1,4 -6,2 -15,-5 h -11 l -2,-5 -4,-1 -1,-4 -4,-3 -4,4 -3,-2 -1,-5 -4,-2 -13,-1 -6,-4 4,11 -4,7 v 7 l -6,3 -2,3 -8,-1 -11,5 -8,2 -2,-1 v 11 l -4,2 -5,6 -7,-4 -4,2 -5,-1 -3,-6 v -7 l -5,-1 -15,4 -2,-2 -8,2 h -13 l -15,5 -20,-3 3,13 -1,7 9,3 10,8 h 4 v 5 l 11,4 9,10 7,4 1,3 h -6 l -11,-9 -20,-1 v 8 l -3,6 3,2 14,2 13,-1 6,8 1,6 3,3 3,-1 5,5 9,4 6,8 -2,8 -5,8 -11,6 -9,10 2,8 7,13 13,9 7,16 7,6 4,6 1,29 -4,2 1,3 8,4 14,-2 h 16 l 9,4 2,3 15,-1 17,8 7,-4 h 10 l 6,2 v 2 l 9,-1 5,2 8,-2 4,3 8,-4 11,2 14,13 26,2 13,-2 22,3 h 11 l 17,-3 33,7 36,-10 z"
     id="吐鲁番市" />
  <path
     stroke="#ffff00"
     stroke-opacity="1"
     stroke-width="0.5"
     stroke-linecap="round"
     stroke-linejoin="round"
     stroke-dasharray="none"
     fill="#1e90ff"
     fill-opacity="1"
     fill-rule="evenodd"
     d="m 1388.9999,319 -1,8 4,7 2,11 -17,20 2,15 -11,31 4,13 1,13 -3,21 12,13 7,4 1,7 3,6 v 3 l -6,3 -12,2 17,8 -5,2 -2,3 -14,2 -2,5 -11,3 -2,7 7,11 -2,3 5,3 -1,5 6,20 3,4 3,16 3,17 -1,6 2,7 -2,7 4,22 2,25 -1,6 4,5 12,8 v 8 l 5,1 4,7 7,20 4,12 -3,21 -4,2 1,6 3,1 6,12 2,16 14,1 28,12 12,2 3,3 11,1 8,-2 11,2 12,4 18,11 14,-1 19,5 12,10 11,-1 9,-12 9,-16 16,-19 32,-29 19,-4 11,-15 9,-7 16,-6 2,4 3,2 v 3 l 5,11 5,4 3,-9 5,-6 16,-12 10,-4 16,-3 17,-9 7,-7 2,-9 -6,-11 9,-9 -12,-13 2,-11 -8,-3 4,-5 v -8 l 5,-3 3,-4 25,-16 -2,-21 -40,-41 -4,-6 -2,-18 -11,-22 -10,-33 -9,-19 h -9 l -9,-3 4,-25 3,-2 2,-5 -1,-2 -38,6 -5,-5 -16,-6 h -4 l -11,-14 -12,-8 h -10 l -3,-9 -10,-11 -6,-2 -8,-6 -31,-17 -1,-4 -19,-9 -6,1 -6,-4 -5,-1 v 2 l -13,-4 -7,1 -3,-2 h -12 l -4,-4 -4,2 -6,-2 -9,3 -12,1 -4,2 -8,-2 -6,1 -3,-2 -7,1 -13,-8 h -27 l -10,2 -12,-1 z"
     id="哈密市" />
  <path
     stroke="#ffff00"
     stroke-opacity="1"
     stroke-width="0.5"
     stroke-linecap="round"
     stroke-linejoin="round"
     stroke-dasharray="none"
     fill="#1e90ff"
     fill-opacity="1"
     fill-rule="evenodd"
     d="m 1311.9999,268 -16,9 -18,32 -4,11 -3,3 2,8 h -204 l -18,80 -1,6 2,5 v 9 l -4,13 5,-1 4,8 12,9 2,7 v 8 l 4,3 2,5 4,-1 1,8 2,-2 4,2 5,-4 -2,-2 4,-4 3,6 2,-2 7,1 4,-2 5,-6 1,7 h 7 l 2,5 h 6 l 3,3 -2,4 12,-2 9,11 6,4 13,1 4,2 1,5 3,2 4,-4 4,3 1,4 4,1 2,5 h 11 l 15,5 6,-2 1,-4 13,-1 2,2 4,-3 v -2 h 4 v -3 h 4 l 11,-5 3,3 h 6 l 4,3 4,-1 2,2 3,-3 13,3 h 7 l 5,-3 6,1 11,-2 6,4 5,-2 2,3 10,1 3,-1 1,-4 11,-3 2,-5 14,-2 2,-3 5,-2 -17,-8 12,-2 6,-3 v -3 l -3,-6 -1,-7 -7,-4 -12,-13 3,-21 -1,-13 -4,-13 5,-12 1,-10 5,-9 -2,-15 17,-20 -2,-11 -4,-7 1,-8 -6,-8 h -2 l -5,6 -3,-2 -9,-1 -4,-3 -2,-5 -4,-2 -7,1 -4,-2 -12,4 -1,-3 3,-5 -2,-4 -7,-2 1,-4 -4,-13 z m -280,123 -4,-17 -19,-43 V 289 H 856.99991 v 53 l 10,-1 8,8 2,6 5,7 -4,3 5,13 h 3 l 3,4 4,1 2,14 4,3 -1,12 2,6 -2,7 1,7 -3,11 -12,16 v 9 l -4,-1 -4,2 -9,10 v 10 l -4,4 -2,12 -2,2 h -3 l -7,10 6,2 4,5 h 3 l 11,6 1,-1 7,2 5,3 9,-3 3,7 3,2 1,6 7,3 5,5 8,2 9,11 15,5 4,-2 4,2 6,-1 4,-6 -3,-2 4,-5 3,-11 3,-3 1,-5 -3,-4 v -4 l 6,-6 3,-7 9,-8 15.99999,-26 -1,-15 2,-5 9,-11 7,-4 4,2 -1,-6 3,-15 -5,-7 2,-2 -6,-7 v -7 l 2,-4 -7,-16 13,2 -1,-6 4,2 z"
     id="昌吉回族自治州" />
  <path
     stroke="#ffff00"
     stroke-opacity="1"
     stroke-width="0.5"
     stroke-linecap="round"
     stroke-linejoin="round"
     stroke-dasharray="none"
     fill="#1e90ff"
     fill-opacity="1"
     fill-rule="evenodd"
     d="m 537.99991,368 -1,-7 3,-3 -1,-2 -11,6 v -2 l -6,2 1,2 -5,8 3,-1 3,2 v 6 l -3,-1 -2,7 2,2 h 9 v 7 l -9,4 2,3 -9,3 -6,-1 -8,12 3,-1 5,4 18,5 4,-1 8,4 11,2 7,-3 3,7 4,4 21,9 3,5 7,-2 11,4 4,-3 16,-2 11,3 v 4 h 2 l 4,4 h 11 l 4,-4 -6,-16 4,-11 -1,-4 4,-4 v -7 l 4,-6 -1,-6 h 25 v -7 l -4,-4 4,-26 -6,-6 -2,-7 -4,-4 -6,-1 -2,-5 -5,-1 -4,-4 -35,-7 -8,-3 -22,-13 h -7 v 2 l -6,3 -3,10 7,12 2,9 5,2 v 4 l -6,4 v 3 l -7,6 -5,2 v 3 l -8,-1 -5,3 h -4 l -9,-3 -6,4 -3,-1 -2,4 -5,-1 v -3 l 4,-2 z m -2,-23 -1,-4 -6,-1 -2,-5 -5,1 -5,-6 11,-4 7,1 6,6 7,-5 v -8 l 2,-2 -6,-3 -6,-13 -5,2 -1,-5 -4,-1 -6,3 h -6 l -12,-19 -6,3 -3,-1 -10,4 -1,4 h -3 l -1,3 -7,2 -4,-2 -2,3 h -5 l -4,3 -5,-1 -5,2 -1,2 -5,-1 -3,5 -10,2 -6,5 h -4 l -12,-6 v 2 l -4,4 -8,3 -7,-1 -2,-2 -5,4 -3,6 -5,1 -2,-4 -4,1 -3,4 -5,1 -4,-4 -4,1 -20,18 7,4 -1,4 4,3 v 4 l 10,-3 5,-4 2,3 h 4 l 3,-2 4,4 4,1 4,4 8,4 9,2 5,-1 v 3 l 5,4 -3,5 4,5 4,-2 11,6 2,5 10,-1 4,4 h 6 l 9,5 13,3 10,-1 12,4 2,-1 3,5 5,-1 1,4 3,2 8,-12 6,1 9,-3 -2,-3 9,-4 v -7 h -9 l -2,-2 2,-7 3,1 v -6 l -3,-2 -3,1 5,-8 -1,-2 6,-2 v 2 l 11,-6 1,2 -3,3 1,7 2,-5 5,4 3,-3 -6,-10 -6,-1 -2,3 -4,-4 2,-2 3,2 3,-3 -7,-2 -1,-2 5,1 z m 12,19 -3,3 -1,5 2,-1 9,3 -1,-3 5,3 5,-3 8,1 v -7 h -4 l -14,-8 h -3 l -4,-4 -5,1 5,7 z m -13,-23 1,4 7,1 5,3 7,-5 13,2 v -2 h 4 l 11,-5 -12,-19 -7,3 -1,8 -15,-3 -7,5 v 9 z m 41,-38 -9,5 -13,-5 -4,-3 -12,2 6,13 20,8 7,-3 5,7 3,-10 6,-3 v -2 z"
     id="博尔塔拉蒙古自治州" />
  <path
     stroke="#ffff00"
     stroke-opacity="1"
     stroke-width="0.5"
     stroke-linecap="round"
     stroke-linejoin="round"
     stroke-dasharray="none"
     fill="#1e90ff"
     fill-opacity="1"
     fill-rule="evenodd"
     d="m 876.99991,730 -9,-1 -5,9 3,3 1,8 h -5 l -2,-2 v -8 h -32 l 1,-10 12,-5 2,-6 -23,-6 v -8 l 7,-9 -1,-9 -3,-4 h -3 v -9 l -10,1 -4,-3 -8,1 -11,-8 h -5 l -1,4 -6,2 -1,-6 -14,-4 -10,-5 -16,-1 -8,2 -7,-4 -3,-4 -11,-2 -5,-3 -1,19 3,2 1,8 -3,3 -6,1 v 9 l 4,5 1,9 5,17 -2,7 v 8 l -4,5 -2,10 v 11 l 1,4 4,1 -1,4 3,2 3,8 2,11 v 22 l 5,6 -3,5 2,19 -6,106 -6,9 -48,56 -2,19 -1,40 v 70 l 11,12 22,19 6,8 11,25 5,25 -1,23 -8,7 -3,7 -6,5 6,15 -3,17 3,11 -2,4 7,8 h 7 l 9,8 h 7 l 3,4 9,5 4,8 v 6 l -2,1 -1,7 4,3 -1,3 2,6 4,1 1,3 11,1 3,5 4,1 2,3 3,1 1,4 8,5 h 7 l 2,13 -1,5 5,10 v 9 l 7,5 6,-3 9,1 11,-5 6,4 3,6 13,3 4,4 5,-1 3,-9 14,-6 h 13 l 8,-7 h 2 l 6,-10 1,-5 4,-3 2,-5 -2,-3 1,-6 5,-1 3,-4 8,1 3,-5 h 11 l 1,-2 16,-2 4,-5 10,-1 3,4 h 4 l 6,-5 5,1 3,-2 6,2 4,-6 8.99999,-1 5,-4 1,-3 6,-1 3,2 1,7 9,1 15,-5 3,1 14,-2 5,-5 14,1 5,-3 3,1 2,-2 11,1 1,-3 h 9 l 2,4 7,-2 4,4 1,5 6,2 3,5 5,4 2,-5 11,-4 2,4 14,6 3,3 6,-1 3,-4 6,8 h 7 l 11,9 24,8 6,-1 11,2 -1,-7 7,-6 2,-9 10,3 -1,2 11,7 21,3 4,-2 8,2 4,-1 11,6 3,6 3,2 7,-2 4,-7 3,-2 8,3 3,-3 -3,-6 1,-6 -4,-2 2,-7 -5,-3 3,-12 -2,-1 v -10 l -11,-4 -7,1 -2,-4 h -7 v -5 l -3,-3 2,-6 3,-1 -3,-4 1,-8 5,-2 2,-4 6,-5 10,1 4,-2 2,-4 h 5 l 2,-5 5,-2 3,2 h 8 l -2,-4 2,-4 -2,-3 v -6 l -9,-5 1,-8 -6,-6 -3,-14 -4,-4 h -10 l -3,-4 -4,-1 1,-6 -9,-8 -12,-6 h -6 v -2 l -6,-1 1,-68 -15,2 -1,8 -6,-1 -13,-12 3,-6 -6,-3 v -6 l 2,-3 11,1 6,-2 3,3 7,-2 3,-3 v -4 l 7,-1 10,-9 -3,-3 3,-1 7,2 10,-1 32,-7 6,-3 4,1 14,-8 h 5 l 17,-6 17,-2 v -2 l 10,-5 17,-2 2,-3 5,-2 15,-1 -6,-9 1,-1 -2,-6 v -11 l 4,-2 13,-13 10,-17 10,-42 5,-34 10,-19 2,-31 52,-9 23,-2 6,-16 -1,-10 -11,1 -12,-10 -19,-5 -14,1 -18,-11 -12,-4 -11,-2 -8,2 -11,-1 -3,-3 -12,-2 -32,-13 h -23 l -12,5 -17,4 -33,-7 -17,3 -33,-3 -13,2 -26,-2 -14,-13 -11,-2 -8,4 -4,-3 -8,2 -5,-2 -9,1 v -2 l -11,-3 -5,1 -7,4 -17,-8 -15,1 -2,-3 -9,-4 h -16 l -14,2 -8,-4 -1,-3 4,-2 -1,-29 -4,-6 -7,-6 -7,-16 -13,-9 -7,-13 -2,-8 9,-10 11,-6 5,-8 2,-8 -6,-8 -9,-4 -5,-5 -3,1 -3,-3 -1,-6 -6,-8 -13,1 -14,-2 -8,-3 -1,3 -4,-2 -2,3 -9,-1 -4.99999,4 -3,-3 -2,3 h -14 v 9 h -3 v 4 l 2,2 -4,3 v 3 l 4,10 4,3 -2,3 -9,1 1,-3 -2,-2 -7,4 1,2 -9,2 -12,14 2,1 v 8 h 3 l 6,7 -4,4 1,4 -8,8 -3,1 1,8 -4,5 h -4 l 2,9 -8,2 -3,-3 -7,5 -21,3 -1,3 -18,1 -1,-2 z m -296,-96 8,1 2,-4 7,-2 1,4 -2,4 2,1 8,-3 3,-5 3,2 2,4 6,4 14,-4 6,4 2,-2 3,4 v 4 l 12,4 15,-5 h 4 l 2,-3 18,2 3,-1 5,3 11,2 3,4 7,4 8,-2 16,1 10,5 14,4 1,6 6,-2 1,-4 h 5 l 11,8 8,-1 4,3 10,-1 v 9 h 3 l 3,4 1,9 -7,9 v 8 l 16,4 4,-32 14,8 7,6 4,1 -1,4 10,3 h 13 l 1,6 9,8 10,-1 13,10 4,-4 3,3 8,-2 -2,-9 h 4 l 4,-5 -1,-8 3,-1 8,-8 -1,-4 4,-4 -6,-7 h -3 v -8 l -2,-1 12,-14 9,-2 -1,-2 7,-4 2,2 -1,3 9,-1 2,-3 -4,-3 -4,-10 v -3 l 4,-3 -2,-2 v -4 h 3 v -9 h 14 l 2,-3 3,3 4.99999,-4 9,1 2,-3 4,2 1,-3 5,1 3,-6 v -8 l -4,-4 -8,-3 -12,-8 -14.99999,-4 v 2 l -5,3 -12,-4 -1,-3 -10,-4 -6,1 -4,-2 -4,2 -15,-5 -9,-11 -8,-2 -5,-5 -7,-3 -1,-6 -3,-2 -3,-7 -9,3 -5,-3 -13,-3 -6,-4 h -3 l -4,-5 -5,-1 h -7 l -3,4 -5,3 -9,-1 -1,-6 -3,4 -4,-3 -7,2 -1,-5 -9,-2 -7,11 -3,-1 -2,7 -8,-1 -5,-4 -6,2 -5,-5 -3,8 6,3 -6,8 -7,1 -2,5 1,4 4,-1 -2,5 h 4 l 4,7 -7,1 -3,2 -3,-2 h -8 v 8 l -5,-5 v -2 l -8,-2 -22,3 1,2 -7,-3 -5,4 -10,-1 -4,-2 -4,1 -3,5 -5,3 -6,-2 v 2 l -5,2 -9,1 -4,3 -4,-2 -5,3 -10,2 -2,2 -11,-2 -11,2 -3,2 -3,-1 v 3 l -3,3 -7,-2 -6,2 v 6 h -7 l -4,-2 -2,5 -3,2 1,5 10,10 4,9 -2,4 z m 287,95 28,4 24,-4 -13,-10 -10,1 -9,-8 -1,-6 h -13 l -10,-3 1,-4 -4,-1 -7,-6 -14,-8 -4,32 29,10 z"
     id="巴音郭楞蒙古自治州" />
  <path
     stroke="#ffff00"
     stroke-opacity="1"
     stroke-width="0.5"
     stroke-linecap="round"
     stroke-linejoin="round"
     stroke-dasharray="none"
     fill="#1e90ff"
     fill-opacity="1"
     fill-rule="evenodd"
     d="m 191.99991,948 16,-6 6,-8 14,-7 4,-5 9,-3 9,4 13,-4 h 9 l 23,5 8,4 23,6 3,-2 4,-29 -6,-6 -3,-6 h 4 l 7,5 4,-5 4,-1 v -11 l 2,-6 2,1 2,-8 -4,-16 8,-7 8,1 2,7 -1,5 3,-5 6,-3 6,3 14,16 v 4 l 3,-1 1,5 12,-9 6,-1 7,6 11,-6 14,1 17,-8 -1,-5 6,-2 6,2 37,-17 2,1 16,-23 11,-5 11,-8 6,-2 h 8 l 6,-9 6,-2 2,-14 h 3 v -5 l 8,4 8,1 3,-2 12,8 3,4 2,11 3,5 3,3 h 4 l 14,12 8,-2 5,8 4,-1 -1,-7 11,-2 2,5 6,5 -1,4 2,2 5,-1 3,2 -1,4 7,3 v 10 l 4,5 16,6 1,-17 -2,-19 3,-5 -5,-6 v -22 l -2,-11 -3,-8 -3,-2 1,-4 -4,-1 -1,-4 v -11 l 2,-10 4,-5 v -8 l 2,-7 -5,-17 -1,-9 -4,-5 v -9 l 6,-1 3,-3 -1,-8 -3,-2 1,-19 -3,1 -18,-2 -2,3 h -4 l -15,5 -12,-4 v -4 l -3,-4 -2,2 -6,-4 -14,4 -6,-4 -2,-4 -3,-2 -3,5 -8,3 -2,-1 2,-4 -1,-4 -7,2 -2,4 -8,-1 -2,5 -3,2 -16,-1 -4,2 v 4 l -6,3 -6,-2 -4,4 -4,-3 -1,6 h -5 l -1,2 h -8 l -2,3 -8,-1 v 3 h -5 l -1,-3 -5,5 h -7 l -1,-3 -14,5 h -11 l -3,2 -3,-3 -3,3 -8,-1 -4,2 v 8 l -5,-4 -5,1 -2,-7 -4,-5 -2,3 -5,-1 -9,3 -4,-2 -9,-1 -3,2 -3,-2 -6,1 -5,5 -5,2 -4,-3 -8,1 v 10 l -5,3 -6,1 v 6 h -3 l 5,9 -4,6 -5,-2 -15,1 -7,3 1,4 -8,11 -12,1 -3,5 -18,1 -5,5 -3,-2 -9,10 -8,1 -2,3 -6,2 -2,3 -6,1 -12,11 h -8 l -4,2 1,3 -5,6 -6,-2 -12,9 h -6 l 11,12 19,15 4,12 6,11 4,1 -2,9 1,3 -6,3 -4,5 -16,7 v 8 h 3 l -2,7 -6,10 -29,16 -4,4 v 7 l -6,7 -3,8 v 8 l -2,5 5,4 20,-1 z m 203,-73 -1,-5 -3,1 v -4 l -14,-16 -6,-3 -6,3 -3,5 1,-5 -2,-7 -8,-1 -8,7 4,16 -2,8 -2,-1 -2,6 v 11 l -4,1 -4,5 -7,-5 h -4 l 3,6 6,6 -4,29 -3,2 2,14 -2,4 2,2 -1,6 -3,3 -5,31 37,19 81,-3 h 215 l 48,-56 6,-9 5,-89 -16,-6 -4,-5 v -10 l -7,-3 1,-4 -3,-2 -5,1 -2,-2 1,-4 -6,-5 -2,-5 -11,2 1,7 -4,1 -5,-8 -8,2 -14,-12 h -4 l -6,-8 -2,-11 -3,-4 -12,-8 -3,2 -8,-1 -8,-4 v 5 h -3 l -2,14 -6,2 -6,9 h -8 l -6,2 -11,8 -11,5 -5,6 -11,17 -6,15 -7,10 8,5 11,23 3,3 -20,4 h -44 l -6,5 h -19 l -2,-3 -4,-1 -18,7 -5,-1 -7,-5 2,-5 h 5 l -2,-3 1,-3 5,3 v 4 h 7 l 2,-3 h -3 l -1,-3 -4,-3 -4,1 1,-3 -3,-3 -5,2 z"
     id="阿克苏地区" />
  <path
     stroke="#ffff00"
     stroke-opacity="1"
     stroke-width="0.5"
     stroke-linecap="round"
     stroke-linejoin="round"
     stroke-dasharray="none"
     fill="#1e90ff"
     fill-opacity="1"
     fill-rule="evenodd"
     d="m 191.99991,948 -5,-7 -20,1 -5,-4 2,-5 v -8 l 3,-8 6,-7 v -7 l 4,-4 29,-16 6,-10 2,-7 h -3 v -8 l 16,-7 4,-5 6,-3 -1,-3 2,-9 -4,-1 -6,-11 -4,-12 -19,-15 -11,-12 -6,3 -8,-2 -6,2 v 5 l -4,14 -14,7 -6,-2 -6,4 -3,4 2,7 -4,5 -4,-1 -5,3 -3,-1 -5,3 -5,-2 -6,1 v -3 l -5,-2 h -5 l -6,4 -4,-2 -8,1 -7,-6 -8,-1 -6,5 h -5 l -3,6 -8,3 -2,5 -1,11 -3,5 -4,2 2,8 -2,5 1,4 -4,2 -6,8 -1,9 -9,9 h -6 l -4,5 v -5 l -5,-3 v -3 l -10,7 -2,-2 -9,1 v 4 l -6,-3 -4,5 -1,6 -9,-5 -11,6 -3,-10 1,-7 5,-5 -9,-6 v -13 l -4,-4 h -3 l -12,11 -7,3 -6,7 h -2 l -2,4 -10,-2 -3,3 -7,-3 h -6 l -10,-7 -3,2 v 5 l -2,2 10,13 -4,1 -4,-2 h -11 v 4 l -3,5 -4,-1 -4,2 -13,16 -7,5 -4,-2 -3,1 -1,-4 -13,3 -3,3 -6,-1 -2,5 -6,3 4,2 -6,8 -1,7 -5,5 -1,9 8,4 2,15 -3,1 -4,12 -12,3 -8,-2 -4,1 -1,7 -8,4 4,3 -1,9 3,4 6,2 1,7 3,1 5,15 7,-2 3,9 -2,6 -6,-3 -2,1 -4,9 3,2 4,8 -1,6 4,10 -1,3 5,3 h 4 l 3,5 8,2 2,-2 h 5 l -2,-5 4,-4 3,-7 33,5 3,3 6,2 3,-1 7,7 h 6 l 3,6 h 4 l 1,10 -7,9 1,5 8,2 5,-1 3,3 12,-3 7,9 8,-1 11,11 -1,8 3,8 -1,5 5,-1 9,2 9,5 6,-3 2,1 3,-2 v -3 l 9,1 v 6 l -3,2 1,3 -6,11 1,10 6,-3 6,-7 h 8 l 7,-4 6,-1 4,-4 5,10 2,-1 3,-9 6,-1 v -5 l 2,-1 2,2 5,1 1,-2 -3,-7 4,-5 v -5 l 3,-5 v -8 l 5,-11 1,-21 -1,-3 -13,-8 h -10 l 5,-5 v -8 l -10,-2 -13,2 1,-5 -11,-9 v -3 l -5,-1 -1,-4 -3,-1 -3,-8 -13,-9 15,-10 1,3 h 11 l 8,-3 -1,-5 -8,-9 v -3 l 9,-2 1,-4 -10,-1 -4,-3 -5,-1 -6,1 -4,6 v 3 h -6 l -2,5 -4,2 6,4 -1,11 -9,5 -9,-1 -1,-2 3,-8 v -6 l 8,-14 1,-5 5,-4 -9,2 v 3 l -5,5 -1,-3 -6,2 -3,6 -11,3 -5,-22 v -9 l 2,-6 3,-1 3,-4 -3,-6 1,-4 -2,-4 2,-4 h 6 l 3,-3 6,3 h 11 l 5,5 -1,2 26,1 v -3 l 21,-1 8,4 13,2 10,-2 4,-3 v -2 l 4,-2 17,-17 1,-4 17,-2 3,-2 14,1 8,-2 19,-1 2,-6 21,-5 3,-2 h 20 l 5,2 21,-5 z"
     id="克孜勒苏柯尔克孜自治州" />
  <path
     stroke="#ffff00"
     stroke-opacity="1"
     stroke-width="0.5"
     stroke-linecap="round"
     stroke-linejoin="round"
     stroke-dasharray="none"
     fill="#1e90ff"
     fill-opacity="1"
     fill-rule="evenodd"
     d="m -132.00009,1151 -1,1 2,7 v 13 l 6,9 4,1 -1,12 2,4 -2,3 7,6 1,3 -7,6 -3,6 3,11 10,8 4,-1 7,11 -3,4 v 6 l -18,6 -1,5 -9,2 -6,-8 h -2 l -6,5 -2,-3 -4,1 -2,3 -3,-2 -3,1 -3,5 1,4 -2,2 3,3 v 5 l 3,-1 3,6 5,-2 1,-2 7,-2 3,6 h 5 l 1,-3 h 4 l -1,4 5,9 h 4 l -1,-4 7,-2 3,-3 2,2 10,-1 v 2 l 7,3 4,-1 11,2 -1,6 3,4 -1,10 3,7 5,-3 3,2 v -5 h 8 l 9,3 13,9 7,9 -2,3 6,6 4,11 -4,8 6,10 v 3 h -4 v 7 l -7,3 1,8 2,3 4,2 h 8 l 1,5 5,8 -2,8 7,1 7,-2 6,2 v -4 l 6,1 5,-4 3,1 3,-4 4,2 -3,9 3,5 9,3 v 3 l 5,4 1,3 7,-1 7,6 5,2 3,-2 6,2 2,3 10,5 10,-2 6,7 7,2 11,-2 6,3 2,-3 3,3 3,-1 3,-4 3,1 2,-3 -3,-4 3,-6 3,-1 v -8 l -2,-3 v -4 h 2 l -1,-7 h 4 l -3,-12 4,1 3,-3 -5,-7 -6,-4 -6,-1 -1,-7 6,-1 v -2 l 6,-6 5,-2 -9,-11 -8,2 -11,-9 2,-3 -5,-7 -8,-5 h -6 l -1,-6 9,-2 2,-5 h 5 l -1,-3 4,-1 3,-3 -14,-14 1,-6 2,-2 -1,-8 h 8 l 3,-5 1,-9 3,-8 -2,-2 -2,-14 -4,-4 4,-6 2,-10 v -16 l 3,-1 5,-10 23,-33 46,-53 66,-44 9,-1 5,-3 16,5 3,-5 2,-10 11,-66 -50,-29 -7,1 -2,4 -8,3 v 4 l -15,1 -4,-5 -8,1 v -5 l -3,-1 -1,-4 11,-11 -1,8 3,2 -2,6 2,4 3,-6 h 4 l -1,-7 3,-2 h 8 l 1,-2 -5,-1 -4,-3 3,-3 5,-1 -4,-5 4,-2 1,-5 3,-1 -2,-5 3,-2 15,-3 -6,-23 -13,4 -9,-4 -9,3 -4,5 -14,7 -6,8 -16,6 -14,1 -13,4 -5,-2 h -20 l -3,2 -21,5 -2,6 -19,1 -8,2 -14,-1 -3,2 -17,2 -1,4 -25,24 -10,2 -13,-2 -8,-4 -21,1 v 3 l -26,-1 1,-2 -5,-5 h -11 l -6,-3 -3,3 h -6 l -2,4 2,4 -1,4 3,6 -3,4 -3,1 -2,6 v 9 l 5,22 11,-3 3,-6 6,-2 1,3 5,-5 v -3 l 9,-2 -5,4 -1,5 -8,14 v 6 l -3,8 1,2 9,1 9,-5 1,-11 -6,-4 4,-2 2,-5 h 6 v -3 l 4,-6 6,-1 5,1 4,3 10,1 -1,4 -9,2 v 3 l 8,9 1,5 -8,3 h -11 l -1,-3 -15,10 13,9 3,8 3,1 1,4 5,1 v 3 l 11,9 -1,5 13,-2 10,2 v 8 l -5,5 h 10 l 13,8 v 24 l -5,11 v 8 l -3,5 v 5 l -4,5 3,7 -1,2 -5,-1 -2,-2 -2,1 v 5 l -6,1 -3,9 -2,1 -5,-10 -4,4 -6,1 -7,4 h -8 l -6,7 -6,3 -1,-10 6,-11 -1,-3 3,-2 v -6 l -9,-1 v 3 l -3,2 -2,-1 -6,3 -9,-5 -9,-2 -5,1 1,-5 -3,-8 1,-8 -11,-11 -8,1 -7,-9 -12,3 -3,-3 -5,1 z m 399,-169 50,29 5,-38 2,-10 3,-3 1,-6 -2,-2 2,-4 -2,-14 -23,-6 -8,-4 -23,-5 h -9 l 6,23 25,-4 8,10 3,12 -7,6 -11,-4 -12,2 2,4 -1,3 3,2 -7,2 v 6 z"
     id="喀什地区" />
  <path
     stroke="#ffff00"
     stroke-opacity="1"
     stroke-width="0.5"
     stroke-linecap="round"
     stroke-linejoin="round"
     stroke-dasharray="none"
     fill="#1e90ff"
     fill-opacity="1"
     fill-rule="evenodd"
     d="m 378.99991,1380 36,-1 20,3 1,-6 v 7 l 21,13 5,-32 2,-3 4,15 4,7 -1,11 4,4 -1,7 3,5 -7,15 -4,5 v 4 l 3,4 -1,6 6,7 10,2 1,7 v 12 l -6,17 -2,2 2,6 h 14 l 6,-3 6,-1 5,2 6,-2 3,-4 h 3 l 5,-3 1,-2 -3,-8 2,-3 21,-11 5,-1 2,-6 -2,-4 6,-1 3,-6 3,-1 4,2 4,-1 7,2 9,6 6,-5 7,-1 2,2 h 6 l 2,8 -1,6 3,7 6,3 5,7 5,1 6,-3 3,2 24,4 v 2 l 5,-1 2,2 6,-3 10,1 8,-2 2,-3 9,-3 7,3 2,4 4,-2 2,2 26,-12 2,-6 -2,-3 23,-8 2,1 24,-13 -7,-5 v -9 l -5,-10 1,-5 -2,-13 h -7 l -8,-5 -1,-4 -3,-1 -2,-3 -4,-1 -3,-5 -11,-1 -1,-3 -4,-1 -2,-6 1,-3 -4,-3 1,-7 2,-1 v -6 l -4,-8 -9,-5 -3,-4 h -7 l -9,-8 h -7 l -7,-8 2,-4 -3,-11 3,-17 -6,-15 6,-5 3,-7 8,-7 1,-23 -5,-25 -11,-25 -6,-8 -22,-19 -11,-12 v -70 l 1,-40 2,-19 h -215 l -81,3 -37,-19 -13,83 -2,10 -3,5 -16,-5 -5,3 -9,1 -66,44 -46,53 -11,17 43,15 v -5 l 17,-7 v 25 l 60,42 1,-3 4,-1 v -20 h 11 v 3 l -3,2 2,2 v 3 l 24,-17 3,-9 3,-1 v 5 l 8,-7 3,1 v 4 l 6,7 7,-10 6,-2 7,-7 -1,-2 4,-5 h 3 l 3,-5 -1,-2 7,-5 4,-10 7,-5 5,-11 6,-1 5,-5 2,2 -5,10 -5,1 2,4 -4,8 3,7 -5,23 -40,24 -1,7 -5,8 1,2 8,-1 3,-4 h 4 l 1,7 -9,9 3,2 -3,1 -3,8 -3,1 -1,7 -3,4 -1,5 7,9 h 7 l 4,2 3,5 -2,5 12,16 1,6 4,-1 3,7 -2,1 2,8 -3,1 -4,9 z m -49,-136 1,2 -7,11 -1,7 -3,2 -17,-5 -1,-6 4,-2 2,-3 -1,-6 -24,17 1,17 -11,-4 v 2 l -5,-1 -60,-42 -2,2 -3,-2 v -5 l -4,-3 -10,4 2,-9 -43,-15 -12,16 -5,10 -3,1 v 16 l -2,10 -4,6 4,4 2,14 2,2 -3,8 -1,9 -3,5 h -8 l 1,8 -2,2 -1,6 14,14 -3,3 -4,1 1,3 h -5 l -2,5 -9,2 1,6 h 6 l 8,5 5,7 -2,3 11,9 8,-2 9,11 -5,2 -6,6 v 2 l -6,1 1,7 6,1 6,4 5,7 -3,3 -4,-1 3,12 h -4 l 1,7 h -2 v 4 l 2,3 v 8 l -3,1 -3,6 3,4 9,6 v -3 h 9 l 2,2 1,-2 9,-1 -4,7 -8,8 v 15 l 4,5 v 8 h 6 l 2,5 -2,3 3,5 4,2 -2,4 3,6 h 2 v 12 l -2,7 h 4 l 2,10 14,3 v 5 l 6,-3 6,2 v 5 l 2,1 3,-3 8,1 5,5 -2,3 11,4 3,7 6,-4 1,3 6,3 1,-2 -3,-5 4,-3 2,1 7,-3 7,3 9,-3 3,2 13,-3 3,-3 4,3 h 8 l 2,-3 h 10 l 5,-5 -1,-4 3,-9 -1,-3 3,-2 v -5 l 4,-10 -2,-3 6,-1 1,-4 3,-1 v -15 l 4,-4 4,1 10,-9 -1,-3 3,-3 10,-1 -9,-10 3,-9 7,-1 4,-6 2,3 7,3 h 4 l 3,-2 6,1 3,4 v 3 l 14,-1 10,4 h 6 l 1,-8 6,-3 4,5 h 4 l 3,5 6,-3 2,1 5,-2 2,2 h 5 l 5,5 2,-2 6,-17 -1,-19 -10,-2 -6,-7 1,-6 -3,-4 v -4 l 4,-5 7,-15 -3,-5 1,-7 -4,-4 1,-11 -4,-7 -4,-15 -2,3 -5,32 -22,-14 -20,-4 -36,2 -16,-3 4,-9 3,-1 -2,-8 2,-1 -3,-7 -4,1 -1,-6 -12,-16 2,-5 -3,-5 -4,-2 h -7 l -7,-9 1,-5 3,-4 1,-7 3,-1 3,-8 3,-1 -3,-2 9,-9 -1,-7 h -4 l -3,4 -8,1 -1,-2 5,-8 1,-7 40,-24 5,-23 -3,-7 4,-8 -2,-4 5,-1 5,-10 -2,-2 -5,5 -6,1 -5,11 -7,5 -4,10 -7,5 1,2 -3,5 h -3 l -4,5 1,2 -7,7 -6,2 -5,6 z m -16,11 10,2 7,-11 -7,-9 h -3 v -5 l -8,7 -1,8 -4,3 -3,6 z m 6,11 3,-2 1,-7 -12,-2 -7,1 -2,3 v 2 l 16,5 z m 115,114 z"
     id="和田地区" />
  <path
     stroke="#ffff00"
     stroke-opacity="1"
     stroke-width="0.5"
     stroke-linecap="round"
     stroke-linejoin="round"
     stroke-dasharray="none"
     fill="#1e90ff"
     fill-opacity="1"
     fill-rule="evenodd"
     d="m 790.99991,524 -4,-5 -1,-7 h -6 l -4,-8 -7,2 -10,-5 4,-7 -8,-3 h -4 l -1,2 -5,-1 -4,2 -3,-3 -2,3 -5,-1 -3,-7 -2,2 -13,-7 2,-4 h -2 l -2,-3 h -3 l -5,-4 -4,2 -4,-7 -8,2 -6,-1 -5,-5 -6,2 -4,-5 -7,1 1,-3 -3,-2 -4,4 h -11 l -4,-4 h -2 v -4 l -11,-3 -16,2 -4,3 -11,-4 -7,2 -3,-5 -21,-9 -4,-4 -3,-7 -7,3 -11,-2 -8,-4 -4,1 -18,-5 -5,-4 -3,1 -3,-2 -1,-4 -5,1 -3,-5 -2,1 -12,-4 -10,1 1,5 -3,3 v 4 l 6,8 -3,4 1,2 h -8 l -4,4 -3,8 v 6 l -6,6 -2,-1 -1,7 -3,4 -1,8 h -8 l -7,-5 -9,2 -1,3 7,-1 4,3 h 6 l 3,2 5,-3 5,3 -8,3 -16,-2 -9,2 -2,-5 h -2 l -4,6 5,4 4,1 -1,2 2,11 -14,5 11,21 1,6 -2,7 -5,7 1,2 7,1 3,16 -1,5 -4,-1 -2,2 -6,-2 -6,2 -10,8 -10,5 10,10 10,3 1,4 -9,1 -7,3 v 2 l -7,2 h -9 v 5 l -3,9 1,3 -5,3 -1,5 5,11 4,4 -5,4 v 5 l 3,5 -1,4 5,5 8,-1 4,3 5,-2 5,-5 6,-1 3,2 3,-2 9,1 4,2 9,-3 5,1 2,-3 4,5 2,7 5,-1 5,4 v -8 l 4,-2 8,1 3,-3 3,3 3,-2 h 11 l 14,-5 1,3 h 7 l 5,-5 1,3 h 5 v -3 l 8,1 2,-3 h 8 l 1,-2 h 5 l 1,-6 4,3 4,-4 6,2 6,-3 v -4 l 4,-2 16,1 3,-2 2,-5 -2,-2 2,-4 -4,-9 -10,-10 -1,-5 3,-2 2,-5 4,2 h 7 v -6 l 6,-2 7,2 3,-3 v -3 l 3,1 3,-2 11,-2 11,2 2,-2 10,-2 5,-3 4,2 4,-3 9,-1 5,-2 v -2 l 6,2 5,-3 3,-5 4,-1 4,2 10,1 5,-4 7,3 -1,-2 22,-3 8,2 v 2 l 5,5 v -8 h 8 l 3,2 3,-2 7,-1 -4,-7 h -4 l 2,-5 -4,1 -1,-4 2,-5 7,-1 6,-8 -6,-3 3,-8 5,5 6,-2 5,4 8,1 z m -352,-61 3,-4 1,-7 2,1 6,-6 v -6 l 3,-8 4,-4 h 8 l -1,-2 3,-4 -6,-8 v -4 l 3,-3 -1,-5 -13,-3 -9,-5 h -6 l -4,-4 -10,1 -2,-5 -11,-6 -4,2 -4,-5 3,-5 -5,-4 v -3 l -5,1 -9,-2 -8,-4 -4,-4 -4,-1 -4,-4 -3,2 h -4 l -1,4 4,8 8,3 9,12 -5,17 3,10 2,18 -1,17 4,5 7,2 1,5 5,2 -3,-11 1,-9 7,-1 6,6 -3,4 6,11 v 12 l -2,4 7,-2 1,-3 9,-2 3,2 5,-8 z m 367,-48 6,3 3,-20 4,1 -2,-10 1,-6 -4,-5 -12,1 -5,7 -14,3 v 7 l -5,7 -2,6 18,1 z m -408,75 h 4 l -1,-3 -8,-1 z"
     id="伊犁哈萨克自治州" />
  <path
     stroke="#ffff00"
     stroke-opacity="1"
     stroke-width="0.5"
     stroke-linecap="round"
     stroke-linejoin="round"
     stroke-dasharray="none"
     fill="#1e90ff"
     fill-opacity="1"
     fill-rule="evenodd"
     d="m 764.99991,318 1,-7 -8,-11 v -9 l 4,-4 2,-7 6,-7 2,-9 4,-10 2,-1 -3,-6 2,-1 5,4 6,-3 4,-7 6,-2 3,1 7,-4 9,-14 2,-10 3,-5 -3,-2 4,-2 -3,-7 2,-5 8,-7 -10,-5 -17,-4 -10,-9 -6,-10 v -6 l -2,-4 1,-8 -7,-7 -3,-1 -9,-11 4,-7 3,-14 11,-8 6,-1 -9,-13 -5,-2 -4,-5 -7,2 h -10 l -5,3 -7,-5 -5,2 -16,-1 -10,5 -8,-3 h -5 l -1,2 -5,-1 -10,-6 -7,1 1,-2 -12,-4 -10,-9 -4,1 -4,-8 -4,2 -2,-2 -5,1 -3,-2 -1,-3 -5,-3 -12,3 1,6 -4,15 -5,5 -5,29 -5,4 -9,36 -19,45 -5,23 -6,1 -5,5 -1,7 2,8 -1,6 -5,8 v 8 l -2,4 1,11 25,14 5,11 -2,16 9,9 h 7 l 22,13 8,3 35,7 4,4 5,1 2,5 6,1 4,4 2,7 6,6 -4,26 4,4 v 7 h -25 l 1,6 -4,6 v 7 l -4,4 1,4 -4,11 6,16 3,2 -1,3 7,-1 4,5 6,-2 5,5 6,1 8,-2 4,7 4,-2 5,4 h 3 l 2,3 h 2 l -2,4 13,7 2,-2 3,7 5,1 2,-3 3,3 4,-2 5,1 1,-2 h 4 l 8,3 -4,7 10,5 7,-2 4,8 h 6 l 1,7 4,5 3,1 7,-11 9,2 1,5 7,-2 4,3 3,-4 1,6 9,1 5,-3 3,-4 h 7 l -1,-1 7,-10 h 3 l 2,-2 2,-12 4,-4 v -10 l 9,-10 4,-2 4,1 v -9 l 12,-16 -3,-4 h -7 l -3,-19 -5,-3 1,-12 9,2 3,-5 h 7 l 1,-2 -4,-3 -2,-14 -4,-1 -3,-4 h -3 l -5,-13 4,-3 -5,-7 -2,-6 -8,-8 -10,1 v -53 h -39 v 5 l -4,6 1,5 4,6 v 16 l -1,2 h -6 l -2,6 -9,5 -3,6 v 9 l 2,6 -3,2 3,2 1,5 -3,2 v 8 l 16,-2 4,5 -1,6 2,10 -4,-1 -3,20 -6,-3 v 5 l -4,-1 -9,2 -5,15 -11,3 -5,4 6,-17 -2,-17 2,-6 5,-7 2,-17 -7,-7 -2,2 -14,-16 h 2 v -9 l -1,-9 -3,-8 -7,3 -1,-2 4,-12 -2,-2 v -7 h 11 z m 53,-29 h 190.99999 v -88 l -27.99999,-66 15,-28 V 89 l -12,-11 -3,-5 V 53 l -41,9 -8,-1 v -4 l -11,1 -16,6 -11,2 -7,-6 -4,-1 -14,3 -33,-1 -10,2 -5,-3 -6,4 -3,6 -6,3 -3,4 -8,3 -1,5 -3,3 -6,1 -11,8 -3,14 -4,7 3,5 16,14 -1,8 4,15 14,14 17,4 14,7 2,-3 11,-6 8,-2 3,3 10,-1 2,2 h 8 l 8,7 3,8 -6,3 v 5 l -2,4 -5,3 1,2 -5,2 -18,17 -2,4 -2,14 -9,18 -10,10 -9,2 -4,6 z"
     id="塔城地区" />
  <path
     stroke="#ffff00"
     stroke-opacity="1"
     stroke-width="0.5"
     stroke-linecap="round"
     stroke-linejoin="round"
     stroke-dasharray="none"
     fill="#1e90ff"
     fill-opacity="1"
     fill-rule="evenodd"
     d="m 1107.9999,35 -4,-1 -7,-7 1,-19 3,-9 5,-4 1,-8 4,-9 5,-4 1,-9 h 9 l -6,-3 2,-4 -3,-3 1,-4 -6,-5 -6,1 -4,-5 10,-8 -2,-12 15,-12 -4,-6 -2,-7 3,-8 -3,-5 h -3 l -3,-6 -6,3 -7,-6 v -3 l -10,-5 h -5 l -9,-7 h -5 l -8,-7 6,-4 v -4 l 6,-6 v -3 l -2,1 -3,-5 -7,-3 -2,2 -6,-6 h -4 v -4 l -4,-6 -3,-1 1,-6 5,-3 6,-1 -1,-2 4,-2 -3,-2 v -4 l -4,-4 3,-8 -2,-5 h -2 v -4 h -11 l -2,2 -15,2 -2,2 1,4 -6,4 -5,-3 -12.99999,-3 -3,-3 -9,-2 -2,3 -8,-2 -4,2 h -7 l -3,4 -1,7 -6,3 -4,10 3,9 6,7 -6,5 2,10 -8,13 -5,1 -5,12 -16,9 -3,-2 -7,1 -2,5 -5,3 -15,-2 -20,2 -7,3 -4,6 -8,22 -3,1 -6,20 2,6 6,61 -1,6 7,11 2,6 -3,8 3,5 -2,9 -9,10 -4,12 h 24 l 14,-3 4,1 7,6 11,-2 16,-6 11,-1 v 4 l 8,1 41,-9 -2,-22 1,-2 12,-6 20.99999,-7 4,-5 10,1 4,3 -2,7 h 19 l -1,-4 h 4 l 3,4 2,-2 1,3 -4,-1 3,5 4,-3 33,13 4,-2 3,2 z m 19,-125 -15,12 2,12 -10,8 4,5 6,-1 6,5 -1,4 3,3 -2,4 6,3 h -9 l -1,9 -5,4 -4,9 -1,8 -5,4 -3,9 -1,19 7,7 4,1 v 3 h -8 v 8 l -6,6 -9,2 -9,-2 -2,-2 h -5 l -8,-4 -2,2 -9,-3 -11,-11 -7,-3 -6,-7 3,-2 2,-7 -3,-2 -5,3 -1,-2 5,-2 -10,-1 -4,5 -20.99999,7 -12,6 -1,2 2,42 3,5 12,11 v 18 l -15,28 27.99999,66 v 130 h 264 l -2,-8 3,-3 4,-11 18,-32 16,-9 4,-31 12,-21 17,-17 -2,-6 1,-7 -7,-13 1,-2 -5,-10 8,-9 4,-16 4,-8 -1,-3 h -4 l 3,-18 -3,-6 -7,-8 1,-8 -2,-1 -3,-9 -6,-5 h -6 l -17,-27 -2,-1 -4,-11 -3,-4 4,-8 -2,-3 -3,-1 V 3 l -7,-7 -4,-12 3,-1 -5,-5 -10,-3 -2,-3 h -6 l -5,-7 -1,-6 2,-6 -12,-3 v 6 l -2,1 h -16 l -2,-8 -8,-3 v -4 l -4,-2 v -7 l -3,-4 -7,2 -8,-1 -2,-2 -2,3 -5,1 -2,3 -5,2 -7,-2 -7,1 -13,-18 -10,2 -2,-4 -7,-3 -2,-3 z"
     id="阿勒泰地区" />
  <path
     stroke="#ffff00"
     stroke-opacity="1"
     stroke-width="0.5"
     stroke-linecap="round"
     stroke-linejoin="round"
     stroke-dasharray="none"
     fill="#1e90ff"
     fill-opacity="1"
     fill-rule="evenodd"
     d="m 897.99991,402 h -7 l -3,5 -9,-2 -1,12 5,3 3,19 h 7 l 3,4 3,-11 -1,-7 2,-7 -2,-6 z"
     id="石河子市" />
  <path
     stroke="#ffff00"
     stroke-opacity="1"
     stroke-width="0.5"
     stroke-linecap="round"
     stroke-linejoin="round"
     stroke-dasharray="none"
     fill="#1e90ff"
     fill-opacity="1"
     fill-rule="evenodd"
     d="m 511.99991,837 -2,-1 -37,17 -6,-2 -6,2 1,5 -17,8 -14,-1 -11,6 -7,-6 -6,1 -12,9 2,8 5,-2 3,3 -1,3 4,-1 4,3 1,3 h 3 l -2,3 h -7 v -4 l -5,-3 -1,3 2,3 h -5 l -2,5 7,5 5,1 18,-7 4,1 2,3 h 19 l 6,-5 h 44 l 20,-4 -3,-3 -11,-23 -8,-5 7,-10 3,-9 z"
     id="阿拉尔市" />
  <path
     stroke="#ffff00"
     stroke-opacity="1"
     stroke-width="0.5"
     stroke-linecap="round"
     stroke-linejoin="round"
     stroke-dasharray="none"
     fill="#1e90ff"
     fill-opacity="1"
     fill-rule="evenodd"
     d="m 266.99991,982 5,-1 v -6 l 7,-2 -3,-2 1,-3 -2,-4 12,-2 11,4 7,-6 -3,-12 -8,-10 -40,7 -3,2 2,5 -3,1 -1,5 -4,2 4,5 -5,1 -3,3 4,3 5,1 -1,2 h -8 l -3,2 1,7 h -4 l -3,6 -2,-4 2,-6 -3,-2 1,-8 -11,11 1,4 3,1 v 5 l 8,-1 4,5 15,-1 v -4 l 8,-3 2,-4 z"
     id="图木舒克市" />
  <path
     stroke="#ffff00"
     stroke-opacity="1"
     stroke-width="0.5"
     stroke-linecap="round"
     stroke-linejoin="round"
     stroke-dasharray="none"
     fill="#1e90ff"
     fill-opacity="1"
     fill-rule="evenodd"
     d="m 1023.9999,451 -1,7 3,-11 4,-3 -1,-7 2,-8 5,1 1,4 4,-3 2,-5 v -12 l -2,-2 v -6 h -3 l -1,-4 -5,-4 v -7 l -4,-6 -4,-2 1,6 -13,-2 7,16 -2,4 v 7 l 6,7 -2,2 5,7 -3,15 z"
     id="五家渠市" />
  <path
     stroke="#ffff00"
     stroke-opacity="1"
     stroke-width="0.5"
     stroke-linecap="round"
     stroke-linejoin="round"
     stroke-dasharray="none"
     fill="#1e90ff"
     fill-opacity="1"
     fill-rule="evenodd"
     d="m 1028.9999,22 -3,2 6,7 7,3 11,11 9,3 2,-2 8,4 h 5 l 2,2 9,2 9,-2 6,-6 v -8 h 8 v -3 l -8,2 -3,-2 -4,2 -33,-13 -4,3 -3,-5 4,1 -1,-3 -2,2 -3,-4 h -4 l 1,4 z m -2,-10 -5,2 1,2 5,-3 z"
     id="北屯市" />
  <path
     stroke="#ffff00"
     stroke-opacity="1"
     stroke-width="0.5"
     stroke-linecap="round"
     stroke-linejoin="round"
     stroke-dasharray="none"
     fill="#1e90ff"
     fill-opacity="1"
     fill-rule="evenodd"
     d="m 842.99991,718 -2,6 -12,5 -1,10 h 32 v 8 l 2,2 h 5 l -1,-8 -3,-3 5,-9 -3,-3 z m 53,15 -19,-3 -1,5 1,2 18,-1 z m -60,-17 -3,-1 z"
     id="铁门关市" />
  <path
     stroke="#ffff00"
     stroke-opacity="1"
     stroke-width="0.5"
     stroke-linecap="round"
     stroke-linejoin="round"
     stroke-dasharray="none"
     fill="#1e90ff"
     fill-opacity="1"
     fill-rule="evenodd"
     d="m 541.99991,354 5,-1 4,4 h 3 l 14,8 h 4 v 4 l 5,-2 7,-6 v -3 l 6,-4 v -4 l -5,-2 -2,-9 -11,5 h -4 v 2 l -13,-2 -7,5 -5,-3 -13,-1 1,2 7,2 -3,3 -3,-2 -2,2 4,4 2,-3 z m -1,-21 -6,-6 -7,-1 -11,4 5,6 5,-1 2,5 12,2 1,-3 z m 3,39 1,-5 -5,-4 -2,5 -8,6 v 3 l 5,1 2,-4 3,1 z m 15,2 -5,-3 1,3 z m 5,-51 -14,-5 -2,2 v 8 l 15,3 z"
     id="双河市" />
  <path
     stroke="#ffff00"
     stroke-opacity="1"
     stroke-width="0.5"
     stroke-linecap="round"
     stroke-linejoin="round"
     stroke-dasharray="none"
     fill="#1e90ff"
     fill-opacity="1"
     fill-rule="evenodd"
     d="m 380.99991,448 2,5 -1,8 3,3 -1,3 3,4 1,11 6,12 4,-4 -5,-4 8,1 1,-8 6,-10 v -12 l -5,-6 -1,-5 3,-4 -6,-6 -7,1 -1,9 3,11 -5,-2 -1,-5 z m 27,25 2,5 9,-2 16,2 8,-3 -5,-3 -5,3 -3,-2 h -6 l -4,-3 -7,1 z m 18,-5 4,3 h 8 l 1,-3 -2,-2 2,-2 -8,-4 z m -28,22 -4,4 4,8 14,-5 -2,-11 1,-2 -4,-1 -5,-4 v 11 z m 39,-24 2,2 v -4 l -2,1 z"
     id="可克达拉市" />
  <path
     stroke="#ffff00"
     stroke-opacity="1"
     stroke-width="0.5"
     stroke-linecap="round"
     stroke-linejoin="round"
     stroke-dasharray="none"
     fill="#1e90ff"
     fill-opacity="1"
     fill-rule="evenodd"
     d="m 305.99991,1253 -4,2 1,4 2,-3 z m 7,-14 v -5 l -3,1 -3,9 1,6 4,-3 z m -105,-6 v -25 l -17,7 v 8 l -2,6 10,-4 4,3 v 5 l 3,2 z m 75,28 v -3 l -2,-2 3,-2 v -3 h -11 v 20 l -4,1 -1,3 5,1 v -2 l 11,4 z m 153,122 v -7 l -1,6 z m -115,-151 v 5 h 3 v -4 z"
     id="昆玉市" />
  <path
     stroke="#ffff00"
     stroke-opacity="1"
     stroke-width="0.5"
     stroke-linecap="round"
     stroke-linejoin="round"
     stroke-dasharray="none"
     fill="#1e90ff"
     fill-opacity="1"
     fill-rule="evenodd"
     d="m 782.99991,389 14,-3 5,-7 -4,1 v -8 l 3,-2 -1,-5 -8,-8 h -5 l -5,-3 6,-2 v -6 l -5,-2 -5,-16 -9,-5 h -4 v -11 h -11 v 7 l 2,2 -4,12 1,2 7,-3 3,8 1,18 h -2 l 14,16 2,-2 7,7 z"
     id="胡杨河市" />
</svg>