<svg xmlns="http://www.w3.org/2000/svg" id="svg1" version="1.1" viewBox="-251 -228 2084 1826">
  <path id="乌鲁木齐市" fill="#ff6347" fill-opacity="1" fill-rule="evenodd" stroke="#ffffff" stroke-dasharray="none" stroke-linecap="round" stroke-linejoin="round" stroke-opacity="1" stroke-width="0.5" d="m1024 451-4-2-7 4-9 11-2 5 1 15-16 26-9 8-3 7-6 6v4l3 4-1 5-3 3-3 11-4 5 3 2-4 6 10 4 1 3 12 4 5-3v-2l15 4 12 8 8 3 4 4 20 1 11 9h6l-1-3-7-4-9-10-11-4v-5h-4l-10-8-9-3 1-7-3-13 20 3 15-5h13l8-2 2 2 15-4 5 1v7l3 6 5 1 4-2 7 4 5-6 4-2v-11l2 1 8-2 11-5 8 1 2-3 6-3v-7l4-7-4-11-9-11-12 2 2-4-3-3h-6l-2-5h-7l-1-7-5 6-4 2-7-1-2 2-3-6-4 4 2 2-5 4-4-2-2 2-1-8-4 1-2-5-4-3v-8l-2-7-12-9-4-8-5 1 4-13v-9l-2-5 1-6 18-80h-60l19 43 3 9-1 2 2 6v7l5 4 1 4h3v6l2 2v12l-2 5-4 3-1-4-5-1-2 8 1 7-4 3-3 11z"/>
  <path id="克拉玛依市" fill="#ff6347" fill-opacity="1" fill-rule="evenodd" stroke="#ffffff" stroke-dasharray="none" stroke-linecap="round" stroke-linejoin="round" stroke-opacity="1" stroke-width="0.5" d="m797 363 3-2-2-6v-9l3-6 9-5 2-6h6l1-2v-16l-4-6-1-5 4-6v-11l4-6 9-2 10-10 9-17 2-15 2-4 18-17 5-2-1-2 5-3 2-4v-5l6-3-3-8-8-7h-8l-2-2-10 1-3-3-8 2-11 6-2 3-4-2-8 7-2 5 3 7-4 2 3 2-3 5-2 10-9 14-7 4-3-1-6 2-4 7-6 3-5-4-2 1 3 6-2 1-6 19-6 7-2 7-4 4v9l8 11-1 12h4l9 5 5 16 5 2v6l-6 2 5 3h5zm9 52-12-5-18-1 2 17-6 17 5-4 11-3 5-15 9-2 4 1z"/>
  <path id="吐鲁番市" fill="#ff6347" fill-opacity="1" fill-rule="evenodd" stroke="#ffffff" stroke-dasharray="none" stroke-linecap="round" stroke-linejoin="round" stroke-opacity="1" stroke-width="0.5" d="m1425 797-1-16-7-12-3-1-1-6 4-2 3-21-4-12-7-20-4-7-5-1v-8l-12-8-4-5 1-6-2-25-4-22 2-7-2-7 1-6-6-33-3-4-6-20 1-5-5-3 2-3-2-5-4-3v-6h-13l-2-3-5 2-6-4-11 2-6-1-5 3h-7l-13-3-3 3-2-2-4 1-4-3h-6l-3-3-11 5h-4v3h-4v2l-4 3-2-2-13 1-1 4-6 2-15-5h-11l-2-5-4-1-1-4-4-3-4 4-3-2-1-5-4-2-13-1-6-4 4 11-4 7v7l-6 3-2 3-8-1-11 5-8 2-2-1v11l-4 2-5 6-7-4-4 2-5-1-3-6v-7l-5-1-15 4-2-2-8 2h-13l-15 5-20-3 3 13-1 7 9 3 10 8h4v5l11 4 9 10 7 4 1 3h-6l-11-9-20-1v8l-3 6 3 2 14 2 13-1 6 8 1 6 3 3 3-1 5 5 9 4 6 8-2 8-5 8-11 6-9 10 2 8 7 13 13 9 7 16 7 6 4 6 1 29-4 2 1 3 8 4 14-2h16l9 4 2 3 15-1 17 8 7-4h10l6 2v2l9-1 5 2 8-2 4 3 8-4 11 2 14 13 26 2 13-2 22 3h11l17-3 33 7 36-10z"/>
  <path id="哈密市" fill="#ff6347" fill-opacity="1" fill-rule="evenodd" stroke="#ffffff" stroke-dasharray="none" stroke-linecap="round" stroke-linejoin="round" stroke-opacity="1" stroke-width="0.5" d="m1389 319-1 8 4 7 2 11-17 20 2 15-11 31 4 13 1 13-3 21 12 13 7 4 1 7 3 6v3l-6 3-12 2 17 8-5 2-2 3-14 2-2 5-11 3-2 7 7 11-2 3 5 3-1 5 6 20 3 4 3 16 3 17-1 6 2 7-2 7 4 22 2 25-1 6 4 5 12 8v8l5 1 4 7 7 20 4 12-3 21-4 2 1 6 3 1 6 12 2 16 14 1 28 12 12 2 3 3 11 1 8-2 11 2 12 4 18 11 14-1 19 5 12 10 11-1 9-12 9-16 16-19 32-29 19-4 11-15 9-7 16-6 2 4 3 2v3l5 11 5 4 3-9 5-6 16-12 10-4 16-3 17-9 7-7 2-9-6-11 9-9-12-13 2-11-8-3 4-5v-8l5-3 3-4 25-16-2-21-40-41-4-6-2-18-11-22-10-33-9-19h-9l-9-3 4-25 3-2 2-5-1-2-38 6-5-5-16-6h-4l-11-14-12-8h-10l-3-9-10-11-6-2-8-6-31-17-1-4-19-9-6 1-6-4-5-1v2l-13-4-7 1-3-2h-12l-4-4-4 2-6-2-9 3-12 1-4 2-8-2-6 1-3-2-7 1-13-8h-27l-10 2-12-1z"/>
  <path id="昌吉回族自治州" fill="#ff6347" fill-opacity="1" fill-rule="evenodd" stroke="#ffffff" stroke-dasharray="none" stroke-linecap="round" stroke-linejoin="round" stroke-opacity="1" stroke-width="0.5" d="m1312 268-16 9-18 32-4 11-3 3 2 8h-204l-18 80-1 6 2 5v9l-4 13 5-1 4 8 12 9 2 7v8l4 3 2 5 4-1 1 8 2-2 4 2 5-4-2-2 4-4 3 6 2-2 7 1 4-2 5-6 1 7h7l2 5h6l3 3-2 4 12-2 9 11 6 4 13 1 4 2 1 5 3 2 4-4 4 3 1 4 4 1 2 5h11l15 5 6-2 1-4 13-1 2 2 4-3v-2h4v-3h4l11-5 3 3h6l4 3 4-1 2 2 3-3 13 3h7l5-3 6 1 11-2 6 4 5-2 2 3 10 1 3-1 1-4 11-3 2-5 14-2 2-3 5-2-17-8 12-2 6-3v-3l-3-6-1-7-7-4-12-13 3-21-1-13-4-13 5-12 1-10 5-9-2-15 17-20-2-11-4-7 1-8-6-8h-2l-5 6-3-2-9-1-4-3-2-5-4-2-7 1-4-2-12 4-1-3 3-5-2-4-7-2 1-4-4-13zm-280 123-4-17-19-43v-42H857v53l10-1 8 8 2 6 5 7-4 3 5 13h3l3 4 4 1 2 14 4 3-1 12 2 6-2 7 1 7-3 11-12 16v9l-4-1-4 2-9 10v10l-4 4-2 12-2 2h-3l-7 10 6 2 4 5h3l11 6 1-1 7 2 5 3 9-3 3 7 3 2 1 6 7 3 5 5 8 2 9 11 15 5 4-2 4 2 6-1 4-6-3-2 4-5 3-11 3-3 1-5-3-4v-4l6-6 3-7 9-8 16-26-1-15 2-5 9-11 7-4 4 2-1-6 3-15-5-7 2-2-6-7v-7l2-4-7-16 13 2-1-6 4 2z"/>
  <path id="博尔塔拉蒙古自治州" fill="#ff6347" fill-opacity="1" fill-rule="evenodd" stroke="#ffffff" stroke-dasharray="none" stroke-linecap="round" stroke-linejoin="round" stroke-opacity="1" stroke-width="0.5" d="m538 368-1-7 3-3-1-2-11 6v-2l-6 2 1 2-5 8 3-1 3 2v6l-3-1-2 7 2 2h9v7l-9 4 2 3-9 3-6-1-8 12 3-1 5 4 18 5 4-1 8 4 11 2 7-3 3 7 4 4 21 9 3 5 7-2 11 4 4-3 16-2 11 3v4h2l4 4h11l4-4-6-16 4-11-1-4 4-4v-7l4-6-1-6h25v-7l-4-4 4-26-6-6-2-7-4-4-6-1-2-5-5-1-4-4-35-7-8-3-22-13h-7v2l-6 3-3 10 7 12 2 9 5 2v4l-6 4v3l-7 6-5 2v3l-8-1-5 3h-4l-9-3-6 4-3-1-2 4-5-1v-3l4-2zm-2-23-1-4-6-1-2-5-5 1-5-6 11-4 7 1 6 6 7-5v-8l2-2-6-3-6-13-5 2-1-5-4-1-6 3h-6l-12-19-6 3-3-1-10 4-1 4h-3l-1 3-7 2-4-2-2 3h-5l-4 3-5-1-5 2-1 2-5-1-3 5-10 2-6 5h-4l-12-6v2l-4 4-8 3-7-1-2-2-5 4-3 6-5 1-2-4-4 1-3 4-5 1-4-4-4 1-20 18 7 4-1 4 4 3v4l10-3 5-4 2 3h4l3-2 4 4 4 1 4 4 8 4 9 2 5-1v3l5 4-3 5 4 5 4-2 11 6 2 5 10-1 4 4h6l9 5 13 3 10-1 12 4 2-1 3 5 5-1 1 4 3 2 8-12 6 1 9-3-2-3 9-4v-7h-9l-2-2 2-7 3 1v-6l-3-2-3 1 5-8-1-2 6-2v2l11-6 1 2-3 3 1 7 2-5 5 4 3-3-6-10-6-1-2 3-4-4 2-2 3 2 3-3-7-2-1-2 5 1zm12 19-3 3-1 5 2-1 9 3-1-3 5 3 5-3 8 1v-7h-4l-14-8h-3l-4-4-5 1 5 7zm-13-23 1 4 7 1 5 3 7-5 13 2v-2h4l11-5-12-19-7 3-1 8-15-3-7 5v9zm41-38-9 5-13-5-4-3-12 2 6 13 20 8 7-3 5 7 3-10 6-3v-2z"/>
  <path id="巴音郭楞蒙古自治州" fill="#ff6347" fill-opacity="1" fill-rule="evenodd" stroke="#ffffff" stroke-dasharray="none" stroke-linecap="round" stroke-linejoin="round" stroke-opacity="1" stroke-width="0.5" d="m877 730-9-1-5 9 3 3 1 8h-5l-2-2v-8h-32l1-10 12-5 2-6-23-6v-8l7-9-1-9-3-4h-3v-9l-10 1-4-3-8 1-11-8h-5l-1 4-6 2-1-6-14-4-10-5-16-1-8 2-7-4-3-4-11-2-5-3-1 19 3 2 1 8-3 3-6 1v9l4 5 1 9 5 17-2 7v8l-4 5-2 10v11l1 4 4 1-1 4 3 2 3 8 2 11v22l5 6-3 5 2 19-6 106-6 9-48 56-2 19-1 40v70l11 12 22 19 6 8 11 25 5 25-1 23-8 7-3 7-6 5 6 15-3 17 3 11-2 4 7 8h7l9 8h7l3 4 9 5 4 8v6l-2 1-1 7 4 3-1 3 2 6 4 1 1 3 11 1 3 5 4 1 2 3 3 1 1 4 8 5h7l2 13-1 5 5 10v9l7 5 6-3 9 1 11-5 6 4 3 6 13 3 4 4 5-1 3-9 14-6h13l8-7h2l6-10 1-5 4-3 2-5-2-3 1-6 5-1 3-4 8 1 3-5h11l1-2 16-2 4-5 10-1 3 4h4l6-5 5 1 3-2 6 2 4-6 9-1 5-4 1-3 6-1 3 2 1 7 9 1 15-5 3 1 14-2 5-5 14 1 5-3 3 1 2-2 11 1 1-3h9l2 4 7-2 4 4 1 5 6 2 3 5 5 4 2-5 11-4 2 4 14 6 3 3 6-1 3-4 6 8h7l11 9 24 8 6-1 11 2-1-7 7-6 2-9 10 3-1 2 11 7 21 3 4-2 8 2 4-1 11 6 3 6 3 2 7-2 4-7 3-2 8 3 3-3-3-6 1-6-4-2 2-7-5-3 3-12-2-1v-10l-11-4-7 1-2-4h-7v-5l-3-3 2-6 3-1-3-4 1-8 5-2 2-4 6-5 10 1 4-2 2-4h5l2-5 5-2 3 2h8l-2-4 2-4-2-3v-6l-9-5 1-8-6-6-3-14-4-4h-10l-3-4-4-1 1-6-9-8-12-6h-6v-2l-6-1 1-68-15 2-1 8-6-1-13-12 3-6-6-3v-6l2-3 11 1 6-2 3 3 7-2 3-3v-4l7-1 10-9-3-3 3-1 7 2 10-1 32-7 6-3 4 1 14-8h5l17-6 17-2v-2l10-5 17-2 2-3 5-2 15-1-6-9 1-1-2-6v-11l4-2 13-13 10-17 10-42 5-34 10-19 2-31 52-9 23-2 6-16-1-10-11 1-12-10-19-5-14 1-18-11-12-4-11-2-8 2-11-1-3-3-12-2-32-13h-23l-12 5-17 4-33-7-17 3-33-3-13 2-26-2-14-13-11-2-8 4-4-3-8 2-5-2-9 1v-2l-11-3-5 1-7 4-17-8-15 1-2-3-9-4h-16l-14 2-8-4-1-3 4-2-1-29-4-6-7-6-7-16-13-9-7-13-2-8 9-10 11-6 5-8 2-8-6-8-9-4-5-5-3 1-3-3-1-6-6-8-13 1-14-2-8-3-1 3-4-2-2 3-9-1-5 4-3-3-2 3h-14v9h-3v4l2 2-4 3v3l4 10 4 3-2 3-9 1 1-3-2-2-7 4 1 2-9 2-12 14 2 1v8h3l6 7-4 4 1 4-8 8-3 1 1 8-4 5h-4l2 9-8 2-3-3-7 5-21 3-1 3-18 1-1-2zm-296-96 8 1 2-4 7-2 1 4-2 4 2 1 8-3 3-5 3 2 2 4 6 4 14-4 6 4 2-2 3 4v4l12 4 15-5h4l2-3 18 2 3-1 5 3 11 2 3 4 7 4 8-2 16 1 10 5 14 4 1 6 6-2 1-4h5l11 8 8-1 4 3 10-1v9h3l3 4 1 9-7 9v8l16 4 4-32 14 8 7 6 4 1-1 4 10 3h13l1 6 9 8 10-1 13 10 4-4 3 3 8-2-2-9h4l4-5-1-8 3-1 8-8-1-4 4-4-6-7h-3v-8l-2-1 12-14 9-2-1-2 7-4 2 2-1 3 9-1 2-3-4-3-4-10v-3l4-3-2-2v-4h3v-9h14l2-3 3 3 5-4 9 1 2-3 4 2 1-3 5 1 3-6v-8l-4-4-8-3-12-8-15-4v2l-5 3-12-4-1-3-10-4-6 1-4-2-4 2-15-5-9-11-8-2-5-5-7-3-1-6-3-2-3-7-9 3-5-3-13-3-6-4h-3l-4-5-5-1h-7l-3 4-5 3-9-1-1-6-3 4-4-3-7 2-1-5-9-2-7 11-3-1-2 7-8-1-5-4-6 2-5-5-3 8 6 3-6 8-7 1-2 5 1 4 4-1-2 5h4l4 7-7 1-3 2-3-2h-8v8l-5-5v-2l-8-2-22 3 1 2-7-3-5 4-10-1-4-2-4 1-3 5-5 3-6-2v2l-5 2-9 1-4 3-4-2-5 3-10 2-2 2-11-2-11 2-3 2-3-1v3l-3 3-7-2-6 2v6h-7l-4-2-2 5-3 2 1 5 10 10 4 9-2 4zm287 95 28 4 24-4-13-10-10 1-9-8-1-6h-13l-10-3 1-4-4-1-7-6-14-8-4 32 29 10z"/>
  <path id="阿克苏地区" fill="#ff6347" fill-opacity="1" fill-rule="evenodd" stroke="#ffffff" stroke-dasharray="none" stroke-linecap="round" stroke-linejoin="round" stroke-opacity="1" stroke-width="0.5" d="m192 948 16-6 6-8 14-7 4-5 9-3 9 4 13-4h9l23 5 8 4 23 6 3-2 4-29-6-6-3-6h4l7 5 4-5 4-1v-11l2-6 2 1 2-8-4-16 8-7 8 1 2 7-1 5 3-5 6-3 6 3 14 16v4l3-1 1 5 12-9 6-1 7 6 11-6 14 1 17-8-1-5 6-2 6 2 37-17 2 1 16-23 11-5 11-8 6-2h8l6-9 6-2 2-14h3v-5l8 4 8 1 3-2 12 8 3 4 2 11 3 5 3 3h4l14 12 8-2 5 8 4-1-1-7 11-2 2 5 6 5-1 4 2 2 5-1 3 2-1 4 7 3v10l4 5 16 6 1-17-2-19 3-5-5-6v-22l-2-11-3-8-3-2 1-4-4-1-1-4v-11l2-10 4-5v-8l2-7-5-17-1-9-4-5v-9l6-1 3-3-1-8-3-2 1-19-3 1-18-2-2 3h-4l-15 5-12-4v-4l-3-4-2 2-6-4-14 4-6-4-2-4-3-2-3 5-8 3-2-1 2-4-1-4-7 2-2 4-8-1-2 5-3 2-16-1-4 2v4l-6 3-6-2-4 4-4-3-1 6h-5l-1 2h-8l-2 3-8-1v3h-5l-1-3-5 5h-7l-1-3-14 5h-11l-3 2-3-3-3 3-8-1-4 2v8l-5-4-5 1-2-7-4-5-2 3-5-1-9 3-4-2-9-1-3 2-3-2-6 1-5 5-5 2-4-3-8 1v10l-5 3-6 1v6h-3l5 9-4 6-5-2-15 1-7 3 1 4-8 11-12 1-3 5-18 1-5 5-3-2-9 10-8 1-2 3-6 2-2 3-6 1-12 11h-8l-4 2 1 3-5 6-6-2-12 9h-6l11 12 19 15 4 12 6 11 4 1-2 9 1 3-6 3-4 5-16 7v8h3l-2 7-6 10-29 16-4 4v7l-6 7-3 8v8l-2 5 5 4 20-1zm203-73-1-5-3 1v-4l-14-16-6-3-6 3-3 5 1-5-2-7-8-1-8 7 4 16-2 8-2-1-2 6v11l-4 1-4 5-7-5h-4l3 6 6 6-4 29-3 2 2 14-2 4 2 2-1 6-3 3-5 31 37 19 81-3h215l48-56 6-9 5-89-16-6-4-5v-10l-7-3 1-4-3-2-5 1-2-2 1-4-6-5-2-5-11 2 1 7-4 1-5-8-8 2-14-12h-4l-6-8-2-11-3-4-12-8-3 2-8-1-8-4v5h-3l-2 14-6 2-6 9h-8l-6 2-11 8-11 5-5 6-11 17-6 15-7 10 8 5 11 23 3 3-20 4h-44l-6 5h-19l-2-3-4-1-18 7-5-1-7-5 2-5h5l-2-3 1-3 5 3v4h7l2-3h-3l-1-3-4-3-4 1 1-3-3-3-5 2z"/>
  <path id="克孜勒苏柯尔克孜自治州" fill="#ff6347" fill-opacity="1" fill-rule="evenodd" stroke="#ffffff" stroke-dasharray="none" stroke-linecap="round" stroke-linejoin="round" stroke-opacity="1" stroke-width="0.5" d="m192 948-5-7-20 1-5-4 2-5v-8l3-8 6-7v-7l4-4 29-16 6-10 2-7h-3v-8l16-7 4-5 6-3-1-3 2-9-4-1-6-11-4-12-19-15-11-12-6 3-8-2-6 2v5l-4 14-14 7-6-2-6 4-3 4 2 7-4 5-4-1-5 3-3-1-5 3-5-2-6 1v-3l-5-2h-5l-6 4-4-2-8 1-7-6-8-1-6 5h-5l-3 6-8 3-2 5-1 11-3 5-4 2 2 8-2 5 1 4-4 2-6 8-1 9-9 9h-6l-4 5v-5l-5-3v-3l-10 7-2-2-9 1v4l-6-3-4 5-1 6-9-5-11 6-3-10 1-7 5-5-9-6v-13l-4-4h-3l-12 11-7 3-6 7h-2l-2 4-10-2-3 3-7-3h-6l-10-7-3 2v5l-2 2 10 13-4 1-4-2h-11v4l-3 5-4-1-4 2-13 16-7 5-4-2-3 1-1-4-13 3-3 3-6-1-2 5-6 3 4 2-6 8-1 7-5 5-1 9 8 4 2 15-3 1-4 12-12 3-8-2-4 1-1 7-8 4 4 3-1 9 3 4 6 2 1 7 3 1 5 15 7-2 3 9-2 6-6-3-2 1-4 9 3 2 4 8-1 6 4 10-1 3 5 3h4l3 5 8 2 2-2h5l-2-5 4-4 3-7 33 5 3 3 6 2 3-1 7 7h6l3 6h4l1 10-7 9 1 5 8 2 5-1 3 3 12-3 7 9 8-1 11 11-1 8 3 8-1 5 5-1 9 2 9 5 6-3 2 1 3-2v-3l9 1v6l-3 2 1 3-6 11 1 10 6-3 6-7h8l7-4 6-1 4-4 5 10 2-1 3-9 6-1v-5l2-1 2 2 5 1 1-2-3-7 4-5v-5l3-5v-8l5-11 1-21-1-3-13-8H8l5-5v-8l-10-2-13 2 1-5-11-9v-3l-5-1-1-4-3-1-3-8-13-9 15-10 1 3h11l8-3-1-5-8-9v-3l9-2 1-4-10-1-4-3-5-1-6 1-4 6v3h-6l-2 5-4 2 6 4-1 11-9 5-9-1-1-2 3-8v-6l8-14 1-5 5-4-9 2v3l-5 5-1-3-6 2-3 6-11 3-5-22v-9l2-6 3-1 3-4-3-6 1-4-2-4 2-4h6l3-3 6 3h11l5 5-1 2 26 1v-3l21-1 8 4 13 2 10-2 4-3v-2l4-2 17-17 1-4 17-2 3-2 14 1 8-2 19-1 2-6 21-5 3-2h20l5 2 21-5z"/>
  <path id="喀什地区" fill="#ff6347" fill-opacity="1" fill-rule="evenodd" stroke="#ffffff" stroke-dasharray="none" stroke-linecap="round" stroke-linejoin="round" stroke-opacity="1" stroke-width="0.5" d="m-132 1151-1 1 2 7v13l6 9 4 1-1 12 2 4-2 3 7 6 1 3-7 6-3 6 3 11 10 8 4-1 7 11-3 4v6l-18 6-1 5-9 2-6-8h-2l-6 5-2-3-4 1-2 3-3-2-3 1-3 5 1 4-2 2 3 3v5l3-1 3 6 5-2 1-2 7-2 3 6h5l1-3h4l-1 4 5 9h4l-1-4 7-2 3-3 2 2 10-1v2l7 3 4-1 11 2-1 6 3 4-1 10 3 7 5-3 3 2v-5h8l9 3 13 9 7 9-2 3 6 6 4 11-4 8 6 10v3h-4v7l-7 3 1 8 2 3 4 2h8l1 5 5 8-2 8 7 1 7-2 6 2v-4l6 1 5-4 3 1 3-4 4 2-3 9 3 5 9 3v3l5 4 1 3 7-1 7 6 5 2 3-2 6 2 2 3 10 5 10-2 6 7 7 2 11-2 6 3 2-3 3 3 3-1 3-4 3 1 2-3-3-4 3-6 3-1v-8l-2-3v-4h2l-1-7h4l-3-12 4 1 3-3-5-7-6-4-6-1-1-7 6-1v-2l6-6 5-2-9-11-8 2-11-9 2-3-5-7-8-5h-6l-1-6 9-2 2-5h5l-1-3 4-1 3-3-14-14 1-6 2-2-1-8h8l3-5 1-9 3-8-2-2-2-14-4-4 4-6 2-10v-16l3-1 5-10 23-33 46-53 66-44 9-1 5-3 16 5 3-5 2-10 11-66-50-29-7 1-2 4-8 3v4l-15 1-4-5-8 1v-5l-3-1-1-4 11-11-1 8 3 2-2 6 2 4 3-6h4l-1-7 3-2h8l1-2-5-1-4-3 3-3 5-1-4-5 4-2 1-5 3-1-2-5 3-2 15-3-6-23-13 4-9-4-9 3-4 5-14 7-6 8-16 6-14 1-13 4-5-2h-20l-3 2-21 5-2 6-19 1-8 2-14-1-3 2-17 2-1 4-25 24-10 2-13-2-8-4-21 1v3l-26-1 1-2-5-5h-11l-6-3-3 3h-6l-2 4 2 4-1 4 3 6-3 4-3 1-2 6v9l5 22 11-3 3-6 6-2 1 3 5-5v-3l9-2-5 4-1 5-8 14v6l-3 8 1 2 9 1 9-5 1-11-6-4 4-2 2-5h6v-3l4-6 6-1 5 1 4 3 10 1-1 4-9 2v3l8 9 1 5-8 3h-11l-1-3-15 10 13 9 3 8 3 1 1 4 5 1v3l11 9-1 5 13-2 10 2v8l-5 5h10l13 8v24l-5 11v8l-3 5v5l-4 5 3 7-1 2-5-1-2-2-2 1v5l-6 1-3 9-2 1-5-10-4 4-6 1-7 4h-8l-6 7-6 3-1-10 6-11-1-3 3-2v-6l-9-1v3l-3 2-2-1-6 3-9-5-9-2-5 1 1-5-3-8 1-8-11-11-8 1-7-9-12 3-3-3-5 1zm399-169 50 29 5-38 2-10 3-3 1-6-2-2 2-4-2-14-23-6-8-4-23-5h-9l6 23 25-4 8 10 3 12-7 6-11-4-12 2 2 4-1 3 3 2-7 2v6z"/>
  <path id="和田地区" fill="#ff6347" fill-opacity="1" fill-rule="evenodd" stroke="#ffffff" stroke-dasharray="none" stroke-linecap="round" stroke-linejoin="round" stroke-opacity="1" stroke-width="0.5" d="m379 1380 36-1 20 3 1-6v7l21 13 5-32 2-3 4 15 4 7-1 11 4 4-1 7 3 5-7 15-4 5v4l3 4-1 6 6 7 10 2 1 7v12l-6 17-2 2 2 6h14l6-3 6-1 5 2 6-2 3-4h3l5-3 1-2-3-8 2-3 21-11 5-1 2-6-2-4 6-1 3-6 3-1 4 2 4-1 7 2 9 6 6-5 7-1 2 2h6l2 8-1 6 3 7 6 3 5 7 5 1 6-3 3 2 24 4v2l5-1 2 2 6-3 10 1 8-2 2-3 9-3 7 3 2 4 4-2 2 2 26-12 2-6-2-3 23-8 2 1 24-13-7-5v-9l-5-10 1-5-2-13h-7l-8-5-1-4-3-1-2-3-4-1-3-5-11-1-1-3-4-1-2-6 1-3-4-3 1-7 2-1v-6l-4-8-9-5-3-4h-7l-9-8h-7l-7-8 2-4-3-11 3-17-6-15 6-5 3-7 8-7 1-23-5-25-11-25-6-8-22-19-11-12v-70l1-40 2-19H437l-81 3-37-19-13 83-2 10-3 5-16-5-5 3-9 1-66 44-46 53-11 17 43 15v-5l17-7v25l60 42 1-3 4-1v-20h11v3l-3 2 2 2v3l24-17 3-9 3-1v5l8-7 3 1v4l6 7 7-10 6-2 7-7-1-2 4-5h3l3-5-1-2 7-5 4-10 7-5 5-11 6-1 5-5 2 2-5 10-5 1 2 4-4 8 3 7-5 23-40 24-1 7-5 8 1 2 8-1 3-4h4l1 7-9 9 3 2-3 1-3 8-3 1-1 7-3 4-1 5 7 9h7l4 2 3 5-2 5 12 16 1 6 4-1 3 7-2 1 2 8-3 1-4 9zm-49-136 1 2-7 11-1 7-3 2-17-5-1-6 4-2 2-3-1-6-24 17 1 17-11-4v2l-5-1-60-42-2 2-3-2v-5l-4-3-10 4 2-9-43-15-12 16-5 10-3 1v16l-2 10-4 6 4 4 2 14 2 2-3 8-1 9-3 5h-8l1 8-2 2-1 6 14 14-3 3-4 1 1 3h-5l-2 5-9 2 1 6h6l8 5 5 7-2 3 11 9 8-2 9 11-5 2-6 6v2l-6 1 1 7 6 1 6 4 5 7-3 3-4-1 3 12h-4l1 7h-2v4l2 3v8l-3 1-3 6 3 4 9 6v-3h9l2 2 1-2 9-1-4 7-8 8v15l4 5v8h6l2 5-2 3 3 5 4 2-2 4 3 6h2v12l-2 7h4l2 10 14 3v5l6-3 6 2v5l2 1 3-3 8 1 5 5-2 3 11 4 3 7 6-4 1 3 6 3 1-2-3-5 4-3 2 1 7-3 7 3 9-3 3 2 13-3 3-3 4 3h8l2-3h10l5-5-1-4 3-9-1-3 3-2v-5l4-10-2-3 6-1 1-4 3-1v-15l4-4 4 1 10-9-1-3 3-3 10-1-9-10 3-9 7-1 4-6 2 3 7 3h4l3-2 6 1 3 4v3l14-1 10 4h6l1-8 6-3 4 5h4l3 5 6-3 2 1 5-2 2 2h5l5 5 2-2 6-17-1-19-10-2-6-7 1-6-3-4v-4l4-5 7-15-3-5 1-7-4-4 1-11-4-7-4-15-2 3-5 32-22-14-20-4-36 2-16-3 4-9 3-1-2-8 2-1-3-7-4 1-1-6-12-16 2-5-3-5-4-2h-7l-7-9 1-5 3-4 1-7 3-1 3-8 3-1-3-2 9-9-1-7h-4l-3 4-8 1-1-2 5-8 1-7 40-24 5-23-3-7 4-8-2-4 5-1 5-10-2-2-5 5-6 1-5 11-7 5-4 10-7 5 1 2-3 5h-3l-4 5 1 2-7 7-6 2-5 6zm-16 11 10 2 7-11-7-9h-3v-5l-8 7-1 8-4 3-3 6zm6 11 3-2 1-7-12-2-7 1-2 3v2l16 5zm115 114z"/>
  <path id="伊犁哈萨克自治州" fill="#ff6347" fill-opacity="1" fill-rule="evenodd" stroke="#ffffff" stroke-dasharray="none" stroke-linecap="round" stroke-linejoin="round" stroke-opacity="1" stroke-width="0.5" d="m791 524-4-5-1-7h-6l-4-8-7 2-10-5 4-7-8-3h-4l-1 2-5-1-4 2-3-3-2 3-5-1-3-7-2 2-13-7 2-4h-2l-2-3h-3l-5-4-4 2-4-7-8 2-6-1-5-5-6 2-4-5-7 1 1-3-3-2-4 4h-11l-4-4h-2v-4l-11-3-16 2-4 3-11-4-7 2-3-5-21-9-4-4-3-7-7 3-11-2-8-4-4 1-18-5-5-4-3 1-3-2-1-4-5 1-3-5-2 1-12-4-10 1 1 5-3 3v4l6 8-3 4 1 2h-8l-4 4-3 8v6l-6 6-2-1-1 7-3 4-1 8h-8l-7-5-9 2-1 3 7-1 4 3h6l3 2 5-3 5 3-8 3-16-2-9 2-2-5h-2l-4 6 5 4 4 1-1 2 2 11-14 5 11 21 1 6-2 7-5 7 1 2 7 1 3 16-1 5-4-1-2 2-6-2-6 2-10 8-10 5 10 10 10 3 1 4-9 1-7 3v2l-7 2h-9v5l-3 9 1 3-5 3-1 5 5 11 4 4-5 4v5l3 5-1 4 5 5 8-1 4 3 5-2 5-5 6-1 3 2 3-2 9 1 4 2 9-3 5 1 2-3 4 5 2 7 5-1 5 4v-8l4-2 8 1 3-3 3 3 3-2h11l14-5 1 3h7l5-5 1 3h5v-3l8 1 2-3h8l1-2h5l1-6 4 3 4-4 6 2 6-3v-4l4-2 16 1 3-2 2-5-2-2 2-4-4-9-10-10-1-5 3-2 2-5 4 2h7v-6l6-2 7 2 3-3v-3l3 1 3-2 11-2 11 2 2-2 10-2 5-3 4 2 4-3 9-1 5-2v-2l6 2 5-3 3-5 4-1 4 2 10 1 5-4 7 3-1-2 22-3 8 2v2l5 5v-8h8l3 2 3-2 7-1-4-7h-4l2-5-4 1-1-4 2-5 7-1 6-8-6-3 3-8 5 5 6-2 5 4 8 1zm-352-61 3-4 1-7 2 1 6-6v-6l3-8 4-4h8l-1-2 3-4-6-8v-4l3-3-1-5-13-3-9-5h-6l-4-4-10 1-2-5-11-6-4 2-4-5 3-5-5-4v-3l-5 1-9-2-8-4-4-4-4-1-4-4-3 2h-4l-1 4 4 8 8 3 9 12-5 17 3 10 2 18-1 17 4 5 7 2 1 5 5 2-3-11 1-9 7-1 6 6-3 4 6 11v12l-2 4 7-2 1-3 9-2 3 2 5-8zm367-48 6 3 3-20 4 1-2-10 1-6-4-5-12 1-5 7-14 3v7l-5 7-2 6 18 1zm-408 75h4l-1-3-8-1z"/>
  <path id="塔城地区" fill="#ff6347" fill-opacity="1" fill-rule="evenodd" stroke="#ffffff" stroke-dasharray="none" stroke-linecap="round" stroke-linejoin="round" stroke-opacity="1" stroke-width="0.5" d="m765 318 1-7-8-11v-9l4-4 2-7 6-7 2-9 4-10 2-1-3-6 2-1 5 4 6-3 4-7 6-2 3 1 7-4 9-14 2-10 3-5-3-2 4-2-3-7 2-5 8-7-10-5-17-4-10-9-6-10v-6l-2-4 1-8-7-7-3-1-9-11 4-7 3-14 11-8 6-1-9-13-5-2-4-5-7 2h-10l-5 3-7-5-5 2-16-1-10 5-8-3h-5l-1 2-5-1-10-6-7 1 1-2-12-4-10-9-4 1-4-8-4 2-2-2-5 1-3-2-1-3-5-3-12 3 1 6-4 15-5 5-5 29-5 4-9 36-19 45-5 23-6 1-5 5-1 7 2 8-1 6-5 8v8l-2 4 1 11 25 14 5 11-2 16 9 9h7l22 13 8 3 35 7 4 4 5 1 2 5 6 1 4 4 2 7 6 6-4 26 4 4v7h-25l1 6-4 6v7l-4 4 1 4-4 11 6 16 3 2-1 3 7-1 4 5 6-2 5 5 6 1 8-2 4 7 4-2 5 4h3l2 3h2l-2 4 13 7 2-2 3 7 5 1 2-3 3 3 4-2 5 1 1-2h4l8 3-4 7 10 5 7-2 4 8h6l1 7 4 5 3 1 7-11 9 2 1 5 7-2 4 3 3-4 1 6 9 1 5-3 3-4h7l-1-1 7-10h3l2-2 2-12 4-4v-10l9-10 4-2 4 1v-9l12-16-3-4h-7l-3-19-5-3 1-12 9 2 3-5h7l1-2-4-3-2-14-4-1-3-4h-3l-5-13 4-3-5-7-2-6-8-8-10 1v-53h-39v5l-4 6 1 5 4 6v16l-1 2h-6l-2 6-9 5-3 6v9l2 6-3 2 3 2 1 5-3 2v8l16-2 4 5-1 6 2 10-4-1-3 20-6-3v5l-4-1-9 2-5 15-11 3-5 4 6-17-2-17 2-6 5-7 2-17-7-7-2 2-14-16h2v-9l-1-9-3-8-7 3-1-2 4-12-2-2v-7h11zm53-29h191v-88l-28-66 15-28V89l-12-11-3-5V53l-41 9-8-1v-4l-11 1-16 6-11 2-7-6-4-1-14 3-33-1-10 2-5-3-6 4-3 6-6 3-3 4-8 3-1 5-3 3-6 1-11 8-3 14-4 7 3 5 16 14-1 8 4 15 14 14 17 4 14 7 2-3 11-6 8-2 3 3 10-1 2 2h8l8 7 3 8-6 3v5l-2 4-5 3 1 2-5 2-18 17-2 4-2 14-9 18-10 10-9 2-4 6z"/>
  <path id="阿勒泰地区" fill="#ff6347" fill-opacity="1" fill-rule="evenodd" stroke="#ffffff" stroke-dasharray="none" stroke-linecap="round" stroke-linejoin="round" stroke-opacity="1" stroke-width="0.5" d="m1108 35-4-1-7-7 1-19 3-9 5-4 1-8 4-9 5-4 1-9h9l-6-3 2-4-3-3 1-4-6-5-6 1-4-5 10-8-2-12 15-12-4-6-2-7 3-8-3-5h-3l-3-6-6 3-7-6v-3l-10-5h-5l-9-7h-5l-8-7 6-4v-4l6-6v-3l-2 1-3-5-7-3-2 2-6-6h-4v-4l-4-6-3-1 1-6 5-3 6-1-1-2 4-2-3-2v-4l-4-4 3-8-2-5h-2v-4h-11l-2 2-15 2-2 2 1 4-6 4-5-3-13-3-3-3-9-2-2 3-8-2-4 2h-7l-3 4-1 7-6 3-4 10 3 9 6 7-6 5 2 10-8 13-5 1-5 12-16 9-3-2-7 1-2 5-5 3-15-2-20 2-7 3-4 6-8 22-3 1-6 20 2 6 6 61-1 6 7 11 2 6-3 8 3 5-2 9-9 10-4 12h24l14-3 4 1 7 6 11-2 16-6 11-1v4l8 1 41-9-2-22 1-2 12-6 21-7 4-5 10 1 4 3-2 7h19l-1-4h4l3 4 2-2 1 3-4-1 3 5 4-3 33 13 4-2 3 2zm19-125-15 12 2 12-10 8 4 5 6-1 6 5-1 4 3 3-2 4 6 3h-9l-1 9-5 4-4 9-1 8-5 4-3 9-1 19 7 7 4 1v3h-8v8l-6 6-9 2-9-2-2-2h-5l-8-4-2 2-9-3-11-11-7-3-6-7 3-2 2-7-3-2-5 3-1-2 5-2-10-1-4 5-21 7-12 6-1 2 2 42 3 5 12 11v18l-15 28 28 66v130h264l-2-8 3-3 4-11 18-32 16-9 4-31 12-21 17-17-2-6 1-7-7-13 1-2-5-10 8-9 4-16 4-8-1-3h-4l3-18-3-6-7-8 1-8-2-1-3-9-6-5h-6l-17-27-2-1-4-11-3-4 4-8-2-3-3-1V3l-7-7-4-12 3-1-5-5-10-3-2-3h-6l-5-7-1-6 2-6-12-3v6l-2 1h-16l-2-8-8-3v-4l-4-2v-7l-3-4-7 2-8-1-2-2-2 3-5 1-2 3-5 2-7-2-7 1-13-18-10 2-2-4-7-3-2-3z"/>
  <path id="石河子市" fill="#ff6347" fill-opacity="1" fill-rule="evenodd" stroke="#ffffff" stroke-dasharray="none" stroke-linecap="round" stroke-linejoin="round" stroke-opacity="1" stroke-width="0.5" d="M898 402h-7l-3 5-9-2-1 12 5 3 3 19h7l3 4 3-11-1-7 2-7-2-6z"/>
  <path id="阿拉尔市" fill="#ff6347" fill-opacity="1" fill-rule="evenodd" stroke="#ffffff" stroke-dasharray="none" stroke-linecap="round" stroke-linejoin="round" stroke-opacity="1" stroke-width="0.5" d="m512 837-2-1-37 17-6-2-6 2 1 5-17 8-14-1-11 6-7-6-6 1-12 9 2 8 5-2 3 3-1 3 4-1 4 3 1 3h3l-2 3h-7v-4l-5-3-1 3 2 3h-5l-2 5 7 5 5 1 18-7 4 1 2 3h19l6-5h44l20-4-3-3-11-23-8-5 7-10 3-9z"/>
  <path id="图木舒克市" fill="#ff6347" fill-opacity="1" fill-rule="evenodd" stroke="#ffffff" stroke-dasharray="none" stroke-linecap="round" stroke-linejoin="round" stroke-opacity="1" stroke-width="0.5" d="m267 982 5-1v-6l7-2-3-2 1-3-2-4 12-2 11 4 7-6-3-12-8-10-40 7-3 2 2 5-3 1-1 5-4 2 4 5-5 1-3 3 4 3 5 1-1 2h-8l-3 2 1 7h-4l-3 6-2-4 2-6-3-2 1-8-11 11 1 4 3 1v5l8-1 4 5 15-1v-4l8-3 2-4z"/>
  <path id="五家渠市" fill="#ff6347" fill-opacity="1" fill-rule="evenodd" stroke="#ffffff" stroke-dasharray="none" stroke-linecap="round" stroke-linejoin="round" stroke-opacity="1" stroke-width="0.5" d="m1024 451-1 7 3-11 4-3-1-7 2-8 5 1 1 4 4-3 2-5v-12l-2-2v-6h-3l-1-4-5-4v-7l-4-6-4-2 1 6-13-2 7 16-2 4v7l6 7-2 2 5 7-3 15z"/>
  <path id="北屯市" fill="#ff6347" fill-opacity="1" fill-rule="evenodd" stroke="#ffffff" stroke-dasharray="none" stroke-linecap="round" stroke-linejoin="round" stroke-opacity="1" stroke-width="0.5" d="m1029 22-3 2 6 7 7 3 11 11 9 3 2-2 8 4h5l2 2 9 2 9-2 6-6v-8h8v-3l-8 2-3-2-4 2-33-13-4 3-3-5 4 1-1-3-2 2-3-4h-4l1 4zm-2-10-5 2 1 2 5-3z"/>
  <path id="铁门关市" fill="#ff6347" fill-opacity="1" fill-rule="evenodd" stroke="#ffffff" stroke-dasharray="none" stroke-linecap="round" stroke-linejoin="round" stroke-opacity="1" stroke-width="0.5" d="m843 718-2 6-12 5-1 10h32v8l2 2h5l-1-8-3-3 5-9-3-3zm53 15-19-3-1 5 1 2 18-1zm-60-17-3-1z"/>
  <path id="双河市" fill="#ff6347" fill-opacity="1" fill-rule="evenodd" stroke="#ffffff" stroke-dasharray="none" stroke-linecap="round" stroke-linejoin="round" stroke-opacity="1" stroke-width="0.5" d="m542 354 5-1 4 4h3l14 8h4v4l5-2 7-6v-3l6-4v-4l-5-2-2-9-11 5h-4v2l-13-2-7 5-5-3-13-1 1 2 7 2-3 3-3-2-2 2 4 4 2-3zm-1-21-6-6-7-1-11 4 5 6 5-1 2 5 12 2 1-3zm3 39 1-5-5-4-2 5-8 6v3l5 1 2-4 3 1zm15 2-5-3 1 3zm5-51-14-5-2 2v8l15 3z"/>
  <path id="可克达拉市" fill="#ff6347" fill-opacity="1" fill-rule="evenodd" stroke="#ffffff" stroke-dasharray="none" stroke-linecap="round" stroke-linejoin="round" stroke-opacity="1" stroke-width="0.5" d="m381 448 2 5-1 8 3 3-1 3 3 4 1 11 6 12 4-4-5-4 8 1 1-8 6-10v-12l-5-6-1-5 3-4-6-6-7 1-1 9 3 11-5-2-1-5zm27 25 2 5 9-2 16 2 8-3-5-3-5 3-3-2h-6l-4-3-7 1zm18-5 4 3h8l1-3-2-2 2-2-8-4zm-28 22-4 4 4 8 14-5-2-11 1-2-4-1-5-4v11zm39-24 2 2v-4l-2 1z"/>
  <path id="昆玉市" fill="#ff6347" fill-opacity="1" fill-rule="evenodd" stroke="#ffffff" stroke-dasharray="none" stroke-linecap="round" stroke-linejoin="round" stroke-opacity="1" stroke-width="0.5" d="m306 1253-4 2 1 4 2-3zm7-14v-5l-3 1-3 9 1 6 4-3zm-105-6v-25l-17 7v8l-2 6 10-4 4 3v5l3 2zm75 28v-3l-2-2 3-2v-3h-11v20l-4 1-1 3 5 1v-2l11 4zm153 122v-7l-1 6zm-115-151v5h3v-4z"/>
  <path id="胡杨河市" fill="#ff6347" fill-opacity="1" fill-rule="evenodd" stroke="#ffffff" stroke-dasharray="none" stroke-linecap="round" stroke-linejoin="round" stroke-opacity="1" stroke-width="0.5" d="m783 389 14-3 5-7-4 1v-8l3-2-1-5-8-8h-5l-5-3 6-2v-6l-5-2-5-16-9-5h-4v-11h-11v7l2 2-4 12 1 2 7-3 3 8 1 18h-2l14 16 2-2 7 7z"/>
</svg>
