<?xml version="1.0" encoding="UTF-8" standalone="no"?>
<svg
   width="1264"
   height="1622.9999"
   viewBox="-251 -228 1264 1622.9999"
   version="1.1"
   id="svg1"
   xmlns="http://www.w3.org/2000/svg"
   xmlns:svg="http://www.w3.org/2000/svg">
  <defs
     id="defs1" />
  <path
     stroke="#ffff00"
     stroke-opacity="1"
     stroke-width="0.5"
     stroke-linecap="round"
     stroke-linejoin="round"
     stroke-dasharray="none"
     fill="#1e90ff"
     fill-opacity="1"
     fill-rule="evenodd"
     d="m 237.99999,90 v 4 l -3,3 11,18 -1,2 5,7 2,9 -6,8 -3,-3 -2,4 1,2 -2,8 h -4 v 3 l -4,6 v -2 h -3 v 4 l 3,8 2,-1 1,3 h 3 v -2 h 10 l 3,-2 9,3 -4,6 2,7 -2,3 -1,9 2,3 h -2 l 2,3 -6,4 v 8 h 7 l 6,-2 3,4 -1,2 -5,1 2,15 h -3 v 3 l 2,2 -6,4 2,8 -3,4 3,3 v 6 l -4,1 -1,4 5,2 3,-4 h 6 l 3,-5 h 5 l -1,2 2,4 7,1 1,4 -8,10 7,3 2,-3 h 3 l 1,2 5,-5 v -2 h -6 l 1,-4 4,4 5,-1 5,5 8,-6 5,2 3,-4 3,-1 v -5 l 3,-2 6,3 3,4 4,11 -1,9 3,2 2,5 8,-8 2,4 1,-4 9,4 1,3 -3,3 4,1 h 2 l 2,-4 4,1 v 2 l 7,-1 6,-3 7,2 11,15 10,4 3,10 11,3 4,6 2,-9 3,-4 13,-7 3,2 2,-2 v -5 l 4,-1 6,4 2,7 3,-1 1,-6 5,-3 13,-2 4,1 5,-14 5,-5 v -11 l 9,-13 6,-4 2,-9 -2,-2 v -7 l -2,-5 1,-3 -15,-17 -6,-9 -3,-9 -5,-6 2,-5 -2,-4 1,-10 -4,-5 -10,-3 -3,-5 -4,1 -2,-4 -4,1 -5,4 1,-4 -6,-10 -4,-1 -3,-3 -7,-1 -2,-6 1,-5 -2,-3 1,-3 5,-3 h 17 l 1,-2 h 3 l 7,-15 3,-4 6,-3 V 87 l 2,-4 -3,-7 -7,1 -21,-17 -5,2 -2,10 3,6 v 12 l -1,2 h -6 l -3,2 V 84 l -2,-2 -14,-3 -8,-12 8,-10 -11,-1 -10,1 -2,2 -5,-1 -12,8 -3,-3 -1,-4 -4,7 -2,-3 -11,3 -2,-2 -4,7 2,3 -2,6 -7,6 -7,15 -10,1 1,9 -2,2 v 6 l -5,3 -5,-1 -4,3 -6,-8 v -3 h -3 l -2,4 -14,-4 v -2 l 4,-2 v -4 l -3,4 -2,-2 -4,2 -6,-3 -1,-3 -12,-2 -12,-13 -3,-1 -8,2 z"
     id="南昌市" />
  <path
     stroke="#ffff00"
     stroke-opacity="1"
     stroke-width="0.5"
     stroke-linecap="round"
     stroke-linejoin="round"
     stroke-dasharray="none"
     fill="#1e90ff"
     fill-opacity="1"
     fill-rule="evenodd"
     d="m 812.99999,-70 -5,-2 -3,-12 h -2 l -2,-5 -9,2 -10,6 -11,-2 -1,1 -5,-12 2,-7 -3,-3 -6,1 -5,-2 -6,-8 1,-16 -6,-4 -6,-12 4,-10 -2,-4 -9,2 -2,7 -5,2 -4,-11 -9,3 -3,5 -9,-3 -2,-4 3,-10 -2,-9 -2,-2 -8,-3 -10,1 -11,6 v 9 l -2,3 -4,2 -5,6 -5,1 1,3 5,4 9,4 1,7 -7,8 4,5 -2,5 -6,4 -3,9 v 5 l -14,13 4,9 3,13 -3,23 1,4 7,4 v 9 l -7,9 v 5 l 6,5 3,7 -10,2 -4,7 -4,-1 3,9 -2,2 1,5 -2,1 6,13 -1,4 8,5 2,6 3,2 -2,3 2,3 -3,-1 -2,3 h -3 v 15 l -4,5 1,5 -6,3 -1,12 -3,3 h -3 l -4,10 -3,3 1,5 12,9 10,14 6,-2 3,1 2,4 h 7 l 1,5 4,-5 4,7 1,-2 5,3 -1,6 5,3 v -2 l 3,2 9,-2 3,9 6,-2 2,-4 5,-2 1,-4 5,-2 1,-2 5,-1 6,3 1,-2 h 3 v -3 h 4 l 1,-6 -3,-3 v -5 l 4,2 10,-5 7,1 9,3 3,5 4,-1 3,2 -2,-11 4,-14 -1,-2 -4,-1 -1,-3 -5,-2 v -3 l -5,-4 v -4 l -3,-2 -3,1 -4,-3 11,-6 -2,-1 1,-2 -4,-5 4,-1 v -6 l 6,-5 -5,-7 4,-5 -5,-3 -3,-7 4,-3 v -4 l -3,-2 -6,2 -3,-1 -3,1 v 4 l -3,2 -8,-3 -6,-13 3,-5 v -7 l 4,-5 8,-3 4,-4 1,-3 -4,-5 -1,-4 15,-10 v -2 l -3,-2 2,-5 v -6 l 8,-4 -3,-6 1,-2 4,-2 -1,1 2,3 4,-5 7,-3 1,-8 h 2 l 3,4 2,-1 5,-11 2,2 4,-3 2,-6 3,2 7,-2 z"
     id="景德镇市" />
  <path
     stroke="#ffff00"
     stroke-opacity="1"
     stroke-width="0.5"
     stroke-linecap="round"
     stroke-linejoin="round"
     stroke-dasharray="none"
     fill="#1e90ff"
     fill-opacity="1"
     fill-rule="evenodd"
     d="m -162.00001,687 3,-7 4,-4 h 3 v -7 l 9,-10 2,-4 -2,-4 5,-11 9,-11 6,2 3,-5 3,-11 4,-4 3,1 9,-7 v -3 l -3,-3 v -7 l -2,-4 1,-5 -7,3 -4,-6 -7,-3 v -4 l -5,-2 -1,-4 -5,-2 -2,-3 2,-10 3,-2 7,-1 3,2 8,-2 3,2 h 5 l 8,-5 2,-6 4,-2 2,-7 -2,-2 1,-4 5,-2 1,-6 15,-9 h -2 l -2,-3 -8,-5 -10,-11 2,-1 3,-6 -4,-4 -6,-12 v -3 l -4,-2 -1,-3 -4,-3 h -3 l -1,-3 h -3 v 4 h -5 l -7,4 h -7 l -1,-3 -5,-3 -5,3 -4,-3 -3,1 v -5 l -3,-1 2,-8 -3,-2 -4,3 -2,-8 -8,1 1,-2 -2,-2 h 2 l 1,-6 -5,-2 4,-6 8,-6 1,3 h 2 l 2,-4 5,-3 4,-5 h 2 l 1,-4 -3,-5 -4,-1 v 2 h -5 l -2,-3 1,-2 -3,-1 -4,2 -2,-3 -4,2 -6,-2 -2,-3 -3,1 -3,8 h -5 l -2,-3 -6,4 -1,4 -6,1 -4,5 -2,6 -3,2 -2,9 1,2 6,3 3,8 v 7 l -17,19 -1,7 -7,7 -6,11 -7,4 -3,5 1,12 -8,11 1,6 7,3 3,-3 2,4 -2,2 1,2 -3,6 -6,3 2,5 v 6 l 2,3 h 4 l 2,5 -7,5 v 5 l 4,6 2,1 3,-2 5,1 4,4 h 7 l 6,-5 h 5 l 10,-4 h 11 l 12,-6 1,1 v 10 l -5,10 v 3 l 4,1 v 4 l -3,4 -3,14 -6,8 -2,6 -10,11 -1,11 2,3 6,-3 3,15 2,3 h 4 l 2,5 h 4 l 2,8 6,7 z"
     id="萍乡市" />
  <path
     stroke="#ffff00"
     stroke-opacity="1"
     stroke-width="0.5"
     stroke-linecap="round"
     stroke-linejoin="round"
     stroke-dasharray="none"
     fill="#1e90ff"
     fill-opacity="1"
     fill-rule="evenodd"
     d="m 549.99999,-86 v -3 l -9,-7 v -3 l 6,-7 1,-4 -6,-1 v -2 l 3,-2 5,-10 4,-2 15,-18 5,3 8,-6 5,-9 8,-7 5,-8 5,-17 -3,-5 -5,-4 -9,3 v 4 l -2,-2 1,-13 -7,3 -5,-10 -4,-1 -1,-4 h -3 l -1,-3 -7,1 -14,-7 -15,2 -6,7 -4,10 -3,27 -4,6 -5,2 h -14 l -7,5 -26,13 -7,8 -14,8 h -2 l -6,-10 -5,-4 -11,1 -15,5 -15,14 -22,11 -5,1 -9,-1 -19,-7 -19,-13 -20,-17 -27,3 h -18 l -1,5 -5,1 -2,2 -3,14 1,7 -9,7 -6,9 -9,6 -5,6 h -8 l -2,3 h -3 l -6,5 -3,-1 -2,-3 1,-7 -5,-1 -5,2 h -14 l -5,-1 -9,-9 -4,2 1,5 3,3 5,1 -2,5 v 9 l -3,2 3,2 7,-3 3,1 v 2 l -4,1 -1,3 v 19 l -7,1 -6,-4 h -4 l 3,-8 -3,-3 h -4 l -10,4 -8,-8 -2,3 -3,-1 -3,4 h -3 l -3,3 v 5 l 5,1 1,2 -3,4 -5,2 -3,-1 -1,-7 -1,3 -5,2 2,-4 -2,-3 -4,10 -6,6 4,2 2,9 9,-5 -3,-2 -1,-3 5,-4 h 3 v 3 l 3,4 -4,4 -1,9 -4,-1 -5,7 -4,2 v -3 l -3,-1 -9,2 -5,4 -7,-1 -4,2 -2,5 -5,-1 v -6 l -2,-2 -15,-1 -7,4 -7,1 -7,8 -23,9 -2,-2 -10,1 -1,-3 -3,-1 2,-2 -1,-1 -4,3 -8,1 -6,4 -8,-1 -5,-9 -5,-3 -10,5 -2,2 1,7 -3,3 2,5 -3,8 1,9 h -7 l -12,6 -3,-1 -27,4 v 5 l -5,5 -2,5 -12,8 -4,7 h -3 l -2,3 v 8 l -3,5 2,5 -1,4 4,6 -1,5 4,12 3,-3 7,-2 -2,9 5,5 2,5 5,-5 3,2 v 15 l 5,5 h 4 l 7,-3 3,5 4,-2 1,1 -1,8 -3,4 v 3 l 4,2 2,-1 v -3 l 9,-6 4,-7 3,3 v 4 l 2,2 4,-3 2,1 4,11 11,10 v 2 l 7,4 1,3 5,1 2,-4 5,3 8,-3 11,5 1,-1 -2,-8 6,-7 7,-2 h 8 l 1,-2 h 4 l 1,-2 4,3 1,9 2,3 6,3 2,5 6,2 h 23 l 1,-4 4,-1 2,-3 2,1 8,-6 v -4 l -2,-2 4,-5 8,8 4,-1 1,-3 3,1 -1,-5 3,-2 3,2 2,-5 4,-4 v -4 l -2,-2 v -10 l 4,-4 8,-3 1,-4 -2,-1 -1,-4 2,-2 -1,-2 5,-6 v -5 l -2,-2 3,-4 3,-1 -1,-3 5,-5 10,-1 5,-7 2,1 8,-5 h 3 l 9,-7 15,-3 3,-3 9,2 10,-3 h 7 l 20,7 v 2 l 13,2 1,2 -3,4 9,5 1,5 10,-3 3,1 12,13 12,2 1,3 6,3 4,-2 2,2 3,-4 v 4 l -4,2 v 2 l 14,4 2,-4 h 3 v 3 l 4,4 v 3 l 2,1 4,-3 5,1 5,-3 v -6 l 2,-2 -1,-9 10,-1 7,-15 7,-6 2,-6 -2,-3 4,-7 2,2 11,-3 2,3 4,-7 1,4 3,3 12,-8 5,1 2,-2 10,-1 11,1 -8,10 8,12 14,3 2,2 v 10 l 3,-2 h 6 l 1,-2 V 78 l -3,-6 2,-10 5,-2 21,17 7,-1 10,-12 v -3 h 3 l 2,-3 -2,-2 6,-10 h 19 l 26,-22 -14,-6 -1,-7 -4,-3 -3,-5 1,-3 -4,-3 -3,-6 2,-5 2,1 v -3 h -2 l 3,-3 -11,-19 6,-8 -5,-9 3,-8 v -6 l -8,-6 v -6 l 3,-4 4,-1 10,2 4,6 6,1 8,-3 4,-6 3,-1 4,2 z m 5,-28 -1,-4 -1,1 z m 0,0 v 3 l 3,-1 v -2 z"
     id="九江市" />
  <path
     stroke="#ffff00"
     stroke-opacity="1"
     stroke-width="0.5"
     stroke-linecap="round"
     stroke-linejoin="round"
     stroke-dasharray="none"
     fill="#1e90ff"
     fill-opacity="1"
     fill-rule="evenodd"
     d="m -5.00001,501 2,12 13,-1 3,4 h 5 l 1,4 3,2 4,-4 2,-6 2,-1 1,-6 15,-4 2,3 2,-4 h 4 l 5,-7 10,6 2,5 6,2 8,-2 2,-5 6,-2 4,-3 v -2 l 7,-2 4,-3 -2,-3 3,-4 h 2 l 7,7 3,-1 -1,-10 2,-6 8,-4 1,-3 5,4 1,4 5,-2 4,-8 3,-1 3,10 5,-3 1,-4 9,-5 21,-5 10,-9 1,-4 10,-10 -1,-5 6,-1 2,2 1,-3 3,-1 h -14 l -3,2 -2,-3 -4,2 -6,-3 -6,4 -2,-3 -3,1 -4,-5 -4,4 -3,-2 -4,2 -7,-4 -5,-1 -7,-14 v -5 l 5,-5 -2,-3 v -5 l 5,-2 1,-7 -2,-2 6,-2 -4,-2 2,-4 -2,-2 -7,-2 -3,2 -6,-2 -7,5 -3,-5 -4,3 -2,-3 -9,3 -3,-6 -5,1 -3,7 -8,2 -2,10 -2,-3 -1,2 -5,2 v -7 l -5,-1 -10,1 -2,3 -5,1 -5,-8 2,-1 v -13 h -11 l -10,4 -2,-3 -2,1 -2,-2 -9,3 -7,5 h -7 l -2,4 -4,3 4,2 5,18 3,1 -12,9 -3,-2 -8,1 -3,3 2,6 -7,2 -2,7 5,17 2,2 h 4 l 5,3 1,-4 5,-3 3,4 1,6 -5,5 v 4 l -2,2 2,2 v -2 l 3,-2 v 10 l 2,5 -4,7 -3,2 -5,10 1,4 -2,1 -2,5 3,5 z"
     id="新余市" />
  <path
     stroke="#ffff00"
     stroke-opacity="1"
     stroke-width="0.5"
     stroke-linecap="round"
     stroke-linejoin="round"
     stroke-dasharray="none"
     fill="#1e90ff"
     fill-opacity="1"
     fill-rule="evenodd"
     d="m 744.99999,405 -3,-3 8,-23 v -5 l -1,-8 -6,-12 -19,-8 -8,1 -6,-4 -9,-2 -1,-3 3,-3 1,-5 -2,-1 -1,-5 8,-9 -3,-4 -1,-6 -6,-1 -2,-9 h 5 l 1,-5 3,-4 6,-3 3,-10 -5,-4 1,-5 4,-5 v -6 l -2,-3 -2,-13 1,-8 -9,-13 -2,-7 -3,-3 -4,-1 -2,-3 h -4 l 1,5 -3,4 -17,10 -6,-5 -8,-3 -4,-5 -3,-1 -6,5 3,8 -6,10 -6,5 1,1 -2,4 -7,-11 -3,2 -14,1 -2,6 -6,-1 -1,4 4,5 1,5 -7,9 -1,4 3,4 v 3 l -2,2 -12,2 -6,5 -3,5 3,9 5,7 -3,9 -4,2 -10,-4 -7,1 -5,3 -4,5 v 5 l 4,3 6,1 -1,4 2,2 7,2 h 11 l 1,2 -3,12 4,7 5,-2 11,6 5,5 5,-1 2,-6 3,1 3,8 -1,7 7,-2 2,1 1,8 17,15 v 9 l -9,13 4,10 5,2 10,-12 h 3 l 2,3 3,-8 2,-1 6,5 5,-2 5,5 4,1 1,-3 5,-1 14,13 1,-6 6,-1 3,-6 h 3 l 2,4 -1,5 2,2 4,-1 3,-7 3,-2 2,1 5,-2 6,-6 z"
     id="鹰潭市" />
  <path
     stroke="#ffff00"
     stroke-opacity="1"
     stroke-width="0.5"
     stroke-linecap="round"
     stroke-linejoin="round"
     stroke-dasharray="none"
     fill="#1e90ff"
     fill-opacity="1"
     fill-rule="evenodd"
     d="m -136.00001,971 v 5 l 2,4 -2,10 2,3 -4,3 -1,4 -5,3 -5,7 v 6 l -3,5 v 6 l -11,10 -1,11 10,19 -1,3 2,4 6,2 v 9 l 3,2 -2,8 1,3 -5,-1 -6,9 3,1 -1,3 2,1 -5,6 1,5 4,-3 10,3 1,3 -4,3 v 5 l 5,2 1,3 3,1 5,-2 1,2 -6,3 7,2 -2,2 2,5 h -3 l -2,4 1,2 6,2 -8,3 v 4 l -3,2 4,5 v 3 l 2,1 5,-8 2,-1 1,2 h 4 l 8,-8 3,1 1,-3 4,1 6,-2 1,2 5,-3 3,2 v 3 l 16,2 1,-3 4,1 2,3 2,-1 -2,-2 5,-4 h -2 v -6 l 2,-1 18,6 5,-5 h 4 l 3,-3 2,-9 3,-3 7,4 5,-1 3,-2 -1,-4 9,-5 10,5 -1,4 h 2 v -3 l 5,2 v 8 h 3 l 6,10 7,-1 6,4 1,-2 3,2 3,-1 3,9 4,3 2,9 -3,1 v 2 l 3,-1 -2,3 -4,-2 -3,3 h -3 l -2,2 v 6 h -4 l 3,4 -1,2 4,3 h 6 l 3,3 -1,9 -10,5 h -8 l 1,3 -7,5 h -8 l -1,-3 -2,4 -3,-2 h -6 l -8,16 -4,-1 -2,7 -7,-1 -6,2 v 5 l -4,2 h -5 l 1,3 -2,2 -6,1 v 4 l 2,3 -3,4 3,6 v 4 l -7,5 -5,9 v 3 h -2 l -2,3 1,5 -3,3 2,4 -1,4 -7,5 h -4 l -3,2 -1,5 -2,2 -10,1 -6,3 -4,-2 -6,1 5,9 -2,2 -2,-1 v 3 l 9,-3 v 2 l 6,2 h 7 l 2,3 h 3 l 1,3 h 2 v 6 l 3,6 2,1 4,-2 2,1 1,-2 4,2 -1,-3 2,-1 v 3 l 5,3 v 2 h 4 l -1,8 4,2 v 7 l 5,2 2,3 3,-4 7,-3 2,-5 6,-2 9,-7 3,5 12,1 4,-7 4,-3 4,1 6,-4 6,13 h 3 l 2,4 3,-8 2,1 3,-4 v -6 l -2,-2 1,-6 5,-1 4,3 4,-2 4,3 1,-1 6,5 5,-4 3,1 -1,5 4,5 4,-2 v -3 h 2 l 4,-23 7,-1 1,4 4,-1 2,-3 4,-2 7,-2 1,2 4,1 6,-6 -1,-2 3,-4 1,3 h 6 l 2,6 8,4 2,-1 -1,-3 h 3 l 3,-3 h 12 l -3,-6 10,-4 3,1 3,-3 3,1 3,-6 2,-1 8,-1 8,2 5,4 1,-6 3,-5 h 4 l 3,-4 3,-1 10,8 4,-1 3,2 1,3 4,3 -1,2 3,2 v 3 l 4,-1 2,2 -2,2 3,4 6,2 v 10 l 4,8 6,1 3,-3 6,2 1,2 4,-1 3,3 h 3 l 3,6 1,4 -3,2 2,5 h 6 l 3,2 6,-1 11,-7 15,1 1,-2 -13,-17 h -3 l 1,-4 -2,-5 -5,-2 4,-2 5,1 v -3 l 3,-4 -2,-2 -5,1 -3,-2 v -5 l -4,-3 3,-8 3,-3 -3,-5 4,-12 3,-1 -2,-2 1,-3 -2,-2 6,1 1,-9 4,-5 7,2 v 2 l 4,1 -2,8 9,-2 3,-3 -5,-5 -2,-10 3,-1 -2,-4 -3,-2 v -4 l 3,-1 3,4 h 8 l -7,-8 -4,-1 -2,-5 v -2 l 3,-1 3,-4 4,-2 1,1 3,-3 -2,-3 h -2 l 1,-3 -2,-4 -8,-2 1,-3 -2,-5 3,-2 v -4 l -3,-3 h -5 v -16 l 4,-4 2,2 3,-1 3,-4 4,1 3,-2 5,-10 -1,-4 2,-2 3,2 3,-1 v -3 l 3,2 5,-8 -2,-1 2,-2 -4,-4 2,-4 -2,-3 4,-7 -1,-5 5,-3 v -4 l -3,-5 2,-6 h -3 v -4 l 2,-5 6,-2 -1,-8 1,-2 h 4 l 2,-4 -2,-4 v -6 l -3,-3 v -5 l 4,-4 2,2 1,-4 -3,-4 2,-4 -2,-2 1,-4 2,1 v -3 l 3,2 7,-2 v -5 l 3,-4 -1,-1 3,-6 10,-2 v 5 h 2 l 2,-8 -6,-6 v -4 l -7,-4 v -10 l 6,-5 h 4 l 2,-5 4,-2 8,-2 2,2 h 7 l 2,-3 9,-3 v -2 l 5,-3 1,-5 11,-2 -2,-10 3,-2 3,-7 4,-1 v -3 l 20,-16 3,-4 -2,-13 -2,-4 h -3 l -7,4 h -5 l -6,-3 2,-5 -1,-6 -2,1 1,-3 -2,-6 3,-2 -1,-4 3,-5 4,-1 1,-4 -3,-2 h 4 l 3,-2 v -4 l 4,-3 1,-4 11,-5 -2,-2 1,-5 4,-1 2,-6 6,4 3,-1 v 10 h 8 l 4,-2 2,-3 v -14 l 5,-4 2,-10 -7,1 -3,-2 1,-2 -3,-2 2,-3 -5,-4 v -3 l -10,-7 -9,2 -1,-5 -7,-5 -2,-4 h -4 l -4,11 -6,3 -4,-1 -5,5 2,4 -2,4 -9,-1 -9,4 -17,-15 6,-5 2,-4 -4,-7 -5,-4 10,-8 -1,-2 h -11 l -2,-3 h -6 v -4 l -2,-1 -1,-4 h -7 l -4,-5 -2,1 -4,-4 5,-10 2,-7 -1,-2 2,-3 v -4 l -3,-2 v -4 l 2,-1 3,-8 3,-2 -2,-3 2,-4 -3,-1 -3,-12 2,-8 4,-3 3,-5 2,-6 -1,-7 -2,-3 -5,4 -2,-2 -3,-6 1,-6 -5,-4 v -10 l -2,1 -5,-3 h -8 l -11,5 v 3 l -4,1 -1,10 3,3 -22,32 -7,1 -5,8 -12,8 -3,11 h -5 l -5,16 -20,-14 -5,8 v 6 l 2,1 -2,2 1,4 -4,1 1,3 6,3 5,-1 2,14 h -6 l -2,3 4,3 -3,1 -1,4 -3,2 -1,3 h -2 l -2,4 -7,-6 h -13 v 3 l -10,1 -4,-3 -1,-9 -2,-2 -6,5 -4,-1 -6,3 -4,-5 -10,9 -1,-1 -4,2 -8,-1 -3,-5 h -3 l -2,4 -7,2 v 6 l -8,9 -5,9 -4,3 -4,8 3,2 -1,3 -2,1 -7,-3 h -7 l -13,5 -5,5 -15,22 2,4 -3,1 1,7 -3,3 5,5 h 2 l 4,5 2,4 -1,7 5,5 -3,3 -2,8 -3,1 -3,4 v 5 l 9,2 1,5 3,1 -1,4 -4,3 h -4 l -4,-4 -5,-1 -2,-4 -2,2 -1,-6 -3,-3 h -15 l -2,-3 -6,-1 -2,3 h -3 l -4,5 h -3 v -3 l -3,-1 -4,3 -2,-1 -2,3 -11,-3 -3,3 -9,-1 -4,6 -7,-5 -5,-1 v -3 l -3,-1 -4,2 -1,-3 h -8 l 1,-6 h -3 l -1,-3 -4,-1 -7,3 -2,4 -3,-2 -3,2 v 6 l -4,6 -6,5 -7,3 1,8 -3,1 -4,8 -2,-5 1,-2 h -4 l -2,-2 h -7 l -5,7 -17,12 1,3 -3,2 -1,-1 -5,2 h -7 l -3,3 -8,-3 -7,1 -3,2 v 2 l -7,2 -5,4 -5,-1 -2,2 h -10 z"
     id="赣州市" />
  <path
     stroke="#ffff00"
     stroke-opacity="1"
     stroke-width="0.5"
     stroke-linecap="round"
     stroke-linejoin="round"
     stroke-dasharray="none"
     fill="#1e90ff"
     fill-opacity="1"
     fill-rule="evenodd"
     d="m -69.00001,508 -15,9 -1,6 -5,2 -1,4 2,2 -2,7 -4,2 -2,6 -8,5 h -5 l -3,-2 -8,2 -3,-2 -7,1 -3,2 -2,10 2,3 5,2 1,4 5,2 v 4 l 7,3 4,6 7,-3 -1,5 2,4 v 7 l 3,3 v 3 l -9,7 -3,-1 -4,4 v 3 l -6,13 -6,-2 -9,11 -5,11 2,4 -2,4 -9,10 v 7 h -3 l -4,4 -3,7 1,4 -6,6 v 4 l -3,4 v 11 h -3 l -5,9 -6,6 v 3 l 3,2 2,6 v 16 l 2,2 -1,12 2,3 h 4 l 1,5 4,3 1,3 h 23 l 6,5 v 3 l 11,2 2,2 h 10 l -3,10 -3,4 v 6 l -3,7 4,1 2,-2 h 4 l -7,13 v 9 h -6 l -3,5 h -2 l -3,6 2,2 v 5 l 2,2 -3,4 2,4 -4,4 -1,4 2,5 -11,5 -4,8 v 5 l -6,3 -1,2 2,4 -2,2 5,4 13,-10 3,1 3,-2 1,3 3,-1 1,4 h 8 l 4,-6 20,-8 3,6 6,-2 1,4 3,2 -4,4 2,2 h 3 v 2 l -12,9 h -5 l -16,6 v 2 l 3,1 -3,6 -2,-1 -4,2 -4,-4 -7,1 1,2 -3,3 1,4 -8,8 3,7 h 2 l -1,6 4,-4 4,-1 h 13 l 5,-4 7,-2 v -2 l 3,-2 7,-1 8,3 3,-3 h 7 l 5,-2 1,1 3,-2 -1,-3 17,-12 5,-7 h 7 l 2,2 h 4 l -1,2 2,5 4,-8 3,-1 -1,-8 7,-3 6,-5 4,-6 v -6 l 3,-2 3,2 2,-4 7,-3 4,1 1,3 h 3 l -1,6 h 8 l 1,3 4,-2 3,1 v 3 l 5,1 7,5 4,-6 9,2 3,-4 11,3 2,-3 2,1 4,-3 3,1 v 3 h 3 l 4,-5 h 3 l 2,-3 6,1 2,3 h 15 l 3,3 1,6 2,-2 2,4 5,1 4,4 h 4 l 4,-3 1,-4 -3,-1 -1,-5 -9,-2 v -5 l 3,-4 3,-1 2,-8 3,-3 -5,-5 1,-7 -2,-4 -4,-5 h -2 l -5,-5 3,-3 -1,-7 3,-1 -2,-4 15,-22 5,-5 13,-5 h 7 l 7,3 2,-1 1,-3 -3,-2 4,-8 4,-3 5,-9 8,-9 v -6 l 7,-2 2,-4 h 3 l 6,6 h 5 l 4,-2 1,1 10,-9 4,5 6,-3 4,1 6,-5 2,2 1,9 4,3 10,-1 v -3 h 13 l 7,6 2,-4 h 2 l 1,-3 3,-2 1,-4 3,-1 -4,-3 2,-3 h 6 l -2,-14 -5,1 -6,-3 -1,-3 4,-1 -1,-4 2,-2 -2,-1 v -6 l 5,-8 20,14 5,-16 h 5 l 3,-11 12,-8 5,-8 7,-1 1,-3 -5,-5 -5,1 -3,-3 1,-3 -3,1 -4,-2 1,-5 -3,-4 v -6 h -2 l 1,-3 -6,-4 -1,-7 -2,-2 h -15 l -9,3 -2,-4 -8,-6 -4,-13 -2,-3 -4,1 -3,-7 -1,-10 5,-4 13,-3 -3,-6 -2,-13 3,-8 3,-2 -1,-9 6,-7 1,-4 -5,-5 -5,3 -9,-1 -15,-21 3,-3 1,-13 12,-18 7,-5 11,-15 3,-6 -1,-8 -9,-4 -6,-15 -5,-2 -2,2 h -4 l -4,-2 -6,-4 -3,-6 h -5 l -4,-2 -9,-8 2,-3 -1,-2 4,-3 2,-5 -3,-2 h -4 l -6,-3 -6,5 3,2 -1,3 -3,1 -2,-1 v -2 l -3,-1 1,-6 -4,-1 v 4 l -4,-3 -5,3 v 3 l 4,2 -1,4 -6,6 7,5 -4,2 -1,3 -2,-2 -6,1 1,5 -10,10 -1,4 -6,6 -4,3 -21,5 -9,5 -1,4 -5,3 -3,-10 -3,1 -4,8 -5,2 -1,-4 -5,-4 -1,3 -8,4 -2,6 1,10 -3,1 -7,-7 h -2 l -3,4 2,2 -4,4 -7,2 v 2 l -4,3 -6,2 -2,5 -8,2 -6,-2 -2,-5 -10,-6 -2,4 -3,3 h -4 l -2,4 -2,-3 -15,4 -1,6 -2,1 -2,6 -4,4 -3,-2 -1,-4 h -5 l -3,-4 -13,1 -2,-12 -4,-2 -3,4 v 3 l -5,2 -5,6 -5,-3 -5,2 -2,3 h -8 l -1,-2 h -2 l -1,3 h -2 l -4,-5 -4,2 -6,-6 z"
     id="吉安市" />
  <path
     stroke="#ffff00"
     stroke-opacity="1"
     stroke-width="0.5"
     stroke-linecap="round"
     stroke-linejoin="round"
     stroke-dasharray="none"
     fill="#1e90ff"
     fill-opacity="1"
     fill-rule="evenodd"
     d="m -5.00001,501 2,-2 -3,-5 2,-5 2,-1 -1,-4 5,-10 3,-2 4,-7 -2,-5 v -10 l -3,2 v 2 l -2,-2 2,-2 v -4 l 5,-5 -1,-6 -3,-4 -5,3 -1,4 -5,-3 h -4 l -2,-2 -5,-17 2,-7 7,-2 -2,-6 3,-3 8,-1 3,2 12,-9 -3,-1 -5,-18 -4,-2 4,-3 2,-4 h 7 l 7,-5 9,-3 2,2 2,-1 2,3 10,-4 h 11 l -1,5 2,1 -1,7 -2,1 1,4 4,4 5,-1 2,-3 h 15 v 7 l 5,-2 1,-2 2,3 2,-10 8,-2 3,-7 5,-1 3,6 5,-1 1,-2 h 3 l 2,3 4,-3 3,5 7,-5 6,2 3,-2 7,2 2,2 -2,4 4,2 -6,2 2,2 -1,7 -5,2 v 5 l 2,3 -5,5 v 5 l 4,6 1,6 14,7 4,-2 3,2 4,-4 4,5 3,-1 2,3 6,-4 6,3 4,-2 2,3 3,-2 h 14 l 1,-1 -7,-5 6,-6 1,-4 -4,-2 v -3 l 5,-3 3,3 1,-4 4,1 -1,6 3,1 v 2 l 2,1 3,-1 1,-3 -3,-2 6,-5 6,3 h 4 l 3,2 -2,5 -4,3 1,2 -2,3 9,8 4,2 h 5 l 3,6 6,4 4,2 h 4 l 2,-2 5,2 6,15 9,4 1,8 7,-5 12,5 4,-2 2,3 3,-1 2,-7 -1,-3 3,-5 v -5 l 2,-4 -2,-6 1,-7 h 6 l 4,-3 1,-4 10,-4 4,1 2,-2 h 9 l 6,-3 4,-5 4,-1 v -2 l 5,-4 4,-9 7,-8 v -10 h 4 l 2,-6 -2,-2 4,-2 -4,-7 1,-6 3,-3 h -7 l -11,-5 v -9 l 9,-17 -11,-15 -7,-2 -6,3 -7,1 v -2 l -4,-1 -2,4 h -2 l -4,-1 3,-3 -1,-3 -7,-4 h -2 l -1,4 -2,-4 -8,8 -2,-5 -3,-2 1,-9 -4,-11 -3,-4 -6,-3 -3,2 v 5 l -3,1 -3,4 -5,-2 -8,6 -5,-5 -5,1 -4,-4 -1,4 h 6 v 2 l -5,5 -1,-2 h -3 l -2,3 -7,-3 8,-9 -1,-5 -7,-1 -2,-4 1,-2 h -5 l -3,5 h -6 l -3,4 -5,-2 1,-4 4,-1 v -6 l -3,-3 3,-4 -2,-8 6,-4 -2,-2 v -3 h 3 l -2,-15 5,-1 1,-2 -3,-4 -6,2 h -7 v -8 l 6,-4 -2,-3 h 2 l -2,-3 1,-9 2,-3 -2,-7 4,-6 -9,-3 -3,2 -6,-1 -4,1 v 2 h -3 l -1,-3 -2,1 -3,-8 v -4 h 3 v 2 l 4,-6 v -3 h 4 l 2,-8 -1,-2 2,-4 3,3 6,-8 -2,-9 -5,-7 1,-2 -11,-18 3,-3 -1,-9 -9,-5 3,-4 -1,-2 -13,-2 v -2 l -20,-7 h -7 l -10,3 -9,-2 -3,3 -15,3 -9,7 h -3 l -8,5 -2,-1 -5,7 -10,1 -5,5 1,3 -3,1 -3,4 2,2 v 5 l -5,6 1,2 -2,2 1,4 2,1 -1,4 -8,3 -4,4 v 10 l 2,2 v 4 l -4,4 -2,5 -3,-2 -3,2 1,5 -3,-1 -1,3 -4,1 -7,-8 -5,5 2,2 v 4 l -8,6 -2,-1 -2,3 -4,1 -1,4 h -23 l -6,-2 -2,-5 -6,-3 -2,-3 -1,-9 -4,-3 -1,2 h -4 l -1,2 h -8 l -7,2 -6,7 2,8 -1,1 -11,-5 -8,3 -5,-3 -2,4 -5,-1 -1,-3 -7,-4 v -2 l -7,-7 h -2 l -6,-14 -2,-1 -4,3 -2,-2 v -4 l -3,-3 -4,7 -9,6 -4,15 1,3 -7,10 2,6 v 8 l -2,6 2,4 -3,6 -4,2 -2,3 v 3 l -3,1 4,5 10,2 v 3 l 4,5 5,3 6,-1 6,5 v 4 l -5,3 -3,5 -4,3 h 5 l 5,8 4,3 h 7 l 1,6 -2,1 2,4 -3,5 2,4 -10,9 -5,1 v 5 l -3,2 -1,5 -3,-1 -6,2 -10,13 v 6 l -10,3 h -4 l -1,-2 -6,2 -4,-1 -5,4 4,5 v 5 l 2,1 1,6 7,13 -5,5 v 3 l -7,-3 h -9 l -2,4 3,2 -2,2 h -8 l -3,6 2,3 4,-2 3,1 -1,2 2,3 h 5 v -2 l 4,1 3,5 -1,4 h -2 l -4,5 -5,3 -2,4 h -2 l -1,-3 -8,6 -4,6 5,2 v 4 l -1,2 h -2 l 2,2 -1,2 8,-1 2,8 4,-3 3,2 -2,8 3,1 v 5 l 3,-1 4,3 5,-3 5,3 1,3 h 7 l 7,-4 h 5 v -4 h 3 l 1,3 h 3 l 4,3 1,3 4,2 v 3 l 6,12 4,4 -3,6 -2,1 10,11 8,5 2,3 h 9 l 6,6 4,-2 4,5 h 2 l 1,-3 h 2 l 1,2 h 8 l 2,-3 5,-2 5,3 5,-6 5,-2 v -3 l 3,-4 z"
     id="宜春市" />
  <path
     stroke="#ffff00"
     stroke-opacity="1"
     stroke-width="0.5"
     stroke-linecap="round"
     stroke-linejoin="round"
     stroke-dasharray="none"
     fill="#1e90ff"
     fill-opacity="1"
     fill-rule="evenodd"
     d="m 355.99999,685 3,-2 1,-4 4,-3 5,-10 8,-10 -3,-3 1,-10 4,-1 v -3 l 11,-5 h 8 l 5,3 2,-1 v 10 l 5,4 -1,6 5,8 5,-4 2,3 1,7 -5,11 -4,3 -2,8 3,12 3,1 -2,4 2,3 -3,2 -3,8 -2,1 v 4 l 3,2 v 4 l -2,3 1,2 -2,7 -5,10 4,4 2,-1 4,5 h 7 l 1,4 2,1 v 4 h 6 l 2,3 h 11 l 1,2 -10,8 5,4 4,7 -2,4 -6,5 17,15 9,-4 9,1 2,-4 -2,-4 5,-5 4,1 6,-3 4,-11 h 4 l 2,4 7,5 1,5 9,-3 v -2 l 4,-2 4,-20 -1,-2 h -4 l -8,-10 -2,-7 12,-16 -4,-11 1,-11 14,-14 8,-13 7,-8 5,-5 7,-3 7,-1 6,3 2,-5 14,-5 8,3 11,-7 4,-1 5,1 2,4 8,-13 22,-11 -2,-14 14,-16 5,-1 8,-10 1,-5 3,-2 2,-7 -4,-3 h -5 l 1,-6 -7,-2 -1,1 -3,-4 v -11 l 2,-1 v -4 l 5,-3 2,-5 -2,-4 v -5 l -4,-2 v -10 l -3,-14 -2,-1 -2,-5 -7,6 -1,-2 -3,1 -5,-3 -1,-2 2,-8 -3,-5 1,-1 -4,-4 2,-2 1,1 2,-7 5,-5 h 5 l 9,12 4,-1 v -4 l -2,-5 -2,-1 1,-3 6,-5 2,2 11,3 8,-2 v -8 l 10,-2 6,-3 4,-6 -1,-5 4,1 3,-4 -2,-6 2,-10 -21,-18 -5,1 -1,3 -4,-1 -5,-5 -5,2 -6,-5 -2,1 -3,8 -2,-3 h -3 l -10,12 -5,-2 -4,-10 9,-13 v -9 l -17,-15 -1,-8 -2,-1 -7,2 1,-7 -3,-8 -3,-1 -2,6 -5,1 -5,-5 -11,-6 -5,2 -4,-7 3,-12 -1,-2 h -11 l -7,-2 -2,-2 1,-4 -6,-1 -4,-3 v -5 l 4,-5 8,-4 h 4 l 10,4 4,-2 3,-9 -5,-7 -1,-5 -6,-11 -5,-3 -2,-8 -4,-1 -3,5 -5,3 -10,2 h -3 l -8,-5 -9,3 -3,-2 -1,-4 6,-6 3,1 -4,-3 v -13 l -8,-7 -1,3 2,5 v 7 l 2,2 -2,9 -6,4 -9,13 v 11 l -5,5 -5,14 -4,-1 -13,2 -5,3 -1,6 -3,1 -2,-7 -6,-4 -4,1 v 5 l -2,2 -3,-2 -13,7 -3,4 -2,9 -4,-6 -11,-3 -3,-10 -10,-4 -9,17 1,1 -2,5 1,3 11,5 h 7 l -3,3 -1,6 4,7 -4,2 2,2 -2,6 h -4 l -1,3 1,7 -7,8 -4,9 -5,4 v 2 l -4,1 -4,5 -6,3 h -9 l -2,2 -4,-1 -10,4 -1,4 -4,3 h -6 l -1,7 2,6 -2,4 v 5 l -3,5 1,3 -2,7 -3,1 -2,-3 -4,2 -12,-5 -3,2 -4,3 -6,11 -8,10 -7,5 -12,18 -1,13 -3,3 7,11 8,10 9,1 5,-3 5,5 -1,4 -6,7 1,9 -3,2 -3,8 2,13 3,6 -13,3 -5,4 1,10 3,7 4,-1 6,16 8,6 2,4 9,-3 h 15 l 2,2 1,7 6,4 -1,3 h 2 v 6 l 3,4 -1,5 4,2 3,-1 -1,3 3,3 5,-1 4,3 z"
     id="抚州市" />
  <path
     stroke="#ffff00"
     stroke-opacity="1"
     stroke-width="0.5"
     stroke-linecap="round"
     stroke-linejoin="round"
     stroke-dasharray="none"
     fill="#1e90ff"
     fill-opacity="1"
     fill-rule="evenodd"
     d="m 744.99999,405 5,-3 2,3 9,-7 1,-6 5,-2 1,3 6,2 3,9 3,-3 2,1 -1,11 3,1 2,4 v 5 l 2,2 10,3 8,8 6,-2 3,5 7,4 3,-3 1,-5 4,-2 3,-6 v -11 l 7,-8 6,-2 5,-5 3,2 6,-3 h 5 l 2,-4 6,-3 6,3 5,-3 4,-5 2,3 7,-3 3,3 4,-1 3,4 4,1 2,-1 -1,-9 3,-5 h 6 l -2,-7 4,-4 5,-2 7,3 h 4 l 3,-2 h 4 l 4,-5 4,2 5,-4 8,-2 9,1 4,-2 v -9 l 3,-2 -2,-6 5,-5 -2,-6 -9,-2 -6,-8 6,-4 1,1 2,-5 4,-1 2,-4 h 4 l 9,-7 3,1 7.00001,-4 5,-6 -7,-18 -6.00001,-4 7.00001,-10 2,-5 -1,-2 3,-4 h 2 l -2,-3 -3,-1 -1,2 -5,-5 -6.00001,-1 2,-2 2,1 4.00001,-4 -5.00001,-3 -2,-6 2,-1 -4,-2 -1,-4 2,-1 v -4 h 2 l -2,-6 5,-6 -3,-6 2,-2 v -7 l -4,-3 1,-1 -4,-4 -3,1 v -3 l 2,-1 v -4 l -2,-3 1,-5 h -2 l -4,-14 -4,-4 -7,1 -9,-6 2,-2 -2,-6 -2,-1 -5,-16 -3,-1 -15,6 v -4 l 8,-8 -8,-4 -3,-6 -6,-3 h -4 v 3 l -4,-2 -2,-4 2,-3 -1,-3 -4,2 -1,5 -2,1 3,-4 -1,-2 -3,3 -2,-9 -4,-2 -2,-5 3,-2 v -4 l -8,-4 -2,-4 4,-4 -4,-3 2,-7 -1,-3 -4,-3 2,-2 2,-10 2,-2 h 6 l 2,-5 -2,-4 2,-5 -2,-7 1,-1 7,2 3,-3 5,3 h 4 l 5,-4 1,-2 -2,-2 4,-6 7,-4 v -9 l -5,-4 1,-4 h -5 l -10,-4 -2,-5 3,-1 v -5 l -3,-5 4,-5 v -3 l -3,-4 -6,-3 -1,-3 h -6 l -8,-3 -2,-7 -10,-4 -5,5 -5,-2 -3,1 -4,5 -4,-2 -8,3 h -4 l -3,-3 -9,-2 -3,-3 -6,1 -6,4 -5,-1 -11,3 -4,4 -5,2 -5,-2 -2,6 -4,3 -2,-2 -5,11 -2,1 -3,-4 h -2 l -1,8 -7,3 -3,5 -3,-3 1,-1 -4,2 -1,2 3,6 -8,4 v 6 l -2,5 3,2 v 2 l -15,10 1,4 4,5 -1,3 -4,4 -8,3 -4,5 v 7 l -3,5 6,13 8,3 3,-2 v -4 l 12,-2 3,2 v 4 l -4,3 3,7 5,3 -4,5 5,7 -6,5 v 6 l -4,1 4,5 -1,2 2,1 -11,6 4,3 3,-1 3,2 v 4 l 5,4 v 3 l 5,2 1,3 4,1 1,2 -4,14 2,11 -3,-2 -4,1 -3,-5 -9,-3 -7,-1 -10,5 -4,-2 v 5 l 3,3 -1,6 h -4 v 3 h -3 l -1,2 -6,-3 -5,1 -1,2 -5,2 -1,4 -5,2 -2,4 -6,2 -3,-9 -9,2 -3,-2 v 2 l -5,-3 1,-6 -5,-3 -1,2 -3,-7 -5,5 -1,-5 h -7 l -2,-4 -3,-1 -6,2 -10,-14 -12,-9 -1,-5 3,-3 4,-10 h 3 l 3,-3 1,-12 6,-3 -1,-5 4,-5 V 64 h 3 l 2,-3 3,1 -2,-3 2,-3 -3,-2 -2,-6 -8,-5 1,-4 -6,-13 2,-1 -1,-5 2,-2 -3,-9 4,1 4,-7 10,-2 -3,-7 -6,-5 v -5 l 7,-9 v -9 l -7,-4 -1,-4 3,-23 -3,-13 -4,-9 14,-13 v -5 l 3,-9 -13,5 -11,-1 -6,8 -9,3 -17,11 -6,10 -8,3 -9,-1 -1,-2 2,-4 -3,-2 -2,1 -2,-2 -10,10 -1,-7 -8,-4 h -9 l -4,6 -8,3 -6,-1 -4,-6 -10,-2 -4,1 -3,4 v 6 l 8,6 v 6 l -3,8 5,9 -6,8 6,8 1,5 4,6 -3,3 h 2 v 3 l -2,-1 -2,5 3,6 4,3 -1,3 3,5 4,3 1,7 14,6 -26,22 h -19 l -6,10 2,2 -2,3 h -3 v 3 l -10,12 3,7 -2,4 v 19 l -6,3 -3,4 -7,15 h -3 l -1,2 h -17 l -5,3 -1,3 2,3 -1,5 2,6 7,1 3,3 4,1 6,10 -1,4 5,-4 4,-1 2,4 4,-2 3,6 10,3 4,5 -1,10 2,4 -2,5 5,6 3,9 6,9 23,24 v 13 l 4,3 -3,-1 -6,6 1,4 3,2 9,-3 8,5 13,-2 5,-3 3,-5 4,1 2,8 5,3 4,7 3,-5 6,-5 12,-2 2,-2 v -3 l -3,-4 1,-4 7,-9 -1,-5 -4,-5 1,-4 6,1 2,-6 14,-1 3,-2 7,11 2,-4 -1,-1 6,-4 6,-11 -3,-8 6,-5 3,1 4,5 8,3 6,5 17,-10 3,-4 -1,-5 h 4 l 2,3 4,1 3,3 2,7 9,13 -1,8 2,13 2,3 v 6 l -4,5 -1,5 5,4 -3,10 -6,3 -3,4 -1,5 h -5 l 2,9 6,1 1,6 3,4 -8,9 1,5 2,1 -1,5 -3,3 1,3 9,2 6,4 8,-1 19,8 6,12 1,8 v 5 l -8,23 1,2 z"
     id="上饶市" />
</svg>