<svg xmlns="http://www.w3.org/2000/svg" id="svg1" version="1.1" viewBox="-251 -228 2045 1896">
  <path id="南京市" fill="#ff6347" fill-opacity="1" fill-rule="evenodd" stroke="#ffffff" stroke-dasharray="none" stroke-linecap="round" stroke-linejoin="round" stroke-opacity="1" stroke-width="0.5" d="m734 938-2-9-7-8v-5l-8-2-5 2-3 5h-7l-4-5-1-5-9-9-2-5h-6l-2 4-9-2 4-3-1-7 5-4-3-1-6 1-1 2-3-1-1 3-6 1-3 3-2-2h-5v-4h-3l2-4v-5l-2-1-7 9-6 1-3-3v-4l-7-3-5 3-1 4-5-3v-6l-10 1 1 8-16-3-9 7-3-6-8-2-2-2-10 7-2 9 1 3 12 6 3 3-1 6 3 1 1 4-3 4-6 1v8l6 3v2h13l1-3 9 3 6-1 2 3-2 21-3 10 4 7 3-2-1 6 2 4-3 3 2 1-1 3 4 2-1 4h-6l-1 2 4 3h-6l-7 5v4h2l2 5-4 8 2 4h3l-2 9-9 11-6 3-3-1-8 3h-6l-2-2-5 3-4-1-4 3-3-2-4 4-4-3-1 5-4 2v5l4 12-2-1-2 4 2 4-10 3v2l-4 4-11 6-10 3-4 8h-3l3 6-3 6 6 6-5 3 1 10-2 3h-3l1 6-4 5v6l-2 5 8 7h6l5 6 13 7 7 2-2 9 9 7h5l-7 20-1 8h7l3 5 5 2 4-3 2 3v5h-4v3l9 6 7-8 1 3 6-2 3-4 3-1 4 3 3-4h5l3 4-3 2 4 2 1 4 11 2 1 4 4 3-7 6h-2l-1 3-6 5-3-1-1 3v10l5 3h6l4 2 12-1v5l4-3 2 1 2-8 2-2 1-9 4-2 3 2 2-3 9 7-5 5 4 12 3 4h4l2-4 5-1 9 3 4 5 1 5-4 2 6 2-2 5 4 6-3 5v9l4 2-1 13-5 14v18l-7 12-8 7-22 6 1-6-2-5-4 2-12 26-1 12-5-3 8 8 13 2 6 7 1 9 5 5h4l5-3 4 3 3-3 11-3 8 2 9-2 3 2h22l1 3 6-1 4-3 12 3 5-2 4 2 4-2 8 1 1-6 4-5h5l3-6h3l3-8h7l7-6-1-4 2-5 7-8-1-3-4-1-1-4-4-5-6-1-2-5v-12l-2-8-3 1-5-3v-3l4-5v-13h5l6-3 6-10v-2l-7 1 1-5 2-6h4l6-8v-6l7-18-1-2-7 2-3-8-6-1 2-5-2-7 1-4-2-3-10-3-7-9-3-1-2-5-11-9-2-6-4-2v-4l-4 1-4-3-10 2-9 3-2 4-7 1 1-7 8-1 1-6-3-1-4-7-6-4-1-4 4-3 17-2 3-3h3l10-6 2 2 6 1 3-2 3-8 3-3-2-4-2-14-14-3-6 2-5-1-3-5v-3l7-5 6-2 3 2 6-2 5 3 3-1 1-5 3 1v-3l-3-1v-6l-4-2-4 1 2-3-4-18 4-8 1-9-4 1-3-8h-4l-4 3-3-4-15-2v-4l5-3 6-11h7l-4-2h10l1-7 16-4 5-3 7 3 11-1 2 2 9-2 2-5 8-6-24-10-16-3-17 2-4-4-14-4 2-5-2-23 2-4-5-5v-3l6-6-9-4 1-2 6-1-1-3h-3l-4-4v-6l4-7-2-5v-7l5 2 4-5zm-73 405-4-1-3 6v2h3z"/>
  <path id="无锡市" fill="#ff6347" fill-opacity="1" fill-rule="evenodd" stroke="#ffffff" stroke-dasharray="none" stroke-linecap="round" stroke-linejoin="round" stroke-opacity="1" stroke-width="0.5" d="m903 1497 5 5 6 3 4 5 1 6 2 2h7l5-8 9-3 1-6 8-4v-3l5-1 2 3 8 4 3-7 10-2 6 1 8-4 5 5v5h3l3 3 8-5-3-2 1-3h5l1 2h9l4 3 16-4 69-40 23-19 13-16 76-43h28l2-4h6v-3l2-2 5 1 7-6-3-7 3-5 13-8 2 4 3-3-4-22-4-4-13 4-2-11 4-2 1 3 4-1 4-5 5 1 3-2-3-4 2-3-3-2 3-3-2-3-11-2 3-5-2-6 2-3 6-2 5-7-5-2-2-6 7-7-2-7-2-1-2-8-5-5-4 3-1-3-4 3-5-1-3-7 3-4v-6l-6-6h-4l-5-12-8-4v-4l-7-1-17-7-4 1-4-4 4-7-6-5-2-8 1-13-7 5-42 20h-23l-40-9-15-6-6 9v5l6 7-6 3-3 8 6 5-4 10-5 2 4 4 1 7 6 2 2-3 7 4 4-5 11-8 5-2 6 1 2-2h8l5-4 7-1 3 4-4 10-4 2 3 7 3 2-2 5 7 14 3 2 2 4-8 2-2-4-4-1-5 2 2 16-2 2 1 4-4 3-1 4 3 3-3 2-6-3-3 23-5 1-11 9v5l-7 6v7l5 5 10 2-1 3h3v10l2 2 2-2 6 6-8 10-1 4 2 4-8 3-10 6-2 3-6 24v5l2 3 19 2 1 8-4 1-17-6-7-8-1-8 6-18 3-23v-4l-3-4-8-3-3 1-3-2-1 5-8-8-1-9-8-3-5-4-14 3h-13l-5 7h-5l-9-8-6-2h-9l-12-4-8 2-1-8h-4l-5-12-4-2h-6l-7 4 3 9-2 4-5 4-5 1-7 11-4 12h-6v6l3 4-1 4h-3v3l9-1v9l-4 6-9-1v9l-6 2 1 7-4 13 1 13-4 5 1 7 4 5-1 13-3 7 11 9v18l-4 2z"/>
  <path id="徐州市" fill="#ff6347" fill-opacity="1" fill-rule="evenodd" stroke="#ffffff" stroke-dasharray="none" stroke-linecap="round" stroke-linejoin="round" stroke-opacity="1" stroke-width="0.5" d="m494 77-1 4h-4l-5 5-10-1v-2l-12 1-11-2v6h-4l-1 3h-12l-4 3-4-4-1 12h-10l-3-5-1 5-3-1 3-19-1-12-14-10-2-4 3-6 9-3 1-7 6-11-8-3-4 1-4-2-2-4-3 3-18-6 1-4 8-6 4-10v-3l-5-2-2-4 3-5-7-4h-10l-1 2-12-4-1 6h-4v-4l-6-3v-3l-10-4h-4l-4 6-11-2-3 11h-8l-1-3-5 3-5-1-1-2-5 2-1-3-4 3h-7l-3-2v11l2 2-2 16 1 20 2 10h-4l-6-5-32-8-1 8-3 6-10 10-3-2-3 4-8-1-6 12h-8l-3-4-5-1-4 3-16-2-2 3v-7l-2-2-6 1-5-10-5-4v-2l-4-2-1-5-8-5V18l-10-6-4 3-4-3-7 5-5-1-1 4 5-1 1 3-5-2-6 3 2-6-10 4-3 3 2 2 4-2 5 4v3l-6 3h-7l3 6-2 2 1 5-5 3 3 8-2 3-4-6-3 3 4 3 1 5-3 5-5-2-5 2 1 2-9 2v3H42l-4-21-6-20 4-14-1-5-9-15-7-20-8 5-3-1-4-8v-8l4-8 2-1-3-5v-3l-18-20-9 1-2-3h-4l-1-3-3-1-1-5-5-4v-8h7l3-2-5-13-14 1 2-8 16-3-4-3-8-1-8 2v-10l-17-8-6-7h-13l-3-16-3-2v14l2 4h-5l2-4-1-15-4-2v7l-3-1 1 7 4 1 1 3-4-1-2 10h-6l-16-4-16-6-1 3h-6v2l-7-2-3-3h-3l-3 8-20 6-13 2-8-1v2l-8 2-9-2-4 3v3l-3 2-10 15-2 41-11 3-3 3v13l5-2 5 4-2 10-3 1v8l-5 7 2 4 5 2 17-6 1 9 5 5 11 2v5l5 7v6l7 7 6 2-2 5h10l8 9 9 5 1 5-2 3-7-2-2 2 3 2h17l15 7h22l13 4 5 4 3 10 17 19 14-2 6-4 9-3 22 9-3 7v4l7 3 1 5-5 10 3 8-3 5v4l15 13h3l1 5 2 1 7-3 1 3v16l-3 2-5 14 4 1 4 7 2-2 7 4h6l6 7 6 1 3 5v6l10 2-2 6h3l12 7h5l2-3 4 5 12-1 7-6 4 1 2 3 7 1 3-7 8 2 5-4 8 8-2 4 6 3 6 11 4 2 7-1 9-4 6-5 9-2 1-4h4l6 5 5 7v9l4 3 5 10 2 1 5-3 3-4 5-1 2-2-2-11 2-1 5 2 13 13 2 5-3 8 3 7v8l7 8 5 12 4 4 9-5h5l2 2v5l-3 5 1 7-3 10 2 5-1 10-5 17-4 1v5l3 1 1 6 6 5 6-5h4l4-5 14-2 3 2 4-1 20 7-2-4 1-3 6-1 1 2 6 2 6-4 1-6 4-5 2 6 17 2 1 3 4-1-1-3 6-1 6-4 1-3h19l6 6 6 2 7-1 1-4 3-2-3-10-4-4 3-5v-6l5 2 2-3-1-9h-3l-3-17-5-3-5-20-6-9h-3l-1 8-3 1-2-3h-5v-11h-5l-7-3-3-4-4-1-2-6 2-6 6-1 1 2 4-5-2-12 2-2-6-18-13 4-3-3 1-4-4-2-1-8 2-7 21-4 3-2-1-2 4-6 4 2 7 12 6-2 7 3h4l2-5-2-5 2-1 8 2 4-2 9 9v6l4 9 3 3 21-1 1-3 5-2 21-2 23 4 3 2 6-1 7 4 17-9-5-2v-6l2-5-2-5 6-4 14 1v-9l5-21-3-1-1-5 2-11 3-2-1-9 8-4h14v-13l-4-2 4-2 1-4 3-2v-11h4l7-7-2-8-4-1-3-3-1-5-14-4-4 1-3 4-1 7-4 2-1-3-18-8-7 4-5 5v2l-10 4-10-3-5-4-2 1z"/>
  <path id="常州市" fill="#ff6347" fill-opacity="1" fill-rule="evenodd" stroke="#ffffff" stroke-dasharray="none" stroke-linecap="round" stroke-linejoin="round" stroke-opacity="1" stroke-width="0.5" d="m1082 1151-16-13-1-3-21 1-5-5-3-11-2-2-3 3-5-8-3 2-6-3-6 3-2-2h-6l-4 3-6 15 2 1-6 27 4 2 4 8-2 3-9-3v2l8 3v6h-3l-6 9 3 3v7l2 4 4-2h11l-4 8-4 3v8h-9l-3 9-7 10-1 8 2 6-12-3v-4l-5-4-2-6-11-1-5-10-5-2-6 2-3-4v-7l-3-3-3 1 1-4-2-5h-3l-3-3-4-1-1-3-2 3-15 2-15-8-2-5-5-1-9 6-2 8h3l6 10-4 1-1-3-3 2-6-2-7-6-5 1-3-6h-8l-4 6 1 4-5 4-2 5v8l2-1-2 9h-3l-1 4 1 15h6l3 2-4 9 3 1-4 14-12 13-17 7-1-1-7 18v6l-6 8h-4l-2 6-1 5 7-1v2l-6 10-6 3h-5v13l-4 5v3l5 3 3-1 2 8v12l2 5 6 1 4 5 1 4 4 1 1 3-7 8-2 5 1 4-5 4 6 3-1 8 3 3 4-3 1 4 7 2v2l5-1v-2h4l2 5 17-7 7 1 1 2 4-4 1-14 2-1 5 7 1 7 3 1-7 24 2 7 2-1 3 4 5-4 4 3-3-1-3 2 1 6 3-2 6 3 3-4 11 7 2 4 6-1 2 3 1-4 4-1 7 3 6-1 4-7 4-2v-18l-11-9 3-7 1-13-4-5-1-7 4-5-1-13 4-13-1-7 6-2v-9l9 1 4-6v-9l-9 1v-3h3l1-4-3-4v-6h6l4-12 7-11 5-1 5-4 2-4-3-9 7-4h6l4 2 5 12h4l1 8 8-2 12 4h9l6 2 9 8h5l5-7h13l14-3 5 4 8 3 1 9 8 8 1-5 3 2 3-1 8 3 3 4v4l-3 23-6 18 1 8 7 8 17 6 4-1-1-8-19-2-2-3v-5l6-24 2-3 18-9-2-4 1-4 8-10-6-6-2 2-2-2v-10h-3l1-3-10-2-5-5v-7l7-6v-5l11-9 5-1 3-23 6 3 3-2-3-3 1-4 4-3-1-4 2-2-2-16 5-2 4 1 2 4 8-2-2-4-3-2-7-14 2-5-3-2-3-7 4-2 4-10-3-4-7 1-5 4h-8l-2 2-6-1-5 2-11 8-4 5-7-4-2 3-6-2-1-7-4-4 5-2 4-10-6-5 3-8 6-3-6-7v-5z"/>
  <path id="苏州市" fill="#ff6347" fill-opacity="1" fill-rule="evenodd" stroke="#ffffff" stroke-dasharray="none" stroke-linecap="round" stroke-linejoin="round" stroke-opacity="1" stroke-width="0.5" d="M1045 1492v4l6 6 3 17 9 14 6 6 5 14 6 4 13 5 19 17 2 4 9 6 31 7h11l21-3 23-7-4 7 1 5-2 5v9l2 3h3l3-4h5l11-5-2-10 2-1 4 3 3 9-2 1 1 5 4 8-4 4 5 3 3 9-3 5 8 7v6l5 10 5 2 22-33 9-8 5 3 9-3h6l4 3 1-7 2 1 7-9 6 7 2-3-1-4 4-1-1-20-4-7-5-2 5-7 3 2 1-3 6 1 4 3h3l9-6v-8l12-4h7l7 3 2 4 2-2 5 2 1-3 8-3 2-6h2v-9l-3-6 3-14-3-4-9-1-4-2v-3l5-4v-4l4-3h8l9-3 20 5 12-2 3-2h6v-4l8-2 1 2 4-4-5-28v-18l6-1 2-8 2-2 3 7 2 1 4-5 10 4h4l2-3-6-11-1 3h-4v-18h-4l-1-3h-3l1-6 4-1-3-3 13-5-2-2 6-8-5-5 7-2-1-3-6-2v-3l14-4v-3l11-8 2 2 4-1 1-6 2-1 3 7h5l3-4 10-2 1-3 4-3 3 3 9-6 10-17-30-27-52-59-16-4-15-9-37 1-10-2-6-3-12-18-29-66-5-4-3-7-7-2-49 8-14-4-31-13-14-2-28 17-6 6-1 13 2 8 6 5-4 7 4 4 4-1 8 4 16 4v4l8 4 5 12h4l6 6v6l-3 4 3 7 5 1 4-3 1 3 4-3 5 5 6 16-7 7 2 6 5 2-5 7-6 2-2 3 2 6-3 5 11 2 2 3-3 3 3 2-2 3 3 4-3 2-5-1-4 5-4 1-1-3-4 2 2 11 13-4 4 4 4 22-3 3-2-4-13 8-3 5 3 7-7 6-5-1-2 2v3h-6l-2 4h-28l-76 43-13 16-23 19z"/>
  <path id="南通市" fill="#ff6347" fill-opacity="1" fill-rule="evenodd" stroke="#ffffff" stroke-dasharray="none" stroke-linecap="round" stroke-linejoin="round" stroke-opacity="1" stroke-width="0.5" d="m1147 879 2 4 6 4 12-7 2 15 3 6-2 15 2 5-4 2 4 11 2 15 2 3 3 20-2 2 3 4 4-1 3 5 4-3 11-4v4l3 4-5 7 7 15-5 2-2 23 4 5h2l3 9-10 20 1 9 3 8 29 3 19 11 9 3 2 11 4 4 8 3-1 4 4 3-2 5 13 5 14 4 49-8 7 2 3 7 5 4 29 66 12 18 6 3 10 2 37-1 15 9 6 2 23-27 7-6 23-12 14-4 7 2 23 15 11 15-2 1 8 11 9 5 15 2 15 8 9 8 13 6 1-2 11 5 4-1 26 10 95 25-3-38 1-6-26-58-4-5-5-16-1-11-6-11-30-34-5-11-60-23-18-4-7-6 6-7-14-8h-11l-5-3 1-7 14-7-2-23-14-4-2-4-4-36-5-28-3-5-10-8-14-6-24-2-6-2-42-19-12-18-16-3-21-12-21-3 6-11-1-9-25 8-4 3-12 1v5h-4v5l2-2 4 1-5 2-7-1-1 4-5 2-5 5-5 1 1-9-19 1-1 5-7-2v-4l-7-1-11 6-3 7h-3l-2-6 3-4v-3l-5-5-5-2-4 7-1-2 2-8-3-6-5-5-3 5-5 2-12 1-12-2-2-2-4 1v6l-11-3-8 1-4-20-6-1-2-5-6 1v-8l-6-2-4 3-9-1-3 3h-5l-1-2-15 11-9-1-9 2 1 11-3 1 1 6-4 4v10zm438 30-1 4 12 1 1-4-3-1z"/>
  <path id="连云港市" fill="#ff6347" fill-opacity="1" fill-rule="evenodd" stroke="#ffffff" stroke-dasharray="none" stroke-linecap="round" stroke-linejoin="round" stroke-opacity="1" stroke-width="0.5" d="m1009 57-4-2-11-13-51-24-6-7-14-7-6-6-3-7-9-1-26-18 3-10 4 2 3-2v-7l6 1 5-5 1-5-6 1-19-8-27-2-2-4 8 3h22l3 3h7l4-5-7-2-1-2-6-1-1-4-7-2 1 7-23 2-2-4-6-1-5 3-6-1-19-12-8 2-5-3-9-15 3-3-4-10 1-6-4-6 4-12v-29l2-10 7-19 15-10 3 1-2 6 4 12 5-2-5-16v-2l5-2-7-17-17-3-7 7-6-2-12 2-12 5-3 8-4 3v6l-2 1-15-1-4 2-9 1-4-2-29 6-7-4-6 1-2 3-14 5-3 30 1 8-20 30-1 11-2 4-11-1v3l5 5-2 4 1 4-2 6-5 2h-8l-3 2 4 2-1 7-4-1-4 2v7l5 1 4 4 7-2 9 9-14 12h-9l-6 2-5 5h-3l-7-7h-5l-6 3-10-4-2-8-11 1-9 3-2-3h-5l-1 9-5 2-3 5-6 2-6-1-3 7 2 7 3 2v6h-4l-3 3-6-4-5 15 1 14 5 15v8l-4 9-3 2-2 4-3 17 3 7 2-1 5 4 10 3 10-4v-2l5-5 7-4 18 8 1 3 4-2 1-7 3-4 4-1 14 4 1 5 3 3 4 1 2 8-7 7h-4v11l12 9v-3h6l5 4 12 5 3-2 4 4v3l3 2 6-1 10-14v-6l5-1 5-4h25l2-4 4-1 3 2 3-3 5 6v8h3l1-5 11-13v-6h7l7 3 2-3 1-8 17 1-1 5h-8l-3 12v11l2 8 5-2-1 5 4 9-3 21 6 1v11l2 2 1 11 12 1 1 12 3 1-1 6 2 1-6 6 5 5 2-3 7 5 3 5-4 5 3 6 4 2 2 5 7 9 6 2 4 7 11 1v-4l13 1v3l6 1v3l27-5 6 15h5l2 7 3 3 22-15 4-1 4-4-1-3 7 1 2 6 5-1 3 4 3-5-7-17 4-4 5-1 3-3 1-6-7-7-4 2-3-6-5 3-6-12h3l2-4-2-9-7 3-2-6 10-7 8-8h7l21-16 12-5 28-24 1-4 4-3v-8l2-3 5-2 3-7 8-2v-5l-5-10 3-9-1-9h5l1-5 3-1z"/>
  <path id="淮安市" fill="#ff6347" fill-opacity="1" fill-rule="evenodd" stroke="#ffffff" stroke-dasharray="none" stroke-linecap="round" stroke-linejoin="round" stroke-opacity="1" stroke-width="0.5" d="m777 781 34 12 13-3 7-4 4-10 2-13-8-34-1-23 6-5 6-8 2-4v-6l-7-6-9-16-2-11-3-3-13-5-7-5-8 3-2-4 2-2-4-18h-19l-6-3-2-7 1-8 3-3 3-7-4-6 3 1 37-9-10-18 3-4 25-6 20-1 18-3 12-4 14-10 6 1 10-4h5l3 2 2 4 3 1 19-12v-5l-5-5v-2l-5-4h-4l-2-5-6 2-10-14-4 1-8-9-7-30-3-3-2-13-3-7 2-1 2 3 10-7-4-2v-4l3-3-4-5v-6l10-10v-8l5-13 3-3 2-9 3-3-1-4 5-6 1-6 10-8 5-7 7-2 7-6v-5l3-9-3-6 2-4-3-1-6 2-1-4-8-10 3-1-2-7-7-2-4-6-1 2-3-4-5 1-2-6-7-1 1 3-4 4-4 1-22 15-3-3-2-7h-5l-6-15-27 5v-3l-6-1v-3l-13-1v4l-11-1-4-7-6-2-7-9-2-5-4-2-3 2-3 6-3 13-7 7-6 2-11 11-1 6-14 8-1 4 4 1 1 9-6 4-4 7-7 7-3-1v-3h-4l-6-6-7 2-1 3h-3l-3 3-4-1-5 6-8 1-4-3-4 1-2 5-11 9-10 20 2 8-4 10 4 4-1 10 4 4-2 7 2 6-6 4-2 11 3 9-16 5 10 21 8 6-6 16-1 19-3 3 2 19-14 25 13 17-98 36-32 33-59-5-15 8 1 11-2 18-3 1v3h4v8l-5-2-2 1 8 3 1 6-4-1-1 4 7 1 3 6 4 28 7 5h12l2 5-6 5-15 4-6 5-1 4 7 30 4-4h8l2 5 4-1-1 7 3 9-4 4 1 7 3 3h6l1 6 3 1 5-5 7 2 2 5v7l-2 3 3 7h17l10-11 4 7 9 3 2-2 11 1 9-3h5l6 5 12-4 3-5 6-1 2-2 25 11 6-1 5-4 7-2-1-8-3-2-3-6v-9l3-3-1-23 2-2 15 5 8-3v-5l-2-2 2-2v-18l3-2 6 4 1-5 4-2-3-7 3-1v-4l13-2 4 1-2 3 1 4 4-1 6 2h4l3-3h7l12-5 6-1 4 2 2 4-1 5 3 3-4 1-2 8 2 1 9-3v8l4 8 6 4 12 17 3 2z"/>
  <path id="盐城市" fill="#ff6347" fill-opacity="1" fill-rule="evenodd" stroke="#ffffff" stroke-dasharray="none" stroke-linecap="round" stroke-linejoin="round" stroke-opacity="1" stroke-width="0.5" d="m1429 854-5-11-4-3-6-1-7-4v-4l6-2 8 1 3-16 4-5 3-42-1-7-2-5-6-3-9-49-5-8-17-10 1-20-11-50 1-5-1-4-9-4v-8l5-5v-6l-4-7-3-2-16-2-11-13-8-43-14-37-11-25-24-40-18-50-9-21-9-12-42-102-8-39-6-13-6-20-2-19 1-4-7-5-21-8-48-24-51-30-51-10-1 8-3 1-1 5h-5l1 9-3 9 5 10v5l-8 2-3 7-5 2-2 3v8l-4 3-1 4-28 24-12 5-21 16h-7l-8 8-10 7 2 6 7-3 2 9-2 4h-3l6 12 5-3 3 6 4-2 7 7-1 6-3 3-5 1-4 4 6 12 1 5-2 3 4 6 7 2 2 7-3 1 8 10 1 4 6-2 3 1-2 4 3 6-3 9v5l-7 6-7 2-5 7-10 8-1 6-5 6 1 4-3 3-2 9-3 3-5 13v8l-10 10v6l4 5-3 3v4l4 2-10 7-2-3-2 1 3 7 2 13 3 3 7 30 8 9 4-1 10 14 6-2 2 5h4l5 4v2l5 5v5l-19 12 4 9h10l3 9 1 11 6-1v8l3 2v8l5 6 2-3 15-3 5 10h-4l-7 14 3 6 14 6 1 3-2 14 8 1 1 4-5 6 3 7h9l5-4 21-6h9l-1 4h9l1-3 8 1 8-3 11 3 7-1 22-6 12-7 49 19 30 3-3 11 2 4-1 7 6 8 2 6-2 10 1 14-4 11v6l-5-1v3l3 1-1 6-4 3-15-1-1 3-6 2-6-2-1-4-9-1v10l2 2-2 12 9 1-1 3 4 2-1 5h-4v4l-4 4-1 4 4-1-2 6-7-1-3 2 3 8-3 2 1 3h4l3 3 5-3 1-3 9-2 2 6-8 9-4 8-5-1v8l-3 3-3-2-4 3 1 4-5-1-2 8h-3l-3 4v20l-5 1 2 7 3 2 7-3 13-2v-4l7 5v7h6v-10l4-4-1-6 3-1-1-11 9-2 9 1 15-11 1 2h5l3-3 9 1 4-3 6 2v8l6-1 2 5 6 1 4 20 8-1 11 3v-6l4-1 2 2 12 2 12-1 5-2 3-5 5 5 3 6-2 8 1 2 4-7 5 2 5 5v3l-3 4 2 6h3l3-7 11-6 7 1v4l7 2 1-5 19-1-1 9 5-1 5-5 5-2 1-4 7 1 5-2-4-1-2 2v-5h4v-5l12-1 4-3z"/>
  <path id="扬州市" fill="#ff6347" fill-opacity="1" fill-rule="evenodd" stroke="#ffffff" stroke-dasharray="none" stroke-linecap="round" stroke-linejoin="round" stroke-opacity="1" stroke-width="0.5" d="m793 1042 9-4 12-1 37 4 3-5 6-5 8-4 16-2 13 5 12-12-1-2 11-1 1 5-3 1v18l11-2-1-5 4-3 3 1 2 5v9l3-4-1-9 2-4 16-6 4-5 7 3 14-17 8-2 7 1 12 6 9-8 1-3-2-14h4l1-8-4-7 3-2v-4l4-3 2-9-4-3-2-8-8 1-6-3 1-10 3-2-1-17 5-6-7-13v-11l2-1-3-9 5-1 2-5 12 6 1 4 8-1 3 2v-3l5-1-6-9 1-5-2-7-8-2 2-9-7-5v-4l-5-7v-7l8-7-1-3-11-3-3-5 2-5-3-1-6 3-4-1-2-3 4-8v-4l-2-1 4-5-3-2 2-3-5-8-2-14-3-1-5 5-6 3-7-2-5-8 1-7-4-3-3-7 4-13v-7l-4-5-4-24-6-7-8-6-2-7h3l-1-5 4-14 13-10 3-7 2 2 2-9-7-3-3-6 7-14h4l-5-10-15 3-2 3-5-6v-8l-3-2v-8l-6 1-1-11-3-9h-10l-4-9-3-1-2-4-3-2h-5l-10 4-6-1-14 10-12 4-18 3-20 1-25 6-3 4 10 18-37 9-3-1 4 6-3 7-3 3-1 8 2 7 6 3h19l4 18-2 2 2 4 8-3 7 5 13 5 3 3 2 11 9 16 7 6v6l-2 4-6 8-6 5 1 23 8 34-2 13-4 10-7 4-13 3-34-12 2 16 6 21 2 14-1 29 4 5v9l4 1-4 6v7l-4 1-6-2-2-9-4 3-1 10-7 3v3l4 4 1 5-5 3-2 8-3 4 2 3-4 1-14 11-4 6-5-2-2-3h-7l-4 5-5-2v7l2 5-4 7v6l4 4h3l1 3-6 1-1 2 9 4-6 6v3l5 5-2 4 2 23-2 5 14 4 4 4 17-2 16 3z"/>
  <path id="镇江市" fill="#ff6347" fill-opacity="1" fill-rule="evenodd" stroke="#ffffff" stroke-dasharray="none" stroke-linecap="round" stroke-linejoin="round" stroke-opacity="1" stroke-width="0.5" d="m795 1297 1 1 17-7 12-13 4-14-3-1 4-9-3-2h-6l-1-15 1-4h3l2-9-2 1v-8l2-5 5-4-1-4 4-6h8l3 6 5-1 7 6 6 2 3-2 1 3 4-1-6-10h-3l2-8 9-6 5 1 2 5 15 8 15-2 2-3 1 3 4 1 3 3h3l2 5-1 4 3-1 3 3v7l3 4 6-2 5 2 5 10 11 1 2 6 5 4v4l12 3-2-6 1-8 7-10 3-9h9v-8l4-3 4-8h-11l-4 2-2-4v-7l-3-3 6-9h3v-6l-8-3v-2l9 3 2-3-4-8-4-2 6-27-2-1 6-15 4-3h6l2 2 6-3 6 3 3-2 5 8 3-3 2 2 3 11 5 5 21-1-17-31-13-45-6-28-9-15-7-6-11-7-6-2-7-1-8 2-14 17-7-3-4 5-16 6-2 4 1 9-3 4v-9l-2-5-3-1-4 3 1 5-11 2v-18l3-1-1-5-11 1 1 2-12 12-13-5-16 2-8 4-6 5-3 5h-8l-11-3h-30l-9 4 5 3-8 6-2 5-9 2-2-2-11 1-7-3-5 3-16 4-1 7h-10l4 2h-7l-6 11-5 3v4l15 2 3 4 4-3h4l3 8 4-1-1 9-4 8 4 18-2 3 4-1 4 2v6l3 1v3l-3-1-1 5-3 1-5-3-6 2-3-2-6 2-7 5v3l3 5 5 1 6-2 14 3 2 14 2 4-3 3-3 8-3 2-6-1-2-2-10 6h-3l-3 3-17 2-4 3 1 4 6 4 4 7 3 1-1 6-8 1-1 7 7-1 2-4 9-3 10-2 4 3 4-1v4l4 2 2 6 11 9 2 5 3 1 7 9 10 3 2 3-1 4 2 7-2 5 6 1 3 8 7-2z"/>
  <path id="泰州市" fill="#ff6347" fill-opacity="1" fill-rule="evenodd" stroke="#ffffff" stroke-dasharray="none" stroke-linecap="round" stroke-linejoin="round" stroke-opacity="1" stroke-width="0.5" d="m1275 1128 2-5-4-3 1-4-8-3-4-4-2-11-9-3-19-11-29-3-4-17 10-20-3-9h-2l-4-5 2-23 5-2-7-15 5-7-3-4v-4l-11 4-4 3-3-5-4 1-3-4 2-2-3-20-2-3-2-15-4-11 4-2-2-5 2-15-3-6-2-15-12 7-6-4-4-5v-7l-7-5v4l-13 2-7 3-3-2-2-7 5-1v-20l3-4h3l2-8 5 1-1-4 4-3 3 2 3-3v-8l5 1 4-8 8-9-2-6-9 2-1 3-5 3-3-3h-4l-1-3 3-2-3-8 3-2 7 1 2-6-4 1 1-4 4-4v-4h4l1-5-4-2 1-3-9-1 2-12-2-2v-10l9 1 1 4 6 2 6-2 1-3 15 1 4-3 1-6-3-1v-3l5 1v-6l4-11-1-14 2-10-2-6-6-8 1-7-2-4 3-11-30-3-49-19-12 7-22 6-7 1-11-3-8 3-8-1-1 3h-9l1-4h-9l-21 6-5 4h-9l-3-7 5-6-1-4-8-1 2-14-1-3-7-3-2 9-2-2-3 7-13 10-4 14 1 5h-3l2 7 8 6 6 7 4 24 4 5v7l-4 13 3 7 4 3-1 7 5 8 7 2 6-3 5-5 3 1 2 14 5 8-2 3 3 2-4 5 2 1v4l-4 8 2 3 4 1 6-3 3 1-2 5 3 5 11 3 1 3-8 7v7l5 7v4l7 5-2 9 8 2 2 7-1 5 6 9-5 1v3l-3-2-8 1-1-4-12-6-2 5-5 1 3 9-2 1v11l7 13-5 6 1 17-3 2-1 10 6 3 8-1 2 8 4 3-2 9-4 3v4l-3 2 4 7-1 8h-4l2 14-1 3-9 8 12 9 9 15 6 28 13 45 18 34 14 12 17 7 40 9 12 1 11-1 42-20 13-11 28-17 14 2 8 4z"/>
  <path id="宿迁市" fill="#ff6347" fill-opacity="1" fill-rule="evenodd" stroke="#ffffff" stroke-dasharray="none" stroke-linecap="round" stroke-linejoin="round" stroke-opacity="1" stroke-width="0.5" d="m773 228-3-6 4-5-3-5-7-5-2 3-5-5 6-6-2-1 1-6-3-1-1-12-12-1-1-11-2-2v-11l-6-1 3-21-4-9 1-5-5 2-2-8v-11l3-12h8l1-5-17-1-1 8-2 3-7-3h-7v6l-11 13-1 5h-3v-8l-5-6-3 3-3-2-4 1-2 4h-25l-5 4-5 1v6l-10 14-6 1-3-2v-3l-4-4-3 2-12-5-5-4h-6v3l-12-9-3 2-1 4-4 2 4 2v13h-14l-8 4 1 9-3 2-2 11 1 5 3 1-5 21v9l-14-1-6 4 2 5-2 5v6l5 2-13 8-4 1-7-4-6 1-3-2-23-4-21 2-5 2-1 3-21 1-3-3-4-9v-6l-9-9-4 2-8-2-2 1 2 5-2 5h-4l-7-3-6 2-7-12-4-2-4 6 1 2-3 2-21 4-2 7 1 8 4 2-1 4 3 3 13-4 6 18-2 2 2 12-4 5-1-2-6 1-2 6 2 6 4 1 3 4 7 3h5v11h5l2 3 3-1 1-8h3l6 9 5 20 5 3 3 17h3l1 9-2 3-5-2v6l-3 5 4 4 3 10-3 2-1 4 6 2-3 4h-6l-3 7 6 2-2 10 2 13-21 20 2 11-3 27h-3l3 4v20l-21-7-3 8-5 6-2 8-2 15 4 7v8l-8 9-4 2-9-1 2 6 6 1-3 5-1 11-3 7-13 8 4 4-4 8 2 4 12-1 6 7v2l-4 3 3 9 5 1 2 4 3 1 3 4 4 1v8l12-2 29-13 4-5-2-6 5-8 3-2 13 8 3 8 15-8 59 5 32-33 98-36-13-17 14-25-2-19 3-3 1-19 6-16-8-6-10-21 16-5-3-9 2-11 6-4-2-6 2-7-4-4 1-10-4-4 4-10-2-8 10-20 11-9 2-5 4-1 4 3 8-1 5-6 4 1 3-3h3l1-3 7-2 6 6h4v3l3 1 7-7 4-7 6-4-1-9-4-1 1-4 14-8 1-6 11-11 6-2 7-7 3-13 3-6z"/>
</svg>
