<?xml version="1.0" encoding="UTF-8" standalone="no"?>
<svg
   width="2045"
   height="1896"
   viewBox="-251 -228 2045 1896"
   version="1.1"
   id="svg1"
   xmlns="http://www.w3.org/2000/svg"
   xmlns:svg="http://www.w3.org/2000/svg">
  <defs
     id="defs1" />
  <path
     stroke="#ffff00"
     stroke-opacity="1"
     stroke-width="0.5"
     stroke-linecap="round"
     stroke-linejoin="round"
     stroke-dasharray="none"
     fill="#1e90ff"
     fill-opacity="1"
     fill-rule="evenodd"
     d="m 734,937.99999 -2,-9 -7,-8 v -5 l -8,-2 -5,2 -3,5 h -7 l -4,-5 -1,-5 -9,-9 -2,-5 h -6 l -2,4 -9,-2 4,-3 -1,-7 5,-4 -3,-1 -6,1 -1,2 -3,-1 -1,3 -6,1 -3,3 -2,-2 h -5 v -4 h -3 l 2,-4 v -5 l -2,-1 -7,9 -6,1 -3,-3 v -4 l -7,-3 -5,3 -1,4 -5,-3 v -6 l -10,1 1,8 -16,-3 -9,7 -3,-6 -8,-2 -2,-2 -10,7 -2,9 1,3 12,6 3,3 -1,6 3,1 1,4 -3,4 -6,1 v 8 l 6,3 v 2 h 13 l 1,-3 9,3 6,-1 2,3 -2,21 -3,10 4,7 3,-2 -1,6 2,4 -3,3 2,1 -1,3 4,2 -1,4 h -6 l -1,2 4,3.00001 h -6 l -7,5 v 4 h 2 l 2,5 -4,8 2,4 h 3 l -2,9 -9,11 -6,3 -3,-1 -8,3 h -6 l -2,-2 -5,3 -4,-1 -4,3 -3,-2 -4,4 -4,-3 -1,5 -4,2 v 5 l 4,12 -2,-1 -2,4 2,4 -10,3 v 2 l -4,4 -11,6 -10,3 -4,8 h -3 l 3,6 -3,6 6,6 -5,3 1,10 -2,3 h -3 l 1,6 -4,5 v 6 l -2,5 8,7 h 6 l 5,6 13,7 7,2 -2,9 9,7 h 5 l -7,20 -1,8 h 7 l 3,5 5,2 4,-3 2,3 v 5 h -4 v 3 l 9,6 7,-8 1,3 6,-2 3,-4 3,-1 4,3 3,-4 h 5 l 3,4 -3,2 4,2 1,4 11,2 1,4 4,3 -7,6 h -2 l -1,3 -6,5 -3,-1 -1,3 v 10 l 5,3 h 6 l 4,2 12,-1 v 5 l 4,-3 2,1 2,-8 2,-2 1,-9 4,-2 3,2 2,-3 9,7 -5,5 4,12 3,4 h 4 l 2,-4 5,-1 9,3 4,5 1,5 -4,2 6,2 -2,5 4,6 -3,5 v 9 l 4,2 -1,13 -5,14 v 18 l -7,12 -8,7 -22,6 1,-6 -2,-5 -4,2 -12,26 -1,12 -5,-3 8,8 13,2 6,7 1,9 5,5 h 4 l 5,-3 4,3 3,-3 11,-3 8,2 9,-2 3,2 h 22 l 1,3 6,-1 4,-3 12,3 5,-2 4,2 4,-2 8,1 1,-6 4,-5 h 5 l 3,-6 h 3 l 3,-8 h 7 l 7,-6 -1,-4 2,-5 7,-8 -1,-3 -4,-1 -1,-4 -4,-5 -6,-1 -2,-5 v -12 l -2,-8 -3,1 -5,-3 v -3 l 4,-5 v -13 h 5 l 6,-3 6,-10 v -2 l -7,1 1,-5 2,-6 h 4 l 6,-8 v -6 l 7,-18 -1,-2 -7,2 -3,-8 -6,-1 2,-5 -2,-7 1,-4 -2,-3 -10,-3 -7,-9 -3,-1 -2,-5 -11,-9 -2,-6 -4,-2 v -4 l -4,1 -4,-3 -10,2 -9,3 -2,4 -7,1 1,-7 8,-1 1,-6 -3,-1 -4,-7 -6,-4 -1,-4 4,-3 17,-2 3,-3 h 3 l 10,-6 2,2 6,1 3,-2 3,-8 3,-3 -2,-4 -2,-14 -14,-3 -6,2 -5,-1 -3,-5 v -3 l 7,-5 6,-2 3,2 6,-2 5,3 3,-1 1,-5 3,1 v -3 l -3,-1 v -6 l -4,-2 -4,1 2,-3 -4,-18 4,-8 1,-9 -4,1 -3,-8 h -4 l -4,3 -3,-4 -15,-2 v -4 l 5,-3 6,-11 h 7 l -4,-2 h 10 l 1,-7 16,-4 5,-3 7,3 11,-1 2,2 9,-2 2,-5 8,-6 -24,-10 -16,-3 -17,2 -4,-4 -14,-4 2,-5 -2,-23.00001 2,-4 -5,-5 v -3 l 6,-6 -9,-4 1,-2 6,-1 -1,-3 h -3 l -4,-4 v -6 l 4,-7 -2,-5 v -7 l 5,2 4,-5 z M 661,1343 l -4,-1 -3,6 v 2 h 3 z"
     id="南京市" />
  <path
     stroke="#ffff00"
     stroke-opacity="1"
     stroke-width="0.5"
     stroke-linecap="round"
     stroke-linejoin="round"
     stroke-dasharray="none"
     fill="#1e90ff"
     fill-opacity="1"
     fill-rule="evenodd"
     d="m 903,1497 5,5 6,3 4,5 1,6 2,2 h 7 l 5,-8 9,-3 1,-6 8,-4 v -3 l 5,-1 2,3 8,4 3,-7 10,-2 6,1 8,-4 5,5 v 5 h 3 l 3,3 8,-5 -3,-2 1,-3 h 5 l 1,2 h 9 l 4,3 16,-4 69,-40 23,-19 13,-16 76,-43 h 28 l 2,-4 h 6 v -3 l 2,-2 5,1 7,-6 -3,-7 3,-5 13,-8 2,4 3,-3 -4,-22 -4,-4 -13,4 -2,-11 4,-2 1,3 4,-1 4,-5 5,1 3,-2 -3,-4 2,-3 -3,-2 3,-3 -2,-3 -11,-2 3,-5 -2,-6 2,-3 6,-2 5,-7 -5,-2 -2,-6 7,-7 -2,-7 -2,-1 -2,-8 -5,-5 -4,3 -1,-3 -4,3 -5,-1 -3,-7 3,-4 v -6 l -6,-6 h -4 l -5,-12 -8,-4 v -4 l -7,-1 -17,-7 -4,1 -4,-4 4,-7 -6,-5 -2,-8 1,-13 -7,5 -42,20 h -23 l -40,-9 -15,-6 -6,9 v 5 l 6,7 -6,3 -3,8 6,5 -4,10 -5,2 4,4 1,7 6,2 2,-3 7,4 4,-5 11,-8 5,-2 6,1 2,-2 h 8 l 5,-4 7,-1 3,4 -4,10 -4,2 3,7 3,2 -2,5 7,14 3,2 2,4 -8,2 -2,-4 -4,-1 -5,2 2,16 -2,2 1,4 -4,3 -1,4 3,3 -3,2 -6,-3 -3,23 -5,1 -11,9 v 5 l -7,6 v 7 l 5,5 10,2 -1,3 h 3 v 10 l 2,2 2,-2 6,6 -8,10 -1,4 2,4 -8,3 -10,6 -2,3 -6,24 v 5 l 2,3 19,2 1,8 -4,1 -17,-6 -7,-8 -1,-8 6,-18 3,-23 v -4 l -3,-4 -8,-3 -3,1 -3,-2 -1,5 -8,-8 -1,-9 -8,-3 -5,-4 -14,3 h -13 l -5,7 h -5 l -9,-8 -6,-2 h -9 l -12,-4 -8,2 -1,-8 h -4 l -5,-12 -4,-2 h -6 l -7,4 3,9 -2,4 -5,4 -5,1 -7,11 -4,12 h -6 v 6 l 3,4 -1,4 h -3 v 3 l 9,-1 v 9 l -4,6 -9,-1 v 9 l -6,2 1,7 -4,13 1,13 -4,5 1,7 4,5 -1,13 -3,7 11,9 v 18 l -4,2 z"
     id="无锡市" />
  <path
     stroke="#ffff00"
     stroke-opacity="1"
     stroke-width="0.5"
     stroke-linecap="round"
     stroke-linejoin="round"
     stroke-dasharray="none"
     fill="#1e90ff"
     fill-opacity="1"
     fill-rule="evenodd"
     d="m 494,76.99999 -1,4 h -4 l -5,5 -10,-1 v -2 l -12,1 -11,-2 v 6 h -4 l -1,3 h -12 l -4,3 -4,-4 -1,12 h -10 l -3,-5 -1,5 -3,-1 3,-19 -1,-12 -14,-10 -2,-4 3,-6 9,-3 1,-7 6,-11 -8,-3 -4,1 -4,-2 -2,-4 -3,3 -18,-6 1,-4 8,-6 4,-10 v -3 l -5,-2 -2,-4 3,-5 -7,-4 h -10 l -1,2 -12,-4 -1,6 h -4 v -4 l -6,-3 v -3 l -10,-4 h -4 l -4,6 -11,-2 -3,11 h -8 l -1,-3 -5,3 -5,-1 -1,-2 -5,2 -1,-3 -4,3 h -7 l -3,-2 v 11 l 2,2 -2,16 1,20 2,10 h -4 l -6,-5 -32,-8 -1,8 -3,6 -10,10 -3,-2 -3,4 -8,-1 -6,12 h -8 l -3,-4 -5,-1 -4,3 -16,-2 -2,3 v -7 l -2,-2 -6,1 -5,-10 -5,-4 v -2 l -4,-2 -1,-5 -8,-5 v -10 l -10,-6 -4,3 -4,-3 -7,5 -5,-1 -1,4 5,-1 1,3 -5,-2 -6,3 2,-6 -10,4 -3,3 2,2 4,-2 5,4 v 3 l -6,3 h -7 l 3,6 -2,2 1,5 -5,3 3,8 -2,3 -4,-6 -3,3 4,3 1,5 -3,5 -5,-2 -5,2 1,2 -9,2 v 3 H 42 l -4,-21 -6,-20 4,-14 -1,-5 -9,-15 -7,-20 -8,5 -3,-1 -4,-8 v -8 l 4,-8 2,-1 -3,-5 v -3 l -18,-20 -9,1 -2,-3 h -4 l -1,-3 -3,-1 -1,-5 -5,-4 v -8 h 7 l 3,-2 -5,-13 -14,1 2,-8 16,-3 -4,-3 -8,-1 -8,2 v -10 l -17,-8 -6,-7 h -13 l -3,-16 -3,-2 v 14 l 2,4 h -5 l 2,-4 -1,-15 -4,-2 v 7 l -3,-1 1,7 4,1 1,3 -4,-1 -2,10 h -6 l -16,-4 -16,-6 -1,3 h -6 v 2 l -7,-2 -3,-3 h -3 l -3,8 -20,6 -13,2 -8,-1 v 2 l -8,2 -9,-2 -4,3 v 3 l -3,2 -10,15 -2,41 -11,3 -3,3 v 13 l 5,-2 5,4 -2,10 -3,1 v 8 l -5,7 2,4 5,2 17,-6 1,9 5,5 11,2 v 5 l 5,7 v 6 l 7,7 6,2 -2,5 h 10 l 8,9 9,5 1,5 -2,3 -7,-2 -2,2 3,2 h 17 l 15,7 h 22 l 13,4 5,4 3,10 17,19 14,-2 6,-4 9,-3 22,9 -3,7 v 4 l 7,3 1,5 -5,10 3,8 -3,5 v 4 l 15,13 h 3 l 1,5 2,1 7,-3 1,3 v 16 l -3,2 -5,14 4,1 4,7 2,-2 7,4 h 6 l 6,7 6,1 3,5 v 6 l 10,2 -2,6 h 3 l 12,7 h 5 l 2,-3 4,5 12,-1 7,-6 4,1 2,3 7,1 3,-7 8,2 5,-4 8,8 -2,4 6,3 6,11 4,2 7,-1 9,-4 6,-5 9,-2 1,-4 h 4 l 6,5 5,7 v 9 l 4,3 5,10 2,1 5,-3 3,-4 5,-1 2,-2 -2,-11 2,-1 5,2 13,13 2,5 -3,8 3,7 v 8 l 7,8 5,12 4,4 9,-5 h 5 l 2,2 v 5 l -3,5 1,7 -3,10 2,5 -1,10 -5,17 -4,1 v 5 l 3,1 1,6 6,5 6,-5 h 4 l 4,-5 14,-2 3,2 4,-1 20,7 -2,-4 1,-3 6,-1 1,2 6,2 6,-4 1,-6 4,-5 2,6 17,2 1,3 4,-1 -1,-3 6,-1 6,-4 1,-3 h 19 l 6,6 6,2 7,-1 1,-4 3,-2 -3,-10 -4,-4 3,-5 v -6 l 5,2 2,-3 -1,-9 h -3 l -3,-17 -5,-3 -5,-20 -6,-9 h -3 l -1,8 -3,1 -2,-3 h -5 v -11 h -5 l -7,-3 -3,-4 -4,-1 -2,-6 2,-6 6,-1 1,2 4,-5 -2,-12 2,-2 -6,-18 -13,4 -3,-3 1,-4 -4,-2 -1,-8 2,-7 21,-4 3,-2 -1,-2 4,-6 4,2 7,12 6,-2 7,3 h 4 l 2,-5 -2,-5 2,-1 8,2 4,-2 9,9 v 6 l 4,9 3,3 21,-1 1,-3 5,-2 21,-2 23,4 3,2 6,-1 7,4 17,-9 -5,-2 v -6 l 2,-5 -2,-5 6,-4 14,1 v -9 l 5,-21 -3,-1 -1,-5 2,-11 3,-2 -1,-9 8,-4 h 14 v -13 l -4,-2 4,-2 1,-4 3,-2 v -11 h 4 l 7,-7 -2,-8 -4,-1 -3,-3 -1,-5 -14,-4 -4,1 -3,4 -1,7 -4,2 -1,-3 -18,-8 -7,4 -5,5 v 2 l -10,4 -10,-3 -5,-4 -2,1 z"
     id="徐州市" />
  <path
     stroke="#ffff00"
     stroke-opacity="1"
     stroke-width="0.5"
     stroke-linecap="round"
     stroke-linejoin="round"
     stroke-dasharray="none"
     fill="#1e90ff"
     fill-opacity="1"
     fill-rule="evenodd"
     d="m 1082,1151 -16,-13 -1,-3 -21,1 -5,-5 -3,-11 -2,-2 -3,3 -5,-8 -3,2 -6,-3 -6,3 -2,-2 h -6 l -4,3 -6,15 2,1 -6,27 4,2 4,8 -2,3 -9,-3 v 2 l 8,3 v 6 h -3 l -6,9 3,3 v 7 l 2,4 4,-2 h 11 l -4,8 -4,3 v 8 h -9 l -3,9 -7,10 -1,8 2,6 -12,-3 v -4 l -5,-4 -2,-6 -11,-1 -5,-10 -5,-2 -6,2 -3,-4 v -7 l -3,-3 -3,1 1,-4 -2,-5 h -3 l -3,-3 -4,-1 -1,-3 -2,3 -15,2 -15,-8 -2,-5 -5,-1 -9,6 -2,8 h 3 l 6,10 -4,1 -1,-3 -3,2 -6,-2 -7,-6 -5,1 -3,-6 h -8 l -4,6 1,4 -5,4 -2,5 v 8 l 2,-1 -2,9 h -3 l -1,4 1,15 h 6 l 3,2 -4,9 3,1 -4,14 -12,13 -17,7 -1,-1 -7,18 v 6 l -6,8 h -4 l -2,6 -1,5 7,-1 v 2 l -6,10 -6,3 h -5 v 13 l -4,5 v 3 l 5,3 3,-1 2,8 v 12 l 2,5 6,1 4,5 1,4 4,1 1,3 -7,8 -2,5 1,4 -5,4 6,3 -1,8 3,3 4,-3 1,4 7,2 v 2 l 5,-1 v -2 h 4 l 2,5 17,-7 7,1 1,2 4,-4 1,-14 2,-1 5,7 1,7 3,1 -7,24 2,7 2,-1 3,4 5,-4 4,3 -3,-1 -3,2 1,6 3,-2 6,3 3,-4 11,7 2,4 6,-1 2,3 1,-4 4,-1 7,3 6,-1 4,-7 4,-2 v -18 l -11,-9 3,-7 1,-13 -4,-5 -1,-7 4,-5 -1,-13 4,-13 -1,-7 6,-2 v -9 l 9,1 4,-6 v -9 l -9,1 v -3 h 3 l 1,-4 -3,-4 v -6 h 6 l 4,-12 7,-11 5,-1 5,-4 2,-4 -3,-9 7,-4 h 6 l 4,2 5,12 h 4 l 1,8 8,-2 12,4 h 9 l 6,2 9,8 h 5 l 5,-7 h 13 l 14,-3 5,4 8,3 1,9 8,8 1,-5 3,2 3,-1 8,3 3,4 v 4 l -3,23 -6,18 1,8 7,8 17,6 4,-1 -1,-8 -19,-2 -2,-3 v -5 l 6,-24 2,-3 18,-9 -2,-4 1,-4 8,-10 -6,-6 -2,2 -2,-2 v -10 h -3 l 1,-3 -10,-2 -5,-5 v -7 l 7,-6 v -5 l 11,-9 5,-1 3,-23 6,3 3,-2 -3,-3 1,-4 4,-3 -1,-4 2,-2 -2,-16 5,-2 4,1 2,4 8,-2 -2,-4 -3,-2 -7,-14 2,-5 -3,-2 -3,-7 4,-2 4,-10 -3,-4 -7,1 -5,4 h -8 l -2,2 -6,-1 -5,2 -11,8 -4,5 -7,-4 -2,3 -6,-2 -1,-7 -4,-4 5,-2 4,-10 -6,-5 3,-8 6,-3 -6,-7 v -5 z"
     id="常州市" />
  <path
     stroke="#ffff00"
     stroke-opacity="1"
     stroke-width="0.5"
     stroke-linecap="round"
     stroke-linejoin="round"
     stroke-dasharray="none"
     fill="#1e90ff"
     fill-opacity="1"
     fill-rule="evenodd"
     d="m 1045,1492 v 4 l 6,6 3,17 9,14 6,6 5,14 6,4 13,5 19,17 2,4 9,6 31,7 h 11 l 21,-3 23,-7 -4,7 1,5 -2,5 v 9 l 2,3 h 3 l 3,-4 h 5 l 11,-5 -2,-10 2,-1 4,3 3,9 -2,1 1,5 4,8 -4,4 5,3 3,9 -3,5 8,7 v 6 l 5,10 5,2 22,-33 9,-8 5,3 9,-3 h 6 l 4,3 1,-7 2,1 7,-9 6,7 2,-3 -1,-4 4,-1 -1,-20 -4,-7 -5,-2 5,-7 3,2 1,-3 6,1 4,3 h 3 l 9,-6 v -8 l 12,-4 h 7 l 7,3 2,4 2,-2 5,2 1,-3 8,-3 2,-6 h 2 v -9 l -3,-6 3,-14 -3,-4 -9,-1 -4,-2 v -3 l 5,-4 v -4 l 4,-3 h 8 l 9,-3 20,5 12,-2 3,-2 h 6 v -4 l 8,-2 1,2 4,-4 -5,-28 v -18 l 6,-1 2,-8 2,-2 3,7 2,1 4,-5 10,4 h 4 l 2,-3 -6,-11 -1,3 h -4 v -18 h -4 l -1,-3 h -3 l 1,-6 4,-1 -3,-3 13,-5 -2,-2 6,-8 -5,-5 7,-2 -1,-3 -6,-2 v -3 l 14,-4 v -3 l 11,-8 2,2 4,-1 1,-6 2,-1 3,7 h 5 l 3,-4 10,-2 1,-3 4,-3 3,3 9,-6 10,-17 -30,-27 -52,-59 -16,-4 -15,-9 -37,1 -10,-2 -6,-3 -12,-18 -29,-66 -5,-4 -3,-7 -7,-2 -49,8 -14,-4 -31,-13 -14,-2 -28,17 -6,6 -1,13 2,8 6,5 -4,7 4,4 4,-1 8,4 16,4 v 4 l 8,4 5,12 h 4 l 6,6 v 6 l -3,4 3,7 5,1 4,-3 1,3 4,-3 5,5 6,16 -7,7 2,6 5,2 -5,7 -6,2 -2,3 2,6 -3,5 11,2 2,3 -3,3 3,2 -2,3 3,4 -3,2 -5,-1 -4,5 -4,1 -1,-3 -4,2 2,11 13,-4 4,4 4,22 -3,3 -2,-4 -13,8 -3,5 3,7 -7,6 -5,-1 -2,2 v 3 h -6 l -2,4 h -28 l -76,43 -13,16 -23,19 z"
     id="苏州市" />
  <path
     stroke="#ffff00"
     stroke-opacity="1"
     stroke-width="0.5"
     stroke-linecap="round"
     stroke-linejoin="round"
     stroke-dasharray="none"
     fill="#1e90ff"
     fill-opacity="1"
     fill-rule="evenodd"
     d="m 1147,878.99999 2,4 6,4 12,-7 2,15 3,6 -2,15 2,5 -4,2 4,11 2,15 2,3 3,20 -2,2 3,4 4,-1 3,5 4,-3 11,-4 v 4 l 3,4 -5,7 7,15.00001 -5,2 -2,23 4,5 h 2 l 3,9 -10,20 1,9 3,8 29,3 19,11 9,3 2,11 4,4 8,3 -1,4 4,3 -2,5 13,5 14,4 49,-8 7,2 3,7 5,4 29,66 12,18 6,3 10,2 37,-1 15,9 6,2 23,-27 7,-6 23,-12 14,-4 7,2 23,15 11,15 -2,1 8,11 9,5 15,2 15,8 9,8 13,6 1,-2 11,5 4,-1 26,10 95,25 -3,-38 1,-6 -26,-58 -4,-5 -5,-16 -1,-11 -6,-11 -30,-34 -5,-11 -60,-23 -18,-4 -7,-6 6,-7 -14,-8 h -11 l -5,-3 1,-7 14,-7 -2,-23 -14,-4 -2,-4 -4,-36.00001 -5,-28 -3,-5 -10,-8 -14,-6 -24,-2 -6,-2 -42,-19 -12,-18 -16,-3 -21,-12 -21,-3 6,-11 -1,-9 -25,8 -4,3 -12,1 v 5 h -4 v 5 l 2,-2 4,1 -5,2 -7,-1 -1,4 -5,2 -5,5 -5,1 1,-9 -19,1 -1,5 -7,-2 v -4 l -7,-1 -11,6 -3,7 h -3 l -2,-6 3,-4 v -3 l -5,-5 -5,-2 -4,7 -1,-2 2,-8 -3,-6 -5,-5 -3,5 -5,2 -12,1 -12,-2 -2,-2 -4,1 v 6 l -11,-3 -8,1 -4,-20 -6,-1 -2,-5 -6,1 v -8 l -6,-2 -4,3 -9,-1 -3,3 h -5 l -1,-2 -15,11 -9,-1 -9,2 1,11 -3,1 1,6 -4,4 v 10 z m 438,30 -1,4 12,1 1,-4 -3,-1 z"
     id="南通市" />
  <path
     stroke="#ffff00"
     stroke-opacity="1"
     stroke-width="0.5"
     stroke-linecap="round"
     stroke-linejoin="round"
     stroke-dasharray="none"
     fill="#1e90ff"
     fill-opacity="1"
     fill-rule="evenodd"
     d="m 1009,56.99999 -4,-2 -11,-13 -51,-24 -6,-7 -14,-7 -6,-6 -3,-7 -9,-1 -26,-18 3,-10 4,2 3,-2 v -7 l 6,1 5,-5 1,-5 -6,1 -19,-8 -27,-2 -2,-4 8,3 h 22 l 3,3 h 7 l 4,-5 -7,-2 -1,-2 -6,-1 -1,-4 -7,-2 1,7 -23,2 -2,-4 -6,-1 -5,3 -6,-1 -19,-12 -8,2 -5,-3 -9,-15 3,-3 -4,-10 1,-6 -4,-6 4,-12 v -29 l 2,-10 7,-19 15,-10 3,1 -2,6 4,12 5,-2 -5,-16 v -2 l 5,-2 -7,-17 -17,-3 -7,7 -6,-2 -12,2 -12,5 -3,8 -4,3 v 6 l -2,1 -15,-1 -4,2 -9,1 -4,-2 -29,6 -7,-4 -6,1 -2,3 -14,5 -3,30 1,8 -20,30 -1,11 -2,4 -11,-1 v 3 l 5,5 -2,4 1,4 -2,6 -5,2 h -8 l -3,2 4,2 -1,7 -4,-1 -4,2 v 7 l 5,1 4,4 7,-2 9,9 -14,12 h -9 l -6,2 -5,5 h -3 l -7,-7 h -5 l -6,3 -10,-4 -2,-8 -11,1 -9,3 -2,-3 h -5 l -1,9 -5,2 -3,5 -6,2 -6,-1 -3,7 2,7 3,2 v 6 h -4 l -3,3 -6,-4 -5,15 1,14 5,15 v 8 l -4,9 -3,2 -2,4 -3,17 3,7 2,-1 5,4 10,3 10,-4 v -2 l 5,-5 7,-4 18,8 1,3 4,-2 1,-7 3,-4 4,-1 14,4 1,5 3,3 4,1 2,8 -7,7 h -4 v 11 l 12,9 v -3 h 6 l 5,4 12,5 3,-2 4,4 v 3 l 3,2 6,-1 10,-14 v -6 l 5,-1 5,-4 h 25 l 2,-4 4,-1 3,2 3,-3 5,6 v 8 h 3 l 1,-5 11,-13 v -6 h 7 l 7,3 2,-3 1,-8 17,1 -1,5 h -8 l -3,12 v 11 l 2,8 5,-2 -1,5 4,9 -3,21 6,1 v 11 l 2,2 1,11 12,1 1,12 3,1 -1,6 2,1 -6,6 5,5 2,-3 7,5 3,5 -4,5 3,6 4,2 2,5 7,9 6,2 4,7 11,1 v -4 l 13,1 v 3 l 6,1 v 3 l 27,-5 6,15 h 5 l 2,7 3,3 22,-15 4,-1 4,-4 -1,-3 7,1 2,6 5,-1 3,4 3,-5 -7,-17 4,-4 5,-1 3,-3 1,-6 -7,-7 -4,2 -3,-6 -5,3 -6,-12 h 3 l 2,-4 -2,-9 -7,3 -2,-6 10,-7 8,-8 h 7 l 21,-16 12,-5 28,-24 1,-4 4,-3 v -8 l 2,-3 5,-2 3,-7 8,-2 v -5 l -5,-10 3,-9 -1,-9 h 5 l 1,-5 3,-1 z"
     id="连云港市" />
  <path
     stroke="#ffff00"
     stroke-opacity="1"
     stroke-width="0.5"
     stroke-linecap="round"
     stroke-linejoin="round"
     stroke-dasharray="none"
     fill="#1e90ff"
     fill-opacity="1"
     fill-rule="evenodd"
     d="m 777,780.99999 34,12 13,-3 7,-4 4,-10 2,-13 -8,-34 -1,-23 6,-5 6,-8 2,-4 v -6 l -7,-6 -9,-16 -2,-11 -3,-3 -13,-5 -7,-5 -8,3 -2,-4 2,-2 -4,-18 h -19 l -6,-3 -2,-7 1,-8 3,-3 3,-7 -4,-6 3,1 37,-9 -10,-18 3,-4 25,-6 20,-1 18,-3 12,-4 14,-10 6,1 10,-4 h 5 l 3,2 2,4 3,1 19,-12 v -5 l -5,-5 v -2 l -5,-4 h -4 l -2,-5 -6,2 -10,-14 -4,1 -8,-9 -7,-30 -3,-3 -2,-13 -3,-7 2,-1 2,3 10,-7 -4,-2 v -4 l 3,-3 -4,-5 v -6 l 10,-10 v -8 l 5,-13 3,-3 2,-9 3,-3 -1,-4 5,-6 1,-6 10,-8 5,-7 7,-2 7,-6 v -5 l 3,-9 -3,-6 2,-4 -3,-1 -6,2 -1,-4 -8,-10 3,-1 -2,-7 -7,-2 -4,-6 -1,2 -3,-4 -5,1 -2,-6 -7,-1 1,3 -4,4 -4,1 -22,15 -3,-3 -2,-7 h -5 l -6,-15 -27,5 v -3 l -6,-1 v -3 l -13,-1 v 4 l -11,-1 -4,-7 -6,-2 -7,-9 -2,-5 -4,-2 -3,2 -3,6 -3,13 -7,7 -6,2 -11,11 -1,6 -14,8 -1,4 4,1 1,9 -6,4 -4,7 -7,7 -3,-1 v -3 h -4 l -6,-6 -7,2 -1,3 h -3 l -3,3 -4,-1 -5,6 -8,1 -4,-3 -4,1 -2,5 -11,9 -10,20 2,8 -4,10 4,4 -1,10 4,4 -2,7 2,6 -6,4 -2,11 3,9 -16,5 10,21 8,6 -6,16 -1,19 -3,3 2,19 -14,25 13,17 -98,36 -32,33 -59,-5 -15,8 1,11 -2,18 -3,1 v 3 h 4 v 8 l -5,-2 -2,1 8,3 1,6 -4,-1 -1,4 7,1 3,6 4,28 7,5 h 12 l 2,5 -6,5 -15,4 -6,5 -1,4 7,30 4,-4 h 8 l 2,5 4,-1 -1,7 3,9 -4,4 1,7 3,3 h 6 l 1,6 3,1 5,-5 7,2 2,5 v 7 l -2,3 3,7 h 17 l 10,-11 4,7 9,3 2,-2 11,1 9,-3 h 5 l 6,5 12,-4 3,-5 6,-1 2,-2 25,11 6,-1 5,-4 7,-2 -1,-8 -3,-2 -3,-6 v -9 l 3,-3 -1,-23 2,-2 15,5 8,-3 v -5 l -2,-2 2,-2 v -18 l 3,-2 6,4 1,-5 4,-2 -3,-7 3,-1 v -4 l 13,-2 4,1 -2,3 1,4 4,-1 6,2 h 4 l 3,-3 h 7 l 12,-5 6,-1 4,2 2,4 -1,5 3,3 -4,1 -2,8 2,1 9,-3 v 8 l 4,8 6,4 12,17 3,2 z"
     id="淮安市" />
  <path
     stroke="#ffff00"
     stroke-opacity="1"
     stroke-width="0.5"
     stroke-linecap="round"
     stroke-linejoin="round"
     stroke-dasharray="none"
     fill="#1e90ff"
     fill-opacity="1"
     fill-rule="evenodd"
     d="m 1429,853.99999 -5,-11 -4,-3 -6,-1 -7,-4 v -4 l 6,-2 8,1 3,-16 4,-5 3,-42 -1,-7 -2,-5 -6,-3 -9,-49 -5,-8 -17,-10 1,-20 -11,-50 1,-5 -1,-4 -9,-4 v -8 l 5,-5 v -6 l -4,-7 -3,-2 -16,-2 -11,-13 -8,-43 -14,-37 -11,-25 -24,-40 -18,-50 -9,-21 -9,-12 -42,-102 -8,-39 -6,-13 -6,-20 -2,-19 1,-4 -7,-5 -21,-8 -48,-24 -51,-30 -51,-10 -1,8 -3,1 -1,5 h -5 l 1,9 -3,9 5,10 v 5 l -8,2 -3,7 -5,2 -2,3 v 8 l -4,3 -1,4 -28,24 -12,5 -21,16 h -7 l -8,8 -10,7 2,6 7,-3 2,9 -2,4 h -3 l 6,12 5,-3 3,6 4,-2 7,7 -1,6 -3,3 -5,1 -4,4 6,12 1,5 -2,3 4,6 7,2 2,7 -3,1 8,10 1,4 6,-2 3,1 -2,4 3,6 -3,9 v 5 l -7,6 -7,2 -5,7 -10,8 -1,6 -5,6 1,4 -3,3 -2,9 -3,3 -5,13 v 8 l -10,10 v 6 l 4,5 -3,3 v 4 l 4,2 -10,7 -2,-3 -2,1 3,7 2,13 3,3 7,30 8,9 4,-1 10,14 6,-2 2,5 h 4 l 5,4 v 2 l 5,5 v 5 l -19,12 4,9 h 10 l 3,9 1,11 6,-1 v 8 l 3,2 v 8 l 5,6 2,-3 15,-3 5,10 h -4 l -7,14 3,6 14,6 1,3 -2,14 8,1 1,4 -5,6 3,7 h 9 l 5,-4 21,-6 h 9 l -1,4 h 9 l 1,-3 8,1 8,-3 11,3 7,-1 22,-6 12,-7 49,19 30,3 -3,11 2,4 -1,7 6,8 2,6 -2,10 1,14 -4,11 v 6 l -5,-1 v 3 l 3,1 -1,6 -4,3 -15,-1 -1,3 -6,2 -6,-2 -1,-4 -9,-1 v 10 l 2,2 -2,12 9,1 -1,3 4,2 -1,5 h -4 v 4 l -4,4 -1,4 4,-1 -2,6 -7,-1 -3,2 3,8 -3,2 1,3 h 4 l 3,3 5,-3 1,-3 9,-2 2,6 -8,9 -4,8 -5,-1 v 8 l -3,3 -3,-2 -4,3 1,4 -5,-1 -2,8 h -3 l -3,4 v 20 l -5,1 2,7 3,2 7,-3 13,-2 v -4 l 7,5 v 7 h 6 v -10 l 4,-4 -1,-6 3,-1 -1,-11 9,-2 9,1 15,-11 1,2 h 5 l 3,-3 9,1 4,-3 6,2 v 8 l 6,-1 2,5 6,1 4,20 8,-1 11,3 v -6 l 4,-1 2,2 12,2 12,-1 5,-2 3,-5 5,5 3,6 -2,8 1,2 4,-7 5,2 5,5 v 3 l -3,4 2,6 h 3 l 3,-7 11,-6 7,1 v 4 l 7,2 1,-5 19,-1 -1,9 5,-1 5,-5 5,-2 1,-4 7,1 5,-2 -4,-1 -2,2 v -5 h 4 v -5 l 12,-1 4,-3 z"
     id="盐城市" />
  <path
     stroke="#ffff00"
     stroke-opacity="1"
     stroke-width="0.5"
     stroke-linecap="round"
     stroke-linejoin="round"
     stroke-dasharray="none"
     fill="#1e90ff"
     fill-opacity="1"
     fill-rule="evenodd"
     d="m 793,1042 9,-4 12,-1 37,4 3,-5 6,-5 8,-4 16,-2 13,5 12,-12 -1,-2 11,-1 1,5 -3,1 v 18 l 11,-2 -1,-5 4,-3 3,1 2,5 v 9 l 3,-4 -1,-9 2,-4 16,-6 4,-5 7,3 14,-17 8,-2.00001 7,1.00001 12,6 9,-8.00001 1,-3 -2,-14 h 4 l 1,-8 -4,-7 3,-2 v -4 l 4,-3 2,-9 -4,-3 -2,-8 -8,1 -6,-3 1,-10 3,-2 -1,-17 5,-6 -7,-13 v -11 l 2,-1 -3,-9 5,-1 2,-5 12,6 1,4 8,-1 3,2 v -3 l 5,-1 -6,-9 1,-5 -2,-7 -8,-2 2,-9 -7,-5 v -4 l -5,-7 v -7 l 8,-7 -1,-3 -11,-3 -3,-5 2,-5 -3,-1 -6,3 -4,-1 -2,-3 4,-8 v -4 l -2,-1 4,-5 -3,-2 2,-3 -5,-8 -2,-14 -3,-1 -5,5 -6,3 -7,-2 -5,-8 1,-7 -4,-3 -3,-7 4,-13 v -7 l -4,-5 -4,-24 -6,-7 -8,-6 -2,-7 h 3 l -1,-5 4,-14 13,-10 3,-7 2,2 2,-9 -7,-3 -3,-6 7,-14 h 4 l -5,-10 -15,3 -2,3 -5,-6 v -8 l -3,-2 v -8 l -6,1 -1,-11 -3,-9 h -10 l -4,-9 -3,-1 -2,-4 -3,-2 h -5 l -10,4 -6,-1 -14,10 -12,4 -18,3 -20,1 -25,6 -3,4 10,18 -37,9 -3,-1 4,6 -3,7 -3,3 -1,8 2,7 6,3 h 19 l 4,18 -2,2 2,4 8,-3 7,5 13,5 3,3 2,11 9,16 7,6 v 6 l -2,4 -6,8 -6,5 1,23 8,34 -2,13 -4,10 -7,4 -13,3 -34,-12 2,16 6,21 2,14 -1,29 4,5 v 9 l 4,1 -4,6 v 7 l -4,1 -6,-2 -2,-9 -4,3 -1,10 -7,3 v 3 l 4,4 1,5 -5,3 -2,8 -3,4 2,3 -4,1 -14,11 -4,6 -5,-2 -2,-3 h -7 l -4,5 -5,-2 v 7 l 2,5 -4,7 v 6 l 4,4 h 3 l 1,3 -6,1 -1,2 9,4 -6,6 v 3 l 5,5 -2,4 2,23.00001 -2,5 14,4 4,4 17,-2 16,3 z"
     id="扬州市" />
  <path
     stroke="#ffff00"
     stroke-opacity="1"
     stroke-width="0.5"
     stroke-linecap="round"
     stroke-linejoin="round"
     stroke-dasharray="none"
     fill="#1e90ff"
     fill-opacity="1"
     fill-rule="evenodd"
     d="m 795,1297 1,1 17,-7 12,-13 4,-14 -3,-1 4,-9 -3,-2 h -6 l -1,-15 1,-4 h 3 l 2,-9 -2,1 v -8 l 2,-5 5,-4 -1,-4 4,-6 h 8 l 3,6 5,-1 7,6 6,2 3,-2 1,3 4,-1 -6,-10 h -3 l 2,-8 9,-6 5,1 2,5 15,8 15,-2 2,-3 1,3 4,1 3,3 h 3 l 2,5 -1,4 3,-1 3,3 v 7 l 3,4 6,-2 5,2 5,10 11,1 2,6 5,4 v 4 l 12,3 -2,-6 1,-8 7,-10 3,-9 h 9 v -8 l 4,-3 4,-8 h -11 l -4,2 -2,-4 v -7 l -3,-3 6,-9 h 3 v -6 l -8,-3 v -2 l 9,3 2,-3 -4,-8 -4,-2 6,-27 -2,-1 6,-15 4,-3 h 6 l 2,2 6,-3 6,3 3,-2 5,8 3,-3 2,2 3,11 5,5 21,-1 -17,-31 -13,-45 -6,-28 -9,-15 -7,-6 -11,-7 -6,-2 -7,-1.00001 -8,2.00001 -14,17 -7,-3 -4,5 -16,6 -2,4 1,9 -3,4 v -9 l -2,-5 -3,-1 -4,3 1,5 -11,2 v -18 l 3,-1 -1,-5 -11,1 1,2 -12,12 -13,-5 -16,2 -8,4 -6,5 -3,5 h -8 l -11,-3 h -30 l -9,4 5,3 -8,6 -2,5 -9,2 -2,-2 -11,1 -7,-3 -5,3 -16,4 -1,7 h -10 l 4,2 h -7 l -6,11 -5,3 v 4 l 15,2 3,4 4,-3 h 4 l 3,8 4,-1 -1,9 -4,8 4,18 -2,3 4,-1 4,2 v 6 l 3,1 v 3 l -3,-1 -1,5 -3,1 -5,-3 -6,2 -3,-2 -6,2 -7,5 v 3 l 3,5 5,1 6,-2 14,3 2,14 2,4 -3,3 -3,8 -3,2 -6,-1 -2,-2 -10,6 h -3 l -3,3 -17,2 -4,3 1,4 6,4 4,7 3,1 -1,6 -8,1 -1,7 7,-1 2,-4 9,-3 10,-2 4,3 4,-1 v 4 l 4,2 2,6 11,9 2,5 3,1 7,9 10,3 2,3 -1,4 2,7 -2,5 6,1 3,8 7,-2 z"
     id="镇江市" />
  <path
     stroke="#ffff00"
     stroke-opacity="1"
     stroke-width="0.5"
     stroke-linecap="round"
     stroke-linejoin="round"
     stroke-dasharray="none"
     fill="#1e90ff"
     fill-opacity="1"
     fill-rule="evenodd"
     d="m 1275,1128 2,-5 -4,-3 1,-4 -8,-3 -4,-4 -2,-11 -9,-3 -19,-11 -29,-3 -4,-17 10,-20 -3,-9 h -2 l -4,-5 2,-23 5,-2 -7,-15.00001 5,-7 -3,-4 v -4 l -11,4 -4,3 -3,-5 -4,1 -3,-4 2,-2 -3,-20 -2,-3 -2,-15 -4,-11 4,-2 -2,-5 2,-15 -3,-6 -2,-15 -12,7 -6,-4 -4,-5 v -7 l -7,-5 v 4 l -13,2 -7,3 -3,-2 -2,-7 5,-1 v -20 l 3,-4 h 3 l 2,-8 5,1 -1,-4 4,-3 3,2 3,-3 v -8 l 5,1 4,-8 8,-9 -2,-6 -9,2 -1,3 -5,3 -3,-3 h -4 l -1,-3 3,-2 -3,-8 3,-2 7,1 2,-6 -4,1 1,-4 4,-4 v -4 h 4 l 1,-5 -4,-2 1,-3 -9,-1 2,-12 -2,-2 v -10 l 9,1 1,4 6,2 6,-2 1,-3 15,1 4,-3 1,-6 -3,-1 v -3 l 5,1 v -6 l 4,-11 -1,-14 2,-10 -2,-6 -6,-8 1,-7 -2,-4 3,-11 -30,-3 -49,-19 -12,7 -22,6 -7,1 -11,-3 -8,3 -8,-1 -1,3 h -9 l 1,-4 h -9 l -21,6 -5,4 h -9 l -3,-7 5,-6 -1,-4 -8,-1 2,-14 -1,-3 -7,-3 -2,9 -2,-2 -3,7 -13,10 -4,14 1,5 h -3 l 2,7 8,6 6,7 4,24 4,5 v 7 l -4,13 3,7 4,3 -1,7 5,8 7,2 6,-3 5,-5 3,1 2,14 5,8 -2,3 3,2 -4,5 2,1 v 4 l -4,8 2,3 4,1 6,-3 3,1 -2,5 3,5 11,3 1,3 -8,7 v 7 l 5,7 v 4 l 7,5 -2,9 8,2 2,7 -1,5 6,9 -5,1 v 3 l -3,-2 -8,1 -1,-4 -12,-6 -2,5 -5,1 3,9 -2,1 v 11 l 7,13 -5,6 1,17 -3,2 -1,10 6,3 8,-1 2,8 4,3 -2,9 -4,3 v 4 l -3,2 4,7 -1,8 h -4 l 2,14 -1,3 -9,8.00001 12,9 9,15 6,28 13,45 18,34 14,12 17,7 40,9 12,1 11,-1 42,-20 13,-11 28,-17 14,2 8,4 z"
     id="泰州市" />
  <path
     stroke="#ffff00"
     stroke-opacity="1"
     stroke-width="0.5"
     stroke-linecap="round"
     stroke-linejoin="round"
     stroke-dasharray="none"
     fill="#1e90ff"
     fill-opacity="1"
     fill-rule="evenodd"
     d="m 773,227.99999 -3,-6 4,-5 -3,-5 -7,-5 -2,3 -5,-5 6,-6 -2,-1 1,-6 -3,-1 -1,-12 -12,-1 -1,-11 -2,-2 v -11 l -6,-1 3,-21 -4,-9 1,-5 -5,2 -2,-8 v -11 l 3,-12 h 8 l 1,-5 -17,-1 -1,8 -2,3 -7,-3 h -7 v 6 l -11,13 -1,5 h -3 v -8 l -5,-6 -3,3 -3,-2 -4,1 -2,4 h -25 l -5,4 -5,1 v 6 l -10,14 -6,1 -3,-2 v -3 l -4,-4 -3,2 -12,-5 -5,-4 h -6 v 3 l -12,-9 -3,2 -1,4 -4,2 4,2 v 13 h -14 l -8,4 1,9 -3,2 -2,11 1,5 3,1 -5,21 v 9 l -14,-1 -6,4 2,5 -2,5 v 6 l 5,2 -13,8 -4,1 -7,-4 -6,1 -3,-2 -23,-4 -21,2 -5,2 -1,3 -21,1 -3,-3 -4,-9 v -6 l -9,-9 -4,2 -8,-2 -2,1 2,5 -2,5 h -4 l -7,-3 -6,2 -7,-12 -4,-2 -4,6 1,2 -3,2 -21,4 -2,7 1,8 4,2 -1,4 3,3 13,-4 6,18 -2,2 2,12 -4,5 -1,-2 -6,1 -2,6 2,6 4,1 3,4 7,3 h 5 v 11 h 5 l 2,3 3,-1 1,-8 h 3 l 6,9 5,20 5,3 3,17 h 3 l 1,9 -2,3 -5,-2 v 6 l -3,5 4,4 3,10 -3,2 -1,4 6,2 -3,4 h -6 l -3,7 6,2 -2,10 2,13 -21,20 2,11 -3,27 h -3 l 3,4 v 20 l -21,-7 -3,8 -5,6 -2,8 -2,15 4,7 v 8 l -8,9 -4,2 -9,-1 2,6 6,1 -3,5 -1,11 -3,7 -13,8 4,4 -4,8 2,4 12,-1 6,7 v 2 l -4,3 3,9 5,1 2,4 3,1 3,4 4,1 v 8 l 12,-2 29,-13 4,-5 -2,-6 5,-8 3,-2 13,8 3,8 15,-8 59,5 32,-33 98,-36 -13,-17 14,-25 -2,-19 3,-3 1,-19 6,-16 -8,-6 -10,-21 16,-5 -3,-9 2,-11 6,-4 -2,-6 2,-7 -4,-4 1,-10 -4,-4 4,-10 -2,-8 10,-20 11,-9 2,-5 4,-1 4,3 8,-1 5,-6 4,1 3,-3 h 3 l 1,-3 7,-2 6,6 h 4 v 3 l 3,1 7,-7 4,-7 6,-4 -1,-9 -4,-1 1,-4 14,-8 1,-6 11,-11 6,-2 7,-7 3,-13 3,-6 z"
     id="宿迁市" />
</svg>