<svg xmlns="http://www.w3.org/2000/svg" id="svg1" version="1.1" viewBox="-251 -228 1264 1622.9999">
  <path id="南昌市" fill="#ff6347" fill-opacity="1" fill-rule="evenodd" stroke="#ffffff" stroke-dasharray="none" stroke-linecap="round" stroke-linejoin="round" stroke-opacity="1" stroke-width="0.5" d="M238 90v4l-3 3 11 18-1 2 5 7 2 9-6 8-3-3-2 4 1 2-2 8h-4v3l-4 6v-2h-3v4l3 8 2-1 1 3h3v-2h10l3-2 9 3-4 6 2 7-2 3-1 9 2 3h-2l2 3-6 4v8h7l6-2 3 4-1 2-5 1 2 15h-3v3l2 2-6 4 2 8-3 4 3 3v6l-4 1-1 4 5 2 3-4h6l3-5h5l-1 2 2 4 7 1 1 4-8 10 7 3 2-3h3l1 2 5-5v-2h-6l1-4 4 4 5-1 5 5 8-6 5 2 3-4 3-1v-5l3-2 6 3 3 4 4 11-1 9 3 2 2 5 8-8 2 4 1-4 9 4 1 3-3 3 4 1h2l2-4 4 1v2l7-1 6-3 7 2 11 15 10 4 3 10 11 3 4 6 2-9 3-4 13-7 3 2 2-2v-5l4-1 6 4 2 7 3-1 1-6 5-3 13-2 4 1 5-14 5-5v-11l9-13 6-4 2-9-2-2v-7l-2-5 1-3-15-17-6-9-3-9-5-6 2-5-2-4 1-10-4-5-10-3-3-5-4 1-2-4-4 1-5 4 1-4-6-10-4-1-3-3-7-1-2-6 1-5-2-3 1-3 5-3h17l1-2h3l7-15 3-4 6-3V87l2-4-3-7-7 1-21-17-5 2-2 10 3 6v12l-1 2h-6l-3 2V84l-2-2-14-3-8-12 8-10-11-1-10 1-2 2-5-1-12 8-3-3-1-4-4 7-2-3-11 3-2-2-4 7 2 3-2 6-7 6-7 15-10 1 1 9-2 2v6l-5 3-5-1-4 3-6-8v-3h-3l-2 4-14-4v-2l4-2v-4l-3 4-2-2-4 2-6-3-1-3-12-2-12-13-3-1-8 2z"/>
  <path id="景德镇市" fill="#ff6347" fill-opacity="1" fill-rule="evenodd" stroke="#ffffff" stroke-dasharray="none" stroke-linecap="round" stroke-linejoin="round" stroke-opacity="1" stroke-width="0.5" d="m813-70-5-2-3-12h-2l-2-5-9 2-10 6-11-2-1 1-5-12 2-7-3-3-6 1-5-2-6-8 1-16-6-4-6-12 4-10-2-4-9 2-2 7-5 2-4-11-9 3-3 5-9-3-2-4 3-10-2-9-2-2-8-3-10 1-11 6v9l-2 3-4 2-5 6-5 1 1 3 5 4 9 4 1 7-7 8 4 5-2 5-6 4-3 9v5l-14 13 4 9 3 13-3 23 1 4 7 4v9l-7 9v5l6 5 3 7-10 2-4 7-4-1 3 9-2 2 1 5-2 1 6 13-1 4 8 5 2 6 3 2-2 3 2 3-3-1-2 3h-3v15l-4 5 1 5-6 3-1 12-3 3h-3l-4 10-3 3 1 5 12 9 10 14 6-2 3 1 2 4h7l1 5 4-5 4 7 1-2 5 3-1 6 5 3v-2l3 2 9-2 3 9 6-2 2-4 5-2 1-4 5-2 1-2 5-1 6 3 1-2h3v-3h4l1-6-3-3v-5l4 2 10-5 7 1 9 3 3 5 4-1 3 2-2-11 4-14-1-2-4-1-1-3-5-2v-3l-5-4v-4l-3-2-3 1-4-3 11-6-2-1 1-2-4-5 4-1v-6l6-5-5-7 4-5-5-3-3-7 4-3v-4l-3-2-6 2-3-1-3 1v4l-3 2-8-3-6-13 3-5v-7l4-5 8-3 4-4 1-3-4-5-1-4 15-10v-2l-3-2 2-5v-6l8-4-3-6 1-2 4-2-1 1 2 3 4-5 7-3 1-8h2l3 4 2-1 5-11 2 2 4-3 2-6 3 2 7-2z"/>
  <path id="萍乡市" fill="#ff6347" fill-opacity="1" fill-rule="evenodd" stroke="#ffffff" stroke-dasharray="none" stroke-linecap="round" stroke-linejoin="round" stroke-opacity="1" stroke-width="0.5" d="m-162 687 3-7 4-4h3v-7l9-10 2-4-2-4 5-11 9-11 6 2 3-5 3-11 4-4 3 1 9-7v-3l-3-3v-7l-2-4 1-5-7 3-4-6-7-3v-4l-5-2-1-4-5-2-2-3 2-10 3-2 7-1 3 2 8-2 3 2h5l8-5 2-6 4-2 2-7-2-2 1-4 5-2 1-6 15-9h-2l-2-3-8-5-10-11 2-1 3-6-4-4-6-12v-3l-4-2-1-3-4-3h-3l-1-3h-3v4h-5l-7 4h-7l-1-3-5-3-5 3-4-3-3 1v-5l-3-1 2-8-3-2-4 3-2-8-8 1 1-2-2-2h2l1-6-5-2 4-6 8-6 1 3h2l2-4 5-3 4-5h2l1-4-3-5-4-1v2h-5l-2-3 1-2-3-1-4 2-2-3-4 2-6-2-2-3-3 1-3 8h-5l-2-3-6 4-1 4-6 1-4 5-2 6-3 2-2 9 1 2 6 3 3 8v7l-17 19-1 7-7 7-6 11-7 4-3 5 1 12-8 11 1 6 7 3 3-3 2 4-2 2 1 2-3 6-6 3 2 5v6l2 3h4l2 5-7 5v5l4 6 2 1 3-2 5 1 4 4h7l6-5h5l10-4h11l12-6 1 1v10l-5 10v3l4 1v4l-3 4-3 14-6 8-2 6-10 11-1 11 2 3 6-3 3 15 2 3h4l2 5h4l2 8 6 7z"/>
  <path id="九江市" fill="#ff6347" fill-opacity="1" fill-rule="evenodd" stroke="#ffffff" stroke-dasharray="none" stroke-linecap="round" stroke-linejoin="round" stroke-opacity="1" stroke-width="0.5" d="M550-86v-3l-9-7v-3l6-7 1-4-6-1v-2l3-2 5-10 4-2 15-18 5 3 8-6 5-9 8-7 5-8 5-17-3-5-5-4-9 3v4l-2-2 1-13-7 3-5-10-4-1-1-4h-3l-1-3-7 1-14-7-15 2-6 7-4 10-3 27-4 6-5 2h-14l-7 5-26 13-7 8-14 8h-2l-6-10-5-4-11 1-15 5-15 14-22 11-5 1-9-1-19-7-19-13-20-17-27 3h-18l-1 5-5 1-2 2-3 14 1 7-9 7-6 9-9 6-5 6h-8l-2 3h-3l-6 5-3-1-2-3 1-7-5-1-5 2h-14l-5-1-9-9-4 2 1 5 3 3 5 1-2 5v9l-3 2 3 2 7-3 3 1v2l-4 1-1 3v19l-7 1-6-4h-4l3-8-3-3h-4l-10 4-8-8-2 3-3-1-3 4h-3l-3 3v5l5 1 1 2-3 4-5 2-3-1-1-7-1 3-5 2 2-4-2-3-4 10-6 6 4 2 2 9 9-5-3-2-1-3 5-4h3v3l3 4-4 4-1 9-4-1-5 7-4 2v-3l-3-1-9 2-5 4-7-1-4 2-2 5-5-1v-6l-2-2-15-1-7 4-7 1-7 8-23 9-2-2-10 1-1-3-3-1 2-2-1-1-4 3-8 1-6 4-8-1-5-9-5-3-10 5-2 2 1 7-3 3 2 5-3 8 1 9h-7l-12 6-3-1-27 4v5l-5 5-2 5-12 8-4 7h-3l-2 3v8l-3 5 2 5-1 4 4 6-1 5 4 12 3-3 7-2-2 9 5 5 2 5 5-5 3 2v15l5 5h4l7-3 3 5 4-2 1 1-1 8-3 4v3l4 2 2-1v-3l9-6 4-7 3 3v4l2 2 4-3 2 1 4 11 11 10v2l7 4 1 3 5 1 2-4 5 3 8-3 11 5 1-1-2-8 6-7 7-2h8l1-2h4l1-2 4 3 1 9 2 3 6 3 2 5 6 2h23l1-4 4-1 2-3 2 1 8-6v-4l-2-2 4-5 8 8 4-1 1-3 3 1-1-5 3-2 3 2 2-5 4-4v-4l-2-2v-10l4-4 8-3 1-4-2-1-1-4 2-2-1-2 5-6v-5l-2-2 3-4 3-1-1-3 5-5 10-1 5-7 2 1 8-5h3l9-7 15-3 3-3 9 2 10-3h7l20 7v2l13 2 1 2-3 4 9 5 1 5 10-3 3 1 12 13 12 2 1 3 6 3 4-2 2 2 3-4v4l-4 2v2l14 4 2-4h3v3l4 4v3l2 1 4-3 5 1 5-3v-6l2-2-1-9 10-1 7-15 7-6 2-6-2-3 4-7 2 2 11-3 2 3 4-7 1 4 3 3 12-8 5 1 2-2 10-1 11 1-8 10 8 12 14 3 2 2v10l3-2h6l1-2V78l-3-6 2-10 5-2 21 17 7-1 10-12v-3h3l2-3-2-2 6-10h19l26-22-14-6-1-7-4-3-3-5 1-3-4-3-3-6 2-5 2 1v-3h-2l3-3-11-19 6-8-5-9 3-8v-6l-8-6v-6l3-4 4-1 10 2 4 6 6 1 8-3 4-6 3-1 4 2zm5-28-1-4-1 1zm0 0v3l3-1v-2z"/>
  <path id="新余市" fill="#ff6347" fill-opacity="1" fill-rule="evenodd" stroke="#ffffff" stroke-dasharray="none" stroke-linecap="round" stroke-linejoin="round" stroke-opacity="1" stroke-width="0.5" d="m-5 501 2 12 13-1 3 4h5l1 4 3 2 4-4 2-6 2-1 1-6 15-4 2 3 2-4h4l5-7 10 6 2 5 6 2 8-2 2-5 6-2 4-3v-2l7-2 4-3-2-3 3-4h2l7 7 3-1-1-10 2-6 8-4 1-3 5 4 1 4 5-2 4-8 3-1 3 10 5-3 1-4 9-5 21-5 10-9 1-4 10-10-1-5 6-1 2 2 1-3 3-1h-14l-3 2-2-3-4 2-6-3-6 4-2-3-3 1-4-5-4 4-3-2-4 2-7-4-5-1-7-14v-5l5-5-2-3v-5l5-2 1-7-2-2 6-2-4-2 2-4-2-2-7-2-3 2-6-2-7 5-3-5-4 3-2-3-9 3-3-6-5 1-3 7-8 2-2 10-2-3-1 2-5 2v-7l-5-1-10 1-2 3-5 1-5-8 2-1v-13H49l-10 4-2-3-2 1-2-2-9 3-7 5h-7l-2 4-4 3 4 2 5 18 3 1-12 9-3-2-8 1-3 3 2 6-7 2-2 7 5 17 2 2h4l5 3 1-4 5-3 3 4 1 6-5 5v4l-2 2 2 2v-2l3-2v10l2 5-4 7-3 2-5 10 1 4-2 1-2 5 3 5z"/>
  <path id="鹰潭市" fill="#ff6347" fill-opacity="1" fill-rule="evenodd" stroke="#ffffff" stroke-dasharray="none" stroke-linecap="round" stroke-linejoin="round" stroke-opacity="1" stroke-width="0.5" d="m745 405-3-3 8-23v-5l-1-8-6-12-19-8-8 1-6-4-9-2-1-3 3-3 1-5-2-1-1-5 8-9-3-4-1-6-6-1-2-9h5l1-5 3-4 6-3 3-10-5-4 1-5 4-5v-6l-2-3-2-13 1-8-9-13-2-7-3-3-4-1-2-3h-4l1 5-3 4-17 10-6-5-8-3-4-5-3-1-6 5 3 8-6 10-6 5 1 1-2 4-7-11-3 2-14 1-2 6-6-1-1 4 4 5 1 5-7 9-1 4 3 4v3l-2 2-12 2-6 5-3 5 3 9 5 7-3 9-4 2-10-4-7 1-5 3-4 5v5l4 3 6 1-1 4 2 2 7 2h11l1 2-3 12 4 7 5-2 11 6 5 5 5-1 2-6 3 1 3 8-1 7 7-2 2 1 1 8 17 15v9l-9 13 4 10 5 2 10-12h3l2 3 3-8 2-1 6 5 5-2 5 5 4 1 1-3 5-1 14 13 1-6 6-1 3-6h3l2 4-1 5 2 2 4-1 3-7 3-2 2 1 5-2 6-6z"/>
  <path id="赣州市" fill="#ff6347" fill-opacity="1" fill-rule="evenodd" stroke="#ffffff" stroke-dasharray="none" stroke-linecap="round" stroke-linejoin="round" stroke-opacity="1" stroke-width="0.5" d="M-136 971v5l2 4-2 10 2 3-4 3-1 4-5 3-5 7v6l-3 5v6l-11 10-1 11 10 19-1 3 2 4 6 2v9l3 2-2 8 1 3-5-1-6 9 3 1-1 3 2 1-5 6 1 5 4-3 10 3 1 3-4 3v5l5 2 1 3 3 1 5-2 1 2-6 3 7 2-2 2 2 5h-3l-2 4 1 2 6 2-8 3v4l-3 2 4 5v3l2 1 5-8 2-1 1 2h4l8-8 3 1 1-3 4 1 6-2 1 2 5-3 3 2v3l16 2 1-3 4 1 2 3 2-1-2-2 5-4h-2v-6l2-1 18 6 5-5h4l3-3 2-9 3-3 7 4 5-1 3-2-1-4 9-5 10 5-1 4h2v-3l5 2v8h3l6 10 7-1 6 4 1-2 3 2 3-1 3 9 4 3 2 9-3 1v2l3-1-2 3-4-2-3 3h-3l-2 2v6h-4l3 4-1 2 4 3h6l3 3-1 9-10 5h-8l1 3-7 5h-8l-1-3-2 4-3-2H3l-8 16-4-1-2 7-7-1-6 2v5l-4 2h-5l1 3-2 2-6 1v4l2 3-3 4 3 6v4l-7 5-5 9v3h-2l-2 3 1 5-3 3 2 4-1 4-7 5h-4l-3 2-1 5-2 2-10 1-6 3-4-2-6 1 5 9-2 2-2-1v3l9-3v2l6 2h7l2 3h3l1 3h2v6l3 6 2 1 4-2 2 1 1-2 4 2-1-3 2-1v3l5 3v2h4l-1 8 4 2v7l5 2 2 3 3-4 7-3 2-5 6-2 9-7 3 5 12 1 4-7 4-3 4 1 6-4 6 13h3l2 4 3-8 2 1 3-4v-6l-2-2 1-6 5-1 4 3 4-2 4 3 1-1 6 5 5-4 3 1-1 5 4 5 4-2v-3h2l4-23 7-1 1 4 4-1 2-3 4-2 7-2 1 2 4 1 6-6-1-2 3-4 1 3h6l2 6 8 4 2-1-1-3h3l3-3h12l-3-6 10-4 3 1 3-3 3 1 3-6 2-1 8-1 8 2 5 4 1-6 3-5h4l3-4 3-1 10 8 4-1 3 2 1 3 4 3-1 2 3 2v3l4-1 2 2-2 2 3 4 6 2v10l4 8 6 1 3-3 6 2 1 2 4-1 3 3h3l3 6 1 4-3 2 2 5h6l3 2 6-1 11-7 15 1 1-2-13-17h-3l1-4-2-5-5-2 4-2 5 1v-3l3-4-2-2-5 1-3-2v-5l-4-3 3-8 3-3-3-5 4-12 3-1-2-2 1-3-2-2 6 1 1-9 4-5 7 2v2l4 1-2 8 9-2 3-3-5-5-2-10 3-1-2-4-3-2v-4l3-1 3 4h8l-7-8-4-1-2-5v-2l3-1 3-4 4-2 1 1 3-3-2-3h-2l1-3-2-4-8-2 1-3-2-5 3-2v-4l-3-3h-5v-16l4-4 2 2 3-1 3-4 4 1 3-2 5-10-1-4 2-2 3 2 3-1v-3l3 2 5-8-2-1 2-2-4-4 2-4-2-3 4-7-1-5 5-3v-4l-3-5 2-6h-3v-4l2-5 6-2-1-8 1-2h4l2-4-2-4v-6l-3-3v-5l4-4 2 2 1-4-3-4 2-4-2-2 1-4 2 1v-3l3 2 7-2v-5l3-4-1-1 3-6 10-2v5h2l2-8-6-6v-4l-7-4v-10l6-5h4l2-5 4-2 8-2 2 2h7l2-3 9-3v-2l5-3 1-5 11-2-2-10 3-2 3-7 4-1v-3l20-16 3-4-2-13-2-4h-3l-7 4h-5l-6-3 2-5-1-6-2 1 1-3-2-6 3-2-1-4 3-5 4-1 1-4-3-2h4l3-2v-4l4-3 1-4 11-5-2-2 1-5 4-1 2-6 6 4 3-1v10h8l4-2 2-3v-14l5-4 2-10-7 1-3-2 1-2-3-2 2-3-5-4v-3l-10-7-9 2-1-5-7-5-2-4h-4l-4 11-6 3-4-1-5 5 2 4-2 4-9-1-9 4-17-15 6-5 2-4-4-7-5-4 10-8-1-2h-11l-2-3h-6v-4l-2-1-1-4h-7l-4-5-2 1-4-4 5-10 2-7-1-2 2-3v-4l-3-2v-4l2-1 3-8 3-2-2-3 2-4-3-1-3-12 2-8 4-3 3-5 2-6-1-7-2-3-5 4-2-2-3-6 1-6-5-4v-10l-2 1-5-3h-8l-11 5v3l-4 1-1 10 3 3-22 32-7 1-5 8-12 8-3 11h-5l-5 16-20-14-5 8v6l2 1-2 2 1 4-4 1 1 3 6 3 5-1 2 14h-6l-2 3 4 3-3 1-1 4-3 2-1 3h-2l-2 4-7-6h-13v3l-10 1-4-3-1-9-2-2-6 5-4-1-6 3-4-5-10 9-1-1-4 2-8-1-3-5h-3l-2 4-7 2v6l-8 9-5 9-4 3-4 8 3 2-1 3-2 1-7-3h-7l-13 5-5 5-15 22 2 4-3 1 1 7-3 3 5 5h2l4 5 2 4-1 7 5 5-3 3-2 8-3 1-3 4v5l9 2 1 5 3 1-1 4-4 3h-4l-4-4-5-1-2-4-2 2-1-6-3-3h-15l-2-3-6-1-2 3h-3l-4 5h-3v-3l-3-1-4 3-2-1-2 3-11-3-3 3-9-1-4 6-7-5-5-1v-3l-3-1-4 2-1-3h-8l1-6h-3l-1-3-4-1-7 3-2 4-3-2-3 2v6l-4 6-6 5-7 3 1 8-3 1-4 8-2-5 1-2h-4l-2-2h-7l-5 7-17 12 1 3-3 2-1-1-5 2h-7l-3 3-8-3-7 1-3 2v2l-7 2-5 4-5-1-2 2h-10z"/>
  <path id="吉安市" fill="#ff6347" fill-opacity="1" fill-rule="evenodd" stroke="#ffffff" stroke-dasharray="none" stroke-linecap="round" stroke-linejoin="round" stroke-opacity="1" stroke-width="0.5" d="m-69 508-15 9-1 6-5 2-1 4 2 2-2 7-4 2-2 6-8 5h-5l-3-2-8 2-3-2-7 1-3 2-2 10 2 3 5 2 1 4 5 2v4l7 3 4 6 7-3-1 5 2 4v7l3 3v3l-9 7-3-1-4 4v3l-6 13-6-2-9 11-5 11 2 4-2 4-9 10v7h-3l-4 4-3 7 1 4-6 6v4l-3 4v11h-3l-5 9-6 6v3l3 2 2 6v16l2 2-1 12 2 3h4l1 5 4 3 1 3h23l6 5v3l11 2 2 2h10l-3 10-3 4v6l-3 7 4 1 2-2h4l-7 13v9h-6l-3 5h-2l-3 6 2 2v5l2 2-3 4 2 4-4 4-1 4 2 5-11 5-4 8v5l-6 3-1 2 2 4-2 2 5 4 13-10 3 1 3-2 1 3 3-1 1 4h8l4-6 20-8 3 6 6-2 1 4 3 2-4 4 2 2h3v2l-12 9h-5l-16 6v2l3 1-3 6-2-1-4 2-4-4-7 1 1 2-3 3 1 4-8 8 3 7h2l-1 6 4-4 4-1h13l5-4 7-2v-2l3-2 7-1 8 3 3-3h7l5-2 1 1 3-2-1-3 17-12 5-7h7l2 2h4l-1 2 2 5 4-8 3-1-1-8 7-3 6-5 4-6v-6l3-2 3 2 2-4 7-3 4 1 1 3h3l-1 6h8l1 3 4-2 3 1v3l5 1 7 5 4-6 9 2 3-4 11 3 2-3 2 1 4-3 3 1v3h3l4-5h3l2-3 6 1 2 3h15l3 3 1 6 2-2 2 4 5 1 4 4h4l4-3 1-4-3-1-1-5-9-2v-5l3-4 3-1 2-8 3-3-5-5 1-7-2-4-4-5h-2l-5-5 3-3-1-7 3-1-2-4 15-22 5-5 13-5h7l7 3 2-1 1-3-3-2 4-8 4-3 5-9 8-9v-6l7-2 2-4h3l6 6h5l4-2 1 1 10-9 4 5 6-3 4 1 6-5 2 2 1 9 4 3 10-1v-3h13l7 6 2-4h2l1-3 3-2 1-4 3-1-4-3 2-3h6l-2-14-5 1-6-3-1-3 4-1-1-4 2-2-2-1v-6l5-8 20 14 5-16h5l3-11 12-8 5-8 7-1 1-3-5-5-5 1-3-3 1-3-3 1-4-2 1-5-3-4v-6h-2l1-3-6-4-1-7-2-2h-15l-9 3-2-4-8-6-4-13-2-3-4 1-3-7-1-10 5-4 13-3-3-6-2-13 3-8 3-2-1-9 6-7 1-4-5-5-5 3-9-1-15-21 3-3 1-13 12-18 7-5 11-15 3-6-1-8-9-4-6-15-5-2-2 2h-4l-4-2-6-4-3-6h-5l-4-2-9-8 2-3-1-2 4-3 2-5-3-2h-4l-6-3-6 5 3 2-1 3-3 1-2-1v-2l-3-1 1-6-4-1v4l-4-3-5 3v3l4 2-1 4-6 6 7 5-4 2-1 3-2-2-6 1 1 5-10 10-1 4-6 6-4 3-21 5-9 5-1 4-5 3-3-10-3 1-4 8-5 2-1-4-5-4-1 3-8 4-2 6 1 10-3 1-7-7h-2l-3 4 2 2-4 4-7 2v2l-4 3-6 2-2 5-8 2-6-2-2-5-10-6-2 4-3 3h-4l-2 4-2-3-15 4-1 6-2 1-2 6-4 4-3-2-1-4h-5l-3-4-13 1-2-12-4-2-3 4v3l-5 2-5 6-5-3-5 2-2 3h-8l-1-2h-2l-1 3h-2l-4-5-4 2-6-6z"/>
  <path id="宜春市" fill="#ff6347" fill-opacity="1" fill-rule="evenodd" stroke="#ffffff" stroke-dasharray="none" stroke-linecap="round" stroke-linejoin="round" stroke-opacity="1" stroke-width="0.5" d="m-5 501 2-2-3-5 2-5 2-1-1-4 5-10 3-2 4-7-2-5v-10l-3 2v2l-2-2 2-2v-4l5-5-1-6-3-4-5 3-1 4-5-3h-4l-2-2-5-17 2-7 7-2-2-6 3-3 8-1 3 2 12-9-3-1-5-18-4-2 4-3 2-4h7l7-5 9-3 2 2 2-1 2 3 10-4h11l-1 5 2 1-1 7-2 1 1 4 4 4 5-1 2-3h15v7l5-2 1-2 2 3 2-10 8-2 3-7 5-1 3 6 5-1 1-2h3l2 3 4-3 3 5 7-5 6 2 3-2 7 2 2 2-2 4 4 2-6 2 2 2-1 7-5 2v5l2 3-5 5v5l4 6 1 6 14 7 4-2 3 2 4-4 4 5 3-1 2 3 6-4 6 3 4-2 2 3 3-2h14l1-1-7-5 6-6 1-4-4-2v-3l5-3 3 3 1-4 4 1-1 6 3 1v2l2 1 3-1 1-3-3-2 6-5 6 3h4l3 2-2 5-4 3 1 2-2 3 9 8 4 2h5l3 6 6 4 4 2h4l2-2 5 2 6 15 9 4 1 8 7-5 12 5 4-2 2 3 3-1 2-7-1-3 3-5v-5l2-4-2-6 1-7h6l4-3 1-4 10-4 4 1 2-2h9l6-3 4-5 4-1v-2l5-4 4-9 7-8v-10h4l2-6-2-2 4-2-4-7 1-6 3-3h-7l-11-5v-9l9-17-11-15-7-2-6 3-7 1v-2l-4-1-2 4h-2l-4-1 3-3-1-3-7-4h-2l-1 4-2-4-8 8-2-5-3-2 1-9-4-11-3-4-6-3-3 2v5l-3 1-3 4-5-2-8 6-5-5-5 1-4-4-1 4h6v2l-5 5-1-2h-3l-2 3-7-3 8-9-1-5-7-1-2-4 1-2h-5l-3 5h-6l-3 4-5-2 1-4 4-1v-6l-3-3 3-4-2-8 6-4-2-2v-3h3l-2-15 5-1 1-2-3-4-6 2h-7v-8l6-4-2-3h2l-2-3 1-9 2-3-2-7 4-6-9-3-3 2-6-1-4 1v2h-3l-1-3-2 1-3-8v-4h3v2l4-6v-3h4l2-8-1-2 2-4 3 3 6-8-2-9-5-7 1-2-11-18 3-3-1-9-9-5 3-4-1-2-13-2v-2l-20-7h-7l-10 3-9-2-3 3-15 3-9 7h-3l-8 5-2-1-5 7-10 1-5 5 1 3-3 1-3 4 2 2v5l-5 6 1 2-2 2 1 4 2 1-1 4-8 3-4 4v10l2 2v4l-4 4-2 5-3-2-3 2 1 5-3-1-1 3-4 1-7-8-5 5 2 2v4l-8 6-2-1-2 3-4 1-1 4H25l-6-2-2-5-6-3-2-3-1-9-4-3-1 2h-4l-1 2h-8l-7 2-6 7 2 8-1 1-11-5-8 3-5-3-2 4-5-1-1-3-7-4v-2l-7-7h-2l-6-14-2-1-4 3-2-2v-4l-3-3-4 7-9 6-4 15 1 3-7 10 2 6v8l-2 6 2 4-3 6-4 2-2 3v3l-3 1 4 5 10 2v3l4 5 5 3 6-1 6 5v4l-5 3-3 5-4 3h5l5 8 4 3h7l1 6-2 1 2 4-3 5 2 4-10 9-5 1v5l-3 2-1 5-3-1-6 2-10 13v6l-10 3h-4l-1-2-6 2-4-1-5 4 4 5v5l2 1 1 6 7 13-5 5v3l-7-3h-9l-2 4 3 2-2 2h-8l-3 6 2 3 4-2 3 1-1 2 2 3h5v-2l4 1 3 5-1 4h-2l-4 5-5 3-2 4h-2l-1-3-8 6-4 6 5 2v4l-1 2h-2l2 2-1 2 8-1 2 8 4-3 3 2-2 8 3 1v5l3-1 4 3 5-3 5 3 1 3h7l7-4h5v-4h3l1 3h3l4 3 1 3 4 2v3l6 12 4 4-3 6-2 1 10 11 8 5 2 3h9l6 6 4-2 4 5h2l1-3h2l1 2h8l2-3 5-2 5 3 5-6 5-2v-3l3-4z"/>
  <path id="抚州市" fill="#ff6347" fill-opacity="1" fill-rule="evenodd" stroke="#ffffff" stroke-dasharray="none" stroke-linecap="round" stroke-linejoin="round" stroke-opacity="1" stroke-width="0.5" d="m356 685 3-2 1-4 4-3 5-10 8-10-3-3 1-10 4-1v-3l11-5h8l5 3 2-1v10l5 4-1 6 5 8 5-4 2 3 1 7-5 11-4 3-2 8 3 12 3 1-2 4 2 3-3 2-3 8-2 1v4l3 2v4l-2 3 1 2-2 7-5 10 4 4 2-1 4 5h7l1 4 2 1v4h6l2 3h11l1 2-10 8 5 4 4 7-2 4-6 5 17 15 9-4 9 1 2-4-2-4 5-5 4 1 6-3 4-11h4l2 4 7 5 1 5 9-3v-2l4-2 4-20-1-2h-4l-8-10-2-7 12-16-4-11 1-11 14-14 8-13 7-8 5-5 7-3 7-1 6 3 2-5 14-5 8 3 11-7 4-1 5 1 2 4 8-13 22-11-2-14 14-16 5-1 8-10 1-5 3-2 2-7-4-3h-5l1-6-7-2-1 1-3-4v-11l2-1v-4l5-3 2-5-2-4v-5l-4-2v-10l-3-14-2-1-2-5-7 6-1-2-3 1-5-3-1-2 2-8-3-5 1-1-4-4 2-2 1 1 2-7 5-5h5l9 12 4-1v-4l-2-5-2-1 1-3 6-5 2 2 11 3 8-2v-8l10-2 6-3 4-6-1-5 4 1 3-4-2-6 2-10-21-18-5 1-1 3-4-1-5-5-5 2-6-5-2 1-3 8-2-3h-3l-10 12-5-2-4-10 9-13v-9l-17-15-1-8-2-1-7 2 1-7-3-8-3-1-2 6-5 1-5-5-11-6-5 2-4-7 3-12-1-2h-11l-7-2-2-2 1-4-6-1-4-3v-5l4-5 8-4h4l10 4 4-2 3-9-5-7-1-5-6-11-5-3-2-8-4-1-3 5-5 3-10 2h-3l-8-5-9 3-3-2-1-4 6-6 3 1-4-3v-13l-8-7-1 3 2 5v7l2 2-2 9-6 4-9 13v11l-5 5-5 14-4-1-13 2-5 3-1 6-3 1-2-7-6-4-4 1v5l-2 2-3-2-13 7-3 4-2 9-4-6-11-3-3-10-10-4-9 17 1 1-2 5 1 3 11 5h7l-3 3-1 6 4 7-4 2 2 2-2 6h-4l-1 3 1 7-7 8-4 9-5 4v2l-4 1-4 5-6 3h-9l-2 2-4-1-10 4-1 4-4 3h-6l-1 7 2 6-2 4v5l-3 5 1 3-2 7-3 1-2-3-4 2-12-5-3 2-4 3-6 11-8 10-7 5-12 18-1 13-3 3 7 11 8 10 9 1 5-3 5 5-1 4-6 7 1 9-3 2-3 8 2 13 3 6-13 3-5 4 1 10 3 7 4-1 6 16 8 6 2 4 9-3h15l2 2 1 7 6 4-1 3h2v6l3 4-1 5 4 2 3-1-1 3 3 3 5-1 4 3z"/>
  <path id="上饶市" fill="#ff6347" fill-opacity="1" fill-rule="evenodd" stroke="#ffffff" stroke-dasharray="none" stroke-linecap="round" stroke-linejoin="round" stroke-opacity="1" stroke-width="0.5" d="m745 405 5-3 2 3 9-7 1-6 5-2 1 3 6 2 3 9 3-3 2 1-1 11 3 1 2 4v5l2 2 10 3 8 8 6-2 3 5 7 4 3-3 1-5 4-2 3-6v-11l7-8 6-2 5-5 3 2 6-3h5l2-4 6-3 6 3 5-3 4-5 2 3 7-3 3 3 4-1 3 4 4 1 2-1-1-9 3-5h6l-2-7 4-4 5-2 7 3h4l3-2h4l4-5 4 2 5-4 8-2 9 1 4-2v-9l3-2-2-6 5-5-2-6-9-2-6-8 6-4 1 1 2-5 4-1 2-4h4l9-7 3 1 7-4 5-6-7-18-6-4 7-10 2-5-1-2 3-4h2l-2-3-3-1-1 2-5-5-6-1 2-2 2 1 4-4-5-3-2-6 2-1-4-2-1-4 2-1v-4h2l-2-6 5-6-3-6 2-2v-7l-4-3 1-1-4-4-3 1v-3l2-1v-4l-2-3 1-5h-2l-4-14-4-4-7 1-9-6 2-2-2-6-2-1-5-16-3-1-15 6v-4l8-8-8-4-3-6-6-3h-4v3l-4-2-2-4 2-3-1-3-4 2-1 5-2 1 3-4-1-2-3 3-2-9-4-2-2-5 3-2v-4l-8-4-2-4 4-4-4-3 2-7-1-3-4-3 2-2 2-10 2-2h6l2-5-2-4 2-5-2-7 1-1 7 2 3-3 5 3h4l5-4 1-2-2-2 4-6 7-4v-9l-5-4 1-4h-5l-10-4-2-5 3-1v-5l-3-5 4-5v-3l-3-4-6-3-1-3h-6l-8-3-2-7-10-4-5 5-5-2-3 1-4 5-4-2-8 3h-4l-3-3-9-2-3-3-6 1-6 4-5-1-11 3-4 4-5 2-5-2-2 6-4 3-2-2-5 11-2 1-3-4h-2l-1 8-7 3-3 5-3-3 1-1-4 2-1 2 3 6-8 4v6l-2 5 3 2v2L742 0l1 4 4 5-1 3-4 4-8 3-4 5v7l-3 5 6 13 8 3 3-2v-4l12-2 3 2v4l-4 3 3 7 5 3-4 5 5 7-6 5v6l-4 1 4 5-1 2 2 1-11 6 4 3 3-1 3 2v4l5 4v3l5 2 1 3 4 1 1 2-4 14 2 11-3-2-4 1-3-5-9-3-7-1-10 5-4-2v5l3 3-1 6h-4v3h-3l-1 2-6-3-5 1-1 2-5 2-1 4-5 2-2 4-6 2-3-9-9 2-3-2v2l-5-3 1-6-5-3-1 2-3-7-5 5-1-5h-7l-2-4-3-1-6 2-10-14-12-9-1-5 3-3 4-10h3l3-3 1-12 6-3-1-5 4-5V64h3l2-3 3 1-2-3 2-3-3-2-2-6-8-5 1-4-6-13 2-1-1-5 2-2-3-9 4 1 4-7 10-2-3-7-6-5v-5l7-9v-9l-7-4-1-4 3-23-3-13-4-9 14-13v-5l3-9-13 5-11-1-6 8-9 3-17 11-6 10-8 3-9-1-1-2 2-4-3-2-2 1-2-2-10 10-1-7-8-4h-9l-4 6-8 3-6-1-4-6-10-2-4 1-3 4v6l8 6v6l-3 8 5 9-6 8 6 8 1 5 4 6-3 3h2v3l-2-1-2 5 3 6 4 3-1 3 3 5 4 3 1 7 14 6-26 22h-19l-6 10 2 2-2 3h-3v3l-10 12 3 7-2 4v19l-6 3-3 4-7 15h-3l-1 2h-17l-5 3-1 3 2 3-1 5 2 6 7 1 3 3 4 1 6 10-1 4 5-4 4-1 2 4 4-2 3 6 10 3 4 5-1 10 2 4-2 5 5 6 3 9 6 9 23 24v13l4 3-3-1-6 6 1 4 3 2 9-3 8 5 13-2 5-3 3-5 4 1 2 8 5 3 4 7 3-5 6-5 12-2 2-2v-3l-3-4 1-4 7-9-1-5-4-5 1-4 6 1 2-6 14-1 3-2 7 11 2-4-1-1 6-4 6-11-3-8 6-5 3 1 4 5 8 3 6 5 17-10 3-4-1-5h4l2 3 4 1 3 3 2 7 9 13-1 8 2 13 2 3v6l-4 5-1 5 5 4-3 10-6 3-3 4-1 5h-5l2 9 6 1 1 6 3 4-8 9 1 5 2 1-1 5-3 3 1 3 9 2 6 4 8-1 19 8 6 12 1 8v5l-8 23 1 2z"/>
</svg>
