<svg xmlns="http://www.w3.org/2000/svg" id="svg1" version="1.1" viewBox="-251 -228 1168 1550">
  <path id="石家庄市" fill="#ff6347" fill-opacity="1" fill-rule="evenodd" stroke="#ffffff" stroke-dasharray="none" stroke-linecap="round" stroke-linejoin="round" stroke-opacity="1" stroke-width="0.5" d="m-182 700-7-1-5 12-5 2-3-2-4 3 1 8-2 3-16 1-2 14-8 7-2 15 6 6-8 11-2 8 1 5 4 5-2 17 5 7 5 3 7-2 4 2 4 5 6-2v4l4 1-3 4 2 1h18l1 5-2-1-3 9 3 1 6 7v3l4 2-1 15 5 2 4 7 1 5 5 5 5 22h4l2 4 5 4v5l-8 5-1 7 13-4 11 6 3 5-5 13 1 6-15 23-2 4-1 9 9-3 5-10h3l2 2 1-4 5-1 1-5 4-1 5 5 8 1 3 3 5-4 2 2h4l4-4 2 1 1-4 20-10h7l12 5 17-3 8-15 7 2 6-1 2-7 6-4 1-5 5-1 6-6 10 2 5-6 2 2 2-4 6 5 5-3v-7l3-1-3-3 5-1v-3h4l2 2 4-2v12l16 8 4 8-2 4 1 6 7 3 1-7h3v-8l3-4 8 2 3-2-9-8 5-5-4-3 2-15 5-1v-5l-5-1 1-6 3-3h5v-6l7 2 1-9-2-3 4-1-5-2 5-15 3-4-3-3-5 3-3-2-7 1-3-12h-4l-1-13 2-4-5-2v-6l-4 3-5-1-2-5v-6l-2-1-5 5-3 7h-3l-4-5-3 1-8-2-4-3-2-4-4 1 2 6-2 1-4-2-8 2v-3l-3-2h-8l-2 4H8v-5l11-13-2-1-2-10-7-8-5-3v-3l-3-3v6l-4-3 2-3-3-7-9-1-6 3-5-1-5 3-4-7-3-2-10-19-10 1 5-5-3-5v-4l-16-11-2 1-5-2-8 4-5-1-5-4-18 4-15 5-1 2h-7l-6-6-5-1-6 3-5-5-7-1 1-3-9-7h-4z"/>
  <path id="唐山市" fill="#ff6347" fill-opacity="1" fill-rule="evenodd" stroke="#ffffff" stroke-dasharray="none" stroke-linecap="round" stroke-linejoin="round" stroke-opacity="1" stroke-width="0.5" d="M815 543h-11l-8-8-5 1-22-4-3 4-8-2 2-4-1-6-9-2 1-3 3-2-7-2-1-3-8 3-2-5-4-2-3-9 1-2-5-6v-5l-3-3-6-19 5-3v-4l5-2-2-6 4-5-1-3 4-6 1-12 3-1 1-5v-11l-3-4v-9l6-6 3-1 2-14-4-5-10-2-10-6-9 3v-4l-7-2-8-6-17-7v-4l-7-3 2-14 3-2-1-4 3-7-4-2-4 4-17-2-5-1-3-5-15 5-5-2-3-6-4-3-12 10h-3l-1 3 2 2-8 11h-7l-4 9-5 4-6 2-16 1-2 4-17 2-10 8-7-3-12 9-5-1-2 3-6 1v3l5 2 5 5 1 4 3 1-1 8 4-1 1 4 6-3 3 4 5-1 1 4 4 1-4 4-2-1v7l7-1 2 3-2 10-5 1-9-5-6 3-7 1-9-7h-9l2 5-3 6-3 1 2 4-3 5 2 4v5l5 8-2 1 4 8-2 6 2 4 7 3v2l-4 2 5 5 8 1-1 3 3 5h2l-1 8-4 2v3l-4 3v2l3-3 4 7 5-3 4 4-3 1v2l3 2 2 5 5-5v-9l4-2 6-1 5 3h4l3-2 5 1 7 4-5 11 1 3-2 2v8l-4 2-1 3v10l-4 7-8 2-1 2 7 3 4-3-4 6 2 3 7-1 1 2 14 2 1 3 7 4 2-2 2 6 5 2v6h-5l-2 7 5 1 3-4 1 3 9 5 7 10 3 10 8 14 12 3 4 3h11l1 9 21 15h8l12-15-6-6-7-22 4 1 1-3 5-2-1-5 2-3 8-3 23 5 10-1 7-6 4 3h4l4-5 5-1-10 9-1 5 7-1 9-10 9-5 2-6 11-7 4-10 12-14 10-2 6-3 8-11zm-279 12v-4l-9-4-6 1v4l-5 1-1-6-10 1-2-3-2 3h-4l-2 5-7 7 3 4 11-2 7 3 3 4 3-2v-8l7 2 7-1zm154 76 2 3 2-4-2-4-4 1zm44-21-5 6-4 2v4l6-2 3-3zm-6-3-4 5 2 3 2-3z"/>
  <path id="秦皇岛市" fill="#ff6347" fill-opacity="1" fill-rule="evenodd" stroke="#ffffff" stroke-dasharray="none" stroke-linecap="round" stroke-linejoin="round" stroke-opacity="1" stroke-width="0.5" d="m815 543-2-8-7-9 16-52 3-5 4-1 1-4 12-11 8-2 5 2v-5l-3-2 4-12 3-3 5-2 5 3 4-6 6 1 1-4 2 3 19-7 5-6 4-2-1 5 5 3 2-2-6-12 3-5-7-5-4 3-4-2-2-4 2-4-7-5 5-10-3-15-5 3-8-7v-3l-9 3 5-11-2-5-4-3-4-7-2-10 3-7-2-7 2-5-9-11v-4l3-1v-4l-6-4-3 2-3-2-2 5-24-1-4 2h-7l-8-3-7-6 3-5-1-4-9-1-3 2-1-3-10 2-3 4-4-4-9 7-3-1-3 4-5 1 2 6-8 1-6-3-4 4-8-1-9 12-9 2-4-5-8 10-6 3-1 3 4 11v6l-6 6-2 5-3 1-2 8 17 7 8 6 7 2v4l9-3 10 6 10 2 4 5-2 14-3 1-6 6v9l3 4v11l-1 5-3 1-1 12-4 6 1 3-4 5 2 6-5 2v4l-5 3 6 19 3 3v5l5 6-1 2 3 9 4 2 2 5 8-3 1 3 7 2-3 2-1 3 9 2 1 6-2 4 8 2 3-4 22 4 5-1 8 8 4 1z"/>
  <path id="邯郸市" fill="#ff6347" fill-opacity="1" fill-rule="evenodd" stroke="#ffffff" stroke-dasharray="none" stroke-linecap="round" stroke-linejoin="round" stroke-opacity="1" stroke-width="0.5" d="m116 1161-3 1-7-3-11-1-2-4-3 3-2-9-3-5 3-8-7 2-15-1-5 3h-3l2-6-1-5-4 1-7-6 4-3-5-6H33l-7 3h-6l-10-5H4l-5 3 1 2-10 8-2-3-6-1-1-2-3 1-2 4h-7l-4 5-15 1-2 2v9l-8 4-6-1-3-4-7 2-13-3-3 1-5-2-1 3-9-3-5 3-23 1-3-1 1-4-4-4h-7l-7-8-1-6-8-10-7-3-3-3-5-1-5 1-6 4-6 9 5 14-1 5-8 4-2-1v-5l-4-2-2 1-4 6 2 7-2 4 1 4-5 1-10 8h-9l-2 4-7-1-4 3-2 4 2 2 5-1-1 5-4 6 2 5 9 1v8l6 2 3 5v3l-7 3 2 2-1 7 5 3 1 5 8 1 7 7 7 1 4 9v5l4-1 12 7 7 1-1-5 5-1 4 4 2 5 4-1v-4h4l-1-5 3 2 3 8h2v-7h-3l1-3 5 4 2-3 2 2-1 5 5-1 1 2-3 5 3 5 5 1 1-2 5 2 2-2 8 4-1 4h6l1-6h3l2 4 4-2 6 3h7l3-2 2 6 6 2 3-1 2 5 9 2 2 4 10 1 5 5 5 2-1 5 5-2 4 1 4-4 7 1v-2l5 2 3-4 6 7 2-2 8 2 6-1v-3l4-1 6 1-1 6 4 6-2 8 1 1 6-4 8-1 8-9 1-11 3-4 7 1 1-6 6-2 5 4 4-1 2-4 7 5 4 4 3 8 4 2-1 4 3 5h5l5-3 2-6h3l2-6 2 4 3-3h3v-4l3-1 1 5h2l-1-22h-2l-1-6h-4l-4-4 1-7h-5l-5 3v-7l-3-5-2-8-8-3 4-9-3-3-2 1-3-8 4-3-1-4h3l4-5 1-8 4-10 2 2 4-8 6-7 4-2 1-4z"/>
  <path id="邢台市" fill="#ff6347" fill-opacity="1" fill-rule="evenodd" stroke="#ffffff" stroke-dasharray="none" stroke-linecap="round" stroke-linejoin="round" stroke-opacity="1" stroke-width="0.5" d="m76 958-1-6 2-4-4-8-16-8v-12l-4 2-2-2h-4v3l-5 1 3 3-3 1v7l-5 3-6-5-2 4-2-2-5 6-10-2-6 6-5 1-1 5-6 4-2 7-6 1-7-2-8 15-17 3-12-5h-7l-20 10-1 4-2-1-4 4h-4l-2-2-5 4-3-3-8-1-5-5-4 1-1 5-5 1-1 4-2-2h-3l-5 10-9 3-9 7-2 13-7 4-4 5v7l-3 4v5l-6 5-4 11-10 4v10l-3 7 2 3 4 1v4l-3 6 4 5 6-4 5-1 5 1 3 3 7 3 8 10 1 6 7 8h7l4 4-1 4 3 1 23-1 5-3 9 3 1-3 5 2 3-1 13 3 7-2 3 4 6 1 8-4v-9l2-2 15-1 4-5h7l2-4 3-1 1 2 6 1 2 3 10-8-1-2 5-3h6l10 5h6l7-3 16 1 3 5-4 3 7 6 4-1 1 5-2 6h3l5-3 15 1 7-2-3 8 3 5 2 9 3-3 2 4 11 1 7 3 8-4 3 1 3-4 6 2 12-5 5-4h4v-6l5-10 5-5 3 1 7-15-2-1-2-5 6-4 1-4 8-7-5-11-8-4-3-4-2-15-11-11-4-1v-3l-8-1-1-4-5-1v-7l-4 3-9-2-1-6-3-4-14-4-7-9-8-5 3-3h8l5-2-4-1 1-3-3-2v-3l5 1-1 2 6-1-4-1-5-7-5-1-3-4v8l-14-12h-9l-6 4-3-1 3-2-5-7 3-2 2-6 5-3z"/>
  <path id="保定市" fill="#ff6347" fill-opacity="1" fill-rule="evenodd" stroke="#ffffff" stroke-dasharray="none" stroke-linecap="round" stroke-linejoin="round" stroke-opacity="1" stroke-width="0.5" d="M88 819h5l1-6 2-2 5-1-2-3v-7l3 2 4-4 7 2 3-3h3v-5l4 1v9h6v-3l5 2 1-4 2 2 10 2v-4l10-2 5-10-3-10 1-3 13-15 5-3 10 4-1-4 2-2 2 2 9-1-1-4 5-8v-7l-2-4 4-1v-8l-3-8 2-1-4-7 9-10 1-4 4-4h4v-20l8-3 5 1 2-3-1-3 6-3 10 6 4-1v-4l3-2 1 4 7-3 2-7 3 3 3-5-2-3-4 1-1-3 2-6 2-1v-10l-2-5-5-2-3-4v-3l-7-2-3-5v-9l-4-4 3-7 1-18-2-5h-11l-4-6 7-22 5-4v-2l7-4 1 2 4-3v-10l-9-7-8 1-1 3h-20l-2-4-6 3v-4l-3-1v6l-3 3-9-10 1 4-2 4h-3l-1 5-5-2-7 6v5l-12-2-2-7-9-5 1-3-2-6-3-2-1 2-6 2-2-2-6 4-7-7-6 6 1-11-3-3h-5l3-4 1-6-3-11h-3l-5-3-1-7h4l5-4 4 4 9-3 3-4-10-6 2-9-3-1 2-4-6-6-1-3-8-4h-2l-5 11v3l-7 2 1 4-4 7v4l-3 3 3 4-6 2-5 9-6 2-7 7-7 2 1 5-2 1-14-7-8-1-3 1-4 7-4-1-5 3h-4l-9 7-9 11-3-5-19-2-1 6-6 1-5-2-4 10-9-7-4 12-4 5-1 6-5 2-1 9-5 7 1 14-2 5-5 3-3 8 3 6-4 4 3 3h6l2 3-1 5h-3l-2 5-10-1-5 10 1 6-3 7-6 2-3-2-14 3-5 4h-3l-4-3-6 3-3-1-2-7-4-3-2 1-3-10-8 3-2 6-6-1-6 9-5-1-17 18-6 1-1 6 1 17 5 7 10 7-1 4-3 3 1 9 4 3h4l9 7-1 3 7 1 5 5 6-3 5 1 6 6h7l1-2 15-5 18-4 5 4 5 1 8-4 5 2 2-1 16 11v4l3 5-5 5 10-1 10 19 3 2 4 7 5-3 5 1 6-3 9 1 3 7-2 3 4 3v-6l3 3v3l5 3 7 8 2 10 2 1-11 13v5h6l2-4h8l3 2v3l8-2 4 2 2-1-2-6 4-1 2 4 4 3 8 2 3-1 4 5h3l3-7 5-5 2 1v6l2 5 5 1z"/>
  <path id="张家口市" fill="#ff6347" fill-opacity="1" fill-rule="evenodd" stroke="#ffffff" stroke-dasharray="none" stroke-linecap="round" stroke-linejoin="round" stroke-opacity="1" stroke-width="0.5" d="m278 182-5-5-1-5-7-1-6-12 6-6-5-10-4-2-2-4 2-8-4-3-1-3 3-6-7-12-1-7 3-4-1-5-5-7-6-4-10-1-9-5-1-5-5-4-1-5-4-4 1-3-4-16-7-5 1-6-3-12 26-22 5-12h-9l-3 2-4-13-9-14-5-14-12 4-4-2-3 6h-3l-7 6-5-1-1 5h-7l-5 5-1 5-14 6-10 9-6 2-11 7-11 4h-4l-5 5 3 4 4 1 1 3-3 6 6 8-2 2-10 1-4-8h-3l-2 3 1 4-2 3-10 3 1-5-2-3-15-3-3-2-8 5-5-3-16 1-7 1-4 4-3-2 6-9 1-13-1-19-5-9 10-5 3-5-3-8 1-5-2-9 3-2-3-4v-5l-3-9-2 1v-4l-5-6v-12l-7-9 1-2-6-1-1 5-7 4h-8l-1-2-14 3-7-5h-5l-9 5-2 6 1 5h-5l-2 7v3l4 2-1 4 3 2 2 5-4 1-2 3-10 3-9-3-5 2v5l-3-1v3l-8 12-15 19 2 9-1 4 4 5 1 5-3-1-1 4 8 15-5 1 1 6-3 3 2 17-24-6-3 2h-9l-10 5-5 6h-4l-1 6-7 5-2 6 8 2 5 4-2 3 1 5-3 4 1 3-5 3 4 6 2-1 3 3 1 7 3 3 2-7 6 9-3 2-1 8-4 4-9 1-11 16-8 1 28 28 3 11 2-2 2 3 9 2-3 2 2 11 3 6-5 4 7 10 4-2v7l8 8 6 15 3 2 3 7-1 1 5 6 4-1 5 5-2 8 3 1 1 4-2 2v7l-3 5 1 4 5 5-3 4 5 12 13 2 1 3 10-5 5 5 5-1 6 2-1 5-10 14-12 5h-13l-8 4-6-2-3 4-1 5-17 5h-3v-2l-5-2-6 4 6 17-1 8-9 4-4-11-6-2-3 3 2 6-1 5-4 5-6 1-1 5 3-1 16 5 1 7 4 10 3-1 4 3 3-1 13 4 7-5 3 4-6 5 5 7 9-6 2 4 8-2h12l2 8-3 4 3 8v31l5 9 11 1 4 11 7-4 3 1-1 4 3-6 9 7 4-10 5 2 6-1 1-6 19 2 3 5 9-11 9-7h4l5-3 4 1 4-7 3-1 8 1 14 7 2-1-1-5 7-2 7-7 6-2 5-9 6-2-3-4 3-3v-4l4-7-1-4 7-2v-3l5-11v-8l4-2-1-4 2-4 4-2 9-10 5-1v-2l4-2 3 1 1-6 8 1v-3h17l4-4-1-4 4-3 6 5 7 2 2-10h3l2-7 3-4h2l3-5 7-2-5-10 1-2-4-3-1-7-10-1v-3l-3-1-9-12-5-4v-6l3-6-9-3 4-8 6-5h5l2-7 10-2 4-5 12 4 2 5 4-1 4-5 1 2 12-8h4l-1-4 4-5 5 1 1-8 9-11 3-10 2-2 5 7h3l3 3 2-5 18-1v2l7 1 2-3-5-11-6-3-1-4-12-13v-4z"/>
  <path id="承德市" fill="#ff6347" fill-opacity="1" fill-rule="evenodd" stroke="#ffffff" stroke-dasharray="none" stroke-linecap="round" stroke-linejoin="round" stroke-opacity="1" stroke-width="0.5" d="m786 261-2-5 5-5 2-5-2-3h-4l-10 6-3-2-5 2-1-4-4-3-3 1-4-2-5-6-2-6-10-2 3-5-6-2-3-4h-2l-1-5 2-4 3-2 6-28 2-1 6 2 9-2 1-4 3-3-1-3-11-2-3-5v-4l5-6 8 3h5l3-3 4-1 1-12 8-1 6-8 5-3 1-4-4-3v-3h7v-5l8-8-2-9-5 2-2 6-9-4h-21l-5-2h-6l-5-3-3 4h-8l-4-2-4-8v-7l-14 5-1 6-4 1-12-7-8 1-19-2-5 3-16 3-2 5h-4l-5-8v-7l2-3-3-5 1-6-4-5-10-5-1-2 5-1 4-7-3-10 2-2-2-2-4 1-1-2-8-2-3-3-1-14-7-4-3-5v-6l-4-7 2-10 4-7 10-1 3 2 2 8 5 3 3-2 5-15 3-2 1-8-13-11v-3l7-2 1-12-3-4-7-2-3-3 8-2 2-4-4-8-4-2h-5l-2 2 1 6-3 6-2 1-14-2v-2l4-2 3-7-3-3-7-3-2-3 4-13-14-7-2-3-8-4-1-5 14-8 2-4-8-9-1-6 2-3v-6l-12-12-3-5-12-11-4-9-10-10-1-3 2-4-4-1-13 7-7 2-11-3-2-2-11-1-2 4-10-3-3 3-4 1 2 2-2 5-7 5-1 5 4-1 1 2-1 10-4 2-11 1-1-2-9-3-4 2-5-1-9 3-7-1-8-4-2 6-12 1-2 6-16 7-5 9 5 34v5l-2 4-21-2 6 11h5l3 8h2l2 7-2 19-2 3h-6l-2 4-5 2-5-3-4 2-3 8-11 1-6 4-7-1-6 2-6-3-3-8-3-2-3 1-5 7-4 2-7-1 4-10-1-2-7-4-8 1-4 3-4 8-9 4-4 9v5l-4 6-4-2-6 1-5 4-1 4 5 6-6 8h-3l-5 10-26 22 3 12-1 6 7 5 4 16-1 3 4 4 1 5 5 4 1 5 9 5 10 1 6 4 5 7 1 5-3 4 1 7 7 12-3 6 1 3 4 3-2 8 2 4 4 2 5 10-6 6 6 12 7 1 1 5 7 6 4 8 13 2v-6l-4-8 1-6 11 1 4-3 6-1 5 4 3-2 2-9-2-4 3-6 6 4h5l1 6-3 12 2 5 6 6-2 3 3 4 5 2 7 6 2 6 1-2 12 6v4l3 2v4l5 2 1 7 10 10 9 2 14-4 2 2 15 1 7 5 4-1 5 5h6l4-3 12-4 6 3h9l4 4-3 6h-4l-3-4-2 6h-3l-4 5 3 7-5 1-2 3-4-4h-10l-8 4-4 5 3 5-8 1-2 3 5 8v3l5 3-5 6 1 6-2 1-1 5 3-1 4 9h2v6l4 3v4l7-2 1 10 2 4 7 1 5-3v-3l6-1 6 5h12l4 3-1 4 2 3 6-1 2-3 5 1 12-9 7 3 10-8 17-2 2-4 16-1 6-2 5-4 4-9h7l8-11-2-2 1-3h3l12-10 4 3 3 6 5 2 15-5 3 5 5 1 13 2h4l4-4 4 2-3 7 1 4-3 2-2 9v5l7 3 13-16v-6l-4-11 1-3 6-3 8-10 4 5 9-2 9-12 8 1 4-4 6 3 8-1-2-6 5-1 3-4 3 1 9-7 4 4 3-4z"/>
  <path id="沧州市" fill="#ff6347" fill-opacity="1" fill-rule="evenodd" stroke="#ffffff" stroke-dasharray="none" stroke-linecap="round" stroke-linejoin="round" stroke-opacity="1" stroke-width="0.5" d="m272 973 2 3h4l2 5-2 4 6 4 6 8 4-9 6-2 5-8 4-2 2-4 17-19v-4l4-1 3-9 8-4v-5l4 2 1-8 6-8 1-4 10 2 14-2 19 3 9-4 14 2 6-2 16 2 8-5h5l11 4 6-2 8-14 6-7 2-12 6-10v-4l4-3 18-2 4 1 5-5 2-6 5-2v-7l6-3-2-2 3-11 26-27 2-7-4-3-17 5-12-1-9-12-1-8-8-4-6-8v-4l7-1v-2h-8v-20l-15 3-3 2-12-3-20 12v-4l-2 3-9 3h-10l-2-6 3-7-5-3v-4l-8 6h-6l-3 4-7 3-2-5h-3l-1-6-2-2 3-9-6-2 1-4-5 2v2l-4-1-21 3-2-15h-13l-5 1-2 2 3 19-2 4-4 1-1 4-4 1-2-3-4 4v3l-3 2 1 4h-5l2 3 4 1-1 4-4 6-5-2 1 3-3 5-3-1-4 3-2-6-7 2-10-1-3-6 1-4-4-1v-3l4-1v-5l-5-2-8-8-3-12 1-5 6-2 5-7-2-9-15-8-12-3 1-4-6-3v-3l-3-3-3 1-2-4 1-8-10-6-6 3 1 3-2 3-5-1-8 3v20h-4l-14 18 4 7-2 1 3 8v8l-4 1 2 4v7l-5 8 1 4-9 1-2-2-2 2 1 4-10-4-5 3-13 15-1 3 3 10-4 6 5 2 1-2 8 2 4 3h6l2 8-3 3 1 6 4 4-1 3 3 6 5 3-2 7 2 3 6-2 1 6 5 1 4 3 11-5 1 4-1 4-3 3v4l4 3v4l3 3h-4l-1 3 4 5 1 6 5 7h4l-5 6v3l11-1 3-5v-6l3-2 4 1 3 3 6-3 2 1v-5l2 5 12-13 13 2 11-1 1-3 3 3 12-1v9l-6 16-3 4v7l-8-1 2 8-3 6 1 7-2-1-2 5h-2l-1 5h-2l-6 9-2 9-2 2 1 7-8 3z"/>
  <path id="廊坊市" fill="#ff6347" fill-opacity="1" fill-rule="evenodd" stroke="#ffffff" stroke-dasharray="none" stroke-linecap="round" stroke-linejoin="round" stroke-opacity="1" stroke-width="0.5" d="m256 522-4 3-1-2-7 4v2l-5 4-7 22 4 6h11l2 5-1 18-3 7 4 4v9l3 5 7 2v3l3 4 5 2 2 5v10l-2 1-2 6 1 3 4-1 2 3-3 5-3-3-2 7-7 3-1-4-3 2v4l-5 2v7l2 4 3-1 3 3v3l6 3-1 4 12 3 15 8 2 9-5 7-6 2-1 5 3 12 8 8 5 2v5l-4 1v3l4 1-1 4 3 6 10 1 7-2 2 6 4-3 3 1 3-5-1-3 5 2 4-6 1-4-4-1-2-3h5l-1-4 3-2v-3l4-4 2 3 4-1 1-4 4-1 2-4-3-19 2-2-4-3 1-6-3-1 3-11-1-5h-4v-10h-3v-9l2-1 2-9 5-6v-11l3 1 2-4 3 3h11l2-5h2l5-10 2-1-2-8-7-1-3-14h4l-1-3 4 1-3-7-2-12h3l1-8h-2l-1-4-4 4h-4l-2-8h4l-1-7 8-8-4-2-4 2-3-4-2 2-4-5 7-4-2-6 3-1-7-10 4-5-3-4 3-5-4 1v3l-8-5-8-1v3l5 4-4 1-8-4-3 2-5-1-2-4h-8v3l-4 3-3-1-3 11-7-1 1 4-2 2-5 1 1 4h-4v-3l-4-1v3l3 1-1 6h6l2 7-4 2-15-2-6-4-2-4-9-3zm175-134-1 3-8-2-3 3-4-2h-6l-6 3-5 6-5 1-5-1-2-4h-6l-11 3-2-3-6 2-1 4-7-2-2 6 1 4-3 8 4 3 1 13 4 4h4l7 8 3-1 4 3v-3l4 3v5l5 5-1 3-5-1v3l-4 2 3 7-6 3 2 6 3 1 1-4h6l-1 3 4 12 2 2 7-4 8 2 12 6 5-1 1-3 4-2-4-5 2-2v-10l-3-2 2-6 8-3-5-5v-3h-4v-5l7-2-1-2h11l2-2-3-4-3 2-11-4-4-7 2-3-4-3 4-4-1-1 4-4 4-8-2-16 7-1z"/>
  <path id="衡水市" fill="#ff6347" fill-opacity="1" fill-rule="evenodd" stroke="#ffffff" stroke-dasharray="none" stroke-linecap="round" stroke-linejoin="round" stroke-opacity="1" stroke-width="0.5" d="m185 1092 2-3 3-13-1-5 6-6v-7l5-4 3 1 3-4-1-3 2-5-2-3 3-7-1-4 6-2 3-4 5 1v-3h10l11-3 5 4 7 1 9-9-4-5-6-1 2-5-3-7 3-3 6 6v-3l3-1-2-9h2v-6l8-7-1-6 8-3-1-7 2-2 2-9 6-9h2l1-5h2l2-5 2 1-1-7 3-6-2-8 8 1v-7l3-4 6-16v-9l-12 1-3-3-1 3-11 1-13-2-12 13-2-5v5l-2-1-6 3-3-3-4-1-3 2v6l-3 5-11 1v-3l5-6h-4l-5-7-1-6-4-5 1-3h4l-3-3v-4l-4-3v-4l3-3 1-4-1-4-11 5-4-3-5-1-1-6-6 2-2-3 2-7-5-3-3-6 1-3-4-4-1-6 3-3-2-8h-6l-4-3-8-2-1 2-5-2-1 4-10 2v4l-10-2-2-2-1 4-5-2v3h-6v-9l-4-1v5h-3l-3 3-7-2-4 4-3-2v7l2 3-5 1-2 2-1 6h-5v6l5 2-2 4 1 13h4l3 12 7-1 3 2 5-3 3 3-3 4-5 15 5 2-4 1 2 3-1 9-7-2v6h-5l-3 3-1 6 5 1v5l-5 1-2 15 4 3-5 5 9 8-3 2-8-2-3 4v8h-3l-1 7-12-4-5 3-2 6-3 2 5 7-3 2 3 1 6-4h9l14 12v-8l3 4 5 1 5 7 4 1-6 1 1-2-5-1v3l3 2-1 3 4 1-5 2h-8l-3 3 8 5 7 9 14 4 3 4 1 6 9 2 4-3v7l5 1 1 4 8 1v3l4 1 11 11 2 15 3 4 8 4z"/>
</svg>
