<?xml version="1.0" encoding="UTF-8" standalone="no"?>
<svg
   width="1622"
   height="1548"
   viewBox="-251 -228 1622 1548"
   version="1.1"
   id="svg1"
   xmlns="http://www.w3.org/2000/svg"
   xmlns:svg="http://www.w3.org/2000/svg">
  <defs
     id="defs1" />
  <path
     stroke="#ffff00"
     stroke-opacity="1"
     stroke-width="0.5"
     stroke-linecap="round"
     stroke-linejoin="round"
     stroke-dasharray="none"
     fill="#1e90ff"
     fill-opacity="1"
     fill-rule="evenodd"
     d="m 744,231.99998 -5,-7 -7,3 -14,-8 h -5 l -5,4 h -8 l -5,-5 h -3 l -12,15 -5,4 -12,-1 -9,5 -12,3 -6,-1 -4,-3 -5,-8 -10,-1 -11,4 -4,-2 -5,-6 -15,-1 -12,-11 -17,4 -7,-1 -6,-2 v -6 l -5,-2 -9,3 -10,11 -5,1 -7,-3 h -7 l -4,2 -2,2 v 5 l -3,5 -22,7 2,9 -7,1 -4,3 -12,2 -5,-1 -9,-7 h -3 l -4,5 -9,5 -10,-7 h -5 l -8,14 -7,-3 -3,2 -1,9 2,2 5,-2 16,1 2,3 -1,6 2,4 7,5 -2,4 h -4 l -4,5 -8,-4 -10,4 2,8 -2,4 4,5 -1,4 h -4 l 4,1 1,4 -2,5 2,2 h 4 l 8,13 h 15 l 9,3 -2,2 h -8 l -4,2 -3,13 1,2 -5,3 -2,-3 -9,1 -14,-2 -8,-6 -9,3 v 17 l -3,6 2,4 -4,7 2,1 1,8 6,-2 1,4 7,1 v 3 l 6,-2 6,2 5,5 -3,2 v 4 l 4,-2 4,2 3,-1 7,2 h 6 l 5,-2 h 15 l 6,6 10,1 2,4 4,1 11,-3 3,2 6,-5 5,-10 h 4 l 4,-7 11,-1 2,-1 v -3 h 10 v -12 l 3,-5 6,1 5,4 -1,3 13,2 -3,6 2,2 4,-1 11,7 3,-4 h 7 l 5,8 7,2 3,-3 11,2 12,12 6,-2 6,1 -1,-4 h 3 v -3 l 4,-2 2,-3 11,1 4,-5 -1,-1 4,-1 7,4 12,-2 2,1 v -7 l -2,-2 2,-5 -2,-13 6,-13 3,1 v 2 h 4 l 2,-3 3,1 v 5 h 11 l 7,-3 v -7 l -3,-1 7,-10 7,4 2,3 h 4 l 3,-4 -1,-3 4,-17 6,-6 -1,-3 2,-2 v -4 l -2,-1 v -3 l 5,1 v 3 h 2 l -1,-4 2,-3 -2,-9 3,-3 -1,-12 -4,-5 -1,-5 9,-10 -13,-16 3,-2 h 13 l 4,-2 3,-9 2,-15 z"
     id="郑州市" />
  <path
     stroke="#ffff00"
     stroke-opacity="1"
     stroke-width="0.5"
     stroke-linecap="round"
     stroke-linejoin="round"
     stroke-dasharray="none"
     fill="#1e90ff"
     fill-opacity="1"
     fill-rule="evenodd"
     d="m 658,416.99998 2,1 v 6 l 3,3 7,-3 1,2 7,1 v 3 h 2 l 1,3 h 4 v 4 h 2 l 3,6 8,2 2,-3 5,-1 2,3 1,-3 5,2 2,4 -2,2 2,1 v 4 l 6,3 6,-1 2,-4 9,-1 3,-8 10,1 5,-5 2,-6 3,-1 4,3 h 7 l 7,7 8,1 5,-2 3,-5 6,-2 4,-7 -7,-3 -1,-2 2,-1 v -5 l -2,-1 3,-1 v 2 l 4,3 h 2 v -3 h 5 l 3,5 h 7 l 2,10 6,-1 v 4 l 2,1 8,-2 6,4 h 5 l 4,4 h 5 l 3,2 h 9 l 3,5 7,-2 2,-2 1,-5 h 4 l 2,-2 6,1 5,-3 1,-4 16,5 1,-6 -8,-7 -2,-7 -2,-2 2,-10 5,-1 2,-4 -4,-4 -6,-1 v -3 l 1,-6 3,-2 h -2 v -5 l 2,-4 4,4 1,-3 h 3 l 6,-8 1,-4 -4,1 3,-11 -2,-1 2,-2 -1,-2 h -2 v -8 l -3,-9 1,-14 -2,-2 1,-3 10,-3 v -3 l -1,-2 -6,-3 h -4 l -6,3 -3,-1 -1,-6 -3,-2 4,-6 -6,-3 -2,-3 1,-3 9,-1 1,-2 h 2 l 4,4 8,4 h 3 l 8,-4 h 9 l 10,-4 16,1 4,-6 6,-1 3,4 6,-3 1,-3 5,1 1,-3 12,2 1,-2 -3,-2 h 4 l 2,-6 -2,-4 -4,-2 -1,-8 4,-10 -13,-2 2,-9 3,-1 -1,-5 -3,1 -1,3 -7,-4 -5,1 v -3 l -3,-4 -4,-1 v -6 l -14,1 -13,9 -4,-5 -15,-1 -7,7 -4,-7 -5,-1 -2,-3 1,-6 -4,-1 -3,7 -11,-3 -4,2 -15,14 v 4 l 10,10 -1,5 -4,3 -9,2 -8,-3 -4,-4 -5,3 -19,-4 -19,5 -18,-6 -11,-8 -4,1 -4,6 -5,3 -27,1 -6,-4 -2,18 -3,9 -4,2 h -13 l -3,2 13,16 -9,10 1,5 4,5 1,12 -3,3 2,9 -2,3 1,4 h -2 v -3 l -5,-1 v 3 l 2,1 v 4 l -2,2 1,3 -6,6 -4,17 1,3 -3,4 h -4 l -2,-3 -7,-4 -7,10 3,1 v 7 l -7,3 h -11 v -5 l -3,-1 -2,3 h -4 v -2 l -3,-1 -6,13 2,13 -2,5 2,2 z"
     id="开封市" />
  <path
     stroke="#ffff00"
     stroke-opacity="1"
     stroke-width="0.5"
     stroke-linecap="round"
     stroke-linejoin="round"
     stroke-dasharray="none"
     fill="#1e90ff"
     fill-opacity="1"
     fill-rule="evenodd"
     d="m -18,581.99998 3,4 8,2 3,4 5,-2 h 17 l 9,7 9,3 6,4 8,-6 4,3 h 7 l 6,2 7,-1 7,3 10,13 11,-3 24,11 3,17 14,1 8,7 h 3 l 26,-6 -1,-3 -2,2 -2,-2 1,-4 3,-3 9,6 h 7 l 1,-1 -2,-7 -2,-1 -1,-6 15,-7 7,-14 h 3 l 4,7 8,-5 9,-1 -1,-3 4,-5 1,-8 -2,-4 5,-3 -1,-3 7,-3 6,-5 10,-4 12,11 6,-2 7,-11 6,-4 h 7 l 8,-10 -2,-3 -8,-3 -2,-5 9,-3 2,-3 2,-16 6,-1 -5,-5 h -4 l 1,-3 9,-5 1,-6 6,-3 v -5 l 5,-17 -2,-5 -4,-1 -3,-9 -7,-10 5,-7 v -3 l -5,-3 -1,-3 4,-3 1,-4 10,-8 -1,-2 4,-3 7,-1 2,3 v 4 l 3,-2 h 5 l 3,-3 14,2 5,-5 h -4 l -1,-4 -6,2 -1,-8 -2,-1 4,-7 -2,-4 3,-6 v -17 l 9,-3 8,6 14,2 9,-1 2,3 5,-3 -1,-2 3,-13 4,-2 h 8 l 2,-2 -9,-3 h -15 l -8,-13 h -4 l -2,-2 2,-5 -1,-4 h -4 l 4,-1 1,-4 -4,-5 2,-4 -2,-8 10,-4 8,4 4,-5 h 4 l 2,-4 -7,-5 -2,-4 1,-6 -2,-3 -16,-1 -5,2 -2,-2 v -4 l 1,-5 3,-2 -3,-4 -7,-2 -9,3 h -8 l -17,-10 -4,2 v -21 l -14,-2 -2,-2 -2,-8 -5,6 -6,2 -6,-3 -2,7 h 4 l 1,-3 h 3 l 3,4 -1,7 h -10 l -9,-6 -7,-2 -11,1 -2,-2 -21,-7 -5,-4 -9,6 -9,-8 -6,-2 -5,-10 -5,-4 -11,-4 h -17 l -2,-2 v -6 l -3,-2 v -2 l -4,1 -9,-2 -3,2 v 5 l -5,4 7,7 6,3 -3,2 v 2 l -6,1 1,4 6,1 v 3 l -8,5 h -5 l -3,4 -8,4 -2,3 v 5 l 4,3 6,1 7,6 v 3 l 2,1 7,-2 2,1 -2,2 1,3 9,8 -2,3 4,3 1,3 -4,4 -2,6 h -3 l -1,5 5,1 v 3 l -4,2 -1,7 h -3 v 3 l -3,5 2,5 -3,3 -4,1 -6,12 -6,-6 -4,1 -7,-9 -8,-1 -2,1 -1,4 -6,2 -5,6 h -3 l -2,3 -5,-1 -9,5 -2,3 -6,1 2,8 3,4 -25,-10 -3,3 -2,-2 -3,1 -5,5 H 44 l -4,6 -26,16 h -4 l -3,-2 -9,3 -4,-1 -2,-5 -3,1 -4,5 v 7 l -12,-4 -3,10 -6,3 v 6 l -9,2 -4,6 v 7 h 5 l 2,2 v 3 l 5,6 1,5 -2,7 1,9 -2,6 h -3 l -2,2 4,4 8,4 2,5 5,1 5,8 4,2 2,-1 1,3 4,-2 5,9 11,3 2,5 -3,2 -3,9 v 6 l 3,7 1,9 -9,7 -5,11 -7,-2 h -9 l -4,6 2,6 -5,3 -2,-2 -1,3 4,3 v 2 l 4,3 7,10 z m 198,-307 -3,-2 1,3 z"
     id="洛阳市" />
  <path
     stroke="#ffff00"
     stroke-opacity="1"
     stroke-width="0.5"
     stroke-linecap="round"
     stroke-linejoin="round"
     stroke-dasharray="none"
     fill="#1e90ff"
     fill-opacity="1"
     fill-rule="evenodd"
     d="m 581,607.99998 -2,-1 2,-4 -3,-3 -1,-5 -6,1 -1,-2 -24,5 -1,-6 -3,-2 -3,1 -13,-7 5,-4 -2,-1 -1,-4 1,-9 -5,-6 -1,-5 6,-15 7,-5 v -13 l -3,-5 -1,-9 -3,-3 -8,-1 -2,1 v 3 l -3,1 -4,-9 3,-2 -8,-6 -4,-1 -1,-5 -4,1 -3,-5 -3,2 v 3 l -2,2 h -2 l -1,-3 -3,-2 -8,2 -8,-2 -1,-3 -4,-2 v -7 l -7,-9 1,-9 -10,-6 1,-7 3,-6 -2,-4 -10,-1 -6,-6 h -15 l -5,2 h -6 l -7,-2 -3,1 -4,-2 -4,2 v -4 l 3,-2 -5,-5 -6,-2 -6,2 v -3 l -3,-1 -5,5 -14,-2 -3,3 h -5 l -3,2 v -4 l -2,-3 -7,1 -4,3 1,2 -4,2 -6,6 -1,4 -4,3 1,3 5,3 v 3 l -5,7 7,10 3,9 4,1 2,5 -5,17 v 5 l -6,3 -1,6 -9,5 -1,3 h 4 l 5,5 -6,1 -2,16 -2,3 -9,3 2,5 8,3 2,3 -8,10 h -7 l -6,4 -7,11 -3,2 h -3 l -12,-11 -10,4 -6,5 -7,3 1,3 -5,3 2,4 -1,8 -4,5 3,5 h 5 l 7,4 7,9 h 5 l 2,2 16,-4 10,11 h 8 l 10,16 5,-2 2,2 5,-4 3,-5 h 3 l 3,2 1,4 5,1 6,-3 1,2 7,3 14,3 4,2 3,4 3,-3 7,-3 h 9 l 2,-2 v -6 l 4,-2 5,1 1,-3 7,4 6,-1 2,5 6,2 4,5 9,2 1,5 h 2 v 2 l 3,2 v 13 l 2,2 -4,3 v 9 l 2,2 7,-3 9,1 4,2 1,4 12,-3 4,2 6,10 4,3 v 4 h 3 l 1,3 h 3 l 5,5 3,-1 6,3 6,-3 17,5 2,4 -2,2 1,4 -4,1 -1,2 4,10 v 8 l -3,3 -1,9 -2,4 h -2 l 4,4 -1,11 2,2 2,-7 4,-2 9,-1 13,1 4,-2 2,3 h 3 l 4,4 3,-6 9,1 1,-2 5,5 2,-1 6,-10 -6,-1 -5,-16 5,-23 4,-4 -1,-9 4,-5 6,-2 3,-9 -1,-4 -10,-1 -6,4 -7,-1 -2,3 -10,-1 -2,-4 h -4 l -2,4 -13,-5 v -4 l 2,-2 -1,-6 3,-7 -1,-6 h 12 l 2,2 3,-16 3,-1 2,-5 h -3 v -5 l 6,-2 7,-7 5,-2 1,-3 -8,-7 h -2 l -2,-9 1,-5 -2,-2 z"
     id="平顶山市" />
  <path
     stroke="#ffff00"
     stroke-opacity="1"
     stroke-width="0.5"
     stroke-linecap="round"
     stroke-linejoin="round"
     stroke-dasharray="none"
     fill="#1e90ff"
     fill-opacity="1"
     fill-rule="evenodd"
     d="m 795,56.99998 3,1 v 6 l -7,8 3,4 2,10 -3,7 5,5 -2,6 -5,-1 v 3 l 2,1 1,4 -2,3 h -3 l 3,7 -4,4 1,5 3,2 -4,3 1,2 1,-2 4,-1 4,2 v 4 l 3,1 6,-3 6,3 4,-7 10,-4 5,-11 17,-7 9,2 7,-1 2,-3 v -10 l 5,-2 9,1 2,-2 h 12 l 13,-13 10,-1 14,3 4,-6 5,-4 -1,-7 -5,-2 2,-12 -8,-1 v -3 l 6,-4 2,-4 -2,-17 -2,-3 -12,-2 -6,-4 v -5 l -3,-3 4,-7 4,-1 4,-5 v -7 l -2,-4 1,-2 -2,-5 -5,-5 v -5 l 1,-3 4,-1 9,-10 1,-9 h -3 l -1,-6 1,-3 6,-2 3,-6 2,-8 -1,-6 4,-13 -2,-12 -2,1 v -4 l 3,-4 -4,-3 -7,-1 -7,-5 3,-12 -1,-4 -3,-1 v -11 l -11,-2 -3,1 v 5 l -7,-1 -1,2 -12,-3 v 2 l -4,1 v -3 l -3,-1 v -3 l -5,-3 -3,5 -8,-2 v 3 l -9,-1 -5,2 -1,3 -3,1 -3,-2 -1,2 h -6 l 1,-6 -3,-1 -2,-3 -2,1 -4,-4 h -3 v -3 h -7 v -2 h -4 l -1,-2 -1,2 -7,-8 -9,-1 -3,-6 h -10 l -6,-6 v -4 h -4 v 3 h -8 l -11,-5 -4,4 -4,-6 -4,-1 -1,9 h -9 l 2,-6 -12,-6 -3,3 -7,-2 -2,3 -6,-2 -5,-7 5,-7 -1,-3 -7,1 -1,-2 2,-3 -2,-4 h -3 l -2,4 -7,-6 v 5 h 4 l 2,4 -3,2 1,4 -3,-1 -5,-12 -3,-1 -1,3 3,1 -1,3 h -6 v 5 l -6,1 -2,-7 -5,-5 -9,2 2,6 -5,-2 -5,1 -4,-2 -1,-3 -5,-1 v -3 l -4,1 -2,-3 -3,1 v 2 h -2 l -1,-2 -1,7 2,5 -3,7 -4,1 2,12 h -2 l -2,3 1,5 -2,3 -5,2 -1,3 h 7 l 1,4 h -3 l -2,2 3,4 -6,2 -2,-1 -3,2 2,3 5,1 v 3 l 4,-1 3,2 -1,4 3,1 -6,2 h -9 l 4,4 -1,3 3,3 1,5 v 7 l -6,4 v 3 l 9,2 v 3 l -4,1 4,5 -3,4 -9,-2 -3,2 v 4 l 3,2 1,12 -4,19 2,5 h 3 l 1,6 h 10 l 2,1 1,5 4,-2 4,1 3,8 -1,2 2,2 v 5 l 5,1 6,7 h 2 l -2,3 -2,12 -4,3 2,3 5,1 2,-2 19,-2 4,2 5,-1 2,-1 1,-6 4,1 2,3 h 3 l 7,-4 2,-7 h 4 l 6,-7 h 3 l 4,-4 -1,-5 2,-1 1,-8 -7,2 -3,-2 -3,2 -1,-2 3,-6 -5,-9 1,-2 h 5 l 10,-7 -1,-8 2,-3 -10,-7 -3,-4 v -7 l 9,2 2,-3 9,-2 -1,-5 2,-7 16,-11 1,13 -2,4 3,5 3,1 1,-3 5,-2 2,5 7,3 h 7 v 8 l 5,-4 3,2 -4,4 2,3 -2,2 -1,-2 -3,2 -2,8 3,2 -2,3 -8,4 -4,9 4,16 2,-1 3,7 h -2 v 2 l 4,2 6,-11 9,-2 5,-5 h 23 l 3,-4 5,1 2,-3 20,2 3,-4 1,2 4,-1 3,4 4,1 v 5 l 6,4 6,1 4,3 9,-2 11,8 v 8 l -4,9 -3,4 -10,4 -4,10 -3,1 -4,-2 -6,3 -1,3 -10,7 h -7 l -2,4 -10,-2 -2,3 v 5 h -4 l 1,3 -2,3 -13,6 -2,4 -4,2 -2,6 6,8 z"
     id="安阳市" />
  <path
     stroke="#ffff00"
     stroke-opacity="1"
     stroke-width="0.5"
     stroke-linecap="round"
     stroke-linejoin="round"
     stroke-dasharray="none"
     fill="#1e90ff"
     fill-opacity="1"
     fill-rule="evenodd"
     d="m 686,-16.00002 14,9 4,12 -2,3 v 11 l 6,8 23,14 h 8 l 15,6 8,1 -4,4 v 7 l 13,7 4,-2 1,-4 4,-2 2,3 4,-2 v -3 l 3,-1 4,3 2,-1 v -3 l -6,-8 2,-6 4,-2 2,-4 13,-6 2,-3 -1,-3 h 4 v -5 l 2,-3 10,2 2,-4 h 7 l 10,-7 1,-3 6,-3 4,2 3,-1 4,-10 10,-4 3,-4 4,-9 v -8 l -11,-8 -9,2 -4,-3 -6,-1 -6,-4 v -5 l -4,-1 -3,-4 -4,1 -1,-2 -3,4 -20,-2 -2,3 -5,-1 -3,4 h -23 l -5,5 -9,2 -6,11 -4,-2 v -2 h 2 l -3,-7 -2,1 -4,-16 4,-9 8,-4 2,-3 -3,-2 2,-8 3,-2 1,2 2,-2 -2,-3 4,-4 -3,-2 -5,4 v -8 h -7 l -7,-3 -2,-5 -5,2 -1,3 -3,-1 -3,-5 2,-4 -1,-13 -16,11 -2,7 1,5 -9,2 -2,3 -9,-2 v 7 l 3,4 10,7 -2,3 1,8 -10,7 h -5 l -1,2 5,9 -3,6 1,2 3,-2 3,2 7,-2 -1,8 -2,1 1,5 -4,4 h -3 l -6,7 h -4 l -1,2 z"
     id="鹤壁市" />
  <path
     stroke="#ffff00"
     stroke-opacity="1"
     stroke-width="0.5"
     stroke-linecap="round"
     stroke-linejoin="round"
     stroke-dasharray="none"
     fill="#1e90ff"
     fill-opacity="1"
     fill-rule="evenodd"
     d="m 932,85.99998 -14,-3 -10,1 -13,13 h -12 l -2,2 -9,-1 -5,2 v 10 l -2,3 -7,1 -9,-2 -17,7 -5,11 -10,4 -4,7 -6,-3 -6,3 -3,-1 v -4 l -4,-2 -4,1 -1,2 -1,-2 4,-3 -3,-2 -1,-5 4,-4 -3,-7 h 3 l 2,-3 -1,-4 -2,-1 v -3 l 5,1 2,-6 -5,-5 3,-7 -2,-10 -3,-4 7,-8 v -6 h -5 l -4,-3 -3,1 v 3 l -4,2 -2,-3 -4,2 -1,4 -4,2 -13,-7 v -7 l 4,-4 -8,-1 -15,-6 h -8 l -13,-9 -4,-1 -6,-4 -6,-8 v -11 l 2,-3 -4,-12 -14,-9 -7,4 h -3 l -2,-3 -4,-1 -1,6 -7,2 -4,-2 -19,2 -2,2 -5,-1 -2,-3 4,-3 2,-12 2,-3 h -2 l -6,-6 -5,-2 v -5 l -2,-2 1,-2 -3,-8 -4,-1 -4,2 -1,-5 -2,-1 h -10 l -5,4 -5,-3 -4,3 -6,-1 1,6 5,2 -6,2 v 3 l 2,-1 2,4 -3,10 4,12 -3,5 6,3 2,3 -1,2 2,4 v 7 l -12,-1 -2,-4 -2,1 -1,-5 -3,1 2,12 h -2 l -2,7 -9,10 -2,10 3,3 -1,2 -5,-1 -12,4 -6,-3 -6,3 -3,4 6,11 11,9 9,20 -4,1 v 5 l 3,3 2,14 8,2 1,8 5,11 -5,6 3,18 2,3 6,2 v 3 l 8,-1 7,20 6,9 v 6 l -4,1 1,3 3,1 -10,7 -3,6 -1,9 15,1 5,6 4,2 11,-4 10,1 5,8 4,3 6,1 12,-3 9,-5 12,1 5,-4 12,-15 h 3 l 5,5 h 8 l 5,-4 h 5 l 14,8 7,-3 2,4 9,7 27,-1 5,-3 4,-6 4,-1 11,8 18,6 19,-5 19,4 5,-3 4,4 8,3 9,-2 4,-3 1,-5 -10,-10 v -4 l 15,-14 7,-2 7,-5 -1,-4 h -4 l -4,-3 3,-7 8,-3 6,-5 -3,-9 -8,-7 v -3 l 5,-7 18,-5 v -16 l 6,-2 1,-2 h 4 v -3 l -3,-1 10,-14 h 3 l 1,-6 -13,-6 -1,-4 z"
     id="新乡市" />
  <path
     stroke="#ffff00"
     stroke-opacity="1"
     stroke-width="0.5"
     stroke-linecap="round"
     stroke-linejoin="round"
     stroke-dasharray="none"
     fill="#1e90ff"
     fill-opacity="1"
     fill-rule="evenodd"
     d="m 385,262.99998 7,3 8,-14 h 5 l 9,7 10,-5 4,-5 h 3 l 9,7 5,1 12,-2 4,-3 7,-1 -2,-9 22,-7 3,-5 v -5 l 2,-2 4,-2 h 7 l 7,3 5,-1 10,-11 9,-3 5,2 v 6 l 6,2 7,1 17,-4 12,11 1,-9 3,-6 10,-7 -3,-1 -1,-3 4,-1 v -6 l -6,-9 -7,-20 -8,1 v -3 l -6,-2 -2,-3 -3,-18 5,-6 -5,-11 -1,-8 -8,-2 -2,-14 -3,-3 v -5 l 4,-1 -9,-20 -11,-9 -6,-11 -3,5 h -3 l -3,3 h -5 l -4,-4 -4,3 v 2 l 7,2 v 2 l -2,1 -2,-3 -2,3 -1,4 2,4 -10,-3 -1,-2 -8,-4 -10,2 v 4 l -2,3 1,3 -1,2 -2,-2 -3,2 3,4 -1,3 -4,2 -1,4 -1,-1 v 6 l -3,2 v 3 h -10 l -4,-1 -4,-4 -18,-3 -2,2 1,3 -2,3 v 6 l 2,5 -1,4 -2,1 -4,-2 -8,3 -1,8 -6,4 h -10 l -4,-3 -8,-1 -6,6 -4,1 v 4 l -4,6 h -3 l 3,7 -2,7 2,16 -3,3 -3,11 -2,1 v 5 l -2,3 -8,4 -8,11 h -4 l -2,3 -8,-1 -4,3 h -5 l -2,7 4,7 14,2 v 21 l 4,-2 17,10 h 8 l 9,-3 7,2 z"
     id="焦作市" />
  <path
     stroke="#ffff00"
     stroke-opacity="1"
     stroke-width="0.5"
     stroke-linecap="round"
     stroke-linejoin="round"
     stroke-dasharray="none"
     fill="#1e90ff"
     fill-opacity="1"
     fill-rule="evenodd"
     d="m 949,99.99998 7,-13 8,1 3,-6 1,-7 4,4 h 2 l 1,-4 v 5 l 2,-6 3,-1 h 26 l 9,-8 -1,-3 18,-11 4,1 1,-6 -2,-7 2,-4 -3,-1 v -2 l 3,-1 v -3 l 3,2 v -4 l 3,1 v -3 h 2 l 6,-8 1,-7 6,-6 5,-12 13,-14 h 4 l 2,-3 5,2 2,-3 6,2 1,-2 h 8 l 19,-5 1,-11 h 2 l 1,-5 2,1 1,-5 h 2 l 2,-5 h 5 l -1,-2 h 3 l 3,-5 11,3 1,-2 5,1 v -3 l 6,1 v -4 l 2,-2 v 5 l 1,-5 2,-2 v -5 l 2,-1 -2,-3 h -3 l 1,-4 8,-2 1,-11 19,-4 h 6 l 8,3 3,-2 3,-18 3,1 2,-6 -1,-4 3,-5 3,-13 -11,2 -7,11 -11,8 -13,5 -4,3 -7,-1 -6,3 -3,4 -6,-3 h -5 l -10,6 2,1 -3,3 v 2 l -10,2 -5,-1 -7,5 -1,4 -9,4 -2,3 -9,-2 -6,2 -9,7 -12,3 -11,7 -7,9 v 2 l -4,2 -2,6 -10,6 -2,3 -7,-6 4,-20 -3,-1 1,-2 h 4 l 2,-16 -3,-5 v -6 l 2,-5 6,-1 3,-5 6,-5 7,-2 v -11 l -2,-3 5,-2 -1,-3 1,-3 h 2 l 4,-14 v -8 l -3,-1 -2,-6 -3,1 -1,6 h -4 l -2,3 h -4 l -1,-5 -3,9 h -4 l -2,8 -7,5 h -5 l -4,-1 -3,-4 1,-9 -5,-2 -5,-11 -5,-6 -7,-4 h -3 v -3 l -4,6 -4,1 -4,-1 v -2 l -4,-3 h -4 l -4,3 -1,9 -11,-2 -4,5 -2,18 -11,12 h -11 l -6,6 h -3 l 6,4 7,1 4,3 -3,4 v 4 l 2,-1 2,12 -4,13 1,6 -2,8 -3,6 -6,2 -1,3 1,6 h 3 l -1,9 -9,10 -4,1 -1,3 v 5 l 5,5 2,5 -1,2 2,4 v 7 l -4,5 -4,1 -4,7 3,3 v 5 l 6,4 12,2 2,3 2,17 -2,4 -6,4 v 3 l 8,1 -2,12 5,2 1,7 -5,4 -4,6 4,8 3,1 z m 126,-178 v -5 l -4,2 v 3 l 2,1 z"
     id="濮阳市" />
  <path
     stroke="#ffff00"
     stroke-opacity="1"
     stroke-width="0.5"
     stroke-linecap="round"
     stroke-linejoin="round"
     stroke-dasharray="none"
     fill="#1e90ff"
     fill-opacity="1"
     fill-rule="evenodd"
     d="m 754,439.99998 -3,4 -10,-1 -3,8 -9,1 -2,4 -6,1 -6,-3 v -4 l -2,-1 2,-2 -2,-4 -5,-2 -1,3 -2,-3 -5,1 -2,3 -8,-2 -3,-6 h -2 v -4 h -4 l -1,-3 h -2 v -3 l -7,-1 -1,-2 -7,3 -3,-3 v -6 l -4,-2 -12,2 -7,-4 -4,1 1,1 -4,5 -11,-1 -2,3 -4,2 v 3 h -3 l 1,4 -6,-1 -6,2 -12,-12 -11,-2 -3,3 -7,-2 -5,-8 h -7 l -3,4 -11,-7 -4,1 -2,-2 3,-6 -13,-2 1,-3 -5,-4 -6,-1 -3,5 v 12 h -10 v 3 l -2,1 -11,1 -4,7 h -4 l -5,10 -6,5 -3,-2 -8,3 -7,-1 -3,6 -1,7 10,6 -1,9 7,9 v 7 l 4,2 1,3 8,2 8,-2 3,2 1,3 h 2 l 2,-2 v -3 l 3,-2 3,5 4,-1 1,5 4,1 8,6 -3,2 4,9 3,-1 v -3 l 2,-1 8,1 3,3 1,9 3,5 v 13 l -7,5 -6,15 1,5 5,6 -1,9 1,4 2,1 -5,4 13,7 3,-1 3,2 1,6 24,-5 1,2 6,-1 1,5 3,3 -2,4 7,2 -3,3 1,3 3,-2 5,2 2,-4 2,2 7,-1 7,2 2,-1 2,-5 2,5 5,-2 v -4 l 4,-1 1,-4 -3,-3 h -3 l -1,-4 2,-4 3,-2 v -6 l 2,-5 -1,-6 -7,-3 -2,-4 4,-6 h 6 l 3,-3 -2,-1 h 11 l 3,-3 2,5 6,1 3,-4 -1,-7 h 3 l -3,-13 h 7 v 2 h 4 v -2 l 4,1 1,-3 14,-8 12,-2 8,3 1,8 h 5 l 3,6 h 4 v 3 l 3,-1 3,4 v 9 l -3,4 v 3 l 8,7 3,8 -1,2 2,3 4,-2 v 2 h 9 l 1,2 h 7 l 2,4 10,2 5,-3 1,-6 3,-5 -1,-5 -3,-3 h -2 v -3 h 3 l 1,-4 -2,-2 2,-2 -3,-3 -2,-20 3,-2 -1,-6 2,-1 -1,-6 -4,-2 -3,-12 -3,-2 -2,-13 3,-2 3,-6 -3,-17 v -5 l 3,-5 v -3 l -3,-3 -1,-5 z m -115,114 v 2 l 4,1 -2,-5 -1,2 z"
     id="许昌市" />
  <path
     stroke="#ffff00"
     stroke-opacity="1"
     stroke-width="0.5"
     stroke-linecap="round"
     stroke-linejoin="round"
     stroke-dasharray="none"
     fill="#1e90ff"
     fill-opacity="1"
     fill-rule="evenodd"
     d="m 607,701.99998 1,-3 h 5 v -4 l 2,-1 21,-1 6,-8 6,-1 2,-4 h 15 l 5,4 h 3 l 2,-3 7,-2 5,-6 v -3 h 4 v -3 l 5,-1 1,-2 h 4 l 1,2 11,6 4,-2 1,3 -4,1 v 2 l 3,1 4,-2 v 7 l 5,1 v 3 l 2,1 3,-1 3,2 -3,4 5,4 1,-7 10,-1 9,-3 4,-3 -1,-5 4,-20 -3,-2 -4,-10 v -2 l 3,-2 v -5 l -4,-4 -1,-14 -3,-8 -9,4 h -4 l -3,3 v 3 l -4,2 -2,-1 -2,2 -1,4 h -9 v -11 l -5,1 -1,-11 4,-7 -3,-8 h 12 l -2,-12 3,-2 2,1 1,-2 -3,-8 -8,-7 v -3 l 3,-4 v -9 l -3,-4 -3,1 v -3 h -4 l -3,-6 h -5 l -1,-8 -8,-3 -12,2 -14,8 -1,3 -4,-1 v 2 h -4 v -2 h -7 l 3,13 h -3 l 1,7 -3,4 -10,-2 v -2 h -9 l -3,1 2,1 -3,3 h -6 l -4,6 2,4 7,3 1,6 -2,5 v 6 l -3,2 -2,4 1,4 h 3 l 3,3 -1,4 -4,1 v 4 l -5,2 -2,-5 -2,5 -2,1 -7,-2 -7,1 -2,-2 -2,4 -5,-2 -3,2 -1,-3 3,-3 -5,-1 -3,2 2,2 -1,5 2,9 h 2 l 8,7 -1,3 -5,2 -7,7 -6,2 v 5 h 3 l -2,5 -3,1 -3,11 1,5 -3,-2 h -12 l 1,6 -3,7 1,6 -2,2 v 4 l 13,5 2,-4 h 4 l 2,4 10,1 2,-3 7,1 6,-4 10,1 z"
     id="漯河市" />
  <path
     stroke="#ffff00"
     stroke-opacity="1"
     stroke-width="0.5"
     stroke-linecap="round"
     stroke-linejoin="round"
     stroke-dasharray="none"
     fill="#1e90ff"
     fill-opacity="1"
     fill-rule="evenodd"
     d="m 165,183.99998 -2,-3 -9,-1 -3,4 -4,-3 -4,3 -6,-2 -11,3 -3,2 v 8 l -4,3 -3,-1 -3,4 h -5 l -3,4 -11,1 -2,4 h -5 l -1,2 3,3 1,7 -9,4 -6,6 -1,7 -7,4 v 6 l -5,6 h -3 l -4,-3 -4,1 -7,6 -6,2 -4,-1 -3,-3 h -3 l -2,3 h -4 l -5,4 -11,-2 -4,-3 -4,4 -7,3 -10,-3 -2,1 -2,7 -5,1 -3,-3 -8,-1 -5,-4 -8,11 -1,6 -23,6 -15,11 h -3 l -3,-4 -5,-3 h -4 v 5 l -4,14 -3,5 -2,3 -8,2 -7,7 -9,-11 -11,-1 -9,14 -2,1 -24,-1 -17,8 h -3 l -12,-9 -13,4 -3,3 h -5 l -7,-4 -3,11 8,1 2,2 -9,4 -3,8 2,8 3,2 4,7 2,10 2,1 v 2 l 5,4 7,2 5,-2 -1,5 4,12 4,3 -1,8 -7,-1 -6,10 h -5 l -1,5 2,1 2,9 13,3 4,5 4,-1 7,2 2,6 8,1 v 4 h 8 l 6,5 -1,4 -4,4 1,1 -4,6 -5,4 1,11 -2,1 -1,12 h 7 l 2,-4 3,4 -1,2 h 2 l 4,8 v 7 l 5,1 1,6 -1,2 -5,1 -6,4 v 5 l -9,2 -1,4 6,7 v 4 l 4,2 h 6 l 4,-2 5,5 7,1 3,8 4,3 11,1 v 4 l 4,2 9,20 -3,6 5,9 4,2 6,7 h 5 l 1,2 10,2 2,4 h 4 l 10,9 1,6 4,3 9,-2 3,-3 5,1 3,-4 3,-1 6,-15 4,-6 -5,-10 5,-2 h 8 l 4,-14 -1,-8 4,-8 3,-5 3,-1 7,2 v -9 l -7,-10 -4,-3 v -2 l -4,-3 1,-3 2,2 5,-3 -2,-6 1,-3 3,-3 h 9 l 7,2 5,-11 9,-7 -1,-9 -3,-7 v -6 l 3,-9 3,-2 -2,-5 -11,-3 -5,-9 -4,2 -1,-3 -2,1 -4,-2 -5,-8 -5,-1 -2,-5 -8,-4 -4,-4 2,-2 h 3 l 2,-6 -1,-9 2,-7 -1,-5 -5,-6 v -3 l -2,-2 h -5 v -7 l 2,-4 2,-2 9,-2 v -6 l 6,-3 3,-10 12,4 v -7 l 4,-5 3,-1 2,5 4,1 9,-3 3,2 h 4 l 26,-16 4,-6 h 10 l 6,-5 3,-1 2,2 3,-3 25,10 -3,-4 -2,-8 6,-1 2,-3 9,-5 5,1 2,-3 h 3 l 5,-6 6,-2 1,-4 2,-1 8,1 7,9 4,-1 6,6 6,-12 4,-1 3,-3 -2,-5 3,-5 v -3 h 3 l 1,-7 4,-2 v -3 l -5,-1 1,-5 h 3 l 2,-6 3,-2 h -2 l -1,-3 3,1 v -3 l -4,-3 2,-3 -9,-8 -1,-3 2,-2 -2,-1 -7,2 -2,-1 v -3 l -7,-6 -6,-1 -4,-3 v -5 l 2,-3 8,-4 3,-4 h 5 l 8,-5 v -3 l -6,-1 -1,-4 6,-1 v -2 l 3,-2 -13,-9 5,-5 v -5 z m 16,90 -1,2 z"
     id="三门峡市" />
  <path
     stroke="#ffff00"
     stroke-opacity="1"
     stroke-width="0.5"
     stroke-linecap="round"
     stroke-linejoin="round"
     stroke-dasharray="none"
     fill="#1e90ff"
     fill-opacity="1"
     fill-rule="evenodd"
     d="m -83,654.99998 -1,8 4,4 2,16 -2,5 -6,5 4,9 1,7 3,3 -1,6 2,5 -1,3 -7,2 2,6 -3,1 -1,7 -3,2 4,5 h -3 l 3,5 4,2 5,5 v 2 l 5,3 2,5 -6,7 3,1 4,-5 7,-3 4,6 6,3 1,5 4,4 h 4 l 4,3 -1,4 4,5 1,4 -7,3 -4,3 -1,3 h 19 l 5,2 v 5 l 4,4 4,11 -7,8 v 17 l 2,2 4,-5 3,-1 3,3 v 10 l 10,6 7,1 6,3 8,22 3,2 h 4 l 2,-4 4,-1 v -2 l 3,4 -1,6 -3,4 -4,-3 v 3 l -3,-3 -2,1 4,3 h 6 l 3,2 -2,3 3,4 9,6 3,6 1,8 13,11 6,-5 4,-6 6,-2 1,9 7,-3 5,3 h 6 l 6,5 2,4 10,6 6,6 h 5 v 2 l 8,1 3,6 h 12 l 8,-3 5,7 2,7 4,1 v 3 h 3 l 1,2 7,-3 1,-3 7,-1 v 9 l 3,3 h 2 V 1005 h 2 l 8,6 2,-1 2,4 5,4 2,-3 -4,1 3,-5 -4,-1 1,-3 h 4 l 2,2 v 6 l 8,-2 6,2 1,3 6,5 9,4 2,4 8,4 v -5 l 2,-4 h 4 l 2,-5 7,1 1,-2 6,2 1,2 8,4 -1,-4 8,-7 5,1 7,-2 2,2 4,-8 4,1 4,3 v 2 l 3,1 2,-2 h 4 l 19,9 7,1 1,-3 4,-1 1,5 8,2 2,-5 24,-12 3,2 -1,4 3,1 4,-4 h 11 l 4,1 2,5 5,-1 v -8 l 3,-5 h 3 l 3,-3 7,2 2,4 5,4 8,-2 2,7 h 8 l 2,-1 1,-9 3,-4 h 4 l 6,-3 4,2 3,6 15,12 1,4 6,2 3,3 -4,3 v 2 l 3,1 4,6 h 8 l 4,3 1,3 h 3 l 3,3 24,-15 4,-4 5,1 1,8 2,-2 -2,-7 3,-3 5,-1 -1,-4 3,2 h 4 l -3,-3 v -2 l 4,2 4,-1 v -5 l 3,-2 3,-8 3,1 1,-4 7,2 3,-1 1,3 3,-2 -2,-2 4,-4.00002 1,-8 2,3 1,-4 h 3 l 2,-2 1,-6 -2,-5 4,-9 -3,-3 2,-4 3,-2 2,-6 6,-5 -7,-9 2,-3 -3,-3 h -5 l -9,-6 -2,-4 -6,-3 -7,1 -5,-5 -2,1 -7,-2 -1,4 2,2 v 7 l -6,2 v 4 l -2,-1 -6,15 -6,4 -4,-1 -3,6 -5,2 -6,-4 -3,1 v -3 l -5,-1 -4,-5 -6,-2 -9,13 -4,-1 -2,2 -4,-3 -1,-3 -2,-1 -1,3 -8,-4 h -8 l -1,4 -6,3 h -4 l -2,-3 -1,-8 2,-3 v -5 l -3,-1 -1,-5 9,-10 8,5 1,4 3,-2 -2,-5 -6,-1 1,-3 -3,-3 -4,-1 -2,-4 h -4 l 1,-5 2,-2 -7,-11 2,-4 -1,-5 2,-5 -6,-5 1,-3 10,-11 v -10 l -12,-3 -1,-3 -3,-1 -1,3 -6,-1 -2,-3 -3,-1 6,-17 5,-5 6,-10 6,-2 1,-3 4,-2 3,2 10,-5 14,2 4,-1 8,-4 7,-7 v -17 l -4,-4 h 2 l 2,-4 1,-9 3,-3 v -8 l -4,-10 1,-2 4,-1 -1,-4 2,-2 -2,-4 -17,-5 -6,3 -6,-3 -3,1 -5,-5 h -3 l -1,-3 h -3 v -4 l -4,-3 -6,-10 -4,-2 -12,3 -1,-4 -4,-2 -9,-1 -7,3 -2,-2 v -9 l 4,-3 -2,-2 v -13 l -3,-2 v -2 h -2 l -1,-5 -9,-2 -4,-5 -6,-2 -2,-5 -6,1 -7,-4 -1,3 -5,-1 -4,2 v 6 l -2,2 h -9 l -7,3 -3,3 -3,-4 -4,-2 -14,-3 -7,-3 -1,-2 -6,3 -5,-1 -1,-4 -3,-2 h -3 l -3,5 -5,4 -2,-2 -5,2 -10,-16 h -8 l -10,-11 -16,4 -2,-2 h -5 l -7,-9 -7,-4 -12,-2 -12,6 -2,-2 v -3 l -2,-2 h -3 l -7,14 -15,7 1,6 2,1 2,7 -1,1 h -7 l -9,-6 -3,3 -1,4 2,2 2,-2 1,3 -29,6 -8,-7 -14,-1 -3,-17 -24,-11 -11,3 -10,-13 -7,-3 -7,1 -6,-2 h -7 l -4,-3 -8,6 -6,-4 -9,-3 -9,-7 H 1 l -5,2 -3,-4 -8,-2 -3,-4 -7,-2 -3,1 -7,13 1,8 -4,14 h -8 l -5,2 5,10 -4,6 -6,15 -3,1 -3,4 -5,-1 -3,3 -9,2 z m 7,118 1,-3 -2,-1 -4,5 z M 361,1024 l -1,-2 -2,1 z"
     id="南阳市" />
  <path
     stroke="#ffff00"
     stroke-opacity="1"
     stroke-width="0.5"
     stroke-linecap="round"
     stroke-linejoin="round"
     stroke-dasharray="none"
     fill="#1e90ff"
     fill-opacity="1"
     fill-rule="evenodd"
     d="m 1113,499.99998 4,1 3,-3 h 4 l 2,2 8,-5 12,4 v -3 l 3,3 h 4 l 9,10 v 6 l 2,2 6,1 v -8 l 3,-2 4,7 14,1 3,2 7,8 1,4 -4,14 1,5 6,1 1,4 5,2 6,6 v 3 l 2,1 -1,6 h -4 l 4,4 -2,3 5,3 v 4 h 7 l 2,7 6,2 6,13 5,1 8,-6 5,2 1,-4 4,2 5,-1 5,-6 6,-2 3,-5 3,2 v -2 l 5,-2 3,1 8,-2 4,-7 6,3 2,-2 v -14 h 4 l 2,-4 h 3 l 3,-3 h 9 l 1,-3 3,-1 1,3 2,-3 h 3 l -1,-2 3,-6 8,1 8,5 4,-1 -2,-8 2,-4 -1,-6 3,-3 -1,-4 -4,-1 -1,-3 -6,-4 v -8 l -2,-4 -3,-3 -7,-16 -5,-2 1,-2 -4,-4 2,-1 v -7 l 3,-4 5,-2 -5,-8 -1,-14 3,-1 7,-7 v -3 l -4,-3 -14,-4 -6,2 -8,7 -2,-4 1,-2 h -2 l -4,3 1,2 -5,1 -2,-3 -8,2 -1,2 -2,-3 2,-6 -4,-8 -14,-7 -4,-5 -3,-1 -1,-3 -4,-2 -4,1 -7,-2 -1,-3 2,-4 -10,-9 -4,-9 4,-7 v -4 h 3 l 4,-4 v -3 l -4,-5 2,-13 -13,7 -3,-2 -9,-14 -5,-1 -11,5 -9,-8 -5,3 v 6 l -4,2 -34,5 1,2 -3,1 -8,-7 -9,-3 h -10 l -3,-3 h -3 l -1,9 -3,4 h -4 l -12,-6 -10,2 -13,-1 -5,-3 -9,-14 -5,-3 v -6 l -4,-6 1,-7 -4,-9 4,-6 -5,-19 -4,-1 1,-1 -2,-4 -4,-2 -4,1 -16,-10 h -3 l -4,3 -5,-1 -3,3 2,4 -2,6 h -4 l 3,2 -1,2 -12,-2 -1,3 -5,-1 -1,3 -6,3 -3,-4 -6,1 -4,6 -16,-1 -10,4 h -9 l -8,4 h -3 l -8,-4 -4,-4 h -2 l -1,2 h -8 l -2,4 2,3 6,2 -4,7 3,2 1,6 3,1 6,-3 h 4 l 6,3 1,2 v 3 l -10,3 -1,3 2,2 -1,14 3,9 v 8 h 2 l 1,2 -2,2 2,1 -3,11 4,-1 -1,4 -6,8 h -3 l -1,3 -4,-4 -2,4 v 5 h 2 l -3,2 -1,9 6,1 4,4 -2,4 -5,1 -2,10 2,2 2,7 8,7 9,1 7,6 h 5 l 1,3 14,2 3,7 11,1 3,4 5,-1 -2,6 4,6 v 6 l -4,10 2,5 -2,2 v 10 l 6,3 v 2 l -5,8 h -12 l 2,7 -5,7 1,2 -4,7 v 3 l 9,2 5,-1 2,-7 3,-1 4,1 2,3 h 7 l 7,-8 -2,-4 9,5 3,-1 3,-2 1,-10 8,-2 2,1 -2,4 1,3 h 5 l 2,-3 8,-4 h 3 l 10,8 15,2 1,-6 7,-4 3,1 3,-2 h 6 l 3,-5 -1,-15 h 25 z"
     id="商丘市" />
  <path
     stroke="#ffff00"
     stroke-opacity="1"
     stroke-width="0.5"
     stroke-linecap="round"
     stroke-linejoin="round"
     stroke-dasharray="none"
     fill="#1e90ff"
     fill-opacity="1"
     fill-rule="evenodd"
     d="m 623,1050 v 3 l -3,1 v 5 l 4,8 3,3 3,-1 1,6 -5,8 1,7 -4,7 -3,1 v -2 l -4,-1 1,12 5,2 4,7 5,2 2,4 -8,10 v 5 l 15,6 -3,10 3,3 4,1 v 12 l 2,3 v 5 l 5,4 h 4 l 6,-3 4,-8 5,-1 v 3 l 6,4 v 5 l -2,4 1,10 3,3 4,9 2,1 7,-6 6,1 3,-2 2,1 4,-4 4,1 v -4 l 3,-3 5,-1 2,-9 2,-2 7,1 1,-3 4,-1 7,3 3,3 4,-3 3,10 4,4 v 3 l 8,11 14,-1 11,4 2,-2 5,4 7,2 1,-3 3,1 3,-2 4,2 5,-2 v -8 h 3 l 3,7 4,-1 2,-6 7,1 1,10 -2,2 v 5 l 3,2 -1,3 -3,1 -1,8 -3,2 -3,9 4,19 3,3 v -2 h 3 l 3,-5 4,-1 1,-2 6,1 8,11 h 7 v 6 l 5,-1 1,3 5,-2 10,2 -2,2 1,4 2,1 v 4 l 8,1 4,6 3,-1 2,-4 7,-1 v 3 l 12,-3 3,3 7,-8 h 4 l 2,6 3,1 1,-4 2,-1 -2,-3 6,-8 4,3 7,2 h 7 v -3 h 2 l 3,-3 -2,-3 1,-3 -2,-2 1,-3 5,-4 v -6 l 10,-2 3,2 1,6 3,3 v 2 l 4,-1 1,3 h 6 l -6,20 2,2 v 6 l -2,5 2,6 h 4 l 7,4 -3,7 3,1 5,-4 5,5 h 3 l 4,-2 2,-4 5,1 5,-2 4,-13 -5,-14 12,-9 3,-6 v -5 l 3,-5 v -3 l 12,-6 1,-4 -3,-7 4,-8 10,-8 5,1 3,-4 5,-2 24,-19 h 3 l 2,3 4,-1 2,2 h 4 v -4 l 7,-1 1,-2 7,4 h 4 l 2,4 4,-5 1,1 4,-4 2,4 7,-1 6,-5 1,-8 -5,-4 v -10 l 7,-16 -1,-5 -2,-2 v -5 l 4,-11 1,-9 -3,-1 3,-3 -2,-4 5,-4 v -4 l -4,-8 4,-19 -5,-8 -2,-11 v -8 l 2,-4 -3,-5 v -4 l -3,-1 2,-3 v -9 l -2,-1 v -14 l -2,-11 -3,-2 1,-7.00002 -5,-1 3,-4 h 2 v -5 l -3,-5 -7,1 1,-3 6,-5 1,-5 9,-7 h 5 l -5,-3 h -5 l -8,12 -4,2 -1,9 h -4 l -9,10 h -2 l 1,-6 -4,-5 -3,7 -4,2 -11,-6 -2,2 2,5 -6,2 1,8 -2,2.00002 -2,7 h -2 v -6 l -8,7 -6,-6 -10,7 -3,-1 4,-3 v -2 l -5,-1 -3,-4.00002 -4,-1 1,-2 -3,-1 -3,-10 -4,-8 h -2 v -3 h -3 l -7,-4 1,-3 -3,-3 h -4 l -2,2 1,-9 h -3 l -2,3 -2,-1 -14,3 -3,-1 1,3 h -5 l -2,-3 1,-2 h 3 l -4,-2 2,-2 -1,-2 -1,3 -2,-3 -6,3 -3,-2 2,-2 -2,-1 -7,5 1,-3 -8,-1 -2,-3 -4,-1 -8,8 -2,-2 1,-4 -4,-3 h -4 l -3,-3 v -5 l -2,-1 -7,3 -3,-4 -17,-5 -7,-1 -6,4 h -4 l -2,-2 -3,2 v 4 l -2,5 -2,1 -6,-3 -1,2 -9,-1 -2,3 h -5 l -2,2 1,7 h 3 l 2,4 -1,3 -7,7 4,5 -1,4 h -5 l -5,-5 -4,2 -2,-1 -1,-6 -3,-1 -3,3 v 5 l -7,1 -2,-4 h -4 l -9,5 -9,-1 -3,2 v 12 l 4,4 -4,6 2,3.00002 7,2 8,6 3,4 -1,3 -5,2 v 5 l -4,1 v 4 l -4,5 -4,1 1,3 h -5 l -3,6 -4,1 -3,-4 -8,-1 v 4 l -2,1 -4,-3 -4,4 -6,-2 -2,3 -7,-5 -5,1 -2,-2 v -5 l -5,-3 v -7 l -2,-6 -7,-2 -5,2 -2,-1 v -15 h -2 l -3,3 -5,-8.00002 -1,-7 -4,1 -2,3 h -4 l -1,-3 2,-1 v -3 h -3 l -1,-7 -7,1 v 8 l -2,1 -6,-1 -6,4 -7,-1 -2,-8 3,-1 -3,-4 -1,-7 -2,-3 1,-2 -3,-2 -1,5 -10,2 -2,3 -12,1 -6,-16 1,-6 -5,-5 v -4 h -9 l -6,-6 -3,2 -6,-1 -2,1 v 5 l -4,1 -4,4 -2,6 -3,2 -2,4 3,3 -4,9 2,5 -1,6 -2,2 h -3 l -1,4 -2,-3 -1,8 -4,4.00002 6,3 1,6 3,1 1,2 -3,4 2,3 3,-3 h 2 v 3 l -3,2 -1,3 v 5 l 3,2 2,4 -1,10 -3,-1 z m 5,-4 v -5 l -6,3 -1,2 2,4 2,-2 v -4 z"
     id="信阳市" />
  <path
     stroke="#ffff00"
     stroke-opacity="1"
     stroke-width="0.5"
     stroke-linecap="round"
     stroke-linejoin="round"
     stroke-dasharray="none"
     fill="#1e90ff"
     fill-opacity="1"
     fill-rule="evenodd"
     d="m 918,800.99998 3,-10 -1,-4 2,-2 h 4 l 2,-5 8,2 1,4 6,4 -1,6 6,1 7,4 3,-2 1,3 29,-2 1,-6 6,-4 4,2 3,-4 h 4 l 2,-3 h 6 l 5,2 1,-4 2,1 v -7 l -2,-4 1,-8 8,-3 -3,-2 v -2 l 4,-3 v -5 l 2,-3 -1,-11 h 6 l 2,-12 -5,-1 v -6 l -2,-1 1,-3 h -7 l -1,-2 4,-7 -3,-5 v -10 h 2 v -3 l 3,4 3,-1 v -17 l 5,-6 8,7 2,-5 -1,-2 5,-10 11,-3 2,2 8,-2 2,4 5,-3 h 8 l 1,-4 19,-3 -3,-13 -6,-9 -1,-10 h 2 l -3,-4 2,-5 -10,-17 v -2 l 5,-3 8,4 2,-6 v -5 l -2,-3 3,-1 v -4 l 2,-1 v -8 l -3,-3 -4,3 -7,-3 h -9 v -4 h 3 l -1,-4 4,-3 -2,-1 2,-10 2,-1 1,-7 3,-4 -2,-1 2,-7 4,-1 -2,-3 4,-3 2,1 7,-2 -1,-3 2,-4 -3,-8 h -25 l 1,15 -3,5 h -6 l -3,2 -3,-1 -7,4 -1,6 -15,-2 -10,-8 h -3 l -8,4 -2,3 h -5 l -1,-3 2,-4 -2,-1 -8,2 -1,10 -3,2 -3,1 -9,-5 2,4 -7,8 h -7 l -2,-3 -4,-1 -3,1 -2,7 -5,1 -9,-2 v -3 l 4,-7 -1,-2 5,-7 -2,-7 h 12 l 5,-8 v -2 l -6,-3 v -10 l 2,-2 -2,-5 4,-10 v -6 l -4,-6 2,-6 -5,1 -3,-4 -11,-1 -3,-7 -7,-2 -4,1 -3,-1 -1,-3 h -5 l -7,-6 -9,-1 -1,6 -16,-5 -1,4 -5,3 -6,-1 -2,2 h -4 l -1,5 -8,4 -4,-5 h -9 l -3,-2 h -5 l -4,-4 h -5 l -6,-4 -8,2 -2,-1 v -4 l -6,1 -2,-10 h -7 l -3,-5 h -5 v 3 h -2 l -4,-3 v -2 l -3,1 2,1 v 5 l -2,1 1,2 7,3 -4,7 -6,2 -3,5 -5,2 -8,-1 -7,-7 h -7 l -4,-3 -3,1 -2,6 -2,1 7,11 v 3 l -3,5 3,22 -3,6 -3,2 2,13 3,2 1,7 2,5 4,2 1,6 -2,1 1,6 -3,2 2,20 3,3 -2,2 2,2 -1,4 h -3 v 3 h 2 l 4,8 -3,5 -1,6 -5,3 -10,-2 -2,-4 h -7 l -1,-2 -6,-1 -3,1 v -2 l -4,2 -4,-4 -3,2 2,12 h -12 l 3,8 -4,7 1,11 5,-1 v 11 h 9 l 1,-4 2,-2 2,1 4,-2 v -3 l 3,-3 h 4 l 9,-4 3,8 1,14 4,4 v 5 l -3,2 v 2 l 4,10 3,2 -4,20 1,5 6,-3 11,6 v 3 l 3,-1 2,3 4,-3 h 5 l 1,-2 10,-1 4,3 1,6 4,-2 2,2 v 6 l 9,-1 4,-2 6,1 3,5 v 9 l 3,1 1,4 4,1 5,5 h 8 l 2,6 2,1 -1,2 4,-1 1,6 5,-2 4,1 2,3 v 9 l -3,12 -5,4 v 4 l -4,8 5,3 1,4 3,1 1,6 3,1 2,4 5,1 1,4 2,1 v 6 h 6 l 1,3 h 9 l 4,2 2,-7 10,-2 z"
     id="周口市" />
  <path
     stroke="#ffff00"
     stroke-opacity="1"
     stroke-width="0.5"
     stroke-linecap="round"
     stroke-linejoin="round"
     stroke-dasharray="none"
     fill="#1e90ff"
     fill-opacity="1"
     fill-rule="evenodd"
     d="m 639,948.99998 h 2 v -5 h 8 l 3,-2 6,6 h 9 v 4 l 5,5 -1,6 6,16 12,-1 2,-3 10,-2 1,-5 3,2 -1,2 2,3 1,7 3,4 -3,1 2,8 7,1 6,-4 6,1 2,-1 v -8 l 7,-1 1,7 h 3 v 3 l -2,1 1,3 h 4 l 2,-3 4,-1 1,7 5,8.00002 3,-3 h 2 v 15 l 2,1 5,-2 7,2 2,6 v 7 l 5,3 v 5 l 2,2 5,-1 7,5 2,-3 6,2 4,-4 4,3 2,-1 v -4 h 2 l 6,1 3,4 4,-1 3,-6 h 5 l -1,-3 4,-1 4,-5 v -4 l 4,-1 v -5 l 5,-2 1,-3 -3,-4 -8,-6 -7,-2 -2,-3.00002 4,-6 -4,-4 v -12 l 3,-2 9,1 9,-5 h 4 l 2,4 7,-1 v -5 l 3,-3 3,1 1,6 2,1 4,-2 5,5 h 5 l 1,-4 -4,-5 7,-7 1,-3 -2,-4 h -3 l -1,-7 2,-2 h 5 l 2,-3 9,1 1,-2 6,3 2,-1 2,-9 3,-2 2,2 h 4 l 6,-4 7,1 17,5 3,4 7,-3 2,1 v 5 l 3,3 h 4 l 4,3 -1,4 2,2 8,-8 h 7 l 2,-2 -3,-2 1,-4 h -2 v -3 l 2,-1 2,3 -1,-4 3,-3 -4,1 v -6 l -2,-3 -2,2 2,2 -3,1 -1,-5 2,-27 -1,-5 h 7 l -5,-7 1,-5 -2,-4 4,-1 -1,-3 -10,-3 -1,-4 -4,-2 v -4 l -6,-1 -4,2 -4,-3 -15,-1 v -2 l 2,-1 v -5 l -15,-3 -9,2 -7,-11 h -6 l -3,-6 5,-3 -2,-6 8,1 3,-3 -3,-3 -2,-14 -5,-1 -10,3 -2,7 -4,-2 h -9 l -1,-3 h -6 v -6 l -2,-1 -1,-4 -5,-1 -2,-4 -3,-1 -1,-6 -3,-1 -1,-4 -5,-3 4,-8 v -4 l 5,-4 3,-12 v -9 l -2,-3 -4,-1 -5,2 -1,-6 -4,1 1,-2 -2,-1 -2,-6 h -8 l -5,-5 -4,-1 -1,-4 -3,-1 v -9 l -3,-5 -6,-1 -4,2 -9,1 v -6 l -2,-2 -4,2 -1,-6 -4,-3 -10,1 -1,2 h -5 l -4,3 -2,-3 -3,1 v -3 l -11,-6 -10,6 -9,3 -10,1 -1,7 -5,-4 3,-4 -3,-2 -3,1 -2,-1 v -3 l -5,-1 v -7 l -4,2 -3,-1 v -2 l 4,-1 -1,-3 -4,2 -11,-6 -1,-2 h -4 l -1,2 -5,1 v 3 h -4 v 3 l -5,6 -7,2 -2,3 h -3 l -5,-4 h -15 l -2,4 -6,1 -6,8 -21,1 -2,1 v 4 h -5 l -4,12 -6,2 -4,5 1,9 -4,4 -2,7 -3,16 5,16 6,1 -6,10 -2,1 -5,-5 -1,2 -9,-1 -3,6 -4,-4 h -3 l -2,-3 -4,2 h -22 l -4,2 -3,11 -7,7 -12,5 -14,-2 -10,5 -3,-2 -4,2 -1,3 -6,2 -6,10 -5,5 -6,17 3,1 2,3 6,1 1,-3 3,1 1,3 12,3 v 10 l -10,11 -1,3 6,5 -2,5 1,5 -2,4 7,11 -2,2 -1,5 h 4 l 2,4 4,1 3,3 -1,3 6,1 2,5 -3,2 -1,-4 -8,-5 -9,10 1,5 3,1 v 5 l -2,3 1,8 2,3 h 4 l 6,-3 1,-4 8,-1 8,5 1,-3 2,1 1,3 4,3 2,-2 4,1 9,-13 6,2 4,5 5,1 v 3 l 3,-1 6,4 5,-2 3,-6 4,1 6,-4 6,-15 2,1 v -4 l 6,-2 v -7 l -2,-2 1,-4 7,2 2,-1 5,5 7,-1 6,3 2,4 9,6 h 5 l 3,3 -2,3 6,9 z"
     id="驻马店市" />
  <path
     stroke="#ffff00"
     stroke-opacity="1"
     stroke-width="0.5"
     stroke-linecap="round"
     stroke-linejoin="round"
     stroke-dasharray="none"
     fill="#1e90ff"
     fill-opacity="1"
     fill-rule="evenodd"
     d="m 367,141.99998 h -3 l -2,-2 -4,1 -2,6 -3,-4 1,-5 -13,-9 -1,-5 h -2 l -1,4 -2,-6 -4,7 5,2 v 4 l -4,2 -5,-1 -11,3 -6,-3 -5,1 -7,-3 -8,1 -14,-5 -3,1 -6,6 -20,1 4,-11 h -3 l -3,3 -10,2 -7,-2 v -4 l -21,-5 -4,2 -2,-2 1,-1 -5,-2 h -10 l -1,3 4,2 3,7 v 6 l -10,7 v 3 l 6,12 -1,4 2,1 -3,12 1,14 -2,3 h -4 l -1,3 2,2 h 17 l 11,4 5,4 5,10 6,2 9,8 9,-6 5,4 21,7 2,2 11,-1 7,2 9,6 3,-1 3,2 4,-1 1,-7 -3,-4 h -3 l -1,3 h -4 l 2,-7 6,3 6,-2 7,-10 h 5 l 4,-3 8,1 2,-3 h 4 l 8,-11 8,-4 7,-20 3,-3 -2,-16 2,-7 z"
     id="济源市" />
</svg>