<?xml version="1.0" encoding="UTF-8" standalone="no"?>
<svg
   width="1168"
   height="1550"
   viewBox="-251 -228 1168 1550"
   version="1.1"
   id="svg1"
   xmlns="http://www.w3.org/2000/svg"
   xmlns:svg="http://www.w3.org/2000/svg">
  <defs
     id="defs1" />
  <path
     stroke="#ffff00"
     stroke-opacity="1"
     stroke-width="0.5"
     stroke-linecap="round"
     stroke-linejoin="round"
     stroke-dasharray="none"
     fill="#1e90ff"
     fill-opacity="1"
     fill-rule="evenodd"
     d="m -182.00002,699.99999 -7,-1 -5,12 -5,2 -3,-2 -4,3 1,8 -2,3 -16,1 -2,14 -8,7 -2,15 6,6 -8,11 -2,8 1,5 4,5 -2,17 5,7 5,3 7,-2 4,2 4,5 6,-2 v 4 l 4,1 -3,4 2,1 h 18 l 1,5 -2,-1 -3,9 3,1 6,7 v 3 l 4,2 -1,15 5,2 4,7 1,5 5,5 5,22 h 4 l 2,4 5,4 v 5 l -8,5 -1,7 13,-4 11,6 3,5 -5,13 1,6 -15,23 -2,4 -1,9.00001 9,-3 5,-10.00001 h 3 l 2,2 1,-4 5,-1 1,-5 4,-1 5,5 8,1 3,3 5,-4 2,2 h 4 l 4,-4 2,1 1,-4 20,-10 h 7 l 12,5 17,-3 8,-15 7,2 6,-1 2,-7 6,-4 1,-5 5,-1 6,-6 10,2 5,-6 2,2 2,-4 6,5 5,-3 v -7 l 3,-1 -3,-3 5,-1 v -3 h 4 l 2,2 4,-2 v 12 l 16,8 4,8 -2,4 1,6 7,3 1,-7 h 3 v -8 l 3,-4 8,2 3,-2 -9,-8 5,-5 -4,-3 2,-15 5,-1 v -5 l -5,-1 1,-6 3,-3 h 5 v -6 l 7,2 1,-9 -2,-3 4,-1 -5,-2 5,-15 3,-4 -3,-3 -5,3 -3,-2 -7,1 -3,-12 h -4 l -1,-13 2,-4 -5,-2 v -6 l -4,3 -5,-1 -2,-5 v -6 l -2,-1 -5,5 -3,7 h -3 l -4,-5 -3,1 -8,-2 -4,-3 -2,-4 -4,1 2,6 -2,1 -4,-2 -8,2 v -3 l -3,-2 h -8 l -2,4 h -6 v -5 l 11,-13 -2,-1 -2,-10 -7,-8 -5,-3 v -3 l -3,-3 v 6 l -4,-3 2,-3 -3,-7 -9,-1 -6,3 -5,-1 -5,3 -4,-7 -3,-2 -10,-19 -10,1 5,-5 -3,-5 v -4 l -16,-11 -2,1 -5,-2 -8,4 -5,-1 -5,-4 -18,4 -15,5 -1,2 h -7 l -6,-6 -5,-1 -6,3 -5,-5 -7,-1 1,-3 -9,-7 h -4 z"
     id="石家庄市" />
  <path
     stroke="#ffff00"
     stroke-opacity="1"
     stroke-width="0.5"
     stroke-linecap="round"
     stroke-linejoin="round"
     stroke-dasharray="none"
     fill="#1e90ff"
     fill-opacity="1"
     fill-rule="evenodd"
     d="m 814.99998,542.99999 h -11 l -8,-8 -5,1 -22,-4 -3,4 -8,-2 2,-4 -1,-6 -9,-2 1,-3 3,-2 -7,-2 -1,-3 -8,3 -2,-5 -4,-2 -3,-9 1,-2 -5,-6 v -5 l -3,-3 -6,-19 5,-3 v -4 l 5,-2 -2,-6 4,-5 -1,-3 4,-6 1,-12 3,-1 1,-5 v -11 l -3,-4 v -9 l 6,-6 3,-1 2,-14 -4,-5 -10,-2 -10,-6 -9,3 v -4 l -7,-2 -8,-6 -17,-7 v -4 l -7,-3 2,-14 3,-2 -1,-4 3,-7 -4,-2 -4,4 -17,-2 -5,-1 -3,-5 -15,5 -5,-2 -3,-6 -4,-3 -12,10 h -3 l -1,3 2,2 -8,11 h -7 l -4,9 -5,4 -6,2 -16,1 -2,4 -17,2 -10,8 -7,-3 -12,9 -5,-1 -2,3 -6,1 v 3 l 5,2 5,5 1,4 3,1 -1,8 4,-1 1,4 6,-3 3,4 5,-1 1,4 4,1 -4,4 -2,-1 v 7 l 7,-1 2,3 -2,10 -5,1 -9,-5 -6,3 -7,1 -9,-7 h -9 l 2,5 -3,6 -3,1 2,4 -3,5 2,4 v 5 l 5,8 -2,1 4,8 -2,6 2,4 7,3 v 2 l -4,2 5,5 8,1 -1,3 3,5 h 2 l -1,8 -4,2 v 3 l -4,3 v 2 l 3,-3 4,7 5,-3 4,4 -3,1 v 2 l 3,2 2,5 5,-5 v -9 l 4,-2 6,-1 5,3 h 4 l 3,-2 5,1 7,4 -5,11 1,3 -2,2 v 8 l -4,2 -1,3 v 10 l -4,7 -8,2 -1,2 7,3 4,-3 -4,6 2,3 7,-1 1,2 14,2 1,3 7,4 2,-2 2,6 5,2 v 6 h -5 l -2,7 5,1 3,-4 1,3 9,5 7,10 3,10 8,14 12,3 4,3 h 11 l 1,9 21,15 h 8 l 12,-15 -6,-6 -7,-22 4,1 1,-3 5,-2 -1,-5 2,-3 8,-3 23,5 10,-1 7,-6 4,3 h 4 l 4,-5 5,-1 -10,9 -1,5 7,-1 9,-10 9,-5 2,-6 11,-7 4,-10 12,-14 10,-2 6,-3 8,-11 z m -279,12 v -4 l -9,-4 -6,1 v 4 l -5,1 -1,-6 -10,1 -2,-3 -2,3 h -4 l -2,5 -7,7 3,4 11,-2 7,3 3,4 3,-2 v -8 l 7,2 7,-1 z m 154,76 2,3 2,-4 -2,-4 -4,1 z m 44,-21 -5,6 -4,2 v 4 l 6,-2 3,-3 z m -6,-3 -4,5 2,3 2,-3 z"
     id="唐山市" />
  <path
     stroke="#ffff00"
     stroke-opacity="1"
     stroke-width="0.5"
     stroke-linecap="round"
     stroke-linejoin="round"
     stroke-dasharray="none"
     fill="#1e90ff"
     fill-opacity="1"
     fill-rule="evenodd"
     d="m 814.99998,542.99999 -2,-8 -7,-9 16,-52 3,-5 4,-1 1,-4 12,-11 8,-2 5,2 v -5 l -3,-2 4,-12 3,-3 5,-2 5,3 4,-6 6,1 1,-4 2,3 19,-7 5,-6 4,-2 -1,5 5,3 2,-2 -6,-12 3,-5 -7,-5 -4,3 -4,-2 -2,-4 2,-4 -7,-5 5,-10 -3,-15 -5,3 -8,-7 v -3 l -9,3 5,-11 -2,-5 -4,-3 -4,-7 -2,-10 3,-7 -2,-7 2,-5 -9,-11 v -4 l 3,-1 v -4 l -6,-4 -3,2 -3,-2 -2,5 -24,-1 -4,2 h -7 l -8,-3 -7,-6 3,-5 -1,-4 -9,-1 -3,2 -1,-3 -10,2 -3,4 -4,-4 -9,7 -3,-1 -3,4 -5,1 2,6 -8,1 -6,-3 -4,4 -8,-1 -9,12 -9,2 -4,-5 -8,10 -6,3 -1,3 4,11 v 6 l -6,6 -2,5 -3,1 -2,8 17,7 8,6 7,2 v 4 l 9,-3 10,6 10,2 4,5 -2,14 -3,1 -6,6 v 9 l 3,4 v 11 l -1,5 -3,1 -1,12 -4,6 1,3 -4,5 2,6 -5,2 v 4 l -5,3 6,19 3,3 v 5 l 5,6 -1,2 3,9 4,2 2,5 8,-3 1,3 7,2 -3,2 -1,3 9,2 1,6 -2,4 8,2 3,-4 22,4 5,-1 8,8 4,1 z"
     id="秦皇岛市" />
  <path
     stroke="#ffff00"
     stroke-opacity="1"
     stroke-width="0.5"
     stroke-linecap="round"
     stroke-linejoin="round"
     stroke-dasharray="none"
     fill="#1e90ff"
     fill-opacity="1"
     fill-rule="evenodd"
     d="m 115.99998,1161 -3,1 -7,-3 -11,-1 -2,-4 -3,3 -2,-9 -3,-5 3,-8 -7,2 -15,-1 -5,3 h -3 l 2,-6 -1,-5 -4,1 -7,-6 4,-3 -5,-6 h -14 l -7,3 h -6 l -10,-5 h -6 l -5,3 1,2 -10,8 -2,-3 -6,-1 -1,-2 -3,1 -2,4 h -7 l -4,5 -15,1 -2,2 v 9 l -8,4 -6,-1 -3,-4 -7,2 -13,-3 -3,1 -5,-2 -1,3 -9,-3 -5,3 -23,1 -3,-1 1,-4 -4,-4 h -7 l -7,-8 -1,-6 -8,-10 -7,-3 -3,-3 -5,-1 -5,1 -6,4 -6,9 5,14 -1,5 -8,4 -2,-1 v -5 l -4,-2 -2,1 -4,6 2,7 -2,4 1,4 -5,1 -10,8 h -9 l -2,4 -7,-1 -4,3 -2,4 2,2 5,-1 -1,5 -4,6 2,5 9,1 v 8 l 6,2 3,5 v 3 l -7,3 2,2 -1,7 5,3 1,5 8,1 7,7 7,1 4,9 v 5 l 4,-1 12,7 7,1 -1,-5 5,-1 4,4 2,5 4,-1 v -4 h 4 l -1,-5 3,2 3,8 h 2 v -7 h -3 l 1,-3 5,4 2,-3 2,2 -1,5 5,-1 1,2 -3,5 3,5 5,1 1,-2 5,2 2,-2 8,4 -1,4 h 6 l 1,-6 h 3 l 2,4 4,-2 6,3 h 7 l 3,-2 2,6 6,2 3,-1 2,5 9,2 2,4 10,1 5,5 5,2 -1,5 5,-2 4,1 4,-4 7,1 v -2 l 5,2 3,-4 6,7 2,-2 8,2 6,-1 v -3 l 4,-1 6,1 -1,6 4,6 -2,8 1,1 6,-4 8,-1 8,-9 1,-11 3,-4 7,1 1,-6 6,-2 5,4 4,-1 2,-4 7,5 4,4 3,8 4,2 -1,4 3,5 h 5 l 5,-3 2,-6 h 3 l 2,-6 2,4 3,-3 h 3 v -4 l 3,-1 1,5 h 2 l -1,-22 h -2 l -1,-6 h -4 l -4,-4 1,-7 h -5 l -5,3 v -7 l -3,-5 -2,-8 -8,-3 4,-9 -3,-3 -2,1 -3,-8 4,-3 -1,-4 h 3 l 4,-5 1,-8 4,-10 2,2 4,-8 6,-7 4,-2 1,-4 z"
     id="邯郸市" />
  <path
     stroke="#ffff00"
     stroke-opacity="1"
     stroke-width="0.5"
     stroke-linecap="round"
     stroke-linejoin="round"
     stroke-dasharray="none"
     fill="#1e90ff"
     fill-opacity="1"
     fill-rule="evenodd"
     d="m 75.99998,957.99999 -1,-6 2,-4 -4,-8 -16,-8 v -12 l -4,2 -2,-2 h -4 v 3 l -5,1 3,3 -3,1 v 7 l -5,3 -6,-5 -2,4 -2,-2 -5,6 -10,-2 -6,6 -5,1 -1,5 -6,4 -2,7 -6,1 -7,-2 -8,15 -17,3 -12,-5 h -7 l -20,10 -1,4 -2,-1 -4,4 h -4 l -2,-2 -5,4 -3,-3 -8,-1 -5,-5 -4,1 -1,5 -5,1 -1,4 -2,-2 h -3 l -5,10.00001 -9,3 -9,7 -2,13 -7,4 -4,5 v 7 l -3,4 v 5 l -6,5 -4,11 -10,4 v 10 l -3,7 2,3 4,1 v 4 l -3,6 4,5 6,-4 5,-1 5,1 3,3 7,3 8,10 1,6 7,8 h 7 l 4,4 -1,4 3,1 23,-1 5,-3 9,3 1,-3 5,2 3,-1 13,3 7,-2 3,4 6,1 8,-4 v -9 l 2,-2 15,-1 4,-5 h 7 l 2,-4 3,-1 1,2 6,1 2,3 10,-8 -1,-2 5,-3 h 6 l 10,5 h 6 l 7,-3 16,1 3,5 -4,3 7,6 4,-1 1,5 -2,6 h 3 l 5,-3 15,1 7,-2 -3,8 3,5 2,9 3,-3 2,4 11,1 7,3 8,-4 3,1 3,-4 6,2 12,-5 5,-4 h 4 v -6 l 5,-10 5,-5 3,1 7,-15 -2,-1 -2,-5 6,-4 1,-4 8,-7 -5,-11 -8,-4 -3,-4 -2,-15 -11,-11 -4,-1 v -3 l -8,-1 -1,-4 -5,-1 v -7 l -4,3 -9,-2 -1,-6 -3,-4 -14,-4 -7,-9 -8,-5 3,-3.00001 h 8 l 5,-2 -4,-1 1,-3 -3,-2 v -3 l 5,1 -1,2 6,-1 -4,-1 -5,-7 -5,-1 -3,-4 v 8 l -14,-12 h -9 l -6,4 -3,-1 3,-2 -5,-7 3,-2 2,-6 5,-3 z"
     id="邢台市" />
  <path
     stroke="#ffff00"
     stroke-opacity="1"
     stroke-width="0.5"
     stroke-linecap="round"
     stroke-linejoin="round"
     stroke-dasharray="none"
     fill="#1e90ff"
     fill-opacity="1"
     fill-rule="evenodd"
     d="m 87.99998,818.99999 h 5 l 1,-6 2,-2 5,-1 -2,-3 v -7 l 3,2 4,-4 7,2 3,-3 h 3 v -5 l 4,1 v 9 h 6 v -3 l 5,2 1,-4 2,2 10,2 v -4 l 10,-2 5,-10 -3,-10 1,-3 13,-15 5,-3 10,4 -1,-4 2,-2 2,2 9,-1 -1,-4 5,-8 v -7 l -2,-4 4,-1 v -8 l -3,-8 2,-1 -4,-7 9,-10 1,-4 4,-4 h 4 v -20 l 8,-3 5,1 2,-3 -1,-3 6,-3 10,6 4,-1 v -4 l 3,-2 1,4 7,-3 2,-7 3,3 3,-5 -2,-3 -4,1 -1,-3 2,-6 2,-1 v -10 l -2,-5 -5,-2 -3,-4 v -3 l -7,-2 -3,-5 v -9 l -4,-4 3,-7 1,-18 -2,-5 h -11 l -4,-6 7,-22 5,-4 v -2 l 7,-4 1,2 4,-3 v -10 l -9,-7 -8,1 -1,3 h -20 l -2,-4 -6,3 v -4 l -3,-1 v 6 l -3,3 -9,-10 1,4 -2,4 h -3 l -1,5 -5,-2 -7,6 v 5 l -12,-2 -2,-7 -9,-5 1,-3 -2,-6 -3,-2 -1,2 -6,2 -2,-2 -6,4 -7,-7 -6,6 1,-11 -3,-3 h -5 l 3,-4 1,-6 -3,-11 h -3 l -5,-3 -1,-7 h 4 l 5,-4 4,4 9,-3 3,-4 -10,-6 2,-9 -3,-1 2,-4 -6,-6 -1,-3 -8,-4 h -2 l -5,11 v 3 l -7,2 1,4 -4,7 v 4 l -3,3 3,4 -6,2 -5,9 -6,2 -7,7 -7,2 1,5 -2,1 -14,-7 -8,-1 -3,1 -4,7 -4,-1 -5,3 h -4 l -9,7 -9,11 -3,-5 -19,-2 -1,6 -6,1 -5,-2 -4,10 -9,-7 -4,12 -4,5 -1,6 -5,2 -1,9 -5,7 1,14 -2,5 -5,3 -3,8 3,6 -4,4 3,3 h 6 l 2,3 -1,5 h -3 l -2,5 -10,-1 -5,10 1,6 -3,7 -6,2 -3,-2 -14,3 -5,4 h -3 l -4,-3 -6,3 -3,-1 -2,-7 -4,-3 -2,1 -3,-10 -8,3 -2,6 -6,-1 -6,9 -5,-1 -17,18 -6,1 -1,6 1,17 5,7 10,7 -1,4 -3,3 1,9 4,3 h 4 l 9,7 -1,3 7,1 5,5 6,-3 5,1 6,6 h 7 l 1,-2 15,-5 18,-4 5,4 5,1 8,-4 5,2 2,-1 16,11 v 4 l 3,5 -5,5 10,-1 10,19 3,2 4,7 5,-3 5,1 6,-3 9,1 3,7 -2,3 4,3 v -6 l 3,3 v 3 l 5,3 7,8 2,10 2,1 -11,13 v 5 h 6 l 2,-4 h 8 l 3,2 v 3 l 8,-2 4,2 2,-1 -2,-6 4,-1 2,4 4,3 8,2 3,-1 4,5 h 3 l 3,-7 5,-5 2,1 v 6 l 2,5 5,1 z"
     id="保定市" />
  <path
     stroke="#ffff00"
     stroke-opacity="1"
     stroke-width="0.5"
     stroke-linecap="round"
     stroke-linejoin="round"
     stroke-dasharray="none"
     fill="#1e90ff"
     fill-opacity="1"
     fill-rule="evenodd"
     d="m 277.99998,181.99999 -5,-5 -1,-5 -7,-1 -6,-12 6,-6 -5,-10 -4,-2 -2,-4 2,-8 -4,-3 -1,-3 3,-6 -7,-12 -1,-7 3,-4 -1,-5 -5,-7 -6,-4 -10,-1 -9,-5 -1,-5 -5,-4 -1,-5 -4,-4 1,-3 -4,-16 -7,-5 1,-6 -3,-12 26,-22 5,-12 h -9 l -3,2 -4,-13 -9,-14 -5,-14 -12,4 -4,-2 -3,6 h -3 l -7,6 -5,-1 -1,5 h -7 l -5,5 -1,5 -14,6 -10,9 -6,2 -11,7 -11,4 h -4 l -5,5 3,4 4,1 1,3 -3,6 6,8 -2,2 -10,1 -4,-8 h -3 l -2,3 1,4 -2,3 -10,3 1,-5 -2,-3 -15,-3 -3,-2 -8,5 -5,-3 -16,1 -7,1 -4,4 -3,-2 6,-9 1,-13 -1,-19 -5,-9 10,-5 3,-5 -3,-8 1,-5 -2,-9 3,-2 -3,-4 v -5 l -3,-9 -2,1 v -4 l -5,-6 v -12 l -7,-9 1,-2 -6,-1 -1,5 -7,4 h -8 l -1,-2 -14,3 -7,-5 h -5 l -9,5 -2,6 1,5 h -5 l -2,7 v 3 l 4,2 -1,4 3,2 2,5 -4,1 -2,3 -10,3 -9,-3 -5,2 v 5 l -3,-1 v 3 l -8,12 -15,19 2,9 -1,4 4,5 1,5 -3,-1 -1,4 8,15 -5,1 1,6 -3,3 2,17 -24,-6 -3,2 h -9 l -10,5 -5,6 h -4 l -1,6 -7,5 -2,6 8,2 5,4 -2,3 1,5 -3,4 1,3 -5,3 4,6 2,-1 3,3 1,7 3,3 2,-7 6,9 -3,2 -1,8 -4,4 -9,1 -11,16 -8,1 28,28 3,11 2,-2 2,3 9,2 -3,2 2,11 3,6 -5,4 7,10 4,-2 v 7 l 8,8 6,15 3,2 3,7 -1,1 5,6 4,-1 5,5 -2,8 3,1 1,4 -2,2 v 7 l -3,5 1,4 5,5 -3,4 5,12 13,2 1,3 10,-5 5,5 5,-1 6,2 -1,5 -10,14 -12,5 h -13 l -8,4 -6,-2 -3,4 -1,5 -17,5 h -3 v -2 l -5,-2 -6,4 6,17 -1,8 -9,4 -4,-11 -6,-2 -3,3 2,6 -1,5 -4,5 -6,1 -1,5 3,-1 16,5 1,7 4,10 3,-1 4,3 3,-1 13,4 7,-5 3,4 -6,5 5,7 9,-6 2,4 8,-2 h 12 l 2,8 -3,4 3,8 v 31 l 5,9 11,1 4,11 7,-4 3,1 -1,4 3,-6 9,7 4,-10 5,2 6,-1 1,-6 19,2 3,5 9,-11 9,-7 h 4 l 5,-3 4,1 4,-7 3,-1 8,1 14,7 2,-1 -1,-5 7,-2 7,-7 6,-2 5,-9 6,-2 -3,-4 3,-3 v -4 l 4,-7 -1,-4 7,-2 v -3 l 5,-11 v -8 l 4,-2 -1,-4 2,-4 4,-2 9,-10 5,-1 v -2 l 4,-2 3,1 1,-6 8,1 v -3 h 17 l 4,-4 -1,-4 4,-3 6,5 7,2 2,-10 h 3 l 2,-7 3,-4 h 2 l 3,-5 7,-2 -5,-10 1,-2 -4,-3 -1,-7 -10,-1 v -3 l -3,-1 -9,-12 -5,-4 v -6 l 3,-6 -9,-3 4,-8 6,-5 h 5 l 2,-7 10,-2 4,-5 12,4 2,5 4,-1 4,-5 1,2 12,-8 h 4 l -1,-4 4,-5 5,1 1,-8 9,-11 3,-10 2,-2 5,7 h 3 l 3,3 2,-5 18,-1 v 2 l 7,1 2,-3 -5,-11 -6,-3 -1,-4 -12,-13 v -4 z"
     id="张家口市" />
  <path
     stroke="#ffff00"
     stroke-opacity="1"
     stroke-width="0.5"
     stroke-linecap="round"
     stroke-linejoin="round"
     stroke-dasharray="none"
     fill="#1e90ff"
     fill-opacity="1"
     fill-rule="evenodd"
     d="m 785.99998,260.99999 -2,-5 5,-5 2,-5 -2,-3 h -4 l -10,6 -3,-2 -5,2 -1,-4 -4,-3 -3,1 -4,-2 -5,-6 -2,-6 -10,-2 3,-5 -6,-2 -3,-4 h -2 l -1,-5 2,-4 3,-2 6,-28 2,-1 6,2 9,-2 1,-4 3,-3 -1,-3 -11,-2 -3,-5 v -4 l 5,-6 8,3 h 5 l 3,-3 4,-1 1,-12 8,-1 6,-8 5,-3 1,-4 -4,-3 v -3 h 7 v -5 l 8,-8 -2,-9 -5,2 -2,6 -9,-4 h -21 l -5,-2 h -6 l -5,-3 -3,4 h -8 l -4,-2 -4,-8 v -7 l -14,5 -1,6 -4,1 -12,-7 -8,1 -19,-2 -5,3 -16,3 -2,5 h -4 l -5,-8 v -7 l 2,-3 -3,-5 1,-6 -4,-5 -10,-5 -1,-2 5,-1 4,-7 -3,-10 2,-2 -2,-2 -4,1 -1,-2 -8,-2 -3,-3 -1,-14 -7,-4 -3,-5 v -6 l -4,-7 2,-10 4,-7 10,-1 3,2 2,8 5,3 3,-2 5,-15 3,-2 1,-8 -13,-11 v -3 l 7,-2 1,-12 -3,-4 -7,-2 -3,-3 8,-2 2,-4 -4,-8 -4,-2 h -5 l -2,2 1,6 -3,6 -2,1 -14,-2 v -2 l 4,-2 3,-7 -3,-3 -7,-3 -2,-3 4,-13 -14,-7 -2,-3 -8,-4 -1,-5 14,-8 2,-4 -8,-9 -1,-6 2,-3 v -6 l -12,-12 -3,-5 -12,-11 -4,-9 -10,-10 -1,-3 2,-4 -4,-1 -13,7 -7,2 -11,-3 -2,-2 -11,-1 -2,4 -10,-3 -3,3 -4,1 2,2 -2,5 -7,5 -1,5 4,-1 1,2 -1,10 -4,2 -11,1 -1,-2 -9,-3 -4,2 -5,-1 -9,3 -7,-1 -8,-4 -2,6 -12,1 -2,6 -16,7 -5,9 5,34 v 5 l -2,4 -21,-2 6,11 h 5 l 3,8 h 2 l 2,7 -2,19 -2,3 h -6 l -2,4 -5,2 -5,-3 -4,2 -3,8 -11,1 -6,4 -7,-1 -6,2 -6,-3 -3,-8 -3,-2 -3,1 -5,7 -4,2 -7,-1 4,-10 -1,-2 -7,-4 -8,1 -4,3 -4,8 -9,4 -4,9 v 5 l -4,6 -4,-2 -6,1 -5,4 -1,4 5,6 -6,8 h -3 l -5,10 -26,22 3,12 -1,6 7,5 4,16 -1,3 4,4 1,5 5,4 1,5 9,5 10,1 6,4 5,7 1,5 -3,4 1,7 7,12 -3,6 1,3 4,3 -2,8 2,4 4,2 5,10 -6,6 6,12 7,1 1,5 7,6 4,8 13,2 v -6 l -4,-8 1,-6 11,1 4,-3 6,-1 5,4 3,-2 2,-9 -2,-4 3,-6 6,4 h 5 l 1,6 -3,12 2,5 6,6 -2,3 3,4 5,2 7,6 2,6 1,-2 12,6 v 4 l 3,2 v 4 l 5,2 1,7 10,10 9,2 14,-4 2,2 15,1 7,5 4,-1 5,5 h 6 l 4,-3 12,-4 6,3 h 9 l 4,4 -3,6 h -4 l -3,-4 -2,6 h -3 l -4,5 3,7 -5,1 -2,3 -4,-4 h -10 l -8,4 -4,5 3,5 -8,1 -2,3 5,8 v 3 l 5,3 -5,6 1,6 -2,1 -1,5 3,-1 4,9 h 2 v 6 l 4,3 v 4 l 7,-2 1,10 2,4 7,1 5,-3 v -3 l 6,-1 6,5 h 12 l 4,3 -1,4 2,3 6,-1 2,-3 5,1 12,-9 7,3 10,-8 17,-2 2,-4 16,-1 6,-2 5,-4 4,-9 h 7 l 8,-11 -2,-2 1,-3 h 3 l 12,-10 4,3 3,6 5,2 15,-5 3,5 5,1 13,2 h 4 l 4,-4 4,2 -3,7 1,4 -3,2 -2,9 v 5 l 7,3 13,-16 v -6 l -4,-11 1,-3 6,-3 8,-10 4,5 9,-2 9,-12 8,1 4,-4 6,3 8,-1 -2,-6 5,-1 3,-4 3,1 9,-7 4,4 3,-4 z"
     id="承德市" />
  <path
     stroke="#ffff00"
     stroke-opacity="1"
     stroke-width="0.5"
     stroke-linecap="round"
     stroke-linejoin="round"
     stroke-dasharray="none"
     fill="#1e90ff"
     fill-opacity="1"
     fill-rule="evenodd"
     d="m 271.99998,972.99999 2,3 h 4 l 2,5 -2,4 6,4 6,8 4,-9 6,-2 5,-8 4,-2 2,-4 17,-19 v -4 l 4,-1 3,-9 8,-4 v -5 l 4,2 1,-8 6,-8 1,-4 10,2 14,-2 19,3 9,-4 14,2 6,-2 16,2 8,-5 h 5 l 11,4 6,-2 8,-14 6,-7 2,-12 6,-10 v -4 l 4,-3 18,-2 4,1 5,-5 2,-6 5,-2 v -7 l 6,-3 -2,-2 3,-11 26,-27 2,-7 -4,-3 -17,5 -12,-1 -9,-12 -1,-8 -8,-4 -6,-8 v -4 l 7,-1 v -2 h -8 v -20 l -15,3 -3,2 -12,-3 -20,12 v -4 l -2,3 -9,3 h -10 l -2,-6 3,-7 -5,-3 v -4 l -8,6 h -6 l -3,4 -7,3 -2,-5 h -3 l -1,-6 -2,-2 3,-9 -6,-2 1,-4 -5,2 v 2 l -4,-1 -21,3 -2,-15 h -13 l -5,1 -2,2 3,19 -2,4 -4,1 -1,4 -4,1 -2,-3 -4,4 v 3 l -3,2 1,4 h -5 l 2,3 4,1 -1,4 -4,6 -5,-2 1,3 -3,5 -3,-1 -4,3 -2,-6 -7,2 -10,-1 -3,-6 1,-4 -4,-1 v -3 l 4,-1 v -5 l -5,-2 -8,-8 -3,-12 1,-5 6,-2 5,-7 -2,-9 -15,-8 -12,-3 1,-4 -6,-3 v -3 l -3,-3 -3,1 -2,-4 1,-8 -10,-6 -6,3 1,3 -2,3 -5,-1 -8,3 v 20 h -4 l -14,18 4,7 -2,1 3,8 v 8 l -4,1 2,4 v 7 l -5,8 1,4 -9,1 -2,-2 -2,2 1,4 -10,-4 -5,3 -13,15 -1,3 3,10 -4,6 5,2 1,-2 8,2 4,3 h 6 l 2,8 -3,3 1,6 4,4 -1,3 3,6 5,3 -2,7 2,3 6,-2 1,6 5,1 4,3 11,-5 1,4 -1,4 -3,3 v 4 l 4,3 v 4 l 3,3 h -4 l -1,3 4,5 1,6 5,7 h 4 l -5,6 v 3 l 11,-1 3,-5 v -6 l 3,-2 4,1 3,3 6,-3 2,1 v -5 l 2,5 12,-13 13,2 11,-1 1,-3 3,3 12,-1 v 9 l -6,16 -3,4 v 7 l -8,-1 2,8 -3,6 1,7 -2,-1 -2,5 h -2 l -1,5 h -2 l -6,9 -2,9 -2,2 1,7 -8,3 z"
     id="沧州市" />
  <path
     stroke="#ffff00"
     stroke-opacity="1"
     stroke-width="0.5"
     stroke-linecap="round"
     stroke-linejoin="round"
     stroke-dasharray="none"
     fill="#1e90ff"
     fill-opacity="1"
     fill-rule="evenodd"
     d="m 255.99998,521.99999 -4,3 -1,-2 -7,4 v 2 l -5,4 -7,22 4,6 h 11 l 2,5 -1,18 -3,7 4,4 v 9 l 3,5 7,2 v 3 l 3,4 5,2 2,5 v 10 l -2,1 -2,6 1,3 4,-1 2,3 -3,5 -3,-3 -2,7 -7,3 -1,-4 -3,2 v 4 l -5,2 v 7 l 2,4 3,-1 3,3 v 3 l 6,3 -1,4 12,3 15,8 2,9 -5,7 -6,2 -1,5 3,12 8,8 5,2 v 5 l -4,1 v 3 l 4,1 -1,4 3,6 10,1 7,-2 2,6 4,-3 3,1 3,-5 -1,-3 5,2 4,-6 1,-4 -4,-1 -2,-3 h 5 l -1,-4 3,-2 v -3 l 4,-4 2,3 4,-1 1,-4 4,-1 2,-4 -3,-19 2,-2 -4,-3 1,-6 -3,-1 3,-11 -1,-5 h -4 v -10 h -3 v -9 l 2,-1 2,-9 5,-6 v -11 l 3,1 2,-4 3,3 h 11 l 2,-5 h 2 l 5,-10 2,-1 -2,-8 -7,-1 -3,-14 h 4 l -1,-3 4,1 -3,-7 -2,-12 h 3 l 1,-8 h -2 l -1,-4 -4,4 h -4 l -2,-8 h 4 l -1,-7 8,-8 -4,-2 -4,2 -3,-4 -2,2 -4,-5 7,-4 -2,-6 3,-1 -7,-10 4,-5 -3,-4 3,-5 -4,1 v 3 l -8,-5 -8,-1 v 3 l 5,4 -4,1 -8,-4 -3,2 -5,-1 -2,-4 h -8 v 3 l -4,3 -3,-1 -3,11 -7,-1 1,4 -2,2 -5,1 1,4 h -4 v -3 l -4,-1 v 3 l 3,1 -1,6 h 6 l 2,7 -4,2 -15,-2 -6,-4 -2,-4 -9,-3 z m 175,-134 -1,3 -8,-2 -3,3 -4,-2 h -6 l -6,3 -5,6 -5,1 -5,-1 -2,-4 h -6 l -11,3 -2,-3 -6,2 -1,4 -7,-2 -2,6 1,4 -3,8 4,3 1,13 4,4 h 4 l 7,8 3,-1 4,3 v -3 l 4,3 v 5 l 5,5 -1,3 -5,-1 v 3 l -4,2 3,7 -6,3 2,6 3,1 1,-4 h 6 l -1,3 4,12 2,2 7,-4 8,2 12,6 5,-1 1,-3 4,-2 -4,-5 2,-2 v -10 l -3,-2 2,-6 8,-3 -5,-5 v -3 h -4 v -5 l 7,-2 -1,-2 h 11 l 2,-2 -3,-4 -3,2 -11,-4 -4,-7 2,-3 -4,-3 4,-4 -1,-1 4,-4 4,-8 -2,-16 7,-1 z"
     id="廊坊市" />
  <path
     stroke="#ffff00"
     stroke-opacity="1"
     stroke-width="0.5"
     stroke-linecap="round"
     stroke-linejoin="round"
     stroke-dasharray="none"
     fill="#1e90ff"
     fill-opacity="1"
     fill-rule="evenodd"
     d="m 184.99998,1092 2,-3 3,-13 -1,-5 6,-6 v -7 l 5,-4 3,1 3,-4 -1,-3 2,-5 -2,-3 3,-7 -1,-4 6,-2 3,-4 5,1 v -3 h 10 l 11,-3 5,4 7,1 9,-9 -4,-5 -6,-1 2,-5 -3,-7.00001 3,-3 6,6 v -3 l 3,-1 -2,-9 h 2 v -6 l 8,-7 -1,-6 8,-3 -1,-7 2,-2 2,-9 6,-9 h 2 l 1,-5 h 2 l 2,-5 2,1 -1,-7 3,-6 -2,-8 8,1 v -7 l 3,-4 6,-16 v -9 l -12,1 -3,-3 -1,3 -11,1 -13,-2 -12,13 -2,-5 v 5 l -2,-1 -6,3 -3,-3 -4,-1 -3,2 v 6 l -3,5 -11,1 v -3 l 5,-6 h -4 l -5,-7 -1,-6 -4,-5 1,-3 h 4 l -3,-3 v -4 l -4,-3 v -4 l 3,-3 1,-4 -1,-4 -11,5 -4,-3 -5,-1 -1,-6 -6,2 -2,-3 2,-7 -5,-3 -3,-6 1,-3 -4,-4 -1,-6 3,-3 -2,-8 h -6 l -4,-3 -8,-2 -1,2 -5,-2 -1,4 -10,2 v 4 l -10,-2 -2,-2 -1,4 -5,-2 v 3 h -6 v -9 l -4,-1 v 5 h -3 l -3,3 -7,-2 -4,4 -3,-2 v 7 l 2,3 -5,1 -2,2 -1,6 h -5 v 6 l 5,2 -2,4 1,13 h 4 l 3,12 7,-1 3,2 5,-3 3,3 -3,4 -5,15 5,2 -4,1 2,3 -1,9 -7,-2 v 6 h -5 l -3,3 -1,6 5,1 v 5 l -5,1 -2,15 4,3 -5,5 9,8 -3,2 -8,-2 -3,4 v 8 h -3 l -1,7 -12,-4 -5,3 -2,6 -3,2 5,7 -3,2 3,1 6,-4 h 9 l 14,12 v -8 l 3,4 5,1 5,7 4,1 -6,1 1,-2 -5,-1 v 3 l 3,2 -1,3 4,1 -5,2 h -8 l -3,3.00001 8,5 7,9 14,4 3,4 1,6 9,2 4,-3 v 7 l 5,1 1,4 8,1 v 3 l 4,1 11,11 2,15 3,4 8,4 z"
     id="衡水市" />
</svg>