<svg xmlns="http://www.w3.org/2000/svg" id="svg1" version="1.1" viewBox="-251 -228 1622 1548">
  <path id="郑州市" fill="#ff6347" fill-opacity="1" fill-rule="evenodd" stroke="#ffffff" stroke-dasharray="none" stroke-linecap="round" stroke-linejoin="round" stroke-opacity="1" stroke-width="0.5" d="m744 232-5-7-7 3-14-8h-5l-5 4h-8l-5-5h-3l-12 15-5 4-12-1-9 5-12 3-6-1-4-3-5-8-10-1-11 4-4-2-5-6-15-1-12-11-17 4-7-1-6-2v-6l-5-2-9 3-10 11-5 1-7-3h-7l-4 2-2 2v5l-3 5-22 7 2 9-7 1-4 3-12 2-5-1-9-7h-3l-4 5-9 5-10-7h-5l-8 14-7-3-3 2-1 9 2 2 5-2 16 1 2 3-1 6 2 4 7 5-2 4h-4l-4 5-8-4-10 4 2 8-2 4 4 5-1 4h-4l4 1 1 4-2 5 2 2h4l8 13h15l9 3-2 2h-8l-4 2-3 13 1 2-5 3-2-3-9 1-14-2-8-6-9 3v17l-3 6 2 4-4 7 2 1 1 8 6-2 1 4 7 1v3l6-2 6 2 5 5-3 2v4l4-2 4 2 3-1 7 2h6l5-2h15l6 6 10 1 2 4 4 1 11-3 3 2 6-5 5-10h4l4-7 11-1 2-1v-3h10v-12l3-5 6 1 5 4-1 3 13 2-3 6 2 2 4-1 11 7 3-4h7l5 8 7 2 3-3 11 2 12 12 6-2 6 1-1-4h3v-3l4-2 2-3 11 1 4-5-1-1 4-1 7 4 12-2 2 1v-7l-2-2 2-5-2-13 6-13 3 1v2h4l2-3 3 1v5h11l7-3v-7l-3-1 7-10 7 4 2 3h4l3-4-1-3 4-17 6-6-1-3 2-2v-4l-2-1v-3l5 1v3h2l-1-4 2-3-2-9 3-3-1-12-4-5-1-5 9-10-13-16 3-2h13l4-2 3-9 2-15z"/>
  <path id="开封市" fill="#ff6347" fill-opacity="1" fill-rule="evenodd" stroke="#ffffff" stroke-dasharray="none" stroke-linecap="round" stroke-linejoin="round" stroke-opacity="1" stroke-width="0.5" d="m658 417 2 1v6l3 3 7-3 1 2 7 1v3h2l1 3h4v4h2l3 6 8 2 2-3 5-1 2 3 1-3 5 2 2 4-2 2 2 1v4l6 3 6-1 2-4 9-1 3-8 10 1 5-5 2-6 3-1 4 3h7l7 7 8 1 5-2 3-5 6-2 4-7-7-3-1-2 2-1v-5l-2-1 3-1v2l4 3h2v-3h5l3 5h7l2 10 6-1v4l2 1 8-2 6 4h5l4 4h5l3 2h9l3 5 7-2 2-2 1-5h4l2-2 6 1 5-3 1-4 16 5 1-6-8-7-2-7-2-2 2-10 5-1 2-4-4-4-6-1v-3l1-6 3-2h-2v-5l2-4 4 4 1-3h3l6-8 1-4-4 1 3-11-2-1 2-2-1-2h-2v-8l-3-9 1-14-2-2 1-3 10-3v-3l-1-2-6-3h-4l-6 3-3-1-1-6-3-2 4-6-6-3-2-3 1-3 9-1 1-2h2l4 4 8 4h3l8-4h9l10-4 16 1 4-6 6-1 3 4 6-3 1-3 5 1 1-3 12 2 1-2-3-2h4l2-6-2-4-4-2-1-8 4-10-13-2 2-9 3-1-1-5-3 1-1 3-7-4-5 1v-3l-3-4-4-1v-6l-14 1-13 9-4-5-15-1-7 7-4-7-5-1-2-3 1-6-4-1-3 7-11-3-4 2-15 14v4l10 10-1 5-4 3-9 2-8-3-4-4-5 3-19-4-19 5-18-6-11-8-4 1-4 6-5 3-27 1-6-4-2 18-3 9-4 2h-13l-3 2 13 16-9 10 1 5 4 5 1 12-3 3 2 9-2 3 1 4h-2v-3l-5-1v3l2 1v4l-2 2 1 3-6 6-4 17 1 3-3 4h-4l-2-3-7-4-7 10 3 1v7l-7 3h-11v-5l-3-1-2 3h-4v-2l-3-1-6 13 2 13-2 5 2 2z"/>
  <path id="洛阳市" fill="#ff6347" fill-opacity="1" fill-rule="evenodd" stroke="#ffffff" stroke-dasharray="none" stroke-linecap="round" stroke-linejoin="round" stroke-opacity="1" stroke-width="0.5" d="m-18 582 3 4 8 2 3 4 5-2h17l9 7 9 3 6 4 8-6 4 3h7l6 2 7-1 7 3 10 13 11-3 24 11 3 17 14 1 8 7h3l26-6-1-3-2 2-2-2 1-4 3-3 9 6h7l1-1-2-7-2-1-1-6 15-7 7-14h3l4 7 8-5 9-1-1-3 4-5 1-8-2-4 5-3-1-3 7-3 6-5 10-4 12 11 6-2 7-11 6-4h7l8-10-2-3-8-3-2-5 9-3 2-3 2-16 6-1-5-5h-4l1-3 9-5 1-6 6-3v-5l5-17-2-5-4-1-3-9-7-10 5-7v-3l-5-3-1-3 4-3 1-4 10-8-1-2 4-3 7-1 2 3v4l3-2h5l3-3 14 2 5-5h-4l-1-4-6 2-1-8-2-1 4-7-2-4 3-6v-17l9-3 8 6 14 2 9-1 2 3 5-3-1-2 3-13 4-2h8l2-2-9-3h-15l-8-13h-4l-2-2 2-5-1-4h-4l4-1 1-4-4-5 2-4-2-8 10-4 8 4 4-5h4l2-4-7-5-2-4 1-6-2-3-16-1-5 2-2-2v-4l1-5 3-2-3-4-7-2-9 3h-8l-17-10-4 2v-21l-14-2-2-2-2-8-5 6-6 2-6-3-2 7h4l1-3h3l3 4-1 7h-10l-9-6-7-2-11 1-2-2-21-7-5-4-9 6-9-8-6-2-5-10-5-4-11-4h-17l-2-2v-6l-3-2v-2l-4 1-9-2-3 2v5l-5 4 7 7 6 3-3 2v2l-6 1 1 4 6 1v3l-8 5h-5l-3 4-8 4-2 3v5l4 3 6 1 7 6v3l2 1 7-2 2 1-2 2 1 3 9 8-2 3 4 3 1 3-4 4-2 6h-3l-1 5 5 1v3l-4 2-1 7h-3v3l-3 5 2 5-3 3-4 1-6 12-6-6-4 1-7-9-8-1-2 1-1 4-6 2-5 6h-3l-2 3-5-1-9 5-2 3-6 1 2 8 3 4-25-10-3 3-2-2-3 1-5 5H44l-4 6-26 16h-4l-3-2-9 3-4-1-2-5-3 1-4 5v7l-12-4-3 10-6 3v6l-9 2-4 6v7h5l2 2v3l5 6 1 5-2 7 1 9-2 6h-3l-2 2 4 4 8 4 2 5 5 1 5 8 4 2 2-1 1 3 4-2 5 9 11 3 2 5-3 2-3 9v6l3 7 1 9-9 7-5 11-7-2h-9l-4 6 2 6-5 3-2-2-1 3 4 3v2l4 3 7 10zm198-307-3-2 1 3z"/>
  <path id="平顶山市" fill="#ff6347" fill-opacity="1" fill-rule="evenodd" stroke="#ffffff" stroke-dasharray="none" stroke-linecap="round" stroke-linejoin="round" stroke-opacity="1" stroke-width="0.5" d="m581 608-2-1 2-4-3-3-1-5-6 1-1-2-24 5-1-6-3-2-3 1-13-7 5-4-2-1-1-4 1-9-5-6-1-5 6-15 7-5v-13l-3-5-1-9-3-3-8-1-2 1v3l-3 1-4-9 3-2-8-6-4-1-1-5-4 1-3-5-3 2v3l-2 2h-2l-1-3-3-2-8 2-8-2-1-3-4-2v-7l-7-9 1-9-10-6 1-7 3-6-2-4-10-1-6-6h-15l-5 2h-6l-7-2-3 1-4-2-4 2v-4l3-2-5-5-6-2-6 2v-3l-3-1-5 5-14-2-3 3h-5l-3 2v-4l-2-3-7 1-4 3 1 2-4 2-6 6-1 4-4 3 1 3 5 3v3l-5 7 7 10 3 9 4 1 2 5-5 17v5l-6 3-1 6-9 5-1 3h4l5 5-6 1-2 16-2 3-9 3 2 5 8 3 2 3-8 10h-7l-6 4-7 11-3 2h-3l-12-11-10 4-6 5-7 3 1 3-5 3 2 4-1 8-4 5 3 5h5l7 4 7 9h5l2 2 16-4 10 11h8l10 16 5-2 2 2 5-4 3-5h3l3 2 1 4 5 1 6-3 1 2 7 3 14 3 4 2 3 4 3-3 7-3h9l2-2v-6l4-2 5 1 1-3 7 4 6-1 2 5 6 2 4 5 9 2 1 5h2v2l3 2v13l2 2-4 3v9l2 2 7-3 9 1 4 2 1 4 12-3 4 2 6 10 4 3v4h3l1 3h3l5 5 3-1 6 3 6-3 17 5 2 4-2 2 1 4-4 1-1 2 4 10v8l-3 3-1 9-2 4h-2l4 4-1 11 2 2 2-7 4-2 9-1 13 1 4-2 2 3h3l4 4 3-6 9 1 1-2 5 5 2-1 6-10-6-1-5-16 5-23 4-4-1-9 4-5 6-2 3-9-1-4-10-1-6 4-7-1-2 3-10-1-2-4h-4l-2 4-13-5v-4l2-2-1-6 3-7-1-6h12l2 2 3-16 3-1 2-5h-3v-5l6-2 7-7 5-2 1-3-8-7h-2l-2-9 1-5-2-2z"/>
  <path id="安阳市" fill="#ff6347" fill-opacity="1" fill-rule="evenodd" stroke="#ffffff" stroke-dasharray="none" stroke-linecap="round" stroke-linejoin="round" stroke-opacity="1" stroke-width="0.5" d="m795 57 3 1v6l-7 8 3 4 2 10-3 7 5 5-2 6-5-1v3l2 1 1 4-2 3h-3l3 7-4 4 1 5 3 2-4 3 1 2 1-2 4-1 4 2v4l3 1 6-3 6 3 4-7 10-4 5-11 17-7 9 2 7-1 2-3v-10l5-2 9 1 2-2h12l13-13 10-1 14 3 4-6 5-4-1-7-5-2 2-12-8-1v-3l6-4 2-4-2-17-2-3-12-2-6-4v-5l-3-3 4-7 4-1 4-5v-7l-2-4 1-2-2-5-5-5v-5l1-3 4-1 9-10 1-9h-3l-1-6 1-3 6-2 3-6 2-8-1-6 4-13-2-12-2 1v-4l3-4-4-3-7-1-7-5 3-12-1-4-3-1v-11l-11-2-3 1v5l-7-1-1 2-12-3v2l-4 1v-3l-3-1v-3l-5-3-3 5-8-2v3l-9-1-5 2-1 3-3 1-3-2-1 2h-6l1-6-3-1-2-3-2 1-4-4h-3v-3h-7v-2h-4l-1-2-1 2-7-8-9-1-3-6h-10l-6-6v-4h-4v3h-8l-11-5-4 4-4-6-4-1-1 9h-9l2-6-12-6-3 3-7-2-2 3-6-2-5-7 5-7-1-3-7 1-1-2 2-3-2-4h-3l-2 4-7-6v5h4l2 4-3 2 1 4-3-1-5-12-3-1-1 3 3 1-1 3h-6v5l-6 1-2-7-5-5-9 2 2 6-5-2-5 1-4-2-1-3-5-1v-3l-4 1-2-3-3 1v2h-2l-1-2-1 7 2 5-3 7-4 1 2 12h-2l-2 3 1 5-2 3-5 2-1 3h7l1 4h-3l-2 2 3 4-6 2-2-1-3 2 2 3 5 1v3l4-1 3 2-1 4 3 1-6 2h-9l4 4-1 3 3 3 1 5v7l-6 4v3l9 2v3l-4 1 4 5-3 4-9-2-3 2v4l3 2 1 12-4 19 2 5h3l1 6h10l2 1 1 5 4-2 4 1 3 8-1 2 2 2v5l5 1 6 7h2l-2 3-2 12-4 3 2 3 5 1 2-2 19-2 4 2 5-1 2-1 1-6 4 1 2 3h3l7-4 2-7h4l6-7h3l4-4-1-5 2-1 1-8-7 2-3-2-3 2-1-2 3-6-5-9 1-2h5l10-7-1-8 2-3-10-7-3-4v-7l9 2 2-3 9-2-1-5 2-7 16-11 1 13-2 4 3 5 3 1 1-3 5-2 2 5 7 3h7v8l5-4 3 2-4 4 2 3-2 2-1-2-3 2-2 8 3 2-2 3-8 4-4 9 4 16 2-1 3 7h-2v2l4 2 6-11 9-2 5-5h23l3-4 5 1 2-3 20 2 3-4 1 2 4-1 3 4 4 1v5l6 4 6 1 4 3 9-2 11 8v8l-4 9-3 4-10 4-4 10-3 1-4-2-6 3-1 3-10 7h-7l-2 4-10-2-2 3v5h-4l1 3-2 3-13 6-2 4-4 2-2 6 6 8z"/>
  <path id="鹤壁市" fill="#ff6347" fill-opacity="1" fill-rule="evenodd" stroke="#ffffff" stroke-dasharray="none" stroke-linecap="round" stroke-linejoin="round" stroke-opacity="1" stroke-width="0.5" d="m686-16 14 9 4 12-2 3v11l6 8 23 14h8l15 6 8 1-4 4v7l13 7 4-2 1-4 4-2 2 3 4-2v-3l3-1 4 3 2-1v-3l-6-8 2-6 4-2 2-4 13-6 2-3-1-3h4v-5l2-3 10 2 2-4h7l10-7 1-3 6-3 4 2 3-1 4-10 10-4 3-4 4-9v-8l-11-8-9 2-4-3-6-1-6-4v-5l-4-1-3-4-4 1-1-2-3 4-20-2-2 3-5-1-3 4h-23l-5 5-9 2-6 11-4-2v-2h2l-3-7-2 1-4-16 4-9 8-4 2-3-3-2 2-8 3-2 1 2 2-2-2-3 4-4-3-2-5 4v-8h-7l-7-3-2-5-5 2-1 3-3-1-3-5 2-4-1-13-16 11-2 7 1 5-9 2-2 3-9-2v7l3 4 10 7-2 3 1 8-10 7h-5l-1 2 5 9-3 6 1 2 3-2 3 2 7-2-1 8-2 1 1 5-4 4h-3l-6 7h-4l-1 2z"/>
  <path id="新乡市" fill="#ff6347" fill-opacity="1" fill-rule="evenodd" stroke="#ffffff" stroke-dasharray="none" stroke-linecap="round" stroke-linejoin="round" stroke-opacity="1" stroke-width="0.5" d="m932 86-14-3-10 1-13 13h-12l-2 2-9-1-5 2v10l-2 3-7 1-9-2-17 7-5 11-10 4-4 7-6-3-6 3-3-1v-4l-4-2-4 1-1 2-1-2 4-3-3-2-1-5 4-4-3-7h3l2-3-1-4-2-1v-3l5 1 2-6-5-5 3-7-2-10-3-4 7-8v-6h-5l-4-3-3 1v3l-4 2-2-3-4 2-1 4-4 2-13-7v-7l4-4-8-1-15-6h-8l-13-9-4-1-6-4-6-8V8l2-3-4-12-14-9-7 4h-3l-2-3-4-1-1 6-7 2-4-2-19 2-2 2-5-1-2-3 4-3 2-12 2-3h-2l-6-6-5-2v-5l-2-2 1-2-3-8-4-1-4 2-1-5-2-1h-10l-5 4-5-3-4 3-6-1 1 6 5 2-6 2v3l2-1 2 4-3 10 4 12-3 5 6 3 2 3-1 2 2 4v7l-12-1-2-4-2 1-1-5-3 1 2 12h-2l-2 7-9 10-2 10 3 3-1 2-5-1-12 4-6-3-6 3-3 4 6 11 11 9 9 20-4 1v5l3 3 2 14 8 2 1 8 5 11-5 6 3 18 2 3 6 2v3l8-1 7 20 6 9v6l-4 1 1 3 3 1-10 7-3 6-1 9 15 1 5 6 4 2 11-4 10 1 5 8 4 3 6 1 12-3 9-5 12 1 5-4 12-15h3l5 5h8l5-4h5l14 8 7-3 2 4 9 7 27-1 5-3 4-6 4-1 11 8 18 6 19-5 19 4 5-3 4 4 8 3 9-2 4-3 1-5-10-10v-4l15-14 7-2 7-5-1-4h-4l-4-3 3-7 8-3 6-5-3-9-8-7v-3l5-7 18-5v-16l6-2 1-2h4v-3l-3-1 10-14h3l1-6-13-6-1-4z"/>
  <path id="焦作市" fill="#ff6347" fill-opacity="1" fill-rule="evenodd" stroke="#ffffff" stroke-dasharray="none" stroke-linecap="round" stroke-linejoin="round" stroke-opacity="1" stroke-width="0.5" d="m385 263 7 3 8-14h5l9 7 10-5 4-5h3l9 7 5 1 12-2 4-3 7-1-2-9 22-7 3-5v-5l2-2 4-2h7l7 3 5-1 10-11 9-3 5 2v6l6 2 7 1 17-4 12 11 1-9 3-6 10-7-3-1-1-3 4-1v-6l-6-9-7-20-8 1v-3l-6-2-2-3-3-18 5-6-5-11-1-8-8-2-2-14-3-3v-5l4-1-9-20-11-9-6-11-3 5h-3l-3 3h-5l-4-4-4 3v2l7 2v2l-2 1-2-3-2 3-1 4 2 4-10-3-1-2-8-4-10 2v4l-2 3 1 3-1 2-2-2-3 2 3 4-1 3-4 2-1 4-1-1v6l-3 2v3h-10l-4-1-4-4-18-3-2 2 1 3-2 3v6l2 5-1 4-2 1-4-2-8 3-1 8-6 4h-10l-4-3-8-1-6 6-4 1v4l-4 6h-3l3 7-2 7 2 16-3 3-3 11-2 1v5l-2 3-8 4-8 11h-4l-2 3-8-1-4 3h-5l-2 7 4 7 14 2v21l4-2 17 10h8l9-3 7 2z"/>
  <path id="濮阳市" fill="#ff6347" fill-opacity="1" fill-rule="evenodd" stroke="#ffffff" stroke-dasharray="none" stroke-linecap="round" stroke-linejoin="round" stroke-opacity="1" stroke-width="0.5" d="m949 100 7-13 8 1 3-6 1-7 4 4h2l1-4v5l2-6 3-1h26l9-8-1-3 18-11 4 1 1-6-2-7 2-4-3-1v-2l3-1v-3l3 2v-4l3 1v-3h2l6-8 1-7 6-6 5-12 13-14h4l2-3 5 2 2-3 6 2 1-2h8l19-5 1-11h2l1-5 2 1 1-5h2l2-5h5l-1-2h3l3-5 11 3 1-2 5 1v-3l6 1v-4l2-2v5l1-5 2-2v-5l2-1-2-3h-3l1-4 8-2 1-11 19-4h6l8 3 3-2 3-18 3 1 2-6-1-4 3-5 3-13-11 2-7 11-11 8-13 5-4 3-7-1-6 3-3 4-6-3h-5l-10 6 2 1-3 3v2l-10 2-5-1-7 5-1 4-9 4-2 3-9-2-6 2-9 7-12 3-11 7-7 9v2l-4 2-2 6-10 6-2 3-7-6 4-20-3-1 1-2h4l2-16-3-5v-6l2-5 6-1 3-5 6-5 7-2v-11l-2-3 5-2-1-3 1-3h2l4-14v-8l-3-1-2-6-3 1-1 6h-4l-2 3h-4l-1-5-3 9h-4l-2 8-7 5h-5l-4-1-3-4 1-9-5-2-5-11-5-6-7-4h-3v-3l-4 6-4 1-4-1v-2l-4-3h-4l-4 3-1 9-11-2-4 5-2 18-11 12h-11l-6 6h-3l6 4 7 1 4 3-3 4v4l2-1 2 12-4 13 1 6-2 8-3 6-6 2-1 3 1 6h3l-1 9-9 10-4 1-1 3v5l5 5 2 5-1 2 2 4v7l-4 5-4 1-4 7 3 3v5l6 4 12 2 2 3 2 17-2 4-6 4v3l8 1-2 12 5 2 1 7-5 4-4 6 4 8 3 1zm126-178v-5l-4 2v3l2 1z"/>
  <path id="许昌市" fill="#ff6347" fill-opacity="1" fill-rule="evenodd" stroke="#ffffff" stroke-dasharray="none" stroke-linecap="round" stroke-linejoin="round" stroke-opacity="1" stroke-width="0.5" d="m754 440-3 4-10-1-3 8-9 1-2 4-6 1-6-3v-4l-2-1 2-2-2-4-5-2-1 3-2-3-5 1-2 3-8-2-3-6h-2v-4h-4l-1-3h-2v-3l-7-1-1-2-7 3-3-3v-6l-4-2-12 2-7-4-4 1 1 1-4 5-11-1-2 3-4 2v3h-3l1 4-6-1-6 2-12-12-11-2-3 3-7-2-5-8h-7l-3 4-11-7-4 1-2-2 3-6-13-2 1-3-5-4-6-1-3 5v12h-10v3l-2 1-11 1-4 7h-4l-5 10-6 5-3-2-8 3-7-1-3 6-1 7 10 6-1 9 7 9v7l4 2 1 3 8 2 8-2 3 2 1 3h2l2-2v-3l3-2 3 5 4-1 1 5 4 1 8 6-3 2 4 9 3-1v-3l2-1 8 1 3 3 1 9 3 5v13l-7 5-6 15 1 5 5 6-1 9 1 4 2 1-5 4 13 7 3-1 3 2 1 6 24-5 1 2 6-1 1 5 3 3-2 4 7 2-3 3 1 3 3-2 5 2 2-4 2 2 7-1 7 2 2-1 2-5 2 5 5-2v-4l4-1 1-4-3-3h-3l-1-4 2-4 3-2v-6l2-5-1-6-7-3-2-4 4-6h6l3-3-2-1h11l3-3 2 5 6 1 3-4-1-7h3l-3-13h7v2h4v-2l4 1 1-3 14-8 12-2 8 3 1 8h5l3 6h4v3l3-1 3 4v9l-3 4v3l8 7 3 8-1 2 2 3 4-2v2h9l1 2h7l2 4 10 2 5-3 1-6 3-5-1-5-3-3h-2v-3h3l1-4-2-2 2-2-3-3-2-20 3-2-1-6 2-1-1-6-4-2-3-12-3-2-2-13 3-2 3-6-3-17v-5l3-5v-3l-3-3-1-5zM639 554v2l4 1-2-5-1 2z"/>
  <path id="漯河市" fill="#ff6347" fill-opacity="1" fill-rule="evenodd" stroke="#ffffff" stroke-dasharray="none" stroke-linecap="round" stroke-linejoin="round" stroke-opacity="1" stroke-width="0.5" d="m607 702 1-3h5v-4l2-1 21-1 6-8 6-1 2-4h15l5 4h3l2-3 7-2 5-6v-3h4v-3l5-1 1-2h4l1 2 11 6 4-2 1 3-4 1v2l3 1 4-2v7l5 1v3l2 1 3-1 3 2-3 4 5 4 1-7 10-1 9-3 4-3-1-5 4-20-3-2-4-10v-2l3-2v-5l-4-4-1-14-3-8-9 4h-4l-3 3v3l-4 2-2-1-2 2-1 4h-9v-11l-5 1-1-11 4-7-3-8h12l-2-12 3-2 2 1 1-2-3-8-8-7v-3l3-4v-9l-3-4-3 1v-3h-4l-3-6h-5l-1-8-8-3-12 2-14 8-1 3-4-1v2h-4v-2h-7l3 13h-3l1 7-3 4-10-2v-2h-9l-3 1 2 1-3 3h-6l-4 6 2 4 7 3 1 6-2 5v6l-3 2-2 4 1 4h3l3 3-1 4-4 1v4l-5 2-2-5-2 5-2 1-7-2-7 1-2-2-2 4-5-2-3 2-1-3 3-3-5-1-3 2 2 2-1 5 2 9h2l8 7-1 3-5 2-7 7-6 2v5h3l-2 5-3 1-3 11 1 5-3-2h-12l1 6-3 7 1 6-2 2v4l13 5 2-4h4l2 4 10 1 2-3 7 1 6-4 10 1z"/>
  <path id="三门峡市" fill="#ff6347" fill-opacity="1" fill-rule="evenodd" stroke="#ffffff" stroke-dasharray="none" stroke-linecap="round" stroke-linejoin="round" stroke-opacity="1" stroke-width="0.5" d="m165 184-2-3-9-1-3 4-4-3-4 3-6-2-11 3-3 2v8l-4 3-3-1-3 4h-5l-3 4-11 1-2 4h-5l-1 2 3 3 1 7-9 4-6 6-1 7-7 4v6l-5 6h-3l-4-3-4 1-7 6-6 2-4-1-3-3h-3l-2 3h-4l-5 4-11-2-4-3-4 4-7 3-10-3-2 1-2 7-5 1-3-3-8-1-5-4-8 11-1 6-23 6-15 11h-3l-3-4-5-3h-4v5l-4 14-3 5-2 3-8 2-7 7-9-11-11-1-9 14-2 1-24-1-17 8h-3l-12-9-13 4-3 3h-5l-7-4-3 11 8 1 2 2-9 4-3 8 2 8 3 2 4 7 2 10 2 1v2l5 4 7 2 5-2-1 5 4 12 4 3-1 8-7-1-6 10h-5l-1 5 2 1 2 9 13 3 4 5 4-1 7 2 2 6 8 1v4h8l6 5-1 4-4 4 1 1-4 6-5 4 1 11-2 1-1 12h7l2-4 3 4-1 2h2l4 8v7l5 1 1 6-1 2-5 1-6 4v5l-9 2-1 4 6 7v4l4 2h6l4-2 5 5 7 1 3 8 4 3 11 1v4l4 2 9 20-3 6 5 9 4 2 6 7h5l1 2 10 2 2 4h4l10 9 1 6 4 3 9-2 3-3 5 1 3-4 3-1 6-15 4-6-5-10 5-2h8l4-14-1-8 4-8 3-5 3-1 7 2v-9l-7-10-4-3v-2l-4-3 1-3 2 2 5-3-2-6 1-3 3-3h9l7 2 5-11 9-7-1-9-3-7v-6l3-9 3-2-2-5-11-3-5-9-4 2-1-3-2 1-4-2-5-8-5-1-2-5-8-4-4-4 2-2h3l2-6-1-9 2-7-1-5-5-6v-3l-2-2h-5v-7l2-4 2-2 9-2v-6l6-3 3-10 12 4v-7l4-5 3-1 2 5 4 1 9-3 3 2h4l26-16 4-6h10l6-5 3-1 2 2 3-3 25 10-3-4-2-8 6-1 2-3 9-5 5 1 2-3h3l5-6 6-2 1-4 2-1 8 1 7 9 4-1 6 6 6-12 4-1 3-3-2-5 3-5v-3h3l1-7 4-2v-3l-5-1 1-5h3l2-6 3-2h-2l-1-3 3 1v-3l-4-3 2-3-9-8-1-3 2-2-2-1-7 2-2-1v-3l-7-6-6-1-4-3v-5l2-3 8-4 3-4h5l8-5v-3l-6-1-1-4 6-1v-2l3-2-13-9 5-5v-5zm16 90-1 2z"/>
  <path id="南阳市" fill="#ff6347" fill-opacity="1" fill-rule="evenodd" stroke="#ffffff" stroke-dasharray="none" stroke-linecap="round" stroke-linejoin="round" stroke-opacity="1" stroke-width="0.5" d="m-83 655-1 8 4 4 2 16-2 5-6 5 4 9 1 7 3 3-1 6 2 5-1 3-7 2 2 6-3 1-1 7-3 2 4 5h-3l3 5 4 2 5 5v2l5 3 2 5-6 7 3 1 4-5 7-3 4 6 6 3 1 5 4 4h4l4 3-1 4 4 5 1 4-7 3-4 3-1 3h19l5 2v5l4 4 4 11-7 8v17l2 2 4-5 3-1 3 3v10l10 6 7 1 6 3 8 22 3 2h4l2-4 4-1v-2l3 4-1 6-3 4-4-3v3l-3-3-2 1 4 3h6l3 2-2 3 3 4 9 6 3 6 1 8 13 11 6-5 4-6 6-2 1 9 7-3 5 3h6l6 5 2 4 10 6 6 6h5v2l8 1 3 6h12l8-3 5 7 2 7 4 1v3h3l1 2 7-3 1-3 7-1v9l3 3h2v5h2l8 6 2-1 2 4 5 4 2-3-4 1 3-5-4-1 1-3h4l2 2v6l8-2 6 2 1 3 6 5 9 4 2 4 8 4v-5l2-4h4l2-5 7 1 1-2 6 2 1 2 8 4-1-4 8-7 5 1 7-2 2 2 4-8 4 1 4 3v2l3 1 2-2h4l19 9 7 1 1-3 4-1 1 5 8 2 2-5 24-12 3 2-1 4 3 1 4-4h11l4 1 2 5 5-1v-8l3-5h3l3-3 7 2 2 4 5 4 8-2 2 7h8l2-1 1-9 3-4h4l6-3 4 2 3 6 15 12 1 4 6 2 3 3-4 3v2l3 1 4 6h8l4 3 1 3h3l3 3 24-15 4-4 5 1 1 8 2-2-2-7 3-3 5-1-1-4 3 2h4l-3-3v-2l4 2 4-1v-5l3-2 3-8 3 1 1-4 7 2 3-1 1 3 3-2-2-2 4-4 1-8 2 3 1-4h3l2-2 1-6-2-5 4-9-3-3 2-4 3-2 2-6 6-5-7-9 2-3-3-3h-5l-9-6-2-4-6-3-7 1-5-5-2 1-7-2-1 4 2 2v7l-6 2v4l-2-1-6 15-6 4-4-1-3 6-5 2-6-4-3 1v-3l-5-1-4-5-6-2-9 13-4-1-2 2-4-3-1-3-2-1-1 3-8-4h-8l-1 4-6 3h-4l-2-3-1-8 2-3v-5l-3-1-1-5 9-10 8 5 1 4 3-2-2-5-6-1 1-3-3-3-4-1-2-4h-4l1-5 2-2-7-11 2-4-1-5 2-5-6-5 1-3 10-11v-10l-12-3-1-3-3-1-1 3-6-1-2-3-3-1 6-17 5-5 6-10 6-2 1-3 4-2 3 2 10-5 14 2 4-1 8-4 7-7v-17l-4-4h2l2-4 1-9 3-3v-8l-4-10 1-2 4-1-1-4 2-2-2-4-17-5-6 3-6-3-3 1-5-5h-3l-1-3h-3v-4l-4-3-6-10-4-2-12 3-1-4-4-2-9-1-7 3-2-2v-9l4-3-2-2v-13l-3-2v-2h-2l-1-5-9-2-4-5-6-2-2-5-6 1-7-4-1 3-5-1-4 2v6l-2 2h-9l-7 3-3 3-3-4-4-2-14-3-7-3-1-2-6 3-5-1-1-4-3-2h-3l-3 5-5 4-2-2-5 2-10-16h-8l-10-11-16 4-2-2h-5l-7-9-7-4-12-2-12 6-2-2v-3l-2-2h-3l-7 14-15 7 1 6 2 1 2 7-1 1h-7l-9-6-3 3-1 4 2 2 2-2 1 3-29 6-8-7-14-1-3-17-24-11-11 3-10-13-7-3-7 1-6-2h-7l-4-3-8 6-6-4-9-3-9-7H1l-5 2-3-4-8-2-3-4-7-2-3 1-7 13 1 8-4 14h-8l-5 2 5 10-4 6-6 15-3 1-3 4-5-1-3 3-9 2zm7 118 1-3-2-1-4 5zm437 251-1-2-2 1z"/>
  <path id="商丘市" fill="#ff6347" fill-opacity="1" fill-rule="evenodd" stroke="#ffffff" stroke-dasharray="none" stroke-linecap="round" stroke-linejoin="round" stroke-opacity="1" stroke-width="0.5" d="m1113 500 4 1 3-3h4l2 2 8-5 12 4v-3l3 3h4l9 10v6l2 2 6 1v-8l3-2 4 7 14 1 3 2 7 8 1 4-4 14 1 5 6 1 1 4 5 2 6 6v3l2 1-1 6h-4l4 4-2 3 5 3v4h7l2 7 6 2 6 13 5 1 8-6 5 2 1-4 4 2 5-1 5-6 6-2 3-5 3 2v-2l5-2 3 1 8-2 4-7 6 3 2-2v-14h4l2-4h3l3-3h9l1-3 3-1 1 3 2-3h3l-1-2 3-6 8 1 8 5 4-1-2-8 2-4-1-6 3-3-1-4-4-1-1-3-6-4v-8l-2-4-3-3-7-16-5-2 1-2-4-4 2-1v-7l3-4 5-2-5-8-1-14 3-1 7-7v-3l-4-3-14-4-6 2-8 7-2-4 1-2h-2l-4 3 1 2-5 1-2-3-8 2-1 2-2-3 2-6-4-8-14-7-4-5-3-1-1-3-4-2-4 1-7-2-1-3 2-4-10-9-4-9 4-7v-4h3l4-4v-3l-4-5 2-13-13 7-3-2-9-14-5-1-11 5-9-8-5 3v6l-4 2-34 5 1 2-3 1-8-7-9-3h-10l-3-3h-3l-1 9-3 4h-4l-12-6-10 2-13-1-5-3-9-14-5-3v-6l-4-6 1-7-4-9 4-6-5-19-4-1 1-1-2-4-4-2-4 1-16-10h-3l-4 3-5-1-3 3 2 4-2 6h-4l3 2-1 2-12-2-1 3-5-1-1 3-6 3-3-4-6 1-4 6-16-1-10 4h-9l-8 4h-3l-8-4-4-4h-2l-1 2h-8l-2 4 2 3 6 2-4 7 3 2 1 6 3 1 6-3h4l6 3 1 2v3l-10 3-1 3 2 2-1 14 3 9v8h2l1 2-2 2 2 1-3 11 4-1-1 4-6 8h-3l-1 3-4-4-2 4v5h2l-3 2-1 9 6 1 4 4-2 4-5 1-2 10 2 2 2 7 8 7 9 1 7 6h5l1 3 14 2 3 7 11 1 3 4 5-1-2 6 4 6v6l-4 10 2 5-2 2v10l6 3v2l-5 8h-12l2 7-5 7 1 2-4 7v3l9 2 5-1 2-7 3-1 4 1 2 3h7l7-8-2-4 9 5 3-1 3-2 1-10 8-2 2 1-2 4 1 3h5l2-3 8-4h3l10 8 15 2 1-6 7-4 3 1 3-2h6l3-5-1-15h25z"/>
  <path id="信阳市" fill="#ff6347" fill-opacity="1" fill-rule="evenodd" stroke="#ffffff" stroke-dasharray="none" stroke-linecap="round" stroke-linejoin="round" stroke-opacity="1" stroke-width="0.5" d="M623 1050v3l-3 1v5l4 8 3 3 3-1 1 6-5 8 1 7-4 7-3 1v-2l-4-1 1 12 5 2 4 7 5 2 2 4-8 10v5l15 6-3 10 3 3 4 1v12l2 3v5l5 4h4l6-3 4-8 5-1v3l6 4v5l-2 4 1 10 3 3 4 9 2 1 7-6 6 1 3-2 2 1 4-4 4 1v-4l3-3 5-1 2-9 2-2 7 1 1-3 4-1 7 3 3 3 4-3 3 10 4 4v3l8 11 14-1 11 4 2-2 5 4 7 2 1-3 3 1 3-2 4 2 5-2v-8h3l3 7 4-1 2-6 7 1 1 10-2 2v5l3 2-1 3-3 1-1 8-3 2-3 9 4 19 3 3v-2h3l3-5 4-1 1-2 6 1 8 11h7v6l5-1 1 3 5-2 10 2-2 2 1 4 2 1v4l8 1 4 6 3-1 2-4 7-1v3l12-3 3 3 7-8h4l2 6 3 1 1-4 2-1-2-3 6-8 4 3 7 2h7v-3h2l3-3-2-3 1-3-2-2 1-3 5-4v-6l10-2 3 2 1 6 3 3v2l4-1 1 3h6l-6 20 2 2v6l-2 5 2 6h4l7 4-3 7 3 1 5-4 5 5h3l4-2 2-4 5 1 5-2 4-13-5-14 12-9 3-6v-5l3-5v-3l12-6 1-4-3-7 4-8 10-8 5 1 3-4 5-2 24-19h3l2 3 4-1 2 2h4v-4l7-1 1-2 7 4h4l2 4 4-5 1 1 4-4 2 4 7-1 6-5 1-8-5-4v-10l7-16-1-5-2-2v-5l4-11 1-9-3-1 3-3-2-4 5-4v-4l-4-8 4-19-5-8-2-11v-8l2-4-3-5v-4l-3-1 2-3v-9l-2-1v-14l-2-11-3-2 1-7-5-1 3-4h2v-5l-3-5-7 1 1-3 6-5 1-5 9-7h5l-5-3h-5l-8 12-4 2-1 9h-4l-9 10h-2l1-6-4-5-3 7-4 2-11-6-2 2 2 5-6 2 1 8-2 2-2 7h-2v-6l-8 7-6-6-10 7-3-1 4-3v-2l-5-1-3-4-4-1 1-2-3-1-3-10-4-8h-2v-3h-3l-7-4 1-3-3-3h-4l-2 2 1-9h-3l-2 3-2-1-14 3-3-1 1 3h-5l-2-3 1-2h3l-4-2 2-2-1-2-1 3-2-3-6 3-3-2 2-2-2-1-7 5 1-3-8-1-2-3-4-1-8 8-2-2 1-4-4-3h-4l-3-3v-5l-2-1-7 3-3-4-17-5-7-1-6 4h-4l-2-2-3 2v4l-2 5-2 1-6-3-1 2-9-1-2 3h-5l-2 2 1 7h3l2 4-1 3-7 7 4 5-1 4h-5l-5-5-4 2-2-1-1-6-3-1-3 3v5l-7 1-2-4h-4l-9 5-9-1-3 2v12l4 4-4 6 2 3 7 2 8 6 3 4-1 3-5 2v5l-4 1v4l-4 5-4 1 1 3h-5l-3 6-4 1-3-4-8-1v4l-2 1-4-3-4 4-6-2-2 3-7-5-5 1-2-2v-5l-5-3v-7l-2-6-7-2-5 2-2-1v-15h-2l-3 3-5-8-1-7-4 1-2 3h-4l-1-3 2-1v-3h-3l-1-7-7 1v8l-2 1-6-1-6 4-7-1-2-8 3-1-3-4-1-7-2-3 1-2-3-2-1 5-10 2-2 3-12 1-6-16 1-6-5-5v-4h-9l-6-6-3 2-6-1-2 1v5l-4 1-4 4-2 6-3 2-2 4 3 3-4 9 2 5-1 6-2 2h-3l-1 4-2-3-1 8-4 4 6 3 1 6 3 1 1 2-3 4 2 3 3-3h2v3l-3 2-1 3v5l3 2 2 4-1 10-3-1zm5-4v-5l-6 3-1 2 2 4 2-2v-4z"/>
  <path id="周口市" fill="#ff6347" fill-opacity="1" fill-rule="evenodd" stroke="#ffffff" stroke-dasharray="none" stroke-linecap="round" stroke-linejoin="round" stroke-opacity="1" stroke-width="0.5" d="m918 801 3-10-1-4 2-2h4l2-5 8 2 1 4 6 4-1 6 6 1 7 4 3-2 1 3 29-2 1-6 6-4 4 2 3-4h4l2-3h6l5 2 1-4 2 1v-7l-2-4 1-8 8-3-3-2v-2l4-3v-5l2-3-1-11h6l2-12-5-1v-6l-2-1 1-3h-7l-1-2 4-7-3-5v-10h2v-3l3 4 3-1v-17l5-6 8 7 2-5-1-2 5-10 11-3 2 2 8-2 2 4 5-3h8l1-4 19-3-3-13-6-9-1-10h2l-3-4 2-5-10-17v-2l5-3 8 4 2-6v-5l-2-3 3-1v-4l2-1v-8l-3-3-4 3-7-3h-9v-4h3l-1-4 4-3-2-1 2-10 2-1 1-7 3-4-2-1 2-7 4-1-2-3 4-3 2 1 7-2-1-3 2-4-3-8h-25l1 15-3 5h-6l-3 2-3-1-7 4-1 6-15-2-10-8h-3l-8 4-2 3h-5l-1-3 2-4-2-1-8 2-1 10-3 2-3 1-9-5 2 4-7 8h-7l-2-3-4-1-3 1-2 7-5 1-9-2v-3l4-7-1-2 5-7-2-7h12l5-8v-2l-6-3v-10l2-2-2-5 4-10v-6l-4-6 2-6-5 1-3-4-11-1-3-7-7-2-4 1-3-1-1-3h-5l-7-6-9-1-1 6-16-5-1 4-5 3-6-1-2 2h-4l-1 5-8 4-4-5h-9l-3-2h-5l-4-4h-5l-6-4-8 2-2-1v-4l-6 1-2-10h-7l-3-5h-5v3h-2l-4-3v-2l-3 1 2 1v5l-2 1 1 2 7 3-4 7-6 2-3 5-5 2-8-1-7-7h-7l-4-3-3 1-2 6-2 1 7 11v3l-3 5 3 22-3 6-3 2 2 13 3 2 1 7 2 5 4 2 1 6-2 1 1 6-3 2 2 20 3 3-2 2 2 2-1 4h-3v3h2l4 8-3 5-1 6-5 3-10-2-2-4h-7l-1-2-6-1-3 1v-2l-4 2-4-4-3 2 2 12h-12l3 8-4 7 1 11 5-1v11h9l1-4 2-2 2 1 4-2v-3l3-3h4l9-4 3 8 1 14 4 4v5l-3 2v2l4 10 3 2-4 20 1 5 6-3 11 6v3l3-1 2 3 4-3h5l1-2 10-1 4 3 1 6 4-2 2 2v6l9-1 4-2 6 1 3 5v9l3 1 1 4 4 1 5 5h8l2 6 2 1-1 2 4-1 1 6 5-2 4 1 2 3v9l-3 12-5 4v4l-4 8 5 3 1 4 3 1 1 6 3 1 2 4 5 1 1 4 2 1v6h6l1 3h9l4 2 2-7 10-2z"/>
  <path id="驻马店市" fill="#ff6347" fill-opacity="1" fill-rule="evenodd" stroke="#ffffff" stroke-dasharray="none" stroke-linecap="round" stroke-linejoin="round" stroke-opacity="1" stroke-width="0.5" d="M639 949h2v-5h8l3-2 6 6h9v4l5 5-1 6 6 16 12-1 2-3 10-2 1-5 3 2-1 2 2 3 1 7 3 4-3 1 2 8 7 1 6-4 6 1 2-1v-8l7-1 1 7h3v3l-2 1 1 3h4l2-3 4-1 1 7 5 8 3-3h2v15l2 1 5-2 7 2 2 6v7l5 3v5l2 2 5-1 7 5 2-3 6 2 4-4 4 3 2-1v-4h2l6 1 3 4 4-1 3-6h5l-1-3 4-1 4-5v-4l4-1v-5l5-2 1-3-3-4-8-6-7-2-2-3 4-6-4-4v-12l3-2 9 1 9-5h4l2 4 7-1v-5l3-3 3 1 1 6 2 1 4-2 5 5h5l1-4-4-5 7-7 1-3-2-4h-3l-1-7 2-2h5l2-3 9 1 1-2 6 3 2-1 2-9 3-2 2 2h4l6-4 7 1 17 5 3 4 7-3 2 1v5l3 3h4l4 3-1 4 2 2 8-8h7l2-2-3-2 1-4h-2v-3l2-1 2 3-1-4 3-3-4 1v-6l-2-3-2 2 2 2-3 1-1-5 2-27-1-5h7l-5-7 1-5-2-4 4-1-1-3-10-3-1-4-4-2v-4l-6-1-4 2-4-3-15-1v-2l2-1v-5l-15-3-9 2-7-11h-6l-3-6 5-3-2-6 8 1 3-3-3-3-2-14-5-1-10 3-2 7-4-2h-9l-1-3h-6v-6l-2-1-1-4-5-1-2-4-3-1-1-6-3-1-1-4-5-3 4-8v-4l5-4 3-12v-9l-2-3-4-1-5 2-1-6-4 1 1-2-2-1-2-6h-8l-5-5-4-1-1-4-3-1v-9l-3-5-6-1-4 2-9 1v-6l-2-2-4 2-1-6-4-3-10 1-1 2h-5l-4 3-2-3-3 1v-3l-11-6-10 6-9 3-10 1-1 7-5-4 3-4-3-2-3 1-2-1v-3l-5-1v-7l-4 2-3-1v-2l4-1-1-3-4 2-11-6-1-2h-4l-1 2-5 1v3h-4v3l-5 6-7 2-2 3h-3l-5-4h-15l-2 4-6 1-6 8-21 1-2 1v4h-5l-4 12-6 2-4 5 1 9-4 4-2 7-3 16 5 16 6 1-6 10-2 1-5-5-1 2-9-1-3 6-4-4h-3l-2-3-4 2h-22l-4 2-3 11-7 7-12 5-14-2-10 5-3-2-4 2-1 3-6 2-6 10-5 5-6 17 3 1 2 3 6 1 1-3 3 1 1 3 12 3v10l-10 11-1 3 6 5-2 5 1 5-2 4 7 11-2 2-1 5h4l2 4 4 1 3 3-1 3 6 1 2 5-3 2-1-4-8-5-9 10 1 5 3 1v5l-2 3 1 8 2 3h4l6-3 1-4 8-1 8 5 1-3 2 1 1 3 4 3 2-2 4 1 9-13 6 2 4 5 5 1v3l3-1 6 4 5-2 3-6 4 1 6-4 6-15 2 1v-4l6-2v-7l-2-2 1-4 7 2 2-1 5 5 7-1 6 3 2 4 9 6h5l3 3-2 3 6 9z"/>
  <path id="济源市" fill="#ff6347" fill-opacity="1" fill-rule="evenodd" stroke="#ffffff" stroke-dasharray="none" stroke-linecap="round" stroke-linejoin="round" stroke-opacity="1" stroke-width="0.5" d="M367 142h-3l-2-2-4 1-2 6-3-4 1-5-13-9-1-5h-2l-1 4-2-6-4 7 5 2v4l-4 2-5-1-11 3-6-3-5 1-7-3-8 1-14-5-3 1-6 6-20 1 4-11h-3l-3 3-10 2-7-2v-4l-21-5-4 2-2-2 1-1-5-2h-10l-1 3 4 2 3 7v6l-10 7v3l6 12-1 4 2 1-3 12 1 14-2 3h-4l-1 3 2 2h17l11 4 5 4 5 10 6 2 9 8 9-6 5 4 21 7 2 2 11-1 7 2 9 6 3-1 3 2 4-1 1-7-3-4h-3l-1 3h-4l2-7 6 3 6-2 7-10h5l4-3 8 1 2-3h4l8-11 8-4 7-20 3-3-2-16 2-7z"/>
</svg>
