<svg xmlns="http://www.w3.org/2000/svg" id="svg1" version="1.1" viewBox="-251 -228 1754 1688">
  <path id="杭州市" fill="#ff6347" fill-opacity="1" fill-rule="evenodd" stroke="#ffffff" stroke-dasharray="none" stroke-linecap="round" stroke-linejoin="round" stroke-opacity="1" stroke-width="0.5" d="m731 152-5-5-2-14v-15l-4-5-22-5h-49l-14 3-8 4-9 23-13-11 4-11 5-3-1-3-20 6-9-4-1-6-4-1 6-3 4-6-1-4 4-3-2-13 2-3-4 2-2-14-3-9-6 1-8 6h-14l-6-2-7 2-1-4-2 5h-4v4l-4 1 2 4-11 6-1-6-13 2-5-4 1-4h-11l-4 10v6l3 5-2 5 1 2-7 1-1-3h-10l-4-4-8-1-6 6-3-1-2-4-6-1-1-4-4-3-4 3-3-2-4 1-7-2 3-6h-5l-6-11-5 3-7-6-8 2-10-4 1-15-15-1-6-6-7 5 6 20-2 6 2 2-3 9-2 1v5l5 8-9 7-1 4-5 4-5-3-3 5h-5l2-7-2-6 4-1 2-5-5-1-3 4-12 4h-5l-5-9-6 2-6 6v7l-8 3-8-3-14-1-4 8h-2l-6 7-6 1-10 8-9 2-3-6-6-4-9 4-8 9-5 2-6-1-3 5 2 3-4 12-3 1-1-4-7-1-1 5-16-4-2-2h-9l-14-8-6 3-3 5-5-1-1-3h-7l-9-6-6-2v-7l-4 1-3-2-3 2-2-5-7 3v3l-6 5-14 7 1 7-2 7 4 12-2 3 3 2 4 10 8 2 2 4-7 7-21 9-3 4 4 4 4-2 4 2h7l-3 13-6 2-1 4 3 16 4 1 3 5-2 4 4 5-4 7v7l3 6-3 9 1 9h-3l-5-4-3 5-6-2-3 3 2 8-1 10-23 20-4-2-4 1-2 6 5 3-3 3-4-1-2 2-1 11 4 11-1 10-8 7-2 5-6 1-7 8v3l-3 5-10 11-10-5-6 5-11 2-14 20-13 7-1 23-9 5h-4l-4-3-7 4-5-2-8 1-4-2-1 4-8 10-5 1v4l3 5 5 2 2 5 4 2 3 4 4-1 4 2-3 5 8 5-1 4 6 5h3l3 4 5 2 6-3 7 4 4-2 2 1-2 7 4-1 8 4 8-1 6 5 3-2 2 6 5 6-1 3 7 10v4l-5-6-3-1-2 5 4 7-3 4 4 9h5v6l-2 4 4 1 17-4 9 6 12-11h4l4-3v-11l4-1 4-7 11-6 3 1 1-3 10-7 2-5 6-5 3 2 5-4 10 9 13 6v2l-5 4 5 6 1-1 8 11v7l6 8 21-8 5 1 4-3 7 2 7-4h3l-1 4 3 3 5-4 7 5 2 4 5 1 2-5-2-4 4-1 1 2h3l-1-3 2-7-5-4h-3l3-6-1-8 3 3h8l-1 3 5 7-1 4 9 1 9-9v-4h11l2-7 2-1-1-4 9-5-2-2 1-5-5-8 2-11-4-5 3-7 4 1 5-3h3l3-6h4l2 8h2l2 4 8-2 2-4-2-3 4-1 2 9 3 3 2 11-1 2 3 6 3 1 3 7h5l3-2 3 1 5-7v-6l5-3 3 2 5-2h6l3-3 12 5v-5l-4-3 7-10v-3l7-6 7 3h4l1 3 4-2 1-7 6 3 3-7-3-6v-4l5-8-1-5 3-3 7-2-8-11 6-4 4 1 5-3-1-4 3-6-2-6 5-4-1-9 6-12 9-8 3 1 4-3 6 4h10l6 3 6-2 3 1 1-2 4 1 14-3v-7l-2-2-11-5-2 3-4 1-2-3-1-7-4-3-1-7-4-3 1-4 5 3h3l5 4 6-4h6l5-5 7 6 7-2v-2l7-4v-5l2-2-2-8 3-7 10 1 3-2 8 4 2-3-1-3 4-6 12-12 2-6v-7l4-1 2-4 4 1 3 4 7-8-1-2 7-6 11 3 2-3 3 5v3l4 2 3-1 3-6 7 3 5-4v-3l6-4 2-8h5l1-10-2-6-4-3-1-7-5-1-2-4 5-6-2-14-7-5-5 4-5-4 5-5 1-3-2-1 5-4 2 5h4l4-7h5v-3l2 1 11-4 4 9 4 1v-7l4-1 2 3-1 4h8l2-7h3l1-7 8-1 5 1 3 4 4 2 4-1 8 1 5 3 2-2 9 2 5-2 13-27 9-7 9-12z"/>
  <path id="宁波市" fill="#ff6347" fill-opacity="1" fill-rule="evenodd" stroke="#ffffff" stroke-dasharray="none" stroke-linecap="round" stroke-linejoin="round" stroke-opacity="1" stroke-width="0.5" d="m783 158 10 18 12 27 5 16-4 5 3 1 5 9 3-2 3 2 2 5-1 4 4 1 4 7-2 2 1 7 10 8 8-2-2 4 2 3 4-4h5l4 2 3 5 3 1-2 7-7 5-8 2-1 9-4 6-3 9-2 1 5 9 11 8 1-2 16 10-4 8 3 5-8 11-10 8-8-4-3 2 4 8-8 2-1 2 3 5 6 1-1 2-9 3-1 5 3 2-2 3h-6v4l9 3 8-3 5-4 2 1 6 9v10l5 4 5 1 4 5-1 3 3 1-5 8 4-1 2 5-3 4v5h6l4 5 10 2h14l2 3 5-1 2 8-5 7 4 3-3 5-1 11 2 1-2 4-3 1 3 7-1 1 4 1 2 9-2 4 2 9-7 4-4 5h-3l-1 12h4l-7 9-2 5 1 9-5-1-2 6 5 9-3 5 3 2 11 2 8-1 3 3v5l2 4 5 8 4 1-2 2-1 15 5 1 1 4 8 4 1-9h4l3 3 12-12-1-4 6-12-3-5 4-1 5-5 9 9-1 7 2 2 16-1 12 7 17 3 9-14 3-2 16 2 39 18 13-5 6-12 5 24 5 2 6-2 6 3 5 6h7l9-8 5 1 4 8-4 4 2 3 10-1 1 8 6 2 6-3 1-9 5-5v-2h-6l6-4 2-4-1-11-3-3 4-2-15-14h-4l4-4h9l2-13-4-8v-3l9-4h4l-2-3 1-5-7-2h-13l-2-6 2-8 5-7-3-4-7-4 2-13 8-9 6-2 2-8 4-7v-6l-7-7-2-12 7-14 3-2-3-11 5-5v-4l-13-18-10-3-5-4-5 1-6 6-8 1-5-1-9-7 38-40 24-6 5-4 8-18 4-5 13-8 6-6 12-5 3-3-1-10-9-3-7 2-6 5-26 1-2-4v-10l-3-4-4-2-1-4-5-4-15 11-2 4-7-1-24-14-19-15h-21l-9-6-12-17-5-10-7 1-6-8-1-9-32-49-11-14-16-17-21-16-9-14-16-11-18-4-19 1-16-13-23-23-7 19-5 20-17 18-2 7-7 6-7 1-15 6-14 9zm422 458-4 11 5-2 4 2v-5l7 2 4-3 2-5-4 2-5-1-2-3 5-2-3-2 2-3-7-3-2 5 2 2-2 1 4 4zm75 133 3 2 2-3zm-18-229 3-3 6-1 1-5 5 1 1-4-5-2-5 2v5h-7zm-142 136v3l6 7 3-2 3 5h3l2-3 1-10-3-5-5-2h-9l-2 2zm143-158v2l4 1v-5zm-58-67v7l5-4-2-4zm85 307 3 2v-3zm-100-143 3 3h4l-4-3zm-1-102 4 2-2-3zm-2-12 3 2v-3l8 2v-2l-6-2zm-9 131v2l7 8 5-1-4-8 1-3zm-7 63 3 1 5-4-2-1-6 2zm27-82-2 3 3 1 2-4zm-2-74 1 2 5 1 1-2zm-7 33-1-4 2-3-5 3zm72-31-2 3h4zm-62-208h5l1-3-5-3-2 2zm-1 1 3 3 1-3z"/>
  <path id="温州市" fill="#ff6347" fill-opacity="1" fill-rule="evenodd" stroke="#ffffff" stroke-dasharray="none" stroke-linecap="round" stroke-linejoin="round" stroke-opacity="1" stroke-width="0.5" d="m871 1047 6-3 5-9 3-39 3-4 7-2 12-17 3-13-4-7 7-2 2-5 6-1 2-8 3-1-8-6h-5l1-5-4-1-3-8 1-1-5-3v-3l-5-2-9-17-4-2-6 1-3-4-6-2-6 8-1 7-3 2v5l-10 2-5-1-4 3-3-2h-5l-3 2-3-3-8-1-3-5 2-6h-3v4l-10-2-6 7-6 1-9-2-5-10h-4l-4-4 4-7-7-10-8-3-2-2v-5l-1 2-4-2-9-1v-5l-6-3-5 3-7-3-3 2v6l-5 4-7 1-6-2-5 3 4 6-3 2-3-2-4 3 2 3-1 6-15 1-4-3-2 3-4-2-2 1-10-9-8-2-3-7-8-4-9 1-1 5-5 2 2 6-2 8h-2l-3 9 1 8-5 5-2 7-4-6-1 8-5 5 3 4 1 5-3 6-3-6-8-3-2 2v6l-3 2 5 7-3 3v5l6 2 3 3v6l-5 4 4 3 4-1 3 6h6l3 4 4 2 5 14-2 6 5 3 1 5-8 8-1 6 4 2 3 4-4 1-3 4 3 6-13 5v2l8 4-1 3 3 4-8 9-3-1-5 3-2 4 4 5-1 5-5 2-3-1-2 5 2 2v6l-2 1-3 12 5 1-5 7-3 1-1-5-11 1-7 7-4 1-3-4-3 2-2 12-5 1-4-2h-6l-8-7-2-3 1-5-2-2-20-2-7 1-5 5-3-2-4 5v4h-8l-4 4-4 1-4-4-3 3-12 1-2-5 2-5-2-6-12 4-8 6-6 1-6-10-3 4v6l-2 1-2-6-8 3-1 2 7 8-6 8h-3l-4-4h-3l-7 5 5 8-6 12 2 3-1 8 3 3-3 2-1 11-4 1-2-5-12 16-3-1-2 3-9 3-6 4v4l-5 5-6 2 2 10-3 3-1 5-3 2 3 2-2 5 3 5-2 6-5 2 1 15 16 4-1 7-4 7 11 1 7 10-3 5 3 2v14l-2 1v5l-4 4h-3l2 3 5 2 3 9 4 1 6 6v4l4 1-4 5 3 1 1 4 7 2-1 4 5 2 1 3-2 1-3-2v8l7 1 2-3 9 6 1-2 6 1 2-3-3-3 4-4 4 3h5l-2 4 8-3 4 1 1-3 15 2-2-9 10-10-2-3 10-2 3-3 4 1 1 5h2l5 9 9 2 9-13 7-4v-5l9-3 3 3 3-5-2-5 3-3 8-1 5 2 9-3 4 3h3l10-6v-2l5 3 1 6-2 2 5 10 6-3 5 2 4-1 1-5 1 3h8l4 6-3 7 4 5-1 3 2 4 6 3 3 7 7 6 3 9 7 7-3 4-2-3-5 3-1 3 5 5-4 8 1 3 8 8v4l4 5h3l6 8 11 2 11-2 8-6 3-7 1-12 3-7 3-3 1-5-8-7 4-9 4-3-1-10 3-4 12-7 16-6 5-4 1-24 11-24-6-5-3-10-6-2-9-17-1-6 6-4 12-15 9-25 19-14 4-7 2-17 7 6 4-6 12 7 25-44 12-13 11 4 20 23 15-1 7 7 16 2 7-1-7 7v4l4-2 5-9h10l4-8 2-9-2-6-11-3-2-3 1-7-2-3h-7l-14 6h-9l-7-2-23-21 12-22 2-12 10-26 12-13zm-50 202 2 2 4-4v-3l-3-4-4 5zm84 10-3 1 2 3 4-1 4-5-2-1zm-32-121-2 3 2 3 4-3v-4zm6 65 1 3 4-2-2-3zm0-4 3 2 4-2-4-2zm-8 134-1-4-6-3-2-4-6-3 1 3-5-1 1 4h-3l-1 3 7 5h2l-3-5 1-2 7 4h3zm-74-102 3 2v-4zm114 33 3 2 1-3zm-49-74-3 6 6 1 2-3-2-4zm23 13v3l3-1zm-117 31 3 4h4l-4-5zm145-54 1-3-5 2zm-145 70-1 5 4-6zm138 15 2 1 3-4h-3zm-39-135 11-2 7-4 2-3-6-8-5-3h-17l-12 9-1 7 4 3 5-3h6zm-73 94-3 2h4zm105-104 8-6 11-4 1-3-7 1-9-3-7 4-2 5zm-51-7 11-4 5-4v-2l-5-1-11 5zm13 227 4 1-1-3-4-1zm12-19h-2l2 4 4-1zm-7-8-3 1 3 2z"/>
  <path id="嘉兴市" fill="#ff6347" fill-opacity="1" fill-rule="evenodd" stroke="#ffffff" stroke-dasharray="none" stroke-linecap="round" stroke-linejoin="round" stroke-opacity="1" stroke-width="0.5" d="m731 152 6 4 18 5h13l15-3 18-6 14-9 15-6 7-1 7-6 2-7 17-18 5-20 7-19-9-11-13-21 33-15 1-5 8-6 21-8 5-4 4-8 7-2-3-13 2-6-1-3-5-6-9-5-2-8-3-4h-6v5l-3-3-7 3-8-3h-10l-3-2 4-2v-9l4-7-1-3-5-1 1-5-7-1-3-3-6 4-7 1v3l-8 5v5l-3-6-7-2-6 5-2-4 10-13-1-4 3-2-5-5-5-1-1-5 4-1-2-2 1-11-3-14 3-2-4-18-10-1-1-5h-4l1 5h-5l1 3-16-3-2 6-8 3-1 3-5-2-2 2-2-4-7-3h-7l-12 4v8l-4 1-5 5h-3l-4-3-6-1-1 3-3-2-5 7 5 2 4 7 1 6v14l-4 1v7l-7-7-7 9-2-1-1 7-4-3h-7l-8 3-5-3-9 8-22 33-12-3v8l6 8-4 7-5 4h-7l-1 3 5 4-17 4v2l-10 1-1 5-5 1-3-4h-4l-4 21-11 2v6l6 7-5 6h-4l2 3v16l6-1 3 9 2 14 4-2-2 3 2 13-4 3 1 4-4 6-6 3 4 1 1 6 9 4 20-6 1 3-5 3-4 11 13 11 9-23 8-4 14-3h49l10 2 12 3 4 5v15l2 14z"/>
  <path id="湖州市" fill="#ff6347" fill-opacity="1" fill-rule="evenodd" stroke="#ffffff" stroke-dasharray="none" stroke-linecap="round" stroke-linejoin="round" stroke-opacity="1" stroke-width="0.5" d="m646-50-5-10v-6l-8-7 3-5-1-5-2-4-5-3 4-4-4-8-2-1 3-5-3-9-4-3-2 1 2 10-11 5h-5l-3 4h-3l-2-3v-9l2-5-1-5 4-7-23 7-21 3h-11l-31-7-9-6-21-21-13-5-6-4-5-14-6-6-9-14-3-17-6-6v-4l-8 1-7 3-5-3h-9l-1-2h-5l-1 3 3 2-8 5-3-3h-3v-5l-5-5-8 4-6-1-10 2-3 7-8-4-2-3-5 1v3l-8 5-1 5-5 2v6l9 5-5 5-2 5 2 7-2 8 1 11-3 6-3 1-3 5-8 7-2 5v15l-6 4-3 9 1 11 5 8 1 10-8 1-10 22-7 2-5-3-5 3v7l2 4-2 3 1 14-11 14-1 6-6 5-7 1-5-7-1-8-2-3-7 2-6 6-4 1-8 14-4 4-21 3-3-2-2 6 5 4v3l4 3v3l-7 5-3 7 2 7 7 2v3l4 3 5-1 10-8 4-1 4 11-2 8 2 18 5 3v13l4-1 3 5-1 4 2 2 8 1 3 4 6-1 6-7h2l4-8 14 1 8 3 8-3v-7l6-6 6-2 5 9h5l12-4 3-4 5 1-2 5-4 1 2 6-2 7h5l3-5 5 3 5-4 1-4 9-7-5-8v-5l2-1 3-9-2-2 2-6-6-20 7-5 6 6 15 1-1 15 10 4 8-2 7 6 5-3 6 11h5l-3 6 7 2 4-1 3 2 4-3 4 3 1 4 6 1 2 4 3 1 6-6 8 1 4 4h10l1 3 7-1-1-2 2-5-3-5v-6l4-10h11l-1 4 5 4 13-2 1 6 11-6-2-4 4-1v-4h4l2-5 1 4 7-2 6 2 17-1 5-5 1-4-1-12-2-3h4l5-6-6-7v-6l11-2 4-21h4l3 4 5-1 1-5 10-1v-2l17-4-5-4 1-3h7l5-4 4-7-6-8v-8z"/>
  <path id="绍兴市" fill="#ff6347" fill-opacity="1" fill-rule="evenodd" stroke="#ffffff" stroke-dasharray="none" stroke-linecap="round" stroke-linejoin="round" stroke-opacity="1" stroke-width="0.5" d="m458 409 6 5v3h5l7 3 2-2v-7l3 2v4l-4 3 2 4 5 3v2l-4 4-5-1-5 11v8l9 3 3-2 6 5-2 4 3 3 12 4-2 8h-4l2 4 5 2 3-3 4 4 5 1 4-6 12-5 6-12h5l4 6-2 3 6 3 1 3 6 1 3 6 6-1 5 4-7 9 2 7 5 5-1 10-5 6-1 5 6 11 4 3 7-4 3-6h3l3-6v-4l4-3 10-2-3-8 1-4 6-5h6l4 2 6-11 13-3 5-3 8 7-1 4 7-1 3 5-3 2-1 13 4 8 6 4h4l3 5-2 3 5 2 4 4-2 6 3 2 4-4 3 6 9-1 8 4 3-3 6 4 6-7h4l2-3 1 3-3 9 5 7h3l2-3h5l4-2 8 4-6 8 1 2 6 2v22l11-4 7 2 10-10h4l1 3 6 3 6-1-3-12 5-3v-8l4-3 5 5 10 4 3-10 9-2 6-4 5 1 1 4 7-1 5-5h7l9 2-1 5h8l1-13 4-1 6 3 4-3 1 6 5 1 1-3 5 3v-8h3l4-5 7-4-2-9 2-4-2-9-4-1 1-1-3-7 3-1 2-4-2-1 1-11 3-5-4-3 5-7-2-8-5 1-2-3h-14l-10-2-4-5h-6v-5l3-4-2-5-4 1 5-8-3-1 1-3-4-5-5-1-5-4v-10l-6-9-2-1-5 4-8 3-9-3v-4h6l2-3-3-2 1-5 9-3 1-2-6-1-3-5 1-2 8-2-4-8 3-2 8 4 10-8 8-11-3-5 4-8-16-10-1 2-11-8-5-9 2-1 3-9 4-6 1-9 8-2 7-5 2-7-3-1-3-5-4-2h-5l-4 4-2-3 2-4-8 2-10-8-1-7 2-2-4-7-4-1 1-4-2-5-3-2-3 2-5-9-3-1 4-5-5-16-12-27-10-18-15 3h-13l-18-5-6-4-11 10-9 12-9 7-13 27-5 2-9-2-2 2-5-3-8-1-4 1-4-2-3-4-5-1-8 1-1 7h-3l-2 7h-8l1-4-2-3-4 1v7l-4-1-4-9-11 4-2-1v3h-5l-4 7h-4l-2-5-5 4 2 1-1 3-5 5 5 4 5-4 7 5 2 14-5 6 2 4 5 1 1 7 4 3 2 6-1 10h-5l-2 8-6 4v3l-5 4-7-3-3 6-3 1-4-2v-3l-3-5-2 3-11-3-7 6 1 2-7 8-3-4-4-1-2 4-4 1v7l-2 6-12 12-4 6 1 3-2 3-8-4-3 2-10-1-3 7 2 8-2 2v5l-7 4v2l-7 2-7-6-5 5h-6l-6 4-5-4h-3l-5-3-1 4 4 3 1 7 4 3 1 7 2 3 4-1 2-3 13 7z"/>
  <path id="金华市" fill="#ff6347" fill-opacity="1" fill-rule="evenodd" stroke="#ffffff" stroke-dasharray="none" stroke-linecap="round" stroke-linejoin="round" stroke-opacity="1" stroke-width="0.5" d="M221 773h2v9l4 8 3 1 4-1v-3l4-3 1-4 6-1 9 10v5l3 1 3-3 15-4 3 11h-7l2 13-2 10 1 9-3 4 2 7 3 1 5-3 2 6 8 4v5l-4 8v15l6-6 7 3v5l3 5h10l2 3h20l3-2 2-5h6l5 5 11-2 1-5 4-3 1-5 7-8v-3l10 2 2-9-9-6 2-5 4-1 5 3 6-1 6-9 1-13 13-13 6-1 3-7-1-2 4-3 1 2 5-3 8-14v-5l8 1 2 3h7l1-3 4-1 16 13 1 3 8-2 12-10 5 8h5v2l8 1 5-10 7 4h5l1-4h6l4-5-3-2v-4l6-9 7-5 2-5 7-4v-19l-4-1 3-5-1-2 5-8 3 8h9l4 5-4 11 4 2 1 5 5 3 3 4h3l4 8 11 4 2-2v-5l4-3 1 4 4-3 3 8 6-4 11 1 3 5 2-8 4-1 2-3-3-4 5-4 2-6 4 5h3v5l11 2 6-3 3-5 6-4 15-4 6-7 1-3-2-5 5-10 1-7 7-1 1 3 7-1 3-3-1-6h2v-6l-3-1 1-5-4-4-4 5-3-8 3-1-4-3 4-4 1-6-4-5 3-4 3-1 5-8 5 2 4-4-5-3h-4l-4-6 7-8 7-5 3-5 7-5-2-2 4-7-3-1-1-3 1-19-6-2-1-2 6-8-8-4-4 2h-5l-2 3h-3l-5-7 3-9-1-3-2 3h-4l-6 7-6-4-3 3-8-4-9 1-3-6-4 4-3-2 2-6-4-4-5-2 2-3-3-5h-4l-6-4-4-8 1-13 3-2-3-5-7 1 1-4-8-7-5 3-13 3-6 11-4-2h-6l-6 5-1 4 3 8-10 2-4 3v4l-3 6h-3l-3 6-7 4-4-3-6-11 1-5 5-6 1-10-5-5-2-7 7-9-5-4-6 1-3-6-6-1-1-3-6-3 2-3-4-6h-5l-6 12-12 5-4 6-5-1-4-4-3 3-5-2-2-4h4l2-8-1-1-11-3-3-3 2-4-6-5-3 2-9-3v-8l5-11 5 1 4-4v-2l-5-3-2-4 4-3v-4l-3-2v7l-2 2-7-3h-5v-3l-6-5-14 3-4-1-1 2-3-1-6 2-6-3h-10l-6-4-4 3-3-1-9 8-6 12 1 9-5 4 2 6-3 6 1 4-5 3-4-1-6 4 8 11-7 2-3 3 1 5-5 8v4l3 6-3 7-6-3-1 7-4 2-1-3h-4l-7-3-7 6v3l-7 10 4 3v5l-12-5-3 3h-6l-5 2-3-2-5 3v6l-5 7-3-1-3 2h-5l-3-7-3-1-3-6 1-2-2-11-3-3-2-9-4 1 2 3-2 4-8 2-2-4h-2l-2-8h-4l-3 6h-3l-5 3-4-1-3 7 4 5-2 11 5 8-1 5 2 2-9 5 1 4-2 1-2 7h-11v4l-19 20v11l3 2v10l4 5-1 5 6 4v6h6l3 5 4 2-1 5 2 2 7-1 3 5-2 3 2 7v12l-2-6-2 15 2 6-4 7h-5l3 4 1 7 5 8 2 7 4 3-4 14-5-1-3 7v4l7-2 3 2-1 3 3 3-5 8z"/>
  <path id="衢州市" fill="#ff6347" fill-opacity="1" fill-rule="evenodd" stroke="#ffffff" stroke-dasharray="none" stroke-linecap="round" stroke-linejoin="round" stroke-opacity="1" stroke-width="0.5" d="m221 773 8-11-3-3 1-3-3-2-7 2v-4l3-7 5 1 4-14-4-3-2-7-5-8-1-7-3-4h5l4-7-2-6 2-15 2 6v-12l-2-7 2-3-3-5-7 1-2-2 1-5-4-2-3-5h-6v-6l-6-4 1-5-4-5v-10l-3-2v-11l10-11-9-1 1-4-5-7 1-3h-8l-3-3 1 8-3 6h3l5 4-2 7 1 3h-3l-1-2-4 1 2 4-2 5-5-1-2-4-7-5-5 4-3-3 1-4h-3l-7 4-7-2-4 3-5-1-21 8-6-8v-7l-8-11-1 1-5-6 5-4v-2l-13-6-10-9-5 4-3-2-6 5-2 5-10 7-1 3-3-1-11 6-4 7-4 1v11l-4 3h-4l-12 11-9-6-17 4-4-1 2-4v-6h-5l-4-9 3-4-4-7 2-5 3 1 5 6v-4l-7-10 1-3-5-6-2-6-3 2-6-5-8 1-8-4-4 1 2-7-2-1-4 2-7-4-6 3-5-2-3-4h-3l-6-5 1-4-8-5 3-5-4-2-4 1-3-4-4-2-2-5-5-2-3-5v-4l-7-9h-5l-2 7 4 12v12l-9 1-2-3-3 2-4-2-4 1-3-3-6 4-5 1-5 10-4 1v2l6 5-2 4 1 8-9 7-1 4-5 4 4 3v3h-3l-6 5-6 1-7-4-4 4-10-3-2 2 3 8-2 8 2 6-3 7h-8l-3 3-3 14-2 3 5 3 1 5-2 10 5 4-6 6 3 5 11 6v5l-3 4 2 6 6 4 3 13 3-6 2 4-4 5h4l1-7 5-3 2 3-3 6 3 4 5 3v-3l7-1 7 4 4 5 1 4 9 3 1 2-7 10-4 1-1 4 2 2 21-9 5 2 6 23 2 1 4 9-3 2 6 5 7 3 14 2 5 10-2 1 3 12h4l-2 7 4 10-4 2v4l4-1 6 4-1 3 6 4v10l-4 2 2 7 2 1-3 7-2 1-2 6 3-1-2 10-2 1 1 6 5 3-2 1 2 5-1 4 3 3 2-2 3 4-6 5-3-1-2 2 2 2h6l6 7 3-3 7 5-7 6 1 3-2 8-4 5 3 1-6 1-4 6 9 6 7 19-2 4h7l-2 3-4 2-4 6-10 6-1 3 3 8h4l-1 3 6 4 7-1 3 3 5-3-4-7 1-4 4-3 3 4h6l5-2 1-5 4 2 9-1 5 6-1 6h10l11-9 5 3h3l6-8 4-15 6-5h2l7-11-2-2 7-16-1-4H7l-4 3v-9l3-10-2-2 1-7-2-6 1-3 6-4 3-6h5l4 2 2-3 10-4 5-5 10 4 7 7h3l13-17-2-5v-6l3-4v-5l3-3v-6l2-3 10-3 2 2 8-9 2-5 4-3 2-5 8-6 5-1 2-4 6-5 6-3 3 2 3-3 9 3 6-1 8-4h3l7-9h9l13 3 3-6 5-4 2-7h10l3-3z"/>
  <path id="舟山市" fill="#ff6347" fill-opacity="1" fill-rule="evenodd" stroke="#ffffff" stroke-dasharray="none" stroke-linecap="round" stroke-linejoin="round" stroke-opacity="1" stroke-width="0.5" d="M1289 245v-3l4-2 12 1 1-5-3-6-5-1-8 2-7-4-17-1-4-3-9 2-9-10-4-2v-4l-4-2-5-1-9 1-8 3-5-1-15-5-14-9-7 6-1 3 18 26 3 11-5 6 1 5 6 4 5 7 5 12 5 1 13-6h12l5 9 7-2h10l26 11 14 10 11-2 6 1 6-15v-13l2-2-1-4h-4l-2-4-6-3-7-11-8 1zm134-318 5 1v-2l-6-3-2 1zm-172 265-3 10 3 8 4 4h3l2-7 5-3-2-1 5-5h4l-2-2 5-3-14-2-1-3-4 1zm20 205 14 9 2-3 7 1 3 3 1-4h-7l-12-6 2-2-3-3-3 1-3-2zm81-437 5 3v7l-5 4v4l3 2 3-2 2 2 13-4 1 3 4-4 4 4 1-3 8 1 1-2-4-4 3-2-3-3-8 2v3l-7 1-5-2-2-6h-3l-3-6-7 1zm-97 173-7 6-2-2-2 3-3-3-11 9-13-2-2 2 2 3 16 7 16 12 18 1 2 4h3v3l8-2-1-12 3-7h-2l-2-5 8-6-6-1-3-8 2-2-5-2-2 2h-7l1-3-4-2-1-4-2 6zm56 34-14 3-1 3 3 4h3l3-3 2 2 1-3 8 2 2-2 5 1 5-3v-6h6l1 7 3-1 2 6 4-1v-3l4-1v-4l4-2-7-2-1-7-2-1-6 2-13 1-10-1-1 2zm131-253-3 1 10 3 1-4h-3l-4-6zm39 25h-3l3 3zm-165 359-1 6 5 7 11 6 2 3v6l-2 4 3 8 3 4 10 2-1-8-5-2 1-7 7-2-1-3 6-1v-10l-8-2-1-2h7l-3-9 1-3-5-3v3h-3l-1 2-8-4-1-2-6 2-2-4zm37-198 3-2-3-3-1-4 1-7-11-5-7 1-3-2 3-5-3-3-6 6-15-2-4 1-6-4-4 1 1 23 14 6 11-2 1-5 5 2 4-1 1 3 3-2h6l3 3zm-38-47-4 1 1 2 9 4 1-11-2 3zm45 40 7 4h6l-5-6 1-3h-4l-2 4zm10 82 1 4 8 2v-4l-5-2zm-78 162h-11l-5 4 4 6 4 1 2 6 14 11h4l5 5 2-3 4-2-6-6 2-6-7-2v-2h8l2-2-2-3-6-2v-2l-7-3zm14-275 4 3 3-1zm-31 362 1 3 4-2zm177-235 2 4 1-9-3 1zm-101 70 3 4-2-7zm-86 93 2 2 2-4-4-3-2 3zm122-173 2-4h-5zM1175-56l5 9 4 29 17 18 4 1 24 18 15 2 2-2-1-5-3 1-5-2v-3l-12-6 1-2-4-4-17-5-5-3-7-11-2-25-6-15zm252 242 3 3 1 4 3-1-1-9h-4zm-133-8 5-2-3-1zm-32 241 4-2 7-16-4-8-7-7-13-9-2-3-3-13-4-1-5 3h-9l-4 4-2 10-7 13 10 7h2l6-6 5 1v6l6 3 2 4v6l3 4 6 2 6-2zm19-14v5l3-2zm85-447 1-4-6-2-1 6zm-40 61v3l6 2zm-102 2-8 2v2l6 6 5-3-1-4 6-2zm104 318 2 5 3 1 1-3-3-1 2-2zm-48 75 5 3v-3zm84-118-1-2-4 4 3 5zm40-296-1-4h5l2-5h-5l-6-5-1 5-3 1v6zm-143 177v5l3-2 1 3 5-1-1-5-5-2zm90-167-1 4 3-2zm-79 168 2 2h11l-3-6-7 5zm-20 254-4 4 3 1 3-5zm-32-236v-5l-4-3-5-1-1 3-3-1-5 5 3 10h3l9-7zm118 89 3-2-2-5 1-6 7 1 1-4-5-3 2-7-11 3-4 18 3 3zm-183-52-10-4h-4l2 14-5 9 1 17-3 8 6 8 8 2 15-8 6-5 1-7-4-11v-6l-3-2-3 1-5-12-5-1zm159-56 3 2 1-3zm-180 67 6 2 2-2-7-7-4 1zm179 98 4 3-3-6zm-103 31-5 1-5 5 2 13 5-1v-8l5-3v-5zM1383-2v3h3zm-135 16 2-3-5 2zm209 184v3l4-2-2-4zM1387-9l6 4 1-3-4-4zm-213 233-6 3-4 5 1 5 5 2v5l6 1 7-16-5-5zm6-73 4-3 5 3 3-1 4-8-3-8-2-1 1-4-3-2-2 3-13 2-7 11 4 1zm264 41h2l1 4 2-3-3-7-5-2zm-166 160v3h5zm70-368-3 4 6 2 3-3zm-291 33 7-2h-7zm185 163 1 5 8-4-2-2zm-96 43-1 5 4-1zm132 159 3 3h3l-3-4zm-17-101-4-4-9 6v2l4-1 6 2 4 5h5l1-2zm7 106 7 4 1-3-5-2zm33 1 3-3h6l-1-5-5-3-6 2-8-3-1-4 2-5-6-4-11 1-1 4 14 17h7zm-49-360 5-2h-4zm38 25v3h6l1-5-4-1zm183 161 2 6 8-2-5-5-4-1zm-207 144-6-1 2 4 6 1 1-2zm-17-70-5 2 3 6 9-1 2-5-3-4zm111-5-2 2 2 2zm6-183 3 2 1-3zm-50-79-1 2 5-1 1-3zm-24 137-4 14 3 1 5-4 15-2-1-7-3 2-1-4zm7 173 4 3h11l2-3h5v-5l2-3-3-2-8 2-6-2-7 3zm133-402 4-3-6-3-1 4zm48 50 4-2v-8l3 1-3-6h-3l-9 7v5l6-1zm-292 251-4 1 2 5 4-4zm33 45 1 8 2 1 6-6-6-6zm28 11h-6v3l6-2zm-60-42 3-2v-5h-3l-2 3zm149-284 2-9-3 1zm-38 44 4-2-2-4h-2l-3 5zm-44 352 4 1 1-2-2-2-4 1zm105-66-3 1 2 4 3-2zm139-313 2-2-1-6-3-4-6-2-3 4 2 4 6 2zm-256 302 4 2v-3zm-13 16-2-5-3 2-1 5 1 2 5-1zm48 96 2 3 1-3zm-6-101 22 11 1-3-13-9-17-7zm-38-2 7 1 1-6-6-2zm-50-43-2 4 4 2v-5zm21 46 1 8 2 3 4-2 4-8-3-5h-3zm83 38 7 1 1-2-4-4h-6zm-23 41-1 5h4v-4zm35-69 1 3 6 1 3-4-2-5h-3l-5 3zm-28 100 1 4 5-1v-2zm-62-121 4 2 1-5h-3zm94 36v2l5 1-1-3z"/>
  <path id="台州市" fill="#ff6347" fill-opacity="1" fill-rule="evenodd" stroke="#ffffff" stroke-dasharray="none" stroke-linecap="round" stroke-linejoin="round" stroke-opacity="1" stroke-width="0.5" d="m1053 620-16-2-3 2-9 14-17-3-12-7-16 1-2-2 1-7-9-9-5 5-4 1 3 5-6 12 1 4-12 12-3-3h-4l-1 9-8-4-1-4-5-1 1-15 2-2-4-1-5-8-2-4v-5l-3-3-8 1-11-2-3-2 3-5-5-9 2-6 5 1-1-9 2-5 7-9h-4l1-4-5-3-1 3-5-1-1-6-4 3-6-3-4 1-1 2v11h-8l1-5-9-2h-7l-5 5-7 1-1-4-5-1-6 4-9 2-3 10-10-4-5-5-4 3v8l-5 3 3 12-6 1-6-3-1-3h-4l-10 10-7-2-11 4 3 1-4 7 2 2-7 5-3 5-7 5-7 8 4 6h4l5 3-4 4-5-2-5 8-3 1-3 4 4 5-1 6-4 4 4 3-3 1 3 8 4-5 4 4-1 5 3 1v6h-2l1 6-3 3-7 1-1-3-7 1-1 7-5 10 2 5-1 3-6 7-15 4-6 4-3 5-6 3-11-2v-5h-3l-4-5-2 6-5 4 3 4-2 3-4 1-2 8-3-5-11-1-10 8-3 7 1 3-3 6-6-1-6 10v9l-2 3-6 2-1 3 3-1 1 5-2 3-7 2-3 13 5 6 8 3v4l-3 2 7 6 1 5 4 3-1 7-3 4-4-3-4 2-6-2-4 3v8l-4-2-7 8v11l4 2 4-6 4 4 4 1 2 6 9-2 5 1 7 14 2-7 5-5-1-8 3-9h2l2-8-2-6 5-2 1-5 9-1 8 4 3 7 8 2 10 9 2-1 4 2 2-3 4 3 15-1 1-6-2-3 4-3 3 2 3-2-4-6 5-3 6 2 7-1 5-4v-6l3-2 7 3 5-3 6 3v5l9 1 4 2 1-2v5l10 5 7 10-4 7 4 4h4l5 10 9 2 6-1 6-7 10 2v-4h3l-2 6 3 5 8 1 3 3 3-2h5l3 2 4-3 5 1 10-2v-5l3-2 1-7 6-8 6 2 3 4 6-1 4 2 9 17 5 2v3l5 3-1 1 3 8 4 1-1 5h5l8 6-3 1-2 8-6 1-2 5-7 2 4 7-3 13-12 17-7 2-3 4-3 39-5 9-6 3 5 6 7 39 3 2 10 1 23-2 8-3 13-12 4-10 1-9 6-10h4l2 3 6 1 4-2 2-8 5-4 4-16 20-22 1-9 7-5 4-7 4-2 9 1 14 7 3 3v9l3 7 16-4 4-3 1-5 4-3-1-8 10-21-3 2-2-5-9 3 1-5 8-8v-5l10-4 2-3v-4l-4-9-6-2 2-12-1-5-6-7-3-8-3-17-7-4-7-1-4-5-10-24-6-4 17-7 21-5 12-6 4-9 2-22 3-13v-9l-6-16-10-2 3-2 26 7h7l6-3v-7l-1-7-11-24-9-6-2-7v-18l-19-12-3-7 1-7 3-6-1-5-16-10zm88 181-1 2 5 1 2 2 3-2-3-5 16-10h-6l-6 6h-9l-2 3 3 2zm-36 18 1 3 5-3 4 1 1 3 5 1 2-7 3-2-2-1-5 5-6-1 3-3-6-2-1 7zm-132 236 5-1v-3zm194-243 8-5-10 1zm-30-26 9-5 3-11-4-2-4 2 3 2-2 4-3 2 2 2zm-55 160v4l3-3zm74-36 6-3 4-8-7-1-1-6-9 6v2h4v5l-3 3 1 1zm-77 80 4 2-1-7-4 2zm-98 82v-9l-3 4 2 1-1 5zm167-142 6-5 3 2 6-4 4-5h-11l-7 8zm-66-280 4 1-2-7-4 1zm3 4 5 2zm-8 10-3 2 6 2zm2 287 3 2v-2zm63-21 3-2-2-2zm-79 82 4 1v-4zm-48 63 3-2 2-4h4l2-3-2-3-8 6zm-57-7h4l5-5 1-4-5 5-5 1zm171-216-5 5 8-3zm-48-210 4 1-2-3zm-196 457 7-3-6 1zm289-177 2 2-1-6z"/>
  <path id="丽水市" fill="#ff6347" fill-opacity="1" fill-rule="evenodd" stroke="#ffffff" stroke-dasharray="none" stroke-linecap="round" stroke-linejoin="round" stroke-opacity="1" stroke-width="0.5" d="m623 760-3-8-4 3-1-4-4 3v5l-2 2-11-4-4-8h-3l-3-4-5-3-1-5-4-2 4-11-4-5h-9l-3-8-5 8 1 2-3 5 4 1v19l-7 4-2 5-7 5-6 9v4l3 2-4 5h-6l-1 4h-5l-7-4-5 10-8-1v-2h-5l-5-8-12 10-8 2-1-3-16-13-4 1-1 3h-7l-2-3-8-1v5l-8 14-5 3-1-2-4 3 1 2-3 7-6 1-13 13-1 13-6 9-6 1-5-3-4 1-2 5 9 6-2 9-10-2v3l-7 8-1 5-4 3-1 5-11 2-5-5h-6l-2 5-3 2h-20l-2-3h-10l-3-5v-5l-7-3-6 6v-15l4-8v-5l-8-4-2-6-5 3-3-1-2-7 3-4-1-9 2-10-2-13h7l-3-11-15 4-3 3-3-1v-5l-9-10-6 1-1 4-4 3v3l-4 1-3-1-4-8v-9h-2l-4-4-3 3h-10l-2 7-5 4-3 6-13-3h-9l-7 9h-3l-8 4-6 1-9-3-3 3-3-2-6 3-6 5-2 4-5 1-8 6-2 5-4 3-2 5-8 9-2-2-10 3-2 3v6l-3 3v5l-3 4v6l2 5-13 17h-3l-7-7-10-4-5 5-10 4-2 3-4-2h-5l-3 6-6 4-1 3 2 6-1 7 2 2-3 10v9l4-3h7l1 4-7 16 2 2-7 11H1l-6 5-1 7 5-2 3 1 3 6-1 7 5 1v4l5 6 10 4 8 1 3 7-3 7-12 9-3 8 8-3 5 2 3 7-2 8 1 6-7 5-4-1-3 2-1 4-7 2-3 6-6 4 1 8 4 4 1 4-3 5v6l2 3-1 8 9 10v2l18 7v3l5 1 1 9 4 4-2 4 4 4-4 8 4 3 1 8 3 3 1 7-4 3v4l5 2 7 16 3 1 4 6 2-1 1 6h-8l-1 2 2 5-2 2 2 6 9 12-1 7 4 1-4 11 1 7 2 3-5 2-3 7-7 3-4 5v5l6-1 2 8 2-1 2 3-1 5 3 1 2 6h11l6 3 2 3 4-10 8-1 1-5-3-3 3-3 3 3 8-1 6 7 7 2 4 4 2-2 6 3 9-8 6 5v4h-4l2 4-1 6 2 2 4-1 3 4 12-1 5 4 6-2 5 2 7-1 2-4 1 4h6l6-15 18-9 5-6-2-5 7-8 6-4 6-2h8l2 1 6 12 5-2 5-5 7-19-1-6 7-9v-17l4-2 3 2 2-4h4l2-2-1-5 4 2v3h6l4-2 2 2 8-4 11 2 3-2 1-5 3-3-2-10 6-2 5-5v-4l6-4 9-3 2-3 3 1 12-16 2 5 4-1 1-11 3-2-3-3 1-8-2-3 6-12-5-8 7-5h3l4 4h3l6-8-7-8 1-2 8-3 2 6 2-1v-6l3-4 6 10 6-1 8-6 12-4 2 6-2 5 2 5 12-1 3-3 4 4 4-1 4-4h8v-4l4-5 3 2 5-5 7-1 20 2 2 2-1 5 2 3 8 7h6l4 2 5-1 2-12 3-2 3 4 4-1 7-7 11-1 1 5 3-1 5-7-5-1 3-12 2-1v-6l-2-2 2-5 3 1 5-2 1-5-4-5 2-4 5-3 3 1 8-9-3-4 1-3-8-4v-2l13-5-3-6 3-4 4-1-3-4-4-2 1-6 8-8-1-5-5-3 2-6-5-14-4-2-3-4h-6l-3-6-4 1-4-3 5-4v-6l-3-3-6-2v-5l3-3-5-7 3-2v-6l2-2 8 3 3 6 3-6-1-5-3-4 5-5 1-8-3-8-5-1-9 2-2-6-4-1-4-4-4 6-4-2v-11l7-8 4 2v-8l4-3 6 2 4-2 4 3 3-4 1-7-4-3-1-5-7-6 3-2v-4l-8-3-5-6 3-13 7-2 2-3-1-5-3 1 1-3 6-2 2-3v-9l6-10 6 1 3-6-1-3 3-7z"/>
</svg>
