<?xml version="1.0" encoding="UTF-8" standalone="no"?>
<svg
   width="1754"
   height="1688"
   viewBox="-251 -228 1754 1688"
   version="1.1"
   id="svg1"
   xmlns="http://www.w3.org/2000/svg"
   xmlns:svg="http://www.w3.org/2000/svg">
  <defs
     id="defs1" />
  <path
     stroke="#ffff00"
     stroke-opacity="1"
     stroke-width="0.5"
     stroke-linecap="round"
     stroke-linejoin="round"
     stroke-dasharray="none"
     fill="#1e90ff"
     fill-opacity="1"
     fill-rule="evenodd"
     d="m 730.99996,151.99998 -5,-5 -2,-14 v -15 l -4,-5 -22,-5 h -49 l -14,3 -8,4 -9,23 -13,-11 4,-11 5,-3 -1,-3 -20,6 -9,-4 -1,-6 -4,-1 6,-3 4,-6 -1,-4 4,-3 -2,-13 2,-3 -4,2 -2,-14 -3,-9 -6,1 -8,6 h -14 l -6,-2 -7,2 -1,-4 -2,5 h -4 v 4 l -4,1 2,4 -11,6 -1,-6 -13,2 -5,-4 1,-4 h -11 l -4,10 v 6 l 3,5 -2,5 1,2 -7,1 -1,-3 h -10 l -4,-4 -8,-1 -6,6 -3,-1 -2,-4 -6,-1 -1,-4 -4,-3 -4,3 -3,-2 -4,1 -7,-2 3,-6 h -5 l -6,-11 -5,3 -7,-6 -8,2 -10,-4 1,-15 -15,-1 -6,-6 -7,5 6,20 -2,6 2,2 -3,9 -2,1 v 5 l 5,8 -9,7 -1,4 -5,4 -5,-3 -3,5 h -5 l 2,-7 -2,-6 4,-1 2,-5 -5,-1 -3,4 -12,4 h -5 l -5,-9 -6,2 -6,6 v 7 l -8,3 -8,-3 -14,-1 -4,8 h -2 l -6,7 -6,1 -10,8 -9,2 -3,-6 -6,-4 -9,4 -8,9 -5,2 -6,-1 -3,5 2,3 -4,12 -3,1 -1,-4 -7,-1 -1,5 -16,-4 -2,-2 h -9 l -14,-8 -6,3 -3,5 -5,-1 -1,-3 h -7 l -9,-6 -6,-2 v -7 l -4,1 -3,-2 -3,2 -2,-5 -7,3 v 3 l -6,5 -14,7 1,7 -2,7 4,12 -2,3 3,2 4,10 8,2 2,4 -7,7 -21,9 -3,4 4,4 4,-2 4,2 h 7 l -3,13 -6,2 -1,4 3,16 4,1 3,5 -2,4 4,5 -4,7 v 7 l 3,6 -3,9 1,9 h -3 l -5,-4 -3,5 -6,-2 -3,3 2,8 -1,10 -23,20 -4,-2 -4,1 -2,6 5,3 -3,3 -4,-1 -2,2 -1,11 4,11 -1,10 -8,7 -2,5 -6,1 -7,8 v 3 l -3,5 -10,11 -10,-5 -6,5 -11,2 -14,20 -13,7 -1,23 -9,5 h -4 l -4,-3 -7,4 -5,-2 -8,1 -4,-2 -1,4 -8,10 -5,1 v 4 l 3,5 5,2 2,5 4,2 3,4 4,-1 4,2 -3,5 8,5 -1,4 6,5 h 3 l 3,4 5,2 6,-3 7,4 4,-2 2,1 -2,7 4,-1 8,4 8,-1 6,5 3,-2 2,6 5,6 -1,3 7,10 v 4 l -5,-6 -3,-1 -2,5 4,7 -3,4 4,9 h 5 v 6 l -2,4 4,1 17,-4 9,6 12,-11 h 4 l 4,-3 v -11 l 4,-1 4,-7 11,-6 3,1 1,-3 10,-7 2,-5 6,-5 3,2 5,-4 10,9 13,6 v 2 l -5,4 5,6 1,-1 8,11 v 7 l 6,8 21,-8 5,1 4,-3 7,2 7,-4 h 3 l -1,4 3,3 5,-4 7,5 2,4 5,1 2,-5 -2,-4 4,-1 1,2 h 3 l -1,-3 2,-7 -5,-4 h -3 l 3,-6 -1,-8 3,3 h 8 l -1,3 5,7 -1,4 9,1 9,-9 v -4 h 11 l 2,-7 2,-1 -1,-4 9,-5 -2,-2 1,-5 -5,-8 2,-11 -4,-5 3,-7 4,1 5,-3 h 3 l 3,-6 h 4 l 2,8 h 2 l 2,4 8,-2 2,-4 -2,-3 4,-1 2,9 3,3 2,11 -1,2 3,6 3,1 3,7 h 5 l 3,-2 3,1 5,-7 v -6 l 5,-3 3,2 5,-2 h 6 l 3,-3 12,5 v -5 l -4,-3 7,-10 v -3 l 7,-6 7,3 h 4 l 1,3 4,-2 1,-7 6,3 3,-7 -3,-6 v -4 l 5,-8 -1,-5 3,-3 7,-2 -8,-11 6,-4 4,1 5,-3 -1,-4 3,-6 -2,-6 5,-4 -1,-9 6,-12 9,-8 3,1 4,-3 6,4 h 10 l 6,3 6,-2 3,1 1,-2 4,1 14,-3 v -7 l -2,-2 -11,-5 -2,3 -4,1 -2,-3 -1,-7 -4,-3 -1,-7 -4,-3 1,-4 5,3 h 3 l 5,4 6,-4 h 6 l 5,-5 7,6 7,-2 v -2 l 7,-4 v -5 l 2,-2 -2,-8 3,-7 10,1 3,-2 8,4 2,-3 -1,-3 4,-6 12,-12 2,-6 v -7 l 4,-1 2,-4 4,1 3,4 7,-8 -1,-2 7,-6 11,3 2,-3 3,5 v 3 l 4,2 3,-1 3,-6 7,3 5,-4 v -3 l 6,-4 2,-8 h 5 l 1,-10 -2,-6 -4,-3 -1,-7 -5,-1 -2,-4 5,-6 -2,-14 -7,-5 -5,4 -5,-4 5,-5 1,-3 -2,-1 5,-4 2,5 h 4 l 4,-7 h 5 v -3 l 2,1 11,-4 4,9 4,1 v -7 l 4,-1 2,3 -1,4 h 8 l 2,-7 h 3 l 1,-7 8,-1 5,1 3,4 4,2 4,-1 8,1 5,3 2,-2 9,2 5,-2 13,-27 9,-7 9,-12 z"
     id="杭州市" />
  <path
     stroke="#ffff00"
     stroke-opacity="1"
     stroke-width="0.5"
     stroke-linecap="round"
     stroke-linejoin="round"
     stroke-dasharray="none"
     fill="#1e90ff"
     fill-opacity="1"
     fill-rule="evenodd"
     d="m 782.99996,157.99998 10,18 12,27 5,16 -4,5 3,1 5,9 3,-2 3,2 2,5 -1,4 4,1 4,7 -2,2 1,7 10,8 8,-2 -2,4 2,3 4,-4 h 5 l 4,2 3,5 3,1 -2,7 -7,5 -8,2 -1,9 -4,6 -3,9 -2,1 5,9 11,8 1,-2 16,10 -4,8 3,5 -8,11 -10,8 -8,-4 -3,2 4,8 -8,2 -1,2 3,5 6,1 -1,2 -9,3 -1,5 3,2 -2,3 h -6 v 4 l 9,3 8,-3 5,-4 2,1 6,9 v 10 l 5,4 5,1 4,5 -1,3 3,1 -5,8 4,-1 2,5 -3,4 v 5 h 6 l 4,5 10,2 h 14 l 2,3 5,-1 2,8 -5,7 4,3 -3,5 -1,11 2,1 -2,4 -3,1 3,7 -1,1 4,1 2,9 -2,4 2,9 -7,4 -4,5 h -3 l -1,12 h 4 l -7,9 -2,5 1,9 -5,-1 -2,6 5,9 -3,5 3,2 11,2 8,-1 3,3 v 5 l 2,4 5,8 4,1 -2,2 -1,15 5,1 1,4 8,4 1,-9 h 4 l 3,3 12,-12 -1,-4 6,-12 -3,-5 4,-1 5,-5 9,9 -1,7 2,2 16,-1 12.00004,7 17,3 9,-14 3,-2 16,2 39,18 13,-5 6,-12 5,24 5,2 6,-2 6,3 5,6 h 7 l 9,-8 5,1 4,8 -4,4 2,3 10,-1 1,8 6,2 6,-3 1,-9 5,-5 v -2 h -6 l 6,-4 2,-4 -1,-11 -3,-3 4,-2 -15,-14 h -4 l 4,-4 h 9 l 2,-13 -4,-8 v -3 l 9,-4 h 4 l -2,-3 1,-5 -7,-2 h -13 l -2,-6 2,-8 5,-7 -3,-4 -7,-4 2,-13 8,-9 6,-2 2,-8 4,-7 v -6 l -7,-7 -2,-12 7,-14 3,-2 -3,-11 5,-5 v -4 l -13,-18 -10,-3 -5,-4 -5,1 -6,6 -8,1 -5,-1 -9,-7 38,-40 24,-6 5,-4 8,-18 4,-5 13,-8 6,-6 12,-5 3,-3 -1,-10 -9,-3 -7,2 -6,5 -26,1 -2,-4 v -10 l -3,-4 -4,-2 -1,-4 -5,-4 -15,11 -2,4 -7,-1 -24,-14 -19,-15 h -21 l -9,-6 -12,-17 -5,-10 -7,1 -6,-8 -1,-9 -32,-49 -11,-14 -16.00004,-17 -21,-16 -9,-14 -16,-11 -18,-4 -19,1 -16,-13 -23,-23 -7,19 -5,20 -17,18 -2,7 -7,6 -7,1 -15,6 -14,9 z m 422.00004,458 -4,11 5,-2 4,2 v -5 l 7,2 4,-3 2,-5 -4,2 -5,-1 -2,-3 5,-2 -3,-2 2,-3 -7,-3 -2,5 2,2 -2,1 4,4 z m 75,133 3,2 2,-3 z m -18,-229 3,-3 6,-1 1,-5 5,1 1,-4 -5,-2 -5,2 v 5 h -7 z m -142,136 v 3 l 6,7 3,-2 3,5 h 3 l 2,-3 1,-10 -3,-5 -5,-2 h -9 l -2,2 z m 143,-158 v 2 l 4,1 v -5 z m -58,-67 v 7 l 5,-4 -2,-4 z m 85,307 3,2 v -3 z m -100,-143 3,3 h 4 l -4,-3 z m -1,-102 4,2 -2,-3 z m -2,-12 3,2 v -3 l 8,2 v -2 l -6,-2 z m -9,131 v 2 l 7,8 5,-1 -4,-8 1,-3 z m -7,63 3,1 5,-4 -2,-1 -6,2 z m 27,-82 -2,3 3,1 2,-4 z m -2,-74 1,2 5,1 1,-2 z m -7,33 -1,-4 2,-3 -5,3 z m 72,-31 -2,3 h 4 z m -62,-208 h 5 l 1,-3 -5,-3 -2,2 z m -1,1 3,3 1,-3 z"
     id="宁波市" />
  <path
     stroke="#ffff00"
     stroke-opacity="1"
     stroke-width="0.5"
     stroke-linecap="round"
     stroke-linejoin="round"
     stroke-dasharray="none"
     fill="#1e90ff"
     fill-opacity="1"
     fill-rule="evenodd"
     d="m 870.99996,1047 6,-3 5,-9 3,-39.00002 3,-4 7,-2 12,-17 3,-13 -4,-7 7,-2 2,-5 6,-1 2,-8 3,-1 -8,-6 h -5 l 1,-5 -4,-1 -3,-8 1,-1 -5,-3 v -3 l -5,-2 -9,-17 -4,-2 -6,1 -3,-4 -6,-2 -6,8 -1,7 -3,2 v 5 l -10,2 -5,-1 -4,3 -3,-2 h -5 l -3,2 -3,-3 -8,-1 -3,-5 2,-6 h -3 v 4 l -10,-2 -6,7 -6,1 -9,-2 -5,-10 h -4 l -4,-4 4,-7 -7,-10 -8,-3 -2,-2 v -5 l -1,2 -4,-2 -9,-1 v -5 l -6,-3 -5,3 -7,-3 -3,2 v 6 l -5,4 -7,1 -6,-2 -5,3 4,6 -3,2 -3,-2 -4,3 2,3 -1,6 -15,1 -4,-3 -2,3 -4,-2 -2,1 -10,-9 -8,-2 -3,-7 -8,-4 -9,1 -1,5 -5,2 2,6 -2,8 h -2 l -3,9 1,8 -5,5 -2,7 -4,-6 -1,8 -5,5 3,4 1,5 -3,6 -3,-6 -8,-3 -2,2 v 6 l -3,2 5,7 -3,3 v 5 l 6,2 3,3 v 6 l -5,4 4,3 4,-1 3,6 h 6 l 3,4 4,2 5,14 -2,6 5,3.00002 1,5 -8,8 -1,6 4,2 3,4 -4,1 -3,4 3,6 -13,5 v 2 l 8,4 -1,3 3,4 -8,9 -3,-1 -5,3 -2,4 4,5 -1,5 -5,2 -3,-1 -2,5 2,2 v 6 l -2,1 -3,12 5,1 -5,7 -3,1 -1,-5 -11,1 -7,7 -4,1 -3,-4 -3,2 -2,12 -5,1 -4,-2 h -6 l -8,-7 -2,-3 1,-5 -2,-2 -20,-2 -7,1 -5,5 -3,-2 -4,5 v 4 h -8 l -4,4 -4,1 -4,-4 -3,3 -12,1 -2,-5 2,-5 -2,-6 -12,4 -8,6 -6,1 -6,-10 -3,4 v 6 l -2,1 -2,-6 -8,3 -1,2 7,8 -6,8 h -3 l -4,-4 h -3 l -7,5 5,8 -6,12 2,3 -1,8 3,3 -3,2 -1,11 -4,1 -2,-5 -12,16 -3,-1 -2,3 -9,3 -6,4 v 4 l -5,5 -6,2 2,10 -3,3 -1,5 -3,2 3,2 -2,5 3,5 -2,6 -5,2 1,15 16,4 -1,7 -4,7 11,1 7,10 -3,5 3,2 v 14 l -2,1 v 5 l -4,4 h -3 l 2,3 5,2 3,9 4,1 6,6 v 4 l 4,1 -4,5 3,1 1,4 7,2 -1,4 5,2 1,3 -2,1 -3,-2 v 8 l 7,1 2,-3 9,6 1,-2 6,1 2,-3 -3,-3 4,-4 4,3 h 5 l -2,4 8,-3 4,1 1,-3 15,2 -2,-9 10,-10 -2,-3 10,-2 3,-3 4,1 1,5 h 2 l 5,9 9,2 9,-13 7,-4 v -5 l 9,-3 3,3 3,-5 -2,-5 3,-3 8,-1 5,2 9,-3 4,3 h 3 l 10,-6 v -2 l 5,3 1,6 -2,2 5,10 6,-3 5,2 4,-1 1,-5 1,3 h 8 l 4,6 -3,7 4,5 -1,3 2,4 6,3 3,7 7,6 3,9 7,7 -3,4 -2,-3 -5,3 -1,3 5,5 -4,8 1,3 8,8 v 4 l 4,5 h 3 l 6,8 11,2 11,-2 8,-6 3,-7 1,-12 3,-7 3,-3 1,-5 -8,-7 4,-9 4,-3 -1,-10 3,-4 12,-7 16,-6 5,-4 1,-24 11,-24 -6,-5 -3,-10 -6,-2 -9,-17 -1,-6 6,-4 12,-15 9,-25 19,-14 4,-7 2,-17 7,6 4,-6 12,7 25,-44 12,-13 11,4 20,23 15,-1 7,7 16,2 7,-1 -7,7 v 4 l 4,-2 5,-9 h 10 l 4,-8 2,-9 -2,-6 -11,-3 -2,-3 1,-7 -2,-3 h -7 l -14,6 h -9 l -7,-2 -23,-21 12,-22 2,-12 10,-26 12,-13 z m -50,202 2,2 4,-4 v -3 l -3,-4 -4,5 z m 84,10 -3,1 2,3 4,-1 4,-5 -2,-1 z m -32,-121 -2,3 2,3 4,-3 v -4 z m 6,65 1,3 4,-2 -2,-3 z m 0,-4 3,2 4,-2 -4,-2 z m -8,134 -1,-4 -6,-3 -2,-4 -6,-3 1,3 -5,-1 1,4 h -3 l -1,3 7,5 h 2 l -3,-5 1,-2 7,4 h 3 z m -74,-102 3,2 v -4 z m 114,33 3,2 1,-3 z m -49,-74 -3,6 6,1 2,-3 -2,-4 z m 23,13 v 3 l 3,-1 z m -117,31 3,4 h 4 l -4,-5 z m 145,-54 1,-3 -5,2 z m -145,70 -1,5 4,-6 z m 138,15 2,1 3,-4 h -3 z m -39,-135 11,-2 7,-4 2,-3 -6,-8 -5,-3 h -17 l -12,9 -1,7 4,3 5,-3 h 6 z m -73,94 -3,2 h 4 z m 105,-104 8,-6 11,-4 1,-3 -7,1 -9,-3 -7,4 -2,5 z m -51,-7 11,-4 5,-4 v -2 l -5,-1 -11,5 z m 13,227 4,1 -1,-3 -4,-1 z m 12,-19 h -2 l 2,4 4,-1 z m -7,-8 -3,1 3,2 z"
     id="温州市" />
  <path
     stroke="#ffff00"
     stroke-opacity="1"
     stroke-width="0.5"
     stroke-linecap="round"
     stroke-linejoin="round"
     stroke-dasharray="none"
     fill="#1e90ff"
     fill-opacity="1"
     fill-rule="evenodd"
     d="m 730.99996,151.99998 6,4 18,5 h 13 l 15,-3 18,-6 14,-9 15,-6 7,-1 7,-6 2,-7 17,-18 5,-20 7,-19 -9,-11 -13,-21 33,-15 1,-5 8,-6 21,-8 5,-4 4,-8 7,-2 -3,-13 2,-6 -1,-3 -5,-6 -9,-5 -2,-8 -3,-4 h -6 v 5 l -3,-3 -7,3 -8,-3 h -10 l -3,-2 4,-2 v -9 l 4,-7 -1,-3 -5,-1 1,-5 -7,-1 -3,-3 -6,4 -7,1 v 3 l -8,5 v 5 l -3,-6 -7,-2 -6,5 -2,-4 10,-13 -1,-4 3,-2 -5,-5 -5,-1 -1,-5 4,-1 -2,-2 1,-11 -3,-14 3,-2 -4,-18 -10,-1 -1,-5 h -4 l 1,5 h -5 l 1,3 -16,-3 -2,6 -8,3 -1,3 -5,-2 -2,2 -2,-4 -7,-3 h -7 l -12,4 v 8 l -4,1 -5,5 h -3 l -4,-3 -6,-1 -1,3 -3,-2 -5,7 5,2 4,7 1,6 v 14 l -4,1 v 7 l -7,-7 -7,9 -2,-1 -1,7 -4,-3 h -7 l -8,3 -5,-3 -9,8 -22,33 -12,-3 v 8 l 6,8 -4,7 -5,4 h -7 l -1,3 5,4 -17,4 v 2 l -10,1 -1,5 -5,1 -3,-4 h -4 l -4,21 -11,2 v 6 l 6,7 -5,6 h -4 l 2,3 v 16 l 6,-1 3,9 2,14 4,-2 -2,3 2,13 -4,3 1,4 -4,6 -6,3 4,1 1,6 9,4 20,-6 1,3 -5,3 -4,11 13,11 9,-23 8,-4 14,-3 h 49 l 10,2 12,3 4,5 v 15 l 2,14 z"
     id="嘉兴市" />
  <path
     stroke="#ffff00"
     stroke-opacity="1"
     stroke-width="0.5"
     stroke-linecap="round"
     stroke-linejoin="round"
     stroke-dasharray="none"
     fill="#1e90ff"
     fill-opacity="1"
     fill-rule="evenodd"
     d="m 645.99996,-50.00002 -5,-10 v -6 l -8,-7 3,-5 -1,-5 -2,-4 -5,-3 4,-4 -4,-8 -2,-1 3,-5 -3,-9 -4,-3 -2,1 2,10 -11,5 h -5 l -3,4 h -3 l -2,-3 v -9 l 2,-5 -1,-5 4,-7 -23,7 -21,3 h -11 l -31,-7 -9,-6 -21,-21 -13,-5 -6,-4 -5,-14 -6,-6 -9,-14 -3,-17 -6,-6 v -4 l -8,1 -7,3 -5,-3 h -9 l -1,-2 h -5 l -1,3 3,2 -8,5 -3,-3 h -3 v -5 l -5,-5 -8,4 -6,-1 -10,2 -3,7 -8,-4 -2,-3 -5,1 v 3 l -8,5 -1,5 -5,2 v 6 l 9,5 -5,5 -2,5 2,7 -2,8 1,11 -3,6 -3,1 -3,5 -8,7 -2,5 v 15 l -6,4 -3,9 1,11 5,8 1,10 -8,1 -10,22 -7,2 -5,-3 -5,3 v 7 l 2,4 -2,3 1,14 -11,14 -1,6 -6,5 -7,1 -5,-7 -1,-8 -2,-3 -7,2 -6,6 -4,1 -8,14 -4,4 -21,3 -3,-2 -2,6 5,4 v 3 l 4,3 v 3 l -7,5 -3,7 2,7 7,2 v 3 l 4,3 5,-1 10,-8 4,-1 4,11 -2,8 2,18 5,3 v 13 l 4,-1 3,5 -1,4 2,2 8,1 3,4 6,-1 6,-7 h 2 l 4,-8 14,1 8,3 8,-3 v -7 l 6,-6 6,-2 5,9 h 5 l 12,-4 3,-4 5,1 -2,5 -4,1 2,6 -2,7 h 5 l 3,-5 5,3 5,-4 1,-4 9,-7 -5,-8 v -5 l 2,-1 3,-9 -2,-2 2,-6 -6,-20 7,-5 6,6 15,1 -1,15 10,4 8,-2 7,6 5,-3 6,11 h 5 l -3,6 7,2 4,-1 3,2 4,-3 4,3 1,4 6,1 2,4 3,1 6,-6 8,1 4,4 h 10 l 1,3 7,-1 -1,-2 2,-5 -3,-5 v -6 l 4,-10 h 11 l -1,4 5,4 13,-2 1,6 11,-6 -2,-4 4,-1 v -4 h 4 l 2,-5 1,4 7,-2 6,2 17,-1 5,-5 1,-4 -1,-12 -2,-3 h 4 l 5,-6 -6,-7 v -6 l 11,-2 4,-21 h 4 l 3,4 5,-1 1,-5 10,-1 v -2 l 17,-4 -5,-4 1,-3 h 7 l 5,-4 4,-7 -6,-8 v -8 z"
     id="湖州市" />
  <path
     stroke="#ffff00"
     stroke-opacity="1"
     stroke-width="0.5"
     stroke-linecap="round"
     stroke-linejoin="round"
     stroke-dasharray="none"
     fill="#1e90ff"
     fill-opacity="1"
     fill-rule="evenodd"
     d="m 457.99996,408.99998 6,5 v 3 h 5 l 7,3 2,-2 v -7 l 3,2 v 4 l -4,3 2,4 5,3 v 2 l -4,4 -5,-1 -5,11 v 8 l 9,3 3,-2 6,5 -2,4 3,3 12,4 -2,8 h -4 l 2,4 5,2 3,-3 4,4 5,1 4,-6 12,-5 6,-12 h 5 l 4,6 -2,3 6,3 1,3 6,1 3,6 6,-1 5,4 -7,9 2,7 5,5 -1,10 -5,6 -1,5 6,11 4,3 7,-4 3,-6 h 3 l 3,-6 v -4 l 4,-3 10,-2 -3,-8 1,-4 6,-5 h 6 l 4,2 6,-11 13,-3 5,-3 8,7 -1,4 7,-1 3,5 -3,2 -1,13 4,8 6,4 h 4 l 3,5 -2,3 5,2 4,4 -2,6 3,2 4,-4 3,6 9,-1 8,4 3,-3 6,4 6,-7 h 4 l 2,-3 1,3 -3,9 5,7 h 3 l 2,-3 h 5 l 4,-2 8,4 -6,8 1,2 6,2 v 22 l 11,-4 7,2 10,-10 h 4 l 1,3 6,3 6,-1 -3,-12 5,-3 v -8 l 4,-3 5,5 10,4 3,-10 9,-2 6,-4 5,1 1,4 7,-1 5,-5 h 7 l 9,2 -1,5 h 8 l 1,-13 4,-1 6,3 4,-3 1,6 5,1 1,-3 5,3 v -8 h 3 l 4,-5 7,-4 -2,-9 2,-4 -2,-9 -4,-1 1,-1 -3,-7 3,-1 2,-4 -2,-1 1,-11 3,-5 -4,-3 5,-7 -2,-8 -5,1 -2,-3 h -14 l -10,-2 -4,-5 h -6 v -5 l 3,-4 -2,-5 -4,1 5,-8 -3,-1 1,-3 -4,-5 -5,-1 -5,-4 v -10 l -6,-9 -2,-1 -5,4 -8,3 -9,-3 v -4 h 6 l 2,-3 -3,-2 1,-5 9,-3 1,-2 -6,-1 -3,-5 1,-2 8,-2 -4,-8 3,-2 8,4 10,-8 8,-11 -3,-5 4,-8 -16,-10 -1,2 -11,-8 -5,-9 2,-1 3,-9 4,-6 1,-9 8,-2 7,-5 2,-7 -3,-1 -3,-5 -4,-2 h -5 l -4,4 -2,-3 2,-4 -8,2 -10,-8 -1,-7 2,-2 -4,-7 -4,-1 1,-4 -2,-5 -3,-2 -3,2 -5,-9 -3,-1 4,-5 -5,-16 -12,-27 -10,-18 -15,3 h -13 l -18,-5 -6,-4 -11,10 -9,12 -9,7 -13,27 -5,2 -9,-2 -2,2 -5,-3 -8,-1 -4,1 -4,-2 -3,-4 -5,-1 -8,1 -1,7 h -3 l -2,7 h -8 l 1,-4 -2,-3 -4,1 v 7 l -4,-1 -4,-9 -11,4 -2,-1 v 3 h -5 l -4,7 h -4 l -2,-5 -5,4 2,1 -1,3 -5,5 5,4 5,-4 7,5 2,14 -5,6 2,4 5,1 1,7 4,3 2,6 -1,10 h -5 l -2,8 -6,4 v 3 l -5,4 -7,-3 -3,6 -3,1 -4,-2 v -3 l -3,-5 -2,3 -11,-3 -7,6 1,2 -7,8 -3,-4 -4,-1 -2,4 -4,1 v 7 l -2,6 -12,12 -4,6 1,3 -2,3 -8,-4 -3,2 -10,-1 -3,7 2,8 -2,2 v 5 l -7,4 v 2 l -7,2 -7,-6 -5,5 h -6 l -6,4 -5,-4 h -3 l -5,-3 -1,4 4,3 1,7 4,3 1,7 2,3 4,-1 2,-3 13,7 z"
     id="绍兴市" />
  <path
     stroke="#ffff00"
     stroke-opacity="1"
     stroke-width="0.5"
     stroke-linecap="round"
     stroke-linejoin="round"
     stroke-dasharray="none"
     fill="#1e90ff"
     fill-opacity="1"
     fill-rule="evenodd"
     d="m 220.99996,772.99998 h 2 v 9 l 4,8 3,1 4,-1 v -3 l 4,-3 1,-4 6,-1 9,10 v 5 l 3,1 3,-3 15,-4 3,11 h -7 l 2,13 -2,10 1,9 -3,4 2,7 3,1 5,-3 2,6 8,4 v 5 l -4,8 v 15 l 6,-6 7,3 v 5 l 3,5 h 10 l 2,3 h 20 l 3,-2 2,-5 h 6 l 5,5 11,-2 1,-5 4,-3 1,-5 7,-8 v -3 l 10,2 2,-9 -9,-6 2,-5 4,-1 5,3 6,-1 6,-9 1,-13 13,-13 6,-1 3,-7 -1,-2 4,-3 1,2 5,-3 8,-14 v -5 l 8,1 2,3 h 7 l 1,-3 4,-1 16,13 1,3 8,-2 12,-10 5,8 h 5 v 2 l 8,1 5,-10 7,4 h 5 l 1,-4 h 6 l 4,-5 -3,-2 v -4 l 6,-9 7,-5 2,-5 7,-4 v -19 l -4,-1 3,-5 -1,-2 5,-8 3,8 h 9 l 4,5 -4,11 4,2 1,5 5,3 3,4 h 3 l 4,8 11,4 2,-2 v -5 l 4,-3 1,4 4,-3 3,8 6,-4 11,1 3,5 2,-8 4,-1 2,-3 -3,-4 5,-4 2,-6 4,5 h 3 v 5 l 11,2 6,-3 3,-5 6,-4 15,-4 6,-7 1,-3 -2,-5 5,-10 1,-7 7,-1 1,3 7,-1 3,-3 -1,-6 h 2 v -6 l -3,-1 1,-5 -4,-4 -4,5 -3,-8 3,-1 -4,-3 4,-4 1,-6 -4,-5 3,-4 3,-1 5,-8 5,2 4,-4 -5,-3 h -4 l -4,-6 7,-8 7,-5 3,-5 7,-5 -2,-2 4,-7 -3,-1 -1,-3 1,-19 -6,-2 -1,-2 6,-8 -8,-4 -4,2 h -5 l -2,3 h -3 l -5,-7 3,-9 -1,-3 -2,3 h -4 l -6,7 -6,-4 -3,3 -8,-4 -9,1 -3,-6 -4,4 -3,-2 2,-6 -4,-4 -5,-2 2,-3 -3,-5 h -4 l -6,-4 -4,-8 1,-13 3,-2 -3,-5 -7,1 1,-4 -8,-7 -5,3 -13,3 -6,11 -4,-2 h -6 l -6,5 -1,4 3,8 -10,2 -4,3 v 4 l -3,6 h -3 l -3,6 -7,4 -4,-3 -6,-11 1,-5 5,-6 1,-10 -5,-5 -2,-7 7,-9 -5,-4 -6,1 -3,-6 -6,-1 -1,-3 -6,-3 2,-3 -4,-6 h -5 l -6,12 -12,5 -4,6 -5,-1 -4,-4 -3,3 -5,-2 -2,-4 h 4 l 2,-8 -1,-1 -11,-3 -3,-3 2,-4 -6,-5 -3,2 -9,-3 v -8 l 5,-11 5,1 4,-4 v -2 l -5,-3 -2,-4 4,-3 v -4 l -3,-2 v 7 l -2,2 -7,-3 h -5 v -3 l -6,-5 -14,3 -4,-1 -1,2 -3,-1 -6,2 -6,-3 h -10 l -6,-4 -4,3 -3,-1 -9,8 -6,12 1,9 -5,4 2,6 -3,6 1,4 -5,3 -4,-1 -6,4 8,11 -7,2 -3,3 1,5 -5,8 v 4 l 3,6 -3,7 -6,-3 -1,7 -4,2 -1,-3 h -4 l -7,-3 -7,6 v 3 l -7,10 4,3 v 5 l -12,-5 -3,3 h -6 l -5,2 -3,-2 -5,3 v 6 l -5,7 -3,-1 -3,2 h -5 l -3,-7 -3,-1 -3,-6 1,-2 -2,-11 -3,-3 -2,-9 -4,1 2,3 -2,4 -8,2 -2,-4 h -2 l -2,-8 h -4 l -3,6 h -3 l -5,3 -4,-1 -3,7 4,5 -2,11 5,8 -1,5 2,2 -9,5 1,4 -2,1 -2,7 h -11 v 4 l -19,20 v 11 l 3,2 v 10 l 4,5 -1,5 6,4 v 6 h 6 l 3,5 4,2 -1,5 2,2 7,-1 3,5 -2,3 2,7 v 12 l -2,-6 -2,15 2,6 -4,7 h -5 l 3,4 1,7 5,8 2,7 4,3 -4,14 -5,-1 -3,7 v 4 l 7,-2 3,2 -1,3 3,3 -5,8 z"
     id="金华市" />
  <path
     stroke="#ffff00"
     stroke-opacity="1"
     stroke-width="0.5"
     stroke-linecap="round"
     stroke-linejoin="round"
     stroke-dasharray="none"
     fill="#1e90ff"
     fill-opacity="1"
     fill-rule="evenodd"
     d="m 220.99996,772.99998 8,-11 -3,-3 1,-3 -3,-2 -7,2 v -4 l 3,-7 5,1 4,-14 -4,-3 -2,-7 -5,-8 -1,-7 -3,-4 h 5 l 4,-7 -2,-6 2,-15 2,6 v -12 l -2,-7 2,-3 -3,-5 -7,1 -2,-2 1,-5 -4,-2 -3,-5 h -6 v -6 l -6,-4 1,-5 -4,-5 v -10 l -3,-2 v -11 l 10,-11 -9,-1 1,-4 -5,-7 1,-3 h -8 l -3,-3 1,8 -3,6 h 3 l 5,4 -2,7 1,3 h -3 l -1,-2 -4,1 2,4 -2,5 -5,-1 -2,-4 -7,-5 -5,4 -3,-3 1,-4 h -3 l -7,4 -7,-2 -4,3 -5,-1 -21,8 -6,-8 v -7 l -8,-11 -1,1 -5,-6 5,-4 v -2 l -13,-6 -10,-9 -5,4 -3,-2 -6,5 -2,5 -10,7 -1,3 -3,-1 -11,6 -4,7 -4,1 v 11 l -4,3 h -4 l -12,11 -9,-6 -17,4 -4,-1 2,-4 v -6 h -5 l -4,-9 3,-4 -4,-7 2,-5 3,1 5,6 v -4 l -7,-10 1,-3 -5,-6 -2,-6 -3,2 -6,-5 -8,1 -8,-4 -4,1 2,-7 -2,-1 -4,2 -7,-4 -6,3 -5,-2 -3,-4 h -3 l -6,-5 1,-4 -8,-5 3,-5 -4,-2 -4,1 -3,-4 -4,-2 -2,-5 -5,-2 -3,-5 v -4 l -7,-9 h -5 l -2,7 4,12 v 12 l -9,1 -2,-3 -3,2 -4,-2 -4,1 -3,-3 -6,4 -5,1 -5,10 -4,1 v 2 l 6,5 -2,4 1,8 -9,7 -1,4 -5,4 4,3 v 3 h -3 l -6,5 -6,1 -7,-4 -4,4 -10,-3 -2,2 3,8 -2,8 2,6 -3,7 h -8 l -3,3 -3,14 -2,3 5,3 1,5 -2,10 5,4 -6,6 3,5 11,6 v 5 l -3,4 2,6 6,4 3,13 3,-6 2,4 -4,5 h 4 l 1,-7 5,-3 2,3 -3,6 3,4 5,3 v -3 l 7,-1 7,4 4,5 1,4 9,3 1,2 -7,10 -4,1 -1,4 2,2 21,-9 5,2 6,23 2,1 4,9 -3,2 6,5 7,3 14,2 5,10 -2,1 3,12 h 4 l -2,7 4,10 -4,2 v 4 l 4,-1 6,4 -1,3 6,4 v 10 l -4,2 2,7 2,1 -3,7 -2,1 -2,6 3,-1 -2,10 -2,1 1,6 5,3 -2,1 2,5 -1,4 3,3 2,-2 3,4 -6,5 -3,-1 -2,2 2,2 h 6 l 6,7 3,-3 7,5 -7,6 1,3 -2,8 -4,5 3,1 -6,1 -4,6 9,6 7,19 -2,4 h 7 l -2,3 -4,2 -4,6 -10,6 -1,3 3,8 h 4 l -1,3 6,4.00002 7,-1 3,3 5,-3 -4,-7.00002 1,-4 4,-3 3,4 h 6 l 5,-2 1,-5 4,2 9,-1 5,6 -1,6 h 10 l 11,-9 5,3 h 3 l 6,-8 4,-15 6,-5 h 2 l 7,-11 -2,-2 7,-16 -1,-4 h -7 l -4,3 v -9 l 3,-10 -2,-2 1,-7 -2,-6 1,-3 6,-4 3,-6 h 5 l 4,2 2,-3 10,-4 5,-5 10,4 7,7 h 3 l 13,-17 -2,-5 v -6 l 3,-4 v -5 l 3,-3 v -6 l 2,-3 10,-3 2,2 8,-9 2,-5 4,-3 2,-5 8,-6 5,-1 2,-4 6,-5 6,-3 3,2 3,-3 9,3 6,-1 8,-4 h 3 l 7,-9 h 9 l 13,3 3,-6 5,-4 2,-7 h 10 l 3,-3 z"
     id="衢州市" />
  <path
     stroke="#ffff00"
     stroke-opacity="1"
     stroke-width="0.5"
     stroke-linecap="round"
     stroke-linejoin="round"
     stroke-dasharray="none"
     fill="#1e90ff"
     fill-opacity="1"
     fill-rule="evenodd"
     d="m 1289,244.99998 v -3 l 4,-2 12,1 1,-5 -3,-6 -5,-1 -8,2 -7,-4 -17,-1 -4,-3 -9,2 -9,-10 -4,-2 v -4 l -4,-2 -5,-1 -9,1 -8,3 -5,-1 -15,-5 -14,-9 -7,6 -1,3 18,26 3,11 -5,6 1,5 6,4 5,7 5,12 5,1 13,-6 h 12 l 5,9 7,-2 h 10 l 26,11 14,10 11,-2 6,1 6,-15 v -13 l 2,-2 -1,-4 h -4 l -2,-4 -6,-3 -7,-11 -8,1 z m 134,-318 5,1 v -2 l -6,-3 -2,1 z m -172,265 -3,10 3,8 4,4 h 3 l 2,-7 5,-3 -2,-1 5,-5 h 4 l -2,-2 5,-3 -14,-2 -1,-3 -4,1 z m 20,205 14,9 2,-3 7,1 3,3 1,-4 h -7 l -12,-6 2,-2 -3,-3 -3,1 -3,-2 z m 81,-437 5,3 v 7 l -5,4 v 4 l 3,2 3,-2 2,2 13,-4 1,3 4,-4 4,4 1,-3 8,1 1,-2 -4,-4 3,-2 -3,-3 -8,2 v 3 l -7,1 -5,-2 -2,-6 h -3 l -3,-6 -7,1 z m -97,173 -7,6 -2,-2 -2,3 -3,-3 -11,9 -13,-2 -2,2 2,3 16,7 16,12 18,1 2,4 h 3 v 3 l 8,-2 -1,-12 3,-7 h -2 l -2,-5 8,-6 -6,-1 -3,-8 2,-2 -5,-2 -2,2 h -7 l 1,-3 -4,-2 -1,-4 -2,6 z m 56,34 -14,3 -1,3 3,4 h 3 l 3,-3 2,2 1,-3 8,2 2,-2 5,1 5,-3 v -6 h 6 l 1,7 3,-1 2,6 4,-1 v -3 l 4,-1 v -4 l 4,-2 -7,-2 -1,-7 -2,-1 -6,2 -13,1 -10,-1 -1,2 z m 131,-253 -3,1 10,3 1,-4 h -3 l -4,-6 z m 39,25 h -3 l 3,3 z m -165,359 -1,6 5,7 11,6 2,3 v 6 l -2,4 3,8 3,4 10,2 -1,-8 -5,-2 1,-7 7,-2 -1,-3 6,-1 v -10 l -8,-2 -1,-2 h 7 l -3,-9 1,-3 -5,-3 v 3 h -3 l -1,2 -8,-4 -1,-2 -6,2 -2,-4 z m 37,-198 3,-2 -3,-3 -1,-4 1,-7 -11,-5 -7,1 -3,-2 3,-5 -3,-3 -6,6 -15,-2 -4,1 -6,-4 -4,1 1,23 14,6 11,-2 1,-5 5,2 4,-1 1,3 3,-2 h 6 l 3,3 z m -38,-47 -4,1 1,2 9,4 1,-11 -2,3 z m 45,40 7,4 h 6 l -5,-6 1,-3 h -4 l -2,4 z m 10,82 1,4 8,2 v -4 l -5,-2 z m -78,162 h -11 l -5,4 4,6 4,1 2,6 14,11 h 4 l 5,5 2,-3 4,-2 -6,-6 2,-6 -7,-2 v -2 h 8 l 2,-2 -2,-3 -6,-2 v -2 l -7,-3 z m 14,-275 4,3 3,-1 z m -31,362 1,3 4,-2 z m 177,-235 2,4 1,-9 -3,1 z m -101,70 3,4 -2,-7 z m -86,93 2,2 2,-4 -4,-3 -2,3 z m 122,-173 2,-4 h -5 z m -212,-235 5,9 4,29 17,18 4,1 24,18 15,2 2,-2 -1,-5 -3,1 -5,-2 v -3 l -12,-6 1,-2 -4,-4 -17,-5 -5,-3 -7,-11 -2,-25 -6,-15 z m 252,242 3,3 1,4 3,-1 -1,-9 h -4 z m -133,-8 5,-2 -3,-1 z m -32,241 4,-2 7,-16 -4,-8 -7,-7 -13,-9 -2,-3 -3,-13 -4,-1 -5,3 h -9 l -4,4 -2,10 -7,13 10,7 h 2 l 6,-6 5,1 v 6 l 6,3 2,4 v 6 l 3,4 6,2 6,-2 z m 19,-14 v 5 l 3,-2 z m 85,-447 1,-4 -6,-2 -1,6 z m -40,61 v 3 l 6,2 z m -102,2 -8,2 v 2 l 6,6 5,-3 -1,-4 6,-2 z m 104,318 2,5 3,1 1,-3 -3,-1 2,-2 z m -48,75 5,3 v -3 z m 84,-118 -1,-2 -4,4 3,5 z m 40,-296 -1,-4 h 5 l 2,-5 h -5 l -6,-5 -1,5 -3,1 v 6 z m -143,177 v 5 l 3,-2 1,3 5,-1 -1,-5 -5,-2 z m 90,-167 -1,4 3,-2 z m -79,168 2,2 h 11 l -3,-6 -7,5 z m -20,254 -4,4 3,1 3,-5 z m -32,-236 v -5 l -4,-3 -5,-1 -1,3 -3,-1 -5,5 3,10 h 3 l 9,-7 z m 118,89 3,-2 -2,-5 1,-6 7,1 1,-4 -5,-3 2,-7 -11,3 -4,18 3,3 z m -183,-52 -10,-4 h -4 l 2,14 -5,9 1,17 -3,8 6,8 8,2 15,-8 6,-5 1,-7 -4,-11 v -6 l -3,-2 -3,1 -5,-12 -5,-1 z m 159,-56 3,2 1,-3 z m -180,67 6,2 2,-2 -7,-7 -4,1 z m 179,98 4,3 -3,-6 z m -103,31 -5,1 -5,5 2,13 5,-1 v -8 l 5,-3 v -5 z m 173,-375 v 3 h 3 z m -135,16 2,-3 -5,2 z m 209,184 v 3 l 4,-2 -2,-4 z m -70,-207 6,4 1,-3 -4,-4 z m -213,233 -6,3 -4,5 1,5 5,2 v 5 l 6,1 7,-16 -5,-5 z m 6,-73 4,-3 5,3 3,-1 4,-8 -3,-8 -2,-1 1,-4 -3,-2 -2,3 -13,2 -7,11 4,1 z m 264,41 h 2 l 1,4 2,-3 -3,-7 -5,-2 z m -166,160 v 3 h 5 z m 70,-368 -3,4 6,2 3,-3 z m -291,33 7,-2 h -7 z m 185,163 1,5 8,-4 -2,-2 z m -96,43 -1,5 4,-1 z m 132,159 3,3 h 3 l -3,-4 z m -17,-101 -4,-4 -9,6 v 2 l 4,-1 6,2 4,5 h 5 l 1,-2 z m 7,106 7,4 1,-3 -5,-2 z m 33,1 3,-3 h 6 l -1,-5 -5,-3 -6,2 -8,-3 -1,-4 2,-5 -6,-4 -11,1 -1,4 14,17 h 7 z m -49,-360 5,-2 h -4 z m 38,25 v 3 h 6 l 1,-5 -4,-1 z m 183,161 2,6 8,-2 -5,-5 -4,-1 z m -207,144 -6,-1 2,4 6,1 1,-2 z m -17,-70 -5,2 3,6 9,-1 2,-5 -3,-4 z m 111,-5 -2,2 2,2 z m 6,-183 3,2 1,-3 z m -50,-79 -1,2 5,-1 1,-3 z m -24,137 -4,14 3,1 5,-4 15,-2 -1,-7 -3,2 -1,-4 z m 7,173 4,3 h 11 l 2,-3 h 5 v -5 l 2,-3 -3,-2 -8,2 -6,-2 -7,3 z m 133,-402 4,-3 -6,-3 -1,4 z m 48,50 4,-2 v -8 l 3,1 -3,-6 h -3 l -9,7 v 5 l 6,-1 z m -292,251 -4,1 2,5 4,-4 z m 33,45 1,8 2,1 6,-6 -6,-6 z m 28,11 h -6 v 3 l 6,-2 z m -60,-42 3,-2 v -5 h -3 l -2,3 z m 149,-284 2,-9 -3,1 z m -38,44 4,-2 -2,-4 h -2 l -3,5 z m -44,352 4,1 1,-2 -2,-2 -4,1 z m 105,-66 -3,1 2,4 3,-2 z m 139,-313 2,-2 -1,-6 -3,-4 -6,-2 -3,4 2,4 6,2 z m -256,302 4,2 v -3 z m -13,16 -2,-5 -3,2 -1,5 1,2 5,-1 z m 48,96 2,3 1,-3 z m -6,-101 22,11 1,-3 -13,-9 -17,-7 z m -38,-2 7,1 1,-6 -6,-2 z m -50,-43 -2,4 4,2 v -5 z m 21,46 1,8 2,3 4,-2 4,-8 -3,-5 h -3 z m 83,38 7,1 1,-2 -4,-4 h -6 z m -23,41 -1,5 h 4 v -4 z m 35,-69 1,3 6,1 3,-4 -2,-5 h -3 l -5,3 z m -28,100 1,4 5,-1 v -2 z m -62,-121 4,2 1,-5 h -3 z m 94,36 v 2 l 5,1 -1,-3 z"
     id="舟山市" />
  <path
     stroke="#ffff00"
     stroke-opacity="1"
     stroke-width="0.5"
     stroke-linecap="round"
     stroke-linejoin="round"
     stroke-dasharray="none"
     fill="#1e90ff"
     fill-opacity="1"
     fill-rule="evenodd"
     d="m 1053,619.99998 -16,-2 -3,2 -9,14 -17,-3 -12.00004,-7 -16,1 -2,-2 1,-7 -9,-9 -5,5 -4,1 3,5 -6,12 1,4 -12,12 -3,-3 h -4 l -1,9 -8,-4 -1,-4 -5,-1 1,-15 2,-2 -4,-1 -5,-8 -2,-4 v -5 l -3,-3 -8,1 -11,-2 -3,-2 3,-5 -5,-9 2,-6 5,1 -1,-9 2,-5 7,-9 h -4 l 1,-4 -5,-3 -1,3 -5,-1 -1,-6 -4,3 -6,-3 -4,1 -1,2 v 11 h -8 l 1,-5 -9,-2 h -7 l -5,5 -7,1 -1,-4 -5,-1 -6,4 -9,2 -3,10 -10,-4 -5,-5 -4,3 v 8 l -5,3 3,12 -6,1 -6,-3 -1,-3 h -4 l -10,10 -7,-2 -11,4 3,1 -4,7 2,2 -7,5 -3,5 -7,5 -7,8 4,6 h 4 l 5,3 -4,4 -5,-2 -5,8 -3,1 -3,4 4,5 -1,6 -4,4 4,3 -3,1 3,8 4,-5 4,4 -1,5 3,1 v 6 h -2 l 1,6 -3,3 -7,1 -1,-3 -7,1 -1,7 -5,10 2,5 -1,3 -6,7 -15,4 -6,4 -3,5 -6,3 -11,-2 v -5 h -3 l -4,-5 -2,6 -5,4 3,4 -2,3 -4,1 -2,8 -3,-5 -11,-1 -10,8 -3,7 1,3 -3,6 -6,-1 -6,10 v 9 l -2,3 -6,2 -1,3 3,-1 1,5 -2,3 -7,2 -3,13 5,6 8,3 v 4 l -3,2 7,6 1,5 4,3 -1,7 -3,4 -4,-3 -4,2 -6,-2 -4,3 v 8 l -4,-2 -7,8 v 11 l 4,2 4,-6 4,4 4,1 2,6 9,-2 5,1 7,14 2,-7 5,-5 -1,-8 3,-9 h 2 l 2,-8 -2,-6 5,-2 1,-5 9,-1 8,4 3,7 8,2 10,9 2,-1 4,2 2,-3 4,3 15,-1 1,-6 -2,-3 4,-3 3,2 3,-2 -4,-6 5,-3 6,2 7,-1 5,-4 v -6 l 3,-2 7,3 5,-3 6,3 v 5 l 9,1 4,2 1,-2 v 5 l 10,5 7,10 -4,7 4,4 h 4 l 5,10 9,2 6,-1 6,-7 10,2 v -4 h 3 l -2,6 3,5 8,1 3,3 3,-2 h 5 l 3,2 4,-3 5,1 10,-2 v -5 l 3,-2 1,-7 6,-8 6,2 3,4 6,-1 4,2 9,17 5,2 v 3 l 5,3 -1,1 3,8 4,1 -1,5 h 5 l 8,6 -3,1 -2,8 -6,1 -2,5 -7,2 4,7 -3,13 -12,17 -7,2 -3,4 -3,39.00002 -5,9 -6,3 5,6 7,39 3,2 10,1 23,-2 8,-3 13,-12 4,-10 1,-9 6,-10 h 4 l 2,3 6,1 4,-2 2,-8 5,-4 4,-16 20,-22 1,-9.00002 7.00004,-5 4,-7 4,-2 9,1 14,7 3,3 v 9 l 3,7.00002 16,-4 4,-3.00002 1,-5 4,-3 -1,-8 10,-21 -3,2 -2,-5 -9,3 1,-5 8,-8 v -5 l 10,-4 2,-3 v -4 l -4,-9 -6,-2 2,-12 -1,-5 -6,-7 -3,-8 -3,-17 -7,-4 -7,-1 -4,-5 -10,-24 -6,-4 17,-7 21,-5 12,-6 4,-9 2,-22 3,-13 v -9 l -6,-16 -10,-2 3,-2 26,7 h 7 l 6,-3 v -7 l -1,-7 -11,-24 -9,-6 -2,-7 v -18 l -19,-12 -3,-7 1,-7 3,-6 -1,-5 -16,-10 z m 88,181 -1,2 5,1 2,2 3,-2 -3,-5 16,-10 h -6 l -6,6 h -9 l -2,3 3,2 z m -36,18 1,3 5,-3 4,1 1,3 5,1 2,-7 3,-2 -2,-1 -5,5 -6,-1 3,-3 -6,-2 -1,7 z M 972.99996,1055 l 5,-1 v -3 z M 1167,811.99998 l 8,-5 -10,1 z m -30,-26 9,-5 3,-11 -4,-2 -4,2 3,2 -2,4 -3,2 2,2 z m -55,160 v 4 l 3,-3 z m 74,-36 6,-3 4,-8 -7,-1 -1,-6 -9,6 v 2 h 4 v 5 l -3,3 1,1 z m -77,80 4,2 -1,-7 -4,2 z M 980.99996,1072 v -9 l -3,4 2,1 -1,5 z M 1148,929.99998 l 6,-5 3,2 6,-4 4,-5 h -11 l -7,8 z m -66,-280 4,1 -2,-7 -4,1 z m 3,4 5,2 z m -8,10 -3,2 6,2 z m 2,287 3,2 v -2 z m 63,-21 3,-2 -2,-2 z M 1063,1012 l 4,1 v -4 z m -48,63 3,-2 2,-4 h 4 l 2,-3 -2,-3 -8,6 z m -57.00004,-7 h 4 l 5,-5 1,-4 -5,5 -5,1 z M 1129,851.99998 l -5,5 8,-3 z m -48,-210 4,1 -2,-3 z M 884.99996,1099 l 7,-3 -6,1 z M 1174,921.99998 l 2,2 -1,-6 z"
     id="台州市" />
  <path
     stroke="#ffff00"
     stroke-opacity="1"
     stroke-width="0.5"
     stroke-linecap="round"
     stroke-linejoin="round"
     stroke-dasharray="none"
     fill="#1e90ff"
     fill-opacity="1"
     fill-rule="evenodd"
     d="m 622.99996,759.99998 -3,-8 -4,3 -1,-4 -4,3 v 5 l -2,2 -11,-4 -4,-8 h -3 l -3,-4 -5,-3 -1,-5 -4,-2 4,-11 -4,-5 h -9 l -3,-8 -5,8 1,2 -3,5 4,1 v 19 l -7,4 -2,5 -7,5 -6,9 v 4 l 3,2 -4,5 h -6 l -1,4 h -5 l -7,-4 -5,10 -8,-1 v -2 h -5 l -5,-8 -12,10 -8,2 -1,-3 -16,-13 -4,1 -1,3 h -7 l -2,-3 -8,-1 v 5 l -8,14 -5,3 -1,-2 -4,3 1,2 -3,7 -6,1 -13,13 -1,13 -6,9 -6,1 -5,-3 -4,1 -2,5 9,6 -2,9 -10,-2 v 3 l -7,8 -1,5 -4,3 -1,5 -11,2 -5,-5 h -6 l -2,5 -3,2 h -20 l -2,-3 h -10 l -3,-5 v -5 l -7,-3 -6,6 v -15 l 4,-8 v -5 l -8,-4 -2,-6 -5,3 -3,-1 -2,-7 3,-4 -1,-9 2,-10 -2,-13 h 7 l -3,-11 -15,4 -3,3 -3,-1 v -5 l -9,-10 -6,1 -1,4 -4,3 v 3 l -4,1 -3,-1 -4,-8 v -9 h -2 l -4,-4 -3,3 h -10 l -2,7 -5,4 -3,6 -13,-3 h -9 l -7,9 h -3 l -8,4 -6,1 -9,-3 -3,3 -3,-2 -6,3 -6,5 -2,4 -5,1 -8,6 -2,5 -4,3 -2,5 -8,9 -2,-2 -10,3 -2,3 v 6 l -3,3 v 5 l -3,4 v 6 l 2,5 -13,17 h -3 l -7,-7 -10,-4 -5,5 -10,4 -2,3 -4,-2 h -5 l -3,6 -6,4 -1,3 2,6 -1,7 2,2 -3,10 v 9 l 4,-3 h 7 l 1,4 -7,16 2,2 -7,11 h -2 l -6,5 -1,7 5,-2 3,1 3,6 -1,7 5,1 v 4 l 5,6 10,4.00002 8,1 3,7 -3,7 -12,9 -3,8 8,-3 5,2 3,7 -2,8 1,6 -7,5 -4,-1 -3,2 -1,4 -7,2 -3,6 -6,4 1,8 4,4 1,4 -3,5 v 6 l 2,3 -1,8 9,10 v 2 l 18,7 v 3 l 5,1 1,9 4,4 -2,4 4,4 -4,8 4,3 1,8 3,3 1,7 -4,3 v 4 l 5,2 7,16 3,1 4,6 2,-1 1,6 h -8 l -1,2 2,5 -2,2 2,6 9,12 -1,7 4,1 -4,11 1,7 2,3 -5,2 -3,7 -7,3 -4,5 v 5 l 6,-1 2,8 2,-1 2,3 -1,5 3,1 2,6 h 11 l 6,3 2,3 4,-10 8,-1 1,-5 -3,-3 3,-3 3,3 8,-1 6,7 7,2 4,4 2,-2 6,3 9,-8 6,5 v 4 h -4 l 2,4 -1,6 2,2 4,-1 3,4 12,-1 5,4 6,-2 5,2 7,-1 2,-4 1,4 h 6 l 6,-15 18,-9 5,-6 -2,-5 7,-8 6,-4 6,-2 h 8 l 2,1 6,12 5,-2 5,-5 7,-19 -1,-6 7,-9 v -17 l 4,-2 3,2 2,-4 h 4 l 2,-2 -1,-5 4,2 v 3 h 6 l 4,-2 2,2 8,-4 11,2 3,-2 1,-5 3,-3 -2,-10 6,-2 5,-5 v -4 l 6,-4 9,-3 2,-3 3,1 12,-16 2,5 4,-1 1,-11 3,-2 -3,-3 1,-8 -2,-3 6,-12 -5,-8 7,-5 h 3 l 4,4 h 3 l 6,-8 -7,-8 1,-2 8,-3 2,6 2,-1 v -6 l 3,-4 6,10 6,-1 8,-6 12,-4 2,6 -2,5 2,5 12,-1 3,-3 4,4 4,-1 4,-4 h 8 v -4 l 4,-5 3,2 5,-5 7,-1 20,2 2,2 -1,5 2,3 8,7 h 6 l 4,2 5,-1 2,-12 3,-2 3,4 4,-1 7,-7 11,-1 1,5 3,-1 5,-7 -5,-1 3,-12 2,-1 v -6 l -2,-2 2,-5 3,1 5,-2 1,-5 -4,-5 2,-4 5,-3 3,1 8,-9 -3,-4 1,-3 -8,-4 v -2 l 13,-5 -3,-6 3,-4 4,-1 -3,-4 -4,-2 1,-6 8,-8 -1,-5 -5,-3.00002 2,-6 -5,-14 -4,-2 -3,-4 h -6 l -3,-6 -4,1 -4,-3 5,-4 v -6 l -3,-3 -6,-2 v -5 l 3,-3 -5,-7 3,-2 v -6 l 2,-2 8,3 3,6 3,-6 -1,-5 -3,-4 5,-5 1,-8 -3,-8 -5,-1 -9,2 -2,-6 -4,-1 -4,-4 -4,6 -4,-2 v -11 l 7,-8 4,2 v -8 l 4,-3 6,2 4,-2 4,3 3,-4 1,-7 -4,-3 -1,-5 -7,-6 3,-2 v -4 l -8,-3 -5,-6 3,-13 7,-2 2,-3 -1,-5 -3,1 1,-3 6,-2 2,-3 v -9 l 6,-10 6,1 3,-6 -1,-3 3,-7 z"
     id="丽水市" />
</svg>