<?xml version="1.0" encoding="UTF-8" standalone="no"?>
<svg
   width="843.99994"
   height="1527"
   viewBox="-251 -228 843.99994 1527"
   version="1.1"
   id="svg1"
   xmlns="http://www.w3.org/2000/svg"
   xmlns:svg="http://www.w3.org/2000/svg">
  <defs
     id="defs1" />
  <path
     stroke="#ffff00"
     stroke-opacity="1"
     stroke-width="0.5"
     stroke-linecap="round"
     stroke-linejoin="round"
     stroke-dasharray="none"
     fill="#1e90ff"
     fill-opacity="1"
     fill-rule="evenodd"
     d="m -112,-214.00001 5,5 -1,8 3,3 4,10 -2,4 2,3 8,-1 2,-3 5,3 -2,4 8,8 3,-2 5,5 6,1 3,-2 -1,-4 4,-5 -5,-2 v -7 l 4,-7 h 4 l -1,-5 h -2 v -5 l -4,-5 -10,-11 -12,-4 -7,1 -2,5 -4,-2 h -9 z"
     id="海口市" />
  <path
     stroke="#ffff00"
     stroke-opacity="1"
     stroke-width="0.5"
     stroke-linecap="round"
     stroke-linejoin="round"
     stroke-dasharray="none"
     fill="#1e90ff"
     fill-opacity="1"
     fill-rule="evenodd"
     d="m -219,-51.00001 2,3 5,-2 h 9 l 3,5 14,1 6,4 19,7 15,-3 2,-2 3,-13 2,-1 -2,-8 2,-3 -2,-5 -6,2 -1,6 -4,3 h -11 l -3,-3 2,-10 -10,-4 -2,-5 -6,5 -2,5 -6,-4 -4,1 -2,4 1,4 -16,4 z"
     id="三亚市" />
  <path
     stroke="#ffff00"
     stroke-opacity="1"
     stroke-width="0.5"
     stroke-linecap="round"
     stroke-linejoin="round"
     stroke-dasharray="none"
     fill="#1e90ff"
     fill-opacity="1"
     fill-rule="evenodd"
     d="m 176,904.99999 7,-6 -5,6 5,-4 4,-6 v -5 l -3,-2 -1,7 -5,5 z m -164,-836 5,-2 -3,4 6,-3 -1,-3 -8,3 z m 568,180 2,7 9,-1 -9,-2 -1,-6 3,-3 -3,1 z m -544,-96 6,-1 2,-3 -3,-4 -9,2 h 9 l 1,3 z m 197,800 2,3 6,3 h 7 l 28,-9 3,-4 2,-8 4,-5 7,-4 v -8 l -6,-2 -6,2 -13,7 -5,8 -17,11 -10,3 z m -204,-806 -7,5 -1,4 4,1 7,-6 -7,3 -1,-1 7,-6 z m 211,689 4,3 2,5 2,-3 -6,-5 z m -1,3 1,4 h 4 l -4,-4 z m -181,-698 8,1 1,-4 h -6 z m -21,-13 4,-6 -4,-3 2,5 z m 223,718 2,5 3,-2 -2,-5 z m -178,-769 -1,3 6,-1 z m 328,682 2,1 v 4 l 4,-1 2,-11 -5,1 z m -111,-24 2,5 3,-1 1,-5 z m 6,-35 4,3 1,-6 -3,1 z m -475,277 v 3 l 4,-1 13,-15 5,-3 8,-1 13,2 1,-2 -12,-4 -9,-1 -6,2 -11,10 z m 392,-27 v 3 l 5,-1 v -3 z m 227,-115 2,2 4,-3 -3,-2 z m -345,-664 12,-3 -2,-3 -11,2 -2,4 z m 5,668 3,2 h 7 l -4,-4 z m 241,43 1,2 6,1 1,-2 z m -65,-227 1,2 3,-3 5,1 3,-2 -1,-5 -3,1 z m -187,-512 -3,3 15,-2 -1,-3 z m -6,-58 -1,-5 h -3 z m -77,43 4,2 1,-2 z m 364,614 4,2 3,-4 -5,-2 z m 90,-46 -2,8 h 9 l 7,-3 v -3 l -12,2 3,-7 z m -236,220 1,4 6,2 -3,-7 z m 56,-11 1,2 7,-2 2,-2 -2,-1 z m 15,-8 1,2 h 5 l -1,-2 z m 69,-106 h 3 l -1,-5 z m -163,36 1,1 7,-4 -1,-1 z m 256,-19 2,4 1,-5 z M 114,1194 l 1,3 3,-1 1,-3 -4,-1 z m 123,-358.00001 -2,-1 -2,2 3,2 z M 61,1296 l 5,1 -2,-3 z m -188,-366.00001 1,3 3,1 6,-3 3,-5 v -5 l -5,1 -7,5 z m 433,-291 9,-7 v -2 l -3,-1 -5,7 z m 19,13 2,2 3,-5 h -2 z m -303,-525 3,3 -2,-5 z m 277,472 h 3 l 1,-8 -4,1 z m -192,-472 7,-5 -1,-2 -7,5 z m 208,775 -2,4 h 3 z m 176,-309 3,7 1,-2 -3,-6 z m -459,-477 4,2 -1,-3 z m 197,614 1,2 1,-11 h -2 z m -190,-565 1,4 5,-2 v -2 z M 116,1188 l 4,4 1,-3 z m 307,-393.00001 -5,1 1,4 6,-3 z m -211,8 1,3 2,-2 z m 95,-648 10,-2 -1,-2 -9,1 z m 52,559 1,2 4,-2 z m -56,240 2,2 3,-3 -4,-1 z m 54,-84 1,2 3,-3 z m -437,36 1,4 8,-2 4,-6 -3,-1 -10,4 z m 252,4 5,-4 h -2 z m 93,-200 7,-4 -1,-2 -4,3 z m 22,-44 7,-6 -2,-1 z m 18,-70 4,4 -1,-6 z m 178,89 6,2 -1,-3 z m 103,-24 2,1 4,-4 -3,-4 z M 103,1189 l 4,2 -1,-3 z m -22,105 h 4 l -2,-3 z m 2,-6 3,-1 -2,-2 z m 297,-417.00001 1,3 h 3 v -6 l -4,1 z m -460,64 3,1 2,-2 -2,-2 z m 14,-20 3,2 v -3 z m 85,43 h 4 l 2,-4 -4,-1 z m 35,-48 3,2 5,-2 v -2 l -6,-1 z m 38,-79 4,1 v -3 z m 447,-129 4,1 -2,-4 z m -277,-535 9,1 -1,-2 z m -13,480 h 4 l -1,-3 z m -220,208 1,4 5,-2 -2,-3 z m 403,-197 3,1 -2,-4 z m -112,328 -3,5 5,-1 z M 206,1012 l -2,3 3,1 z m -97,107 3,3 v -6 z m 213,-201.00001 1,3 3,-2 v -3 z m -292,30 4,1 4,-5 -2,-3 -4,2 z m 267,-109 h 4 l 4,-4 h -6 z m 132,-116 2,3 2,-3 -2,-3 z m 111,-55 12,2 2,-3 -5,-4 -7,1 z M 108,1131 l 2,4 2,-1 v -5 l -3,-1 z m 6,9 2,9 3,-2 -2,-8 z m 6,42 v 4 l 3,1 3,-3 -4,-4 z m -92,-257.00001 6,2 v -4 h -5 z m 114,6 3,1 v -3 z m -59,-95 3,2 1,-3 z m 464,-112 4,2 -1,-4 z m -59,-585 2,4 3,-2 v -4 l -3,-1 z m -205,29 7,-2 -5,-1 z m -132,-329 h 4 l -1,-5 h -3 z m 76,31 8,-2 v -5 h -10 l -1,3 z M 111,1181 l 1,4 4,-2 -1,-3 z m 32,11 h 3 l 1,-5 -4,1 z m 223,-827.00001 4,2 3,-2 -1,-3 z m -285,-266 3,-1 -4,-2 z m 1,101 1,-4 -4,2 z M 116,1158 l 3,2 4,-3 v -3 h -4 z m 213,-196.00001 3,3 3,-1 v -4 z m -309,-28 3,3 3,-6 -2,-2 z m 307,-766 h -3 l 1,3 z m 166,651 -5,1 4,2 z m -256,-632 3,3 v -3 z m -118,-52 4,-2 -2,-2 z m 284,554 1,3 3,-3 z m -296,85 v 2 l 5,1 v -4 z m 191,-569 -3,2 3,1 z m 245,427 -3,2 3,3 z m 35,3 h -3 l 3,3 z m -320,154 v 4 l 2,-5 z"
     id="三沙市" />
  <path
     stroke="#ffff00"
     stroke-opacity="1"
     stroke-width="0.5"
     stroke-linecap="round"
     stroke-linejoin="round"
     stroke-dasharray="none"
     fill="#1e90ff"
     fill-opacity="1"
     fill-rule="evenodd"
     d="m -219,-166.00001 1,3 4,2 1,4 h 4 l 1,-5 6,2 1,-1 5,7 8,3 4,-2 6,4 h 4 l 3,-5 h 2 l 3,4 -4,6 7,-1 4,7 2,-1 2,4 h 4 l 1,3 2,-4 v -9 l -1,-4 h -5 v -5 l 10,-1 -2,-8 3,-3 v -5 h -5 l -5,-3 1,-2 -8,-1 -2,-5 4,-4 -3,-6 v -6 l -24,-6 -3,2 -1,3 -4,1 -5,7 1,5 -2,3 -5,1 -4,7 -5,3 z"
     id="儋州市" />
  <path
     stroke="#ffff00"
     stroke-opacity="1"
     stroke-width="0.5"
     stroke-linecap="round"
     stroke-linejoin="round"
     stroke-dasharray="none"
     fill="#1e90ff"
     fill-opacity="1"
     fill-rule="evenodd"
     d="m -147,-99.00001 -2,-5 3,-3 -5,-1 -7,2 -4,-4 -3,-8 h -5 l -1,3 -3,1 -5,5 -2,-1 -2,2 2,5 3,2 -2,4 v 10 l 4,4 1,4 3,-3 h 9 l -1,-4 4,-2 4,4 2,-4 h 5 l -2,-6 1,-5 z"
     id="五指山市" />
  <path
     stroke="#ffff00"
     stroke-opacity="1"
     stroke-width="0.5"
     stroke-linecap="round"
     stroke-linejoin="round"
     stroke-dasharray="none"
     fill="#1e90ff"
     fill-opacity="1"
     fill-rule="evenodd"
     d="m -66,-123.00001 1,-7 10,-22 -9,-1 -3,4 -5,-11 -9,2 -2,3 -5,2 -4,8 3,1 -1,7 -11,1 -5,3 -2,-2 -3,7 1,8 3,5 h 6 l 2,2 25,-12 z"
     id="琼海市" />
  <path
     stroke="#ffff00"
     stroke-opacity="1"
     stroke-width="0.5"
     stroke-linecap="round"
     stroke-linejoin="round"
     stroke-dasharray="none"
     fill="#1e90ff"
     fill-opacity="1"
     fill-rule="evenodd"
     d="m -55,-152.00001 5,-1 12,-15 14,-8 -9,-37 h -9 l -6,-2 -6,-4 -2,-7 -3,-1 -15,8 14,16 v 5 h 2 l 1,5 h -4 l -4,7 v 7 l 5,2 -4,5 1,4 -3,2 -6,-1 -2,-2 -5,3 2,3 3,-1 7,15 3,-4 z"
     id="文昌市" />
  <path
     stroke="#ffff00"
     stroke-opacity="1"
     stroke-width="0.5"
     stroke-linecap="round"
     stroke-linejoin="round"
     stroke-dasharray="none"
     fill="#1e90ff"
     fill-opacity="1"
     fill-rule="evenodd"
     d="m -107,-115.00001 -10,11 4,7 -3,5 -4,3 v 7 l 9,6 2,-1 7,2 10,-6 h 16 v -10 l 7,-3 3,-29 -8,-2 -25,12 -2,-2 z"
     id="万宁市" />
  <path
     stroke="#ffff00"
     stroke-opacity="1"
     stroke-width="0.5"
     stroke-linecap="round"
     stroke-linejoin="round"
     stroke-dasharray="none"
     fill="#1e90ff"
     fill-opacity="1"
     fill-rule="evenodd"
     d="m -201,-103.00001 -3,-3 2,-6 -2,-6 -8,-2 2,-5 -7,-11 h -3 l -8,-4 h -12 l -5,-9 -5,20 1,9 3,5 v 7 l -3,5 -1,6 6,9 h 14 l 11,-7 5,1 3,-3 5,1 2,-5 z"
     id="东方市" />
  <path
     stroke="#ffff00"
     stroke-opacity="1"
     stroke-width="0.5"
     stroke-linecap="round"
     stroke-linejoin="round"
     stroke-dasharray="none"
     fill="#1e90ff"
     fill-opacity="1"
     fill-rule="evenodd"
     d="m -101,-136.00001 11,-1 1,-7 -3,-1 4,-8 5,-2 2,-3 9,-2 -2,-4 -3,1 -2,-3 5,-3 -3,-3 -3,2 -5,-4 -3,-4 2,-4 -5,-3 -2,3 -5,1 -3,5 h -4 l -2,-4 -3,2 1,9 5,-3 v 5 l 5,2 -2,7 -3,-1 -3,3 3,11 3,1 z"
     id="定安县" />
  <path
     stroke="#ffff00"
     stroke-opacity="1"
     stroke-width="0.5"
     stroke-linecap="round"
     stroke-linejoin="round"
     stroke-dasharray="none"
     fill="#1e90ff"
     fill-opacity="1"
     fill-rule="evenodd"
     d="m -111,-128.00001 3,-7 2,2 5,-3 v -8 l -3,-1 -3,-11 3,-3 3,1 2,-7 -5,-2 v -5 l -8,4 1,4 -4,2 -2,3 -3,-3 h -7 l 1,2 -3,4 v 3 l -4,1 -4,4 -1,5 9,5 4,5 6,1 3,4 z"
     id="屯昌县" />
  <path
     stroke="#ffff00"
     stroke-opacity="1"
     stroke-width="0.5"
     stroke-linecap="round"
     stroke-linejoin="round"
     stroke-dasharray="none"
     fill="#1e90ff"
     fill-opacity="1"
     fill-rule="evenodd"
     d="m -109,-169.00001 -1,-9 3,-2 2,4 h 4 l 3,-5 h -3 l -2,-3 2,-4 -4,-10 -3,-3 1,-8 -5,-5 -10,4 h -13 l 2,10 -3,1 4,2 -1,5 2,2 -4,12 -8,7 v 5 l -3,3 2,8 -1,1 5,2 5,-3 2,3 4,-1 v -3 l 3,-4 -1,-2 h 7 l 3,3 2,-3 4,-2 -1,-4 z"
     id="澄迈县" />
  <path
     stroke="#ffff00"
     stroke-opacity="1"
     stroke-width="0.5"
     stroke-linecap="round"
     stroke-linejoin="round"
     stroke-dasharray="none"
     fill="#1e90ff"
     fill-opacity="1"
     fill-rule="evenodd"
     d="m -135,-210.00001 h -8 l -5,-3 -11,3 -6,4 -2,7 6,1 v 6 l 3,6 -4,4 2,5 8,1 -1,2 5,3 h 5 l 8,-7 4,-12 -2,-2 1,-5 -4,-2 3,-1 z"
     id="临高县" />
  <path
     stroke="#ffff00"
     stroke-opacity="1"
     stroke-width="0.5"
     stroke-linecap="round"
     stroke-linejoin="round"
     stroke-dasharray="none"
     fill="#1e90ff"
     fill-opacity="1"
     fill-rule="evenodd"
     d="m -185,-111.00001 6,2 5,-5 3,-1 1,-3 h 5 l 4,-4 3,2 1,-3 7,-3 -1,-9 h -4 l -2,-4 -2,1 -4,-7 -7,1 4,-6 -3,-4 h -2 l -3,5 h -4 l -6,-4 -4,2 -8,-3 -5,-7 -1,1 -6,-2 -1,14 4,1 5,6 -2,6 6,12 8,1 z"
     id="白沙黎族自治县" />
  <path
     stroke="#ffff00"
     stroke-opacity="1"
     stroke-width="0.5"
     stroke-linecap="round"
     stroke-linejoin="round"
     stroke-dasharray="none"
     fill="#1e90ff"
     fill-opacity="1"
     fill-rule="evenodd"
     d="m -209,-157.00001 h -4 l -1,-4 -4,-2 -1,-3 -17,13 -9,4 5,9 h 12 l 8,4 h 3 l 7,11 -2,5 8,2 2,6 -2,6 3,3 1,-3 h 12 l 3,-5 -3,-11 -8,-1 -6,-12 2,-6 -5,-6 -4,-1 z"
     id="昌江黎族自治县" />
  <path
     stroke="#ffff00"
     stroke-opacity="1"
     stroke-width="0.5"
     stroke-linecap="round"
     stroke-linejoin="round"
     stroke-dasharray="none"
     fill="#1e90ff"
     fill-opacity="1"
     fill-rule="evenodd"
     d="m -176,-79.00001 v -4 l -4,-4 v -10 l 2,-4 -3,-2 -2,-5 2,-2 -4,-1 -3,5 h -12 l -6,10 -5,-1 -3,3 -5,-1 -11,7 h -14 v 25 l 21,4 4,8 8,-9 16,-4 -1,-4 2,-4 4,-1 6,4 2,-5 z"
     id="乐东黎族自治县" />
  <path
     stroke="#ffff00"
     stroke-opacity="1"
     stroke-width="0.5"
     stroke-linecap="round"
     stroke-linejoin="round"
     stroke-dasharray="none"
     fill="#1e90ff"
     fill-opacity="1"
     fill-rule="evenodd"
     d="m -120,-89.00001 -3,-4 h -4 l -3,3 -1,-1 -6,2 -5,-8 -2,2 2,7 2,-1 4,5 -3,8 3,2 -1,6 h -4 l 2,5 -2,3 2,8 10,-3 h 14 l 2,-2 2,-11 9,-7 -7,-2 -2,1 -9,-6 z"
     id="陵水黎族自治县" />
  <path
     stroke="#ffff00"
     stroke-opacity="1"
     stroke-width="0.5"
     stroke-linecap="round"
     stroke-linejoin="round"
     stroke-dasharray="none"
     fill="#1e90ff"
     fill-opacity="1"
     fill-rule="evenodd"
     d="m -147,-99.00001 h -3 l -1,5 2,6 h -5 l -2,4 -4,-4 -4,2 1,4 h -9 l -3,3 1,5 10,4 -2,10 3,3 h 11 l 4,-3 1,-6 10,-2 1,-6 -3,-2 3,-8 -4,-5 -2,1 -2,-7 2,-2 z"
     id="保亭黎族苗族自治县" />
  <path
     stroke="#ffff00"
     stroke-opacity="1"
     stroke-width="0.5"
     stroke-linecap="round"
     stroke-linejoin="round"
     stroke-dasharray="none"
     fill="#1e90ff"
     fill-opacity="1"
     fill-rule="evenodd"
     d="m -133,-152.00001 -2,-3 -5,3 -5,-2 h -9 v 5 h 5 l 1,4 -2,19 -7,3 -1,3 -3,-2 -4,4 3,8 4,4 7,-2 5,1 -3,3 2,5 5,2 5,8 6,-2 1,1 3,-3 h 4 l 3,4 4,-3 3,-5 -4,-7 10,-11 -3,-5 -1,-8 h -5 l -3,-4 -6,-1 -4,-5 -9,-5 1,-5 z"
     id="琼中黎族苗族自治县" />
</svg>