<svg xmlns="http://www.w3.org/2000/svg" id="svg1" version="1.1" viewBox="-251 -228 843.99994 1527">
  <path id="海口市" fill="#ff6347" fill-opacity="1" fill-rule="evenodd" stroke="#ffffff" stroke-dasharray="none" stroke-linecap="round" stroke-linejoin="round" stroke-opacity="1" stroke-width="0.5" d="m-112-214 5 5-1 8 3 3 4 10-2 4 2 3 8-1 2-3 5 3-2 4 8 8 3-2 5 5 6 1 3-2-1-4 4-5-5-2v-7l4-7h4l-1-5h-2v-5l-4-5-10-11-12-4-7 1-2 5-4-2h-9z"/>
  <path id="三亚市" fill="#ff6347" fill-opacity="1" fill-rule="evenodd" stroke="#ffffff" stroke-dasharray="none" stroke-linecap="round" stroke-linejoin="round" stroke-opacity="1" stroke-width="0.5" d="m-219-51 2 3 5-2h9l3 5 14 1 6 4 19 7 15-3 2-2 3-13 2-1-2-8 2-3-2-5-6 2-1 6-4 3h-11l-3-3 2-10-10-4-2-5-6 5-2 5-6-4-4 1-2 4 1 4-16 4z"/>
  <path id="三沙市" fill="#ff6347" fill-opacity="1" fill-rule="evenodd" stroke="#ffffff" stroke-dasharray="none" stroke-linecap="round" stroke-linejoin="round" stroke-opacity="1" stroke-width="0.5" d="m176 905 7-6-5 6 5-4 4-6v-5l-3-2-1 7-5 5zM12 69l5-2-3 4 6-3-1-3-8 3zm568 180 2 7 9-1-9-2-1-6 3-3-3 1zM36 153l6-1 2-3-3-4-9 2h9l1 3zm197 800 2 3 6 3h7l28-9 3-4 2-8 4-5 7-4v-8l-6-2-6 2-13 7-5 8-17 11-10 3zM29 147l-7 5-1 4 4 1 7-6-7 3-1-1 7-6zm211 689 4 3 2 5 2-3-6-5zm-1 3 1 4h4l-4-4zM58 141l8 1 1-4h-6zm-21-13 4-6-4-3 2 5zm223 718 2 5 3-2-2-5zM82 77l-1 3 6-1zm328 682 2 1v4l4-1 2-11-5 1zm-111-24 2 5 3-1 1-5zm6-35 4 3 1-6-3 1zm-475 277v3l4-1 13-15 5-3 8-1 13 2 1-2-12-4-9-1-6 2-11 10zm392-27v3l5-1v-3zm227-115 2 2 4-3-3-2zM104 171l12-3-2-3-11 2-2 4zm5 668 3 2h7l-4-4zm241 43 1 2 6 1 1-2zm-65-227 1 2 3-3 5 1 3-2-1-5-3 1zM98 143l-3 3 15-2-1-3zm-6-58-1-5h-3zm-77 43 4 2 1-2zm364 614 4 2 3-4-5-2zm90-46-2 8h9l7-3v-3l-12 2 3-7zM233 916l1 4 6 2-3-7zm56-11 1 2 7-2 2-2-2-1zm15-8 1 2h5l-1-2zm69-106h3l-1-5zm-163 36 1 1 7-4-1-1zm256-19 2 4 1-5zm-352 386 1 3 3-1 1-3-4-1zm123-358-2-1-2 2 3 2zM61 1296l5 1-2-3zm-188-366 1 3 3 1 6-3 3-5v-5l-5 1-7 5zm433-291 9-7v-2l-3-1-5 7zm19 13 2 2 3-5h-2zM22 127l3 3-2-5zm277 472h3l1-8-4 1zM107 127l7-5-1-2-7 5zm208 775-2 4h3zm176-309 3 7 1-2-3-6zM32 116l4 2-1-3zm197 614 1 2 1-11h-2zM39 165l1 4 5-2v-2zm77 1023 4 4 1-3zm307-393-5 1 1 4 6-3zm-211 8 1 3 2-2zm95-648 10-2-1-2-9 1zm52 559 1 2 4-2zm-56 240 2 2 3-3-4-1zm54-84 1 2 3-3zm-437 36 1 4 8-2 4-6-3-1-10 4zm252 4 5-4h-2zm93-200 7-4-1-2-4 3zm22-44 7-6-2-1zm18-70 4 4-1-6zm178 89 6 2-1-3zm103-24 2 1 4-4-3-4zm-483 528 4 2-1-3zm-22 105h4l-2-3zm2-6 3-1-2-2zm297-417 1 3h3v-6l-4 1zm-460 64 3 1 2-2-2-2zm14-20 3 2v-3zm85 43h4l2-4-4-1zm35-48 3 2 5-2v-2l-6-1zm38-79 4 1v-3zm447-129 4 1-2-4zM262 167l9 1-1-2zm-13 480h4l-1-3zM29 855l1 4 5-2-2-3zm403-197 3 1-2-4zM320 986l-3 5 5-1zm-114 26-2 3 3 1zm-97 107 3 3v-6zm213-201 1 3 3-2v-3zM30 948l4 1 4-5-2-3-4 2zm267-109h4l4-4h-6zm132-116 2 3 2-3-2-3zm111-55 12 2 2-3-5-4-7 1zm-432 463 2 4 2-1v-5l-3-1zm6 9 2 9 3-2-2-8zm6 42v4l3 1 3-3-4-4zM28 925l6 2v-4h-5zm114 6 3 1v-3zm-59-95 3 2 1-3zm464-112 4 2-1-4zm-59-585 2 4 3-2v-4l-3-1zm-205 29 7-2-5-1zM151-161h4l-1-5h-3zm76 31 8-2v-5h-10l-1 3zM111 1181l1 4 4-2-1-3zm32 11h3l1-5-4 1zm223-827 4 2 3-2-1-3zM81 99l3-1-4-2zm1 101 1-4-4 2zm34 958 3 2 4-3v-3h-4zm213-196 3 3 3-1v-4zM20 934l3 3 3-6-2-2zm307-766h-3l1 3zm166 651-5 1 4 2zM237 187l3 3v-3zm-118-52 4-2-2-2zm284 554 1 3 3-3zm-296 85v2l5 1v-4zm191-569-3 2 3 1zm245 427-3 2 3 3zm35 3h-3l3 3zM258 789v4l2-5z"/>
  <path id="儋州市" fill="#ff6347" fill-opacity="1" fill-rule="evenodd" stroke="#ffffff" stroke-dasharray="none" stroke-linecap="round" stroke-linejoin="round" stroke-opacity="1" stroke-width="0.5" d="m-219-166 1 3 4 2 1 4h4l1-5 6 2 1-1 5 7 8 3 4-2 6 4h4l3-5h2l3 4-4 6 7-1 4 7 2-1 2 4h4l1 3 2-4v-9l-1-4h-5v-5l10-1-2-8 3-3v-5h-5l-5-3 1-2-8-1-2-5 4-4-3-6v-6l-24-6-3 2-1 3-4 1-5 7 1 5-2 3-5 1-4 7-5 3z"/>
  <path id="五指山市" fill="#ff6347" fill-opacity="1" fill-rule="evenodd" stroke="#ffffff" stroke-dasharray="none" stroke-linecap="round" stroke-linejoin="round" stroke-opacity="1" stroke-width="0.5" d="m-147-99-2-5 3-3-5-1-7 2-4-4-3-8h-5l-1 3-3 1-5 5-2-1-2 2 2 5 3 2-2 4v10l4 4 1 4 3-3h9l-1-4 4-2 4 4 2-4h5l-2-6 1-5z"/>
  <path id="琼海市" fill="#ff6347" fill-opacity="1" fill-rule="evenodd" stroke="#ffffff" stroke-dasharray="none" stroke-linecap="round" stroke-linejoin="round" stroke-opacity="1" stroke-width="0.5" d="m-66-123 1-7 10-22-9-1-3 4-5-11-9 2-2 3-5 2-4 8 3 1-1 7-11 1-5 3-2-2-3 7 1 8 3 5h6l2 2 25-12z"/>
  <path id="文昌市" fill="#ff6347" fill-opacity="1" fill-rule="evenodd" stroke="#ffffff" stroke-dasharray="none" stroke-linecap="round" stroke-linejoin="round" stroke-opacity="1" stroke-width="0.5" d="m-55-152 5-1 12-15 14-8-9-37h-9l-6-2-6-4-2-7-3-1-15 8 14 16v5h2l1 5h-4l-4 7v7l5 2-4 5 1 4-3 2-6-1-2-2-5 3 2 3 3-1 7 15 3-4z"/>
  <path id="万宁市" fill="#ff6347" fill-opacity="1" fill-rule="evenodd" stroke="#ffffff" stroke-dasharray="none" stroke-linecap="round" stroke-linejoin="round" stroke-opacity="1" stroke-width="0.5" d="m-107-115-10 11 4 7-3 5-4 3v7l9 6 2-1 7 2 10-6h16v-10l7-3 3-29-8-2-25 12-2-2z"/>
  <path id="东方市" fill="#ff6347" fill-opacity="1" fill-rule="evenodd" stroke="#ffffff" stroke-dasharray="none" stroke-linecap="round" stroke-linejoin="round" stroke-opacity="1" stroke-width="0.5" d="m-201-103-3-3 2-6-2-6-8-2 2-5-7-11h-3l-8-4h-12l-5-9-5 20 1 9 3 5v7l-3 5-1 6 6 9h14l11-7 5 1 3-3 5 1 2-5z"/>
  <path id="定安县" fill="#ff6347" fill-opacity="1" fill-rule="evenodd" stroke="#ffffff" stroke-dasharray="none" stroke-linecap="round" stroke-linejoin="round" stroke-opacity="1" stroke-width="0.5" d="m-101-136 11-1 1-7-3-1 4-8 5-2 2-3 9-2-2-4-3 1-2-3 5-3-3-3-3 2-5-4-3-4 2-4-5-3-2 3-5 1-3 5h-4l-2-4-3 2 1 9 5-3v5l5 2-2 7-3-1-3 3 3 11 3 1z"/>
  <path id="屯昌县" fill="#ff6347" fill-opacity="1" fill-rule="evenodd" stroke="#ffffff" stroke-dasharray="none" stroke-linecap="round" stroke-linejoin="round" stroke-opacity="1" stroke-width="0.5" d="m-111-128 3-7 2 2 5-3v-8l-3-1-3-11 3-3 3 1 2-7-5-2v-5l-8 4 1 4-4 2-2 3-3-3h-7l1 2-3 4v3l-4 1-4 4-1 5 9 5 4 5 6 1 3 4z"/>
  <path id="澄迈县" fill="#ff6347" fill-opacity="1" fill-rule="evenodd" stroke="#ffffff" stroke-dasharray="none" stroke-linecap="round" stroke-linejoin="round" stroke-opacity="1" stroke-width="0.5" d="m-109-169-1-9 3-2 2 4h4l3-5h-3l-2-3 2-4-4-10-3-3 1-8-5-5-10 4h-13l2 10-3 1 4 2-1 5 2 2-4 12-8 7v5l-3 3 2 8-1 1 5 2 5-3 2 3 4-1v-3l3-4-1-2h7l3 3 2-3 4-2-1-4z"/>
  <path id="临高县" fill="#ff6347" fill-opacity="1" fill-rule="evenodd" stroke="#ffffff" stroke-dasharray="none" stroke-linecap="round" stroke-linejoin="round" stroke-opacity="1" stroke-width="0.5" d="M-135-210h-8l-5-3-11 3-6 4-2 7 6 1v6l3 6-4 4 2 5 8 1-1 2 5 3h5l8-7 4-12-2-2 1-5-4-2 3-1z"/>
  <path id="白沙黎族自治县" fill="#ff6347" fill-opacity="1" fill-rule="evenodd" stroke="#ffffff" stroke-dasharray="none" stroke-linecap="round" stroke-linejoin="round" stroke-opacity="1" stroke-width="0.5" d="m-185-111 6 2 5-5 3-1 1-3h5l4-4 3 2 1-3 7-3-1-9h-4l-2-4-2 1-4-7-7 1 4-6-3-4h-2l-3 5h-4l-6-4-4 2-8-3-5-7-1 1-6-2-1 14 4 1 5 6-2 6 6 12 8 1z"/>
  <path id="昌江黎族自治县" fill="#ff6347" fill-opacity="1" fill-rule="evenodd" stroke="#ffffff" stroke-dasharray="none" stroke-linecap="round" stroke-linejoin="round" stroke-opacity="1" stroke-width="0.5" d="M-209-157h-4l-1-4-4-2-1-3-17 13-9 4 5 9h12l8 4h3l7 11-2 5 8 2 2 6-2 6 3 3 1-3h12l3-5-3-11-8-1-6-12 2-6-5-6-4-1z"/>
  <path id="乐东黎族自治县" fill="#ff6347" fill-opacity="1" fill-rule="evenodd" stroke="#ffffff" stroke-dasharray="none" stroke-linecap="round" stroke-linejoin="round" stroke-opacity="1" stroke-width="0.5" d="M-176-79v-4l-4-4v-10l2-4-3-2-2-5 2-2-4-1-3 5h-12l-6 10-5-1-3 3-5-1-11 7h-14v25l21 4 4 8 8-9 16-4-1-4 2-4 4-1 6 4 2-5z"/>
  <path id="陵水黎族自治县" fill="#ff6347" fill-opacity="1" fill-rule="evenodd" stroke="#ffffff" stroke-dasharray="none" stroke-linecap="round" stroke-linejoin="round" stroke-opacity="1" stroke-width="0.5" d="m-120-89-3-4h-4l-3 3-1-1-6 2-5-8-2 2 2 7 2-1 4 5-3 8 3 2-1 6h-4l2 5-2 3 2 8 10-3h14l2-2 2-11 9-7-7-2-2 1-9-6z"/>
  <path id="保亭黎族苗族自治县" fill="#ff6347" fill-opacity="1" fill-rule="evenodd" stroke="#ffffff" stroke-dasharray="none" stroke-linecap="round" stroke-linejoin="round" stroke-opacity="1" stroke-width="0.5" d="M-147-99h-3l-1 5 2 6h-5l-2 4-4-4-4 2 1 4h-9l-3 3 1 5 10 4-2 10 3 3h11l4-3 1-6 10-2 1-6-3-2 3-8-4-5-2 1-2-7 2-2z"/>
  <path id="琼中黎族苗族自治县" fill="#ff6347" fill-opacity="1" fill-rule="evenodd" stroke="#ffffff" stroke-dasharray="none" stroke-linecap="round" stroke-linejoin="round" stroke-opacity="1" stroke-width="0.5" d="m-133-152-2-3-5 3-5-2h-9v5h5l1 4-2 19-7 3-1 3-3-2-4 4 3 8 4 4 7-2 5 1-3 3 2 5 5 2 5 8 6-2 1 1 3-3h4l3 4 4-3 3-5-4-7 10-11-3-5-1-8h-5l-3-4-6-1-4-5-9-5 1-5z"/>
</svg>
