<?xml version="1.0" encoding="UTF-8" standalone="no"?>
<svg
   width="2002"
   height="1279"
   viewBox="-251 -228 2002 1279"
   version="1.1"
   id="svg1"
   xmlns="http://www.w3.org/2000/svg"
   xmlns:svg="http://www.w3.org/2000/svg">
  <defs
     id="defs1" />
  <path
     stroke="#ffff00"
     stroke-opacity="1"
     stroke-width="0.5"
     stroke-linecap="round"
     stroke-linejoin="round"
     stroke-dasharray="none"
     fill="#1e90ff"
     fill-opacity="1"
     fill-rule="evenodd"
     d="m 1126,647 -1,4 h 11 l -2,8 1,4 4,4 v 8 l 4,4 h 4 l -4,10 -3,1 -3,4 4,5 8,4 3,-1 2,8 12,-3 v -6 l 12,-20 4,-4 12,-2 10,9 5,12 4,2 -1,3 h -2 v 4 l 10,-4 8,2 2,2 9,15 v 8 l 3,3 1,5 7,1 1,14 3,3 1,8 6,2 8,-1 8,-2 7,-3 2,-3 h 4 l 3,-2 12,4 19,10 2,-2 2,1 v 2 l 5,3 2,-1 2,2 2,-1 -1,-6 2,-4 -2,-4 1,-2 3,2 v -3 h 4 l -3,-2 -3,-12 -2,-1 v -4 l -4,-2 -4,-7 4,-20 4,-1 2,-12 6,-5 1,-6 5,-3 1,-4 1,-15 -3,-5 2,-14 -3,-8 2,-2 v -4 h 5 l 3,2 2,-6 h 2 l 1,-2 -2,-7 v -8 l -2,-1 2,-2 -2,-1 -1,-5 25,-8 17,-10 17,-3 3,-3 -5,-6 -3,-3 -4,2 -2,-3 1,-4 -5,-10 2,-4 3,2 10,-5 7,-7 v -9 l 2,-1 8,4 2,-2 h 3 l 4,5 2,-4 -3,-4 6,-3 1,2 3,-3 1,2 3,-8 -2,-3 2,-4 2,2 1,-2 h 4 l 2,3 5,-2 -1,-2 8,-5 -1,-4 -6,-1 v -4 h -5 l -2,-3 2,-3 -7,1 -5,-6 -1,-4 2,-2 -3,-2 2,-3 v -4 h -5 l -1,3 -3,-2 1,-3 -4,2 -1,-2 -2,2 -3,-6 -4,3 h -5 l -5,4 h -3 v 2 l 4,1 2,4 -4,7 -9,-1 v -2 h -2 l -3,-6 v -6 l -3,2 1,-4 -5,4 v 3 l -3,5 -1,-5 2,-2 -6,-3 -5,4 h -4 l -3,2 v 7 l 2,3 -7,-2 -7,5 -1,-3 -6,4 h -3 l -3,-10 -7,-2 -7,-9 -2,2 -1,-3 -7,-4 -3,-6 1,-3 3,-2 v -4 l 5,-9 -2,-4 2,-3 -2,-1 v -4 l -2,-3 -7,-1 -5,-7 -3,1 -1,-5 h 4 v -2 l -5,-1 v -3 h -5 l -3,-2 -4,-6 -1,-6 10,-17 -9,-2 -10,1 -3,-4 -6,2 -8,-6 -1,-4 -4,-3 -11,6 v 5 l -3,2 -2,4 -4,1 -2,4 1,6 h -5 l 1,8 2,5 5,5 v 3 l 5,-2 4,7 -6,11 -5,6 -6,4 v 8 l 3,3 -2,6 -5,2 -2,6 5,12 -1,6 -3,4 -1,15 2,4 -2,2 2,3 1,13 3,4 -2,6 2,9 -1,3 -3,1 -4,-4 h -9 l -1,-2 -6,-2 -15,-1 -23,2 -4,5 -2,-2 -3,1 v 3 h 3 l -2,7 2,2 h -6 l 1,5 4,-2 1,5 h 5 l 5,5 -4,7 -4,3 v 2 l 4,2 -4,5 4,3 v 6 l -5,5 -8,1 -3,9 1,3 -4,3 -1,-4 h -3 l -3,4 -2,7 h -3 l -2,2 -10,16 -13,3 -5,9 z m 316,-189 2,-1 v -3 l -3,-1 -2,4 z m 8,8 h 4 l -1,-9 -3,1 2,5 z"
     id="武汉市" />
  <path
     stroke="#ffff00"
     stroke-opacity="1"
     stroke-width="0.5"
     stroke-linecap="round"
     stroke-linejoin="round"
     stroke-dasharray="none"
     fill="#1e90ff"
     fill-opacity="1"
     fill-rule="evenodd"
     d="m 1341,745 2,7 3,2 h -4 v 3 l -3,-2 -1,2 2,4 -2,4 1,6 -2,1 1,2 h 3 l 2,3 -4,2 v 2 l 4,-2 2,3 8,-1 3,2 v 2 l 11,5 h 5 v 2 l 9,3 h 6 l -3,13 v 3 l 5,1 1,11 -3,12 5,5 4,-1 1,2 h 13 l 5,2 3,10 h 5 l 4,7 1,6 3,4 -1,8 4,4 v 4 l 7,1 v 5 l 2,3 7,1 3,-4 3,1 2,-3 8,8 10,-4 h 4 l 3,3 -3,8 h 4 l 6,4 7,-1 1,-2 -1,-17 1,-3 4,-1 v -2 l -3,-1 -7,3 -3,-2 4,-6 -1,-5 2,-5 -5,-1 -3,-3 -1,-3 2,-3 2,-1 3,2 1,3 5,4 h 29 l -1,6 2,4 3,1 6,-5 h 3 l 2,-3 h 8 l 5,-6 9,-6 6,-9 9,-7 -1,-7 3,-14 2,-2 5,-1 1,-5 -6,-2 -10,-7 -4,-9 -7,-7 1,-8 -6,-4 -6,-12 -9,-7 -1,-14 -14,-24 -12,-12 -3,-5 -9,-2 -5,3 h -8 l -8,-4 -4,-5 v -6 l -4,-1 -2,2 -8,2 -7,11 -2,-2 -4,1 -3,4 h -2 l -5,-5 -18,-7 -1,-6 3,-3 -3,-3 -3,1 -4,-4 1,-3 -2,-3 -11,1 v 5 l -3,1 -10,-3 -3,-5 v -3 l -7,5 -2,6 1,3 -9,9 2,9 3,5 12,7 -3,3 1,2 -4,2 -1,3 8,8 3,8 -6,3 4,7 -1,2 -3,3 h -4 l -1,-3 -3,3 v 6 l -3,-1 -2,2 -2,-1 -4,2 -1,-7 -4,-5 -7,2 -6,4 -2,-2 2,-1 -4,-4 z m 153,-52 6,2 v -2 l -8,-3 z"
     id="黄石市" />
  <path
     stroke="#ffff00"
     stroke-opacity="1"
     stroke-width="0.5"
     stroke-linecap="round"
     stroke-linejoin="round"
     stroke-dasharray="none"
     fill="#1e90ff"
     fill-opacity="1"
     fill-rule="evenodd"
     d="m 439.99999,-205 -4,-2 -4,-4 -1,-4 -4,-1 -3,-5 -5,-1 -6,7 1,2 -6,8 -15,-4 -2,3 -7,1 -3,8 2,5 -3,2 -1,-2 -4,3 -7,-1 -6,2 -7,9 1,6 h -5 l -8,-10 -3,-7 -2,-1 -9,4 -4,-3 -2,-5 v -11 l -4,-14 -3,-1 h -6 l -3,2 -1,5 -5,3 -4,6 -3,1 -3,6 1,2 -6,-2 -7,3 -5,-2 h -7 l -1,-3 -4,4 h -4 l -1,4 -10,-3 -17,3 -3,-1 -14,-14 -9,2 h -14 l -12,3 -3,-2 -1,-3 -4,-1 -6,3 -15,-8 -18,-6 -9,4 -20,1 -8,-3 -3,-4 -8,2 -3,-1 v -5 l -3,-2 h -5 l -3,3 v 9 l -5,2 -13,-5 -6,2 -4,10 -4,2 -2,5 -9,10 8,3 h 11 l 12,5 4,4 4,-3 3,4 h 3 l 5,-3 h 14 l 4,5 24,11 -2,20 -6,28 6,8 3,2 12,-5 3,-5 h 3 l 4,2 h 6 l 6,5 h 15 l 4,4 7,1 1,3 4,3 8,2 5,3 4,7 6,1 -4,9 3,4 h 6 l 1,5 -3,18 9,14 5,4 -6,4 -5,8 h -3 l -5,-6 -3,-1 -5,-1 -5,2 1,8 -15,12 -9,-1 -6,-8 h -7 l -5,-4 -4,-1 h -7 l -8,4 -9,1 -15,-4 -8,-6 h -4 l -3,2 -17,1 -4,2 v 4 l 5,12 -5,5 -8,2 -3,3 v 5 l -2,3 -4,1 -1,7 -5,7 -1,10 -5,1 -1,5 3,11 -4,13 1,3 7,6 6,14 h 6 l 5,2 3,6 -5,11 4,12 h 2 l 3,5 -1,7 -7,11 -1,7 1,4 6,7 4,8 v 6 l -2,4 -7,2 -2,9 5,3 8,22 -1,2 h -7 l -4,5 1,11 3,3 -4,1 -1,3 8,5 7,-3 h 10 l 3,4 4,2 h 5 v 9 l 3,2 -1,11 7,8 -5,2 v 5 l -5,3 -2,4 2,2 h 16 l 3,2 10,-4 8,8 6,3 8,-1 5,5 h 6 l 7,-5 8,1 11,-9 -1,-4 17,-13 h 10 l 6,7 6,4 2,-5 3,-2 -3,-6 -4,-2 1,-4 6,-4 1,-4 -2,-3 -4,-2 5,-13 v -4 l 12,-10 17,1 6,-3 -1,-9 8,-2 2,-3 6,-1 1,2 5,2 5,-2 v -5 l 4,-2 -1,-3 7,-3 2,1 v 4 h 3 l 2,-3 12,2 h 7 l 2,-2 h 4 l 6,2 3,-5 8,2 2,2 11,2 2,4 2,-2 -1,-2 5,-1 v -6 h 3 l 4,3 2,-1 7,2 7,-1 -1,-3 3,1 -2,-4 5,-1 7,5 -1,-2 6,-3 4,2 5,7 6,-5 2,2 -2,5 1,5 5,-3 2,-4 -3,-4 v -6 l -3,-2 -1,-3 4,-4 -6,-5 -1,2 -1,-5 -2,-2 h 3 l 3,-13 -1,-2 2,-2 v -3 l 8,-2 3,2 5,15 2,-2 5,7 3,-2 -2,-4 -3,-2 v -7 l -3,-1 -2,4 -2,-1 v -6 l 3,-1 3,-5 -3,-1 v -5 l 2,-1 1,-5 -1,-1 -5,2 1,-7 5,-4 2,3 14,-10 4,1 6,-3 13,-11 6,-17 -2,-5 -3,-1 1,-9 -4,1 -4,-4 6,-5 v -8 l 5,-5 13,-5 3,-4 v -3 l 4,-4 6,-2 5,-4 2,-6 7,6 4,-1 4,-4 7,-2 5,-5 -3,-7 4,-2 2,1 7,-7 2,2 2,-2 V 6 l 12,-19 -1,-6 -3,1 -11,-11 -1,-8 -3,-6 -9,-6 -3,-4 2,-3 -3,-2 h -6 l -4,-3 1,-1 4,3 v -3 l 4,3 3,-4 1,-7 -3,-4 v 3 l -4,1 -2,4 h -4 l -3,-2 -8,-22 -6,-3 -7,-1 -10,-6 v -10 l -3,-3 -3,1 -4,5 -2,-2 v -17 l 7,-8 -4,-11 -4,-4 v -5 l -5,-2 h -19 l 1,-3 11,-6 -1,-4 -4,-5 1,-4 -4,-3 h -4 l -4,-4 -1,-5 -6,-3 -4,-6 -7,3 -4,5 -3,-1 3,-3 -3,-2 -5,1 5,-5 z m 25,353 h -2 l -1,3 h -3 l -3,-3 -6,14 h 3 l 1,-3 h 3 l 2,-5 8,-2 z m -37,19 -3,13 h 2 l -1,5 3,1 1,-5 2,-2 -2,-6 2,-1 -1,-3 z m 12,-372 -3,4 v 4 l 3,2 3,-4 -1,-3 z"
     id="十堰市" />
  <path
     stroke="#ffff00"
     stroke-opacity="1"
     stroke-width="0.5"
     stroke-linecap="round"
     stroke-linejoin="round"
     stroke-dasharray="none"
     fill="#1e90ff"
     fill-opacity="1"
     fill-rule="evenodd"
     d="m 705.99999,567 2,-4 -2,-4 -5,-1 3,-3 -4,-7 3,-3 -1,-9 -5,-2 v -8 h 2 l -1,-7 -9,-14 3,-2 1,-17 -1,-1 -3,2 -2,-10 4,-8 h -2 l -3,-3 v -2 l -3,-1 -1,-3 h -3 v -4 l -3,-2 2,-5 -3,-2 -6,3 -4,-1 -4,-7 2,-2 4,2 9,-13 -5,-2 -4,-5 1,-10 -4,-2 -2,3 -2,-1 2,-4 -2,-2 v 3 l -4,3 -2,-7 1,-3 -3,-1 v -3 l -2,-2 -4,-2 -3,2 -1,-4 -6,-3 -2,1 -3,-8 -2,3 -2,-4 -5,-1 v -3 l -3,1 2,-2 h -3 l 1,-4 2,-1 v -2 h 2 l -1,-2 h -2 l 2,-6 -3,-2 v -5 l -5,3 -3,-1 -2,3 -2,-2 -9,2 -3,-4 -5,-3 -8,10 -21,12 -13,-2 -7,-2 -2,-2 v -13 l -6,-2 -12,7 h -3 l -7,-3 -2,-5 -4,-3 h -6 l -3,-10 2,-1 v -8 l -9,-5 h -5 l -4,7 -5,-2 -2,1 -2,-2 -6,5 -5,-1 -4,7 -5,-1 v -2 l -8,-2 -3,3 -2,-1 3,-5 -3,-6 v -7 l 6,-6 -2,-6 -5,-5 3,-2 -1,-6 h -25 l -8,4 -2,6 -4,1 -9,9 h -2 l -5,-7 -1,-6 -3,2 -5,-5 -13,4 -3,3 v 4 l -6,12 h -4 l -2,-3 -13,2 -5,-2 -1,1 -1,10 -5,12 -3,3 1,6 -4,4 3,7 -1,4 -9,4 -8,-9 1,-3 -2,-3 -3,-1 -2,9 -4,4 -5,-1 -1,3 -5,3 3,3 -1,5 5,7 h 3 l 2,2 h 7 l 1,2 -5,4 1,9 h -3 v 5 l 6,2 v 5 l 4,6 6,4 -10,14 -9,1 3,13 -8,2 v 19 l -5,17 5,9 -6,3 h -4 l -13,12 -5,1 -1,4 2,3 -4,6 -2,7 6,3 9,-5 2,-4 h 10 l 3,3 2,8 3,4 h 2 l 1,5 -2,3 -1,11 3,1 1,5 h -5 v 5 l -4,4 2,4 6,3 2,5 -1,5 4,-1 1,3 -4,1 1,3 -2,5 -6,3 -1,7 -8,2 -6,4 -3,-1 -2,2 3,6 -1,7 -2,2 3,5 -6,10 -1,6 4,3 -4,2 6,8 -6,13 v 5 l -7,-2 -18,4 3,4 8,3 1,4 -6,2 -1,3 8,4 v 5 l 11,7 -7,8 5,2 1,4 -6,5 1,6 -2,2 v 6 l -3,5 2,7 -3,4 2,3 8,3 8,-5 13,1 11,-15 9,-6 -1,-8 3,1 6,-3 5,2 h 12 l 14,-7 9,6 -1,1 3,4 5,2 2,-2 7,-1 2,-3 -2,-17 4,-2 10,1 3,-3 h 9 l 6,4 h 13 v 11 l 2,3 17,2 9,3 38,2 h 17 l 19,-3 1,-7 2,-3 12,-6 3,-6 12,5 6,-1 3,3 h 4 l 5,-3 5,5 12,-8 3,-13 -1,-7 3,-1 v -6 l 2,-1 2,-5 -3,-2 v 2 l -5,-2 v -5 h 3 l 4,-4 8,-14 12,-6 14,-11 h 8 l 12,23 3,-1 2,5 7,-2 9,3 2,-1 3,-18 4,-3 3,2 13,19 6,2 h 8 l -1,-2 2,-2 v -3 l -6,-3 -8,-8 -5,-8 1,-17 -2,-5 -4,-3 -1,2 -8,-1 -3,-4 5,-5 -4,-2 3,-8 13,1 7,-16 -1,-3 -6,-2 3,-4 v -4 l 6,-4 3,-9 10,-4 1,2 z m -265,-235 2,3 8,2 v -2 l -4,-4 -2,2 z m 141,385 v -4 l -3,1 z m 124,-158 -2,-4 -1,3 z"
     id="宜昌市" />
  <path
     stroke="#ffff00"
     stroke-opacity="1"
     stroke-width="0.5"
     stroke-linecap="round"
     stroke-linejoin="round"
     stroke-dasharray="none"
     fill="#1e90ff"
     fill-opacity="1"
     fill-rule="evenodd"
     d="m 577.99999,-19 1,6 -8,11 -4,8 v 5 l -2,2 -2,-2 -7,7 -2,-1 -4,2 3,7 -5,5 -7,2 -4,4 -4,1 -7,-6 -2,6 -5,4 -6,2 -4,4 v 3 l -3,4 -13,5 -5,5 v 8 l -6,5 4,4 4,-1 -1,9 3,1 2,5 -6,17 -13,11 -6,3 -4,-1 -4,4 1,9 2,3 -2,3 5,7 -8,2 -2,5 h -3 l -1,3 h -3 l 1,-4 -3,-1 -2,3 -3,1 v 6 l 2,1 2,-4 3,1 v 7 l 3,2 2,4 -3,2 -5,-7 -2,2 -5,-15 -3,-2 -8,2 v 3 l -2,2 5,7 -2,1 2,6 -2,2 -1,5 3,4 -4,4 1,3 3,2 v 6 l 3,4 -2,4 -5,3 -1,-5 2,-5 -2,-2 -6,5 -5,-7 -4,-2 -6,3 1,2 -7,-5 -5,1 2,4 -3,-1 1,3 -7,1 -7,-2 -2,1 -4,-3 h -3 v 6 l -5,1 10,15 2,2 h 7 l 8,11 2,4 -1,6 2,1 v 5 l 3,6 6,5 8,-2 8,4 1,3 -3,1 -7,14 1,8 h 25 l 1,6 -3,2 5,5 2,6 -6,6 v 7 l 3,6 4,1 2,-2 4,4 v 4 l 5,1 4,-7 5,1 6,-5 2,2 2,-1 5,2 4,-7 h 5 l 9,5 v 8 l -2,1 3,10 h 6 l 4,3 2,5 7,3 h 3 l 12,-7 6,2 v 13 l 2,2 20,4 21,-12 8,-10 5,3 3,4 9,-2 2,2 2,-3 3,1 5,-3 v 5 l 3,2 -2,6 h 2 l 1,2 h -2 v 2 l -2,1 -1,4 h 3 l -2,2 3,-1 v 3 l 5,1 1,4 3,-3 3,8 2,-1 6,3 1,4 3,-2 4,2 3,-3 3,1 4,-6 5,-2 4,1 2,-5 -1,-6 -3,-1 1,-5 -4,-4 5,-1 v -12 l 4,-20 9,-2 2,-2 8,5 3,-3 h 2 l 5,4 2,-8 10,-2 4,1 9,-6 h 3 l 5,3 v -13 l 3,-6 7,2 5,-4 7,-2 17,10 3,-1 17,4 7,-6 8,-4 8,-8 h 14 l 8,6 9,12 5,-1 17,9 2,-7 -6,-13 2,-3 8,-1 1,-3 2,-13 -4,-2 -2,-6 v -11 l 1,-9 4,-3 1,-4 -1,-6 2,-1 7,3 4,-4 8,-2 6,-13 4,-2 4,3 4,-2 1,-4 7,-8 8,4 4,-5 -4,-13 1,-2 6,-2 3,-12 2,1 1,-5 5,1 v -4 l -4,-3 -6,-1 -1,-22 16,-20 -7,-10 v -7 l 3,-8 V 91 l -3,-9 4,-4 3,1 4,-2 6,-7 v -5 l -6,-5 -1,-7 5,-3 7,2 2,-4 -2,-7 -8,2 -5,-4 -2,-4 -7,-2 -3,3 h -3 l -3,5 v 8 l -5,1 -2,-5 -4,-1 h -11 l -4,4 -3,-1 1,-4 -3,-2 -24,12 -2,5 h -4 l -4,-2 v -2 h -13 l -19,-9 h -4 l -2,2 -3,-1 v -2 l -8,-4 -4,8 -2,-2 -7,2 -5,-1 -8,7 2,4 -16,-8 -1,2 -7,-1 -2,5 h -4 l -2,4 v 5 l -8,-4 -2,-4 -9,-4 -6,-5 -1,-3 -6,-2 -8,2 1,-2 -3,-6 h -4 l -2,2 4,1 1,3 -3,3 4,-1 -2,3 -5,-4 -2,-4 -2,1 -8,-6 h -2 v -5 h -2 l -3,-3 v -9 l -7,1 -6,6 h -2 l -1,-2 h -3 v -3 l -4,-1 -2,-7 -5,-7 -8,3 h -12 l -3,-6 -8,-1 v -2 h -5 l -6,-6 -10,-6 -2,-4 -6,-5 h -6 l -5,-3 -7,3 -1,-9 -6,2 -4,6 z m -113,167 -3,-3 2,-3 -2,-3 -1,-9 h -2 l -8,6 -2,-3 -5,4 -1,7 5,-2 1,1 -1,5 -2,1 v 5 l 3,1 -1,2 3,1 5,-10 3,3 h 3 l 1,-3 z m -39,37 1,-5 h -5 l 2,2 1,5 z m 17,150 -2,-3 -3,5 2,1 z m 427,-281 3,-2 1,2 v -3 z"
     id="襄阳市" />
  <path
     stroke="#ffff00"
     stroke-opacity="1"
     stroke-width="0.5"
     stroke-linecap="round"
     stroke-linejoin="round"
     stroke-dasharray="none"
     fill="#1e90ff"
     fill-opacity="1"
     fill-rule="evenodd"
     d="m 1478,686 2,-6 -1,-15 -3,-11 -4,-7 -10,-4 -10,1 -16,-2 -13,-6 -5,-6 -3,-8 2,-16 -3,-21 -6,-5 -6,-1 -17,10 -25,8 1,5 2,1 -2,2 2,1 v 8 l 2,7 -1,2 h -2 l -2,6 -3,-2 h -5 v 4 l -2,2 3,8 -2,14 3,5 -1,15 -1,4 -5,3 -1,6 -6,5 -2,12 -4,1 -4,20 4,7 4,2 v 4 l 2,1 1,5 7,5 -2,1 2,2 5,-4 8,-2 4,5 1,7 4,-2 2,1 2,-2 3,1 v -6 l 3,-3 1,3 h 4 l 3,-3 1,-2 -4,-7 6,-3 -3,-8 -8,-8 1,-3 4,-2 -1,-2 3,-3 -12,-7 -3,-5 -2,-9 3,-2 1,-3 5,-3 -1,-4 2,-6 5,-4 2,-1 v 3 l 3,5 10,3 3,-1 v -5 l 11,-1 2,3 -1,3 4,4 3,-1 3,3 -3,3 1,6 18,7 5,5 h 2 l 3,-4 4,-1 2,2 7,-11 8,-2 2,-2 z"
     id="鄂州市" />
  <path
     stroke="#ffff00"
     stroke-opacity="1"
     stroke-width="0.5"
     stroke-linecap="round"
     stroke-linejoin="round"
     stroke-dasharray="none"
     fill="#1e90ff"
     fill-opacity="1"
     fill-rule="evenodd"
     d="m 705.99999,567 4,3 1,5 5,2 -2,8 6,8 v 11 l 4,3 2,-3 4,1 2,3 -2,8 1,4 3,3 h 6 v -2 l -3,-1 v -4 l 5,-3 7,2 4,-2 3,4 7,3 3,9 -3,4 1,3 7,6 h 6 l 6,-5 5,-1 9,1 1,-3 7,-1 16,13 2,-5 -2,-4 2,-4 9,-2 2,-2 1,-10 h -3 l 2,-11 2,-2 3,4 v 3 l 4,-2 2,-4 -4,-8 1,-4 4,-1 v -5 l 4,-4 -4,-4 v -2 l 7,-2 v -3 l 3,-1 -1,3 3,-1 v -2 h 3 l 1,-2 6,3 h 2 l 1,-2 -1,-3 -3,-2 -18,5 -6,-3 -5,-4 4,-14 2,2 4,-1 6,-7 18,-15 12,-6 2,-4 5,-3 h 3 l 3,7 v 4 l 3,3 -1,15 h 3 l 10,9 3,-1 1,-5 h 7 l 2,-6 12,-8 5,-6 4,-1 2,4 4,1 10,-4 v -11 l 2,-1 16,7 11,-4 9,-13 2.00001,2 2,-2 -2,-2 4,-1 9,-10 3,-1 9,5 v -7 l 2,-2 -2,-4 4,-2 1,2 4,1 -1,-5 2,-1 v -4 l 7,-2 -2,-1 -1,-6 3,2 4,-6 5,-3 2,-4 6,-5 3,-8 -1,-9 7,-5 -4,-3 3,-6 -1,-24 -3,-1 -2,2 -6,-3 -5,-14 -5,-3 h -4 l -3,5 -5,-10 -2,1 -9,-11 -5,4 v -4 l -8,-5 -6,1 -9.00001,-13 -10,-5 -2,2 -3,-3 v -2 l 2,1 1,-3 -4,-2 -3,3 h -4 l -4,-5 -6,-1 -6,3 -7,-4 -3,3 -6,2 -3,-1 -8,-11 -9,1 -3,-2 -1,-15 -3,-6 -4,-4 -6,-1 -4,-8 -4,-2 -9,-1 -4,-4 -4,1 -3,16 -8,1 -2,3 6,13 -2,7 -17,-9 -5,1 -9,-12 -8,-6 h -14 l -8,8 -8,4 -7,6 -17,-4 -3,1 -17,-10 -7,2 -5,4 -7,-2 -3,6 v 13 l -5,-3 h -3 l -9,6 -4,-1 -10,2 -2,8 -5,-4 h -2 l -3,3 -8,-5 -2,2 -9,2 -4,20 v 12 l -5,1 4,4 -1,5 3,1 1,6 -2,5 -4,-1 -5,2 -4,6 -3,-1 -3,3 2,2 v 3 l 3,1 -1,3 2,7 4,-3 v -3 l 2,2 -2,4 2,1 2,-3 3,2 v 10 l 4,5 5,2 -9,13 -4,-2 -2,2 4,7 4,1 6,-3 3,2 -2,5 3,2 v 4 h 3 l 1,3 3,1 v 2 l 3,3 h 2 l -4,8 2,10 3,-2 1,1 -1,17 -3,2 9,14 1,7 h -2 v 8 l 5,2 1,6 v 3 l -3,3 8,15 z m -3,-9 v -2 l -2,2 z m 141,-5 h -3 l 3,1 z"
     id="荆门市" />
  <path
     stroke="#ffff00"
     stroke-opacity="1"
     stroke-width="0.5"
     stroke-linecap="round"
     stroke-linejoin="round"
     stroke-dasharray="none"
     fill="#1e90ff"
     fill-opacity="1"
     fill-rule="evenodd"
     d="m 1063,647 2,-1 3,3 h 4 v -4 l 3,-5 6,-2 2,-9 5,-7 8,-5 1,3 3,2 3,-4 4,8 -2,2 -2,10 10,2 5,7 h 8 l -2,-1 5,-9 13,-3 10,-16 2,-2 h 3 l 2,-7 3,-4 h 3 l 1,4 4,-3 -1,-3 3,-9 8,-1 5,-5 v -6 l -4,-3 4,-5 -4,-2 v -2 l 4,-3 4,-7 -5,-5 h -5 l -1,-5 -4,2 -1,-5 h 6 l -2,-2 2,-7 h -3 v -3 l 3,-1 2,2 4,-5 23,-2 15,1 6,2 1,2 h 9 l 4,4 3,-1 1,-3 -2,-9 2,-6 -3,-4 -1,-13 -2,-3 2,-2 -2,-4 v -15 l 4,-4 1,-6 -5,-12 2,-6 5,-2 2,-6 -3,-3 v -8 l 6,-4 5,-6 6,-11 -4,-7 -5,2 v -3 l -5,-5 -2,-5 -1,-8 h 5 l -1,-6 2,-4 4,-1 2,-4 3,-2 v -5 l 11,-6 4,3 1,4 8,6 6,-2 3,4 10,-1 9,2 v -10 l -4,-6 3,-6 3,-2 v -8 l 4,2 4,-1 v -9 l 2,-7 h 6 l -2,-15 2,-3 v -4 l 2,-2 v -4 l 2,2 h 4 l 2,-1 2,-5 -3,-17 3,-9 3,-2 1,-8 3,-1 1,-3 -3,-2 3,-15 -1,-2 -8,-1 -2,6 -4,2 -3,-8 h -3 v 8 l -5,2 -4,-2 -2,2 -4,-1 -1,3 -7,-2 -4,-4 -3,2 -11,-4 -14,1 -12,-18 -3,-10 -4,3 -3,-3 -7,-3 -4,1 -1,3 -7,-1 -2,2 -5,15 3,5 -5,6 3,6 -4,6 5,9 3,2 v 5 l -4,7 -1,9 -3,1 1,3 -3,11 v 4 l 6,2 -4,6 -3,1 -1,4 -4,4 -1,4 3,3 -2,7 -3,2 -7,-1 -7,5 -3,-3 h -2 l -1,4 2,7 -4,-1 -6,4 h -3 l -1,-4 5,-1 1,-3 -6,-2 -5,-6 -2,1 -2,6 -4,-1 -1,-6 -3,-4 h -4 l -4,7 -5,-4 -4,1 -6,-5 -12,-4 -10,12 -14,12 -5,-3 -2,-6 -4,-1 -3,1 -2,4 -3,-1 -1,3 h -3 l -1,2 h -5 l -4,-5 -6,-4 -2,-4 -7,4 h -11 l -3,3 h -3 l -6,-5 -6,2 2,15 -2,5 -3,-1 -2,5 9,11 2,-1 5,10 3,-5 h 4 l 5,3 5,14 6,3 2,-2 3,1 1,5 v 19 l -3,5 4,4 -7,5 1,9 -3,8 -17,18 -3,-2 1,6 2,1 -7,2 v 4 l -2,1 1,5 -4,-1 -1,-2 -4,2 2,4 -2,2 1,5 2,2 1,5 h 4 l 2,2 1,4 5,3 12,18 -1,6 2,1 -4,7 3,1 1,3 -4,7 5,1 -1,5 -2,2 1,5 7,6 -1,6 -3,3 1,2 -4,9 v 9 l 3,2 v 5 l 2,2 -4,5 1,5 1,2 5,2 -1,16 z m -7,-30 4,-5 -2,-2 -3,6 z m -13,-55 2,-3 h -2 l -1,2 z"
     id="孝感市" />
  <path
     stroke="#ffff00"
     stroke-opacity="1"
     stroke-width="0.5"
     stroke-linecap="round"
     stroke-linejoin="round"
     stroke-dasharray="none"
     fill="#1e90ff"
     fill-opacity="1"
     fill-rule="evenodd"
     d="m 577.99999,714 4,-1 1,4 -7,2 -1,8 -12,8 -5,-5 -5,3 h -4 l -3,-3 -6,1 -12,-5 -3,6 -12,6 -2,3 -1,7 -19,3 6,9 8,2 -1,4 6,6 1,-2 5,9 2,1 v -2 h 8 l -1,4 h 3 l -2,4 2,3 4,1 9,-6 2,2 4,-1 3,2 14,-2 2,7 4,2 4,-1 8,3 h 5 l 1,-2 8,1 2,2 2,-1 3,2 5,-1 8,-9 7,-1 13,5 v 3 l 6,2 -1,4 3,-1 6,6 5,-1 8,2 6,6 6,-1 1,1 -3,5 1,6 h 8 l 1,4 5,1 5,5 4,1 1,3 4,1 -3,-4 3,-3 v 4 l 3,3 -1,9 -2,1 -1,5 1,4 7,-1 5,7 2,-1 1,2 7,1 4,-3 5,5 v 4 l 3,5 1,-4 5,-2 v -3 l 6,-4 -4,10 2,3 2,2 13,4 2,3 v 6 l -6,11 1,10 2,-6 7,-3 1,-4 3,-2 10,1 5,-8 2,2 1,-4 5,-6 1,-6 4,-5 4,-1 3,2 h 8 l 1,6 8,3 h 2 l 8,-7 9,3 v 2 l 4,-3 7,7 2,-2 h 4 l 1,3 5,-6 v -3 l 4,-5 v -3 l 4,-2 1,3 8,-6 v -2 l 6,-3 -1,-4 3,-1 -1,-5 4,-3 -3,-3 17,-14 9,-1 2,-2 -4,-1 3,-2 5,1 4,3 1,7 -2,-3 -2,3 2,4 -1,18 2,3 3,-1 3,-4 5,-12 7,-5 2,-4 3,-1 2,3 -4,15 -3,5 -24,23 v 3 l 7,23 3,17 h 6 l 4,-8 8,-5 4,-2 h 6 l 4,12 v 9 l 2,5 2,1 3,-4 v -5 l 8,1 3,3 10,-11 10,-17 13.00001,-11 1,-5 6,-5 20,-27 30,-24 6,-8 23,-17 9,-10 14,-6 h 27 l 7,-4 19,-26 37,-14 8,-5 3,-3 1,-4 -1,-4 -9,-4 -20,-17 -8,-2 -13,5 -7,-1 -12,3 1,6 -9,8 -4,1 -2,3 -7,-5 -2,1 v 4 h -4 l -2,7 -6,1 -4,3 -5,-2 -13,2 -10,4 -10,-1 -2,-2 1,-3 -9,-8 -5,-10 -7,-5 h -4 l -11,-8 h -8 l -5,8 -5,3 -18,2 -6.00001,-2 -16,4 h -4 l -4,-3 -8,2 -11,-13 h -4 l -2,2 1,3 -3,3 1,4 -8,5 -3,-2 -4,1 -4,-2 v -5 l -6,-2 -5,1 -3,-3 -3,1 v -4 l -3,-2 -4,3 -2,4 -7,1 -2,3 2,9 -2,4 h -5 l -1,2 8,7 h -20 v -3 l -15,-1 -3,-3 -10,-4 -11,-1 -2,-3 4,-5 -1,-8 -3,-1 -2,-3 v -6 l 2,-1 -9,-15 -5,-5 -3,-12 2,-10 -3,-2 -2,-5 6,-6 -16,-13 -7,1 -1,3 -9,-1 -5,1 -6,5 h -6 l -7,-6 -1,-3 3,-4 -3,-9 -7,-3 -3,-4 -4,2 -7,-2 -5,3 v 4 l 3,1 v 2 h -6 l -3,-3 -1,-4 2,-8 -2,-3 -4,-1 -2,3 -4,-3 v -11 l -6,-8 2,-8 -5,-2 -1,-5 -4,-3 -4,2 -1,-2 -10,4 -3,9 -6,4 v 4 l -3,4 6,2 1,3 -7,16 -13,-1 -3,8 4,2 -5,5 3,4 8,1 1,-2 4,3 2,5 -1,17 5,8 8,8 6,3 v 3 l -2,2 1,2 h -8 l -6,-2 -13,-19 -3,-2 -4,3 -3,18 -2,1 -9,-3 -7,2 -2,-5 -3,1 -12,-23 h -8 l -14,11 -12,6 -8,14 -4,4 h -3 v 5 l 5,2 v -2 l 3,2 -2,5 -2,1 v 6 l -3,1 v 6 z M 1182,755 l -7,3 -2,6 11,-9 z m -606.00001,-36 6,-2 -4,-3 z m 342,106 -2,2 7,6 2,-3 z"
     id="荆州市" />
  <path
     stroke="#ffff00"
     stroke-opacity="1"
     stroke-width="0.5"
     stroke-linecap="round"
     stroke-linejoin="round"
     stroke-dasharray="none"
     fill="#1e90ff"
     fill-opacity="1"
     fill-rule="evenodd"
     d="m 1496,694 -4,3 -2,4 h 8 l 5,-3 9,2 3,5 12,12 14,24 1,14 9,7 6,12 6,4 -1,8 7,7 4,9 10,7 6,2 h 18 l 27,-3 20,17 19,13 25,8 8,-1 22,-11 15,-14 7,-3 v -17 l -2,-7 -13,-17 -1,-4 2,-3 -1,-9 4,-8 -3,-6 2,-13 -1,-7 -3,-2 -4,-11 2,-11 -5,-5 -4,-1 -1,-4 -3,-3 -5,-2 -4,-12 -7,-3 -8,2 -4,-3 -1,-2 3,-2 1,-3 -6,-7 -3,-7 7,-6 3,-5 h 4 l 2,-2 -6,-2 -1,-3 -6,-4 4,-16 3,-2 -4,-3 -2,-4 -3,-1 -1,-6 -2,-2 1,-3 -3,-3 -3,-1 -2,-3 -5,-1 -1,3 -1,-1 -3,-5 v -8 l -3,-3 v -2 l -6,-3 v -3 l -3,-2 5,-20 3,-2 h 4 l 3,2 8,-2 1,-3 3,-2 1,-2 -3,-1 2,-4 -1,-5 -4,-4 1,-5 4,-6 12,-7 h 5 l 1,-4 9,-6 1,-3 12,-7 3,1 1,-2 h 9 l -4,-16 h -11 l -2,-7 -12,-4 -4,2 -2,-2 1,-7 -8,-6 -2,1 -4,-6 v -6 l -2,-4 -3,-2 -8,6 -6,-1 -4,1 -4,4 -5,-1 -2,-7 -4,-4 -2,-5 -8,-9 -6,-2 -8,-1 -3,3 -1,5 -7,3 -2,7 -3,2 -6,-5 -5,-8 v -12 l -6,-11 h -12 l -1,-4 -2,-1 1,-11 h -4 l -2,-9 -5,-1 -4,4 -2,-2 -7,-2 3,-2 -2,-4 5,-6 -5,-5 -5,2 -5,-1 -2,4 -4,2 h -3 l -5,-5 -5,4 -3,-1 3,-7 -7,-4 h -4 l -2,-6 2,-6 -2,-7 6,-20 h -6 l -1,-3 -4,1 v -2 l -3,-3 -1,-6 -3,-2 -10,2 v 6 l -5,3 -1,4 2,1 -1,2 2,5 -3,3 h -2 v 3 l -14,-2 -3,-3 -7,8 2,3 -3,5 -3,-1 -2,-6 h -3 l -8,8 -3,-3 -12,3 -2,-3 -10,6 -4,-6 -8,-1 v -4 l -2,-1 -1,-4 2,-2 -6,-2 -9,2 -1,-3 -5,1 v -6 h -7 l -8,-11 -6,-1 -1,2 -4,1 -3,5 h -3 v 2 l -4,-5 -2,5 -2,1 h -4 l -2,-2 v 4 l -2,2 v 4 l -2,3 2,15 h -6 l -2,7 v 9 l -4,1 -4,-2 v 8 l -3,2 -3,6 4,6 v 10 l -10,17 1,6 4,6 3,2 h 5 v 3 l 5,1 v 2 h -4 l 1,5 3,-1 5,7 7,1 2,3 v 4 l 2,1 -2,3 2,4 -5,9 v 4 l -3,2 -1,3 3,6 7,4 1,3 2,-2 7,9 7,2 3,10 h 3 l 6,-4 1,3 7,-5 7,2 -2,-3 v -7 l 3,-2 h 4 l 5,-4 6,3 -2,2 1,5 3,-5 v -3 l 5,-4 -1,4 3,-2 v 6 l 3,6 h 2 v 2 l 9,1 4,-7 -2,-4 -4,-1 v -2 h 3 l 5,-4 h 5 l 4,-3 4,-7 3,1 v 3 l -2,1 v 6 l 1,2 4,-2 -1,3 3,2 3,-6 -2,-5 3,-1 v 7 l 2,2 v 4 l -2,3 3,2 -2,2 1,4 5,6 7,-1 -2,3 2,3 h 5 v 4 l 6,1 1,4 -8,5 1,2 -5,2 -2,-3 h -4 l -1,2 -2,-2 -2,4 2,3 -3,8 -1,-2 -3,3 -1,-2 -6,3 3,4 -2,4 -4,-5 h -3 l -2,2 -8,-4 -2,1 v 9 l -7,7 -10,5 -3,-2 -2,4 5,10 -1,4 2,3 4,-2 5,8 3,1 -3,3 -15,3 4,1 6,5 3,21 -2,16 3,8 5,6 13,6 16,2 10,-1 10,4 4,7 3,11 1,15 -2,12 4,5 5,3 7,-7 -2,-3 8,3 v 2 z m -54,-236 -3,-1 -2,3 3,6 2,-2 z m 48,243 2,-4 4,-3 -2,-1 -7,7 z"
     id="黄冈市" />
  <path
     stroke="#ffff00"
     stroke-opacity="1"
     stroke-width="0.5"
     stroke-linecap="round"
     stroke-linejoin="round"
     stroke-dasharray="none"
     fill="#1e90ff"
     fill-opacity="1"
     fill-rule="evenodd"
     d="m 1337,772 -2,-2 -2,1 -5,-3 v -2 l -2,-1 -2,2 -19,-10 -12,-4 -3,2 h -4 l -2,3 -7,3 -8,2 -8,1 -6,-2 -1,-8 -3,-3 -1,-14 -7,-1 -1,-5 -3,-3 v -8 l -9,-15 -2,-2 -8,-2 -10,4 v -4 h 2 l 1,-3 -4,-2 -5,-12 -10,-9 -12,2 -4,4 -12,20 v 6 l 7,1 13,-5 6,1 22,18 9,4 v 8 l -11,8 -30,11 v 2 h 2 l -11,9 v -2 l -2,-1 -15,21 -7,4 h -27 l -14,6 -9,10 -9,6 2,4 -1,5 -3,3 1,1 -2,4 2,2 -4,5 2,12 -5,8 -1,5 3,3 15,2 8,-1 4,-4 h 3 l 4,13 6,2 1,7 h 4 l 2,5 h 3 l -2,5 -6,2 -1,4 -7,2 v 3 l -6,1 -7,4 1,4 h 14 l 5,7 9,5 -1,1 4,5 v 2 l -5,4 2,4 -3,6 h -10 l -5,2 -3,5 v 11 l -7,4 -5,14 -2,1 1,5 h 6 l 3,6 4,2 1,-2 h 6 l 1,9 -8,10 3,9 3,1 2,5 -2,10 h 6 v -3 l 4,-4 h 2 l -1,6 4,8 6,-6 v -3 l 2,-2 11,-3 3,1 2,4 -1,6 6,3 3,-2 h 4 l -2,2 v 6 l 9,2 1,-2 7,-3 3,-5 v -8 l 2,-3 h 3 l 4,-7 9,-5 4,-4 1,-4 5,-5 v -5 l 27,-4 3,1 12,-6 h 7 l -1,-9 3,-8 -2,-3 3,-6 -1,-6 12,-7 5,3 5,9 8,1 6,-4 8,-1 3,-3 2,2 -2,1 3,1 1,3 10,-1 2,2 23,-9 7,-8 7,-1 7,-4 15,1 2,2 v 6 l 5,1 2,-5 4,-2 6,1 6,-4 9,-2 3,1 v 3 l 5,-2 4,-7 4,1 1,-9 3,-3 -2,-8 h -3 l -5,4 1,3 3,2 -8,5 -3,-9 -4,-2 6,-6 4,-10 2,2 -2,5 7,-4 -1,6 4,1 5,-2 3,-4 -1,-2 -5,-1 v -5 l 3,-3 -4,-1 -2,-3 v -5 l -7,-1 v -4 l -4,-4 1,-8 -3,-4 -1,-6 -4,-7 h -5 l -3,-10 -5,-2 h -13 l -1,-2 -4,1 -5,-5 3,-12 -1,-11 -5,-1 3,-16 h -6 l -9,-3 v -2 h -5 l -11,-5 v -2 l -3,-2 -8,1 -2,-3 -4,2 v -2 l 4,-2 -2,-3 h -3 z m -155,-17 v -2 l -7,3 -4,5 2,1 2,-4 3,-2 z"
     id="咸宁市" />
  <path
     stroke="#ffff00"
     stroke-opacity="1"
     stroke-width="0.5"
     stroke-linecap="round"
     stroke-linejoin="round"
     stroke-dasharray="none"
     fill="#1e90ff"
     fill-opacity="1"
     fill-rule="evenodd"
     d="m 1231,221 -5,1 -3,3 v 4 l -4,-1 -4,4 -2,-1 -3,2 -6,-1 -7,6 -2,-1 -4,-9 -3,-3 -1,-10 2,-9 -6,-4 v -3 h -3 l -4,3 -2,6 -6,3 -2,-2 -2,2 -5,-4 v -5 l -2,-3 v -12 l -4,-1 -3,-3 3,-10 -15,-6 v -5 l 8,-10 -2,-4 -9,-7 v -2 l -5,-2 -1,-12 4,3 3,-1 4,-7 -1,-7 5,-7 -1,-7 -3,2 -7,-12 v -5 l 3,-1 -2,-7 1,-2 7,-3 -5,-8 v -5 l 1,-3 3,-2 v -3 h -2 l -2,3 -3,-3 3,-6 -4,-1 -1,-6 h -7 l -1,-2 -3,1 -7,-2 -1,4 -3,-1 -3,8 -3,2 v 5 l -3,2 -2,-2 h -4 l 4,3 -4,1 -3,-2 1,4 -5,1 -3,3 2,7 -2,2 -1,-8 -5,-1 -28,19 -3,-3 h -3 l -1,-3 -4,-3 h -8 l -4,-6 h -3 v -3 l 4,-3 -3,-3 -6,-2 -1,-4 -15,-12 -3,-6 -4.00001,-2 -6,3 h -4 l -3,4 -1,9 -10,1 -2,4 -7,-2 -5,3 1,7 6,5 v 5 l -6,7 -4,2 -3,-1 -4,4 3,9 v 11 l -3,8 v 7 l 7,10 -16,20 1,22 6,1 4,3 v 4 l -5,-1 -1,5 -2,-1 -3,12 -6,2 -1,2 4,13 -4,5 -8,-4 -7,8 -1,4 -4,2 -4,-3 -4,2 -6,13 -8,2 -4,4 -7,-3 -2,1 v 10 l -4,3 -1,20 2,6 4,2 4,-1 4,4 9,1 4,2 4,8 6,1 4,4 3,6 1,15 3,2 9,-1 8,11 3,1 6,-2 3,-3 7,4 6,-3 6,1 4,5 h 4 l 3,-3 4,2 -1,3 -2,-1 v 2 l 3,3 2,-2 10,5 9.00001,13 6,-1 8,5 v 4 l 5,-4 2,-5 3,1 2,-5 -2,-15 6,-2 6,5 h 3 l 3,-3 h 11 l 7,-4 2,4 6,4 4,5 h 5 l 1,-2 h 3 l 1,-3 3,1 2,-4 3,-1 4,1 2,6 5,3 8,-6 16,-18 12,4 6,5 4,-1 5,4 4,-7 h 4 l 3,4 1,6 4,1 2,-6 2,-1 5,6 6,2 -1,3 -5,1 1,4 h 3 l 6,-4 4,1 -2,-7 1,-4 h 2 l 3,3 7,-5 7,1 3,-2 2,-7 -3,-3 1,-4 4,-4 1,-4 3,-1 4,-6 -6,-2 3,-15 -1,-3 3,-1 1,-9 4,-7 v -5 l -8,-9 4,-8 -3,-5 5,-7 -3,-5 z m -90,-145 -3,-2 -1,1 1,6 1,-2 h 2 z"
     id="随州市" />
  <path
     stroke="#ffff00"
     stroke-opacity="1"
     stroke-width="0.5"
     stroke-linecap="round"
     stroke-linejoin="round"
     stroke-dasharray="none"
     fill="#1e90ff"
     fill-opacity="1"
     fill-rule="evenodd"
     d="m 285.99999,365 -3,-4 v -4 l -9,-6 h -4 l -2,-3 h -8 l -1,-2 h -6 l -12,15 -5,1 -4,3 -3,5 -12,6 -4,-3 -2,7 1,9 h 3 l -1,7 2,4 1,10 5,7 -3,4 v 5 l -7,4 -4,-1 v 3 l -3,1 -4,5 1,5 3,3 -2,2 -1,7 h 5 v 8 l -2,5 8,-1 2,1 v 3 l -3,3 1,2 -3,2 -2,9 1,4 -7,13 -2,7 -5,5 -4,9 h -7 l -3,-3 v -4 l -6,-2 v -8 l -3,-5 1,-3 -4,-2 h -5 l -4,3 h -4 l -1,-3 -12,-3 -19,11 -10,4 -13,10 -4,4 1,7 -4,2 v -4 l -5,5 -7,2 1,7 -3,6 -6,5 -9,2 -2,7 1,2 -3,5 -9,3 -2,-1 2,-3 -1,-4 h -2 l -12,12 -7,3 -1,3 -3,2 -5,11 -17,22 -3,-2 -1,-7 6,-10 -4,-8 -8,-7 3,-4 -3,1 -4,-6 -5,6 -12,7 -1,2 5,-1 -7,4 -8,8 -6,-1 -5,8 -2,-1 v -3 l -4,1 -11,-20 3,-3 5,-1 2,-5 -1,-5 -5,2 -2,-3 -9,2 -2,-4 -6,3 -4,5 -2,-1 -3,2 -3,-2 -8,9 -7,4 -6,6 -13,18 -9,5 -5,-7 -12,6 -8,-8 1,-3 -4,-4 v -5 l -3,-8 h -6 l -7,4 3,6 v 5 l -8,4 1,3 -5,1 2,3 -5,2 v 2 h -3 l -4,6 -3,-6 h -6 l -5,-5 -5,1 -3,4 -13,-2 -4,5 2,4 v 5 l -2,3 4,6 -2,2 1,3 -2,2 -5,1 1,5 5,2 3,4 7,-2 2,5 4,2 4,6 h 4 l 3,3 v 4 h 2 v 3 l 3,2 v 2 l 6,4 h 3 l -7,24 v 4 l 4,2 -9,21 v 3 h -2 l -3,3 v 3 h 4 v 15 l 3,2 -7,20 2,6 v 4 l -2,3 1,6 -2,-4 h -3 l -2,3 -6,2 -9,-5 -8,7 -2,-2 -2,1 1,2 -5,3 -1,7 7,1 v -5 h 3 l 1,4 4,1 -2,8 2,5 4,-2 1,4 -2,3 v 4 h 6 l 2,4 5,1 4,5 3,-1 v -3 l -3,-2 4,-2 1,1 6,-3 1,-2 -2,-3 -5,-2 9,-16 6,-4 -1,-4 3,-1 3,-5 h 8 v 3 h 7 l 3,11 -3,1 6,4 -1,16 2,2 -1,6 3,5 -2,3 1,1 5,-2 2,2 -1,3 7,4 3,5 4,-3 2,3 2,-1 -2,-2 v -4 l -3,-2 -1,1 -2,-4 h 9 v 4 l 3,5 -2,4 -1,-1 -2,2 2,3 5,-2 2,3 2,-1 -1,-4 3,-7 2,1 -2,4 1,1 3,-2 3,6 3,-2 5,3 v 4 l -4,7 4,2 4,-4 2,3 -3,3 3,3 -8,10 2,2 v 10 l -4,3 -1,5 1,6 3,3 10,1 5,8 -2,3 -4,22 10,-2 4,1 3,-2 v -4 l 4,-4 9,1 1,-9 4,-4 7,4 8,8 v 14 l -2,7 10,6 -9,17 4,4 v 3 l 4,6 6,-3 2,1 11,9 5,8 3,1 3,-2 h 5 v -3 l -3,-3 -1,-5 3,-4 1,-8 -5,-7 15,-8 10,-10 v -6 h -2 l -1,-9 1,-10 6,-4 6,3 -3,-3 1,-3 -4,-5 1,-4 6,-4 2,1 v -3 l 3,-3 -3,-4 2,-7 2,-2 4,3 1,-1 -2,-4 v -7 h 4 v 2 l 3,3 2,-1 -2,-5 1,-7 1,-1 6,2 4,-11 v -2 l -2,-1 1,-2 3,2 3,-3 -3,-2 1,-3 h 3 l 1,3 5,1 2,2 4,-4 v -2 l 9,-2 8,3 3,-1 v 5 l 3,3 14,-5 -4,-6 4,-6 -1,-5 12,-4 v -8 l 3,-3 -5,-3 v -2 l 4,-1 3,-4 23,-5 5,3 2,-2 3,2 10,-4 v 2 l 20,1 10,-4 13,-2 8,5 4,5 15,2 18,15 1,8 2,2 4,1 6,-2 4,8 5,2 10,-6 1,-2 8,-1 v -8 l 4,-7 11,7 5,-1 9,-5 3,-4 11,-7 7,-7 -6,-16 -6,-4 -3,1 -2,-3 -7,-1 -4,-9 1,-5 -10,-4 2,-3 v -7 l 3,-5 10,-8 -3,-4 h -7 l -4,-2 -3,-4 -7,4 -11,15 -13,-1 -8,5 -8,-3 -2,-3 3,-4 -2,-7 3,-5 v -6 l 2,-2 -1,-6 6,-5 -1,-4 -5,-2 7,-8 -11,-7 v -5 l -8,-4 1,-3 6,-2 -1,-4 -8,-3 -3,-4 18,-4 7,2 v -5 l 6,-13 -6,-8 4,-2 -4,-3 1,-6 6,-10 -3,-5 2,-2 1,-7 -3,-6 2,-2 3,1 6,-4 8,-2 1,-7 6,-3 2,-5 -1,-3 4,-1 -1,-3 -4,1 1,-5 -2,-5 -6,-3 -2,-4 4,-4 v -5 h 5 l -1,-5 -3,-1 1,-11 2,-3 -1,-5 h -2 l -3,-4 -2,-8 -3,-3 h -10 l -2,4 -9,5 -6,-3 2,-7 4,-6 -2,-3 1,-4 5,-1 13,-12 h 4 l 6,-3 -4,-9 4,-17 v -19 l 8,-2 -3,-13 9,-1 10,-14 -6,-4 -4,-6 v -5 l -6,-2 v -5 h 3 l -1,-9 5,-4 -1,-2 h -7 l -2,-2 h -3 l -1,-3 -3,-2 v -7 l -3,-3 5,-3 z"
     id="恩施土家族苗族自治州" />
  <path
     stroke="#ffff00"
     stroke-opacity="1"
     stroke-width="0.5"
     stroke-linecap="round"
     stroke-linejoin="round"
     stroke-dasharray="none"
     fill="#1e90ff"
     fill-opacity="1"
     fill-rule="evenodd"
     d="m 1063,647 -3,4 -4,-5 -8,-1 -11,-7 -5,-1 -6,1 -8,-2 h -16 l -6.00001,2 -3,-6 -4,-2 -5,5 -6,-5 -3,-6 v -5 h -4 l -7,4 -3,-1 2,-9 -1,-2 -7,-1 -6,-5 h -8 l -8,3 -2,-1 -3,3 3,9 -1,2 3,1 2,-2 2,3 5,-1 v 4 h -2 l -2,4 3,6 h -2 v 3 l -7,11 7,11 -2,4 2,6 4,2 3,4 v 8 l -3,9 1,6 2,-2 2,7 7,2 11,13 8,-2 4,3 h 4 l 16,-4 6.00001,2 18,-2 5,-3 5,-8 h 8 l 11,8 h 4 l 7,5 5,10 9,8 -1,3 2,2 10,1 10,-4 13,-2 5,2 4,-3 6,-1 2,-7 h 4 v -4 l 2,-1 7,5 2,-3 4,-1 9,-8 -3,-14 -3,1 -8,-4 -4,-5 3,-4 3,-1 4,-10 h -4 l -4,-4 v -8 l -4,-4 -1,-4 2,-8 h -11 l 1,-4 h -8 l -5,-7 -10,-2 2,-10 2,-2 -4,-8 -3,4 -3,-2 -1,-3 -3,3 h -3 l -7,9 -2,9 -6,2 -3,5 v 4 h -4 l -3,-3 z m 76,27 v 1 z"
     id="仙桃市" />
  <path
     stroke="#ffff00"
     stroke-opacity="1"
     stroke-width="0.5"
     stroke-linecap="round"
     stroke-linejoin="round"
     stroke-dasharray="none"
     fill="#1e90ff"
     fill-opacity="1"
     fill-rule="evenodd"
     d="m 820.99999,646 -6,6 2,5 3,2 -2,10 3,12 5,5 9,15 -2,1 v 6 l 2,3 3,1 1,4 v 4 l -4,5 2,3 11,1 10,4 3,3 15,1 v 3 h 20 l -8,-7 1,-2 h 5 l 2,-4 -2,-9 2,-3 7,-1 2,-4 4,-3 3,2 v 4 l 3,-1 3,3 5,-1 6,2 v 5 l 4,2 4,-1 3,2 8,-5 -1,-4 3,-3 -1,-3 2,-2 -1,-2 h -2 l -2,-7 -2,2 -1,-6 3,-9 v -8 l -3,-4 -4,-2 -2,-6 2,-4 -7,-11 7,-11 v -3 h 2 l -3,-6 2,-4 h 2 v -4 l -5,1 -2,-3 -2,2 -3,-1 1,-2 -3,-9 3,-3 -4,-10 -8,-5 -3,1 -5,7 2,13 -3,4 -10,-3 -4,-3 -7,-19 -7,2 -7,-2 -4,2 -3,4 h -2 l -5,-6 -2,-7 2,-6 8,-3 1,-2 -8,-3 -1,2 h -3 v 4 l -6,4 -4,-3 -2,1 v 2 l 4,4 -4,4 v 5 l -4,1 -1,4 4,8 -2,4 -4,2 v -3 l -3,-4 -2,2 -2,8 v 3 h 3 l -1,10 -2,2 -9,2 -2,4 2,4 z m 37,-70 h -3 l 1,-3 -3,1 v 3 l -5,1 4,3 6,-4 z m 81,63 -1,1 z m 11,66 1,1 z m -13,-82 z"
     id="潜江市" />
  <path
     stroke="#ffff00"
     stroke-opacity="1"
     stroke-width="0.5"
     stroke-linecap="round"
     stroke-linejoin="round"
     stroke-dasharray="none"
     fill="#1e90ff"
     fill-opacity="1"
     fill-rule="evenodd"
     d="m 1056,617 -1,-1 3,-6 v -5 l -3,-2 v -9 l 4,-9 -1,-2 3,-3 1,-6 -7,-6 -1,-5 -12,-2 2,-13 h 12 l -1,-3 -3,-1 4,-7 -2,-1 1,-6 -12,-18 -5,-3 -1,-4 -2,-2 h -4 l -1,-5 -2,-2 -1,2 -9,-5 -9,6 -3,5 -4,1 2,2 -2,2 -2.00001,-2 -9,13 -11,4 -16,-7 -2,1 v 11 l -10,4 -4,-1 -2,-4 -4,1 -5,6 -12,8 -2,6 h -7 l -1,5 -3,1 -14,-7 v -2 l 2,-1 v -14 l -3,-3 v -4 l -3,-7 h -3 l -5,3 -2,4 -12,6 -18,15 -6,7 -7,2 -3,8 v 3 l 11,7 18,-5 3,2 1,3 -2,4 -8,3 -2,6 2,7 5,6 h 2 l 3,-4 4,-2 7,2 6,-2 8,19 4,3 10,3 3,-4 -2,-13 2,-4 6,-4 8,5 4,10 2,1 8,-3 h 8 l 6,5 7,1 1,2 -2,9 3,1 7,-4 h 4 v 5 l 3,6 6,5 4,-5 5,2 3,6 6.00001,-2 35,2 11,7 8,1 4,5 3,-4 v -21 l -5,-2 -1,-2 z m 0,-69 h -12 l -2,12 3,-1 -2,3 11,1 2,-2 1,-5 -5,-1 2,-2 z m 4,64 -2,4 3,-4 z m -161.00001,-66 -1,2 6,1 -2,-3 z m -55,7 -2,-2 -1,2 z m 142,80 -2,2 z"
     id="天门市" />
  <path
     stroke="#ffff00"
     stroke-opacity="1"
     stroke-width="0.5"
     stroke-linecap="round"
     stroke-linejoin="round"
     stroke-dasharray="none"
     fill="#1e90ff"
     fill-opacity="1"
     fill-rule="evenodd"
     d="m 165.99999,310 -6,4 -1,3 h -2 l -2,3 2,3 h 12 l 2,5 8,4 v 3 l 5,6 14,1 2,-2 1,4 7,6 -2,4 3,3 -1,3 3,4 -2,5 3,1 1,3 4,3 12,-6 3,-5 4,-3 5,-1 12,-15 h 6 l 1,2 h 8 l 2,3 h 4 l 9,6 v 4 l 3,4 5,1 4,-4 2,-9 3,1 2,3 -1,3 8,9 9,-4 1,-4 -3,-7 4,-4 -1,-6 3,-3 5,-12 2,-11 5,2 13,-2 2,3 h 4 l 6,-12 v -4 l 3,-3 12,-4 6,5 3,-2 1,6 5,7 h 2 l 9,-9 4,-1 2,-6 8,-4 -1,-8 7,-14 3,-1 -1,-3 -8,-4 -8,2 -6,-5 -3,-6 v -5 l -2,-1 1,-6 -2,-4 -8,-11 h -7 l -11,-15 -2,2 -2,-4 -11,-2 -2,-2 -8,-2 -3,5 -6,-2 h -4 l -2,2 -19,-2 -2,3 h -3 v -4 l -2,-1 -7,3 1,3 -4,2 v 5 l -5,2 -5,-2 -1,-2 -6,1 -2,3 -8,2 1,9 -6,3 -17,-1 -12,10 v 4 l -5,13 4,2 2,3 -1,4 -6,4 -1,4 4,2 3,4 v 2 l -3,2 -1,5 -7,-4 -6,-7 h -10 l -17,13 1,4 -11,9 -8,-1 z"
     id="神农架林区" />
</svg>