<?xml version="1.0" encoding="UTF-8" standalone="no"?>
<svg
   width="1409.9999"
   height="1594"
   viewBox="-251 -228 1409.9999 1594"
   version="1.1"
   id="svg1"
   xmlns="http://www.w3.org/2000/svg"
   xmlns:svg="http://www.w3.org/2000/svg">
  <defs
     id="defs1" />
  <path
     stroke="#ffff00"
     stroke-opacity="1"
     stroke-width="0.5"
     stroke-linecap="round"
     stroke-linejoin="round"
     stroke-dasharray="none"
     fill="#1e90ff"
     fill-opacity="1"
     fill-rule="evenodd"
     d="m 550.99995,393 -1,3 3,3 -2,5 3,3 6,-5 4,1 3,6 5,3 4,14 h 5 l 3,-2 4,1 4,-3 7,4 3,4 5,-1 2,-4 6,1 3,-3 -1,-3 4,-4 2,1 v -3 l 5,-6 v 2 l 3,2 3,-5 2,3 7,1 10,-4 h 2 l 2,4 h 8 l 2,-2 5,-1 10,2 1,-9 -4,-1 4,-5 v -8 l 8,-5 4,2 2,-2 3,1 9,11 -2,2 1,5 h 5 l 2,5 4,1 2,-2 4,6 5,2 -1,6 4,4 1,5 h 2 l 4,6 h 4 l 1,-6 -1,-5 -2,-2 3,-5 8,4 -1,2 6,-1 2,2 h 5 v -3 l 3,-1 v -4 l 4,-6 1,-11 4,-5 -2,-3 1,-2 4,2 v 2 h 3 l 2,-4 -7,-4 -2,-3 2,-3 9,1 -1,2 5,7 -1,3 2,2 h 3 l 3,5 -1,4 h 4 l -1,-4 h 2 l 1,3 h 3 l -2,6 4,-2 2,2 4,-1 1,-2 4,-1 -1,-2 h -3 l 2,-6 h 3 l 15,14 5,-3 v -3 l 3,3 -1,-5 2,-4 8,-1 5,6 -4,5 4,2 -1,5 6,5 3,5 h 4 l 1,-4 -2,-1 v -3 l 2,-1 -1,-2 6,-4 -3,-4 v -4 l 6,-2 -2,-2 3,-2 h 9 l 1,-3 8,4 1,-3 3,2 -1,5 2,-4 2,6 -1,4 2,2 -1,6 h -3 l -1,2 4,7 h 4 v 2 h -3 v 14 l 3,-1 v -3 h 3 v 2 l 8,4 3,-1 4,3 7,-2 4,1 3,-2 1,-9 2,-2 9,-1 1,-5 7,-6 8,-1 1,-5 11,-2 2,2 1,6 -3,3 2,8 4,3 2,-4 -1,-2 2,-1 8,5 3,5 2.00005,1 2,-2 9,4 7,-5 2,1 1,-7 3,-2 2,-6 4,-5 6,-1 2,-5 5,-3 2,3 h 4 l 2,-1 v -4 l 2,-3 3,-1 2,3 6,2 3,-1 6,-9 2,2 5,-1 -2,-5 3,-2 h 8 l 7,3 v -3 l 5,-5 -2,-6 -5,-2 h 3 l -3,-5 -1,-6 -2,-1 v -5 l -4,-5 5,-4 4,1 6,-2 1,2 h 4 l 9,-3 1,-6 9,-10 1,-3 6,-2 3,1 1,-5 3,-2 v -5 l 5,-1 9,-7 1,-2 -2,-4 3,-5 -2,-3 2,-2 -1,-6 h -7 l -4,-3 -5,-8 h -5 l 12,-11 v -4 l -6,-5 -6,1 -5,-3 -4,-5 v -3 l -10,-2 -3,-4 h -4 l -5,3 -3,-2 -4,2 -8,-6 h -5 l -3,6 -6,5 h -10 l -3,3 -4,-1 -4,-4 -4,3 -3,10 -4,7 -22,7 -3,5 -4,1 -7,-6 -5,-2 1,-2 -3,-4 -9.00005,-8 -10,-12 -5,1 -2,3 -11,-4 -1,-6 -10,-11 -8,1 -2,4 -2,-4 2,-13 -3,1 -9,-3 -5,3 v 3 l -2,2 h -8 l -2,-5 -7,-2 -7,3 -3,-3 -1,-5 -2,-2 v 5 l -5,2 v 5 l -5,6 -3,1 2,5 -1,4 h 2 l 1,4 -3,7 v 8 l -4,3 v 4 l -5,2 h -6 v -8 h -4 l -7,-3 -2,-4 -3,1 -1,4 -11,10 -7,3 -5,-1 -3,-3 4,-7 v -7 l -10,4 -5,-3 h -12 v 6 l -5,-4 h -8 v -4 l -4,2 -4,-1 -1,-3 6,-7 h -4 l -6,3 -4,5 -2,6 h -9 l -7,-5 -4,3 -2,5 -3,1 1,3 -4,5 h -3 l -1,7 -3,6 -7,6 -2,6 1,3 -2,1 v 4 l -3,3 2,6 -4,2 -5,-2 v -2 l -2,2 -6,1 -1,3 -3,1 -4,-3 -2,2 -4,-2 -3,2 -1,-2 -1,2 h -3 l 1,2 -4,3 -7,1 -2,2 -7,-2 1,3 3,-1 -3,3 -4,-3 h -4 l 1,6 -4,1 -3,4 -1,-2 h -2 l -7,6 -4,7 -4,-7 -4,-2 -3,2 -5,-1 -2,-3 -6,-2 -2,-4 h -15 v 2 l -7,3 -5,-1 -6,3 -2,2 v 3 l -10,5 -5,7 -1,4 -2,1 v 10 l -6,5 -3,5 5,5 -1,1 3,4 -4,4 1,7 z"
     id="长沙市" />
  <path
     stroke="#ffff00"
     stroke-opacity="1"
     stroke-width="0.5"
     stroke-linecap="round"
     stroke-linejoin="round"
     stroke-dasharray="none"
     fill="#1e90ff"
     fill-opacity="1"
     fill-rule="evenodd"
     d="m 1022,433 -2,-1 -7,5 -9,-4 -2,2 -5.00005,-6 -8,-5 -2,1 1,2 -2,4 -4,-3 -2,-8 3,-3 -1,-6 -2,-2 -11,2 -1,5 -8,1 -7,6 -1,5 -9,1 -2,2 -1,9 -3,2 -4,-1 -7,2 -4,-3 -3,1 -8,-4 v -2 h -3 v 3 l -3,1 v -14 h 3 v -2 h -4 l -4,-7 1,-2 h 3 l 1,-6 -2,-2 1,-4 -2,-6 -2,4 1,-5 -3,-2 -1,3 -8,-4 -1,3 h -9 l -3,2 2,2 -6,2 v 4 l 3,4 -6,4 v 11 h -4 l -3,-5 -6,-5 -4,3 -8,22 2,5 -12,10 1,4 5,2 3,8 -2,3 1,3 7,4 -2,5 h -6 l -5,8 -4,2 v 3 l 3,4 6,-2 1,2 -2,3 4,3 v 3 l -5,3 -3,-3 -3,2 3,5 -5,6 -4,2 -1,3 2,5 -2,9 2,3 3,1 -5,7 2,2 2,-1 1,7 3,3 -2,8 2,5 6,2 v 5 l 5,5 -3,1 v 5 l 4,2 -1,4 2,6 9,6 -1,4 3,4 -2,1 6,3 1,6 4,-1 1,-6 4,-7 6,6 3,-2 h 17 l 6,10 3,8 -1,3 -5,-2 -1,4 -3,2 v 4 l -2,-2 -5,4 -6,-3 v 2 l -7,3 -1,7 3,4 5,3 1,11 4,-1 1,5 4,1 v 2 l -4,3 2,3 v 11 l 5,5 h 9 l -1,3 -3,3 h -2 l -1,5 -4,2 v 5 h -3 l 9,14 5,1 -2,3 3,4 -2,6 2,2 h 6 l 2,-7 6,-4 12,4 2,-2 9,10 -7,18 -5,2 5,9 v 3 l 4,3 -1,11 -3,1 v 3 l 4,2 3,9 13,-2 4,-6 8,-3 8,3 2,3 -1,7 3,9 4,-1 v 3 l 4,1 -4,12 6,10 -1,4 -6,7 v 7 l 4,7 v 5 l 2,4 3,2 -1,8 8,3 3.00005,-1 5,7 12,7 4,11 -2,13 -7,4 -3,8 4,9 7,7 h 4 l 8,-7 v -8 l 3,-3 8,6 5,-3 4,-7 10,-5 5,-10 14,-9 v -5 l 4,-8 11,-5 -2,-5 1,-4 4,-4 -2,-4 3,-4 -2,-2 v -5 l -2,-4 h 2 l 1,-4 h 2 l 3,-5 h 6 v -9 l 7,-13 h -4 l -2,2 -4,-1 3,-7 v -6 l 3,-4 3,-10 h -10 l -2,-2 -11,-2 v -3 l -6,-5 h -23 l -1,-3 -4,-3 -1,-5 h -4 l -2,-3 1,-12 -2,-2 v -16 l -2,-6 -3,-2 v -3 l 6,-6 5,-9 h 3 v -11 l 3,-4 v -4 l 6,-6 -1,-4 -7,-2 -6,-7 -2,-8 h -4 l -2,-5 h -4 l -2,-3 -2,-15 -7,3 -2,-3 v -7 l 1,-4 10,-11 2,-6 6,-8 3,-14 3,-4 v -4 h -3 l -1,-2 5,-12 v -10 l -1,-1 -12,6 h -11 l -10,4 h -5 l -6,5 h -7 l -4,-4 -5.00005,-1 -3,2 -6,-7 v -5 l 7,-5 -2,-5 h -4 l -2,-3 v -6 l -2,-5 6,-3 3,-6 -1,-2 2,-2 -2,-4 -3,3 -7,-3 -1,-6 8,-11 -1,-12 3,-5 9.00005,-6 4,-9 7,-7 1,-7 17,-19 -3,-15 -6,-3 z"
     id="株洲市" />
  <path
     stroke="#ffff00"
     stroke-opacity="1"
     stroke-width="0.5"
     stroke-linecap="round"
     stroke-linejoin="round"
     stroke-dasharray="none"
     fill="#1e90ff"
     fill-opacity="1"
     fill-rule="evenodd"
     d="m 575.99995,426 3,8 1,10 3,3 4,-1 1,6 6,4 5,-3 3,2 2,5 -3,4 1,3 8,6 -5,2 -1,6 -2,-1 v -4 l -3,1 -2,3 3,2 -5,-2 -5,2 -2,3 2,4 -1,5 2,-2 4,3 -1,3 2,4 4,1 3,-3 h 3 v 2 h 2 l 3,-2 1,-4 h 2 l 2,5 3,-3 3,3 8,-1 v -5 l 2,-2 2,2 2,-5 2,-1 1,-5 6,2 6,-1 7,5 1,4 -2,3 v 4 l -8,2 v 3 l 12,9 1,6 v 3 l -6,10 -2,10 1,3 4,-2 2,2 4,-1 5,4 8,-3 -1,-2 3,-2 -1,-2 2,-4 3,-1 5,4 -2,5 8,2 2,9 16,9 2,4 4,-3 v -2 l 3,-3 6,2 1,-5 4,-1 2,-3 h 4 l 2,2 2,-1 3,3 h 8 l -1,5 -2,2 2,7 5,-1 6,4 2,-2 3,1 3,-2 4,8 4,4 h 3 l 1,4 -2,2 2,1 h 6 l 1,-4 5,-1 3,2 1,-2 h 13 l 1,-18 14,-6 h 5 l -2,-2 -1,-7 -2,1 -2,-2 5,-7 -3,-1 -2,-3 2,-9 -2,-5 1,-3 4,-2 5,-6 -3,-5 3,-2 3,3 5,-3 v -3 l -4,-3 2,-3 -1,-2 -6,2 -3,-4 v -3 l 4,-2 5,-8 h 6 l 2,-5 -7,-4 -1,-3 2,-3 -3,-8 -5,-2 -1,-4 12,-10 -2,-5 2,-8 4,-6 2,-8 4,-3 1,-5 -4,-2 4,-5 -5,-6 -8,1 -2,4 1,5 -3,-3 v 3 l -5,3 -15,-14 h -3 l -2,6 h 3 l 1,2 -4,1 -1,2 -4,1 -2,-2 -4,2 2,-6 h -3 l -1,-3 h -2 l 1,4 h -4 l 1,-4 -3,-5 h -3 l -2,-2 1,-3 -5,-7 1,-2 -9,-1 -2,3 2,3 7,4 -2,4 h -3 v -2 l -4,-2 -1,2 2,3 -4,5 -1,11 -4,6 v 4 l -3,1 v 3 h -5 l -2,-2 -6,1 1,-2 -8,-4 -3,5 2,2 1,5 -1,6 h -4 l -1,-3 -3,-3 h -2 l -1,-5 -4,-4 1,-6 -5,-2 -4,-6 -2,2 -4,-1 -2,-5 h -5 l -1,-5 2,-2 -9,-11 -3,-1 -2,2 -4,-2 -6,3 -3,5 1,5 -4,5 4,1 -1,9 -10,-2 -5,1 -2,2 h -8 l -2,-4 h -2 l -10,4 -7,-1 -2,-3 -3,5 -3,-2 v -2 l -5,6 v 3 l -2,-1 -4,4 1,3 -3,3 -6,-1 -2,4 -5,1 -3,-4 -7,-4 -4,3 -4,-1 -3,2 z"
     id="湘潭市" />
  <path
     stroke="#ffff00"
     stroke-opacity="1"
     stroke-width="0.5"
     stroke-linecap="round"
     stroke-linejoin="round"
     stroke-dasharray="none"
     fill="#1e90ff"
     fill-opacity="1"
     fill-rule="evenodd"
     d="m 832.99995,562 h -5 l -14,6 -1,18 h -13 l -1,2 -3,-2 -5,1 -1,4 h -6 l -2,-1 2,-2 -1,-4 h -3 l -4,-4 -4,-8 -3,2 -3,-1 -2,2 -6,-4 -5,1 -2,-7 2,-2 1,-5 h -8 l -3,-3 -2,1 -2,-2 h -4 l -2,3 -4,1 -1,5 -6,-2 -3,3 v 2 l -4,3 -2,-4 h -2 v 3 l -4,1 1,4 -2,-1 -1,2 v 7 l -3,1 -1,3 -3,-4 -3,5 -6,4 -1,-3 -7,-2 -10,1 1,-2 -10,-2 -9,3 -4,7 1,2 -2,5 -3,2 -3,-2 v 5 l -4,2 -4,8 -5,-7 v -4 l -2,1 -2,-5 -2,1 -4,-5 -3,6 2,8 -3,3 v 4 l 3,2 -9,5 1,2 h -5 l 1,3 -2,-1 -4,3 v 6 h -4 l -1,-2 -4,5 -2,7 1,2 -2,3 3,5 v 8 l -3,3 1,2 6,1 1,7 3,2 v 6 l -2,2 h -8 l -2,4 1,5 -7,3 v 3 l -3,1 -2,3 h -5 l 2,-2 -1,-3 h -3 l -3,2 h -6 l -2,4 -6,4 -2,-1 v -17 l -7,-8 -7,2 -7,-4 2,-4 -2,-3 h -2 v 4 l -6,-2 -3,-6 -5,1 1,-2 h -5 l -4,-2 -9,11 h -6 l -1,6 -3,3 2,4 -2,7 h -4 l -3,2 -9,-3 -1,1 -4,8 4,3 v 5 l 2,3 -3,4 h -3 l -1,4 -3,3 v 3 l -2,2 1,8 3,2 4,-1 v 3 l 7,4 7,-1 2,-4 h 2 l -1,-4 2,-7 13,2 v -2 l 5,-2 3,5 h 2 l 2,-3 2,3 -2,2 v 3 l 2,2 5,-1 2,6 10,-4 1,1 -2,5 3,1 1,-2 5,-1 2,-3 3,1 8,13 4,1 v 4 l 3,7 3,3 3,10 2,2 v 4 l 8,6 4,8 3,-7 -6,-6 3,-2 h 13 l 5,1 4,3 1,-3 4,-3 2,1 -1,2 9,5 -2,10 h 4 l 3,2 1,4 -1,4 h -3 l -2,3 3,2 -4,4 v 6 l 2,1 5,-7 10,-7 8,4 v 6 l -2,3 -6,1 -4,4 -5,-4 -4,2 -1,2 2,3 -4,2 2,1 1,5 -5,2 3,4 v 7 l -3,-1 v 6 l 2,1 -1,7 2,3 1,-1 6,2 -1,11 3,-2 3,2 2,-2 1,2 -4,8 v 14 l -2,2 1,8 -2,3 5,6 h 3 l -1,4 h 3 v 3 l 2,1 v 5 l 7,-1 v -3 l 7,-3 5,3 2,-5 -1,-3 h 5 l 2,-2 5,2 2,-6 3,-3 v -3 l 3,-1 2,6 9,-1 4,4 1,-2 8,2 v 4 l 2,3 5,-3 1,7 h 3 l 2,-3 h 6 l 3,-3 3,1 1,-2 -2,-9 2,-8 6,1 1,5 4,2 3,15 5,3 h 4 l -7,7 3,1 3,-3 h 2 v -4 h 3 l 1,3 5,-2 v -3 l 3,2 5,-5 3,4 2,-1 v -5 l 6,1 v -5 l 2,-1 -4,-3 v -2 l 3,-4 1,5 3,-3 4,1 v 8 l 10,2 3,-1 2,2 4,-2 3,2 4,-2 v -5 l 3,-1 5,5 5,2 6,-3 4,2 7,-5 1,-11 -4,-9 5,-3 2,2 4,-2 2,2 4,-1 -1,-7 4,-4 4,1 v -2 h 3 v -6 l 3,-4 6,1 3,-2 -5,-9 3,-3 -2,-4 1,-7 4,2 8,-6 v -2 l -5,-4 5,-6 h 4 l 1,-4 -4,-6 -6,-1 -8,-8 v -3 l 5,-6 2,-13 -2,-8 2,-7 -1,-8 h -6 l -7,-7 2,-1 -5,-2 v -2 l 3,-2 -1,-2 h -4 v -2 l -5,-2 1,-7 13,-3 -1,-12 2,-1 2,3 6,1 6,-2 v 2 l 4,1 4,4 5,-2 1,-4 -9,-14 h 3 v -5 l 4,-2 1,-5 h 2 l 4,-6 h -9 l -5,-5 v -11 l -2,-3 4,-3 v -2 l -4,-1 -1,-5 -4,1 -1,-11 -5,-3 -3,-4 1,-7 7,-3 v -2 l 6,3 5,-4 2,2 v -4 l 3,-2 1,-4 5,2 1,-3 -9,-18 h -17 l -3,2 -6,-6 -4,7 -1,6 -4,1 -1,-6 -6,-3 2,-1 -3,-4 1,-4 -9,-6 -2,-6 1,-4 -4,-2 v -5 l 3,-1 -5,-5 v -5 l -6,-2 -2,-5 2,-8 z"
     id="衡阳市" />
  <path
     stroke="#ffff00"
     stroke-opacity="1"
     stroke-width="0.5"
     stroke-linecap="round"
     stroke-linejoin="round"
     stroke-dasharray="none"
     fill="#1e90ff"
     fill-opacity="1"
     fill-rule="evenodd"
     d="m 320.99995,874 4,-7 -1,-5 3,-9 3,-3 v -3 l 2,-1 2,-5 -1,-4 3,-5 v -21 l 2,-3 8,1 2,-7 -1,-2 5,-2 2,4 -3,16 11,12 -3,3 v 5 l 3,3 4,1 -1,2 6,2 v -2 l 7,-5 h 8 l 1,-4 2,-1 4,2 2,-6 -2,-13 4,-8 1,-10 2,-2 -1,-4 -3,-1 v -5 l -6,-8 7,-3 1,-3 4,-1 -1,-6 3,-7 v -4 l -4,-9 4,-10 5,-4 v -2 l 4,-2 2,2 h 9 l 3,-3 h 3 l 2,2 5,-1 6,3 3,-2 4,1 2,-2 h 3 l 1,5 3,2 6,-12 h 3 l 3,-4 -2,-3 v -5 l -4,-3 4,-8 1,-1 9,3 3,-2 h 4 l 2,-7 -2,-4 3,-3 1,-6 h 6 l 9,-11 4,2 h 5 l -1,2 5,-1 3,6 6,2 v -4 h 2 l 2,3 -2,4 7,4 7,-2 7,8 v 17 l 2,1 6,-4 2,-4 4,-1 2,1 6,-2 1,3 -2,2 h 5 l 2,-3 3,-1 v -3 l 7,-3 -1,-5 2,-4 h 8 l 2,-2 v -6 l -3,-2 -1,-7 -6,-1 -1,-2 3,-3 v -8 l -3,-5 2,-3 -1,-2 2,-7 4,-5 1,2 h 4 v -6 h -2 l -4,-4 -2,-19 -2,-2 -3,1 -6,-9 h -7 v -7 l -21,-13 -1,-2 2,-5 -15,-14 -4,1 -1,3 -4,-1 -2,-1 v -5 h -6 v -7 l -12,-1 -3,-6 -3,1 -7,-5 v 3 l -4,-4 h -2 l -4,6 -2,-1 -2,-6 3,2 1,-2 -3,-2 v -4 l -3,2 -1,-1 3,-2 1,-3 h -4 l -3,-2 2,3 -2,1 -5,-5 -1,-6 -4,-1 -2,-2 v -3 l -2,-1 -2,1 -2,5 -14,4 -3,5 -3,-1 -2,-4 -4,-1 -3,2 -7,10 -8,4 1,3 -5,3 -2,-4 -7,-3 -6,-6 -5,3 -2,4 h -4 l -3,5 -6,-3 v -5 l -6,1 -4,-2 v -2 h -3 l -2,-4 h -12 l -3,-4 h -8 l -1,-9 -3,-3 -9,-1 -4,3 -4,-1 1,-7 -3,-2 -26,3 -4,-2 -3,3 v 7 l -3,-1 2,10 -14,9 h -3 l -10,-13 -3,1 2,-5 -1,-2 -2,3 h -5 l -1,2 -9,2 -9,13 -2,6 4,2 9,9 1,9 2,3 -1,4 -4,2 -3,4 -3,17 -11,12 v 10 l -6,3 -3,-1 -5,-8 -3,1 -5,3 1,1 -4,5 -7,3 -6,5 -1,10 -4,3 -4,1 -13,-7 -6,7 1,7 -3,7 -5,-3 -3,1 -2,-3 -14,5 -6,6 -7,3 -2,5 4,6 -2,5 -12,7 v 12 l -2,3 -8,3 -3,7 -7,3 -1,3 6,7 -1,5 -3,2 h -4 l -4,6 -2,8 2,3 h 2 l 1,9 2,2 v 8 l -2,-1 1,3 -4,1 2,2 -2,2 v 3 l 5,2 1,5 h -7 l -6,11 -5,-2 1,-1 -5,-4 -6,-2 -3,1 -5,4 h -5 l -3,2 -1,4 -10,3 -2,6 h -5 l -1,5 8,7 1,-1 2,4 -2,9 h 3 l 5,4 -4,2 v 6 l -4,3 -2,6 h 5 l 4,2 11,-5 1,6 5,3 -1,3 4,2 5,-1 -2,13 9,4 -1,2 2,5 -2,13 -4,2 -3,5 2,2 1,10 -5,5 -2,7 4,4 9,-1 3,5 3,1 3,-2 h 12 v 11 l -9,24 5,3 4,5 3,-4 12,5 6,-12 5,-2 3,7 9,6 v 15 l 4,2 16,-4 9,-20 -2,-3 6,-7 1,-4 24,-25 5,4 7,-6 6,-9 3,-19 8,-3 7,-11 3,1 1,4 4,2 6,-2 8,2 3,5 h 3 l 5,-6 3,7 -4,5 6,5 v 2 l 6,-3 h 15 l 4,-3 15,-2 2,6 h 2 l 2,-9 -3,-9 4,-3 2,-8 -1,-5 3,-3 4,-1 3,2 2,5 z"
     id="邵阳市" />
  <path
     stroke="#ffff00"
     stroke-opacity="1"
     stroke-width="0.5"
     stroke-linecap="round"
     stroke-linejoin="round"
     stroke-dasharray="none"
     fill="#1e90ff"
     fill-opacity="1"
     fill-rule="evenodd"
     d="m 657.99995,-49 1,3 3,1 -2,9 1,9 3,2 3,-3 4,-1 v 5 l 5,4 1,9 13,11 11,5 2,2 1,6 13,4 h 8 l 3,-5 6,-4 6,-1 4,4 3,7 3,-2 2,3 5,2 -5,4 3,6 -4,3 1,4 -2,2 2,3 v 6 l 9,2 2,3 4,2 9,-2 5,-4 4,1 1,2 -4,6 4,2 17,-3 5,3 6,1 4,25 3,1 -6,11 -13,12 -1,6 -6,8 -33,15 -9,1 -7,12 4,8 -1,6 -7,1 -6,3 -4,6 v 3 l -9,5 -5,1 1,2 -2,3 h -3 l -2,2 v 8 l -4,7 6,4 5,-1 2,4 3,2 2,-2 2,1 v 7 l -7,9 v 2 l 5,2 3,4 4,1 5,-2 8,-10 h 4 l 2,-4 6,-1 3,1 v 5 l 2,-1 3,4 -3,3 -9,4 -1,5 7,5 h 9 l 2,-6 4,-5 6,-3 h 4 l -6,7 1,3 4,1 4,-2 v 4 h 8 l 5,4 v -6 h 12 l 5,3 10,-4 v 7 l -4,7 3,3 5,1 7,-3 11,-10 1,-4 3,-1 2,4 7,3 h 4 v 8 h 6 l 5,-2 v -4 l 4,-3 v -8 l 3,-7 -1,-4 h -2 l 1,-4 -2,-5 3,-1 5,-6 v -5 l 5,-2 v -5 l 5,10 8,-3 7,2 2,5 h 8 l 2,-2 v -3 l 5,-3 9,3 3,-1 -2,13 2,4 2,-4 8,-1 10,11 1,6 11,4 2,-3 5,-1 10,12 9.00005,8 3,4 -1,2 5,2 7,6 4,-1 3,-5 22,-7 4,-7 3,-10 4,-3 4,4 4,1 3,-3 h 10 l 6,-5 3,-6 h 5 l 8,6 4,-2 3,2 5,-3 h 4 l 4,-8 4,-2 3,-6 -2,-4 2,-6 v -8 l -2,-6 7,-10 -1,-3 3,-8 -1,-3 -4,-2 v -3 l 3,-4 1,-8 -1,-1 -4,2 -3,-5 -7,3 h -4 l -5,-5 v -15 l -3,-2 -5,5 -4,-8 h -2 v -11 l -6,2 -3,3 -4,-12 1,-5 -4,-6 v -8 l -8,2 -1,2 -9,-2 v -6 l 2,-2 -8,2 -5,-3 1,-5 -2,-5 -3,-1 -11,3 -6,10 -3,1 -3,-8 1,-6 h -2 l -4,4 v 3 h -6 l 2,-10 -2,-5 -3,-1 -3,-9 8,-10 -1,-9 h -6 l -1,2 -4.00005,-2 -3,-6 h -6 l -1,-5 2,-1 5,-14 L 1004,8 V -3 l 2,-4 6,-3 h 10 l 3,-6 -1,-4 4,-4 v -2 l -4,-7 -8,-4 -5,-7 h -14.00005 l -1,-4 7.00005,-4 6,-1 v -3 l 7,-2 2,-4 5,-2 2,-5 -4,-2 -1,-3 h -4 l -1,-7 -4,-2 -2,2 -2,-2 h 2 l -5,-13 h -2 l -4.00005,4 -23,-1 -3,-3 1,-5 5,-8 -2,-12 4,-5 -2,-2 4,-5 -3,-1 3,-2 1,-5 -2,-4 -14,11 -6,8 -30,24 -20,27 -6,5 -1,5 -13,11 -10,17 -7,8 -3,3 -3,-3 -8,-1 v 5 l -3,4 -2,-1 -2,-5 v -9 l -4,-12 h -6 l -12,7 -5,9 -5,-1 -10,-40 v -3 l 24,-23 3,-5 4,-15 -2,-3 -3,1 -2,4 -7,5 -5,13 -3,3 h -3 l -2,-2 1,-19 -2,-4 -6,-4 -8,-1 -19,15 3,3 -4,3 1,5 -3,1 1,4 -5,2 -1,3 -7,5 -2,-2 h -3 l -1,5 -4,5 v 3 l -5,6 -1,-3 h -4 l -2,2 -7,-7 -4,3 v -2 l -9,-3 -8,7 h -2 l -8,-3 -1,-6 h -9 l -2,-2 -4,1 -4,5 v 5 l -6,7 -1,4 -2,-2 -5,8 -10,-1 -3,2 z m 158,-74 2,3 -1,-7 -4,-3 -5,-1 -3,2 3,1 z"
     id="岳阳市" />
  <path
     stroke="#ffff00"
     stroke-opacity="1"
     stroke-width="0.5"
     stroke-linecap="round"
     stroke-linejoin="round"
     stroke-dasharray="none"
     fill="#1e90ff"
     fill-opacity="1"
     fill-rule="evenodd"
     d="m 648.99995,-40 v -12 l 5,-9 v -6 l -2,-3 h -3 l -12,-6 -2,-4 4,-9 -7,5 1,2 -5,2 -1,4 -3,-5 v -4 l -5,-5 -4,3 -7,-1 -1,-2 -2,1 -5,-7 -7,1 -1,-4 1,-5 2,-2 1,-8 -3,-3 v -4 l -3,3 3,4 -4,-1 -1,-3 -4,-1 -5,-5 -5,-1 -1,-4 h -8 l -1,-6 3,-5 -1,-1 -6,1 -6,-6 -8,-2 -5,1 -6,-6 -3,1 1,-4 -6,-2 v -3 l -13,-5 -9,1 -1,5 -10,5 -5,-1 -2,-2 -8,-1 -6,2 -8,-3 -4,1 -4,-2 -2,-7 -12,3 -5,-3 -4,1 -2,-2 -9,6 -4,-1 -2,-3 2,-4 h -3 l 2,-3 -3,-2 -6,1 -1,3 -6,-11 -1,2 -6,-6 1,-4 -3,-2 h -5 l -3,-7 -4,-2 -54,-2 -9,-3 -17,-2 -2,-3 v -11 h -13 l -5,-4 h -10 l -3,3 -8,-2 -6,3 2,18 -4,3 h -5 l -2,2 -5,-2 -3,-4 1,-1 -9,-6 -14,7 -17,-2 -6,3 -2,-1 v 8 l -2,2 3,4 4,2 h 7 l 3,4 -10,8 -3,5 v 7 l -2,3 10,4 -1,5 4,9 7,1 1,3 h 7 l 3,3 6,16 -3,4 1,3 5,1 2,3 v 4 l 3,4 12,6 11,-8 1,10 h 12 l 10,-5 6,4 4,-1 9,3 v 2 l 4,1 6,-3 h 5 l 3,3 9,-1 2,5 -2,2 5,3 1,5 h 6 l 12,4 2,-1 7,5 4,-2 h 20 v 4 l 4,2 5,7 4,2 -1,3 5,2 v 3 l 5,8 -5,9 3,6 -5,7 -4,2 -1,2 2,3 -10,5 -7,14 3,3 2,6 -8,11 3,7 -3,5 -7,2 -4,-2 -3,-4 h -4 l -15,10 -13,19 h -4 l -1,6 h -6 l -4,2 v -2 h -3 l -8,-6 1,2 -4,1 -1,3 -3,2 -7,1 v 2 l -3,1 -2,-3 -4,4 3,9 12,5 2,7 9,6 -1,2 10,2 -2,4 h -2 l -5,5 1,2 -2,5 3,5 -1,4 8,2 6,14 5,4 2,4 h 6 l 4,5 v 4 l 6,4 -1,2 5,9 -4,2 1,2 -2,8 -4,3 -4,-2 -4,2 -1,2 5,7 -4,2 -9,1 -5,3 -1,6 h -15 l 3,5 -1,3 2,7 h 2 l 5,-5 h 7 l 1,-4 h 2 l 1,3 8,-6 h 2 l -1,5 2,3 -2,3 6,10 -1,2 -6,-2 -2,1 -3,-3 -5,-1 -5,8 -6,2 -7,10 -3,-2 -6,9 -5,2 v 3 l -7,6 v 3 l 7,1 23,-10 11,-2 4,-3 4,-1 3,2 8,-2 4,-3 2,1 7,-2 1,-5 2,-2 -1,-5 h 6 l 10,-7 4,4 6,-2 7,4 9,-2 5,1 10,-9 h 3 l 3,3 4,-2 h 5 l 3,-3 h 6 l 6,-4 1,-3 4,-1 8,-7 7,-9 15,6 3,-3 2,2 5,-1 2,10 4,1 4,-3 1,1 4,-4 -1,-8 3,-5 5,-1 7,7 3,-5 1,2 5,1 1,4 3,3 h 4 l 3,-6 h 12 l 4,-6 -2,-4 4,-2 15,4 -1,2 h 3 l 2,3 4,2 h 5 l 2,-5 -4,-4 11,-1 2,5 3,1 2,3 3,-3 8,1 3,-2 -2,-2 4,-1 1,-3 h 2 l 3,3 5,-2 2,-5 6,-5 9,-3 4,-3 v -14 l 4,-3 2,-4 v -7 l -8,-5 -5,-6 2,-14 -1,-17 -3,-4 2,-21 -4,-5 1,-10 -2,-4 h -6 l -1,-3 -5,-3 v -3 h 3 V 53 l 9,-10 -2,-1 -1,-21 -3,-2 6,-1 2,2 h 4 l 1,-2 -3,-6 V 2 l 3,-7 5,-5 v -3 l 3,-1 2,-12 -3,-9 z"
     id="常德市" />
  <path
     stroke="#ffff00"
     stroke-opacity="1"
     stroke-width="0.5"
     stroke-linecap="round"
     stroke-linejoin="round"
     stroke-dasharray="none"
     fill="#1e90ff"
     fill-opacity="1"
     fill-rule="evenodd"
     d="m 161.99995,141 2,-4 6,-2 3,3 h 4 l 1,3 h 4 l 1,-2 h 2 l -1,-3 2,-4 h 2 l 10,11 3,-4 -5,-15 7,-4 1,-3 -3,-6 4,-4 4,-1 5,9 7,1 4,5 6,4 5,9 3,-1 v -5 l 7,4 3,-4 h 3 l 6,6 h 3 l 4,-3 2,-12 h 3 l 7,4 3,-1 1,-2 -3,-12 5,-2 7,2 3,-2 1,1 3,-3 -3,-4 v -4 h 3 l -1,-4 -12,-5 -3,-6 v -3 l 4,-4 2,3 3,-1 v -2 l 7,-1 3,-2 1,-3 4,-1 -1,-2 8,6 h 3 v 2 l 4,-2 h 6 l 1,-6 h 4 l 13,-19 15,-10 h 4 l 3,4 4,2 7,-2 3,-5 -3,-7 8,-11 -2,-6 -3,-3 7,-14 10,-5 -2,-3 1,-2 4,-2 5,-7 -3,-6 5,-9 -5,-8 v -3 l -5,-2 1,-3 -4,-2 -4,-7 -5,-2 1,-3 -8,-2 -13,1 -4,2 -7,-5 -2,1 -12,-4 h -6 l -1,-5 -5,-3 2,-2 -2,-5 -9,1 -3,-3 h -5 l -6,3 -4,-1 v -2 l -9,-3 -4,1 -6,-4 -10,5 h -12 l -1,-9 -4,1 -4,5 -3,1 -12,-6 -3,-4 v -4 l -2,-3 -5,-1 -1,-3 -15,10 -3,4 -9,5 -5,1 -11,-7 -4,7 v 8 l -8,1 -1,2 -11,6 -4,-2 -4,-8 -6,2 -4,-1 -2,-2 -1,-8 -18,-15 -15,-2 -4,-5 -8,-5 -13,2 -10,4 -20,-1 v -2 l -10,4 -3,-2 -2,2 -5,-3 -20,4 -6,5 h -3 l -1,3 5,4 -3,2 v 8 l -12,4 1,5 -4,6 2,2 1,5 3,2 5,-3 h 4 l 2,3 -1,3 4,6 -8,8 h -3 l -1,2 5,10 6,6 6,12 2,6 -3,3 v 2 l 6,6 2,5 21,-20 4,-1 3,3 4,15 -2,4 3,3 1,5 -2,3 -4,2 10,8 11,3 8,-8 5,-2 7,4 5,9 -3,7 -5,1 -4,12 6,13 -1,5 3,3 5,-1 2,2 8,-9 h 2 l 4,4 2,-3 4,1 3,7 h 2 l -2,2 12,3 v 3 l -3,4 v 5 l 3,3 11,-7 v 16 l 9,-1 v 4 l 2,2 v 3 l -5,8 1,1 -3,2 v 2 l -4,2 1,4 1,2 5,-1 7,4 v 11 l 6,2 z"
     id="张家界市" />
  <path
     stroke="#ffff00"
     stroke-opacity="1"
     stroke-width="0.5"
     stroke-linecap="round"
     stroke-linejoin="round"
     stroke-dasharray="none"
     fill="#1e90ff"
     fill-opacity="1"
     fill-rule="evenodd"
     d="m 752.99995,245 1,-5 9,-4 3,-3 -3,-4 -2,1 v -5 h -9 l -2,4 h -4 l -8,10 -5,2 -4,-1 -3,-4 -5,-2 v -2 l 7,-9 v -7 l -2,-1 -2,2 -3,-2 -2,-4 -5,1 -6,-4 4,-7 v -8 l 2,-2 h 3 l 2,-3 -1,-2 5,-1 9,-5 v -3 l 4,-6 6,-3 7,-1 1,-6 -4,-8 7,-12 9,-1 33,-15 6,-8 1,-6 13,-12 6,-11 -3,-1 -4,-25 -6,-1 -5,-3 -17,3 -4,-2 4,-6 -1,-2 -4,-1 -5,4 -9,2 -4,-2 -2,-3 -9,-2 v -6 l -2,-3 2,-2 -1,-4 4,-3 -3,-6 5,-4 -5,-2 -2,-3 -3,2 -3,-7 -4,-4 -6,1 -6,4 -3,5 h -8 l -13,-4 -1,-6 -2,-2 -11,-5 -13,-11 -1,-9 -5,-4 v -5 l -4,1 -3,3 -3,-2 -1,-9 2,-9 -3,-1 -1,-3 -7,3 -2,6 5,14 -2,12 -3,1 v 3 l -5,5 -3,7 v 10 l 3,6 -1,2 h -4 l -2,-2 -6,1 3,2 1,21 2,1 -9,10 v 10 h -3 v 3 l 5,3 1,3 h 6 l 2,4 -1,10 4,5 -2,16 v 5 l 3,4 1,17 -2,14 5,6 8,5 v 7 l -2,4 -4,3 v 14 l -4,3 -9,2 -6,6 -2,5 -5,2 -3,-3 h -2 l -1,3 -4,1 2,2 -3,2 -8,-1 -3,3 -2,-3 -3,-1 -2,-5 -11,1 4,4 -2,5 h -5 l -4,-2 -2,-3 h -3 l 1,-2 -15,-4 -4,2 2,4 -4,6 h -12 l -3,6 h -4 l -3,-3 -1,-4 -5,-1 -1,-2 -3,5 -5,-6 h -7 l -3,5 1,8 -4,4 -1,-1 -4,3 -4,-1 -2,-10 -5,1 -2,-2 -3,3 -15,-6 -7,9 -8,7 -4,1 -1,3 -6,4 h -6 l -3,3 h -5 l -4,2 -3,-3 h -3 l -10,9 -5,-1 -9,2 -7,-4 -6,2 -4,-4 -10,7 h -6 l 1,5 -2,2 -1,5 -7,2 -2,-1 -4,3 -8,2 -3,-2 -4,1 -4,3 -11,2 -23,10 -7,-1 -2,3 -4,1 -1,4 -10,8 -11,4 -8,11 5,6 9,2 5,-1 3,7 -5,7 10,8 v -2 l 4,-2 5,5 -3,8 -8,9 4,6 3,1 -6,9 3,-1 7,4 4,-2 5,7 -3,2 -5,8 v 3 h 4 l 2,4 h 9 l 1,-6 3,1 4,-12 4,-2 v 3 h 6 l 8,4 -3,4 6,-2 9,11 h 3 l 4,-3 -1,-6 6,-7 -1,-4 3,-1 3,-5 4,-11 h 2 l 8,-9 -1,-2 h 10 l 3,2 11,-11 1,-7 8,-5 3,2 3,6 -2,3 h 13 l 1,5 13,-9 3,2 v 4 l 8,-3 1,-2 3,5 -3,20 7,9 -4,4 v 11 l 2,-1 6,3 -1,-4 -4,-3 2,-3 4,5 1,-2 3,2 v 8 l 6,-4 2,5 h -3 l -3,7 -6,2 6,3 8,-5 4,-5 -2,-2 v -3 l 3,-2 5,5 3,1 5,-4 3,1 -3,1 3,2 2,-7 3,-1 v 8 l 2,1 -2,2 1,4 7,-1 3,3 4,-3 1,-3 7,-2 2,1 -1,3 4,2 1,-4 7,-6 4,1 5,-3 8,1 3,2 3,-2 -1,-7 4,-4 -3,-4 1,-1 -5,-5 3,-5 6,-5 v -10 l 2,-1 1,-4 5,-7 10,-5 v -3 l 8,-5 5,1 7,-3 v -2 l 3,1 2,-2 10,1 2,4 6,2 2,3 5,1 3,-2 4,2 4,7 4,-7 7,-6 h 2 l 1,2 3,-4 4,-1 -1,-6 h 4 l 4,3 3,-3 -3,1 -1,-3 7,2 2,-2 h 4 l 7,-4 -1,-2 h 3 l 1,-2 1,2 3,-2 4,2 2,-2 4,3 3,-1 1,-3 6,-1 2,-2 v 2 l 5,2 4,-2 -2,-6 3,-3 v -4 l 2,-1 -1,-3 2,-6 7,-6 3,-6 1,-7 h 3 l 4,-5 -1,-3 3,-1 2,-5 z"
     id="益阳市" />
  <path
     stroke="#ffff00"
     stroke-opacity="1"
     stroke-width="0.5"
     stroke-linecap="round"
     stroke-linejoin="round"
     stroke-dasharray="none"
     fill="#1e90ff"
     fill-opacity="1"
     fill-rule="evenodd"
     d="m 669.99995,1208 8,9 -2,2 3,3 h 4 l 7,-13 3,4 1,6 12,2 1,2 8,1 6,3 16,-3 1,-2 8,2 3,6 12,10 -1,15 7,8 1,10 2,2 5,1 3,4 1,7 -2,4 2,2 15,-2 7,1 1,-3 7,-5 10,2 4,-2 7,1 2,-2 v -3 l 5,-3 -3,-3 2,-1 v -4 l -2,-4 -3,-2 1,-6 -4,-2 v -2 l 6,-7 v -4 l 5,-3 -4,-2 -1,-4 -3,-2 -5,-9 1,-8 5,-2 4,-4 6,-1 1,-2 -2,-3 h -3 l -4,-9 h -5 l -6,-3 -2,2 -4,-1 v 2 l -3,-2 -7,3 -1,-2 -6,-1 -1,-3 2,-4 h -2 l -2,-5 -1,-12 1,-1 3,3 2,-2 5,-1 1,8 3,3 h 4 l 1,-7 4,-1 1,-3 4,-1 1,-2 10,-1 4,2 1,-5 13,-6 3,-4 v -3 l 2,-1 -1,-2 h 5 l 4,2 v -4 l -3,-6 3,-1 -2,-2 3,-3 h 4 l 1,-7 4,1 2,5 6,-2 3,-5 8,-6 5,5 2,-2 4,4 2,-2 v -5 h 3 l -2,2 4,6 -1,2 2,4 v 7 l 6,-2 4,4 1,-1 5,11 3,-1 1,2 4,-1 4,2 1,6 6,4 3,-3 2,1 2,-3 10,2 -1,3 3,2 3,-5 2,1 3,4 6,3 v 7 l 2,3 6,-6 H 1003 l 2,-3 4,1 2,-5 h 5 v -2 h 4 l 3,3 2,-4 h 3 l 3,8 -2,1 h 16 l 5,-9 10,-5 1,-8 2,-1 -2,-2 1,-5 7,-2 8,1 -1,-6 5,-6 -2,-1 1,-3 -3,-1 5,-8 h 6 l -1,-3 2,-8 -3,-2 1,-7 -1,-2 -6,-2 -2,-4 1,-3 -10,-19 v -7 l 1,-4 11,-10 v -6 l 3,-5 v -6 l 5,-7 5,-3 1,-4 3,-3 v -27 l -4,-4 -1,-4 8,-8 -1,-4 3,-3 -1,-2 7,-1 4,4 4,-2 2,1 3,-4 v -2 l -3,-1 v -2 l 16,-6 h 5 l 7,-4 5,-5 v -2 h -3 l -2,-2 4,-4 -3,-2 -1,-4 -6,2 -3,-6 -20,8 -4,6 h -8 l -1,-4 -3,1 -1,-3 -3,2 -3,-1 -13,10 -5,-4 2,-4 -2,-2 -7,4 -7,12 -8,3 -4,7 -5,3 -8,-6 -3,3 v 8 l -8,7 h -4 l -7,-7 -4,-9 3,-8 7,-4 2,-13 -4,-11 -12,-7 -5,-7 -3.00005,1 -8,-3 1,-8 -3,-2 -2,-4 v -5 l -4,-7 v -7 l 6,-7 1,-4 -6,-10 4,-12 -4,-1 v -3 l -4,1 -3,-9 1,-7 -2,-3 -8,-3 -8,3 -4,6 -13,2 -3,-9 -4,-2 v -3 l 3,-1 1,-11 -4,-3 v -3 l -5,-9 5,-2 7,-17 -6,-9 -3,-2 -2,2 -12,-4 -3,1 -3,3 -2,7 -2,1 -6,-3 2,-3 v -3 l -3,-4 2,-3 -5,-1 -1,4 -5,2 -4,-4 -4,-1 v -2 l -6,2 -6,-1 -2,-3 -2,1 1,12 -13,3 -1,7 5,2 v 2 h 4 l 1,2 -3,2 v 2 l 5,2 -2,1 7,7 h 6 l 1,8 -2,7 2,8 -2,13 -5,6 v 3 l 8,8 6,1 4,6 -1,4 h -4 l -5,6 5,4 v 2 l -5,5 -3,1 -4,-2 -1,7 2,4 -3,3 5,9 -3,2 -6,-1 -3,4 v 6 h -3 v 2 l -4,-1 -4,4 1,7 -4,1 -2,-2 -4,2 -2,-2 -5,3 4,9 -1,11 -7,5 -4,-2 -6,3 -5,-2 -5,-5 -3,1 v 5 l -4,2 -3,-2 -4,2 -2,-2 -3,1 -10,-2 v -8 l -4,-1 -2,3 -2,-5 -3,4 v 2 l 4,3 -2,1 v 5 l -6,-1 v 5 l -2,1 -2,-4 -6,5 -3,-2 v 3 l -5,2 -1,-3 h -3 v 4 h -2 l -3,3 -3,-1 7,-7 h -4 l -5,-3 -3,-15 -4,-2 -1,-5 -6,-1 -2,8 2,9 -1,2 -3,-1 -3,3 h -6 l -2,3 h -3 l -1,-7 -5,3 -2,-3 v -4 l -8,-2 -1,2 -4,-4 -9,1 -2,-6 -3,1 v 3 l -3,3 -2,6 -5,-2 -2,2 h -5 l 1,3 -2,5 -4,-3 -8,3 v 3 l -7,1 2,7 8,1 3,-3 h 2 l 2,3 3,-2 3,1 4,5 -2,11 -6,9 -1,8 -2,1 5,4 h -4 l 5,5 -13,14 1,2 5,1 6,-2 6,2 3,-6 h 3 v 3 l 5,10 h 2 v 4 l -2,3 h -5 l -1,5 1,3 7,1 -3,12 4,6 -2,3 -6,3 -6,8 -4,-2 -1,-7 -5,-2 -5,6 -8,2 -1,5 4,10 v 5 l -5,8 1,4 4,2 v 3 l -3,2 1,2 9,1 10,7 8,-3 4,1 -1,5 8,12 v 6 l 3,5 3,1 1,4 4,4 v 3 l -5,1 3,4 h 6 l -1,4 -2,1 -3,-2 -6,13 -6,3 -3,4 h -3 l -5,3 3,3 v 10 l 3,3 -2,6 z"
     id="郴州市" />
  <path
     stroke="#ffff00"
     stroke-opacity="1"
     stroke-width="0.5"
     stroke-linecap="round"
     stroke-linejoin="round"
     stroke-dasharray="none"
     fill="#1e90ff"
     fill-opacity="1"
     fill-rule="evenodd"
     d="m 669.99995,1208 -1,-6 2,-6 -3,-3 v -10 l -3,-2 17,-11 6,-13 3,2 3,-4 -6,-1 -3,-4 5,-1 v -3 l -4,-4 -1,-4 -3,-1 -3,-5 v -6 l -8,-12 1,-5 -4,-1 -8,3 -10,-7 -9,-1 -1,-2 3,-2 v -3 l -4,-2 -1,-4 5,-8 v -5 l -4,-10 1,-5 8,-2 5,-6 5,2 1,7 4,2 2,-1 2,-5 8,-5 2,-3 -4,-6 3,-12 -7,-1 -1,-3 1,-5 h 5 l 2,-3 v -4 h -2 l -5,-10 v -3 h -3 l -3,6 -6,-2 -6,2 -5,-1 -1,-2 13,-14 -5,-5 h 4 l -5,-4 2,-1 1,-8 6,-9 2,-11 -4,-5 -3,-1 -3,2 -2,-3 h -2 l -3,3 -8,-1 -2,-4 v -8 l -2,-1 v -3 h -3 l 1,-4 h -3 l -5,-6 2,-3 -1,-8 2,-2 v -14 l 4,-8 -1,-2 -2,2 -3,-2 -3,2 1,-11 -6,-2 -1,1 -2,-3 1,-7 -2,-1 v -6 l 3,1 v -7 l -3,-4 5,-2 -1,-5 -2,-1 4,-2 -2,-3 1,-2 4,-2 5,4 4,-4 6,-1 2,-3 v -6 l -8,-4 -10,7 -5,7 -2,-1 v -6 l 4,-4 -3,-2 2,-3 h 3 l 1,-4 -1,-4 -3,-2 h -4 l 2,-10 -9,-5 1,-2 -2,-1 -4,3 -1,3 -4,-3 -5,-1 h -13 l -3,2 6,6 -3,7 -4,-8 -8,-6 v -4 l -11,-22 v -4 l -4,-1 -8,-13 -3,-1 -2,3 -5,1 -1,2 -3,-1 2,-5 -1,-1 -10,4 -2,-6 -5,1 -2,-2 v -3 l 2,-2 -2,-3 -2,3 h -2 l -3,-5 -5,2 v 2 l -13,-2 -2,7 1,4 h -2 l -2,4 -7,1 -7,-4 v -3 l -4,1 -3,-2 v -5 l -1,-3 -3,-2 -1,-5 h -3 l -2,2 -4,-1 -3,2 -6,-3 -5,1 -2,-2 h -3 l -3,3 h -9 l -2,-2 -4,2 v 2 l -5,4 -4,10 4,9 v 4 l -3,7 1,6 -4,1 -1,3 -7,3 6,8 v 5 l 3,1 1,4 -2,2 -1,10 -4,8 2,9 -2,10 -4,-2 -2,1 -1,4 h -8 l -7,5 v 2 l -6,-2 1,-2 -4,-1 -3,-3 v -5 l 3,-3 -11,-12 3,-16 -2,-4 -5,2 1,2 -2,7 -8,-1 -2,3 v 21 l -3,5 1,4 -2,5 -2,1 v 3 l -3,3 -3,9 1,5 -4,7 -1,5 6,1 4,2 -1,2 h 6 l 11,6 3,-2 23,1 1,5 -2,2 3,4 h 3 l 2,2 2,-2 2,1 8,-2 3,6 v 9 l -5,1 v 4 l -2,3 3,3 -5,8 1,5 2,2 v 6 l -6,9 5,4 v 2 l -7,2 -6,9 -6,18 h 4 v 4 l 3,1 4,7 -3,1 5,6 3,7 7,1 3,2 3,-9 11,-6 2,4 h 2 l 1,-3 3,-1 2,7 6,-1 2,2 4,-3 h 6 v 5 l 4,-1 6,2 -2,2 -14,4 -2,6 3,3 2,10 -1,3 h -6 l -4,7 -14,4 -5,-1 -5,5 v 7 l 2,3 -1,10 8,13 -5,15 1,8 -2,7 -5,7 v 6 l -2,4 -3,2 v 2 l -4,-1 -2,9 -4,2 -1,3 -7,4 -7,-1 -11,18 -10,5 4,13 -1,6 -9,5 -3,4 h -3 l -13,6 -1,5 -5,6 -1,5 2,2 -6,7 1,1 -4,9 3,12 4,4 -2,3 6,5 -1,5 2,3 -5,4 5,-3 h 14 l 12,-4 v -10 l 3,-10 -2,-7 10,-2 16,-9 1,-3 3,-2 1,-4 11,-8 v -3 l 3,-2 5,8 7,5 10,1 2,-2 1,-5 4,-1 3,2 1,5 2,2 h 6 l -5,15 2,3 4,2 7,1 v 6 l -7,6 -2,3 v 4 l 2,4 8,4 -2,6 -4,5 3,3 -2,10 5,7 2,7 -4,13 v 5 l -8,13 1,2 3,-1 1,5 h 4 l 1,-3 4,1 5,2 4,7 2,1 5,-3 3,3 3,-2 2,-9 3,-4 2,-1 5,3 h 6 v -13 l 6,-9 6,-5 h 4 l 1,-3 7,3 13,-2 2,3 5,1 6,-2 9,2 1,4 8,-2 8,2 7,-4 16,9 2,-4 v -5 l 7,-8 6,-1 3,-4 v -3 l 4,-1 3,-3 5,-1 2,2 3,-2 2,-5 -1,-5 2,-13 -8,-3 -6,-8 1,-7 3,-2 5,-8 -1,-9 4,-4 v -4 l 3,-6 -1,-7 5,-12 -2,-3 h 16 l 2,3 v 4 l 7,-2 1,2 4,1 4,-6 4,1 5,-4 z"
     id="永州市" />
  <path
     stroke="#ffff00"
     stroke-opacity="1"
     stroke-width="0.5"
     stroke-linecap="round"
     stroke-linejoin="round"
     stroke-dasharray="none"
     fill="#1e90ff"
     fill-opacity="1"
     fill-rule="evenodd"
     d="m -88.00005,480 v 2 l 3,3 7,3 3,4 -4,3 3,5 1,7 -5,13 3,5 -1,2 -3,-1 -3,4 h -8 l -24,18 -2,4 1,12 -2,3 -3,-1 -11,2 v -3 l -6,-3 -2,-3 h -3 l -3,4 -9,6 1,-8 -1,-2 -4,1 -4,5 v 3 l -3,-2 v 4 l 7,-5 1,3 -7,5 2,4 -3,6 v 4 l -2,-1 -1,2 1,4 -8,1 v 3 l -4,-1 -2,-3 -2,1 3,8 v 3 l -3,5 -5,-1 -3,3 h -6 l -1,4 -4,3 -1,3 h -4 l -1,2 -8,4 -2,3 5,2 -2,1 3,4 -1,6 -10,11 -2,5 -3,-3 h -2 l -1,5 -8,3 -5,-3 -4,4 11,8 2,-2 4,9 h 3 l 3,7 -2,2 h 3 l 4,-5 h 5 l -1,-2 2,-1 v 5 l 8,-2 -3,-8 6,-2 6,-6 5,-2 6,-7 1,2 h 5 l 2,-4 1,2 4,-3 11,-2 2,1 v 2 l -6,6 -2,6 8,1 2,-2 h 4 l 2,2 3,-6 3,1 8,-9 5,-10 3,-1 2,1 2,5 4,2 5,-3 9,-1 v -3 l 6,-1 4,2 1,-2 2,3 h 2 v -4 l 2,-1 v 2 h 4 l 3,8 3,2 5,-4 4,-1 -1,6 -3,2 v 4 l 1,4 h 5 v 3 h -7 l 8,5 3,-3 -2,-1 v -3 l 2,-1 2,2 h 3 l -2,2 3,2 -1,5 2,1 v 4 l 4,4 1,4 -3,1 -1,5 2,1 3,-3 2,11 -6,2 -1,3 -4,-1 -14,9 -6,2 2,6 -2,3 h 6 v -3 l 4,-3 v -3 h 3 l 1,3 6,3 v 9 l -4,5 v 3 l 5,10 1,9 9,4 2,-2 -1,-4 3,2 2,-2 v -5 l 5,3 -5,6 v 2 l -7,3 -1,2 v -4 l -7,-5 -4,1 -2,-5 h -11 l -9,6 -1,5 -2,1 -7,-2 1,4 -5,5 -3,1 -9,-3 -5,2 -2,-2 -2,1 5,10 8,5 5,-3 3,7 7,9 -2,9 h 4 l -1,1 2,2 1,7 -1,2 -6,3 1,7 -6,8 5,1 -2,4 h -3 l -9,6 -9,24 -4,1 -1,4 4,9 10,2 -1,2 3,2 1,3 h 3 l 6,-4 18,-3 v -4 l 5,-3 4,4 -5,4 -1,6 -4,7 3,9 5,2 v 2 h -3 l 3,5 -1,4 3,5 4,1 v -3 l 5,7 v 4 l -2,5 -7,-1 -3,3 -4,-3 -1,8 2,6 6,1 1,5 4,2 4,7 4,1 3,-1 1,-4 16,-4 7,-6 3,2 1,7 7,1 4,2 -1,2 h 3 l 2,-4 6,6 -5,11 -4,-1 -1,6 -2,1 -1,3 3,4 v 3 l -2,-1 -1,2 2,2 -1,2 h 5 l 2,-2 2,1 13,-2 -1,4 4,3 5,-1 3,-3 4,-9 -4,-9 -1,-9 -6,-3 -1,-3 5,-11 4,-2 6,4 8,-2 3,-6 v -6 l 4,-5 4,-17 5,-2 9,-10 2,-7 5,-5 v -6 l -3,-6 3,-5 4,-2 2,-13 -2,-5 1,-2 -9,-4 2,-13 -5,1 -4,-2 1,-3 -5,-3 -1,-6 -11,5 -4,-2 h -5 l 2,-6 4,-3 v -6 l 4,-2 -5,-4 h -3 l 2,-9 -2,-4 -1,1 -8,-7 1,-5 h 5 l 2,-6 10,-3 1,-4 3,-2 h 5 l 5,-4 3,-1 6,2 5,4 -1,1 5,2 6,-11 h 7 l -1,-5 -5,-2 v -3 l 2,-2 -2,-2 4,-1 -1,-3 2,1 v -8 l -2,-2 -1,-9 h -2 l -2,-3 2,-8 4,-6 h 4 l 3,-2 1,-5 -6,-7 1,-3 7,-3 3,-7 8,-3 2,-3 v -12 l 12,-7 2,-5 -4,-6 2,-5 7,-3 6,-6 14,-5 2,3 3,-1 5,3 3,-7 -1,-7 6,-7 13,7 4,-1 4,-3 1,-10 6,-5 7,-3 4,-5 -1,-1 5,-3 3,-1 5,8 3,1 6,-3 v -10 l 11,-12 3,-17 3,-4 4,-2 1,-4 -2,-3 -1,-9 -9,-9 -4,-2 2,-6 9,-13 9,-2 1,-2 h 5 l 2,-3 1,2 -2,5 3,-1 10,13 6,-1 11,-8 -2,-10 3,1 -1,-2 1,-5 3,-3 v -5 l -8,-2 -2,-10 -5,-12 -4,-1 -2,-7 -5,-3 5,-11 1,-7 4,-2 8,4 h 15 l 4,-4 h 3 l 6,-10 7,-4 2,-3 -3,-1 -1,-7 9,-13 -8,-3 3,-7 h 8 l 3,-4 -8,-4 h -6 v -3 l -4,2 -4,12 -3,-1 -1,6 h -9 l -2,-4 h -4 v -3 l 5,-8 3,-2 -5,-7 -4,2 -7,-4 -3,1 6,-9 -3,-1 -4,-6 8,-9 3,-8 -5,-5 -4,2 v 2 l -10,-8 5,-7 -3,-7 -5,1 -9,-2 -5,-6 8,-11 11,-4 8,-6 3,-6 4,-1 2,-6 7,-6 v -3 l 5,-2 6,-9 3,2 7,-10 6,-2 5,-8 5,1 3,3 2,-1 6,2 1,-2 -6,-10 2,-3 -2,-3 1,-5 h -2 l -8,6 -1,-3 h -2 l -1,4 h -7 l -5,5 h -2 l -2,-7 1,-3 -3,-5 h 15 l 1,-6 5,-3 9,-1 4,-2 -5,-7 1,-2 4,-2 4,2 4,-3 2,-8 -1,-2 4,-2 -5,-9 1,-2 -6,-4 v -4 l -4,-5 h -6 l -2,-4 -5,-4 -6,-14 -8,-2 1,-4 -3,-5 2,-5 -1,-2 5,-5 h 2 l 2,-4 -10,-2 1,-2 -9,-6 -1,-3 h -3 v 4 l 3,4 -3,3 -1,-1 -3,2 -7,-2 -5,2 3,12 -1,2 -3,1 -7,-4 h -3 l -2,12 -4,3 h -3 l -6,-6 h -3 l -3,4 -7,-4 v 5 l -3,1 -5,-9 -6,-4 -4,-5 -7,-1 -5,-9 -4,1 -4,4 3,6 -1,3 -7,4 5,15 -3,4 -10,-11 h -2 l -2,4 1,3 h -2 l -1,2 h -4 l -1,-3 h -4 l -3,-3 -6,2 -2,4 1,5 -7,5 -6,8 v 11 l -3,7 h -6 l -5,-3 -2,2 1,5 -4,13 v 9 l -3,-1 -4,5 v 3 l -4,-2 -2,3 -2,5 5,3 -2,1 3,11 -3,3 -4,-3 h -5 l -4,-3 -2,15 -4,2 v 13 l 4,4 -7,6 h -3 v -3 l -4,-1 -2,3 3,3 -1,8 8,9 3,-2 4,4 h 3 l 2,4 h 4 l 2,5 -7,4 -2,5 2,9 -3,1 3,6 5,2 1,3 5,1 3,3 1,7 -2,2 h -3 l -2,-2 -6,1 2,4 -2,4 -5,3 -1,3 3,2 -1,4 -6,1 -1,3 4,3 v 2 l -5,3 h -9 l 3,8 4,2 v 3 l -4,2 2,5 -5,5 v 5 l -3,4 -8,2 -5,6 1,5 -2,4 -6,3 -5,-4 v -4 l -5,-3 -2,2 -1,-5 -3,-2 v 3 l -2,1 -1,-2 -4,-1 -5,2 -1,4 -7,-3 -6,-7 -5,-1 1,-2 -3,-1 -4,2 h -5 l -1,2 -4,-8 2,-2 1,-7 -9,3 -6,-1 1,11 -4,1 v 9 l -9,5 -3,4 h -3 l -3,5 -5,-2 -2,5 v 4 l 4,1 2,4 -1,2 2,6 -7,3 1,2 -3,1 -3,5 -2,-2 -5,-1 -6,6 h -3 l -2,-3 v -4 h -3 l -2,3 -1,-1 -6,5 h -2 l -1,-5 h -3 l -2,3 2,6 -9,10 z m 12,258 1,1 3,-2 z m 16,25 -2,-1 z"
     id="怀化市" />
  <path
     stroke="#ffff00"
     stroke-opacity="1"
     stroke-width="0.5"
     stroke-linecap="round"
     stroke-linejoin="round"
     stroke-dasharray="none"
     fill="#1e90ff"
     fill-opacity="1"
     fill-rule="evenodd"
     d="m 599.99995,630 4,-3 2,1 -1,-3 h 5 l -1,-2 9,-5 -3,-2 v -4 l 3,-3 -2,-8 3,-6 4,5 2,-1 2,5 2,-1 v 4 l 5,7 4,-8 4,-2 v -5 l 3,2 3,-2 2,-5 -1,-2 4,-7 9,-3 10,2 -1,2 10,-1 7,2 1,3 6,-4 3,-5 3,4 1,-3 3,-1 v -7 l 1,-2 2,1 -1,-4 4,-1 v -3 l -14,-9 -2,-9 -8,-2 2,-5 -5,-4 -3,1 -2,4 1,2 -3,2 1,2 -8,3 -5,-4 -4,1 -2,-2 -4,2 -1,-3 2,-10 6,-10 -1,-9 -12,-9 v -3 l 8,-2 v -4 l 2,-3 -1,-4 -3,-3 -4,-2 -6,1 -6,-2 -1,5 -2,1 -2,5 -2,-2 -2,2 v 5 l -8,1 -3,-3 -3,3 -2,-5 h -2 l -1,4 -3,2 h -2 v -2 h -3 l -3,3 -4,-1 -2,-4 1,-3 -4,-3 -2,2 1,-5 -2,-4 2,-3 5,-2 5,2 -3,-2 2,-3 3,-1 v 4 l 2,1 1,-6 5,-2 -8,-6 -1,-3 3,-4 -2,-5 -3,-2 -5,3 -6,-4 -1,-6 -4,1 -3,-3 -1,-10 -7,-22 -5,-3 -3,-6 -4,-1 -6,5 -3,-3 2,-5 -3,-3 1,-3 -3,-2 -8,-1 -5,3 -4,-1 -7,6 -1,4 -4,-2 1,-3 -2,-1 -7,2 -1,3 -4,3 -3,-3 -7,1 -1,-4 2,-2 -2,-1 v -8 l -3,1 -2,7 -3,-1 3,-2 -3,-1 -5,4 -3,-1 -5,-5 -3,2 v 3 l 2,2 -4,5 -8,5 -6,-3 6,-2 3,-7 h 3 l -2,-5 -6,4 v -8 l -3,-2 -1,2 -4,-5 -2,3 4,3 1,4 -6,-3 -2,1 v -11 l 4,-4 -7,-9 3,-20 -3,-5 -1,2 -7,3 -1,-4 -3,-2 -13,9 -1,-5 h -13 l 2,-3 -3,-6 -3,-2 -8,5 -1,7 -11,11 -3,-2 h -10 l 1,2 -8,9 h -2 l -4,11 -3,5 -3,1 1,4 -6,7 1,6 -4,3 h -3 l -9,-11 -3,2 h -11 l -3,7 8,3 -9,13 1,7 3,1 -2,3 -7,4 -6,10 h -3 l -4,4 -5,1 -10,-1 -8,-4 -4,2 -1,7 -5,11 5,3 2,7 4,1 5,12 2,10 8,2 v 5 l 4,2 26,-3 3,2 -1,7 4,1 4,-3 9,1 3,3 1,9 h 8 l 3,4 h 12 l 2,4 h 3 v 2 l 4,2 6,-1 v 5 l 6,3 3,-5 h 4 l 2,-4 5,-3 6,6 7,3 2,4 3,-1 2,-2 -1,-3 8,-4 7,-10 3,-2 4,1 2,4 3,1 3,-5 14,-4 2,-5 2,-1 2,1 v 3 l 2,2 4,1 1,6 5,5 2,-1 -2,-3 3,2 h 4 l -1,3 -3,2 1,1 3,-2 v 4 l 3,2 -1,2 -3,-2 2,6 2,1 4,-6 h 2 l 4,4 v -3 l 7,5 3,-1 3,6 12,1 v 7 h 6 v 5 l 6,2 1,-3 4,-1 7,6 8,8 -2,5 1,2 21,13 v 7 h 7 l 6,9 3,-1 2,2 2,19 4,4 z"
     id="娄底市" />
  <path
     stroke="#ffff00"
     stroke-opacity="1"
     stroke-width="0.5"
     stroke-linecap="round"
     stroke-linejoin="round"
     stroke-dasharray="none"
     fill="#1e90ff"
     fill-opacity="1"
     fill-rule="evenodd"
     d="m -88.00005,480 2,-5 9,-10 -2,-6 2,-3 h 3 l 1,5 h 2 l 6,-5 1,1 2,-3 h 3 v 4 l 2,3 h 3 l 6,-6 5,1 2,2 3,-5 3,-1 -1,-2 7,-3 -2,-6 1,-2 -2,-4 -4,-1 v -4 l 2,-5 5,2 3,-5 h 3 l 3,-4 9,-5 v -9 l 4,-1 -1,-11 6,1 9,-3 -1,7 -2,2 4,8 1,-2 h 5 l 4,-2 3,1 -1,2 5,1 6,7 7,3 1,-4 5,-2 4,1 1,2 2,-1 v -3 l 3,2 1,5 2,-2 5,3 v 4 l 4,4 7,-3 2,-4 -1,-5 5,-6 8,-2 3,-4 v -5 l 5,-5 -2,-5 4,-2 v -3 l -4,-2 -2,-3 -1,-5 h 9 l 5,-3 v -2 l -4,-3 1,-3 6,-1 1,-4 -3,-2 1,-3 5,-3 2,-4 -2,-4 6,-1 2,2 h 3 l 2,-2 -1,-7 -3,-3 -5,-1 -1,-3 -5,-2 -3,-6 3,-1 -2,-5 2,-9 7,-4 -2,-5 h -4 l -2,-4 h -3 l -4,-4 -3,2 -8,-9 1,-8 -3,-3 2,-3 4,1 v 3 h 3 l 7,-6 -4,-4 v -13 l 4,-2 2,-15 4,3 h 5 l 4,3 3,-3 -3,-11 2,-1 -5,-3 4,-8 4,2 v -3 l 4,-5 3,1 v -9 l 4,-13 -1,-5 2,-2 5,3 h 6 l 3,-7 v -11 l 6,-8 7,-5 -1,-5 -8,-3 v -11 l -7,-4 -5,1 -1,-2 -1,-4 4,-2 v -2 l 3,-2 -1,-1 5,-8 v -3 l -2,-2 v -4 l -9,1 V 79 l -11,7 -3,-3 v -5 l 3,-4 v -3 l -12,-3 2,-2 h -2 l -3,-7 -4,-1 -2,3 -4,-4 h -2 l -8,9 -2,-2 -5,1 -3,-3 1,-5 -6,-13 4,-12 5,-1 3,-7 -5,-9 -7,-4 -5,2 -8,8 -11,-3 -10,-8 4,-2 2,-3 -1,-5 -3,-3 2,-4 -4,-15 -3,-3 -4,1 -21,20 -2,-5 -6,-6 v -2 l 3,-3 -2,-6 -6,-12 -6,-6 -5,-10 1,-2 h 3 l 8,-8 -3,-3 v -6 l -2,-3 h -4 l -5,3 -3,-2 -13,4 -4,-3 1,-4 -11,-3 -9,2 v 2 l -4,4 -2,-2 -5,-1 -1,-3 h -3 l -1,3 2,2 -2,3 -3,-2 -1,2 2,1 v 2 l -4,11 -6,-2 -1,1 -1,7 2,5 -2,1 -3,-3 v -2 h -4 v 7 l 2,4 -1,1 -4,-3 -2,2 -2,7 3,4 -3,2 v 4 l -2,-2 -6,5 -1,4 4,5 -1,3 3,3 -6,-3 -6,3 -1,11 1,9 h 2 v 6 l -10,10 -15,8 5,7 -1,8 -3,4 1,5 3,3 v 3 h -5 l -3,2 -3,-1 -2,2 2,7 h 6 l 3,3 9,2 2,2 2,7 -6,8 -3,12 -3,1 -3,5 -1,13 -4,5 -2,8 2,4 1,11 -1,11 h 5 l -1,3 9,4 2,4 -3,3 2,3 -3,1 -3,5 -2,-1 -3,3 5,6 -20,10 -3,4 5,7 9,-6 6,4 5,-2 2,-4 h 3 l 2,2 1,3 -2,2 4,6 -4,1 -4,9 -3,2 v 15 l -4,7 1,2 -2,9 2,10 3,5 3,1 v 3 l -5,7 2,8 6,6 -1,4 3,1 9,-6 5,3 -2,5 6,-3 6,2 -8,5 1,2 -4,4 1,4 -4,4 -1,13 -2,1 1,5 -9,19 -1,13 7,-3 2,-6 h 3 l 9,8 -4,7 -5,1 -6,4 -1,6 -3,1 -1,3 3,7 -1,8 3,3 v 8 h 4 l -3,3 5,5 -1,12 -3,3 h 3 l -2,2 1,2 7,5 -1,4 4,2 -3,5 12,-1 z"
     id="湘西土家族苗族自治州" />
</svg>