<svg xmlns="http://www.w3.org/2000/svg" id="svg1" version="1.1" viewBox="-251 -228 1409.9999 1594">
  <path id="长沙市" fill="#ff6347" fill-opacity="1" fill-rule="evenodd" stroke="#ffffff" stroke-dasharray="none" stroke-linecap="round" stroke-linejoin="round" stroke-opacity="1" stroke-width="0.5" d="m551 393-1 3 3 3-2 5 3 3 6-5 4 1 3 6 5 3 4 14h5l3-2 4 1 4-3 7 4 3 4 5-1 2-4 6 1 3-3-1-3 4-4 2 1v-3l5-6v2l3 2 3-5 2 3 7 1 10-4h2l2 4h8l2-2 5-1 10 2 1-9-4-1 4-5v-8l8-5 4 2 2-2 3 1 9 11-2 2 1 5h5l2 5 4 1 2-2 4 6 5 2-1 6 4 4 1 5h2l4 6h4l1-6-1-5-2-2 3-5 8 4-1 2 6-1 2 2h5v-3l3-1v-4l4-6 1-11 4-5-2-3 1-2 4 2v2h3l2-4-7-4-2-3 2-3 9 1-1 2 5 7-1 3 2 2h3l3 5-1 4h4l-1-4h2l1 3h3l-2 6 4-2 2 2 4-1 1-2 4-1-1-2h-3l2-6h3l15 14 5-3v-3l3 3-1-5 2-4 8-1 5 6-4 5 4 2-1 5 6 5 3 5h4l1-4-2-1v-3l2-1-1-2 6-4-3-4v-4l6-2-2-2 3-2h9l1-3 8 4 1-3 3 2-1 5 2-4 2 6-1 4 2 2-1 6h-3l-1 2 4 7h4v2h-3v14l3-1v-3h3v2l8 4 3-1 4 3 7-2 4 1 3-2 1-9 2-2 9-1 1-5 7-6 8-1 1-5 11-2 2 2 1 6-3 3 2 8 4 3 2-4-1-2 2-1 8 5 3 5 2 1 2-2 9 4 7-5 2 1 1-7 3-2 2-6 4-5 6-1 2-5 5-3 2 3h4l2-1v-4l2-3 3-1 2 3 6 2 3-1 6-9 2 2 5-1-2-5 3-2h8l7 3v-3l5-5-2-6-5-2h3l-3-5-1-6-2-1v-5l-4-5 5-4 4 1 6-2 1 2h4l9-3 1-6 9-10 1-3 6-2 3 1 1-5 3-2v-5l5-1 9-7 1-2-2-4 3-5-2-3 2-2-1-6h-7l-4-3-5-8h-5l12-11v-4l-6-5-6 1-5-3-4-5v-3l-10-2-3-4h-4l-5 3-3-2-4 2-8-6h-5l-3 6-6 5h-10l-3 3-4-1-4-4-4 3-3 10-4 7-22 7-3 5-4 1-7-6-5-2 1-2-3-4-9-8-10-12-5 1-2 3-11-4-1-6-10-11-8 1-2 4-2-4 2-13-3 1-9-3-5 3v3l-2 2h-8l-2-5-7-2-7 3-3-3-1-5-2-2v5l-5 2v5l-5 6-3 1 2 5-1 4h2l1 4-3 7v8l-4 3v4l-5 2h-6v-8h-4l-7-3-2-4-3 1-1 4-11 10-7 3-5-1-3-3 4-7v-7l-10 4-5-3h-12v6l-5-4h-8v-4l-4 2-4-1-1-3 6-7h-4l-6 3-4 5-2 6h-9l-7-5-4 3-2 5-3 1 1 3-4 5h-3l-1 7-3 6-7 6-2 6 1 3-2 1v4l-3 3 2 6-4 2-5-2v-2l-2 2-6 1-1 3-3 1-4-3-2 2-4-2-3 2-1-2-1 2h-3l1 2-4 3-7 1-2 2-7-2 1 3 3-1-3 3-4-3h-4l1 6-4 1-3 4-1-2h-2l-7 6-4 7-4-7-4-2-3 2-5-1-2-3-6-2-2-4h-15v2l-7 3-5-1-6 3-2 2v3l-10 5-5 7-1 4-2 1v10l-6 5-3 5 5 5-1 1 3 4-4 4 1 7z"/>
  <path id="株洲市" fill="#ff6347" fill-opacity="1" fill-rule="evenodd" stroke="#ffffff" stroke-dasharray="none" stroke-linecap="round" stroke-linejoin="round" stroke-opacity="1" stroke-width="0.5" d="m1022 433-2-1-7 5-9-4-2 2-5-6-8-5-2 1 1 2-2 4-4-3-2-8 3-3-1-6-2-2-11 2-1 5-8 1-7 6-1 5-9 1-2 2-1 9-3 2-4-1-7 2-4-3-3 1-8-4v-2h-3v3l-3 1v-14h3v-2h-4l-4-7 1-2h3l1-6-2-2 1-4-2-6-2 4 1-5-3-2-1 3-8-4-1 3h-9l-3 2 2 2-6 2v4l3 4-6 4v11h-4l-3-5-6-5-4 3-8 22 2 5-12 10 1 4 5 2 3 8-2 3 1 3 7 4-2 5h-6l-5 8-4 2v3l3 4 6-2 1 2-2 3 4 3v3l-5 3-3-3-3 2 3 5-5 6-4 2-1 3 2 5-2 9 2 3 3 1-5 7 2 2 2-1 1 7 3 3-2 8 2 5 6 2v5l5 5-3 1v5l4 2-1 4 2 6 9 6-1 4 3 4-2 1 6 3 1 6 4-1 1-6 4-7 6 6 3-2h17l6 10 3 8-1 3-5-2-1 4-3 2v4l-2-2-5 4-6-3v2l-7 3-1 7 3 4 5 3 1 11 4-1 1 5 4 1v2l-4 3 2 3v11l5 5h9l-1 3-3 3h-2l-1 5-4 2v5h-3l9 14 5 1-2 3 3 4-2 6 2 2h6l2-7 6-4 12 4 2-2 9 10-7 18-5 2 5 9v3l4 3-1 11-3 1v3l4 2 3 9 13-2 4-6 8-3 8 3 2 3-1 7 3 9 4-1v3l4 1-4 12 6 10-1 4-6 7v7l4 7v5l2 4 3 2-1 8 8 3 3-1 5 7 12 7 4 11-2 13-7 4-3 8 4 9 7 7h4l8-7v-8l3-3 8 6 5-3 4-7 10-5 5-10 14-9v-5l4-8 11-5-2-5 1-4 4-4-2-4 3-4-2-2v-5l-2-4h2l1-4h2l3-5h6v-9l7-13h-4l-2 2-4-1 3-7v-6l3-4 3-10h-10l-2-2-11-2v-3l-6-5h-23l-1-3-4-3-1-5h-4l-2-3 1-12-2-2v-16l-2-6-3-2v-3l6-6 5-9h3v-11l3-4v-4l6-6-1-4-7-2-6-7-2-8h-4l-2-5h-4l-2-3-2-15-7 3-2-3v-7l1-4 10-11 2-6 6-8 3-14 3-4v-4h-3l-1-2 5-12v-10l-1-1-12 6h-11l-10 4h-5l-6 5h-7l-4-4-5-1-3 2-6-7v-5l7-5-2-5h-4l-2-3v-6l-2-5 6-3 3-6-1-2 2-2-2-4-3 3-7-3-1-6 8-11-1-12 3-5 9-6 4-9 7-7 1-7 17-19-3-15-6-3z"/>
  <path id="湘潭市" fill="#ff6347" fill-opacity="1" fill-rule="evenodd" stroke="#ffffff" stroke-dasharray="none" stroke-linecap="round" stroke-linejoin="round" stroke-opacity="1" stroke-width="0.5" d="m576 426 3 8 1 10 3 3 4-1 1 6 6 4 5-3 3 2 2 5-3 4 1 3 8 6-5 2-1 6-2-1v-4l-3 1-2 3 3 2-5-2-5 2-2 3 2 4-1 5 2-2 4 3-1 3 2 4 4 1 3-3h3v2h2l3-2 1-4h2l2 5 3-3 3 3 8-1v-5l2-2 2 2 2-5 2-1 1-5 6 2 6-1 7 5 1 4-2 3v4l-8 2v3l12 9 1 6v3l-6 10-2 10 1 3 4-2 2 2 4-1 5 4 8-3-1-2 3-2-1-2 2-4 3-1 5 4-2 5 8 2 2 9 16 9 2 4 4-3v-2l3-3 6 2 1-5 4-1 2-3h4l2 2 2-1 3 3h8l-1 5-2 2 2 7 5-1 6 4 2-2 3 1 3-2 4 8 4 4h3l1 4-2 2 2 1h6l1-4 5-1 3 2 1-2h13l1-18 14-6h5l-2-2-1-7-2 1-2-2 5-7-3-1-2-3 2-9-2-5 1-3 4-2 5-6-3-5 3-2 3 3 5-3v-3l-4-3 2-3-1-2-6 2-3-4v-3l4-2 5-8h6l2-5-7-4-1-3 2-3-3-8-5-2-1-4 12-10-2-5 2-8 4-6 2-8 4-3 1-5-4-2 4-5-5-6-8 1-2 4 1 5-3-3v3l-5 3-15-14h-3l-2 6h3l1 2-4 1-1 2-4 1-2-2-4 2 2-6h-3l-1-3h-2l1 4h-4l1-4-3-5h-3l-2-2 1-3-5-7 1-2-9-1-2 3 2 3 7 4-2 4h-3v-2l-4-2-1 2 2 3-4 5-1 11-4 6v4l-3 1v3h-5l-2-2-6 1 1-2-8-4-3 5 2 2 1 5-1 6h-4l-1-3-3-3h-2l-1-5-4-4 1-6-5-2-4-6-2 2-4-1-2-5h-5l-1-5 2-2-9-11-3-1-2 2-4-2-6 3-3 5 1 5-4 5 4 1-1 9-10-2-5 1-2 2h-8l-2-4h-2l-10 4-7-1-2-3-3 5-3-2v-2l-5 6v3l-2-1-4 4 1 3-3 3-6-1-2 4-5 1-3-4-7-4-4 3-4-1-3 2z"/>
  <path id="衡阳市" fill="#ff6347" fill-opacity="1" fill-rule="evenodd" stroke="#ffffff" stroke-dasharray="none" stroke-linecap="round" stroke-linejoin="round" stroke-opacity="1" stroke-width="0.5" d="M833 562h-5l-14 6-1 18h-13l-1 2-3-2-5 1-1 4h-6l-2-1 2-2-1-4h-3l-4-4-4-8-3 2-3-1-2 2-6-4-5 1-2-7 2-2 1-5h-8l-3-3-2 1-2-2h-4l-2 3-4 1-1 5-6-2-3 3v2l-4 3-2-4h-2v3l-4 1 1 4-2-1-1 2v7l-3 1-1 3-3-4-3 5-6 4-1-3-7-2-10 1 1-2-10-2-9 3-4 7 1 2-2 5-3 2-3-2v5l-4 2-4 8-5-7v-4l-2 1-2-5-2 1-4-5-3 6 2 8-3 3v4l3 2-9 5 1 2h-5l1 3-2-1-4 3v6h-4l-1-2-4 5-2 7 1 2-2 3 3 5v8l-3 3 1 2 6 1 1 7 3 2v6l-2 2h-8l-2 4 1 5-7 3v3l-3 1-2 3h-5l2-2-1-3h-3l-3 2h-6l-2 4-6 4-2-1v-17l-7-8-7 2-7-4 2-4-2-3h-2v4l-6-2-3-6-5 1 1-2h-5l-4-2-9 11h-6l-1 6-3 3 2 4-2 7h-4l-3 2-9-3-1 1-4 8 4 3v5l2 3-3 4h-3l-1 4-3 3v3l-2 2 1 8 3 2 4-1v3l7 4 7-1 2-4h2l-1-4 2-7 13 2v-2l5-2 3 5h2l2-3 2 3-2 2v3l2 2 5-1 2 6 10-4 1 1-2 5 3 1 1-2 5-1 2-3 3 1 8 13 4 1v4l3 7 3 3 3 10 2 2v4l8 6 4 8 3-7-6-6 3-2h13l5 1 4 3 1-3 4-3 2 1-1 2 9 5-2 10h4l3 2 1 4-1 4h-3l-2 3 3 2-4 4v6l2 1 5-7 10-7 8 4v6l-2 3-6 1-4 4-5-4-4 2-1 2 2 3-4 2 2 1 1 5-5 2 3 4v7l-3-1v6l2 1-1 7 2 3 1-1 6 2-1 11 3-2 3 2 2-2 1 2-4 8v14l-2 2 1 8-2 3 5 6h3l-1 4h3v3l2 1v5l7-1v-3l7-3 5 3 2-5-1-3h5l2-2 5 2 2-6 3-3v-3l3-1 2 6 9-1 4 4 1-2 8 2v4l2 3 5-3 1 7h3l2-3h6l3-3 3 1 1-2-2-9 2-8 6 1 1 5 4 2 3 15 5 3h4l-7 7 3 1 3-3h2v-4h3l1 3 5-2v-3l3 2 5-5 3 4 2-1v-5l6 1v-5l2-1-4-3v-2l3-4 1 5 3-3 4 1v8l10 2 3-1 2 2 4-2 3 2 4-2v-5l3-1 5 5 5 2 6-3 4 2 7-5 1-11-4-9 5-3 2 2 4-2 2 2 4-1-1-7 4-4 4 1v-2h3v-6l3-4 6 1 3-2-5-9 3-3-2-4 1-7 4 2 8-6v-2l-5-4 5-6h4l1-4-4-6-6-1-8-8v-3l5-6 2-13-2-8 2-7-1-8h-6l-7-7 2-1-5-2v-2l3-2-1-2h-4v-2l-5-2 1-7 13-3-1-12 2-1 2 3 6 1 6-2v2l4 1 4 4 5-2 1-4-9-14h3v-5l4-2 1-5h2l4-6h-9l-5-5v-11l-2-3 4-3v-2l-4-1-1-5-4 1-1-11-5-3-3-4 1-7 7-3v-2l6 3 5-4 2 2v-4l3-2 1-4 5 2 1-3-9-18h-17l-3 2-6-6-4 7-1 6-4 1-1-6-6-3 2-1-3-4 1-4-9-6-2-6 1-4-4-2v-5l3-1-5-5v-5l-6-2-2-5 2-8z"/>
  <path id="邵阳市" fill="#ff6347" fill-opacity="1" fill-rule="evenodd" stroke="#ffffff" stroke-dasharray="none" stroke-linecap="round" stroke-linejoin="round" stroke-opacity="1" stroke-width="0.5" d="m321 874 4-7-1-5 3-9 3-3v-3l2-1 2-5-1-4 3-5v-21l2-3 8 1 2-7-1-2 5-2 2 4-3 16 11 12-3 3v5l3 3 4 1-1 2 6 2v-2l7-5h8l1-4 2-1 4 2 2-6-2-13 4-8 1-10 2-2-1-4-3-1v-5l-6-8 7-3 1-3 4-1-1-6 3-7v-4l-4-9 4-10 5-4v-2l4-2 2 2h9l3-3h3l2 2 5-1 6 3 3-2 4 1 2-2h3l1 5 3 2 6-12h3l3-4-2-3v-5l-4-3 4-8 1-1 9 3 3-2h4l2-7-2-4 3-3 1-6h6l9-11 4 2h5l-1 2 5-1 3 6 6 2v-4h2l2 3-2 4 7 4 7-2 7 8v17l2 1 6-4 2-4 4-1 2 1 6-2 1 3-2 2h5l2-3 3-1v-3l7-3-1-5 2-4h8l2-2v-6l-3-2-1-7-6-1-1-2 3-3v-8l-3-5 2-3-1-2 2-7 4-5 1 2h4v-6h-2l-4-4-2-19-2-2-3 1-6-9h-7v-7l-21-13-1-2 2-5-15-14-4 1-1 3-4-1-2-1v-5h-6v-7l-12-1-3-6-3 1-7-5v3l-4-4h-2l-4 6-2-1-2-6 3 2 1-2-3-2v-4l-3 2-1-1 3-2 1-3h-4l-3-2 2 3-2 1-5-5-1-6-4-1-2-2v-3l-2-1-2 1-2 5-14 4-3 5-3-1-2-4-4-1-3 2-7 10-8 4 1 3-5 3-2-4-7-3-6-6-5 3-2 4h-4l-3 5-6-3v-5l-6 1-4-2v-2h-3l-2-4h-12l-3-4h-8l-1-9-3-3-9-1-4 3-4-1 1-7-3-2-26 3-4-2-3 3v7l-3-1 2 10-14 9h-3l-10-13-3 1 2-5-1-2-2 3h-5l-1 2-9 2-9 13-2 6 4 2 9 9 1 9 2 3-1 4-4 2-3 4-3 17-11 12v10l-6 3-3-1-5-8-3 1-5 3 1 1-4 5-7 3-6 5-1 10-4 3-4 1-13-7-6 7 1 7-3 7-5-3-3 1-2-3-14 5-6 6-7 3-2 5 4 6-2 5-12 7v12l-2 3-8 3-3 7-7 3-1 3 6 7-1 5-3 2h-4l-4 6-2 8 2 3h2l1 9 2 2v8l-2-1 1 3-4 1 2 2-2 2v3l5 2 1 5h-7l-6 11-5-2 1-1-5-4-6-2-3 1-5 4h-5l-3 2-1 4-10 3-2 6h-5l-1 5 8 7 1-1 2 4-2 9h3l5 4-4 2v6l-4 3-2 6h5l4 2 11-5 1 6 5 3-1 3 4 2 5-1-2 13 9 4-1 2 2 5-2 13-4 2-3 5 2 2 1 10-5 5-2 7 4 4 9-1 3 5 3 1 3-2h12v11l-9 24 5 3 4 5 3-4 12 5 6-12 5-2 3 7 9 6v15l4 2 16-4 9-20-2-3 6-7 1-4 24-25 5 4 7-6 6-9 3-19 8-3 7-11 3 1 1 4 4 2 6-2 8 2 3 5h3l5-6 3 7-4 5 6 5v2l6-3h15l4-3 15-2 2 6h2l2-9-3-9 4-3 2-8-1-5 3-3 4-1 3 2 2 5z"/>
  <path id="岳阳市" fill="#ff6347" fill-opacity="1" fill-rule="evenodd" stroke="#ffffff" stroke-dasharray="none" stroke-linecap="round" stroke-linejoin="round" stroke-opacity="1" stroke-width="0.5" d="m658-49 1 3 3 1-2 9 1 9 3 2 3-3 4-1v5l5 4 1 9 13 11 11 5 2 2 1 6 13 4h8l3-5 6-4 6-1 4 4 3 7 3-2 2 3 5 2-5 4 3 6-4 3 1 4-2 2 2 3v6l9 2 2 3 4 2 9-2 5-4 4 1 1 2-4 6 4 2 17-3 5 3 6 1 4 25 3 1-6 11-13 12-1 6-6 8-33 15-9 1-7 12 4 8-1 6-7 1-6 3-4 6v3l-9 5-5 1 1 2-2 3h-3l-2 2v8l-4 7 6 4 5-1 2 4 3 2 2-2 2 1v7l-7 9v2l5 2 3 4 4 1 5-2 8-10h4l2-4 6-1 3 1v5l2-1 3 4-3 3-9 4-1 5 7 5h9l2-6 4-5 6-3h4l-6 7 1 3 4 1 4-2v4h8l5 4v-6h12l5 3 10-4v7l-4 7 3 3 5 1 7-3 11-10 1-4 3-1 2 4 7 3h4v8h6l5-2v-4l4-3v-8l3-7-1-4h-2l1-4-2-5 3-1 5-6v-5l5-2v-5l5 10 8-3 7 2 2 5h8l2-2v-3l5-3 9 3 3-1-2 13 2 4 2-4 8-1 10 11 1 6 11 4 2-3 5-1 10 12 9 8 3 4-1 2 5 2 7 6 4-1 3-5 22-7 4-7 3-10 4-3 4 4 4 1 3-3h10l6-5 3-6h5l8 6 4-2 3 2 5-3h4l4-8 4-2 3-6-2-4 2-6v-8l-2-6 7-10-1-3 3-8-1-3-4-2v-3l3-4 1-8-1-1-4 2-3-5-7 3h-4l-5-5v-15l-3-2-5 5-4-8h-2v-11l-6 2-3 3-4-12 1-5-4-6v-8l-8 2-1 2-9-2v-6l2-2-8 2-5-3 1-5-2-5-3-1-11 3-6 10-3 1-3-8 1-6h-2l-4 4v3h-6l2-10-2-5-3-1-3-9 8-10-1-9h-6l-1 2-4-2-3-6h-6l-1-5 2-1 5-14 7-4V-3l2-4 6-3h10l3-6-1-4 4-4v-2l-4-7-8-4-5-7h-14l-1-4 7-4 6-1v-3l7-2 2-4 5-2 2-5-4-2-1-3h-4l-1-7-4-2-2 2-2-2h2l-5-13h-2l-4 4-23-1-3-3 1-5 5-8-2-12 4-5-2-2 4-5-3-1 3-2 1-5-2-4-14 11-6 8-30 24-20 27-6 5-1 5-13 11-10 17-7 8-3 3-3-3-8-1v5l-3 4-2-1-2-5v-9l-4-12h-6l-12 7-5 9-5-1-10-40v-3l24-23 3-5 4-15-2-3-3 1-2 4-7 5-5 13-3 3h-3l-2-2 1-19-2-4-6-4-8-1-19 15 3 3-4 3 1 5-3 1 1 4-5 2-1 3-7 5-2-2h-3l-1 5-4 5v3l-5 6-1-3h-4l-2 2-7-7-4 3v-2l-9-3-8 7h-2l-8-3-1-6h-9l-2-2-4 1-4 5v5l-6 7-1 4-2-2-5 8-10-1-3 2zm158-74 2 3-1-7-4-3-5-1-3 2 3 1z"/>
  <path id="常德市" fill="#ff6347" fill-opacity="1" fill-rule="evenodd" stroke="#ffffff" stroke-dasharray="none" stroke-linecap="round" stroke-linejoin="round" stroke-opacity="1" stroke-width="0.5" d="M649-40v-12l5-9v-6l-2-3h-3l-12-6-2-4 4-9-7 5 1 2-5 2-1 4-3-5v-4l-5-5-4 3-7-1-1-2-2 1-5-7-7 1-1-4 1-5 2-2 1-8-3-3v-4l-3 3 3 4-4-1-1-3-4-1-5-5-5-1-1-4h-8l-1-6 3-5-1-1-6 1-6-6-8-2-5 1-6-6-3 1 1-4-6-2v-3l-13-5-9 1-1 5-10 5-5-1-2-2-8-1-6 2-8-3-4 1-4-2-2-7-12 3-5-3-4 1-2-2-9 6-4-1-2-3 2-4h-3l2-3-3-2-6 1-1 3-6-11-1 2-6-6 1-4-3-2h-5l-3-7-4-2-54-2-9-3-17-2-2-3v-11h-13l-5-4h-10l-3 3-8-2-6 3 2 18-4 3h-5l-2 2-5-2-3-4 1-1-9-6-14 7-17-2-6 3-2-1v8l-2 2 3 4 4 2h7l3 4-10 8-3 5v7l-2 3 10 4-1 5 4 9 7 1 1 3h7l3 3 6 16-3 4 1 3 5 1 2 3v4l3 4 12 6 11-8 1 10h12l10-5 6 4 4-1 9 3v2l4 1 6-3h5l3 3 9-1 2 5-2 2 5 3 1 5h6l12 4 2-1 7 5 4-2h20v4l4 2 5 7 4 2-1 3 5 2v3l5 8-5 9 3 6-5 7-4 2-1 2 2 3-10 5-7 14 3 3 2 6-8 11 3 7-3 5-7 2-4-2-3-4h-4l-15 10-13 19h-4l-1 6h-6l-4 2v-2h-3l-8-6 1 2-4 1-1 3-3 2-7 1v2l-3 1-2-3-4 4 3 9 12 5 2 7 9 6-1 2 10 2-2 4h-2l-5 5 1 2-2 5 3 5-1 4 8 2 6 14 5 4 2 4h6l4 5v4l6 4-1 2 5 9-4 2 1 2-2 8-4 3-4-2-4 2-1 2 5 7-4 2-9 1-5 3-1 6h-15l3 5-1 3 2 7h2l5-5h7l1-4h2l1 3 8-6h2l-1 5 2 3-2 3 6 10-1 2-6-2-2 1-3-3-5-1-5 8-6 2-7 10-3-2-6 9-5 2v3l-7 6v3l7 1 23-10 11-2 4-3 4-1 3 2 8-2 4-3 2 1 7-2 1-5 2-2-1-5h6l10-7 4 4 6-2 7 4 9-2 5 1 10-9h3l3 3 4-2h5l3-3h6l6-4 1-3 4-1 8-7 7-9 15 6 3-3 2 2 5-1 2 10 4 1 4-3 1 1 4-4-1-8 3-5 5-1 7 7 3-5 1 2 5 1 1 4 3 3h4l3-6h12l4-6-2-4 4-2 15 4-1 2h3l2 3 4 2h5l2-5-4-4 11-1 2 5 3 1 2 3 3-3 8 1 3-2-2-2 4-1 1-3h2l3 3 5-2 2-5 6-5 9-3 4-3v-14l4-3 2-4v-7l-8-5-5-6 2-14-1-17-3-4 2-21-4-5 1-10-2-4h-6l-1-3-5-3v-3h3V53l9-10-2-1-1-21-3-2 6-1 2 2h4l1-2-3-6V2l3-7 5-5v-3l3-1 2-12-3-9z"/>
  <path id="张家界市" fill="#ff6347" fill-opacity="1" fill-rule="evenodd" stroke="#ffffff" stroke-dasharray="none" stroke-linecap="round" stroke-linejoin="round" stroke-opacity="1" stroke-width="0.5" d="m162 141 2-4 6-2 3 3h4l1 3h4l1-2h2l-1-3 2-4h2l10 11 3-4-5-15 7-4 1-3-3-6 4-4 4-1 5 9 7 1 4 5 6 4 5 9 3-1v-5l7 4 3-4h3l6 6h3l4-3 2-12h3l7 4 3-1 1-2-3-12 5-2 7 2 3-2 1 1 3-3-3-4v-4h3l-1-4-12-5-3-6v-3l4-4 2 3 3-1v-2l7-1 3-2 1-3 4-1-1-2 8 6h3v2l4-2h6l1-6h4l13-19 15-10h4l3 4 4 2 7-2 3-5-3-7 8-11-2-6-3-3 7-14 10-5-2-3 1-2 4-2 5-7-3-6 5-9-5-8v-3l-5-2 1-3-4-2-4-7-5-2 1-3-8-2-13 1-4 2-7-5-2 1-12-4h-6l-1-5-5-3 2-2-2-5-9 1-3-3h-5l-6 3-4-1v-2l-9-3-4 1-6-4-10 5h-12l-1-9-4 1-4 5-3 1-12-6-3-4v-4l-2-3-5-1-1-3-15 10-3 4-9 5-5 1-11-7-4 7v8l-8 1-1 2-11 6-4-2-4-8-6 2-4-1-2-2-1-8-18-15-15-2-4-5-8-5-13 2-10 4-20-1v-2l-10 4-3-2-2 2-5-3-20 4-6 5h-3l-1 3 5 4-3 2v8l-12 4 1 5-4 6 2 2 1 5 3 2 5-3h4l2 3-1 3 4 6-8 8h-3l-1 2 5 10 6 6 6 12 2 6-3 3v2l6 6 2 5 21-20 4-1 3 3 4 15-2 4 3 3 1 5-2 3-4 2 10 8 11 3 8-8 5-2 7 4 5 9-3 7-5 1-4 12 6 13-1 5 3 3 5-1 2 2 8-9h2l4 4 2-3 4 1 3 7h2l-2 2 12 3v3l-3 4v5l3 3 11-7v16l9-1v4l2 2v3l-5 8 1 1-3 2v2l-4 2 1 4 1 2 5-1 7 4v11l6 2z"/>
  <path id="益阳市" fill="#ff6347" fill-opacity="1" fill-rule="evenodd" stroke="#ffffff" stroke-dasharray="none" stroke-linecap="round" stroke-linejoin="round" stroke-opacity="1" stroke-width="0.5" d="m753 245 1-5 9-4 3-3-3-4-2 1v-5h-9l-2 4h-4l-8 10-5 2-4-1-3-4-5-2v-2l7-9v-7l-2-1-2 2-3-2-2-4-5 1-6-4 4-7v-8l2-2h3l2-3-1-2 5-1 9-5v-3l4-6 6-3 7-1 1-6-4-8 7-12 9-1 33-15 6-8 1-6 13-12 6-11-3-1-4-25-6-1-5-3-17 3-4-2 4-6-1-2-4-1-5 4-9 2-4-2-2-3-9-2v-6l-2-3 2-2-1-4 4-3-3-6 5-4-5-2-2-3-3 2-3-7-4-4-6 1-6 4-3 5h-8l-13-4-1-6-2-2-11-5-13-11-1-9-5-4v-5l-4 1-3 3-3-2-1-9 2-9-3-1-1-3-7 3-2 6 5 14-2 12-3 1v3l-5 5-3 7v10l3 6-1 2h-4l-2-2-6 1 3 2 1 21 2 1-9 10v10h-3v3l5 3 1 3h6l2 4-1 10 4 5-2 16v5l3 4 1 17-2 14 5 6 8 5v7l-2 4-4 3v14l-4 3-9 2-6 6-2 5-5 2-3-3h-2l-1 3-4 1 2 2-3 2-8-1-3 3-2-3-3-1-2-5-11 1 4 4-2 5h-5l-4-2-2-3h-3l1-2-15-4-4 2 2 4-4 6h-12l-3 6h-4l-3-3-1-4-5-1-1-2-3 5-5-6h-7l-3 5 1 8-4 4-1-1-4 3-4-1-2-10-5 1-2-2-3 3-15-6-7 9-8 7-4 1-1 3-6 4h-6l-3 3h-5l-4 2-3-3h-3l-10 9-5-1-9 2-7-4-6 2-4-4-10 7h-6l1 5-2 2-1 5-7 2-2-1-4 3-8 2-3-2-4 1-4 3-11 2-23 10-7-1-2 3-4 1-1 4-10 8-11 4-8 11 5 6 9 2 5-1 3 7-5 7 10 8v-2l4-2 5 5-3 8-8 9 4 6 3 1-6 9 3-1 7 4 4-2 5 7-3 2-5 8v3h4l2 4h9l1-6 3 1 4-12 4-2v3h6l8 4-3 4 6-2 9 11h3l4-3-1-6 6-7-1-4 3-1 3-5 4-11h2l8-9-1-2h10l3 2 11-11 1-7 8-5 3 2 3 6-2 3h13l1 5 13-9 3 2v4l8-3 1-2 3 5-3 20 7 9-4 4v11l2-1 6 3-1-4-4-3 2-3 4 5 1-2 3 2v8l6-4 2 5h-3l-3 7-6 2 6 3 8-5 4-5-2-2v-3l3-2 5 5 3 1 5-4 3 1-3 1 3 2 2-7 3-1v8l2 1-2 2 1 4 7-1 3 3 4-3 1-3 7-2 2 1-1 3 4 2 1-4 7-6 4 1 5-3 8 1 3 2 3-2-1-7 4-4-3-4 1-1-5-5 3-5 6-5v-10l2-1 1-4 5-7 10-5v-3l8-5 5 1 7-3v-2l3 1 2-2 10 1 2 4 6 2 2 3 5 1 3-2 4 2 4 7 4-7 7-6h2l1 2 3-4 4-1-1-6h4l4 3 3-3-3 1-1-3 7 2 2-2h4l7-4-1-2h3l1-2 1 2 3-2 4 2 2-2 4 3 3-1 1-3 6-1 2-2v2l5 2 4-2-2-6 3-3v-4l2-1-1-3 2-6 7-6 3-6 1-7h3l4-5-1-3 3-1 2-5z"/>
  <path id="郴州市" fill="#ff6347" fill-opacity="1" fill-rule="evenodd" stroke="#ffffff" stroke-dasharray="none" stroke-linecap="round" stroke-linejoin="round" stroke-opacity="1" stroke-width="0.5" d="m670 1208 8 9-2 2 3 3h4l7-13 3 4 1 6 12 2 1 2 8 1 6 3 16-3 1-2 8 2 3 6 12 10-1 15 7 8 1 10 2 2 5 1 3 4 1 7-2 4 2 2 15-2 7 1 1-3 7-5 10 2 4-2 7 1 2-2v-3l5-3-3-3 2-1v-4l-2-4-3-2 1-6-4-2v-2l6-7v-4l5-3-4-2-1-4-3-2-5-9 1-8 5-2 4-4 6-1 1-2-2-3h-3l-4-9h-5l-6-3-2 2-4-1v2l-3-2-7 3-1-2-6-1-1-3 2-4h-2l-2-5-1-12 1-1 3 3 2-2 5-1 1 8 3 3h4l1-7 4-1 1-3 4-1 1-2 10-1 4 2 1-5 13-6 3-4v-3l2-1-1-2h5l4 2v-4l-3-6 3-1-2-2 3-3h4l1-7 4 1 2 5 6-2 3-5 8-6 5 5 2-2 4 4 2-2v-5h3l-2 2 4 6-1 2 2 4v7l6-2 4 4 1-1 5 11 3-1 1 2 4-1 4 2 1 6 6 4 3-3 2 1 2-3 10 2-1 3 3 2 3-5 2 1 3 4 6 3v7l2 3 6-6h12l2-3 4 1 2-5h5v-2h4l3 3 2-4h3l3 8-2 1h16l5-9 10-5 1-8 2-1-2-2 1-5 7-2 8 1-1-6 5-6-2-1 1-3-3-1 5-8h6l-1-3 2-8-3-2 1-7-1-2-6-2-2-4 1-3-10-19v-7l1-4 11-10v-6l3-5v-6l5-7 5-3 1-4 3-3v-27l-4-4-1-4 8-8-1-4 3-3-1-2 7-1 4 4 4-2 2 1 3-4v-2l-3-1v-2l16-6h5l7-4 5-5v-2h-3l-2-2 4-4-3-2-1-4-6 2-3-6-20 8-4 6h-8l-1-4-3 1-1-3-3 2-3-1-13 10-5-4 2-4-2-2-7 4-7 12-8 3-4 7-5 3-8-6-3 3v8l-8 7h-4l-7-7-4-9 3-8 7-4 2-13-4-11-12-7-5-7-3 1-8-3 1-8-3-2-2-4v-5l-4-7v-7l6-7 1-4-6-10 4-12-4-1v-3l-4 1-3-9 1-7-2-3-8-3-8 3-4 6-13 2-3-9-4-2v-3l3-1 1-11-4-3v-3l-5-9 5-2 7-17-6-9-3-2-2 2-12-4-3 1-3 3-2 7-2 1-6-3 2-3v-3l-3-4 2-3-5-1-1 4-5 2-4-4-4-1v-2l-6 2-6-1-2-3-2 1 1 12-13 3-1 7 5 2v2h4l1 2-3 2v2l5 2-2 1 7 7h6l1 8-2 7 2 8-2 13-5 6v3l8 8 6 1 4 6-1 4h-4l-5 6 5 4v2l-5 5-3 1-4-2-1 7 2 4-3 3 5 9-3 2-6-1-3 4v6h-3v2l-4-1-4 4 1 7-4 1-2-2-4 2-2-2-5 3 4 9-1 11-7 5-4-2-6 3-5-2-5-5-3 1v5l-4 2-3-2-4 2-2-2-3 1-10-2v-8l-4-1-2 3-2-5-3 4v2l4 3-2 1v5l-6-1v5l-2 1-2-4-6 5-3-2v3l-5 2-1-3h-3v4h-2l-3 3-3-1 7-7h-4l-5-3-3-15-4-2-1-5-6-1-2 8 2 9-1 2-3-1-3 3h-6l-2 3h-3l-1-7-5 3-2-3v-4l-8-2-1 2-4-4-9 1-2-6-3 1v3l-3 3-2 6-5-2-2 2h-5l1 3-2 5-4-3-8 3v3l-7 1 2 7 8 1 3-3h2l2 3 3-2 3 1 4 5-2 11-6 9-1 8-2 1 5 4h-4l5 5-13 14 1 2 5 1 6-2 6 2 3-6h3v3l5 10h2v4l-2 3h-5l-1 5 1 3 7 1-3 12 4 6-2 3-6 3-6 8-4-2-1-7-5-2-5 6-8 2-1 5 4 10v5l-5 8 1 4 4 2v3l-3 2 1 2 9 1 10 7 8-3 4 1-1 5 8 12v6l3 5 3 1 1 4 4 4v3l-5 1 3 4h6l-1 4-2 1-3-2-6 13-6 3-3 4h-3l-5 3 3 3v10l3 3-2 6z"/>
  <path id="永州市" fill="#ff6347" fill-opacity="1" fill-rule="evenodd" stroke="#ffffff" stroke-dasharray="none" stroke-linecap="round" stroke-linejoin="round" stroke-opacity="1" stroke-width="0.5" d="m670 1208-1-6 2-6-3-3v-10l-3-2 17-11 6-13 3 2 3-4-6-1-3-4 5-1v-3l-4-4-1-4-3-1-3-5v-6l-8-12 1-5-4-1-8 3-10-7-9-1-1-2 3-2v-3l-4-2-1-4 5-8v-5l-4-10 1-5 8-2 5-6 5 2 1 7 4 2 2-1 2-5 8-5 2-3-4-6 3-12-7-1-1-3 1-5h5l2-3v-4h-2l-5-10v-3h-3l-3 6-6-2-6 2-5-1-1-2 13-14-5-5h4l-5-4 2-1 1-8 6-9 2-11-4-5-3-1-3 2-2-3h-2l-3 3-8-1-2-4v-8l-2-1v-3h-3l1-4h-3l-5-6 2-3-1-8 2-2v-14l4-8-1-2-2 2-3-2-3 2 1-11-6-2-1 1-2-3 1-7-2-1v-6l3 1v-7l-3-4 5-2-1-5-2-1 4-2-2-3 1-2 4-2 5 4 4-4 6-1 2-3v-6l-8-4-10 7-5 7-2-1v-6l4-4-3-2 2-3h3l1-4-1-4-3-2h-4l2-10-9-5 1-2-2-1-4 3-1 3-4-3-5-1h-13l-3 2 6 6-3 7-4-8-8-6v-4l-11-22v-4l-4-1-8-13-3-1-2 3-5 1-1 2-3-1 2-5-1-1-10 4-2-6-5 1-2-2v-3l2-2-2-3-2 3h-2l-3-5-5 2v2l-13-2-2 7 1 4h-2l-2 4-7 1-7-4v-3l-4 1-3-2v-5l-1-3-3-2-1-5h-3l-2 2-4-1-3 2-6-3-5 1-2-2h-3l-3 3h-9l-2-2-4 2v2l-5 4-4 10 4 9v4l-3 7 1 6-4 1-1 3-7 3 6 8v5l3 1 1 4-2 2-1 10-4 8 2 9-2 10-4-2-2 1-1 4h-8l-7 5v2l-6-2 1-2-4-1-3-3v-5l3-3-11-12 3-16-2-4-5 2 1 2-2 7-8-1-2 3v21l-3 5 1 4-2 5-2 1v3l-3 3-3 9 1 5-4 7-1 5 6 1 4 2-1 2h6l11 6 3-2 23 1 1 5-2 2 3 4h3l2 2 2-2 2 1 8-2 3 6v9l-5 1v4l-2 3 3 3-5 8 1 5 2 2v6l-6 9 5 4v2l-7 2-6 9-6 18h4v4l3 1 4 7-3 1 5 6 3 7 7 1 3 2 3-9 11-6 2 4h2l1-3 3-1 2 7 6-1 2 2 4-3h6v5l4-1 6 2-2 2-14 4-2 6 3 3 2 10-1 3h-6l-4 7-14 4-5-1-5 5v7l2 3-1 10 8 13-5 15 1 8-2 7-5 7v6l-2 4-3 2v2l-4-1-2 9-4 2-1 3-7 4-7-1-11 18-10 5 4 13-1 6-9 5-3 4h-3l-13 6-1 5-5 6-1 5 2 2-6 7 1 1-4 9 3 12 4 4-2 3 6 5-1 5 2 3-5 4 5-3h14l12-4v-10l3-10-2-7 10-2 16-9 1-3 3-2 1-4 11-8v-3l3-2 5 8 7 5 10 1 2-2 1-5 4-1 3 2 1 5 2 2h6l-5 15 2 3 4 2 7 1v6l-7 6-2 3v4l2 4 8 4-2 6-4 5 3 3-2 10 5 7 2 7-4 13v5l-8 13 1 2 3-1 1 5h4l1-3 4 1 5 2 4 7 2 1 5-3 3 3 3-2 2-9 3-4 2-1 5 3h6v-13l6-9 6-5h4l1-3 7 3 13-2 2 3 5 1 6-2 9 2 1 4 8-2 8 2 7-4 16 9 2-4v-5l7-8 6-1 3-4v-3l4-1 3-3 5-1 2 2 3-2 2-5-1-5 2-13-8-3-6-8 1-7 3-2 5-8-1-9 4-4v-4l3-6-1-7 5-12-2-3h16l2 3v4l7-2 1 2 4 1 4-6 4 1 5-4z"/>
  <path id="怀化市" fill="#ff6347" fill-opacity="1" fill-rule="evenodd" stroke="#ffffff" stroke-dasharray="none" stroke-linecap="round" stroke-linejoin="round" stroke-opacity="1" stroke-width="0.5" d="M-88 480v2l3 3 7 3 3 4-4 3 3 5 1 7-5 13 3 5-1 2-3-1-3 4h-8l-24 18-2 4 1 12-2 3-3-1-11 2v-3l-6-3-2-3h-3l-3 4-9 6 1-8-1-2-4 1-4 5v3l-3-2v4l7-5 1 3-7 5 2 4-3 6v4l-2-1-1 2 1 4-8 1v3l-4-1-2-3-2 1 3 8v3l-3 5-5-1-3 3h-6l-1 4-4 3-1 3h-4l-1 2-8 4-2 3 5 2-2 1 3 4-1 6-10 11-2 5-3-3h-2l-1 5-8 3-5-3-4 4 11 8 2-2 4 9h3l3 7-2 2h3l4-5h5l-1-2 2-1v5l8-2-3-8 6-2 6-6 5-2 6-7 1 2h5l2-4 1 2 4-3 11-2 2 1v2l-6 6-2 6 8 1 2-2h4l2 2 3-6 3 1 8-9 5-10 3-1 2 1 2 5 4 2 5-3 9-1v-3l6-1 4 2 1-2 2 3h2v-4l2-1v2h4l3 8 3 2 5-4 4-1-1 6-3 2v4l1 4h5v3h-7l8 5 3-3-2-1v-3l2-1 2 2h3l-2 2 3 2-1 5 2 1v4l4 4 1 4-3 1-1 5 2 1 3-3 2 11-6 2-1 3-4-1-14 9-6 2 2 6-2 3h6v-3l4-3v-3h3l1 3 6 3v9l-4 5v3l5 10 1 9 9 4 2-2-1-4 3 2 2-2v-5l5 3-5 6v2l-7 3-1 2v-4l-7-5-4 1-2-5h-11l-9 6-1 5-2 1-7-2 1 4-5 5-3 1-9-3-5 2-2-2-2 1 5 10 8 5 5-3 3 7 7 9-2 9h4l-1 1 2 2 1 7-1 2-6 3 1 7-6 8 5 1-2 4h-3l-9 6-9 24-4 1-1 4 4 9 10 2-1 2 3 2 1 3h3l6-4 18-3v-4l5-3 4 4-5 4-1 6-4 7 3 9 5 2v2h-3l3 5-1 4 3 5 4 1v-3l5 7v4l-2 5-7-1-3 3-4-3-1 8 2 6 6 1 1 5 4 2 4 7 4 1 3-1 1-4 16-4 7-6 3 2 1 7 7 1 4 2-1 2h3l2-4 6 6-5 11-4-1-1 6-2 1-1 3 3 4v3l-2-1-1 2 2 2-1 2h5l2-2 2 1 13-2-1 4 4 3 5-1 3-3 4-9-4-9-1-9-6-3-1-3 5-11 4-2 6 4 8-2 3-6v-6l4-5 4-17 5-2 9-10 2-7 5-5v-6l-3-6 3-5 4-2 2-13-2-5 1-2-9-4 2-13-5 1-4-2 1-3-5-3-1-6-11 5-4-2h-5l2-6 4-3v-6l4-2-5-4h-3l2-9-2-4-1 1-8-7 1-5h5l2-6 10-3 1-4 3-2h5l5-4 3-1 6 2 5 4-1 1 5 2 6-11h7l-1-5-5-2v-3l2-2-2-2 4-1-1-3 2 1v-8l-2-2-1-9h-2l-2-3 2-8 4-6h4l3-2 1-5-6-7 1-3 7-3 3-7 8-3 2-3v-12l12-7 2-5-4-6 2-5 7-3 6-6 14-5 2 3 3-1 5 3 3-7-1-7 6-7 13 7 4-1 4-3 1-10 6-5 7-3 4-5-1-1 5-3 3-1 5 8 3 1 6-3v-10l11-12 3-17 3-4 4-2 1-4-2-3-1-9-9-9-4-2 2-6 9-13 9-2 1-2h5l2-3 1 2-2 5 3-1 10 13 6-1 11-8-2-10 3 1-1-2 1-5 3-3v-5l-8-2-2-10-5-12-4-1-2-7-5-3 5-11 1-7 4-2 8 4h15l4-4h3l6-10 7-4 2-3-3-1-1-7 9-13-8-3 3-7h8l3-4-8-4h-6v-3l-4 2-4 12-3-1-1 6h-9l-2-4h-4v-3l5-8 3-2-5-7-4 2-7-4-3 1 6-9-3-1-4-6 8-9 3-8-5-5-4 2v2l-10-8 5-7-3-7-5 1-9-2-5-6 8-11 11-4 8-6 3-6 4-1 2-6 7-6v-3l5-2 6-9 3 2 7-10 6-2 5-8 5 1 3 3 2-1 6 2 1-2-6-10 2-3-2-3 1-5h-2l-8 6-1-3h-2l-1 4h-7l-5 5h-2l-2-7 1-3-3-5h15l1-6 5-3 9-1 4-2-5-7 1-2 4-2 4 2 4-3 2-8-1-2 4-2-5-9 1-2-6-4v-4l-4-5h-6l-2-4-5-4-6-14-8-2 1-4-3-5 2-5-1-2 5-5h2l2-4-10-2 1-2-9-6-1-3h-3v4l3 4-3 3-1-1-3 2-7-2-5 2 3 12-1 2-3 1-7-4h-3l-2 12-4 3h-3l-6-6h-3l-3 4-7-4v5l-3 1-5-9-6-4-4-5-7-1-5-9-4 1-4 4 3 6-1 3-7 4 5 15-3 4-10-11h-2l-2 4 1 3h-2l-1 2h-4l-1-3h-4l-3-3-6 2-2 4 1 5-7 5-6 8v11l-3 7h-6l-5-3-2 2 1 5-4 13v9l-3-1-4 5v3l-4-2-2 3-2 5 5 3-2 1 3 11-3 3-4-3h-5l-4-3-2 15-4 2v13l4 4-7 6h-3v-3l-4-1-2 3 3 3-1 8 8 9 3-2 4 4h3l2 4h4l2 5-7 4-2 5 2 9-3 1 3 6 5 2 1 3 5 1 3 3 1 7-2 2h-3l-2-2-6 1 2 4-2 4-5 3-1 3 3 2-1 4-6 1-1 3 4 3v2l-5 3h-9l3 8 4 2v3l-4 2 2 5-5 5v5l-3 4-8 2-5 6 1 5-2 4-6 3-5-4v-4l-5-3-2 2-1-5-3-2v3l-2 1-1-2-4-1-5 2-1 4-7-3-6-7-5-1 1-2-3-1-4 2H9l-1 2-4-8 2-2 1-7-9 3-6-1 1 11-4 1v9l-9 5-3 4h-3l-3 5-5-2-2 5v4l4 1 2 4-1 2 2 6-7 3 1 2-3 1-3 5-2-2-5-1-6 6h-3l-2-3v-4h-3l-2 3-1-1-6 5h-2l-1-5h-3l-2 3 2 6-9 10zm12 258 1 1 3-2zm16 25-2-1z"/>
  <path id="娄底市" fill="#ff6347" fill-opacity="1" fill-rule="evenodd" stroke="#ffffff" stroke-dasharray="none" stroke-linecap="round" stroke-linejoin="round" stroke-opacity="1" stroke-width="0.5" d="m600 630 4-3 2 1-1-3h5l-1-2 9-5-3-2v-4l3-3-2-8 3-6 4 5 2-1 2 5 2-1v4l5 7 4-8 4-2v-5l3 2 3-2 2-5-1-2 4-7 9-3 10 2-1 2 10-1 7 2 1 3 6-4 3-5 3 4 1-3 3-1v-7l1-2 2 1-1-4 4-1v-3l-14-9-2-9-8-2 2-5-5-4-3 1-2 4 1 2-3 2 1 2-8 3-5-4-4 1-2-2-4 2-1-3 2-10 6-10-1-9-12-9v-3l8-2v-4l2-3-1-4-3-3-4-2-6 1-6-2-1 5-2 1-2 5-2-2-2 2v5l-8 1-3-3-3 3-2-5h-2l-1 4-3 2h-2v-2h-3l-3 3-4-1-2-4 1-3-4-3-2 2 1-5-2-4 2-3 5-2 5 2-3-2 2-3 3-1v4l2 1 1-6 5-2-8-6-1-3 3-4-2-5-3-2-5 3-6-4-1-6-4 1-3-3-1-10-7-22-5-3-3-6-4-1-6 5-3-3 2-5-3-3 1-3-3-2-8-1-5 3-4-1-7 6-1 4-4-2 1-3-2-1-7 2-1 3-4 3-3-3-7 1-1-4 2-2-2-1v-8l-3 1-2 7-3-1 3-2-3-1-5 4-3-1-5-5-3 2v3l2 2-4 5-8 5-6-3 6-2 3-7h3l-2-5-6 4v-8l-3-2-1 2-4-5-2 3 4 3 1 4-6-3-2 1v-11l4-4-7-9 3-20-3-5-1 2-7 3-1-4-3-2-13 9-1-5h-13l2-3-3-6-3-2-8 5-1 7-11 11-3-2h-10l1 2-8 9h-2l-4 11-3 5-3 1 1 4-6 7 1 6-4 3h-3l-9-11-3 2h-11l-3 7 8 3-9 13 1 7 3 1-2 3-7 4-6 10h-3l-4 4-5 1-10-1-8-4-4 2-1 7-5 11 5 3 2 7 4 1 5 12 2 10 8 2v5l4 2 26-3 3 2-1 7 4 1 4-3 9 1 3 3 1 9h8l3 4h12l2 4h3v2l4 2 6-1v5l6 3 3-5h4l2-4 5-3 6 6 7 3 2 4 3-1 2-2-1-3 8-4 7-10 3-2 4 1 2 4 3 1 3-5 14-4 2-5 2-1 2 1v3l2 2 4 1 1 6 5 5 2-1-2-3 3 2h4l-1 3-3 2 1 1 3-2v4l3 2-1 2-3-2 2 6 2 1 4-6h2l4 4v-3l7 5 3-1 3 6 12 1v7h6v5l6 2 1-3 4-1 7 6 8 8-2 5 1 2 21 13v7h7l6 9 3-1 2 2 2 19 4 4z"/>
  <path id="湘西土家族苗族自治州" fill="#ff6347" fill-opacity="1" fill-rule="evenodd" stroke="#ffffff" stroke-dasharray="none" stroke-linecap="round" stroke-linejoin="round" stroke-opacity="1" stroke-width="0.5" d="m-88 480 2-5 9-10-2-6 2-3h3l1 5h2l6-5 1 1 2-3h3v4l2 3h3l6-6 5 1 2 2 3-5 3-1-1-2 7-3-2-6 1-2-2-4-4-1v-4l2-5 5 2 3-5h3l3-4 9-5v-9l4-1-1-11 6 1 9-3-1 7-2 2 4 8 1-2h5l4-2 3 1-1 2 5 1 6 7 7 3 1-4 5-2 4 1 1 2 2-1v-3l3 2 1 5 2-2 5 3v4l4 4 7-3 2-4-1-5 5-6 8-2 3-4v-5l5-5-2-5 4-2v-3l-4-2-2-3-1-5h9l5-3v-2l-4-3 1-3 6-1 1-4-3-2 1-3 5-3 2-4-2-4 6-1 2 2h3l2-2-1-7-3-3-5-1-1-3-5-2-3-6 3-1-2-5 2-9 7-4-2-5h-4l-2-4h-3l-4-4-3 2-8-9 1-8-3-3 2-3 4 1v3h3l7-6-4-4v-13l4-2 2-15 4 3h5l4 3 3-3-3-11 2-1-5-3 4-8 4 2v-3l4-5 3 1v-9l4-13-1-5 2-2 5 3h6l3-7v-11l6-8 7-5-1-5-8-3v-11l-7-4-5 1-1-2-1-4 4-2v-2l3-2-1-1 5-8v-3l-2-2v-4l-9 1V79l-11 7-3-3v-5l3-4v-3l-12-3 2-2h-2l-3-7-4-1-2 3-4-4h-2l-8 9-2-2-5 1-3-3 1-5-6-13 4-12 5-1 3-7-5-9-7-4-5 2-8 8-11-3-10-8 4-2 2-3-1-5-3-3 2-4-4-15-3-3-4 1L17-4l-2-5-6-6v-2l3-3-2-6-6-12-6-6-5-10 1-2h3l8-8-3-3v-6l-2-3h-4l-5 3-3-2-13 4-4-3 1-4-11-3-9 2v2l-4 4-2-2-5-1-1-3h-3l-1 3 2 2-2 3-3-2-1 2 2 1v2l-4 11-6-2-1 1-1 7 2 5-2 1-3-3v-2h-4v7l2 4-1 1-4-3-2 2-2 7 3 4-3 2v4l-2-2-6 5-1 4 4 5-1 3 3 3-6-3-6 3-1 11 1 9h2v6l-10 10-15 8 5 7-1 8-3 4 1 5 3 3v3h-5l-3 2-3-1-2 2 2 7h6l3 3 9 2 2 2 2 7-6 8-3 12-3 1-3 5-1 13-4 5-2 8 2 4 1 11-1 11h5l-1 3 9 4 2 4-3 3 2 3-3 1-3 5-2-1-3 3 5 6-20 10-3 4 5 7 9-6 6 4 5-2 2-4h3l2 2 1 3-2 2 4 6-4 1-4 9-3 2v15l-4 7 1 2-2 9 2 10 3 5 3 1v3l-5 7 2 8 6 6-1 4 3 1 9-6 5 3-2 5 6-3 6 2-8 5 1 2-4 4 1 4-4 4-1 13-2 1 1 5-9 19-1 13 7-3 2-6h3l9 8-4 7-5 1-6 4-1 6-3 1-1 3 3 7-1 8 3 3v8h4l-3 3 5 5-1 12-3 3h3l-2 2 1 2 7 5-1 4 4 2-3 5 12-1z"/>
</svg>
