<svg xmlns="http://www.w3.org/2000/svg" id="svg1" version="1.1" viewBox="-251 -228 2002 1279">
  <path id="武汉市" fill="#ff6347" fill-opacity="1" fill-rule="evenodd" stroke="#ffffff" stroke-dasharray="none" stroke-linecap="round" stroke-linejoin="round" stroke-opacity="1" stroke-width="0.5" d="m1126 647-1 4h11l-2 8 1 4 4 4v8l4 4h4l-4 10-3 1-3 4 4 5 8 4 3-1 2 8 12-3v-6l12-20 4-4 12-2 10 9 5 12 4 2-1 3h-2v4l10-4 8 2 2 2 9 15v8l3 3 1 5 7 1 1 14 3 3 1 8 6 2 8-1 8-2 7-3 2-3h4l3-2 12 4 19 10 2-2 2 1v2l5 3 2-1 2 2 2-1-1-6 2-4-2-4 1-2 3 2v-3h4l-3-2-3-12-2-1v-4l-4-2-4-7 4-20 4-1 2-12 6-5 1-6 5-3 1-4 1-15-3-5 2-14-3-8 2-2v-4h5l3 2 2-6h2l1-2-2-7v-8l-2-1 2-2-2-1-1-5 25-8 17-10 17-3 3-3-5-6-3-3-4 2-2-3 1-4-5-10 2-4 3 2 10-5 7-7v-9l2-1 8 4 2-2h3l4 5 2-4-3-4 6-3 1 2 3-3 1 2 3-8-2-3 2-4 2 2 1-2h4l2 3 5-2-1-2 8-5-1-4-6-1v-4h-5l-2-3 2-3-7 1-5-6-1-4 2-2-3-2 2-3v-4h-5l-1 3-3-2 1-3-4 2-1-2-2 2-3-6-4 3h-5l-5 4h-3v2l4 1 2 4-4 7-9-1v-2h-2l-3-6v-6l-3 2 1-4-5 4v3l-3 5-1-5 2-2-6-3-5 4h-4l-3 2v7l2 3-7-2-7 5-1-3-6 4h-3l-3-10-7-2-7-9-2 2-1-3-7-4-3-6 1-3 3-2v-4l5-9-2-4 2-3-2-1v-4l-2-3-7-1-5-7-3 1-1-5h4v-2l-5-1v-3h-5l-3-2-4-6-1-6 10-17-9-2-10 1-3-4-6 2-8-6-1-4-4-3-11 6v5l-3 2-2 4-4 1-2 4 1 6h-5l1 8 2 5 5 5v3l5-2 4 7-6 11-5 6-6 4v8l3 3-2 6-5 2-2 6 5 12-1 6-3 4-1 15 2 4-2 2 2 3 1 13 3 4-2 6 2 9-1 3-3 1-4-4h-9l-1-2-6-2-15-1-23 2-4 5-2-2-3 1v3h3l-2 7 2 2h-6l1 5 4-2 1 5h5l5 5-4 7-4 3v2l4 2-4 5 4 3v6l-5 5-8 1-3 9 1 3-4 3-1-4h-3l-3 4-2 7h-3l-2 2-10 16-13 3-5 9zm316-189 2-1v-3l-3-1-2 4zm8 8h4l-1-9-3 1 2 5z"/>
  <path id="黄石市" fill="#ff6347" fill-opacity="1" fill-rule="evenodd" stroke="#ffffff" stroke-dasharray="none" stroke-linecap="round" stroke-linejoin="round" stroke-opacity="1" stroke-width="0.5" d="m1341 745 2 7 3 2h-4v3l-3-2-1 2 2 4-2 4 1 6-2 1 1 2h3l2 3-4 2v2l4-2 2 3 8-1 3 2v2l11 5h5v2l9 3h6l-3 13v3l5 1 1 11-3 12 5 5 4-1 1 2h13l5 2 3 10h5l4 7 1 6 3 4-1 8 4 4v4l7 1v5l2 3 7 1 3-4 3 1 2-3 8 8 10-4h4l3 3-3 8h4l6 4 7-1 1-2-1-17 1-3 4-1v-2l-3-1-7 3-3-2 4-6-1-5 2-5-5-1-3-3-1-3 2-3 2-1 3 2 1 3 5 4h29l-1 6 2 4 3 1 6-5h3l2-3h8l5-6 9-6 6-9 9-7-1-7 3-14 2-2 5-1 1-5-6-2-10-7-4-9-7-7 1-8-6-4-6-12-9-7-1-14-14-24-12-12-3-5-9-2-5 3h-8l-8-4-4-5v-6l-4-1-2 2-8 2-7 11-2-2-4 1-3 4h-2l-5-5-18-7-1-6 3-3-3-3-3 1-4-4 1-3-2-3-11 1v5l-3 1-10-3-3-5v-3l-7 5-2 6 1 3-9 9 2 9 3 5 12 7-3 3 1 2-4 2-1 3 8 8 3 8-6 3 4 7-1 2-3 3h-4l-1-3-3 3v6l-3-1-2 2-2-1-4 2-1-7-4-5-7 2-6 4-2-2 2-1-4-4zm153-52 6 2v-2l-8-3z"/>
  <path id="十堰市" fill="#ff6347" fill-opacity="1" fill-rule="evenodd" stroke="#ffffff" stroke-dasharray="none" stroke-linecap="round" stroke-linejoin="round" stroke-opacity="1" stroke-width="0.5" d="m440-205-4-2-4-4-1-4-4-1-3-5-5-1-6 7 1 2-6 8-15-4-2 3-7 1-3 8 2 5-3 2-1-2-4 3-7-1-6 2-7 9 1 6h-5l-8-10-3-7-2-1-9 4-4-3-2-5v-11l-4-14-3-1h-6l-3 2-1 5-5 3-4 6-3 1-3 6 1 2-6-2-7 3-5-2h-7l-1-3-4 4h-4l-1 4-10-3-17 3-3-1-14-14-9 2h-14l-12 3-3-2-1-3-4-1-6 3-15-8-18-6-9 4-20 1-8-3-3-4-8 2-3-1v-5l-3-2h-5l-3 3v9l-5 2-13-5-6 2-4 10-4 2-2 5-9 10 8 3h11l12 5 4 4 4-3 3 4h3l5-3h14l4 5 24 11-2 20-6 28 6 8 3 2 12-5 3-5h3l4 2h6l6 5h15l4 4 7 1 1 3 4 3 8 2 5 3 4 7 6 1-4 9 3 4h6l1 5-3 18 9 14 5 4-6 4-5 8h-3l-5-6-3-1-5-1-5 2 1 8-15 12-9-1-6-8h-7l-5-4-4-1h-7l-8 4-9 1-15-4-8-6h-4l-3 2-17 1-4 2v4l5 12-5 5-8 2-3 3v5l-2 3-4 1-1 7-5 7-1 10-5 1-1 5 3 11-4 13 1 3 7 6 6 14h6l5 2 3 6-5 11 4 12h2l3 5-1 7-7 11-1 7 1 4 6 7 4 8v6l-2 4-7 2-2 9 5 3 8 22-1 2h-7l-4 5 1 11 3 3-4 1-1 3 8 5 7-3h10l3 4 4 2h5v9l3 2-1 11 7 8-5 2v5l-5 3-2 4 2 2h16l3 2 10-4 8 8 6 3 8-1 5 5h6l7-5 8 1 11-9-1-4 17-13h10l6 7 6 4 2-5 3-2-3-6-4-2 1-4 6-4 1-4-2-3-4-2 5-13v-4l12-10 17 1 6-3-1-9 8-2 2-3 6-1 1 2 5 2 5-2v-5l4-2-1-3 7-3 2 1v4h3l2-3 12 2h7l2-2h4l6 2 3-5 8 2 2 2 11 2 2 4 2-2-1-2 5-1v-6h3l4 3 2-1 7 2 7-1-1-3 3 1-2-4 5-1 7 5-1-2 6-3 4 2 5 7 6-5 2 2-2 5 1 5 5-3 2-4-3-4v-6l-3-2-1-3 4-4-6-5-1 2-1-5-2-2h3l3-13-1-2 2-2v-3l8-2 3 2 5 15 2-2 5 7 3-2-2-4-3-2v-7l-3-1-2 4-2-1v-6l3-1 3-5-3-1v-5l2-1 1-5-1-1-5 2 1-7 5-4 2 3 14-10 4 1 6-3 13-11 6-17-2-5-3-1 1-9-4 1-4-4 6-5v-8l5-5 13-5 3-4v-3l4-4 6-2 5-4 2-6 7 6 4-1 4-4 7-2 5-5-3-7 4-2 2 1 7-7 2 2 2-2V6l12-19-1-6-3 1-11-11-1-8-3-6-9-6-3-4 2-3-3-2h-6l-4-3 1-1 4 3v-3l4 3 3-4 1-7-3-4v3l-4 1-2 4h-4l-3-2-8-22-6-3-7-1-10-6v-10l-3-3-3 1-4 5-2-2v-17l7-8-4-11-4-4v-5l-5-2h-19l1-3 11-6-1-4-4-5 1-4-4-3h-4l-4-4-1-5-6-3-4-6-7 3-4 5-3-1 3-3-3-2-5 1 5-5zm25 353h-2l-1 3h-3l-3-3-6 14h3l1-3h3l2-5 8-2zm-37 19-3 13h2l-1 5 3 1 1-5 2-2-2-6 2-1-1-3zm12-372-3 4v4l3 2 3-4-1-3z"/>
  <path id="宜昌市" fill="#ff6347" fill-opacity="1" fill-rule="evenodd" stroke="#ffffff" stroke-dasharray="none" stroke-linecap="round" stroke-linejoin="round" stroke-opacity="1" stroke-width="0.5" d="m706 567 2-4-2-4-5-1 3-3-4-7 3-3-1-9-5-2v-8h2l-1-7-9-14 3-2 1-17-1-1-3 2-2-10 4-8h-2l-3-3v-2l-3-1-1-3h-3v-4l-3-2 2-5-3-2-6 3-4-1-4-7 2-2 4 2 9-13-5-2-4-5 1-10-4-2-2 3-2-1 2-4-2-2v3l-4 3-2-7 1-3-3-1v-3l-2-2-4-2-3 2-1-4-6-3-2 1-3-8-2 3-2-4-5-1v-3l-3 1 2-2h-3l1-4 2-1v-2h2l-1-2h-2l2-6-3-2v-5l-5 3-3-1-2 3-2-2-9 2-3-4-5-3-8 10-21 12-13-2-7-2-2-2v-13l-6-2-12 7h-3l-7-3-2-5-4-3h-6l-3-10 2-1v-8l-9-5h-5l-4 7-5-2-2 1-2-2-6 5-5-1-4 7-5-1v-2l-8-2-3 3-2-1 3-5-3-6v-7l6-6-2-6-5-5 3-2-1-6h-25l-8 4-2 6-4 1-9 9h-2l-5-7-1-6-3 2-5-5-13 4-3 3v4l-6 12h-4l-2-3-13 2-5-2-1 1-1 10-5 12-3 3 1 6-4 4 3 7-1 4-9 4-8-9 1-3-2-3-3-1-2 9-4 4-5-1-1 3-5 3 3 3-1 5 5 7h3l2 2h7l1 2-5 4 1 9h-3v5l6 2v5l4 6 6 4-10 14-9 1 3 13-8 2v19l-5 17 5 9-6 3h-4l-13 12-5 1-1 4 2 3-4 6-2 7 6 3 9-5 2-4h10l3 3 2 8 3 4h2l1 5-2 3-1 11 3 1 1 5h-5v5l-4 4 2 4 6 3 2 5-1 5 4-1 1 3-4 1 1 3-2 5-6 3-1 7-8 2-6 4-3-1-2 2 3 6-1 7-2 2 3 5-6 10-1 6 4 3-4 2 6 8-6 13v5l-7-2-18 4 3 4 8 3 1 4-6 2-1 3 8 4v5l11 7-7 8 5 2 1 4-6 5 1 6-2 2v6l-3 5 2 7-3 4 2 3 8 3 8-5 13 1 11-15 9-6-1-8 3 1 6-3 5 2h12l14-7 9 6-1 1 3 4 5 2 2-2 7-1 2-3-2-17 4-2 10 1 3-3h9l6 4h13v11l2 3 17 2 9 3 38 2h17l19-3 1-7 2-3 12-6 3-6 12 5 6-1 3 3h4l5-3 5 5 12-8 3-13-1-7 3-1v-6l2-1 2-5-3-2v2l-5-2v-5h3l4-4 8-14 12-6 14-11h8l12 23 3-1 2 5 7-2 9 3 2-1 3-18 4-3 3 2 13 19 6 2h8l-1-2 2-2v-3l-6-3-8-8-5-8 1-17-2-5-4-3-1 2-8-1-3-4 5-5-4-2 3-8 13 1 7-16-1-3-6-2 3-4v-4l6-4 3-9 10-4 1 2zM441 332l2 3 8 2v-2l-4-4-2 2zm141 385v-4l-3 1zm124-158-2-4-1 3z"/>
  <path id="襄阳市" fill="#ff6347" fill-opacity="1" fill-rule="evenodd" stroke="#ffffff" stroke-dasharray="none" stroke-linecap="round" stroke-linejoin="round" stroke-opacity="1" stroke-width="0.5" d="m578-19 1 6-8 11-4 8v5l-2 2-2-2-7 7-2-1-4 2 3 7-5 5-7 2-4 4-4 1-7-6-2 6-5 4-6 2-4 4v3l-3 4-13 5-5 5v8l-6 5 4 4 4-1-1 9 3 1 2 5-6 17-13 11-6 3-4-1-4 4 1 9 2 3-2 3 5 7-8 2-2 5h-3l-1 3h-3l1-4-3-1-2 3-3 1v6l2 1 2-4 3 1v7l3 2 2 4-3 2-5-7-2 2-5-15-3-2-8 2v3l-2 2 5 7-2 1 2 6-2 2-1 5 3 4-4 4 1 3 3 2v6l3 4-2 4-5 3-1-5 2-5-2-2-6 5-5-7-4-2-6 3 1 2-7-5-5 1 2 4-3-1 1 3-7 1-7-2-2 1-4-3h-3v6l-5 1 10 15 2 2h7l8 11 2 4-1 6 2 1v5l3 6 6 5 8-2 8 4 1 3-3 1-7 14 1 8h25l1 6-3 2 5 5 2 6-6 6v7l3 6 4 1 2-2 4 4v4l5 1 4-7 5 1 6-5 2 2 2-1 5 2 4-7h5l9 5v8l-2 1 3 10h6l4 3 2 5 7 3h3l12-7 6 2v13l2 2 20 4 21-12 8-10 5 3 3 4 9-2 2 2 2-3 3 1 5-3v5l3 2-2 6h2l1 2h-2v2l-2 1-1 4h3l-2 2 3-1v3l5 1 1 4 3-3 3 8 2-1 6 3 1 4 3-2 4 2 3-3 3 1 4-6 5-2 4 1 2-5-1-6-3-1 1-5-4-4 5-1v-12l4-20 9-2 2-2 8 5 3-3h2l5 4 2-8 10-2 4 1 9-6h3l5 3v-13l3-6 7 2 5-4 7-2 17 10 3-1 17 4 7-6 8-4 8-8h14l8 6 9 12 5-1 17 9 2-7-6-13 2-3 8-1 1-3 2-13-4-2-2-6v-11l1-9 4-3 1-4-1-6 2-1 7 3 4-4 8-2 6-13 4-2 4 3 4-2 1-4 7-8 8 4 4-5-4-13 1-2 6-2 3-12 2 1 1-5 5 1v-4l-4-3-6-1-1-22 16-20-7-10v-7l3-8V91l-3-9 4-4 3 1 4-2 6-7v-5l-6-5-1-7 5-3 7 2 2-4-2-7-8 2-5-4-2-4-7-2-3 3h-3l-3 5v8l-5 1-2-5-4-1h-11l-4 4-3-1 1-4-3-2-24 12-2 5h-4l-4-2v-2h-13l-19-9h-4l-2 2-3-1v-2l-8-4-4 8-2-2-7 2-5-1-8 7 2 4-16-8-1 2-7-1-2 5h-4l-2 4v5l-8-4-2-4-9-4-6-5-1-3-6-2-8 2 1-2-3-6h-4l-2 2 4 1 1 3-3 3 4-1-2 3-5-4-2-4-2 1-8-6h-2v-5h-2l-3-3v-9l-7 1-6 6h-2l-1-2h-3v-3l-4-1-2-7-5-7-8 3h-12l-3-6-8-1v-2h-5l-6-6-10-6-2-4-6-5h-6l-5-3-7 3-1-9-6 2-4 6zM465 148l-3-3 2-3-2-3-1-9h-2l-8 6-2-3-5 4-1 7 5-2 1 1-1 5-2 1v5l3 1-1 2 3 1 5-10 3 3h3l1-3zm-39 37 1-5h-5l2 2 1 5zm17 150-2-3-3 5 2 1zM870 54l3-2 1 2v-3z"/>
  <path id="鄂州市" fill="#ff6347" fill-opacity="1" fill-rule="evenodd" stroke="#ffffff" stroke-dasharray="none" stroke-linecap="round" stroke-linejoin="round" stroke-opacity="1" stroke-width="0.5" d="m1478 686 2-6-1-15-3-11-4-7-10-4-10 1-16-2-13-6-5-6-3-8 2-16-3-21-6-5-6-1-17 10-25 8 1 5 2 1-2 2 2 1v8l2 7-1 2h-2l-2 6-3-2h-5v4l-2 2 3 8-2 14 3 5-1 15-1 4-5 3-1 6-6 5-2 12-4 1-4 20 4 7 4 2v4l2 1 1 5 7 5-2 1 2 2 5-4 8-2 4 5 1 7 4-2 2 1 2-2 3 1v-6l3-3 1 3h4l3-3 1-2-4-7 6-3-3-8-8-8 1-3 4-2-1-2 3-3-12-7-3-5-2-9 3-2 1-3 5-3-1-4 2-6 5-4 2-1v3l3 5 10 3 3-1v-5l11-1 2 3-1 3 4 4 3-1 3 3-3 3 1 6 18 7 5 5h2l3-4 4-1 2 2 7-11 8-2 2-2z"/>
  <path id="荆门市" fill="#ff6347" fill-opacity="1" fill-rule="evenodd" stroke="#ffffff" stroke-dasharray="none" stroke-linecap="round" stroke-linejoin="round" stroke-opacity="1" stroke-width="0.5" d="m706 567 4 3 1 5 5 2-2 8 6 8v11l4 3 2-3 4 1 2 3-2 8 1 4 3 3h6v-2l-3-1v-4l5-3 7 2 4-2 3 4 7 3 3 9-3 4 1 3 7 6h6l6-5 5-1 9 1 1-3 7-1 16 13 2-5-2-4 2-4 9-2 2-2 1-10h-3l2-11 2-2 3 4v3l4-2 2-4-4-8 1-4 4-1v-5l4-4-4-4v-2l7-2v-3l3-1-1 3 3-1v-2h3l1-2 6 3h2l1-2-1-3-3-2-18 5-6-3-5-4 4-14 2 2 4-1 6-7 18-15 12-6 2-4 5-3h3l3 7v4l3 3-1 15h3l10 9 3-1 1-5h7l2-6 12-8 5-6 4-1 2 4 4 1 10-4v-11l2-1 16 7 11-4 9-13 2 2 2-2-2-2 4-1 9-10 3-1 9 5v-7l2-2-2-4 4-2 1 2 4 1-1-5 2-1v-4l7-2-2-1-1-6 3 2 4-6 5-3 2-4 6-5 3-8-1-9 7-5-4-3 3-6-1-24-3-1-2 2-6-3-5-14-5-3h-4l-3 5-5-10-2 1-9-11-5 4v-4l-8-5-6 1-9-13-10-5-2 2-3-3v-2l2 1 1-3-4-2-3 3h-4l-4-5-6-1-6 3-7-4-3 3-6 2-3-1-8-11-9 1-3-2-1-15-3-6-4-4-6-1-4-8-4-2-9-1-4-4-4 1-3 16-8 1-2 3 6 13-2 7-17-9-5 1-9-12-8-6h-14l-8 8-8 4-7 6-17-4-3 1-17-10-7 2-5 4-7-2-3 6v13l-5-3h-3l-9 6-4-1-10 2-2 8-5-4h-2l-3 3-8-5-2 2-9 2-4 20v12l-5 1 4 4-1 5 3 1 1 6-2 5-4-1-5 2-4 6-3-1-3 3 2 2v3l3 1-1 3 2 7 4-3v-3l2 2-2 4 2 1 2-3 3 2v10l4 5 5 2-9 13-4-2-2 2 4 7 4 1 6-3 3 2-2 5 3 2v4h3l1 3 3 1v2l3 3h2l-4 8 2 10 3-2 1 1-1 17-3 2 9 14 1 7h-2v8l5 2 1 6v3l-3 3 8 15zm-3-9v-2l-2 2zm141-5h-3l3 1z"/>
  <path id="孝感市" fill="#ff6347" fill-opacity="1" fill-rule="evenodd" stroke="#ffffff" stroke-dasharray="none" stroke-linecap="round" stroke-linejoin="round" stroke-opacity="1" stroke-width="0.5" d="m1063 647 2-1 3 3h4v-4l3-5 6-2 2-9 5-7 8-5 1 3 3 2 3-4 4 8-2 2-2 10 10 2 5 7h8l-2-1 5-9 13-3 10-16 2-2h3l2-7 3-4h3l1 4 4-3-1-3 3-9 8-1 5-5v-6l-4-3 4-5-4-2v-2l4-3 4-7-5-5h-5l-1-5-4 2-1-5h6l-2-2 2-7h-3v-3l3-1 2 2 4-5 23-2 15 1 6 2 1 2h9l4 4 3-1 1-3-2-9 2-6-3-4-1-13-2-3 2-2-2-4v-15l4-4 1-6-5-12 2-6 5-2 2-6-3-3v-8l6-4 5-6 6-11-4-7-5 2v-3l-5-5-2-5-1-8h5l-1-6 2-4 4-1 2-4 3-2v-5l11-6 4 3 1 4 8 6 6-2 3 4 10-1 9 2v-10l-4-6 3-6 3-2v-8l4 2 4-1v-9l2-7h6l-2-15 2-3v-4l2-2v-4l2 2h4l2-1 2-5-3-17 3-9 3-2 1-8 3-1 1-3-3-2 3-15-1-2-8-1-2 6-4 2-3-8h-3v8l-5 2-4-2-2 2-4-1-1 3-7-2-4-4-3 2-11-4-14 1-12-18-3-10-4 3-3-3-7-3-4 1-1 3-7-1-2 2-5 15 3 5-5 6 3 6-4 6 5 9 3 2v5l-4 7-1 9-3 1 1 3-3 11v4l6 2-4 6-3 1-1 4-4 4-1 4 3 3-2 7-3 2-7-1-7 5-3-3h-2l-1 4 2 7-4-1-6 4h-3l-1-4 5-1 1-3-6-2-5-6-2 1-2 6-4-1-1-6-3-4h-4l-4 7-5-4-4 1-6-5-12-4-10 12-14 12-5-3-2-6-4-1-3 1-2 4-3-1-1 3h-3l-1 2h-5l-4-5-6-4-2-4-7 4h-11l-3 3h-3l-6-5-6 2 2 15-2 5-3-1-2 5 9 11 2-1 5 10 3-5h4l5 3 5 14 6 3 2-2 3 1 1 5v19l-3 5 4 4-7 5 1 9-3 8-17 18-3-2 1 6 2 1-7 2v4l-2 1 1 5-4-1-1-2-4 2 2 4-2 2 1 5 2 2 1 5h4l2 2 1 4 5 3 12 18-1 6 2 1-4 7 3 1 1 3-4 7 5 1-1 5-2 2 1 5 7 6-1 6-3 3 1 2-4 9v9l3 2v5l2 2-4 5 1 5 1 2 5 2-1 16zm-7-30 4-5-2-2-3 6zm-13-55 2-3h-2l-1 2z"/>
  <path id="荆州市" fill="#ff6347" fill-opacity="1" fill-rule="evenodd" stroke="#ffffff" stroke-dasharray="none" stroke-linecap="round" stroke-linejoin="round" stroke-opacity="1" stroke-width="0.5" d="m578 714 4-1 1 4-7 2-1 8-12 8-5-5-5 3h-4l-3-3-6 1-12-5-3 6-12 6-2 3-1 7-19 3 6 9 8 2-1 4 6 6 1-2 5 9 2 1v-2h8l-1 4h3l-2 4 2 3 4 1 9-6 2 2 4-1 3 2 14-2 2 7 4 2 4-1 8 3h5l1-2 8 1 2 2 2-1 3 2 5-1 8-9 7-1 13 5v3l6 2-1 4 3-1 6 6 5-1 8 2 6 6 6-1 1 1-3 5 1 6h8l1 4 5 1 5 5 4 1 1 3 4 1-3-4 3-3v4l3 3-1 9-2 1-1 5 1 4 7-1 5 7 2-1 1 2 7 1 4-3 5 5v4l3 5 1-4 5-2v-3l6-4-4 10 2 3 2 2 13 4 2 3v6l-6 11 1 10 2-6 7-3 1-4 3-2 10 1 5-8 2 2 1-4 5-6 1-6 4-5 4-1 3 2h8l1 6 8 3h2l8-7 9 3v2l4-3 7 7 2-2h4l1 3 5-6v-3l4-5v-3l4-2 1 3 8-6v-2l6-3-1-4 3-1-1-5 4-3-3-3 17-14 9-1 2-2-4-1 3-2 5 1 4 3 1 7-2-3-2 3 2 4-1 18 2 3 3-1 3-4 5-12 7-5 2-4 3-1 2 3-4 15-3 5-24 23v3l7 23 3 17h6l4-8 8-5 4-2h6l4 12v9l2 5 2 1 3-4v-5l8 1 3 3 10-11 10-17 13-11 1-5 6-5 20-27 30-24 6-8 23-17 9-10 14-6h27l7-4 19-26 37-14 8-5 3-3 1-4-1-4-9-4-20-17-8-2-13 5-7-1-12 3 1 6-9 8-4 1-2 3-7-5-2 1v4h-4l-2 7-6 1-4 3-5-2-13 2-10 4-10-1-2-2 1-3-9-8-5-10-7-5h-4l-11-8h-8l-5 8-5 3-18 2-6-2-16 4h-4l-4-3-8 2-11-13h-4l-2 2 1 3-3 3 1 4-8 5-3-2-4 1-4-2v-5l-6-2-5 1-3-3-3 1v-4l-3-2-4 3-2 4-7 1-2 3 2 9-2 4h-5l-1 2 8 7h-20v-3l-15-1-3-3-10-4-11-1-2-3 4-5-1-8-3-1-2-3v-6l2-1-9-15-5-5-3-12 2-10-3-2-2-5 6-6-16-13-7 1-1 3-9-1-5 1-6 5h-6l-7-6-1-3 3-4-3-9-7-3-3-4-4 2-7-2-5 3v4l3 1v2h-6l-3-3-1-4 2-8-2-3-4-1-2 3-4-3v-11l-6-8 2-8-5-2-1-5-4-3-4 2-1-2-10 4-3 9-6 4v4l-3 4 6 2 1 3-7 16-13-1-3 8 4 2-5 5 3 4 8 1 1-2 4 3 2 5-1 17 5 8 8 8 6 3v3l-2 2 1 2h-8l-6-2-13-19-3-2-4 3-3 18-2 1-9-3-7 2-2-5-3 1-12-23h-8l-14 11-12 6-8 14-4 4h-3v5l5 2v-2l3 2-2 5-2 1v6l-3 1v6zm604 41-7 3-2 6 11-9zm-606-36 6-2-4-3zm342 106-2 2 7 6 2-3z"/>
  <path id="黄冈市" fill="#ff6347" fill-opacity="1" fill-rule="evenodd" stroke="#ffffff" stroke-dasharray="none" stroke-linecap="round" stroke-linejoin="round" stroke-opacity="1" stroke-width="0.5" d="m1496 694-4 3-2 4h8l5-3 9 2 3 5 12 12 14 24 1 14 9 7 6 12 6 4-1 8 7 7 4 9 10 7 6 2h18l27-3 20 17 19 13 25 8 8-1 22-11 15-14 7-3v-17l-2-7-13-17-1-4 2-3-1-9 4-8-3-6 2-13-1-7-3-2-4-11 2-11-5-5-4-1-1-4-3-3-5-2-4-12-7-3-8 2-4-3-1-2 3-2 1-3-6-7-3-7 7-6 3-5h4l2-2-6-2-1-3-6-4 4-16 3-2-4-3-2-4-3-1-1-6-2-2 1-3-3-3-3-1-2-3-5-1-1 3-1-1-3-5v-8l-3-3v-2l-6-3v-3l-3-2 5-20 3-2h4l3 2 8-2 1-3 3-2 1-2-3-1 2-4-1-5-4-4 1-5 4-6 12-7h5l1-4 9-6 1-3 12-7 3 1 1-2h9l-4-16h-11l-2-7-12-4-4 2-2-2 1-7-8-6-2 1-4-6v-6l-2-4-3-2-8 6-6-1-4 1-4 4-5-1-2-7-4-4-2-5-8-9-6-2-8-1-3 3-1 5-7 3-2 7-3 2-6-5-5-8v-12l-6-11h-12l-1-4-2-1 1-11h-4l-2-9-5-1-4 4-2-2-7-2 3-2-2-4 5-6-5-5-5 2-5-1-2 4-4 2h-3l-5-5-5 4-3-1 3-7-7-4h-4l-2-6 2-6-2-7 6-20h-6l-1-3-4 1v-2l-3-3-1-6-3-2-10 2v6l-5 3-1 4 2 1-1 2 2 5-3 3h-2v3l-14-2-3-3-7 8 2 3-3 5-3-1-2-6h-3l-8 8-3-3-12 3-2-3-10 6-4-6-8-1v-4l-2-1-1-4 2-2-6-2-9 2-1-3-5 1v-6h-7l-8-11-6-1-1 2-4 1-3 5h-3v2l-4-5-2 5-2 1h-4l-2-2v4l-2 2v4l-2 3 2 15h-6l-2 7v9l-4 1-4-2v8l-3 2-3 6 4 6v10l-10 17 1 6 4 6 3 2h5v3l5 1v2h-4l1 5 3-1 5 7 7 1 2 3v4l2 1-2 3 2 4-5 9v4l-3 2-1 3 3 6 7 4 1 3 2-2 7 9 7 2 3 10h3l6-4 1 3 7-5 7 2-2-3v-7l3-2h4l5-4 6 3-2 2 1 5 3-5v-3l5-4-1 4 3-2v6l3 6h2v2l9 1 4-7-2-4-4-1v-2h3l5-4h5l4-3 4-7 3 1v3l-2 1v6l1 2 4-2-1 3 3 2 3-6-2-5 3-1v7l2 2v4l-2 3 3 2-2 2 1 4 5 6 7-1-2 3 2 3h5v4l6 1 1 4-8 5 1 2-5 2-2-3h-4l-1 2-2-2-2 4 2 3-3 8-1-2-3 3-1-2-6 3 3 4-2 4-4-5h-3l-2 2-8-4-2 1v9l-7 7-10 5-3-2-2 4 5 10-1 4 2 3 4-2 5 8 3 1-3 3-15 3 4 1 6 5 3 21-2 16 3 8 5 6 13 6 16 2 10-1 10 4 4 7 3 11 1 15-2 12 4 5 5 3 7-7-2-3 8 3v2zm-54-236-3-1-2 3 3 6 2-2zm48 243 2-4 4-3-2-1-7 7z"/>
  <path id="咸宁市" fill="#ff6347" fill-opacity="1" fill-rule="evenodd" stroke="#ffffff" stroke-dasharray="none" stroke-linecap="round" stroke-linejoin="round" stroke-opacity="1" stroke-width="0.5" d="m1337 772-2-2-2 1-5-3v-2l-2-1-2 2-19-10-12-4-3 2h-4l-2 3-7 3-8 2-8 1-6-2-1-8-3-3-1-14-7-1-1-5-3-3v-8l-9-15-2-2-8-2-10 4v-4h2l1-3-4-2-5-12-10-9-12 2-4 4-12 20v6l7 1 13-5 6 1 22 18 9 4v8l-11 8-30 11v2h2l-11 9v-2l-2-1-15 21-7 4h-27l-14 6-9 10-9 6 2 4-1 5-3 3 1 1-2 4 2 2-4 5 2 12-5 8-1 5 3 3 15 2 8-1 4-4h3l4 13 6 2 1 7h4l2 5h3l-2 5-6 2-1 4-7 2v3l-6 1-7 4 1 4h14l5 7 9 5-1 1 4 5v2l-5 4 2 4-3 6h-10l-5 2-3 5v11l-7 4-5 14-2 1 1 5h6l3 6 4 2 1-2h6l1 9-8 10 3 9 3 1 2 5-2 10h6v-3l4-4h2l-1 6 4 8 6-6v-3l2-2 11-3 3 1 2 4-1 6 6 3 3-2h4l-2 2v6l9 2 1-2 7-3 3-5v-8l2-3h3l4-7 9-5 4-4 1-4 5-5v-5l27-4 3 1 12-6h7l-1-9 3-8-2-3 3-6-1-6 12-7 5 3 5 9 8 1 6-4 8-1 3-3 2 2-2 1 3 1 1 3 10-1 2 2 23-9 7-8 7-1 7-4 15 1 2 2v6l5 1 2-5 4-2 6 1 6-4 9-2 3 1v3l5-2 4-7 4 1 1-9 3-3-2-8h-3l-5 4 1 3 3 2-8 5-3-9-4-2 6-6 4-10 2 2-2 5 7-4-1 6 4 1 5-2 3-4-1-2-5-1v-5l3-3-4-1-2-3v-5l-7-1v-4l-4-4 1-8-3-4-1-6-4-7h-5l-3-10-5-2h-13l-1-2-4 1-5-5 3-12-1-11-5-1 3-16h-6l-9-3v-2h-5l-11-5v-2l-3-2-8 1-2-3-4 2v-2l4-2-2-3h-3zm-155-17v-2l-7 3-4 5 2 1 2-4 3-2z"/>
  <path id="随州市" fill="#ff6347" fill-opacity="1" fill-rule="evenodd" stroke="#ffffff" stroke-dasharray="none" stroke-linecap="round" stroke-linejoin="round" stroke-opacity="1" stroke-width="0.5" d="m1231 221-5 1-3 3v4l-4-1-4 4-2-1-3 2-6-1-7 6-2-1-4-9-3-3-1-10 2-9-6-4v-3h-3l-4 3-2 6-6 3-2-2-2 2-5-4v-5l-2-3v-12l-4-1-3-3 3-10-15-6v-5l8-10-2-4-9-7v-2l-5-2-1-12 4 3 3-1 4-7-1-7 5-7-1-7-3 2-7-12v-5l3-1-2-7 1-2 7-3-5-8v-5l1-3 3-2v-3h-2l-2 3-3-3 3-6-4-1-1-6h-7l-1-2-3 1-7-2-1 4-3-1-3 8-3 2v5l-3 2-2-2h-4l4 3-4 1-3-2 1 4-5 1-3 3 2 7-2 2-1-8-5-1-28 19-3-3h-3l-1-3-4-3h-8l-4-6h-3v-3l4-3-3-3-6-2-1-4-15-12-3-6-4-2-6 3h-4l-3 4-1 9-10 1-2 4-7-2-5 3 1 7 6 5v5l-6 7-4 2-3-1-4 4 3 9v11l-3 8v7l7 10-16 20 1 22 6 1 4 3v4l-5-1-1 5-2-1-3 12-6 2-1 2 4 13-4 5-8-4-7 8-1 4-4 2-4-3-4 2-6 13-8 2-4 4-7-3-2 1v10l-4 3-1 20 2 6 4 2 4-1 4 4 9 1 4 2 4 8 6 1 4 4 3 6 1 15 3 2 9-1 8 11 3 1 6-2 3-3 7 4 6-3 6 1 4 5h4l3-3 4 2-1 3-2-1v2l3 3 2-2 10 5 9 13 6-1 8 5v4l5-4 2-5 3 1 2-5-2-15 6-2 6 5h3l3-3h11l7-4 2 4 6 4 4 5h5l1-2h3l1-3 3 1 2-4 3-1 4 1 2 6 5 3 8-6 16-18 12 4 6 5 4-1 5 4 4-7h4l3 4 1 6 4 1 2-6 2-1 5 6 6 2-1 3-5 1 1 4h3l6-4 4 1-2-7 1-4h2l3 3 7-5 7 1 3-2 2-7-3-3 1-4 4-4 1-4 3-1 4-6-6-2 3-15-1-3 3-1 1-9 4-7v-5l-8-9 4-8-3-5 5-7-3-5zm-90-145-3-2-1 1 1 6 1-2h2z"/>
  <path id="恩施土家族苗族自治州" fill="#ff6347" fill-opacity="1" fill-rule="evenodd" stroke="#ffffff" stroke-dasharray="none" stroke-linecap="round" stroke-linejoin="round" stroke-opacity="1" stroke-width="0.5" d="m286 365-3-4v-4l-9-6h-4l-2-3h-8l-1-2h-6l-12 15-5 1-4 3-3 5-12 6-4-3-2 7 1 9h3l-1 7 2 4 1 10 5 7-3 4v5l-7 4-4-1v3l-3 1-4 5 1 5 3 3-2 2-1 7h5v8l-2 5 8-1 2 1v3l-3 3 1 2-3 2-2 9 1 4-7 13-2 7-5 5-4 9h-7l-3-3v-4l-6-2v-8l-3-5 1-3-4-2h-5l-4 3h-4l-1-3-12-3-19 11-10 4-13 10-4 4 1 7-4 2v-4l-5 5-7 2 1 7-3 6-6 5-9 2-2 7 1 2-3 5-9 3-2-1 2-3-1-4h-2l-12 12-7 3-1 3-3 2-5 11-17 22-3-2-1-7 6-10-4-8-8-7 3-4-3 1-4-6-5 6-12 7-1 2 5-1-7 4-8 8-6-1-5 8-2-1v-3l-4 1-11-20 3-3 5-1 2-5-1-5-5 2-2-3-9 2-2-4-6 3-4 5-2-1-3 2-3-2-8 9-7 4-6 6-13 18-9 5-5-7-12 6-8-8 1-3-4-4v-5l-3-8h-6l-7 4 3 6v5l-8 4 1 3-5 1 2 3-5 2v2h-3l-4 6-3-6h-6l-5-5-5 1-3 4-13-2-4 5 2 4v5l-2 3 4 6-2 2 1 3-2 2-5 1 1 5 5 2 3 4 7-2 2 5 4 2 4 6h4l3 3v4h2v3l3 2v2l6 4h3l-7 24v4l4 2-9 21v3h-2l-3 3v3h4v15l3 2-7 20 2 6v4l-2 3 1 6-2-4h-3l-2 3-6 2-9-5-8 7-2-2-2 1 1 2-5 3-1 7 7 1v-5h3l1 4 4 1-2 8 2 5 4-2 1 4-2 3v4h6l2 4 5 1 4 5 3-1v-3l-3-2 4-2 1 1 6-3 1-2-2-3-5-2 9-16 6-4-1-4 3-1 3-5h8v3h7l3 11-3 1 6 4-1 16 2 2-1 6 3 5-2 3 1 1 5-2 2 2-1 3 7 4 3 5 4-3 2 3 2-1-2-2v-4l-3-2-1 1-2-4h9v4l3 5-2 4-1-1-2 2 2 3 5-2 2 3 2-1-1-4 3-7 2 1-2 4 1 1 3-2 3 6 3-2 5 3v4l-4 7 4 2 4-4 2 3-3 3 3 3-8 10 2 2v10l-4 3-1 5 1 6 3 3 10 1 5 8-2 3-4 22 10-2 4 1 3-2v-4l4-4 9 1 1-9 4-4 7 4 8 8v14l-2 7 10 6-9 17 4 4v3l4 6 6-3 2 1 11 9 5 8 3 1 3-2h5v-3l-3-3-1-5 3-4 1-8-5-7 15-8 10-10v-6H2l-1-9 1-10 6-4 6 3-3-3 1-3-4-5 1-4 6-4 2 1v-3l3-3-3-4 2-7 2-2 4 3 1-1-2-4v-7h4v2l3 3 2-1-2-5 1-7 1-1 6 2 4-11v-2l-2-1 1-2 3 2 3-3-3-2 1-3h3l1 3 5 1 2 2 4-4v-2l9-2 8 3 3-1v5l3 3 14-5-4-6 4-6-1-5 12-4v-8l3-3-5-3v-2l4-1 3-4 23-5 5 3 2-2 3 2 10-4v2l20 1 10-4 13-2 8 5 4 5 15 2 18 15 1 8 2 2 4 1 6-2 4 8 5 2 10-6 1-2 8-1v-8l4-7 11 7 5-1 9-5 3-4 11-7 7-7-6-16-6-4-3 1-2-3-7-1-4-9 1-5-10-4 2-3v-7l3-5 10-8-3-4h-7l-4-2-3-4-7 4-11 15-13-1-8 5-8-3-2-3 3-4-2-7 3-5v-6l2-2-1-6 6-5-1-4-5-2 7-8-11-7v-5l-8-4 1-3 6-2-1-4-8-3-3-4 18-4 7 2v-5l6-13-6-8 4-2-4-3 1-6 6-10-3-5 2-2 1-7-3-6 2-2 3 1 6-4 8-2 1-7 6-3 2-5-1-3 4-1-1-3-4 1 1-5-2-5-6-3-2-4 4-4v-5h5l-1-5-3-1 1-11 2-3-1-5h-2l-3-4-2-8-3-3h-10l-2 4-9 5-6-3 2-7 4-6-2-3 1-4 5-1 13-12h4l6-3-4-9 4-17v-19l8-2-3-13 9-1 10-14-6-4-4-6v-5l-6-2v-5h3l-1-9 5-4-1-2h-7l-2-2h-3l-1-3-3-2v-7l-3-3 5-3z"/>
  <path id="仙桃市" fill="#ff6347" fill-opacity="1" fill-rule="evenodd" stroke="#ffffff" stroke-dasharray="none" stroke-linecap="round" stroke-linejoin="round" stroke-opacity="1" stroke-width="0.5" d="m1063 647-3 4-4-5-8-1-11-7-5-1-6 1-8-2h-16l-6 2-3-6-4-2-5 5-6-5-3-6v-5h-4l-7 4-3-1 2-9-1-2-7-1-6-5h-8l-8 3-2-1-3 3 3 9-1 2 3 1 2-2 2 3 5-1v4h-2l-2 4 3 6h-2v3l-7 11 7 11-2 4 2 6 4 2 3 4v8l-3 9 1 6 2-2 2 7 7 2 11 13 8-2 4 3h4l16-4 6 2 18-2 5-3 5-8h8l11 8h4l7 5 5 10 9 8-1 3 2 2 10 1 10-4 13-2 5 2 4-3 6-1 2-7h4v-4l2-1 7 5 2-3 4-1 9-8-3-14-3 1-8-4-4-5 3-4 3-1 4-10h-4l-4-4v-8l-4-4-1-4 2-8h-11l1-4h-8l-5-7-10-2 2-10 2-2-4-8-3 4-3-2-1-3-3 3h-3l-7 9-2 9-6 2-3 5v4h-4l-3-3zm76 27v1z"/>
  <path id="潜江市" fill="#ff6347" fill-opacity="1" fill-rule="evenodd" stroke="#ffffff" stroke-dasharray="none" stroke-linecap="round" stroke-linejoin="round" stroke-opacity="1" stroke-width="0.5" d="m821 646-6 6 2 5 3 2-2 10 3 12 5 5 9 15-2 1v6l2 3 3 1 1 4v4l-4 5 2 3 11 1 10 4 3 3 15 1v3h20l-8-7 1-2h5l2-4-2-9 2-3 7-1 2-4 4-3 3 2v4l3-1 3 3 5-1 6 2v5l4 2 4-1 3 2 8-5-1-4 3-3-1-3 2-2-1-2h-2l-2-7-2 2-1-6 3-9v-8l-3-4-4-2-2-6 2-4-7-11 7-11v-3h2l-3-6 2-4h2v-4l-5 1-2-3-2 2-3-1 1-2-3-9 3-3-4-10-8-5-3 1-5 7 2 13-3 4-10-3-4-3-7-19-7 2-7-2-4 2-3 4h-2l-5-6-2-7 2-6 8-3 1-2-8-3-1 2h-3v4l-6 4-4-3-2 1v2l4 4-4 4v5l-4 1-1 4 4 8-2 4-4 2v-3l-3-4-2 2-2 8v3h3l-1 10-2 2-9 2-2 4 2 4zm37-70h-3l1-3-3 1v3l-5 1 4 3 6-4zm81 63-1 1zm11 66 1 1zm-13-82z"/>
  <path id="天门市" fill="#ff6347" fill-opacity="1" fill-rule="evenodd" stroke="#ffffff" stroke-dasharray="none" stroke-linecap="round" stroke-linejoin="round" stroke-opacity="1" stroke-width="0.5" d="m1056 617-1-1 3-6v-5l-3-2v-9l4-9-1-2 3-3 1-6-7-6-1-5-12-2 2-13h12l-1-3-3-1 4-7-2-1 1-6-12-18-5-3-1-4-2-2h-4l-1-5-2-2-1 2-9-5-9 6-3 5-4 1 2 2-2 2-2-2-9 13-11 4-16-7-2 1v11l-10 4-4-1-2-4-4 1-5 6-12 8-2 6h-7l-1 5-3 1-14-7v-2l2-1v-14l-3-3v-4l-3-7h-3l-5 3-2 4-12 6-18 15-6 7-7 2-3 8v3l11 7 18-5 3 2 1 3-2 4-8 3-2 6 2 7 5 6h2l3-4 4-2 7 2 6-2 8 19 4 3 10 3 3-4-2-13 2-4 6-4 8 5 4 10 2 1 8-3h8l6 5 7 1 1 2-2 9 3 1 7-4h4v5l3 6 6 5 4-5 5 2 3 6 6-2 35 2 11 7 8 1 4 5 3-4v-21l-5-2-1-2zm0-69h-12l-2 12 3-1-2 3 11 1 2-2 1-5-5-1 2-2zm4 64-2 4 3-4zm-161-66-1 2 6 1-2-3zm-55 7-2-2-1 2zm142 80-2 2z"/>
  <path id="神农架林区" fill="#ff6347" fill-opacity="1" fill-rule="evenodd" stroke="#ffffff" stroke-dasharray="none" stroke-linecap="round" stroke-linejoin="round" stroke-opacity="1" stroke-width="0.5" d="m166 310-6 4-1 3h-2l-2 3 2 3h12l2 5 8 4v3l5 6 14 1 2-2 1 4 7 6-2 4 3 3-1 3 3 4-2 5 3 1 1 3 4 3 12-6 3-5 4-3 5-1 12-15h6l1 2h8l2 3h4l9 6v4l3 4 5 1 4-4 2-9 3 1 2 3-1 3 8 9 9-4 1-4-3-7 4-4-1-6 3-3 5-12 2-11 5 2 13-2 2 3h4l6-12v-4l3-3 12-4 6 5 3-2 1 6 5 7h2l9-9 4-1 2-6 8-4-1-8 7-14 3-1-1-3-8-4-8 2-6-5-3-6v-5l-2-1 1-6-2-4-8-11h-7l-11-15-2 2-2-4-11-2-2-2-8-2-3 5-6-2h-4l-2 2-19-2-2 3h-3v-4l-2-1-7 3 1 3-4 2v5l-5 2-5-2-1-2-6 1-2 3-8 2 1 9-6 3-17-1-12 10v4l-5 13 4 2 2 3-1 4-6 4-1 4 4 2 3 4v2l-3 2-1 5-7-4-6-7h-10l-17 13 1 4-11 9-8-1z"/>
</svg>
