<?xml version="1.0" encoding="UTF-8" standalone="no"?>
<svg
   width="206.99998"
   height="341"
   viewBox="-253 -208 206.99998 341"
   version="1.1"
   id="svg1"
   xmlns="http://www.w3.org/2000/svg"
   xmlns:svg="http://www.w3.org/2000/svg">
  <defs
     id="defs1" />
  <path
     stroke="#ffff00"
     stroke-opacity="1"
     stroke-width="0.5"
     stroke-linecap="round"
     stroke-linejoin="round"
     stroke-dasharray="none"
     fill="#1e90ff"
     fill-opacity="1"
     fill-rule="evenodd"
     d="m -231,-169 30,-8 20,18 5,2 v 9 l 66,40 -19,-37 v -17 l -6,-18 -18,-12 -30,-12 -3,2 v -5 l -10,2 -9,-2 -3,2 -6,11 -9,-2 h -10 l -5,4 7,18 z m 134,3 h -30 l -1,21 3,3 h 20 l 7,-4 1,-3 z"
     id="花地玛堂区" />
  <path
     stroke="#ffff00"
     stroke-opacity="1"
     stroke-width="0.5"
     stroke-linecap="round"
     stroke-linejoin="round"
     stroke-dasharray="none"
     fill="#1e90ff"
     fill-opacity="1"
     fill-rule="evenodd"
     d="m -234,-146 9,2 9,6 4,-3 h 4 v -6 l 20,-18 -13,-12 h -2 l -28,8 v 8 z"
     id="花王堂区" />
  <path
     stroke="#ffff00"
     stroke-opacity="1"
     stroke-width="0.5"
     stroke-linecap="round"
     stroke-linejoin="round"
     stroke-dasharray="none"
     fill="#1e90ff"
     fill-opacity="1"
     fill-rule="evenodd"
     d="m -176,-148 1,-6 -2,-4 -4,-1 -7,-6 -20,18 v 6 l 13,1 10,3 7,-10 z"
     id="望德堂区" />
  <path
     stroke="#ffff00"
     stroke-opacity="1"
     stroke-width="0.5"
     stroke-linecap="round"
     stroke-linejoin="round"
     stroke-dasharray="none"
     fill="#1e90ff"
     fill-opacity="1"
     fill-rule="evenodd"
     d="m -230,-42 133,-39 -13,-27 -66,-40 -7,6 -2,5 -9,-3 h -10 l -5,-2 h -3 l -3,4 -10,-6 -7,-1 16,15 -7,9 -2,12 -6,2 -7,13 -8,-2 -1,3 -5,-4 3,16 8,11 v 4 z"
     id="大堂区" />
  <path
     stroke="#ffff00"
     stroke-opacity="1"
     stroke-width="0.5"
     stroke-linecap="round"
     stroke-linejoin="round"
     stroke-dasharray="none"
     fill="#1e90ff"
     fill-opacity="1"
     fill-rule="evenodd"
     d="m -252,-97 5,4 1,-3 8,2 2,-2 v -5 l 6,-6 5,-2 2,-11 7,-10 -18,-16 -2,10 -13,19 3,2 -6,10 z"
     id="风顺堂区" />
  <path
     stroke="#ffff00"
     stroke-opacity="1"
     stroke-width="0.5"
     stroke-linecap="round"
     stroke-linejoin="round"
     stroke-dasharray="none"
     fill="#1e90ff"
     fill-opacity="1"
     fill-rule="evenodd"
     d="m -206,-3 21,1 10,4 2,-2 h 5 l 4,-2 1,-5 5,-3 8,6 v 6 h 2 l 7,-4 -1,-2 2,-3 7,-3 2,3 79,39 -26,-76 -19,-37 -133,39 11,24 z"
     id="嘉模堂区" />
  <path
     stroke="#ffff00"
     stroke-opacity="1"
     stroke-width="0.5"
     stroke-linecap="round"
     stroke-linejoin="round"
     stroke-dasharray="none"
     fill="#1e90ff"
     fill-opacity="1"
     fill-rule="evenodd"
     d="m -192,73 29,-7 2,-4 8,1 3,-13 h 14 l 12,-8 12,-1 5,-4 17,-24 -39,-19 -4,-4 -7,3 -2,2 1,3 -6,4 h -2 l -1,-6 -4,-2 -3,-4 -6,3 -2,6 -7,1 -3,2 -9,-4 -22,-1 16,21 z"
     id="路凼填海区" />
  <path
     stroke="#ffff00"
     stroke-opacity="1"
     stroke-width="0.5"
     stroke-linecap="round"
     stroke-linejoin="round"
     stroke-dasharray="none"
     fill="#1e90ff"
     fill-opacity="1"
     fill-rule="evenodd"
     d="m -192,73 -2,39 3,17 20,3 44,-6 8,-2 54,-51 18,-23 -5,-18 -38,-19 -17,24 -5,4 -12,1 -12,8 h -13 l -2,1 -2,12 -8,-1 -2,4 z"
     id="圣方济各堂区" />
</svg>