<svg xmlns="http://www.w3.org/2000/svg" id="svg1" version="1.1" viewBox="-253 -208 206.99998 341">
  <path id="花地玛堂区" fill="#ff6347" fill-opacity="1" fill-rule="evenodd" stroke="#ffffff" stroke-dasharray="none" stroke-linecap="round" stroke-linejoin="round" stroke-opacity="1" stroke-width="0.5" d="m-231-169 30-8 20 18 5 2v9l66 40-19-37v-17l-6-18-18-12-30-12-3 2v-5l-10 2-9-2-3 2-6 11-9-2h-10l-5 4 7 18zm134 3h-30l-1 21 3 3h20l7-4 1-3z"/>
  <path id="花王堂区" fill="#ff6347" fill-opacity="1" fill-rule="evenodd" stroke="#ffffff" stroke-dasharray="none" stroke-linecap="round" stroke-linejoin="round" stroke-opacity="1" stroke-width="0.5" d="m-234-146 9 2 9 6 4-3h4v-6l20-18-13-12h-2l-28 8v8z"/>
  <path id="望德堂区" fill="#ff6347" fill-opacity="1" fill-rule="evenodd" stroke="#ffffff" stroke-dasharray="none" stroke-linecap="round" stroke-linejoin="round" stroke-opacity="1" stroke-width="0.5" d="m-176-148 1-6-2-4-4-1-7-6-20 18v6l13 1 10 3 7-10z"/>
  <path id="大堂区" fill="#ff6347" fill-opacity="1" fill-rule="evenodd" stroke="#ffffff" stroke-dasharray="none" stroke-linecap="round" stroke-linejoin="round" stroke-opacity="1" stroke-width="0.5" d="m-230-42 133-39-13-27-66-40-7 6-2 5-9-3h-10l-5-2h-3l-3 4-10-6-7-1 16 15-7 9-2 12-6 2-7 13-8-2-1 3-5-4 3 16 8 11v4z"/>
  <path id="风顺堂区" fill="#ff6347" fill-opacity="1" fill-rule="evenodd" stroke="#ffffff" stroke-dasharray="none" stroke-linecap="round" stroke-linejoin="round" stroke-opacity="1" stroke-width="0.5" d="m-252-97 5 4 1-3 8 2 2-2v-5l6-6 5-2 2-11 7-10-18-16-2 10-13 19 3 2-6 10z"/>
  <path id="嘉模堂区" fill="#ff6347" fill-opacity="1" fill-rule="evenodd" stroke="#ffffff" stroke-dasharray="none" stroke-linecap="round" stroke-linejoin="round" stroke-opacity="1" stroke-width="0.5" d="m-206-3 21 1 10 4 2-2h5l4-2 1-5 5-3 8 6v6h2l7-4-1-2 2-3 7-3 2 3 79 39-26-76-19-37-133 39 11 24z"/>
  <path id="路凼填海区" fill="#ff6347" fill-opacity="1" fill-rule="evenodd" stroke="#ffffff" stroke-dasharray="none" stroke-linecap="round" stroke-linejoin="round" stroke-opacity="1" stroke-width="0.5" d="m-192 73 29-7 2-4 8 1 3-13h14l12-8 12-1 5-4 17-24-39-19-4-4-7 3-2 2 1 3-6 4h-2l-1-6-4-2-3-4-6 3-2 6-7 1-3 2-9-4-22-1 16 21z"/>
  <path id="圣方济各堂区" fill="#ff6347" fill-opacity="1" fill-rule="evenodd" stroke="#ffffff" stroke-dasharray="none" stroke-linecap="round" stroke-linejoin="round" stroke-opacity="1" stroke-width="0.5" d="m-192 73-2 39 3 17 20 3 44-6 8-2 54-51 18-23-5-18-38-19-17 24-5 4-12 1-12 8h-13l-2 1-2 12-8-1-2 4z"/>
</svg>
