<?xml version="1.0" encoding="UTF-8" standalone="no"?>
<svg
   width="2109"
   height="1666"
   viewBox="-251 -228 2109 1666"
   version="1.1"
   id="svg1"
   xmlns="http://www.w3.org/2000/svg"
   xmlns:svg="http://www.w3.org/2000/svg">
  <defs
     id="defs1" />
  <path
     stroke="#ffff00"
     stroke-opacity="1"
     stroke-width="0.5"
     stroke-linecap="round"
     stroke-linejoin="round"
     stroke-dasharray="none"
     fill="#1e90ff"
     fill-opacity="1"
     fill-rule="evenodd"
     d="m 1195,750.99998 -11,1 -5,-5 -5,-1 -11,2 -1,6 2,1 3,-2 v 5 l 3,3 1,-2 h 4 l 4,-5 2,3 3,-1 3,7 2,-1 3,4 -3,4 -6,-3 -3,6 -7,1 -2,-8 -4,-3 v -3 h -13 l 4,-6 -3,-1 -3,3 h -3 l -1,2 -3,-1 v -2 h -13 l -1,-2 -12,2 -3,3 -4,-1 -5,5 3,6 -4,1 -1,3 h -7 l 4,5 -3,2 3,4 -1,2 -4,-2 -3,2 -3,7 3,4 -1,3 h -6 l -5,-2 -3,-4 3,-6 6,-2 -5,-3 -8,7 -3,-1 v 10 l 10,10 h 5 l -2,3 7,4 h -4 v 2 l 2,5 5,5 v 3 l -3,2 8,10 -2,2 4,6 v 3 l 7,1 3,5 13,6 v 4 l 6,4 h 4 l 1,-2 2,4 4,1 1,2 12,3 1,2 6,-1 7,5 h 6 v 7 l 4,1 4,-6 1,2 2,-2 10,3 v 4 l 3,-1 5,9 -2,3 2,2 -2,8 h 3 l 2,3 6,-2 1,3 7,3 1,-1 1,8 2,-1 v 2 h 5 v 4 l 2,2 -1,4 2,-3 8,6 7,3 8,8 h 2 l 6,8 5,3 1,-3 3,-2 4,6 -1,2 4,3 7,1 4,-4 -1,-7 4,-2 -2,-2 1,-10 4,-1 1,-5 h 2 l 2,-4 3,-11 4,-2 -3,-6 2,-10 5,-3 v -4 h 2 l 5,-10 3,-1 1,-3 -1,-3 2,-6 h -6 l -2,-6 4,-5 -4,-9 -2,-10 2,-3 -1,-9 -2,-2 -7,5 -1,4 -2,-1 -8,3 -4,-1 -3,4 -8,-1 -2,4 -4,-1 -3,3 v 3 l -3,2 -1,6 -3,-1 2,-6 -2,-5 2,-1 -10,-13 -1,-7 2,-1 -5,-5 3,-12 -8,-2 -3,-4 1,-3 -3,-1 -5,-6 2,-3 -2,-4 4,-1 1,-4 -2,-1 v -2 l -3,-1 v -5 h -5 l -4,-2 -1,3 -1,-4 -3,-1 -2,-4 -2,1 v 3 l 5,4 v 2 l -9,-2 -2,3 -5,-1 -1,-4 -5,-1 -3,-4 2,-4 -4,-2 -5,-11 z m -95,97 1,3 z"
     id="兰州市" />
  <path
     stroke="#ffff00"
     stroke-opacity="1"
     stroke-width="0.5"
     stroke-linecap="round"
     stroke-linejoin="round"
     stroke-dasharray="none"
     fill="#1e90ff"
     fill-opacity="1"
     fill-rule="evenodd"
     d="m 461,300.99998 10,3 4,5 8,-6 16,1 1,-3 7,-3 3,2 v 2 l 10,7 2,-1 4,3 6,-10 -1,-3 -6,-4 -1,-4 18,-11 -1,-4 4,-4 v -3 l -2,-1 -3,-9 -4,2 -7,-2 -3,2 h -5 l -22,-3 -12,-4 v 7 l -5,2 -3,4 4,1 -7,5 7,10 -5,3 -3,5 z"
     id="嘉峪关市" />
  <path
     stroke="#ffff00"
     stroke-opacity="1"
     stroke-width="0.5"
     stroke-linecap="round"
     stroke-linejoin="round"
     stroke-dasharray="none"
     fill="#1e90ff"
     fill-opacity="1"
     fill-rule="evenodd"
     d="m 1003,436.99998 -17,14 -9,13 -12,12 -5,-3 -12,-2 -11,13 1,6 -7,4 4,8 -2,2 h -4 l 1,4 h 3 l -2,5 -9,7 h -9 l -2,4 -3,-1 1,9 h 6 l 3,7 7,4 3,4 -12,15 1,5 -3,5 5,2 2,3 10,-3 h 13 l 5,-5 5,4 2,-4 4,-1 3,3 6,2 3,-1 3,-4 4,-1 7,4 6,-3 2,1 5,10 7,-1 5,-1 3,-3 2,2 1,-2 3,1 3,-9 -1,-1 16,-5 5,1 3,2 v 2 l 3,1 13,-12 19,4 -1,-5 6,-1 1,-7 -5,-8 2,-20 -17,-1 6,-9 -11,-5 -5,-7 -2,-7 -3,-2 -1,-6 -6,-5 1,-18 4,-6 -2,-11 -2,-1 4,-6 -20,-5 -2,6 -16,-5 -6,-3 -1,-3 -17,-3 z"
     id="金昌市" />
  <path
     stroke="#ffff00"
     stroke-opacity="1"
     stroke-width="0.5"
     stroke-linecap="round"
     stroke-linejoin="round"
     stroke-dasharray="none"
     fill="#1e90ff"
     fill-opacity="1"
     fill-rule="evenodd"
     d="m 1442,949.99998 -2,-4 -2,1 v -4 l -3,-3 v -4 l -3,-1 -3,4 -1,-1 1,-3 -2,-4 4,-2 -8,-5 -2,-8 3,-15 h 3 l -1,-2 9,-9 h 8 l 3,-7 -7,-12 v -7 l 2,-5 -3,-4 -4,-1 -3,-7 3,-1 -3,-1 v -7 l -2,-2 -2,1 -1,-10 -5,-6 -2,2 -6,-2 -1,-3 3,-1 -2,-7 -2,-4 h -3 l 1,-6 -3,-2 -1,-4 2,-4 3,-2 h 5 v -2 l 6,2 2,-4 -1,-6 -4,-3 v -4 l -3,-1 v -3 l -4,-4 -2,2 -3,-2 -3,1 -2,-17 h -5 l -9,-4 -2,2 -4,-1 -1,-3 -6,-1 v -6 l -5,-3 v -3 l -4,-7 -3,-2 -1,-7 -6,-4 -2,1 -2,-3 -8,7 h -12 l -3,-6 3,-8 h 3 l 9,-6 v -3 l -6,-1 -1,-4 2,-5 -9,-3 -8,1 -3,-2 -3,2 h -6 l -2,-4 -4,1 -5,4 h -9 l -1,-2 -14,4 -32,-28 -8,-5 -2,-4 -8,7 -4,8 2,11 -1,8 h -3 l -2,4 5,7 -1,2 2,2 -1,5 -3,-1 2,5 -2,-1 -3,3 3,3 -3,2 -4,-1 -4,14 -2,3 -3,1 2,2 v 5 l -2,3 -4,-1 -1,4 -3,3 3,4 v 3 l -4,5 5,11 4,2 -2,4 3,4 5,1 1,4 5,1 2,-3 9,2 v -2 l -5,-4 v -3 l 2,-1 2,4 3,1 1,4 1,-3 4,2 h 5 v 5 l 3,1 v 2 l 2,1 -1,4 -4,1 2,4 -2,3 5,6 3,1 -1,3 3,4 8,2 -3,12 5,5 -2,1 1,7 10,13 -2,1 2,5 -2,6 3,1 1,-6 3,-2 v -3 l 3,-3 4,1 2,-4 8,1 3,-4 4,1 8,-3 2,1 1,-4 7,-5 2,2 1,9 -2,3 3,15 3,4 -4,5 2,6 h 6 l -2,12 -3,1 -5,10 4,1 7,-2 4,-3 2,2 h 6 v 2 l -4,2 v 2 l 4,2 4,5 h 3 l 1,3 4,3 v 4 l 5,2 v 2 l 6,1 1,9 3,1 1,4 11,8 1,13 -3,5 -1,9 -3,1 v 5 l 2,3 6,3 1,3 h 9 l 1,6 5,-1 v -3 l 2,-1 5,1 8,-7 5,2 4,-4 2,2 h 3 l 1,-2 h 8 v -5 l 8,-4 v -7 l 6,-1 -9,-13 v -4 z"
     id="白银市" />
  <path
     stroke="#ffff00"
     stroke-opacity="1"
     stroke-width="0.5"
     stroke-linecap="round"
     stroke-linejoin="round"
     stroke-dasharray="none"
     fill="#1e90ff"
     fill-opacity="1"
     fill-rule="evenodd"
     d="m 1571,1061 -3,-3 -7,1 -3,-4 2,-4 -4,-3 -1,-4 -4,3 -2,-1 -5,-8 -8,3 -3,-2 -4,6 -2,-3 -7,5 -3,-2 -6,5 h -2 v -3 l -2,-1 -4,3 h -3 l -1,6 -5,1 -5,-1 -1,-2 h -5 l -4,8 h -2 l -2,-4 -2,3 -2,-2 v -5 l -10,-7 1,-3 -9,-7 h -2 l -2,7 3,1 -5,11 -9,-11 -4,3 -1,5 -2,-2 -1,4 -2,-1 -3,4 -4,2 -3,-2 -1,6 -2,-4 -2,1 v 8 l -5,7 -4,-1 v -2 l -3,-3 -5,1 -9,-3 2,5 -5,4 -8,-2 v -2 l -5,3 -2,-3 -2,4 1,4 -2,6 -2,1 -11,-2 -5,1 -2,2 -1,-2 h -14 l -3,4 v 5 l -2,3 v 3 l 3,3 -2,4 h -2 l 3,2 v 9 h 6 l 7,-3 -2,7 1,1 -3,7 3,5 6,-2 2,5 -1,8 5,-2 1,1 v 8 l 6,-3 6,4 4,-3 9,3 h 7 l 5,-6 h 4 l 2,-7 4,-3 6,1 5,-2 2,12 4,2 v 2 h 3 v -2 l 9,5 3,-2 7,5 8,13 3,-2 v 4 l -3,1 4,5 -2,1 2,8 -1,7 2,2 v 8 l 4,1 v -4 l 4,2 -1,2 h 3 l 1,-6 3,-4 6,-2 3,-3 4,2 1,7 5,-4 5,-1 1,4 5,1 5,-4 13,-2 9,7 h 3 l 1,-2 6,3 5,-2 2,-2 v -3 l 3,-1 v -7 l 2,-3 5,-1 3,8 -3,6 2,5 3,1 12,-5 2,-3 v -4 l 3,-4 v -8 l 4,-6 7,2 1,4 2,1 4,-2 4,3 5,-7 -2,-7 3,-2 1,-4 -11,-3 -3,-10 h -3 l 1,-2 -4,-1 -7,-6 -7,-3 -6,1 -1,2 -9,-1 2,-3 -1,-5 -3,-1 1,-2 6,-3 7,-7 3,3 2,-1 1,-2 -4,-5 2,-3 4,-2 2,-5 h 5 l 4,-3 1,-3 -4,-7 1,-5 -5,-3 -1,-7 -4,-8 3,-3 z"
     id="天水市" />
  <path
     stroke="#ffff00"
     stroke-opacity="1"
     stroke-width="0.5"
     stroke-linecap="round"
     stroke-linejoin="round"
     stroke-dasharray="none"
     fill="#1e90ff"
     fill-opacity="1"
     fill-rule="evenodd"
     d="m 1195,750.99998 2,-2 v -3 l -3,-4 3,-3 1,-4 4,1 2,-3 v -5 l -2,-2 3,-1 2,-3 4,-14 4,1 3,-2 -3,-3 3,-3 2,1 -2,-5 3,1 1,-5 -2,-2 1,-2 -5,-7 2,-4 h 3 l 1,-8 -2,-11 4,-8 8,-7 -22,-24 -36,-13 -5,-30 1,-7 21,-12 -3,-20 -6,-12 -6,-8 57,-40 19,-35 5,-6 15,-8 4,-8 -1,-8 3,-7 -4,-12 -17,-24 6,-20 -17,-6 h -18 l -29,11 -31,9 -22,20 -13,9 -9,10 -9,-1 -46,-12 -17,-13 -13,4 -9,7 -27,7 -9,4 -14,2 -8,3 27,31 4,2 -15,-17 17,3 1,3 6,3 16,5 2,-6 20,5 -4,6 2,1 2,11 -4,6 -1,18 6,5 1,6 3,2 2,7 5,7 11,5 -6,9 17,1 -2,20 5,8 -1,7 -6,1 1,5 -19,-4 -13,12 -3,-1 v -2 l -3,-2 -5,-1 -16,5 1,1 -3,9 -3,-1 -1,2 -2,-2 -3,3 -5,1 2,4 7,1 v 2 l -18,9 11,3 2,3 -1,2 4,6 h 6 v 2 l -5,3 -1,6 -4,2 -5,10 v 3 l -4,2 v 7 l -2,2 4,4 v 2 l 3,2 1,-1 4,6 -3,9 9,5 3,6 6,2 3,3 h 4 v 4 l 9,6 8,3 -2,2 5,4 4,8 6,1 6,7 h 3 l 4,9 1,3 -7,-1 -7,3 h -4 l -2,2 2,3 v 5 l -4,8 -3,1 3,3 4,-1 v 2 l 3,1 v 2 l 5,1 1,5 8,6 3,5 10,10 -6,2 -3,6 3,4 5,2 h 6 l 1,-3 -3,-4 3,-7 3,-2 4,2 1,-2 -3,-4 3,-2 -4,-5 h 7 l 1,-3 4,-1 -3,-6 5,-5 4,1 3,-3 12,-2 1,2 h 13 v 2 l 3,1 1,-2 h 3 l 3,-3 3,1 -4,6 h 13 v 3 l 4,3 2,8 7,-1 3,-6 6,3 3,-4 -3,-4 -2,1 -3,-7 -3,1 -2,-3 -4,5 h -4 l -1,2 -3,-3 v -5 l -3,2 -2,-1 1,-6 11,-2 5,1 5,5 6,-1 z"
     id="武威市" />
  <path
     stroke="#ffff00"
     stroke-opacity="1"
     stroke-width="0.5"
     stroke-linecap="round"
     stroke-linejoin="round"
     stroke-dasharray="none"
     fill="#1e90ff"
     fill-opacity="1"
     fill-rule="evenodd"
     d="m 998,644.99998 2,-2 v -7 l 4,-2 v -3 l 5,-10 4,-2 1,-6 5,-3 v -2 h -6 l -4,-6 1,-2 -2,-3 -11,-3 18,-9 v -2 h -5 l -4,-4 h -7 l -5,-10 -2,-1 -6,3 -7,-4 -4,1 -3,4 -3,1 -6,-2 -3,-3 -4,1 -2,4 -5,-4 -5,5 h -13 l -10,3 -2,-3 -5,-2 3,-5 -1,-5 12,-15 -3,-4 -7,-4 -3,-7 h -6 l -1,-9 3,1 2,-4 h 9 l 9,-7 2,-5 h -3 l -1,-4 h 4 l 2,-2 -4,-8 7,-4 -1,-6 7,-8 -2,1 -5,-10 -32,-12 -1,-3 5,-3 -1,-4 -10,-1 -2,-2 -1,-7 -5,-6 4,-13 -14,8 -19,4 -1,-9 -8,-4 -3,4 -6,-4 v -8 l 4,-5 -3,-16 v -34 h -17 l -11,3 -16,-2 v -13 l -22,-5 -3,-11 1,-5 -8,-13 -16,-3 -11,-10 -17,-4 -11,-13 -19,-4 -24,2 -4,-1 -13,2 -4,3 -10,2 -2,-2 -5,7 -7,1 -3,-6 h -4 l -2,-2 -5,-1 -5,4 -4,7 -1,21 h -9 l -7,-2 -3,8 2,6 15,2 5,-7 h 10 l 2,2 -1,4 6,12 10,7 7,2 2,6 7,11 v 4 l -4,8 h -9 l -1,2 2,8 -5,9 v -2 l -4,-4 -3,-9 -5,-1 -3,2 -2,-5 -8,-4 -1,-3 -9,-1 v 3 l -3,-2 -2,1 -26,-19 -7,-1 -5,-3 1,-4 -7,3 -1,-2 4,-5 -15,-12 -3,5 -1,6 v -3 l -5,-2 -4,-4 5,-14 -4,-3 -2,1 -10,-7 v -2 l -3,-2 -7,3 -1,3 -16,-1 -8,6 -4,-5 -11,-3 -4,4 -5,1 -11,-2 -3,3 -3,7 -5,1 -4,4 -2,7 -6,4 -5,11 -1,17 -6,4 -4,5 v 13 l 4,11 1,8 3,1 6,7 5,1 17,10 3,8 h 5 l 1,2 10,3 11,8 13,4 2,4 5,2 4,6 9,-9 11,-8 v -4 l -2,-1 7,-12 v -8 l 12,2 2,4 4,1 v 4 l 3,3 h 9 l 8,4 1,-3 h 3 v -5 l 6,-3 4,-4 1,-4 4,-2 1,-5 h 9 l 1,4 9,4 2,4 6,4 14,3 1,2 5,2 -6,6 1,3 20,17 9,4 9,8 1,5 5,4 5,10 6,-2 4,11 3,2 1,3 11,7 2,4 13,7 9,7 10,4 h 4 l 3,4 h 5 l 6,6 3,-1 6,5 1,4 5,3 3,-1 -4,-15 1,-3 -6,-3 -3,-10 -9,-4 v -3 l -3,-2 3,-7 5,-2 4,4 7,3 2,3 h 5 l 5,3 2,12 6,-4 4,9 -2,1 5,4 2,-1 3,3 4,-2 1,6 3,1 2,-4 6,3 3,4 h 7 l 3,-3 12,2 5,2 9,13 3,2 h 2 l 6,-5 4,3 -2,2 -1,5 1,5 -5,6 1,6 3,2 6,-2 15,12 3,-1 1,4 3,1 2,6 3,3 14,4 10,7 3,-5 8,-7 5,2 2,-1 13,5 5,9 4,3 -1,4 17,6 3,6 5,-1 2,-4 10,-7 6,1 7,11 z"
     id="张掖市" />
  <path
     stroke="#ffff00"
     stroke-opacity="1"
     stroke-width="0.5"
     stroke-linecap="round"
     stroke-linejoin="round"
     stroke-dasharray="none"
     fill="#1e90ff"
     fill-opacity="1"
     fill-rule="evenodd"
     d="m 1519,997.99998 -2,-2 1,-5 -3,2 -4,-2 -2,4 -14,4 v -6 l 4,1 16,-7 h -4 l -1,-5 -14,-4 -5,1 v 4 l -2,4 h -2 v -8 l -2,-5 -3,1 -2,-3 1,-1 -3,-2 -1,-5 -2,2 v -2 l -3,-2 1,-4 -3,-2 -2,1 5,-7 v 4 h 2 l 2,-4 -10,-2 -1,-2 -10,6 -3,-1 1,3 -2,2 v -6 h -10 l -4,2 v 4 l 9,13 -6,1 v 7 l -8,4 v 5 h -8 l -1,2 5,4 1,6 5,4.00002 v 3 l 3,5 3,-1 v -6 h 2 l 2,5 4,3 -1,4 4,3 -2,2 v 4 l 3,8 5,-3 1,1 v 6 l 3,1 1,5 -2,4 10,7 v 5 l 2,2 2,-3 2,4 h 2 l 4,-8 h 5 l 1,2 5,1 5,-1 1,-6 h 3 l 4,-3 2,1 v 3 h 2 l 6,-5 3,2 7,-5 2,3 4,-6 3,2 8,-3 5,8 2,1 4,-3 1,4 4,3 -2,4 3,4 7,-1 3,3 2,-2 2,1 4,-7 -1,-2 4,-1 6,3 11,-1 1,-4 16,4 3,-2 h 5 l 2,2 h 4 l 1,2 h 5 l 3,6 5,-2 -1,2 5,1 2,4 -1,3 3,4 6,1 3,8 5,3 1,-3 2,2 5,-8 5,-1 6,3 3,-2 16,4 2,-1 v -3 l 5,-6 4,2 2,-1 2,2 -1,5 6,-5 h 8 l 5,-2 4,1 v -2 l 4,-1 3,-3 -2,-1 v -3 l -6,-2 -10,-13 -1,-8 -4,-8 -2,1 -2,-4 1,-3 4,1 6,-3 v -4 l -2,-1 3,-2 v -4 l -5,-5 -2,-6.00002 1,-2 -3,-2 -5,1 -2,-5 h -3 v -4 l -2,1 1,2 -3,1 -3,-6 h -2 l -4,6 h -2 v -4 h -4 l -3,-3 -6,4 -4,-2 -2,1 -6,-5 -4,-1 v 4 l -9,-3 -2,7 -6,-3 -4,4 -4,-2 -1,2 v -4 l -8,-6 -11,-13 -11,-8 -9,-5 -2,1 -8,-6 -1,3 -4,-1 -2,-5 -1,2 -1,-2 -1,3 -8,-3 -4,1 -5,3 -4,5 1,4 3,3 -1,2 3,9 -2,-1 -2,4 1,3 -2,2 3,3 v 4 h 3 l 2,10 -1,6.00002 2,3 -2,1 -3,7 -5,2 -2,3 -6,1 1,3 -2,2 -6,-4 1,-2 -5,-4 -1,-4 h -2 l -3,-5 v -8.00002 h -6 l -2,-5 -9,12.00002 -2,-6 z m -5,-12 1,7 3,-2 -1,-4 4,-1 -3,-2 z m 4,8 -1,2 2,2 z m 55,-46 -1,1 z"
     id="平凉市" />
  <path
     stroke="#ffff00"
     stroke-opacity="1"
     stroke-width="0.5"
     stroke-linecap="round"
     stroke-linejoin="round"
     stroke-dasharray="none"
     fill="#1e90ff"
     fill-opacity="1"
     fill-rule="evenodd"
     d="m 666,272.99998 -2,-1 2,-2 4,2 5,-1 12,-6 17,-13 11,-1 6,-3 6,-6 3,-15 6,-7 22,-14 v -45 l 9,-13 v -16 l -17,-27 -7,-6 -49,-4 -14,15 -50,-2 v 18 l -7,6 -3,6 -7,-2 -8,-16 -25,14 v 4 l 2,3 v 9 l -11,-9 -4,-6 -2,-13 -13,5 7,11 -36,19 -2,-60 -10,-3 -9,-9 -5,-2 -22,-16 -46,-63 v -2 l 6,-7 24,-24 -87,-198 -24,7 h -31 l -33,3 -13,2 -29,18 -8,3 -4,6 -6,5 -1,11 -5,8 12,4 -4,10 v 5 l 18,19 -13,12 8,16 v 6 l -3,6 -10,10 -15,9 -5,1 -4,4 -23,3 -13,6 -27,22 -3,4 -5,13 -6,-7 -5,-12 -3,-3 1,-4 -8,-9 -16,8 -6,1 -13,9 -7,8 -8,14 -28,6 -45,41 -22,26 -13,22 -13,18 2,15 -8,21 -33,3 -74,13 -1,31 -2,13 -14,27 -7,48 -13,59 -15,24 -19,19 -5,3 v 9 l 3,15 -2,2 3,4 h 2 l 3,3 6,-1 v -3 l 5,-6 h 5 l 1,-2 h 16 l 13,-4 h 13 l 3,-4 6,-2 3,1 1,3 h 9 l 10,-5 3,3 -2,6 1,3 4,3 4,7 -2,20 8,1 4,4 8,-2 51,-3 13,9 h 7 v 7 l -15,1 -2,2 3,7 3,3 9,4 10,2 3,-2 40,-6 h 11 l 20,55 1,11 3,2 4,-3 7,-2 11,-2 h 18 l 2,-4 3,-1 15,-1 1,2 2,-1 4,3 6,-2 2,4 7,3 2,7 h 3 l 4,5 7,-3 9,3 7,-2 2,3 6,-3 2,3 9,-8 h 3 l 4,-4 h 3 l 1,-4 4,-2 9,8 h 6 l 5,11 h 5 l 5,5 v 3 l 4,2 2,3 h 3 l 5,5 2,1 2,-3 h 3 l 16,7 v -4 l 4,1 1,3 6,-2 -1,-4 4,-10 9,-6 34,8 -2,-11 -2,-1 -1,-6 4,-8 5,-5 1,-6 -5,-4 2,-3 2,1 2,-2 10,-1 1,-2 -4,-5 5,-3 -2,-6 22,9 12,-6 v -13 l -6,-5 2,-9 -3,-1 -2,-5 1,-15 -4,-1 -3,-3 4,-32 5,-7 -6,-9 7,-2 h 4 l 2,2 10,-1 20,6 h 6 l 3,4 4,-1 5,4 -1,-8 -4,-11 v -13 l 4,-5 6,-4 1,-17 5,-11 6,-4 2,-7 4,-4 5,-1 3,-7 3,-3 11,2 5,-1 27,-23 -7,-10 7,-5 -4,-1 3,-4 5,-2 v -7 l 12,4 22,3 h 5 l 3,-2 7,2 4,-2 3,9 2,1 v 3 l -4,4 1,4 -18,11 1,4 6,4 1,3 -8,14 -3,10 4,4 5,2 v 3 l 1,-6 3,-5 15,12 -4,5 1,2 7,-3 -1,4 5,3 7,1 26,19 2,-1 3,2 v -3 l 9,1 1,3 8,4 2,5 3,-2 5,1 3,9 4,4 v 2 l 5,-9 -2,-8 1,-2 h 9 l 4,-8 v -4 l -7,-11 -2,-6 -7,-2 -10,-7 -6,-12 1,-4 -2,-2 h -10 l -5,7 -15,-2 -2,-6 3,-8 7,2 h 9 l 1,-21 4,-7 5,-4 5,1 2,2 h 4 l 3,6 7,-1 5,-7 2,2 10,-2 4,-3 z m -205,28 h -1 z"
     id="酒泉市" />
  <path
     stroke="#ffff00"
     stroke-opacity="1"
     stroke-width="0.5"
     stroke-linecap="round"
     stroke-linejoin="round"
     stroke-dasharray="none"
     fill="#1e90ff"
     fill-opacity="1"
     fill-rule="evenodd"
     d="m 1605,954.99998 20,13 3,5 16,14 v 4 l 1,-2 4,2 4,-4 6,3 2,-7 9,3 v -4 l 4,1 6,5 2,-1 4,2 6,-4 3,3 h 4 v 4 h 2 l 4,-6 h 2 l 3,6 3,-1 -1,-2 2,-1 v 4 h 3 l 2,5 5,-1 3,2 -1,2 2,6.00002 2,3 h 2 l 1,6 11,7 2,-1 3,3 4,-1 5,2 v -2 h 3 l -2,3 3,1 10,-2 6,-5 h 4 l 9,-4 5,3 -1,2 2,3 3,-2 h 4 l 6,-5 1,3 7,1 h 11 l 7,-4 3,2 4,-3 2,-4 -1,-4 3,-9.00002 -3,-14 2,-5 -1,-3 -7,-7 -3,-1 -2,-9 1,-3 -2,-5 2,-5 v -13 l -4,-9 12,-11 h 8 l 1,-7 3,-4 3,-19 -8,-18 1,-3 -2,-6 v -8 l 2,-4 -5,-8 -3,1 -11,-7 1,4 -2,4 h -5 l -7,-4 -2,-9 -6,-9 -7,1 -2,-2 -1,3 -3,-4 h -3 l -2,-4 2,-5 h -3 l -4,10 -3,1 v -3 l -6,-1 v -3 l -2,-2 -2,4 -4,-2 -4,-5 3,-2 v -4 l -3,-2 -2,2 v 3 l -1,-2 -5,1 v -6 l -3,-4 -1,-5 -3,1 -2,-3 -6,-3 -7,-1 -3,-3 -5,1 -4,-5 -5,2 -6,-2 -6,1 -2,-4 1,-2 -7,-7 -15,1 -4,-4 -3,2 -2,-2 1,-4 -4,-24 -3,-1 -2,2 -7,-8 -11,5 -2,-3 -2,1 -4,-2 v 4 l -6,1 -10,-7 -2,2 3,1 v 4 l -3,1 -14,-9 -3,9 -4,-1 v -2 h -4 l -1,-2 -2,3 -2,-2 -2,1 -3,-3 -2,2 8,18 h -3 v 8 l -3,1 -3,-2 v 5 l -2,1 v -2 l -5,-6 2,5 -1,2 7,3 1,7 2,-2 2,3 -2,2 2,1 v 3 l 2,2 -4,11 1,5 -3,-1 -2,-3 h -3 v 2 l -2,-1 -5,4 2,4 -5,1 v 9 l -6,1 v 3 l 3,4 h -3 v 3 l -7,-2 v 3 l -4,-4 1,5 h 4 l 7,8 h 3 l 1,3 1,-2 3,2 v 4 l -2,2 v 4 l -1,-1 -1,4 2,-1 3,2 v 3 l -2,-1 -2,10 2,2 v 3 l -4,-5 -1,2 4,6 2,-1 3,3 2,-1 v -5 l 4,1 1,2 1,-4 1,4 6,2 4,-2 1,5 5,1 4,3 4,-1 1,2 4,-3 1,4 1,-1 3,5 3,1 2,3 -1,3 2,1 1,-2 -1,4 2,-2 1,5 2,1 v 2 l -3,2 1,5 -2,1 v 3 l 3,1 -1,3 -4,4 -3,-1 1,3 3,1 2,-2 1,2 -3,2 -1,-1 -1,3 h -3 l -4,4 3,2 v 4 l 3,4 2,-1 2,3 -1,2 -3,-1 2,3 -1,3 -1,2 -4,-2 v 5 l -5,-1 -3,6 -3,-3 h -4 l -1,4 z"
     id="庆阳市" />
  <path
     stroke="#ffff00"
     stroke-opacity="1"
     stroke-width="0.5"
     stroke-linecap="round"
     stroke-linejoin="round"
     stroke-dasharray="none"
     fill="#1e90ff"
     fill-opacity="1"
     fill-rule="evenodd"
     d="m 1462,1043 v -6 l -3,-1 v -6 l -1,-1 -5,3 -3,-8 v -4 l 2,-2 -4,-3 1,-4 -4,-3 -2,-5 h -2 v 6 l -3,1 -3,-5 v -3 l -5,-4.00002 -1,-6 -5,-4 h -3 l -2,-2 -4,4 -5,-2 -8,7 -5,-1 -2,1 v 3 l -5,1 -1,-6 h -9 l -1,-3 -6,-3 -2,-3 v -5 l 3,-1 1,-9 3,-5 -1,-13 -11,-8 -1,-4 -3,-1 -1,-9 -6,-1 v -2 l -5,-2 v -4 l -4,-3 -1,-3 h -3 l -4,-5 -4,-2 v -2 l 4,-2 v -2 l -2,-1 -4,1 -2,-2 -4,3 -7,2 -6,-1 v 4 l -5,3 -2,10 3,6 -4,2 -3,11 -2,4 h -2 l -1,5 -4,1 -1,10 2,2 -4,2 1,7 -4,4 -7,-1 -4,-3 1,-2 -4,-6 -3,2 -1,3 -21,-19 h -2 l -13,-9 -2,3 1,-4 -2,-2 v -4 h -5 v -2 l -2,1 -1,-8 -1,1 -7,-3 -1,-3 -6,2 -2,-3 h -3 l -3,4 h -5 l -2,-6 -4,1 -5,4 v 5 l 6,5 4,8 2,-1 4,8 3,1 3,5 18,19 1,6 5,6 v 3 l 3,1 v 3 l -7,7 2,2 V 1002 l -4,2 -12,26 v 4 l 4,1 -1,9 4,2 v 12 l 5,4 v 2 l 7,4 3,-1 6,2 5,6 1,-3 8,2 1,4 -2,1 2,2 v 4 l -8,5 5,5 v 3 l 3,2 -3,6 -5,1 -10,-3 -7,5 4,5 -1,7 -2,1 -1,14 -7,1 -1,2 5,6 1,10 -8,8 -2,6 -6,5 2,3 5,-1 6,3 4,-2 7,2 8,12 12,10 4,-4 v -4 l 5,-2 h 7 l 1,-9 -4,-3 -2,-9 11,-8 9,5 2,-5 h 5 l 3,1 2,5 7,1 4,16 8,3 2,3 1,-4 4,2 7,-5 6,2 3,-4 4,-1 2,3 5,-1 1,-2 h 4 l 1,-3 3,-1 2,-3 -2,-10 1,-2 14,-1 4,-2 -2,-1 1,-3 -9,-3 -4,3 -6,-4 -6,3 v -8 l -1,-1 -5,2 1,-8 -2,-5 -6,2 -3,-5 3,-7 -1,-1 2,-7 -7,3 h -6 v -9 l -3,-2 h 2 l 2,-4 -3,-3 2,-11 3,-4 5,-1 5,2 4,-1 1,2 2,-2 5,-1 11,2 2,-1 2,-6 -1,-4 2,-4 2,3 5,-3 v 2 l 8,2 5,-3 -2,-6 9,3 5,-1 3,3 v 2 l 4,1 5,-7 v -8 l 2,-1 2,4 1,-6 3,2 4,-2 3,-4 2,1 1,-4 2,2 1,-5 4,-3 9,11 5,-11 -3,-1 2,-7 7,4 z"
     id="定西市" />
  <path
     stroke="#ffff00"
     stroke-opacity="1"
     stroke-width="0.5"
     stroke-linecap="round"
     stroke-linejoin="round"
     stroke-dasharray="none"
     fill="#1e90ff"
     fill-opacity="1"
     fill-rule="evenodd"
     d="m 1572,1183 v 6 l -3,4 v 4 l -2,3 -7,4 h -8 l -2,-5 3,-6 -3,-8 -5,1 -2,3 v 7 l -3,1 v 3 l -2,2 -5,2 -6,-3 -1,2 h -3 l -9,-7 -13,2 -5,4 -5,-1 -1,-4 -5,1 -5,4 -1,-7 -4,-2 -3,3 -6,2 -3,4 -1,6 h -3 l 1,-2 -4,-2 v 4 l -4,-1 v -8 l -2,-2 1,-7 -2,-8 2,-1 -4,-5 3,-1 v -4 l -3,2 -8,-13 -7,-5 -3,2 -9,-5 v 2 h -3 v -2 l -4,-2 -2,-12 -5,2 -6,-1 -4,3 -2,7 h -4 l -5,6 h -7 l -1,3 2,1 -4,2 -14,1 -1,2 2,10 -2,3 -3,1 -1,3 h -4 l -1,2 -5,1 -2,-3 -4,1 -3,4 -6,-2 -7,5 -4,-2 -1,4 -2,-3 -8,-3 -4,-16 -7,-1 -2,-5 -8,-1 -2,5 -9,-5 -7,4 v 2 l -4,2 2,9 4,3 -1,9 h -7 l -5,2 v 4 l -4,4 -1,7 7,9 15,12 19,14 9,3 7,10 8,1 v 4 l -6,8 3,2 v 5 h 5 l -3,5 3,3 1,-1 2,3 h 2 v 10 l 15,9 2,6 2,1 -2,1 v 9 l 6,6 -13,2 -4,10 -8,1 -4,-1 v -7 l -5,-10 -13,4 2,5 -3,-3 h -5 l -2,-2 -4,2 9,29 -5,11 3,2 h 8 l 1,2 -6,3 v 6 l -4,2 h -8 l -1,8 2,8 8,2 8,9 5,3 7,-1 2,4 3,-1 4,2 1,4 4,2 2,3 8,-2 5,6 3,-2 4,1 4,-3 3,1 4,8 6,-1 6,-4 7,-2 7,2 4,6 9,-3 4,-3 1,-5 10,2 9,-8 7,-4 h 3 l 2,-3 -1,-2 -4,-1 -1,-6 -3,-3 -1,-7 3,-1 2,-7 4,-1 6,4 h 8 l 4,5 h 6 l 2,-3 10,-1 12,-7 5,1 7,-8 1,-7 -2,-4 3,-2 -2,-4 2,-1 -2,-6 -3,1 4,-4 v -4 l 2,1 v 6 l 3,-1 -1,-8 -7,-5 -5,1 -9,-4 -1,-3 h -3 l -2,-3 1,-4 -6,-8 3,-2 9,2 3,-1 2,-16 5,-5 3,-6 2,1 5,-8 8,-1 1,2 2,-2 3,1 2,-2 5,2 -2,5 h 5 l 5,4 7,-3 5,-5 3,-1 4,3 h 3 l 4,-4 6,-1 2,1 1,3 v 8 l 3,3 2,-2 6,3 3,-4 -1,-5 3,-1 -1,-8 -5,-10 -7,-2 1,-8 -3,-5 1,-4 3,-3 -3,-6 -6,1 -2,-6 5,-4 4,-6 -1,-8 4,-5 v -8 h 8 l 3,-6 -2,-3 -2,-10 -3,-4 -3,3 z"
     id="陇南市" />
  <path
     stroke="#ffff00"
     stroke-opacity="1"
     stroke-width="0.5"
     stroke-linecap="round"
     stroke-linejoin="round"
     stroke-dasharray="none"
     fill="#1e90ff"
     fill-opacity="1"
     fill-rule="evenodd"
     d="m 1089,985.99998 1,2 9,4 7,8 h 2 l 2,-3 h 3 l 3,3 V 1024 h 4 l 1,-4 4,-1 5,3 2,-1 3,5 8,3 6,-2 h 7 l 4,9 9,6 12,2 h 4 v -3 l 6,1 12,8 6,6 1,3 3,-1 3,5 -7,3 2,1 5,-3 v 4 l -2,3 -6,4 2,4 10,-3 h 6 l 3,2 2,-6 -1,-4 -7,-4 v -2 l -5,-4 v -12 l -4,-2 1,-9 -4,-1 v -4 l 12,-26 4,-2 v -4.00002 l -2,-2 7,-7 v -3 l -3,-1 v -3 l -5,-6 -1,-6 -18,-19 -3,-5 -3,-1 -4,-8 -2,1 -4,-8 -6,-5 v -5 l 5,-4 4,-1 2,6 h 5 l 3,-4 2,-8 -2,-2 2,-3 -5,-9 -3,1 v -4 l -10,-3 -2,2 -1,-2 -4,6 -4,-1 v -7 h -6 l -7,-5 -6,1 -1,-2 -12,-3 -1,-2 -4,-1 -2,-4 -1,2 h -4 l -3,2 -3,-1 -4,2 -3,6 h -2 l -1,8 -8,2 2,4 2,-1 2,4 h 5 l -2,5 3,3 -3,5 -1,6 v 15 l -7,-3 -5,1 -9,-3 -11,11 -1,4 3,10 4,8 h 3 v 7 l 6,8 -9,3 -2,3 6,-2 1,1 z"
     id="临夏回族自治州" />
  <path
     stroke="#ffff00"
     stroke-opacity="1"
     stroke-width="0.5"
     stroke-linecap="round"
     stroke-linejoin="round"
     stroke-dasharray="none"
     fill="#1e90ff"
     fill-opacity="1"
     fill-rule="evenodd"
     d="m 1255,1201 -12,-10 -8,-12 -7,-2 -4,2 -6,-3 -5,1 -2,-3 6,-5 2,-6 8,-8 -1,-10 -5,-6 1,-2 7,-1 1,-14 2,-1 1,-7 -4,-5 7,-5 10,3 5,-1 3,-6 -3,-2 v -3 l -5,-5 8,-5 v -4 l -2,-2 2,-1 -1,-4 -8,-2 -1,3 -5,-6 -6,-2 -3,1 1,4 -2,6 -3,-2 h -6 l -10,3 -2,-4 6,-4 2,-3 v -4 l -5,3 -2,-1 7,-3 -3,-5 -3,1 -1,-3 -6,-6 -12,-8 -6,-1 v 3 l -16,-2 -9,-6 -4,-9 h -7 l -6,2 -8,-3 -3,-5 -2,1 -5,-3 -4,1 -1,4 h -4 l 1,-16 -1,-8.00002 -3,-3 h -3 l -2,3 h -2 l -7,-8 -9,-4 -7,-7 -16,-3 -5,-5 -4,-1 2,3 -3,-1 1,5 -2,5 -3,1 v 4 h -2 v 7 l -5,4 -12,-4 -3,2 -1,9.00002 3,1 1,7 h -4 v 2 l 11,6 -1,4 5,7 v 3 l -3,2 h -4 l -1,3 -3,2 -5,12 -3,1 -4,-2 -1,4 h -5 l -2,4 -3,-1 -5,5 -5,7 -1,5 2,3 -10,-2 -9,4 2,5 -2,7 v 27 l 2,6 3,1 2,5 3,2 h 12 l 4,2 2,3 h 2 l 3,5 -1,2 3,3 4,9 h 2 l 3,4 -5,3 -5,-2 -5,13 -10,-4 -1,10 -6,2 2,4 -3,5 -5,-1 -1,9 -8,-4 h -3 l -1,-3 -3,4 -7,-1 -7,8 -1,-3 -2,2 -1,-5 -4,1 -4,-4 2,-1 -4,-3 v -2 h -3 l -3,-3 -2,1 -3,-3 -6,2 -1,-3 -14,-5 h -7 l 1,-2 -13,-6 1,-4 -5,-2 -4,3 -1,-2 -13,1 -9,-8 -1,1 -4,-2 -4,2 -3,-1 -3,7 -6,2 -3,9 1,2 -3,8 -3,3 6,4 5,10 3,1 1,7 h 2 l 2,5 3,2 -1,3 5,4 5,9 3,-1 3,3 v 2 l 13,3 v 2 l 5,6 v 7 l -3,4 v 4 l 2,2 -2,3 7,-1 2,-3 3,3 17,4 4,-2 1,-3 8,-4 6,1 3,4 3,-1 v 6 l 3,1 3,21 h 13 l 6,-10 3,2 4,-1 1,-8 5,4 3,6 v 9 l 3,2 v 3 l 3,1 -8,9 -2,5 v 6 h -2 l -4,6 -2,-2 -5,3 2,6 1,-1 5,3 1,8 -2,7 5,2 3,-5 4,-3 2,-5 8,-2 2,2 h 6 l 4,-2 3,-13 4,2 1,3 7,5 v -15 l -3,-2 5,-3 2,-6 3,-1 v -3 h 4 l 2,3 5,-2 3,2 v -2 l 3,1 6,-8 3,1 v -9 l -2,-3 4,-1 -1,-2 -11,-8 -5,-1 -4,-9 3,-9 -2,-2 -3,4 -2,-1 v -3 l 5,-2 v -2 l -3,-4 -8,-1 3,-5 -1,-6 -15,-16 4,-3 4,1 v 2 h 5 l 1,-2 2,1 2,-3 1,2 4,-2 v 3 h 10 l 1,-7 5,-11 4,2 19,-4 4,3 1,-5 -8,-5 4,-3 h 3 l 2,-4 5,-1 4,-6 h 6 l 2,-6 8,1 v -5 l 3,-2 h 4 l 3,2 6,9 -1,7 4,2 h 4 l 2,-2 2,2 h 4 l 3,4 v 7 l 7,5 -1,3 -5,-1 -2,5 h 4 l 1,6 -4,5 1,6 h 4 l 2,4 -3,13 1,2 8,2 3,-3 5,1 -1,5 9,5 11,-2 4,-8 5,-1 2,1 3,6 -1,3 2,1 -4,10 4,1 2,-5 4,-3 6,2 1,-2 2,1 -2,2 h 2 v 2 l 3,-1 11,6 11,-4 h 8 l 6,2 11,-2 6,3 9,8 1,5 -2,1 -1,5 3,10 4,4 1,7 h 4 l 3,2 3,9 9,-2 9,3 8,-2 5,10 v 7 h 12 l 4,-10 13,-2 -6,-6 v -9 l 2,-1 -2,-1 -2,-6 -15,-9 v -10 h -2 l -2,-3 -1,1 -3,-3 3,-5 h -5 v -5 l -3,-2 6,-8 v -4 l -8,-1 -7,-10 -9,-3 -19,-14 -15,-12 -7,-9 z"
     id="甘南藏族自治州" />
</svg>