<svg xmlns="http://www.w3.org/2000/svg" id="svg1" version="1.1" viewBox="-251 -228 2109 1666">
  <path id="兰州市" fill="#ff6347" fill-opacity="1" fill-rule="evenodd" stroke="#ffffff" stroke-dasharray="none" stroke-linecap="round" stroke-linejoin="round" stroke-opacity="1" stroke-width="0.5" d="m1195 751-11 1-5-5-5-1-11 2-1 6 2 1 3-2v5l3 3 1-2h4l4-5 2 3 3-1 3 7 2-1 3 4-3 4-6-3-3 6-7 1-2-8-4-3v-3h-13l4-6-3-1-3 3h-3l-1 2-3-1v-2h-13l-1-2-12 2-3 3-4-1-5 5 3 6-4 1-1 3h-7l4 5-3 2 3 4-1 2-4-2-3 2-3 7 3 4-1 3h-6l-5-2-3-4 3-6 6-2-5-3-8 7-3-1v10l10 10h5l-2 3 7 4h-4v2l2 5 5 5v3l-3 2 8 10-2 2 4 6v3l7 1 3 5 13 6v4l6 4h4l1-2 2 4 4 1 1 2 12 3 1 2 6-1 7 5h6v7l4 1 4-6 1 2 2-2 10 3v4l3-1 5 9-2 3 2 2-2 8h3l2 3 6-2 1 3 7 3 1-1 1 8 2-1v2h5v4l2 2-1 4 2-3 8 6 7 3 8 8h2l6 8 5 3 1-3 3-2 4 6-1 2 4 3 7 1 4-4-1-7 4-2-2-2 1-10 4-1 1-5h2l2-4 3-11 4-2-3-6 2-10 5-3v-4h2l5-10 3-1 1-3-1-3 2-6h-6l-2-6 4-5-4-9-2-10 2-3-1-9-2-2-7 5-1 4-2-1-8 3-4-1-3 4-8-1-2 4-4-1-3 3v3l-3 2-1 6-3-1 2-6-2-5 2-1-10-13-1-7 2-1-5-5 3-12-8-2-3-4 1-3-3-1-5-6 2-3-2-4 4-1 1-4-2-1v-2l-3-1v-5h-5l-4-2-1 3-1-4-3-1-2-4-2 1v3l5 4v2l-9-2-2 3-5-1-1-4-5-1-3-4 2-4-4-2-5-11zm-95 97 1 3z"/>
  <path id="嘉峪关市" fill="#ff6347" fill-opacity="1" fill-rule="evenodd" stroke="#ffffff" stroke-dasharray="none" stroke-linecap="round" stroke-linejoin="round" stroke-opacity="1" stroke-width="0.5" d="m461 301 10 3 4 5 8-6 16 1 1-3 7-3 3 2v2l10 7 2-1 4 3 6-10-1-3-6-4-1-4 18-11-1-4 4-4v-3l-2-1-3-9-4 2-7-2-3 2h-5l-22-3-12-4v7l-5 2-3 4 4 1-7 5 7 10-5 3-3 5z"/>
  <path id="金昌市" fill="#ff6347" fill-opacity="1" fill-rule="evenodd" stroke="#ffffff" stroke-dasharray="none" stroke-linecap="round" stroke-linejoin="round" stroke-opacity="1" stroke-width="0.5" d="m1003 437-17 14-9 13-12 12-5-3-12-2-11 13 1 6-7 4 4 8-2 2h-4l1 4h3l-2 5-9 7h-9l-2 4-3-1 1 9h6l3 7 7 4 3 4-12 15 1 5-3 5 5 2 2 3 10-3h13l5-5 5 4 2-4 4-1 3 3 6 2 3-1 3-4 4-1 7 4 6-3 2 1 5 10 7-1 5-1 3-3 2 2 1-2 3 1 3-9-1-1 16-5 5 1 3 2v2l3 1 13-12 19 4-1-5 6-1 1-7-5-8 2-20-17-1 6-9-11-5-5-7-2-7-3-2-1-6-6-5 1-18 4-6-2-11-2-1 4-6-20-5-2 6-16-5-6-3-1-3-17-3z"/>
  <path id="白银市" fill="#ff6347" fill-opacity="1" fill-rule="evenodd" stroke="#ffffff" stroke-dasharray="none" stroke-linecap="round" stroke-linejoin="round" stroke-opacity="1" stroke-width="0.5" d="m1442 950-2-4-2 1v-4l-3-3v-4l-3-1-3 4-1-1 1-3-2-4 4-2-8-5-2-8 3-15h3l-1-2 9-9h8l3-7-7-12v-7l2-5-3-4-4-1-3-7 3-1-3-1v-7l-2-2-2 1-1-10-5-6-2 2-6-2-1-3 3-1-2-7-2-4h-3l1-6-3-2-1-4 2-4 3-2h5v-2l6 2 2-4-1-6-4-3v-4l-3-1v-3l-4-4-2 2-3-2-3 1-2-17h-5l-9-4-2 2-4-1-1-3-6-1v-6l-5-3v-3l-4-7-3-2-1-7-6-4-2 1-2-3-8 7h-12l-3-6 3-8h3l9-6v-3l-6-1-1-4 2-5-9-3-8 1-3-2-3 2h-6l-2-4-4 1-5 4h-9l-1-2-14 4-32-28-8-5-2-4-8 7-4 8 2 11-1 8h-3l-2 4 5 7-1 2 2 2-1 5-3-1 2 5-2-1-3 3 3 3-3 2-4-1-4 14-2 3-3 1 2 2v5l-2 3-4-1-1 4-3 3 3 4v3l-4 5 5 11 4 2-2 4 3 4 5 1 1 4 5 1 2-3 9 2v-2l-5-4v-3l2-1 2 4 3 1 1 4 1-3 4 2h5v5l3 1v2l2 1-1 4-4 1 2 4-2 3 5 6 3 1-1 3 3 4 8 2-3 12 5 5-2 1 1 7 10 13-2 1 2 5-2 6 3 1 1-6 3-2v-3l3-3 4 1 2-4 8 1 3-4 4 1 8-3 2 1 1-4 7-5 2 2 1 9-2 3 3 15 3 4-4 5 2 6h6l-2 12-3 1-5 10 4 1 7-2 4-3 2 2h6v2l-4 2v2l4 2 4 5h3l1 3 4 3v4l5 2v2l6 1 1 9 3 1 1 4 11 8 1 13-3 5-1 9-3 1v5l2 3 6 3 1 3h9l1 6 5-1v-3l2-1 5 1 8-7 5 2 4-4 2 2h3l1-2h8v-5l8-4v-7l6-1-9-13v-4z"/>
  <path id="天水市" fill="#ff6347" fill-opacity="1" fill-rule="evenodd" stroke="#ffffff" stroke-dasharray="none" stroke-linecap="round" stroke-linejoin="round" stroke-opacity="1" stroke-width="0.5" d="m1571 1061-3-3-7 1-3-4 2-4-4-3-1-4-4 3-2-1-5-8-8 3-3-2-4 6-2-3-7 5-3-2-6 5h-2v-3l-2-1-4 3h-3l-1 6-5 1-5-1-1-2h-5l-4 8h-2l-2-4-2 3-2-2v-5l-10-7 1-3-9-7h-2l-2 7 3 1-5 11-9-11-4 3-1 5-2-2-1 4-2-1-3 4-4 2-3-2-1 6-2-4-2 1v8l-5 7-4-1v-2l-3-3-5 1-9-3 2 5-5 4-8-2v-2l-5 3-2-3-2 4 1 4-2 6-2 1-11-2-5 1-2 2-1-2h-14l-3 4v5l-2 3v3l3 3-2 4h-2l3 2v9h6l7-3-2 7 1 1-3 7 3 5 6-2 2 5-1 8 5-2 1 1v8l6-3 6 4 4-3 9 3h7l5-6h4l2-7 4-3 6 1 5-2 2 12 4 2v2h3v-2l9 5 3-2 7 5 8 13 3-2v4l-3 1 4 5-2 1 2 8-1 7 2 2v8l4 1v-4l4 2-1 2h3l1-6 3-4 6-2 3-3 4 2 1 7 5-4 5-1 1 4 5 1 5-4 13-2 9 7h3l1-2 6 3 5-2 2-2v-3l3-1v-7l2-3 5-1 3 8-3 6 2 5 3 1 12-5 2-3v-4l3-4v-8l4-6 7 2 1 4 2 1 4-2 4 3 5-7-2-7 3-2 1-4-11-3-3-10h-3l1-2-4-1-7-6-7-3-6 1-1 2-9-1 2-3-1-5-3-1 1-2 6-3 7-7 3 3 2-1 1-2-4-5 2-3 4-2 2-5h5l4-3 1-3-4-7 1-5-5-3-1-7-4-8 3-3z"/>
  <path id="武威市" fill="#ff6347" fill-opacity="1" fill-rule="evenodd" stroke="#ffffff" stroke-dasharray="none" stroke-linecap="round" stroke-linejoin="round" stroke-opacity="1" stroke-width="0.5" d="m1195 751 2-2v-3l-3-4 3-3 1-4 4 1 2-3v-5l-2-2 3-1 2-3 4-14 4 1 3-2-3-3 3-3 2 1-2-5 3 1 1-5-2-2 1-2-5-7 2-4h3l1-8-2-11 4-8 8-7-22-24-36-13-5-30 1-7 21-12-3-20-6-12-6-8 57-40 19-35 5-6 15-8 4-8-1-8 3-7-4-12-17-24 6-20-17-6h-18l-29 11-31 9-22 20-13 9-9 10-9-1-46-12-17-13-13 4-9 7-27 7-9 4-14 2-8 3 27 31 4 2-15-17 17 3 1 3 6 3 16 5 2-6 20 5-4 6 2 1 2 11-4 6-1 18 6 5 1 6 3 2 2 7 5 7 11 5-6 9 17 1-2 20 5 8-1 7-6 1 1 5-19-4-13 12-3-1v-2l-3-2-5-1-16 5 1 1-3 9-3-1-1 2-2-2-3 3-5 1 2 4 7 1v2l-18 9 11 3 2 3-1 2 4 6h6v2l-5 3-1 6-4 2-5 10v3l-4 2v7l-2 2 4 4v2l3 2 1-1 4 6-3 9 9 5 3 6 6 2 3 3h4v4l9 6 8 3-2 2 5 4 4 8 6 1 6 7h3l4 9 1 3-7-1-7 3h-4l-2 2 2 3v5l-4 8-3 1 3 3 4-1v2l3 1v2l5 1 1 5 8 6 3 5 10 10-6 2-3 6 3 4 5 2h6l1-3-3-4 3-7 3-2 4 2 1-2-3-4 3-2-4-5h7l1-3 4-1-3-6 5-5 4 1 3-3 12-2 1 2h13v2l3 1 1-2h3l3-3 3 1-4 6h13v3l4 3 2 8 7-1 3-6 6 3 3-4-3-4-2 1-3-7-3 1-2-3-4 5h-4l-1 2-3-3v-5l-3 2-2-1 1-6 11-2 5 1 5 5 6-1z"/>
  <path id="张掖市" fill="#ff6347" fill-opacity="1" fill-rule="evenodd" stroke="#ffffff" stroke-dasharray="none" stroke-linecap="round" stroke-linejoin="round" stroke-opacity="1" stroke-width="0.5" d="m998 645 2-2v-7l4-2v-3l5-10 4-2 1-6 5-3v-2h-6l-4-6 1-2-2-3-11-3 18-9v-2h-5l-4-4h-7l-5-10-2-1-6 3-7-4-4 1-3 4-3 1-6-2-3-3-4 1-2 4-5-4-5 5h-13l-10 3-2-3-5-2 3-5-1-5 12-15-3-4-7-4-3-7h-6l-1-9 3 1 2-4h9l9-7 2-5h-3l-1-4h4l2-2-4-8 7-4-1-6 7-8-2 1-5-10-32-12-1-3 5-3-1-4-10-1-2-2-1-7-5-6 4-13-14 8-19 4-1-9-8-4-3 4-6-4v-8l4-5-3-16v-34h-17l-11 3-16-2v-13l-22-5-3-11 1-5-8-13-16-3-11-10-17-4-11-13-19-4-24 2-4-1-13 2-4 3-10 2-2-2-5 7-7 1-3-6h-4l-2-2-5-1-5 4-4 7-1 21h-9l-7-2-3 8 2 6 15 2 5-7h10l2 2-1 4 6 12 10 7 7 2 2 6 7 11v4l-4 8h-9l-1 2 2 8-5 9v-2l-4-4-3-9-5-1-3 2-2-5-8-4-1-3-9-1v3l-3-2-2 1-26-19-7-1-5-3 1-4-7 3-1-2 4-5-15-12-3 5-1 6v-3l-5-2-4-4 5-14-4-3-2 1-10-7v-2l-3-2-7 3-1 3-16-1-8 6-4-5-11-3-4 4-5 1-11-2-3 3-3 7-5 1-4 4-2 7-6 4-5 11-1 17-6 4-4 5v13l4 11 1 8 3 1 6 7 5 1 17 10 3 8h5l1 2 10 3 11 8 13 4 2 4 5 2 4 6 9-9 11-8v-4l-2-1 7-12v-8l12 2 2 4 4 1v4l3 3h9l8 4 1-3h3v-5l6-3 4-4 1-4 4-2 1-5h9l1 4 9 4 2 4 6 4 14 3 1 2 5 2-6 6 1 3 20 17 9 4 9 8 1 5 5 4 5 10 6-2 4 11 3 2 1 3 11 7 2 4 13 7 9 7 10 4h4l3 4h5l6 6 3-1 6 5 1 4 5 3 3-1-4-15 1-3-6-3-3-10-9-4v-3l-3-2 3-7 5-2 4 4 7 3 2 3h5l5 3 2 12 6-4 4 9-2 1 5 4 2-1 3 3 4-2 1 6 3 1 2-4 6 3 3 4h7l3-3 12 2 5 2 9 13 3 2h2l6-5 4 3-2 2-1 5 1 5-5 6 1 6 3 2 6-2 15 12 3-1 1 4 3 1 2 6 3 3 14 4 10 7 3-5 8-7 5 2 2-1 13 5 5 9 4 3-1 4 17 6 3 6 5-1 2-4 10-7 6 1 7 11z"/>
  <path id="平凉市" fill="#ff6347" fill-opacity="1" fill-rule="evenodd" stroke="#ffffff" stroke-dasharray="none" stroke-linecap="round" stroke-linejoin="round" stroke-opacity="1" stroke-width="0.5" d="m1519 998-2-2 1-5-3 2-4-2-2 4-14 4v-6l4 1 16-7h-4l-1-5-14-4-5 1v4l-2 4h-2v-8l-2-5-3 1-2-3 1-1-3-2-1-5-2 2v-2l-3-2 1-4-3-2-2 1 5-7v4h2l2-4-10-2-1-2-10 6-3-1 1 3-2 2v-6h-10l-4 2v4l9 13-6 1v7l-8 4v5h-8l-1 2 5 4 1 6 5 4v3l3 5 3-1v-6h2l2 5 4 3-1 4 4 3-2 2v4l3 8 5-3 1 1v6l3 1 1 5-2 4 10 7v5l2 2 2-3 2 4h2l4-8h5l1 2 5 1 5-1 1-6h3l4-3 2 1v3h2l6-5 3 2 7-5 2 3 4-6 3 2 8-3 5 8 2 1 4-3 1 4 4 3-2 4 3 4 7-1 3 3 2-2 2 1 4-7-1-2 4-1 6 3 11-1 1-4 16 4 3-2h5l2 2h4l1 2h5l3 6 5-2-1 2 5 1 2 4-1 3 3 4 6 1 3 8 5 3 1-3 2 2 5-8 5-1 6 3 3-2 16 4 2-1v-3l5-6 4 2 2-1 2 2-1 5 6-5h8l5-2 4 1v-2l4-1 3-3-2-1v-3l-6-2-10-13-1-8-4-8-2 1-2-4 1-3 4 1 6-3v-4l-2-1 3-2v-4l-5-5-2-6 1-2-3-2-5 1-2-5h-3v-4l-2 1 1 2-3 1-3-6h-2l-4 6h-2v-4h-4l-3-3-6 4-4-2-2 1-6-5-4-1v4l-9-3-2 7-6-3-4 4-4-2-1 2v-4l-8-6-11-13-11-8-9-5-2 1-8-6-1 3-4-1-2-5-1 2-1-2-1 3-8-3-4 1-5 3-4 5 1 4 3 3-1 2 3 9-2-1-2 4 1 3-2 2 3 3v4h3l2 10-1 6 2 3-2 1-3 7-5 2-2 3-6 1 1 3-2 2-6-4 1-2-5-4-1-4h-2l-3-5v-8h-6l-2-5-9 12-2-6zm-5-12 1 7 3-2-1-4 4-1-3-2zm4 8-1 2 2 2zm55-46-1 1z"/>
  <path id="酒泉市" fill="#ff6347" fill-opacity="1" fill-rule="evenodd" stroke="#ffffff" stroke-dasharray="none" stroke-linecap="round" stroke-linejoin="round" stroke-opacity="1" stroke-width="0.5" d="m666 273-2-1 2-2 4 2 5-1 12-6 17-13 11-1 6-3 6-6 3-15 6-7 22-14v-45l9-13v-16l-17-27-7-6-49-4-14 15-50-2v18l-7 6-3 6-7-2-8-16-25 14v4l2 3v9l-11-9-4-6-2-13-13 5 7 11-36 19-2-60-10-3-9-9-5-2-22-16-46-63V2l6-7 24-24-87-198-24 7h-31l-33 3-13 2-29 18-8 3-4 6-6 5-1 11-5 8 12 4-4 10v5l18 19-13 12 8 16v6l-3 6-10 10-15 9-5 1-4 4-23 3-13 6-27 22-3 4-5 13-6-7-5-12-3-3 1-4-8-9-16 8-6 1-13 9-7 8-8 14-28 6-45 41-22 26-13 22-13 18 2 15-8 21-33 3-74 13-1 31-2 13-14 27-7 48-13 59-15 24-19 19-5 3v9l3 15-2 2 3 4h2l3 3 6-1v-3l5-6h5l1-2h16l13-4h13l3-4 6-2 3 1 1 3h9l10-5 3 3-2 6 1 3 4 3 4 7-2 20 8 1 4 4 8-2 51-3 13 9h7v7l-15 1-2 2 3 7 3 3 9 4 10 2 3-2 40-6h11l20 55 1 11 3 2 4-3 7-2 11-2h18l2-4 3-1 15-1 1 2 2-1 4 3 6-2 2 4 7 3 2 7h3l4 5 7-3 9 3 7-2 2 3 6-3 2 3 9-8h3l4-4h3l1-4 4-2 9 8h6l5 11h5l5 5v3l4 2 2 3h3l5 5 2 1 2-3h3l16 7v-4l4 1 1 3 6-2-1-4 4-10 9-6 34 8-2-11-2-1-1-6 4-8 5-5 1-6-5-4 2-3 2 1 2-2 10-1 1-2-4-5 5-3-2-6 22 9 12-6v-13l-6-5 2-9-3-1-2-5 1-15-4-1-3-3 4-32 5-7-6-9 7-2h4l2 2 10-1 20 6h6l3 4 4-1 5 4-1-8-4-11v-13l4-5 6-4 1-17 5-11 6-4 2-7 4-4 5-1 3-7 3-3 11 2 5-1 27-23-7-10 7-5-4-1 3-4 5-2v-7l12 4 22 3h5l3-2 7 2 4-2 3 9 2 1v3l-4 4 1 4-18 11 1 4 6 4 1 3-8 14-3 10 4 4 5 2v3l1-6 3-5 15 12-4 5 1 2 7-3-1 4 5 3 7 1 26 19 2-1 3 2v-3l9 1 1 3 8 4 2 5 3-2 5 1 3 9 4 4v2l5-9-2-8 1-2h9l4-8v-4l-7-11-2-6-7-2-10-7-6-12 1-4-2-2h-10l-5 7-15-2-2-6 3-8 7 2h9l1-21 4-7 5-4 5 1 2 2h4l3 6 7-1 5-7 2 2 10-2 4-3zm-205 28h-1z"/>
  <path id="庆阳市" fill="#ff6347" fill-opacity="1" fill-rule="evenodd" stroke="#ffffff" stroke-dasharray="none" stroke-linecap="round" stroke-linejoin="round" stroke-opacity="1" stroke-width="0.5" d="m1605 955 20 13 3 5 16 14v4l1-2 4 2 4-4 6 3 2-7 9 3v-4l4 1 6 5 2-1 4 2 6-4 3 3h4v4h2l4-6h2l3 6 3-1-1-2 2-1v4h3l2 5 5-1 3 2-1 2 2 6 2 3h2l1 6 11 7 2-1 3 3 4-1 5 2v-2h3l-2 3 3 1 10-2 6-5h4l9-4 5 3-1 2 2 3 3-2h4l6-5 1 3 7 1h11l7-4 3 2 4-3 2-4-1-4 3-9-3-14 2-5-1-3-7-7-3-1-2-9 1-3-2-5 2-5v-13l-4-9 12-11h8l1-7 3-4 3-19-8-18 1-3-2-6v-8l2-4-5-8-3 1-11-7 1 4-2 4h-5l-7-4-2-9-6-9-7 1-2-2-1 3-3-4h-3l-2-4 2-5h-3l-4 10-3 1v-3l-6-1v-3l-2-2-2 4-4-2-4-5 3-2v-4l-3-2-2 2v3l-1-2-5 1v-6l-3-4-1-5-3 1-2-3-6-3-7-1-3-3-5 1-4-5-5 2-6-2-6 1-2-4 1-2-7-7-15 1-4-4-3 2-2-2 1-4-4-24-3-1-2 2-7-8-11 5-2-3-2 1-4-2v4l-6 1-10-7-2 2 3 1v4l-3 1-14-9-3 9-4-1v-2h-4l-1-2-2 3-2-2-2 1-3-3-2 2 8 18h-3v8l-3 1-3-2v5l-2 1v-2l-5-6 2 5-1 2 7 3 1 7 2-2 2 3-2 2 2 1v3l2 2-4 11 1 5-3-1-2-3h-3v2l-2-1-5 4 2 4-5 1v9l-6 1v3l3 4h-3v3l-7-2v3l-4-4 1 5h4l7 8h3l1 3 1-2 3 2v4l-2 2v4l-1-1-1 4 2-1 3 2v3l-2-1-2 10 2 2v3l-4-5-1 2 4 6 2-1 3 3 2-1v-5l4 1 1 2 1-4 1 4 6 2 4-2 1 5 5 1 4 3 4-1 1 2 4-3 1 4 1-1 3 5 3 1 2 3-1 3 2 1 1-2-1 4 2-2 1 5 2 1v2l-3 2 1 5-2 1v3l3 1-1 3-4 4-3-1 1 3 3 1 2-2 1 2-3 2-1-1-1 3h-3l-4 4 3 2v4l3 4 2-1 2 3-1 2-3-1 2 3-1 3-1 2-4-2v5l-5-1-3 6-3-3h-4l-1 4z"/>
  <path id="定西市" fill="#ff6347" fill-opacity="1" fill-rule="evenodd" stroke="#ffffff" stroke-dasharray="none" stroke-linecap="round" stroke-linejoin="round" stroke-opacity="1" stroke-width="0.5" d="M1462 1043v-6l-3-1v-6l-1-1-5 3-3-8v-4l2-2-4-3 1-4-4-3-2-5h-2v6l-3 1-3-5v-3l-5-4-1-6-5-4h-3l-2-2-4 4-5-2-8 7-5-1-2 1v3l-5 1-1-6h-9l-1-3-6-3-2-3v-5l3-1 1-9 3-5-1-13-11-8-1-4-3-1-1-9-6-1v-2l-5-2v-4l-4-3-1-3h-3l-4-5-4-2v-2l4-2v-2l-2-1-4 1-2-2-4 3-7 2-6-1v4l-5 3-2 10 3 6-4 2-3 11-2 4h-2l-1 5-4 1-1 10 2 2-4 2 1 7-4 4-7-1-4-3 1-2-4-6-3 2-1 3-21-19h-2l-13-9-2 3 1-4-2-2v-4h-5v-2l-2 1-1-8-1 1-7-3-1-3-6 2-2-3h-3l-3 4h-5l-2-6-4 1-5 4v5l6 5 4 8 2-1 4 8 3 1 3 5 18 19 1 6 5 6v3l3 1v3l-7 7 2 2v4l-4 2-12 26v4l4 1-1 9 4 2v12l5 4v2l7 4 3-1 6 2 5 6 1-3 8 2 1 4-2 1 2 2v4l-8 5 5 5v3l3 2-3 6-5 1-10-3-7 5 4 5-1 7-2 1-1 14-7 1-1 2 5 6 1 10-8 8-2 6-6 5 2 3 5-1 6 3 4-2 7 2 8 12 12 10 4-4v-4l5-2h7l1-9-4-3-2-9 11-8 9 5 2-5h5l3 1 2 5 7 1 4 16 8 3 2 3 1-4 4 2 7-5 6 2 3-4 4-1 2 3 5-1 1-2h4l1-3 3-1 2-3-2-10 1-2 14-1 4-2-2-1 1-3-9-3-4 3-6-4-6 3v-8l-1-1-5 2 1-8-2-5-6 2-3-5 3-7-1-1 2-7-7 3h-6v-9l-3-2h2l2-4-3-3 2-11 3-4 5-1 5 2 4-1 1 2 2-2 5-1 11 2 2-1 2-6-1-4 2-4 2 3 5-3v2l8 2 5-3-2-6 9 3 5-1 3 3v2l4 1 5-7v-8l2-1 2 4 1-6 3 2 4-2 3-4 2 1 1-4 2 2 1-5 4-3 9 11 5-11-3-1 2-7 7 4z"/>
  <path id="陇南市" fill="#ff6347" fill-opacity="1" fill-rule="evenodd" stroke="#ffffff" stroke-dasharray="none" stroke-linecap="round" stroke-linejoin="round" stroke-opacity="1" stroke-width="0.5" d="M1572 1183v6l-3 4v4l-2 3-7 4h-8l-2-5 3-6-3-8-5 1-2 3v7l-3 1v3l-2 2-5 2-6-3-1 2h-3l-9-7-13 2-5 4-5-1-1-4-5 1-5 4-1-7-4-2-3 3-6 2-3 4-1 6h-3l1-2-4-2v4l-4-1v-8l-2-2 1-7-2-8 2-1-4-5 3-1v-4l-3 2-8-13-7-5-3 2-9-5v2h-3v-2l-4-2-2-12-5 2-6-1-4 3-2 7h-4l-5 6h-7l-1 3 2 1-4 2-14 1-1 2 2 10-2 3-3 1-1 3h-4l-1 2-5 1-2-3-4 1-3 4-6-2-7 5-4-2-1 4-2-3-8-3-4-16-7-1-2-5-8-1-2 5-9-5-7 4v2l-4 2 2 9 4 3-1 9h-7l-5 2v4l-4 4-1 7 7 9 15 12 19 14 9 3 7 10 8 1v4l-6 8 3 2v5h5l-3 5 3 3 1-1 2 3h2v10l15 9 2 6 2 1-2 1v9l6 6-13 2-4 10-8 1-4-1v-7l-5-10-13 4 2 5-3-3h-5l-2-2-4 2 9 29-5 11 3 2h8l1 2-6 3v6l-4 2h-8l-1 8 2 8 8 2 8 9 5 3 7-1 2 4 3-1 4 2 1 4 4 2 2 3 8-2 5 6 3-2 4 1 4-3 3 1 4 8 6-1 6-4 7-2 7 2 4 6 9-3 4-3 1-5 10 2 9-8 7-4h3l2-3-1-2-4-1-1-6-3-3-1-7 3-1 2-7 4-1 6 4h8l4 5h6l2-3 10-1 12-7 5 1 7-8 1-7-2-4 3-2-2-4 2-1-2-6-3 1 4-4v-4l2 1v6l3-1-1-8-7-5-5 1-9-4-1-3h-3l-2-3 1-4-6-8 3-2 9 2 3-1 2-16 5-5 3-6 2 1 5-8 8-1 1 2 2-2 3 1 2-2 5 2-2 5h5l5 4 7-3 5-5 3-1 4 3h3l4-4 6-1 2 1 1 3v8l3 3 2-2 6 3 3-4-1-5 3-1-1-8-5-10-7-2 1-8-3-5 1-4 3-3-3-6-6 1-2-6 5-4 4-6-1-8 4-5v-8h8l3-6-2-3-2-10-3-4-3 3z"/>
  <path id="临夏回族自治州" fill="#ff6347" fill-opacity="1" fill-rule="evenodd" stroke="#ffffff" stroke-dasharray="none" stroke-linecap="round" stroke-linejoin="round" stroke-opacity="1" stroke-width="0.5" d="m1089 986 1 2 9 4 7 8h2l2-3h3l3 3v24h4l1-4 4-1 5 3 2-1 3 5 8 3 6-2h7l4 9 9 6 12 2h4v-3l6 1 12 8 6 6 1 3 3-1 3 5-7 3 2 1 5-3v4l-2 3-6 4 2 4 10-3h6l3 2 2-6-1-4-7-4v-2l-5-4v-12l-4-2 1-9-4-1v-4l12-26 4-2v-4l-2-2 7-7v-3l-3-1v-3l-5-6-1-6-18-19-3-5-3-1-4-8-2 1-4-8-6-5v-5l5-4 4-1 2 6h5l3-4 2-8-2-2 2-3-5-9-3 1v-4l-10-3-2 2-1-2-4 6-4-1v-7h-6l-7-5-6 1-1-2-12-3-1-2-4-1-2-4-1 2h-4l-3 2-3-1-4 2-3 6h-2l-1 8-8 2 2 4 2-1 2 4h5l-2 5 3 3-3 5-1 6v15l-7-3-5 1-9-3-11 11-1 4 3 10 4 8h3v7l6 8-9 3-2 3 6-2 1 1z"/>
  <path id="甘南藏族自治州" fill="#ff6347" fill-opacity="1" fill-rule="evenodd" stroke="#ffffff" stroke-dasharray="none" stroke-linecap="round" stroke-linejoin="round" stroke-opacity="1" stroke-width="0.5" d="m1255 1201-12-10-8-12-7-2-4 2-6-3-5 1-2-3 6-5 2-6 8-8-1-10-5-6 1-2 7-1 1-14 2-1 1-7-4-5 7-5 10 3 5-1 3-6-3-2v-3l-5-5 8-5v-4l-2-2 2-1-1-4-8-2-1 3-5-6-6-2-3 1 1 4-2 6-3-2h-6l-10 3-2-4 6-4 2-3v-4l-5 3-2-1 7-3-3-5-3 1-1-3-6-6-12-8-6-1v3l-16-2-9-6-4-9h-7l-6 2-8-3-3-5-2 1-5-3-4 1-1 4h-4l1-16-1-8-3-3h-3l-2 3h-2l-7-8-9-4-7-7-16-3-5-5-4-1 2 3-3-1 1 5-2 5-3 1v4h-2v7l-5 4-12-4-3 2-1 9 3 1 1 7h-4v2l11 6-1 4 5 7v3l-3 2h-4l-1 3-3 2-5 12-3 1-4-2-1 4h-5l-2 4-3-1-5 5-5 7-1 5 2 3-10-2-9 4 2 5-2 7v27l2 6 3 1 2 5 3 2h12l4 2 2 3h2l3 5-1 2 3 3 4 9h2l3 4-5 3-5-2-5 13-10-4-1 10-6 2 2 4-3 5-5-1-1 9-8-4h-3l-1-3-3 4-7-1-7 8-1-3-2 2-1-5-4 1-4-4 2-1-4-3v-2h-3l-3-3-2 1-3-3-6 2-1-3-14-5h-7l1-2-13-6 1-4-5-2-4 3-1-2-13 1-9-8-1 1-4-2-4 2-3-1-3 7-6 2-3 9 1 2-3 8-3 3 6 4 5 10 3 1 1 7h2l2 5 3 2-1 3 5 4 5 9 3-1 3 3v2l13 3v2l5 6v7l-3 4v4l2 2-2 3 7-1 2-3 3 3 17 4 4-2 1-3 8-4 6 1 3 4 3-1v6l3 1 3 21h13l6-10 3 2 4-1 1-8 5 4 3 6v9l3 2v3l3 1-8 9-2 5v6h-2l-4 6-2-2-5 3 2 6 1-1 5 3 1 8-2 7 5 2 3-5 4-3 2-5 8-2 2 2h6l4-2 3-13 4 2 1 3 7 5v-15l-3-2 5-3 2-6 3-1v-3h4l2 3 5-2 3 2v-2l3 1 6-8 3 1v-9l-2-3 4-1-1-2-11-8-5-1-4-9 3-9-2-2-3 4-2-1v-3l5-2v-2l-3-4-8-1 3-5-1-6-15-16 4-3 4 1v2h5l1-2 2 1 2-3 1 2 4-2v3h10l1-7 5-11 4 2 19-4 4 3 1-5-8-5 4-3h3l2-4 5-1 4-6h6l2-6 8 1v-5l3-2h4l3 2 6 9-1 7 4 2h4l2-2 2 2h4l3 4v7l7 5-1 3-5-1-2 5h4l1 6-4 5 1 6h4l2 4-3 13 1 2 8 2 3-3 5 1-1 5 9 5 11-2 4-8 5-1 2 1 3 6-1 3 2 1-4 10 4 1 2-5 4-3 6 2 1-2 2 1-2 2h2v2l3-1 11 6 11-4h8l6 2 11-2 6 3 9 8 1 5-2 1-1 5 3 10 4 4 1 7h4l3 2 3 9 9-2 9 3 8-2 5 10v7h12l4-10 13-2-6-6v-9l2-1-2-1-2-6-15-9v-10h-2l-2-3-1 1-3-3 3-5h-5v-5l-3-2 6-8v-4l-8-1-7-10-9-3-19-14-15-12-7-9z"/>
</svg>
