<svg xmlns="http://www.w3.org/2000/svg" id="svg1" version="1.1" viewBox="-251 -228 1775 1931">
  <path id="福州市" fill="#ff6347" fill-opacity="1" fill-rule="evenodd" stroke="#ffffff" stroke-dasharray="none" stroke-linecap="round" stroke-linejoin="round" stroke-opacity="1" stroke-width="0.5" d="m1186 497-6-8-7-4h-8v3l-5 4-11-4-6 4-3 9h-3l-2 4h-8l-6 2-4-2-2-4-4-2-3 2-8-4-2 1-1-4-8-3-3-5 2-2-9-12-2-5-10-4-18 2-6-4-2 3 5 2-3 2-7-2-3 1v4l-3 4-4 1-3-2-3 2 1 3-4 2-1 3-7 1 2-4-1-2h-7l-5 8-2 15-9-6-3 7-6 3-5-5v-4l-4-7-3-2-5 6-6 2-2 3-4-1-3 3-2-2-7 1-1-5-4-3-1-6-4 3h-6l-3-2v-3l5-3-1-3-6-4-3 2h-8l-1 4-4-1v7l-3 7-5 1 3 4-2 6-4-2-6 1-5 3-2 6-3 3v4h4l1 4-2 5-4 2-4-5h-7l-13 5-1 4-3 1-2 6-10 5-6-2v-7l-5-5 3-9-3-3-5-1v-5l-8-3-5 1-1 3 3 7-7 6-1 13 11 7-3 9 4 3 5 8 7 5-1 8-8 5-8-4-11-1-3 5-8 7v5l2 3h-5v2l-6 4 3 10-4 10-4 1-8-4-7-1-5 4 5 7-1 2-3-2h-5l-3 2-1 8 2 4h-5l-1 15 3 4 5-2-2 8 4 15h4l-3 6 2 3-3 1-5-4-9 2-14-1 3 7-3 7v19l2 3-2 4 2 1-2 10 2 4-5 9 4 5-2 1-2-4-10-3-3 2 2 11-6 2 1-12-10-9-7 8 1 3-3 1-2 4 3 1 3 9-6 4-3-1-2 9-3 4 3 2 2 4 6 4 6 24 18 10 16 19 6-1 1-4 9-4 2 3 2-1-1-4 3 3 1-5 4 3 3-1 2-9 5 4h3l1-4h12l3 3-1 2h6v3l6 2 7-4-1 10h2l3-4h3l3-7 2 3 5 1 9-6 3-3-2-1 4-4h5l5 5 5 2 9-2-1 4 11-10 6-1v-3l5-6h3l3-5v19l9-8 14-1 4-3h6l2-2 8-2 3 2 4-3 1 2 5-2 10 1 7 3-2 6-8 7 7 1 3 4-4 2 1 4 4 4h-3l-5 12v5l7 6 1 7h3l-1 4h3l1 4-3-2-2 1 8 12 8 1 1 3 8-8 3 9 4 6-1 6-7 9-5-1 1 8 3 2 13-8v4h6l-4 11v9l9 7h24l1-13-4-12 2-13 3-6 14 6 2 5 8 2 4-5 6 3-4 13 2 4-6 6 3 3v6l2 1 7-15 10 1-2 9 8 11v3l-6 5-2 4 4 3 2-3 7-4 5 2-1 4 6-2 2-6 4-2 1-3 4-3-2-5-6-6 1-7 5-2 4 10-1 5 4 6-3 11 5 7-3 3 3 5 5-3 9 1 5-2 3-4v-4l-5 3-5-1 9-4 2 1 2-2-3-15h4l1-11-5-1v4l-4-2-2 2-7-2 7-4 3-7 9-3 2 3h3l-2 4 1 4h7v3l5 5 7 2 7 8h6l4-6-8-3 1-6 14-10h4l4-3 5 1 2 4 4 1 4-2-3-3 2-7-4 1-3-2h-4l-1-3-5-1-2-6 1-9 11-6 4 5 6-1 6-7 1-5-2-2-5 2-10-2-5-4 4-5v-4l-12-7-8 2-3-9 5-7v-5h-3l-20 11-3 7-3-1-4 3-3 6-3 2 3 8 5 2 4 10-2 5 1 6 3 1-2 2-8 1-7 8 1 3-2 3-7 2-1-6h-3l-3 4-4 1 1-6-5-7v-7l2-6-1-8-6-8 1-4-2-3-10 5-13-1v-4l3-3-1-11-3-1-2 3h-8l-4-3h-5l-2-12 6-3v-2l13-4 21 2 7-3 3-7-3-5 3-5 6 2 4-11-1-4-3-3v-42l3-6 3-2 16-3 3-2 2-11 5-13 3-20-3-5-5-3-9 3-4-2-4-25h-4l-1-7-8-5-3-10-3-3 1-7 8-4 6-6 7-3 2-7 4-4v-4l-3-3-1-4 3-3 17-2 17-7 4 1 6 6 6-5 2-5-6-2 1-4 14-6 6 3 1 3 17-1 1-4 15-13 3-9-8 1-17 7-6-2 1-5-7-8v-3l-9-16 1-5-7-22zm253 71-3 1-1-5h-2l-2 6 3-2 2 3-1 4 5 1 3-5 3 2-1-4-4-3zm-217 320 3-3v-5l-4-2v2l-5 1-3-3 1 8h2zm-116-18 11-11 1-6-12 8-3 6-2-5-2 5zm155-238 4 2 1-6-7-5-5 5-6 3v11l3-1 1-6zm-14 109 4-2 5-6h-6l-3 4zm-96 239 12-3-4-3-1-4-3 3-6 2zm-4 20 1-3 6-1-5-5 2-6-4 2-2 5v7zm86-335 3-3 3 1 9-10h-7l-2 3-6-2 1-3-5-1-2 12zm-104 2 4-2-1-4 2-4-5-2-6-6-7 1-1 6 5 7 8 2zm87-115 4-1-3-2zm-149 437 5 1-1-3 2-6-7 3-2 4zm69-127v2l4 4 10-3 4 2 3-2-1-10-4 3-9 3-2-4zm4-45 3-2-4-1zm1-148 3-7-3-1-5 4 5 8zm29 333 3 4 1-4zm58-453-3 5 4-1zm30 73 5-3h-3zm-22 112 6-5-2-2-7 1v2zm-109 118 1 1 7-5-6 2zm-90 95h3l-1-3zm89-274 3 2 1-4-4-1zm128-60 3-2-1-6-4 5zm85-29 5-4-4 2zm-208 271-1 4h6l3-3-4-5zm-25-2 1 3 3-5z"/>
  <path id="厦门市" fill="#ff6347" fill-opacity="1" fill-rule="evenodd" stroke="#ffffff" stroke-dasharray="none" stroke-linecap="round" stroke-linejoin="round" stroke-opacity="1" stroke-width="0.5" d="m548 1356 2-11 4-8 7-26 14-16 10-6 7 10 13 11 14 8 17-4 27-3 4-3-1-4 2-6-5-2 4-3h-7l-1-4-4-3v-6l-4 4-1-3 6-7 1-3-2-5 3-3 1-6-5-4v-3l-6-4v-3l5-8-1-4-4-2-2-6 7-1v-8h3l-2-3-2 2-4-4 1-6-5-2-4-9-6-2-7 3-5-3-3 3-4-1-3-5 1-5-11-6v-5l3-1-4-4-12-2-4 2-4-1-5 2-4 6-10 4-3 4-2-3v-5l-3-1-2 4-6-7-2-6-8-1-2 3-5-2-2 2 5 2 4 4-1 2-6-1-2 4 3 3-10 4-5-8-4-1-4 2-2-4-4-1-2 3 10 11 8 1-1 21-2 9-5 10 9 28-3 2-1 7-9 7-3 7-11 1 1 6-3 3 10 8-2 6 2 3-1 5 7 3 3 5 7 5 2 9-2 8 2 6 4 4h4l3 5 13 1zm57-35-1-8-4-5-8-4h-5l-5-6-11 3-8 9-5 15-2 16 7 9 6 3 14 2 4-6 16-13 3-6zm63-20h6l-3-2zm-112 48 3-2-1-3-5-2-2 3 2 3z"/>
  <path id="莆田市" fill="#ff6347" fill-opacity="1" fill-rule="evenodd" stroke="#ffffff" stroke-dasharray="none" stroke-linecap="round" stroke-linejoin="round" stroke-opacity="1" stroke-width="0.5" d="m858 1025 7-1-1-5 5 1 7-4 2-3 11 1 4-3 7 1 3 3-2 5h-4l-4-5-3 5-1 7h-3l1 6 4 4v4l8-1 16-6 3 5 4-2-1 8-4 7-3 3-6-3-3 4v10l3 6 14 10 3-3 18 1 3 4h-4l-8 8 4 7-2 2h-9l6 4v4l5 3v5h3l-1-3 8-14h-2v-11l6-4 3-21-2-2-5 1-3-2 2-2-1-5-8-2-4-8 4-7 7-5 3 8 13 11h6l12-5 11 6 3 6 16-12v-2l-5-4-3-12 8-1 6 3 4-4h5l8-4 3-10-6 1-12-5-14-18h-11l-5-3-2 1v7h-3l-5-11 1-3-4-7h-8l-9-3-3-4-4 1-3-2 3-15 6-5 10 6 15-10-9-10-1-8 5 1 7-9 1-6-4-6-3-9-8 8-1-3-8-1-8-12 2-1 3 2-1-4h-3l1-4h-3l-1-7-7-6v-5l5-12h3l-4-4-1-4 4-2-3-4-7-1 8-7 2-6-7-3-10-1-5 2-1-2-4 3-3-2-8 2-2 2h-6l-4 3-14 1-9 8v-19l-3 5h-3l-5 6v3l-6 1-11 10 1-4-9 2-5-2-5-5h-5l-4 4 2 1-12 9-5-1-2-3-3 7h-3l-3 4h-2l1-10-7 4-6-2v-3h-6l1-2-3-3h-12l-1 4h-3l-5-4-2 9-3 1-4-3-1 5-3-3 1 4-2 1-2-3-9 4-1 4 2 2-5 6 7 4-2 6-12 15-1 7-7 5-9 14v8l3 2-3 3 5 1-1 5-2 1-4 9 4 8 4-1 2 9 4 1-2 6 4 1 9 10-2 10-4 7 3 2 3-6 3 2-2 5 1 7 14 2 2-6h7l7 4 6-4h8l4 5-1 4-5 2-1 2 5 5 1-3h3l3-3 6 5-4 6 1 4-2 2v7h3l-3 5h-3l1 9 5 3v6l5-1 5-5 3 1 5-8 2 1 7-4h5l-1-4 2-4 7-2 10 1 7-3 1 3 7-4v-4l2-2zm208 18 14 6v5l4 1 1 4 11-3-2-6 3-1-1-4h6l3-5-4-2-4 3-4-3-2 3-8-2-1-3h-3l-3-3v-7l-4-3-3 1v-5l-3-1-1 5-6 2 1 2h-6l3 6-2 4 1 4zm40-27-1-2-3 4zm-76 60 2-2-3-3-1 4zm53-60h5l-2-6h-3l-2 5zm-171 66 1 2 3-3zm198-35h4l-3-3zm-91-50 3-3-2-2-2 3zm86 25 3 3v-4zm-204 31h3l4-5-2-2-6 3zm128-62h3l-5-3zm33 139v-4l-4-1z"/>
  <path id="三明市" fill="#ff6347" fill-opacity="1" fill-rule="evenodd" stroke="#ffffff" stroke-dasharray="none" stroke-linecap="round" stroke-linejoin="round" stroke-opacity="1" stroke-width="0.5" d="m428 916 6-1-1 2 4 2 3-1 4 4 3-1 6 7 4 2-3-6v-7l5 1 6-4 7 10 5 2 4-3 10-1 15-5 3-6 8-2 7 6-1-6 5-3 3-5 10-8 2-7 2-2 1-11-2-4h-4l-2 3-6 2-4-1-1 2-2-5-3-1-3-6-4 1-1-6-5 2-1-3 4-4-1-2 5 1 3-4 12-2 2-2 3-11-2-2-2 3-5-6-5-12h2l2-4h7l2-10-2-1 2-7 5-7 1 4 2-5-6-4-1-5 6-3 3 3 4-1 5 4 8-6-3-5v-3l7-1 12-6h6l3-3 8 3 1 7h6l5-6h2l6 6 6-5 7-1 2-2-3-5 4-6h3l4 3 5-2 3 6 7-1 3-8 6 3 3 13 10-1 5 4 3-1-1-3 6-8 11 9-1 12 6-2-2-11 3-2 10 3 2 4 2-1-4-5 5-9-2-4 2-10-2-1 2-4-2-3v-19l3-7-3-7 14 1 9-2 5 4 3-1-2-3 3-6h-4l-4-15 2-8-5 2-3-4v-12l1-3h5l-2-4 1-8 3-2h5l3 2 1-2-5-7 5-4 7 1 8 4 4-1 2-7-5-8h-5l-3-3-1-7h-6l-2-6-3-1-3-4v-3l-11-1 1-4-3-3h-5l-6 3-3-7-6-5h-2l-15 11-1-5-5-2-4-6v-4l4-5 4 4 2-2v-7l-4 4h-18l-8-6-4 3-4-1-2-5-1 3-5 1-2-5 4-3v-5l-4 3h-4l-2-3-3 3 1 5-4 2-4-3h-3l-4 5 1 4-3 2-5-1 1-3-7-2-3 2v4l-5 4-4 1-3-3-5 1-1 3h-4l-7 6-2-5-6-1v-6l-8-1-2-4 1-4-2-3-6-1-3-5 2-6-3-7-4-1-3 3-3-5 3-4-1-4 4-3-3-3-6 2-6-2 1-7-5-4 1-5 6-7-6-4h-6l1 4-2 2-2-2-8 2-3-4-7 6-7-2-1-3-6 3-2 3-2-10-4-1 2-6-4-1-1-8 6-1v-3l-5-4 1-6-4-2 4-6-2-2-5 1-5 4-3-2-1 2-4-2-4 2h-5l-4 5-3-3-6 1-6-2-9 5-2 5-5-2-1 3-5 1-1-5 2-4h-9l-1-7-14-5 1-5-5-2 3-2 4-8 5 1 2-4 6-2 3-11 6-7-2-3 2-5-7-6-4-7-3-2-1-7-4-6h-2l-4-5-5-3-4-12h-6l-4-3-2 3-8-1-3 2-4-3 1-10 9-4 1-9 4-4-4-1-2-3-6-3h-10v-5l-2 4-5 1-3 3-2-1v-6l-3-1 1-8-4-2-3 1 4-8-12 5-4-6-4-1v-13l-13 2-8-7-9-3-5-4-4 2-1 5h5l1 5-3 4v14l-8 4-2 5h-4v-3l-16-7-7-14-7-7-14 7-7-6h-2l-4 6-5-2-3-5-4 4-20 8-11 8-12 17-3-5h-12l-5 2-7 6-4 1-12-3-13 3-6 4-3 7-8-4-11 1-9 5-8 7-9 11-11 19-20 19-2 15 6 15-3 7-13 12-1 5 3 10 11 13 5 1 1 3-5 27-5 3v5l14 10v4l7 5-3 5 4 3-1 2 5 3 10-1-1 6-2 2-1 6-6 5-3 7v4l3 5-4 9-6 2-5-2-6 3 2-8-2-6-3 1-4-2v-3l-6-1-3 8-4 2-2 7 2 3-14 7-2 5-6 5-1 5-3 3-5 1 3 3-1 5-6 2-4 7 1 5-3 2 2 9-1 3 4 2v6l-3 8 8 4h8l6-2 4-4h3l4 6v9l3 4-1 6-16 14-8 5-1 5-7 3v6l14 7 13 2 2 4 1 10 5 4 15-13 16 7 4-5 7 3 5-3 1-9 9 6-3 8 2 15 6 2 3 3h3l2 5 7 1 4 4 7 3 2 4 2 14 3 3 8-5 5 1-4 10v8l14 11 16-5 10-16 5-5 7-3 9 4 1 2 12-5h14l5 17 7 11v7l3 4-2 4 2 5-6 4 2 4 3-2 2 5v6l-3 3 5 1 3 6h-3l3 7 9-2 10 3 3 7 10 14-1 11 6-2 5 6 6-4h-5l4-8 9-12 1-6 17-13v-5l-4-4-7 2-2-1 7-16 6-5 8-1 14-6 1-10 2-2 8 1 3 12-2 2 2 8 3 3v-6l2 1 2 17-5 9 1 4h5l13-4 6-18 5-3 1-3-5-1 1-2 9-2 1 3 4-1-3 5 2 6 3 2 4-6 7-3 2 1 2 7 4 3 8 2 5 8-3 3 5 7 17-9 5 3 6 10 7 6 8 14 11-3-1 11-7 9-8-5-3 2-3 8 1 10 4-3z"/>
  <path id="泉州市" fill="#ff6347" fill-opacity="1" fill-rule="evenodd" stroke="#ffffff" stroke-dasharray="none" stroke-linecap="round" stroke-linejoin="round" stroke-opacity="1" stroke-width="0.5" d="M858 1025h-9l-2 2v4l-7 4-1-3-7 3-17 1-2 4 1 4h-5l-7 4-2-1-5 8-3-1-5 5-5 1v-6l-5-3-1-9h3l3-5h-3v-7l2-2-1-4 4-6-6-5-3 3h-3l-1 3-5-5 1-2 5-2 1-4-4-5h-8l-6 4-7-4h-7l-2 6-14-2-1-7 2-5-3-2-3 6-3-2 4-7 2-10-9-10-4-1 2-6-4-1-2-9-4 1-4-8 4-9 2-1 1-5-5-1 3-3-3-2v-8l9-13 7-6 1-7 12-15 2-6-7-4 5-6-2-2-6 1-16-19-18-10-6-24-6-4-2-4-3-2 3-4 2-9 3 1 6-4-3-9-3-1 2-4-5-4-10 1-3-13-4-3h-2l-3 8-7 1-3-6-5 2-4-3h-3l-4 6 3 5-2 2-7 1-6 5-6-6h-2l-5 6h-6l-1-7-8-3-3 3h-6l-12 6-7 1v3l3 5-8 6-5-4-4 1-3-3-6 3 1 5 6 4-2 5-1-4-5 7-2 7 2 1-2 10h-7l-2 4h-2l5 12 5 6 2-3 2 2-3 11-2 2-12 2-3 4-5-1 1 2-4 4 1 3 5-2 1 6 4-1 3 6 3 1 2 5 1-2 4 1 6-2 2-3h4l2 4-1 11-2 2-2 7-10 8-3 5-5 3 1 6-7-6-8 2-3 6-15 5-10 1-4 3-5-2-7-10-6 4-5-1v7l3 6-4-2-6-7-3 1-4-4-3 1-4-2 1-2-6 1-1 9 2 4-3 1-3 8-3 1-2 6 3 7-6 11 3 2v9l-5 5 1 4-7 4-2 6-13 9-7 2 2 4-1 10 7 5-3 10h-7l-6-4-3 5-5 3v7l2 3 4-1 3 6 15 6-1 5 3 4 16 5v11l2 4 8 4 3 4 5-4 4 11-2 3 4 2v5l-7 4-1 5h-5l-3 5-3 1-5-5-6 2v6l-14 7-5 6 1 7 9 2v5l-6 6 1 9 3 4h4l3 3 14 4 10-6 7-7 15 5v5l2 2 5-2 3-4 2 6 3 1 5-7-2-3 5-3 6 3 5-2 3 3 4-10 4 4 2 5 5 1 2-3 4 1 2 4 4-2 4 1 5 8 10-4-3-3 2-4 6 1 1-2-4-4-5-2 2-2 5 2 2-3 8 1 2 6 6 7 2-4 3 1v5l2 3 3-4 10-4 4-6 5-2 4 1 4-2 12 2 4 4-3 1v5l11 6-1 5 3 5 4 1 3-3 5 3 7-3 6 2 4 9 5 2-1 6 4 4 2-2 2 3h-3v8l-7 1 2 6 4 2 1 4-5 8v3l6 4v3l5 4-1 6-3 3 2 5-7 10 1 3 4-4v6l4 3 1 4h7l4-3 2 3 4-1v-6l7-3 8-6h13l14 3 14 14v4l-3 1-1 4 7 4 1 8-3 3 8 2 12-6 2-5h2l5-6 7-2-1-5 3-3h4l2-3 3-11v-10l-6 1-2 4h-2l-3-13 1-6 5-4 6 7 7-1 4-5h3l3-6 4-3-1-3 4-4h-3l2-3 1 2 5-4v-2l4-3 3-7v-7l-14-1-4-2-1-13h-4l-3 3-1 5-7-1-6 2-9-6-1-14 15-5 3-5 2 1-1 6 2 3 10 1 1 6 4 1 2-9 13-4 7-5h5l5 6 4-4-3-2 1-3h3l6-4 4-1 21 7 6-2 3 2 13-4-2-6-6-2-6 2-4-5-4 1-2-5-3-2v-3l5-7 5-2 14 6-1 2 12-3 6-7-5-2-3 2-1-5-3 1-3-2-1-9 7-1 2-11 4-7-2-6-7 1-2 5h-3l-3 7-6 2-5-3v-6l-9-5-12-11 1-4 17-2 13-7v-3l-7-2-1-9 5-1 7-5v-12l-4-2-1-3-7 1-4-2 2-4-10-5v-2zm-177 292-7 2 2 8-6 4 3 2-1 4-5 2-11-4-9-7-9 5 6 20-8 1v3l-3 2 5 3 2 4 7 3h5l6-11 8-6h12l10 3 2 3-3 3 10-3 1-3 4-2-2-4 4-1 1-4-4-5v-4l2-3-4-1-3-10-6-1-3-6-6-2zm-67 45 6-2 3-4 6-2 1-8-6-4-8 3-2 7-3 1-1 8zm282-313-1-1-3 5zm9 61h3l-4-4z"/>
  <path id="漳州市" fill="#ff6347" fill-opacity="1" fill-rule="evenodd" stroke="#ffffff" stroke-dasharray="none" stroke-linecap="round" stroke-linejoin="round" stroke-opacity="1" stroke-width="0.5" d="m131 1375-2 8 4 3v5l4 3-2 4v10h6l3 2v17l-2 8 8 1 6 8 2-1 8 8-9 10h-3l-11 11-3 11 1 13 2 5h6l-1 6-3 2 5 5v6l2 2 3-2 5 4-3 2v7l3 6-1 7-2 6-7 2 2 3-1 5 6 2 2 5-2 4-5 2 1 3 7 2 1-2 4-1 6 3 4 7 1 7-3 3 1 5 5 5 3 10 2 2v13l2 11 7 3 6 8 9 2 4 7 8-3 4 6 6 2 4-1 3 3v27l28-2 7-2 5 8 5 1 16-3 8 1 16-7 10-1 3-4v-6l-3-3v-9l4-4 10-1 3-3-1-7-3-2-1-3 5-10h6l10-4 20 5 5-4 5-15 4-7 8-8v-4l-3-7 2-14 5-11 7-4 5-1 21 2 9-6 2-2 5-17 15-14 6-8h9l8-3 6-11-1-14 3-8 5-7 20-16v-10l7-8 7-1 13-10 15-2 3-3v-6h7l5-5v-5l-5-7 1-5-7-5-2-11-4-4h-11l-2-2 3-4 2-14-15-4-20-2-3-5h-4l-4-4-2-6 2-8-2-9-7-5-3-5-7-3 1-5-2-3 2-6-10-8 3-3-1-6 11-1 3-7 9-7 1-7 3-2-9-28 5-10 2-9 1-21-8-1-6-8-4-3-5-1-2-5-4-4-4 10-3-3-5 2-6-3-5 3 2 3-5 7-3-1-2-6-3 4-5 2-2-2v-5l-15-5-7 7-10 6-14-4-3-3h-4l-3-4-1-9 6-6v-5l-9-2-1-7 5-6 14-7v-6l6-2 5 5 3-1 3-5h5l1-5 7-4v-5l-4-2 2-3-4-11-5 4-3-4-8-4-2-4v-11l-16-5-3-4 1-5-15-6-3-6-4 1-2-3v-7l-4 1 1 7-5-3-2 6-5 4h-6l-1 4h-4l-2 15 1 3 8 5 2 7-2 20-5 10 2 18-1 4h-17l-8-7-15-2-8 5-7-3-9 4h-4l-2-3-4 2 1-5-2-3-3 1-4 6-11 4-1 4h4l-3 12-4 6h-3l-3-5-9-2 1 9 3 1v7l-9 7-1 16-5 5-4 10-3 2-12-2-8 3-4-2v-14l-5-1-2 12-10 8v14l-2 12 3 6 5 1-2 8 4 7-1 8-2 3-6-1-2 6 4 5-3 19-8 6-6-2h-12l-5 4 1 5-2 3-3-5-4 5 2 10 7 13 3 10-3 17-3 3-9 1zm294 238 3 1 2-2-6-2zm-10-5 4 4-1-3zm171-213 1-5-3-3zm-176 211 3 1-2-6z"/>
  <path id="南平市" fill="#ff6347" fill-opacity="1" fill-rule="evenodd" stroke="#ffffff" stroke-dasharray="none" stroke-linecap="round" stroke-linejoin="round" stroke-opacity="1" stroke-width="0.5" d="m990 140-5 1v-5l-2 4-7 1-5-2-6 2-5-4-12 1-3-4-4 1-2-2 1-6-2-4h4v-4l-6-5-9 8-6-3-3 2-3-4-7-2-6-7-8 1-3-3-3 3 3 3-1 5-8 1-4 10-2-3-6-3h-11l-2-6-3-2 1-4-4-2-2-8-6 1v-5l4-5 7-3 3-7 5-2-3-9 2-2v-6l2-4-4-1 1-7-9-12-2-6 2-2-2-5 1-2h8l-1-6-2 1-7-8-7-15-5-2v-4l5-3-2-7-3-3-1-8-4-3 4-8-4-4 2-4-4-4-1-9-5-1v-3l-18-7v-2l-9-10 1-8-2-3v-6l3-5-1-4-4-4-1-8 6-4 3-6 7-2 1-4 3-2 4 1 7-5-1-6 2-8-3-7-5-2-8 3 3-8 12-9 3-7-3-7-8-1-10-4-5-6v-4l-5-1 1-7-4-6-7 1-3 8-6 8h-3l-5-3-11 9h-10l1-7-5-5-9 1-4-2-1 5-5 2h-6l-3-4-4 3-1 4 4 7-5 3-3-3-8 1-5-3 1-4h-4l-3-8 1-5h-3l-13 11h-6l-3 5-5 1-2 7-2-1-9 6 7 6 2 6 13 2v6l2 3-7 4v7l3 4-5 3v13l-5 3-1-2h-11l-6 3-6-1-8 6-4-2-7 6-5 1-4 3-17-5-12 8 3 11-2 2-6-2-4 6-1 8 2 6-3 1-5-1-2-4-3-2-7 1-3-3-10 3-3-5-5 8-7 4-8-5-9 5-2 5-8 1-9 4-4-3-2 4-13 6-11 12 1 4-2 7 2 4-4 8-6 4-2 6-4 5-4-1-10-12-8 3-6-7-6-4-14-5-3-3v-6l-3-6-3-2v-16l-3-1-3 4-4-5 2-3-2-4-10-4v-3h-4l-3 3-3 9-11 9-4-4h-3l-9 12-9 8-14 4-5 7v3l-5 1-2-2 1-7-3-7h-4l-5 9-5 2-3-1-2 9 6 2 4 6-2 13 3 9-4 5-6-2v8l-4 4-1 4h-4l-4 5-6-1-8 4-1 11h-6l-5 2-18-6-6 3-4 8 3 2 3 7-2 1 1 4-5 2-6-6v-4l-6-7-8-1-7 8v4l-3 5-1-2-2 4 5 6-2 2 4 5-2 12 1 3 8 4 3-1 1 3 11-9 3 7 2 1 2 5v9l3 6-2 5 2 4v6l5 3v7l3 5-2 7-8 5v5l-3 1 2 5-1 11 3 5 12 2-2 8 8 1 5 4-2 10-4 2-2 8-3 4-8 7-1 3-4 2-3-1-5 9-13 13-2 5 4 16 4-4 3 5 5 2 4-6h2l7 6 14-7 7 7 7 14 16 7v3h4l2-5 8-4v-14l3-4-1-5h-5l1-5 4-2 5 4 9 3 8 7 13-2v13l4 1 4 6 12-5-4 8 3-1 4 2-1 8 3 1v6l2 1 3-3 5-1 2-4v5h10l6 3 2 3 4 1-4 4-1 9-9 4-1 10 4 3 3-2 8 1 2-3 4 3h6l4 12 5 3 4 5h2l4 6 1 7 3 2 4 7 7 6-2 5 2 3-6 7-3 11-6 2-2 4-5-1-4 8-3 2 5 2-1 5 14 5 1 7h9l-2 4 1 5 5-1 1-3 5 2 2-5 9-5 6 2 6-1 3 3 4-5h5l4-2 4 2 1-2 3 2 5-4 5-1 2 2-4 6 4 2-1 6 5 4v3l-6 1 1 8 4 1-2 6 4 1 2 10 2-3 6-3 1 3 7 2 7-6 3 4 8-2 2 2 2-2-1-4h6l6 4-6 7-1 5 5 4-1 7 6 2 6-2 3 3-4 3 1 4-3 4 3 5 3-3 4 1 3 7-2 6 3 5 6 1 2 3-1 4 2 4 8 1v6l6 1 2 5 7-6h4l1-3 5-1 3 3 4-1 5-4v-4l3-2 7 2-1 3 5 1 3-2-1-4 4-5h3l4 3 4-2-1-5 3-3 2 3h4l4-3v5l-4 3 2 5 5-1 1-3 2 5 4 1 4-3 8 6h18l4-4v7l-2 2-4-4-4 5v4l4 6 5 2 1 5 15-11h2l6 5 3 7 6-3h5l3 3-1 4 11 1v3l3 4 3 1 2 6h6l1 7 3 3h5l5 8 2-3-3-10v-7l-5-11 4-4v-5l-12-7-2-3-6 2-4 5h-2l1-4-4-5-7 2-1-8-4-2v-9l6-6v-2l-4-4 4-9 7-4 6-1 2-5-1-6 5-20h-10l-4-4 3-17-2-3 1-6 3-4v-6l2-3-1-4-3-2h-4l-2-4 3-4v-3l3-3h5l1-8 3-3v-6l4-8v-7l5-3 1-10-6-8 3-6h6v-3l5-1 3 2 7-3 2-3-1-4 2-2 2-8-4-8-8-8 4-7 5 1 1 4 5 3 8-5 5 3 12 1 4-3v-5l4-4 8-2 4-3 3-5-1-5 2-4h5l5-5 2-8 7-8 1-7 5-2 3-7h3l5 3 4-5v-4h-4l1-6-5 2-1-3 3-7-2 1-2-4 3-3 2 2 8 1 8 4 1 13 3 2-3 6 4 4 5 1 3-3 8-1 5 3h13v6l5 4 4 8 6-1v-6l-3-7 12-1v-7l9-3 4 3 3-3v-4l-7-3 2-12-1-3h-5l2-12 8-4 2-10 10 3v6l5 4 3-2 3 3 3-6-10-10-4 1-11-11 3-1-2-4 1-10 3-5 4-1 2-3h4l-1-5 2-5 2-1v-7l5-2 3-4-6-13z"/>
  <path id="龙岩市" fill="#ff6347" fill-opacity="1" fill-rule="evenodd" stroke="#ffffff" stroke-dasharray="none" stroke-linecap="round" stroke-linejoin="round" stroke-opacity="1" stroke-width="0.5" d="m-52 706-6 1-5 10-3 2-1 3 4 12-16 3-2 6-7 7-8 4h-4l-4 4-9 1-3-3-6 3h-6l-5 3-3 7h-6l-8 7v14l10 6 1 4 7 9-2 11-3 1v-7l-13 2-8 15-1 9-9 2-5-3v5l-3-2-1 5 3 3-3 6 4 6v5l-3-2-3 5h-4l2 4-2 4 4 3 1 9 3 6-3 6h-5l-2 3 1 10-8 3-1 4-3 3 1 7h4l-2 7 3 7v7l-2 3h-4l-1 2 2 6-5 9 2 5-3 6h3l2 5-1 3 2 1-3 8-5 4-3-3-1 4-3 1-5-3-2 3 1 8-7 12-4 3-6-1-4 6-5 1-3-3-5 5v23h7l5 10-6 2v3l4 5-1 4 10 3 4 5-2 5h3l2 4-3 5-3-2-5 3-3 5-6 1 3 10 7 2 9 12h-11l-1-4-3-2-4 2-1 5 5 3 3 6h2l4 5 17 2 3 2 5-1 3 6 6 2 5-4 8 8 5 10 4 1 2 4 6-2 3 6 1-4 8-1 8 3 5-1 10-11 4-1 3 7 4 2 4 5v4l3 2 3-2 4 1-6 11 7 3 5-2 13-1 6-7 5-3v2l5-2 2-12 4-5h5l1-3 6-1v9l5 1 3 5-14 8-1 7 3 5 6-1 3 7 4 4-1 10 8 3 3 8 15-2 5 8 1 13 5 6-4 12 7 7 10-3 6-4 1-3 5-3 3-7 11 5h3l1-2 11-5h9l3 2 3-4 12-1 5 5 8-10h9l5 10-1 4-5 3v5l-4 4-2 5-8 8 3 7-4 4v3l6 5h3l-1 3 3 6 3 4 8 5-2 2 8-5 6 7 4 7-4 4h-3l-1 4 3 6 3 1 3 6 2 1 1 6 5-2 6 11v-4l9-1 3-3 3-17-3-10-7-13-2-10 4-5 3 5 2-3-1-5 5-4h12l6 2 8-6 3-19-4-5 2-6 6 1 2-3 1-8-4-7 2-8-5-1-3-6 2-12v-14l10-8 2-12 5 1v14l4 2 8-3 12 2 3-2 4-10 5-5 1-16 9-7v-7l-3-1-1-9 9 2 3 5h3l4-6 3-12h-4l1-4 11-4 4-6 3-1 2 3-1 5 4-2 2 3h4l9-4 7 3 8-5 15 2 8 7h17l1-4-2-18 5-10 2-20-2-7-8-5-1-3 2-15h4l1-4h6l5-4 2-6 5 3-1-7 9-4 3-5 6 4h7l3-10-7-5 1-10-2-4 7-2 13-9 2-6 7-4-1-4 5-5v-9l-3-2 6-11-3-7 2-6 3-1 3-8 3-1-2-4 1-9-6-2-4 3-1-10 3-8 3-2 8 5 7-9 1-11-11 3-8-14-7-6-6-10-5-3-17 9-5-7 3-3-5-8-8-2-4-3-2-7-2-1-7 3-4 6-3-2-2-6 3-5-4 1-1-3-9 2-1 2 5 1-1 3-5 3-6 18-13 4h-5l-1-4 5-9-2-17-2-1v6l-3-3-2-8 2-2-3-12-8-1-2 2-1 10-14 6-8 1-6 5-7 16 2 1 7-2 4 4v5l-17 13-1 6-9 12-4 8h5l-6 4-5-6-6 2 1-11-10-14-3-7-10-3-9 2-3-7h3l-3-6-5-1 3-3v-6l-2-5-3 2-2-4 6-4-2-5 2-4-3-4v-7l-7-11-5-17h-14l-12 5-1-2-9-4-7 3-5 5-10 16-16 5-14-11v-8l4-10-5-1-8 5-3-3-2-14-2-4-7-3-4-4-7-1-2-5h-3l-3-3-6-2-2-15 3-8-9-6-1 9-5 3-7-3-4 5-16-7-15 13-5-4-1-10-2-4-13-2-7-3z"/>
  <path id="宁德市" fill="#ff6347" fill-opacity="1" fill-rule="evenodd" stroke="#ffffff" stroke-dasharray="none" stroke-linecap="round" stroke-linejoin="round" stroke-opacity="1" stroke-width="0.5" d="M1186 497v-4l-4-4v-7l-13-5-5-6h-18l-4-3h-3l-18 11-5-1-11-12 2-4h3l10-7 3-11h3l2-3-3-6 2-2 7 1 2-8-4-10 2 1 3 7 16 16 12 1 16-3 9 3 7-3 12 7-2 6 1 6 5 1 12-8-2-4 1-2-2-7 2-1 3-7 6-5 3-7-5-11 3-4 4-2 6 1 3-2v4l4 1 6-3 22-1 3 4-2 4-6 7h-4l-4 4v4l-10 3-1 4-7 8 2 6-2 4v6l-5 2 2 4-5 5-1 5-2-4-8 1-6-2-4 4-14 8-2 3-1 8-3 3-3 15 4 4 17 2 3-2 7-10 7-2 2-5 4-2-4-6 3-5 8-4 6 2 8-1 22-13 5 5 5 1 16-10 2-5-6 1 1-6-3 1-2-2-2-11 6-6 8-1 4-3 2-6-6-1 3-5-3-2-8 4-5-1-2-4 6-11 5-3-1-4-12 1-3-8 4-4-1-1-7 2-7-1-5-7 1-9h6l5-3 7-1 6-4v-15l7 2 3-3 4 2h19l8 4 2-4 4-3v-6h-2l3-14 4-4 6-1-1-17-7-2 14-1 2-2-5-9 2-5-3-7 1-1 7 2 5-2 3 2 23 3 4-3v-5l9-5 13-12-6-8h-3l-4-5v-4l-8-8-1-3 4-8-5-5 1-3 5-3 2 3 3-4-7-7-3-9-7-6-3-7-6-3-2-4 1-3-4-5 3-7-4-6h-8l-1-3-1 5-4 1-5-2-6 3-5-10 2-2-1-6-5-3v2l-10 6h-3l-4-3-9 3-4-2-11 2-2 3 3 4-3 5-3-3-9 3v5l-7 4-9 13-9-2-5-9h-2l-1-5-4-1-3 3-10 2 2 3-5 5-5 10 2 4-15-2-1 3h-7l-1 4-4-2 2-4h-5l-4-3-4 4 3 3-2 3-6-1-1 2-9-6-2 3-7-1v-7h5l-1-3-5-2 1-4-7-2-1-4-3-1 4-5-3-1-1-4-3-1-2-5-6-2-2-8-5-2-2-3h3l4-4v-5l2-1v-14l-2-1 2-6-9-12-1 2-6 2-2-3 5-14-16-4-1-15 5-2 2-6-3-5 2-5-3-2-11-2-8 4-2-2-4 2h-6v-2l-4-3 1 5-2 2h-4l-2 4-3-2-4 2v17l-7 9 1 6-4 13-3 6-5 5-5 2-2-2-2-7-4-4h-8l-6 2-6 4-7 8 2 5-5 6-18 9-3 9-3 6h-2l-1 4 6 13-3 4-5 2v7l-2 1-2 5 1 5h-4l-2 3-4 1-3 5-1 10 2 4-3 1 11 11 4-1 10 10-3 6-3-3-3 2-5-4v-6l-10-3-2 10-8 4-2 12h5l1 3-2 12 7 3v4l-3 3-4-3-9 3v7l-12 1 3 7v6l-6 1-4-8-5-4v-6h-13l-5-3-8 1-3 3-5-1-4-4 3-6-3-2-1-13-8-4-8-1-2-2-3 3 2 4 2-1-3 7 1 3 5-2-1 6h4v4l-4 5-5-3h-3l-3 7-5 2-1 7-7 8-2 8-5 5h-5l-2 4 1 5-3 5-4 3-8 2-4 4v5l-4 3-12-1-5-3-8 5-5-3-1-4-5-1-4 7 8 8 4 8-2 8-2 2 1 4-2 3-7 3-3-2-5 1v3h-6l-3 6 6 8-1 10-5 3v7l-4 8v6l-3 3-1 8h-5l-3 3v3l-3 4 2 4h4l3 2 1 4-2 3v6l-3 4-1 6 2 3-3 17 4 4h10l-5 20 1 6-2 5-6 1-7 4-4 9 4 4v2l-6 6v9l4 2 1 8 7-2 4 5-1 4h2l4-5 6-2 2 3 12 7v5l-4 4 5 11v7l6-4v-2h5l-2-3v-5l8-7 3-5 11 1 8 4 8-5 1-8-7-5-5-8-4-3 3-9-11-7 1-13 7-6-3-7 1-3 5-1 8 3v5l5 1 3 3-3 9 5 5v7l2-2 3 1 1 3 10-5 2-6 3-1 1-4 13-5h7l4 5 4-2 2-5-1-4h-4v-4l3-3 2-6 5-3 6-1 4 2 2-6-3-4 5-1 3-7v-7l4 1 1-4h8l3-2 6 4 1 3-5 3v3l3 2h6l4-3 1 6 4 3 1 5 7-1 2 2 3-3 4 1 2-3 6-2 5-6 3 2 4 7v4l5 5 6-3 3-7 9 6 2-15 5-8h7l1 2-2 4 7-1 1-3 4-2-1-3 3-2 3 2 4-1 3-4v-4l3-1 7 2 3-2-5-2 2-3 6 4 18-2 10 4 2 5 9 12-2 2 3 5 8 3 1 4 2-1 8 4 3-2 10 8 6-2h8l2-4h3l3-9 6-4 11 4 5-4v-3h8l11 8zm-355 46-3-1-2 2 6 2zm687-226v6l3-1 2-6zm-7-6 1 4 4-2v-4h-4zm-162 28v8l6-1 1-3h-3l4-4-4 2zm26 1 2-1-6-2-9 4 11 3zm-186 105 2 4 5-4-11-4zm197 14 7 2-5-5zm-161-20-1 3 4 3h4v4l3-1 4 3-2-4 1-6 3-3h-12zm-39 50 5 2 1-5zm200-55-2 2 2 3 8-4-5-4zm-115 87 5-3h5l4-6v-5l-13 3-1 6-3 1zm42-28v2l6-1-3-3zm-4-52 1-3-6-2v3zm-2 63 5 1 3-2-3-5-3 1 1 2zm88-175 1 3 5-3zm-135 169-2 4 2 1 3-4-4-4zm-88-28 2 4 3 1 8-4 5 1 3-5-8-4-14 4zm13 5h4l-3-2zm221-202 6-1 1-3-4 1zm-98 222 5-3 1-4 5-1 2-11-3-3-4 1-6 6v3l-6 5 3 6zm31-131 3-1-2-5-3 4zm-32 156 1 3 4-3-1-3zm83-174 7-4h6l-1-3-5-2-3-9-6-4h-6l-6 6v7l8 7zm-80 48 1 3 6 2 1-7h-5zm-172 70 19-3 14-10 1-6-5-3-13 5-8-1-6-4-3 1-3 4-2 8 2 6zm40-20 4-1 1-4-5 2z"/>
</svg>
