<?xml version="1.0" encoding="UTF-8" standalone="no"?>
<svg
   width="1775"
   height="1931"
   viewBox="-251 -228 1775 1931"
   version="1.1"
   id="svg1"
   xmlns="http://www.w3.org/2000/svg"
   xmlns:svg="http://www.w3.org/2000/svg">
  <defs
     id="defs1" />
  <path
     stroke="#ffff00"
     stroke-opacity="1"
     stroke-width="0.5"
     stroke-linecap="round"
     stroke-linejoin="round"
     stroke-dasharray="none"
     fill="#1e90ff"
     fill-opacity="1"
     fill-rule="evenodd"
     d="m 1186,496.99999 -6,-8 -7,-4 h -8 v 3 l -5,4 -11,-4 -6,4 -3,9 h -3 l -2,4 h -8 l -6,2 -4,-2 -2,-4 -4,-2 -3,2 -8,-4 -2,1 -1,-4 -8,-3 -3,-5 2,-2 -9,-12 -2,-5 -10,-4 -18,2 -6,-4 -2,3 5,2 -3,2 -7,-2 -3,1 v 4 l -3,4 -4,1 -3,-2 -3,2 1,3 -4,2 -1,3 -7,1 2,-4 -1,-2 h -7 l -5,8 -2,15 -9,-6 -3,7 -6,3 -5,-5 v -4 l -4,-7 -3,-2 -5,6 -6,2 -2,3 -4,-1 -3,3 -2,-2 -7,1 -1,-5 -4,-3 -1,-6 -4,3 h -6 l -3,-2 v -3 l 5,-3 -1,-3 -6,-4 -3,2 h -8 l -1,4 -4,-1 v 7 l -3,7 -5,1 3,4 -2,6 -4,-2 -6,1 -5,3 -2,6 -3,3 v 4 h 4 l 1,4 -2,5 -4,2 -4,-5 h -7 l -13,5 -1,4 -3,1 -2,6 -10,5 -6,-2 v -7 l -5,-5 3,-9 -3,-3 -5,-1 v -5 l -8,-3 -5,1 -1,3 3,7 -7,6 -1,13 11,7 -3,9 4,3 5,8 7,5 -1,8 -8,5 -8,-4 -11,-1 -3,5 -8,7 v 5 l 2,3 h -5 v 2 l -6,4 3,10 -4,10 -4,1 -8,-4 -7,-1 -5,4 5,7 -1,2 -3,-2 h -5 l -3,2 -1,8 2,4 h -5 l -1,15 3,4 5,-2 -2,8 4,15 h 4 l -3,6 2,3 -3,1 -5,-4 -9,2 -14,-1 3,7 -3,7 v 19 l 2,3 -2,4 2,1 -2,10 2,4 -5,9 4,5 -2,1 -2,-4 -10,-3 -3,2 2,11 -6,2 1,-12 -10,-9 -7,8 1,3 -3,1 -2,4 3,1 3,9 -6,4 -3,-1 -2,9 -3,4 3,2 2,4 6,4 6,24 18,10 16,19 6,-1 1,-4 9,-4 2,3 2,-1 -1,-4 3,3 1,-5 4,3 3,-1 2,-9 5,4 h 3 l 1,-4 h 12 l 3,3 -1,2 h 6 v 3 l 6,2 7,-4 -1,10 h 2 l 3,-4 h 3 l 3,-7 2,3 5,1 9,-6 3,-3 -2,-1 4,-4 h 5 l 5,5 5,2 9,-2 -1,4 11,-10 6,-1 v -3 l 5,-6 h 3 l 3,-5 v 19 l 9,-8 14,-1 4,-3 h 6 l 2,-2 8,-2 3,2 4,-3 1,2 5,-2 10,1 7,3 -2,6 -8,7 7,1 3,4 -4,2 1,4 4,4 h -3 l -5,12 v 5 l 7,6 1,7 h 3 l -1,4 h 3 l 1,4 -3,-2 -2,1 8,12 8,1 1,3 8,-8 3,9 4,6 -1,6 -7,9 -5,-1 1,8 3,2 13,-8 v 4 h 6 l -4,11 v 9 l 9,7 h 24 l 1,-13 -4,-12 2,-13 3,-6 14,6 2,5 8,2 4,-5 6,3 -4,13 2,4 -6,6 3,3 v 6 l 2,1 7,-15 10,1 -2,9 8,11 v 3 l -6,5 -2,4 4,3 2,-3 7,-4 5,2 -1,4 6,-2 2,-6 4,-2 1,-3 4,-3 -2,-5 -6,-6 1,-7 5,-2 4,10 -1,5 4,6 -3,11 5,7 -3,3 3,5 5,-3 9,1 5,-2 3,-4 v -4 l -5,3 -5,-1 9,-4 2,1 2,-2 -3,-15 h 4 l 1,-11 -5,-1 v 4 l -4,-2 -2,2 -7,-2 7,-4 3,-7 9,-3 2,3 h 3 l -2,4 1,4 h 7 v 3 l 5,5 7,2 7,8 h 6 l 4,-6 -8,-3 1,-6 14,-10 h 4 l 4,-3 5,1 2,4 4,1 4,-2 -3,-3 2,-7 -4,1 -3,-2 h -4 l -1,-3 -5,-1 -2,-6 1,-9 11,-6 4,5 6,-1 6,-7 1,-5 -2,-2 -5,2 -10,-2 -5,-4 4,-5 v -4 l -12,-7 -8,2 -3,-9 5,-7 v -5 h -3 l -20,11 -3,7 -3,-1 -4,3 -3,6 -3,2 3,8 5,2 4,10 -2,5 1,6 3,1 -2,2 -8,1 -7,8 1,3 -2,3 -7,2 -1,-6 h -3 l -3,4 -4,1 1,-6 -5,-7 v -7 l 2,-6 -1,-8 -6,-8 1,-4 -2,-3 -10,5 -13,-1 v -4 l 3,-3 -1,-11 -3,-1 -2,3 h -8 l -4,-3 h -5 l -2,-12 6,-3 v -2 l 13,-4 21,2 7,-3 3,-7 -3,-5 3,-5 6,2 4,-11 -1,-4 -3,-3 v -42 l 3,-6 3,-2 16,-3 3,-2 2,-11 5,-13 3,-20 -3,-5 -5,-3 -9,3 -4,-2 -4,-25 h -4 l -1,-7 -8,-5 -3,-10 -3,-3 1,-7 8,-4 6,-6 7,-3 2,-7 4,-4 v -4 l -3,-3 -1,-4 3,-3 17,-2 17,-7 4,1 6,6 6,-5 2,-5 -6,-2 1,-4 14,-6 6,3 1,3 17,-1 1,-4 15,-13 3,-9 -8,1 -17,7 -6,-2 1,-5 -7,-8 v -3 l -9,-16 1,-5 -7,-22 z m 253,71 -3,1 -1,-5 h -2 l -2,6 3,-2 2,3 -1,4 5,1 3,-5 3,2 -1,-4 -4,-3 z m -217,320 3,-3 v -5 l -4,-2 v 2 l -5,1 -3,-3 1,8 h 2 z m -116,-18 11,-11 1,-6 -12,8 -3,6 -2,-5 -2,5 z m 155,-238 4,2 1,-6 -7,-5 -5,5 -6,3 v 11 l 3,-1 1,-6 z m -14,109 4,-2 5,-6 h -6 l -3,4 z m -96,239 12,-3 -4,-3 -1,-4 -3,3 -6,2 z m -4,20 1,-3 6,-1 -5,-5 2,-6 -4,2 -2,5 v 7 z m 86,-335 3,-3 3,1 9,-10 h -7 l -2,3 -6,-2 1,-3 -5,-1 -2,12 z m -104,2 4,-2 -1,-4 2,-4 -5,-2 -6,-6 -7,1 -1,6 5,7 8,2 z m 87,-115 4,-1 -3,-2 z m -149,437 5,1 -1,-3 2,-6 -7,3 -2,4 z m 69,-127 v 2 l 4,4 10,-3 4,2 3,-2 -1,-10 -4,3 -9,3 -2,-4 z m 4,-45 3,-2 -4,-1 z m 1,-148 3,-7 -3,-1 -5,4 5,8 z M 1170,1002 l 3,4 1,-4 z m 58,-453.00001 -3,5 4,-1 z m 30,73 5,-3 h -3 z m -22,112 6,-5 -2,-2 -7,1 v 2 z m -109,118 1,1 7,-5 -6,2 z m -90,95 h 3 l -1,-3 z m 89,-274 3,2 1,-4 -4,-1 z m 128,-60 3,-2 -1,-6 -4,5 z m 85,-29 5,-4 -4,2 z m -208,271 -1,4 h 6 l 3,-3 -4,-5 z m -25,-2 1,3 3,-5 z"
     id="福州市" />
  <path
     stroke="#ffff00"
     stroke-opacity="1"
     stroke-width="0.5"
     stroke-linecap="round"
     stroke-linejoin="round"
     stroke-dasharray="none"
     fill="#1e90ff"
     fill-opacity="1"
     fill-rule="evenodd"
     d="m 548,1356 2,-11 4,-8 7,-26 14,-16 10,-6 7,10 13,11 14,8 17,-4 27,-3 4,-3 -1,-4 2,-6 -5,-2 4,-3 h -7 l -1,-4 -4,-3 v -6 l -4,4 -1,-3 6,-7 1,-3 -2,-5 3,-3 1,-6 -5,-4 v -3 l -6,-4 v -3 l 5,-8 -1,-4 -4,-2 -2,-6 7,-1 v -8 h 3 l -2,-3 -2,2 -4,-4 1,-6 -5,-2 -4,-9 -6,-2 -7,3 -5,-3 -3,3 -4,-1 -3,-5 1,-5 -11,-6 v -5 l 3,-1 -4,-4 -12,-2 -4,2 -4,-1 -5,2 -4,6 -10,4 -3,4 -2,-3 v -5 l -3,-1 -2,4 -6,-7 -2,-6 -8,-1 -2,3 -5,-2 -2,2 5,2 4,4 -1,2 -6,-1 -2,4 3,3 -10,4 -5,-8 -4,-1 -4,2 -2,-4 -4,-1 -2,3 10,11 8,1 -1,21 -2,9 -5,10 9,28 -3,2 -1,7 -9,7 -3,7 -11,1 1,6 -3,3 10,8 -2,6 2,3 -1,5 7,3 3,5 7,5 2,9 -2,8 2,6 4,4 h 4 l 3,5 13,1 z m 57,-35 -1,-8 -4,-5 -8,-4 h -5 l -5,-6 -11,3 -8,9 -5,15 -2,16 7,9 6,3 14,2 4,-6 16,-13 3,-6 z m 63,-20 h 6 l -3,-2 z m -112,48 3,-2 -1,-3 -5,-2 -2,3 2,3 z"
     id="厦门市" />
  <path
     stroke="#ffff00"
     stroke-opacity="1"
     stroke-width="0.5"
     stroke-linecap="round"
     stroke-linejoin="round"
     stroke-dasharray="none"
     fill="#1e90ff"
     fill-opacity="1"
     fill-rule="evenodd"
     d="m 858,1025 7,-1 -1,-5 5,1 7,-4 2,-3 11,1 4,-3 7,1 3,3 -2,5 h -4 l -4,-5 -3,5 -1,7 h -3 l 1,6 4,4 v 4 l 8,-1 16,-6 3,5 4,-2 -1,8 -4,7 -3,3 -6,-3 -3,4 v 10 l 3,6 14,10 3,-3 18,1 3,4 h -4 l -8,8 4,7 -2,2 h -9 l 6,4 v 4 l 5,3 v 5 h 3 l -1,-3 8,-14 h -2 v -11 l 6,-4 3,-21 -2,-2 -5,1 -3,-2 2,-2 -1,-5 -8,-2 -4,-8 4,-7 7,-5 3,8 13,11 h 6 l 12,-5 11,6 3,6 16,-12 v -2 l -5,-4 -3,-12 8,-1 6,3 4,-4 h 5 l 8,-4 3,-10 -6,1 -12,-5 -14,-18.00001 h -11 l -5,-3 -2,1 v 7 h -3 l -5,-11 1,-3 -4,-7 h -8 l -9,-3 -3,-4 -4,1 -3,-2 3,-15 6,-5 10,6 15,-10 -9,-10 -1,-8 5,1 7,-9 1,-6 -4,-6 -3,-9 -8,8 -1,-3 -8,-1 -8,-12 2,-1 3,2 -1,-4 h -3 l 1,-4 h -3 l -1,-7 -7,-6 v -5 l 5,-12 h 3 l -4,-4 -1,-4 4,-2 -3,-4 -7,-1 8,-7 2,-6 -7,-3 -10,-1 -5,2 -1,-2 -4,3 -3,-2 -8,2 -2,2 h -6 l -4,3 -14,1 -9,8 v -19 l -3,5 h -3 l -5,6 v 3 l -6,1 -11,10 1,-4 -9,2 -5,-2 -5,-5 h -5 l -4,4 2,1 -12,9 -5,-1 -2,-3 -3,7 h -3 l -3,4 h -2 l 1,-10 -7,4 -6,-2 v -3 h -6 l 1,-2 -3,-3 h -12 l -1,4 h -3 l -5,-4 -2,9 -3,1 -4,-3 -1,5 -3,-3 1,4 -2,1 -2,-3 -9,4 -1,4 2,2 -5,6 7,4 -2,6 -12,15 -1,7 -7,5 -9,14 v 8 l 3,2 -3,3 5,1 -1,5 -2,1 -4,9 4,8 4,-1 2,9 4,1 -2,6 4,1 9,10 -2,10 -4,7 3,2 3,-6 3,2 -2,5 1,7.00001 14,2 2,-6 h 7 l 7,4 6,-4 h 8 l 4,5 -1,4 -5,2 -1,2 5,5 1,-3 h 3 l 3,-3 6,5 -4,6 1,4 -2,2 v 7 h 3 l -3,5 h -3 l 1,9 5,3 v 6 l 5,-1 5,-5 3,1 5,-8 2,1 7,-4 h 5 l -1,-4 2,-4 7,-2 10,1 7,-3 1,3 7,-4 v -4 l 2,-2 z m 208,18 14,6 v 5 l 4,1 1,4 11,-3 -2,-6 3,-1 -1,-4 h 6 l 3,-5 -4,-2 -4,3 -4,-3 -2,3 -8,-2 -1,-3 h -3 l -3,-3 v -7 l -4,-3 -3,1 v -5 l -3,-1 -1,5 -6,2 1,2 h -6 l 3,6 -2,4 1,4 z m 40,-27 -1,-2 -3,4 z m -76,60 2,-2 -3,-3 -1,4 z m 53,-60 h 5 l -2,-6 h -3 l -2,5 z m -171,66 1,2 3,-3 z m 198,-35 h 4 l -3,-3 z m -91,-50.00001 3,-3 -2,-2 -2,3 z m 86,25.00001 3,3 v -4 z m -204,31 h 3 l 4,-5 -2,-2 -6,3 z m 128,-62.00001 h 3 l -5,-3 z M 1062,1130 v -4 l -4,-1 z"
     id="莆田市" />
  <path
     stroke="#ffff00"
     stroke-opacity="1"
     stroke-width="0.5"
     stroke-linecap="round"
     stroke-linejoin="round"
     stroke-dasharray="none"
     fill="#1e90ff"
     fill-opacity="1"
     fill-rule="evenodd"
     d="m 428,915.99999 6,-1 -1,2 4,2 3,-1 4,4 3,-1 6,7 4,2 -3,-6 v -7 l 5,1 6,-4 7,10 5,2 4,-3 10,-1 15,-5 3,-6 8,-2 7,6 -1,-6 5,-3 3,-5 10,-8 2,-7 2,-2 1,-11 -2,-4 h -4 l -2,3 -6,2 -4,-1 -1,2 -2,-5 -3,-1 -3,-6 -4,1 -1,-6 -5,2 -1,-3 4,-4 -1,-2 5,1 3,-4 12,-2 2,-2 3,-11 -2,-2 -2,3 -5,-6 -5,-12 h 2 l 2,-4 h 7 l 2,-10 -2,-1 2,-7 5,-7 1,4 2,-5 -6,-4 -1,-5 6,-3 3,3 4,-1 5,4 8,-6 -3,-5 v -3 l 7,-1 12,-6 h 6 l 3,-3 8,3 1,7 h 6 l 5,-6 h 2 l 6,6 6,-5 7,-1 2,-2 -3,-5 4,-6 h 3 l 4,3 5,-2 3,6 7,-1 3,-8 6,3 3,13 10,-1 5,4 3,-1 -1,-3 6,-8 11,9 -1,12 6,-2 -2,-11 3,-2 10,3 2,4 2,-1 -4,-5 5,-9 -2,-4 2,-10 -2,-1 2,-4 -2,-3 v -19 l 3,-7 -3,-7 14,1 9,-2 5,4 3,-1 -2,-3 3,-6 h -4 l -4,-15 2,-8 -5,2 -3,-4 v -12 l 1,-3 h 5 l -2,-4 1,-8 3,-2 h 5 l 3,2 1,-2 -5,-7 5,-4 7,1 8,4 4,-1 2,-7 -5,-8 h -5 l -3,-3 -1,-7 h -6 l -2,-6 -3,-1 -3,-4 v -3 l -11,-1 1,-4 -3,-3 h -5 l -6,3 -3,-7 -6,-5 h -2 l -15,11 -1,-5 -5,-2 -4,-6 v -4 l 4,-5 4,4 2,-2 v -7 l -4,4 h -18 l -8,-6 -4,3 -4,-1 -2,-5 -1,3 -5,1 -2,-5 4,-3 v -5 l -4,3 h -4 l -2,-3 -3,3 1,5 -4,2 -4,-3 h -3 l -4,5 1,4 -3,2 -5,-1 1,-3 -7,-2 -3,2 v 4 l -5,4 -4,1 -3,-3 -5,1 -1,3 h -4 l -7,6 -2,-5 -6,-1 v -6 l -8,-1 -2,-4 1,-4 -2,-3 -6,-1 -3,-5 2,-6 -3,-7 -4,-1 -3,3 -3,-5 3,-4 -1,-4 4,-3 -3,-3 -6,2 -6,-2 1,-7 -5,-4 1,-5 6,-7 -6,-4 h -6 l 1,4 -2,2 -2,-2 -8,2 -3,-4 -7,6 -7,-2 -1,-3 -6,3 -2,3 -2,-10 -4,-1 2,-6 -4,-1 -1,-8 6,-1 v -3 l -5,-4 1,-6 -4,-2 4,-6 -2,-2 -5,1 -5,4 -3,-2 -1,2 -4,-2 -4,2 h -5 l -4,5 -3,-3 -6,1 -6,-2 -9,5 -2,5 -5,-2 -1,3 -5,1 -1,-5 2,-4 h -9 l -1,-7 -14,-5 1,-5 -5,-2 3,-2 4,-8 5,1 2,-4 6,-2 3,-11 6,-7 -2,-3 2,-5 -7,-6 -4,-7 -3,-2 -1,-7 -4,-6 h -2 l -4,-5 -5,-3 -4,-12 h -6 l -4,-3 -2,3 -8,-1 -3,2 -4,-3 1,-10 9,-4 1,-9 4,-4 -4,-1 -2,-3 -6,-3 h -10 v -5 l -2,4 -5,1 -3,3 -2,-1 v -6 l -3,-1 1,-8 -4,-2 -3,1 4,-8 -12,5 -4,-6 -4,-1 v -13 l -13,2 -8,-7 -9,-3 -5,-4 -4,2 -1,5 h 5 l 1,5 -3,4 v 14 l -8,4 -2,5 h -4 v -3 l -16,-7 -7,-14 -7,-7 -14,7 -7,-6 h -2 l -4,6 -5,-2 -3,-5 -4,4 -20,8 -11,8 -12,17 -3,-5 h -12 l -5,2 -7,6 -4,1 -12,-3 -13,3 -6,4 -3,7 -8,-4 -11,1 -9,5 -8,7 -9,11 -11,19 -20,19 -2,15 6,15 -3,7 -13,12 -1,5 3,10 11,13 5,1 1,3 -5,27 -5,3 v 5 l 14,10 v 4 l 7,5 -3,5 4,3 -1,2 5,3 10,-1 -1,6 -2,2 -1,6 -6,5 -3,7 v 4 l 3,5 -4,9 -6,2 -5,-2 -6,3 2,-8 -2,-6 -3,1 -4,-2 v -3 l -6,-1 -3,8 -4,2 -2,7 2,3 -14,7 -2,5 -6,5 -1,5 -3,3 -5,1 3,3 -1,5 -6,2 -4,7 1,5 -3,2 2,9 -1,3 4,2 v 6 l -3,8 8,4 h 8 l 6,-2 4,-4 h 3 l 4,6 v 9 l 3,4 -1,6 -16,14 -8,5 -1,5 -7,3 v 6 l 14,7 13,2 2,4 1,10 5,4 15,-13 16,7 4,-5 7,3 5,-3 1,-9 9,6 -3,8 2,15 6,2 3,3 h 3 l 2,5 7,1 4,4 7,3 2,4 2,14 3,3 8,-5 5,1 -4,10 v 8 l 14,11 16,-5 10,-16 5,-5 7,-3 9,4 1,2 12,-5 h 14 l 5,17 7,11 v 7 l 3,4 -2,4 2,5 -6,4 2,4 3,-2 2,5 v 6 l -3,3 5,1 3,6 h -3 l 3,7 9,-2 10,3 3,7 10,14 -1,11 6,-2 5,6 6,-4 h -5 l 4,-8 9,-12 1,-6 17,-13 v -5 l -4,-4 -7,2 -2,-1 7,-16 6,-5 8,-1 14,-6 1,-10 2,-2 8,1 3,12 -2,2 2,8 3,3 v -6 l 2,1 2,17 -5,9 1,4 h 5 l 13,-4 6,-18 5,-3 1,-3 -5,-1 1,-2 9,-2 1,3 4,-1 -3,5 2,6 3,2 4,-6 7,-3 2,1 2,7 4,3 8,2 5,8 -3,3 5,7 17,-9 5,3 6,10 7,6 8,14 11,-3 -1,11 -7,9 -8,-5 -3,2 -3,8 1,10 4,-3 z"
     id="三明市" />
  <path
     stroke="#ffff00"
     stroke-opacity="1"
     stroke-width="0.5"
     stroke-linecap="round"
     stroke-linejoin="round"
     stroke-dasharray="none"
     fill="#1e90ff"
     fill-opacity="1"
     fill-rule="evenodd"
     d="m 858,1025 h -9 l -2,2 v 4 l -7,4 -1,-3 -7,3 -17,1 -2,4 1,4 h -5 l -7,4 -2,-1 -5,8 -3,-1 -5,5 -5,1 v -6 l -5,-3 -1,-9 h 3 l 3,-5 h -3 v -7 l 2,-2 -1,-4 4,-6 -6,-5 -3,3 h -3 l -1,3 -5,-5 1,-2 5,-2 1,-4 -4,-5 h -8 l -6,4 -7,-4 h -7 l -2,6 -14,-2 -1,-7.00001 2,-5 -3,-2 -3,6 -3,-2 4,-7 2,-10 -9,-10 -4,-1 2,-6 -4,-1 -2,-9 -4,1 -4,-8 4,-9 2,-1 1,-5 -5,-1 3,-3 -3,-2 v -8 l 9,-13 7,-6 1,-7 12,-15 2,-6 -7,-4 5,-6 -2,-2 -6,1 -16,-19 -18,-10 -6,-24 -6,-4 -2,-4 -3,-2 3,-4 2,-9 3,1 6,-4 -3,-9 -3,-1 2,-4 -5,-4 -10,1 -3,-13 -4,-3 h -2 l -3,8 -7,1 -3,-6 -5,2 -4,-3 h -3 l -4,6 3,5 -2,2 -7,1 -6,5 -6,-6 h -2 l -5,6 h -6 l -1,-7 -8,-3 -3,3 h -6 l -12,6 -7,1 v 3 l 3,5 -8,6 -5,-4 -4,1 -3,-3 -6,3 1,5 6,4 -2,5 -1,-4 -5,7 -2,7 2,1 -2,10 h -7 l -2,4 h -2 l 5,12 5,6 2,-3 2,2 -3,11 -2,2 -12,2 -3,4 -5,-1 1,2 -4,4 1,3 5,-2 1,6 4,-1 3,6 3,1 2,5 1,-2 4,1 6,-2 2,-3 h 4 l 2,4 -1,11 -2,2 -2,7 -10,8 -3,5 -5,3 1,6 -7,-6 -8,2 -3,6 -15,5 -10,1 -4,3 -5,-2 -7,-10 -6,4 -5,-1 v 7 l 3,6 -4,-2 -6,-7 -3,1 -4,-4 -3,1 -4,-2 1,-2 -6,1 -1,9 2,4 -3,1 -3,8 -3,1 -2,6 3,7 -6,11 3,2 v 9 l -5,5 1,4 -7,4 -2,6 -13,9.00001 -7,2 2,4 -1,10 7,5 -3,10 h -7 l -6,-4 -3,5 -5,3 v 7 l 2,3 4,-1 3,6 15,6 -1,5 3,4 16,5 v 11 l 2,4 8,4 3,4 5,-4 4,11 -2,3 4,2 v 5 l -7,4 -1,5 h -5 l -3,5 -3,1 -5,-5 -6,2 v 6 l -14,7 -5,6 1,7 9,2 v 5 l -6,6 1,9 3,4 h 4 l 3,3 14,4 10,-6 7,-7 15,5 v 5 l 2,2 5,-2 3,-4 2,6 3,1 5,-7 -2,-3 5,-3 6,3 5,-2 3,3 4,-10 4,4 2,5 5,1 2,-3 4,1 2,4 4,-2 4,1 5,8 10,-4 -3,-3 2,-4 6,1 1,-2 -4,-4 -5,-2 2,-2 5,2 2,-3 8,1 2,6 6,7 2,-4 3,1 v 5 l 2,3 3,-4 10,-4 4,-6 5,-2 4,1 4,-2 12,2 4,4 -3,1 v 5 l 11,6 -1,5 3,5 4,1 3,-3 5,3 7,-3 6,2 4,9 5,2 -1,6 4,4 2,-2 2,3 h -3 v 8 l -7,1 2,6 4,2 1,4 -5,8 v 3 l 6,4 v 3 l 5,4 -1,6 -3,3 2,5 -7,10 1,3 4,-4 v 6 l 4,3 1,4 h 7 l 4,-3 2,3 4,-1 v -6 l 7,-3 8,-6 h 13 l 14,3 14,14 v 4 l -3,1 -1,4 7,4 1,8 -3,3 8,2 12,-6 2,-5 h 2 l 5,-6 7,-2 -1,-5 3,-3 h 4 l 2,-3 3,-11 v -10 l -6,1 -2,4 h -2 l -3,-13 1,-6 5,-4 6,7 7,-1 4,-5 h 3 l 3,-6 4,-3 -1,-3 4,-4 h -3 l 2,-3 1,2 5,-4 v -2 l 4,-3 3,-7 v -7 l -14,-1 -4,-2 -1,-13 h -4 l -3,3 -1,5 -7,-1 -6,2 -9,-6 -1,-14 15,-5 3,-5 2,1 -1,6 2,3 10,1 1,6 4,1 2,-9 13,-4 7,-5 h 5 l 5,6 4,-4 -3,-2 1,-3 h 3 l 6,-4 4,-1 21,7 6,-2 3,2 13,-4 -2,-6 -6,-2 -6,2 -4,-5 -4,1 -2,-5 -3,-2 v -3 l 5,-7 5,-2 14,6 -1,2 12,-3 6,-7 -5,-2 -3,2 -1,-5 -3,1 -3,-2 -1,-9 7,-1 2,-11 4,-7 -2,-6 -7,1 -2,5 h -3 l -3,7 -6,2 -5,-3 v -6 l -9,-5 -12,-11 1,-4 17,-2 13,-7 v -3 l -7,-2 -1,-9 5,-1 7,-5 v -12 l -4,-2 -1,-3 -7,1 -4,-2 2,-4 -10,-5 v -2 z m -177,292 -7,2 2,8 -6,4 3,2 -1,4 -5,2 -11,-4 -9,-7 -9,5 6,20 -8,1 v 3 l -3,2 5,3 2,4 7,3 h 5 l 6,-11 8,-6 h 12 l 10,3 2,3 -3,3 10,-3 1,-3 4,-2 -2,-4 4,-1 1,-4 -4,-5 v -4 l 2,-3 -4,-1 -3,-10 -6,-1 -3,-6 -6,-2 z m -67,45 6,-2 3,-4 6,-2 1,-8 -6,-4 -8,3 -2,7 -3,1 -1,8 z m 282,-313 -1,-1 -3,5 z m 9,61 h 3 l -4,-4 z"
     id="泉州市" />
  <path
     stroke="#ffff00"
     stroke-opacity="1"
     stroke-width="0.5"
     stroke-linecap="round"
     stroke-linejoin="round"
     stroke-dasharray="none"
     fill="#1e90ff"
     fill-opacity="1"
     fill-rule="evenodd"
     d="m 131,1375 -2,8 4,3 v 5 l 4,3 -2,4 v 10 h 6 l 3,2 v 17 l -2,8 8,1 6,8 2,-1 8,8 -9,10 h -3 l -11,11 -3,11 1,13 2,5 h 6 l -1,6 -3,2 5,5 v 6 l 2,2 3,-2 5,4 -3,2 v 7 l 3,6 -1,7 -2,6 -7,2 2,3 -1,5 6,2 2,5 -2,4 -5,2 1,3 7,2 1,-2 4,-1 6,3 4,7 1,7 -3,3 1,5 5,5 3,10 2,2 v 13 l 2,11 7,3 6,8 9,2 4,7 8,-3 4,6 6,2 4,-1 3,3 v 27 l 28,-2 7,-2 5,8 5,1 16,-3 8,1 16,-7 10,-1 3,-4 v -6 l -3,-3 v -9 l 4,-4 10,-1 3,-3 -1,-7 -3,-2 -1,-3 5,-10 h 6 l 10,-4 20,5 5,-4 5,-15 4,-7 8,-8 v -4 l -3,-7 2,-14 5,-11 7,-4 5,-1 21,2 9,-6 2,-2 5,-17 15,-14 6,-8 h 9 l 8,-3 6,-11 -1,-14 3,-8 5,-7 20,-16 v -10 l 7,-8 7,-1 13,-10 15,-2 3,-3 v -6 h 7 l 5,-5 v -5 l -5,-7 1,-5 -7,-5 -2,-11 -4,-4 h -11 l -2,-2 3,-4 2,-14 -15,-4 -20,-2 -3,-5 h -4 l -4,-4 -2,-6 2,-8 -2,-9 -7,-5 -3,-5 -7,-3 1,-5 -2,-3 2,-6 -10,-8 3,-3 -1,-6 11,-1 3,-7 9,-7 1,-7 3,-2 -9,-28 5,-10 2,-9 1,-21 -8,-1 -6,-8 -4,-3 -5,-1 -2,-5 -4,-4 -4,10 -3,-3 -5,2 -6,-3 -5,3 2,3 -5,7 -3,-1 -2,-6 -3,4 -5,2 -2,-2 v -5 l -15,-5 -7,7 -10,6 -14,-4 -3,-3 h -4 l -3,-4 -1,-9 6,-6 v -5 l -9,-2 -1,-7 5,-6 14,-7 v -6 l 6,-2 5,5 3,-1 3,-5 h 5 l 1,-5 7,-4 v -5 l -4,-2 2,-3 -4,-11 -5,4 -3,-4 -8,-4 -2,-4 v -11 l -16,-5 -3,-4 1,-5 -15,-6 -3,-6 -4,1 -2,-3 v -7 l -4,1 1,7 -5,-3 -2,6 -5,4 h -6 l -1,4 h -4 l -2,15 1,3 8,5 2,7 -2,20 -5,10 2,18 -1,4 h -17 l -8,-7 -15,-2 -8,5 -7,-3 -9,4 h -4 l -2,-3 -4,2 1,-5 -2,-3 -3,1 -4,6 -11,4 -1,4 h 4 l -3,12 -4,6 h -3 l -3,-5 -9,-2 1,9 3,1 v 7 l -9,7 -1,16 -5,5 -4,10 -3,2 -12,-2 -8,3 -4,-2 v -14 l -5,-1 -2,12 -10,8 v 14 l -2,12 3,6 5,1 -2,8 4,7 -1,8 -2,3 -6,-1 -2,6 4,5 -3,19 -8,6 -6,-2 h -12 l -5,4 1,5 -2,3 -3,-5 -4,5 2,10 7,13 3,10 -3,17 -3,3 -9,1 z m 294,238 3,1 2,-2 -6,-2 z m -10,-5 4,4 -1,-3 z m 171,-213 1,-5 -3,-3 z m -176,211 3,1 -2,-6 z"
     id="漳州市" />
  <path
     stroke="#ffff00"
     stroke-opacity="1"
     stroke-width="0.5"
     stroke-linecap="round"
     stroke-linejoin="round"
     stroke-dasharray="none"
     fill="#1e90ff"
     fill-opacity="1"
     fill-rule="evenodd"
     d="m 990,139.99999 -5,1 v -5 l -2,4 -7,1 -5,-2 -6,2 -5,-4 -12,1 -3,-4 -4,1 -2,-2 1,-6 -2,-4 h 4 v -4 l -6,-5 -9,8 -6,-3 -3,2 -3,-4 -7,-2 -6,-7 -8,1 -3,-3 -3,3 3,3 -1,5 -8,1 -4,10 -2,-3 -6,-3 h -11 l -2,-6 -3,-2 1,-4 -4,-2 -2,-8 -6,1 v -5 l 4,-5 7,-3 3,-7 5,-2 -3,-9 2,-2 v -6 l 2,-4 -4,-1 1,-7 -9,-12 -2,-6 2,-2 -2,-5 1,-2 h 8 l -1,-6 -2,1 -7,-8 -7,-15 -5,-2 v -4 l 5,-3 -2,-7 -3,-3 -1,-8 -4,-3 4,-8 -4,-4 2,-4 -4,-4 -1,-9 -5,-1 v -3 l -18,-7 v -2 l -9,-10 1,-8 -2,-3 v -6 l 3,-5 -1,-4 -4,-4 -1,-8 6,-4 3,-6 7,-2 1,-4 3,-2 4,1 7,-5 -1,-6 2,-8 -3,-7 -5,-2 -8,3 3,-8 12,-9 3,-7 -3,-7 -8,-1 -10,-4 -5,-6 v -4 l -5,-1 1,-7 -4,-6 -7,1 -3,8 -6,8 h -3 l -5,-3 -11,9 h -10 l 1,-7 -5,-5 -9,1 -4,-2 -1,5 -5,2 h -6 l -3,-4 -4,3 -1,4 4,7 -5,3 -3,-3 -8,1 -5,-3 1,-4 h -4 l -3,-8 1,-5 h -3 l -13,11 h -6 l -3,5 -5,1 -2,7 -2,-1 -9,6 7,6 2,6 13,2 v 6 l 2,3 -7,4 v 7 l 3,4 -5,3 v 13 l -5,3 -1,-2 h -11 l -6,3 -6,-1 -8,6 -4,-2 -7,6 -5,1 -4,3 -17,-5 -12,8 3,11 -2,2 -6,-2 -4,6 -1,8 2,6 -3,1 -5,-1 -2,-4 -3,-2 -7,1 -3,-3 -10,3 -3,-5 -5,8 -7,4 -8,-5 -9,5 -2,5 -8,1 -9,4 -4,-3 -2,4 -13,6 -11,12 1,4 -2,7 2,4 -4,8 -6,4 -2,6 -4,5 -4,-1 -10,-12 -8,3 -6,-7 -6,-4 -14,-5 -3,-3 v -6 l -3,-6 -3,-2 v -16 l -3,-1 -3,4 -4,-5 2,-3 -2,-4 -10,-4 v -3 h -4 l -3,3 -3,9 -11,9 -4,-4 h -3 l -9,12 -9,8 -14,4 -5,7 v 3 l -5,1 -2,-2 1,-7 -3,-7 h -4 l -5,9 -5,2 -3,-1 -2,9 6,2 4,6 -2,13 3,9 -4,5 -6,-2 v 8 l -4,4 -1,4 h -4 l -4,5 -6,-1 -8,4 -1,11 h -6 l -5,2 -18,-6 -6,3 -4,8 3,2 3,7 -2,1 1,4 -5,2 -6,-6 v -4 l -6,-7 -8,-1 -7,8 v 4 l -3,5 -1,-2 -2,4 5,6 -2,2 4,5 -2,12 1,3 8,4 3,-1 1,3 11,-9 3,7 2,1 2,5 v 9 l 3,6 -2,5 2,4 v 6 l 5,3 v 7 l 3,5 -2,7 -8,5 v 5 l -3,1 2,5 -1,11 3,5 12,2 -2,8 8,1 5,4 -2,10 -4,2 -2,8 -3,4 -8,7 -1,3 -4,2 -3,-1 -5,9 -13,13 -2,5 4,16 4,-4 3,5 5,2 4,-6 h 2 l 7,6 14,-7 7,7 7,14 16,7 v 3 h 4 l 2,-5 8,-4 v -14 l 3,-4 -1,-5 h -5 l 1,-5 4,-2 5,4 9,3 8,7 13,-2 v 13 l 4,1 4,6 12,-5 -4,8 3,-1 4,2 -1,8 3,1 v 6 l 2,1 3,-3 5,-1 2,-4 v 5 h 10 l 6,3 2,3 4,1 -4,4 -1,9 -9,4 -1,10 4,3 3,-2 8,1 2,-3 4,3 h 6 l 4,12 5,3 4,5 h 2 l 4,6 1,7 3,2 4,7 7,6 -2,5 2,3 -6,7 -3,11 -6,2 -2,4 -5,-1 -4,8 -3,2 5,2 -1,5 14,5 1,7 h 9 l -2,4 1,5 5,-1 1,-3 5,2 2,-5 9,-5 6,2 6,-1 3,3 4,-5 h 5 l 4,-2 4,2 1,-2 3,2 5,-4 5,-1 2,2 -4,6 4,2 -1,6 5,4 v 3 l -6,1 1,8 4,1 -2,6 4,1 2,10 2,-3 6,-3 1,3 7,2 7,-6 3,4 8,-2 2,2 2,-2 -1,-4 h 6 l 6,4 -6,7 -1,5 5,4 -1,7 6,2 6,-2 3,3 -4,3 1,4 -3,4 3,5 3,-3 4,1 3,7 -2,6 3,5 6,1 2,3 -1,4 2,4 8,1 v 6 l 6,1 2,5 7,-6 h 4 l 1,-3 5,-1 3,3 4,-1 5,-4 v -4 l 3,-2 7,2 -1,3 5,1 3,-2 -1,-4 4,-5 h 3 l 4,3 4,-2 -1,-5 3,-3 2,3 h 4 l 4,-3 v 5 l -4,3 2,5 5,-1 1,-3 2,5 4,1 4,-3 8,6 h 18 l 4,-4 v 7 l -2,2 -4,-4 -4,5 v 4 l 4,6 5,2 1,5 15,-11 h 2 l 6,5 3,7 6,-3 h 5 l 3,3 -1,4 11,1 v 3 l 3,4 3,1 2,6 h 6 l 1,7 3,3 h 5 l 5,8 2,-3 -3,-10 v -7 l -5,-11 4,-4 v -5 l -12,-7 -2,-3 -6,2 -4,5 h -2 l 1,-4 -4,-5 -7,2 -1,-8 -4,-2 v -9 l 6,-6 v -2 l -4,-4 4,-9 7,-4 6,-1 2,-5 -1,-6 5,-20 h -10 l -4,-4 3,-17 -2,-3 1,-6 3,-4 v -6 l 2,-3 -1,-4 -3,-2 h -4 l -2,-4 3,-4 v -3 l 3,-3 h 5 l 1,-8 3,-3 v -6 l 4,-8 v -7 l 5,-3 1,-10 -6,-8 3,-6 h 6 v -3 l 5,-1 3,2 7,-3 2,-3 -1,-4 2,-2 2,-8 -4,-8 -8,-8 4,-7 5,1 1,4 5,3 8,-5 5,3 12,1 4,-3 v -5 l 4,-4 8,-2 4,-3 3,-5 -1,-5 2,-4 h 5 l 5,-5 2,-8 7,-8 1,-7 5,-2 3,-7 h 3 l 5,3 4,-5 v -4 h -4 l 1,-6 -5,2 -1,-3 3,-7 -2,1 -2,-4 3,-3 2,2 8,1 8,4 1,13 3,2 -3,6 4,4 5,1 3,-3 8,-1 5,3 h 13 v 6 l 5,4 4,8 6,-1 v -6 l -3,-7 12,-1 v -7 l 9,-3 4,3 3,-3 v -4 l -7,-3 2,-12 -1,-3 h -5 l 2,-12 8,-4 2,-10 10,3 v 6 l 5,4 3,-2 3,3 3,-6 -10,-10 -4,1 -11,-11 3,-1 -2,-4 1,-10 3,-5 4,-1 2,-3 h 4 l -1,-5 2,-5 2,-1 v -7 l 5,-2 3,-4 -6,-13 z"
     id="南平市" />
  <path
     stroke="#ffff00"
     stroke-opacity="1"
     stroke-width="0.5"
     stroke-linecap="round"
     stroke-linejoin="round"
     stroke-dasharray="none"
     fill="#1e90ff"
     fill-opacity="1"
     fill-rule="evenodd"
     d="m -52,705.99999 -6,1 -5,10 -3,2 -1,3 4,12 -16,3 -2,6 -7,7 -8,4 h -4 l -4,4 -9,1 -3,-3 -6,3 h -6 l -5,3 -3,7 h -6 l -8,7 v 14 l 10,6 1,4 7,9 -2,11 -3,1 v -7 l -13,2 -8,15 -1,9 -9,2 -5,-3 v 5 l -3,-2 -1,5 3,3 -3,6 4,6 v 5 l -3,-2 -3,5 h -4 l 2,4 -2,4 4,3 1,9 3,6 -3,6 h -5 l -2,3 1,10 -8,3 -1,4 -3,3 1,7 h 4 l -2,7 3,7 v 7 l -2,3 h -4 l -1,2 2,6 -5,9 2,5 -3,6 h 3 l 2,5 -1,3 2,1 -3,8.00001 -5,4 -3,-3 -1,4 -3,1 -5,-3 -2,3 1,8 -7,12 -4,3 -6,-1 -4,6 -5,1 -3,-3 -5,5 v 23 h 7 l 5,10 -6,2 v 3 l 4,5 -1,4 10,3 4,5 -2,5 h 3 l 2,4 -3,5 -3,-2 -5,3 -3,5 -6,1 3,10 7,2 9,12 h -11 l -1,-4 -3,-2 -4,2 -1,5 5,3 3,6 h 2 l 4,5 17,2 3,2 5,-1 3,6 6,2 5,-4 8,8 5,10 4,1 2,4 6,-2 3,6 1,-4 8,-1 8,3 5,-1 10,-11 4,-1 3,7 4,2 4,5 v 4 l 3,2 3,-2 4,1 -6,11 7,3 5,-2 13,-1 6,-7 5,-3 v 2 l 5,-2 2,-12 4,-5 h 5 l 1,-3 6,-1 v 9 l 5,1 3,5 -14,8 -1,7 3,5 6,-1 3,7 4,4 -1,10 8,3 3,8 15,-2 5,8 1,13 5,6 -4,12 7,7 10,-3 6,-4 1,-3 5,-3 3,-7 11,5 h 3 l 1,-2 11,-5 h 9 l 3,2 3,-4 12,-1 5,5 8,-10 h 9 l 5,10 -1,4 -5,3 v 5 l -4,4 -2,5 -8,8 3,7 -4,4 v 3 l 6,5 h 3 l -1,3 3,6 3,4 8,5 -2,2 8,-5 6,7 4,7 -4,4 h -3 l -1,4 3,6 3,1 3,6 2,1 1,6 5,-2 6,11 v -4 l 9,-1 3,-3 3,-17 -3,-10 -7,-13 -2,-10 4,-5 3,5 2,-3 -1,-5 5,-4 h 12 l 6,2 8,-6 3,-19 -4,-5 2,-6 6,1 2,-3 1,-8 -4,-7 2,-8 -5,-1 -3,-6 2,-12 v -14 l 10,-8 2,-12 5,1 v 14 l 4,2 8,-3 12,2 3,-2 4,-10 5,-5 1,-16 9,-7 v -7 l -3,-1 -1,-9 9,2 3,5 h 3 l 4,-6 3,-12 h -4 l 1,-4 11,-4 4,-6 3,-1 2,3 -1,5 4,-2 2,3 h 4 l 9,-4 7,3 8,-5 15,2 8,7 h 17 l 1,-4 -2,-18 5,-10 2,-20 -2,-7 -8,-5 -1,-3 2,-15 h 4 l 1,-4 h 6 l 5,-4 2,-6 5,3 -1,-7 9,-4 3,-5 6,4 h 7 l 3,-10 -7,-5 1,-10 -2,-4 7,-2 13,-9.00001 2,-6 7,-4 -1,-4 5,-5 v -9 l -3,-2 6,-11 -3,-7 2,-6 3,-1 3,-8 3,-1 -2,-4 1,-9 -6,-2 -4,3 -1,-10 3,-8 3,-2 8,5 7,-9 1,-11 -11,3 -8,-14 -7,-6 -6,-10 -5,-3 -17,9 -5,-7 3,-3 -5,-8 -8,-2 -4,-3 -2,-7 -2,-1 -7,3 -4,6 -3,-2 -2,-6 3,-5 -4,1 -1,-3 -9,2 -1,2 5,1 -1,3 -5,3 -6,18 -13,4 h -5 l -1,-4 5,-9 -2,-17 -2,-1 v 6 l -3,-3 -2,-8 2,-2 -3,-12 -8,-1 -2,2 -1,10 -14,6 -8,1 -6,5 -7,16 2,1 7,-2 4,4 v 5 l -17,13 -1,6 -9,12 -4,8 h 5 l -6,4 -5,-6 -6,2 1,-11 -10,-14 -3,-7 -10,-3 -9,2 -3,-7 h 3 l -3,-6 -5,-1 3,-3 v -6 l -2,-5 -3,2 -2,-4 6,-4 -2,-5 2,-4 -3,-4 v -7 l -7,-11 -5,-17 h -14 l -12,5 -1,-2 -9,-4 -7,3 -5,5 -10,16 -16,5 -14,-11 v -8 l 4,-10 -5,-1 -8,5 -3,-3 -2,-14 -2,-4 -7,-3 -4,-4 -7,-1 -2,-5 h -3 l -3,-3 -6,-2 -2,-15 3,-8 -9,-6 -1,9 -5,3 -7,-3 -4,5 -16,-7 -15,13 -5,-4 -1,-10 -2,-4 -13,-2 -7,-3 z"
     id="龙岩市" />
  <path
     stroke="#ffff00"
     stroke-opacity="1"
     stroke-width="0.5"
     stroke-linecap="round"
     stroke-linejoin="round"
     stroke-dasharray="none"
     fill="#1e90ff"
     fill-opacity="1"
     fill-rule="evenodd"
     d="m 1186,496.99999 v -4 l -4,-4 v -7 l -13,-5 -5,-6 h -18 l -4,-3 h -3 l -18,11 -5,-1 -11,-12 2,-4 h 3 l 10,-7 3,-11 h 3 l 2,-3 -3,-6 2,-2 7,1 2,-8 -4,-10 2,1 3,7 16,16 12,1 16,-3 9,3 7,-3 12,7 -2,6 1,6 5,1 12,-8 -2,-4 1,-2 -2,-7 2,-1 3,-7 6,-5 3,-7 -5,-11 3,-4 4,-2 6,1 3,-2 v 4 l 4,1 6,-3 22,-1 3,4 -2,4 -6,7 h -4 l -4,4 v 4 l -10,3 -1,4 -7,8 2,6 -2,4 v 6 l -5,2 2,4 -5,5 -1,5 -2,-4 -8,1 -6,-2 -4,4 -14,8 -2,3 -1,8 -3,3 -3,15 4,4 17,2 3,-2 7,-10 7,-2 2,-5 4,-2 -4,-6 3,-5 8,-4 6,2 8,-1 22,-13 5,5 5,1 16,-10 2,-5 -6,1 1,-6 -3,1 -2,-2 -2,-11 6,-6 8,-1 4,-3 2,-6 -6,-1 3,-5 -3,-2 -8,4 -5,-1 -2,-4 6,-11 5,-3 -1,-4 -12,1 -3,-8 4,-4 -1,-1 -7,2 -7,-1 -5,-7 1,-9 h 6 l 5,-3 7,-1 6,-4 v -15 l 7,2 3,-3 4,2 h 19 l 8,4 2,-4 4,-3 v -6 h -2 l 3,-14 4,-4 6,-1 -1,-17 -7,-2 14,-1 2,-2 -5,-9 2,-5 -3,-7 1,-1 7,2 5,-2 3,2 23,3 4,-3 v -5 l 9,-5 13,-12 -6,-8 h -3 l -4,-5 v -4 l -8,-8 -1,-3 4,-8 -5,-5 1,-3 5,-3 2,3 3,-4 -7,-7 -3,-9 -7,-6 -3,-7 -6,-3 -2,-4 1,-3 -4,-5 3,-7 -4,-6 h -8 l -1,-3 -1,5 -4,1 -5,-2 -6,3 -5,-10 2,-2 -1,-6 -5,-3 v 2 l -10,6 h -3 l -4,-3 -9,3 -4,-2 -11,2 -2,3 3,4 -3,5 -3,-3 -9,3 v 5 l -7,4 -9,13 -9,-2 -5,-9 h -2 l -1,-5 -4,-1 -3,3 -10,2 2,3 -5,5 -5,10 2,4 -15,-2 -1,3 h -7 l -1,4 -4,-2 2,-4 h -5 l -4,-3 -4,4 3,3 -2,3 -6,-1 -1,2 -9,-6 -2,3 -7,-1 v -7 h 5 l -1,-3 -5,-2 1,-4 -7,-2 -1,-4 -3,-1 4,-5 -3,-1 -1,-4 -3,-1 -2,-5 -6,-2 -2,-8 -5,-2 -2,-3 h 3 l 4,-4 v -5 l 2,-1 v -14 l -2,-1 2,-6 -9,-12 -1,2 -6,2 -2,-3 5,-14 -16,-4 -1,-15 5,-2 2,-6 -3,-5 2,-5 -3,-2 -11,-2 -8,4 -2,-2 -4,2 h -6 v -2 l -4,-3 1,5 -2,2 h -4 l -2,4 -3,-2 -4,2 v 17 l -7,9 1,6 -4,13 -3,6 -5,5 -5,2 -2,-2 -2,-7 -4,-4 h -8 l -6,2 -6,4 -7,8 2,5 -5,6 -18,9 -3,9 -3,6 h -2 l -1,4 6,13 -3,4 -5,2 v 7 l -2,1 -2,5 1,5 h -4 l -2,3 -4,1 -3,5 -1,10 2,4 -3,1 11,11 4,-1 10,10 -3,6 -3,-3 -3,2 -5,-4 v -6 l -10,-3 -2,10 -8,4 -2,12 h 5 l 1,3 -2,12 7,3 v 4 l -3,3 -4,-3 -9,3 v 7 l -12,1 3,7 v 6 l -6,1 -4,-8 -5,-4 v -6 h -13 l -5,-3 -8,1 -3,3 -5,-1 -4,-4 3,-6 -3,-2 -1,-13 -8,-4 -8,-1 -2,-2 -3,3 2,4 2,-1 -3,7 1,3 5,-2 -1,6 h 4 v 4 l -4,5 -5,-3 h -3 l -3,7 -5,2 -1,7 -7,8 -2,8 -5,5 h -5 l -2,4 1,5 -3,5 -4,3 -8,2 -4,4 v 5 l -4,3 -12,-1 -5,-3 -8,5 -5,-3 -1,-4 -5,-1 -4,7 8,8 4,8 -2,8 -2,2 1,4 -2,3 -7,3 -3,-2 -5,1 v 3 h -6 l -3,6 6,8 -1,10 -5,3 v 7 l -4,8 v 6 l -3,3 -1,8 h -5 l -3,3 v 3 l -3,4 2,4 h 4 l 3,2 1,4 -2,3 v 6 l -3,4 -1,6 2,3 -3,17 4,4 h 10 l -5,20 1,6 -2,5 -6,1 -7,4 -4,9 4,4 v 2 l -6,6 v 9 l 4,2 1,8 7,-2 4,5 -1,4 h 2 l 4,-5 6,-2 2,3 12,7 v 5 l -4,4 5,11 v 7 l 6,-4 v -2 h 5 l -2,-3 v -5 l 8,-7 3,-5 11,1 8,4 8,-5 1,-8 -7,-5 -5,-8 -4,-3 3,-9 -11,-7 1,-13 7,-6 -3,-7 1,-3 5,-1 8,3 v 5 l 5,1 3,3 -3,9 5,5 v 7 l 2,-2 3,1 1,3 10,-5 2,-6 3,-1 1,-4 13,-5 h 7 l 4,5 4,-2 2,-5 -1,-4 h -4 v -4 l 3,-3 2,-6 5,-3 6,-1 4,2 2,-6 -3,-4 5,-1 3,-7 v -7 l 4,1 1,-4 h 8 l 3,-2 6,4 1,3 -5,3 v 3 l 3,2 h 6 l 4,-3 1,6 4,3 1,5 7,-1 2,2 3,-3 4,1 2,-3 6,-2 5,-6 3,2 4,7 v 4 l 5,5 6,-3 3,-7 9,6 2,-15 5,-8 h 7 l 1,2 -2,4 7,-1 1,-3 4,-2 -1,-3 3,-2 3,2 4,-1 3,-4 v -4 l 3,-1 7,2 3,-2 -5,-2 2,-3 6,4 18,-2 10,4 2,5 9,12 -2,2 3,5 8,3 1,4 2,-1 8,4 3,-2 10,8 6,-2 h 8 l 2,-4 h 3 l 3,-9 6,-4 11,4 5,-4 v -3 h 8 l 11,8 z m -355,46 -3,-1 -2,2 6,2 z m 687,-226 v 6 l 3,-1 2,-6 z m -7,-6 1,4 4,-2 v -4 h -4 z m -162,28 v 8 l 6,-1 1,-3 h -3 l 4,-4 -4,2 z m 26,1 2,-1 -6,-2 -9,4 11,3 z m -186,105 2,4 5,-4 -11,-4 z m 197,14 7,2 -5,-5 z m -161,-20 -1,3 4,3 h 4 v 4 l 3,-1 4,3 -2,-4 1,-6 3,-3 h -12 z m -39,50 5,2 1,-5 z m 200,-55 -2,2 2,3 8,-4 -5,-4 z m -115,87 5,-3 h 5 l 4,-6 v -5 l -13,3 -1,6 -3,1 z m 42,-28 v 2 l 6,-1 -3,-3 z m -4,-52 1,-3 -6,-2 v 3 z m -2,63 5,1 3,-2 -3,-5 -3,1 1,2 z m 88,-175 1,3 5,-3 z m -135,169 -2,4 2,1 3,-4 -4,-4 z m -88,-28 2,4 3,1 8,-4 5,1 3,-5 -8,-4 -14,4 z m 13,5 h 4 l -3,-2 z m 221,-202 6,-1 1,-3 -4,1 z m -98,222 5,-3 1,-4 5,-1 2,-11 -3,-3 -4,1 -6,6 v 3 l -6,5 3,6 z m 31,-131 3,-1 -2,-5 -3,4 z m -32,156 1,3 4,-3 -1,-3 z m 83,-174 7,-4 h 6 l -1,-3 -5,-2 -3,-9 -6,-4 h -6 l -6,6 v 7 l 8,7 z m -80,48 1,3 6,2 1,-7 h -5 z m -172,70 19,-3 14,-10 1,-6 -5,-3 -13,5 -8,-1 -6,-4 -3,1 -3,4 -2,8 2,6 z m 40,-20 4,-1 1,-4 -5,2 z"
     id="宁德市" />
</svg>