<?xml version="1.0" encoding="UTF-8" standalone="no"?>
<svg
   width="1888"
   height="1034"
   viewBox="-251 -228 1888 1034"
   version="1.1"
   id="svg1"
   xmlns="http://www.w3.org/2000/svg"
   xmlns:svg="http://www.w3.org/2000/svg">
  <defs
     id="defs1" />
  <path
     stroke="#ffff00"
     stroke-opacity="1"
     stroke-width="0.5"
     stroke-linecap="round"
     stroke-linejoin="round"
     stroke-dasharray="none"
     fill="#1e90ff"
     fill-opacity="1"
     fill-rule="evenodd"
     d="m 837.99998,552 8,7 8,-1 6,-3 2,1 4,-5 5,-2 4,1 12,-2 15,-8 v -2 l 2,1 13,-10 h 6 l 5,3 1,-1 2,2 h 3 l 2,-3 11,-6 h 8 v 5 l 2,-2 3,3 14,-7 18,3 2,3 h 6 L 1005,525 h 9 l 4,-6 1,1 4,-2 v -10 l -2,-5 3,-5 -4,-1 -4,5 -3,-6 -9,-4 v -7 l 2,-1 2,2 h 3 l 7,-5 3,1 4,-4 h 3 l -2,-4 6,-5 h 7 v -4 h 2 v -3 l 4,-4 -3,-4 h -11 l -6,-3 h -4 l -1,2 -5,-2 -5,-5 h -2 l -4,11 -3,1 -6.00002,-2 -3,3 -4,-1 -4,2 v -5 l -3,-2 1,-3 -7,-1 v -15 h -4 l -2,-2 2,-4 8,-3 -2,-5 -5,-6 -6,-4 -2,-3 v -5 l -17,9 -4,-1 -2,-4 -5,-1 1,-5 -1,-5 -3,-3 -2,-17 -2,-1 -1,-4 1,-1 -6,-1 -1,2 -3,-1 -5,3 -5,-4 -2,3 1,5 4,2 -5,3 v 4 l -3,1 -6,-4 1,-3 -2,2 -2,-1 1,-3 -4,-5 -3,-1 -3,4 -7,-4 -4,1 -15,47 6,11 -3,1 -6,6 h -4 l -3,3 -3,-1 v 2 l -5,3 v 5 h -13 l -3,11 -2,1 v 3 l -3,2 -4,12 h -4 l 1,3 -2,3 -3,2 -4,-1 -1,-2 -3,1 -2,-2 h -7 l -1,3 v 7 l 2,3 -1,5 2,4 3,2 -3,4 -6,3 2,3 -6,7 5,6 -1,3 h -2 l -1,2 2,1 v 5 l 14,9 12,-2 h 7 l 7,3 3,-1 z"
     id="拉萨市" />
  <path
     stroke="#ffff00"
     stroke-opacity="1"
     stroke-width="0.5"
     stroke-linecap="round"
     stroke-linejoin="round"
     stroke-dasharray="none"
     fill="#1e90ff"
     fill-opacity="1"
     fill-rule="evenodd"
     d="m 796.99998,482 -2,-2 -1,-6 -3,-1 -2,-4 2,-4 -5,-5 -2,2 h -4 l -1,-6 -4,2 -4,-1 -3,-3 -3,2 -5,-4 h -6 l -3,3 h -2 l -5,-5 -6,2 -4,-3 -1,-3 -9,7 -8,-1 -2,3 h -2 l -2,4 -3,-3 -4,-1 -1,3 -15,-3 -4,1 -4,7 -3,1 v 3 l -3,2 v 3 l -2,2 -5,-4 2,-6 -1,-6 -5,-1 -2,-4 -5,-1 h -3 l -3,4 h -7 l -1,-4 -6,-2 -4,-10 -4,2 -3,-3 h -4 l -3,2 -6,-3 -3,2 -1,-1 -6,5 -14,-5 -1,2 -5,-3 1,-3 -3,-1 2,-2 v -3 l -4,-3 2,-3 h -2 l -1,-2 h -8 l -2,3 -3,-2 h -8 l -3,-2 -3,1 -2,-3 2,-5 -1,-9 -6,-9 3,-5 -1,-8 -2,-2 -7,5 -1,9 -8,6 -5,-1 6,-6 2,-11 h 2 l -5,-1 -5,4 h -5 l -7,7 6,9 v 6 h -3 l 1,2 8,2 -1,-8 4,-1 v 8 l -2,1 -2,7 h 3 l 3,-3 2,11 -8,-7 -4,4 -3,-2 v 3 h -4 l -1,-3 -4,3 3,8 h -3 l -2,-2 -2,4 -7,-2 1,3 3,1 -2,2 -5,-7 v -3 l -5,2 -4,-1 1,-9 -3,-8 2,-7 -3,-2 v -2 l -5,-6 -2,-16 -8,-3 -3,-3 -7,4 -2,7 -3,1 2,3 -2,4 -3,-1 -1,6 -3,4 h -3 l -1,-3 -8,2 -3,-3 -3,4 4,8 -3,1 -6,-2 -2,4 v 2 h 2 l 1,2 11,1 3,10 -2,10 2,4 3,2 v 2 l -6,-4 -4,9 -6,1 4,4 h 2 l 3,10 -1,3 -4,-1 -2,-3 -1,7 3,3 -2,4 -8,2 -2,2 2,8 h -7 l -6,3 -1,3 6,4 -1,3 h -4 l -2,-4 -6,-1 -2,-4 -2,1 -3,8 2,5 -9,5 -5,-4 -6,3 -3,-4 -7,-4 -11,-10 -5,-7 -4,-2 v -4 l -5,1 -6,-3 -1,-2 2,-3 v -13 l -4,-4 v -4 l -4,-1 -4,-4 v -3 l -2,-2 1,-2 -2,-1 -1,-4 -9,1 -2,-4 v -3 l 3,-4 -1,-2 3,-4 -4,-3 2,-2 -1,-1 4,-3 v -5 l 4,-4 -1,-1 4,-3 v -2 l 12,-13 3,1 1,-3 -8,-6 1,-5 -3,-3 -3,1 -1,-2 1,-10 -2,-2 -1,-9 -9,-4 v -2 l -12,1 -14,-6 v -4 l 12,-4 3,-4 h 14 l 2,-6 5,-6 1,-5 h 5 l -4,-3 -16,-4 1,-2 -2,-5 -4,-3 -4,2 4,12 v 6 l -5,-3 -1,3 -3,1 -2,-6 -10,-1 -1,5 -4,2 -7,-4 -5,6 h -11 l -3,2 -2,-2 -4,3 -6,-3 -4,2 -3,-2 h -13 l -7,-2 -4,-4 1,-3 -4,-3 -1,-3 -5,3 1,5 -4,1 -3,-5 -4,1 -2,3 -6,1 -1,4 -3,-1 v -3 l -9,1 1,3 2,-1 v 2 l 4,2 -1,1 h -7 l -5,-3 -1,7 2,-1 3,4 5,1 2,2 -2,8 4,15 -2,1 v 8 l -2,-1 -4,3 h -7 l -3,11 1,4 5,5 3,6 4,-3 2,4 3,2 -1,2 3,1 3,5 h 9 l 3,11 -3,10 -7,11 -4,-2 -1,-3 -6,1 -2,-7 3,-3 -12,-6 -2,-7 -3,-3 -3,1 -3,-2 -3,4 1,1 -4,1 v 11 l 2,3 -1,3 h -2 l -2,6 6,11 -3,3 1,2 -6,2 -2,-3 -9,-5 1,5 h -4 v 3 l -2,-1 v -5 l -5,1 -3,-3 -2,3 h -2 v 10 l -12,11 4,2 v 2 l 2,1 -3,3 v 5 l 10,2 2,3 2,-1 3,3 2,-1 8,5 2,3 4,-2 2,1 4,7 3,2 -1,4 6,-2 4,5 -4,4 h 6 l 1,4 4,1 1,3 11,-2 v 4 h 6 l 7,7 6,-2 1,3 5,-1 v 2 l 4,1 1,7 h 4 l 3,2 v 3 l 3,4 h 3 v 6 l 2,1 2,7 3,1 3,6 4,2 2,3 h 6 l 6,-8 h 7 l 2,-5 8,-3 h 7 l 3,4 7,-1 3,6 h 6 v 3 l -3,2 1,6 3,2 -2,4 1,3 5,2 -3,13 6,3 11,2 3,9 4,3 7,-1 5,2 8,6 -1,4 7,2 8,5 6,-3 5,1 1,-3 6,-6 h 7 l 6,6 -1,7 -3,6 -4,3 v 6 l 2,2 -2,4 1,1 5,1 3,-2 6,6 7,-1 2,2 4,-3 v -2 h 10 l 7,3 v 4 l 4,-3 3,-9 3,-1 3,16 10,6 4,7 v 5 l 7,7 -3,5 5,3 5,1 6,-3 -4,-9 1,-8 h 4 l 5,-8 3,8 v 10 l 2,3 3,-1 3,3 h 2 v -2 l 8,6 h 3 l 2,-4 4,-2 1,-6 1,-2 h 2 l 1,-6 h 2 l 2,3 h 3 l 1,-2 4,-1 6,3 -2,3 1,1 6,2 4,-1 2,3 3,1 1,3 9,1 4,3 4,8 10,3 3,-4 9,3 5,-4 2,2 h -3 l 4,2 12,-4 1,5 7,-2 v 2 l 5,1 5,-6 v -3 l 4,-4 v -2 l 4,1 -1,2 2,1 9,2 5,-1 5,1 2,2 2,-1 -1,-4 2,-4 6,1 v -2 h 3 l 1,3 9,-5 4,1 8,-6 3,-1 3,2 1,-6 h 3 l 5,-3 2,4 h 9 l 7,8 v 8 h 2 l 2,7 -3,10 1,3 -2,1 1,4 -4,4 -2,7 h -2 l 1,4 2,1 -2,5 3,7 2,2 h 3 l 3,6 h 2 l -1,5 3,1 4,6 7,-4 1,-4 7,-4 3,-5 -8,-10 1,-7 3,-1 2,-3 -3,-6 9,-10 -1,-2 2,-5 5,-5 7,-2 6,-9 1,-5 2,-1 -1,-2 4,-5 3,-1 6,-7 7,-2 4,1 5,-3 1,-4 7,2 3,4 7,-1 5,5 4,-2 2,2 2,-5 h 4 l 2,2 4,-14 v -5 l -9,2 v -4 l -4,-2 -1,-8 5,-4 -3,-11 h -3 l 1,-4 4,-2 3,-4 h 2 l -1,-5 2,-2 1,1 2,-3 v -4 l -3,-6 1,-3 -2,-1 4,-8 -1,-2 3,-3 v -12 h 2 l 3,-3 1,-5 4,-6 -8,-3 -3,1 -7,-3 -19,2 -14,-9 v -5 l -2,-1 4,-4 -5,-7 5,-7 v -3 l 5,-2 3,-5 -3,-2 -2,-4 1,-5 -2,-3 1,-10 h 3 z m -377,-103 1,5 5,8 v 3 l 7,2 v -6 l -2,-3 h -2 l 5,-2 1,2 h 2 l -1,-7 -4,1 -9,-3 z"
     id="日喀则市" />
  <path
     stroke="#ffff00"
     stroke-opacity="1"
     stroke-width="0.5"
     stroke-linecap="round"
     stroke-linejoin="round"
     stroke-dasharray="none"
     fill="#1e90ff"
     fill-opacity="1"
     fill-rule="evenodd"
     d="m 1597,642 -1,-4 -5,-1 v -14 l -3,-5 8,-6 -2,-10 1,-2 -2,-5 1,-4 -2,-1 v -3 l 2,-1 4,2 6,-5 2,1 3,8 1,10 2,3 6,-1 v -2 l 5,-1 -1,-4 -4,-1 v -10 l 3,-1 6,-7 -5,-9 1,-6 4,1 2,-2 7,-1 -3,-7 -2,-1 v -19 l -2,-4 1,-5 -5,-9 v -9 l 2,-6 -1,-3 4,-7 1,-5 -3,-9 1,-6 -3,-4 1,-2 -3,-2 1,-6 -3,-4 2,-3 v -5 l -2,-1 1,-7 -3,-8 v -12 l -2,-2 -1,-8 5,-4 -1,-5 -7,-3 v -3 h -2 l -7,-7 3,-11 -3,-4 -4,-2 v -2 l -2,-1 v -4 l -3,-4 -6,-2 -1,-2 2,-1 -2,-6 3,-8 h 5 l 5,8 3,1 3,-3 1,-4 6,-6 -5,-7 -4,-4 h -2 l -19,-19 -1,-7 h -3 l -3,-7 h -2 v -2 l -2,-1 1,-2 h -3 l 1,-3 -2,-6 3,-1 v -9 l -12,-12 -4,-10 -4,-2 v -12 l -8,-6 h -4 l -6,-6 -10,-4 -3,1 -1,-2 h -5 l -1,-2 -4,-1 h -23 l -3,-2 -2,-4 -7,4 -1,-2 -3,3 1,3 1,-1 4,2 -5,7 5,1 2,5 -1,5 2,1 -1,3 -4,3 -2,-3 h -5 l -3,12 1,5 4,1 -2,3 1,3 h -4 l -4,-4 -1,2 2,5 -4,-1 -1,2 h -7 l -6,-1 -2,-2 h -5 l -2,2 3,3 -2,3 -4,-3 -1,2 h -2 v 3 l -2,-3 -10,-3 -1,1 2,2 1,6 5,5 -2,3 -3,1 1,4 6,9 -1,4 h -3 l -1,3 h -2 l -8,-6 -1,2 -4,-3 -4,3 -12,-10 -3,-5 -1,-8 -9,1 -4,-2 -3,3 h -3 l 3,3 -1,4 h -2 l -1,7 5,3 -1,1 3,5 -1,4 h -2 l 1,3 -2,3 h -4 l -1,-10 -10,-4 -5,-6 v -2 l -6,-2 -5,5 -2,4 1,3 -3,3 -3,-6 -5,-3 -11,-2 -1,2 h -2 v 2 h -6 l -1,-3 -6,-6 -3,-9 -3,-2 -1,-3 3,-4 5,-1 -3,-3 3,-3 -1,-10 -3,-3 -4,1 1,3 h -5 l -3,-3 v -3 l -2,-1 -2,-12 h -2 l -1,3 -3,2 -6,2 -3,-2 2,-5 15,-3 -4,-5 h -8 l -5,2 -8,-5 -1,2 -6,-1 -2,-6 -3,1 -4,-2 -2,-5 h -3 l -2,4 -2,-1 -1,4 h -5 l 3,2 v 4 l 6,7 v 9 l -7,5 -2,6 v 6 l 2,2 -1,3 3,1 -3,6 1,10 -2,1 v 4 l 1,2 9,4 1,8 -3,1 -1,3 h -3 l -1,5 6,-1 2,3 v 6 h 7 l 4,2 2,5 -4,9 5,4 2,-1 3,2 1,8 5,11 -1,3 -5,2 -1,-2 h -3 l -2,3 h -4 l -1,2 -2,-1 -2,5 -4,-1 -5,-9 3,-16 2,-2 -1,-3 -6,4 -7,1 -1,-5 -2,-2 2,-3 -1,-3 -6,3 -4,6 h -8 v 3 l -3,3 -6,-2 v 11 l -4,2 -3,10 3,3 1,6 4,4 1,5 2,1 -2,7 -2,1 -4,-3 -9,3 -14,-4 -3,5 -4,-1 -6,-6 h -10 l -4,-3 -5,1 -4,5 1,2 h 6 l 2,5 -3,4 11,8 v 3 h 3 l 4,5 4,-1 3,3 2,-1 3,4 9,5 v 2 l 5,2 4,-1 11,-11 5,2 1,4 h 5 l 1,-3 6,3 h 6 l 2,-1 -1,-3 2,-2 h 4 l 3,-2 8,3 5,-2 8,4 h 3 l 1,-2 4,3 3,-2 h 5 l -1,-6 2,-2 h 3 l 6,4 2,-3 3,-1 7,4 -2,2 4,5 2,-1 v -2 l 3,1 1,-4 h 5 l 3,2 3,-1 2,2 12,3 v 8 l 5,2 2,6 4,4 6,2 -3,2 1,3 5,2 1,3 6,2 3,-3 h 2 l 1,2 h 4 l 1,4 2,1 1,-2 6,-1 1,-6 10,-5 h 8 l 5,6 5,-4 2,1 3,3 -1,1 5,3 v 6 l -3,3 h 4 l 2,2 -3,6 -1,7 -5,2 1,7 -3,1 -3,9 -4,4 2,5 5,2 3,6 4,2 3,8 -3,6 h -2 l 9,9 v 2 l -2,1 h -9 l -4,4 12,9 4,9 12,1 1,2 h 3 v 3 h 3 v -8 h 6 v -12 l -3,-2 v -3 l 4,-3 -2,-7 4,-4 3,1 1,-6 h 2 v 4 l 6,6 h 13 l -1,2 7,7 -2,1 v 3 l 3,4 h 2 l 2,11 v 12 l 12,-3 -3,-4 2,-6 4,1 3,-3 -3,-4 h -2 l -1,-3 6,-1 3,2 2,-1 7,5 9,13 h 8 l 2,-4 3,1 5,5 v 5 h 3 l 4,4 -2,1 v 3 l 3,6 2,1 v 3 h 5 l 3,-6 2,3 4,2 2,9 h 3 l 1,2 6,-2 1,1 3,5 -2,3 2,5 7,11 -2,4 6,5 h 3 z"
     id="昌都市" />
  <path
     stroke="#ffff00"
     stroke-opacity="1"
     stroke-width="0.5"
     stroke-linecap="round"
     stroke-linejoin="round"
     stroke-dasharray="none"
     fill="#1e90ff"
     fill-opacity="1"
     fill-rule="evenodd"
     d="m 1184,428 -5,3 1,7 -4,1 -1,2 h -3 l -2,7 h -4 l -9,-4 -1,4 -3,-1 -4,3 -3,-2 -6,1 -2,-2 -3,2 h -5 l -2,-2 -12,-4 v -4 l 2,-1 v -2 l -6,-6 h -5 l -3,-3 h -2 l -3,5 -3,1 -3,4 -2,-1 -3,-7 -7,-4 v -7 h -4 l -7,-3 -2,8 -3,-1 -6,3 -1,4 2,4 -4,12 h -5 l 2,1 v 2 h -9 l 1,10 -4,4 v 3 h -2 v 4 h -7 l -6,5 2,4 h -3 l -4,4 -3,-1 -7,5 h -3 l -2,-2 -2,1 -1,7 10,4 3,6 4,-5 4,1 1,2 h 4 l 1,2 3,-2 1,1 v 5 l 2,3 -4,6 -2,7 1,4 3,1 5,-11 3,-2 2,1 4,-3 h 3 l 2,4 h 3 l 4,-3 3,1 5,-5 5,1 4,4 2,3 -1,3 3,5 6,4 1,4 -2,2 v 3 l 2,3 v 4 l 2,1 -3,4 h -4 l -2,2 1,3 -10,16 h -4 l -8,6 -2,10 1,2 -3,4 -4,1 -2,3 v 4 l -2,2 -4,-2 -2,1 -4,-3 -3,1 -2,-2 -6,6 1,4 5,5 3,-3 2,-6 h 2 l 8,5 11,1 2,5 h 5 l 3,-6 3,-1 5,4 2,-1 8,2 15,-3 h 9 l 2,4 9,1 v 3 l 4,1 8,-2 3,1 v 2 l 6,-2 1,1 4,-3 2,4 h 2 l 1,3 h 2 v 3 l 4,3 1,18 5,3 h 8 l 4,8 7,6 1,12 -2,3 5,5 1,4 8,3 3,7 -1,5 3,2 -3,5 v 4 l 4,3 h -2 l -10,8 v 7 l 2,1 2,-2 15,-1 4,-2 4,1 26,-13 7,-2 12,-9 24,-11 10,-21 18,-7 7,-5 6,-2 5,1 4,-3 h 4 l 3,5 10,6 23,-4 2,9 10,2 -1,-3 h 5 l 5,8 1,-1 5,2 5,4 1,4 4,4 3,-1 7,3 2,4 h 9 l 6,3 3,5 2,-1 2,2 1,6 h 3 v -4 l 6,-3 13,-11 2,4 5,-1 -1,-2 2,-1 -2,-1 2,-7 2,-2 -3,-5 -6,1 -1,-2 3,-3 -1,-4 2,-1 v -9 h 5 v -5 l 2,-1 3,3 2,-1 -1,-3 4,-1 -3,-7 2,-1 v -4 l 2,-2 -2,-2 v -3 h 2 l 4,-5 h 2 l 1,3 3,-2 7,4 2,3 v 7 l 6,8 h 4 v -3 l 6,-1 5,5 v 2 l 5,4 -1,4 2,3 5,-1 1,3 4,3 3,-3 v -4 l 8,-3 -2,-8 -3,-2 v -3 l 2,1 5,-4 2,1 1,6 2,3 h 2 l 2,5 -1,6 2,2 1,7 h 2 l 3,-3 v -2 l 4,1 3,-4 8,1 8,-6 1,-9 3,-2 -3,-6 h -2 l 1,-2 -2,-3 -8,-2 -6,-5 2,-4 -7,-11 -2,-5 2,-3 -3,-5 -1,-1 -6,2 -1,-2 h -3 l -2,-9 -4,-2 -2,-3 -3,6 h -5 v -3 l -2,-1 -3,-6 v -3 l 2,-1 -4,-4 h -3 v -5 l -5,-5 -3,-1 -2,4 h -7 l -10,-13 -7,-5 -2,1 -3,-2 -6,1 1,3 h 2 l 3,4 -3,3 -4,-1 -2,6 3,3 -12,4 v -12 l -2,-11 h -2 l -3,-4 v -3 l 2,-1 -7,-7 1,-2 h -13 l -6,-6 v -4 h -2 l -1,6 -3,-1 -4,4 2,7 -4,3 v 3 l 3,2 v 12 h -6 v 8 h -3 v -3 h -3 l -1,-2 -12,-1 -4,-9 -6,-4 v -2 l -6,-3 4,-4 h 9 l 2,-1 v -2 l -9,-9 h 2 l 3,-6 -3,-8 -4,-2 -3,-6 -5,-2 -2,-5 4,-4 3,-9 3,-1 -1,-7 5,-2 1,-7 3,-5 -2,-3 h -4 l 3,-3 v -6 l -5,-3 1,-1 -3,-3 -2,-1 -2,3 -3,1 -5,-6 h -8 l -10,5 -1,6 -6,1 -1,2 -2,-1 -1,-4 h -4 l -1,-2 h -2 l -3,3 -6,-2 -1,-3 -5,-2 -1,-3 3,-2 -6,-2 -4,-4 -2,-6 -5,-2 v -8 l -12,-3 -2,-2 -3,1 -3,-2 h -5 v 3 h -4 v 2 l -2,1 -4,-5 2,-2 -7,-4 -3,1 -1,3 -7,-4 h -3 l -2,2 1,6 h -5 l -3,2 -4,-3 -1,2 h -3 l -8,-4 -5,2 -8,-3 -3,2 h -4 l -2,2 1,3 -2,1 h -6 l -4,-3 h -2 l -1,3 h -5 l -1,-4 -5,-2 -11,11 h -2 z"
     id="林芝市" />
  <path
     stroke="#ffff00"
     stroke-opacity="1"
     stroke-width="0.5"
     stroke-linecap="round"
     stroke-linejoin="round"
     stroke-dasharray="none"
     fill="#1e90ff"
     fill-opacity="1"
     fill-rule="evenodd"
     d="m 837.99998,552 -1,3 -3,2 -1,6 -3,3 h -2 v 12 l -6,13 2,1 -1,3 3,6 v 4 l -2,3 -1,-1 -2,2 1,5 h -2 l -7,6 -1,4 h 3 l 3,11 -5,4 1,8 4,2 v 4 l 9,-2 v 5 l -4,14 3,2 7,-1 1,3 7,7 h 5 l 4,2 3,-2 7,4 10,-5 7,3 10,10 7,-1 v 6 l 10,5 h 3 l 4,-5 -1,-3 2,-4 10,-2 1,-4 2,-1 v -3 h 3 l 1,2 10,4 3,3 -1,4 6,3 1,2 h 5 l 1,2 -5,1 -2,4 h 6 l 2,5 -1,8 -5,4 -1,3 2,3 v 6 l 16,8 7,-3 10,3 6,-2 1,4 2,1 8,16 -4,1 -2,8 -3,2 1,12 3,1 4,8 -1,11 L 1019,800 h 6 l 17,-5 h 7 l 12,6 10,-2 13,3 52,-7 11,-7 9,-3 v -12 l 13,-16 24,-24 -2,-1 v -7 l 10,-8 h 2 l -4,-3 v -4 l 3,-5 -3,-2 1,-5 -3,-7 -8,-3 -1,-4 -5,-5 2,-3 -1,-12 -7,-6 -4,-8 h -8 l -5,-3 -1,-18 -4,-3 v -3 h -2 l -5,-7 -4,3 -1,-1 -6,2 v -2 l -3,-1 -8,2 -4,-1 v -3 l -9,-1 -2,-4 h -9 l -15,3 -7,-2 -3,1 -3,-4 -5,1 -2,6 h -6 l -2,-5 -13,-2 -6,-4 h -2 l -4,9 -6,-5 -1,-4 6,-6 2,2 3,-1 1,2 h 5 l 4,2 2,-2 v -4 l 2,-3 4,-1 3,-4 -1,-2 2,-10 6,-5 6,-1 10,-16 -1,-3 2,-2 h 4 l 3,-4 -2,-1 v -4 l -2,-3 v -3 l 2,-2 -1,-4 -6,-4 -3,-5 1,-3 -6,-7 -5,-1 -5,5 -3,-1 -4,3 h -3 l -2,-4 h -3 l -4,3 -2,-1 -3,2 -5,11 -3,-1 -1,-4 2,-7 4,-6 -2,-3 v -5 l -1,-1 -3,2 -1,-2 h -4 l -1,-2 -3,5 2,5 v 9 l -4,3 -1,-1 -4,6 -2,-1 -1,2 -6,-1 -5.00002,4 h -6 l -2,-3 -18,-3 -14,7 -1,-2 -2,-1 -1,2 -2,-2 1,-3 h -8 l -11,6 -2,3 h -3 l -2,-2 -1,1 -5,-3 -10,2 -9,8 -2,-1 v 2 l -15,8 -12,2 -4,-1 -5,2 -4,5 -2,-1 -6,3 -8,1 -6,-6 z"
     id="山南市" />
  <path
     stroke="#ffff00"
     stroke-opacity="1"
     stroke-width="0.5"
     stroke-linecap="round"
     stroke-linejoin="round"
     stroke-dasharray="none"
     fill="#1e90ff"
     fill-opacity="1"
     fill-rule="evenodd"
     d="m 1239,210 1,-3 h -2 l -1,-3 -4,-2 -7,-8 -2,4 -5,4 -5,1 -1,-2 -1,4 -2,1 -3,-4 -3,4 v 5 h -7 v 2 l -9,-2 -2,7 h -2 l -1,2 -8,-4 -2,3 -7,-4 -4,2 h -5 l -3,-9 -9,-3 h -7 l -2,5 -6,5 -4,1 -1,-3 h -2 l -3,-7 -6,4 -4,-5 -3,-1 v -4 h -4 l -2,-4 -6,-1 -1,2 -8,2 -3,-7 -2,-1 v -3 l -2,-1 -3,3 h -8 v 2 l -5,-4 -3,1 -9,-5 -2,4 -3,1 -3,-2 h -11 l -3,-3 -4,2 -5,-2 1,2 h -6 v 2 l -4,1 -5,-3 v -6 l 3,-2 -2,-5 -8.00002,-1 -1,2 -8,1 1,2 -7,1 -6,-7 1,-2 -4,1 -2,-5 h -5 l -2,-3 -16,-7 -3,-3 1,-1 -2,-3 h -5 l -4,4 -1,-2 -11,-3 -7,-4 -7,6 v 2 l -7,-4 -4,1 -2,-2 h -8 l -2,4 -2,-4 -7,1 -5,-4 -4,1 -15,-11 h -2 l -2,-3 -8,1 -4,-3 -13,-17 -12,-3 v -6 l -6,-3 -3,-4 v -9 l 2,-2 -3,-2 1,-2 -7,-2 -1,-2 3,-4 -3,-1 -6,-7 -4,1 -9,-11 -5,-10 2,-1 v -4 l 3,-3 h 6 v -3 l 5,-2 -1,-2 2,-1 1,-7 -1,-4 4,-4 -1,-3 -1,1 -4,-5 2,-2 -1,-15 -3,-3 2,-5 -1,-2 -2,1 -4,-3 1,-8 3,-2 3,1 v -3 l 3,-2 -1,-1 4,-2 -2,-1 v -4 l -3,-1 1,-4 -3,-2 -4,2 -3,-2 -5,4 -7,-1 -2,-4 3,-19 -1,-2 h -4 l -2,-2 -6,-10 7,-6 h -2 l -1,-2 2,-4 -2,-2 1,-2 6,-1 4,-4 h 6 l 6,-7 h 2 l -6,-7 1,-5 3,1 2,-3 -4,-6 2,-1 -1,-6 1,-4 3,-1 -1,-4 3,-5 -2,-2 -11,2 -3,-2 -7,1 -2,-2 1,-1 -4,-3 -2,1 -4,-2 -1,-2 2,-2 v -5 l -3,-2 1,-4 2,2 7,1 11,-3 v -2 h 2 l 3,-3 -18,-6 -11,-9 -7,-1 -6,-7 -3,4 -6,1 -8,-6 -7,-1 -4,-6 -11,4 -2,5 -3,-3 h -2 l -3,-6 -6,-2 -1,-5 -4,-4 -7,2 -2,-4 h -9 l -2,1 1,2 -7,-2 -6,3 -3,-1 -5,3 -14,-1 -5,5 h -11 v 2 l -6,-1 -15,5 -9,-1 -1,-7 -9,-1 -1,3 -5,4 -9,1 -4,6 h -4 l -2,-2 -3,2 -5,-1 -6,5 h -4 l -3,-4 h -7 l -7,4 v 2 l -16,2 -1,2 h -11 l -3,5 -8,-1 -3,4 -5,1 -1,6 2,5 h -2 v 3 h -2 l -2,3 v 4 l -4,4 -2,7 4,3 -1,3 7,3 3,5 h 2 l 5,5 v 3 l 3,1 -3,5 v 6 l 2,1 -3,1 -2,4 v 7 l 4,6 h -5 v 3 l -6,3 3,5 -1,7 3,5 -2,3 1,4 -10,19 3,1 -3,11 -7,12 2,6 -3,5 -7,6 v 6 l 11,3 6,7 3,1 v 5 l -3,6 v 11 l 5,6 v 14 l 4,3 v 4 l 4,7 v 5 l -6,7 v 4 l -3,4 1,7 2,2 h 4 l 2,12 -1,4 6,7 -7,4 -1,7 -10,6 -9,3 v 9 h 13 v 2 l -3,2 -3,6 2,4 -4,2 -2,3 2,2 -3,5 5,5 -3,7 -10,3 v 3 l -8,6 -12,1 -11,5 h -4 l -7,5 h -9 l -5,8 -9,3 -7,26 -6,10 -3,2 -2,7 1,3 7,5 v 10 l 2,4 -4,5 2,7 -2,7 3,4 6,-2 6,3 2,7 4,2 4,-4 4,2 v 4 l 4,4 1,-1 6,3 -1,3 5,10 10,5 h 4 l 3,3 h 6 l 1,4 18,5 6,-1 3,3 v 8 l 3,4 -1,5 4,5 8,3 2,16 5,6 v 2 l 3,2 -2,4 2,6 -1,2 2,3 -1,9 4,1 5,-2 v 3 l 5,7 2,-2 -3,-1 -1,-3 7,2 2,-4 2,2 h 3 l -3,-8 4,-3 1,3 h 4 v -3 l 3,2 4,-4 8,7 -1,-10 -1,-1 -3,3 h -3 l 2,-7 2,-1 v -8 l -4,1 1,8 -8,-2 -1,-2 h 3 v -6 l -6,-8 7,-8 h 5 l 5,-4 5,1 h -2 l -2,11 -2,3 -4,2 2,3 3,-1 8,-6 1,-9 7,-5 2,2 1,8 -3,5 6,9 1,9 -2,5 8,4 h 8 l 3,2 2,-3 h 8 l 1,2 h 2 l -2,3 4,3 v 3 l -2,2 3,1 -1,3 5,3 1,-2 13,5 7,-5 1,1 3,-2 6,3 3,-2 h 4 l 3,3 4,-2 4,10 6,2 1,4 h 7 l 3,-4 h 3 l 5,1 2,4 5,1 1,6 -2,6 5,4 2,-2 v -3 l 3,-2 v -3 l 3,-1 4,-7 4,-1 15,3 1,-3 4,1 3,3 2,-4 h 2 l 2,-3 8,1 9,-7 1,3 4,3 5,-2 6,5 h 2 l 3,-3 h 6 l 5,4 3,-2 3,3 4,1 4,-2 1,6 h 4 l 2,-2 5,5 -2,4 2,4 3,1 1,6 6,4 3,-1 1,2 4,1 5,-5 -1,-3 h 4 l 4,-12 3,-2 v -3 l 2,-1 3,-11 h 13 v -5 l 5,-3 v -2 l 3,1 3,-3 h 4 l 6,-6 3,-1 -6,-11 9,-26 3,-14 3,-7 4,-1 7,4 3,-4 3,1 4,5 -1,3 2,1 2,-2 -1,3 6,4 3,-1 v -4 l 5,-3 -4,-2 -1,-5 2,-3 5,4 5,-3 3,1 1,-2 6,1 -1,1 1,4 2,1 2,17 3,3 1,5 -1,5 5,1 2,4 4,1 17,-9 v 5 l 2,3 6,4 5,6 2,5 -8,3 -2,4 2,2 h 4 v 15 l 7,1 -1,3 3,2 v 5 l 4,-2 4,1 3,-3 6.00002,2 3,-1 4,-11 h 2 l 5,5 5,2 1,-2 h 4 l 6,3 h 11 l 2,2 v -8 h 9 v -2 l -2,-1 h 5 l 4,-12 -2,-4 1,-4 6,-3 3,1 2,-8 7,3 h 4 v 7 l 6,3 4,8 2,1 3,-4 3,-1 3,-5 h 2 l 3,3 h 5 l 6,6 v 2 l -2,1 v 4 l 12,4 2,2 h 5 l 3,-2 2,2 6,-1 3,2 4,-3 3,1 1,-4 9,4 h 4 l 2,-7 h 3 l 1,-2 4,-1 -1,-7 5,-2 -5,-3 v -2 l -9,-5 -3,-4 -2,1 -3,-3 -4,1 -4,-5 h -3 v -3 l -11,-8 3,-4 -2,-5 h -6 l -1,-2 4,-5 5,-1 4,3 h 10 l 6,6 4,1 3,-5 14,4 9,-3 1,2 h 5 l 2,-7 -2,-1 -1,-5 -4,-4 -1,-6 -3,-3 3,-10 4,-2 v -11 l 5,2 4,-3 v -3 h 8 l 4,-6 6,-3 1,3 -2,2 3,8 7,-1 6,-4 1,3 -2,2 -3,16 5,9 4,1 2,-5 2,1 1,-2 h 4 l 2,-3 h 3 l 1,2 5,-2 1,-3 -5,-10 -1,-9 -3,-2 -2,1 -5,-4 4,-9 -2,-5 -4,-2 h -6 l -3,-9 -6,1 1,-5 h 3 l 1,-3 h 3 l -1,-8 -3,-3 -6,-2 -1,-2 v -4 l 2,-1 -1,-10 3,-5 -3,-2 1,-3 -2,-2 v -6 l 2,-6 7,-5 1,-9 -7,-7 1,-2 -4,-4 h 5 l 1,-4 2,1 1,-3 z m -786.00002,167 -2,-10 -4,1 -9,-3 -8,1 -2,3 -6,2 -1,2 -1,6 12,3 4,-1 1,7 h -2 l -1,-2 -5,2 h 2 l 2,3 v 6 l -7,-2 v 2 l 3,3 8,-2 1,3 h 3 l 3,-4 1,-6 3,1 1,-2 -1,-5 3,-1 z"
     id="那曲市" />
  <path
     stroke="#ffff00"
     stroke-opacity="1"
     stroke-width="0.5"
     stroke-linecap="round"
     stroke-linejoin="round"
     stroke-dasharray="none"
     fill="#1e90ff"
     fill-opacity="1"
     fill-rule="evenodd"
     d="m 447.99998,-157 -11,9 h -13 l -2,2 -2,-1 -6,2 -4,3 -3,9 -5,1 -11,-6 -6,-1 -2,-5 -6,-3 -1,-2 -5,1 v 2 l -9,3 -6,-2 -6,2 -2,3 -16,7 -3,3 -28,8 v 2 l 2,1 -2,5 -11,7 -6,1 -8,5 -3,-2 -4,2 -4,-6 -2,1 -3,-2 -7,2 -6,5 h -16 l -6,3 -2,-2 -5,1 -1,-3 -2,1 -5,-2 -16,-2 -3,-2 -6,3 -5,-1 -5,-7 -6,-3 -3,-7 1,-6 -2,-8 h -6 l -2,-2 -7,1 -6,5 -9,-6 h -4 l -3,-2 -4,1 -4,-2 -5,2 -1,5 -6,1 2,4 -2,6 -13,5 v 3 l -2,-1 -11,5 v 13 l -7,3 -4,4 -6,2 -5,-2 -6,1 -5,3 h -15 l -2,-2 1,-3 -6,-6 -10,-2 -2,2 -2,-1 -6,3 -3,-5 h -4 l -4,-3 v -2 l -6,3 v 5 h -3 l 2,3 h -6 l -10,-4 -14,1 v -3 l -3,-1 v -3 l -3,1 -3,-2 -3,2 -3,-2 -1,2 -1,-2 -6,-1 v -3 h -2 l -4,6 -7,1 -3,9 9,10 -10,1 -3,3 1,2 -2,4 -8,6 -4,-1 -4,4 v 15 l -3,1 -1,4 -6,1 2,3 -4,10 v 5 l -3,2 2,5 -2,1 -2,6 1,4 -5,5 h -10 l -2,3 h -8 l -4,-3 -2,4 -1,-1 -13,3 -4,-2 -8,3 -5,-1 -2,-2 -7,3 -4,-1 v 2 l -2,1 3,5 v 3 l -6,1 -5,18 -2,1 -2,-2 -5,4 -2,-1 -5,5 h -8 l -1,4 v 2 l 8,4 -1,9 3,1 v 13 l 2,6 -8,6 -1,3 3,3 h 3 l -1,8 7,8 3,6 4,1 5,4 1,4 6,2 2,6 3,2 -1,2 8,5 1,2 -2,2 v 5 l 2,10 3,4 5,3 -3,6 v 11 l 5,1 2,6 -2,5 3,9 -3,3 v 2 l -3,4 h -5 l -5,4 -3,11 h -9 l -3,4 -6,-4 v -2 l -5,-2 -6,-8 -2,-9 2,-5 -4,-5 v -5 l -10,8 -4,-1 v 2 h -3 l -1,2 -11,4 -2,4 7,10 -1,6 2,6 2,1 -2,7 -5,4 3,9 4,-2 1,3 8,7 -1,2 10,5 6,7 -3,2 v 2 l -7,4 -1,3 5,5 4,10 4,1 5,7 -6,7 -4,1 -1,6 h 2 l 4,4 -4,8 4,7 6,1 v -3 l 2,4 4,3 v 3 l 3,4 3,1 1,2 -3,4 4,8 8,5 7,-2 2,1 2,6 h 3 l 7,-1 -1,-6 8,-6 2,6 7,-1 4,7 4,2 5,-1 2,-3 8,4 5,9 h 7 l 2,2 -2,3 5,2 2,8 -1,1 5,4 3,7 7,4 8,-2 5,2 4,-1 4,5 14,4 4,4 3,-2 4,1 8,5 9,9 6,3 3,-1 2,4 9,2 v 5 l 5,11 h 2 l -1,5 3,4 6,-1 2,2 3,-1 -1,-2 4,-3 v -7 l -2,-2 h 5 l 7,-6 v -4 l 2,-3 -1,-2 2,-2 -3,-1 1,-6 2,-1 -2,-2 1,-2 12,5 1,-6 5,2 1,-4 12,7 10,1 6,3 2,-1 3,3 6,-1 2,-2 5,5 -2,7 3,4 10,-8 2,-3 v -10 h 2 l 2,-3 3,3 5,-1 v 5 l 2,1 v -3 h 4 l -1,-5 9,5 2,3 5,-1 v -3 l 3,-3 -6,-11 2,-6 h 2 l 1,-3 -2,-3 v -11 l 4,-1 -1,-1 3,-4 3,2 3,-1 3,3 2,7 12,6 -3,3 2,7 6,-1 1,3 3,2 8,-11 3,-10 -2,-9 -1,-2 h -9 l -3,-5 -3,-1 1,-2 -3,-2 -2,-4 -4,3 -3,-6 -5,-5 -1,-4 3,-11 h 7 l 4,-3 2,1 v -8 l 2,-1 -4,-15 2,-8 -2,-2 -5,-1 -3,-4 -2,1 -1,-5 2,-2 5,3 h 7 l 1,-1 -4,-2 v -2 l -2,1 -1,-3 9,-1 v 3 l 3,1 1,-4 6,-1 2,-3 4,-1 3,5 4,-1 -1,-5 5,-3 1,3 4,3 -1,3 4,4 7,2 h 12 l 4,2 4,-2 6,3 4,-3 2,2 3,-2 h 11 l 5,-6 7,4 4,-2 1,-5 10,1 2,6 3,-1 1,-3 4,3 1,-6 -4,-12 4,-2 4,3 2,5 -1,2 16,4 4,3 h -5 l -1,5 -5,6 -2,6 h -14 l -3,4 -12,4 v 4 l 9,3 4,3 13,-1 v 2 l 9,4 1,9 2,2 -1,10 1,2 3,-1 3,3 -1,5 8,6 -1,3 -3,-1 -12,13 v 2 l -4,3 1,1 -4,4 v 5 l -5,5 4,4 -5,10 2,7 9,-1 1,4 2,1 -1,2 2,2 v 3 l 4,4 4,1 v 4 l 4,4 v 13 l -2,3 1,2 6,3 5,-1 v 4 l 4,2 5,7 11,10 7,4 1,3 2,1 6,-3 5,4 9,-5 -2,-5 3,-8 2,-1 2,4 6,1 2,4 h 4 l 1,-3 -6,-4 1,-3 6,-3 h 7 l -2,-8 2,-2 8,-2 2,-4 -3,-3 v -7 l 3,3 4,1 1,-3 -3,-10 -6,-3 6,-2 4,-9 6,4 v -2 l -5,-6 2,-10 -3,-10 h -7 l -7,-3 2,-6 6,2 4,-3 -5,-6 3,-4 v -5 l -5,-8 v -11 l 1,-2 6,-2 1,-3 9,-1 9,3 4,-1 2,10 7,-4 v -7 l -3,-4 1,-6 -4,-5 -6,1 -9,-2 -2,-2 -7,-1 -1,-4 h -6 l -3,-3 h -4 l -10,-5 -5,-10 1,-3 -6,-3 -1,1 -4,-4 v -4 l -4,-2 -4,4 -4,-2 -2,-7 -6,-3 -6,2 -1,-1 -2,-3 2,-7 -2,-7 4,-5 -2,-4 v -10 l -7,-5 -1,-6 11,-16 7,-26 8,-3 6,-8 h 9 l 7,-5 h 4 l 11,-5 12,-1 8,-6 v -3 l 10,-3 3,-6 -5,-6 3,-5 -2,-2 2,-3 4,-2 -2,-4 3,-6 3,-2 v -2 h -13 v -9 l 16,-7 2,-2 2,-7 7,-4 -6,-7 1,-4 -2,-12 h -4 l -2,-2 -1,-7 3,-4 v -4 l 6,-7 v -5 l -4,-7 v -4 l -4,-3 V 33 l -5,-6 V 16 l 3,-6 V 5 l -3,-1 -6,-7 -11,-3 v -6 l 7,-6 3,-5 -2,-6 7,-12 3,-11 -3,-1 10,-19 -1,-4 2,-3 -3,-5 1,-7 -3,-5 6,-3 v -3 h 5 l -4,-6 v -7 l 2,-4 3,-1 -2,-1 v -6 l 3,-5 -3,-1 v -3 l -5,-5 h -2 l -3,-5 -7,-3 1,-3 -4,-3 z"
     id="阿里地区" />
</svg>