<svg xmlns="http://www.w3.org/2000/svg" id="svg1" version="1.1" viewBox="-251 -228 1888 1034">
  <path id="拉萨市" fill="#ff6347" fill-opacity="1" fill-rule="evenodd" stroke="#ffffff" stroke-dasharray="none" stroke-linecap="round" stroke-linejoin="round" stroke-opacity="1" stroke-width="0.5" d="m838 552 8 7 8-1 6-3 2 1 4-5 5-2 4 1 12-2 15-8v-2l2 1 13-10h6l5 3 1-1 2 2h3l2-3 11-6h8v5l2-2 3 3 14-7 18 3 2 3h6l5-4h9l4-6 1 1 4-2v-10l-2-5 3-5-4-1-4 5-3-6-9-4v-7l2-1 2 2h3l7-5 3 1 4-4h3l-2-4 6-5h7v-4h2v-3l4-4-3-4h-11l-6-3h-4l-1 2-5-2-5-5h-2l-4 11-3 1-6-2-3 3-4-1-4 2v-5l-3-2 1-3-7-1v-15h-4l-2-2 2-4 8-3-2-5-5-6-6-4-2-3v-5l-17 9-4-1-2-4-5-1 1-5-1-5-3-3-2-17-2-1-1-4 1-1-6-1-1 2-3-1-5 3-5-4-2 3 1 5 4 2-5 3v4l-3 1-6-4 1-3-2 2-2-1 1-3-4-5-3-1-3 4-7-4-4 1-15 47 6 11-3 1-6 6h-4l-3 3-3-1v2l-5 3v5h-13l-3 11-2 1v3l-3 2-4 12h-4l1 3-2 3-3 2-4-1-1-2-3 1-2-2h-7l-1 3v7l2 3-1 5 2 4 3 2-3 4-6 3 2 3-6 7 5 6-1 3h-2l-1 2 2 1v5l14 9 12-2h7l7 3 3-1z"/>
  <path id="日喀则市" fill="#ff6347" fill-opacity="1" fill-rule="evenodd" stroke="#ffffff" stroke-dasharray="none" stroke-linecap="round" stroke-linejoin="round" stroke-opacity="1" stroke-width="0.5" d="m797 482-2-2-1-6-3-1-2-4 2-4-5-5-2 2h-4l-1-6-4 2-4-1-3-3-3 2-5-4h-6l-3 3h-2l-5-5-6 2-4-3-1-3-9 7-8-1-2 3h-2l-2 4-3-3-4-1-1 3-15-3-4 1-4 7-3 1v3l-3 2v3l-2 2-5-4 2-6-1-6-5-1-2-4-5-1h-3l-3 4h-7l-1-4-6-2-4-10-4 2-3-3h-4l-3 2-6-3-3 2-1-1-6 5-14-5-1 2-5-3 1-3-3-1 2-2v-3l-4-3 2-3h-2l-1-2h-8l-2 3-3-2h-8l-3-2-3 1-2-3 2-5-1-9-6-9 3-5-1-8-2-2-7 5-1 9-8 6-5-1 6-6 2-11h2l-5-1-5 4h-5l-7 7 6 9v6h-3l1 2 8 2-1-8 4-1v8l-2 1-2 7h3l3-3 2 11-8-7-4 4-3-2v3h-4l-1-3-4 3 3 8h-3l-2-2-2 4-7-2 1 3 3 1-2 2-5-7v-3l-5 2-4-1 1-9-3-8 2-7-3-2v-2l-5-6-2-16-8-3-3-3-7 4-2 7-3 1 2 3-2 4-3-1-1 6-3 4h-3l-1-3-8 2-3-3-3 4 4 8-3 1-6-2-2 4v2h2l1 2 11 1 3 10-2 10 2 4 3 2v2l-6-4-4 9-6 1 4 4h2l3 10-1 3-4-1-2-3-1 7 3 3-2 4-8 2-2 2 2 8h-7l-6 3-1 3 6 4-1 3h-4l-2-4-6-1-2-4-2 1-3 8 2 5-9 5-5-4-6 3-3-4-7-4-11-10-5-7-4-2v-4l-5 1-6-3-1-2 2-3v-13l-4-4v-4l-4-1-4-4v-3l-2-2 1-2-2-1-1-4-9 1-2-4v-3l3-4-1-2 3-4-4-3 2-2-1-1 4-3v-5l4-4-1-1 4-3v-2l12-13 3 1 1-3-8-6 1-5-3-3-3 1-1-2 1-10-2-2-1-9-9-4v-2l-12 1-14-6v-4l12-4 3-4h14l2-6 5-6 1-5h5l-4-3-16-4 1-2-2-5-4-3-4 2 4 12v6l-5-3-1 3-3 1-2-6-10-1-1 5-4 2-7-4-5 6h-11l-3 2-2-2-4 3-6-3-4 2-3-2h-13l-7-2-4-4 1-3-4-3-1-3-5 3 1 5-4 1-3-5-4 1-2 3-6 1-1 4-3-1v-3l-9 1 1 3 2-1v2l4 2-1 1h-7l-5-3-1 7 2-1 3 4 5 1 2 2-2 8 4 15-2 1v8l-2-1-4 3h-7l-3 11 1 4 5 5 3 6 4-3 2 4 3 2-1 2 3 1 3 5h9l3 11-3 10-7 11-4-2-1-3-6 1-2-7 3-3-12-6-2-7-3-3-3 1-3-2-3 4 1 1-4 1v11l2 3-1 3h-2l-2 6 6 11-3 3 1 2-6 2-2-3-9-5 1 5h-4v3l-2-1v-5l-5 1-3-3-2 3h-2v10l-12 11 4 2v2l2 1-3 3v5l10 2 2 3 2-1 3 3 2-1 8 5 2 3 4-2 2 1 4 7 3 2-1 4 6-2 4 5-4 4h6l1 4 4 1 1 3 11-2v4h6l7 7 6-2 1 3 5-1v2l4 1 1 7h4l3 2v3l3 4h3v6l2 1 2 7 3 1 3 6 4 2 2 3h6l6-8h7l2-5 8-3h7l3 4 7-1 3 6h6v3l-3 2 1 6 3 2-2 4 1 3 5 2-3 13 6 3 11 2 3 9 4 3 7-1 5 2 8 6-1 4 7 2 8 5 6-3 5 1 1-3 6-6h7l6 6-1 7-3 6-4 3v6l2 2-2 4 1 1 5 1 3-2 6 6 7-1 2 2 4-3v-2h10l7 3v4l4-3 3-9 3-1 3 16 10 6 4 7v5l7 7-3 5 5 3 5 1 6-3-4-9 1-8h4l5-8 3 8v10l2 3 3-1 3 3h2v-2l8 6h3l2-4 4-2 1-6 1-2h2l1-6h2l2 3h3l1-2 4-1 6 3-2 3 1 1 6 2 4-1 2 3 3 1 1 3 9 1 4 3 4 8 10 3 3-4 9 3 5-4 2 2h-3l4 2 12-4 1 5 7-2v2l5 1 5-6v-3l4-4v-2l4 1-1 2 2 1 9 2 5-1 5 1 2 2 2-1-1-4 2-4 6 1v-2h3l1 3 9-5 4 1 8-6 3-1 3 2 1-6h3l5-3 2 4h9l7 8v8h2l2 7-3 10 1 3-2 1 1 4-4 4-2 7h-2l1 4 2 1-2 5 3 7 2 2h3l3 6h2l-1 5 3 1 4 6 7-4 1-4 7-4 3-5-8-10 1-7 3-1 2-3-3-6 9-10-1-2 2-5 5-5 7-2 6-9 1-5 2-1-1-2 4-5 3-1 6-7 7-2 4 1 5-3 1-4 7 2 3 4 7-1 5 5 4-2 2 2 2-5h4l2 2 4-14v-5l-9 2v-4l-4-2-1-8 5-4-3-11h-3l1-4 4-2 3-4h2l-1-5 2-2 1 1 2-3v-4l-3-6 1-3-2-1 4-8-1-2 3-3v-12h2l3-3 1-5 4-6-8-3-3 1-7-3-19 2-14-9v-5l-2-1 4-4-5-7 5-7v-3l5-2 3-5-3-2-2-4 1-5-2-3 1-10h3zM420 379l1 5 5 8v3l7 2v-6l-2-3h-2l5-2 1 2h2l-1-7-4 1-9-3z"/>
  <path id="昌都市" fill="#ff6347" fill-opacity="1" fill-rule="evenodd" stroke="#ffffff" stroke-dasharray="none" stroke-linecap="round" stroke-linejoin="round" stroke-opacity="1" stroke-width="0.5" d="m1597 642-1-4-5-1v-14l-3-5 8-6-2-10 1-2-2-5 1-4-2-1v-3l2-1 4 2 6-5 2 1 3 8 1 10 2 3 6-1v-2l5-1-1-4-4-1v-10l3-1 6-7-5-9 1-6 4 1 2-2 7-1-3-7-2-1v-19l-2-4 1-5-5-9v-9l2-6-1-3 4-7 1-5-3-9 1-6-3-4 1-2-3-2 1-6-3-4 2-3v-5l-2-1 1-7-3-8v-12l-2-2-1-8 5-4-1-5-7-3v-3h-2l-7-7 3-11-3-4-4-2v-2l-2-1v-4l-3-4-6-2-1-2 2-1-2-6 3-8h5l5 8 3 1 3-3 1-4 6-6-5-7-4-4h-2l-19-19-1-7h-3l-3-7h-2v-2l-2-1 1-2h-3l1-3-2-6 3-1v-9l-12-12-4-10-4-2v-12l-8-6h-4l-6-6-10-4-3 1-1-2h-5l-1-2-4-1h-23l-3-2-2-4-7 4-1-2-3 3 1 3 1-1 4 2-5 7 5 1 2 5-1 5 2 1-1 3-4 3-2-3h-5l-3 12 1 5 4 1-2 3 1 3h-4l-4-4-1 2 2 5-4-1-1 2h-7l-6-1-2-2h-5l-2 2 3 3-2 3-4-3-1 2h-2v3l-2-3-10-3-1 1 2 2 1 6 5 5-2 3-3 1 1 4 6 9-1 4h-3l-1 3h-2l-8-6-1 2-4-3-4 3-12-10-3-5-1-8-9 1-4-2-3 3h-3l3 3-1 4h-2l-1 7 5 3-1 1 3 5-1 4h-2l1 3-2 3h-4l-1-10-10-4-5-6v-2l-6-2-5 5-2 4 1 3-3 3-3-6-5-3-11-2-1 2h-2v2h-6l-1-3-6-6-3-9-3-2-1-3 3-4 5-1-3-3 3-3-1-10-3-3-4 1 1 3h-5l-3-3v-3l-2-1-2-12h-2l-1 3-3 2-6 2-3-2 2-5 15-3-4-5h-8l-5 2-8-5-1 2-6-1-2-6-3 1-4-2-2-5h-3l-2 4-2-1-1 4h-5l3 2v4l6 7v9l-7 5-2 6v6l2 2-1 3 3 1-3 6 1 10-2 1v4l1 2 9 4 1 8-3 1-1 3h-3l-1 5 6-1 2 3v6h7l4 2 2 5-4 9 5 4 2-1 3 2 1 8 5 11-1 3-5 2-1-2h-3l-2 3h-4l-1 2-2-1-2 5-4-1-5-9 3-16 2-2-1-3-6 4-7 1-1-5-2-2 2-3-1-3-6 3-4 6h-8v3l-3 3-6-2v11l-4 2-3 10 3 3 1 6 4 4 1 5 2 1-2 7-2 1-4-3-9 3-14-4-3 5-4-1-6-6h-10l-4-3-5 1-4 5 1 2h6l2 5-3 4 11 8v3h3l4 5 4-1 3 3 2-1 3 4 9 5v2l5 2 4-1 11-11 5 2 1 4h5l1-3 6 3h6l2-1-1-3 2-2h4l3-2 8 3 5-2 8 4h3l1-2 4 3 3-2h5l-1-6 2-2h3l6 4 2-3 3-1 7 4-2 2 4 5 2-1v-2l3 1 1-4h5l3 2 3-1 2 2 12 3v8l5 2 2 6 4 4 6 2-3 2 1 3 5 2 1 3 6 2 3-3h2l1 2h4l1 4 2 1 1-2 6-1 1-6 10-5h8l5 6 5-4 2 1 3 3-1 1 5 3v6l-3 3h4l2 2-3 6-1 7-5 2 1 7-3 1-3 9-4 4 2 5 5 2 3 6 4 2 3 8-3 6h-2l9 9v2l-2 1h-9l-4 4 12 9 4 9 12 1 1 2h3v3h3v-8h6v-12l-3-2v-3l4-3-2-7 4-4 3 1 1-6h2v4l6 6h13l-1 2 7 7-2 1v3l3 4h2l2 11v12l12-3-3-4 2-6 4 1 3-3-3-4h-2l-1-3 6-1 3 2 2-1 7 5 9 13h8l2-4 3 1 5 5v5h3l4 4-2 1v3l3 6 2 1v3h5l3-6 2 3 4 2 2 9h3l1 2 6-2 1 1 3 5-2 3 2 5 7 11-2 4 6 5h3z"/>
  <path id="林芝市" fill="#ff6347" fill-opacity="1" fill-rule="evenodd" stroke="#ffffff" stroke-dasharray="none" stroke-linecap="round" stroke-linejoin="round" stroke-opacity="1" stroke-width="0.5" d="m1184 428-5 3 1 7-4 1-1 2h-3l-2 7h-4l-9-4-1 4-3-1-4 3-3-2-6 1-2-2-3 2h-5l-2-2-12-4v-4l2-1v-2l-6-6h-5l-3-3h-2l-3 5-3 1-3 4-2-1-3-7-7-4v-7h-4l-7-3-2 8-3-1-6 3-1 4 2 4-4 12h-5l2 1v2h-9l1 10-4 4v3h-2v4h-7l-6 5 2 4h-3l-4 4-3-1-7 5h-3l-2-2-2 1-1 7 10 4 3 6 4-5 4 1 1 2h4l1 2 3-2 1 1v5l2 3-4 6-2 7 1 4 3 1 5-11 3-2 2 1 4-3h3l2 4h3l4-3 3 1 5-5 5 1 4 4 2 3-1 3 3 5 6 4 1 4-2 2v3l2 3v4l2 1-3 4h-4l-2 2 1 3-10 16h-4l-8 6-2 10 1 2-3 4-4 1-2 3v4l-2 2-4-2-2 1-4-3-3 1-2-2-6 6 1 4 5 5 3-3 2-6h2l8 5 11 1 2 5h5l3-6 3-1 5 4 2-1 8 2 15-3h9l2 4 9 1v3l4 1 8-2 3 1v2l6-2 1 1 4-3 2 4h2l1 3h2v3l4 3 1 18 5 3h8l4 8 7 6 1 12-2 3 5 5 1 4 8 3 3 7-1 5 3 2-3 5v4l4 3h-2l-10 8v7l2 1 2-2 15-1 4-2 4 1 26-13 7-2 12-9 24-11 10-21 18-7 7-5 6-2 5 1 4-3h4l3 5 10 6 23-4 2 9 10 2-1-3h5l5 8 1-1 5 2 5 4 1 4 4 4 3-1 7 3 2 4h9l6 3 3 5 2-1 2 2 1 6h3v-4l6-3 13-11 2 4 5-1-1-2 2-1-2-1 2-7 2-2-3-5-6 1-1-2 3-3-1-4 2-1v-9h5v-5l2-1 3 3 2-1-1-3 4-1-3-7 2-1v-4l2-2-2-2v-3h2l4-5h2l1 3 3-2 7 4 2 3v7l6 8h4v-3l6-1 5 5v2l5 4-1 4 2 3 5-1 1 3 4 3 3-3v-4l8-3-2-8-3-2v-3l2 1 5-4 2 1 1 6 2 3h2l2 5-1 6 2 2 1 7h2l3-3v-2l4 1 3-4 8 1 8-6 1-9 3-2-3-6h-2l1-2-2-3-8-2-6-5 2-4-7-11-2-5 2-3-3-5-1-1-6 2-1-2h-3l-2-9-4-2-2-3-3 6h-5v-3l-2-1-3-6v-3l2-1-4-4h-3v-5l-5-5-3-1-2 4h-7l-10-13-7-5-2 1-3-2-6 1 1 3h2l3 4-3 3-4-1-2 6 3 3-12 4v-12l-2-11h-2l-3-4v-3l2-1-7-7 1-2h-13l-6-6v-4h-2l-1 6-3-1-4 4 2 7-4 3v3l3 2v12h-6v8h-3v-3h-3l-1-2-12-1-4-9-6-4v-2l-6-3 4-4h9l2-1v-2l-9-9h2l3-6-3-8-4-2-3-6-5-2-2-5 4-4 3-9 3-1-1-7 5-2 1-7 3-5-2-3h-4l3-3v-6l-5-3 1-1-3-3-2-1-2 3-3 1-5-6h-8l-10 5-1 6-6 1-1 2-2-1-1-4h-4l-1-2h-2l-3 3-6-2-1-3-5-2-1-3 3-2-6-2-4-4-2-6-5-2v-8l-12-3-2-2-3 1-3-2h-5v3h-4v2l-2 1-4-5 2-2-7-4-3 1-1 3-7-4h-3l-2 2 1 6h-5l-3 2-4-3-1 2h-3l-8-4-5 2-8-3-3 2h-4l-2 2 1 3-2 1h-6l-4-3h-2l-1 3h-5l-1-4-5-2-11 11h-2z"/>
  <path id="山南市" fill="#ff6347" fill-opacity="1" fill-rule="evenodd" stroke="#ffffff" stroke-dasharray="none" stroke-linecap="round" stroke-linejoin="round" stroke-opacity="1" stroke-width="0.5" d="m838 552-1 3-3 2-1 6-3 3h-2v12l-6 13 2 1-1 3 3 6v4l-2 3-1-1-2 2 1 5h-2l-7 6-1 4h3l3 11-5 4 1 8 4 2v4l9-2v5l-4 14 3 2 7-1 1 3 7 7h5l4 2 3-2 7 4 10-5 7 3 10 10 7-1v6l10 5h3l4-5-1-3 2-4 10-2 1-4 2-1v-3h3l1 2 10 4 3 3-1 4 6 3 1 2h5l1 2-5 1-2 4h6l2 5-1 8-5 4-1 3 2 3v6l16 8 7-3 10 3 6-2 1 4 2 1 8 16-4 1-2 8-3 2 1 12 3 1 4 8-1 11 21-5h6l17-5h7l12 6 10-2 13 3 52-7 11-7 9-3v-12l13-16 24-24-2-1v-7l10-8h2l-4-3v-4l3-5-3-2 1-5-3-7-8-3-1-4-5-5 2-3-1-12-7-6-4-8h-8l-5-3-1-18-4-3v-3h-2l-5-7-4 3-1-1-6 2v-2l-3-1-8 2-4-1v-3l-9-1-2-4h-9l-15 3-7-2-3 1-3-4-5 1-2 6h-6l-2-5-13-2-6-4h-2l-4 9-6-5-1-4 6-6 2 2 3-1 1 2h5l4 2 2-2v-4l2-3 4-1 3-4-1-2 2-10 6-5 6-1 10-16-1-3 2-2h4l3-4-2-1v-4l-2-3v-3l2-2-1-4-6-4-3-5 1-3-6-7-5-1-5 5-3-1-4 3h-3l-2-4h-3l-4 3-2-1-3 2-5 11-3-1-1-4 2-7 4-6-2-3v-5l-1-1-3 2-1-2h-4l-1-2-3 5 2 5v9l-4 3-1-1-4 6-2-1-1 2-6-1-5 4h-6l-2-3-18-3-14 7-1-2-2-1-1 2-2-2 1-3h-8l-11 6-2 3h-3l-2-2-1 1-5-3-10 2-9 8-2-1v2l-15 8-12 2-4-1-5 2-4 5-2-1-6 3-8 1-6-6z"/>
  <path id="那曲市" fill="#ff6347" fill-opacity="1" fill-rule="evenodd" stroke="#ffffff" stroke-dasharray="none" stroke-linecap="round" stroke-linejoin="round" stroke-opacity="1" stroke-width="0.5" d="m1239 210 1-3h-2l-1-3-4-2-7-8-2 4-5 4-5 1-1-2-1 4-2 1-3-4-3 4v5h-7v2l-9-2-2 7h-2l-1 2-8-4-2 3-7-4-4 2h-5l-3-9-9-3h-7l-2 5-6 5-4 1-1-3h-2l-3-7-6 4-4-5-3-1v-4h-4l-2-4-6-1-1 2-8 2-3-7-2-1v-3l-2-1-3 3h-8v2l-5-4-3 1-9-5-2 4-3 1-3-2h-11l-3-3-4 2-5-2 1 2h-6v2l-4 1-5-3v-6l3-2-2-5-8-1-1 2-8 1 1 2-7 1-6-7 1-2-4 1-2-5h-5l-2-3-16-7-3-3 1-1-2-3h-5l-4 4-1-2-11-3-7-4-7 6v2l-7-4-4 1-2-2h-8l-2 4-2-4-7 1-5-4-4 1-15-11h-2l-2-3-8 1-4-3-13-17-12-3v-6l-6-3-3-4v-9l2-2-3-2 1-2-7-2-1-2 3-4-3-1-6-7-4 1-9-11-5-10 2-1v-4l3-3h6v-3l5-2-1-2 2-1 1-7-1-4 4-4-1-3-1 1-4-5 2-2-1-15-3-3 2-5-1-2-2 1-4-3 1-8 3-2 3 1v-3l3-2-1-1 4-2-2-1v-4l-3-1 1-4-3-2-4 2-3-2-5 4-7-1-2-4 3-19-1-2h-4l-2-2-6-10 7-6h-2l-1-2 2-4-2-2 1-2 6-1 4-4h6l6-7h2l-6-7 1-5 3 1 2-3-4-6 2-1-1-6 1-4 3-1-1-4 3-5-2-2-11 2-3-2-7 1-2-2 1-1-4-3-2 1-4-2-1-2 2-2v-5l-3-2 1-4 2 2 7 1 11-3v-2h2l3-3-18-6-11-9-7-1-6-7-3 4-6 1-8-6-7-1-4-6-11 4-2 5-3-3h-2l-3-6-6-2-1-5-4-4-7 2-2-4h-9l-2 1 1 2-7-2-6 3-3-1-5 3-14-1-5 5h-11v2l-6-1-15 5-9-1-1-7-9-1-1 3-5 4-9 1-4 6h-4l-2-2-3 2-5-1-6 5h-4l-3-4h-7l-7 4v2l-16 2-1 2h-11l-3 5-8-1-3 4-5 1-1 6 2 5h-2v3h-2l-2 3v4l-4 4-2 7 4 3-1 3 7 3 3 5h2l5 5v3l3 1-3 5v6l2 1-3 1-2 4v7l4 6h-5v3l-6 3 3 5-1 7 3 5-2 3 1 4-10 19 3 1-3 11-7 12 2 6-3 5-7 6v6l11 3 6 7 3 1v5l-3 6v11l5 6v14l4 3v4l4 7v5l-6 7v4l-3 4 1 7 2 2h4l2 12-1 4 6 7-7 4-1 7-10 6-9 3v9h13v2l-3 2-3 6 2 4-4 2-2 3 2 2-3 5 5 5-3 7-10 3v3l-8 6-12 1-11 5h-4l-7 5h-9l-5 8-9 3-7 26-6 10-3 2-2 7 1 3 7 5v10l2 4-4 5 2 7-2 7 3 4 6-2 6 3 2 7 4 2 4-4 4 2v4l4 4 1-1 6 3-1 3 5 10 10 5h4l3 3h6l1 4 18 5 6-1 3 3v8l3 4-1 5 4 5 8 3 2 16 5 6v2l3 2-2 4 2 6-1 2 2 3-1 9 4 1 5-2v3l5 7 2-2-3-1-1-3 7 2 2-4 2 2h3l-3-8 4-3 1 3h4v-3l3 2 4-4 8 7-1-10-1-1-3 3h-3l2-7 2-1v-8l-4 1 1 8-8-2-1-2h3v-6l-6-8 7-8h5l5-4 5 1h-2l-2 11-2 3-4 2 2 3 3-1 8-6 1-9 7-5 2 2 1 8-3 5 6 9 1 9-2 5 8 4h8l3 2 2-3h8l1 2h2l-2 3 4 3v3l-2 2 3 1-1 3 5 3 1-2 13 5 7-5 1 1 3-2 6 3 3-2h4l3 3 4-2 4 10 6 2 1 4h7l3-4h3l5 1 2 4 5 1 1 6-2 6 5 4 2-2v-3l3-2v-3l3-1 4-7 4-1 15 3 1-3 4 1 3 3 2-4h2l2-3 8 1 9-7 1 3 4 3 5-2 6 5h2l3-3h6l5 4 3-2 3 3 4 1 4-2 1 6h4l2-2 5 5-2 4 2 4 3 1 1 6 6 4 3-1 1 2 4 1 5-5-1-3h4l4-12 3-2v-3l2-1 3-11h13v-5l5-3v-2l3 1 3-3h4l6-6 3-1-6-11 9-26 3-14 3-7 4-1 7 4 3-4 3 1 4 5-1 3 2 1 2-2-1 3 6 4 3-1v-4l5-3-4-2-1-5 2-3 5 4 5-3 3 1 1-2 6 1-1 1 1 4 2 1 2 17 3 3 1 5-1 5 5 1 2 4 4 1 17-9v5l2 3 6 4 5 6 2 5-8 3-2 4 2 2h4v15l7 1-1 3 3 2v5l4-2 4 1 3-3 6 2 3-1 4-11h2l5 5 5 2 1-2h4l6 3h11l2 2v-8h9v-2l-2-1h5l4-12-2-4 1-4 6-3 3 1 2-8 7 3h4v7l6 3 4 8 2 1 3-4 3-1 3-5h2l3 3h5l6 6v2l-2 1v4l12 4 2 2h5l3-2 2 2 6-1 3 2 4-3 3 1 1-4 9 4h4l2-7h3l1-2 4-1-1-7 5-2-5-3v-2l-9-5-3-4-2 1-3-3-4 1-4-5h-3v-3l-11-8 3-4-2-5h-6l-1-2 4-5 5-1 4 3h10l6 6 4 1 3-5 14 4 9-3 1 2h5l2-7-2-1-1-5-4-4-1-6-3-3 3-10 4-2v-11l5 2 4-3v-3h8l4-6 6-3 1 3-2 2 3 8 7-1 6-4 1 3-2 2-3 16 5 9 4 1 2-5 2 1 1-2h4l2-3h3l1 2 5-2 1-3-5-10-1-9-3-2-2 1-5-4 4-9-2-5-4-2h-6l-3-9-6 1 1-5h3l1-3h3l-1-8-3-3-6-2-1-2v-4l2-1-1-10 3-5-3-2 1-3-2-2v-6l2-6 7-5 1-9-7-7 1-2-4-4h5l1-4 2 1 1-3zM453 377l-2-10-4 1-9-3-8 1-2 3-6 2-1 2-1 6 12 3 4-1 1 7h-2l-1-2-5 2h2l2 3v6l-7-2v2l3 3 8-2 1 3h3l3-4 1-6 3 1 1-2-1-5 3-1z"/>
  <path id="阿里地区" fill="#ff6347" fill-opacity="1" fill-rule="evenodd" stroke="#ffffff" stroke-dasharray="none" stroke-linecap="round" stroke-linejoin="round" stroke-opacity="1" stroke-width="0.5" d="m448-157-11 9h-13l-2 2-2-1-6 2-4 3-3 9-5 1-11-6-6-1-2-5-6-3-1-2-5 1v2l-9 3-6-2-6 2-2 3-16 7-3 3-28 8v2l2 1-2 5-11 7-6 1-8 5-3-2-4 2-4-6-2 1-3-2-7 2-6 5h-16l-6 3-2-2-5 1-1-3-2 1-5-2-16-2-3-2-6 3-5-1-5-7-6-3-3-7 1-6-2-8h-6l-2-2-7 1-6 5-9-6h-4l-3-2-4 1-4-2-5 2-1 5-6 1 2 4-2 6-13 5v3l-2-1-11 5v13l-7 3-4 4-6 2-5-2-6 1-5 3H34l-2-2 1-3-6-6-10-2-2 2-2-1-6 3-3-5H0l-4-3v-2l-6 3v5h-3l2 3h-6l-10-4-14 1v-3l-3-1v-3l-3 1-3-2-3 2-3-2-1 2-1-2-6-1v-3h-2l-4 6-7 1-3 9 9 10-10 1-3 3 1 2-2 4-8 6-4-1-4 4v15l-3 1-1 4-6 1 2 3-4 10v5l-3 2 2 5-2 1-2 6 1 4-5 5h-10l-2 3h-8l-4-3-2 4-1-1-13 3-4-2-8 3-5-1-2-2-7 3-4-1v2l-2 1 3 5v3l-6 1-5 18-2 1-2-2-5 4-2-1-5 5h-8l-1 4v2l8 4-1 9 3 1v13l2 6-8 6-1 3 3 3h3l-1 8 7 8 3 6 4 1 5 4 1 4 6 2 2 6 3 2-1 2 8 5 1 2-2 2v5l2 10 3 4 5 3-3 6v11l5 1 2 6-2 5 3 9-3 3v2l-3 4h-5l-5 4-3 11h-9l-3 4-6-4v-2l-5-2-6-8-2-9 2-5-4-5v-5l-10 8-4-1v2h-3l-1 2-11 4-2 4 7 10-1 6 2 6 2 1-2 7-5 4 3 9 4-2 1 3 8 7-1 2 10 5 6 7-3 2v2l-7 4-1 3 5 5 4 10 4 1 5 7-6 7-4 1-1 6h2l4 4-4 8 4 7 6 1v-3l2 4 4 3v3l3 4 3 1 1 2-3 4 4 8 8 5 7-2 2 1 2 6h3l7-1-1-6 8-6 2 6 7-1 4 7 4 2 5-1 2-3 8 4 5 9h7l2 2-2 3 5 2 2 8-1 1 5 4 3 7 7 4 8-2 5 2 4-1 4 5 14 4 4 4 3-2 4 1 8 5 9 9 6 3 3-1 2 4 9 2v5l5 11h2l-1 5 3 4 6-1 2 2 3-1-1-2 4-3v-7l-2-2h5l7-6v-4l2-3-1-2 2-2-3-1 1-6 2-1-2-2 1-2 12 5 1-6 5 2 1-4 12 7 10 1 6 3 2-1 3 3 6-1 2-2 5 5-2 7 3 4 10-8 2-3v-10h2l2-3 3 3 5-1v5l2 1v-3h4l-1-5 9 5 2 3 5-1v-3l3-3-6-11 2-6h2l1-3-2-3v-11l4-1-1-1 3-4 3 2 3-1 3 3 2 7 12 6-3 3 2 7 6-1 1 3 3 2 8-11 3-10-2-9-1-2h-9l-3-5-3-1 1-2-3-2-2-4-4 3-3-6-5-5-1-4 3-11h7l4-3 2 1v-8l2-1-4-15 2-8-2-2-5-1-3-4-2 1-1-5 2-2 5 3h7l1-1-4-2v-2l-2 1-1-3 9-1v3l3 1 1-4 6-1 2-3 4-1 3 5 4-1-1-5 5-3 1 3 4 3-1 3 4 4 7 2h12l4 2 4-2 6 3 4-3 2 2 3-2h11l5-6 7 4 4-2 1-5 10 1 2 6 3-1 1-3 4 3 1-6-4-12 4-2 4 3 2 5-1 2 16 4 4 3h-5l-1 5-5 6-2 6h-14l-3 4-12 4v4l9 3 4 3 13-1v2l9 4 1 9 2 2-1 10 1 2 3-1 3 3-1 5 8 6-1 3-3-1-12 13v2l-4 3 1 1-4 4v5l-5 5 4 4-5 10 2 7 9-1 1 4 2 1-1 2 2 2v3l4 4 4 1v4l4 4v13l-2 3 1 2 6 3 5-1v4l4 2 5 7 11 10 7 4 1 3 2 1 6-3 5 4 9-5-2-5 3-8 2-1 2 4 6 1 2 4h4l1-3-6-4 1-3 6-3h7l-2-8 2-2 8-2 2-4-3-3v-7l3 3 4 1 1-3-3-10-6-3 6-2 4-9 6 4v-2l-5-6 2-10-3-10h-7l-7-3 2-6 6 2 4-3-5-6 3-4v-5l-5-8v-11l1-2 6-2 1-3 9-1 9 3 4-1 2 10 7-4v-7l-3-4 1-6-4-5-6 1-9-2-2-2-7-1-1-4h-6l-3-3h-4l-10-5-5-10 1-3-6-3-1 1-4-4v-4l-4-2-4 4-4-2-2-7-6-3-6 2-1-1-2-3 2-7-2-7 4-5-2-4v-10l-7-5-1-6 11-16 7-26 8-3 6-8h9l7-5h4l11-5 12-1 8-6v-3l10-3 3-6-5-6 3-5-2-2 2-3 4-2-2-4 3-6 3-2v-2h-13v-9l16-7 2-2 2-7 7-4-6-7 1-4-2-12h-4l-2-2-1-7 3-4v-4l6-7v-5l-4-7v-4l-4-3V33l-5-6V16l3-6V5l-3-1-6-7-11-3v-6l7-6 3-5-2-6 7-12 3-11-3-1 10-19-1-4 2-3-3-5 1-7-3-5 6-3v-3h5l-4-6v-7l2-4 3-1-2-1v-6l3-5-3-1v-3l-5-5h-2l-3-5-7-3 1-3-4-3z"/>
</svg>
