<svg xmlns="http://www.w3.org/2000/svg" id="svg1" version="1.1" viewBox="-251 -228 2185 1882">
  <path id="贵阳市" fill="#ff6347" fill-opacity="1" fill-rule="evenodd" stroke="#ffffff" stroke-dasharray="none" stroke-linecap="round" stroke-linejoin="round" stroke-opacity="1" stroke-width="0.5" d="m1061 544-11-1-8 3-19 12-4-1-16-11-9-3-4 1-5 2-13 15-8 3-11 16-4 1-5-3-5-7-3-8-6-5-8-2-9 5-1 4 2 6-2 5-7 10-5 2v7l-5 5-3-2 2-7 4-2-7-5v-8l-3-8-4-5-10-2-9 5-11-1-5 12-12 9-12 3-8 7-20 13-9 2-2 2-2 10-10 5-5 11v13l4 11 1 9 5 8 5 3v3l-7 6-14 7-4 7-5 15v9l-2 3-5 4h-3l-8-5h-3l-8 13-6 2-7-5-3-8h-4l-5 3-5 6-10 3v2l-7 1-4 3-3 6-2 11 9 8 6 3 2 4-3 24 4 11-4 5-11 2-3 3 1 3 6 4 2 6 5 5 3 6 6 5v5l-3 1 3 4-2 3 7 5 11 1 16-7 7 6 7 2 4 7-2 10 1 3h8l3 6-10 7 1 2 25 5 5-1 9-7h3l3 14 3-1 6 8v5l6 3 2 3h19l4 2-2 12 2 3-5 8-4 2-5-1v4l-7 7-2 5-4 1-1 5 6 2v5l4-2 1 4-5 6 4 2 5-5 3 2 12-3 1 4 2-1 6 3 1-4 4-2 3 2 6-2 2-4-2-11 3-1 4 2 14-9 6 1 7 5 7-5 3 3 1 6 6 2 4-3h5l-2 4 2 2 1 12 7 8 3 6 4 3 8-2 3-3 2-6 5-2-1-6-9-3v-3l5-9 5-2-1-5-4-2-1-4 2-2v-4l-9-1-3 5-4-2-17-2-1-3 16-11v-8l3-5v-3h-7l-9 5h-4l-8-7 12-16 11-1-3-6 6-2 1-3-8-5-1-3 1-4 10-7 2-4-1-4 4-5-4-1-2-6 7-7 10-1 13-8-2-7-5-2-5 1-4-3 4-4h4l1-2 6-2 1 2 8-4h9l-2-5-3 1 1-11 8-2v-8l-2 1-1-6 6-2-6-2 1-4 5-5 5 1 4-3 3 1 5-5 5-1 8-7 4-6h5l8-5 7-2h15l9 5 7-2 11 4 3 4 4-5 2-15 2-1 1-8-10-41-3-2-3-11-13-5-2-8-10 1 3-28 6-9-4-12 3-5 10-4 10-1 6-5 1-14-10-7 1-3-17-1-13 3-6-4 2-4 7-4 2-8 12-14 1-9z"/>
  <path id="六盘水市" fill="#ff6347" fill-opacity="1" fill-rule="evenodd" stroke="#ffffff" stroke-dasharray="none" stroke-linecap="round" stroke-linejoin="round" stroke-opacity="1" stroke-width="0.5" d="m171 785 2 13v6l-2 4 2 7-6 2-1 16-2 5-16 10-2 4v23l-7 3 3 7h-8l-27-10-3 2-1 6 8 1 8 5 2 5 7 8-3 7v4l4 5 8 1v7l2 4-1 5 5 7 1 4-1 3-4-1-4 4v8l-24 7-4 9-5 6-5 3-4 8 2 15-4 4 1 4-4 9-4 3v14l3 5v8l-10 12-7-2-5-4h-2l-2 4 6 9-1 8-2 2 3 8-3 5v5l-7 10-1 5 2 2-3 6-7 4-2 3 2 7h6l2 10-4 4-3 7 3 7-1 3-4 2-2 6h-3l-2 15h-2l-2 6-5 6h-3l-5-4 1-2-9-6-2 5 2 4-2 2v12l-3 8v7l-2 2 1 6 4 2-3 4 6 6-1 5 2 3 9-1 4 2-1 7 8-7 12 4 2 3-2 5 4 4 1 14-2 6-4 2 4 5 2 6 4-1 1-8h12l9-6 6-7 9 4-2-3 2-2 3 2-2 21-3 4v18l-2 3 2 4 6 3 3-4 9 6v2l9 8 7-1 3 4 4-1 1-6 2-2 7 6 3 6v8l23-5 11 2 14-2 10-11 7 7 6-4 1-3-12-6-2-8 3-16 12-15 8-15v-13l-4-3h-5l-3-3v-10l-7-13 3-5 11-10 3-12-1-9-10-14-3-12 1-12 6-13 4-5 4 1 8-7 5-2 1-12-2-3 3-6-6-3-2-5 4-9v-5l5-14 2-14 4-4 2-5 4-1 9-9-5-12 7-11 12-10 5 4 9 2 5-3 8 1 5 5 7-10 11 1v4l-4 2 1 3-2 13 5 6 2 8-2 7 7 9 10 24 5 2 2-2-2-3 4-6 6-2 8 2 22-4 9 2 25-3 17-4 10-13 8-5 7-1 9 6 8-30-3-8 2-2 3 1 4 6h6l8 3v-5l8-9h4l3 2 5-2-3-8-4 3-16-11h-21l-4-5v-4l-9 3-3-3-6 4h-4l1-5-4-1-4 5-4-2-3-7-7-5-1-10 5-5 3-15 9-9 7-2-4-9-5-20-4-3h-17l-5-2-5-6h-10l-8-3-4-6-3 4-6-9 3-3 1-4-8-1-4-6-9-2-5 5h-10l-13-6-4-4 2-9-1-4-6-2-4-4h-5l-8 6-2-2-3-9-4-4 1-5-4 2-2-1-3-8-5-3 3-3v-6l-5-11-1-9 6-8v-4l-4-5-10-3-2-4 5-3v-2l-6-7-13-3-6-6 1-6 8-7 1-7-2-15-7 1-11 5-8 8-11 21h-6l-10-8-7-13-3-1-6 2-3 8-7 7-2 6-14 16zm-19-15-3-20-5-1-6 6-6 1-1-8-3-3-3 16-10 9-2 6 2 11-4 5 2 4 11 3 8-1 12-17z"/>
  <path id="遵义市" fill="#ff6347" fill-opacity="1" fill-rule="evenodd" stroke="#ffffff" stroke-dasharray="none" stroke-linecap="round" stroke-linejoin="round" stroke-opacity="1" stroke-width="0.5" d="m1377-172-12 14-1 3-4 3-11 2h-22l-9 11h-7l-2 9-4 1-2 10-9-2-5-5-6-3 4-9v-12h-3l-4-3-7-2 2-15 8-24-6-3-5-6h-2l-3-6-3-1v-6l-3-3-4 5-6 2 1 3-3 8-4 1-3 6-13-3-1-6-12-2h-8l-2 3v5l-4-1v-6l-3-3-2-6v-9l-2-5h-6l-1 4-7 6h-6l-10 9-5 1-4-2v-8l-8-4-5 6-8 1-1 7 4 4-2 10 5 1 2 3-5 14-8 1-3-2-5 2 3 14h5l1 8-6 5-5 7 2 7h10l6 14 3 2h6l1 5-10 13 1 9h-4l-5 9 1 3-4 5-6 2-2-2-11 3 5 5-7 9-18 4-5 3-4 5 1 5-3 2-10-4v-7l-2-2-1-9 2-5 4-4h-11v-4l4-9-5-3 2-1-2-4-3 3-1-3-6 3-4-1-3 3-2-5-16-1-3 6-6 4-5-1 2-3 3-1-2-7-5 2-3 6 5 3-7 2v-6l-3-2h-6l1 9-5 1-1 2-7 1 3 9-3 7 2 16h-7l-6 3-1-4-3-2-6-12-7 6-3-2-8 9-4 2-1-2-6-1-2 7-2-1-4 5 2 7 9 6 3 7h-3l3 7 8-1-6 18v10l-14 1 2 4-2 6-8 4-2-5-3-2v-4l-4-4-2 6h-6v10l8 5-1 5-15 4-3 5-2 5 8 16v10l-5 1-3 4-3-1-3 3-5-3 1-8-3-4-4 2-6-5-4 6-7-5 1-5-8 2-7-5-3 1 3 3v4l-9 3-2-6 2-3-3-4 3-4h6l11-11 1-5-4-13 3-6 4 2 3-2 1-6-3-5-3-1-1-3h9l4-2-3-6-6 2-4-3-1-6 2-3-5 1-3-3-4 1-2-5h-2l-6-8 2-10-1-4-5-6h-5v-4l-4-1-1-5-11-5-6-11-4 1 2 2-5 4-1 3 3 1 1 4-4 2 1 7 3 6 11 9 2 9 4 1 2 11 5 4-3 7h-7l2 11-2 3v4l-2 1-1 7 7 9h4l-5 5-4-9-9-5-2 4 7 13 6 6-1 4-3-2-3 3h-5l-1-4-6-2 1-2-5-4-3 2-3-3h-4l-5-3-5 4 1 3-6 6 2 3-2 3 1 6 2 1-2 6 1 5h-9l-1 3-3-3-4-1-3-5-6-3-5-10v-4l-5-1-1 2-8-2-7-9-7-5-4 2-7-9v-5l-4-5-3-9-5-1-3-3-5 2-5-1 1 4-6-1-2-8-5-3 2-3-3-7-5-3v3l-13-4 2-4-5-1 2-5-4-1-3-7-11-3-4-6-1 10-4 5v4l-8 5 1 9-5 1-7 4-5-1 1 8 3 1-2 2v9l-2 1 6 4-4 2-3 4-4-3-6 2-3-3-5 3-14-2-5-3-2 5-8 4v-5l-3-6-4 1-6 9-3 2-5-2-2 1-1 10-3 3 1 10-5-1-3 5-8 3h-7l2 4-3 10h-2l-2 5 4 3-3 4v6l7 3h5l1 10-2 4 3 4 1 7 3 3-2 1-1 8-5 8v5l4-3 3 3 4 1 7 10 6 2 2-1 7 4 3-2-1-6 2-5 8-2h9l-6-4v-4l5-3 3 3 2 7 4 2h5l10 22 5 2 4-2v4l6 3-4 10-4 4-3 18 6 8-1 5 7 3 3-4 9-2 3 1 3-5 7 3 3 3 2 9h3v-3l10-2 3 5 5 1 1-2-4-8 4-3 9-2 11-8 12-2 7 1 12 6 5 5 6 1 1 7 6 1 2 7 6 3 2 5 5 5-1 7-3 1-5 8 1 7 8 3h10l2 6 5 4 1 5 3 2 1 4-7 7v9l-3 2 1 4 8 1 3 4-3 3 5 2v4l-8 11 1 3 4 2h5l-1 3-13 5-23 17h-4l-3 2-6-1-5 4-24-10h-23l-2 3 1 3-14 7h-7l-1 10 3 16-2 8 4 1 16-4 2 3 8 1v2l8 3-1 8 3 7h5l2 7 11 15 17-3 8 6 5-3-3-6 2-4 13-8-1-3 2-2 4 5 7 2 2 5 6 3 2 6-1 8-6 4-4 7 5 13 4 5 7-2 4 3 4-6 21-10 8 2 3 6 5-1 3 3 10 4h4l2-3-2-8 5-2 3 1 1-5h6l7-5 4-1 6 2 11 8 4 9 7 9h9l3 5v9l5 6 1 4-3 12-6 8v4l7 16 4 5 3 8v8l7 5-4 2-2 7 3 2 5-5v-7l5-2 7-10 2-5-2-6 1-4 9-5 8 2 6 5 3 8 5 7 5 3 4-1 11-16 8-3 13-15 5-2 4-1 9 3 16 11 4 1 19-12 8-3 11 1 3-7 10-12 4-1-1-5 8-9v-16l3-1 5 5 7 2 11 1 7-3-1 9 7 1-1 3 5 2 5 5v5l-9 7v9l4 2 6-1 2 9h4l6-12 6 2 15-2 2 3 2 20-10 7v7l-7 5 2 7-1 5h6l6 4-1 3 8 8 5-2v-4l-4-8 2-3 4 8 4 4h4l5-4-6-11 2-2 13-4h4l6 4 8-4h5l-3 8 1 3 6 2h7l23 7h9l3 4-7 2-1 5 23 2 4-3 1 3 4 1-8 5-2 5 11-2 1 6 4 3h7l1-15 7 1 6-5 1-3 10 2 7-3-2-7h5l20-9 2-8-3-5-7-2-3-5-1-7-4-1-5-5-7 2-2-6 3-5-1-4-3-2-6 3-5 6 5 5-1 3h-5l-4-5 1-3-5-5-9 1-5 5-13 2-5-3v-6l-10-2-1-3 2-6-7-4 1-3 13-1-1-18-2-3h-7l-6-3-1-3 3-7 7-4 10-2 7-21 6-5 15 1 6-7 2-9-2-15 7-16 6-6 1-4-5-15v-7l7-10-1-4h-4v-6l-7-7-3-7-6-7v-14l6-11 7-1-5-9v-14l8-16-16-21-1-4-3 3-2-2-4 9-9 3-2-8-6 1v-8h-8l-2-3-3 1 3-5-1-4 7-22v-15l5 3 3-3h4l6-8 2 1 2-19-1-6 2-12-2-21 5-12h17l-3-5 8-1 7 2 7-2 6 6h2l2-6-10-6-5-5 3-5v-7l3-3 5 2 8-2-2 5-9 2v3l5-2 4 1v4l7 6-5 2-2 3 3 2 4 7 4 1 11-24-1-4-6-5 3-4 1-8-4-7 1-4 7-7v-4l-4-6-6-3-1-3 4-5-5-10 9-9 8-3v-3l3 3 8-3 6-7-3-3 8-7 7-3 4-6 3-9 1-15 4-1 6-11-2-17-4 7h-2l-4-4-8-14v-5h-6l-5-5 4-26-2-5-6-3-3-5v-6l-11-13-2-21 2-5zm-48 800h7v-2l-7-5-3 2 1 3z"/>
  <path id="安顺市" fill="#ff6347" fill-opacity="1" fill-rule="evenodd" stroke="#ffffff" stroke-dasharray="none" stroke-linecap="round" stroke-linejoin="round" stroke-opacity="1" stroke-width="0.5" d="m352 1102 2-1 1 5-3 9 4 6 7 3 11 13 8 4 11-2 4 4-2 15 2 9 15 14 4 1 9 11 11 5 17 21h6l7-7h4l16 14 16 4 8 6 7 17 4 4 5 12 6 4 13 26 1 12 10 3 29 15 5-2v-3l7 1 4-2-4-4 1-4-5-5-1-8 1-4 24-15 4-6-4-5-5 1-2-2v-3l6-9 1-6 3 6-1 5 2 6h11l9 4 3-5-1-4 4-1 4-6 3 1-1 4 6 4 2 5-3 7 2 3-3 2-3-1-5 2v3l8 7 7-2 9 11-5 3 2 9h5l5-4 1-6 3 1-1 5 6 1 4-3 6 11 7 20 9-3h5l11 4 10 14h8l14-5 13 3 4-3-2-9-8-6-4 2 1-7h5l4-5-3-9-5-1 2-4h-2v-9l3-4h4l7-13-1-12 14-17 6-13v-5l-19-13-3 1-5 9-4 1h-5l-16-7-7-1-7-5-2-5 4-12-1-1-9 2-14 10-5-1v-5l8-6 2-7-1-11-3-9-2-1v-14l6-4 5-7 1-9 2-1 1-5 5-7-1-2-7-2v-6h5l-2-5 1-5 2-2h5l2-4v-5l-4-1 1-4h-5l-5-7-4-1-2 2-4-3 2-3-7 4v-2l-8 2 1-4 3 2 5-10 3-17 4-3 2 4 3 1 6-5v-5l-4-6-7-1v-2l7-3 3-12v-8l3-3h2l-9-9-11-1 5-7h7l8-5 3 7 5 6h6l5-4 4-9v-11l7-1 6 3 32 6 1-5 4-1 2-5 7-7v-4l5 1 4-2 5-8-2-3 2-12-4-2h-19l-2-3-6-3v-5l-6-8-3 1-3-14h-3l-9 7-5 1-25-5-1-2 10-7-3-6h-8l-1-3 2-10-4-7-7-2-7-6-16 7-11-1-7-5 2-3-3-4 3-1v-5l-6-5-3-6-5-5 3 13-6 6-1 16-3 15-2 5-3 2-20 9-8-1-8 5-16 6-5-6 5-3 1-7-4-7 2-6-1-5-2-1-11 5-6-4-9 7-7 3-9 8-5 2-15-1-5 2-3 6-8 3-6-5-11 4-4 8-5-5-3 3-9 2-14 6-4 4-5 9-9 7-14 5-9 9-3 15-5 5 1 10 7 5 3 7 4 2 4-5 4 1-1 5h4l6-4 3 3 9-3v4l4 5h21l16 11 4-3 3 8-5 2-3-2h-4l-8 9v5l-8-3h-6l-4-6-3-1-2 2 3 8-8 30-9-6-7 1-8 5-10 13-17 4-25 3-9-2-22 4-8-2-6 2-4 6zm354-19-1 2h4z"/>
  <path id="毕节市" fill="#ff6347" fill-opacity="1" fill-rule="evenodd" stroke="#ffffff" stroke-dasharray="none" stroke-linecap="round" stroke-linejoin="round" stroke-opacity="1" stroke-width="0.5" d="m455 950 7-3 9-7 5-9 4-4 14-6 9-2 3-3 5 5 4-8 11-4 6 5 8-3 3-6 5-2 15 1 5-2 9-8 7-3 9-7 6 4 11-5 2 1 1 5-2 6 4 7-1 7-5 3 5 6 16-6 8-5 8 1 23-11 5-20v-13l1-3 6-6-5-19-6-4-1-3 3-3 11-2 4-5-4-11 3-24-2-4-6-3-9-8 2-11 3-6 4-3 7-1v-2l10-3 5-6 5-3h4l3 8 7 5 6-2 8-13h3l8 5h3l5-4 2-3v-9l5-15 4-7 14-7 7-6v-3l-5-3-5-8-1-9-4-11v-13l5-11 10-5 2-10 2-2 9-2 20-13 8-7 12-3 12-9 5-12 11 1 9-5 10 2-7-16v-4l6-8 3-12-1-4-5-6v-9l-3-5h-9l-7-9-4-9-11-8-6-2-4 1-7 5h-6l-1 5-3-1-5 2 2 8-2 3h-4l-10-4-3-3-5 1-3-6-8-2-21 10-4 6-4-3-7 2-4-5-5-13 4-7 6-4 1-8-2-6-6-3-2-5-7-2-4-5-2 2 1 3-13 8-2 4 3 6-5 3-8-6-17 3-11-15-2-7h-5l-3-7 1-8-8-3v-2l-8-1-2-3-16 4-4-1 2-8-3-16 1-10-7-1-20 9-3-8-6 1-5 3-4-1-5 3-2 7-7 4-21-6-6 1-16 5-2 5 1 3-7 4-9-3h-5l-8 10-5-1-2-2v-6l-5-4-2-6 1-4-9-3-8 1-4-3-4-11-16-8-6-1-7 3-3-3h-3l-4 5-3-2-10 3-1 4-3-2-6 3h-5l-5 8-5 1-9 13v5l3 5v7l-2 6-3 3 3 3v5l-11 10-6 2-2 4-3 1 3 3-4 2 1 3-4 2 1 3 4-2 4 2-2 2 3 8-4 4v4l-5 2-1 6 2 3-1 7-3 5 2 2-2 6-12 15-1 5-3 2 1-10-5-2-2-5-3 1-13-5-9 3-3-3h-8l-4 4h-4v5l-5-2-7 9-15 9h-3l-7 4-3 4-8 4-3 8-4 1-1 3-8 3-7-5-1-7 3-5-11-8-6-1-7 10v4l-7 1-1-5-5-6-7 4-5-3-10 4-3-1-2 5-6 3-3-3-9 2-7 4-6-1-3-5-6-4-9 1-9-10 1-4-6-9 4-6-5 2-5-2 2-6-11 1-2-3-9-2-3-4h-4l-3-4 1-5-3 1-15-5-6 2v4l-5 3 4 4v3h-3l-4 8H8l-5 14-4 3-2-2v4h-3l-9 10 1 7 4 5-11 7-2-3-5 1 3 4v3h-4l-6-4-1 4-5 7 8 5 27-4 6 14 7 5-3 8 2 10 6 3-2 8 1 4 4 3-4 6 2 6 5 3-2 6 5 1 2 4-1 7-4 3v15l7 4 4-2 3-9 3-1 8 6h10l7 7 9 1 3 8 3 3 9 2h12l11-3 8 9-1 6 3 3 8-5 4 2 4 8 1 5-6 12 3 3 1 8 6-1 6-6 5 1 3 22 19 13v-10l14-16 2-6 7-7 3-8 6-2 3 1 7 13 10 8h6l11-21 8-8 11-5 7-1 2 15-1 7-8 7-1 6 6 6 13 3 6 7v2l-5 3 2 4 10 3 4 5v4l-6 8 1 9 5 11v6l-3 3 5 3 3 8 2 1 4-2-1 5 4 4 3 9 2 2 8-6h5l4 4 6 2 1 4-2 9 4 4 13 6h10l5-5 9 2 4 6 8 1-1 4-3 3 6 9 3-4 4 6 8 3h10l5 6 5 2h17l4 3 5 20zM128 745l6-12-5-13-4-2-8 5-3-3 1-6-8-9-11 3H84l-9-2-3-3-3-8-9-1-7-7H43l-8-6-3 1-3 9-4 2-7-4v-15l4-3 1-7-2-4-5-1 2-6-5-3-2-6 4-6-4-3-1-4 2-8-6-3-2-10 3-8-7-5-6-14-27 4-6-3-18-20 1-7-7-6-11 2-10-9-14-9-1-22h-4l-4 4-5 1-2-2-7-1v-3l-4-1-4-4-3 13-4 7v3l-3 2-1 15-6 7h-5v10l-3 1v9l-7-2-1 6-6 3-9-1v7l-5-1 1 3-3 6-6 7-6 1-1 5-3 5-4 3-3 7-5 2 2 6-5 6-8-1-5 3-4-1-6 2-3 3-2 7 8 2 4-1 2 11h-4l-11-5-6 7 2 6 4 5h2l2 8-5 2 3 1 6-2 5-4 1-4 7-8 11 1 3 6 6 6 9 23 7 5 1 7-4 7-1 5 6 12-2 4h-4l-15 6 1 4-3 4-3 1-2 6 1 8 5 9 2 12 5 6 4 1 5-5 2 2 2 7-2 3v4l-3 4v16l-4 10 7 9v9l11 6 4 5 2 9h10l8 8 8-2 11 2 3-2 11-2 6 2 11-1 2 3 13-1 3 3 7-5v-9l-2-8 1-5 9-9 13-20 5 1 7-2 5 5h6l5 4 9 2 3-3h4l3 3h6v-5l10 1 4 7 6-3h9l4-9 6-3v-6l6-9v-9l9-1v3l7 7v6l6 3 4 8-4 9 2 11 9 7 5-4 15 2 5-3 5 5 1 4h2l1 5-3 7 3-2 27 10h8l-3-7 7-3v-23l2-4 16-10 2-5 1-16 6-2-2-7 2-4v-6l-2-13-12-7-7-6v-2l-20 28-8 1-11-3-2-4 4-5-2-11 2-6 10-9z"/>
  <path id="铜仁市" fill="#ff6347" fill-opacity="1" fill-rule="evenodd" stroke="#ffffff" stroke-dasharray="none" stroke-linecap="round" stroke-linejoin="round" stroke-opacity="1" stroke-width="0.5" d="m1675 640 6-6 3-9 5-2 1-7-4-6 3-2-7-2 2-5 12-5 2-3h4l2-4 6-5 1-6 5 2 4-1 4-5 7 2 1-5 3-2-3-15 3-3 2 4 4 2 4-5 2 2 6-3-1-5 2-2 3 1 2-4-2-2 4-9-3-5 9-7-1-5-3 2-2 4-3 1-3-2 2-3 4 3v-4l7-9h4l2 3-1 11 3-1 13-13h4l3 4 8 4 1 5 15-3 5 1 2-5-1-17 3-4 34-26 11 1 4-6 5 1 1-3-4-8 7-17-5-17 5-5-5-5-10-4-6-9-6 1-1-2-10 2 4-6-5-3v-6l-11-10 3-3h-4l4-4 1-17-6-7 4-5-6 1-2-7 1-4-3-5 1-11-4-10 2-4 4-1 1-9 7-6 9-1 5-10-3-5-9-6-4-1-4 8-5 2-2 3-3-1 6-29 4-5 1-5 4-6-1-7 2-1 1-5-1-7 2-7 5-5-1-6 3-2 3-7 5-5h4l-8-4-4 1-2 4-3-1 4-6-8-5-10 8-7-1 1-6-4-5-5-2 1-2-3-10 7-9 1-6-4-1-5-6-3-19 4-18 3-1v-5l-15 8-7-3-9 5-2 7-3 3v6l-4 1v6l-4-1 1 6-2 9-5 10 5 3v2l-5 5 1 5-5 10-4 4 1 2-7 8-4 1-3 5 2 7 5 7 1 6-5 2-2 5-8-7-7-2-1-5-5-1-4 8v9l-2 4-3 3h-5l-3-4-8-5-10-3-1-2 2-5-5-4-2 1-6-2-15 8-7-3-5-16-6 2-2 6-10 6-3 8-2-2v-9l-4-3h-3l-1-10-3-4-1-8 5-6 9-5 2-3-3-4 6-10v-8l2-5-8-3v-4l6-13-2-4-10-5 1-5-2-3h-3l-3-3-1-7-5-3-3 7h-5l-6 3-5-1-4 4-2 5 9 6 1 4 7 4 3 8-2 4-6 2-3 3-3 10 1 3 5-2 1 5-3 4-21 3-3-6-8-1-2-9 1-10 3-7 8-1 1-11-3-2-2-7-4-3 1-6-5-8 2-4-3-9 6-4h8l-2-21 11-13-1-8-3-1-6 4-4-3h-4v-4l-7-5-2 5-5 1-3-2-8 5-5 1-1 5-4-2-7 1-3-3h-9l-17-7-14-10-3 1-4-2 4-7 1-17 9-10 1-3 4-2 1-6-2-8-10-3v-8l-3-10 3-6 1-9-3-6-1-14-3-3-6-2-5-21v-6l-4-12 3-13-1-2-6-3h-6l-4 11-1 9-5 6-7-2 2-6-5-4h-4l-2-6-10 2-7 5h-7l-2-5-6-4-15-5 3 7-2 5 2 21 11 13v6l3 5 6 3 2 5-4 26 5 5h6v5l8 14 4 4h2l4-7 2 17-6 11-4 1-1 15-3 9-4 6-7 3-8 7 3 3-6 7-8 3-3-3v3l-8 3-9 9 5 10-4 5 1 3 6 3 4 6v4l-7 7-1 4 4 7-1 8-3 4 6 5 1 4-11 24-4-1-4-7-3-2 2-3 5-2-7-6v-4l-4-1-5 2v-3l9-2 2-5-8 2-5-2-3 3v7l-3 5 5 5 10 6-2 6h-2l-6-6-7 2-7-2-8 1 3 5h-17l-5 12 2 21-2 12 1 6-2 19-2-1-6 8h-4l-3 3-5-3v15l-7 22 1 4-3 5 3-1 2 3h8v8l6-1 2 8 9-3 4-9 2 2 3-3 1 4 16 21-8 16v14l5 9-7 1-2 3-4 8v14l6 7 3 7 7 7v6h4l1 4-7 10v7l5 15-1 4-6 6-7 16 2 15-2 9-6 7-15-1-6 5-7 21-10 2-7 4-3 7 1 3 6 3h7l2 3 1 18-13 1-1 3 7 4-2 6 1 3 10 2v6l5 3 13-2 5-5 9-1 5 5h4l5-6 6-3 3 2 1 4-3 5 2 6 7-2 5 5 4 1 1-5 22-3 7-3 11 3 6-1 7 10 6 5 5-2 10-26 4-3 5-1 18 9 9-3 6 1 12-11 20-13 5-6 5-1 9 3 6 5 2-1 2-6 8 2 7-20 4-5h6l6 3 4-3 4-11 3-4 4-2h4l8 5 7 1 10-5 5 1 13 13 1 5 5 1-1-7 15-1 7 1 4 3 1-1-5-8 4-3h4l-1 5 24 3 7-9h4l4 5 8 2 1 2-7 8v4l3 3 10-1 1 5 6-1 5 3 5 7v3l-6 17-4 1-16-2-6 2-3 3-7-2-3 1-4 8h-6v-6l-3-3-6 2 2 3-6 1v7l5 6 2 6-3 12-5 4-2 12h-4l-2 5 1 2-6 2-3 5 2 3 13 3 2 6 4 3v6l4 5 6 3zm-353-87h-4l-1 3 4 5h5l1-3z"/>
  <path id="黔西南布依族苗族自治州" fill="#ff6347" fill-opacity="1" fill-rule="evenodd" stroke="#ffffff" stroke-dasharray="none" stroke-linecap="round" stroke-linejoin="round" stroke-opacity="1" stroke-width="0.5" d="m814 1475-2-1 4-6 1-5-5-5-7-13-7-7v-2l-6-4-1 3-3-2-2-4 4-1 3-4 11-6 4-7-4-4v-7l-3-7-2-11-6-11-3-2-5 1-7-2-2-4v-10l-13-3-14 5h-8l-10-14-11-4h-5l-9 3-7-20-6-11-4 3-6-1 1-5-3-1-1 6-5 4h-5l-2-9 5-3-9-11-7 2-8-7v-3l5-2 3 1 3-2-2-3 3-7-2-5-6-4 1-4-3-1-4 6-4 1 1 4-3 5-9-4h-11l-2-6 1-5-3-6-1 6-6 9v3l2 2 5-1 4 5-4 6-24 15-1 4 1 8 5 5-1 4 4 4-4 2-7-1v3l-5 2-29-15-10-3-1-12-13-26-6-4-5-12-4-4-7-17-8-6-16-4-16-14h-4l-7 7h-6l-17-21-11-5-9-11-4-1-15-14-2-9 2-15-4-4-11 2-8-4-11-13-7-3-4-6 3-9-1-5-4 3-5-2-10-24-7-9 2-7-2-8-5-6 2-13-1-3 4-2v-4l-11-1-7 10-5-5-8-1-5 3-9-2-5-4-17 16-2 5 5 12-9 9-4 1-2 5-4 4-2 14-5 14v5l-4 9 2 5 6 3-3 6 2 3-1 12-5 2-8 7-4-1-4 5-6 13-1 12 3 12 10 14 1 9-3 12-11 10-3 5 7 13v10l3 3h5l4 3v13l-8 15-12 15-3 16 2 8 12 6-1 3-6 4-7-7-10 11-14 2-11-2-23 5v-8l-3-6-7-6-2 2-1 6-4 1v16l3 5-5 2 1 2 7 4 4-4 13-1 1 6 7 3 2 3h8l-1-4h4l5 3 3 5 3 1 4-3h4l4 10-7 2 2 14-2 3 5 8-2 4-5-1-10-10-3-7-6-4-7 4-3 4 4 5-1 6-5 6v5l-8 7-1 8-3 3v8l-5 4-9 2h-10l6 2h17l6 8 5 16-10 4v4l-8 5v5l-5 4-5 15-15 8-9 16-11 12-1 8 3 7-2 5 1 3-5 10 11 2 5 5 8 2 12 19 25 5 2 1-1 6 3 3 8 3 5-2 3-10 5-4 14-3 2-3 5 1 7-3 7-10 2-12 3-3 9-5 30-7 18-7 1-3-3-9 4-7 2-8-2-8 12-8 2-9 18-12 3-6 4-1 5 2 7-11 13-4 1 6h5l2 6 6-1 4 5-2 6 3 4 16 3 9-1 2-3 9-4 10 1 13 4 6 4 5 17 5 11 5 2 3 5 1 10 10 3 18 2 6-4 7 1 2 7 4 4 9 2 10-2 10 3 12 11 8 3 2 6 15 7h8l10-6 3-5h6l4 3 18-1 4 15 12 10 2 5 12 7 6-9 3-12 6-5 18-7 2-4 5-2 6-13 7 1 7-13-1-4 4-5 3-19-3-4v-6l-2-4-17-23 3-3 11 4 3-1 9-11h5l5 4h4l3-3 15 2 10-6 8-1 13-6h6l11-5 4-2 1-4 5-3 18-4zm-525 58h3l4-3-1-2z"/>
  <path id="黔东南苗族侗族自治州" fill="#ff6347" fill-opacity="1" fill-rule="evenodd" stroke="#ffffff" stroke-dasharray="none" stroke-linecap="round" stroke-linejoin="round" stroke-opacity="1" stroke-width="0.5" d="m1352 565 1 7 3 5 7 2 3 5-2 8-20 9h-5l2 7-7 3-2 13 4 2v2l-18 1-2-4-6-1-1 7h-7l-4-3-1-6-11 2 2-5 8-5-4-1-1-3-4 3-23-2 1-5 7-2-3-4h-9l-23-7h-7l-1 7-4 4 4 2 3-2 6 7-3 2 9 21-11 17 1 8-7-2-7 12 1 8 9 19-1 5-9 6h-3l-5 11-6 8 9 12h4l3 6-1 5-3 4 6 3 7-3 4 1 1-3 3 1v-8l12 4 6 6v2h-3v4l7 2 5-1 1 9-2 4-6 2 1 1-6 7h-3l-2 7-3-1-5 7 1 5-4 4 2 5 2 20 5 3 3 4 2 8 7 11-4 6-8 2-16-2-4-2-6-12-7-2-4 2v4l-3 6-5-3v-9l-4 3h-4l-11 13h-5l-4 2v5l-3 2-4-2-1-3h-3l-1 7h-6l-1-7 2-5-6-1-6 3v3l-3-1 1 6-4-2-7 1 2 6-7 1-1-2-7-3-3 2-5-3-3 3 1 3-5 3-1 5 3 6h7l4 3v3l-8 10-8 4 1 3-5 2 2 5 4-1 8 10 11 4 7 6 9 2 6-2 7-9 21-6 4 3 2 19 4 6 9-7 11 2 1 4 12 7 4 8 4 14 6-1 7-7 9-2 5-5h15l6 3-2 15-5 8-5 15-2 1-1 19 3-1v-4l3 2 1 3 2-1v4l2 3 7 4 5 12 6 5 5 2 4-1 2-16 5-1 9 10 8-3 8 14 6 2-2 2h5l1 8 2-7 4 2 1-3h9l5-5 10 5 26 2 4-5 2 2 3-1-1-4 6-1 2 5 5 2v3l-3 1 1 12 4 2 4-1 10-13h5l1 3-3 4 1 4 4-1 1 5-8 8 3 2-3 2v9l2 3-4 1-1 3-4 3h-11v7l-6 7-5 2 1 7h2l2 5-5 4-11 15 6 3-12 8-3 12 1 5 7 2 1 5-4 5 2 10-1-1-1 6 2 3-1 7 4-1 9-6h5l3-3 4 11-1 8 6 3 1 2-1 11 5 2h8l7-7 4 3-2 8 1 6 5-1 10 9-2 4 4 13 4 2 5-5 10-2 3 2v3l3 5 7 5 5 1 8 15 1 7 5 3 4-6 7-1 3-2 6 1 5 3 2 6 3 2-1 6 4-2 8 4v2l7 8-1 4 9 3 3 8-2 4 9 11h4v-6l2-5-5-12 3-4-1-5-3-7-6-1-3-5 4-5v-9l4-10 4 5 4 1-2-5-3 1v-4l-4-3h5v-4l3-2 1-4 8-5 3 2 2-3 5 5h3l-1-6-11-7 3-4-2-9 5-2 4 1 2-4v-3l-3-1 2-7h10l3-4 14-1 1 2 7 1 1 3-2 8 5 3 2 7-5 2-2 7h3l8 11 6-9 10 1-1-3 5-1 4 2 5-2-1 5 3 2 6-2 7-5h7l8 6v4h6l13 8 7-6 4 1 4-6 4 2 4-6-5-1-10-9-2-14 2-4-6-4 4-4v-7l3-2 3-7 6-6-1-6 2-5-9-5 1-2h-5l-2 5-2 1-10-5-1 4-6 2-4 8-6 4-3 6-7-3-4 2-7-1-2-9 1-4 6-2-1-3 11-6 5 4 3-1-1-3 2-2h5l4-7 4 1-4-8 3-2 5 2 2-4 5-2 17 7 1-4 3-3h3l-1-3 9-3 6 2 3 4v7l-4 6 6 8 2-1 2-5 8-2 3-5-5-3 2-3-6-3 4-3 6 2 5 5v19l4 2h6l7 3 1 3 9 3h6l6-4v-4l10 1-1-10-4-2 2-5-1-5 2-2 1-5v-13l11-3 7-12 3-12 6-2 5-4 3-7-1-6-2-3-7-2v-3l22-13 5-12-1-7-9-3-2-7v-12l4 3 5-2 11 1 4-13-3-2-4-8v3h-6l-4-7 1-3-4-10 4-1-1-2-6-3-4-12 5-10 2-8 6-6-4-6h-2l-6 5v4l-15 3-4 3-6-1-7 5-6 1-1-5-5-3 1-3h-7l-3-3-4 1-4-8-1-5 2-5 5-2 10-30 3-4 12-8h5l2-5-6-2v-4l8-7-1-10 8-5 2-3-2-9-3-3 1-2h-5l2-4v-8l-2-2-2-7-6-4-3-11-8 5-11-6-7-15 3-1 2 2 8-2 13 3 4-1 7-6-1-7 9 4 2-1 2-8 7-6 6-2h12l-4-28-3-1-6-12h-5l3-4-3-3v-6l3-3 5-1 4-4 5-1 11-7 4 2 3-5 8-3-3-16-4 5-3-2v-5l5-1v-8l-6-6v-4l-3-2 1-7-3-4 2-1-10-3-1 5 3 2-3 3-12-6 10-1v-4l-8-1 3-5h-4l1-5 4-3 1-8-6 1-3 5-3 1-5-3-4-12-6 1 1-3-3 1v5h-3l-3-4-1 3-6-2-9 1 1 4-13 2-7 3-6-2-3-7-3-2-3 2-6 11-10 13-4 4-4-2-4 8-8-3-4 4-10-2 2-10 4-5 4-2 1-3-4-2h-4l-5 3h-6l-5 4-2-2-3 5h-6l-1-2-5 3-1 4-10 5-9 8-9 4 1 3h3v8l-11 3v-8l-2 2 1 2-6 1-6 6-5 1 2-2v-4l-3-7h-5l-4-6-1-7-4 3-14-11 6-6 7 4 7-4 3 1 2-8 5 1 2 3 3-3-1-8-6-3-4-5v-6l-4-3-2-6-13-3-2-3 3-5 6-2-1-2 2-5h4l2-12 5-4 3-12-2-6-5-6v-7l6-1-2-3 6-2 3 3v6h6l4-8 3-1 7 2 3-3 6-2 16 2 4-1 6-17v-3l-5-7-5-3-6 1-1-5-10 1-3-3v-4l7-8-1-2-8-2-4-5h-4l-7 9-24-3 1-5h-4l-4 3 5 8-1 1-4-3-7-1-15 1 1 7-5-1-1-5-13-13-5-1-10 5-7-1-8-5h-4l-4 2-3 4-4 11-4 3-6-3h-6l-4 5-7 20-8-2-2 6-2 1-6-5-9-3-5 1-5 6-20 13-12 11-6-1-9 3-18-9-5 1-4 3-10 26-5 2-6-5-7-10-6 1-11-3-7 3-22 3zm528 181 6 12 5-2-2 3 4 28 6 1v5l7-1-2-4v-9l-3-9-4-5v-4l6-7v-13l-9-4-1-5h-5v4l-6 5zm46 45-3 1-4-3 1 5-3 3-7-4-2 2 7 4v5l2-2 6-1 10-14-7-4 1 6zm-616-167 6 1 2 4 11-1-3-5 3-2 3 3 2-13-10-2-1 3-6 5h-8z"/>
  <path id="黔南布依族苗族自治州" fill="#ff6347" fill-opacity="1" fill-rule="evenodd" stroke="#ffffff" stroke-dasharray="none" stroke-linecap="round" stroke-linejoin="round" stroke-opacity="1" stroke-width="0.5" d="m800 990-32-6-6-3-7 1v11l-4 9-5 4h-6l-5-6-3-7-8 5h-7l-5 7 11 1 9 9h-2l-3 3v8l-3 12-7 3v2l7 1 4 6v5l-6 5-3-1-2-4-4 3-3 17-4 8 3 2v2l7-4-2 3 4 3 2-2 4 1 5 7h5l-1 4 4 1v5l-2 4h-5l-2 2-1 5 2 5h-5v6l7 2 1 2-5 7-1 5-2 1-1 9-5 7-6 4v14l2 1 3 9 1 11-2 7-8 6v5l5 1 14-10 9-2 1 1-4 12 2 5 7 5 7 1 16 7h5l4-1 5-9 3-1 19 13v5l-6 13-14 17 1 12-7 13h-4l-3 4v9h2l-2 4 5 1 3 9-4 5h-5l-1 7 4-2 8 6 2 9-4 3v10l2 4 7 2 5-1 3 2 6 11 2 11 3 7v7l4 4-4 7-11 6-3 4-4 1 2 4 3 2 1-3 6 4v2l7 7 7 13 5 5-1 5-4 6 2 1 3-5 7-4h10l4-2 3-7 12-6 4-6-1-9 2-3 17-6 11 7h4l12-8h3l5 5 18-4 6-3 13 2 4-5 2-15 3-4 7-3 8 1 8 6 7-3 1-2-4-4 1-3 9-5-3-14 3-14-2-4-8-2-3-6-2-13-2-1v-7l-2-5 7-4 5 2 4-15 4-7 14-2 5-4 2-3-4-9v-7l11-4 10 2 14-2 2-2 7-1 1-6 4-5 4-2 7 2 2 8-2 8 3 5 10 4 11 9 5 8 2-2 5 4-3 4 4 5 1 11-3 1v3l-4 2-2-1v10l2 2h11l3 3h4l4-6h4l6 7h7l1 4-4 4-2 5v6l8 13 1 10 6 1 8-6 4 1 3 9-7 18v7l12 2v-3h3l2 4 1-6 8-1v-4l4-2 2-3 9-4 3 3 3-1-2-4 4 3 1-5h2v-4l7-13 10-3 3 4-4 5 1 14 3 6 10 10-1 9 3 1 15-18h4l3 4-2 12 1 5 8 7 3 6-4 8-6 4 2 3 4-3 6 4 4-4 5-2 8 6 9-6 2-5 9-1 7-5 5 1 8-8 6-1 8-4 4-4 4 1 15-2 10 2 12-6 3-8 4-2 1-10 3-4-3-3v-8l5-5 1-6-6-8 6-4 1-10-4-5h14l4-6-3-3 2-2-7-5-2 1-3-4 2-3 11-5 4 3h6l2 10 9-2v-3l-5-4 1-6 15-7 7-8 2-6-5-4-4-13 2-4-10-9-5 1-1-6 2-8-4-3-7 7h-8l-5-2 1-11-1-2-6-3 1-8-4-11-3 3h-5l-9 6-4 1 1-7-2-3 1-6 1 1-2-10 4-5-1-5-7-2-1-5 3-12 12-8-6-3 1-3 15-16-2-5h-2l-1-7 5-2 6-7v-7h11l4-3 1-3 4-1-2-3v-9l3-2-3-2 8-8-1-5-4 1-1-4 3-4-1-3h-5l-10 13-4 1-4-2-1-12 3-1v-3l-5-2-2-5-6 1 1 4-3 1-2-2-4 5-26-2-10-5-5 5h-9l-1 3-4-2-2 7-1-8h-5l2-2-6-2-8-14-8 3-9-10-5 1-2 16-4 1-5-2-6-5-5-12-7-4-2-3v-4l-2 1-1-3-3-2v4l-3 1 1-19 2-1 5-15 5-8 2-15-6-3-11-1-4 1-5 5-9 2-7 7-6 1-4-14-4-8-12-7-1-4-11-2-9 7-4-6-2-19-4-3-21 6-7 9-6 2-9-2-7-6-11-4-8-10-4 1-2-5 5-2-1-3 8-4 8-10v-3l-4-3h-7l-3-6 1-5 5-3-1-3 3-3 5 3 3-2 7 3 1 2 7-1-2-6 7-1 4 2-1-6 3 1v-3l6-3 6 1-2 5 1 7h6l1-7h3l1 3 4 2 3-2v-5l4-2h5l11-13h4l4-3v9l5 3 3-6v-4l4-2 7 2 6 12 4 2 16 2 8-2 4-6-7-11-2-8-3-4-5-3-2-20-2-5 4-4-1-5 5-7 3 1 2-7h3l6-7-1-1 6-2 2-4-1-9-5 1-7-2v-4h3v-2l-6-6-12-4v8l-3-1-1 3-4-1-7 3-6-3 3-4 1-5-3-6h-4l-9-12 6-8 5-11h3l9-6 1-5-9-19-1-8 7-12 7 2-1-8 11-17-9-21 3-2-6-7-3 2-4-2 4-4 1-7-6-2-1-3 3-8h-5l-8 4-6-4-17 4-2 2 6 11-5 4h-4l-4-4-4-8-2 3 4 8v4l-5 2-8-8 1-3-6-4h-6l1-5-2-7 7-5v-7l10-7-2-20-2-3-15 2-6-2-6 12h-4l-2-9-6 1-4-2v-9l9-7v-5l-5-5-5-2 1-3-7-1 1-9-7 3-11-1-7-2-5-5-3 1v16l-8 9 1 5-4 1-10 12-3 7v15l-12 14-2 8-7 4-2 4 6 4 13-3 17 1-1 3 10 7-1 14-6 5-10 1-10 4-3 5 4 12-6 9-3 28 10-1 2 8 13 5 3 11 3 2 10 41-1 8-2 1-2 15-4 5-3-4-11-4-7 2-9-5h-15l-7 2-8 5h-5l-4 6-8 7-5 1-5 5-3-1-4 3-5-1-5 5-1 4 6 2-6 2 1 6 2-1v8l-8 2-1 11 3-1 2 5h-9l-8 4-1-2-6 2-1 2h-4l-4 4 4 3 5-1 5 2 2 7-13 8-10 1-7 7 2 6 4 1-4 5 1 4-2 4-10 7-1 4 1 3 8 5-1 3-6 2 3 6-11 1-12 16 8 7h4l9-5h7v3l-3 5v8l-16 11 1 3 17 2 4 2 3-5 9 1v4l-2 2 1 4 4 2 1 5-5 2-5 9v3l9 3 1 6-5 2-2 6-3 3-8 2-4-3-3-6-7-8-1-12-2-2 2-4h-5l-4 3-6-2-1-6-3-3-7 5-7-5-6-1-14 9-4-2-3 1 2 11-2 4-6 2-3-2-4 2-1 4-6-3-2 1-1-4-12 3-3-2-5 5-4-2 5-6-1-4-4 2v-5zm-95 95-3-2-1 4 4-1z"/>
</svg>
