<?xml version="1.0" encoding="UTF-8" standalone="no"?>
<svg
   width="2185"
   height="1882"
   viewBox="-251 -228 2185 1882"
   version="1.1"
   id="svg1"
   xmlns="http://www.w3.org/2000/svg"
   xmlns:svg="http://www.w3.org/2000/svg">
  <defs
     id="defs1" />
  <path
     stroke="#ffff00"
     stroke-opacity="1"
     stroke-width="0.5"
     stroke-linecap="round"
     stroke-linejoin="round"
     stroke-dasharray="none"
     fill="#1e90ff"
     fill-opacity="1"
     fill-rule="evenodd"
     d="m 1061,544 -11,-1 -8,3 -19,12 -4,-1 -16,-11 -9.00001,-3 -4,1 -5,2 -13,15 -8,3 -11,16 -4,1 -5,-3 -5,-7 -3,-8 -6,-5 -8,-2 -9,5 -1,4 2,6 -2,5 -7,10 -5,2 v 7 l -5,5 -3,-2 2,-7 4,-2 -7,-5 v -8 l -3,-8 -4,-5 -10,-2 -9,5 -11,-1 -5,12 -12,9 -12,3 -8,7 -20,13 -9,2 -2,2 -2,10 -10,5 -5,11 v 13 l 4,11 1,9 5,8 5,3 v 3 l -7,6 -14,7 -4,7 -5,15 v 9 l -2,3 -5,4 h -3 l -8,-5 h -3 l -8,13 -6,2 -7,-5 -3,-8 h -4 l -5,3 -5,6 -10,3 v 2 l -7,1 -4,3 -3,6 -2,11 9,8 6,3 2,4 -3,24 4,11 -4,5 -11,2 -3,3 1,3 6,4 2,6 5,5 3,6 6,5 v 5 l -3,1 3,4 -2,3 7,5 11,1 16,-7 7,6 7,2 4,7 -2,10 1,3 h 8 l 3,6 -10,7 1,2 25,5 5,-1 9,-7 h 3 l 3,14 3,-1 6,8 v 5 l 6,3 2,3 h 19 l 4,2 -2,12 2,3 -5,8 -4,2 -5,-1 v 4 l -7,7 -2,5 -4,1 -1,5 6,2 v 5 l 4,-2 1,4 -5,6 4,2 5,-5 3,2 12,-3 1,4 2,-1 6,3 1,-4 4,-2 3,2 6,-2 2,-4 -2,-11 3,-1 4,2 14,-9 6,1 7,5 7,-5 3,3 1,6 6,2 4,-3 h 5 l -2,4 2,2 1,12 7,8 3,6 4,3 8,-2 3,-3 2,-6 5,-2 -1,-6 -9,-3 v -3 l 5,-9 5,-2 -1,-5 -4,-2 -1,-4 2,-2 v -4 l -9,-1 -3,5 -4,-2 -17,-2 -1,-3 16,-11 v -8 l 3,-5 v -3 h -7 l -9,5 h -4 l -8,-7 12,-16 11,-1 -3,-6 6,-2 1,-3 -8,-5 -1,-3 1,-4 10,-7 2,-4 -1,-4 4,-5 -4,-1 -2,-6 7,-7 10,-1 13,-8 -2,-7 -5,-2 -5,1 -4,-3 4,-4 h 4 l 1,-2 6,-2 1,2 8,-4 h 9 l -2,-5 -3,1 1,-11 8,-2 v -8 l -2,1 -1,-6 6,-2 -6,-2 1,-4 5,-5 5,1 4,-3 3,1 5,-5 5.00001,-1 8,-7 4,-6 h 5 l 8,-5 7,-2 h 15 l 9,5 7,-2 11,4 3,4 4,-5 2,-15 2,-1 1,-8 -10,-41 -3,-2 -3,-11 -13,-5 -2,-8 -10,1 3,-28 6,-9 -4,-12 3,-5 10,-4 10,-1 6,-5 1,-14 -10,-7 1,-3 -17,-1 -13,3 -6,-4 2,-4 7,-4 2,-8 12,-14 1,-9 z"
     id="贵阳市" />
  <path
     stroke="#ffff00"
     stroke-opacity="1"
     stroke-width="0.5"
     stroke-linecap="round"
     stroke-linejoin="round"
     stroke-dasharray="none"
     fill="#1e90ff"
     fill-opacity="1"
     fill-rule="evenodd"
     d="m 170.99999,785 2,13 v 6 l -2,4 2,7 -6,2 -1,16 -2,5 -16,10 -2,4 v 23 l -7,3 3,7 h -8 l -27,-10 -3,2 -1,6 8,1 8,5 2,5 7,8 -3,7 v 4 l 4,5 8,1 v 7 l 2,4 -1,5 5,7 1,4 -1,3 -4,-1 -4,4 v 8 l -24,7 -4,9 -5,6 -5,3 -4,8 2,15 -4,4 1,4 -4,9 -4,3 v 14 l 3,5 v 8 l -10,12 -7,-2 -5,-4 h -2 l -2,4 6,9 -1,8 -2,2 3,8 -3,5 v 5 l -7,10 -1,5 2,2 -3,6 -7,4 -2,3 2,7 h 6 l 2,10 -4,4 -3,7 3,7 -1,3 -4,2 -2,6 h -3 l -2,15 h -2 l -2,6 -5,6 h -3 l -5,-4 1,-2 -9,-6 -2,5 2,4 -2,2 v 12 l -3,8 v 7 l -2,2 1,6 4,2 -3,4 6,6 -1,5 2,3 9,-1 4,2 -1,7 8,-7 12,4 2,3 -2,5 4,4 1,14 -2,6 -4,2 4,5 2,6 4,-1 1,-8 h 12 l 9,-6 6,-7 9,4 -2,-3 2,-2 3,2 -2,21 -3,4 v 18 l -2,3 2,4 6,3 3,-4 9,6 v 2 l 9,8 7,-1 3,4 4,-1 1,-6 2,-2 7,6 3,6 v 8 l 23,-5 11,2 14,-2 10,-11 7,7 6,-4 1,-3 -12,-6 -2,-8 3,-16 12,-15 8,-15 v -13 l -4,-3 h -5 l -3,-3 v -10 l -7,-13 3,-5 11,-10 3,-12 -1,-9 -10,-14 -3,-12 1,-12 6,-13 4,-5 4,1 8,-7 5,-2 1,-12 -2,-3 3,-6 -6,-3 -2,-5 4,-9 v -5 l 5,-14 2,-14 4,-4 2,-5 4,-1 9,-9 -5,-12 7,-11 12,-10 5,4 9,2 5,-3 8,1 5,5 7,-10 11,1 v 4 l -4,2 1,3 -2,13 5,6 2,8 -2,7 7,9 10,24 5,2 2,-2 -2,-3 4,-6 6,-2 8,2 22,-4 9,2 25,-3 17,-4 10,-13 8,-5 7,-1 9,6 8,-30 -3,-8 2,-2 3,1 4,6 h 6 l 8,3 v -5 l 8,-9 h 4 l 3,2 5,-2 -3,-8 -4,3 -16,-11 h -21 l -4,-5 v -4 l -9,3 -3,-3 -6,4 h -4 l 1,-5 -4,-1 -4,5 -4,-2 -3,-7 -7,-5 -1,-10 5,-5 3,-15 9,-9 7,-2 -4,-9 -5,-20 -4,-3 h -17 l -5,-2 -5,-6 h -10 l -8,-3 -4,-6 -3,4 -6,-9 3,-3 1,-4 -8,-1 -4,-6 -9,-2 -5,5 h -10 l -13,-6 -4,-4 2,-9 -1,-4 -6,-2 -4,-4 h -5 l -8,6 -2,-2 -3,-9 -4,-4 1,-5 -4,2 -2,-1 -3,-8 -5,-3 3,-3 v -6 l -5,-11 -1,-9 6,-8 v -4 l -4,-5 -10,-3 -2,-4 5,-3 v -2 l -6,-7 -13,-3 -6,-6 1,-6 8,-7 1,-7 -2,-15 -7,1 -11,5 -8,8 -11,21 h -6 l -10,-8 -7,-13 -3,-1 -6,2 -3,8 -7,7 -2,6 -14,16 z m -19,-15 -3,-20 -5,-1 -6,6 -6,1 -1,-8 -3,-3 -3,16 -10,9 -2,6 2,11 -4,5 2,4 11,3 8,-1 12,-17 z"
     id="六盘水市" />
  <path
     stroke="#ffff00"
     stroke-opacity="1"
     stroke-width="0.5"
     stroke-linecap="round"
     stroke-linejoin="round"
     stroke-dasharray="none"
     fill="#1e90ff"
     fill-opacity="1"
     fill-rule="evenodd"
     d="m 1377,-172 -12,14 -1,3 -4,3 -11,2 h -22 l -9,11 h -7 l -2,9 -4,1 -2,10 -9,-2 -5,-5 -6,-3 4,-9 v -12 h -3 l -4,-3 -7,-2 2,-15 8,-24 -6,-3 -5,-6 h -2 l -3,-6 -3,-1 v -6 l -3,-3 -4,5 -6,2 1,3 -3,8 -4,1 -3,6 -13,-3 -1,-6 -12,-2 h -8 l -2,3 v 5 l -4,-1 v -6 l -3,-3 -2,-6 v -9 l -2,-5 h -6 l -1,4 -7,6 h -6 l -10,9 -5,1 -4,-2 v -8 l -8,-4 -5,6 -8,1 -1,7 4,4 -2,10 5,1 2,3 -5,14 -8,1 -3,-2 -5,2 3,14 h 5 l 1,8 -6,5 -5,7 2,7 h 10 l 6,14 3,2 h 6 l 1,5 -10,13 1,9 h -4 l -5,9 1,3 -4,5 -6,2 -2,-2 -11,3 5,5 -7,9 -18,4 -5,3 -4,5 1,5 -3,2 -10,-4 v -7 l -2,-2 -1,-9 2,-5 4,-4 h -11 v -4 l 4,-9 -5,-3 2,-1 -2,-4 -3,3 -1,-3 -6,3 -4,-1 -3,3 -2,-5 -16,-1 -3,6 -6,4 -5,-1 2,-3 3,-1 -2,-7 -5,2 -3,6 5,3 -7,2 v -6 l -3.00001,-2 h -6 l 1,9 -5,1 -1,2 -7,1 3,9 -3,7 2,16 h -7 l -6,3 -1,-4 -3,-2 -6,-12 -7,6 -3,-2 -8,9 -4,2 -1,-2 -6,-1 -2,7 -2,-1 -4,5 2,7 9,6 3,7 h -3 l 3,7 8,-1 -6,18 v 10 l -14,1 2,4 -2,6 -8,4 -2,-5 -3,-2 v -4 l -4,-4 -2,6 h -6 v 10 l 8,5 -1,5 -15,4 -3,5 -2,5 8,16 v 10 l -5,1 -3,4 -3,-1 -3,3 -5,-3 1,-8 -3,-4 -4,2 -6,-5 -4,6 -7,-5 1,-5 -8,2 -7,-5 -3,1 3,3 v 4 l -9,3 -2,-6 2,-3 -3,-4 3,-4 h 6 l 11,-11 1,-5 -4,-13 3,-6 4,2 3,-2 1,-6 -3,-5 -3,-1 -1,-3 h 9 l 4,-2 -3,-6 -6,2 -4,-3 -1,-6 2,-3 -5,1 -3,-3 -4,1 -2,-5 h -2 l -6,-8 2,-10 -1,-4 -5,-6 h -5 v -4 l -4,-1 -1,-5 -11,-5 -6,-11 -4,1 2,2 -5,4 -1,3 3,1 1,4 -4,2 1,7 3,6 11,9 2,9 4,1 2,11 5,4 -3,7 h -7 l 2,11 -2,3 v 4 l -2,1 -1,7 7,9 h 4 l -5,5 -4,-9 -9,-5 -2,4 7,13 6,6 -1,4 -3,-2 -3,3 h -5 l -1,-4 -6,-2 1,-2 -5,-4 -3,2 -3,-3 h -4 l -5,-3 -5,4 1,3 -6,6 2,3 -2,3 1,6 2,1 -2,6 1,5 h -9 l -1,3 -3,-3 -4,-1 -3,-5 -6,-3 -5,-10 v -4 l -5,-1 -1,2 -8,-2 -7,-9 -7,-5 -4,2 -7,-9 v -5 l -4,-5 -3,-9 -5,-1 -3,-3 -5,2 -5,-1 1,4 -6,-1 -2,-8 -5,-3 2,-3 -3,-7 -5,-3 v 3 l -13,-4 2,-4 -5,-1 2,-5 -4,-1 -3,-7 -11,-3 -4,-6 -1,10 -4,5 v 4 l -8,5 1,9 -5,1 -7,4 -5,-1 1,8 3,1 -2,2 v 9 l -2,1 6,4 -4,2 -3,4 -4,-3 -6,2 -3,-3 -5,3 -14,-2 -5,-3 -2,5 -8,4 v -5 l -3,-6 -4,1 -6,9 -3,2 -5,-2 -2,1 -1,10 -3,3 1,10 -5,-1 -3,5 -8,3 h -7 l 2,4 -3,10 h -2 l -2,5 4,3 -3,4 v 6 l 7,3 h 5 l 1,10 -2,4 3,4 1,7 3,3 -2,1 -1,8 -5,8 v 5 l 4,-3 3,3 4,1 7,10 6,2 2,-1 7,4 3,-2 -1,-6 2,-5 8,-2 h 9 l -6,-4 v -4 l 5,-3 3,3 2,7 4,2 h 5 l 10,22 5,2 4,-2 v 4 l 6,3 -4,10 -4,4 -3,18 6,8 -1,5 7,3 3,-4 9,-2 3,1 3,-5 7,3 3,3 2,9 h 3 v -3 l 10,-2 3,5 5,1 1,-2 -4,-8 4,-3 9,-2 11,-8 12,-2 7,1 12,6 5,5 6,1 1,7 6,1 2,7 6,3 2,5 5,5 -1,7 -3,1 -5,8 1,7 8,3 h 10 l 2,6 5,4 1,5 3,2 1,4 -7,7 v 9 l -3,2 1,4 8,1 3,4 -3,3 5,2 v 4 l -8,11 1,3 4,2 h 5 l -1,3 -13,5 -23,17 h -4 l -3,2 -6,-1 -5,4 -24,-10 h -23 l -2,3 1,3 -14,7 h -7 l -1,10 3,16 -2,8 4,1 16,-4 2,3 8,1 v 2 l 8,3 -1,8 3,7 h 5 l 2,7 11,15 17,-3 8,6 5,-3 -3,-6 2,-4 13,-8 -1,-3 2,-2 4,5 7,2 2,5 6,3 2,6 -1,8 -6,4 -4,7 5,13 4,5 7,-2 4,3 4,-6 21,-10 8,2 3,6 5,-1 3,3 10,4 h 4 l 2,-3 -2,-8 5,-2 3,1 1,-5 h 6 l 7,-5 4,-1 6,2 11,8 4,9 7,9 h 9 l 3,5 v 9 l 5,6 1,4 -3,12 -6,8 v 4 l 7,16 4,5 3,8 v 8 l 7,5 -4,2 -2,7 3,2 5,-5 v -7 l 5,-2 7,-10 2,-5 -2,-6 1,-4 9,-5 8,2 6,5 3,8 5,7 5,3 4,-1 11,-16 8,-3 13,-15 5,-2 4,-1 9.00001,3 16,11 4,1 19,-12 8,-3 11,1 3,-7 10,-12 4,-1 -1,-5 8,-9 v -16 l 3,-1 5,5 7,2 11,1 7,-3 -1,9 7,1 -1,3 5,2 5,5 v 5 l -9,7 v 9 l 4,2 6,-1 2,9 h 4 l 6,-12 6,2 15,-2 2,3 2,20 -10,7 v 7 l -7,5 2,7 -1,5 h 6 l 6,4 -1,3 8,8 5,-2 v -4 l -4,-8 2,-3 4,8 4,4 h 4 l 5,-4 -6,-11 2,-2 13,-4 h 4 l 6,4 8,-4 h 5 l -3,8 1,3 6,2 h 7 l 23,7 h 9 l 3,4 -7,2 -1,5 23,2 4,-3 1,3 4,1 -8,5 -2,5 11,-2 1,6 4,3 h 7 l 1,-15 7,1 6,-5 1,-3 10,2 7,-3 -2,-7 h 5 l 20,-9 2,-8 -3,-5 -7,-2 -3,-5 -1,-7 -4,-1 -5,-5 -7,2 -2,-6 3,-5 -1,-4 -3,-2 -6,3 -5,6 5,5 -1,3 h -5 l -4,-5 1,-3 -5,-5 -9,1 -5,5 -13,2 -5,-3 v -6 l -10,-2 -1,-3 2,-6 -7,-4 1,-3 13,-1 -1,-18 -2,-3 h -7 l -6,-3 -1,-3 3,-7 7,-4 10,-2 7,-21 6,-5 15,1 6,-7 2,-9 -2,-15 7,-16 6,-6 1,-4 -5,-15 v -7 l 7,-10 -1,-4 h -4 v -6 l -7,-7 -3,-7 -6,-7 v -14 l 6,-11 7,-1 -5,-9 v -14 l 8,-16 -16,-21 -1,-4 -3,3 -2,-2 -4,9 -9,3 -2,-8 -6,1 v -8 h -8 l -2,-3 -3,1 3,-5 -1,-4 7,-22 v -15 l 5,3 3,-3 h 4 l 6,-8 2,1 2,-19 -1,-6 2,-12 -2,-21 5,-12 h 17 l -3,-5 8,-1 7,2 7,-2 6,6 h 2 l 2,-6 -10,-6 -5,-5 3,-5 v -7 l 3,-3 5,2 8,-2 -2,5 -9,2 v 3 l 5,-2 4,1 v 4 l 7,6 -5,2 -2,3 3,2 4,7 4,1 11,-24 -1,-4 -6,-5 3,-4 1,-8 -4,-7 1,-4 7,-7 v -4 l -4,-6 -6,-3 -1,-3 4,-5 -5,-10 9,-9 8,-3 v -3 l 3,3 8,-3 6,-7 -3,-3 8,-7 7,-3 4,-6 3,-9 1,-15 4,-1 6,-11 -2,-17 -4,7 h -2 l -4,-4 -8,-14 v -5 h -6 l -5,-5 4,-26 -2,-5 -6,-3 -3,-5 v -6 l -11,-13 -2,-21 2,-5 z m -48,800 h 7 v -2 l -7,-5 -3,2 1,3 z"
     id="遵义市" />
  <path
     stroke="#ffff00"
     stroke-opacity="1"
     stroke-width="0.5"
     stroke-linecap="round"
     stroke-linejoin="round"
     stroke-dasharray="none"
     fill="#1e90ff"
     fill-opacity="1"
     fill-rule="evenodd"
     d="m 351.99999,1102 2,-1 1,5 -3,9 4,6 7,3 11,13 8,4 11,-2 4,4 -2,15 2,9 15,14 4,1 9,11 11,5 17,21 h 6 l 7,-7 h 4 l 16,14 16,4 8,6 7,17 4,4 5,12 6,4 13,26 1,12 10,3 29,15 5,-2 v -3 l 7,1 4,-2 -4,-4 1,-4 -5,-5 -1,-8 1,-4 24,-15 4,-6 -4,-5 -5,1 -2,-2 v -3 l 6,-9 1,-6 3,6 -1,5 2,6 h 11 l 9,4 3,-5 -1,-4 4,-1 4,-6 3,1 -1,4 6,4 2,5 -3,7 2,3 -3,2 -3,-1 -5,2 v 3 l 8,7 7,-2 9,11 -5,3 2,9 h 5 l 5,-4 1,-6 3,1 -1,5 6,1 4,-3 6,11 7,20 9,-3 h 5 l 11,4 10,14 h 8 l 14,-5 13,3 4,-3 -2,-9 -8,-6 -4,2 1,-7 h 5 l 4,-5 -3,-9 -5,-1 2,-4 h -2 v -9 l 3,-4 h 4 l 7,-13 -1,-12 14,-17 6,-13 v -5 l -19,-13 -3,1 -5,9 -4,1 h -5 l -16,-7 -7,-1 -7,-5 -2,-5 4,-12 -1,-1 -9,2 -14,10 -5,-1 v -5 l 8,-6 2,-7 -1,-11 -3,-9 -2,-1 v -14 l 6,-4 5,-7 1,-9 2,-1 1,-5 5,-7 -1,-2 -7,-2 v -6 h 5 l -2,-5 1,-5 2,-2 h 5 l 2,-4 v -5 l -4,-1 1,-4 h -5 l -5,-7 -4,-1 -2,2 -4,-3 2,-3 -7,4 v -2 l -8,2 1,-4 3,2 5,-10 3,-17 4,-3 2,4 3,1 6,-5 v -5 l -4,-6 -7,-1 v -2 l 7,-3 3,-12 v -8 l 3,-3 h 2 l -9,-9 -11,-1 5,-7 h 7 l 8,-5 3,7 5,6 h 6 l 5,-4 4,-9 v -11 l 7,-1 6,3 32,6 1,-5 4,-1 2,-5 7,-7 v -4 l 5,1 4,-2 5,-8 -2,-3 2,-12 -4,-2 h -19 l -2,-3 -6,-3 v -5 l -6,-8 -3,1 -3,-14 h -3 l -9,7 -5,1 -25,-5 -1,-2 10,-7 -3,-6 h -8 l -1,-3 2,-10 -4,-7 -7,-2 -7,-6 -16,7 -11,-1 -7,-5 2,-3 -3,-4 3,-1 v -5 l -6,-5 -3,-6 -5,-5 3,13 -6,6 -1,16 -3,15 -2,5 -3,2 -20,9 -8,-1 -8,5 -16,6 -5,-6 5,-3 1,-7 -4,-7 2,-6 -1,-5 -2,-1 -11,5 -6,-4 -9,7 -7,3 -9,8 -5,2 -15,-1 -5,2 -3,6 -8,3 -6,-5 -11,4 -4,8 -5,-5 -3,3 -9,2 -14,6 -4,4 -5,9 -9,7 -14,5 -9,9 -3,15 -5,5 1,10 7,5 3,7 4,2 4,-5 4,1 -1,5 h 4 l 6,-4 3,3 9,-3 v 4 l 4,5 h 21 l 16,11 4,-3 3,8 -5,2 -3,-2 h -4 l -8,9 v 5 l -8,-3 h -6 l -4,-6 -3,-1 -2,2 3,8 -8,30 -9,-6 -7,1 -8,5 -10,13 -17,4 -25,3 -9,-2 -22,4 -8,-2 -6,2 -4,6 z m 354,-19 -1,2 h 4 z"
     id="安顺市" />
  <path
     stroke="#ffff00"
     stroke-opacity="1"
     stroke-width="0.5"
     stroke-linecap="round"
     stroke-linejoin="round"
     stroke-dasharray="none"
     fill="#1e90ff"
     fill-opacity="1"
     fill-rule="evenodd"
     d="m 454.99999,950 7,-3 9,-7 5,-9 4,-4 14,-6 9,-2 3,-3 5,5 4,-8 11,-4 6,5 8,-3 3,-6 5,-2 15,1 5,-2 9,-8 7,-3 9,-7 6,4 11,-5 2,1 1,5 -2,6 4,7 -1,7 -5,3 5,6 16,-6 8,-5 8,1 23,-11 5,-20 v -13 l 1,-3 6,-6 -5,-19 -6,-4 -1,-3 3,-3 11,-2 4,-5 -4,-11 3,-24 -2,-4 -6,-3 -9,-8 2,-11 3,-6 4,-3 7,-1 v -2 l 10,-3 5,-6 5,-3 h 4 l 3,8 7,5 6,-2 8,-13 h 3 l 8,5 h 3 l 5,-4 2,-3 v -9 l 5,-15 4,-7 14,-7 7,-6 v -3 l -5,-3 -5,-8 -1,-9 -4,-11 v -13 l 5,-11 10,-5 2,-10 2,-2 9,-2 20,-13 8,-7 12,-3 12,-9 5,-12 11,1 9,-5 10,2 -7,-16 v -4 l 6,-8 3,-12 -1,-4 -5,-6 v -9 l -3,-5 h -9 l -7,-9 -4,-9 -11,-8 -6,-2 -4,1 -7,5 h -6 l -1,5 -3,-1 -5,2 2,8 -2,3 h -4 l -10,-4 -3,-3 -5,1 -3,-6 -8,-2 -21,10 -4,6 -4,-3 -7,2 -4,-5 -5,-13 4,-7 6,-4 1,-8 -2,-6 -6,-3 -2,-5 -7,-2 -4,-5 -2,2 1,3 -13,8 -2,4 3,6 -5,3 -8,-6 -17,3 -11,-15 -2,-7 h -5 l -3,-7 1,-8 -8,-3 v -2 l -8,-1 -2,-3 -16,4 -4,-1 2,-8 -3,-16 1,-10 -7,-1 -20,9 -3,-8 -6,1 -5,3 -4,-1 -5,3 -2,7 -7,4 -21,-6 -6,1 -16,5 -2,5 1,3 -7,4 -9,-3 h -5 l -8,10 -5,-1 -2,-2 v -6 l -5,-4 -2,-6 1,-4 -9,-3 -8,1 -4,-3 -4,-11 -16,-8 -6,-1 -7,3 -3,-3 h -3 l -4,5 -3,-2 -10,3 -1,4 -3,-2 -6,3 h -5 l -5,8 -5,1 -9,13 v 5 l 3,5 v 7 l -2,6 -3,3 3,3 v 5 l -11,10 -6,2 -2,4 -3,1 3,3 -4,2 1,3 -4,2 1,3 4,-2 4,2 -2,2 3,8 -4,4 v 4 l -5,2 -1,6 2,3 -1,7 -3,5 2,2 -2,6 -12,15 -1,5 -3,2 1,-10 -5,-2 -2,-5 -3,1 -13,-5 -9,3 -3,-3 h -8 l -4,4 h -4 v 5 l -5,-2 -7,9 -15,9 h -3 l -7,4 -3,4 -8,4 -3,8 -4,1 -1,3 -8,3 -7,-5 -1,-7 3,-5 -11,-8 -6,-1 -7,10 v 4 l -7,1 -1,-5 -5,-6 -7,4 -5,-3 -10,4 -3,-1 -2,5 -6,3 -3,-3 -9,2 -7,4 -6,-1 -3,-5 -6,-4 -9,1 -9,-10 1,-4 -6,-9 4,-6 -5,2 -5,-2 2,-6 -11,1 -2,-3 -9,-2 -3,-4 h -4 l -3,-4 1,-5 -3,1 -15,-5 -6,2 v 4 l -5,3 4,4 v 3 h -3 l -4,8 h -5 l -5,14 -4,3 -2,-2 v 4 h -3 l -9,10 1,7 4,5 -11,7 -2,-3 -5,1 3,4 v 3 h -4 l -6,-4 -1,4 -5,7 8,5 27,-4 6,14 7,5 -3,8 2,10 6,3 -2,8 1,4 4,3 -4,6 2,6 5,3 -2,6 5,1 2,4 -1,7 -4,3 v 15 l 7,4 4,-2 3,-9 3,-1 8,6 h 10 l 7,7 9,1 3,8 3,3 9,2 h 12 l 11,-3 8,9 -1,6 3,3 8,-5 4,2 4,8 1,5 -6,12 3,3 1,8 6,-1 6,-6 5,1 3,22 19,13 v -10 l 14,-16 2,-6 7,-7 3,-8 6,-2 3,1 7,13 10,8 h 6 l 11,-21 8,-8 11,-5 7,-1 2,15 -1,7 -8,7 -1,6 6,6 13,3 6,7 v 2 l -5,3 2,4 10,3 4,5 v 4 l -6,8 1,9 5,11 v 6 l -3,3 5,3 3,8 2,1 4,-2 -1,5 4,4 3,9 2,2 8,-6 h 5 l 4,4 6,2 1,4 -2,9 4,4 13,6 h 10 l 5,-5 9,2 4,6 8,1 -1,4 -3,3 6,9 3,-4 4,6 8,3 h 10 l 5,6 5,2 h 17 l 4,3 5,20 z m -327,-205 6,-12 -5,-13 -4,-2 -8,5 -3,-3 1,-6 -8,-9 -11,3 h -12 l -9,-2 -3,-3 -3,-8 -9,-1 -7,-7 h -10 l -8,-6 -3,1 -3,9 -4,2 -7,-4 v -15 l 4,-3 1,-7 -2,-4 -5,-1 2,-6 -5,-3 -2,-6 4,-6 -4,-3 -1,-4 2,-8 -6,-3 -2,-10 3,-8 -7,-5 -6,-14 -27,4 -6,-3 -18,-20 1,-7 -7,-6 -11,2 -10,-9 -14,-9 -1,-22 h -4 l -4,4 -5,1 -2,-2 -7,-1 v -3 l -4,-1 -4,-4 -3,13 -4,7 v 3 l -3,2 -1,15 -6,7 h -5 v 10 l -3,1 v 9 l -7,-2 -1,6 -6,3 -9,-1 v 7 l -5,-1 1,3 -3,6 -6,7 -6,1 -1,5 -3,5 -4,3 -3,7 -5,2 2,6 -5,6 -8,-1 -5,3 -4,-1 -6,2 -3,3 -2,7 8,2 4,-1 2,11 h -4 l -11,-5 -6,7 2,6 4,5 h 2 l 2,8 -5,2 3,1 6,-2 5,-4 1,-4 7,-8 11,1 3,6 6,6 9,23 7,5 1,7 -4,7 -1,5 6,12 -2,4 h -4 l -15,6 1,4 -3,4 -3,1 -2,6 1,8 5,9 2,12 5,6 4,1 5,-5 2,2 2,7 -2,3 v 4 l -3,4 v 16 l -4,10 7,9 v 9 l 11,6 4,5 2,9 h 10 l 8,8 8,-2 11,2 3,-2 11,-2 6,2 11,-1 2,3 13,-1 3,3 7,-5 v -9 l -2,-8 1,-5 9,-9 13,-20 5,1 7,-2 5,5 h 6 l 5,4 9,2 3,-3 h 4 l 3,3 h 6 v -5 l 10,1 4,7 6,-3 h 9 l 4,-9 6,-3 v -6 l 6,-9 v -9 l 9,-1 v 3 l 7,7 v 6 l 6,3 4,8 -4,9 2,11 9,7 5,-4 15,2 5,-3 5,5 1,4 h 2 l 1,5 -3,7 3,-2 27,10 h 8 l -3,-7 7,-3 v -23 l 2,-4 16,-10 2,-5 1,-16 6,-2 -2,-7 2,-4 v -6 l -2,-13 -12,-7 -7,-6 v -2 l -20,28 -8,1 -11,-3 -2,-4 4,-5 -2,-11 2,-6 10,-9 z"
     id="毕节市" />
  <path
     stroke="#ffff00"
     stroke-opacity="1"
     stroke-width="0.5"
     stroke-linecap="round"
     stroke-linejoin="round"
     stroke-dasharray="none"
     fill="#1e90ff"
     fill-opacity="1"
     fill-rule="evenodd"
     d="m 1675,640 6,-6 3,-9 5,-2 1,-7 -4,-6 3,-2 -7,-2 2,-5 12,-5 2,-3 h 4 l 2,-4 6,-5 1,-6 5,2 4,-1 4,-5 7,2 1,-5 3,-2 -3,-15 3,-3 2,4 4,2 4,-5 2,2 6,-3 -1,-5 2,-2 3,1 2,-4 -2,-2 4,-9 -3,-5 9,-7 -1,-5 -3,2 -2,4 -3,1 -3,-2 2,-3 4,3 v -4 l 7,-9 h 4 l 2,3 -1,11 3,-1 13,-13 h 4 l 3,4 8,4 1,5 15,-3 5,1 2,-5 -1,-17 3,-4 34,-26 11,1 4,-6 5,1 1,-3 -4,-8 7,-17 -5,-17 5,-5 -5,-5 -10,-4 -6,-9 -6,1 -1,-2 -10,2 4,-6 -5,-3 v -6 l -11,-10 3,-3 h -4 l 4,-4 1,-17 -6,-7 4,-5 -6,1 -2,-7 1,-4 -3,-5 1,-11 -4,-10 2,-4 4,-1 1,-9 7,-6 9,-1 5,-10 -3,-5 -9,-6 -4,-1 -4,8 -5,2 -2,3 -3,-1 6,-29 4,-5 1,-5 4,-6 -1,-7 2,-1 1,-5 -1,-7 2,-7 5,-5 -1,-6 3,-2 3,-7 5,-5 h 4 l -8,-4 -4,1 -2,4 -3,-1 4,-6 -8,-5 -10,8 -7,-1 1,-6 -4,-5 -5,-2 1,-2 -3,-10 7,-9 1,-6 -4,-1 -5,-6 -3,-19 4,-18 3,-1 v -5 l -15,8 -7,-3 -9,5 -2,7 -3,3 v 6 l -4,1 v 6 l -4,-1 1,6 -2,9 -5,10 5,3 v 2 l -5,5 1,5 -5,10 -4,4 1,2 -7,8 -4,1 -3,5 2,7 5,7 1,6 -5,2 -2,5 -8,-7 -7,-2 -1,-5 -5,-1 -4,8 v 9 l -2,4 -3,3 h -5 l -3,-4 -8,-5 -10,-3 -1,-2 2,-5 -5,-4 -2,1 -6,-2 -15,8 -7,-3 -5,-16 -6,2 -2,6 -10,6 -3,8 -2,-2 v -9 l -4,-3 h -3 l -1,-10 -3,-4 -1,-8 5,-6 9,-5 2,-3 -3,-4 6,-10 v -8 l 2,-5 -8,-3 v -4 l 6,-13 -2,-4 -10,-5 1,-5 -2,-3 h -3 l -3,-3 -1,-7 -5,-3 -3,7 h -5 l -6,3 -5,-1 -4,4 -2,5 9,6 1,4 7,4 3,8 -2,4 -6,2 -3,3 -3,10 1,3 5,-2 1,5 -3,4 -21,3 -3,-6 -8,-1 -2,-9 1,-10 3,-7 8,-1 1,-11 -3,-2 -2,-7 -4,-3 1,-6 -5,-8 2,-4 -3,-9 6,-4 h 8 l -2,-21 11,-13 -1,-8 -3,-1 -6,4 -4,-3 h -4 v -4 l -7,-5 -2,5 -5,1 -3,-2 -8,5 -5,1 -1,5 -4,-2 -7,1 -3,-3 h -9 l -17,-7 -14,-10 -3,1 -4,-2 4,-7 1,-17 9,-10 1,-3 4,-2 1,-6 -2,-8 -10,-3 v -8 l -3,-10 3,-6 1,-9 -3,-6 -1,-14 -3,-3 -6,-2 -5,-21 v -6 l -4,-12 3,-13 -1,-2 -6,-3 h -6 l -4,11 -1,9 -5,6 -7,-2 2,-6 -5,-4 h -4 l -2,-6 -10,2 -7,5 h -7 l -2,-5 -6,-4 -15,-5 3,7 -2,5 2,21 11,13 v 6 l 3,5 6,3 2,5 -4,26 5,5 h 6 v 5 l 8,14 4,4 h 2 l 4,-7 2,17 -6,11 -4,1 -1,15 -3,9 -4,6 -7,3 -8,7 3,3 -6,7 -8,3 -3,-3 v 3 l -8,3 -9,9 5,10 -4,5 1,3 6,3 4,6 v 4 l -7,7 -1,4 4,7 -1,8 -3,4 6,5 1,4 -11,24 -4,-1 -4,-7 -3,-2 2,-3 5,-2 -7,-6 v -4 l -4,-1 -5,2 v -3 l 9,-2 2,-5 -8,2 -5,-2 -3,3 v 7 l -3,5 5,5 10,6 -2,6 h -2 l -6,-6 -7,2 -7,-2 -8,1 3,5 h -17 l -5,12 2,21 -2,12 1,6 -2,19 -2,-1 -6,8 h -4 l -3,3 -5,-3 v 15 l -7,22 1,4 -3,5 3,-1 2,3 h 8 v 8 l 6,-1 2,8 9,-3 4,-9 2,2 3,-3 1,4 16,21 -8,16 v 14 l 5,9 -7,1 -2,3 -4,8 v 14 l 6,7 3,7 7,7 v 6 h 4 l 1,4 -7,10 v 7 l 5,15 -1,4 -6,6 -7,16 2,15 -2,9 -6,7 -15,-1 -6,5 -7,21 -10,2 -7,4 -3,7 1,3 6,3 h 7 l 2,3 1,18 -13,1 -1,3 7,4 -2,6 1,3 10,2 v 6 l 5,3 13,-2 5,-5 9,-1 5,5 h 4 l 5,-6 6,-3 3,2 1,4 -3,5 2,6 7,-2 5,5 4,1 1,-5 22,-3 7,-3 11,3 6,-1 7,10 6,5 5,-2 10,-26 4,-3 5,-1 18,9 9,-3 6,1 12,-11 20,-13 5,-6 5,-1 9,3 6,5 2,-1 2,-6 8,2 7,-20 4,-5 h 6 l 6,3 4,-3 4,-11 3,-4 4,-2 h 4 l 8,5 7,1 10,-5 5,1 13,13 1,5 5,1 -1,-7 15,-1 7,1 4,3 1,-1 -5,-8 4,-3 h 4 l -1,5 24,3 7,-9 h 4 l 4,5 8,2 1,2 -7,8 v 4 l 3,3 10,-1 1,5 6,-1 5,3 5,7 v 3 l -6,17 -4,1 -16,-2 -6,2 -3,3 -7,-2 -3,1 -4,8 h -6 v -6 l -3,-3 -6,2 2,3 -6,1 v 7 l 5,6 2,6 -3,12 -5,4 -2,12 h -4 l -2,5 1,2 -6,2 -3,5 2,3 13,3 2,6 4,3 v 6 l 4,5 6,3 z m -353,-87 h -4 l -1,3 4,5 h 5 l 1,-3 z"
     id="铜仁市" />
  <path
     stroke="#ffff00"
     stroke-opacity="1"
     stroke-width="0.5"
     stroke-linecap="round"
     stroke-linejoin="round"
     stroke-dasharray="none"
     fill="#1e90ff"
     fill-opacity="1"
     fill-rule="evenodd"
     d="m 813.99999,1475 -2,-1 4,-6 1,-5 -5,-5 -7,-13 -7,-7 v -2 l -6,-4 -1,3 -3,-2 -2,-4 4,-1 3,-4 11,-6 4,-7 -4,-4 v -7 l -3,-7 -2,-11 -6,-11 -3,-2 -5,1 -7,-2 -2,-4 v -10 l -13,-3 -14,5 h -8 l -10,-14 -11,-4 h -5 l -9,3 -7,-20 -6,-11 -4,3 -6,-1 1,-5 -3,-1 -1,6 -5,4 h -5 l -2,-9 5,-3 -9,-11 -7,2 -8,-7 v -3 l 5,-2 3,1 3,-2 -2,-3 3,-7 -2,-5 -6,-4 1,-4 -3,-1 -4,6 -4,1 1,4 -3,5 -9,-4 h -11 l -2,-6 1,-5 -3,-6 -1,6 -6,9 v 3 l 2,2 5,-1 4,5 -4,6 -24,15 -1,4 1,8 5,5 -1,4 4,4 -4,2 -7,-1 v 3 l -5,2 -29,-15 -10,-3 -1,-12 -13,-26 -6,-4 -5,-12 -4,-4 -7,-17 -8,-6 -16,-4 -16,-14 h -4 l -7,7 h -6 l -17,-21 -11,-5 -9,-11 -4,-1 -15,-14 -2,-9 2,-15 -4,-4 -11,2 -8,-4 -11,-13 -7,-3 -4,-6 3,-9 -1,-5 -4,3 -5,-2 -10,-24 -7,-9 2,-7 -2,-8 -5,-6 2,-13 -1,-3 4,-2 v -4 l -11,-1 -7,10 -5,-5 -8,-1 -5,3 -9,-2 -5,-4 -17,16 -2,5 5,12 -9,9 -4,1 -2,5 -4,4 -2,14 -5,14 v 5 l -4,9 2,5 6,3 -3,6 2,3 -1,12 -5,2 -8,7 -4,-1 -4,5 -6,13 -1,12 3,12 10,14 1,9 -3,12 -11,10 -3,5 7,13 v 10 l 3,3 h 5 l 4,3 v 13 l -8,15 -12,15 -3,16 2,8 12,6 -1,3 -6,4 -7,-7 -10,11 -14,2 -11,-2 -23,5 v -8 l -3,-6 -7,-6 -2,2 -1,6 -4,1 v 16 l 3,5 -5,2 1,2 7,4 4,-4 13,-1 1,6 7,3 2,3 h 8 l -1,-4 h 4 l 5,3 3,5 3,1 4,-3 h 4 l 4,10 -7,2 2,14 -2,3 5,8 -2,4 -5,-1 -10,-10 -3,-7 -6,-4 -7,4 -3,4 4,5 -1,6 -5,6 v 5 l -8,7 -1,8 -3,3 v 8 l -5,4 -9,2 h -10 l 6,2 h 17 l 6,8 5,16 -10,4 v 4 l -8,5 v 5 l -5,4 -5,15 -15,8 -9,16 -11,12 -1,8 3,7 -2,5 1,3 -5,10 11,2 5,5 8,2 12,19 25,5 2,1 -1,6 3,3 8,3 5,-2 3,-10 5,-4 14,-3 2,-3 5,1 7,-3 7,-10 2,-12 3,-3 9,-5 30,-7 18,-7 1,-3 -3,-9 4,-7 2,-8 -2,-8 12,-8 2,-9 18,-12 3,-6 4,-1 5,2 7,-11 13,-4 1,6 h 5 l 2,6 6,-1 4,5 -2,6 3,4 16,3 9,-1 2,-3 9,-4 10,1 13,4 6,4 5,17 5,11 5,2 3,5 1,10 10,3 18,2 6,-4 7,1 2,7 4,4 9,2 10,-2 10,3 12,11 8,3 2,6 15,7 h 8 l 10,-6 3,-5 h 6 l 4,3 18,-1 4,15 12,10 2,5 12,7 6,-9 3,-12 6,-5 18,-7 2,-4 5,-2 6,-13 7,1 7,-13 -1,-4 4,-5 3,-19 -3,-4 v -6 l -2,-4 -17,-23 3,-3 11,4 3,-1 9,-11 h 5 l 5,4 h 4 l 3,-3 15,2 10,-6 8,-1 13,-6 h 6 l 11,-5 4,-2 1,-4 5,-3 18,-4 z m -525,58 h 3 l 4,-3 -1,-2 z"
     id="黔西南布依族苗族自治州" />
  <path
     stroke="#ffff00"
     stroke-opacity="1"
     stroke-width="0.5"
     stroke-linecap="round"
     stroke-linejoin="round"
     stroke-dasharray="none"
     fill="#1e90ff"
     fill-opacity="1"
     fill-rule="evenodd"
     d="m 1352,565 1,7 3,5 7,2 3,5 -2,8 -20,9 h -5 l 2,7 -7,3 -2,13 4,2 v 2 l -18,1 -2,-4 -6,-1 -1,7 h -7 l -4,-3 -1,-6 -11,2 2,-5 8,-5 -4,-1 -1,-3 -4,3 -23,-2 1,-5 7,-2 -3,-4 h -9 l -23,-7 h -7 l -1,7 -4,4 4,2 3,-2 6,7 -3,2 9,21 -11,17 1,8 -7,-2 -7,12 1,8 9,19 -1,5 -9,6 h -3 l -5,11 -6,8 9,12 h 4 l 3,6 -1,5 -3,4 6,3 7,-3 4,1 1,-3 3,1 v -8 l 12,4 6,6 v 2 h -3 v 4 l 7,2 5,-1 1,9 -2,4 -6,2 1,1 -6,7 h -3 l -2,7 -3,-1 -5,7 1,5 -4,4 2,5 2,20 5,3 3,4 2,8 7,11 -4,6 -8,2 -16,-2 -4,-2 -6,-12 -7,-2 -4,2 v 4 l -3,6 -5,-3 v -9 l -4,3 h -4 l -11,13 h -5 l -4,2 v 5 l -3,2 -4,-2 -1,-3 h -3 l -1,7 h -6 l -1,-7 2,-5 -6,-1 -6,3 v 3 l -3,-1 1,6 -4,-2 -7,1 2,6 -7,1 -1,-2 -7,-3 -3,2 -5,-3 -3,3 1,3 -5,3 -1,5 3,6 h 7 l 4,3 v 3 l -8,10 -8,4 1,3 -5,2 2,5 4,-1 8,10 11,4 7,6 9,2 6,-2 7,-9 21,-6 4,3 2,19 4,6 9,-7 11,2 1,4 12,7 4,8 4,14 6,-1 7,-7 9,-2 5,-5 h 15 l 6,3 -2,15 -5,8 -5,15 -2,1 -1,19 3,-1 v -4 l 3,2 1,3 2,-1 v 4 l 2,3 7,4 5,12 6,5 5,2 4,-1 2,-16 5,-1 9,10 8,-3 8,14 6,2 -2,2 h 5 l 1,8 2,-7 4,2 1,-3 h 9 l 5,-5 10,5 26,2 4,-5 2,2 3,-1 -1,-4 6,-1 2,5 5,2 v 3 l -3,1 1,12 4,2 4,-1 10,-13 h 5 l 1,3 -3,4 1,4 4,-1 1,5 -8,8 3,2 -3,2 v 9 l 2,3 -4,1 -1,3 -4,3 h -11 v 7 l -6,7 -5,2 1,7 h 2 l 2,5 -5,4 -11,15 6,3 -12,8 -3,12 1,5 7,2 1,5 -4,5 2,10 -1,-1 -1,6 2,3 -1,7 4,-1 9,-6 h 5 l 3,-3 4,11 -1,8 6,3 1,2 -1,11 5,2 h 8 l 7,-7 4,3 -2,8 1,6 5,-1 10,9 -2,4 4,13 4,2 5,-5 10,-2 3,2 v 3 l 3,5 7,5 5,1 8,15 1,7 5,3 4,-6 7,-1 3,-2 6,1 5,3 2,6 3,2 -1,6 4,-2 8,4 v 2 l 7,8 -1,4 9,3 3,8 -2,4 9,11 h 4 v -6 l 2,-5 -5,-12 3,-4 -1,-5 -3,-7 -6,-1 -3,-5 4,-5 v -9 l 4,-10 4,5 4,1 -2,-5 -3,1 v -4 l -4,-3 h 5 v -4 l 3,-2 1,-4 8,-5 3,2 2,-3 5,5 h 3 l -1,-6 -11,-7 3,-4 -2,-9 5,-2 4,1 2,-4 v -3 l -3,-1 2,-7 h 10 l 3,-4 14,-1 1,2 7,1 1,3 -2,8 5,3 2,7 -5,2 -2,7 h 3 l 8,11 6,-9 10,1 -1,-3 5,-1 4,2 5,-2 -1,5 3,2 6,-2 7,-5 h 7 l 8,6 v 4 h 6 l 13,8 7,-6 4,1 4,-6 4,2 4,-6 -5,-1 -10,-9 -2,-14 2,-4 -6,-4 4,-4 v -7 l 3,-2 3,-7 6,-6 -1,-6 2,-5 -9,-5 1,-2 h -5 l -2,5 -2,1 -10,-5 -1,4 -6,2 -4,8 -6,4 -3,6 -7,-3 -4,2 -7,-1 -2,-9 1,-4 6,-2 -1,-3 11,-6 5,4 3,-1 -1,-3 2,-2 h 5 l 4,-7 4,1 -4,-8 3,-2 5,2 2,-4 5,-2 17,7 1,-4 3,-3 h 3 l -1,-3 9,-3 6,2 3,4 v 7 l -4,6 6,8 2,-1 2,-5 8,-2 3,-5 -5,-3 2,-3 -6,-3 4,-3 6,2 5,5 v 19 l 4,2 h 6 l 7,3 1,3 9,3 h 6 l 6,-4 v -4 l 10,1 -1,-10 -4,-2 2,-5 -1,-5 2,-2 1,-5 v -13 l 11,-3 7,-12 3,-12 6,-2 5,-4 3,-7 -1,-6 -2,-3 -7,-2 v -3 l 22,-13 5,-12 -1,-7 -9,-3 -2,-7 v -12 l 4,3 5,-2 11,1 4,-13 -3,-2 -4,-8 v 3 h -6 l -4,-7 1,-3 -4,-10 4,-1 -1,-2 -6,-3 -4,-12 5,-10 2,-8 6,-6 -4,-6 h -2 l -6,5 v 4 l -15,3 -4,3 -6,-1 -7,5 -6,1 -1,-5 -5,-3 1,-3 h -7 l -3,-3 -4,1 -4,-8 -1,-5 2,-5 5,-2 10,-30 3,-4 12,-8 h 5 l 2,-5 -6,-2 v -4 l 8,-7 -1,-10 8,-5 2,-3 -2,-9 -3,-3 1,-2 h -5 l 2,-4 v -8 l -2,-2 -2,-7 -6,-4 -3,-11 -8,5 -11,-6 -7,-15 3,-1 2,2 8,-2 13,3 4,-1 7,-6 -1,-7 9,4 2,-1 2,-8 7,-6 6,-2 h 12 l -4,-28 -3,-1 -6,-12 h -5 l 3,-4 -3,-3 v -6 l 3,-3 5,-1 4,-4 5,-1 11,-7 4,2 3,-5 8,-3 -3,-16 -4,5 -3,-2 v -5 l 5,-1 v -8 l -6,-6 v -4 l -3,-2 1,-7 -3,-4 2,-1 -10,-3 -1,5 3,2 -3,3 -12,-6 10,-1 v -4 l -8,-1 3,-5 h -4 l 1,-5 4,-3 1,-8 -6,1 -3,5 -3,1 -5,-3 -4,-12 -6,1 1,-3 -3,1 v 5 h -3 l -3,-4 -1,3 -6,-2 -9,1 1,4 -13,2 -7,3 -6,-2 -3,-7 -3,-2 -3,2 -6,11 -10,13 -4,4 -4,-2 -4,8 -8,-3 -4,4 -10,-2 2,-10 4,-5 4,-2 1,-3 -4,-2 h -4 l -5,3 h -6 l -5,4 -2,-2 -3,5 h -6 l -1,-2 -5,3 -1,4 -10,5 -9,8 -9,4 1,3 h 3 v 8 l -11,3 v -8 l -2,2 1,2 -6,1 -6,6 -5,1 2,-2 v -4 l -3,-7 h -5 l -4,-6 -1,-7 -4,3 -14,-11 6,-6 7,4 7,-4 3,1 2,-8 5,1 2,3 3,-3 -1,-8 -6,-3 -4,-5 v -6 l -4,-3 -2,-6 -13,-3 -2,-3 3,-5 6,-2 -1,-2 2,-5 h 4 l 2,-12 5,-4 3,-12 -2,-6 -5,-6 v -7 l 6,-1 -2,-3 6,-2 3,3 v 6 h 6 l 4,-8 3,-1 7,2 3,-3 6,-2 16,2 4,-1 6,-17 v -3 l -5,-7 -5,-3 -6,1 -1,-5 -10,1 -3,-3 v -4 l 7,-8 -1,-2 -8,-2 -4,-5 h -4 l -7,9 -24,-3 1,-5 h -4 l -4,3 5,8 -1,1 -4,-3 -7,-1 -15,1 1,7 -5,-1 -1,-5 -13,-13 -5,-1 -10,5 -7,-1 -8,-5 h -4 l -4,2 -3,4 -4,11 -4,3 -6,-3 h -6 l -4,5 -7,20 -8,-2 -2,6 -2,1 -6,-5 -9,-3 -5,1 -5,6 -20,13 -12,11 -6,-1 -9,3 -18,-9 -5,1 -4,3 -10,26 -5,2 -6,-5 -7,-10 -6,1 -11,-3 -7,3 -22,3 z m 528,181 6,12 5,-2 -2,3 4,28 6,1 v 5 l 7,-1 -2,-4 v -9 l -3,-9 -4,-5 v -4 l 6,-7 v -13 l -9,-4 -1,-5 h -5 v 4 l -6,5 z m 46,45 -3,1 -4,-3 1,5 -3,3 -7,-4 -2,2 7,4 v 5 l 2,-2 6,-1 10,-14 -7,-4 1,6 z m -616,-167 6,1 2,4 11,-1 -3,-5 3,-2 3,3 2,-13 -10,-2 -1,3 -6,5 h -8 z"
     id="黔东南苗族侗族自治州" />
  <path
     stroke="#ffff00"
     stroke-opacity="1"
     stroke-width="0.5"
     stroke-linecap="round"
     stroke-linejoin="round"
     stroke-dasharray="none"
     fill="#1e90ff"
     fill-opacity="1"
     fill-rule="evenodd"
     d="m 799.99999,990 -32,-6 -6,-3 -7,1 v 11 l -4,9 -5,4 h -6 l -5,-6 -3,-7 -8,5 h -7 l -5,7 11,1 9,9 h -2 l -3,3 v 8 l -3,12 -7,3 v 2 l 7,1 4,6 v 5 l -6,5 -3,-1 -2,-4 -4,3 -3,17 -4,8 3,2 v 2 l 7,-4 -2,3 4,3 2,-2 4,1 5,7 h 5 l -1,4 4,1 v 5 l -2,4 h -5 l -2,2 -1,5 2,5 h -5 v 6 l 7,2 1,2 -5,7 -1,5 -2,1 -1,9 -5,7 -6,4 v 14 l 2,1 3,9 1,11 -2,7 -8,6 v 5 l 5,1 14,-10 9,-2 1,1 -4,12 2,5 7,5 7,1 16,7 h 5 l 4,-1 5,-9 3,-1 19,13 v 5 l -6,13 -14,17 1,12 -7,13 h -4 l -3,4 v 9 h 2 l -2,4 5,1 3,9 -4,5 h -5 l -1,7 4,-2 8,6 2,9 -4,3 v 10 l 2,4 7,2 5,-1 3,2 6,11 2,11 3,7 v 7 l 4,4 -4,7 -11,6 -3,4 -4,1 2,4 3,2 1,-3 6,4 v 2 l 7,7 7,13 5,5 -1,5 -4,6 2,1 3,-5 7,-4 h 10 l 4,-2 3,-7 12,-6 4,-6 -1,-9 2,-3 17,-6 11,7 h 4 l 12,-8 h 3 l 5,5 18,-4 6,-3 13,2 4,-5 2,-15 3,-4 7,-3 8,1 8,6 7,-3 1,-2 -4,-4 1,-3 9,-5 -3,-14 3,-14 -2,-4 -8,-2 -3,-6 -2,-13 -2,-1 v -7 l -2,-5 7,-4 5,2 4,-15 4,-7 14.00001,-2 5,-4 2,-3 -4,-9 v -7 l 11,-4 10,2 14,-2 2,-2 7,-1 1,-6 4,-5 4,-2 7,2 2,8 -2,8 3,5 10,4 11,9 5,8 2,-2 5,4 -3,4 4,5 1,11 -3,1 v 3 l -4,2 -2,-1 v 10 l 2,2 h 11 l 3,3 h 4 l 4,-6 h 4 l 6,7 h 7 l 1,4 -4,4 -2,5 v 6 l 8,13 1,10 6,1 8,-6 4,1 3,9 -7,18 v 7 l 12,2 v -3 h 3 l 2,4 1,-6 8,-1 v -4 l 4,-2 2,-3 9,-4 3,3 3,-1 -2,-4 4,3 1,-5 h 2 v -4 l 7,-13 10,-3 3,4 -4,5 1,14 3,6 10,10 -1,9 3,1 15,-18 h 4 l 3,4 -2,12 1,5 8,7 3,6 -4,8 -6,4 2,3 4,-3 6,4 4,-4 5,-2 8,6 9,-6 2,-5 9,-1 7,-5 5,1 8,-8 6,-1 8,-4 4,-4 4,1 15,-2 10,2 12,-6 3,-8 4,-2 1,-10 3,-4 -3,-3 v -8 l 5,-5 1,-6 -6,-8 6,-4 1,-10 -4,-5 h 14 l 4,-6 -3,-3 2,-2 -7,-5 -2,1 -3,-4 2,-3 11,-5 4,3 h 6 l 2,10 9,-2 v -3 l -5,-4 1,-6 15,-7 7,-8 2,-6 -5,-4 -4,-13 2,-4 -10,-9 -5,1 -1,-6 2,-8 -4,-3 -7,7 h -8 l -5,-2 1,-11 -1,-2 -6,-3 1,-8 -4,-11 -3,3 h -5 l -9,6 -4,1 1,-7 -2,-3 1,-6 1,1 -2,-10 4,-5 -1,-5 -7,-2 -1,-5 3,-12 12,-8 -6,-3 1,-3 15,-16 -2,-5 h -2 l -1,-7 5,-2 6,-7 v -7 h 11 l 4,-3 1,-3 4,-1 -2,-3 v -9 l 3,-2 -3,-2 8,-8 -1,-5 -4,1 -1,-4 3,-4 -1,-3 h -5 l -10,13 -4,1 -4,-2 -1,-12 3,-1 v -3 l -5,-2 -2,-5 -6,1 1,4 -3,1 -2,-2 -4,5 -26,-2 -10,-5 -5,5 h -9 l -1,3 -4,-2 -2,7 -1,-8 h -5 l 2,-2 -6,-2 -8,-14 -8,3 -9,-10 -5,1 -2,16 -4,1 -5,-2 -6,-5 -5,-12 -7,-4 -2,-3 v -4 l -2,1 -1,-3 -3,-2 v 4 l -3,1 1,-19 2,-1 5,-15 5,-8 2,-15 -6,-3 -11,-1 -4,1 -5,5 -9,2 -7,7 -6,1 -4,-14 -4,-8 -12,-7 -1,-4 -11,-2 -9,7 -4,-6 -2,-19 -4,-3 -21,6 -7,9 -6,2 -9,-2 -7,-6 -11,-4 -8,-10 -4,1 -2,-5 5,-2 -1,-3 8,-4 8,-10 v -3 l -4,-3 h -7 l -3,-6 1,-5 5,-3 -1,-3 3,-3 5,3 3,-2 7,3 1,2 7,-1 -2,-6 7,-1 4,2 -1,-6 3,1 v -3 l 6,-3 6,1 -2,5 1,7 h 6 l 1,-7 h 3 l 1,3 4,2 3,-2 v -5 l 4,-2 h 5 l 11,-13 h 4 l 4,-3 v 9 l 5,3 3,-6 v -4 l 4,-2 7,2 6,12 4,2 16,2 8,-2 4,-6 -7,-11 -2,-8 -3,-4 -5,-3 -2,-20 -2,-5 4,-4 -1,-5 5,-7 3,1 2,-7 h 3 l 6,-7 -1,-1 6,-2 2,-4 -1,-9 -5,1 -7,-2 v -4 h 3 v -2 l -6,-6 -12,-4 v 8 l -3,-1 -1,3 -4,-1 -7,3 -6,-3 3,-4 1,-5 -3,-6 h -4 l -9,-12 6,-8 5,-11 h 3 l 9,-6 1,-5 -9,-19 -1,-8 7,-12 7,2 -1,-8 11,-17 -9,-21 3,-2 -6,-7 -3,2 -4,-2 4,-4 1,-7 -6,-2 -1,-3 3,-8 h -5 l -8,4 -6,-4 -17,4 -2,2 6,11 -5,4 h -4 l -4,-4 -4,-8 -2,3 4,8 v 4 l -5,2 -8,-8 1,-3 -6,-4 h -6 l 1,-5 -2,-7 7,-5 v -7 l 10,-7 -2,-20 -2,-3 -15,2 -6,-2 -6,12 h -4 l -2,-9 -6,1 -4,-2 v -9 l 9,-7 v -5 l -5,-5 -5,-2 1,-3 -7,-1 1,-9 -7,3 -11,-1 -7,-2 -5,-5 -3,1 v 16 l -8,9 1,5 -4,1 -10,12 -3,7 v 15 l -12,14 -2,8 -7,4 -2,4 6,4 13,-3 17,1 -1,3 10,7 -1,14 -6,5 -10,1 -10,4 -3,5 4,12 -6,9 -3,28 10,-1 2,8 13,5 3,11 3,2 10,41 -1,8 -2,1 -2,15 -4,5 -3,-4 -11,-4 -7,2 -9,-5 h -15 l -7,2 -8,5 h -5 l -4,6 -8,7 -5.00001,1 -5,5 -3,-1 -4,3 -5,-1 -5,5 -1,4 6,2 -6,2 1,6 2,-1 v 8 l -8,2 -1,11 3,-1 2,5 h -9 l -8,4 -1,-2 -6,2 -1,2 h -4 l -4,4 4,3 5,-1 5,2 2,7 -13,8 -10,1 -7,7 2,6 4,1 -4,5 1,4 -2,4 -10,7 -1,4 1,3 8,5 -1,3 -6,2 3,6 -11,1 -12,16 8,7 h 4 l 9,-5 h 7 v 3 l -3,5 v 8 l -16,11 1,3 17,2 4,2 3,-5 9,1 v 4 l -2,2 1,4 4,2 1,5 -5,2 -5,9 v 3 l 9,3 1,6 -5,2 -2,6 -3,3 -8,2 -4,-3 -3,-6 -7,-8 -1,-12 -2,-2 2,-4 h -5 l -4,3 -6,-2 -1,-6 -3,-3 -7,5 -7,-5 -6,-1 -14,9 -4,-2 -3,1 2,11 -2,4 -6,2 -3,-2 -4,2 -1,4 -6,-3 -2,1 -1,-4 -12,3 -3,-2 -5,5 -4,-2 5,-6 -1,-4 -4,2 v -5 z m -95,95 -3,-2 -1,4 4,-1 z"
     id="黔南布依族苗族自治州" />
</svg>