<?xml version="1.0" encoding="UTF-8" standalone="no"?>
<svg
   width="1790"
   height="1632.1483"
   viewBox="-251 -228 1790 1632.1483"
   version="1.1"
   id="svg1"
   xmlns="http://www.w3.org/2000/svg"
   xmlns:svg="http://www.w3.org/2000/svg">
  <defs
     id="defs1" />
  <path
     stroke="#ffff00"
     stroke-opacity="1"
     stroke-width="0.5"
     stroke-linecap="round"
     stroke-linejoin="round"
     stroke-dasharray="none"
     fill="#1e90ff"
     fill-opacity="1"
     fill-rule="evenodd"
     d="m 964,-56.00004 -1,-2 -5,1 -4,-4 -8,-2 -2,-4 -3,-2 -6,1 -4,4 h -6 l -2,3 -8,3 -10,2 -3,2 -16,2 -7,11 -3,3 -4,1 -5,9 1,11 -5,12 v 3 l 3,2 2,-1 10,6 -1,2 h -10 l -5,5 -12,4 -6,4 h -3 l -7,7 h -7 l -13,-3 -3,4 2,1 -6,3 h -2 l -4,-6 -11,1 -2,3 -1,7 -6,9 1,3 -2,-1 v -3 h -8 l -4,-3 -13,10 -1,3 12,9 v 4 l 13,1 v 6 l 8,8 h 4 l 3,-2 6,4 -1,2 2,4 11,5 1,3 -5,5 h -3 l -6,5 -1,5 h -2 v 7 l -10,-1 -9,2 -4,3 h 2 l -2,3 v 8 l 3,9 -4,5 h 5 l -2,3 1,2 4,1 1,-2 h 3 l 1,4 4,2 -2,5 2,2 h 3 l 2,7 -11,1 -5,5 h -3 l -6,7 -6,4 -12,5 v 2 l -11,10 -11,6 -3,-1 -1,2 h -6 l 1,6 -41,24 -4,-2 -2,2 1,1 h -3 l 1,6 h 5 l -2,2 2,3 -3,2 -2,4 4,-1 2,3 -4,1 1,3 3,1 -1,3 3,3 1,5 4,-1 -2,5 7,10 -1,4 2,11 2,6 2,1 1,7 v 6 l -3,-2 -17,1 v 4 l 3,3 1,4 v 9 l 10,7 4,1 -1,1 5,3 6,8 2,-1 -1,5 10,1 1,2 -5,4 -2,5 v 9 l -4,2 -2,3 1,7 -5,3 -4,-2 v 6 l 2,1 -4,10 -2,-1 -4,8 v 3 l 2,2 -2,4 -2,-1 2,6 3,-2 1,3 -2,7 3,2 12,-5 4,1 1,3 7,3 v 6 l 7,-3 2,2 -1,3 2,2 -4,4 4,3 -1,3 h -2 l 2,8 -1,7 3,-1 1,3 -4,2 1,4 4,3 -2,14 4,-1 -9,14 h -5 l 1,5 h -3 l -2,2 2,2 -5,4 -6,9 v 2 l 2,1 h 9 l 7,16 4,-4 6,-1 2,-3 -1,-3 3,-10 8,-8 -2,-5 6,-6 -1,-3 7,-2 1,-7 4,-6 2,3 8,-5 10,-2 2,-5 v -7 l 3,-3 2,3 3,-3 1,2 h 7 l 4,-4 -4,-1 4,-6 -3,-1 1,-1 3,3 2,-3 -2,-8 7,4 4,-4 v -4 l 2,-2 h -7 l 3,-5 9,-1 2,3 3,-1 7,-15 6,-1 2,-2 2,-10 7,-10 5,3 -3,7 -2,1 -1,10 5,1 -1,3 2,3 h 6 l 3,-4 5,1 v -3 l 3,-4 h 5 v 2 l 4,3 v 4 l 11,1 1,4 8,2 3,4 h 2 l 1,-2 h 7 v 3 l 5,-2 v 3 l 4,2 2,-2 6,7 v 3 l 2,1 3,-2 2,3 5,1 3,-5 3,-2 4,1 3,-4 5,4 9,-6 3,2 6,-5 3,-6 5,2 4,-3 h 4 l 1,3 3,-2 2,1 v 2 l 4,2 7,-3 1,-3 -2,-4 -3,-1 2,-3 -3,-2 -1,-4 10,-6 h 4 l 4,-4 -2,-3 -3,-1 -1,-3 h -2 l -3,-6 1,-3 3,-1 1,-4 3,1 4,-9 -1,-1 4,-4 1,-4 -7,-15 1,-5 -4,-3 4,-4 -2,-4 -3,-1 -3,2 1,5 -4,-1 -7,3 -12,-4 -1,-3 1,-3 4,-3 -3,-9 8,-1 9,-8 v -6 l -6,-3 3,-2 1,-7 2,-1 -3,-1 1,-3 -2,-6 2,-2 -2,-1 2,-4 h 11 l 4,-7 -6,-5 -1,1 v -6 l 2,-2 6,3 4,-3 1,-2 -2,-2 2,-5 -5,-4 -3,8 -8,-5 1,-2 -13,-10 v -2 l -7,-2 -4,2 -4,-3 h -4 v -2 l -3,-3 -20,-11 v -12 l -10,-4 -4,4 h -5 l -5,-8 4,-9 3,-1 -2,-5 1,-5 2,-3 4,-2 5,-7 3,-9 v -6 l -6,-5 -1,-3 h -3 l -6,-7 3,-5 1,-6 -7,-6 v -3 l 7,-9 4,1 7,-8 3,1 2,-3 h 3 l 1,-3 2,1 1,-3 3,1 1,-3 6,1 2,-6 -1,-3 h 2 l 1,-3 5,-3 h 5 l 1,8 -2,3 5,1 1,3 5,-7 9,-5 h 4 l 2,-4 h -9 l 1,-3 -4,-1 -1,-5 -4,1 -1,-5 3,-1 -2,-3 -5,1 -3,-5 -3,-1 3,-2 v -2 l -10,-6 v -10 l -3,-2 -2,4 -3,2 -4,-5 h 3 l -2,-4 -3,-1 3,-5 -3,-2 -3,-6 4,-4 v -4 h 3 l -2,-6 2,-2 3,1 2,-2 -3,-4 2,-3 -2,-4 v -5 l 3,-2 -5,-8 5,-5 -1,-2 -4,-1 v -4 l 4,-3 -1,-4 -3,-2 1,-4 h 3 l 1,-3 -5,-4 -1,-3 h -4 l -3,-3 -2,-6 2,-3 3,-1 z"
     id="沈阳市" />
  <path
     stroke="#ffff00"
     stroke-opacity="1"
     stroke-width="0.5"
     stroke-linecap="round"
     stroke-linejoin="round"
     stroke-dasharray="none"
     fill="#1e90ff"
     fill-opacity="1"
     fill-rule="evenodd"
     d="m 953,1054 -1,-14 -3,-2 -1,-3 1,-5 -1,-3 -6,-5 -1,-5 5,-5 -6,-9 -3,-2 -5,2 -8,-4.00004 -2,3.00004 v -3.00004 h -2 l 1,-6 h -3 l -2,-6 7,-3 v -10 l -3,-1 -3,3 -5,1 -5,-6 -6,-2 h -5 v 3 h -4 l -4,-8 -6,1 -13,-9 -5,-2 -2,1 -8,-4 -4,5 -4,-4 -6,7 -2,5 -5,-7 h -6 v -3 l -5,-1 -4,-3 -3,-7 1,-5 h -5 l -2,-2 -4,-7 -2,-10 -3,-3 h -6 l -3,-2 1,-6 -12,19 3,5 -2,4 -7,1 -3,6 -12,-3 -8,6 -7,9 -3,-1 -10,3 -2,-2 -5,2 -3,-1 -3,4 -8,-1 -1,2 -8,-4 -3,4 2,6 4,2 -2,4 -4,-1 -2,6 6,3 -1,6 3,-1 1,2 -2,5 3,3 -2,2 -6,-1 -5,4.00004 1,3 -3,-2 -1,-3.00004 -5,-1 -16,-11 -11,2 -4,-1 -4,-5 h -4 l -6,1 -5,4 -6,-7 v -6 l -5,-5 -6,7 -5,1 -6,-10 -5,-3 -4,2 -4,-4 -9,1 -5,-9 -3,1 -2,-2 -11,6 h -4 l -3,-3 v -6 l 2,-4 -5,-9 -4,-4 -8,11 -3,8 -8,7 h -4 l -2,3 -9,2 1,4 -8,9 -1,10 -3,9 -4,3 -16,-2 -10,11.00004 -7,1 -2,7 -10,5 -4,1 -5,-3 h -4 l -2,7 -9,11 -5,2 -1,2 4,10 v 6 l -7,4 v 3 l 11,12 -2,5 1,4 -4,6 -10,1 v 4 l 3,3 -2,3 -7,1 -12,5 -5,-1 -8,3 -7,-1 -5,2 -13,14 v 14 l 6,5 2,5 2,1 5,-9 2,5 3,2 -1,4 -14,6 3,7 3,1 -1,2 h -4 l -1,3 3,3 -4,5 1,2 3,4 h 4 l 9,-5 2,1 2,6 6,-2 15,5 4,-2 3,3 1,10 6,1 2,2 -1,6 3,2 2,4 4,1 2,-4 2,2 10,-8 2,-4 15,-1 4,-4 13,-3 8,-7 h 2 l -4,8 2,4 v 5 l -4,-3 -8,4 -2,5 2,3 4,-1 v 3 l -5,2 -3,-2 -3,1 -4,-2 -2,3 -5,-1 -3,4 1,6 4,-2 3,4 h 5 l -1,3 -3,-1 2,4 -10,-1 -1,4 3,2 -4,6 5,9 h 9 l 3,3 v 3 l 3,1 2,6 3,2 -7,8 -5,3 v 3 h -6 l -1,2 -1,-3 10,-10 v -3 l -12,-11 h -2 l -7,8 10,10 v 2 l -4,5 -5,2 -15,13 -9,3 -3,-3 -8,2 -3,-1 -9,-11 h -2 l -2,5 -4,1 -2,2 v 3 l -5,5 h -2 l 1,4 5,1 v 7 l -7,3 -3,-2 -6,1 -4,4 -6,1 -4,6 h -5 l -2,-4 -4,-3 -14,1 -9,10 -1,7 2,4 8,2 v 4 l -3,3 -1,5 4,20 -4,3 v 2 l 4,7 2,10 12,2 5,-1 4,-4 2,-7 9,-10 12,-1 5,-4 1,-4 3,-2 5,-1 18,4 15,-4 2,3 4,-2 4,-7 4,-2 2,-6 3,-1 1,-3 11,2 2,3 h 16 l 2,-4 2,3 4,-3 4,-10 -1,-5 -9,-3 -2,-4 -7,-2 -6,3 -2,-1 v -3 l 4,-1 v -2 h 4 l 7,-10 -1,-3 -4,-1 3,-3 7,1 3,2 h 7 l 6,-2 1,-2 -2,-4 2,-1 7,2 4,11 v 6 l 7,7 8,2 12,-7 2,-2 -4,-2 1,-7 -13,-10 -1,-3 13,3 3,4 4,-3 -3,-7 -3,-1 v -2 h 4 l 10,8 h 3 l 6,-13 6,-1 11,4 3,-1 -7,-12 1,-3 h 8 l 12,-12 11,-2 -1,-3 -11,-4 v -9 l -2,-5 7,-2 4,-6 24,-12 5,-14 5,-7 4,2 v -5 l 9,-2 5,-4 2,-5 8,-4 3,-7 h 10 l 1,3 11,1 9,-7 18,-19 9,-3 3,-10 3,-2 6,3 32,-15 1,-1 -3,-4 3,-2 2,5 5,-2 2,-3 -1,-4 4,-4 h 21 l 2,3 h 6 l 2,-2 v -5 l 6,-7 5,-2 -3,-2 v -2 l 4,-1 2,4 3,1 v -3 l -3,-3 4,-2 1,2 2,-2 h 4 l 3,3 v -2 l 3,1 v -4 l 2,-1 6,6 1,4 4,-1 1,-5 3,-3 12,2 3,-3 -2,-7 2,-1 7,2 h 8 l 1,-3 -4,-4 1,-5 -8,-5 1,-1 h 3 l 4,3 2,-1 -2,-4 4,-2 2,2 11,-1 1,2 11,1 1,8 15,-3 2,-4 h 4 l 2,-5 1,-1 2,2 3,-2 v -2 z m -245,166 3,2 -1,2 2,2 2,-2 -1,-3 16,2 4,3 6,-4 -10,-4 -2,-3 h -3 l -1,3 -8,1 -5,-2 -4,-5 -1,4 -2,-1 v -5 l -2,-1 -4,3 -2,-2 -1,2 -4,-1 3,4 6,1 6,4 z m -47,25 3,-5 1,1 2,-2 -8,2 v 2 l -9,1 1,2 -3,3 -5,1 2,2 -1,6 3,1 2,4 h 3 l 3,-3 v -6 l 5,-1 4,4 2,-1 -3,-2 -2,-6 z m 66,-9 7,-3 9,1 -1,5 -2,2 1,2 5,-4 2,1 1,-4 3,1 4,-4 -3,-1 v -3 l -13,2 -10,-1 -5,1 -1,3 z m 31,69 -1,-2 h -2 v -4 h -5 l -2,-4 -2,2 -3,-1 7,11 2,-1 5,2 z m -87,-52 -3,-2 -3,1 6,2 z m -154,100 1,3 3,-3 -2,-3 2,-4 -3,-1 -1,3 2,2 h -3 z m 152,-117 h 9 l -4,-4 z m 2,-15 6,6 2,-2 -5,-3 z m 154,-92 -10,-2 -1,-3 -5,3 -4,11 7,1 v 6 l 6,1 11,-12 z m -184,116 1,-2 -3,1 z m -3,-26 -3,-1 v 2 l 3,3 2,-3 z m 198,-70 1,-7 h -3 l 1,5 z m -120,94 3,-3 v -4 l -3,1 -3,4 z m -22,-6 h 6 l 3,-2 -1,-3 -3,1 -8,-2 -3,3 3,3 z m 80,55 -2,4 2,1 4,-2 -1,-2 z m -4,-8 h -2 l 1,3 3,1 1,-2 z m -251,54 1,2 1,-2 z m 267,-45 2,-4 h -4 l -3,-2 3,7 2,1 z m -359,-44 v -3 l -4,-3 h -4 l 4,1 z m 415,-80 v -4 l 4,-1 -4,-3 -9,-2 1,4 3,4 h 2 v 2 z m -411,78 3,-3 -1,-2 -3,1 z m 331,-13 -2,1 3,3 4,-2 2,1 1,-2 h -4 z m 1,51 2,3 3,-1 -3,-2 z m 98,18 11,-11 -1,-7 -4,-2 1,-4 -4,-2 -1,1 2,4 -8,-1 -2,4 3,5 -2,8 3,4 z m -41,-75 3,-2 v -2 l -7,1 1,3 z m -474,55 4,-1 -2,-3 -3,2 z m 304,-87 -5,1 -1,5 3,1 5,-2 v -6 z m -352,128 3,5 v -4 z"
     id="大连市" />
  <path
     stroke="#ffff00"
     stroke-opacity="1"
     stroke-width="0.5"
     stroke-linecap="round"
     stroke-linejoin="round"
     stroke-dasharray="none"
     fill="#1e90ff"
     fill-opacity="1"
     fill-rule="evenodd"
     d="m 957,697.99996 -24,8 -8,-1 -2,1 -2,6 -5,3 h -5 l -4,2 -7,-1 -18,14 h -8 l -9,7 -7,-5 -4,4 -1,-4 -8,-5 -7,-10 1,-7 8,-10 -6,-5 h -8 v -17 l 6,-4 -4,-9 7,-2 2,-2 -3,-9 1,-5 10,-5 6,2 7,-2 4,1 -1,-3 6,-7 -3,-5 1,-3 8,-3 -2,-3 1,-3 -5,-4 v -7 l -2,1 -5,-3 -3,2 h -3 l -2,-2 -2,1 v -11 l -2,-1 3,-6 -3,-1 -2,-6 -3,-1 v -2 l -5,2 -9,-2 -2,-3 1,-2 -6,-3 h -4 l -4,6 -4,1 -1,-5 h -3 l -3,3 h -14 l -6,9 -3,-1 -2,2 2,2 -7,10 2,5 -4,3 -2,8 -8,-4 v -2 l -2,1 -2,-2 -2,1 -19,-5 -4,-3 1,-2 -3,-4 -10,-5 -11,-8 1,-3 -2,-3 5,-2 2,1 -7,-16 -11,-1 6,-11 5,-4 -2,-2 2,-2 h 3 l -1,-5 h 5 l 9,-13 h -4 l 2,-14 -4,-3 -1,-4 4,-2 -1,-3 -3,1 1,-7 -2,-8 h 2 l 1,-3 -4,-3 4,-4 -2,-2 1,-3 -2,-2 -6,3 -1,-6 -4,-1 -3,-2 -1,-3 -4,-1 -12,5 -3,-2 2,-7 -1,-3 -12,8 -24,2 -7,6 -8,4 -4,-1 -18,11 -6,12 2,3 v 4 l 12,19 9,7 v 6 l -2,3 1,3 -3,4 v 5 l -3,5 -1,12 -1,2 -10,5 5,7 7,3 3,-1 3,4 7,-2 h 9 l 4,-3 -3,-2 5,-1 12,-15 4,3 v -4 l 9,2 1,-3 7,2 -7,6 -4,6 -8,1 -4,6 h -4 l -5,6 2,5 3,1 v 9 l 3,5 v 6 l 5,6 v 9 l -2,7 4,8 -3,7 -2,1 -2,-3 -2,1 v 3 l -8,-5 -4,5 1,3 4,-3 1,1 -7,6 -3,-1 v 2 l 6,3 -3,5 1,5 h -6 l 2,3 -1,3 3,1 5,-4 2,3 h 4 v -4 l 2,-2 2,1 10,-3 2,-3 13,2 4,2 -3,10 v 6 l 2,1 v 2 l -5,7 9,2 -1,3 3,1 -1,3 5,3 -1,6 -5,11 13,3 4,3 h 14 l 3,3 v 10 l -3,5 -4,3 v 6 l 4,2 v 2 l 3,-3 6,-1 -5,8 v 3 h -2 l 2,3 -2,6 -5,1 6,5 v 3 h 3 v -3 l 11,-2 4,5 3,1 3,-1 7,3 7,-1 3,3 5,11 9,3 13,-3 6,3 3,4 5,3 8,11 -3,4 1,12 -5,4 h -7 l -2,2 -2,18 1,4 -4,5 -7,4 -2,4 -2,16 6,14 -2,10 3,2 h 6 l 3,3 2,10 4,7 2,2 h 5 l -1,5 3,7 4,3 5,1 v 3 h 6 l 5,7 2,-5 6,-7 4,4 4,-5 2,2 13,3 13,9 6,-1 4,8 h 4 v -3 h 5 l 6,2 5,6 5,-1 3,-3 3,1 5,-7 7,-2 7,2 -1,-2 h -2 l -2,-7 3,6 4,-4 -2,-7 10,-6 -1,-1 4,-3 h 9 l 1,-4 h 2 l 4,-5 4,-13 -1,-1 -5,2 -5,-8 9,-18 h 4 l 6,-8 3,2 7,-6 1,-4 8,-4 v -8 l 2,-6 9,-14 2,-6 -3,-5 5,-9 v -5 l -3,-4 3,-10 -8,-3 v -23 l -5,-6 8,-6 -5,-13 -5,-2 -4,-4 -18,-9 -11,3 v -7 l -6,-2 v -3 l -2,-1 4,-14 4,-1 1,-3 -1,-4 -9,-11 z"
     id="鞍山市" />
  <path
     stroke="#ffff00"
     stroke-opacity="1"
     stroke-width="0.5"
     stroke-linecap="round"
     stroke-linejoin="round"
     stroke-dasharray="none"
     fill="#1e90ff"
     fill-opacity="1"
     fill-rule="evenodd"
     d="m 1012,457.99996 9,-5 v 10 l 2,2 h 4 l 14,-6 v -9 l 2,-4 14,-2 3,7 6,-3 7,-1 17,10 12,-2 4,11 14,-6 3,-5 6,1 7,-5 7,3 7,-1 4,2 2,7 3,3 -2,1 v 3 l 5,3 v 3 l 3,2 h 7 l 4,4 -10,11 v 10 l 6,8 5,2 1,9 5,2 3,9 4,3 7,-1 -2,-4 1,-4 6,-2 4,1 4,5 6,2 7,9 9,7 8,1 2,6 3,2 6,-9 9,1 13,-4 10,-8 9,-4 1,-4 8,-2 v -7 l -2,-5 1,-2 -3,-2 v -8 l 2,-1 -3,-7 3,-2 v -6 h 5 l 1,-5 -2,-4 5,-1 6,-9 5,-2 4,-5 3,6 8,2 15,8 2,-1 1,-6 h 6 l 8,-3 12,6 1,-3 7,-3 2,7 3,1 7,-3 3,-6 5,4 11,-1 2,-5 10,-10 3,-8 5,5 5,1 2,-2 h 6 l 4,-10 -3,-4 -1,-7 1,-4 4,-3 v -2 l -3,-2 -2,-10 -5,-1 -5,-5 -9,2 -3,3 -4,-1 -1,2 -5,1 -2,-2 4,-14 v -12 l 3,-3 -6,-4 -1,-7 -3,-3 -3,-8 -1,-8 3,-7 -2,-3 v -4 l 2,-3 1,-10 12,-1 -1,-3 -8,-3 -2,-3 -5,-2 2,-5 5,-1 5,-4 1,-4 3,1 4,-2 -1,-5 10,-11 1,-4 3,-2 1,-8 -2,-1 -1,-3 9,1 11,-13 -8,-9 -3,3 h -4 l -6,-2 -10,-8 -4,1 v 8 l 2,1 -1,2 -7,2 -6,-2 3,-17 -5,7 -4,2 -1,-2 3,-2 1,-4 3,-3 v -3 l -2,1 4,-4 -9,-4 3,-6 -4,-7 6,-7 -9,-6 v -3 l -2,2 -4,-1 -7,4 -10,-4 2,-6 -1,-7 -3,-1 9,-5 -1,-4 -3,-2 3,-9 -3,-2 -1,-6 -11,-5 3,-2 v -3 l -4,-4 -9,-2 -6,4 1,3 -12,7 2,8 -1,3 -9,1 -1,4 2,5 -4,2 -2,-3 -2,4 -5,-1 1,-4 -4,-6 -4,-1 -1,2 h -8 l -2,-4 h -6 l -11,-3 v 2 l -5,-1 -7,5 -1,3 2,4 2,-1 1,6 2,2 -3,7 -3,1 -3,-2 -3,2 h -5 l -1,4 h -4 l -4,3 h -12 l -6,-4 2,-6 -15,-2 -2,3 2,8 -3,6 -1,7 -11,16 3,12 4,9 4,4 v 3 l -5,9 2,4 -7,11 -19,7 -10,8 -11,4 1,3 -7,5 -1,-3 -7,1 -4,3 h -4 l 1,-7 -2,-6 -2,-1 -1,-6 -3,-1 -5,3 -15,1 -9,-4 -12,-2 -7,3 -7,6 -1,10 -3,2 -18,2 -3,-1 2,-3 -3,-2 -3,2 -6,-5 h -6 l -10,3 -7,5 -10,14 h -11 l -2,4 2,1 -2,2 2,6 -1,3 3,1 -2,1 -1,7 -3,2 6,3 v 6 l -9,8 -8,1 3,9 -5,6 1,3 12,4 7,-3 4,1 -1,-5 3,-2 3,1 2,4 -4,4 4,3 -1,5 7,15 -1,4 -4,4 1,1 -4,9 -3,-1 -1,4 -3,1 -1,3 3,6 h 2 l 1,3 3,1 2,3 -4,4 h -4 l -10,6 1,4 3,2 -2,3 3,1 z"
     id="抚顺市" />
  <path
     stroke="#ffff00"
     stroke-opacity="1"
     stroke-width="0.5"
     stroke-linecap="round"
     stroke-linejoin="round"
     stroke-dasharray="none"
     fill="#1e90ff"
     fill-opacity="1"
     fill-rule="evenodd"
     d="m 972,469.99996 2,2 2,7 9,3 2,3 v 4 l -5,7 v 4 l 5,6 v 12 l 2,3 -1,6 2,1 -2,9 4,13 -13,5 -1,-3 -5,7 3,5 -3,4 6,2 1,4 3,3 1,7 6,7 -3,9 2,9 3,5 5,4 -1,4 -7,3 v 8 h -2 l -1,3 2,12 -2,3 3,4 -3,7 -4,3 -3,9 -3,2 -1,6 -6,5 11,2 10,9 6,-3 2,7 10,-6 1,-5 2,-2 6,1 1,-2 5,2 3,-3 3,1 3,-2 2,3 h 5 l 5,4 h 6 v 3 l 5,-1 4,3 6,-7 5,-2 2,-5 9,3 4,-2 13,1 3,1 v 3 l 2,1 8,-2 3,-3 -1,-6 2,-3 -4,-7 v -6 l 4,-11 -5,-3 -1,-6 -8,-17 7,-2 v -2 l 6,-3 10,10 7,-7 1,2 4,-1 2,-3 v -10 l 5,-6 3,-1 7,2 v 14 h 4 l 7,-6 5,2 4,5 8,-7 4,-1 23,9 2,-4 6,-5 v -5 l 7,-3 4,-1 8,4 5,-2 1,-2 3,4 6,-2 v -6 l 2,-4 h 6 l 4,-3 4,-7 4,1 4,5 7,1 5,-3 11,2 9,5 15,3 3,-1 5,2 4,4 h 3 l 2,-4 9,-2 9,7 5,2 17,-6 7,2 5,-4 h 4 l 8,6 3,-1 6,4 5,11 -1,3 h 3 l 2,3 h 4 l 2,2 -3,2 -1,5 2,1 1,3 h 10 l -1,-5 2,-1 10,2 v -5 l 2,-2 4,2 1,3 1,8 -2,8 2,3 8,3 2,-2 -4,-6 1,-2 2,-2 8,1 -2,9 -6,7 5,9 h 7 l 2,-5 4,-2 4,5 2,-2 -1,-3 6,-3 h 6 l 3,-9 4,-3 3,1 2,-4 v -11 l 11,-13 4,-12 -7,-2 v -3 l 5,-7 h 4 l 2,-2 2,-6 7,-6 -2,-2 -2,1 -10,-3 -1,-6 6,-12 -2,-5 h -14 l -3,-10 -2,-1 -7,5 -2,-7 1,-4 -6,-8 3,-1 2,-3 -1,-5 -4,-6 -3,-1 -5,2 -3,-3 2,-4 -1,-5 -9,-3 v -6 h -2 l -1,-3 1,-14 -2,-3 h -4 v -4 l -6,-7 4,-8 -4,-1 -4,-4 v -4 l -4,-3 -3,6 h -6 l -2,2 -5,-1 -5,-5 -3,8 -10,10 -2,5 -11,1 -5,-4 -3,6 -7,3 -3,-1 -2,-7 -7,3 -1,3 -12,-6 -8,3 h -6 l -1,6 -2,1 -15,-8 -8,-2 -3,-6 -4,5 -5,2 -6,9 -5,1 2,4 -1,5 h -5 v 6 l -3,2 3,7 -2,1 v 8 l 3,2 -1,2 2,5 v 7 l -8,2 -1,4 -9,4 -10,8 -13,4 -9,-1 -6,9 -3,-2 -2,-6 -8,-1 -9,-7 -7,-9 -6,-2 -4,-5 -4,-1 -6,2 v 9 h -6 l -4,-3 -3,-9 -5,-2 -1,-9 -5,-2 -6,-8 v -10 l 10,-11 -4,-4 h -7 l -3,-2 v -3 l -5,-3 v -3 l 2,-1 -3,-3 -2,-7 -4,-2 -7,1 -7,-3 -7,5 -6,-1 -3,5 -14,6 -4,-11 -12,2 -17,-10 -7,1 -6,3 -3,-7 -14,2 -2,4 v 9 l -14,6 h -4 l -2,-2 v -10 l -9,5 -1,3 -7,3 -4,-2 v -2 l -2,-1 -3,2 -1,-3 h -4 l -4,3 -5,-2 -3,6 -3,2 z"
     id="本溪市" />
  <path
     stroke="#ffff00"
     stroke-opacity="1"
     stroke-width="0.5"
     stroke-linecap="round"
     stroke-linejoin="round"
     stroke-dasharray="none"
     fill="#1e90ff"
     fill-opacity="1"
     fill-rule="evenodd"
     d="m 953,1054 4,-1 v -5 l 2,1 1,10 5,-2 3,-6 2,3 7,-1 8,-7 v -9 l 4,-3 1,2 h 3 l 3,6 28,-5 4,-3 16,3 18,1 6,4 9,2 26,-7 1,1 -3,9 1,5 12,11 h 2 l 3,-11 2,-21 11,-8 v -9 l 3,-8 4,-4 7,-3.00004 4,1 3,-5 h -2 v -5 l 2,-2 h 5 l 3,-4 6,-3 v 6 l 4,-10 1,-7 -2,-6 -5,-1 -2,-2 v -4 l 4,-8 10,-10 4,-7 6,-3 7,-11 9,-2 6,-13 3,-1 v -2 l 6,-3 19,-17 7,-2 20,-10 3,-16 32,-23 11,-15 2,1 v 5 l 2,3 5,1 12,-7 6,2 4,-2 v 4 l 5,-1 -1,-6 h -3 v -3 l -3,1 -4,-2 v -6 l 4,-8 15,-8 9,-3 20,-15 6,-2 h 13 l 4,-12 7,-2 6,6 h 3 l 9,-5 8,9 4,-1 v -5 l -2,-4 1,-4 9,-1 2,-10 5,-6 4,-2 10,1 3,-2 1,-10 9,-9 h 3 v 4 l 2,3 3,1 10,-2 6,1 2,-3 -3,-4 -9,-3 -1,-4 3,-6 7,-3 4,-5 -1,-2 3,-1 2,-3 -3,-8 -10,-8 -2,2 -10,2 -6,4 -2,-3 2,-6 -4,-5 -4,2 -2,5 h -7 l -5,-9 6,-7 2,-9 -8,-1 -2,2 -1,2 4,6 -2,2 -8,-3 -2,-3 2,-8 -1,-8 -1,-3 -4,-2 -2,2 v 5 l -10,-2 -2,1 1,5 h -10 l -1,-3 -2,-1 1,-5 3,-2 -2,-2 h -4 l -2,-3 h -3 l 1,-3 -5,-11 -6,-4 -3,1 -8,-6 h -4 l -5,4 -7,-2 -17,6 -5,-2 -9,-7 -9,2 -2,4 h -3 l -4,-4 -5,-2 -3,1 -15,-3 -9,-5 -11,-2 -5,3 -7,-1 -4,-5 -4,-1 -4,7 -4,3 h -6 l -2,4 v 6 l -6,2 -3,-4 -1,2 -5,2 -8,-4 -4,1 -7,3 v 5 l -6,5 -2,4 -23,-9 -4,1 -8,7 -4,-5 -5,-2 -7,6 h -4 v -14 l -7,-2 -3,1 -5,6 v 10 l -2,3 -4,1 -1,-2 -7,7 -10,-10 -6,3 v 2 l -7,2 8,17 1,6 5,3 -4,11 v 6 l 4,5 -2,5 1,6 -3,3 -8,2 -2,-1 v -3 l -3,-1 -13,-1 -4,2 -9,-3 -2,5 -5,2 -6,7 -4,-3 -5,1 v -3 h -6 l -5,-4 h -5 l -2,-3 -3,2 -3,-1 -3,3 -5,-2 -1,2 -6,-1 -2,2 -1,5 -10,6 -2,-7 -6,3 -10,-9 -21,-3 -2,12 12,13 1,4 -1,3 -4,1 -2,6 -2,8 2,1 v 3 l 6,2 v 7 l 11,-3 27,15 5,13 -8,6 5,6 v 23 l 8,3 -3,10 3,4 v 5 l -5,9 3,5 -2,6 -9,14 -2,6 v 8 l -8,4 -1,4 -7,6 -3,-2 -6,8 h -4 l -9,18 5,8 5,-2 1,1 -4,13 -4,5 h -2 l -1,4 h -9 l -4,3 1,1 -10,6 2,7 -4,4 -3,-6 2,7 h 2 l 1,2 -7,-2 -7,2 -5,7 v 10 l -7,3 2,6 h 3 l -1,6 h 2 V 1002 l 2,-3.00004 8,4.00004 5,-2 3,2 6,9 -5,5 1,5 6,5 v 8 l 1,3 3,2 1,5 z m 79,-5 v -3 l -5,1 z m -28,14 9,-1 1,-2 -2,-3 -5,-1 -5,6 z m 282,-222.00004 4,-4 -8,6 z"
     id="丹东市" />
  <path
     stroke="#ffff00"
     stroke-opacity="1"
     stroke-width="0.5"
     stroke-linecap="round"
     stroke-linejoin="round"
     stroke-dasharray="none"
     fill="#1e90ff"
     fill-opacity="1"
     fill-rule="evenodd"
     d="m 447,689.99996 11,-16 8,-4 6,-15 3,-2 1,-9 2,-2 v -6 l -3,-9 v -5 l -4,-4 h 5 l 3,-8 -1,-2 5,-2 -1,1 15,3 3,-1 1,-5 -6,-4 1,2 -13,1 -3,2 -18,-1 -7,-2 -5,-9 1,-4 8,-12 h 4 l 1,-9 -7,-1 -3,-2 v -11 l 31,-23 h 4 l 3,-5 5,-2 3,2 6,-1 5,-5 11,-2 6,4 v 4 l 4,3 5,-5 v -6 l 4,-4 7,-1 3,-6 h 14 l 4,5 h 3 l 8,-6 2,1 2,-3 h 2 l 13,-10 -2,-2 11,-8 1,1 8,-12 18,-11 4,1 18,-11 21,-1 9,-6 -2,-6 2,1 2,-4 -2,-2 v -3 l 4,-8 2,1 4,-10 -2,-1 v -6 l 4,2 5,-3 -1,-7 2,-3 4,-2 v -9 l 2,-5 5,-4 -1,-2 -10,-1 1,-5 -2,1 -3,-5 -8,-6 1,-1 -4,-1 -10,-7 v -9 l -1,-4 -3,-3 v -4 l 17,-1 3,2 v -6 l -1,-7 -2,-1 -2,-6 -2,-11 1,-4 -7,-10 2,-5 -4,1 -1,-5 -3,-3 1,-3 -3,-1 -1,-3 4,-1 -2,-3 -4,1 2,-4 3,-2 -2,-3 2,-2 h -5 l -1,-2 -29,16 -5,1 -16,12 -4,-1 -4,6 h -4 l -2,2 -6,-2 -2,2 3,3 -4,-1 -2,7 -4,-1 -6,6 1,2 -4,4 h -5 v 3 l -5,5 v 3 l -2,2 -5,2 -3,-2 -2,1 v 6 l -6,6 -5,1 2,1 v 3 l -5,2 -2,-1 -3,2 1,3 -5,-1 2,2 -5,5 h -12 l -5,8 3,3 h 5 l -7,9 -3,1 -6,-6 -5,-2 -6,4 h -9 l -4,-3 -8,10 h -10 l -2,-3 -6,-1 -17,1 v 3 l -7,4 -1,7 2,8 -3,1 -3,-2 -4,4 v 6 l -5,-1 -1,-8 -4,-5 -11,-1 -5,4 h -4 l -5,-3 -2,-3 3,-1 v -8 l -8,-1 -13,-8 -2,6 2,1 -9,4 v 3 l -3,5 4,6 -3,11 2,1 -1,3 -6,2 -2,-2 -4,5 -1,-3 -2,2 -2,-1 -3,4 v 3 l -6,4 -3,7 -1,-2 -4,3 -6,-1 v -4 l -2,3 -1,-2 -2,4 -5,3 -4,-1 -4,5 -6,-2 2,12 -12,12 h -3 v 2 l -3,-1 -2,2 -2,13 2,1 -2,3 -5,-1 -1,14 2,5 -4,1 -4,-2 -2,2 v 4 l -3,3 -5,-10 -2,2 3,5 -4,4 -2,-1 -6,7 1,3 -1,3 -3,1 -1,5 1,2 -2,4 v 11 l -3,1 -1,5 8,4 1,5 -8,3 -2,3 -3,1 v 3 l 6,-1 6,4 v 5 l 2,1 2,-3 4,7 -3,4 1,3 4,1 v 4 l 8,5 h 2 l 8,-8 9,3 v 4 l -3,1 3,4 1,-1 5,2 1,-2 3,11 -1,13 3,2 h 7 l -1,2 3,2 h 4 l 7,-5 v 5 l -6,21 v 6 l 2,5 2,-3 v 3 l 2,-1 1,3 -4,2 4,2 -2,3 v 10 l -2,6 -3,1 -1,4 6,21 15,-2 -3,-6 5,-5 v -4 l 5,1 3,-11 5,-2 8,1 10,8 19,-1 14,4 24,4 1,-18 15,1 7,9 z"
     id="锦州市" />
  <path
     stroke="#ffff00"
     stroke-opacity="1"
     stroke-width="0.5"
     stroke-linecap="round"
     stroke-linejoin="round"
     stroke-dasharray="none"
     fill="#1e90ff"
     fill-opacity="1"
     fill-rule="evenodd"
     d="m 550,933.99996 4,4 5,9 -2,4 v 6 l 3,3 h 4 l 11,-6 2,2 3,-1 5,9 9,-1 4,4 4,-2 5,3 6,10 5,-1 6,-7 5,5 v 6 l 5,7 6,-4 6,-1 h 4 l 4,5 4,1 11,-2 16,11 5,1 1,3.00004 3,2 -1,-3 5,-4.00004 6,1 2,-2 -3,-3 2,-5 -1,-2 -3,1 1,-6 -6,-3 2,-6 4,1 2,-4 -4,-2 -2,-6 3,-4 8,4 1,-2 8,1 3,-4 3,1 5,-2 2,2 10,-3 3,1 7,-9 8,-6 12,3 3,-6 7,-1 2,-4 -3,-5 12,-19 1,-4 -6,-14 2,-16 2,-4 7,-4 4,-5 -1,-4 2,-18 2,-2 h 7 l 5,-4 -1,-12 3,-4 -8,-11 -5,-3 -3,-4 -6,-3 h -4 l -5,3 -13,-3 -5,-11 -3,-3 -7,1 -7,-3 -3,1 -3,-1 -4,-5 -11,2 v 3 h -3 v -3 l -6,-5 5,-1 2,-6 -2,-3 h 2 v -3 l 5,-8 -6,1 -3,3 v -2 l -4,-2 v -6 l 4,-3 3,-5 v -10 l -3,-3 h -14 l -4,-3 -13,-3 6,-11 v -6 l -5,-3 1,-3 -3,-1 1,-3 -9,-2 5,-7 v -2 l -2,-1 v -6 l 3,-10 -4,-2 -13,-2 -2,3 -10,3 -2,-1 -2,2 v 4 h -4 l -2,-3 -5,4 -1,4 -3,-1 v -4 l -3,1 -1,5 -7,9 -6,-2 -7,3 -1,3 -3,-1 -6,-7 -3,3 3,9 -1,3 -8,-3 -6,8 -7,5 -1,2 3,3 22,16 h 3 v 11 l 15,-1 2,3 v 2 l -7,5 h -3 v -2 l -7,-2 -3,-3 -2,2 -6,-5 -3,5 v 15 l -5,9 v 4 l 5,9 24,23 v 2 l -4,3 4,7 3,-1 6,2 -1,2 -3,-2 h -11 v 7 h 5 l 2,5 -5,7 -8,-2 -2,1 -1,5 3,11 -7,-2 -1,3 3,4 -7,3 -4,-6 -7,2 v 7 l 7,3 -7,8 h -2 l -3,-5 -3,-1 -10,4 v 21 l -3,5 -24,2 6,16 6,6 6,1 2,5 -4,9 -4,2 -5,-4 z"
     id="营口市" />
  <path
     stroke="#ffff00"
     stroke-opacity="1"
     stroke-width="0.5"
     stroke-linecap="round"
     stroke-linejoin="round"
     stroke-dasharray="none"
     fill="#1e90ff"
     fill-opacity="1"
     fill-rule="evenodd"
     d="m 778,44.99996 -9,-8 -2,1 -3,-7 -5,-1 -2,-3 -2,1 -4,-2 v -5 l -14,2 -7,-1 -7,4 -12,-6 -3,-7 2,-3 -3,-3 -15,-4 -19,-2 -19,3 -2,5 3,11 3,5 17,2 5,-2 v 7 l -4,2 -2,7 -10,7 v 9 h -9 l -7,4 v -3 l -19,-6 -9,-11 -6,-1 2,7 -2,10 -2,1 1,-3 -2,-1 -4,2 -9,-1 -11,-5 -2,-4 -4,2 v -4 l -3,-1 -11,8 -7,-2 -3,6 v -3 l -3,-1 -2,1 -1,4 -5,-1 -1,3 2,4 -1,2 -2,-1 -4,3 1,7 h -4 v 3 h 4 l -4,3 5,5 -3,2 1,4 -5,-2 3,4 -1,4 -4,6 -5,2 v 7 l -3,-3 -1,4 -2,1 -3,-4 -3,3 -1,8 -4,1 v -5 l -5,7 -9,3 -9,14 -6,3 h -6 l -5,-6 -2,-9 -3,2 -6,-7 -1,-3 3,-2 -1,-2 -5,2 v 2 l -3,2 -2,4 -4,-2 -6,3 -4,-3 -2,3 -7,-5 -3,4 -9,4 -3,-4 h -2 l 1,3 -9,2 1,7 -7,-3 -8,6 -4,1 -2,2 2,2 -2,2 -2,8 -4,5 -5,2 -3,-1 1,2 -9,2 -1,3 -8,5 v 6 l -9,6 v 5 h -4 l -3,7 -5,-1 -4,2 -5,8 -5,-2 -4,2 1,2 -3,2 6,4 2,4 -2,9 2,2 v 4 l 4,8 3,15 -2,3 -2,10 -6,5 2,14 -4,10 1,3 h 9 l 1,2 6,3 15,-4 8,4 5,18 21,8 1,2 1,7 -3,3 -3,10 -3,2 2,6 -3,3 13,8 8,1 v 8 l -3,1 7,6 h 4 l 5,-4 11,1 4,5 1,8 5,1 v -6 l 4,-4 3,2 3,-1 -2,-8 1,-7 7,-4 v -3 l 17,-1 6,1 2,3 h 10 l 8,-10 4,3 h 9 l 6,-4 5,2 6,6 3,-1 7,-9 h -5 l -3,-3 5,-8 h 12 l 5,-5 -2,-2 5,1 -1,-3 3,-2 2,1 5,-2 v -3 l -2,-1 5,-1 6,-6 v -6 l 2,-1 3,2 5,-2 2,-2 v -3 l 5,-5 v -3 h 5 l 4,-4 -1,-2 6,-6 4,1 2,-7 4,1 -3,-3 2,-2 6,2 2,-2 h 4 l 4,-6 4,1 16,-12 5,-1 25,-13 4,-3 v -4 h 3 l -1,-1 2,-2 4,2 41,-24 -1,-6 h 6 l 1,-2 3,1 11,-6 11,-10 v -2 l 12,-5 6,-4 6,-7 h 3 l 5,-5 11,-1 -2,-7 h -3 l -2,-2 2,-5 -4,-2 -1,-4 h -3 l -1,2 -4,-1 -1,-2 2,-3 h -5 l 4,-5 -3,-9 v -8 l 2,-3 h -2 l 4,-3 9,-2 10,1 v -7 h 2 l 1,-5 6,-5 h 3 l 5,-5 -1,-3 -11,-5 -2,-4 1,-2 -6,-4 -3,2 h -4 l -8,-8 v -6 l -13,-1 v -4 l -12,-9 5,-7 9,-6 4,3 h 5 z"
     id="阜新市" />
  <path
     stroke="#ffff00"
     stroke-opacity="1"
     stroke-width="0.5"
     stroke-linecap="round"
     stroke-linejoin="round"
     stroke-dasharray="none"
     fill="#1e90ff"
     fill-opacity="1"
     fill-rule="evenodd"
     d="m 722,570.99996 -2,-1 -5,2 2,3 -1,3 11,8 10,5 3,4 -1,2 4,3 19,5 2,-1 2,2 2,-1 v 2 l 6,4 h 2 l 2,-8 4,-3 -2,-5 7,-10 -2,-2 2,-2 3,1 6,-9 h 14 l 3,-3 h 3 l 1,5 4,-1 4,-6 h 4 l 6,3 -1,2 2,3 9,2 5,-2 v 2 l 3,1 2,6 3,1 -3,6 2,1 v 11 l 2,-1 2,2 h 3 l 3,-2 5,3 2,-1 -1,7 6,4 -1,3 2,3 -8,3 -1,3 3,5 -6,7 1,3 -4,-1 -7,2 -6,-2 -10,5 -1,5 3,9 -2,2 -7,2 4,9 -6,4 -1,5 2,4 -2,4 1,4 5,-1 9,5 -8,11 -1,7 7,10 8,5 1,4 4,-4 7,5 9,-7 h 8 l 18,-14 7,1 4,-2 h 5 l 5,-3 2,-6 2,-1 8,1 24,-8 2,-12 8,2 8,-6 1,-6 3,-2 3,-9 4,-3 3,-7 -3,-4 2,-3 -2,-12 1,-3 h 2 v -8 l 7,-3 1,-4 -5,-4 -3,-5 -2,-9 3,-9 -6,-7 -1,-7 -3,-3 -1,-4 -6,-2 3,-4 -3,-5 5,-7 1,3 13,-5 -4,-13 2,-6 v -3 l -2,-1 1,-6 -2,-3 1,-7 -1,-5 -5,-6 v -4 l 5,-7 v -4 l -2,-3 -9,-3 -2,-7 -5,-4 -9,6 -5,-4 -3,4 -4,-1 -6,7 -5,-1 -2,-3 -3,2 -2,-1 v -3 l -6,-7 -2,2 -4,-2 v -3 l -5,2 v -3 h -7 l -1,2 h -2 l -3,-4 -8,-2 -1,-4 -11,-1 v -4 l -4,-3 v -2 h -5 l -3,4 v 3 l -5,-1 -3,4 h -6 l -2,-3 1,-3 -5,-1 1,-10 2,-1 3,-7 -5,-3 -7,10 -2,9 -2,3 -6,1 -7,15 -3,1 -2,-3 -9,1 -3,5 h 7 l -2,2 v 4 l -4,4 -7,-4 2,8 -2,3 -3,-3 -1,1 3,1 -4,6 4,1 -4,4 h -7 l -1,-2 -3,3 -2,-3 -3,3 v 7 l -2,5 -10,2 -8,5 -2,-3 -4,6 -1,7 -7,2 1,3 -6,6 2,5 -8,8 -3,10 1,3 -2,3 -6,1 -1,2 z"
     id="辽阳市" />
  <path
     stroke="#ffff00"
     stroke-opacity="1"
     stroke-width="0.5"
     stroke-linecap="round"
     stroke-linejoin="round"
     stroke-dasharray="none"
     fill="#1e90ff"
     fill-opacity="1"
     fill-rule="evenodd"
     d="m 447,689.99996 1,3 -3,6 2,2 4,-3 2,-4 7,-2 h 6 l 2,4 3,1 h 9 l 3,-1 1,-3 9,-2 1,-5 3,3 1,-6 7,-6 9,-2 3,10 6,6 -2,3 2,5 9,7 13,2 2,3 v 4 l -3,7 1,15 4,10 7,3 h 12 l 7,7 4,1 8,-1 13,-6 2,-5 -1,-4 3,-5 6,5 2,-2 3,3 7,2 v 2 h 3 l 7,-5 -2,-5 -15,1 v -11 h -3 l -9,-6 -16,-13 8,-7 6,-8 8,3 1,-3 -3,-9 2,-3 7,7 3,1 1,-3 7,-3 6,2 7,-9 1,-5 3,-1 v 4 l 3,1 1,-4 -3,-1 1,-3 -2,-3 h 6 l -1,-5 3,-4 -6,-4 v -2 l 3,1 5,-3 2,-3 -1,-1 -4,3 -1,-3 4,-5 8,5 v -3 l 2,-1 2,3 2,-1 3,-7 -4,-8 2,-7 v -9 l -5,-6 v -6 l -3,-5 v -9 l -3,-1 -2,-5 5,-6 h 4 l 4,-6 8,-1 4,-6 7,-6 -7,-2 -1,3 -9,-2 v 4 l -4,-3 -12,15 -5,1 3,2 -4,3 h -9 l -7,2 -3,-4 -3,1 -7,-3 -5,-7 10,-5 1,-2 1,-12 3,-5 v -5 l 3,-4 -1,-3 2,-3 v -6 l -9,-7 -12,-19 v -4 l -2,-3 2,-3 -16,10 2,2 -13,10 h -2 l -2,3 -2,-1 -8,6 h -3 l -4,-5 h -14 l -3,6 -7,1 -4,4 v 6 l -5,5 -4,-3 v -4 l -6,-4 -11,2 -5,5 -6,1 -3,-2 -5,2 -3,5 h -4 l -31,23 v 11 l 3,2 7,1 -1,9 h -4 l -8,12 -1,4 5,9 7,2 18,1 3,-2 13,-1 -1,-2 6,4 -1,5 -3,1 -9,-1 -6,-2 1,-1 -5,2 1,2 -3,8 h -5 l 4,4 v 5 l 3,9 v 6 l -2,2 -1,9 -3,2 -6,15 -8,4 -8,13 z"
     id="盘锦市" />
  <path
     stroke="#ffff00"
     stroke-opacity="1"
     stroke-width="0.5"
     stroke-linecap="round"
     stroke-linejoin="round"
     stroke-dasharray="none"
     fill="#1e90ff"
     fill-opacity="1"
     fill-rule="evenodd"
     d="m 1023,298.99996 6,-7 7,-5 10,-3 h 6 l 6,5 3,-2 3,2 -2,3 3,1 18,-2 3,-2 1,-10 7,-6 7,-3 12,2 9,4 15,-1 5,-3 3,1 1,6 2,1 2,6 -1,7 h 4 l 4,-3 7,-1 1,3 2,-1 5,-4 -1,-3 11,-4 10,-8 19,-7 7,-11 -2,-4 5,-9 v -3 l -4,-4 -4,-9 -3,-12 11,-16 1,-7 3,-6 -2,-8 2,-3 15,2 -2,6 6,4 h 12 l 4,-3 h 4 l 1,-4 h 5 l 3,-2 3,2 3,-1 3,-7 -2,-2 -1,-6 -2,1 -2,-4 4,-6 4,-2 5,1 v -2 l 11,3 h 6 l 2,4 h 8 l 1,-2 4,1 4,6 -1,4 5,1 2,-4 2,3 4,-2 -2,-5 1,-4 9,-1 1,-3 -2,-8 12,-7 -1,-3 8,-4 -1,-5 -10,-4 6,-3 v -2 l -6,-6 3,-3 v -5 l 4,-5 -2,-7 3,-3 -2,-2 3,-2 -1,-3 -6,-2 -3,2 -2,-1 -4,3 -2,-1 v -2 l -5,-3 2,-7 -2,-3 1,-2 -5,-1 -1,-3 -6,2 v -3 l 5,-2 -3,-11 -2,-2 3,-2 2,1 2,-7 -4,-2 3,-7 -1,-3 h -2 l -1,-8 -7,-1 -5,-4 h -3 l -1,5 -4,5 h -6 l -4,-11 -1,-15 -2,-7 2,-1 -1,-5 2,-2 v -3 l 2,-1 -1,-3 2,-4 -2,-1 2,-5 -1,-3 2,-2 -2,-2 1,-4 -4,-6 h 2 l -5,-8 v -3 h 5 l -2,-2 1,-4 7,-8 -2,-9 1,-4 3,-3 v -4 l -3,-1 -2,3 -5,2 -4,-3 -5,1 v 2 l -5,-1 -4,2 v 3 l -7,8 -1,4 -4,2 -5,-1 -9,7 -3,9 1,8 -5,10 h -6 l 1,7 -8,6 -1,5 -10,12 -5,1 -2,7 -1,-2 -5,-1 -9,6 -3,4 v 8 l -4,-1 1,-9 -2,-5 -3,-1 v -4 l -2,2 -3,-2 h -12 l -1,-4 v -4 l 4,-3 2,1 3,-5 h 3 l 8,-6 -1,-7 -3,-2 -2,-4 -5,2 -10,-2 -7,-7 1,-3 8,-7 14,-18 -16,-16 -6,-2 -8,-10 -1,2 -3,-1 2,-2 -7,-7 2,-4 -1,-2 3,-4 -3,-9 -2,1 -4,-3 -3,2 -3,-1 -1,-2 h -2 l -1,-5 -4,3 -5,1 -2,-2 -1,2 -3,-4 h -6 l -1,2 -4,1 1,-6 -2,-2 2,-3 -5,-1 v -4 l -14,1 -3,3 -22,-25 -6,-3 -7,-1 1,-6 -2,-4 -7,-2 v -2 l -3,-1 -1,-4 2,-7 4,-6 -4,-2 1,-1 -3,-3 -1,1 -5,-2 -7,-6 -3,3 -4,-1 -7,4 2,3 -2,7 1,2 -10,8 v 4 l -2,1 1,2 -2,2 3,2 -3,1 2,2 v 4 l -3,3 h 7 l -3,1 1,3 h -2 v 3 l 2,2 -3,1 2,3 h 3 l -1,3 h -4 v 5 l -2,1 1,5 2,1 -2,2 -3,-2 -5,3 2,10 -2,2 3,4 -5,1 -3,3 2,6 3,1 v 4 l -4,2 v 6 l -4,7 1,5 -3,2 1,11 -9,9 v 2 l 4,3 -5,3 -1,3 -2,-2 v 6 l 2,1 -4,2 v 3 l -3,-1 1,6 -3,1 -2,3 2,6 3,3 h 4 l 1,3 5,4 -1,3 h -3 l -1,4 3,2 1,4 -4,3 v 4 l 4,1 1,2 -5,5 5,8 -3,2 v 5 l 2,4 -2,3 3,4 -2,2 -3,-1 -2,2 2,6 h -3 v 4 l -4,4 v 2 l 6,6 -3,5 3,1 2,4 h -3 l 4,5 3,-2 2,-4 3,2 v 10 l 10,6 v 2 l -3,2 3,1 3,5 5,-1 2,3 -3,1 1,5 4,-1 1,5 4,1 -1,3 h 9 l -2,4 h -4 l -9,5 -5,7 -1,-3 -5,-1 2,-3 -1,-8 h -5 l -5,3 -1,3 h -2 l 1,3 -2,6 -6,-1 -1,3 -3,-1 -1,3 -2,-1 -1,3 h -3 l -2,3 -3,-1 -7,8 -4,-1 -7,9 v 3 l 7,6 -4,11 6,7 h 3 l 1,3 3,2 3,9 -3,9 -5,7 -4,2 -2,3 -1,5 2,5 -3,1 -4,9 5,8 h 5 l 4,-4 10,4 v 12 l 20,11 3,3 v 2 h 4 l 4,3 4,-2 7,2 v 2 l 13,10 -1,2 8,5 3,-8 2,1 3,3 -2,5 2,2 -5,5 -6,-3 -2,2 v 6 l 1,-1 1,2 z"
     id="铁岭市" />
  <path
     stroke="#ffff00"
     stroke-opacity="1"
     stroke-width="0.5"
     stroke-linecap="round"
     stroke-linejoin="round"
     stroke-dasharray="none"
     fill="#1e90ff"
     fill-opacity="1"
     fill-rule="evenodd"
     d="m 311,210.99996 -5,-4 2,-2 -5,-2 h -9 v -3 l -7,-2 -1,2 -6,2 -4,-1 -2,2 3,4 -3,4 -4,-3 -8,1 -2,-2 v 7 l -2,2 -8,3 -13,-1 -4,6 -7,2 -2,4 -10,6 -6,6 -11,-5 -8,8 -4,1 -14,9 -4,4 4,5 2,-2 2,1 v 2 h -4 l 3,5 -3,3 -8,2 1,14 -4,4 h -3 l -4,3 3,4 h -6 l -7,-3 -7,6 -3,-1 1,3 -7,7 v 3 l 2,1 -3,4 -1,-2 h -4 l -2,3 3,2 -3,1 -2,-3 -1,6 -2,1 8,3 2,3 -3,2 -9,-1 -9,11 -8,2 -1,7 -15,22 4,12 -7,5 -4,6 h -7 l -9,-4 v -6 l -3,-4 7,-13 -4,-2 3,-8 v -8 l -6,4 -4,-16 -4,-4 v -7 l -4,-5 -6,-4 2,-6 -1,-9 -2,-4 -7,-5 v -9 l -4,-1 -3,-5 2,-3 -1,-2 -4,-3 v -4 l -11,-13 -1,-11 5,-12 -1,-14 -2,-2 H -7 l -1,2 h -11 l -3,-4 -3,1 v -4 l -4,3 -6,-6 h -10 l -4,-6 -3,1 -2,-8 -6,-1 v -2 l -3,2 -2,-5 -3,2 v -2 l -3,1 v -6 l 4,-4 -1,-2 3,-1 2,-3 v -8 l -7,-2 -2,1 -9,-9 -5,15 -12,6 -1,4 -15,6 h -7 l -11,11 -5,1 -2,3 v 5 l -7,8 -1,5 -2,1 3,5 7,1 3,11 5,2 -1,6 3,4 h 9 l 6,4 3,6 -2,9 1,8 -2,1 v 5 l -13,19 2,4 -2,6 4,6 -2,4 1,2 -3,5 2,6 -2,5 1,3 -3,5 1,1 -2,9 -6,8 7,7 -1,4 -3,3 h 3 l 2,5 -4,3 -1,3 3,10 v 14 l 2,-1 6,9 11,7 h 3 l 5,3 1,3 h -3 l 3,4 -2,2 -13,-1 2,10 3,2 v 3 h 3 l 3,4 v 3 l -2,-1 2,6 -1,4 -6,5 -2,9 1,4 -7,4 -10,2 v 3 l 6,4 -4,6 4,9 -2,4 -3,-1 v -5 l -4,8 -12,-1 -3,3 2,14 -4,7 h -3 l -1,4 h -2 v 7 l -10,1 -1,3 6,5 -2,7 -6,3 -8,11 h -10 l -2,2 v 12 l -2,4 -3,2 -2,-1 -6,6 v -2 h -5 l -6,-3 h -6 l -4,7 -3,2 v 5 l 4,7 16,3 2,4 -4,4 -1,6 -8,3 h -6 l -8,-3 -3,2 -3,12 h -2 l 2,8 -3,14 -2,2 v 3 l -5,2 -2,6 1,8 3,-1 1,3 3,1 v 3 h 6 l 3,2 -4,8 3,-1 12,4 1,8 6,5 1,3 h 4 l 3,3 3,-1 6,3 2,6 2,1 1,-3 7,2 5,-1 13,-9 3,1 2,5 -3,7 -7,7 3,5 1,7 6,-3 12,2 1,2 4,-7 3,-1 1,4 3,1 5,-3 v -2 l 13,-17 4,-3 h 7 l 4,-2 5,-8 2,-8 7,-7 -2,-1 3,-3 4,2 7,-4 2,-9 4,-7 -1,-6 2,-1 10,7 9,-8 8,4 5,7 3,9 4,1 1,-7 6,-6 v -3 l -5,1 v -4 l 3,-2 v -3 l 3,-4 3,1 3,-3 2,3 h 4 l 5,4 5,-8 4,-1 2,-4 -2,-15 4,-2 v 2 h 4 l 3,2 2,4 7,-1 3,2 3,-8 4,-2 1,-3 h 4 l 4,6 3,-1 7,-11 v -5 l 2,-4 4,-4 -2,-2 -1,-11 -3,-1 -1,-6 -3,-2 2,-3 6,-2 1,-2 8,-1 1,-4 h 4 l 2,3 7,2 2,4 -3,2 v 2 l 3,1 7,18 8,-7 2,10 h 3 l 2,3 v 6 l -3,1 -1,5 h -4 l -2,4 v 6 l 8,1 5,-11 5,2 4,-3 1,4 h 6 l 3,-5 v -4 h 3 l 4,-9 3,-1 1,2 1,-2 3,1 -3,1 11,8 h 2 l 3,6 h 5 l 9,-12 v -23 l 6,-7 h 5 l 3,4 5,2 2,-2 v -9 l 16,-4 1,-8 3,-5 -1,-4 1,-2 6,-3 1,-5 h 4 l 2,2 3,-1 6,-6 v 5 l 7,-1 2,-3 3,-1 5,3 2,-1 -2,-1 v -5 l -6,-4 -6,1 v -3 l 12,-7 v -5 l -8,-4 1,-5 3,-1 v -11 l 2,-4 -1,-2 1,-5 3,-1 v -6 l 6,-7 2,1 4,-4 -3,-5 2,-2 5,10 3,-3 v -4 l 2,-2 4,2 4,-1 -2,-5 1,-14 5,1 2,-3 -2,-1 2,-13 2,-2 3,1 v -2 h 3 l 12,-12 -2,-12 6,2 4,-5 4,1 5,-3 2,-4 1,2 2,-3 v 4 l 6,1 4,-3 1,2 3,-7 6,-4 v -3 l 3,-4 2,1 2,-2 1,3 4,-5 2,2 6,-2 1,-3 -2,-1 3,-11 -4,-6 3,-5 v -3 l 9,-4 -2,-1 2,-6 3,-3 -2,-6 3,-2 3,-10 3,-3 -2,-9 -21,-8 -5,-18 -8,-4 -15,4 -6,-3 -1,-2 h -9 l -1,-3 4,-10 -2,-14 6,-5 2,-10 2,-3 -3,-15 -4,-8 v -4 l -2,-2 2,-9 -2,-4 -4,-2 z"
     id="朝阳市" />
  <path
     stroke="#ffff00"
     stroke-opacity="1"
     stroke-width="0.5"
     stroke-linecap="round"
     stroke-linejoin="round"
     stroke-dasharray="none"
     fill="#1e90ff"
     fill-opacity="1"
     fill-rule="evenodd"
     d="m 312,709.99996 -6,-21 1,-4 3,-1 3,-13 -1,-3 2,-3 -4,-2 4,-2 -1,-3 -2,1 v -3 l -2,3 -2,-5 6,-32 -7,5 h -4 l -3,-2 1,-2 h -7 l -3,-2 1,-13 -3,-11 -1,2 -5,-2 -1,1 -3,-4 3,-1 v -4 l -9,-3 -8,8 -10,-5 v -4 l -4,-1 -1,-3 3,-4 -3,-7 -5,4 -5,-3 -3,1 -2,3 -7,1 v -5 l -6,6 -3,1 -2,-2 h -4 l -1,5 -6,3 -1,2 1,4 -3,5 -1,8 -16,4 v 9 l -2,2 -5,-2 -3,-4 h -5 l -6,7 v 23 l -9,12 -3,1 -2,-1 -3,-6 h -2 l -11,-8 3,-1 -3,-1 -1,2 -1,-2 -3,1 -4,9 h -3 v 4 l -3,5 h -6 l -1,-4 -4,3 -5,-2 -5,11 -8,-1 v -6 l 2,-4 h 4 l 1,-5 3,-1 v -6 l -2,-3 h -3 l -2,-10 -8,7 -7,-18 -3,-1 v -2 l 3,-2 -2,-4 -7,-2 -2,-3 h -4 l -1,4 -8,1 -1,2 -6,2 -2,3 3,2 1,6 3,1 1,11 2,2 -4,4 -2,4 v 5 l -7,11 -3,1 -4,-6 h -4 l -1,3 -4,2 -3,8 -3,-2 -7,1 -2,-4 -3,-2 H 4 v -2 l -4,2 2,11 -2,8 -4,1 -5,8 -5,-4 h -4 l -2,-3 -3,3 -3,-1 -3,4 v 3 l -3,2 v 4 l 5,-1 v 3 l -6,6 -1,7 -4,-1 -3,-9 -5,-7 -8,-4 -9,8 -6,-5 -4,-2 -2,1 1,6 -4,7 -2,9 -7,4 -4,-2 -3,3 2,1 -7,7 -2,8 -5,8 -4,2 -4,-1 -7,4 -13,17 v 2 l -5,3 -3,-1 -1,-4 -3,1 -8,13 v 3 l 9,9 12,5 16,-3 20,-1 5,2 h 8 l 3,-6 4,2 4,-3 10,6 v 5 l -5,2 -1,3 7,10 4,2 3,6 -3,7 2,9 -3,11 3,6 -1,8 5,5 2,6 5,3 2,7 -2,2 -5,14 11,-5 3,5 10,9 1,-3 h 3 v 2 l 4,-3 2,19 2,4 -7,12 9,8 -3,5 3,6 6,3 6,-4 4,1 5,6 -3,8 3,6 10,1 6,-1 5,-4 2,-4 1,-9 7,-4 14,-3 17,-6 8,2 10,-8 15,-4 13,-6 26,-16 6,-2 h 18 l 8,-10 4,-13 3,-3 -1,-16 3,-6 10,-5 8,-8 v -7 l -2,-6 5,-5 2,-13 -1,-3 6,-2 h 7 l 7,-13 7,-3 1,-9 19,-12 6,-6 3,-20 -1,-7 7,-4 5,1 17,-2 3,-3 h 4 l 3,-5 7,2 6,-1 2,-2 v -4 l -3,-7 -11,1 -2,-2 v -6 l 4,-3 -1,-6 -3,-1 -2,-3 2,-2 v -3 l 4,4 h 3 l 1,8 3,2 z m -63,108 4,-5 h 6 l 2,-2 v -6 l -3,-2 1,-2 -4,-1 v 3 l -4,1 v 5 h -3 l -2,3 v 4 z m -44,26 h 2 v -3 z"
     id="葫芦岛市" />
</svg>