<svg xmlns="http://www.w3.org/2000/svg" id="svg1" version="1.1" viewBox="-251 -228 1790 1632.1483">
  <path id="沈阳市" fill="#ff6347" fill-opacity="1" fill-rule="evenodd" stroke="#ffffff" stroke-dasharray="none" stroke-linecap="round" stroke-linejoin="round" stroke-opacity="1" stroke-width="0.5" d="m964-56-1-2-5 1-4-4-8-2-2-4-3-2-6 1-4 4h-6l-2 3-8 3-10 2-3 2-16 2-7 11-3 3-4 1-5 9 1 11-5 12v3l3 2 2-1 10 6-1 2h-10l-5 5-12 4-6 4h-3l-7 7h-7l-13-3-3 4 2 1-6 3h-2l-4-6-11 1-2 3-1 7-6 9 1 3-2-1v-3h-8l-4-3-13 10-1 3 12 9v4l13 1v6l8 8h4l3-2 6 4-1 2 2 4 11 5 1 3-5 5h-3l-6 5-1 5h-2v7l-10-1-9 2-4 3h2l-2 3v8l3 9-4 5h5l-2 3 1 2 4 1 1-2h3l1 4 4 2-2 5 2 2h3l2 7-11 1-5 5h-3l-6 7-6 4-12 5v2l-11 10-11 6-3-1-1 2h-6l1 6-41 24-4-2-2 2 1 1h-3l1 6h5l-2 2 2 3-3 2-2 4 4-1 2 3-4 1 1 3 3 1-1 3 3 3 1 5 4-1-2 5 7 10-1 4 2 11 2 6 2 1 1 7v6l-3-2-17 1v4l3 3 1 4v9l10 7 4 1-1 1 5 3 6 8 2-1-1 5 10 1 1 2-5 4-2 5v9l-4 2-2 3 1 7-5 3-4-2v6l2 1-4 10-2-1-4 8v3l2 2-2 4-2-1 2 6 3-2 1 3-2 7 3 2 12-5 4 1 1 3 7 3v6l7-3 2 2-1 3 2 2-4 4 4 3-1 3h-2l2 8-1 7 3-1 1 3-4 2 1 4 4 3-2 14 4-1-9 14h-5l1 5h-3l-2 2 2 2-5 4-6 9v2l2 1h9l7 16 4-4 6-1 2-3-1-3 3-10 8-8-2-5 6-6-1-3 7-2 1-7 4-6 2 3 8-5 10-2 2-5v-7l3-3 2 3 3-3 1 2h7l4-4-4-1 4-6-3-1 1-1 3 3 2-3-2-8 7 4 4-4v-4l2-2h-7l3-5 9-1 2 3 3-1 7-15 6-1 2-2 2-10 7-10 5 3-3 7-2 1-1 10 5 1-1 3 2 3h6l3-4 5 1v-3l3-4h5v2l4 3v4l11 1 1 4 8 2 3 4h2l1-2h7v3l5-2v3l4 2 2-2 6 7v3l2 1 3-2 2 3 5 1 3-5 3-2 4 1 3-4 5 4 9-6 3 2 6-5 3-6 5 2 4-3h4l1 3 3-2 2 1v2l4 2 7-3 1-3-2-4-3-1 2-3-3-2-1-4 10-6h4l4-4-2-3-3-1-1-3h-2l-3-6 1-3 3-1 1-4 3 1 4-9-1-1 4-4 1-4-7-15 1-5-4-3 4-4-2-4-3-1-3 2 1 5-4-1-7 3-12-4-1-3 1-3 4-3-3-9 8-1 9-8v-6l-6-3 3-2 1-7 2-1-3-1 1-3-2-6 2-2-2-1 2-4h11l4-7-6-5-1 1v-6l2-2 6 3 4-3 1-2-2-2 2-5-5-4-3 8-8-5 1-2-13-10v-2l-7-2-4 2-4-3h-4v-2l-3-3-20-11v-12l-10-4-4 4h-5l-5-8 4-9 3-1-2-5 1-5 2-3 4-2 5-7 3-9v-6l-6-5-1-3h-3l-6-7 3-5 1-6-7-6v-3l7-9 4 1 7-8 3 1 2-3h3l1-3 2 1 1-3 3 1 1-3 6 1 2-6-1-3h2l1-3 5-3h5l1 8-2 3 5 1 1 3 5-7 9-5h4l2-4h-9l1-3-4-1-1-5-4 1-1-5 3-1-2-3-5 1-3-5-3-1 3-2v-2l-10-6V60l-3-2-2 4-3 2-4-5h3l-2-4-3-1 3-5-3-2-3-6 4-4v-4h3l-2-6 2-2 3 1 2-2-3-4 2-3-2-4V8l3-2-5-8 5-5-1-2-4-1v-4l4-3-1-4-3-2 1-4h3l1-3-5-4-1-3h-4l-3-3-2-6 2-3 3-1z"/>
  <path id="大连市" fill="#ff6347" fill-opacity="1" fill-rule="evenodd" stroke="#ffffff" stroke-dasharray="none" stroke-linecap="round" stroke-linejoin="round" stroke-opacity="1" stroke-width="0.5" d="m953 1054-1-14-3-2-1-3 1-5-1-3-6-5-1-5 5-5-6-9-3-2-5 2-8-4-2 3v-3h-2l1-6h-3l-2-6 7-3v-10l-3-1-3 3-5 1-5-6-6-2h-5v3h-4l-4-8-6 1-13-9-5-2-2 1-8-4-4 5-4-4-6 7-2 5-5-7h-6v-3l-5-1-4-3-3-7 1-5h-5l-2-2-4-7-2-10-3-3h-6l-3-2 1-6-12 19 3 5-2 4-7 1-3 6-12-3-8 6-7 9-3-1-10 3-2-2-5 2-3-1-3 4-8-1-1 2-8-4-3 4 2 6 4 2-2 4-4-1-2 6 6 3-1 6 3-1 1 2-2 5 3 3-2 2-6-1-5 4 1 3-3-2-1-3-5-1-16-11-11 2-4-1-4-5h-4l-6 1-5 4-6-7v-6l-5-5-6 7-5 1-6-10-5-3-4 2-4-4-9 1-5-9-3 1-2-2-11 6h-4l-3-3v-6l2-4-5-9-4-4-8 11-3 8-8 7h-4l-2 3-9 2 1 4-8 9-1 10-3 9-4 3-16-2-10 11-7 1-2 7-10 5-4 1-5-3h-4l-2 7-9 11-5 2-1 2 4 10v6l-7 4v3l11 12-2 5 1 4-4 6-10 1v4l3 3-2 3-7 1-12 5-5-1-8 3-7-1-5 2-13 14v14l6 5 2 5 2 1 5-9 2 5 3 2-1 4-14 6 3 7 3 1-1 2h-4l-1 3 3 3-4 5 1 2 3 4h4l9-5 2 1 2 6 6-2 15 5 4-2 3 3 1 10 6 1 2 2-1 6 3 2 2 4 4 1 2-4 2 2 10-8 2-4 15-1 4-4 13-3 8-7h2l-4 8 2 4v5l-4-3-8 4-2 5 2 3 4-1v3l-5 2-3-2-3 1-4-2-2 3-5-1-3 4 1 6 4-2 3 4h5l-1 3-3-1 2 4-10-1-1 4 3 2-4 6 5 9h9l3 3v3l3 1 2 6 3 2-7 8-5 3v3h-6l-1 2-1-3 10-10v-3l-12-11h-2l-7 8 10 10v2l-4 5-5 2-15 13-9 3-3-3-8 2-3-1-9-11h-2l-2 5-4 1-2 2v3l-5 5h-2l1 4 5 1v7l-7 3-3-2-6 1-4 4-6 1-4 6h-5l-2-4-4-3-14 1-9 10-1 7 2 4 8 2v4l-3 3-1 5 4 20-4 3v2l4 7 2 10 12 2 5-1 4-4 2-7 9-10 12-1 5-4 1-4 3-2 5-1 18 4 15-4 2 3 4-2 4-7 4-2 2-6 3-1 1-3 11 2 2 3h16l2-4 2 3 4-3 4-10-1-5-9-3-2-4-7-2-6 3-2-1v-3l4-1v-2h4l7-10-1-3-4-1 3-3 7 1 3 2h7l6-2 1-2-2-4 2-1 7 2 4 11v6l7 7 8 2 12-7 2-2-4-2 1-7-13-10-1-3 13 3 3 4 4-3-3-7-3-1v-2h4l10 8h3l6-13 6-1 11 4 3-1-7-12 1-3h8l12-12 11-2-1-3-11-4v-9l-2-5 7-2 4-6 24-12 5-14 5-7 4 2v-5l9-2 5-4 2-5 8-4 3-7h10l1 3 11 1 9-7 18-19 9-3 3-10 3-2 6 3 32-15 1-1-3-4 3-2 2 5 5-2 2-3-1-4 4-4h21l2 3h6l2-2v-5l6-7 5-2-3-2v-2l4-1 2 4 3 1v-3l-3-3 4-2 1 2 2-2h4l3 3v-2l3 1v-4l2-1 6 6 1 4 4-1 1-5 3-3 12 2 3-3-2-7 2-1 7 2h8l1-3-4-4 1-5-8-5 1-1h3l4 3 2-1-2-4 4-2 2 2 11-1 1 2 11 1 1 8 15-3 2-4h4l2-5 1-1 2 2 3-2v-2zm-245 166 3 2-1 2 2 2 2-2-1-3 16 2 4 3 6-4-10-4-2-3h-3l-1 3-8 1-5-2-4-5-1 4-2-1v-5l-2-1-4 3-2-2-1 2-4-1 3 4 6 1 6 4zm-47 25 3-5 1 1 2-2-8 2v2l-9 1 1 2-3 3-5 1 2 2-1 6 3 1 2 4h3l3-3v-6l5-1 4 4 2-1-3-2-2-6zm66-9 7-3 9 1-1 5-2 2 1 2 5-4 2 1 1-4 3 1 4-4-3-1v-3l-13 2-10-1-5 1-1 3zm31 69-1-2h-2v-4h-5l-2-4-2 2-3-1 7 11 2-1 5 2zm-87-52-3-2-3 1 6 2zm-154 100 1 3 3-3-2-3 2-4-3-1-1 3 2 2h-3zm152-117h9l-4-4zm2-15 6 6 2-2-5-3zm154-92-10-2-1-3-5 3-4 11 7 1v6l6 1 11-12zm-184 116 1-2-3 1zm-3-26-3-1v2l3 3 2-3zm198-70 1-7h-3l1 5zm-120 94 3-3v-4l-3 1-3 4zm-22-6h6l3-2-1-3-3 1-8-2-3 3 3 3zm80 55-2 4 2 1 4-2-1-2zm-4-8h-2l1 3 3 1 1-2zm-251 54 1 2 1-2zm267-45 2-4h-4l-3-2 3 7 2 1zm-359-44v-3l-4-3h-4l4 1zm415-80v-4l4-1-4-3-9-2 1 4 3 4h2v2zm-411 78 3-3-1-2-3 1zm331-13-2 1 3 3 4-2 2 1 1-2h-4zm1 51 2 3 3-1-3-2zm98 18 11-11-1-7-4-2 1-4-4-2-1 1 2 4-8-1-2 4 3 5-2 8 3 4zm-41-75 3-2v-2l-7 1 1 3zm-474 55 4-1-2-3-3 2zm304-87-5 1-1 5 3 1 5-2v-6zm-352 128 3 5v-4z"/>
  <path id="鞍山市" fill="#ff6347" fill-opacity="1" fill-rule="evenodd" stroke="#ffffff" stroke-dasharray="none" stroke-linecap="round" stroke-linejoin="round" stroke-opacity="1" stroke-width="0.5" d="m957 698-24 8-8-1-2 1-2 6-5 3h-5l-4 2-7-1-18 14h-8l-9 7-7-5-4 4-1-4-8-5-7-10 1-7 8-10-6-5h-8v-17l6-4-4-9 7-2 2-2-3-9 1-5 10-5 6 2 7-2 4 1-1-3 6-7-3-5 1-3 8-3-2-3 1-3-5-4v-7l-2 1-5-3-3 2h-3l-2-2-2 1v-11l-2-1 3-6-3-1-2-6-3-1v-2l-5 2-9-2-2-3 1-2-6-3h-4l-4 6-4 1-1-5h-3l-3 3h-14l-6 9-3-1-2 2 2 2-7 10 2 5-4 3-2 8-8-4v-2l-2 1-2-2-2 1-19-5-4-3 1-2-3-4-10-5-11-8 1-3-2-3 5-2 2 1-7-16-11-1 6-11 5-4-2-2 2-2h3l-1-5h5l9-13h-4l2-14-4-3-1-4 4-2-1-3-3 1 1-7-2-8h2l1-3-4-3 4-4-2-2 1-3-2-2-6 3-1-6-4-1-3-2-1-3-4-1-12 5-3-2 2-7-1-3-12 8-24 2-7 6-8 4-4-1-18 11-6 12 2 3v4l12 19 9 7v6l-2 3 1 3-3 4v5l-3 5-1 12-1 2-10 5 5 7 7 3 3-1 3 4 7-2h9l4-3-3-2 5-1 12-15 4 3v-4l9 2 1-3 7 2-7 6-4 6-8 1-4 6h-4l-5 6 2 5 3 1v9l3 5v6l5 6v9l-2 7 4 8-3 7-2 1-2-3-2 1v3l-8-5-4 5 1 3 4-3 1 1-7 6-3-1v2l6 3-3 5 1 5h-6l2 3-1 3 3 1 5-4 2 3h4v-4l2-2 2 1 10-3 2-3 13 2 4 2-3 10v6l2 1v2l-5 7 9 2-1 3 3 1-1 3 5 3-1 6-5 11 13 3 4 3h14l3 3v10l-3 5-4 3v6l4 2v2l3-3 6-1-5 8v3h-2l2 3-2 6-5 1 6 5v3h3v-3l11-2 4 5 3 1 3-1 7 3 7-1 3 3 5 11 9 3 13-3 6 3 3 4 5 3 8 11-3 4 1 12-5 4h-7l-2 2-2 18 1 4-4 5-7 4-2 4-2 16 6 14-2 10 3 2h6l3 3 2 10 4 7 2 2h5l-1 5 3 7 4 3 5 1v3h6l5 7 2-5 6-7 4 4 4-5 2 2 13 3 13 9 6-1 4 8h4v-3h5l6 2 5 6 5-1 3-3 3 1 5-7 7-2 7 2-1-2h-2l-2-7 3 6 4-4-2-7 10-6-1-1 4-3h9l1-4h2l4-5 4-13-1-1-5 2-5-8 9-18h4l6-8 3 2 7-6 1-4 8-4v-8l2-6 9-14 2-6-3-5 5-9v-5l-3-4 3-10-8-3v-23l-5-6 8-6-5-13-5-2-4-4-18-9-11 3v-7l-6-2v-3l-2-1 4-14 4-1 1-3-1-4-9-11z"/>
  <path id="抚顺市" fill="#ff6347" fill-opacity="1" fill-rule="evenodd" stroke="#ffffff" stroke-dasharray="none" stroke-linecap="round" stroke-linejoin="round" stroke-opacity="1" stroke-width="0.5" d="m1012 458 9-5v10l2 2h4l14-6v-9l2-4 14-2 3 7 6-3 7-1 17 10 12-2 4 11 14-6 3-5 6 1 7-5 7 3 7-1 4 2 2 7 3 3-2 1v3l5 3v3l3 2h7l4 4-10 11v10l6 8 5 2 1 9 5 2 3 9 4 3 7-1-2-4 1-4 6-2 4 1 4 5 6 2 7 9 9 7 8 1 2 6 3 2 6-9 9 1 13-4 10-8 9-4 1-4 8-2v-7l-2-5 1-2-3-2v-8l2-1-3-7 3-2v-6h5l1-5-2-4 5-1 6-9 5-2 4-5 3 6 8 2 15 8 2-1 1-6h6l8-3 12 6 1-3 7-3 2 7 3 1 7-3 3-6 5 4 11-1 2-5 10-10 3-8 5 5 5 1 2-2h6l4-10-3-4-1-7 1-4 4-3v-2l-3-2-2-10-5-1-5-5-9 2-3 3-4-1-1 2-5 1-2-2 4-14v-12l3-3-6-4-1-7-3-3-3-8-1-8 3-7-2-3v-4l2-3 1-10 12-1-1-3-8-3-2-3-5-2 2-5 5-1 5-4 1-4 3 1 4-2-1-5 10-11 1-4 3-2 1-8-2-1-1-3 9 1 11-13-8-9-3 3h-4l-6-2-10-8-4 1v8l2 1-1 2-7 2-6-2 3-17-5 7-4 2-1-2 3-2 1-4 3-3v-3l-2 1 4-4-9-4 3-6-4-7 6-7-9-6v-3l-2 2-4-1-7 4-10-4 2-6-1-7-3-1 9-5-1-4-3-2 3-9-3-2-1-6-11-5 3-2v-3l-4-4-9-2-6 4 1 3-12 7 2 8-1 3-9 1-1 4 2 5-4 2-2-3-2 4-5-1 1-4-4-6-4-1-1 2h-8l-2-4h-6l-11-3v2l-5-1-7 5-1 3 2 4 2-1 1 6 2 2-3 7-3 1-3-2-3 2h-5l-1 4h-4l-4 3h-12l-6-4 2-6-15-2-2 3 2 8-3 6-1 7-11 16 3 12 4 9 4 4v3l-5 9 2 4-7 11-19 7-10 8-11 4 1 3-7 5-1-3-7 1-4 3h-4l1-7-2-6-2-1-1-6-3-1-5 3-15 1-9-4-12-2-7 3-7 6-1 10-3 2-18 2-3-1 2-3-3-2-3 2-6-5h-6l-10 3-7 5-10 14h-11l-2 4 2 1-2 2 2 6-1 3 3 1-2 1-1 7-3 2 6 3v6l-9 8-8 1 3 9-5 6 1 3 12 4 7-3 4 1-1-5 3-2 3 1 2 4-4 4 4 3-1 5 7 15-1 4-4 4 1 1-4 9-3-1-1 4-3 1-1 3 3 6h2l1 3 3 1 2 3-4 4h-4l-10 6 1 4 3 2-2 3 3 1z"/>
  <path id="本溪市" fill="#ff6347" fill-opacity="1" fill-rule="evenodd" stroke="#ffffff" stroke-dasharray="none" stroke-linecap="round" stroke-linejoin="round" stroke-opacity="1" stroke-width="0.5" d="m972 470 2 2 2 7 9 3 2 3v4l-5 7v4l5 6v12l2 3-1 6 2 1-2 9 4 13-13 5-1-3-5 7 3 5-3 4 6 2 1 4 3 3 1 7 6 7-3 9 2 9 3 5 5 4-1 4-7 3v8h-2l-1 3 2 12-2 3 3 4-3 7-4 3-3 9-3 2-1 6-6 5 11 2 10 9 6-3 2 7 10-6 1-5 2-2 6 1 1-2 5 2 3-3 3 1 3-2 2 3h5l5 4h6v3l5-1 4 3 6-7 5-2 2-5 9 3 4-2 13 1 3 1v3l2 1 8-2 3-3-1-6 2-3-4-7v-6l4-11-5-3-1-6-8-17 7-2v-2l6-3 10 10 7-7 1 2 4-1 2-3v-10l5-6 3-1 7 2v14h4l7-6 5 2 4 5 8-7 4-1 23 9 2-4 6-5v-5l7-3 4-1 8 4 5-2 1-2 3 4 6-2v-6l2-4h6l4-3 4-7 4 1 4 5 7 1 5-3 11 2 9 5 15 3 3-1 5 2 4 4h3l2-4 9-2 9 7 5 2 17-6 7 2 5-4h4l8 6 3-1 6 4 5 11-1 3h3l2 3h4l2 2-3 2-1 5 2 1 1 3h10l-1-5 2-1 10 2v-5l2-2 4 2 1 3 1 8-2 8 2 3 8 3 2-2-4-6 1-2 2-2 8 1-2 9-6 7 5 9h7l2-5 4-2 4 5 2-2-1-3 6-3h6l3-9 4-3 3 1 2-4v-11l11-13 4-12-7-2v-3l5-7h4l2-2 2-6 7-6-2-2-2 1-10-3-1-6 6-12-2-5h-14l-3-10-2-1-7 5-2-7 1-4-6-8 3-1 2-3-1-5-4-6-3-1-5 2-3-3 2-4-1-5-9-3v-6h-2l-1-3 1-14-2-3h-4v-4l-6-7 4-8-4-1-4-4v-4l-4-3-3 6h-6l-2 2-5-1-5-5-3 8-10 10-2 5-11 1-5-4-3 6-7 3-3-1-2-7-7 3-1 3-12-6-8 3h-6l-1 6-2 1-15-8-8-2-3-6-4 5-5 2-6 9-5 1 2 4-1 5h-5v6l-3 2 3 7-2 1v8l3 2-1 2 2 5v7l-8 2-1 4-9 4-10 8-13 4-9-1-6 9-3-2-2-6-8-1-9-7-7-9-6-2-4-5-4-1-6 2v9h-6l-4-3-3-9-5-2-1-9-5-2-6-8v-10l10-11-4-4h-7l-3-2v-3l-5-3v-3l2-1-3-3-2-7-4-2-7 1-7-3-7 5-6-1-3 5-14 6-4-11-12 2-17-10-7 1-6 3-3-7-14 2-2 4v9l-14 6h-4l-2-2v-10l-9 5-1 3-7 3-4-2v-2l-2-1-3 2-1-3h-4l-4 3-5-2-3 6-3 2z"/>
  <path id="丹东市" fill="#ff6347" fill-opacity="1" fill-rule="evenodd" stroke="#ffffff" stroke-dasharray="none" stroke-linecap="round" stroke-linejoin="round" stroke-opacity="1" stroke-width="0.5" d="m953 1054 4-1v-5l2 1 1 10 5-2 3-6 2 3 7-1 8-7v-9l4-3 1 2h3l3 6 28-5 4-3 16 3 18 1 6 4 9 2 26-7 1 1-3 9 1 5 12 11h2l3-11 2-21 11-8v-9l3-8 4-4 7-3 4 1 3-5h-2v-5l2-2h5l3-4 6-3v6l4-10 1-7-2-6-5-1-2-2v-4l4-8 10-10 4-7 6-3 7-11 9-2 6-13 3-1v-2l6-3 19-17 7-2 20-10 3-16 32-23 11-15 2 1v5l2 3 5 1 12-7 6 2 4-2v4l5-1-1-6h-3v-3l-3 1-4-2v-6l4-8 15-8 9-3 20-15 6-2h13l4-12 7-2 6 6h3l9-5 8 9 4-1v-5l-2-4 1-4 9-1 2-10 5-6 4-2 10 1 3-2 1-10 9-9h3v4l2 3 3 1 10-2 6 1 2-3-3-4-9-3-1-4 3-6 7-3 4-5-1-2 3-1 2-3-3-8-10-8-2 2-10 2-6 4-2-3 2-6-4-5-4 2-2 5h-7l-5-9 6-7 2-9-8-1-2 2-1 2 4 6-2 2-8-3-2-3 2-8-1-8-1-3-4-2-2 2v5l-10-2-2 1 1 5h-10l-1-3-2-1 1-5 3-2-2-2h-4l-2-3h-3l1-3-5-11-6-4-3 1-8-6h-4l-5 4-7-2-17 6-5-2-9-7-9 2-2 4h-3l-4-4-5-2-3 1-15-3-9-5-11-2-5 3-7-1-4-5-4-1-4 7-4 3h-6l-2 4v6l-6 2-3-4-1 2-5 2-8-4-4 1-7 3v5l-6 5-2 4-23-9-4 1-8 7-4-5-5-2-7 6h-4v-14l-7-2-3 1-5 6v10l-2 3-4 1-1-2-7 7-10-10-6 3v2l-7 2 8 17 1 6 5 3-4 11v6l4 5-2 5 1 6-3 3-8 2-2-1v-3l-3-1-13-1-4 2-9-3-2 5-5 2-6 7-4-3-5 1v-3h-6l-5-4h-5l-2-3-3 2-3-1-3 3-5-2-1 2-6-1-2 2-1 5-10 6-2-7-6 3-10-9-21-3-2 12 12 13 1 4-1 3-4 1-2 6-2 8 2 1v3l6 2v7l11-3 27 15 5 13-8 6 5 6v23l8 3-3 10 3 4v5l-5 9 3 5-2 6-9 14-2 6v8l-8 4-1 4-7 6-3-2-6 8h-4l-9 18 5 8 5-2 1 1-4 13-4 5h-2l-1 4h-9l-4 3 1 1-10 6 2 7-4 4-3-6 2 7h2l1 2-7-2-7 2-5 7v10l-7 3 2 6h3l-1 6h2v3l2-3 8 4 5-2 3 2 6 9-5 5 1 5 6 5v8l1 3 3 2 1 5zm79-5v-3l-5 1zm-28 14 9-1 1-2-2-3-5-1-5 6zm282-222 4-4-8 6z"/>
  <path id="锦州市" fill="#ff6347" fill-opacity="1" fill-rule="evenodd" stroke="#ffffff" stroke-dasharray="none" stroke-linecap="round" stroke-linejoin="round" stroke-opacity="1" stroke-width="0.5" d="m447 690 11-16 8-4 6-15 3-2 1-9 2-2v-6l-3-9v-5l-4-4h5l3-8-1-2 5-2-1 1 15 3 3-1 1-5-6-4 1 2-13 1-3 2-18-1-7-2-5-9 1-4 8-12h4l1-9-7-1-3-2v-11l31-23h4l3-5 5-2 3 2 6-1 5-5 11-2 6 4v4l4 3 5-5v-6l4-4 7-1 3-6h14l4 5h3l8-6 2 1 2-3h2l13-10-2-2 11-8 1 1 8-12 18-11 4 1 18-11 21-1 9-6-2-6 2 1 2-4-2-2v-3l4-8 2 1 4-10-2-1v-6l4 2 5-3-1-7 2-3 4-2v-9l2-5 5-4-1-2-10-1 1-5-2 1-3-5-8-6 1-1-4-1-10-7v-9l-1-4-3-3v-4l17-1 3 2v-6l-1-7-2-1-2-6-2-11 1-4-7-10 2-5-4 1-1-5-3-3 1-3-3-1-1-3 4-1-2-3-4 1 2-4 3-2-2-3 2-2h-5l-1-2-29 16-5 1-16 12-4-1-4 6h-4l-2 2-6-2-2 2 3 3-4-1-2 7-4-1-6 6 1 2-4 4h-5v3l-5 5v3l-2 2-5 2-3-2-2 1v6l-6 6-5 1 2 1v3l-5 2-2-1-3 2 1 3-5-1 2 2-5 5h-12l-5 8 3 3h5l-7 9-3 1-6-6-5-2-6 4h-9l-4-3-8 10h-10l-2-3-6-1-17 1v3l-7 4-1 7 2 8-3 1-3-2-4 4v6l-5-1-1-8-4-5-11-1-5 4h-4l-5-3-2-3 3-1v-8l-8-1-13-8-2 6 2 1-9 4v3l-3 5 4 6-3 11 2 1-1 3-6 2-2-2-4 5-1-3-2 2-2-1-3 4v3l-6 4-3 7-1-2-4 3-6-1v-4l-2 3-1-2-2 4-5 3-4-1-4 5-6-2 2 12-12 12h-3v2l-3-1-2 2-2 13 2 1-2 3-5-1-1 14 2 5-4 1-4-2-2 2v4l-3 3-5-10-2 2 3 5-4 4-2-1-6 7 1 3-1 3-3 1-1 5 1 2-2 4v11l-3 1-1 5 8 4 1 5-8 3-2 3-3 1v3l6-1 6 4v5l2 1 2-3 4 7-3 4 1 3 4 1v4l8 5h2l8-8 9 3v4l-3 1 3 4 1-1 5 2 1-2 3 11-1 13 3 2h7l-1 2 3 2h4l7-5v5l-6 21v6l2 5 2-3v3l2-1 1 3-4 2 4 2-2 3v10l-2 6-3 1-1 4 6 21 15-2-3-6 5-5v-4l5 1 3-11 5-2 8 1 10 8 19-1 14 4 24 4 1-18 15 1 7 9z"/>
  <path id="营口市" fill="#ff6347" fill-opacity="1" fill-rule="evenodd" stroke="#ffffff" stroke-dasharray="none" stroke-linecap="round" stroke-linejoin="round" stroke-opacity="1" stroke-width="0.5" d="m550 934 4 4 5 9-2 4v6l3 3h4l11-6 2 2 3-1 5 9 9-1 4 4 4-2 5 3 6 10 5-1 6-7 5 5v6l5 7 6-4 6-1h4l4 5 4 1 11-2 16 11 5 1 1 3 3 2-1-3 5-4 6 1 2-2-3-3 2-5-1-2-3 1 1-6-6-3 2-6 4 1 2-4-4-2-2-6 3-4 8 4 1-2 8 1 3-4 3 1 5-2 2 2 10-3 3 1 7-9 8-6 12 3 3-6 7-1 2-4-3-5 12-19 1-4-6-14 2-16 2-4 7-4 4-5-1-4 2-18 2-2h7l5-4-1-12 3-4-8-11-5-3-3-4-6-3h-4l-5 3-13-3-5-11-3-3-7 1-7-3-3 1-3-1-4-5-11 2v3h-3v-3l-6-5 5-1 2-6-2-3h2v-3l5-8-6 1-3 3v-2l-4-2v-6l4-3 3-5v-10l-3-3h-14l-4-3-13-3 6-11v-6l-5-3 1-3-3-1 1-3-9-2 5-7v-2l-2-1v-6l3-10-4-2-13-2-2 3-10 3-2-1-2 2v4h-4l-2-3-5 4-1 4-3-1v-4l-3 1-1 5-7 9-6-2-7 3-1 3-3-1-6-7-3 3 3 9-1 3-8-3-6 8-7 5-1 2 3 3 22 16h3v11l15-1 2 3v2l-7 5h-3v-2l-7-2-3-3-2 2-6-5-3 5v15l-5 9v4l5 9 24 23v2l-4 3 4 7 3-1 6 2-1 2-3-2h-11v7h5l2 5-5 7-8-2-2 1-1 5 3 11-7-2-1 3 3 4-7 3-4-6-7 2v7l7 3-7 8h-2l-3-5-3-1-10 4v21l-3 5-24 2 6 16 6 6 6 1 2 5-4 9-4 2-5-4z"/>
  <path id="阜新市" fill="#ff6347" fill-opacity="1" fill-rule="evenodd" stroke="#ffffff" stroke-dasharray="none" stroke-linecap="round" stroke-linejoin="round" stroke-opacity="1" stroke-width="0.5" d="m778 45-9-8-2 1-3-7-5-1-2-3-2 1-4-2v-5l-14 2-7-1-7 4-12-6-3-7 2-3-3-3-15-4-19-2-19 3-2 5 3 11 3 5 17 2 5-2v7l-4 2-2 7-10 7v9h-9l-7 4v-3l-19-6-9-11-6-1 2 7-2 10-2 1 1-3-2-1-4 2-9-1-11-5-2-4-4 2v-4l-3-1-11 8-7-2-3 6v-3l-3-1-2 1-1 4-5-1-1 3 2 4-1 2-2-1-4 3 1 7h-4v3h4l-4 3 5 5-3 2 1 4-5-2 3 4-1 4-4 6-5 2v7l-3-3-1 4-2 1-3-4-3 3-1 8-4 1v-5l-5 7-9 3-9 14-6 3h-6l-5-6-2-9-3 2-6-7-1-3 3-2-1-2-5 2v2l-3 2-2 4-4-2-6 3-4-3-2 3-7-5-3 4-9 4-3-4h-2l1 3-9 2 1 7-7-3-8 6-4 1-2 2 2 2-2 2-2 8-4 5-5 2-3-1 1 2-9 2-1 3-8 5v6l-9 6v5h-4l-3 7-5-1-4 2-5 8-5-2-4 2 1 2-3 2 6 4 2 4-2 9 2 2v4l4 8 3 15-2 3-2 10-6 5 2 14-4 10 1 3h9l1 2 6 3 15-4 8 4 5 18 21 8 1 2 1 7-3 3-3 10-3 2 2 6-3 3 13 8 8 1v8l-3 1 7 6h4l5-4 11 1 4 5 1 8 5 1v-6l4-4 3 2 3-1-2-8 1-7 7-4v-3l17-1 6 1 2 3h10l8-10 4 3h9l6-4 5 2 6 6 3-1 7-9h-5l-3-3 5-8h12l5-5-2-2 5 1-1-3 3-2 2 1 5-2v-3l-2-1 5-1 6-6v-6l2-1 3 2 5-2 2-2v-3l5-5v-3h5l4-4-1-2 6-6 4 1 2-7 4 1-3-3 2-2 6 2 2-2h4l4-6 4 1 16-12 5-1 25-13 4-3v-4h3l-1-1 2-2 4 2 41-24-1-6h6l1-2 3 1 11-6 11-10v-2l12-5 6-4 6-7h3l5-5 11-1-2-7h-3l-2-2 2-5-4-2-1-4h-3l-1 2-4-1-1-2 2-3h-5l4-5-3-9v-8l2-3h-2l4-3 9-2 10 1v-7h2l1-5 6-5h3l5-5-1-3-11-5-2-4 1-2-6-4-3 2h-4l-8-8v-6l-13-1v-4l-12-9 5-7 9-6 4 3h5z"/>
  <path id="辽阳市" fill="#ff6347" fill-opacity="1" fill-rule="evenodd" stroke="#ffffff" stroke-dasharray="none" stroke-linecap="round" stroke-linejoin="round" stroke-opacity="1" stroke-width="0.5" d="m722 571-2-1-5 2 2 3-1 3 11 8 10 5 3 4-1 2 4 3 19 5 2-1 2 2 2-1v2l6 4h2l2-8 4-3-2-5 7-10-2-2 2-2 3 1 6-9h14l3-3h3l1 5 4-1 4-6h4l6 3-1 2 2 3 9 2 5-2v2l3 1 2 6 3 1-3 6 2 1v11l2-1 2 2h3l3-2 5 3 2-1-1 7 6 4-1 3 2 3-8 3-1 3 3 5-6 7 1 3-4-1-7 2-6-2-10 5-1 5 3 9-2 2-7 2 4 9-6 4-1 5 2 4-2 4 1 4 5-1 9 5-8 11-1 7 7 10 8 5 1 4 4-4 7 5 9-7h8l18-14 7 1 4-2h5l5-3 2-6 2-1 8 1 24-8 2-12 8 2 8-6 1-6 3-2 3-9 4-3 3-7-3-4 2-3-2-12 1-3h2v-8l7-3 1-4-5-4-3-5-2-9 3-9-6-7-1-7-3-3-1-4-6-2 3-4-3-5 5-7 1 3 13-5-4-13 2-6v-3l-2-1 1-6-2-3 1-7-1-5-5-6v-4l5-7v-4l-2-3-9-3-2-7-5-4-9 6-5-4-3 4-4-1-6 7-5-1-2-3-3 2-2-1v-3l-6-7-2 2-4-2v-3l-5 2v-3h-7l-1 2h-2l-3-4-8-2-1-4-11-1v-4l-4-3v-2h-5l-3 4v3l-5-1-3 4h-6l-2-3 1-3-5-1 1-10 2-1 3-7-5-3-7 10-2 9-2 3-6 1-7 15-3 1-2-3-9 1-3 5h7l-2 2v4l-4 4-7-4 2 8-2 3-3-3-1 1 3 1-4 6 4 1-4 4h-7l-1-2-3 3-2-3-3 3v7l-2 5-10 2-8 5-2-3-4 6-1 7-7 2 1 3-6 6 2 5-8 8-3 10 1 3-2 3-6 1-1 2z"/>
  <path id="盘锦市" fill="#ff6347" fill-opacity="1" fill-rule="evenodd" stroke="#ffffff" stroke-dasharray="none" stroke-linecap="round" stroke-linejoin="round" stroke-opacity="1" stroke-width="0.5" d="m447 690 1 3-3 6 2 2 4-3 2-4 7-2h6l2 4 3 1h9l3-1 1-3 9-2 1-5 3 3 1-6 7-6 9-2 3 10 6 6-2 3 2 5 9 7 13 2 2 3v4l-3 7 1 15 4 10 7 3h12l7 7 4 1 8-1 13-6 2-5-1-4 3-5 6 5 2-2 3 3 7 2v2h3l7-5-2-5-15 1v-11h-3l-9-6-16-13 8-7 6-8 8 3 1-3-3-9 2-3 7 7 3 1 1-3 7-3 6 2 7-9 1-5 3-1v4l3 1 1-4-3-1 1-3-2-3h6l-1-5 3-4-6-4v-2l3 1 5-3 2-3-1-1-4 3-1-3 4-5 8 5v-3l2-1 2 3 2-1 3-7-4-8 2-7v-9l-5-6v-6l-3-5v-9l-3-1-2-5 5-6h4l4-6 8-1 4-6 7-6-7-2-1 3-9-2v4l-4-3-12 15-5 1 3 2-4 3h-9l-7 2-3-4-3 1-7-3-5-7 10-5 1-2 1-12 3-5v-5l3-4-1-3 2-3v-6l-9-7-12-19v-4l-2-3 2-3-16 10 2 2-13 10h-2l-2 3-2-1-8 6h-3l-4-5h-14l-3 6-7 1-4 4v6l-5 5-4-3v-4l-6-4-11 2-5 5-6 1-3-2-5 2-3 5h-4l-31 23v11l3 2 7 1-1 9h-4l-8 12-1 4 5 9 7 2 18 1 3-2 13-1-1-2 6 4-1 5-3 1-9-1-6-2 1-1-5 2 1 2-3 8h-5l4 4v5l3 9v6l-2 2-1 9-3 2-6 15-8 4-8 13z"/>
  <path id="铁岭市" fill="#ff6347" fill-opacity="1" fill-rule="evenodd" stroke="#ffffff" stroke-dasharray="none" stroke-linecap="round" stroke-linejoin="round" stroke-opacity="1" stroke-width="0.5" d="m1023 299 6-7 7-5 10-3h6l6 5 3-2 3 2-2 3 3 1 18-2 3-2 1-10 7-6 7-3 12 2 9 4 15-1 5-3 3 1 1 6 2 1 2 6-1 7h4l4-3 7-1 1 3 2-1 5-4-1-3 11-4 10-8 19-7 7-11-2-4 5-9v-3l-4-4-4-9-3-12 11-16 1-7 3-6-2-8 2-3 15 2-2 6 6 4h12l4-3h4l1-4h5l3-2 3 2 3-1 3-7-2-2-1-6-2 1-2-4 4-6 4-2 5 1v-2l11 3h6l2 4h8l1-2 4 1 4 6-1 4 5 1 2-4 2 3 4-2-2-5 1-4 9-1 1-3-2-8 12-7-1-3 8-4-1-5-10-4 6-3v-2l-6-6 3-3v-5l4-5-2-7 3-3-2-2 3-2-1-3-6-2-3 2-2-1-4 3-2-1v-2l-5-3 2-7-2-3 1-2-5-1-1-3-6 2v-3l5-2-3-11-2-2 3-2 2 1 2-7-4-2 3-7-1-3h-2l-1-8-7-1-5-4h-3l-1 5-4 5h-6l-4-11-1-15-2-7 2-1-1-5 2-2v-3l2-1-1-3 2-4-2-1 2-5-1-3 2-2-2-2 1-4-4-6h2l-5-8v-3h5l-2-2 1-4 7-8-2-9 1-4 3-3v-4l-3-1-2 3-5 2-4-3-5 1v2l-5-1-4 2v3l-7 8-1 4-4 2-5-1-9 7-3 9 1 8-5 10h-6l1 7-8 6-1 5-10 12-5 1-2 7-1-2-5-1-9 6-3 4v8l-4-1 1-9-2-5-3-1v-4l-2 2-3-2h-12l-1-4v-4l4-3 2 1 3-5h3l8-6-1-7-3-2-2-4-5 2-10-2-7-7 1-3 8-7 14-18-16-16-6-2-8-10-1 2-3-1 2-2-7-7 2-4-1-2 3-4-3-9-2 1-4-3-3 2-3-1-1-2h-2l-1-5-4 3-5 1-2-2-1 2-3-4h-6l-1 2-4 1 1-6-2-2 2-3-5-1v-4l-14 1-3 3-22-25-6-3-7-1 1-6-2-4-7-2v-2l-3-1-1-4 2-7 4-6-4-2 1-1-3-3-1 1-5-2-7-6-3 3-4-1-7 4 2 3-2 7 1 2-10 8v4l-2 1 1 2-2 2 3 2-3 1 2 2v4l-3 3h7l-3 1 1 3h-2v3l2 2-3 1 2 3h3l-1 3h-4v5l-2 1 1 5 2 1-2 2-3-2-5 3 2 10-2 2 3 4-5 1-3 3 2 6 3 1v4l-4 2v6l-4 7 1 5-3 2 1 11-9 9v2l4 3-5 3-1 3-2-2v6l2 1-4 2v3l-3-1 1 6-3 1-2 3 2 6 3 3h4l1 3 5 4-1 3h-3l-1 4 3 2 1 4-4 3v4l4 1 1 2-5 5 5 8-3 2v5l2 4-2 3 3 4-2 2-3-1-2 2 2 6h-3v4l-4 4v2l6 6-3 5 3 1 2 4h-3l4 5 3-2 2-4 3 2v10l10 6v2l-3 2 3 1 3 5 5-1 2 3-3 1 1 5 4-1 1 5 4 1-1 3h9l-2 4h-4l-9 5-5 7-1-3-5-1 2-3-1-8h-5l-5 3-1 3h-2l1 3-2 6-6-1-1 3-3-1-1 3-2-1-1 3h-3l-2 3-3-1-7 8-4-1-7 9v3l7 6-4 11 6 7h3l1 3 3 2 3 9-3 9-5 7-4 2-2 3-1 5 2 5-3 1-4 9 5 8h5l4-4 10 4v12l20 11 3 3v2h4l4 3 4-2 7 2v2l13 10-1 2 8 5 3-8 2 1 3 3-2 5 2 2-5 5-6-3-2 2v6l1-1 1 2z"/>
  <path id="朝阳市" fill="#ff6347" fill-opacity="1" fill-rule="evenodd" stroke="#ffffff" stroke-dasharray="none" stroke-linecap="round" stroke-linejoin="round" stroke-opacity="1" stroke-width="0.5" d="m311 211-5-4 2-2-5-2h-9v-3l-7-2-1 2-6 2-4-1-2 2 3 4-3 4-4-3-8 1-2-2v7l-2 2-8 3-13-1-4 6-7 2-2 4-10 6-6 6-11-5-8 8-4 1-14 9-4 4 4 5 2-2 2 1v2h-4l3 5-3 3-8 2 1 14-4 4h-3l-4 3 3 4h-6l-7-3-7 6-3-1 1 3-7 7v3l2 1-3 4-1-2h-4l-2 3 3 2-3 1-2-3-1 6-2 1 8 3 2 3-3 2-9-1-9 11-8 2-1 7-15 22 4 12-7 5-4 6h-7l-9-4v-6l-3-4 7-13-4-2 3-8v-8l-6 4-4-16-4-4v-7l-4-5-6-4 2-6-1-9-2-4-7-5v-9l-4-1-3-5 2-3-1-2-4-3v-4L6 259l-1-11 5-12-1-14-2-2H-7l-1 2h-11l-3-4-3 1v-4l-4 3-6-6h-10l-4-6-3 1-2-8-6-1v-2l-3 2-2-5-3 2v-2l-3 1v-6l4-4-1-2 3-1 2-3v-8l-7-2-2 1-9-9-5 15-12 6-1 4-15 6h-7l-11 11-5 1-2 3v5l-7 8-1 5-2 1 3 5 7 1 3 11 5 2-1 6 3 4h9l6 4 3 6-2 9 1 8-2 1v5l-13 19 2 4-2 6 4 6-2 4 1 2-3 5 2 6-2 5 1 3-3 5 1 1-2 9-6 8 7 7-1 4-3 3h3l2 5-4 3-1 3 3 10v14l2-1 6 9 11 7h3l5 3 1 3h-3l3 4-2 2-13-1 2 10 3 2v3h3l3 4v3l-2-1 2 6-1 4-6 5-2 9 1 4-7 4-10 2v3l6 4-4 6 4 9-2 4-3-1v-5l-4 8-12-1-3 3 2 14-4 7h-3l-1 4h-2v7l-10 1-1 3 6 5-2 7-6 3-8 11h-10l-2 2v12l-2 4-3 2-2-1-6 6v-2h-5l-6-3h-6l-4 7-3 2v5l4 7 16 3 2 4-4 4-1 6-8 3h-6l-8-3-3 2-3 12h-2l2 8-3 14-2 2v3l-5 2-2 6 1 8 3-1 1 3 3 1v3h6l3 2-4 8 3-1 12 4 1 8 6 5 1 3h4l3 3 3-1 6 3 2 6 2 1 1-3 7 2 5-1 13-9 3 1 2 5-3 7-7 7 3 5 1 7 6-3 12 2 1 2 4-7 3-1 1 4 3 1 5-3v-2l13-17 4-3h7l4-2 5-8 2-8 7-7-2-1 3-3 4 2 7-4 2-9 4-7-1-6 2-1 10 7 9-8 8 4 5 7 3 9 4 1 1-7 6-6v-3l-5 1v-4l3-2v-3l3-4 3 1 3-3 2 3h4l5 4 5-8 4-1 2-4-2-15 4-2v2h4l3 2 2 4 7-1 3 2 3-8 4-2 1-3h4l4 6 3-1 7-11v-5l2-4 4-4-2-2-1-11-3-1-1-6-3-2 2-3 6-2 1-2 8-1 1-4h4l2 3 7 2 2 4-3 2v2l3 1 7 18 8-7 2 10h3l2 3v6l-3 1-1 5h-4l-2 4v6l8 1 5-11 5 2 4-3 1 4h6l3-5v-4h3l4-9 3-1 1 2 1-2 3 1-3 1 11 8h2l3 6h5l9-12v-23l6-7h5l3 4 5 2 2-2v-9l16-4 1-8 3-5-1-4 1-2 6-3 1-5h4l2 2 3-1 6-6v5l7-1 2-3 3-1 5 3 2-1-2-1v-5l-6-4-6 1v-3l12-7v-5l-8-4 1-5 3-1v-11l2-4-1-2 1-5 3-1v-6l6-7 2 1 4-4-3-5 2-2 5 10 3-3v-4l2-2 4 2 4-1-2-5 1-14 5 1 2-3-2-1 2-13 2-2 3 1v-2h3l12-12-2-12 6 2 4-5 4 1 5-3 2-4 1 2 2-3v4l6 1 4-3 1 2 3-7 6-4v-3l3-4 2 1 2-2 1 3 4-5 2 2 6-2 1-3-2-1 3-11-4-6 3-5v-3l9-4-2-1 2-6 3-3-2-6 3-2 3-10 3-3-2-9-21-8-5-18-8-4-15 4-6-3-1-2h-9l-1-3 4-10-2-14 6-5 2-10 2-3-3-15-4-8v-4l-2-2 2-9-2-4-4-2z"/>
  <path id="葫芦岛市" fill="#ff6347" fill-opacity="1" fill-rule="evenodd" stroke="#ffffff" stroke-dasharray="none" stroke-linecap="round" stroke-linejoin="round" stroke-opacity="1" stroke-width="0.5" d="m312 710-6-21 1-4 3-1 3-13-1-3 2-3-4-2 4-2-1-3-2 1v-3l-2 3-2-5 6-32-7 5h-4l-3-2 1-2h-7l-3-2 1-13-3-11-1 2-5-2-1 1-3-4 3-1v-4l-9-3-8 8-10-5v-4l-4-1-1-3 3-4-3-7-5 4-5-3-3 1-2 3-7 1v-5l-6 6-3 1-2-2h-4l-1 5-6 3-1 2 1 4-3 5-1 8-16 4v9l-2 2-5-2-3-4h-5l-6 7v23l-9 12-3 1-2-1-3-6h-2l-11-8 3-1-3-1-1 2-1-2-3 1-4 9h-3v4l-3 5h-6l-1-4-4 3-5-2-5 11-8-1v-6l2-4h4l1-5 3-1v-6l-2-3h-3l-2-10-8 7-7-18-3-1v-2l3-2-2-4-7-2-2-3h-4l-1 4-8 1-1 2-6 2-2 3 3 2 1 6 3 1 1 11 2 2-4 4-2 4v5l-7 11-3 1-4-6h-4l-1 3-4 2-3 8-3-2-7 1-2-4-3-2H4v-2l-4 2 2 11-2 8-4 1-5 8-5-4h-4l-2-3-3 3-3-1-3 4v3l-3 2v4l5-1v3l-6 6-1 7-4-1-3-9-5-7-8-4-9 8-6-5-4-2-2 1 1 6-4 7-2 9-7 4-4-2-3 3 2 1-7 7-2 8-5 8-4 2-4-1-7 4-13 17v2l-5 3-3-1-1-4-3 1-8 13v3l9 9 12 5 16-3 20-1 5 2h8l3-6 4 2 4-3 10 6v5l-5 2-1 3 7 10 4 2 3 6-3 7 2 9-3 11 3 6-1 8 5 5 2 6 5 3 2 7-2 2-5 14 11-5 3 5 10 9 1-3h3v2l4-3 2 19 2 4-7 12 9 8-3 5 3 6 6 3 6-4 4 1 5 6-3 8 3 6 10 1 6-1 5-4 2-4 1-9 7-4 14-3 17-6 8 2 10-8 15-4 13-6 26-16 6-2h18l8-10 4-13 3-3-1-16 3-6 10-5 8-8v-7l-2-6 5-5 2-13-1-3 6-2h7l7-13 7-3 1-9 19-12 6-6 3-20-1-7 7-4 5 1 17-2 3-3h4l3-5 7 2 6-1 2-2v-4l-3-7-11 1-2-2v-6l4-3-1-6-3-1-2-3 2-2v-3l4 4h3l1 8 3 2zm-63 108 4-5h6l2-2v-6l-3-2 1-2-4-1v3l-4 1v5h-3l-2 3v4zm-44 26h2v-3z"/>
</svg>
