<?xml version="1.0" encoding="UTF-8" standalone="no"?>
<svg
   width="1789"
   height="1704"
   viewBox="-251 -228 1789 1704"
   version="1.1"
   id="svg1"
   xmlns="http://www.w3.org/2000/svg"
   xmlns:svg="http://www.w3.org/2000/svg">
  <defs
     id="defs1" />
  <path
     stroke="#ffff00"
     stroke-opacity="1"
     stroke-width="0.5"
     stroke-linecap="round"
     stroke-linejoin="round"
     stroke-dasharray="none"
     fill="#1e90ff"
     fill-opacity="1"
     fill-rule="evenodd"
     d="m 749,466.99998 7,1 7,-4 4,1 2,3 5,-1 1,-7 2,-1 6,3 v 3 l -3,1 3,5 6,-1 3,13 4,-2 3,1 -2,6 4,6 3,-3 4,1 4,7 9,9 v 9 l 4,5 -7,10 5,5 6,2 3,6 5,-7 8,2 v -3 l 7,-7 v -3 l 6,-7 2,-9 14,-27 6,-1 4,-5 2,2 v 4 l -3,2 -1,4 4,1 1,6 5,-4 -2,7 1,3 10,-3 1,3 h 9 l 5,-5 h 7 l 6,6 5,-2 5,2 3,8 6,-8 4,-1 v -2 h 3 l 4,-4 -2,-3 6,-2 -1,-3 11,-7 v -7 l -3,-8 5,-5 h 13 l 3,10 v 8 l 5,2 v 7 l 5,3 -1,3 8,6 6,-5 4,1 6,-4 4,3 2,6 12,-5 20,-23 v -4 l 6,-6 -15,-13 1,-3 11,-12 -2,-16 -4,-1 -1,-3 -17,7 -3,-1 -2,-5 -2,-1 -11,5 -3,-1 1,-5 4,-4 -1,-3 h -9 l 1,-3 -2,-3 2,-6 -5,1 -5,-15 3,-3 -3,-2 -2,-12 -13,1 v -4 l -5,-6 v -4 l -5,-3 -7,-16 -6,2 -4,4 -1,-16 2,-2 -3,-4 v -3 l -4,-1 -5,7 -10,4 -5,-2 -6,-18 -5,-6 3,-2 1,-8 -6,3 -4,-1 -2,2 1,4 -3,2 -3,-2 -10,4 -2,-1 v -10 l -5,-4 -16,5 -15,13 -6,-1 4,10 4,3 -5,5 -17,9 -15,11 -6,-4 1,-3 -6,4 v 11 l -4,1 -13,12 -6,-1 -3,-3 -9,1 -3,-4 -1,3 -4,2 -5,-8 -3,-10 5,-3 -8,-3 -3,-3 -1,2 -10,5 -2,3 -10,-16 -3,-2 -16,12 -1,5 -9,5 -12,11 -7,9 10,16 1,5 4,2 15,17 19,4 13,-6 h 10 l 4,4 -4,7 3,8 -1,6 -9,2 -5,-1 -6,5 -3,9 3,11 3,4 -2,2 z"
     id="万州区" />
  <path
     stroke="#ffff00"
     stroke-opacity="1"
     stroke-width="0.5"
     stroke-linecap="round"
     stroke-linejoin="round"
     stroke-dasharray="none"
     fill="#1e90ff"
     fill-opacity="1"
     fill-rule="evenodd"
     d="m 628,869.99998 -1,-1 7,-16 -8,-1 -4,-3 -4,1 -2,-5 -4,-4 -5,-1 -5,-6 4,-16 -6,-6 6,-3 -1,-22 -6,5 -6,-2 v -11 l -4,-1 4,-7 3,-1 1,-5 4,-3 -5,-1 -6,-5 2,-4 -3,-8 -6,-3 -2,-4 2,-4 -2,-3 -4,2 -5,-6 v -3 l -5,-1 -4,-4 -3,8 h -5 l -1,-5 h -4 l -7,-11 -5,-2 -12,15 -2,-2 -12,19 1,2 -3,5 1,4 -4,-3 -3,4 -7,2 -2,8 -8,12 -5,-1 -1,3 -9,1 -1,-6 -11,5 h -11 l -1,7 2,3 -5,3 -4,6 -13,4 -18,13 -6,-3 -6,1 v 4 l -10,7 -6,7 -6,2 -3,-1 -3,15 -13,40 -2,13 1,7 -3,10 v 6 l 7,3 h 5 l 5,3 4,5 3,-7 h 3 l -2,6 7,2 v 6 l -3,5 1,13 2,2 -3,1 3,5 6,-1 1,2 -4,5 11,6 10,1 5,-3 -2,-7 1,-3 5,2 3,-3 5,-1 -1,-5 -3,-1 7,-3 2,-3 5,7 4,-2 7,1 -2,5 h 6 l -3,5 v 9 h 12 l 1,-6 -2,-6 -4,-5 v -5 l 5,-4 2,1 6,-2 v -3 l 5,-1 11,-11 8,-18 7,-3 h 4 l 3,-3 h 5 l 4,-3 13,10 2,10 3,-4 4,1 9,-7 1,4 13,15 6,16 6,-4 2,-6 3,-3 5,1 1,-5 6,-7 9,-1 -2,-12 -2,-1 v -8 l 8,-3 8,-6 13,-19 4,-3 z"
     id="涪陵区" />
  <path
     stroke="#ffff00"
     stroke-opacity="1"
     stroke-width="0.5"
     stroke-linecap="round"
     stroke-linejoin="round"
     stroke-dasharray="none"
     fill="#1e90ff"
     fill-opacity="1"
     fill-rule="evenodd"
     d="m 223,888.99998 -6,4 -4,-2 h -6 l -5,6 -11,-2 -7,4 h 5 l 2,7 11,1 3,-5 h 6 l 10,-3 2,-4 z"
     id="渝中区" />
  <path
     stroke="#ffff00"
     stroke-opacity="1"
     stroke-width="0.5"
     stroke-linecap="round"
     stroke-linejoin="round"
     stroke-dasharray="none"
     fill="#1e90ff"
     fill-opacity="1"
     fill-rule="evenodd"
     d="m 163,949.99998 -1,-1 -2,3 -2,-8 h -5 l -1,4 2,7 -3,2 2,9 5,8 -5,4 1,7 h 4 l 9,-5 7,-11 14,-8 13,4 2,-1 -3,-8 -10,-15 1,-13 3,-2 4,1 1,-2 -7,-4 -9,2 -4,-3 -5,6 3,-1 3,4 -4,1 -3,7 2,3 v 12 l -2,3 -5,-2 -3,1 z"
     id="大渡口区" />
  <path
     stroke="#ffff00"
     stroke-opacity="1"
     stroke-width="0.5"
     stroke-linecap="round"
     stroke-linejoin="round"
     stroke-dasharray="none"
     fill="#1e90ff"
     fill-opacity="1"
     fill-rule="evenodd"
     d="m 177,872.99998 -4,10 4,2 9,11 5,-1 11,2 5,-6 h 6 l 4,2 6,-4 -3,-3 v -5 l 3,-8 5,-3 7,1 4,9 3,2 5,-2 6,11 4,2 10,-7 8,-2 3,-3 3,-7 7,-1 9,2 3,6 7,-1 9,7 h 2 l 4,-11 12,-23 -6,-1 -4,5 -6,-5 -6,-2 -3,2 -2,-2 1,-3 h -6 l -5,-3 -4,7 -10,4 -2,-1 -1,-7 -2,4 -2,-2 -4,11 -4,-3 -1,7 -8,3 -15,-6 h -19 l -4,2 -2,6 -2,-1 -4,7 v 6 l -4,4 -7,-3 -9,6 h -3 l -4,-5 -1,-5 3,-1 -4,-6 -1,2 z"
     id="江北区" />
  <path
     stroke="#ffff00"
     stroke-opacity="1"
     stroke-width="0.5"
     stroke-linecap="round"
     stroke-linejoin="round"
     stroke-dasharray="none"
     fill="#1e90ff"
     fill-opacity="1"
     fill-rule="evenodd"
     d="m 184,898.99998 4,-3 h -2 l -9,-11 -4,-2 4,-10 v -3 l -4,-2 v -5 l 6,-5 v -5 l -4,-5 -3,3 v 4 l -9,-2 2,-2 -1,-8 6,-26 -5,-3 h -4 l -3,5 -6,-1 -4,-3 h -6 l -1,5 -13,1 v 2 l -4,-4 -4,1 -3,12 -5,4 -1,-2 -1,11 h 2 l 1,5 -3,5 3,7 -3,-1 -2,3 3,2 -2,6 -4,2 -2,6 -3,14 1,11 4,3 7,-3 3,1 2,-5 3,2 2,-3 h 8 l 3,-4 5,-2 9,5 v 4 l 4,-1 1,-3 3,3 h 4 l -2,20 h 6 l 1,-2 6,1 6,-16 8,-3 z"
     id="沙坪坝区" />
  <path
     stroke="#ffff00"
     stroke-opacity="1"
     stroke-width="0.5"
     stroke-linecap="round"
     stroke-linejoin="round"
     stroke-dasharray="none"
     fill="#1e90ff"
     fill-opacity="1"
     fill-rule="evenodd"
     d="m 101,904.99998 v 5 l 3,2 -1,9 h 3 l -3,12 1,6 6,1 2,3 5,1 3,2 v 3 h 5 l 1,3 -2,2 4,1 1,7 -3,4 -3,-1 -2,4 h -5 v -2 h -4 l -1,7 -2,2 1,4 -4,1 -2,6 4,3 1,3 5,1 -4,14.00002 7,12 5,1 10,-4 6,-5 10,-3 4,-5 -3,-7.00002 3,-11 2,-1 -1,-7 5,-4 -5,-8 -2,-9 3,-2 -2,-7 1,-4 h 4 l 3,4 v 4 l 2,-3 3,5 3,-1 5,2 2,-3 v -12 l -2,-3 3,-7 4,-1 -3,-4 -3,1 5,-6 4,3 9,-2 7,4 -1,2 8,3 3,-9 -6,-5 -1,-9 -11,-1 -2,-7 h -5 v 3 l -8,3 -6,16 -6,-1 -1,2 h -6 l 2,-20 h -4 l -3,-3 -1,3 -4,1 v -4 l -9,-5 -5,2 -3,4 h -8 l -2,3 -3,-2 -2,5 -3,-1 -7,3 z m 62,44 z m -5,-5 -1,-1 z"
     id="九龙坡区" />
  <path
     stroke="#ffff00"
     stroke-opacity="1"
     stroke-width="0.5"
     stroke-linecap="round"
     stroke-linejoin="round"
     stroke-dasharray="none"
     fill="#1e90ff"
     fill-opacity="1"
     fill-rule="evenodd"
     d="m 300,880.99998 -3,-6 -9,-2 -7,1 -3,7 -3,3 -8,2 -10,7 -4,-2 -6,-11 -5,2 -3,-2 -4,-9 -7,-1 -5,3 -3,8 v 5 l 3,3 v 6 l -2,4 -10,3 h -6 l -3,5 1,9 6,5 v 3 l 7,1 3,6 3,-1 3,4 4,-5 8,4 5,-2 5,3 1,-2 6,4 5,-4 -2,-3 4,-3 v -3 l 4,1 v 2 l 12,-2 10,-18 2,-8 6,-11 z"
     id="南岸区" />
  <path
     stroke="#ffff00"
     stroke-opacity="1"
     stroke-width="0.5"
     stroke-linecap="round"
     stroke-linejoin="round"
     stroke-dasharray="none"
     fill="#1e90ff"
     fill-opacity="1"
     fill-rule="evenodd"
     d="m 245,672.99998 -8,3 -13,13 2,3 v 4 l -9,8 -10,32 -7,-4 -2,8 -5,-2 -7,10 h -3 l -1,6 -4,4 v 5 l -5,1 4,-7 -2,-1 -2,4 -3,-2 7,-17 -3,-1 -4,8 -4,2 -3,-1 2,5 -2,4 -6,-2 -4,-4 -2,-4 v -6 l -3,-3 -25,18 4,6 1,5 h 3 l -2,5 4,2 -2,4 3,-1 -1,8 3,2 8,-1 -10,15 -4,3 -4,-1 -3,4 -3,12 4,-1 4,4 v -2 l 13,-1 1,-5 h 6 l 4,3 6,1 3,-5 h 4 l 5,3 -6,26 1,8 -2,2 9,2 v -4 l 3,-3 v -8 l 4,-4 7,-1 3,4 4,2 3,-4 -1,-3 2,-4 7,-5 v -3 l -4,-5 -2,-9 -2,-2 6,-3 v 4 l 3,2 -3,1 v 4 l 4,-2 h 5 l 6,-4 6,4 v -3 l 6,-3 -5,-7 6,-6 h -3 l -3,-4 1,4 h -4 l 1,-5 4,-2 v -4 l 6,-3 3,1 -1,-4 h 5 l 5,-4 1,-6 3,-2 4,-13 2,1 2,-4 -4,-2 4,-5 -1,-2 4,-3 -5,2 2,-40 -3,-4 2,-12 z"
     id="北碚区" />
  <path
     stroke="#ffff00"
     stroke-opacity="1"
     stroke-width="0.5"
     stroke-linecap="round"
     stroke-linejoin="round"
     stroke-dasharray="none"
     fill="#1e90ff"
     fill-opacity="1"
     fill-rule="evenodd"
     d="m 393,1171 -5,-10 h 4 l 1,-6 -2,-4 -3,-1 -5,2 -5,-5 -1,-7 4,-2 2,-5 -9,-12 -5,-2 -4,-5 3,-5 -4,-5 v 2 l -5,-3 h -3 l -2,-6 -4,13 -4,-3 -2,1 -2,-3 -4,1 6,-20 -4,-6 -7,-7 -2,-5 -7,-4 -3,1 -3,-3 -11,3 -4,-12 -3,-1 -3,5 -2,-3 -4,5 -3,1 v -3 l -7,-3 -7,6 -6,-7 -5,1 -5,-5 -2,6 -1,-1 -3,3 -1,4 -5,-1 1,-6 -5,1 -6,6 -7,14 h -6 l -2,-2 -3,1 -1,5 3,3 -1,7 4,15 v 11 l 2,4 5,2 -6,4 -3,-1 -2,-6 -6,2 -2,5 h -2 v -8 l -2,-5 h -7 v -3 l -4,-7 -4,-1 -2,-3 1,-3 -4,-2 -2,7 2,9 -5,8 v 5 l -8,-2 -4,-8 7,-2 -7,-4 v 5 l -9,-4 -7,9 -5,-1 7,21 -2,7 3,4 -2,5 3,8 v 13 l 2,6 7,2 4,3 3,11 3,3 4,-1 6,11 11,5 1,5 4,1 v 4 h 5 l 5,6 1,4 -2,10 6,8 h 2 l 2,5 4,-1 3,3 5,-1 -2,3 1,6 4,3 6,-2 3,6 -4,2 h -8 v 3 l 3,1 3,5 v 4 l -2,4 -6,-2 -3,6 4,13 -1,5 -11,11 h -6 l -3,4 3,4 -2,3 2,6 8,-2 1,-5 -3,-3 3,-1 7,5 8,-2 -1,5 7,5 4,-6 6,5 4,-2 3,3 -1,9 5,3 3,-3 3,1 3,-4 5,-1 v -10 l -8,-16 2,-5 3,-5 15,-4 1,-5 -8,-5 v -10 h 5 l 3,-6 4,4 v 4 l 6,7 7,-4 2,-6 -2,-4 14,-1 6,-28 -8,1 -3,-7 h 3 l -3,-7 -9,-6 -2,-7 4,-5 2,1 2,-7 6,1 1,2 4,-2 8,-9 3,2 7,-6 6,12 3,2 1,4 6,-3 h 7 l -2,-16 3,-7 -3,-9 13,-4 -1,-9 8,1 1,7 7,-2 -5,-3 3,-6 z"
     id="綦江区" />
  <path
     stroke="#ffff00"
     stroke-opacity="1"
     stroke-width="0.5"
     stroke-linecap="round"
     stroke-linejoin="round"
     stroke-dasharray="none"
     fill="#1e90ff"
     fill-opacity="1"
     fill-rule="evenodd"
     d="m -180,843.99998 3,1 -1,5 3,7 5,4 -2,12 5,10 7,-2 2,2 v 5 l 2,1 5,-7 7,-2 3,1 2,6 3,2 -1,8 -3,1 1,4 -4,10 3,-1 1,6 5,-2 4,2 v 4 l 4,4 v 3 l 2,2 4,-5 -3,-2 1,-7 2,5 6,-2 -4,6 2,2 1,8 10,6 10,-7 3,6 4,2 1,4 -4,5 3,2 -4,8 6,1 -4,5 h 2 l 5,5 7,-3 2,-6 -1,-6 12,-12 5,-22 6,-16 8,-5 5,1 3,-2 -1,-4 6,-8 12,-10 8,-13 8,-9 5,-10 5,3 3,-8 12,-18 -4,-4 1,-6 -5,-1 -2,2 H 9 l -1,-9 -3,-5 -5,-2 -2,2 -10,2 -8,-5 -6,1 v -4 l -4,-3 -2,5 2,2 -2,5 -4,2 -3,5 h -14 l -3,-2 -1,-5 -5,1 1,-5 -7,-4 -4,-8 -1,4 -5,4 -6,-4 -9,6 h -3 l 4,-9 4,-4 -4,-6 5,-5 v -5 l -2,-1 -5,1 1,3 -5,4 -4,-1 -2,-4 -5,-1 -6,6 -2,-2 -5,4 -9,-4 -4,7 -1,5 -5,-3 -3,14 2,2 -5,7 1,10 -4,3 v 6 l -3,-1 -3,-5 -2,5 3,2 -8,6 4,5 -4,1 -3,-5 -8,-2 -3,-5 -3,1 -3,5 v 4 l 3,2 z"
     id="大足区" />
  <path
     stroke="#ffff00"
     stroke-opacity="1"
     stroke-width="0.5"
     stroke-linecap="round"
     stroke-linejoin="round"
     stroke-dasharray="none"
     fill="#1e90ff"
     fill-opacity="1"
     fill-rule="evenodd"
     d="m 334,852.99998 4,-9 9,-4 5,-7 1,-8 9,-17 -2,-4 -3,2 -2,-6 h -2 l 2,-4 -4,-5 1,-15 -3,-1 1,-4 2,-1 1,-9 3,-2 3,-9 8,-13 -5,-2 -2,-6 h -7 l -1,-5 h -3 l -1,-5 -9,2 -7,-7 -1,3 -3,-2 -3,3 -2,-3 1,-11 -4,-1 2,-6 -7,-9 h -2 l -2,7 -7,2 -4,-1 -1,3 -5,3 h -6 l -1,-3 -2,2 -6,-3 h -4 l -2,-3 v -10 l -10,-8 1,-18 -4,1 -1,-3 -5,1 -2,8 -5,7 h -2 l 10,9 -2,12 3,4 -2,40 5,-2 -4,3 1,2 -4,5 4,2 -2,4 -2,-1 -4,13 -3,2 -1,6 -5,4 h -5 l 1,4 -3,-1 -6,3 v 4 l -4,2 -1,5 h 4 l -1,-4 3,4 h 3 l -6,6 5,7 -6,3 v 3 l -6,-4 -6,4 h -5 l -4,2 v -4 l 3,-1 -3,-2 v -4 l -6,3 2,2 2,9 4,5 v 3 l -7,5 -2,4 1,3 -3,4 -4,-2 -3,-4 -7,1 -4,4 v 8 l 4,5 v 5 l -6,5 v 5 l 4,2 v 3 h 6 l 1,-2 4,6 -3,1 1,5 4,5 h 3 l 9,-6 7,3 4,-4 v -6 l 4,-7 2,1 2,-6 4,-2 h 19 l 15,6 8,-3 1,-7 4,3 4,-11 2,2 2,-4 1,7 2,1 10,-4 4,-7 5,3 h 6 l -1,3 2,2 3,-2 6,2 6,5 4,-5 z"
     id="渝北区" />
  <path
     stroke="#ffff00"
     stroke-opacity="1"
     stroke-width="0.5"
     stroke-linecap="round"
     stroke-linejoin="round"
     stroke-dasharray="none"
     fill="#1e90ff"
     fill-opacity="1"
     fill-rule="evenodd"
     d="m 209,923.99998 -3,6 -12,-4 -3,2 -1,13 10,15 3,8 -2,1 -13,-4 -14,8 -7,11 2,1 5,-1 2,-3 h 7 l -2,2 v 8 l 5,18.00002 8,6 -2,4 3,1 1,5 2,1 -2,9 2,3 6,1 1,3 3,1 -2,8 1,4 6,9 -4,3 v 4 l 4,5 5,2 3,-1 2,2 h 6 l 7,-14 6,-6 5,-1 -1,6 5,1 1,-4 3,-3 1,1 2,-6 5,5 5,-1 6,7 7,-6 7,3 v 3 l 3,-1 4,-5 2,3 3,-5 3,1 4,12 11,-3 3,3 3,-1 7,4 2,5 v -5 l 6,-8 v -7 l -4,-1 -1,-4 6,-3 3,7 10,-1 3,-3 -1,-3 4,-2 2,-5 -4,-6 -1,-10 -7,-2 -1,-9 -3,-1 -2,-20.00002 1,-31 4,2 v -21 l 8,-36 -1,-7 2,-13 13,-40 3,-15 -1,-8 -3,-2 -1,-4 2,-4 -2,-5 -6,2 -9,17 -1,8 -5,7 -9,4 -16,32 -4,11 h -2 l -9,-7 -7,1 -11,17 -2,8 -10,18 -12,2 v -2 l -4,-1 v 3 l -4,3 2,3 -5,4 -6,-4 -1,2 -5,-3 -5,2 -8,-4 -4,5 -3,-4 -3,1 -3,-6 z"
     id="巴南区" />
  <path
     stroke="#ffff00"
     stroke-opacity="1"
     stroke-width="0.5"
     stroke-linecap="round"
     stroke-linejoin="round"
     stroke-dasharray="none"
     fill="#1e90ff"
     fill-opacity="1"
     fill-rule="evenodd"
     d="m 940,1069 4,7 10,7 -4,5 5,3 3,-9 h 3 l -1,6 4,3 -1,6 h 3 l 6,-4 5,5 3,-3 -2,-5 2,-3 -2,-3 2,-2 h 7 l 4,3 1,3 9,6 8,-5 v -7 l 10,-1 v -5 l 10,-2 3,3 8,2 v 3 l 5,2 3,-12 15,-32 7,-2 3,-3 1,-5 4,-4 6,-12 -6,-1 -7,-4 -1,-4 -4,-1 1,-7.00002 4,-6 -1,-3 6,-15 1,-12 3,-5 -4,-9 -12,-4 -5,1 -4,-4 v -6 l -3,-3 1,-6 6,-5 1,-4 v -10 l -4,-4 13,-14 -5,-5 4,-3 -3,-5 -6,7 -6,-4 7,-13 -3,-5 -4,-1 -5,3 -4,-10 -4,3 -2,-1 3,-6 -3,-1 -4,11 1,5 -2,1 -4,-4 -6,3 -2,-5 4,-1 2,-5 -1,-5 -4,-2 1,-6 h -12 l 2,5 2,-2 4,3 -1,6 4,3 -3,1 -4,-4 -1,4 -3,1 -4,-3 -3,-6 -9,-3 3,-6 -3,-3 -7,4 -2,-1 3,-5 -4,-7 2,-8 -4,-3 v -6 l 2,-4 -1,-12 -3,-5 -5,-2 5,-1 -2,-10 -3,-2 2,-2 -11,-1 v -4 l -4,-1 -5,2 -2,-1 -5,4 v 3 l -4,1 1,6 -8,5 -9,13 -4,10 6,3 3,3 v 3 l -10,5 -1,-2 -5,3 4,4 -3,5 7,4 -1,6 -7,3 v 4 l -5,10 -1,8 5,1 2,4 2,-1 2,5 6,6 v 7 l 5,6 v 4 l -4,3 -8,-2 -3,3 -4,9 2,7 3,-1 11,4 h 8 l 9,6 -2,5 4,10 -6,10 -7,2 -1,10 -2,3 5,12 -4,11 v 5 l 4,4 4,1.00002 4,7 v 3 l -4,6 1,5 -2,12 -5,2 -3,6 3,8 7,9 -2,5 z"
     id="黔江区" />
  <path
     stroke="#ffff00"
     stroke-opacity="1"
     stroke-width="0.5"
     stroke-linecap="round"
     stroke-linejoin="round"
     stroke-dasharray="none"
     fill="#1e90ff"
     fill-opacity="1"
     fill-rule="evenodd"
     d="m 362,807.99998 6,-2 2,5 -2,4 1,4 3,2 1,8 3,1 6,-2 6,-7 10,-7 v -4 l 6,-1 6,3 18,-13 13,-4 4,-6 5,-3 -2,-3 1,-7 h 11 l 11,-5 1,6 9,-1 1,-3 5,1 8,-12 2,-8 7,-2 3,-4 4,3 -1,-4 3,-5 -1,-2 12,-19 2,2 12,-15 -1,-2 3,-3 -9,-8 -22,25 -10,-3 -4,3 h -4 l -7,-8 -4,-2 v -2 l 6,-2 -3,-4 3,-1 -1,-7 -5,-4 -7,1 1,-2 -5,-3 v -3 l -6,-6 h 4 l 3,-2 1,-6 5,2 2,-3 -1,-4 3,-6 -1,-6 h -7 l -1,-4 7,-11 -5,-4 -7,-11 -10,-7 -22,27 -12,11 -2,5 -9,3 2,4 -3,6 -3,-2 h -5 l -3,6 4,7 -3,6 -7,4 -2,-5 -3,-1 -2,3 2,5 h -8 l -2,-7 h -4 l -7,-13 -7,1 -4,6 1,3 -3,8 -3,-1 -9,4 -1,3 -11,-3 -8,2 -2,6 4,1 -1,11 2,3 3,-3 3,2 1,-3 7,7 9,-2 1,5 h 3 l 1,5 h 7 l 2,6 5,2 -8,13 -3,9 -3,2 -1,9 -2,1 -1,4 3,1 -1,15 4,5 -2,4 h 2 l 2,6 3,-2 z m 32,-117 h -2 l 1,1 z"
     id="长寿区" />
  <path
     stroke="#ffff00"
     stroke-opacity="1"
     stroke-width="0.5"
     stroke-linecap="round"
     stroke-linejoin="round"
     stroke-dasharray="none"
     fill="#1e90ff"
     fill-opacity="1"
     fill-rule="evenodd"
     d="m -53,1151 8,7 8,-3 5,3 v 7 l 7,4 3,-3 -2,-6 3,-4 6,-1 8,-8 1,-3 4,-2 2,2 4,-2 -5,-4 4,-2 6,2 8,10 7,-2 2,5 -3,1 1,13 3,1 4,-5 h 3 l 6,4 v 2 l 5,2 12,-2 6,1 5,-3 4,-5 6,5 6,2 3,5 4,1 v 4 l 6,5 4,1 v 4 l 4,4 -2,6 -5,3 3,3 -4,1 3,12 6,3 2,17 5,3 6,9 1,14 5,4 -6,7 3,4 6,2 -1,8 8,13 -3,8 2,1 -5,4 3,3 1,6 3,-4 5,6 h 4 l 1,-3 -2,-2 6,-6 -1,-3 5,-4 5,3 h 4 l 3,3 2,-2 6,4 -1,2 5,2 2,4 h 5 l 3,-3 3,2 1,-4 -6,-6 -3,-7 -5,-5 3,-5 9,5 4,9 5,-5 h -4 l -7,-9 1,-7 2,-1 v -4 l 2,-3 -2,-11 h 7 l 3,-5 -5,-6 -2,-11 -4,-1 -2,-9 -11,-9 -3,-6 -1,-7 4,-2 -1,-3 -3,-2 1,-3 5,-4 -5,-5 -3,-11 -4,-3 -7,-2 -2,-6 v -13 l -3,-8 2,-5 -3,-4 2,-7 -7,-21 5,1 7,-9 9,4 v -5 l 7,4 -7,2 4,8 8,2 v -5 l 5,-8 -2,-9 2,-7 4,2 -1,3 2,3 4,1 4,7 v 3 h 7 l 2,5 v 8 h 2 l 2,-5 6,-2 2,6 3,1 6,-4 -5,-2 -2,-4 v -11 l -4,-15 1,-7 -3,-3 1,-5 -5,-2 -4,-5 v -4 l 4,-3 -6,-9 -1,-4 2,-8 -3,-1 -1,-3 -6,-1 -2,-3 2,-9 -2,-1 -1,-5 -3,-1 2,-4 -8,-6 -5,-18.00002 v -8 l 2,-2 h -7 l -2,3 h -7 l -9,5 -6,1 -3,11 3,7.00002 -4,5 -10,3 -6,5 -10,4 -5,-1 -7,-12 4,-14.00002 -5,-1 -1,-3 -4,-3 2,-6 4,-1 -1,-4 2,-2 1,-7 h 4 v 2 h 5 l 2,-4 3,1 3,-4 -1,-7 -4,-1 2,-2 -1,-3 h -5 v -3 l -3,-2 -5,-1 -2,-3 -6,-1 -5,9 -1,8 -8,24 -17,19 -8,3.00002 -1,3 -6,-1 -6,7 -2,-2 -1,-5 -6,2 -4,-4 1,-3.00002 -5,-5 -11,-2 -2,5 -2,25.00002 -6,4 -4,12 H 7 l -10,15 -1,9 -4,2 1,2 -5,8 h -2 l -2,5 -5,3 -1,4 -3,2 2,6 3,1 -1,9 -8,3 -5,8 -7,2 -3,5 1,11 -3,4 -9,5 v 5 z"
     id="江津区" />
  <path
     stroke="#ffff00"
     stroke-opacity="1"
     stroke-width="0.5"
     stroke-linecap="round"
     stroke-linejoin="round"
     stroke-dasharray="none"
     fill="#1e90ff"
     fill-opacity="1"
     fill-rule="evenodd"
     d="m 245,672.99998 h 2 l 5,-7 3,-23 -4,-1 -1,-5 -3,1 -2,-3 -4,-2 3,-4 -6,2 1,-6 -2,1 -1,-6 3,-2 -5,-6 -3,1 -1,-3 h 5 l 4,-5 3,-1 -2,-7 h -3 l -2,-7 -4,-4 -8,-1 -1,-4 -5,-1 -5,-4 -4,2 -1,6 -9,-1 -4,4 h -4 v -3 l -6,-1 -2,-3 -2,3 h -8 l 1,-4 h -4 l -2,2 3,4 -1,2 -2,-2 -3,1 3,6 -10,1 5,6 h 3 l -1,3 h -4 l -2,5 h -3 l -2,-3 -5,-2 2,4 -6,-1 -5,3 -3,-2 -2,3 h -3 l -1,5 -6,-1 -3,-4 h -3 l 2,5 -5,2 1,7 -4,1 -2,3 v -5 l -6,-3 3,4 -2,5 -7,-2 1,3 -3,5 v -3 h -3 l 3,-6 -3,-5 -7,4 -3,-2 -1,-3 -3,-1 3,-5 -8,-2 -1,-7 h -2 l 2,-3 1,-9 -4,-11 -5,-4 -2,2 -5,-3 -1,-3 -3,-1 v 3 l 3,4 -1,3 -6,-7 -3,3 -3,-5 h -3 v -10 l -4,1 -2,4 -1,-3 h -3 l -10,-8 -1,-6 -7,1 -4,-2 -3,4 -5,-2 3,9 -3,4 1,7 2,2 -5,6 -2,-1 2,8 h 3 v 4 h 6 l 4,2 1,3 -2,4 -8,4 -1,7 h 5 l 3,3 1,5 5,5 -5,6 -6,4 -6,-4 v 5 l 5,5 -4,5 1,4 7,6 -2,4 2,2 -5,5 2,4 -4,4 2,6 -1,7 3,8 3,3 8,-1 10,6 -1,3 -7,2 1,4 3,-2 14,-2 17,2 -2,5 2,2 -1,6 -3,6 5,7 4,-1 -3,4 1,3 6,-3 5,4 13,-5 1,-2 3,3 h 4 l 1,4 h 7 l -1,3 7,6 4,1 1,3 4,-3 -2,9 h -4 l 2,3 -3,6 2,3 17,-17 25,-18 3,3 v 6 l 2,4 4,4 6,2 2,-4 -2,-5 3,1 4,-2 4,-8 3,1 -7,17 3,2 2,-4 2,1 -4,7 5,-1 v -5 l 4,-4 1,-6 h 3 l 7,-10 5,2 2,-8 7,4 10,-32 9,-8 v -4 l -2,-3 13,-13 z m -147,75 z"
     id="合川区" />
  <path
     stroke="#ffff00"
     stroke-opacity="1"
     stroke-width="0.5"
     stroke-linecap="round"
     stroke-linejoin="round"
     stroke-dasharray="none"
     fill="#1e90ff"
     fill-opacity="1"
     fill-rule="evenodd"
     d="m -113,1012 4,1 4,-7 6,-3 4,3 -8,2 v 8 l 5,12 -1,6 3,2 -3,7 v 12 l 5,1 4,8 1,9 4,-3 3,3 -6,3 -2,7 v 3 l 4,4 2,6 4,3 -6,12 3,1 6,10 -1,8 6,6 4,1 4,8 h 3 l -2,4 -3,-1 -1,3 2,3 12,-3 -2,-4 v -5 l 9,-5 3,-4 -1,-11 3,-5 7,-2 5,-8 8,-3 1,-9 -3,-1 -2,-6 3,-2 1,-4 5,-3 2,-5 h 2 l 5,-8 -1,-2 4,-2 1,-9 10,-15 h 3 l 4,-12 6,-4 2,-25.00002 5,-12 -1,-5 6,-9 1,-7 -2,-2 6,-40 -1,-6 4,-10 1,-7 -4,1 -3,4 -11,3 h -8 l -3,3 -5,-2 v -7 H 4 l -2,4 -3,-4 -2,2 -5,-1 -1,-4 h -6 l 1,2 -6,3 -4,-1 -3,-5 1,-5 -5,-3 -6,8 1,4 -3,2 -5,-1 -8,5 -6,16 -5,22 -12,12 1,6 -2,6 -7,3 -5,-5 h -2 l -5,5 -2,-1 v 3 l -5,1 -2,3 -6,1 -4,4 -4,-1 v 6 l -3,6 h -3 V 1003 l 3,5 4,1 z"
     id="永川区" />
  <path
     stroke="#ffff00"
     stroke-opacity="1"
     stroke-width="0.5"
     stroke-linecap="round"
     stroke-linejoin="round"
     stroke-dasharray="none"
     fill="#1e90ff"
     fill-opacity="1"
     fill-rule="evenodd"
     d="m 393,1171 h 4 l 2,7 -3,1 -2,3 5,1 5,-2 4,-8 16,1 2,5 3,-3 11,1 3,-3 2,4 -2,1 5,3 -4,9 v 4 h 11 l -4,4 -2,5 1,9 2,2 v 7 l 10,4 3,-2 -1,-5 4,-5 5,-3 18,-4 7,-9 -5,-5 11,-3 2,2 6,-2 4,-5 -1,-3 5,-9 h 4 l -1,-10 3,-6 4,-2 3,-4 -1,-5 h -6 l -3,-2 -6,-14 h -10 l -2,-7 11,-12 -1,-8 h -4 l -4,-14 2,-2 6,2 8,-1 5,-14 -2,-3 -5,-1 2,-10 -4,-6 -3,-12 3,-6 v -12 l 7,-11 -6,-3 h -6 l 1,-3 -4,-4 h -3 l 4,-4.00002 3,-8 -9,-6 -6,-2 -1,2 -9,1 -2,-4 h -9 l -7,-4 v -6 l -4,-5 -7,2 -1,6 h -12 v -9 l 3,-5 h -6 l 2,-5 -7,-1 -4,2 -5,-7 -2,3 -7,3 3,1 1,5 -5,1 -3,3 -5,-2 -1,3 2,7 -5,3 -10,-1 -11,-6 4,-5 -1,-2 -6,1 -3,-5 3,-1 -2,-2 -1,-13 3,-5 v -6 l -7,-2 2,-6 h -3 l -3,7 -4,-5 -5,-3 h -5 l -7,-3 -5,20 v 21 l -4,-2 -1,31 2,20.00002 3,1 1,9 7,2 1,10 4,6 -2,5 -4,2 1,3 -3,3 -10,1 -3,-7 -6,3 1,4 4,1 v 7 l -6,8 v 5 l 11,13 -6,20 4,-1 2,3 2,-1 4,3 4,-13 2,6 h 3 l 5,3 v -2 l 4,5 -3,5 4,5 5,2 9,12 -2,5 -4,2 1,7 5,5 5,-2 3,1 2,4 -1,6 h -4 z"
     id="南川区" />
  <path
     stroke="#ffff00"
     stroke-opacity="1"
     stroke-width="0.5"
     stroke-linecap="round"
     stroke-linejoin="round"
     stroke-dasharray="none"
     fill="#1e90ff"
     fill-opacity="1"
     fill-rule="evenodd"
     d="m 101,904.99998 -1,-11 3,-14 2,-6 4,-2 2,-6 -3,-2 2,-3 3,1 -3,-7 3,-5 -1,-5 h -2 l 1,-11 1,2 5,-4 6,-24 3,-4 4,1 4,-3 10,-15 -8,1 -3,-2 1,-8 -3,1 2,-4 -4,-2 2,-5 h -3 l -1,-5 -4,-6 -17,17 -13,17 -8,6 -6,2 -5,6 -7,5 3,3 -2,13 -3,5 5,8 -2,4 1,2 -8,6 -8,10 -6,26 -7,10 v 9 l -4,10 1,6 -6,40 2,2 -1,7 -6,9 1,5 -3,7 11,2 5,5 -1,3.00002 4,4 6,-2 1,5 2,2 6,-7 6,1 1,-3 8,-3.00002 17,-19 8,-24 1,-8 5,-9 -1,-6 3,-12 h -3 l 1,-9 -3,-2 z"
     id="璧山区" />
  <path
     stroke="#ffff00"
     stroke-opacity="1"
     stroke-width="0.5"
     stroke-linecap="round"
     stroke-linejoin="round"
     stroke-dasharray="none"
     fill="#1e90ff"
     fill-opacity="1"
     fill-rule="evenodd"
     d="m 2,682.99998 -3,-5 -6,-1 1,2 -4,4 -4,-1 2,-4 -4,-6 -9,-2 -4,6 3,2 -4,4 3,3 -1,5 -6,-2 -4,2 -1,5 2,3 -3,7 1,2 6,-1 6,5 5,1 -3,5 1,8 h 5 v 2 l 4,1 2,8 -3,4 6,8 -1,6 -5,2 -2,4 1,3 -3,2 -4,-1 -1,-5 -9,-4 -3,-3 -2,3 -3,-3 -6,1 -3,7 -4,-1 -7,20 -6,2 -4,7 4,8 7,4 -1,5 5,-1 1,5 3,2 h 14 l 3,-5 4,-2 2,-5 -2,-2 2,-5 4,3 v 4 l 6,-1 8,5 10,-2 2,-2 5,2 3,5 1,9 h 3 l 2,-2 5,1 -1,6 4,4 -12,18 -3,8 -5,-3 -5,10 -8,9 -8,13 -12,10 5,3 -1,5 3,5 4,1 6,-3 -1,-2 h 6 l 1,4 5,1 2,-2 3,4 2,-4 h 3 v 7 l 5,2 3,-3 h 8 l 11,-3 3,-4 4,-1 -1,-2 7,-10 6,-26 8,-10 8,-6 -1,-2 2,-4 -5,-8 3,-5 2,-13 -3,-3 7,-5 5,-6 6,-2 8,-6 13,-17 -2,-3 3,-6 -2,-3 h 4 l 2,-9 -4,3 -1,-3 -4,-1 -6,-6 v -3 h -7 l -1,-4 h -4 l -3,-3 -1,2 -13,5 -5,-4 -6,3 -1,-3 3,-4 -4,1 -5,-7 3,-6 1,-6 -2,-2 2,-5 -17,-2 -14,2 -3,2 -1,-4 7,-2 1,-3 -10,-6 -8,1 -3,-3 -3,-8 z m 93,63 2,1 z m -26,-4 z"
     id="铜梁区" />
  <path
     stroke="#ffff00"
     stroke-opacity="1"
     stroke-width="0.5"
     stroke-linecap="round"
     stroke-linejoin="round"
     stroke-dasharray="none"
     fill="#1e90ff"
     fill-opacity="1"
     fill-rule="evenodd"
     d="m -89,767.99998 2,1 v 5 l -5,5 4,6 -4,4 -4,9 h 3 l 9,-6 6,4 5,-4 5,-11 6,-2 7,-20 4,1 3,-7 6,-1 3,3 2,-3 3,3 9,4 1,5 4,1 3,-2 -1,-3 2,-4 5,-2 1,-6 -6,-8 3,-4 -2,-8 -4,-1 v -2 h -5 l -1,-8 3,-5 -5,-1 -6,-5 -6,1 -1,-2 3,-7 -2,-3 1,-5 4,-2 6,2 1,-5 -3,-3 4,-4 -3,-2 4,-6 9,2 4,6 -2,4 4,1 4,-4 -1,-2 6,1 3,5 1,-3 -2,-6 4,-4 -2,-4 5,-5 -2,-2 2,-4 -7,-6 -1,-4 4,-5 -5,-5 v -5 l 6,4 6,-4 5,-6 -5,-5 -1,-5 -3,-3 H 2 l 1,-7 8,-4 2,-4 -1,-3 -4,-2 H 2 v -4 h -3 l -2,-8 2,1 5,-6 -2,-2 -1,-7 3,-4 -3,-9 -3,-3 -11,3 -1,-3 -5,-2 -3,-5 -5,4 -1,-4 h 2 v -4 l -11,3 4,3 -3,2 -3,-6 1,-3 -4,1 -6,6 -2,-3 2,-5 -3,-2 -2,-6 -4,-3 -7,4 h -3 l 1,4 -5,6 h -4 l -4,8 4,4 -7,8 2,4 -3,3 -5,1 2,8 -4,1 -5,-3 -2,3 3,3 -3,6 v 5 l 5,3 4,-1 -2,5 2,2 -5,-1 1,4 -8,-1 -11,2 -2,-6 -2,1 -6,-4 h -8 l -1,5 -3,2 3,3 v 6 l 6,7 7,-1 2,5 -6,1 -1,9 h -9 l -3,3 -5,-2 -6,4 -4,-4 -8,1 -3,7 v 5 h 4 l 3,3 5,-7 4,-1 6,3 -2,5 -8,5 4,1 6,9 16,3 -2,4 1,7 8,4 5,-2 4,14 5,-2 2,3 6,-3 2,7 5,-3 1,3 4,3 -2,6 -6,3 -3,9 2,8 -3,3 -2,8 -5,3 5,5 -2,5 3,3 h 6 v 9 z m -54,-111 -4,-3 z"
     id="潼南区" />
  <path
     stroke="#ffff00"
     stroke-opacity="1"
     stroke-width="0.5"
     stroke-linecap="round"
     stroke-linejoin="round"
     stroke-dasharray="none"
     fill="#1e90ff"
     fill-opacity="1"
     fill-rule="evenodd"
     d="m -113,1012 -8,-4 -3,-5 v -9.00002 h 3 l 3,-6 v -6 l 4,1 4,-4 6,-1 2,-3 5,-1 v -3 l 2,1 9,-10 -6,-1 4,-8 -3,-2 4,-5 -1,-4 -4,-2 -3,-6 -10,7 -10,-6 -1,-8 -2,-2 4,-6 -6,2 -2,-5 -1,7 3,2 -4,5 -2,-2 v -3 l -4,-4 v -4 l -4,-2 -5,2 -1,-6 -3,1 4,-10 -1,-4 3,-1 1,-8 -3,-2 -2,-6 -3,-1 -7,2 -5,7 -2,-1 v -5 l -2,-2 -7,2 -5,-10 2,-12 -5,-4 -3,-7 1,-5 h -20 l -6,-5 -7,7 -4,-2 -2,3 3,8 -5,3 1,6 -4,3 -1,-3 -5,1 -2,2 -2,8 -3,3 h -3 l 1,-4 -3,-2 v 3 l -3,4 2,6 -7,2 -3,9 1,8 4,1 5,8 2,7 -1,8 4,2 2,4 v 2 l -4,3 3,3 4,-3 6,2 v -4 l 4,-2 6,2 4,6 -5,1 1,2 -6,4 h 9 l 6,2 1,-2 4,2 1,4 5,4 v 5 l -4,3 2,4 -1,3 -6,4 v 15 h 11 l 2,-5 4,3 v 4 l 3,1 -3,2 V 1006 h -2 l 10,5 8,-3 v 5 l 3,4 14,-4 1,-2 9,4 4,-2 5,1 v 7 l 2,-1 2,-6 4,-3 5,3 -2,4 3,4 h 7 l 2,-3 -3,-4 z"
     id="荣昌区" />
  <path
     stroke="#ffff00"
     stroke-opacity="1"
     stroke-width="0.5"
     stroke-linecap="round"
     stroke-linejoin="round"
     stroke-dasharray="none"
     fill="#1e90ff"
     fill-opacity="1"
     fill-rule="evenodd"
     d="m 934,-1.00002 2,3 -5,-1 -5,2 -3,4 -2,-1 -7,8 -7,1 -1,8 -3,-5 -5,-2 -7,6 -2,5 -6,2 -5,7 2,5 -6,2 5,5 -1,6 h -15 l -3,3 3,6 -1,4 -8,6 -4,-2 -6,1 -5,-2 -2,3 -6,-1 -2,2 -6,-3 h -4 l -3,4 -10,2 1,10 5,2 1,-2 5,1 1,6 -6,7 2,4 v 6 l -4,7 -8,1 -3,5 -6,2 -1,3 1,4 8,5 2,5 -2,5 -6,2 -6,8 -19,11 -1,4 -4,2 h -5 l -3,3 -14,4 4,4 -1,6 4,2 13,-6 -2,6 4,-1 3,8 -1,6 -6,4 v 3 l -5,6 v 5 l -4,-1 -3,3 -4,10 h -4 l -2,3 2,5 4,4 1,11 8,1 3,3 -2,5 -7,2 -8,5 h -3 l -3,9 -5,8 -4,1 -10,-3 -3,16 5,14 h 3 l 5,3 h 11 l 3,2 10,16 2,-3 10,-5 1,-2 3,3 8,3 -5,3 3,10 5,8 4,-2 1,-3 3,4 9,-1 3,3 6,1 13,-12 4,-1 v -11 l 6,-4 -1,3 6,4 15,-11 17,-9 5,-5 -4,-3 -4,-10 6,1 15,-13 7,-3 1,-3 5,-3 h 7 l 8,-4 2,-7 -1,-6 4,-2 v -3 l 9,-4 v -2 l 10,-2 -1,-5 8,2 -4,-6 5,-5 v -6 l 2,-4 4,-1 9,-8 -2,-4 -7,-4 4,-2 v -7 l 3,-13 9,-12 3,1 5,-5 -3,-6 7,-3 2,-4 -7,-8 -2,-5 3,-4 20,-2 1,-2 -2,-4 5,-7 -6,-1 v -4 l 7,-3 6,1 3,-2 -2,-3 3,-2 1,-5 6,-5 v -3 l -2,-2 h -5 l -5,-5 -8,-4 -3,-6 1,-6 -2,-3 4,-2 h 6 l 3,2 7,-3 5,1 6,-17 6,-3 2,-10 h 7 l 2,-2 4,2 6,-2 9,-10 6,-2 1,-3 -3,-5 2,-3 2,-10 h -4 l -8,-7 -2,-4 -19,-2 -5,1 -4,-2 -5,3 -4,7 -1,8 -5,2 -2,4 -3,-1 -5,3 -5,-3 -4,4 h -13 l -2,2 -3,-2 v -5 l -6,-6 h -6 l -11,-6 -1,-2 h -5 z"
     id="开州区" />
  <path
     stroke="#ffff00"
     stroke-opacity="1"
     stroke-width="0.5"
     stroke-linecap="round"
     stroke-linejoin="round"
     stroke-dasharray="none"
     fill="#1e90ff"
     fill-opacity="1"
     fill-rule="evenodd"
     d="m 692,365.99998 -10,8 -12,-2 -7,-7 -5,-2 -3,2 -4,-1 -3,-5 -1,-9 2,-5 -3,-1 -1,-4 -4,-5 -8,-1 -4,7 -5,-1 -16,21 -5,3 -6,-5 -1,-4 -6,-3 -5,2 -2,-3 h -16 l -3,4 -1,-4 -3,-3 -12,7 4,2 -1,5 3,5 h -3 l 1,3 -6,1 -1,6 -5,1 2,4 -4,1 -3,-2 -2,7 2,3 -3,3 h -5 l 5,11 7,7 v 9 l 5,2 2,6 8,2 7,5 -9,12 -3,9 -6,5 -3,6 -12,10 6,5 -4,5 -5,3 -4,-2 -1,3 7,2 8,5 6,7 6,1 6,-6 5,-1 2,3 5,-1 2,-4 4,1 2,-2 1,5 3,1 3,5 9,1 6,-2 v 3 l 7,-6 3,1 -1,6 h 9 l 4,2 1,5 -7,9 2,5 20,-26 9,-15 3,-2 11,7 v 3 l 7,6 3,6 4,-1 -2,-4 3,-11 -2,-6 5,-10 -1,-4 13,-2 3,5 6,-1 2,2 -2,3 v 11 l 4,4 h 5 l 2,3 9,4 v -5 l 5,-7 2,-7 5,4 6,-7 5,-2 9,-8 2,-5 -2,-6 2,-2 -3,-4 -3,-11 3,-9 6,-5 5,1 9,-2 1,-6 -3,-8 4,-7 -4,-4 h -10 l -13,6 -19,-4 -15,-17 -4,-2 -1,-5 -7,-13 z"
     id="梁平区" />
  <path
     stroke="#ffff00"
     stroke-opacity="1"
     stroke-width="0.5"
     stroke-linecap="round"
     stroke-linejoin="round"
     stroke-dasharray="none"
     fill="#1e90ff"
     fill-opacity="1"
     fill-rule="evenodd"
     d="m 519,1050 10,-2 4,-6 8,4 v 8 l 4,2 5,-1 10,-9 h 6 l 7,-6 1,-4 4,-1 4,6 v 8 l 5,10 v 6 l 4,1 v -5 l 2,-3 h 9 l 4,2 h 7 l 1,6 13,3 3,-6 4,-1 3,-8 -1,-3 6,-2 4,-5 4,5 -1,4 3,1 3,6 h 2 l 5,6 5,2 1,2 -8,23 -2,15 14,5 6,-3 4,1 9,-7 -1,-8 4,-1 2,-3 -2,-9 4,-4 2,-21 2,-2 -2,-5 5,-3 8,2 3,3 10,-8 1,-5 5,-3 4,-8 3,3 1,-8 -5,-6 v -11 l 3,-11.00002 -4,-4 -3,-6 v -5 l -3,-5 6,-14 -1,-8 5,-5 v -6 l 3,-3 2,-14 -1,-9 22,-19 v -4 l -3,-3 v -4 l 3,-1 3,-4 -3,-8 -10,-7 -9,2 -16,-4 -4,3 -2,5 -5,3 v -9 l -5,-13 h -4 l -19,-6 -5,1 -6,5 1,11 -5,15 3,9 -1,5 -3,1 -1,5 -2,-4 h -5 l -1,-4 -4,1 1,-3 -10,-4 5,-2 -3,-1 -2,-5 -4,-2 -9,7 -6,-5 -5,-8 -1,4 -4,3 -13,19 -8,6 -8,3 v 8 l 2,1 2,12 -9,1 -6,7 -1,5 -5,-1 -3,3 -2,6 -6,4 -6,-16 -13,-15 -1,-4 -5,2 -4,5 -4,-1 -3,4 -2,-10 -13,-10 -4,3 h -5 l -3,3 h -4 l -7,3 -8,18 -11,11 -5,1 v 3 l -6,2 -2,-1 -5,4 v 5 l 4,5 2,6 7,-2 4,5 v 6 l 7,4 h 9 l 2,4 9,-1 1,-2 6,2 9,6 -3,8 -4,4.00002 h 3 l 4,4 -1,3 h 6 l 6,3 -7,11 v 12 l -3,6 z"
     id="武隆区" />
  <path
     stroke="#ffff00"
     stroke-opacity="1"
     stroke-width="0.5"
     stroke-linecap="round"
     stroke-linejoin="round"
     stroke-dasharray="none"
     fill="#1e90ff"
     fill-opacity="1"
     fill-rule="evenodd"
     d="m 1203,-19.00002 -1,-3 2,-7 -5,-4 v -3 l -5,-1 -1,-4 10,-4 -2,-10 -7,-1 -6,-4 -3,1 -7,-3 h -6 l -1,-5 2,-6 -3,-6 -9,-8 -12,-7 h -3 l -4,-6 -16,-14 -4,-1 -7,-9 -2,1 -5,-2 -12,-7 h -13 l -5,-4 -13,2 -10,-7 -13,-16 -10,-4 h -8 l -5,-3 -3,-5 -6,-3 1,-6 -2,-5 -8,-3 -19,1 -3,-4 -4,-2 -3,-5 -15,-11 -5,-2 -3,-6 -12,-1 -15,-11 -6,3 -5,5 h -8 l -8,-4 -4,2 -6,-4 -14,10 14,14 9,17 3,3 4,1 -1,8 -7,5 -6,-4 -7,2 -7,-5 -4,3 -7,1 v 3 l 6,3 1,8 -9,6 -4,1 12,9 3,4 -7,8 -5,-5 -4,-1 -7,-5 -3,3 -5,1 -1,3 -6,-2 1,5 -3,3 6,4 4,8 -1,9 2,3 h 4 l 3,2 6,10 4,2 2,6 4,3 7,2 5,-1 -1,2 4,10 17,8 5,-3 3,1 1,4 -4,5 1,3 8,3 3,-1 10,8 7,1 -10,10 4,4 3,11 -4,3 6,7 16,3 1,2 11,6 h 6 l 6,6 v 5 l 3,2 2,-2 h 13 l 4,-4 5,3 5,-3 3,1 2,-4 5,-2 1,-8 4,-7 5,-3 4,2 5,-1 19,2 2,4 8,7 10,-2 1,3 h 7 l 6,-4 v 3 l 14,1 3,-2 v -6 h 2 l -2,-6 2,-2 h 12 l 5,-2 3,-4 11,2 h 11 l 4,-2 h 6 l 3,5 3,-3 21,5 2,-1 -2,-4 1,-11 15,5 z"
     id="城口县" />
  <path
     stroke="#ffff00"
     stroke-opacity="1"
     stroke-width="0.5"
     stroke-linecap="round"
     stroke-linejoin="round"
     stroke-dasharray="none"
     fill="#1e90ff"
     fill-opacity="1"
     fill-rule="evenodd"
     d="m 628,869.99998 5,8 6,5 9,-7 4,2 2,5 3,1 -5,2 10,4 -1,3 4,-1 1,4 h 5 l 2,4 1,-5 3,-1 1,-5 -3,-9 5,-15 -1,-11 6,-5 5,-1 19,6 h 4 l 5,13 v 9 l 5,-3 2,-5 4,-3 16,4 9,-2 7,4 4,-2 8,8 h 5 l 1,-2 14,2 3,-2 2,-6 h 4 l 1,-3 -1,-9 -9,1 -2,-1 -2,-5 5,-4 -1,-3 7,-4 2,-6 -4,-4 5,-10 -3,-1 -1,-4 2,-2 4,3 11,-15 -9,-5 -3,-5 3,-4 -1,-3 -5,-1 -1,-7 -9,3 -1,-6 -9,-3 -8,5 -6,1 -9,-8 5,-6 v -2 l -5,-6 -6,-1 -2,-4 5,-2 -2,-2 h -3 l -4,-10 -12,-13 3,-5 h 3 l 3,3 5,-8 -2,-9 -3,-1 3,-6 -3,-6 h -4 l -3,-5 -4,3 -14,-8 -5,-1 -10,-15 v -3 l -4,-3 -8,8 -5,-6 -6,-2 -5,4 -4,-1 -3,-3 3,-6 8,-9 1,-4 -12,-6 -1,-2 -16,-6 -3,-6 5,-5 v -6 h -9 l -1,5 -3,2 -2,-4 h -3 v 5 l -6,1 v -3 l 4,1 -3,-4 1,-3 -7,1 -6,5 -2,-1 -1,-4 3,-1 1,-6 -5,-4 -3,1 -1,7 -3,1 -6,14 -6,-1 -2,4 -4,1 4,4 -3,3 -6,2 -4,4 v 12 l 5,3 -2,5 -3,-1 -4,3 v 7 l -11,6 4,5 v 3 l -18,21 -2,9 -5,1 6,8 h 4 l 1,5 h 5 l 3,-8 4,4 5,1 v 3 l 5,6 4,-2 2,3 -2,4 2,4 6,3 3,8 -2,4 6,5 5,1 -4,3 -1,5 -3,1 -4,7 4,1 v 11 l 6,2 6,-5 1,22 -6,3 6,6 -4,16 5,6 5,1 4,4 2,5 4,-1 4,3 8,1 -7,16 z"
     id="丰都县" />
  <path
     stroke="#ffff00"
     stroke-opacity="1"
     stroke-width="0.5"
     stroke-linecap="round"
     stroke-linejoin="round"
     stroke-dasharray="none"
     fill="#1e90ff"
     fill-opacity="1"
     fill-rule="evenodd"
     d="m 538,707.99998 5,2 1,3 5,-1 2,-9 18,-21 v -3 l -4,-5 11,-6 v -7 l 4,-3 3,1 2,-5 -5,-3 v -12 l 4,-4 6,-2 3,-3 -8,-6 -2,-8 -4,1 2,4 -3,4 -5,1 -1,-5 2,-2 -3,-3 v -3 l 3,-1 2,-6 h 5 l -2,-10 2,-3 h 5 l -2,-5 6,-3 v -8 l -9,-3 -1,-3 9,-10 3,-7 7,-7 3,-6 7,-3 4,-6 -2,-5 7,-9 -1,-5 -4,-2 h -9 l 1,-6 -3,-1 -7,6 v -3 l -6,2 -9,-1 -3,-5 -3,-1 -1,-5 -2,2 -4,-1 -2,4 -5,1 -2,-3 -5,1 -6,6 -6,-1 -6,-7 -8,-5 -7,-2 -16,25 -6,13 -2,16 -7,10 -6,4 -5,7 -9,20 -3,11 -10,17 10,7 7,11 5,4 -7,11 1,4 h 7 l 1,6 -3,6 1,4 -2,3 -5,-2 -1,6 -3,2 h -4 l 6,6 v 3 l 5,3 -1,2 7,-1 5,4 1,7 -3,1 3,4 -6,2 v 2 l 4,2 7,8 h 4 l 4,-3 10,3 22,-25 9,8 -3,3 z"
     id="垫江县" />
  <path
     stroke="#ffff00"
     stroke-opacity="1"
     stroke-width="0.5"
     stroke-linecap="round"
     stroke-linejoin="round"
     stroke-dasharray="none"
     fill="#1e90ff"
     fill-opacity="1"
     fill-rule="evenodd"
     d="m 818,531.99998 7,-10 -4,-5 v -9 l -9,-9 -4,-7 -4,-1 -3,3 -4,-6 2,-6 -3,-1 -4,2 -3,-13 -6,1 -3,-5 3,-1 v -3 l -6,-3 -2,1 -1,7 -5,1 -2,-3 -4,-1 -7,4 -7,-1 -2,5 -9,8 -5,2 -6,7 -5,-4 -2,7 -5,7 v 5 l -9,-4 -2,-3 h -5 l -4,-4 v -11 l 2,-3 -2,-2 -6,1 -3,-5 -13,2 1,4 -5,10 2,6 -3,11 2,4 -4,1 -3,-6 -7,-6 v -3 l -4,-3 -4,-1 -3,-3 -3,2 -22,33 -11,14 -7,3 -3,6 -7,7 -3,7 -9,10 1,3 9,3 v 8 l -6,3 2,5 h -5 l -2,3 2,10 h -5 l -2,6 -3,1 v 3 l 3,3 -2,2 1,5 5,-1 3,-4 -2,-4 4,-1 2,8 4,2 4,-1 2,-4 6,1 6,-14 3,-1 1,-7 3,-1 5,4 -1,6 -3,1 1,4 2,1 6,-5 7,-1 -1,3 3,4 -4,-1 v 3 l 6,-1 v -5 h 3 l 2,4 3,-2 1,-5 h 9 v 6 l -5,5 3,6 16,6 1,2 12,6 -1,4 -8,9 -3,6 3,3 4,1 5,-4 6,2 5,6 8,-8 4,3 v 3 l 10,15 5,1 14,8 7,-4 1,-6 7,-7 2,2 -1,5 2,2 7,-2 13,-24 -6,-11 -5,-1 3,-3 1,-5 5,-1 8,-12 5,3 3,-4 -4,-1 3,-5 -1,-2 -6,4 -2,-2 1,-4 -3,-2 -1,-7 3,3 4,-2 3,3 1,4 2,-4 -1,-4 5,-5 v -3 l -4,-3 1,-4 -2,-4 7,1 6,-12 -6,-4 -11,2 -8,-6 -4,1 v -3 l 5,-4 h 9 l 4,-2 7,-13 8,-7 4,-1 8,2 z"
     id="忠县" />
  <path
     stroke="#ffff00"
     stroke-opacity="1"
     stroke-width="0.5"
     stroke-linecap="round"
     stroke-linejoin="round"
     stroke-dasharray="none"
     fill="#1e90ff"
     fill-opacity="1"
     fill-rule="evenodd"
     d="m 1068,463.99998 25,-21 3,3 4,-4 4,3 5,-7 -3,-3 3,-6 -2,-5 3,-3 -2,-6 4,-4 -4,-2 -1,-3 11,-5 v -6 l 4,-9 -4,-5 -1,-14 2,-2 v -4 l -3,-3 4,-5 1,-7 8,-4 3,5 18,-4 -2,-5 h 7 l -2,-10 7,-2 -1,-4 -3,-3 v -5 l 2,-2 11,1 5,2 v 2 l 5,3 2,-10 -1,-8 -2,-2 2,-6 12,-20 -2,-1 -2,-5 -4,-1 -1,-3 -4,2 -6,-2 -3,-6 h -9 l -12,6 -14,-3 v -15 l 2,-3 v -8 l -16,-5 v -10 l -3,-3 1,-10 6,3 3,-4 6,-1 -1,-14 -6,-10 -3,-12 -8,-3 -3,-3 8,-15 -2,-6 2,-7 -2,-5 -8,-1 -16,-7 -5,2 -3,-2 -5,2 -5,-4 -3,2 -13,1 -2,5 3,3 v 10 l -2,3 -7,-2 -1,-2 -11,-1 v -3 l -5,-1 v -6 l 4,-2 -6,-7 -7,-2 -1,-3 5,-6 -3,-4 -8,-4 -7,-1 v 3 l -6,5 -1,5 -3,2 2,3 -3,2 -6,-1 -7,3 v 4 l 6,1 -5,7 2,4 -1,2 -20,2 -3,4 2,5 7,8 -2,4 -7,3 3,6 -5,5 -3,-1 -9,12 -3,13 v 7 l -4,2 7,4 2,4 -9,8 -4,1 -2,4 v 6 l -5,5 4,6 -8,-2 1,5 -10,2 v 2 l -9,4 v 3 l -4,2 1,6 -2,7 -8,4 h -7 l -5,3 -1,3 9,-2 5,4 v 10 l 2,1 10,-4 3,2 3,-2 -1,-4 2,-2 4,1 6,-3 -1,8 -3,2 5,6 6,18 5,2 10,-4 5,-7 4,1 v 3 l 3,4 -2,2 1,16 4,-4 6,-2 7,16 5,3 v 4 l 5,6 v 4 l 13,-1 2,12 3,2 -3,3 5,15 5,-1 -2,6 2,3 -1,3 h 9 l 1,3 -4,4 -1,5 3,1 11,-5 2,1 2,5 3,1 17,-7 1,3 4,1 2,16 -11,12 -1,3 z"
     id="云阳县" />
  <path
     stroke="#ffff00"
     stroke-opacity="1"
     stroke-width="0.5"
     stroke-linecap="round"
     stroke-linejoin="round"
     stroke-dasharray="none"
     fill="#1e90ff"
     fill-opacity="1"
     fill-rule="evenodd"
     d="m 1138,469.99998 4,8 4,4 v 3 l 5,-1 1,4 4,-1 7,-9 8,1 20,-16 -7,1 v -2 l 8,-3 10,-7 8,-9 5,9 5,-3 -2,5 -3,2 11,10 6,9 v 2 l -9,13 2,3 1,8 3,3 6,-6 18,-25 7,-16 7,-7 9,-4 4,-6 13,-11 h 4 l 1,5 -3,4 2,2 9,-4 h 4 l 5,-7 -3,-3 4,-9 4,-3 8,-1 9,-7 4,-8 v -11 l -6,-13 1,-4 -4,-8 h -2 l -8,-7 v -3 l 3,-1 v -6 l -17,-5 -3,-8 5,-3 14,-2 -1,-5 -3,-3 -2,-6 2,-2 -2,-5 2,-4 -1,-6 4,-4 1,-4 -5,-6 2,-3 21,-10 21,-14 1,-7 8,-4 3,-6 h 4 l -2,-6 4,-7 v -7 l -3,-6 -7,-1 -14,3 -13,-6 -8,3 -6,-5 h -2 l -1,-7 4,-5 -1,-3 -5,-2 -10,2 -3,-1 -4,-7 h -3 l -1,-3 -10,-1 -5,1 -2,3 -12,-4 -6,1 -4,2 v 3 l -6,3 -1,-4 -6,-2 -8,1 -2,-2 1,-6 -5,-6 -1,-4 -7,-1 v -3 l -8,-5 -4,-18 -29,-6 -3,3 -4,-3 -4,2 -6,-2 -7,1 -19,-4 -8,3 -9,-3 -4,2 -6,-1 2,5 -2,7 2,6 -8,15 3,3 8,3 3,12 6,10 1,14 -6,1 -3,4 -6,-3 -1,10 3,3 v 10 l 16,5 v 8 l -2,3 v 15 l 14,3 12,-6 h 9 l 3,6 6,2 4,-2 1,3 4,1 2,5 2,1 -12,20 -2,6 2,2 1,8 -2,10 -5,-3 v -2 l -5,-2 -11,-1 -2,2 v 5 l 3,3 1,4 -7,2 2,10 h -7 l 2,5 -10,3 -8,1 -3,-5 -8,4 -1,7 -4,5 3,3 v 4 l -2,2 1,14 4,5 -4,9 v 6 l -11,5 1,3 4,2 -4,4 2,6 -3,3 2,5 -3,6 3,3 8,-4 2,3 7,2 7,-3 3,4 5,-3 4,4 v 3 l -3,7 h -3 v 17 z m 0,-5 1,-14 -4,1 -4,5 4,8 h 2 z m -1,0 h -2 l 3,5 1,-2 z"
     id="奉节县" />
  <path
     stroke="#ffff00"
     stroke-opacity="1"
     stroke-width="0.5"
     stroke-linecap="round"
     stroke-linejoin="round"
     stroke-dasharray="none"
     fill="#1e90ff"
     fill-opacity="1"
     fill-rule="evenodd"
     d="m 1341,386.99998 9,-2 6,-7 1,6 5,-4 v -9 l 4,-6 19,-14 14,-5 13,-9 8,-3 6,-5 h 4 l 10,5 3,-1 1,5 6,1 6,-5 h 7 l 5,2 -1,6 4,6 1,11 4,4 h 3 l 1,6 4,3 h 11 l 2,-7 3,-3 v -3 l 7,-7 3,-10 10,-18 -2,-4 3,-14 7,-11 -1,-3 -3,-2 -10,2 2,-8 v -11 h -7 l 2,-10 2,-2 -4,-5 v -7 l 5,-8 h 4 v -4 l 12,-2 4,-4 -1,-6 4,-5 -7,-10 v -11 l -3,-9 1,-7 -1,-3 -3,-1 -2,-10 2,-12 -1,-5 -3,-1 2,-6 -4,-7 1,-2 -3,-6 2,-6 -2,-4 -5,-1 -3,-3 -1,-5 -3,2 -3,-2 -4,2 -13,-1 -1,-4 -6,-5 v -4 l -5,-1 -6,-5 -6,-9 -12,3 -4,-3 -2,7 2,5 -2,3 1,5 -6,15 -12,1 -14,4 -8,-3 -15,5 -1,7 h -4 v 3 l -5,3 -4,-3 -8,-1 -5,7 v 17 l -6,-1 -3,2 -10,1 -7,-7 -6,7 h -5 l -6,11 2,3 h -5 l -7,8 4,7 3,1 10,-2 5,2 1,3 -4,5 1,7 h 2 l 6,5 8,-3 13,6 14,-3 7,1 3,6 v 7 l -4,7 2,6 h -4 l -3,6 -8,4 -1,7 -21,14 -21,10 -2,3 5,6 -1,4 -4,4 1,6 -2,4 2,5 -2,2 2,6 3,3 1,5 h -7 l -12,5 3,8 17,5 v 6 l -3,1 v 3 l 8,7 h 2 l 4,8 -1,4 2,6 z"
     id="巫山县" />
  <path
     stroke="#ffff00"
     stroke-opacity="1"
     stroke-width="0.5"
     stroke-linecap="round"
     stroke-linejoin="round"
     stroke-dasharray="none"
     fill="#1e90ff"
     fill-opacity="1"
     fill-rule="evenodd"
     d="m 1444,83.99998 v -3 l 14,-13 -13,3 -4,-5 -4,-2 -11,1 -6,-4 h -3 l -3,-6 -8,-5 -6,1 -8,5 -4,-4 -20,2 -6,-5 4,-6 6,-3 v -8 l 7,-2 -10,-11 1,-15 -3,-4 v -12 h -8 l -5,-3 -1,-4 -4,-1 -8,1 -6,-2 -10,4 -4,-1 -9,-6 -3,1 -8,-2 -18,6 -4,-2 h -5 l -1,3 h -5 l -1,-3 -4,-1 -7,2 -2,-1 -3,6 -9,1 -10,-2 h -14 l -15,-3 -5,1 -15,-5 -1,11 2,4 -2,1 -21,-5 -3,3 -3,-5 h -6 l -4,2 -22,-2 -3,4 -5,2 h -12 l -2,2 2,6 h -2 v 6 l -3,2 -14,-1 v -3 l -6,4 h -7 l -1,-3 -6,2 -2,10 -2,3 3,5 -1,3 -6,2 -9,10 -6,2 -4,-2 -2,2 h -7 l -2,10 -6,3 -6,17 -5,-1 -7,3 -3,-2 h -6 l -4,2 2,3 -1,6 3,6 8,4 5,5 h 5 l 2,2 7,1 8,4 3,4 -5,6 1,3 7,2 6,7 -4,2 v 6 l 5,1 v 3 l 11,1 1,2 7,2 2,-3 v -10 l -3,-3 2,-5 13,-1 3,-2 5,4 5,-2 3,2 5,-2 16,7 14,2 4,-2 9,3 8,-3 19,4 7,-1 6,2 4,-2 4,3 3,-3 9,1 2,2 18,3 4,18 8,5 v 3 l 7,1 1,4 5,6 -1,6 2,2 8,-1 6,2 1,4 6,-3 v -3 l 10,-3 12,4 2,-3 5,-1 10,1 1,3 h 3 l 7,-8 h 5 l -2,-3 6,-11 h 5 l 6,-7 7,7 10,-1 3,-2 6,1 v -17 l 5,-7 8,1 4,3 5,-3 v -3 h 4 l 1,-7 15,-5 8,3 14,-4 12,-1 6,-15 -1,-5 2,-3 -2,-5 z"
     id="巫溪县" />
  <path
     stroke="#ffff00"
     stroke-opacity="1"
     stroke-width="0.5"
     stroke-linecap="round"
     stroke-linejoin="round"
     stroke-dasharray="none"
     fill="#1e90ff"
     fill-opacity="1"
     fill-rule="evenodd"
     d="m 891,502.99998 -1,-3 2,-7 -5,4 -1,-6 -4,-1 1,-4 3,-2 v -4 l -2,-2 -4,5 -6,1 -14,27 -2,9 -6,7 v 3 l -7,7 v 3 l -8,-2 -5,7 -3,-6 -6,-2 -5,-5 -6,5 -8,-2 -4,1 -8,7 -7,13 -4,2 h -9 l -5,4 v 3 l 4,-1 8,6 11,-2 6,4 v 2 l -6,8 v 2 l -7,-1 2,4 -1,4 4,3 v 3 l -5,5 1,4 -2,4 -1,-4 -3,-3 -4,2 -3,-3 1,7 3,2 -1,4 2,2 6,-4 1,2 -3,5 4,1 -3,4 -5,-3 -8,12 -5,1 -1,5 -3,3 5,1 6,11 -3,7 -10,17 -7,2 -2,-2 1,-5 -2,-2 -7,7 -1,6 -3,1 3,5 h 4 l 3,6 -3,6 3,1 2,9 -5,8 -3,-3 h -3 l -3,5 12,13 4,10 h 3 l 2,2 -5,2 2,4 6,1 5,6 v 2 l -5,6 9,8 6,-1 8,-5 9,3 1,6 9,-3 1,7 5,1 1,3 -3,4 3,5 9,5 -11,15 -4,-3 -2,2 1,4 3,1 -5,10 4,4 -2,6 -7,4 1,3 -5,4 2,5 2,1 5,-1 v -5 l 10,-3 5,-8 -1,-6 5,-5 -1,-2 3,-4 -2,-3 3,-6 4,1 2,-2 9,7 9,2 1,-3 3,4 4,1 3,5 9,-4 h 3 l 6,4 -5,-19 12,-25 -9,-1 1,-9 7,-5 -2,-3 3,-2 3,4 12,-11 7,4 1,3 12,-1 2,-4 5,-1 3,6 2,-20 -3,-8 10,-28 -5,-3 1,-16 -2,-3 2,-2 -3,-2 -2,3 v -5 l 3,-4 h 2 l 13,-34 -5,-4 v -4 l 6,-22 -1,-4 2,-1 3,-8 -5,1 -2,-4 -6,-3 v -2 l -3,-1 -1,-6 -3,-1 v -4 l -4,-5 h -6 l -11,-12 -3,-6 -10,2 -4,-5 -7,-4 -1,-6 8,-2 v -7 l 3,-2 -6,-9 3,-5 v -7 l -3,-4 z"
     id="石柱土家族自治县" />
  <path
     stroke="#ffff00"
     stroke-opacity="1"
     stroke-width="0.5"
     stroke-linecap="round"
     stroke-linejoin="round"
     stroke-dasharray="none"
     fill="#1e90ff"
     fill-opacity="1"
     fill-rule="evenodd"
     d="m 1000,1338 2,9 7,4 -1,5 10,5 2,4 -6,17 8,3 -2,5 v 8 l -6,10 3,4 -2,3 -9,5 -5,6 1,8 3,4 1,10 h 4 l 3,3 v 10 l 2,1 3,-8 9,-5 4,-8 5,-1 5,16 7,3 15,-8 6,2 2,-1 5,4 -2,3 1,4 10,3 8,5 3,4 h 5 l 3,-3 2,-4 v -9 l 4,-8 5,1 1,5 7,2 3,4 6,2 1,-4 5,-2 -2,-9 -4,-4 -2,-7 3,-5 h 3 l 7,-7 v -4 l 4,-4 5,-10 -1,-5 5,-5 v -2 l -5,-3 5,-10 2,-9 -1,-6 4,1 1,-7 h 3 v -6 l 6,-7 v -3 l 8,-5 5,3 17,-8 -1,-8 3,-2 -2,-2 v -6 l 5,-3 2,-8 4,-6 h 5 l -4,-8 -1,-9 -2,-2 -5,-1 -3,6 -7,3 -4,-1 -4,-4 -13,8 -7,-9 4,-6 4,-1 6,-5 18,-9 -1,-4 -5,-4 4,-4 3,1 4,-7 4,-2 -2,-3 4,-5 -1,-4 -7,-1 -2,-4 -6,-2 2,-4 -7,-1 v -31 l -3,-5 v -7 l -8,-1 -5,3 v 2 l -8,8 h -4 l -3,3 h -3 l -7,5 -5,1 -8,5 -1,4 6,-3 -1,4 -4,6 -13,10 1,3 -6,17 -9,12 -7,-4 -4,9 -3,-2 -10,30 -14,-5 -7,3 -5,-2 -10,3 -6,4 -7,1 -7,7 -5,9 v 6 l -8,1 -12,12 z"
     id="秀山土家族苗族自治县" />
  <path
     stroke="#ffff00"
     stroke-opacity="1"
     stroke-width="0.5"
     stroke-linecap="round"
     stroke-linejoin="round"
     stroke-dasharray="none"
     fill="#1e90ff"
     fill-opacity="1"
     fill-rule="evenodd"
     d="m 1186,1177 2,-5 6,-6 2,-18 4,-9 h 4 l 3,-6 1,-12 4,-2 5,-9 -3,-10 -4,-2 h -5 l -10,-7 h -8 l -4,-11 2,-3 -1,-4 -18,-17 -6,-4 -3,4 -6,1 -6,-9 v -4 l -4,-6 11,-23 -4,-5 -9,-3 3,-11.00002 -2,-2 2,-5 v -12 l -12,-13 -10,-5 -7,11 v 7 l -13,-1 -1,3 -4,2 1,6 -5,3 -6,-1 -14,2 -4,6 -1,7.00002 4,1 1,4 7,4 6,1 -6,12 -4,4 -1,5 -3,3 -7,2 -15,32 -3,12 -5,-2 v -3 l -8,-2 -3,-3 -10,2 v 5 l -10,1 v 7 l -8,5 -9,-6 -1,-3 -4,-3 h -7 l -2,2 2,3 -2,3 2,5 -3,3 -5,-5 -6,4 h -3 l 1,-6 -4,-3 1,-6 h -3 l -3,9 -5,-3 4,-5 -10,-7 -4,-7 -11,5 v 4 l -4,8 -4,2 h -5 l -7,4 -3,-1 -3,6 -4,3 -4,-2 -7,8 -8,-1 -17,11 -6,7 -1,4 -6,1 4,19 6,2 3,3 1,4 v 10 l 3,6 -1,9 -3,6 3,10 v 8 l 10,3 2,8 -1,6 -4,2 -1,3 -9,10 v 11 l -5,13 4,2 3,-1 14,10 17,7 h 9 l 3,3 7,-1 4,2 1,-5 5,-1 8,-5 3,2 5,-1 1,-5 4,1 4,5 v 3 h 4 l 4,3 6,-4 3,1 1,8 -11,13 2,21 h -8 l -6,4 2,8 -1,5 5,10 -1,4 4,3 2,7 3,2 -1,11 -8,1 -3,6 -1,11 2,9 h 6 l 5,8 11,-4 h 10 l 3,-5 -2,-4 -4,2 -1,-5 3,-8 10,-6 1,-3 -3,-8 -7,-4 -2,-5 -8,-5 2,-5 4,-4 5,1 6,-3 h 5 l 3,-7 5,3 3,-10 12,-12 8,-1 v -6 l 5,-9 7,-7 7,-1 6,-4 10,-3 5,2 7,-3 14,5 10,-30 3,2 4,-9 7,4 9,-12 4,-9 2,-8 -1,-3 13,-10 4,-6 1,-4 -6,3 1,-4 8,-5 5,-1 7,-5 h 3 l 3,-3 h 4 l 8,-8 v -2 l 5,-3 z"
     id="酉阳土家族苗族自治县" />
  <path
     stroke="#ffff00"
     stroke-opacity="1"
     stroke-width="0.5"
     stroke-linecap="round"
     stroke-linejoin="round"
     stroke-dasharray="none"
     fill="#1e90ff"
     fill-opacity="1"
     fill-rule="evenodd"
     d="m 850,1128 6,-1 1,-4 6,-7 17,-11 8,1 7,-8 4,2 4,-3 3,-6 3,1 7,-4 h 5 l 4,-2 4,-8 v -4 l 11,-5 6,-10 -7,-9 -3,-8 3,-6 5,-2 2,-12 -1,-5 4,-6 v -3 l -4,-7 -4,-1.00002 -4,-4 v -5 l 4,-11 -5,-12 2,-3 1,-10 7,-2 6,-10 -4,-10 2,-5 -9,-6 h -8 l -11,-4 -3,1 -2,-7 4,-9 3,-3 8,2 4,-3 v -4 l -5,-6 v -7 l -6,-6 -2,-5 -2,1 -2,-4 -5,-1 1,-8 5,-10 v -4 l 7,-3 1,-6 -7,-4 -6,-7 -8,-2 -3,-5 h -8 v -7 l 3,-3 -1,-5 -8,1 -2,-6 4,-7 -1,-4 -6,-3 -1,-5 -4,-1 v 8 l -12,25 5,19 -6,-4 -12,4 -3,-5 -4,-1 -3,-4 -1,3 -9,-2 -9,-7 -2,2 -4,-1 -3,6 2,3 -3,4 1,2 -5,5 1,6 -5,8 -10,3 v 5 h 4 l 1,9 -1,3 h -4 l -2,6 -3,2 -8,-2 -12,2 -8,-8 -4,2 3,3 3,8 -3,4 -3,1 v 4 l 3,3 v 4 l -22,19 1,9 -2,14 -3,3 v 6 l -5,5 1,8 -6,14 3,5 v 5 l 7,10 L 735,1007 v 11 l 5,6 -1,8 -3,-3 -4,8 -5,3 -1,5 -10,8 -3,-3 -8,-2 -5,3 2,5 -2,2 -2,21 -4,4 2,9 -2,3 -4,1 1,8 -9,7 -4,-1 -6,3 -1,12 -3,9 6,3 5,5 9,2 2,-10 4,-1 2,-6 -1,-3 h 8 l 9,-11 h 22 l 11,-2 4,-3 1,-3 12,-14 15,5 7,5 1,4 h 6 l 8,-5 10,-2 2,6 h 4 l 5,4 -2,6 7,2 5,-6 1,-9 4,-11 h 6 l 6,3 1,2 -3,13 4,12 v 6 z"
     id="彭水苗族土家族自治县" />
</svg>