<svg xmlns="http://www.w3.org/2000/svg" id="svg1" version="1.1" viewBox="-251 -228 1789 1704">
  <path id="万州区" fill="#ff6347" fill-opacity="1" fill-rule="evenodd" stroke="#ffffff" stroke-dasharray="none" stroke-linecap="round" stroke-linejoin="round" stroke-opacity="1" stroke-width="0.5" d="m749 467 7 1 7-4 4 1 2 3 5-1 1-7 2-1 6 3v3l-3 1 3 5 6-1 3 13 4-2 3 1-2 6 4 6 3-3 4 1 4 7 9 9v9l4 5-7 10 5 5 6 2 3 6 5-7 8 2v-3l7-7v-3l6-7 2-9 14-27 6-1 4-5 2 2v4l-3 2-1 4 4 1 1 6 5-4-2 7 1 3 10-3 1 3h9l5-5h7l6 6 5-2 5 2 3 8 6-8 4-1v-2h3l4-4-2-3 6-2-1-3 11-7v-7l-3-8 5-5h13l3 10v8l5 2v7l5 3-1 3 8 6 6-5 4 1 6-4 4 3 2 6 12-5 20-23v-4l6-6-15-13 1-3 11-12-2-16-4-1-1-3-17 7-3-1-2-5-2-1-11 5-3-1 1-5 4-4-1-3h-9l1-3-2-3 2-6-5 1-5-15 3-3-3-2-2-12-13 1v-4l-5-6v-4l-5-3-7-16-6 2-4 4-1-16 2-2-3-4v-3l-4-1-5 7-10 4-5-2-6-18-5-6 3-2 1-8-6 3-4-1-2 2 1 4-3 2-3-2-10 4-2-1v-10l-5-4-16 5-15 13-6-1 4 10 4 3-5 5-17 9-15 11-6-4 1-3-6 4v11l-4 1-13 12-6-1-3-3-9 1-3-4-1 3-4 2-5-8-3-10 5-3-8-3-3-3-1 2-10 5-2 3-10-16-3-2-16 12-1 5-9 5-12 11-7 9 10 16 1 5 4 2 15 17 19 4 13-6h10l4 4-4 7 3 8-1 6-9 2-5-1-6 5-3 9 3 11 3 4-2 2z"/>
  <path id="涪陵区" fill="#ff6347" fill-opacity="1" fill-rule="evenodd" stroke="#ffffff" stroke-dasharray="none" stroke-linecap="round" stroke-linejoin="round" stroke-opacity="1" stroke-width="0.5" d="m628 870-1-1 7-16-8-1-4-3-4 1-2-5-4-4-5-1-5-6 4-16-6-6 6-3-1-22-6 5-6-2v-11l-4-1 4-7 3-1 1-5 4-3-5-1-6-5 2-4-3-8-6-3-2-4 2-4-2-3-4 2-5-6v-3l-5-1-4-4-3 8h-5l-1-5h-4l-7-11-5-2-12 15-2-2-12 19 1 2-3 5 1 4-4-3-3 4-7 2-2 8-8 12-5-1-1 3-9 1-1-6-11 5h-11l-1 7 2 3-5 3-4 6-13 4-18 13-6-3-6 1v4l-10 7-6 7-6 2-3-1-3 15-13 40-2 13 1 7-3 10v6l7 3h5l5 3 4 5 3-7h3l-2 6 7 2v6l-3 5 1 13 2 2-3 1 3 5 6-1 1 2-4 5 11 6 10 1 5-3-2-7 1-3 5 2 3-3 5-1-1-5-3-1 7-3 2-3 5 7 4-2 7 1-2 5h6l-3 5v9h12l1-6-2-6-4-5v-5l5-4 2 1 6-2v-3l5-1 11-11 8-18 7-3h4l3-3h5l4-3 13 10 2 10 3-4 4 1 9-7 1 4 13 15 6 16 6-4 2-6 3-3 5 1 1-5 6-7 9-1-2-12-2-1v-8l8-3 8-6 13-19 4-3z"/>
  <path id="渝中区" fill="#ff6347" fill-opacity="1" fill-rule="evenodd" stroke="#ffffff" stroke-dasharray="none" stroke-linecap="round" stroke-linejoin="round" stroke-opacity="1" stroke-width="0.5" d="m223 889-6 4-4-2h-6l-5 6-11-2-7 4h5l2 7 11 1 3-5h6l10-3 2-4z"/>
  <path id="大渡口区" fill="#ff6347" fill-opacity="1" fill-rule="evenodd" stroke="#ffffff" stroke-dasharray="none" stroke-linecap="round" stroke-linejoin="round" stroke-opacity="1" stroke-width="0.5" d="m163 950-1-1-2 3-2-8h-5l-1 4 2 7-3 2 2 9 5 8-5 4 1 7h4l9-5 7-11 14-8 13 4 2-1-3-8-10-15 1-13 3-2 4 1 1-2-7-4-9 2-4-3-5 6 3-1 3 4-4 1-3 7 2 3v12l-2 3-5-2-3 1z"/>
  <path id="江北区" fill="#ff6347" fill-opacity="1" fill-rule="evenodd" stroke="#ffffff" stroke-dasharray="none" stroke-linecap="round" stroke-linejoin="round" stroke-opacity="1" stroke-width="0.5" d="m177 873-4 10 4 2 9 11 5-1 11 2 5-6h6l4 2 6-4-3-3v-5l3-8 5-3 7 1 4 9 3 2 5-2 6 11 4 2 10-7 8-2 3-3 3-7 7-1 9 2 3 6 7-1 9 7h2l4-11 12-23-6-1-4 5-6-5-6-2-3 2-2-2 1-3h-6l-5-3-4 7-10 4-2-1-1-7-2 4-2-2-4 11-4-3-1 7-8 3-15-6h-19l-4 2-2 6-2-1-4 7v6l-4 4-7-3-9 6h-3l-4-5-1-5 3-1-4-6-1 2z"/>
  <path id="沙坪坝区" fill="#ff6347" fill-opacity="1" fill-rule="evenodd" stroke="#ffffff" stroke-dasharray="none" stroke-linecap="round" stroke-linejoin="round" stroke-opacity="1" stroke-width="0.5" d="m184 899 4-3h-2l-9-11-4-2 4-10v-3l-4-2v-5l6-5v-5l-4-5-3 3v4l-9-2 2-2-1-8 6-26-5-3h-4l-3 5-6-1-4-3h-6l-1 5-13 1v2l-4-4-4 1-3 12-5 4-1-2-1 11h2l1 5-3 5 3 7-3-1-2 3 3 2-2 6-4 2-2 6-3 14 1 11 4 3 7-3 3 1 2-5 3 2 2-3h8l3-4 5-2 9 5v4l4-1 1-3 3 3h4l-2 20h6l1-2 6 1 6-16 8-3z"/>
  <path id="九龙坡区" fill="#ff6347" fill-opacity="1" fill-rule="evenodd" stroke="#ffffff" stroke-dasharray="none" stroke-linecap="round" stroke-linejoin="round" stroke-opacity="1" stroke-width="0.5" d="M101 905v5l3 2-1 9h3l-3 12 1 6 6 1 2 3 5 1 3 2v3h5l1 3-2 2 4 1 1 7-3 4-3-1-2 4h-5v-2h-4l-1 7-2 2 1 4-4 1-2 6 4 3 1 3 5 1-4 14 7 12 5 1 10-4 6-5 10-3 4-5-3-7 3-11 2-1-1-7 5-4-5-8-2-9 3-2-2-7 1-4h4l3 4v4l2-3 3 5 3-1 5 2 2-3v-12l-2-3 3-7 4-1-3-4-3 1 5-6 4 3 9-2 7 4-1 2 8 3 3-9-6-5-1-9-11-1-2-7h-5v3l-8 3-6 16-6-1-1 2h-6l2-20h-4l-3-3-1 3-4 1v-4l-9-5-5 2-3 4h-8l-2 3-3-2-2 5-3-1-7 3zm62 44zm-5-5-1-1z"/>
  <path id="南岸区" fill="#ff6347" fill-opacity="1" fill-rule="evenodd" stroke="#ffffff" stroke-dasharray="none" stroke-linecap="round" stroke-linejoin="round" stroke-opacity="1" stroke-width="0.5" d="m300 881-3-6-9-2-7 1-3 7-3 3-8 2-10 7-4-2-6-11-5 2-3-2-4-9-7-1-5 3-3 8v5l3 3v6l-2 4-10 3h-6l-3 5 1 9 6 5v3l7 1 3 6 3-1 3 4 4-5 8 4 5-2 5 3 1-2 6 4 5-4-2-3 4-3v-3l4 1v2l12-2 10-18 2-8 6-11z"/>
  <path id="北碚区" fill="#ff6347" fill-opacity="1" fill-rule="evenodd" stroke="#ffffff" stroke-dasharray="none" stroke-linecap="round" stroke-linejoin="round" stroke-opacity="1" stroke-width="0.5" d="m245 673-8 3-13 13 2 3v4l-9 8-10 32-7-4-2 8-5-2-7 10h-3l-1 6-4 4v5l-5 1 4-7-2-1-2 4-3-2 7-17-3-1-4 8-4 2-3-1 2 5-2 4-6-2-4-4-2-4v-6l-3-3-25 18 4 6 1 5h3l-2 5 4 2-2 4 3-1-1 8 3 2 8-1-10 15-4 3-4-1-3 4-3 12 4-1 4 4v-2l13-1 1-5h6l4 3 6 1 3-5h4l5 3-6 26 1 8-2 2 9 2v-4l3-3v-8l4-4 7-1 3 4 4 2 3-4-1-3 2-4 7-5v-3l-4-5-2-9-2-2 6-3v4l3 2-3 1v4l4-2h5l6-4 6 4v-3l6-3-5-7 6-6h-3l-3-4 1 4h-4l1-5 4-2v-4l6-3 3 1-1-4h5l5-4 1-6 3-2 4-13 2 1 2-4-4-2 4-5-1-2 4-3-5 2 2-40-3-4 2-12z"/>
  <path id="綦江区" fill="#ff6347" fill-opacity="1" fill-rule="evenodd" stroke="#ffffff" stroke-dasharray="none" stroke-linecap="round" stroke-linejoin="round" stroke-opacity="1" stroke-width="0.5" d="m393 1171-5-10h4l1-6-2-4-3-1-5 2-5-5-1-7 4-2 2-5-9-12-5-2-4-5 3-5-4-5v2l-5-3h-3l-2-6-4 13-4-3-2 1-2-3-4 1 6-20-4-6-7-7-2-5-7-4-3 1-3-3-11 3-4-12-3-1-3 5-2-3-4 5-3 1v-3l-7-3-7 6-6-7-5 1-5-5-2 6-1-1-3 3-1 4-5-1 1-6-5 1-6 6-7 14h-6l-2-2-3 1-1 5 3 3-1 7 4 15v11l2 4 5 2-6 4-3-1-2-6-6 2-2 5h-2v-8l-2-5h-7v-3l-4-7-4-1-2-3 1-3-4-2-2 7 2 9-5 8v5l-8-2-4-8 7-2-7-4v5l-9-4-7 9-5-1 7 21-2 7 3 4-2 5 3 8v13l2 6 7 2 4 3 3 11 3 3 4-1 6 11 11 5 1 5 4 1v4h5l5 6 1 4-2 10 6 8h2l2 5 4-1 3 3 5-1-2 3 1 6 4 3 6-2 3 6-4 2h-8v3l3 1 3 5v4l-2 4-6-2-3 6 4 13-1 5-11 11h-6l-3 4 3 4-2 3 2 6 8-2 1-5-3-3 3-1 7 5 8-2-1 5 7 5 4-6 6 5 4-2 3 3-1 9 5 3 3-3 3 1 3-4 5-1v-10l-8-16 2-5 3-5 15-4 1-5-8-5v-10h5l3-6 4 4v4l6 7 7-4 2-6-2-4 14-1 6-28-8 1-3-7h3l-3-7-9-6-2-7 4-5 2 1 2-7 6 1 1 2 4-2 8-9 3 2 7-6 6 12 3 2 1 4 6-3h7l-2-16 3-7-3-9 13-4-1-9 8 1 1 7 7-2-5-3 3-6z"/>
  <path id="大足区" fill="#ff6347" fill-opacity="1" fill-rule="evenodd" stroke="#ffffff" stroke-dasharray="none" stroke-linecap="round" stroke-linejoin="round" stroke-opacity="1" stroke-width="0.5" d="m-180 844 3 1-1 5 3 7 5 4-2 12 5 10 7-2 2 2v5l2 1 5-7 7-2 3 1 2 6 3 2-1 8-3 1 1 4-4 10 3-1 1 6 5-2 4 2v4l4 4v3l2 2 4-5-3-2 1-7 2 5 6-2-4 6 2 2 1 8 10 6 10-7 3 6 4 2 1 4-4 5 3 2-4 8 6 1-4 5h2l5 5 7-3 2-6-1-6 12-12 5-22 6-16 8-5 5 1 3-2-1-4 6-8 12-10 8-13 8-9 5-10 5 3 3-8 12-18-4-4 1-6-5-1-2 2H9l-1-9-3-5-5-2-2 2-10 2-8-5-6 1v-4l-4-3-2 5 2 2-2 5-4 2-3 5h-14l-3-2-1-5-5 1 1-5-7-4-4-8-1 4-5 4-6-4-9 6h-3l4-9 4-4-4-6 5-5v-5l-2-1-5 1 1 3-5 4-4-1-2-4-5-1-6 6-2-2-5 4-9-4-4 7-1 5-5-3-3 14 2 2-5 7 1 10-4 3v6l-3-1-3-5-2 5 3 2-8 6 4 5-4 1-3-5-8-2-3-5-3 1-3 5v4l3 2z"/>
  <path id="渝北区" fill="#ff6347" fill-opacity="1" fill-rule="evenodd" stroke="#ffffff" stroke-dasharray="none" stroke-linecap="round" stroke-linejoin="round" stroke-opacity="1" stroke-width="0.5" d="m334 853 4-9 9-4 5-7 1-8 9-17-2-4-3 2-2-6h-2l2-4-4-5 1-15-3-1 1-4 2-1 1-9 3-2 3-9 8-13-5-2-2-6h-7l-1-5h-3l-1-5-9 2-7-7-1 3-3-2-3 3-2-3 1-11-4-1 2-6-7-9h-2l-2 7-7 2-4-1-1 3-5 3h-6l-1-3-2 2-6-3h-4l-2-3v-10l-10-8 1-18-4 1-1-3-5 1-2 8-5 7h-2l10 9-2 12 3 4-2 40 5-2-4 3 1 2-4 5 4 2-2 4-2-1-4 13-3 2-1 6-5 4h-5l1 4-3-1-6 3v4l-4 2-1 5h4l-1-4 3 4h3l-6 6 5 7-6 3v3l-6-4-6 4h-5l-4 2v-4l3-1-3-2v-4l-6 3 2 2 2 9 4 5v3l-7 5-2 4 1 3-3 4-4-2-3-4-7 1-4 4v8l4 5v5l-6 5v5l4 2v3h6l1-2 4 6-3 1 1 5 4 5h3l9-6 7 3 4-4v-6l4-7 2 1 2-6 4-2h19l15 6 8-3 1-7 4 3 4-11 2 2 2-4 1 7 2 1 10-4 4-7 5 3h6l-1 3 2 2 3-2 6 2 6 5 4-5z"/>
  <path id="巴南区" fill="#ff6347" fill-opacity="1" fill-rule="evenodd" stroke="#ffffff" stroke-dasharray="none" stroke-linecap="round" stroke-linejoin="round" stroke-opacity="1" stroke-width="0.5" d="m209 924-3 6-12-4-3 2-1 13 10 15 3 8-2 1-13-4-14 8-7 11 2 1 5-1 2-3h7l-2 2v8l5 18 8 6-2 4 3 1 1 5 2 1-2 9 2 3 6 1 1 3 3 1-2 8 1 4 6 9-4 3v4l4 5 5 2 3-1 2 2h6l7-14 6-6 5-1-1 6 5 1 1-4 3-3 1 1 2-6 5 5 5-1 6 7 7-6 7 3v3l3-1 4-5 2 3 3-5 3 1 4 12 11-3 3 3 3-1 7 4 2 5v-5l6-8v-7l-4-1-1-4 6-3 3 7 10-1 3-3-1-3 4-2 2-5-4-6-1-10-7-2-1-9-3-1-2-20 1-31 4 2v-21l8-36-1-7 2-13 13-40 3-15-1-8-3-2-1-4 2-4-2-5-6 2-9 17-1 8-5 7-9 4-16 32-4 11h-2l-9-7-7 1-11 17-2 8-10 18-12 2v-2l-4-1v3l-4 3 2 3-5 4-6-4-1 2-5-3-5 2-8-4-4 5-3-4-3 1-3-6z"/>
  <path id="黔江区" fill="#ff6347" fill-opacity="1" fill-rule="evenodd" stroke="#ffffff" stroke-dasharray="none" stroke-linecap="round" stroke-linejoin="round" stroke-opacity="1" stroke-width="0.5" d="m940 1069 4 7 10 7-4 5 5 3 3-9h3l-1 6 4 3-1 6h3l6-4 5 5 3-3-2-5 2-3-2-3 2-2h7l4 3 1 3 9 6 8-5v-7l10-1v-5l10-2 3 3 8 2v3l5 2 3-12 15-32 7-2 3-3 1-5 4-4 6-12-6-1-7-4-1-4-4-1 1-7 4-6-1-3 6-15 1-12 3-5-4-9-12-4-5 1-4-4v-6l-3-3 1-6 6-5 1-4v-10l-4-4 13-14-5-5 4-3-3-5-6 7-6-4 7-13-3-5-4-1-5 3-4-10-4 3-2-1 3-6-3-1-4 11 1 5-2 1-4-4-6 3-2-5 4-1 2-5-1-5-4-2 1-6h-12l2 5 2-2 4 3-1 6 4 3-3 1-4-4-1 4-3 1-4-3-3-6-9-3 3-6-3-3-7 4-2-1 3-5-4-7 2-8-4-3v-6l2-4-1-12-3-5-5-2 5-1-2-10-3-2 2-2-11-1v-4l-4-1-5 2-2-1-5 4v3l-4 1 1 6-8 5-9 13-4 10 6 3 3 3v3l-10 5-1-2-5 3 4 4-3 5 7 4-1 6-7 3v4l-5 10-1 8 5 1 2 4 2-1 2 5 6 6v7l5 6v4l-4 3-8-2-3 3-4 9 2 7 3-1 11 4h8l9 6-2 5 4 10-6 10-7 2-1 10-2 3 5 12-4 11v5l4 4 4 1 4 7v3l-4 6 1 5-2 12-5 2-3 6 3 8 7 9-2 5z"/>
  <path id="长寿区" fill="#ff6347" fill-opacity="1" fill-rule="evenodd" stroke="#ffffff" stroke-dasharray="none" stroke-linecap="round" stroke-linejoin="round" stroke-opacity="1" stroke-width="0.5" d="m362 808 6-2 2 5-2 4 1 4 3 2 1 8 3 1 6-2 6-7 10-7v-4l6-1 6 3 18-13 13-4 4-6 5-3-2-3 1-7h11l11-5 1 6 9-1 1-3 5 1 8-12 2-8 7-2 3-4 4 3-1-4 3-5-1-2 12-19 2 2 12-15-1-2 3-3-9-8-22 25-10-3-4 3h-4l-7-8-4-2v-2l6-2-3-4 3-1-1-7-5-4-7 1 1-2-5-3v-3l-6-6h4l3-2 1-6 5 2 2-3-1-4 3-6-1-6h-7l-1-4 7-11-5-4-7-11-10-7-22 27-12 11-2 5-9 3 2 4-3 6-3-2h-5l-3 6 4 7-3 6-7 4-2-5-3-1-2 3 2 5h-8l-2-7h-4l-7-13-7 1-4 6 1 3-3 8-3-1-9 4-1 3-11-3-8 2-2 6 4 1-1 11 2 3 3-3 3 2 1-3 7 7 9-2 1 5h3l1 5h7l2 6 5 2-8 13-3 9-3 2-1 9-2 1-1 4 3 1-1 15 4 5-2 4h2l2 6 3-2zm32-117h-2l1 1z"/>
  <path id="江津区" fill="#ff6347" fill-opacity="1" fill-rule="evenodd" stroke="#ffffff" stroke-dasharray="none" stroke-linecap="round" stroke-linejoin="round" stroke-opacity="1" stroke-width="0.5" d="m-53 1151 8 7 8-3 5 3v7l7 4 3-3-2-6 3-4 6-1 8-8 1-3 4-2 2 2 4-2-5-4 4-2 6 2 8 10 7-2 2 5-3 1 1 13 3 1 4-5h3l6 4v2l5 2 12-2 6 1 5-3 4-5 6 5 6 2 3 5 4 1v4l6 5 4 1v4l4 4-2 6-5 3 3 3-4 1 3 12 6 3 2 17 5 3 6 9 1 14 5 4-6 7 3 4 6 2-1 8 8 13-3 8 2 1-5 4 3 3 1 6 3-4 5 6h4l1-3-2-2 6-6-1-3 5-4 5 3h4l3 3 2-2 6 4-1 2 5 2 2 4h5l3-3 3 2 1-4-6-6-3-7-5-5 3-5 9 5 4 9 5-5h-4l-7-9 1-7 2-1v-4l2-3-2-11h7l3-5-5-6-2-11-4-1-2-9-11-9-3-6-1-7 4-2-1-3-3-2 1-3 5-4-5-5-3-11-4-3-7-2-2-6v-13l-3-8 2-5-3-4 2-7-7-21 5 1 7-9 9 4v-5l7 4-7 2 4 8 8 2v-5l5-8-2-9 2-7 4 2-1 3 2 3 4 1 4 7v3h7l2 5v8h2l2-5 6-2 2 6 3 1 6-4-5-2-2-4v-11l-4-15 1-7-3-3 1-5-5-2-4-5v-4l4-3-6-9-1-4 2-8-3-1-1-3-6-1-2-3 2-9-2-1-1-5-3-1 2-4-8-6-5-18v-8l2-2h-7l-2 3h-7l-9 5-6 1-3 11 3 7-4 5-10 3-6 5-10 4-5-1-7-12 4-14-5-1-1-3-4-3 2-6 4-1-1-4 2-2 1-7h4v2h5l2-4 3 1 3-4-1-7-4-1 2-2-1-3h-5v-3l-3-2-5-1-2-3-6-1-5 9-1 8-8 24-17 19-8 3-1 3-6-1-6 7-2-2-1-5-6 2-4-4 1-3-5-5-11-2-2 5-2 25-6 4-4 12H7l-10 15-1 9-4 2 1 2-5 8h-2l-2 5-5 3-1 4-3 2 2 6 3 1-1 9-8 3-5 8-7 2-3 5 1 11-3 4-9 5v5z"/>
  <path id="合川区" fill="#ff6347" fill-opacity="1" fill-rule="evenodd" stroke="#ffffff" stroke-dasharray="none" stroke-linecap="round" stroke-linejoin="round" stroke-opacity="1" stroke-width="0.5" d="M245 673h2l5-7 3-23-4-1-1-5-3 1-2-3-4-2 3-4-6 2 1-6-2 1-1-6 3-2-5-6-3 1-1-3h5l4-5 3-1-2-7h-3l-2-7-4-4-8-1-1-4-5-1-5-4-4 2-1 6-9-1-4 4h-4v-3l-6-1-2-3-2 3h-8l1-4h-4l-2 2 3 4-1 2-2-2-3 1 3 6-10 1 5 6h3l-1 3h-4l-2 5h-3l-2-3-5-2 2 4-6-1-5 3-3-2-2 3h-3l-1 5-6-1-3-4h-3l2 5-5 2 1 7-4 1-2 3v-5l-6-3 3 4-2 5-7-2 1 3-3 5v-3h-3l3-6-3-5-7 4-3-2-1-3-3-1 3-5-8-2-1-7h-2l2-3 1-9-4-11-5-4-2 2-5-3-1-3-3-1v3l3 4-1 3-6-7-3 3-3-5h-3v-10l-4 1-2 4-1-3h-3l-10-8-1-6-7 1-4-2-3 4-5-2 3 9-3 4 1 7 2 2-5 6-2-1 2 8h3v4h6l4 2 1 3-2 4-8 4-1 7h5l3 3 1 5 5 5-5 6-6 4-6-4v5l5 5-4 5 1 4 7 6-2 4 2 2-5 5 2 4-4 4 2 6-1 7 3 8 3 3 8-1 10 6-1 3-7 2 1 4 3-2 14-2 17 2-2 5 2 2-1 6-3 6 5 7 4-1-3 4 1 3 6-3 5 4 13-5 1-2 3 3h4l1 4h7l-1 3 7 6 4 1 1 3 4-3-2 9h-4l2 3-3 6 2 3 17-17 25-18 3 3v6l2 4 4 4 6 2 2-4-2-5 3 1 4-2 4-8 3 1-7 17 3 2 2-4 2 1-4 7 5-1v-5l4-4 1-6h3l7-10 5 2 2-8 7 4 10-32 9-8v-4l-2-3 13-13zM98 748z"/>
  <path id="永川区" fill="#ff6347" fill-opacity="1" fill-rule="evenodd" stroke="#ffffff" stroke-dasharray="none" stroke-linecap="round" stroke-linejoin="round" stroke-opacity="1" stroke-width="0.5" d="m-113 1012 4 1 4-7 6-3 4 3-8 2v8l5 12-1 6 3 2-3 7v12l5 1 4 8 1 9 4-3 3 3-6 3-2 7v3l4 4 2 6 4 3-6 12 3 1 6 10-1 8 6 6 4 1 4 8h3l-2 4-3-1-1 3 2 3 12-3-2-4v-5l9-5 3-4-1-11 3-5 7-2 5-8 8-3 1-9-3-1-2-6 3-2 1-4 5-3 2-5h2l5-8-1-2 4-2 1-9 10-15h3l4-12 6-4 2-25 5-12-1-5 6-9 1-7-2-2 6-40-1-6 4-10 1-7-4 1-3 4-11 3h-8l-3 3-5-2v-7H4l-2 4-3-4-2 2-5-1-1-4h-6l1 2-6 3-4-1-3-5 1-5-5-3-6 8 1 4-3 2-5-1-8 5-6 16-5 22-12 12 1 6-2 6-7 3-5-5h-2l-5 5-2-1v3l-5 1-2 3-6 1-4 4-4-1v6l-3 6h-3v9l3 5 4 1z"/>
  <path id="南川区" fill="#ff6347" fill-opacity="1" fill-rule="evenodd" stroke="#ffffff" stroke-dasharray="none" stroke-linecap="round" stroke-linejoin="round" stroke-opacity="1" stroke-width="0.5" d="M393 1171h4l2 7-3 1-2 3 5 1 5-2 4-8 16 1 2 5 3-3 11 1 3-3 2 4-2 1 5 3-4 9v4h11l-4 4-2 5 1 9 2 2v7l10 4 3-2-1-5 4-5 5-3 18-4 7-9-5-5 11-3 2 2 6-2 4-5-1-3 5-9h4l-1-10 3-6 4-2 3-4-1-5h-6l-3-2-6-14h-10l-2-7 11-12-1-8h-4l-4-14 2-2 6 2 8-1 5-14-2-3-5-1 2-10-4-6-3-12 3-6v-12l7-11-6-3h-6l1-3-4-4h-3l4-4 3-8-9-6-6-2-1 2-9 1-2-4h-9l-7-4v-6l-4-5-7 2-1 6h-12v-9l3-5h-6l2-5-7-1-4 2-5-7-2 3-7 3 3 1 1 5-5 1-3 3-5-2-1 3 2 7-5 3-10-1-11-6 4-5-1-2-6 1-3-5 3-1-2-2-1-13 3-5v-6l-7-2 2-6h-3l-3 7-4-5-5-3h-5l-7-3-5 20v21l-4-2-1 31 2 20 3 1 1 9 7 2 1 10 4 6-2 5-4 2 1 3-3 3-10 1-3-7-6 3 1 4 4 1v7l-6 8v5l11 13-6 20 4-1 2 3 2-1 4 3 4-13 2 6h3l5 3v-2l4 5-3 5 4 5 5 2 9 12-2 5-4 2 1 7 5 5 5-2 3 1 2 4-1 6h-4z"/>
  <path id="璧山区" fill="#ff6347" fill-opacity="1" fill-rule="evenodd" stroke="#ffffff" stroke-dasharray="none" stroke-linecap="round" stroke-linejoin="round" stroke-opacity="1" stroke-width="0.5" d="m101 905-1-11 3-14 2-6 4-2 2-6-3-2 2-3 3 1-3-7 3-5-1-5h-2l1-11 1 2 5-4 6-24 3-4 4 1 4-3 10-15-8 1-3-2 1-8-3 1 2-4-4-2 2-5h-3l-1-5-4-6-17 17-13 17-8 6-6 2-5 6-7 5 3 3-2 13-3 5 5 8-2 4 1 2-8 6-8 10-6 26-7 10v9l-4 10 1 6-6 40 2 2-1 7-6 9 1 5-3 7 11 2 5 5-1 3 4 4 6-2 1 5 2 2 6-7 6 1 1-3 8-3 17-19 8-24 1-8 5-9-1-6 3-12h-3l1-9-3-2z"/>
  <path id="铜梁区" fill="#ff6347" fill-opacity="1" fill-rule="evenodd" stroke="#ffffff" stroke-dasharray="none" stroke-linecap="round" stroke-linejoin="round" stroke-opacity="1" stroke-width="0.5" d="m2 683-3-5-6-1 1 2-4 4-4-1 2-4-4-6-9-2-4 6 3 2-4 4 3 3-1 5-6-2-4 2-1 5 2 3-3 7 1 2 6-1 6 5 5 1-3 5 1 8h5v2l4 1 2 8-3 4 6 8-1 6-5 2-2 4 1 3-3 2-4-1-1-5-9-4-3-3-2 3-3-3-6 1-3 7-4-1-7 20-6 2-4 7 4 8 7 4-1 5 5-1 1 5 3 2h14l3-5 4-2 2-5-2-2 2-5 4 3v4l6-1 8 5 10-2 2-2 5 2 3 5 1 9h3l2-2 5 1-1 6 4 4-12 18-3 8-5-3-5 10-8 9-8 13-12 10 5 3-1 5 3 5 4 1 6-3-1-2h6l1 4 5 1 2-2 3 4 2-4h3v7l5 2 3-3h8l11-3 3-4 4-1-1-2 7-10 6-26 8-10 8-6-1-2 2-4-5-8 3-5 2-13-3-3 7-5 5-6 6-2 8-6 13-17-2-3 3-6-2-3h4l2-9-4 3-1-3-4-1-6-6v-3h-7l-1-4h-4l-3-3-1 2-13 5-5-4-6 3-1-3 3-4-4 1-5-7 3-6 1-6-2-2 2-5-17-2-14 2-3 2-1-4 7-2 1-3-10-6-8 1-3-3-3-8zm93 63 2 1zm-26-4z"/>
  <path id="潼南区" fill="#ff6347" fill-opacity="1" fill-rule="evenodd" stroke="#ffffff" stroke-dasharray="none" stroke-linecap="round" stroke-linejoin="round" stroke-opacity="1" stroke-width="0.5" d="m-89 768 2 1v5l-5 5 4 6-4 4-4 9h3l9-6 6 4 5-4 5-11 6-2 7-20 4 1 3-7 6-1 3 3 2-3 3 3 9 4 1 5 4 1 3-2-1-3 2-4 5-2 1-6-6-8 3-4-2-8-4-1v-2h-5l-1-8 3-5-5-1-6-5-6 1-1-2 3-7-2-3 1-5 4-2 6 2 1-5-3-3 4-4-3-2 4-6 9 2 4 6-2 4 4 1 4-4-1-2 6 1 3 5 1-3-2-6 4-4-2-4 5-5-2-2 2-4-7-6-1-4 4-5-5-5v-5l6 4 6-4 5-6-5-5-1-5-3-3H2l1-7 8-4 2-4-1-3-4-2H2v-4h-3l-2-8 2 1 5-6-2-2-1-7 3-4-3-9-3-3-11 3-1-3-5-2-3-5-5 4-1-4h2v-4l-11 3 4 3-3 2-3-6 1-3-4 1-6 6-2-3 2-5-3-2-2-6-4-3-7 4h-3l1 4-5 6h-4l-4 8 4 4-7 8 2 4-3 3-5 1 2 8-4 1-5-3-2 3 3 3-3 6v5l5 3 4-1-2 5 2 2-5-1 1 4-8-1-11 2-2-6-2 1-6-4h-8l-1 5-3 2 3 3v6l6 7 7-1 2 5-6 1-1 9h-9l-3 3-5-2-6 4-4-4-8 1-3 7v5h4l3 3 5-7 4-1 6 3-2 5-8 5 4 1 6 9 16 3-2 4 1 7 8 4 5-2 4 14 5-2 2 3 6-3 2 7 5-3 1 3 4 3-2 6-6 3-3 9 2 8-3 3-2 8-5 3 5 5-2 5 3 3h6v9zm-54-111-4-3z"/>
  <path id="荣昌区" fill="#ff6347" fill-opacity="1" fill-rule="evenodd" stroke="#ffffff" stroke-dasharray="none" stroke-linecap="round" stroke-linejoin="round" stroke-opacity="1" stroke-width="0.5" d="m-113 1012-8-4-3-5v-9h3l3-6v-6l4 1 4-4 6-1 2-3 5-1v-3l2 1 9-10-6-1 4-8-3-2 4-5-1-4-4-2-3-6-10 7-10-6-1-8-2-2 4-6-6 2-2-5-1 7 3 2-4 5-2-2v-3l-4-4v-4l-4-2-5 2-1-6-3 1 4-10-1-4 3-1 1-8-3-2-2-6-3-1-7 2-5 7-2-1v-5l-2-2-7 2-5-10 2-12-5-4-3-7 1-5h-20l-6-5-7 7-4-2-2 3 3 8-5 3 1 6-4 3-1-3-5 1-2 2-2 8-3 3h-3l1-4-3-2v3l-3 4 2 6-7 2-3 9 1 8 4 1 5 8 2 7-1 8 4 2 2 4v2l-4 3 3 3 4-3 6 2v-4l4-2 6 2 4 6-5 1 1 2-6 4h9l6 2 1-2 4 2 1 4 5 4v5l-4 3 2 4-1 3-6 4v15h11l2-5 4 3v4l3 1-3 2v6h-2l10 5 8-3v5l3 4 14-4 1-2 9 4 4-2 5 1v7l2-1 2-6 4-3 5 3-2 4 3 4h7l2-3-3-4z"/>
  <path id="开州区" fill="#ff6347" fill-opacity="1" fill-rule="evenodd" stroke="#ffffff" stroke-dasharray="none" stroke-linecap="round" stroke-linejoin="round" stroke-opacity="1" stroke-width="0.5" d="m934-1 2 3-5-1-5 2-3 4-2-1-7 8-7 1-1 8-3-5-5-2-7 6-2 5-6 2-5 7 2 5-6 2 5 5-1 6h-15l-3 3 3 6-1 4-8 6-4-2-6 1-5-2-2 3-6-1-2 2-6-3h-4l-3 4-10 2 1 10 5 2 1-2 5 1 1 6-6 7 2 4v6l-4 7-8 1-3 5-6 2-1 3 1 4 8 5 2 5-2 5-6 2-6 8-19 11-1 4-4 2h-5l-3 3-14 4 4 4-1 6 4 2 13-6-2 6 4-1 3 8-1 6-6 4v3l-5 6v5l-4-1-3 3-4 10h-4l-2 3 2 5 4 4 1 11 8 1 3 3-2 5-7 2-8 5h-3l-3 9-5 8-4 1-10-3-3 16 5 14h3l5 3h11l3 2 10 16 2-3 10-5 1-2 3 3 8 3-5 3 3 10 5 8 4-2 1-3 3 4 9-1 3 3 6 1 13-12 4-1v-11l6-4-1 3 6 4 15-11 17-9 5-5-4-3-4-10 6 1 15-13 7-3 1-3 5-3h7l8-4 2-7-1-6 4-2v-3l9-4v-2l10-2-1-5 8 2-4-6 5-5v-6l2-4 4-1 9-8-2-4-7-4 4-2v-7l3-13 9-12 3 1 5-5-3-6 7-3 2-4-7-8-2-5 3-4 20-2 1-2-2-4 5-7-6-1v-4l7-3 6 1 3-2-2-3 3-2 1-5 6-5v-3l-2-2h-5l-5-5-8-4-3-6 1-6-2-3 4-2h6l3 2 7-3 5 1 6-17 6-3 2-10h7l2-2 4 2 6-2 9-10 6-2 1-3-3-5 2-3 2-10h-4l-8-7-2-4-19-2-5 1-4-2-5 3-4 7-1 8-5 2-2 4-3-1-5 3-5-3-4 4h-13l-2 2-3-2v-5l-6-6h-6l-11-6-1-2h-5z"/>
  <path id="梁平区" fill="#ff6347" fill-opacity="1" fill-rule="evenodd" stroke="#ffffff" stroke-dasharray="none" stroke-linecap="round" stroke-linejoin="round" stroke-opacity="1" stroke-width="0.5" d="m692 366-10 8-12-2-7-7-5-2-3 2-4-1-3-5-1-9 2-5-3-1-1-4-4-5-8-1-4 7-5-1-16 21-5 3-6-5-1-4-6-3-5 2-2-3h-16l-3 4-1-4-3-3-12 7 4 2-1 5 3 5h-3l1 3-6 1-1 6-5 1 2 4-4 1-3-2-2 7 2 3-3 3h-5l5 11 7 7v9l5 2 2 6 8 2 7 5-9 12-3 9-6 5-3 6-12 10 6 5-4 5-5 3-4-2-1 3 7 2 8 5 6 7 6 1 6-6 5-1 2 3 5-1 2-4 4 1 2-2 1 5 3 1 3 5 9 1 6-2v3l7-6 3 1-1 6h9l4 2 1 5-7 9 2 5 20-26 9-15 3-2 11 7v3l7 6 3 6 4-1-2-4 3-11-2-6 5-10-1-4 13-2 3 5 6-1 2 2-2 3v11l4 4h5l2 3 9 4v-5l5-7 2-7 5 4 6-7 5-2 9-8 2-5-2-6 2-2-3-4-3-11 3-9 6-5 5 1 9-2 1-6-3-8 4-7-4-4h-10l-13 6-19-4-15-17-4-2-1-5-7-13z"/>
  <path id="武隆区" fill="#ff6347" fill-opacity="1" fill-rule="evenodd" stroke="#ffffff" stroke-dasharray="none" stroke-linecap="round" stroke-linejoin="round" stroke-opacity="1" stroke-width="0.5" d="m519 1050 10-2 4-6 8 4v8l4 2 5-1 10-9h6l7-6 1-4 4-1 4 6v8l5 10v6l4 1v-5l2-3h9l4 2h7l1 6 13 3 3-6 4-1 3-8-1-3 6-2 4-5 4 5-1 4 3 1 3 6h2l5 6 5 2 1 2-8 23-2 15 14 5 6-3 4 1 9-7-1-8 4-1 2-3-2-9 4-4 2-21 2-2-2-5 5-3 8 2 3 3 10-8 1-5 5-3 4-8 3 3 1-8-5-6v-11l3-11-4-4-3-6v-5l-3-5 6-14-1-8 5-5v-6l3-3 2-14-1-9 22-19v-4l-3-3v-4l3-1 3-4-3-8-10-7-9 2-16-4-4 3-2 5-5 3v-9l-5-13h-4l-19-6-5 1-6 5 1 11-5 15 3 9-1 5-3 1-1 5-2-4h-5l-1-4-4 1 1-3-10-4 5-2-3-1-2-5-4-2-9 7-6-5-5-8-1 4-4 3-13 19-8 6-8 3v8l2 1 2 12-9 1-6 7-1 5-5-1-3 3-2 6-6 4-6-16-13-15-1-4-5 2-4 5-4-1-3 4-2-10-13-10-4 3h-5l-3 3h-4l-7 3-8 18-11 11-5 1v3l-6 2-2-1-5 4v5l4 5 2 6 7-2 4 5v6l7 4h9l2 4 9-1 1-2 6 2 9 6-3 8-4 4h3l4 4-1 3h6l6 3-7 11v12l-3 6z"/>
  <path id="城口县" fill="#ff6347" fill-opacity="1" fill-rule="evenodd" stroke="#ffffff" stroke-dasharray="none" stroke-linecap="round" stroke-linejoin="round" stroke-opacity="1" stroke-width="0.5" d="m1203-19-1-3 2-7-5-4v-3l-5-1-1-4 10-4-2-10-7-1-6-4-3 1-7-3h-6l-1-5 2-6-3-6-9-8-12-7h-3l-4-6-16-14-4-1-7-9-2 1-5-2-12-7h-13l-5-4-13 2-10-7-13-16-10-4h-8l-5-3-3-5-6-3 1-6-2-5-8-3-19 1-3-4-4-2-3-5-15-11-5-2-3-6-12-1-15-11-6 3-5 5h-8l-8-4-4 2-6-4-14 10 14 14 9 17 3 3 4 1-1 8-7 5-6-4-7 2-7-5-4 3-7 1v3l6 3 1 8-9 6-4 1 12 9 3 4-7 8-5-5-4-1-7-5-3 3-5 1-1 3-6-2 1 5-3 3 6 4 4 8-1 9 2 3h4l3 2 6 10 4 2 2 6 4 3 7 2 5-1-1 2 4 10 17 8 5-3 3 1 1 4-4 5 1 3 8 3 3-1 10 8 7 1-10 10 4 4 3 11-4 3 6 7 16 3 1 2 11 6h6l6 6v5l3 2 2-2h13l4-4 5 3 5-3 3 1 2-4 5-2 1-8 4-7 5-3 4 2 5-1 19 2 2 4 8 7 10-2 1 3h7l6-4v3l14 1 3-2V0h2l-2-6 2-2h12l5-2 3-4 11 2h11l4-2h6l3 5 3-3 21 5 2-1-2-4 1-11 15 5z"/>
  <path id="丰都县" fill="#ff6347" fill-opacity="1" fill-rule="evenodd" stroke="#ffffff" stroke-dasharray="none" stroke-linecap="round" stroke-linejoin="round" stroke-opacity="1" stroke-width="0.5" d="m628 870 5 8 6 5 9-7 4 2 2 5 3 1-5 2 10 4-1 3 4-1 1 4h5l2 4 1-5 3-1 1-5-3-9 5-15-1-11 6-5 5-1 19 6h4l5 13v9l5-3 2-5 4-3 16 4 9-2 7 4 4-2 8 8h5l1-2 14 2 3-2 2-6h4l1-3-1-9-9 1-2-1-2-5 5-4-1-3 7-4 2-6-4-4 5-10-3-1-1-4 2-2 4 3 11-15-9-5-3-5 3-4-1-3-5-1-1-7-9 3-1-6-9-3-8 5-6 1-9-8 5-6v-2l-5-6-6-1-2-4 5-2-2-2h-3l-4-10-12-13 3-5h3l3 3 5-8-2-9-3-1 3-6-3-6h-4l-3-5-4 3-14-8-5-1-10-15v-3l-4-3-8 8-5-6-6-2-5 4-4-1-3-3 3-6 8-9 1-4-12-6-1-2-16-6-3-6 5-5v-6h-9l-1 5-3 2-2-4h-3v5l-6 1v-3l4 1-3-4 1-3-7 1-6 5-2-1-1-4 3-1 1-6-5-4-3 1-1 7-3 1-6 14-6-1-2 4-4 1 4 4-3 3-6 2-4 4v12l5 3-2 5-3-1-4 3v7l-11 6 4 5v3l-18 21-2 9-5 1 6 8h4l1 5h5l3-8 4 4 5 1v3l5 6 4-2 2 3-2 4 2 4 6 3 3 8-2 4 6 5 5 1-4 3-1 5-3 1-4 7 4 1v11l6 2 6-5 1 22-6 3 6 6-4 16 5 6 5 1 4 4 2 5 4-1 4 3 8 1-7 16z"/>
  <path id="垫江县" fill="#ff6347" fill-opacity="1" fill-rule="evenodd" stroke="#ffffff" stroke-dasharray="none" stroke-linecap="round" stroke-linejoin="round" stroke-opacity="1" stroke-width="0.5" d="m538 708 5 2 1 3 5-1 2-9 18-21v-3l-4-5 11-6v-7l4-3 3 1 2-5-5-3v-12l4-4 6-2 3-3-8-6-2-8-4 1 2 4-3 4-5 1-1-5 2-2-3-3v-3l3-1 2-6h5l-2-10 2-3h5l-2-5 6-3v-8l-9-3-1-3 9-10 3-7 7-7 3-6 7-3 4-6-2-5 7-9-1-5-4-2h-9l1-6-3-1-7 6v-3l-6 2-9-1-3-5-3-1-1-5-2 2-4-1-2 4-5 1-2-3-5 1-6 6-6-1-6-7-8-5-7-2-16 25-6 13-2 16-7 10-6 4-5 7-9 20-3 11-10 17 10 7 7 11 5 4-7 11 1 4h7l1 6-3 6 1 4-2 3-5-2-1 6-3 2h-4l6 6v3l5 3-1 2 7-1 5 4 1 7-3 1 3 4-6 2v2l4 2 7 8h4l4-3 10 3 22-25 9 8-3 3z"/>
  <path id="忠县" fill="#ff6347" fill-opacity="1" fill-rule="evenodd" stroke="#ffffff" stroke-dasharray="none" stroke-linecap="round" stroke-linejoin="round" stroke-opacity="1" stroke-width="0.5" d="m818 532 7-10-4-5v-9l-9-9-4-7-4-1-3 3-4-6 2-6-3-1-4 2-3-13-6 1-3-5 3-1v-3l-6-3-2 1-1 7-5 1-2-3-4-1-7 4-7-1-2 5-9 8-5 2-6 7-5-4-2 7-5 7v5l-9-4-2-3h-5l-4-4v-11l2-3-2-2-6 1-3-5-13 2 1 4-5 10 2 6-3 11 2 4-4 1-3-6-7-6v-3l-4-3-4-1-3-3-3 2-22 33-11 14-7 3-3 6-7 7-3 7-9 10 1 3 9 3v8l-6 3 2 5h-5l-2 3 2 10h-5l-2 6-3 1v3l3 3-2 2 1 5 5-1 3-4-2-4 4-1 2 8 4 2 4-1 2-4 6 1 6-14 3-1 1-7 3-1 5 4-1 6-3 1 1 4 2 1 6-5 7-1-1 3 3 4-4-1v3l6-1v-5h3l2 4 3-2 1-5h9v6l-5 5 3 6 16 6 1 2 12 6-1 4-8 9-3 6 3 3 4 1 5-4 6 2 5 6 8-8 4 3v3l10 15 5 1 14 8 7-4 1-6 7-7 2 2-1 5 2 2 7-2 13-24-6-11-5-1 3-3 1-5 5-1 8-12 5 3 3-4-4-1 3-5-1-2-6 4-2-2 1-4-3-2-1-7 3 3 4-2 3 3 1 4 2-4-1-4 5-5v-3l-4-3 1-4-2-4 7 1 6-12-6-4-11 2-8-6-4 1v-3l5-4h9l4-2 7-13 8-7 4-1 8 2z"/>
  <path id="云阳县" fill="#ff6347" fill-opacity="1" fill-rule="evenodd" stroke="#ffffff" stroke-dasharray="none" stroke-linecap="round" stroke-linejoin="round" stroke-opacity="1" stroke-width="0.5" d="m1068 464 25-21 3 3 4-4 4 3 5-7-3-3 3-6-2-5 3-3-2-6 4-4-4-2-1-3 11-5v-6l4-9-4-5-1-14 2-2v-4l-3-3 4-5 1-7 8-4 3 5 18-4-2-5h7l-2-10 7-2-1-4-3-3v-5l2-2 11 1 5 2v2l5 3 2-10-1-8-2-2 2-6 12-20-2-1-2-5-4-1-1-3-4 2-6-2-3-6h-9l-12 6-14-3v-15l2-3v-8l-16-5v-10l-3-3 1-10 6 3 3-4 6-1-1-14-6-10-3-12-8-3-3-3 8-15-2-6 2-7-2-5-8-1-16-7-5 2-3-2-5 2-5-4-3 2-13 1-2 5 3 3v10l-2 3-7-2-1-2-11-1v-3l-5-1v-6l4-2-6-7-7-2-1-3 5-6-3-4-8-4-7-1v3l-6 5-1 5-3 2 2 3-3 2-6-1-7 3v4l6 1-5 7 2 4-1 2-20 2-3 4 2 5 7 8-2 4-7 3 3 6-5 5-3-1-9 12-3 13v7l-4 2 7 4 2 4-9 8-4 1-2 4v6l-5 5 4 6-8-2 1 5-10 2v2l-9 4v3l-4 2 1 6-2 7-8 4h-7l-5 3-1 3 9-2 5 4v10l2 1 10-4 3 2 3-2-1-4 2-2 4 1 6-3-1 8-3 2 5 6 6 18 5 2 10-4 5-7 4 1v3l3 4-2 2 1 16 4-4 6-2 7 16 5 3v4l5 6v4l13-1 2 12 3 2-3 3 5 15 5-1-2 6 2 3-1 3h9l1 3-4 4-1 5 3 1 11-5 2 1 2 5 3 1 17-7 1 3 4 1 2 16-11 12-1 3z"/>
  <path id="奉节县" fill="#ff6347" fill-opacity="1" fill-rule="evenodd" stroke="#ffffff" stroke-dasharray="none" stroke-linecap="round" stroke-linejoin="round" stroke-opacity="1" stroke-width="0.5" d="m1138 470 4 8 4 4v3l5-1 1 4 4-1 7-9 8 1 20-16-7 1v-2l8-3 10-7 8-9 5 9 5-3-2 5-3 2 11 10 6 9v2l-9 13 2 3 1 8 3 3 6-6 18-25 7-16 7-7 9-4 4-6 13-11h4l1 5-3 4 2 2 9-4h4l5-7-3-3 4-9 4-3 8-1 9-7 4-8v-11l-6-13 1-4-4-8h-2l-8-7v-3l3-1v-6l-17-5-3-8 5-3 14-2-1-5-3-3-2-6 2-2-2-5 2-4-1-6 4-4 1-4-5-6 2-3 21-10 21-14 1-7 8-4 3-6h4l-2-6 4-7v-7l-3-6-7-1-14 3-13-6-8 3-6-5h-2l-1-7 4-5-1-3-5-2-10 2-3-1-4-7h-3l-1-3-10-1-5 1-2 3-12-4-6 1-4 2v3l-6 3-1-4-6-2-8 1-2-2 1-6-5-6-1-4-7-1v-3l-8-5-4-18-29-6-3 3-4-3-4 2-6-2-7 1-19-4-8 3-9-3-4 2-6-1 2 5-2 7 2 6-8 15 3 3 8 3 3 12 6 10 1 14-6 1-3 4-6-3-1 10 3 3v10l16 5v8l-2 3v15l14 3 12-6h9l3 6 6 2 4-2 1 3 4 1 2 5 2 1-12 20-2 6 2 2 1 8-2 10-5-3v-2l-5-2-11-1-2 2v5l3 3 1 4-7 2 2 10h-7l2 5-10 3-8 1-3-5-8 4-1 7-4 5 3 3v4l-2 2 1 14 4 5-4 9v6l-11 5 1 3 4 2-4 4 2 6-3 3 2 5-3 6 3 3 8-4 2 3 7 2 7-3 3 4 5-3 4 4v3l-3 7h-3v17zm0-5 1-14-4 1-4 5 4 8h2zm-1 0h-2l3 5 1-2z"/>
  <path id="巫山县" fill="#ff6347" fill-opacity="1" fill-rule="evenodd" stroke="#ffffff" stroke-dasharray="none" stroke-linecap="round" stroke-linejoin="round" stroke-opacity="1" stroke-width="0.5" d="m1341 387 9-2 6-7 1 6 5-4v-9l4-6 19-14 14-5 13-9 8-3 6-5h4l10 5 3-1 1 5 6 1 6-5h7l5 2-1 6 4 6 1 11 4 4h3l1 6 4 3h11l2-7 3-3v-3l7-7 3-10 10-18-2-4 3-14 7-11-1-3-3-2-10 2 2-8v-11h-7l2-10 2-2-4-5v-7l5-8h4v-4l12-2 4-4-1-6 4-5-7-10v-11l-3-9 1-7-1-3-3-1-2-10 2-12-1-5-3-1 2-6-4-7 1-2-3-6 2-6-2-4-5-1-3-3-1-5-3 2-3-2-4 2-13-1-1-4-6-5v-4l-5-1-6-5-6-9-12 3-4-3-2 7 2 5-2 3 1 5-6 15-12 1-14 4-8-3-15 5-1 7h-4v3l-5 3-4-3-8-1-5 7v17l-6-1-3 2-10 1-7-7-6 7h-5l-6 11 2 3h-5l-7 8 4 7 3 1 10-2 5 2 1 3-4 5 1 7h2l6 5 8-3 13 6 14-3 7 1 3 6v7l-4 7 2 6h-4l-3 6-8 4-1 7-21 14-21 10-2 3 5 6-1 4-4 4 1 6-2 4 2 5-2 2 2 6 3 3 1 5h-7l-12 5 3 8 17 5v6l-3 1v3l8 7h2l4 8-1 4 2 6z"/>
  <path id="巫溪县" fill="#ff6347" fill-opacity="1" fill-rule="evenodd" stroke="#ffffff" stroke-dasharray="none" stroke-linecap="round" stroke-linejoin="round" stroke-opacity="1" stroke-width="0.5" d="M1444 84v-3l14-13-13 3-4-5-4-2-11 1-6-4h-3l-3-6-8-5-6 1-8 5-4-4-20 2-6-5 4-6 6-3v-8l7-2-10-11 1-15-3-4v-12h-8l-5-3-1-4-4-1-8 1-6-2-10 4-4-1-9-6-3 1-8-2-18 6-4-2h-5l-1 3h-5l-1-3-4-1-7 2-2-1-3 6-9 1-10-2h-14l-15-3-5 1-15-5-1 11 2 4-2 1-21-5-3 3-3-5h-6l-4 2-22-2-3 4-5 2h-12l-2 2 2 6h-2v6l-3 2-14-1V4l-6 4h-7l-1-3-6 2-2 10-2 3 3 5-1 3-6 2-9 10-6 2-4-2-2 2h-7l-2 10-6 3-6 17-5-1-7 3-3-2h-6l-4 2 2 3-1 6 3 6 8 4 5 5h5l2 2 7 1 8 4 3 4-5 6 1 3 7 2 6 7-4 2v6l5 1v3l11 1 1 2 7 2 2-3v-10l-3-3 2-5 13-1 3-2 5 4 5-2 3 2 5-2 16 7 14 2 4-2 9 3 8-3 19 4 7-1 6 2 4-2 4 3 3-3 9 1 2 2 18 3 4 18 8 5v3l7 1 1 4 5 6-1 6 2 2 8-1 6 2 1 4 6-3v-3l10-3 12 4 2-3 5-1 10 1 1 3h3l7-8h5l-2-3 6-11h5l6-7 7 7 10-1 3-2 6 1v-17l5-7 8 1 4 3 5-3v-3h4l1-7 15-5 8 3 14-4 12-1 6-15-1-5 2-3-2-5z"/>
  <path id="石柱土家族自治县" fill="#ff6347" fill-opacity="1" fill-rule="evenodd" stroke="#ffffff" stroke-dasharray="none" stroke-linecap="round" stroke-linejoin="round" stroke-opacity="1" stroke-width="0.5" d="m891 503-1-3 2-7-5 4-1-6-4-1 1-4 3-2v-4l-2-2-4 5-6 1-14 27-2 9-6 7v3l-7 7v3l-8-2-5 7-3-6-6-2-5-5-6 5-8-2-4 1-8 7-7 13-4 2h-9l-5 4v3l4-1 8 6 11-2 6 4v2l-6 8v2l-7-1 2 4-1 4 4 3v3l-5 5 1 4-2 4-1-4-3-3-4 2-3-3 1 7 3 2-1 4 2 2 6-4 1 2-3 5 4 1-3 4-5-3-8 12-5 1-1 5-3 3 5 1 6 11-3 7-10 17-7 2-2-2 1-5-2-2-7 7-1 6-3 1 3 5h4l3 6-3 6 3 1 2 9-5 8-3-3h-3l-3 5 12 13 4 10h3l2 2-5 2 2 4 6 1 5 6v2l-5 6 9 8 6-1 8-5 9 3 1 6 9-3 1 7 5 1 1 3-3 4 3 5 9 5-11 15-4-3-2 2 1 4 3 1-5 10 4 4-2 6-7 4 1 3-5 4 2 5 2 1 5-1v-5l10-3 5-8-1-6 5-5-1-2 3-4-2-3 3-6 4 1 2-2 9 7 9 2 1-3 3 4 4 1 3 5 9-4h3l6 4-5-19 12-25-9-1 1-9 7-5-2-3 3-2 3 4 12-11 7 4 1 3 12-1 2-4 5-1 3 6 2-20-3-8 10-28-5-3 1-16-2-3 2-2-3-2-2 3v-5l3-4h2l13-34-5-4v-4l6-22-1-4 2-1 3-8-5 1-2-4-6-3v-2l-3-1-1-6-3-1v-4l-4-5h-6l-11-12-3-6-10 2-4-5-7-4-1-6 8-2v-7l3-2-6-9 3-5v-7l-3-4z"/>
  <path id="秀山土家族苗族自治县" fill="#ff6347" fill-opacity="1" fill-rule="evenodd" stroke="#ffffff" stroke-dasharray="none" stroke-linecap="round" stroke-linejoin="round" stroke-opacity="1" stroke-width="0.5" d="m1000 1338 2 9 7 4-1 5 10 5 2 4-6 17 8 3-2 5v8l-6 10 3 4-2 3-9 5-5 6 1 8 3 4 1 10h4l3 3v10l2 1 3-8 9-5 4-8 5-1 5 16 7 3 15-8 6 2 2-1 5 4-2 3 1 4 10 3 8 5 3 4h5l3-3 2-4v-9l4-8 5 1 1 5 7 2 3 4 6 2 1-4 5-2-2-9-4-4-2-7 3-5h3l7-7v-4l4-4 5-10-1-5 5-5v-2l-5-3 5-10 2-9-1-6 4 1 1-7h3v-6l6-7v-3l8-5 5 3 17-8-1-8 3-2-2-2v-6l5-3 2-8 4-6h5l-4-8-1-9-2-2-5-1-3 6-7 3-4-1-4-4-13 8-7-9 4-6 4-1 6-5 18-9-1-4-5-4 4-4 3 1 4-7 4-2-2-3 4-5-1-4-7-1-2-4-6-2 2-4-7-1v-31l-3-5v-7l-8-1-5 3v2l-8 8h-4l-3 3h-3l-7 5-5 1-8 5-1 4 6-3-1 4-4 6-13 10 1 3-6 17-9 12-7-4-4 9-3-2-10 30-14-5-7 3-5-2-10 3-6 4-7 1-7 7-5 9v6l-8 1-12 12z"/>
  <path id="酉阳土家族苗族自治县" fill="#ff6347" fill-opacity="1" fill-rule="evenodd" stroke="#ffffff" stroke-dasharray="none" stroke-linecap="round" stroke-linejoin="round" stroke-opacity="1" stroke-width="0.5" d="m1186 1177 2-5 6-6 2-18 4-9h4l3-6 1-12 4-2 5-9-3-10-4-2h-5l-10-7h-8l-4-11 2-3-1-4-18-17-6-4-3 4-6 1-6-9v-4l-4-6 11-23-4-5-9-3 3-11-2-2 2-5v-12l-12-13-10-5-7 11v7l-13-1-1 3-4 2 1 6-5 3-6-1-14 2-4 6-1 7 4 1 1 4 7 4 6 1-6 12-4 4-1 5-3 3-7 2-15 32-3 12-5-2v-3l-8-2-3-3-10 2v5l-10 1v7l-8 5-9-6-1-3-4-3h-7l-2 2 2 3-2 3 2 5-3 3-5-5-6 4h-3l1-6-4-3 1-6h-3l-3 9-5-3 4-5-10-7-4-7-11 5v4l-4 8-4 2h-5l-7 4-3-1-3 6-4 3-4-2-7 8-8-1-17 11-6 7-1 4-6 1 4 19 6 2 3 3 1 4v10l3 6-1 9-3 6 3 10v8l10 3 2 8-1 6-4 2-1 3-9 10v11l-5 13 4 2 3-1 14 10 17 7h9l3 3 7-1 4 2 1-5 5-1 8-5 3 2 5-1 1-5 4 1 4 5v3h4l4 3 6-4 3 1 1 8-11 13 2 21h-8l-6 4 2 8-1 5 5 10-1 4 4 3 2 7 3 2-1 11-8 1-3 6-1 11 2 9h6l5 8 11-4h10l3-5-2-4-4 2-1-5 3-8 10-6 1-3-3-8-7-4-2-5-8-5 2-5 4-4 5 1 6-3h5l3-7 5 3 3-10 12-12 8-1v-6l5-9 7-7 7-1 6-4 10-3 5 2 7-3 14 5 10-30 3 2 4-9 7 4 9-12 4-9 2-8-1-3 13-10 4-6 1-4-6 3 1-4 8-5 5-1 7-5h3l3-3h4l8-8v-2l5-3z"/>
  <path id="彭水苗族土家族自治县" fill="#ff6347" fill-opacity="1" fill-rule="evenodd" stroke="#ffffff" stroke-dasharray="none" stroke-linecap="round" stroke-linejoin="round" stroke-opacity="1" stroke-width="0.5" d="m850 1128 6-1 1-4 6-7 17-11 8 1 7-8 4 2 4-3 3-6 3 1 7-4h5l4-2 4-8v-4l11-5 6-10-7-9-3-8 3-6 5-2 2-12-1-5 4-6v-3l-4-7-4-1-4-4v-5l4-11-5-12 2-3 1-10 7-2 6-10-4-10 2-5-9-6h-8l-11-4-3 1-2-7 4-9 3-3 8 2 4-3v-4l-5-6v-7l-6-6-2-5-2 1-2-4-5-1 1-8 5-10v-4l7-3 1-6-7-4-6-7-8-2-3-5h-8v-7l3-3-1-5-8 1-2-6 4-7-1-4-6-3-1-5-4-1v8l-12 25 5 19-6-4-12 4-3-5-4-1-3-4-1 3-9-2-9-7-2 2-4-1-3 6 2 3-3 4 1 2-5 5 1 6-5 8-10 3v5h4l1 9-1 3h-4l-2 6-3 2-8-2-12 2-8-8-4 2 3 3 3 8-3 4-3 1v4l3 3v4l-22 19 1 9-2 14-3 3v6l-5 5 1 8-6 14 3 5v5l7 10-3 11v11l5 6-1 8-3-3-4 8-5 3-1 5-10 8-3-3-8-2-5 3 2 5-2 2-2 21-4 4 2 9-2 3-4 1 1 8-9 7-4-1-6 3-1 12-3 9 6 3 5 5 9 2 2-10 4-1 2-6-1-3h8l9-11h22l11-2 4-3 1-3 12-14 15 5 7 5 1 4h6l8-5 10-2 2 6h4l5 4-2 6 7 2 5-6 1-9 4-11h6l6 3 1 2-3 13 4 12v6z"/>
</svg>
