<?xml version="1.0" encoding="UTF-8" standalone="no"?>
<svg
   width="1048.9999"
   height="1770.9999"
   viewBox="-251 -228 1048.9999 1770.9999"
   version="1.1"
   id="svg1"
   xmlns="http://www.w3.org/2000/svg"
   xmlns:svg="http://www.w3.org/2000/svg">
  <defs
     id="defs1" />
  <path
     stroke="#ffff00"
     stroke-opacity="1"
     stroke-width="0.5"
     stroke-linecap="round"
     stroke-linejoin="round"
     stroke-dasharray="none"
     fill="#1e90ff"
     fill-opacity="1"
     fill-rule="evenodd"
     d="m 525,997.99994 -4,-5 -7,-2 -4,1 -2,-2 -6,2 -9,-5 -10,1 -8,-8 -4,-1 -1,-6 2,-15 -3,-1 -1,-4 -3,-2 -2,-8 -4,-2 2,-6 -2,-7 11,-5 -3,-10 -2,-18 1,-8 -3,-6 -9,1 -4,8 -10,3 -1,-2 -5,-1 -2,3 -7,-2 -6,1 -1,6 -2,4 -3,2 v 11 l -5,2 -9,-3 -9,1 -2,3 -8,2 3,5 1,21 -4,1 1,4 -6,5 -3,-1 -4,4 h -6 l -5,5 -5,1 -2,6 1,8 h -9 l -1,5 h -8 l -1,8 -4,-1 -4,-5 -10,6 -12,2 -19,6.99996 -1,-1.99996 -16,1.99996 -7,-2.99996 -5,2.99996 h -5 l -6,-4.99996 -9,-1 -2,2 -10,-3 h -11 l -3,14.99996 -2,1 v 12 l -5,9 -6,4 v 8 l 2,5 h -7 l -1,-3 -5,1 -6,4 -7,-4 -8,9 -9,6 -2,15 1,2 -2,7 -4,2 2,2 -4,8 4,4 1,4 13,1 16,6 9,-12 5,3 4,-3 3,3 7,1 9,4 3,-3 h 5 l 3,3 3,-2 3,2 h 6 l 2,-3 7,-1 5,-6 5,-2 4,1 7,-7 h 4 l 7,6 14,-9 11,4 3,5 h 4 v -3 l 3,-3 3,-7 6,-4 9,3 8,-3 2,1 v 6 l 5,3 4,-4 h 7 l 2,-2 h 4 l 7,-5 2,-5 4,1 11,-4 8,-9 4,4 h 6 l 3,7 h 12 l 4,2 8,-3 7,2 1,3 11,-2 7,4 h 20 l 6,-3 v -3 l 7,-5 h 3 l 2,-9 -13,-9 2,-10 3,-2 -2,-2 3,-5 12,-2 5,-7 2,2 4,-2 9,2 v -5 l 7,-9 2,4 6,-3 -4,-1 -5,-5 -5,-1 z m -105,88.99996 -3,-1 -2,3 1,1 z"
     id="西安市" />
  <path
     stroke="#ffff00"
     stroke-opacity="1"
     stroke-width="0.5"
     stroke-linecap="round"
     stroke-linejoin="round"
     stroke-dasharray="none"
     fill="#1e90ff"
     fill-opacity="1"
     fill-rule="evenodd"
     d="m 364,746.99994 1,4 -9,2 -3,4 -2,-2 -9,3 -2,6 -7,10 -5,3 1,3 h -4 v 4 l -4,3 4,2 1,6 -13,6 h 7 l -3,8 -5,5 3,5 4,2 12,29 7,3 7,-1 9,9 2,6 6,-4 8,3 -1,-3 4,-3 7,1 3,2 1,-3 -2,-10 12,-4 5,2 v -4 l 6,-2 1,-3 -3,-6 11,-7 4,1 2,-4 h 7 l -2,-3 4,-7 6,-1 4,-7 -1,-3 h 3 l 1,3 11,-4 9,2 1,5 h 3 l 3,-4 v -13 l -2,-5 -10,3 -3,-2 -3,-6 -5,-2 -2,-3 -1,-7 -4,-1 7,-5 9,-3 5,-10 3,2 6,-5 6,1 3,-4 v -9 l -5,-5 2,-4 -1,-3 -3,-1 4,-4 -2,-2 v -6 h -4 l -3,2 -4,-2 v -2 l -30,-1 -7,-13 -16,4 -4,4 -8,-1 -3,7 -4,2 1,3 -5,5 -2,6 2,2 -12,17 -5,3 z"
     id="铜川市" />
  <path
     stroke="#ffff00"
     stroke-opacity="1"
     stroke-width="0.5"
     stroke-linecap="round"
     stroke-linejoin="round"
     stroke-dasharray="none"
     fill="#1e90ff"
     fill-opacity="1"
     fill-rule="evenodd"
     d="m 211,993.99994 -7,2 1,-10 -4,-1 -1,-3 -3,-1 v -7 l 7,2 1,-5 2,4 h 5 l 3,-2 -4,-10 v -3 l 2,-1 -4,-9 v -11 l -4,-2 2,-9 -1,-5 -4,-5 3,-8 7,-4 -3,-22 -5,-12 -5,-4 -2,-5 v -9 l -8,5 -9,-1 -7,-28 -4,1 1,2 -5,-1 -18,3 -4,3 h -3 v 4 h -2 l 1,-8 -2,-2 -3,1 -6,-3 -2,1 -2,6 -5,7 -12,-2 -6,-3 h -6 l -4,3 -3,-4 -6,-1 -6,2 -1,4 -3,1 -2,6 -4,-2 -2,3 -4,-1 -2,-3 -1,-7 -4,-4 h -5 l -5,-3 -3,-4 1,-8 -2,-3 -6,-1 v -2 l -7,2 -4,-9 -7,1 -1,-3 H 8 l -2,-3 h -8 l -4,3 -22,-6 -2,5 -8,3 h -8 l -7,-4 -6,1 -4,13 -4,-2 -2,3 2,6 -3,3 1,9 4,3 1,8 2,3 5,3 v 11 l 4,5 -1,5 -4,2 -2,3 h -6 l -4,7 -5,2 -3,5 1,3 4,3 v 3 l -4,1 -5,-4 v 3 l -19,14 5,2 -1,12 5,1 3,-2 4,2 1,-3 h 15 l 10,10 1,-2 3,3 6,2 -2,2 4,2 5,12 4,3 4,-1 3,3 h 3 l -1,6 -4,2 3,8 -7,12 -6,-4 -8,2 -2,-6 -9,-3 -6,8 v 4 h 3 l 4,-3 3,2 6,20.99996 -4,8 -11,2 1,10 -6,7 v 11 l -11,14 3,10 8,-2 4,6 -1,3 -4,3 -1,7 3,2 2,5 -1,11 9,2 11,26 4,-3 2,-6 4,-3 -1,-6 8,-1 3,-3 -5,-5 h 7 l 13,5 2,-1 1,-28 3,-5 4,2 2,-5 v -6 l 23,16 9,2 3,-3 v -15 l 3,1 3,11 h 5 l 1,2 5,-1 -2,8 3,-3 3,1 4,4 1,4 4,1 12,-12 4,2 4,-6 4,1 -4,9 -3,2 v 7 l 2,1 -2,4 6,5 7,1 5,7 12,-2 4,-4 h 5 l 8,-5 5,1 7,-4 4,3 h 4 l 4,-5 -1,-4 -4,-4 4,-8 -2,-2 4,-2 2,-7 -1,-2 2,-15 9,-6 8,-9 7,4 6,-4 5,-1 1,3 h 7 l -2,-5 v -8 l 6,-4 5,-9 v -12 l 2,-1 3,-9.99996 z"
     id="宝鸡市" />
  <path
     stroke="#ffff00"
     stroke-opacity="1"
     stroke-width="0.5"
     stroke-linecap="round"
     stroke-linejoin="round"
     stroke-dasharray="none"
     fill="#1e90ff"
     fill-opacity="1"
     fill-rule="evenodd"
     d="m 173,829.99994 7,28 9,1 8,-5 v 9 l 2,5 5,4 5,12 3,22 -7,4 -3,8 4,5 1,5 -2,9 4,2 v 11 l 4,9 -2,1 v 3 l 4,10 -3,2 h -5 l -2,-4 -1,5 -7,-2 v 7 l 3,1 1,3 4,1 -1,10 7,-2 h 11 l 10,3 2,-2 9,1 6,4.99996 h 5 l 5,-2.99996 7,2.99996 8,-1.99996 h 8 l 1,1.99996 19,-6.99996 12,-2 10,-6 4,5 4,1 1,-8 h 8 l 1,-5 h 9 l -1,-8 2,-6 5,-1 5,-5 h 6 l 4,-4 3,1 6,-5 -1,-4 4,-1 -1,-21 -3,-5 8,-2 2,-3 9,-1 9,3 5,-2 v -11 l 3,-2 2,-4 1,-9 -15,1 -4,-3 -4,6 -3,-4 v -5 l 3,-5 -2,-5 -7,-8 -7,-5 -7,-1 -4,3 1,3 -8,-3 -6,4 -2,-6 -9,-9 -7,1 -7,-3 -12,-29 -4,-2 -3,-5 5,-5 3,-8 h -7 l 13,-6 -1,-6 -4,-2 4,-3 v -4 h 4 l -1,-3 5,-3 7,-10 2,-6 9,-3 2,2 3,-4 9,-2 -1,-4 -4,-1 -2,-7 h -6 l 1,-3 -8,-21 -4,-1 -3,-3 h -7 l -5,-7 -7,-1 -3,9 5,18 -4,14 1,6 -2,4 -7,5 -4,-3 -10,6 -7,1 -18,-3 -1,-3 -9,7 h -7 l -4,3 -3,-9 -5,-3 -13,6 h -5 l -8,6 -18,2 2,-4 -5,-1 v 3 h -13 l -4,-5 -2,1 -7,-5 -7,-2 -1,-2 -6,2 4,2 v 6 h -3 l -5,4 -6,-1 -2,3 4,6 3,-1 5,11 2,9 -1,3 7,7 v 3 l 8,8 4,3 4,-1 -1,5 4,1 -1,3 z"
     id="咸阳市" />
  <path
     stroke="#ffff00"
     stroke-opacity="1"
     stroke-width="0.5"
     stroke-linecap="round"
     stroke-linejoin="round"
     stroke-dasharray="none"
     fill="#1e90ff"
     fill-opacity="1"
     fill-rule="evenodd"
     d="m 648,953.99994 -4,-2 -8,-21 2,-6 6,-3 -7,-2 2,-8 -15,-2 -5,-4 -6,-9 -1,-5 3,-21 -3,-11 v -10 l 6,-14 10,-13 v -8 l 3,-1 2,-9 5,-11 -2,-2 v -12 l 3,-3 -1,-9 5,-8 9,-9 5,-20 6,-15 13,-18 1,-9 4,-6 -1,-6 -2,-1 v -5 l -3,-4 -2,-26 -3,-5 v -3 l -7,2 -5,4 -13,4 -5,5 -3,7 -7,1 -6,4 -3,5 -11,-2 -10,2 -6,8 7,4 h 4 l 3,4 4,1 1,4 4,4 -1,3 5,4 -1,7 -10,-2 2,8 -9,9 -8,3 -4,7 h -2 l -3,4 -7,-2 -7,2 -3,-6 -2,5 h -15 l -4,-2 -1,-3 -4,3 -2,-3 -4,1 -1,-3 -11,2 -6,5 -4,1 -15,-8 h -13 l -4,4 -2,9 -6,10 -6,-1 -6,5 -3,-2 -5,10 -9,3 -7,5 4,1 1,7 2,3 5,2 3,6 3,2 10,-3 2,5 v 13 l -3,4 h -3 l -1,-5 -9,-2 -11,4 -1,-3 h -3 l 1,3 -4,7 -6,1 -4,7 2,3 h -7 l -2,4 -4,-1 -11,7 3,6 -1,3 -6,2 v 4 l -5,-2 -12,4 2,10 -1,3 11,11 2,5 -3,5 v 5 l 3,4 4,-6 4,3 15,-1 v 3 l 6,-1 7,2 2,-3 5,1 1,2 10,-3 4,-8 9,-1 3,6 -1,8 2,18 3,10 -11,5 2,7 -2,6 4,2 2,8 3,2 1,4 3,1 -2,15 1,6 4,1 8,8 10,-1 9,5 6,-2 2,2 4,-1 7,2 4,5 -2,-6 3,-3 h 3 l 5,6 -2,-8 6,-6 5,5 4,-1 2,5 6,4 7,-3 -1,5 2,2 6,-2 5,-4 -3,-14 h 5 l 1,-5 -3,-3 -3,-7 6,-2 4,-4 v -3 l 8,-4 5,1 5,-2 6,4 11,2 6,3 17,-1 2,-2 z"
     id="渭南市" />
  <path
     stroke="#ffff00"
     stroke-opacity="1"
     stroke-width="0.5"
     stroke-linecap="round"
     stroke-linejoin="round"
     stroke-dasharray="none"
     fill="#1e90ff"
     fill-opacity="1"
     fill-rule="evenodd"
     d="m 670,632.99994 v -5 l -7,-1 1,-9 -3,-5 3,-4 v -3 l -4,-5 1,-3 -6,-15 1,-4 -4,-9 -1,-7 3,-7 -1,-6 3,-6 1,-7 -2,-3 1,-4 -2,-4 1,-9 4,-6 v -6 l -3,-7 6,-8 -1,-10 -2,-4 2,-7 -10,-9 -4,-9 -5,-4 -1,-3 3,-1 5,3 v -7 l 3,-3 -2,-3 -3,4 -2,-2 4,-4 -3,-3 -5,-1 -1,-2 h 4 l 3,-10 -3,-2 2,-2 1,-5 -2,-2 -5,-1 -2,-3 6,-2 3,-15 -1,-3 -5,3 -3,-1 -2,4 -2,-7 -5,-2 -5,4 h -3 l -2,-5 -5,-3 -9,-2 -4,5 -10,4 -5,-3 -4,-6 -6,-4 v -6 l -4,-9 2,-9 -2,-3 -4,4 -2,-5 1,-6 -5,-7 2,-1 4,3 4,-1 3,-9 v -5 l -3,-2 -4,1 -11,-5 -2,-5 -4,4 2,4 -5,2 -7,-2 -5,5 -9,-3 4,-9 5,1 -2,-10 -3,1 -2,-5 v -6 l -7,-2 v -6 l -3,-2 -16,4 -10,-5 -2,-5 -13,-8 -5,2 -3,6 h -3 l -3,3 -6,2 -6,14 -4,1 2,6 -6,-1 -1,2 -10,2 -1,4 -2,-3 -5,2 -5,-1 v 5 l -11,-4 -1,3 -6,-1 -4,6 -1,-2 -7,-2 v 5 l -2,-1 -3,5 h -4 l -2,7 h -10 l -1,3 -5,-10 1,5 -2,2 -1,7 2,5 4,1 v 6 l -6,-1 -3,4 h -3 l -4,6 -4,-2 v 2 l -5,-1 2,4 -3,4 5,3 2,4 5,2 1,3 -2,1 v 5 l -6,6 -2,-3 -4,2 -9,-4 -7,-9 -5,3 -2,-1 -2,5 -8,5 -4,-1 -3,-3 h -3 l -2,-6 4,1 6,-4 -1,-4 2,-7 -3,-6 3,-11 -7,-9 1,-6 -6,-1 -6,-4 4,-2 2,-6 -8,-6 -2,-17 -2,-4 h -2 v 5 l -8,-1 v -4 l -8,11 -10,4 h -5 l -4,3 6,7 -1,3 7,5 -1,6 h -4 l 1,4 -8,10 -7,2 -1,-7 -6,1 -3,-3 -1,12 -3,5 -12,1 -9,3 -5,7 h -3 l -2,-3 -7,2 -1,-11 -3,-7 -2,-11 -1,-2 h -6 v -5 l -4,-1 -9,9 v 7 l -4,3 3,2 -2,4 -5,-1 -5,5 3,-1 1,8 4,4 -4,5 -5,-3 -2,1 3,7 2,1 1,6 2,-5 9,4 -1,4 -10,2 2,3 4,16 -1,8 -5,2 -4,4 9,7 4,-2 5,4 9,3 1,-2 10,9 5,-1 v 3 l 6,10 -1,8 7,-1 1,2 1,-4 4,-2 3,3 v 5 l -4,2 8,9 3,1 3,-4 3,2 v 3 l 8,3 1,3 h 4 l 6,-15 h 4 l -3,5 2,8 h 5 l 4,5 1,-4 3,3 4,-2 9,3 1,7 5,3 3,10 -1,3 h 3 l 8,6 4,-2 2,2 3,-5 v -7 l 9,8 6,2 4,-1 6,11 -1,17 2,8 -2,5 11,21 1,5 -2,5 2,1 -3,5 -2,8 1,7 -5,6 -1,10 h -12 l -4,3 -1,4 -8,3 -3,8 5,11 -1,14 2,3 -3,7 2,8 -1,4 3,13 4,1 1,3 9,6 1,4 7,1 5,7 h 7 l 3,3 4,1 8,21 -1,3 h 6 l 2,7 h 9 l 5,-3 12,-17 -2,-2 2,-6 5,-5 -1,-3 4,-2 3,-7 8,1 4,-4 12,-4 h 4 l 7,13 30,1 v 2 l 4,2 3,-2 h 4 v 6 l 2,2 -4,4 3,1 1,3 -2,4 5,5 v 9 l 5,-15 4,-4 h 13 l 15,8 4,-1 6,-5 11,-2 1,3 4,-1 2,3 4,-3 1,3 4,2 h 15 l 2,-5 3,6 7,-2 7,2 3,-4 h 2 l 4,-7 8,-3 9,-9 -2,-8 10,2 1,-7 -5,-4 1,-3 -4,-4 -1,-4 -4,-1 -3,-4 h -4 l -7,-4 6,-8 10,-2 11,2 3,-5 6,-4 7,-1 3,-7 5,-5 13,-4 5,-4 z"
     id="延安市" />
  <path
     stroke="#ffff00"
     stroke-opacity="1"
     stroke-width="0.5"
     stroke-linecap="round"
     stroke-linejoin="round"
     stroke-dasharray="none"
     fill="#1e90ff"
     fill-opacity="1"
     fill-rule="evenodd"
     d="m 216,1107.9999 -9,-4 -7,-1 -3,-3 -4,3 -5,-3 -9,12 -16,-6 -13,-1 -4,5 h -4 l -4,-3 -7,4 -5,-1 -8,5 h -5 l -4,4 -12,2 -5,-7 -7,-1 -6,-5 2,-4 -2,-1 v -7 l 3,-2 4,-9 -4,-1 -4,6 -4,-2 -12,12 -4,-1 -1,-4 -4,-4 -3,-1 -3,3 2,-8 -5,1 -1,-2 h -5 l -3,-11 -3,-1 v 15 l -3,3 -9,-2 -23,-16 v 6 l -2,5 -4,-2 -3,5 -1,28 -2,1 -13,-5 h -7 l 5,5 -3,3 -8,1 1,6 -4,3 -2,6 -4,3 -2,-3 -1,3 -3,2 v 6 l -4,6 -8,-4 -3,3 -4,-4 -2,-17 -3,-1 -8,2 -6,5 h -3 l -6,-4 -5,2 -7,7 -9,4 -8,-4 1,-4 -8,3 1,-5 4,-1 -9,-5 -4,3 -3,-1 -3,3 -2,-3 -3,1 -4,-2 -11,13 h -3 l -6,10 -5,4 -2,8 v 16 l -18,-2 -4,2 4,8 4,3 -1,7 3,3 5,1 v 4 l 7,2 6,4 8,-1 11,8 v 10 l -4,1 v -8 l -3,-2 -2,4 1,2 -5,6 5,-1 -1,3 3,4 -3,2 3,6 -4,2 v 3 l 3,3 -2,10 -10,12 -7,-2 -16,9 -15,3 -2,2 -10,2 -4,-7 h -6 l -4,-3 -3,3 v 7 l 5,6 2,12 h 4 v 4 l 2,3 -2,1 1,7 4,-1 2,6 6,-1 9,-5 8,-7 3,1 2,-3 h 4 l 2,4 5,-5 2,1 -1,-5 3,-7 4,1 1,-2 5,-1 10,1 5,-4 5,4 h 3 l 2,-6 4,1 4,6 h 5 v 6 l -6,3 11,14 4,-1 2,4 3,-1 v 2 l 15,1 4,5 4,-2 10,2 5,5 2,5 5,2 6,-5 v -4 l 8,2 4,-4 9,-2 4,-3 7,2 6,-2 13,-10 h 9 v 8 l 2,-3 6,2 4,-4 5,-1 5,1 3,4 8,-3 5,1 4,-2 3,2 7,1 v 8 l 4,1 2,4 1,10 -2,11 -3,2 9,13 11,3 4,8 4,3 6,3 4,-11 5,-8 8,-3 4,-7 h 6 l 4,2 -1,6 2,7 3,2 v 9 l 6,-2 2,7 4,2 14,-6 h 9 l 5,3 3,5 v 4 l 4,6 7,-2 6,13 9,12 6,4 4,-2 6,3 10,11 h 3 l 5,-6 -1,-8 3,-2 10,-2 6,3 h 4 l 2,-5 5,-4 -13,-24 1,-4 4,1 -4,-10 1,-2 h 6 l 4,3 2,-3 17,-12 -6,-16 -7,-7 -4,-1 2,-3 11,3 1,-2 -2,-15 -5,-2 3,-5 -10,-11 h -7 v -3 l -4,1 -1,-5 2,-1 -4,-3 -2,-7 -4,-6 v -5 l 9,-9 v -10 l 2,-4 -9,-18 3,-9 v -17 l -6,2 1,-2 -6,-3 1,-3 -5,-4 2,-1 3,-8 -1,-6 2,-5 7,-5 2,-4 -2,-2 4,-4 5,3 3,-6 -2,-7 -16,-12 v -13 l 2,-5 -3,-4 2,-7 -3,-6 z m -360,206 v 1 z"
     id="汉中市" />
  <path
     stroke="#ffff00"
     stroke-opacity="1"
     stroke-width="0.5"
     stroke-linecap="round"
     stroke-linejoin="round"
     stroke-dasharray="none"
     fill="#1e90ff"
     fill-opacity="1"
     fill-rule="evenodd"
     d="m 646,379.99994 -7,-9 1,-2 h 5 l 5,3 2,-2 -5,-2 v -4 l 7,-1 6,-9 7,-7 1,-6 20,-25 2,-7 6,-1 -3,-7 3,-2 v -5 l -11,-4 v -8 l 3,-9 18,-2 2,-5 2,-16 5,-6 -5,-6 -1,-11 5,-2 1,-3 -4,-4 -7,-2 -5,-4 -1,-3 2,-2 7,-2 v -4 l -3,-4 -10,-4 -4,-5 -2,-7 -11,-20 -12,-6 -1,-4 2,-5 -4,-5 -1,-6 2,-5 -2,-9 4,-6 -3,-14 3,-6 8,-1 2,-19 4,-2 7,1 6,-2 6,-10 8,-3 5,-17 4,-3 8,3 6,-3 -1,-13 7,-3 v -9 l 2,-5 -4,-1 -3,-9 3,-8 4,-3 v -7 l 9,-12 -2,-5 4,-3 3,-9 3,-3 -3,-7 3,-2 1,-4 -1,-9 -6,-9 4,-6 7,-5 9,-2 9,-9 2,-8 3,-2 2,-6 -2,-4 10,-22 -1,-3 2,-6 4,-4 h -6 l -5,-3 v -9 l -5,4 -1,-8 h -5 l -3,3 -4,-6 2,-6 -2,-1 -4,2 -2,-7 1,-4 5,-2 v -3 l 4,-1 -2,-2 1,-4 8,-8 1,-8 -3,-5 -7,7 -10,1 -1,-3 -15,11 -12,3 -15,23 -13,15 -1,9 -5,8 -3,2 -3,-2 -8,2 -6,-4 -5,-8 -1,-8 -7,-8 -4,6 h -3 l -3,-4 -6,-1 -3,8 2,1 -8,8 -3,-5 -5,-3 -15,-15 3,-3 -6,-1 -5,-5 -2,2 -9,-4 -4,1 -1,8 2,5 4,1 5,9 4,16 -36,18 -9,-1 -4,-7 -7,-7 -6,5 2,4 h 3 l 12,11 -12,10 5,8 -6,1 -2,-3 -4,-2 -17,16 -7,9 -4,1 -2,5 -4,-1 -1,4 4,3 -1,8 -10,19 -14,11 -7,-7 -11,11 -7,10 -2,6 -11,4 -3,8 8,9 -7,7 -10,-5 -27,33 -13,11 1,5 -2,6 -8,6 -8,22 3,3 -4,8 -3,2 1,9 21,16 1,2 -3,8 3,8 h -5 l -4,12 -7,3 -1,6 -7,2 -3,-9 -4,-4 -2,-8 -5,-6 -5,-2 h -6 l 5,15 -5,11 -1,28 2,5 -3,6 -1,7 2,8 -3,4 -11,1 -3,2 -16,4 -9,-7 -5,-2 -20,10 -13,2 -4,2 -5,-2 -2,-4 -8,-2 -8,2 -2,4 -7,4 h -4 l -13,-7 -7,1 -2,-4 2,-7 -2,-7 -3,-2 -3,-7 1,-5 -9,-2 -7,-4 -2,1 -8,-4 h -5 l -13,-4 -11,-10 -1,3 -5,2 2,5 -7,16 -4,-4 -5,4 h -9 l -4,2 -3,14 -10,5 -8,-2 1,5 6,1 -1,4 -4,-1 -6,9 -7,2 -2,-1 3,6 7,-1 1,2 -5,14 -11,8 -3,21 -2,5 2,18 4,3 3,9 -3,-1 -4,3 9,7 3,6 -1,10 -4,7 -6,-7 -1,7 3,10 v 14 l 3,10 -2,5 3,3 4,-2 7,4 14,1 6,-2 10,10 -1,3 2,6 9,-2 9,4 15,-9 v -14 l -5,-13 10,-2 1,-4 -9,-4 -2,5 -1,-6 -2,-1 -3,-7 2,-1 5,3 4,-5 -4,-4 -1,-8 -3,1 5,-5 5,1 2,-4 -3,-2 4,-3 v -7 l 9,-9 4,1 v 5 h 6 l 1,2 2,11 3,7 1,11 7,-2 2,3 h 3 l 5,-7 9,-3 12,-1 3,-5 1,-12 3,3 6,-1 1,7 7,-2 3,-5 3,-1 2,-4 -1,-4 h 4 l 1,-6 -7,-5 1,-3 -6,-7 4,-3 h 5 l 10,-4 8,-11 v 4 l 8,1 v -5 h 2 l 2,4 2,17 8,6 -2,6 -4,2 6,4 6,1 -1,6 7,9 -3,11 3,6 -2,7 1,4 -6,4 -4,-1 2,6 h 3 l 3,3 4,1 8,-5 2,-5 2,1 5,-3 7,9 9,4 4,-2 2,3 6,-6 v -5 l 2,-1 -1,-3 -5,-2 -2,-4 -5,-3 3,-4 -2,-4 5,1 v -2 l 4,2 4,-6 h 3 l 3,-4 6,1 v -6 l -4,-1 -2,-5 1,-7 2,-2 -1,-5 5,10 1,-3 h 10 l 2,-7 h 4 l 3,-5 2,1 v -5 l 7,2 1,2 4,-6 6,1 1,-3 11,4 v -5 l 5,1 5,-2 2,3 1,-4 10,-2 1,-2 6,1 -2,-6 4,-1 6,-14 6,-2 3,-3 h 3 l 3,-6 5,-2 13,8 2,5 10,5 16,-4 3,2 v 6 l 7,2 v 6 l 2,5 3,-1 2,10 -5,-1 -4,9 9,3 5,-5 7,2 5,-2 -2,-4 4,-4 2,5 11,5 4,-1 3,2 v 5 l -3,9 -4,1 -4,-3 -2,1 5,7 -1,6 2,5 4,-4 2,3 -2,9 4,9 v 6 l 6,4 4,6 5,3 10,-4 4,-5 9,2 5,3 2,5 h 3 l 5,-4 5,2 2,7 2,-4 3,1 z"
     id="榆林市" />
  <path
     stroke="#ffff00"
     stroke-opacity="1"
     stroke-width="0.5"
     stroke-linecap="round"
     stroke-linejoin="round"
     stroke-dasharray="none"
     fill="#1e90ff"
     fill-opacity="1"
     fill-rule="evenodd"
     d="m 468,1229.9999 -18,3 -5,-7 h -10 l -5,-5 h -2 l -8,7 h -10 l -11,-12 -10,10 -3,-2 -4,4 1,5 -8,3 -2,-6 -3,1 -17,-21 -12,-9 -6,3 -4,-1 1,-4 -6,-6 h -4 l -10,5 -2,-4 v -12 l 5,-8 -2,-11 8,-9 -1,-7 5,-3 13,3 4,-1 9,-10 1,-5 5,-3 -7,-5 1,-3 5,1 10,-10 4,4 4,-1 4,-9 -4,-11 -14,-1 -2,-3 1,-5 h -7 l -4,4 -5,-3 v -6 l -2,-1 -8,3 -9,-3 -6,4 -3,7 -3,3 v 3 h -4 l -3,-5 -11,-4 -14,9 -7,-6 h -4 l -7,7 -4,-1 -5,2 -5,6 -7,1 -2,3 h -6 l -3,-2 -3,2 -3,-3 h -5 l -3,3 -1,7 3,6 -2,7 3,4 -2,5 v 13 l 16,12 2,7 -3,6 -5,-3 -4,4 2,2 -2,4 -7,5 -2,5 1,6 -3,8 -2,1 5,4 -1,3 6,3 -1,2 6,-2 v 17 l -3,9 9,18 -2,4 v 10 l -9,9 v 5 l 4,6 2,7 4,3 -2,1 1,5 4,-1 v 3 h 7 l 10,11 -3,5 5,2 2,15 -1,2 -11,-3 -2,3 4,1 7,7 6,16 -17,12 -2,3 -4,-3 h -6 l -1,2 4,10 -4,-1 -1,4 13,24 -5,4 4,4 7,-6 -1,-2 7,-3 12,9 h 3 l 3,-5 7,-2 5,2 3,-2 4,1 4,-2 2,4 4,1 1,10 7,5 6,1 18,15 h 12 l 1,6 6,5 9,2 6,8 6,4 6,-1 4,2 h 5 l 19,11 7,8 7,3 6,7 v 6 l 14,3 1,5 -5,3 5,5 v 5 l 20,3 4,-1 1,-2 7,-1 v 2 l 23,-3 4,-3 -2,-2 v -8 l 2,-3 6,-2 -6,-15 -4,-4 2,-5 5,-1 2,-7 -6,-8 -2,-6 v -5 l 6,-12 -5,-7 -1,-5 3,-8 -2,-4 -8,-2 -4,-9 -6,-7 3,-5 -2,-12 1,-3 4,-3 v -6 l 2,-2 2,-7 5,-3 2,-5 5,-2 4,-4 -3,-5 v -6 l 2,-2 17,-1 6,4 11,2 h 5 l 6,-3 h 6 l 6,4 5,-1 4,6 6,1 11,-8 -1,-6 4,-2 11,6 7,-9 -9,-12 1,-17 -4,1 -2,-3 3,-5 -5,-5 -23,-13 h -11 l -2,-4 h -6 l -5,-2 -2,4 -7,3 -8,-6 4,-17 1,-18 -19,-10 -10,-1 -6,2 -1,-2 -3,2 -3,-3 -9,-4 h -8 z"
     id="安康市" />
  <path
     stroke="#ffff00"
     stroke-opacity="1"
     stroke-width="0.5"
     stroke-linecap="round"
     stroke-linejoin="round"
     stroke-dasharray="none"
     fill="#1e90ff"
     fill-opacity="1"
     fill-rule="evenodd"
     d="m 422,1085.9999 h -2 l -4,4 -1,-1 2,-3 1,-13 -8,-1 -3,-7 h -6 l -4,-4 -8,9 -11,4 -4,-1 -2,5 -7,5 h -4 l -2,2 -1,5 2,3 14,1 4,11 -4,9 -4,1 -4,-4 -10,10 -5,-1 -1,3 7,5 -5,3 -1,5 -9,10 -4,1 -13,-3 -5,3 1,7 -8,9 2,11 -5,8 v 12 l 2,4 10,-5 h 4 l 6,6 -1,4 4,1 6,-3 12,9 17,21 3,-1 2,6 8,-3 -1,-5 4,-4 3,2 10,-10 11,12 h 10 l 8,-7 h 2 l 5,5 h 10 l 5,7 18,-3 8,-11 3,-1 2,-7 7,-1 7,3 3,-1 v -7 l 2,-2 6,2 v 3 h 8 l 7,5 15,-1 6,-3 13,4 10,6 5,-2 7,4 23,-4 10,10 5,1 9,-2 7,2 5,-5 11,3 5,-2 4,2 v -3 l 10,-10 2,-6 7,1 3,10 v 8 l 4,5 6,-2 10,13 3,-1 1,-7 7,-4 h 6 l 5,-2 -1,-4 2,-5 6,-3 11,3 8,-12 5,1 -2,-4 4,-7 -1,-5 5,-1 v -10 l -6,-13 5,-3 1,-4 -2,-12 -2,-2 v -10 l -7,-7 -16,-5 -7,-7 -3,-6 1,-4 -3,-9 -6,-10 h -7 l -3,-2 -2,-6 -5,-1 -4,-3 -4,2 -6,-2 v -3 l -4,-5 1,-3 6,-1 v -4 l 9,-5 -1,-4 -3,-1 -1,-5 -4,-6 v -3 l -3,2 h -4 l 1,-17 4,-2 5,-11 -4,-3 -6,-1 v -2 l -6,-1 -1,-3.99996 -8,-1 -3,-4 -9,-2 -2,-7 1,-3 3,-1 4,-7 5,1 v -5 l -5,-11 1,-3 -4,1 -5,-2 -7,1 -2,2 -17,1 -6,-3 -11,-2 -6,-4 -5,2 -5,-1 -8,4 v 3 l -4,4 -6,2 3,7 3,3 -1,5 h -5 l 3,14 -5,4 -6,2 -2,-2 1,-5 -7,3 -6,-4 -2,-5 -4,1 -5,-5 -6,6 2,8 -5,-6 h -3 l -3,3 2,6 -1,4.99996 5,1 5,5 4,1 -6,3 -2,-4 -7,9 v 5 l -9,-2 -4,2 -2,-2 -5,7 -12,2 -3,5 2,2 -3,2 -2,10 13,9 -2,9 h -3 l -7,5 v 3 l -6,3 -7,-1 -5,2 -8,-1 -7,-4 -11,2 -1,-3 -7,-2 -8,3 z m 0,0 4,-12 -4,-2 -4,1 -1,13 h 3 z m 335,73 v 2 z"
     id="商洛市" />
</svg>