<svg xmlns="http://www.w3.org/2000/svg" id="svg1" version="1.1" viewBox="-251 -228 1048.9999 1770.9999">
  <path id="西安市" fill="#ff6347" fill-opacity="1" fill-rule="evenodd" stroke="#ffffff" stroke-dasharray="none" stroke-linecap="round" stroke-linejoin="round" stroke-opacity="1" stroke-width="0.5" d="m525 998-4-5-7-2-4 1-2-2-6 2-9-5-10 1-8-8-4-1-1-6 2-15-3-1-1-4-3-2-2-8-4-2 2-6-2-7 11-5-3-10-2-18 1-8-3-6-9 1-4 8-10 3-1-2-5-1-2 3-7-2-6 1-1 6-2 4-3 2v11l-5 2-9-3-9 1-2 3-8 2 3 5 1 21-4 1 1 4-6 5-3-1-4 4h-6l-5 5-5 1-2 6 1 8h-9l-1 5h-8l-1 8-4-1-4-5-10 6-12 2-19 7-1-2-16 2-7-3-5 3h-5l-6-5-9-1-2 2-10-3h-11l-3 15-2 1v12l-5 9-6 4v8l2 5h-7l-1-3-5 1-6 4-7-4-8 9-9 6-2 15 1 2-2 7-4 2 2 2-4 8 4 4 1 4 13 1 16 6 9-12 5 3 4-3 3 3 7 1 9 4 3-3h5l3 3 3-2 3 2h6l2-3 7-1 5-6 5-2 4 1 7-7h4l7 6 14-9 11 4 3 5h4v-3l3-3 3-7 6-4 9 3 8-3 2 1v6l5 3 4-4h7l2-2h4l7-5 2-5 4 1 11-4 8-9 4 4h6l3 7h12l4 2 8-3 7 2 1 3 11-2 7 4h20l6-3v-3l7-5h3l2-9-13-9 2-10 3-2-2-2 3-5 12-2 5-7 2 2 4-2 9 2v-5l7-9 2 4 6-3-4-1-5-5-5-1zm-105 89-3-1-2 3 1 1z"/>
  <path id="铜川市" fill="#ff6347" fill-opacity="1" fill-rule="evenodd" stroke="#ffffff" stroke-dasharray="none" stroke-linecap="round" stroke-linejoin="round" stroke-opacity="1" stroke-width="0.5" d="m364 747 1 4-9 2-3 4-2-2-9 3-2 6-7 10-5 3 1 3h-4v4l-4 3 4 2 1 6-13 6h7l-3 8-5 5 3 5 4 2 12 29 7 3 7-1 9 9 2 6 6-4 8 3-1-3 4-3 7 1 3 2 1-3-2-10 12-4 5 2v-4l6-2 1-3-3-6 11-7 4 1 2-4h7l-2-3 4-7 6-1 4-7-1-3h3l1 3 11-4 9 2 1 5h3l3-4v-13l-2-5-10 3-3-2-3-6-5-2-2-3-1-7-4-1 7-5 9-3 5-10 3 2 6-5 6 1 3-4v-9l-5-5 2-4-1-3-3-1 4-4-2-2v-6h-4l-3 2-4-2v-2l-30-1-7-13-16 4-4 4-8-1-3 7-4 2 1 3-5 5-2 6 2 2-12 17-5 3z"/>
  <path id="宝鸡市" fill="#ff6347" fill-opacity="1" fill-rule="evenodd" stroke="#ffffff" stroke-dasharray="none" stroke-linecap="round" stroke-linejoin="round" stroke-opacity="1" stroke-width="0.5" d="m211 994-7 2 1-10-4-1-1-3-3-1v-7l7 2 1-5 2 4h5l3-2-4-10v-3l2-1-4-9v-11l-4-2 2-9-1-5-4-5 3-8 7-4-3-22-5-12-5-4-2-5v-9l-8 5-9-1-7-28-4 1 1 2-5-1-18 3-4 3h-3v4h-2l1-8-2-2-3 1-6-3-2 1-2 6-5 7-12-2-6-3h-6l-4 3-3-4-6-1-6 2-1 4-3 1-2 6-4-2-2 3-4-1-2-3-1-7-4-4h-5l-5-3-3-4 1-8-2-3-6-1v-2l-7 2-4-9-7 1-1-3H8l-2-3h-8l-4 3-22-6-2 5-8 3h-8l-7-4-6 1-4 13-4-2-2 3 2 6-3 3 1 9 4 3 1 8 2 3 5 3v11l4 5-1 5-4 2-2 3h-6l-4 7-5 2-3 5 1 3 4 3v3l-4 1-5-4v3l-19 14 5 2-1 12 5 1 3-2 4 2 1-3h15l10 10 1-2 3 3 6 2-2 2 4 2 5 12 4 3 4-1 3 3h3l-1 6-4 2 3 8-7 12-6-4-8 2-2-6-9-3-6 8v4h3l4-3 3 2 6 21-4 8-11 2 1 10-6 7v11l-11 14 3 10 8-2 4 6-1 3-4 3-1 7 3 2 2 5-1 11 9 2 11 26 4-3 2-6 4-3-1-6 8-1 3-3-5-5h7l13 5 2-1 1-28 3-5 4 2 2-5v-6l23 16 9 2 3-3v-15l3 1 3 11h5l1 2 5-1-2 8 3-3 3 1 4 4 1 4 4 1 12-12 4 2 4-6 4 1-4 9-3 2v7l2 1-2 4 6 5 7 1 5 7 12-2 4-4h5l8-5 5 1 7-4 4 3h4l4-5-1-4-4-4 4-8-2-2 4-2 2-7-1-2 2-15 9-6 8-9 7 4 6-4 5-1 1 3h7l-2-5v-8l6-4 5-9v-12l2-1 3-10z"/>
  <path id="咸阳市" fill="#ff6347" fill-opacity="1" fill-rule="evenodd" stroke="#ffffff" stroke-dasharray="none" stroke-linecap="round" stroke-linejoin="round" stroke-opacity="1" stroke-width="0.5" d="m173 830 7 28 9 1 8-5v9l2 5 5 4 5 12 3 22-7 4-3 8 4 5 1 5-2 9 4 2v11l4 9-2 1v3l4 10-3 2h-5l-2-4-1 5-7-2v7l3 1 1 3 4 1-1 10 7-2h11l10 3 2-2 9 1 6 5h5l5-3 7 3 8-2h8l1 2 19-7 12-2 10-6 4 5 4 1 1-8h8l1-5h9l-1-8 2-6 5-1 5-5h6l4-4 3 1 6-5-1-4 4-1-1-21-3-5 8-2 2-3 9-1 9 3 5-2v-11l3-2 2-4 1-9-15 1-4-3-4 6-3-4v-5l3-5-2-5-7-8-7-5-7-1-4 3 1 3-8-3-6 4-2-6-9-9-7 1-7-3-12-29-4-2-3-5 5-5 3-8h-7l13-6-1-6-4-2 4-3v-4h4l-1-3 5-3 7-10 2-6 9-3 2 2 3-4 9-2-1-4-4-1-2-7h-6l1-3-8-21-4-1-3-3h-7l-5-7-7-1-3 9 5 18-4 14 1 6-2 4-7 5-4-3-10 6-7 1-18-3-1-3-9 7h-7l-4 3-3-9-5-3-13 6h-5l-8 6-18 2 2-4-5-1v3h-13l-4-5-2 1-7-5-7-2-1-2-6 2 4 2v6h-3l-5 4-6-1-2 3 4 6 3-1 5 11 2 9-1 3 7 7v3l8 8 4 3 4-1-1 5 4 1-1 3z"/>
  <path id="渭南市" fill="#ff6347" fill-opacity="1" fill-rule="evenodd" stroke="#ffffff" stroke-dasharray="none" stroke-linecap="round" stroke-linejoin="round" stroke-opacity="1" stroke-width="0.5" d="m648 954-4-2-8-21 2-6 6-3-7-2 2-8-15-2-5-4-6-9-1-5 3-21-3-11v-10l6-14 10-13v-8l3-1 2-9 5-11-2-2v-12l3-3-1-9 5-8 9-9 5-20 6-15 13-18 1-9 4-6-1-6-2-1v-5l-3-4-2-26-3-5v-3l-7 2-5 4-13 4-5 5-3 7-7 1-6 4-3 5-11-2-10 2-6 8 7 4h4l3 4 4 1 1 4 4 4-1 3 5 4-1 7-10-2 2 8-9 9-8 3-4 7h-2l-3 4-7-2-7 2-3-6-2 5h-15l-4-2-1-3-4 3-2-3-4 1-1-3-11 2-6 5-4 1-15-8h-13l-4 4-2 9-6 10-6-1-6 5-3-2-5 10-9 3-7 5 4 1 1 7 2 3 5 2 3 6 3 2 10-3 2 5v13l-3 4h-3l-1-5-9-2-11 4-1-3h-3l1 3-4 7-6 1-4 7 2 3h-7l-2 4-4-1-11 7 3 6-1 3-6 2v4l-5-2-12 4 2 10-1 3 11 11 2 5-3 5v5l3 4 4-6 4 3 15-1v3l6-1 7 2 2-3 5 1 1 2 10-3 4-8 9-1 3 6-1 8 2 18 3 10-11 5 2 7-2 6 4 2 2 8 3 2 1 4 3 1-2 15 1 6 4 1 8 8 10-1 9 5 6-2 2 2 4-1 7 2 4 5-2-6 3-3h3l5 6-2-8 6-6 5 5 4-1 2 5 6 4 7-3-1 5 2 2 6-2 5-4-3-14h5l1-5-3-3-3-7 6-2 4-4v-3l8-4 5 1 5-2 6 4 11 2 6 3 17-1 2-2z"/>
  <path id="延安市" fill="#ff6347" fill-opacity="1" fill-rule="evenodd" stroke="#ffffff" stroke-dasharray="none" stroke-linecap="round" stroke-linejoin="round" stroke-opacity="1" stroke-width="0.5" d="M670 633v-5l-7-1 1-9-3-5 3-4v-3l-4-5 1-3-6-15 1-4-4-9-1-7 3-7-1-6 3-6 1-7-2-3 1-4-2-4 1-9 4-6v-6l-3-7 6-8-1-10-2-4 2-7-10-9-4-9-5-4-1-3 3-1 5 3v-7l3-3-2-3-3 4-2-2 4-4-3-3-5-1-1-2h4l3-10-3-2 2-2 1-5-2-2-5-1-2-3 6-2 3-15-1-3-5 3-3-1-2 4-2-7-5-2-5 4h-3l-2-5-5-3-9-2-4 5-10 4-5-3-4-6-6-4v-6l-4-9 2-9-2-3-4 4-2-5 1-6-5-7 2-1 4 3 4-1 3-9v-5l-3-2-4 1-11-5-2-5-4 4 2 4-5 2-7-2-5 5-9-3 4-9 5 1-2-10-3 1-2-5v-6l-7-2v-6l-3-2-16 4-10-5-2-5-13-8-5 2-3 6h-3l-3 3-6 2-6 14-4 1 2 6-6-1-1 2-10 2-1 4-2-3-5 2-5-1v5l-11-4-1 3-6-1-4 6-1-2-7-2v5l-2-1-3 5h-4l-2 7h-10l-1 3-5-10 1 5-2 2-1 7 2 5 4 1v6l-6-1-3 4h-3l-4 6-4-2v2l-5-1 2 4-3 4 5 3 2 4 5 2 1 3-2 1v5l-6 6-2-3-4 2-9-4-7-9-5 3-2-1-2 5-8 5-4-1-3-3h-3l-2-6 4 1 6-4-1-4 2-7-3-6 3-11-7-9 1-6-6-1-6-4 4-2 2-6-8-6-2-17-2-4h-2v5l-8-1v-4l-8 11-10 4h-5l-4 3 6 7-1 3 7 5-1 6h-4l1 4-8 10-7 2-1-7-6 1-3-3-1 12-3 5-12 1-9 3-5 7h-3l-2-3-7 2-1-11-3-7-2-11-1-2h-6v-5l-4-1-9 9v7l-4 3 3 2-2 4-5-1-5 5 3-1 1 8 4 4-4 5-5-3-2 1 3 7 2 1 1 6 2-5 9 4-1 4-10 2 2 3 4 16-1 8-5 2-4 4 9 7 4-2 5 4 9 3 1-2 10 9 5-1v3l6 10-1 8 7-1 1 2 1-4 4-2 3 3v5l-4 2 8 9 3 1 3-4 3 2v3l8 3 1 3h4l6-15h4l-3 5 2 8h5l4 5 1-4 3 3 4-2 9 3 1 7 5 3 3 10-1 3h3l8 6 4-2 2 2 3-5v-7l9 8 6 2 4-1 6 11-1 17 2 8-2 5 11 21 1 5-2 5 2 1-3 5-2 8 1 7-5 6-1 10h-12l-4 3-1 4-8 3-3 8 5 11-1 14 2 3-3 7 2 8-1 4 3 13 4 1 1 3 9 6 1 4 7 1 5 7h7l3 3 4 1 8 21-1 3h6l2 7h9l5-3 12-17-2-2 2-6 5-5-1-3 4-2 3-7 8 1 4-4 12-4h4l7 13 30 1v2l4 2 3-2h4v6l2 2-4 4 3 1 1 3-2 4 5 5v9l5-15 4-4h13l15 8 4-1 6-5 11-2 1 3 4-1 2 3 4-3 1 3 4 2h15l2-5 3 6 7-2 7 2 3-4h2l4-7 8-3 9-9-2-8 10 2 1-7-5-4 1-3-4-4-1-4-4-1-3-4h-4l-7-4 6-8 10-2 11 2 3-5 6-4 7-1 3-7 5-5 13-4 5-4z"/>
  <path id="汉中市" fill="#ff6347" fill-opacity="1" fill-rule="evenodd" stroke="#ffffff" stroke-dasharray="none" stroke-linecap="round" stroke-linejoin="round" stroke-opacity="1" stroke-width="0.5" d="m216 1108-9-4-7-1-3-3-4 3-5-3-9 12-16-6-13-1-4 5h-4l-4-3-7 4-5-1-8 5h-5l-4 4-12 2-5-7-7-1-6-5 2-4-2-1v-7l3-2 4-9-4-1-4 6-4-2-12 12-4-1-1-4-4-4-3-1-3 3 2-8-5 1-1-2h-5l-3-11-3-1v15l-3 3-9-2-23-16v6l-2 5-4-2-3 5-1 28-2 1-13-5h-7l5 5-3 3-8 1 1 6-4 3-2 6-4 3-2-3-1 3-3 2v6l-4 6-8-4-3 3-4-4-2-17-3-1-8 2-6 5h-3l-6-4-5 2-7 7-9 4-8-4 1-4-8 3 1-5 4-1-9-5-4 3-3-1-3 3-2-3-3 1-4-2-11 13h-3l-6 10-5 4-2 8v16l-18-2-4 2 4 8 4 3-1 7 3 3 5 1v4l7 2 6 4 8-1 11 8v10l-4 1v-8l-3-2-2 4 1 2-5 6 5-1-1 3 3 4-3 2 3 6-4 2v3l3 3-2 10-10 12-7-2-16 9-15 3-2 2-10 2-4-7h-6l-4-3-3 3v7l5 6 2 12h4v4l2 3-2 1 1 7 4-1 2 6 6-1 9-5 8-7 3 1 2-3h4l2 4 5-5 2 1-1-5 3-7 4 1 1-2 5-1 10 1 5-4 5 4h3l2-6 4 1 4 6h5v6l-6 3 11 14 4-1 2 4 3-1v2l15 1 4 5 4-2 10 2 5 5 2 5 5 2 6-5v-4l8 2 4-4 9-2 4-3 7 2 6-2 13-10h9v8l2-3 6 2 4-4 5-1 5 1 3 4 8-3 5 1 4-2 3 2 7 1v8l4 1 2 4 1 10-2 11-3 2 9 13 11 3 4 8 4 3 6 3 4-11 5-8 8-3 4-7h6l4 2-1 6 2 7 3 2v9l6-2 2 7 4 2 14-6h9l5 3 3 5v4l4 6 7-2 6 13 9 12 6 4 4-2 6 3 10 11h3l5-6-1-8 3-2 10-2 6 3h4l2-5 5-4-13-24 1-4 4 1-4-10 1-2h6l4 3 2-3 17-12-6-16-7-7-4-1 2-3 11 3 1-2-2-15-5-2 3-5-10-11h-7v-3l-4 1-1-5 2-1-4-3-2-7-4-6v-5l9-9v-10l2-4-9-18 3-9v-17l-6 2 1-2-6-3 1-3-5-4 2-1 3-8-1-6 2-5 7-5 2-4-2-2 4-4 5 3 3-6-2-7-16-12v-13l2-5-3-4 2-7-3-6zm-360 206v1z"/>
  <path id="榆林市" fill="#ff6347" fill-opacity="1" fill-rule="evenodd" stroke="#ffffff" stroke-dasharray="none" stroke-linecap="round" stroke-linejoin="round" stroke-opacity="1" stroke-width="0.5" d="m646 380-7-9 1-2h5l5 3 2-2-5-2v-4l7-1 6-9 7-7 1-6 20-25 2-7 6-1-3-7 3-2v-5l-11-4v-8l3-9 18-2 2-5 2-16 5-6-5-6-1-11 5-2 1-3-4-4-7-2-5-4-1-3 2-2 7-2v-4l-3-4-10-4-4-5-2-7-11-20-12-6-1-4 2-5-4-5-1-6 2-5-2-9 4-6-3-14 3-6 8-1 2-19 4-2 7 1 6-2 6-10 8-3 5-17 4-3 8 3 6-3-1-13 7-3v-9l2-5-4-1-3-9 3-8 4-3v-7l9-12-2-5 4-3 3-9 3-3-3-7 3-2 1-4-1-9-6-9 4-6 7-5 9-2 9-9 2-8 3-2 2-6-2-4 10-22-1-3 2-6 4-4h-6l-5-3v-9l-5 4-1-8h-5l-3 3-4-6 2-6-2-1-4 2-2-7 1-4 5-2v-3l4-1-2-2 1-4 8-8 1-8-3-5-7 7-10 1-1-3-15 11-12 3-15 23-13 15-1 9-5 8-3 2-3-2-8 2-6-4-5-8-1-8-7-8-4 6h-3l-3-4-6-1-3 8 2 1-8 8-3-5-5-3-15-15 3-3-6-1-5-5-2 2-9-4-4 1-1 8 2 5 4 1 5 9 4 16-36 18-9-1-4-7-7-7-6 5 2 4h3l12 11-12 10 5 8-6 1-2-3-4-2-17 16-7 9-4 1-2 5-4-1-1 4 4 3-1 8-10 19-14 11-7-7-11 11-7 10-2 6-11 4-3 8 8 9-7 7-10-5-27 33-13 11 1 5-2 6-8 6-8 22 3 3-4 8-3 2 1 9 21 16 1 2-3 8 3 8h-5l-4 12-7 3-1 6-7 2-3-9-4-4-2-8-5-6-5-2h-6l5 15-5 11-1 28 2 5-3 6-1 7 2 8-3 4-11 1-3 2-16 4-9-7-5-2-20 10-13 2-4 2-5-2-2-4-8-2-8 2-2 4-7 4h-4l-13-7-7 1-2-4 2-7-2-7-3-2-3-7 1-5-9-2-7-4-2 1-8-4h-5l-13-4-11-10-1 3-5 2 2 5-7 16-4-4-5 4h-9l-4 2-3 14-10 5-8-2 1 5 6 1-1 4-4-1-6 9-7 2-2-1 3 6 7-1 1 2-5 14-11 8-3 21-2 5 2 18 4 3 3 9-3-1-4 3 9 7 3 6-1 10-4 7-6-7-1 7 3 10v14l3 10-2 5 3 3 4-2 7 4 14 1 6-2 10 10-1 3 2 6 9-2 9 4 15-9v-14l-5-13 10-2 1-4-9-4-2 5-1-6-2-1-3-7 2-1 5 3 4-5-4-4-1-8-3 1 5-5 5 1 2-4-3-2 4-3v-7l9-9 4 1v5h6l1 2 2 11 3 7 1 11 7-2 2 3h3l5-7 9-3 12-1 3-5 1-12 3 3 6-1 1 7 7-2 3-5 3-1 2-4-1-4h4l1-6-7-5 1-3-6-7 4-3h5l10-4 8-11v4l8 1v-5h2l2 4 2 17 8 6-2 6-4 2 6 4 6 1-1 6 7 9-3 11 3 6-2 7 1 4-6 4-4-1 2 6h3l3 3 4 1 8-5 2-5 2 1 5-3 7 9 9 4 4-2 2 3 6-6v-5l2-1-1-3-5-2-2-4-5-3 3-4-2-4 5 1v-2l4 2 4-6h3l3-4 6 1v-6l-4-1-2-5 1-7 2-2-1-5 5 10 1-3h10l2-7h4l3-5 2 1v-5l7 2 1 2 4-6 6 1 1-3 11 4v-5l5 1 5-2 2 3 1-4 10-2 1-2 6 1-2-6 4-1 6-14 6-2 3-3h3l3-6 5-2 13 8 2 5 10 5 16-4 3 2v6l7 2v6l2 5 3-1 2 10-5-1-4 9 9 3 5-5 7 2 5-2-2-4 4-4 2 5 11 5 4-1 3 2v5l-3 9-4 1-4-3-2 1 5 7-1 6 2 5 4-4 2 3-2 9 4 9v6l6 4 4 6 5 3 10-4 4-5 9 2 5 3 2 5h3l5-4 5 2 2 7 2-4 3 1z"/>
  <path id="安康市" fill="#ff6347" fill-opacity="1" fill-rule="evenodd" stroke="#ffffff" stroke-dasharray="none" stroke-linecap="round" stroke-linejoin="round" stroke-opacity="1" stroke-width="0.5" d="m468 1230-18 3-5-7h-10l-5-5h-2l-8 7h-10l-11-12-10 10-3-2-4 4 1 5-8 3-2-6-3 1-17-21-12-9-6 3-4-1 1-4-6-6h-4l-10 5-2-4v-12l5-8-2-11 8-9-1-7 5-3 13 3 4-1 9-10 1-5 5-3-7-5 1-3 5 1 10-10 4 4 4-1 4-9-4-11-14-1-2-3 1-5h-7l-4 4-5-3v-6l-2-1-8 3-9-3-6 4-3 7-3 3v3h-4l-3-5-11-4-14 9-7-6h-4l-7 7-4-1-5 2-5 6-7 1-2 3h-6l-3-2-3 2-3-3h-5l-3 3-1 7 3 6-2 7 3 4-2 5v13l16 12 2 7-3 6-5-3-4 4 2 2-2 4-7 5-2 5 1 6-3 8-2 1 5 4-1 3 6 3-1 2 6-2v17l-3 9 9 18-2 4v10l-9 9v5l4 6 2 7 4 3-2 1 1 5 4-1v3h7l10 11-3 5 5 2 2 15-1 2-11-3-2 3 4 1 7 7 6 16-17 12-2 3-4-3h-6l-1 2 4 10-4-1-1 4 13 24-5 4 4 4 7-6-1-2 7-3 12 9h3l3-5 7-2 5 2 3-2 4 1 4-2 2 4 4 1 1 10 7 5 6 1 18 15h12l1 6 6 5 9 2 6 8 6 4 6-1 4 2h5l19 11 7 8 7 3 6 7v6l14 3 1 5-5 3 5 5v5l20 3 4-1 1-2 7-1v2l23-3 4-3-2-2v-8l2-3 6-2-6-15-4-4 2-5 5-1 2-7-6-8-2-6v-5l6-12-5-7-1-5 3-8-2-4-8-2-4-9-6-7 3-5-2-12 1-3 4-3v-6l2-2 2-7 5-3 2-5 5-2 4-4-3-5v-6l2-2 17-1 6 4 11 2h5l6-3h6l6 4 5-1 4 6 6 1 11-8-1-6 4-2 11 6 7-9-9-12 1-17-4 1-2-3 3-5-5-5-23-13h-11l-2-4h-6l-5-2-2 4-7 3-8-6 4-17 1-18-19-10-10-1-6 2-1-2-3 2-3-3-9-4h-8z"/>
  <path id="商洛市" fill="#ff6347" fill-opacity="1" fill-rule="evenodd" stroke="#ffffff" stroke-dasharray="none" stroke-linecap="round" stroke-linejoin="round" stroke-opacity="1" stroke-width="0.5" d="M422 1086h-2l-4 4-1-1 2-3 1-13-8-1-3-7h-6l-4-4-8 9-11 4-4-1-2 5-7 5h-4l-2 2-1 5 2 3 14 1 4 11-4 9-4 1-4-4-10 10-5-1-1 3 7 5-5 3-1 5-9 10-4 1-13-3-5 3 1 7-8 9 2 11-5 8v12l2 4 10-5h4l6 6-1 4 4 1 6-3 12 9 17 21 3-1 2 6 8-3-1-5 4-4 3 2 10-10 11 12h10l8-7h2l5 5h10l5 7 18-3 8-11 3-1 2-7 7-1 7 3 3-1v-7l2-2 6 2v3h8l7 5 15-1 6-3 13 4 10 6 5-2 7 4 23-4 10 10 5 1 9-2 7 2 5-5 11 3 5-2 4 2v-3l10-10 2-6 7 1 3 10v8l4 5 6-2 10 13 3-1 1-7 7-4h6l5-2-1-4 2-5 6-3 11 3 8-12 5 1-2-4 4-7-1-5 5-1v-10l-6-13 5-3 1-4-2-12-2-2v-10l-7-7-16-5-7-7-3-6 1-4-3-9-6-10h-7l-3-2-2-6-5-1-4-3-4 2-6-2v-3l-4-5 1-3 6-1v-4l9-5-1-4-3-1-1-5-4-6v-3l-3 2h-4l1-17 4-2 5-11-4-3-6-1v-2l-6-1-1-4-8-1-3-4-9-2-2-7 1-3 3-1 4-7 5 1v-5l-5-11 1-3-4 1-5-2-7 1-2 2-17 1-6-3-11-2-6-4-5 2-5-1-8 4v3l-4 4-6 2 3 7 3 3-1 5h-5l3 14-5 4-6 2-2-2 1-5-7 3-6-4-2-5-4 1-5-5-6 6 2 8-5-6h-3l-3 3 2 6-1 5 5 1 5 5 4 1-6 3-2-4-7 9v5l-9-2-4 2-2-2-5 7-12 2-3 5 2 2-3 2-2 10 13 9-2 9h-3l-7 5v3l-6 3-7-1-5 2-8-1-7-4-11 2-1-3-7-2-8 3zm0 0 4-12-4-2-4 1-1 13h3zm335 73v2z"/>
</svg>
