<svg xmlns="http://www.w3.org/2000/svg" id="svg1" version="1.1" viewBox="-251 -228 1760.9999 1205">
  <path id="西宁市" fill="#ff6347" fill-opacity="1" fill-rule="evenodd" stroke="#ffffff" stroke-dasharray="none" stroke-linecap="round" stroke-linejoin="round" stroke-opacity="1" stroke-width="0.5" d="M1232 176v2l5 6-1 4 7 11-1 5 3 5-1 1 8 7 1 6 4 2 4 8 5 2 3 5 9 6 4-3v-2l5-2 4-7 8 3 2 3 11 5h8v6h3l6 9 5-3 1-5h3v-3l10 1 1-6 5-8-2-4v-6l3-2v-3l3-4v-6l2-3v-3l-4-7-8-6-2 1v-4l-2 2-1-3 2-4-2-5 3-9-2-3 2-2v-14l4-4 2-5-2-3 1-4 2-4 4-2v-12l3-2v-3l-3-1-2-4-8-3-1-3h-5v-2l-3-3-3 2-10-3-2 1-11-5v-7l-5-2-22-3-6-5-4 3-5-2-5 1-3-2h-7l-17-10 1-3-2-1-4 3-2 4-2-1-2 3 1 6-2 4 6 8 2 7 4 3 6-1 5 5 4-2 6 3 6 14 7 3 2 5 4 3-1 1 3 8-1 6 2 6-1 4-2 1-6-3-6 4-2 4-10 10-8 3-8-6-7 4 1 4z"/>
  <path id="海东市" fill="#ff6347" fill-opacity="1" fill-rule="evenodd" stroke="#ffffff" stroke-dasharray="none" stroke-linecap="round" stroke-linejoin="round" stroke-opacity="1" stroke-width="0.5" d="M1429 382v-5l1 1 1-5 3-1 2-5v-7l4 1 7 6 14 2 6 6 5-6-1-1-6 2 2-3 9-3-6-8v-7h-3l-4-8-3-10 1-4 2-3 4-1 6-7 8 3 5-1 4 3h3v-15l3-11-2-4 2-4h-5l-1-3h-3l-2-3 8-3 1-7 2-1 3-6 4-2 3 1 3-2-6-4v-3l-7-5-6-2-3-5-7-1-2-3v-9h-2l-6-9 3-2v-3l-2-4-3-1-2-5v-2h4l-7-4 2-3h-4l-11-10v-10l3 1 8-7 3 2-11-14-6-3-3-5v-3l-4-1-1-2h-3v-3l-4 1-3-3 3-1v-2l5-5-3-9-13-5-25 5-4 3-20-7-12-8v3l-3 2v12l-4 2-3 8 2 3-2 5-4 4v14l-2 2 2 3-3 9 2 5-2 4 1 3 2-2v4l2-1 8 6 4 7v3l-2 3v6l-3 4v3l-3 2v6l2 4-5 8-1 6-10-1v3h-3l-1 5-5 3v11l7-1 2 3 2-4v4h4l2 5 6-1 5 2v2l2 1-1 2 8 3-2 2 2 3h2l1 4 5 2 3 6 5 1-5 3 1 3 6-2 2 2v6l-5 1 3 5-2 3 8 10-3 2 6 2-2 2 1 3 7-2 2 8 5 5h5l5 3 5 7 3 1v3l2-1v8l-3 2 2 2zm50-143 2-1-2-2z"/>
  <path id="海北藏族自治州" fill="#ff6347" fill-opacity="1" fill-rule="evenodd" stroke="#ffffff" stroke-dasharray="none" stroke-linecap="round" stroke-linejoin="round" stroke-opacity="1" stroke-width="0.5" d="m1360 110 12 8 20 7 4-3 25-5 13 5 2-2 14-3 4 1-5-12-4-1-5-6-6-1-1-3-3-1v-4l-5-4 2-1-17-10v-4h-4l-3-3-6-2-3-6-6-4h-3l3-10-3-3v-3l-2 1-3-2v-2l-4-4 2-5-2-1v-4l-5-6-6-1-10 7-2 4-6 1v-4l-3-3-16-5 1-4-4-3-5-9-13-5-7-1-8 7-3 5-10-7-10-2-6-3-3-8-3-1-1-4-3 1-15-12-6 2-3-2-1-6 5-6-1-5 1-5 2-2-3-3-9 5-3-2-9-13-5-2-12-2-3 3h-7l-3-4-6-3-2 4-3-1v-5l-2-1-3 2-3-3-2 1-5-4 2-2-5-8-5 4-2-12-5-3h-5l-5-5-5-1-3-4-5 2-3 7 4 3-1 2 4 3 5 1 5 12 4 1v10l3 6v2l-3 1-5-3-1-4-3-1 1-1-4-3-3 1-6-6h-5l-3-4h-4l-10-4-9-7-13-7-17-16-4-11-6 2-5-10-5-4-1-5-9-8-9-4-20-17v-3l5-6-5-2-2-3h-8l-5-2-6-4-2-4-9-4-1-4h-9l-1 5-4 2-1 4-4 4-6 3 1 3-1 2h-3l-1 3-8-4h-9l-3-3v-3l-4-2-2-4-9-2-4 1 1 7-7 12 2 2v3l-10 7-10 10 6 8-1 4 6 7 8 1 4 4v-4h3l9 8 6 3 16 3 9 9 9-1 4 2 3 5 6 2h13l9 5 4 8-4 1-5 5v2l3 1v3l-4 4v2l5 3 8-2 4 4 7-1 7-5 3 1v-3l6-2 1-2h3l2 2-2 3 15 9 5-2 12 1 4 7 8 1 1 6-2 9 5 2 4 4h4l-4 4-5-1-7 4-4-1-11 3-4-1-4 3-3 6 5 4-2 3 8 5 4 4 1 4 2 1 2-3 19 8-1 9 1 3 4 3 1 6-1 2-7 2-6 7h-4l-2 3v5l-5 3-5 10 2 12-8 6v7l3 8-2 6 1 10 3 1v3l7 2 10 7 6 2 7 7 4 2 3-1v4l4-1 3 5 3 1 2 3 111 30 3 4 10-1 8-3 7 5-1-8 7-4 8 6 8-3 10-10 2-4 6-4 6 3 2-1 1-4-2-6 1-6-2-3v-6l-4-3-2-5-7-3-6-14-6-3-4 2-5-5-6 1-4-3-2-7-6-8 2-4-1-6 2-3 2 1 2-4 4-3 2 1-1 3 17 10h7l3 2 5-1 5 2 4-3 6 5 22 3 5 2v7h4l7 5 2-1 10 3 3-2 3 3v2h5l1 3 8 3 2 4z"/>
  <path id="黄南藏族自治州" fill="#ff6347" fill-opacity="1" fill-rule="evenodd" stroke="#ffffff" stroke-dasharray="none" stroke-linecap="round" stroke-linejoin="round" stroke-opacity="1" stroke-width="0.5" d="m1236 549 4 2 1-1 8 6 1 3 13-2 1 2 4-3 5 2-1 4 5 1 2 3 4 1 1 3h7l5 3 9 2 1 3h3l2-2 4 3 3-1 2 3h3v2l4 3-1 3 3 3 3-2 2 2v3l2-2 1 3 7-8 7 1 3-4 1 3h3l8 4 1-9 5 1 2-5-1-5 7-2v-9l11 4v-4l2-2 2-7 5 2 5-3-3-4h-2l-3-7-3-3v-4l-3-5h-2l-2-3-4-2h-11l-4-2-2-5-3-1-2-6v-39l9-4 10 2-2-3 1-5 9-12-3-2-1-6-6-2 1-3-2-6-4-4 5-3-5-11-4-5 1-3-7-6-2 5-2-1-4 5v5h-10l-5 5-3-6h-24l-5 6h-6l-2-6h-3l-3 3 3 8-3 2h-5l-2-1 1-11-3-4 10-2-2-7-13-6h-6l-4-3h-4l-2-2-2 1-3-2-21 1-16-5-3 3-16-1-1 3 6 7v3l11 1v2l4-1 9 5-6 8-11 10-4 1-3 4h-3l1 3-2 2v6l5 6 9 5 14 4 4 6 8 5h4l-1 2 3 2 10 1 2 7-3 5-5 1-1 3 3 6-1 3-4 1-1 6-3 4-4 2-5-4h-10l3 6 1 9 4 5 3-1 1 15-2 4zm77-137h24l3 6 5-5h10v-5l4-5 2 1 2-5 7 6-1 3 4 5 5 11-5 3 4 4 2 6-1 3 6 2 1 6 7 3 2-4h5l1-4 4 2 3-1 4-12 4-2 2-3 6-2v-3l-5-7 1-4-12-7 4-1 1-4-4-7 1-6 3-2 12 4 5-4v-2l-6-5 3-2v-8l-2 1v-3l-3-1-5-7-5-3h-5l-5-5-2-8-7 2-1-3 2-2-6-2 3-2-8-10 2-3-3-5 5-1v-6l-2-2-6 2-1-3 5-3-5-1-3-6-5-2-1-4h-2l-2-3 2-2-8-3 1-2-2-1v-2l-5-2-6 1-2-5h-4v-4l-2 4-2-3-10 2-1 12 2 3-1 9 3 3 1 9 7 4-9 14 2 4-2 2 3 3h7l3 2 1 9-9 13h-2l1 4-2 1-3 6 1 2-15 5-2 4-6-4-2 3-8-5-2 1 1 7 7 8 3 8-5 3h-6l2 7 7 1 5-4 1-3 5 2-1 4z"/>
  <path id="海南藏族自治州" fill="#ff6347" fill-opacity="1" fill-rule="evenodd" stroke="#ffffff" stroke-dasharray="none" stroke-linecap="round" stroke-linejoin="round" stroke-opacity="1" stroke-width="0.5" d="m1232 176-7-6-8 3-10 1-3-4-111-30-2-3-3-1-3-5-4 1v-4l-3 1-4-2-7-7-6-2-10-7-18-5-1 6-10 5-2 3-5 18-4 3-6-2 1 3 15 9 3 7 17 15-1 3 3 9-10 5-5 5-53 22 1 6 3 4 5 2 10 14-3 14-7 7v3l-7 3v2l4 2 2 6 4 1v4l10 9-3 5 6 10-2 4 3 3 1 10 4 2 6 10v7l-7 10 4 2 1-2 13 8 6 8-8 3-2 4-6-1-2 3 3 2h7v2l3 1 1 6-2 2-5 1-6 6-4 5 1 5 2 3 3 1 1 4 5 1 10 17 3 1 3 7 3 2 8 12 6 2 4-1 5 3 7 1 3 4 4 1 4 6 8 2 2 3h5l3-2 12 6h7v-2l7-2 4-9h18l6-3v2h3v7l5 5 4-1 12 3 10 10 4 1 1 5 6-4v2l5 4 1 3h10l3-4 8-4 3 2 1 7h10l5 4 4-2 3-4 1-6 4-1 1-3-3-6 1-3 5-1 3-5-2-7-10-1-3-2 1-2h-4l-8-5-4-6-14-4-9-5-5-6v-6l2-2-1-3h3l3-4 4-1 11-10 6-8-9-5-4 1v-2l-11-1v-3l-6-7 1-3 16 1 3-3 16 5 21-1 3 2 2-1 2 2h4l4 3h6l13 6h6l5-3-3-8-7-8-1-7 2-1 8 5 2-3 6 4 2-4 15-5-1-2 3-6 2-1-1-4h2l3-6 4-3 2-4v-5l-1-4-3-2h-7l-3-3 2-2-2-4 9-14-7-4v-6l-4-6 1-9-2-3v-6l1-6 3-1 1-8-4-9-3-3h-3v-6h-8l-11-5-2-3-8-3-4 7-5 2v2l-4 3-3-1-6-5-3-5-5-2-4-8-4-2-1-6-8-7 1-1-3-5 1-5-7-11 1-4-5-6zm63 231-10 2 3 4-1 11 2 1h5l3-2-3-8 3-3h3l2 6h6l5-6-1-10-4-1-1 3-5 4-5-1z"/>
  <path id="果洛藏族自治州" fill="#ff6347" fill-opacity="1" fill-rule="evenodd" stroke="#ffffff" stroke-dasharray="none" stroke-linecap="round" stroke-linejoin="round" stroke-opacity="1" stroke-width="0.5" d="m813 590 16-8 1-4 5-2h8l7 3 8 7 2 4h9l6 3 2-1 5 2 1 3 3-2h22l-1 3 1 3 4 3 1 6-4 9 2 3-2 7 4 4 3-1 4 8v5l3-1 3 4 5 2 4 8 6 5-5 2 1 4 4 2-1 8h2l2 4 6 3 2 4-1 10 6 6-2 8 1 3-2 4h4l3 2-1 6 7 11 5 2 1 2 8 1v3l6 3 2-2 8 2 1 3 2-1 1 3h7l4 4 1 5 2 1v4l2 1 3 11 7-1 2-2 2 2 3-3 14 8h6l3 2 6 9 5-2 1 3 7 1 2 5h2l3-6 4-17-2-11 4 2h6l4-13-1-3h3l6 9 1 6 11 3-1 5h4l3 2v3h3v3l2 1-1 5 3 12-7 9 3 2v2l10 2 3 3 3-6 1-11 3-1v-2l9 3 9-5-3 8 2 1 3-6 4 6h2l3 4 3 6-1 3h3l2 6h3l1 2 9 5h3v-15l1-1 4 3 1-1-1-5-3-3 1-2 8 5 2-2 1 3 3-2 11 3 2 3 4 2 19-12 4 1v6l2-4h4l8-10 2-15-2-2v-3l-6-6-6-2v-12l7 1v-9l-5-7 3-2v-3l-2-2 1-2-2-1-3-6 1-5 7-7h3l2 2v-2h7l7 5 7 13 2-6-2-3 3-3h10l4 6 5 3 10 11 4-6-1-4 4-3-1-3 4-2 4-8-4-5h-4l-4-4 2-9 4-8 8-1 2-2 1-12h-3l-3 6h-13l-2-7v-9l-2-5-2-1v-6l-3 1-3-4-6-1-8 3v4l-6 2-16-4-3-3-2 3-7 1 2-3-2-2v-4l3-4v-6l-5-9-5-1v-2h-7l-5-5-2 1-5-9-5-5 1-2-3-2-2-5h-2l-1-7-3-1-5-10-6-4 6-11-1-2 3-9 6-2 3-7 3 1 4-2 4-10-1-15-3 1-4-5-1-9-2-2-2-11-3-2-8 4-3 4h-10l-1-3-5-4v-2l-6 4-1-5-4-1-10-10-12-3-4 1-5-5v-7h-3v-2l-6 3h-18l-4 9-7 2v2h-7l-12-6-3 2h-5l-2-3-8-2-4-6-4-1-3-4-7-1-5-3-4 1-6-2-8-12-3-2-3-7-3-1-1-5-6-6-3-6-5-1-1-4-3-1-2-3-1-5 4-5 6-6 5-1 2-2-1-6-3-1v-2h-7l-3-2 2-3 6 1 2-4 8-3-6-8-13-8-1 2-8-2-2 4-4 1-6-2-2 3-13-3-2 1 2 2-6 2-9-6-4 2 1 2-2 7-6 3h-4l-11 9-12 2-6-4-7 2h-6l-3-2-2 2-2-3 1-4-6-1-5 7v5l-5 18-7-2-5 2-2 4-7 2-10-1-3-3-3 2-10-5-4 1-5-4h-10v-5l-4-1-3 1v19l-7-2-3 1-10-5h-14l-1 5 4 3v2l-5 3-8 10-4 11-2 1-3 6 2 1v4l-13 8-5 6-9 2 2 4-1 3-3 2v3l-5 2-3 4 6 9 3 1 1-5 8 1 5 4h4l-3 6-6 2-1 2 5 5 3-1 9 4 1 7-3 6-4 3 4 3 6-2 13 5 2 6-5 5 1 3 6 2 6 7 1 4 5 1 3 3 3 10 4 1 1 3 4 2 2-1 1-5 2-2 3 3 1 6z"/>
  <path id="玉树藏族自治州" fill="#ff6347" fill-opacity="1" fill-rule="evenodd" stroke="#ffffff" stroke-dasharray="none" stroke-linecap="round" stroke-linejoin="round" stroke-opacity="1" stroke-width="0.5" d="m156 804 5-2 2 3 2-1 1 2 4-2 3-5 9 3 4 4 4-1 7 5v-3h11l3-1 2-3 3 1v5l3 1v4l3 6 5-1 1-2 5 1 2-4 5 2 4-1 3 6 5 1 1 5 10 9v-3l3-2h7l1 8h3l2 4 5-1 9-6 4-7 9-1 13 4v4l3 2 3 6 5 1 6-3 3 4 2-1 2 3 3-1 2-3 5 1 2 3 4 2 2-3 4-1 1-2-2-2 3-5 12 2v-2l8-2 2 1 3-11 6 5 3-1v-5l2-1 1 2h7l3-5h4l1-5 2-2 10 9 1 3 2-1 3 2v4l4 1-2 2v3h4l2 6 5 1 2 2 4-1 3 9 4 1 7-2 8 4 2 3 1-2h6v-2h3v2h7l1-2 2 6 2-1 2 3-21 4-2 6 3 3h3l1-2 5-1 4-3 1-3h3l3 17 2 1-1 1 2 4 4 3h7l-1-4 3-2 3 1 2 4h2l-1 5 2 1 1 8-4 2v3l4 4-10 2-2 5 1 5 5 1 4 14 3 2-1 2 6 4 1 4h9v-3h3l1-2h5l17 5 3 7 3 3 3-5-1-3 2-1 1-5 4-7 11 1 1 4 9 10 10 3 2 7-1 4 2 4h5l3-3v-5l3-1 1-5-4-6 1-2-3-3-4-1 1-9 2-1 2-6-4-4h4l5-4 5 2 10-1 2 1 6 18 4 4 13 9 6-3 6 4 1-3 3 1 4 5 7 2 2-4h4l2-2-1-4-4-5v-3l-4-4-1-6 4-1 2-5-4-6-3-1-2-4 1-4-3-3h10l5 3 1 3 3 2-1-5 4-1 6 3 3-4-3-6 2-2 7-1 2 3h6l4 2 4-1 5 3 2-5 6 2v-3l-4-4 2-3 5 6h6l-1-4 2-5-5-2-1-6 4-17 3-1 6 4 7-4-4-19-6-2 1-4 5-5-7-3-1-3 2-3 2-1 2 3 5-3v-2l5-2 2 5 4 4 4 1 1-2 11 3 14-2h-3l-10-7-3-3v-3l-8-1-2-3-8-3-6-7v-3l-5-8 1-13-2-3-3-1 2-6-1-2 2-2 19-5-3-4 6-4-4-9-3-1v-10l5-5 6-3v-2l4-4 2-11 2-2 5 1v-3h3l7-8-17-8-2 2-3-3h-4l-1-4-4-4 1-9-9-1-5-3-1-4 4-8-4-17-5-5 1-3 3-1-1-6h9l1-2 2 1 3-3 2 2 10-4 4 1 4-5-1-7 6-6-1-6-7-13-1-6-3-3-2 2-1 5-2 1-4-2-1-3-4-1-3-10-3-3-5-1-1-4-6-7-6-2-1-3 5-5-2-6-13-5-6 2-4-3 4-3 3-6-1-7-9-4-3 1-5-5 1-2 6-2 3-6h-4l-5-4-8-1-1 5-3-1-6-9 3-4 5-2v-3l3-2 1-3-2-4 9-2 5-6 13-8v-4l-2-1 3-6 2-1 4-11 8-10 5-3v-2l-4-3 1-5h-4l-1-6-2-1-2 3h-5l-3-2-12-1-4-2-2-5-3-1-2-3 1-4-6-6-5-2-2 3-2-5-5 3-6-5-3 2-5-1-2-4-7-6-1-3-4-1-2 2h-10l-5-5-10-2-3-2-2 1-9-3-2 2-6-2h-7l-2 3h-6l-6-3-2 4-6 2-2 9-10 4-1-4-3-2-2-8-6-3-14-1-4 2-1-3-9-1-2 2-2-2h-20l-2 6-4 3h-5l-9-6h-6l-4-2-4 2-5-2-1-4-2 3 3 3-4 1 1 6-1 3-3-1 1 7-2 4-2-1-1-4-9-1-6-4-4 1-1-2-5-1h-6l-1 2-2-1-1-6-4 4-2-2h-7l-4 3-6-3-6 2-11-3-2 2-8-4-3 2-6-3h-10l-4-4 2-1h-4l-3 2-2-2-5-1-5 5h-7l-4-2-3-4-10-5-6 1-14-5-2-4-8 1-2-2-3 2-16-5-3 4-8-3h-24l-23-5-2-5-7-2-3 3-20-6-32-1-18-3-6-3-7 3-4-2h-8l-29-8-7-5-1-3-11-3-11 4-28-9-4-6 3-9-6 3v2l-6 5-11 4-10-1-8-6-19-8 3 7-2 3-4 1-13-3-7 12-7 1-3 2-4-3-5-8-15-8-6 1-6-1-2-2-17 2-6-2-4 1-2-3h-12l-14-8 2-5-11-2-2-4h-5l3 3-2 12-9 9 1 9-11-2-9 2-13-3-11 8-17 3-7-4-2 4 4 5v7l-2 2 1 3 15 5-2 1 3 3 14 2 15-3 3 3-2 2v4l-2 1 2 4-1 2-4 1v15l-3 2 6 8-1 2h-5l-2 2-1 6 1 5h4l3 4h-2l-8 10-3-1-6 2-2 3-12 3-1 2 2 4-2 6 4 3-10 8 7 9 1 5 4 3h5l1 2v7l-1 6-2 1 1 3-2 10 3 6h5v2h3l9-6 4 3 5-3 6 4 5-2-1 1 5 5h3l6-5 6-2 9 2 4 6 9-5-1-2 5-5 4-1 3 3 4 1 15-3 3 2h21l4 1 2 4 8-1 2 2h6l18 9 1 3 3 2-1 4 2 3 6 2 3-4 4 1v-6l9 3 5-3 8-1 4 3h8l3 4 14 6 18 4 10 6 4-2 3 1 4 6 9 1 3 4 4 2 10 1 1 3-5 6 1 5 9 2 8 5 18 7 3 3h17l8-2 8 2 3-6 4 2 2 10 13 31-1 3 5 4v2l3 2 12-2 3 2 5-3 6-1-6 8-5 2-6-1-10 14 2 4 3 1v15l2 4-1 4 3 7-2 3 5 3-2 7 4 3-1 7 6 6v3l-5 6-3 1-4-1-3 3-5-3-5 10v4l-8 5 2 5-2 3 3 3 2-1 6 3 5 5-1 7-6 6 1 3 6 5 1 9-5 6 1 3-5 6-1 6-7 5-2 18z"/>
  <path id="海西蒙古族藏族自治州" fill="#ff6347" fill-opacity="1" fill-rule="evenodd" stroke="#ffffff" stroke-dasharray="none" stroke-linecap="round" stroke-linejoin="round" stroke-opacity="1" stroke-width="0.5" d="m869-157-4-5-5-3-2-4-13-4-15-10-12-3-2-7-13-8-11-4-5-7-4-1-4-4-3 1-4-4h-6l-20-6-10 1-2-2h-4l-7 2 6 9-5 7-4 32 3 3 4 1-1 15 2 5 3 1-2 9 6 5v13l-12 6-22-9 2 6-5 3 4 5-2 3-13 1-2 3 5 4-1 6-10 13 2 6 2 1 2 11-34-8-9 6-4 10 1 4-6 2-1-3-4-1v4l-14-5-2-2h-3l-2 3-7-6h-3l-6-5v-3l-6-5-4 1-4-12h-7l-9-8-4 2-1 4h-3l-2 3-5 1-9 8-2-3-6 3-2-3-7 2-3-2-3 1-2-2-8 3-4-5h-3l-2-7-7-4-2-3-6 2-4-3-2 1-1-2-15 1-3 1-2 4-26 1-10 3-4 3-3-2-1-11-20-55h-11l-40 6-3 2-10-2-9-4-4-4-2-6 2-2 15-1v-7h-7l-13-9-29 1-30 4-4-4-8-1 2-20-4-7-4-3-1-3 2-6-3-3-10 5-6-1-2 2-2-4-3-1-6 2-3 4-11-1-15 5h-16l-1 2h-5l-5 6v3h-4l-3 2 2 3-5 3-15-1-12 7h-8l-15 4-14 6v3l-3 1-10 2-10-1-3 3h-5l-18 6h-7l-12 8-5 1-1 2-5 1-2-2-16 6-2 2-3-1-16 3-17 4-4 3v-2l-10 1-3-2-7-1-3 2 3 5-3 1-2 5-6 1-4 2 1 2-5 2h-5v6l-5 5-8 1-6-3-15 2-8-1-3 3v8l2 4 7 1-3 6h-2l1 2-2 1 19 17 9 1 1-11 5-2 17-1-2 19 1 77 12 5 6-1 2 4 8 3 1 2h4l2 3h2l9 9-2 7 6 2 4 4v3l7-3 10 3 3 4 2 10 3 6v5l3 2 2 5h2v12l4 1 2 3 6 3v10l3 3-2 6 3 4-1 1-12 1-3-3-7 3-1 5-10 2-2 6-7 2-14-1-8 6-3 6-4 3h-3l-1 5v7l4 5-4 2-2 4 4 16h9l3 4h9l14 3 3 2-1 4 2 5-2 5 3 2-2 5 1 2-2 10 6 4v2l-3 3v3l6 4-1 6 2 2-2 2 21 8 8 6 10 1 11-4 6-5v-2l6-3-3 9 4 6 28 9 11-4 11 3 1 3 7 5 29 8h8l4 2 7-3 6 3 18 3 32 1 20 6 3-3 7 2 2 5 23 5h24l8 3 3-4 16 5 3-2 2 2 8-1 2 4 7 2 2 2h11l10 5 3 4 4 2h7l5-5 5 1 2 2 3-2h4l-2 1 4 4h10l6 3 3-2 8 4 2-2 11 3 6-2 6 3 4-3h7l2 2 4-4 1 6 2 1 1-2 11 1 1 2 4-1 5 4 10 1 1 4 2 1 2-4-1-7 3 1 1-3-1-6 4-1-3-3 2-3 1 4 5 2 4-2 4 2h6l9 6h5l4-3 2-6h20l2 2 2-2 9 1 1 3 4-2 14 1 6 3 2 8 3 2 1 4 10-4 2-9 6-2 2-4 6 3h6l2-3h7l6 2 2-2 24 6 5 5h10l2-2 4 1 1 3 7 6 2 4 5 1 3-2 6 5 5-3 2 5 2-3 5 2 6 6-1 4 2 3 3 1 2 5 4 2 12 1 3 2h5l2-3 2 1 1 6 12-1 6 1 10 5 3-1 7 2v-19l3-1 4 1v5h10l5 4 4-1 10 5 3-2 3 3 10 1 7-2 2-4 5-2 7 2 5-18v-5l5-7 6 1-1 4 2 3 2-2 3 2 13-2 6 4 12-2 11-9h4l6-3 2-7-1-2 4-2 9 6 6-2-2-2 2-1 13 3 2-3 6 2 4-1 2-4h4l7-10v-7l-6-10-4-2-1-10-3-3 2-4-6-10 3-5-10-9v-4l-4-1-2-6-4-2v-2l7-3v-3l7-7 3-14-10-14-5-2-3-4-1-6 53-22 5-5 10-5-3-9 1-3-17-15-3-7-15-9-1-3 6 2 4-3 5-18 2-3 10-5 1-6 11 3v-3l-3-1-1-10 2-6-3-8v-7l8-6-2-12 5-10 5-3v-5l2-3h4l6-7 7-2 1-2-1-6-4-3-1-3 1-9-19-8-2 3-2-1-1-4-12-9 2-3-5-4 3-6 4-3 4 1 11-3 4 1 7-4 5 1 4-4h-4l-4-4-5-2 2-9-1-6-8-1-4-7-12-1-5 2-15-9 2-3-2-2h-3l-1 2-6 2v3l-3-1-7 5-7 1-4-4-8 2-5-3v-2l4-4v-3l-3-1v-2l5-5h4l-4-9-9-5h-13l-6-2-3-5-4-2-9 1-9-9-16-3-6-3-9-8h-3v4l-4-4-8-1-6-7 1-4-4-4zM156 804l3-3 2-18 7-5 1-6 5-6-1-3 5-6-1-9-6-5-1-3 6-6 1-7-5-5-6-3-2 1-3-3 2-3-2-5 8-5v-4l5-10 5 3 3-3 4 1 3-1 5-6v-3l-6-6 1-7-4-3 2-7-5-3 2-3-3-7 1-4-2-4v-15l-3-1-2-4 10-14 6 1 5-2 6-8-21 4h-5l-3-2v-2l-5-4 1-3-13-31-2-10-4-2-3 6-8-2-8 2h-17l-3-3-5-1-21-11-9-2-1-5 5-6-1-3-10-1-4-2-3-4-9-1-4-6-3-1-4 2-10-6-18-4-14-6-3-4h-8l-4-3-8 1-5 3-9-3v6l-4-1-3 4-6-2-2-3 1-4-3-2-1-3-5-3-13-6h-6l-2-2-8 1-2-4-4-1h-21l-3-2-15 3-4-1-3-3-6 2-3 4 1 2-9 5-4-6-9-2-6 2-6 5h-3l-5-5 1-1-5 2-1-1v3l-2 2 5 2 1 6 2 1-6 2 1 3-3 2v3h-5l-5 3 1 2-2 2 2 4-2 2 3 3 4 2 1-1 2 2-1 4-2 1v3l5 4-1 12 2 3-3 9 3 2 2 4h3l1 3-1 3-5 4 2 5-2 10-2 1 1 3-4 3h-3l-1 4h-8l-1 3-4 2v6l-2 1 7 14 3 2 2 4 5 2-1 1 4 6 6-1 7 7 1 3 3-1 1 2-4 6 1 3 10 2-1 4 3 1-2 17 5 6 7 2 2 10 17 5 18 24 5 3 10-1 5 4h3l11 10 10 6 4-1 8 5 11-1 2 5 1-4 2-1 11-1 3 4 5-2 8 6 3-6 4 1 1-3h2l2-3h4l7 6 8 1 8 5 3-4 5-2 4 1 4 3-1 3 3 3 11 4 2 4 6 1 9 6 2-2 3 1 3 7 5-1v4l3 2 5 8 4-1 1-2 3 1 2-5 8 1 2-3 4-1 1 2 7 1 3 4-1 3-4 2 2 2-1 6 7 5 5-1 1-3 7-1v-2l7 3 6-3 9 5z"/>
</svg>
