<?xml version="1.0" encoding="UTF-8" standalone="no"?>
<svg
   width="1760.9999"
   height="1205"
   viewBox="-251 -228 1760.9999 1205"
   version="1.1"
   id="svg1"
   xmlns="http://www.w3.org/2000/svg"
   xmlns:svg="http://www.w3.org/2000/svg">
  <defs
     id="defs1" />
  <path
     stroke="#ffff00"
     stroke-opacity="1"
     stroke-width="0.5"
     stroke-linecap="round"
     stroke-linejoin="round"
     stroke-dasharray="none"
     fill="#1e90ff"
     fill-opacity="1"
     fill-rule="evenodd"
     d="m 1232,176 v 2 l 5,6 -1,4 7,11 -1,5 3,5 -1,1 8,7 1,6 4,2 4,8 5,2 3,5 9,6 4,-3 v -2 l 5,-2 4,-7 8,3 2,3 11,5 h 8 v 6 h 3 l 6,9 5,-3 1,-5 h 3 v -3 l 10,1 1,-6 5,-8 -2,-4 v -6 l 3,-2 v -3 l 3,-4 v -6 l 2,-3 v -3 l -4,-7 -8,-6 -2,1 v -4 l -2,2 -1,-3 2,-4 -2,-5 3,-9 -2,-3 2,-2 v -14 l 4,-4 2,-5 -2,-3 1,-4 2,-4 4,-2 v -12 l 3,-2 v -3 l -3,-1 -2,-4 -8,-3 -1,-3 h -5 v -2 l -3,-3 -3,2 -10,-3 -2,1 -11,-5 v -7 l -5,-2 -22,-3 -6,-5 -4,3 -5,-2 -5,1 -3,-2 h -7 l -17,-10 1,-3 -2,-1 -4,3 -2,4 -2,-1 -2,3 1,6 -2,4 6,8 2,7 4,3 6,-1 5,5 4,-2 6,3 6,14 7,3 2,5 4,3 -1,1 3,8 -1,6 2,6 -1,4 -2,1 -6,-3 -6,4 -2,4 -10,10 -8,3 -8,-6 -7,4 1,4 z"
     id="西宁市" />
  <path
     stroke="#ffff00"
     stroke-opacity="1"
     stroke-width="0.5"
     stroke-linecap="round"
     stroke-linejoin="round"
     stroke-dasharray="none"
     fill="#1e90ff"
     fill-opacity="1"
     fill-rule="evenodd"
     d="m 1429,382 v -5 l 1,1 1,-5 3,-1 2,-5 v -7 l 4,1 7,6 14,2 6,6 5,-6 -1,-1 -6,2 2,-3 9,-3 -6,-8 v -7 h -3 l -4,-8 -3,-10 1,-4 2,-3 4,-1 6,-7 8,3 5,-1 4,3 h 3 v -15 l 3,-11 -2,-4 2,-4 h -5 l -1,-3 h -3 l -2,-3 8,-3 1,-7 2,-1 3,-6 4,-2 3,1 3,-2 -6,-4 v -3 l -7,-5 -6,-2 -3,-5 -7,-1 -2,-3 v -9 h -2 l -6,-9 3,-2 v -3 l -2,-4 -3,-1 -2,-5 v -2 h 4 l -7,-4 2,-3 h -4 l -11,-10 v -10 l 3,1 8,-7 3,2 -11,-14 -6,-3 -3,-5 v -3 l -4,-1 -1,-2 h -3 v -3 l -4,1 -3,-3 3,-1 v -2 l 5,-5 -3,-9 -13,-5 -25,5 -4,3 -20,-7 -12,-8 v 3 l -3,2 v 12 l -4,2 -3,8 2,3 -2,5 -4,4 v 14 l -2,2 2,3 -3,9 2,5 -2,4 1,3 2,-2 v 4 l 2,-1 8,6 4,7 v 3 l -2,3 v 6 l -3,4 v 3 l -3,2 v 6 l 2,4 -5,8 -1,6 -10,-1 v 3 h -3 l -1,5 -5,3 v 11 l 7,-1 2,3 2,-4 v 4 h 4 l 2,5 6,-1 5,2 v 2 l 2,1 -1,2 8,3 -2,2 2,3 h 2 l 1,4 5,2 3,6 5,1 -5,3 1,3 6,-2 2,2 v 6 l -5,1 3,5 -2,3 8,10 -3,2 6,2 -2,2 1,3 7,-2 2,8 5,5 h 5 l 5,3 5,7 3,1 v 3 l 2,-1 v 8 l -3,2 2,2 z m 50,-143 2,-1 -2,-2 z"
     id="海东市" />
  <path
     stroke="#ffff00"
     stroke-opacity="1"
     stroke-width="0.5"
     stroke-linecap="round"
     stroke-linejoin="round"
     stroke-dasharray="none"
     fill="#1e90ff"
     fill-opacity="1"
     fill-rule="evenodd"
     d="m 1360,110 12,8 20,7 4,-3 25,-5 13,5 2,-2 14,-3 4,1 -5,-12 -4,-1 -5,-6 -6,-1 -1,-3 -3,-1 v -4 l -5,-4 2,-1 -17,-10 v -4 h -4 l -3,-3 -6,-2 -3,-6 -6,-4 h -3 l 3,-10 -3,-3 v -3 l -2,1 -3,-2 v -2 l -4,-4 2,-5 -2,-1 v -4 l -5,-6 -6,-1 -10,7 -2,4 -6,1 v -4 l -3,-3 -16,-5 1,-4 -4,-3 -5,-9 -13,-5 -7,-1 -8,7 -3,5 -10,-7 -10,-2 -6,-3 -3,-8 -3,-1 -1,-4 -3,1 -15,-12 -6,2 -3,-2 -1,-6 5,-6 -1,-5 1,-5 2,-2 -3,-3 -9,5 -3,-2 -9,-13 -5,-2 -12,-2 -3,3 h -7 l -3,-4 -6,-3 -2,4 -3,-1 v -5 l -2,-1 -3,2 -3,-3 -2,1 -5,-4 2,-2 -5,-8 -5,4 -2,-12 -5,-3 h -5 l -5,-5 -5,-1 -3,-4 -5,2 -3,7 4,3 -1,2 4,3 5,1 5,12 4,1 v 10 l 3,6 v 2 l -3,1 -5,-3 -1,-4 -3,-1 1,-1 -4,-3 -3,1 -6,-6 h -5 l -3,-4 h -4 l -10,-4 -9,-7 -13,-7 -17,-16 -4,-11 -6,2 -5,-10 -5,-4 -1,-5 -9,-8 -9,-4 -20.00002,-17 v -3 l 5,-6 -5,-2 -2,-3 h -8 l -5,-2 -6,-4 -2,-4 -9,-4 -1,-4 h -9 l -1,5 -4,2 -1,4 -4,4 -6,3 1,3 -1,2 h -3 l -1,3 -8,-4 h -9 l -3,-3 v -3 l -4,-2 -2,-4 -9,-2 -4,1 1,7 -7,12 2,2 v 3 l -10,7 -10,10 6,8 -1,4 6,7 8,1 4,4 v -4 h 3 l 9,8 6,3 16,3 9,9 9,-1 4,2 3,5 6,2 h 13 l 9,5 4,8 -4,1 -5,5 v 2 l 3,1 v 3 l -4,4 v 2 l 5,3 8,-2 4,4 7,-1 7.00002,-5 3,1 v -3 l 6,-2 1,-2 h 3 l 2,2 -2,3 15,9 5,-2 12,1 4,7 8,1 1,6 -2,9 5,2 4,4 h 4 l -4,4 -5,-1 -7,4 -4,-1 -11,3 -4,-1 -4,3 -3,6 5,4 -2,3 8,5 4,4 1,4 2,1 2,-3 19,8 -1,9 1,3 4,3 1,6 -1,2 -7,2 -6,7 h -4 l -2,3 v 5 l -5,3 -5,10 2,12 -8,6 v 7 l 3,8 -2,6 1,10 3,1 v 3 l 7,2 10,7 6,2 7,7 4,2 3,-1 v 4 l 4,-1 3,5 3,1 2,3 111,30 3,4 10,-1 8,-3 7,5 -1,-8 7,-4 8,6 8,-3 10,-10 2,-4 6,-4 6,3 2,-1 1,-4 -2,-6 1,-6 -2,-3 v -6 l -4,-3 -2,-5 -7,-3 -6,-14 -6,-3 -4,2 -5,-5 -6,1 -4,-3 -2,-7 -6,-8 2,-4 -1,-6 2,-3 2,1 2,-4 4,-3 2,1 -1,3 17,10 h 7 l 3,2 5,-1 5,2 4,-3 6,5 22,3 5,2 v 7 h 4 l 7,5 2,-1 10,3 3,-2 3,3 v 2 h 5 l 1,3 8,3 2,4 z"
     id="海北藏族自治州" />
  <path
     stroke="#ffff00"
     stroke-opacity="1"
     stroke-width="0.5"
     stroke-linecap="round"
     stroke-linejoin="round"
     stroke-dasharray="none"
     fill="#1e90ff"
     fill-opacity="1"
     fill-rule="evenodd"
     d="m 1236,549 4,2 1,-1 8,6 1,3 13,-2 1,2 4,-3 5,2 -1,4 5,1 2,3 4,1 1,3 h 7 l 5,3 9,2 1,3 h 3 l 2,-2 4,3 3,-1 2,3 h 3 v 2 l 4,3 -1,3 3,3 3,-2 2,2 v 3 l 2,-2 1,3 7,-8 7,1 3,-4 1,3 h 3 l 8,4 1,-9 5,1 2,-5 -1,-5 7,-2 v -9 l 11,4 v -4 l 2,-2 2,-7 5,2 5,-3 -3,-4 h -2 l -3,-7 -3,-3 v -4 l -3,-5 h -2 l -2,-3 -4,-2 h -11 l -4,-2 -2,-5 -3,-1 -2,-6 v -39 l 9,-4 10,2 -2,-3 1,-5 9,-12 -3,-2 -1,-6 -6,-2 1,-3 -2,-6 -4,-4 5,-3 -5,-11 -4,-5 1,-3 -7,-6 -2,5 -2,-1 -4,5 v 5 h -10 l -5,5 -3,-6 h -24 l -5,6 h -6 l -2,-6 h -3 l -3,3 3,8 -3,2 h -5 l -2,-1 1,-11 -3,-4 10,-2 -2,-7 -13,-6 h -6 l -4,-3 h -4 l -2,-2 -2,1 -3,-2 -21,1 -16,-5 -3,3 -16,-1 -1,3 6,7 v 3 l 11,1 v 2 l 4,-1 9,5 -6,8 -11,10 -4,1 -3,4 h -3 l 1,3 -2,2 v 6 l 5,6 9,5 14,4 4,6 8,5 h 4 l -1,2 3,2 10,1 2,7 -3,5 -5,1 -1,3 3,6 -1,3 -4,1 -1,6 -3,4 -4,2 -5,-4 h -10 l 3,6 1,9 4,5 3,-1 1,15 -2,4 z m 77,-137 h 24 l 3,6 5,-5 h 10 v -5 l 4,-5 2,1 2,-5 7,6 -1,3 4,5 5,11 -5,3 4,4 2,6 -1,3 6,2 1,6 7,3 2,-4 h 5 l 1,-4 4,2 3,-1 4,-12 4,-2 2,-3 6,-2 v -3 l -5,-7 1,-4 -12,-7 4,-1 1,-4 -4,-7 1,-6 3,-2 12,4 5,-4 v -2 l -6,-5 3,-2 v -8 l -2,1 v -3 l -3,-1 -5,-7 -5,-3 h -5 l -5,-5 -2,-8 -7,2 -1,-3 2,-2 -6,-2 3,-2 -8,-10 2,-3 -3,-5 5,-1 v -6 l -2,-2 -6,2 -1,-3 5,-3 -5,-1 -3,-6 -5,-2 -1,-4 h -2 l -2,-3 2,-2 -8,-3 1,-2 -2,-1 v -2 l -5,-2 -6,1 -2,-5 h -4 v -4 l -2,4 -2,-3 -10,2 -1,12 2,3 -1,9 3,3 1,9 7,4 -9,14 2,4 -2,2 3,3 h 7 l 3,2 1,9 -9,13 h -2 l 1,4 -2,1 -3,6 1,2 -15,5 -2,4 -6,-4 -2,3 -8,-5 -2,1 1,7 7,8 3,8 -5,3 h -6 l 2,7 7,1 5,-4 1,-3 5,2 -1,4 z"
     id="黄南藏族自治州" />
  <path
     stroke="#ffff00"
     stroke-opacity="1"
     stroke-width="0.5"
     stroke-linecap="round"
     stroke-linejoin="round"
     stroke-dasharray="none"
     fill="#1e90ff"
     fill-opacity="1"
     fill-rule="evenodd"
     d="m 1232,176 -7,-6 -8,3 -10,1 -3,-4 -111,-30 -2,-3 -3,-1 -3,-5 -4,1 v -4 l -3,1 -4,-2 -7,-7 -6,-2 -10,-7 -18,-5 -1,6 -10,5 -2,3 -5,18 -4,3 -6,-2 1,3 15,9 3,7 17,15 -1,3 3,9 -10,5 -5,5 -53.00002,22 1,6 3,4 5,2 10,14 -3,14 -7,7 v 3 l -7,3 v 2 l 4,2 2,6 4,1 v 4 l 10,9 -3,5 6,10 -2,4 3.00002,3 1,10 4,2 6,10 v 7 l -7,10 4,2 1,-2 13,8 6,8 -8,3 -2,4 -6,-1 -2,3 3,2 h 7 v 2 l 3,1 1,6 -2,2 -5,1 -6,6 -4,5 1,5 2,3 3,1 1,4 5,1 10,17 3,1 3,7 3,2 8,12 6,2 4,-1 5,3 7,1 3,4 4,1 4,6 8,2 2,3 h 5 l 3,-2 12,6 h 7 v -2 l 7,-2 4,-9 h 18 l 6,-3 v 2 h 3 v 7 l 5,5 4,-1 12,3 10,10 4,1 1,5 6,-4 v 2 l 5,4 1,3 h 10 l 3,-4 8,-4 3,2 1,7 h 10 l 5,4 4,-2 3,-4 1,-6 4,-1 1,-3 -3,-6 1,-3 5,-1 3,-5 -2,-7 -10,-1 -3,-2 1,-2 h -4 l -8,-5 -4,-6 -14,-4 -9,-5 -5,-6 v -6 l 2,-2 -1,-3 h 3 l 3,-4 4,-1 11,-10 6,-8 -9,-5 -4,1 v -2 l -11,-1 v -3 l -6,-7 1,-3 16,1 3,-3 16,5 21,-1 3,2 2,-1 2,2 h 4 l 4,3 h 6 l 13,6 h 6 l 5,-3 -3,-8 -7,-8 -1,-7 2,-1 8,5 2,-3 6,4 2,-4 15,-5 -1,-2 3,-6 2,-1 -1,-4 h 2 l 3,-6 4,-3 2,-4 v -5 l -1,-4 -3,-2 h -7 l -3,-3 2,-2 -2,-4 9,-14 -7,-4 v -6 l -4,-6 1,-9 -2,-3 v -6 l 1,-6 3,-1 1,-8 -4,-9 -3,-3 h -3 v -6 h -8 l -11,-5 -2,-3 -8,-3 -4,7 -5,2 v 2 l -4,3 -3,-1 -6,-5 -3,-5 -5,-2 -4,-8 -4,-2 -1,-6 -8,-7 1,-1 -3,-5 1,-5 -7,-11 1,-4 -5,-6 z m 63,231 -10,2 3,4 -1,11 2,1 h 5 l 3,-2 -3,-8 3,-3 h 3 l 2,6 h 6 l 5,-6 -1,-10 -4,-1 -1,3 -5,4 -5,-1 z"
     id="海南藏族自治州" />
  <path
     stroke="#ffff00"
     stroke-opacity="1"
     stroke-width="0.5"
     stroke-linecap="round"
     stroke-linejoin="round"
     stroke-dasharray="none"
     fill="#1e90ff"
     fill-opacity="1"
     fill-rule="evenodd"
     d="m 812.99998,590 16,-8 1,-4 5,-2 h 8 l 7,3 8,7 2,4 h 9 l 6,3 2,-1 5,2 1,3 3,-2 h 22 l -1,3 1,3 4,3 1,6 -4,9 2,3 -2,7 4,4 3,-1 4,8 v 5 l 3,-1 3,4 5,2 4,8 6,5 -5,2 1,4 4,2 -1,8 h 2 l 2,4 6,3 2,4 -1,10 6,6 -2,8 1,3 -2,4 h 4 l 3,2 -1,6 7,11 5,2 1,2 8,1 v 3 l 6,3 2,-2 8,2 1,3 2,-1 1.00002,3 h 7 l 4,4 1,5 2,1 v 4 l 2,1 3,11 7,-1 2,-2 2,2 3,-3 14,8 h 6 l 3,2 6,9 5,-2 1,3 7,1 2,5 h 2 l 3,-6 4,-17 -2,-11 4,2 h 6 l 4,-13 -1,-3 h 3 l 6,9 1,6 11,3 -1,5 h 4 l 3,2 v 3 h 3 v 3 l 2,1 -1,5 3,12 -7,9 3,2 v 2 l 10,2 3,3 3,-6 1,-11 3,-1 v -2 l 9,3 9,-5 -3,8 2,1 3,-6 4,6 h 2 l 3,4 3,6 -1,3 h 3 l 2,6 h 3 l 1,2 9,5 h 3 v -15 l 1,-1 4,3 1,-1 -1,-5 -3,-3 1,-2 8,5 2,-2 1,3 3,-2 11,3 2,3 4,2 19,-12 4,1 v 6 l 2,-4 h 4 l 8,-10 2,-15 -2,-2 v -3 l -6,-6 -6,-2 v -12 l 7,1 v -9 l -5,-7 3,-2 v -3 l -2,-2 1,-2 -2,-1 -3,-6 1,-5 7,-7 h 3 l 2,2 v -2 h 7 l 7,5 7,13 2,-6 -2,-3 3,-3 h 10 l 4,6 5,3 10,11 4,-6 -1,-4 4,-3 -1,-3 4,-2 4,-8 -4,-5 h -4 l -4,-4 2,-9 4,-8 8,-1 2,-2 1,-12 h -3 l -3,6 h -13 l -2,-7 v -9 l -2,-5 -2,-1 v -6 l -3,1 -3,-4 -6,-1 -8,3 v 4 l -6,2 -16,-4 -3,-3 -2,3 -7,1 2,-3 -2,-2 v -4 l 3,-4 v -6 l -5,-9 -5,-1 v -2 h -7 l -5,-5 -2,1 -5,-9 -5,-5 1,-2 -3,-2 -2,-5 h -2 l -1,-7 -3,-1 -5,-10 -6,-4 6,-11 -1,-2 3,-9 6,-2 3,-7 3,1 4,-2 4,-10 -1,-15 -3,1 -4,-5 -1,-9 -2,-2 -2,-11 -3,-2 -8,4 -3,4 h -10 l -1,-3 -5,-4 v -2 l -6,4 -1,-5 -4,-1 -10,-10 -12,-3 -4,1 -5,-5 v -7 h -3 v -2 l -6,3 h -18 l -4,9 -7,2 v 2 h -7 l -12,-6 -3,2 h -5 l -2,-3 -8,-2 -4,-6 -4,-1 -3,-4 -7,-1 -5,-3 -4,1 -6,-2 -8,-12 -3,-2 -3,-7 -3,-1 -1,-5 -6,-6 -3,-6 -5,-1 -1,-4 -3,-1 -2,-3 -1,-5 4,-5 6,-6 5,-1 2,-2 -1,-6 -3,-1 v -2 h -7 l -3,-2 2,-3 6,1 2,-4 8,-3 -6,-8 -13,-8 -1,2 -8,-2 -2.00002,4 -4,1 -6,-2 -2,3 -13,-3 -2,1 2,2 -6,2 -9,-6 -4,2 1,2 -2,7 -6,3 h -4 l -11,9 -12,2 -6,-4 -7,2 h -6 l -3,-2 -2,2 -2,-3 1,-4 -6,-1 -5,7 v 5 l -5,18 -7,-2 -5,2 -2,4 -7,2 -10,-1 -3,-3 -3,2 -10,-5 -4,1 -5,-4 h -10 v -5 l -4,-1 -3,1 v 19 l -7,-2 -3,1 -10,-5 h -14 l -1,5 4,3 v 2 l -5,3 -8,10 -4,11 -2,1 -3,6 2,1 v 4 l -13,8 -5,6 -9,2 2,4 -1,3 -3,2 v 3 l -5,2 -3,4 6,9 3,1 1,-5 8,1 5,4 h 4 l -3,6 -6,2 -1,2 5,5 3,-1 9,4 1,7 -3,6 -4,3 4,3 6,-2 13,5 2,6 -5,5 1,3 6,2 6,7 1,4 5,1 3,3 3,10 4,1 1,3 4,2 2,-1 1,-5 2,-2 3,3 1,6 z"
     id="果洛藏族自治州" />
  <path
     stroke="#ffff00"
     stroke-opacity="1"
     stroke-width="0.5"
     stroke-linecap="round"
     stroke-linejoin="round"
     stroke-dasharray="none"
     fill="#1e90ff"
     fill-opacity="1"
     fill-rule="evenodd"
     d="m 155.99998,804 5,-2 2,3 2,-1 1,2 4,-2 3,-5 9,3 4,4 4,-1 7,5 v -3 h 11 l 3,-1 2,-3 3,1 v 5 l 3,1 v 4 l 3,6 5,-1 1,-2 5,1 2,-4 5,2 4,-1 3,6 5,1 1,5 10,9 v -3 l 3,-2 h 7 l 1,8 h 3 l 2,4 5,-1 9,-6 4,-7 9,-1 13,4 v 4 l 3,2 3,6 5,1 6,-3 3,4 2,-1 2,3 3,-1 2,-3 5,1 2,3 4,2 2,-3 4,-1 1,-2 -2,-2 3,-5 12,2 v -2 l 8,-2 2,1 3,-11 6,5 3,-1 v -5 l 2,-1 1,2 h 7 l 3,-5 h 4 l 1,-5 2,-2 10,9 1,3 2,-1 3,2 v 4 l 4,1 -2,2 v 3 h 4 l 2,6 5,1 2,2 4,-1 3,9 4,1 7,-2 8,4 2,3 1,-2 h 6 v -2 h 3 v 2 h 7 l 1,-2 2,6 2,-1 2,3 -21,4 -2,6 3,3 h 3 l 1,-2 5,-1 4,-3 1,-3 h 3 l 3,17 2,1 -1,1 2,4 4,3 h 7 l -1,-4 3,-2 3,1 2,4 h 2 l -1,5 2,1 1,8 -4,2 v 3 l 4,4 -10,2 -2,5 1,5 5,1 4,14 3,2 -1,2 6,4 1,4 h 9 v -3 h 3 l 1,-2 h 5 l 17,5 3,7 3,3 3,-5 -1,-3 2,-1 1,-5 4,-7 11,1 1,4 9,10 10,3 2,7 -1,4 2,4 h 5 l 3,-3 v -5 l 3,-1 1,-5 -4,-6 1,-2 -3,-3 -4,-1 1,-9 2,-1 2,-6 -4,-4 h 4 l 5,-4 5,2 10,-1 2,1 6,18 4,4 13,9 6,-3 6,4 1,-3 3,1 4,5 7,2 2,-4 h 4 l 2,-2 -1,-4 -4,-5 v -3 l -4,-4 -1,-6 4,-1 2,-5 -4,-6 -3,-1 -2,-4 1,-4 -3,-3 h 10 l 5,3 1,3 3,2 -1,-5 4,-1 6,3 3,-4 -3,-6 2,-2 7,-1 2,3 h 6 l 4,2 4,-1 5,3 2,-5 6,2 v -3 l -4,-4 2,-3 5,6 h 6 l -1,-4 2,-5 -5,-2 -1,-6 4,-17 3,-1 6,4 7,-4 -4,-19 -6,-2 1,-4 5,-5 -7,-3 -1,-3 2,-3 2,-1 2,3 5,-3 v -2 l 5,-2 2,5 4,4 4,1 1,-2 11,3 14,-2 h -3 l -10,-7 -3,-3 v -3 l -8,-1 -2,-3 -8,-3 -6,-7 v -3 l -5,-8 1,-13 -2,-3 -3,-1 2,-6 -1,-2 2,-2 19,-5 -3,-4 6,-4 -4,-9 -3,-1 v -10 l 5,-5 6,-3 v -2 l 4,-4 2,-11 2,-2 5,1 v -3 h 3 l 7,-8 -17,-8 -2,2 -3,-3 h -4 l -1,-4 -4,-4 1,-9 -9,-1 -5,-3 -1,-4 4,-8 -4,-17 -5,-5 1,-3 3,-1 -1,-6 h 9 l 1,-2 2,1 3,-3 2,2 10,-4 4,1 4,-5 -1,-7 6,-6 -1,-6 -7,-13 -1,-6 -3,-3 -2,2 -1,5 -2,1 -4,-2 -1,-3 -4,-1 -3,-10 -3,-3 -5,-1 -1,-4 -6,-7 -6,-2 -1,-3 5,-5 -2,-6 -13,-5 -6,2 -4,-3 4,-3 3,-6 -1,-7 -9,-4 -3,1 -5,-5 1,-2 6,-2 3,-6 h -4 l -5,-4 -8,-1 -1,5 -3,-1 -6,-9 3,-4 5,-2 v -3 l 3,-2 1,-3 -2,-4 9,-2 5,-6 13,-8 v -4 l -2,-1 3,-6 2,-1 4,-11 8,-10 5,-3 v -2 l -4,-3 1,-5 h -4 l -1,-6 -2,-1 -2,3 h -5 l -3,-2 -12,-1 -4,-2 -2,-5 -3,-1 -2,-3 1,-4 -6,-6 -5,-2 -2,3 -2,-5 -5,3 -6,-5 -3,2 -5,-1 -2,-4 -7,-6 -1,-3 -4,-1 -2,2 h -10 l -5,-5 -10,-2 -3,-2 -2,1 -9,-3 -2,2 -6,-2 h -7 l -2,3 h -6 l -6,-3 -2,4 -6,2 -2,9 -10,4 -1,-4 -3,-2 -2,-8 -6,-3 -14,-1 -4,2 -1,-3 -9,-1 -2,2 -2,-2 h -20 l -2,6 -4,3 h -5 l -9,-6 h -6 l -4,-2 -4,2 -5,-2 -1,-4 -2,3 3,3 -4,1 1,6 -1,3 -3,-1 1,7 -2,4 -2,-1 -1,-4 -9,-1 -6,-4 -4,1 -1,-2 -5,-1 h -6 l -1,2 -2,-1 -1,-6 -4,4 -2,-2 h -7 l -4,3 -6,-3 -6,2 -11,-3 -2,2 -8,-4 -3,2 -6,-3 h -10 l -4,-4 2,-1 h -4 l -3,2 -2,-2 -5,-1 -5,5 h -7 l -4,-2 -3,-4 -10,-5 -6,1 -14,-5 -2,-4 -8,1 -2,-2 -3,2 -16,-5 -3,4 -8,-3 h -24 l -23,-5 -2,-5 -7,-2 -3,3 -20,-6 -32,-1 -18,-3 -6,-3 -7,3 -4,-2 h -8 l -29,-8 -7,-5 -1,-3 -11,-3 -11,4 -28,-9 -4,-6 3,-9 -6,3 v 2 l -6,5 -11,4 -10,-1 -8,-6 -19,-8 3,7 -2,3 -4,1 -13,-3 -7,12 -7,1 -3,2 -4,-3 -5,-8 -15,-8 -6,1 -6,-1 -2,-2 -17,2 -6,-2 -4,1 -2,-3 h -12 l -14,-8 2,-5 -11,-2 -2,-4 h -5 l 3,3 -2,12 -9,9 1,9 -11,-2 -9,2 -13,-3 -11,8 -17,3 -7,-4 -2,4 4,5 v 7 l -2,2 1,3 15,5 -2,1 3,3 14,2 15,-3 3,3 -2,2 v 4 l -2,1 2,4 -1,2 -4,1 v 15 l -3,2 6,8 -1,2 h -5 l -2,2 -1,6 1,5 h 4 l 3,4 h -2 l -8,10 -3,-1 -6,2 -2,3 -12,3 -1,2 2,4 -2,6 4,3 -10,8 7,9 1,5 4,3 h 5 l 1,2 v 7 l -1,6 -2,1 1,3 -2,10 3,6 h 5 v 2 h 3 l 9,-6 4,3 5,-3 6,4 5,-2 -1,1 5,5 h 3 l 6,-5 6,-2 9,2 4,6 9,-5 -1,-2 5,-5 4,-1 3,3 4,1 15,-3 3,2 h 21 l 4,1 2,4 8,-1 2,2 h 6 l 18,9 1,3 3,2 -1,4 2,3 6,2 3,-4 4,1 v -6 l 9,3 5,-3 8,-1 4,3 h 8 l 3,4 14,6 18,4 10,6 4,-2 3,1 4,6 9,1 3,4 4,2 10,1 1,3 -5,6 1,5 9,2 8,5 18,7 3,3 h 17 l 8,-2 8,2 3,-6 4,2 2,10 13,31 -1,3 5,4 v 2 l 3,2 12,-2 3,2 5,-3 6,-1 -6,8 -5,2 -6,-1 -10,14 2,4 3,1 v 15 l 2,4 -1,4 3,7 -2,3 5,3 -2,7 4,3 -1,7 6,6 v 3 l -5,6 -3,1 -4,-1 -3,3 -5,-3 -5,10 v 4 l -8,5 2,5 -2,3 3,3 2,-1 6,3 5,5 -1,7 -6,6 1,3 6,5 1,9 -5,6 1,3 -5,6 -1,6 -7,5 -2,18 z"
     id="玉树藏族自治州" />
  <path
     stroke="#ffff00"
     stroke-opacity="1"
     stroke-width="0.5"
     stroke-linecap="round"
     stroke-linejoin="round"
     stroke-dasharray="none"
     fill="#1e90ff"
     fill-opacity="1"
     fill-rule="evenodd"
     d="m 868.99998,-157 -4,-5 -5,-3 -2,-4 -13,-4 -15,-10 -12,-3 -2,-7 -13,-8 -11,-4 -5,-7 -4,-1 -4,-4 -3,1 -4,-4 h -6 l -20,-6 -10,1 -2,-2 h -4 l -7,2 6,9 -5,7 -4,32 3,3 4,1 -1,15 2,5 3,1 -2,9 6,5 v 13 l -12,6 -22,-9 2,6 -5,3 4,5 -2,3 -13,1 -2,3 5,4 -1,6 -10,13 2,6 2,1 2,11 -34,-8 -9,6 -4,10 1,4 -6,2 -1,-3 -4,-1 v 4 l -14,-5 -2,-2 h -3 l -2,3 -7,-6 h -3 l -6,-5 v -3 l -6,-5 -4,1 -4,-12 h -7 l -9,-8 -4,2 -1,4 h -3 l -2,3 -5,1 -9,8 -2,-3 -6,3 -2,-3 -7,2 -3,-2 -3,1 -2,-2 -8,3 -4,-5 h -3 l -2,-7 -7,-4 -2,-3 -6,2 -4,-3 -2,1 -1,-2 -15,1 -3,1 -2,4 -26,1 -10,3 -4,3 -3,-2 -1,-11 -20,-55 h -11 l -40,6 -3,2 -10,-2 -9,-4 -4,-4 -2,-6 2,-2 15,-1 v -7 h -7 l -13,-9 -29,1 -30,4 -4,-4 -8,-1 2,-20 -4,-7 -4,-3 -1,-3 2,-6 -3,-3 -10,5 -6,-1 -2,2 -2,-4 -3,-1 -6,2 -3,4 -11,-1 -15,5 h -16 l -1,2 h -5 l -5,6 v 3 h -4 l -3,2 2,3 -5,3 -15,-1 -12,7 h -8 l -15,4 -14,6 v 3 l -3,1 -10,2 -10,-1 -3,3 h -5 l -18,6 h -7 l -12,8 -5,1 -1,2 -5,1 -2,-2 -16,6 -2,2 -3,-1 -16,3 -17,4 -4,3 v -2 l -10,1 -3,-2 -7,-1 -3,2 3,5 -3,1 -2,5 -6,1 -4,2 1,2 -5,2 h -5 v 6 l -5,5 -8,1 -6,-3 -15,2 -8,-1 -3,3 v 8 l 2,4 7,1 -3,6 h -2 l 1,2 -2,1 19,17 9,1 1,-11 5,-2 17,-1 -2,19 1,77 12,5 6,-1 2,4 8,3 1,2 h 4 l 2,3 h 2 l 9,9 -2,7 6,2 4,4 v 3 l 7,-3 10,3 3,4 2,10 3,6 v 5 l 3,2 2,5 h 2 v 12 l 4,1 2,3 6,3 v 10 l 3,3 -2,6 3,4 -1,1 -12,1 -3,-3 -7,3 -1,5 -10,2 -2,6 -7,2 -14,-1 -8,6 -3,6 -4,3 h -3 l -1,5 v 7 l 4,5 -4,2 -2,4 4,16 h 9 l 3,4 h 9 l 14,3 3,2 -1,4 2,5 -2,5 3,2 -2,5 1,2 -2,10 6,4 v 2 l -3,3 v 3 l 6,4 -1,6 2,2 -2,2 21,8 8,6 10,1 11,-4 6,-5 v -2 l 6,-3 -3,9 4,6 28,9 11,-4 11,3 1,3 7,5 29,8 h 8 l 4,2 7,-3 6,3 18,3 32,1 20,6 3,-3 7,2 2,5 23,5 h 24 l 8,3 3,-4 16,5 3,-2 2,2 8,-1 2,4 7,2 2,2 h 11 l 10,5 3,4 4,2 h 7 l 5,-5 5,1 2,2 3,-2 h 4 l -2,1 4,4 h 10 l 6,3 3,-2 8,4 2,-2 11,3 6,-2 6,3 4,-3 h 7 l 2,2 4,-4 1,6 2,1 1,-2 11,1 1,2 4,-1 5,4 10,1 1,4 2,1 2,-4 -1,-7 3,1 1,-3 -1,-6 4,-1 -3,-3 2,-3 1,4 5,2 4,-2 4,2 h 6 l 9,6 h 5 l 4,-3 2,-6 h 20 l 2,2 2,-2 9,1 1,3 4,-2 14,1 6,3 2,8 3,2 1,4 10,-4 2,-9 6,-2 2,-4 6,3 h 6 l 2,-3 h 7 l 6,2 2,-2 24,6 5,5 h 10 l 2,-2 4,1 1,3 7,6 2,4 5,1 3,-2 6,5 5,-3 2,5 2,-3 5,2 6,6 -1,4 2,3 3,1 2,5 4,2 12,1 3,2 h 5 l 2,-3 2,1 1,6 12,-1 6,1 10,5 3,-1 7,2 v -19 l 3,-1 4,1 v 5 h 10 l 5,4 4,-1 10,5 3,-2 3,3 10,1 7,-2 2,-4 5,-2 7,2 5,-18 v -5 l 5,-7 6,1 -1,4 2,3 2,-2 3,2 13,-2 6,4 12,-2 11,-9 h 4 l 6,-3 2,-7 -1,-2 4,-2 9,6 6,-2 -2,-2 2,-1 13,3 2,-3 6,2 4,-1 2.00002,-4 h 4 l 7,-10 v -7 l -6,-10 -4,-2 -1,-10 -3.00002,-3 2,-4 -6,-10 3,-5 -10,-9 v -4 l -4,-1 -2,-6 -4,-2 v -2 l 7,-3 v -3 l 7,-7 3,-14 -10,-14 -5,-2 -3,-4 -1,-6 53.00002,-22 5,-5 10,-5 -3,-9 1,-3 -17,-15 -3,-7 -15,-9 -1,-3 6,2 4,-3 5,-18 2,-3 10,-5 1,-6 11,3 v -3 l -3,-1 -1,-10 2,-6 -3,-8 v -7 l 8,-6 -2,-12 5,-10 5,-3 v -5 l 2,-3 h 4 l 6,-7 7,-2 1,-2 -1,-6 -4,-3 -1,-3 1,-9 -19,-8 -2,3 -2,-1 -1,-4 -12,-9 2,-3 -5,-4 3,-6 4,-3 4,1 11,-3 4,1 7,-4 5,1 4,-4 h -4 l -4,-4 -5,-2 2,-9 -1,-6 -8,-1 -4,-7 -12,-1 -5,2 -15,-9 2,-3 -2,-2 h -3 l -1,2 -6,2 v 3 l -3,-1 -7.00002,5 -7,1 -4,-4 -8,2 -5,-3 v -2 l 4,-4 v -3 l -3,-1 v -2 l 5,-5 h 4 l -4,-9 -9,-5 h -13 l -6,-2 -3,-5 -4,-2 -9,1 -9,-9 -16,-3 -6,-3 -9,-8 h -3 v 4 l -4,-4 -8,-1 -6,-7 1,-4 -4,-4 z m -713,961 3,-3 2,-18 7,-5 1,-6 5,-6 -1,-3 5,-6 -1,-9 -6,-5 -1,-3 6,-6 1,-7 -5,-5 -6,-3 -2,1 -3,-3 2,-3 -2,-5 8,-5 v -4 l 5,-10 5,3 3,-3 4,1 3,-1 5,-6 v -3 l -6,-6 1,-7 -4,-3 2,-7 -5,-3 2,-3 -3,-7 1,-4 -2,-4 v -15 l -3,-1 -2,-4 10,-14 6,1 5,-2 6,-8 -21,4 h -5 l -3,-2 v -2 l -5,-4 1,-3 -13,-31 -2,-10 -4,-2 -3,6 -8,-2 -8,2 h -17 l -3,-3 -5,-1 -21,-11 -9,-2 -1,-5 5,-6 -1,-3 -10,-1 -4,-2 -3,-4 -9,-1 -4,-6 -3,-1 -4,2 -10,-6 -18,-4 -14,-6 -3,-4 h -8 l -4,-3 -8,1 -5,3 -9,-3 v 6 l -4,-1 -3,4 -6,-2 -2,-3 1,-4 -3,-2 -1,-3 -5,-3 -13,-6 h -6 l -2,-2 -8,1 -2,-4 -4,-1 h -21 l -3,-2 -15,3 -4,-1 -3,-3 -6,2 -3,4 1,2 -9,5 -4,-6 -9,-2 -6,2 -6,5 h -3 l -5,-5 1,-1 -5,2 -1,-1 v 3 l -2,2 5,2 1,6 2,1 -6,2 1,3 -3,2 v 3 h -5 l -5,3 1,2 -2,2 2,4 -2,2 3,3 4,2 1,-1 2,2 -1,4 -2,1 v 3 l 5,4 -1,12 2,3 -3,9 3,2 2,4 h 3 l 1,3 -1,3 -5,4 2,5 -2,10 -2,1 1,3 -4,3 h -3 l -1,4 h -8 l -1,3 -4,2 v 6 l -2,1 7,14 3,2 2,4 5,2 -1,1 4,6 6,-1 7,7 1,3 3,-1 1,2 -4,6 1,3 10,2 -1,4 3,1 -2,17 5,6 7,2 2,10 17,5 18,24 5,3 10,-1 5,4 h 3 l 11,10 10,6 4,-1 8,5 11,-1 2,5 1,-4 2,-1 11,-1 3,4 5,-2 8,6 3,-6 4,1 1,-3 h 2 l 2,-3 h 4 l 7,6 8,1 8,5 3,-4 5,-2 4,1 4,3 -1,3 3,3 11,4 2,4 6,1 9,6 2,-2 3,1 3,7 5,-1 v 4 l 3,2 5,8 4,-1 1,-2 3,1 2,-5 8,1 2,-3 4,-1 1,2 7,1 3,4 -1,3 -4,2 2,2 -1,6 7,5 5,-1 1,-3 7,-1 v -2 l 7,3 6,-3 9,5 z"
     id="海西蒙古族藏族自治州" />
</svg>