<svg xmlns="http://www.w3.org/2000/svg" id="svg1" version="1.1" viewBox="-253 -208 1771 1287">
  <path id="中西区" fill="#ff6347" fill-opacity="1" fill-rule="evenodd" stroke="#ffffff" stroke-dasharray="none" stroke-linecap="round" stroke-linejoin="round" stroke-opacity="1" stroke-width="0.5" d="m718 760 3-39-3-73-49-17-36 1-23 12-15 14-20 10-6 6-3 6-1 17 6 12 22 2 15-6 15 1 17 16 21 28 4 9v5l3 2h8l11-3 6-4 4 2 14-2zm-165-88 12-4-1-4-4-3h-5l-3 2-1 3 1 6zm17-6 2-1-1-4-4 1v2z"/>
  <path id="湾仔区" fill="#ff6347" fill-opacity="1" fill-rule="evenodd" stroke="#ffffff" stroke-dasharray="none" stroke-linecap="round" stroke-linejoin="round" stroke-opacity="1" stroke-width="0.5" d="m757 653-13 5-26-10 3 73-3 39 19 3 35 2 25-2 13-3 2-28 16-3 11-6 5-6-4-9-7-9-6 9-8 2-3-1-4-2-9-20-4-4-3-2-14 5-3-4h-4l-2-2-3-9-8 4-3-4z"/>
  <path id="东区" fill="#ff6347" fill-opacity="1" fill-rule="evenodd" stroke="#ffffff" stroke-dasharray="none" stroke-linecap="round" stroke-linejoin="round" stroke-opacity="1" stroke-width="0.5" d="m810 760 7-3 8-1 10 3 15-3 17 7 24 3 11 4 12-4 23 4 5 3 12 19 5 4-1-4 4-6 12-7 3-12-1-22 3-2 1-3-1-3-25-24-13-17-3-6v-9l3-8-99-52-85 32 3 21 2 1 8-4 3 9 2 2h4l3 4 14-5 7 6 6 15 3 5 4 2 3 1 8-2 6-9 7 9 4 9-5 6-6 4-12 4-9 1-2 14z"/>
  <path id="南区" fill="#ff6347" fill-opacity="1" fill-rule="evenodd" stroke="#ffffff" stroke-dasharray="none" stroke-linecap="round" stroke-linejoin="round" stroke-opacity="1" stroke-width="0.5" d="m571 709 16 19 31 50 3 3 19 10 11 14 10 9 26 14 11 15h3l11-6 21 7 5-2 2-3 5-21 6-14 2-3 3-1 8 1 17 19 15 1 5 10-3 9v13h-12l-3 3 3 5 16 9 3 4 1 5-7 12 3 11 7 1 9-2 11-8 4 1 8 51 2 4 5 4 5 1 19-3 8-4 3-6v-5l-11-19-2-11 4-8 25-15 9-2 6 2 13 20 2 6 4 3 8 3 29 2h2l3-3h3l2 4 4 1 1 3 4-1-2-8 3-3 1-4-5-4-1-5-6-1-3-3-3-28-5-11-3-3 1-4h9l1-4 9-1 2-4-1-3h-14v-14l-3-7-5-6-5-12-5-4-12-19-5-3-23-4-12 4-11-4-24-3-17-7-11 3-14-3-28 7-20 2-40-2-26-4-14 2-3-2-7 4-11 3h-8l-3-2v-5l-4-9-27-35-11-9-15-1-15 6h-5zm195 124 3-1 2-4 6 1 4-4v-4l-4-2-9 1-3-2h-4l-3 4v3l5 7zm-132-35 6-1 1-2-3-1-8 3zm133 93 9-4 1-2-2-5-7-3-6 2 4 11zm113 23 1-2-4-3h-3l-1 2 4 3zm101-59h2l1-2-1-4h-11v3l5 2z"/>
  <path id="油尖旺区" fill="#ff6347" fill-opacity="1" fill-rule="evenodd" stroke="#ffffff" stroke-dasharray="none" stroke-linecap="round" stroke-linejoin="round" stroke-opacity="1" stroke-width="0.5" d="M664 573v58h5l75 27 43-17-12-32-19-16-14-17-5-9-5-13 1-12 4-7-2-1-30 2-6 3h-7l-3 2-7-5-7 8-12 3z"/>
  <path id="深水埗区" fill="#ff6347" fill-opacity="1" fill-rule="evenodd" stroke="#ffffff" stroke-dasharray="none" stroke-linecap="round" stroke-linejoin="round" stroke-opacity="1" stroke-width="0.5" d="m664 573-1-26 12-3 7-8 7 5 3-2h7l6-3 30-2 2 1 5-10 2-15-9-23 1-8-4-9h-14l-18 3h-27l-15 6-3 5v6l-2 2-7-4-7 1-9-2h-4l-9 6-6-1-4 7 5 12 26 7 3 3-2 4-39 23-3 4v2l6 8 1 12 4 1z"/>
  <path id="九龙城区" fill="#ff6347" fill-opacity="1" fill-rule="evenodd" stroke="#ffffff" stroke-dasharray="none" stroke-linecap="round" stroke-linejoin="round" stroke-opacity="1" stroke-width="0.5" d="M751 465h-12l-7 5 4 9-1 8 9 23-2 15-9 17-1 12 10 22 14 17 19 16 12 32 55-20 28 15-5-28-31-29 7-10-14-15-11-7-1-5 2-5 7-7-4-22h-4l-11 4-11 9-2-1-4-6-6-2-14-16-2-8-8-5-1-10-2-2z"/>
  <path id="黄大仙区" fill="#ff6347" fill-opacity="1" fill-rule="evenodd" stroke="#ffffff" stroke-dasharray="none" stroke-linecap="round" stroke-linejoin="round" stroke-opacity="1" stroke-width="0.5" d="m820 507 10 5 10-3 6 2 5 5 15-3h16l9-2-3-1-2-4-9-39-1-16 3-13-34 4h-15l-9-3-7 6-11-4-3 1 2 5-3 5-29 5-18 8 5 8 1 10 8 5 2 8 13 16 6 1 5 7 2 1 11-9 11-4z"/>
  <path id="观塘区" fill="#ff6347" fill-opacity="1" fill-rule="evenodd" stroke="#ffffff" stroke-dasharray="none" stroke-linecap="round" stroke-linejoin="round" stroke-opacity="1" stroke-width="0.5" d="m820 507 4 23-7 7-2 5 1 5 11 7 14 15-7 10 31 29 5 28 71 37 1-3-2-5-9-6-1-5 10-26 10-6v-5l-3-6-19-19-1-3 1-9 5-7 7-16-3-1-8 4-2-2v-14h-2l-1 7-2 1-5-5-8-2-11-34-32 2-15 3-5-5-6-2-10 3-6-4z"/>
  <path id="荃湾区" fill="#ff6347" fill-opacity="1" fill-rule="evenodd" stroke="#ffffff" stroke-dasharray="none" stroke-linecap="round" stroke-linejoin="round" stroke-opacity="1" stroke-width="0.5" d="m649 375 21-5 5-3 18-18 3-12 2-2 19-2 4-3v-34l-6-23 3-16-57 3-2-12-3-2-10 3-20-3-33 2-7 13-16 3-18 15-6 3h-18l-5 2-23 23-3 1-13-6-8 2-15 13-17 9-3 4h-9l-3 2-7 10-2 6 1 7h-26l-9 2-12-1-3 4v4l3 6v2l-2 1-14-5-13-2-4 1-5 8-13 2-2 6 2 4 6 3 2 9 3 4 14 6-19 10-9 9-10 7-2 4-2 15-16 5 1 9-11 22-20 19-87 52 218 9 1-6 7-9 13-24 6-7 14-6 10-2 13 1-12-90 28-14 78-5v21l9-1 19-10 5-6v-3l7-14-1-6-6-8 1-2 18-6 18-9 6-1 7 1 1 10 3 4h3z"/>
  <path id="屯门区" fill="#ff6347" fill-opacity="1" fill-rule="evenodd" stroke="#ffffff" stroke-dasharray="none" stroke-linecap="round" stroke-linejoin="round" stroke-opacity="1" stroke-width="0.5" d="M424 339v-14l-29-1v-19l7-1v-10l-20 1-2 12-126-2v-30l-17-3 2-23-35-4-19-12 6-9 2-8-3-1-18 5-38-5-14-7H85l-3 1-8 18-10 15-11 9-4-1-4-15-4-4-28-6-28 8-9 4-36 44-2 5 1 2 25 10 7 12 4 15 6 12 2 28-7 14v6l5 11 31 22 31 18h31l15 8 6-2-8-19 12-11 28-11 29 1 15 5 43 20 47 7 8 3 13 10 8 12 16-5 2-15 2-4 10-7 9-9 19-10-14-6-3-4-2-9-6-3-2-4 2-6 11-1 7-9 4-1 13 2 14 5 2-1v-2l-3-6v-4l3-4 12 1 9-2h26l-1-7 2-6zm-540 60h3l3-4-1-3 4-4-1-2h-3v-4l3-3-1-3 4-5v-3l-5-3-9-1-3-4h-6l-2 1-1 5 2 3 10 5 2 4v5l-4 13 1 2zm25 88 2-4-1-3 3-5-3-3h-7l2 5-1 7h3zm-45-42h2v-4l-4-2-1 1 2 4zm268 84 7-8-7-4-2-3 1-2-2-1-2 2-2 10 1 4 3 1zm41-16 6-9 3-8v-4l-2-2-7 7-3 8 1 8zm-6 23 2-2-2-2-2 2zm-268-77 5-6v-3l-2-1-5 2-2 3 1 5z"/>
  <path id="元朗区" fill="#ff6347" fill-opacity="1" fill-rule="evenodd" stroke="#ffffff" stroke-dasharray="none" stroke-linecap="round" stroke-linejoin="round" stroke-opacity="1" stroke-width="0.5" d="m591 251 1-8-2-5-22-20-16-26-3-8 3-15 38-62h-8l-6-2-13-14-4-2-20 5-18 2-34 11-3-1V67l6-16V31l-1-5-10-12-1-4 2-19-5-7v-6l7-15v-5l-6-15-2-20-8 10-10 7-8-1-3-5-7-3-23 5-13 10-6 14v11l-12 9-11 1-12-5-13-3-41-6-8 3-2 7 13 23-1 4-7 8-12 6v4l3 5v5l-6 9h-11l-6-11-14-14-29-7-10-1-4 2-3 26-37 35-24 45-7 4-34 13-17 11-13 15-13 26-19 27-33 13 28 6 4 4 4 15 4 1 11-9 10-15 8-18 3-1h35l14 7 38 5 18-5 3 1-2 8-6 9 18 12 36 4-2 23 17 3v30l126 2 1-12 21-1v10l-7 1v19l29 1v14l5-7 7-3 2 2 3-1 3-4 17-9 15-13 8-2 13 6 3-1 23-23 5-2h18l6-3 18-15 16-3 3-6z"/>
  <path id="北区" fill="#ff6347" fill-opacity="1" fill-rule="evenodd" stroke="#ffffff" stroke-dasharray="none" stroke-linecap="round" stroke-linejoin="round" stroke-opacity="1" stroke-width="0.5" d="m1210-45-4-4-11-2-27 17-38 12-15 10h-2l-10-9-6-2-3-4-7-3-2-2-1-5-4-3-3-1-8 3-3-4h-7l2-2v-3l-4-2-3 2-15-1v-4l4-7 3-10 4 1 1-8 13-14-2-2h-6l-2 2-2-2-8 7-4-2 9-15-3-4-15 2-4-4-3 1 2 9-4 3-14-4-11 3-1-3 2-10 3-4 9-6v-5l-3-6-10-1-2-8-2-2-8-1-3-9-3-2v-3l8-6 1-4-1-2-5 1-5-3-7 1-2 5-9-3-5 4-4-1-1-5-2-1-9-1-6 2-26 47-13 1-1 9-2 3-10 4-2-4-6-2-3 2v4l-5 4-8 1-4 4h-11l-3-1v-3l4-14 8-5 16-23 4-2 19-1 2-2-3-2-3-7 2-2-1-7-5-7-8-3-1-4-4-2-5-7-6 4h-9l-7-7-8 2h-17l-1-4h-3l-5 2h-6l-6 4-6-1-5 4-4 1-3-3-5 2-14-3-2 5-10-5-1-12-4-2-16 1-4-4-5-1-5 6-3 1-4-1-4-8-4 1-13 20-3 2-7-1-2 2-1 9-1 2h-3l-2 7 1 4 3 1v-2h3l-1 4-4 1-5 6-1 7-10 2-1-2-7-1-2-2h-4l-3-2-5 1-8 5-10-1-7 7h-9l-8 5-8 10-8 2-2 2-2 7-2 2-8 4-7-3-1-18-3-1-4 7-13-2-11 3h-6l-14-10-9 3-11 13-13 3-7 5 3 6 11 6 6 6v5l-3 5 1 15 7 20v5l-6 12-1 9 5 7-2 19 1 4 10 12 1 5v20l-6 16-1 36 1 3 3 1 34-11 18-2 20-5 4 2 13 14 6 2h10l7-2 11-6 35-26 14-3 2-2 2-9-4-7 3-2 20-2 2 12 3 1 6-3 10 2 2-2v-6l7-15 8-9 11-6 20-3h20l8 4 23 1 11 4h31l12 6 3-2 3-7 12-13 8-15 11-9 10-13 4-12 2-2 5-1 5 4 5 7 3 2 8 1 16 20 5 3 12 2 22-2 8-3 33-4 20 1 10 3 45 20h11l14-5 18-11 5-10 32-16zm-111 20 12-5 5-5v-4l3-3 10 5h4l4-8 12-3 8-8 2-4 6-3v-3l-7-6-6 2-2-2 3-5-6-9-17-9-2 1-2 3 3 4-1 9 2 5-2 7-4 3v4l-6 2v4l-5 1 2 4-1 3h-3l-1-6-3-3h-5l-2 4-4-3-4 2h-3l-1-3-2 1 2 8h4l3 3v3h-3v4h-2v3l5 5zm16-86 3-5 1-8-2-4-6 2-2-1-13-12-1-9-9-3 1-9 2-2 5-1 4 1 10 9 5 2 5-3 3-5h5l1-6 6 5h4l7-4 2-3 6-1 1-2-4-2h-9l-4-2-11 2-9-4-3 4-30-3-1-3 2-5-6-4-4 1-7 6v3l2 4 5 3 1 6-12 1-1 4 22 23-4 2-1-5-3 1-2 3h-6l-3 2v5l-6 8v3l2 2 8-4 4 2 9-2 3 2 14-7 1-3 2 1-3 10 1 2 13 2zm43 28 3-1 3-5-2-20 4-4 1-5-3-10-3-4h-4l-3 2v18l-4 5-5-1-5-6-2-6-6-4h-3l-2 2-4 9 1 10 2 2 9 3 12 9 6 1 2 4zm-142-85 2-1-1-5-8-8-2 1 3 8 5 1v4zm15 56h2l4-5-2-2-3 1-1-3-4-1 2 9zm-48-40h5l4-3-1-4-9 2-1 4zm80 81 6-1 1-3-3-2-3 1-2-1v-2l-4 1-1 1 2 5 2 1zm-75-101 5-1-1-3-5 1-1 2zm80 58 2-2h-3zm-178 4 1-3-2 2zm-46 13 1-1-2-3-3 1 1 2zm275-31 11-8 1-5-2-3-6-1-6 4v12zm-5 114 2-1v-2h-2l-1 2zM972-170l2-3-1-1zm221 34 2-6-2-4-3-1-4 3 6 8zm-190-7v-2l-3 1zm43 30 1-2-2-1-2 1v2zm-47-63 2-1h-2zm22 53 1-2h-2zm1 10 2-1v-2l-2-1-1 3zm44 20 2-2h-3zm9 51v-2zm-68-89v-3l-1 2zm49 38 1-1-2 1z"/>
  <path id="大埔区" fill="#ff6347" fill-opacity="1" fill-rule="evenodd" stroke="#ffffff" stroke-dasharray="none" stroke-linecap="round" stroke-linejoin="round" stroke-opacity="1" stroke-width="0.5" d="m1210-45-28 20-10 3-18 10-5 10-4 3-14 8-14 5h-11l-6-2-39-18-10-3-20-1-33 4-8 3-22 2-12-2-5-3-16-20-8-1-13-13-5 1-2 2-4 12-10 13-11 9-8 15-12 13-3 7-3 2-12-6h-31l-11-4-23-1-8-4h-20l-20 3-11 6-8 9-7 15v6l-2 2-8-2-8 3-3-1-2-12-20 2-3 2 4 7-2 9-2 2-14 3-35 26-11 6-9 2-38 62-3 15 3 8 16 26 22 20 2 5-1 8 2-3 33-2 20 3 10-3 3 2 2 12 30-1 39-3 3-5 5-1v-3l2-2 29-2 3-5 32-2 4-3 6-17 3-4 22-17-27-17-3-4-3-7v-5l6-23 5-5 11-2 6 4-2 8 1 8 18 2v2l4 1 18-6 9 1 9-3 7-4 9-9 6-12-1-3-6-4h-5l-7 4-8 16-4 4-5 1-10-2-7-4v-2l2-6 7 1 1-4-10-3h-2l-1 2-2-4-15-5-1-6 3-6 1-10 8-5h3l7 4 21-2 8-5h6l1 5 7 4 27 30 1 15 4 10 4 3 5 1 6-2 28-13 9-9 8-15 5-5 28-14 6-9 11-2 22-11 8-2 1-2 16-10 20-7 15-9 4-6v-6h5l4-2 21-17 16-21 11-7 18-15 5-7-1-4zM959 185v25l-6 15v4l5 9-3 42 1 6 10 17-1 16 6 8-1 21 13-12 12-3 31-4 2-2 5-14 4-3 3-1 16 2 2-2 8-22-2-14 2-10 2-3 4-3 6-1 23 2 6-3 4-5v-27l7-3 34 6 17 15 22 10h8l17-9 7 1 17 16 22 10 1 7 2 2 15-6 8-11 5-19 5-9v-39l-8-16-1-10 14-3-2-4 2-7 7-10-1-14-1-5-4-5-8-6-19-8-3 1v26l-7 2-1 3-3 2-5-1-5 2-1 3 2 19 4 2-1 11-2 4-5 4-8-8-3-1-14 1 2-14-1-7-6-11 1-19 4-7 15-4 5-8-8-23-2-16-8-15-5-2-5 2-4 11-3 1-2 3 3 15-1 4-5 5-2 6-6 1-2-2-1-5 3-7-2-11-4-5-6 1-8 4-3-3-1-5 1-11-5-6-6-2-12 5-11 7-10 12-9 5-4 4-19 37h-12l-10 2-4 11-3 2h-9l-19 17-5 5-5 9-1 15-3 5-4 2-21-5-35 5zm322-86 5-3 4-7-1-7 8-8 2-12-6-7-4-1-1-2 3-9v-5l-3-4-12-4-6 3-4 7-8 5-1 3 7 8 1 7 3 3 1 10 2 3-1 15 1 3 5 2zm-408 80v6l4-6-3-5zM1271 2l3-2 4 1 2-2 3-13 10-12-1-2-4 2-14-2-7 5-1 7-4 1-1 2 8 14zM868 112l4 3 5-1-1-11-3 3-6 2zm635-240 8-3 4-5 2-6-2-4-5-2-14-1-10-12-2-9 1-11-2-3h-5l-12 6-4 5-1 9 5 18 4 7 22 10zM1193 62l2-2 1-8-4-4-1 10-2 2zm-214 97 1-2-2-2zm97-54-1-4-1 2zm236-62h2l-7-6v4zm-118 26 2-4h-2l-1 3zm7-15 2-2-1-2-2-1-2 2 1 1zm276 46v-5l-3-3h-2l2 5z"/>
  <path id="西贡区" fill="#ff6347" fill-opacity="1" fill-rule="evenodd" stroke="#ffffff" stroke-dasharray="none" stroke-linecap="round" stroke-linejoin="round" stroke-opacity="1" stroke-width="0.5" d="m1303 165-14 3 1 10 8 16v39l-5 9-5 19-8 11-15 6-2-2-1-7-22-10-17-16-3-1h-4l-17 9h-8l-22-10-17-15-34-6-3 1-4 2-1 4 1 23-4 5-6 3-23-2-6 1-6 6-2 10 2 14-8 22-2 2-16-2-5 2-2 2-5 14-4 3-29 3-12 3-13 12 3 14-2 2-24 4-2 3v8l-2 7-16 16-24 16-14 3-5-1-2 2-2 6 2 10h-3l-2 6-1 14 10 48 2 4 10 1 12 35 7 1 5 5 2-1 1-7 2-1v15l4 2 6-4 3 1-7 16-5 7-1 9 1 3 19 19 3 6v5l-10 6-9 21v10l7 4 4 7 1-7 18-21 15-14 10-1 7 5 5 8 1 8 4 4-10 21-2 13 3 16 12 7 1 6 13 23 10 2 7-3 5-11 3-4 6-3 1-6 4-2 11 3 7 11 15 11 2 4 8 6 6-3 2-8 2-2h7l4-2 4-4 2-10-3-7-9-7v-24l-5-3-10-1-1-4 3-5 11-6 7-10 17-8 3-5 1-10-7-17-12-12-3-10-5-6-21 1-5-2-8-11-5-11v-7l-5-7-8-4-22-4-8-7-6-11-11-47v-7l2-2 5-1 3 2 9-1 9-18v-18l-8-6-4-7-2-17 5-17v-9l4-10 4-5-3-15 1-4 3-5 8-5 5-1 10 4 11 13 15 1 2 3 1 7 4 1 5-3 16 2 14-2v-5l-4-3 3-9-1-2 11-4h6l3 2 2 8 5 4-5 12v4l2 3h11l10 8 21 8 2 3 1 3-2 14-5 6-4 12 2 8 4 6 13 10-2 6 2 11 12 16 7 1 10-3 11-13 3 1-2 8 5 10 1 6 3 3 3 18 5 4 8-2 4-12 6-8-5-9v-17l3-1 3 3 8 2 1-2h4l2-2-2-6 1-1 12 3 7-4 2-3v-4l4-5 4-1 3-3 3 1-2-5-7-1v-2l3-6 8-2 4-4 1-14 5 1 8 8 6 3 5-1 4-5v-12l-5-12 1-4 4-3 3-5-3-16v-16l-4-6-8-6-8-1-11-14-4-4-9-4-3-5 5-22 8-5v-10l2-5 3-5 11-8 4-2h9l6 5 11 16 7 5 12 1 9-2 5-8-10-22-7-6-2-4 1-9-5-17 2-6 3-3v-6l-12-1-5-8-6 2v-6l-2-3-8 5-9 1-18 6-10-5-16 1-3-3zm-228 587-10 10-3-3h-4l-8 6-6 8-1 4 2 6-3 6 2 4 8 6 13 4-3 6 3 6 6-1 2-3 1-7 6-2 8 2 2-1 3-10-2-7 1-2 6-1v-8l-5-2-3-6v-2h2v-3l3 1 1-3-1-3-5-3 2-6-4-1-9 4zm93-266 3-1 3-4 1-4-2-6 6-3v-8l3-1 1-3-2-8 3-9-11-9-13-4-1-10 5-2-4-15-7-8v-21l-16-7-6 2-8-3-5 3-7-2-8 1-1 7 2 10 5 2 6 7-2 6-3-1-2 2 2 4-3 2v2l5 4h2l1-4h2v4l-4 4 3 2v17l3 6-7 6-2 5 1 10 10 15 7 7 7 3 4-1 3-4h3l15 6zm111 78v4l4 9 3 4 5 3v9l7 5 2-1-1-7 2-4 8-1-3-6-4-3 1-4h2v-3l-5-11-6-4 2-2-2-1-12 1-3 2-1 6zm-198-38-2 3 1 4 9 14 10 3 6-1 2 2 1-2-2-6 3-3-1-3-10-12-4-1-9-9-2 2-1 6zm10-75h4l2-3v-6l-3-7-2-13 4-6v-5l-5-4-5-8v-5l-2-2v-4l6 2 2-1v-5l-6-5h-3l-8 5-3 13-9 9 7 9 4 2 4 5 1 15 2 2 6 1 1 2-2 4 1 5zm90 87h2l5-7h3l3-17-10-8-1-6-5-10-12-4-15 5-4 7 5 11v7l5 3-2 5 5 11 6 1 8-2 4 4zm64 228 2-1v-3l5 2h3l1-2-2-4 4-3-3-15-2-1-3 3 1 5-2 3-7-1 1 15zm50-236 2-2v-3h4l1-2v-3l-4-1-1-3v-4l5-10-1-7-3-3-4-1-3 1-2 4-6-2-5 3v15l-2 8 3 5 5-1 8 5zm-51 49 2-2 2-10 7 1 3-2 4-10-2-6 2-3 8-5v-9h-8l-4 7-11-2-5 5-7 19 3 15 3 2zm-60-166 3-3v-10l2-5-1-9-20-12-4 1-3 3v11l8 7 5-5v-5l2 2v12l3 5 1 6zm55 322h2l5-5 1-7 3-4-1-3 3-3v-2l-2-1h-7v5l-6 3-2 10 1 7zm90-204 2-2-1-2-7-3-2-3h-5v-3l-3-1-3 2v8l7 3h7zm-182-177 4-1 4-5v-7h-6l-3 5v7zm-97 18 2-2v-4l-5-5-4-1-2 2 1 5 3-1 1 4 2 1zm111 164-1 1 2 1zm-101-149 3-1v-4l5-3v-2l-6 1-2 3-3 1-1 4zm-17 339 1-2zm208-16 1-2-3-2v3zm-96-90 2-3h-2l-1 2zm224-467 3-1v-2h-2l-1-3-2 2v3zm-84 395-2-2-1 1 4 3zm-190-158h3l2-4-7-6-3 1 3 9zm203 129 4-2v-4l-5-5h-2l-1 3 2 3-1 4zm-107-8 4-1 1-3-3-6-4 1-2 5 2 3zm102 25 1-2-2-1-3 2zm-167 78 2-1-2-3-2 1 1 2zm25 3h3l-2-4h-2l-2 3zm-19-278 1-2-2-3-2 1 1 2zm3 16v-4l-2 1 1 3zm-56 43 3-1v-3l-5-3-2 2 3 4zm205 70 1-1h-2zm-224-95 2-3-1-3-4-2-2 1 4 7zm300 49 2-4-1-4-3-1-2 1 2 7zm-307 0h2v-6h-2l-2 3 1 2zm238 117 2-1-4-3 1 4zm-120 9 1-3h-2v2zm-6-138v-4h-4v3zm6 9-1 1h2zm140 78 2-1h-4zm-177 204 5-3v-5l-2-4-4-1-5 4-1 5 4 3zm95 64 2-3-4-4-3 1 1 5zm160-572 2-2-2-2-1 3zm-45 107 2-1-1-3h-3v3zm-297 37 1-2-3-1-1 2zm248 142 2-1-1-4-3 1-1 3zm-8 60 1-3h-2zm-140 45 1-4-2-2-1 4zm-22 25v-5h-2v3zm163 115 1-2-2-1-1 3zm9 6 1-3-4-3-1 2 3 3zm91-532h2l-1-2-1 1zm-45 98 2-2-1-4h-3l-1 5zm-302 53 1-2-3-1v2zm49 20 1-2-2-1zm-26 13 1-1-2-3-2 1v2zm33 13v-3h-3v3zm127 341 1-1-2-1v2zm19-250h2l-1-3-2 3z"/>
  <path id="沙田区" fill="#ff6347" fill-opacity="1" fill-rule="evenodd" stroke="#ffffff" stroke-dasharray="none" stroke-linecap="round" stroke-linejoin="round" stroke-opacity="1" stroke-width="0.5" d="m839 195-22 17-11 23-7 2-27 1-3 5-29 2-2 2v3l-5 1-3 5-12 1-3 16 6 23v34l-4 3-19 2-2 2-3 12-18 18-5 3-21 5 1 7-6 13v9l6 22-2 8-7 9v8l4 20 11 11 2-3 15-6h27l18-3 11 1 10-6h12l19-8 29-5 3-5-2-4 3-2 11 4 7-6 9 3h15l26-4h11l-2-10 4-8h13l12-5 18-13 14-13 2-3 2-7v-8l2-3 24-4 2-2-3-14 1-21-6-8 1-16-10-17-1-6 3-42-5-9v-4l6-15v-25l-3 1-9-3-12-1-14 1-6 5 1 7-4 8-4 3-7 2-34 3-12-3-6-5z"/>
  <path id="葵青区" fill="#ff6347" fill-opacity="1" fill-rule="evenodd" stroke="#ffffff" stroke-dasharray="none" stroke-linecap="round" stroke-linejoin="round" stroke-opacity="1" stroke-width="0.5" d="m455 517 7 2 14 10 12 13 4 2 32-3 36 1 6 2 6 5 12 20 6 7 30 14 13 9 6 9 1 8-2 8-5 8 31-1v-58l-56 2-4-1-1-12-6-8 3-6 39-23 2-3-3-4-26-7-5-12 2-5 2-2 6 1 9-6 13 2 7-1 7 4 2-2 1-8-11-11-4-20v-8l7-9 2-8-6-22v-9l6-13-1-7-13 3-3-4-1-10-7-1-6 1-18 9-18 6-1 2 6 8 1 6-7 14v3l-5 6-19 10-9 1v-21l-78 5-28 14z"/>
  <path id="离岛区" fill="#ff6347" fill-opacity="1" fill-rule="evenodd" stroke="#ffffff" stroke-dasharray="none" stroke-linecap="round" stroke-linejoin="round" stroke-opacity="1" stroke-width="0.5" d="m391 570-218-9-89 54-9-2-7-10v-7l8-5 31 1 15-16 5-23-2-10-12-6-45 6-24 7-5-8-5-1-117 41-4 7 1 4 8 7-13 28-1 6 8 16v11l-2 5-21 25-2 11-7 1-5 4-14 4-16 2-3 4-6 16-8 12-5-5-7-1-8 2-4 4-14 8-1 5 4 12h5l11-4 5 1 1 2-2 13-3 4-23 7-5 3-2 5v14l-2 2-11 1-8 7-5 7-1 16 3 24 2 5 7 8-4 14 1 7 4 9 6 5 4 6-6 21 1 5 10-1 3-2h6l5-2 5-4 5-8 11-7 6-1 17 3 12-5 31-22 4-8 4-15 8-5 16-2 3 4 2 10 13 15 16 12 22 2 19-4 25-1 8-2 4-3 3-7 1-11-3-9 1-3 22-5 14-9 13-17 4-2 31-3 27-13h9l7 2-6 18v12l7 14 13 16 17 15 11 2 8-4 15-12 17-3 5-8 16-8 3-11 3-2 8 2 7-7 3-9 4-5 1-5-2-4-13-3-9-4-6-9-10 2-6-1-7-8-7-2-2-2-2-7 1-4 6-7 31-14 1-4v-4l-4-7-8-7-5-8-12-10-2-5-7-4-1-2 3-10 5-3 3 1 8 8 10 4 3 4 15 5 13-2 12 1 2-4v-7l-7-27 6-5-2-6 1-18-5-2-1-6 1-3 11-3 6-4 3-6-3-14 2-12 7-8 4-1 18 1 26-4 19-11 5-7v-4zm-72 332-4-5 1-8 3-4 15-5-1-4-10-1 8-5 2-4v-4l-4-4-6 4-12 1-8 4-1 8 3 2v3l-3 2-1 4-3 3-3-1-3 2v2l6 6 9-1 3 4 1 7-2 6-14 2-5 11h-6l-6 3 3 4v5l4 2 6-1 1 1-2 3 1 2h3l9-6 3-5 5-1v-3l5-5h7l1-3 3 1 7 8 2-2 1-5 5-2 2-5 4-2v-2l-3-3-1-4-4-2-4 1-3 3h-3zm310-21v-7l-3-7-3-3-4-1-4 2-6 8-7-3-6-8 3-5-2-2-1-6-13-9-2-3 1-8 4-5 2-7v-5l-3-3-8-1-2-5-2-1-3 2-2 5-26 10-5 4-1 6 3 3 8 2 2 2-6 10 1 2 6 2v2l-10 4-16 12-2 3-1 6 6 21 17 1 3-3 7-3 7-5 2-5v-9l4-1 6 4 4 11v12l-2 10 1 5 4 4-3 37-5 7-9 6-4 6v12l6 7 14 4h7l10 5 6-1 9-12 3 1 8 11 5 3 5-1 1-13-9-19v-5l9 6 14 15 11 6h7l3-4-2-7-12-22-6-18 2-4 19-17 15 2 5-1 10-15-1-5-6-4-15 1-2-4-3-2h-7l-9 3-7 6-13-2-11 3-9 4-8 6-1 4h-3l-3-10 21-16 6-7zm-430 88 13-8 2-9-6-4-2 3-3-2 1-5 2-2-1-6-3-2v-5l-6-2-3 1-1-2-3 4-4 2-1 4-3 1-3 7-1 8 8 7 6 2 6 7zm-214 35 2-2-2-4 2-2 2-1 3 3v3l6-3-1-2h-3l2-2-4-4h-4l-6-6h-4l-2 3h-2l-3-2-4-8-11-6-1 8-2 3 2 4-3 9 1 3 5 1 5-3 1-3 6-2 4 1v8l2 3 4-4 2 1v3Zm981 16-10 19 2 8 2 1 6-3-1 5h-2l-1 2 2 4 13 2 1 2-8 13 1 1h7l9-5 5-8-1-6 9-8h3l-1 4 4 3 22-2 1-3-4-14-4-7 1-4 3-2 1-3-7-14-9-5-4-7-7 1-6 8-11 3-9 6-4 5zm-1020 51 4-1 5-8 15 2 5-5 6 1 1-1-2-8-2-2h-3l1-9 8-1 4-4-8-6-3 2-7-3-5 1-2 8 4 4-4 6h-5l-1 4-3 1-4-4-6 1-9 6-1 2 2 6 8 5zm391-323-13-1-4 2-10-2-1 6h-3l-1 4 5 7h11l3 2 4 4 2 7 2 1 3-3 4 1 2 2-1 5 5 8 1 7 9 6h3l6-8v-4l3-2v-3l-6-10-3-2 4-12v-6l-2-5-7-3-4-1-5 2zm14-65 8-2 14-8 1-4-8-4-4-7-8 1-5 5-2-4 7-6 7-3 2-3v-2l-5-5-33 7-4 6 11 3 4 11 3 1-2 3 1 6 10 5zm-416 342 4-3 4 2v-7h-2l-2 4-8 1 1 1zm1006-23 4-3-1-6 3-1 10 4v3l16-7 3-4 2-11-4-12-3-2h-5l-26 5-3 2v21l3 3-1 6zM374 754h3l11-8 3-7 3-3-4-8-5-1-6 3h-4l-10 8 1 6-2 2 2 4 4 3zm691 241 5-3v-10l2-4-1-8-6-7-4 4-2 7-3-2-5 4 4 16 5 2zM3 1078l3-4-1-2-2 1-2 5zm8-74 2-1v-3l-7-4-1 2 5 6zm388-346 7-3v-2l-7-3-4 1-1 2 2 1v3zm-447 360 2-1-3-4-3 4zm1163-33 2-1 4-9v-6l-2-1-6 15 1 1zM450 675l12-1v-4l-2-2v-2l2-1v-6l-2-1-10 3-5 5-1 6 3 3zM10 1008l-1-3-2 1zm-257-121 4-1 2-8-10-1-1 6 4 3zm1205 167-4 3-1 3 3 1 6-3v-2l-3-3zM618 861l6-3 2-4-1-3-4-1-5 3 1 7zm-633 192v-4l-1 3zm85-164 3-3-2-1-2 2zm1040 104 4-2v-7l-6 4v4zm-37-22 2-1-1-6-3 3zm-154 42 2-1-2-2-2-1-1 2zm-961 5v-2l-1 1z"/>
</svg>
