<?xml version="1.0" encoding="UTF-8" standalone="no"?>
<svg
   width="1771"
   height="1287"
   viewBox="-253 -208 1771 1287"
   version="1.1"
   id="svg1"
   xmlns="http://www.w3.org/2000/svg"
   xmlns:svg="http://www.w3.org/2000/svg">
  <defs
     id="defs1" />
  <path
     stroke="#ffff00"
     stroke-opacity="1"
     stroke-width="0.5"
     stroke-linecap="round"
     stroke-linejoin="round"
     stroke-dasharray="none"
     fill="#1e90ff"
     fill-opacity="1"
     fill-rule="evenodd"
     d="m 717.99999,759.99998 3,-39 -3,-73 -49,-17 -36,1 -23,12 -15,14 -20,10 -6,6 -3,6 -1,17 6,12 22,2 15,-6 15,1 17,16 21,28 4,9 v 5 l 3,2 h 8 l 11,-3 6,-4 4,2 14,-2 z m -165,-88 12,-4 -1,-4 -4,-3 h -5 l -3,2 -1,3 1,6 z m 17,-6 2,-1 -1,-4 -4,1 v 2 z"
     id="中西区" />
  <path
     stroke="#ffff00"
     stroke-opacity="1"
     stroke-width="0.5"
     stroke-linecap="round"
     stroke-linejoin="round"
     stroke-dasharray="none"
     fill="#1e90ff"
     fill-opacity="1"
     fill-rule="evenodd"
     d="m 756.99999,652.99998 -13,5 -26,-10 3,73 -3,39 19,3 35,2 25,-2 13,-3 2,-28 16,-3 11,-6 5,-6 -4,-9 -7,-9 -6,9 -8,2 -3,-1 -4,-2 -9,-20 -4,-4 -3,-2 -14,5 -3,-4 h -4 l -2,-2 -3,-9 -8,4 -3,-4 z"
     id="湾仔区" />
  <path
     stroke="#ffff00"
     stroke-opacity="1"
     stroke-width="0.5"
     stroke-linecap="round"
     stroke-linejoin="round"
     stroke-dasharray="none"
     fill="#1e90ff"
     fill-opacity="1"
     fill-rule="evenodd"
     d="m 809.99999,759.99998 7,-3 8,-1 10,3 15,-3 17,7 24,3 11,4 12,-4 23,4 5,3 12,19 5,4 -1,-4 4,-6 12,-7 3,-12 -1,-22 3,-2 1,-3 -1,-3 -25,-24 -13,-17 -3,-6 v -9 l 3,-8 -99,-52 -85,32 3,21 2,1 8,-4 3,9 2,2 h 4 l 3,4 14,-5 7,6 6,15 3,5 4,2 3,1 8,-2 6,-9 7,9 4,9 -5,6 -6,4 -12,4 -9,1 -2,14 z"
     id="东区" />
  <path
     stroke="#ffff00"
     stroke-opacity="1"
     stroke-width="0.5"
     stroke-linecap="round"
     stroke-linejoin="round"
     stroke-dasharray="none"
     fill="#1e90ff"
     fill-opacity="1"
     fill-rule="evenodd"
     d="m 570.99999,708.99998 16,19 31,50 3,3 19,10 11,14 10,9 26,14 11,15 h 3 l 11,-6 21,7 5,-2 2,-3 5,-21 6,-14 2,-3 3,-1 8,1 17,19 15,1 5,10 -3,9 v 13 h -12 l -3,3 3,5 16,9 3,4 1,5 -7,12 3,11 7,1 9,-2 11,-8 4,1 8,51 2,4 5,4 5,1 19,-3 8,-4 3,-6 v -5 l -11,-19 -2,-11 4,-8 25,-15 9,-2 6,2 13,20 2,6 4,3 8,3 29,2 h 2 l 3,-3 h 3 l 2,4 4,1 1,3 4,-1 -2,-8 3,-3 1,-4 -5,-4 -1,-5 -6,-1 -3,-3 -3,-28 -5,-11 -3,-3 1,-4 h 9 l 1,-4 9,-1 2,-4 -1,-3 h -14 v -14 l -3,-7 -5,-6 -5,-12 -5,-4 -12,-19 -5,-3 -23,-4 -12,4 -11,-4 -24,-3 -17,-7 -11,3 -14,-3 -28,7 -20,2 -40,-2 -26,-4 -14,2 -3,-2 -7,4 -11,3 h -8 l -3,-2 v -5 l -4,-9 -27,-35 -11,-9 -15,-1 -15,6 h -5 z m 195,124 3,-1 2,-4 6,1 4,-4 v -4 l -4,-2 -9,1 -3,-2 h -4 l -3,4 v 3 l 5,7 z m -132,-35 6,-1 1,-2 -3,-1 -8,3 z m 133,93 9,-4 1,-2 -2,-5 -7,-3 -6,2 4,11 z m 113,23 1,-2 -4,-3 h -3 l -1,2 4,3 z m 101,-59 h 2 l 1,-2 -1,-4 h -11 v 3 l 5,2 z"
     id="南区" />
  <path
     stroke="#ffff00"
     stroke-opacity="1"
     stroke-width="0.5"
     stroke-linecap="round"
     stroke-linejoin="round"
     stroke-dasharray="none"
     fill="#1e90ff"
     fill-opacity="1"
     fill-rule="evenodd"
     d="m 663.99999,572.99998 v 58 h 5 l 75,27 43,-17 -12,-32 -19,-16 -14,-17 -5,-9 -5,-13 1,-12 4,-7 -2,-1 -30,2 -6,3 h -7 l -3,2 -7,-5 -7,8 -12,3 z"
     id="油尖旺区" />
  <path
     stroke="#ffff00"
     stroke-opacity="1"
     stroke-width="0.5"
     stroke-linecap="round"
     stroke-linejoin="round"
     stroke-dasharray="none"
     fill="#1e90ff"
     fill-opacity="1"
     fill-rule="evenodd"
     d="m 663.99999,572.99998 -1,-26 12,-3 7,-8 7,5 3,-2 h 7 l 6,-3 30,-2 2,1 5,-10 2,-15 -9,-23 1,-8 -4,-9 h -14 l -18,3 h -27 l -15,6 -3,5 v 6 l -2,2 -7,-4 -7,1 -9,-2 h -4 l -9,6 -6,-1 -4,7 5,12 26,7 3,3 -2,4 -39,23 -3,4 v 2 l 6,8 1,12 4,1 z"
     id="深水埗区" />
  <path
     stroke="#ffff00"
     stroke-opacity="1"
     stroke-width="0.5"
     stroke-linecap="round"
     stroke-linejoin="round"
     stroke-dasharray="none"
     fill="#1e90ff"
     fill-opacity="1"
     fill-rule="evenodd"
     d="m 750.99999,464.99998 h -12 l -7,5 4,9 -1,8 9,23 -2,15 -9,17 -1,12 10,22 14,17 19,16 12,32 55,-20 28,15 -5,-28 -31,-29 7,-10 -14,-15 -11,-7 -1,-5 2,-5 7,-7 -4,-22 h -4 l -11,4 -11,9 -2,-1 -4,-6 -6,-2 -14,-16 -2,-8 -8,-5 -1,-10 -2,-2 z"
     id="九龙城区" />
  <path
     stroke="#ffff00"
     stroke-opacity="1"
     stroke-width="0.5"
     stroke-linecap="round"
     stroke-linejoin="round"
     stroke-dasharray="none"
     fill="#1e90ff"
     fill-opacity="1"
     fill-rule="evenodd"
     d="m 819.99999,506.99998 10,5 10,-3 6,2 5,5 15,-3 h 16 l 9,-2 -3,-1 -2,-4 -9,-39 -1,-16 3,-13 -34,4 h -15 l -9,-3 -7,6 -11,-4 -3,1 2,5 -3,5 -29,5 -18,8 5,8 1,10 8,5 2,8 13,16 6,1 5,7 2,1 11,-9 11,-4 z"
     id="黄大仙区" />
  <path
     stroke="#ffff00"
     stroke-opacity="1"
     stroke-width="0.5"
     stroke-linecap="round"
     stroke-linejoin="round"
     stroke-dasharray="none"
     fill="#1e90ff"
     fill-opacity="1"
     fill-rule="evenodd"
     d="m 819.99999,506.99998 4,23 -7,7 -2,5 1,5 11,7 14,15 -7,10 31,29 5,28 71,37 1,-3 -2,-5 -9,-6 -1,-5 10,-26 10,-6 v -5 l -3,-6 -19,-19 -1,-3 1,-9 5,-7 7,-16 -3,-1 -8,4 -2,-2 v -14 h -2 l -1,7 -2,1 -5,-5 -8,-2 -11,-34 -32,2 -15,3 -5,-5 -6,-2 -10,3 -6,-4 z"
     id="观塘区" />
  <path
     stroke="#ffff00"
     stroke-opacity="1"
     stroke-width="0.5"
     stroke-linecap="round"
     stroke-linejoin="round"
     stroke-dasharray="none"
     fill="#1e90ff"
     fill-opacity="1"
     fill-rule="evenodd"
     d="m 648.99999,374.99998 21,-5 5,-3 18,-18 3,-12 2,-2 19,-2 4,-3 v -34 l -6,-23 3,-16 -57,3 -2,-12 -3,-2 -10,3 -20,-3 -33,2 -7,13 -16,3 -18,15 -6,3 h -18 l -5,2 -23,23 -3,1 -13,-6 -8,2 -15,13 -17,9 -3,4 h -9 l -3,2 -7,10 -2,6 1,7 h -26 l -9,2 -12,-1 -3,4 v 4 l 3,6 v 2 l -2,1 -14,-5 -13,-2 -4,1 -5,8 -13,2 -2,6 2,4 6,3 2,9 3,4 14,6 -19,10 -9,9 -10,7 -2,4 -2,15 -16,5 1,9 -11,22 -20,19 -87,52 218,9 1,-6 7,-9 13,-24 6,-7 14,-6 10,-2 13,1 -12,-90 28,-14 78,-5 v 21 l 9,-1 19,-10 5,-6 v -3 l 7,-14 -1,-6 -6,-8 1,-2 18,-6 18,-9 6,-1 7,1 1,10 3,4 h 3 z"
     id="荃湾区" />
  <path
     stroke="#ffff00"
     stroke-opacity="1"
     stroke-width="0.5"
     stroke-linecap="round"
     stroke-linejoin="round"
     stroke-dasharray="none"
     fill="#1e90ff"
     fill-opacity="1"
     fill-rule="evenodd"
     d="m 423.99999,338.99998 v -14 l -29,-1 v -19 l 7,-1 v -10 l -20,1 -2,12 -126,-2 v -30 l -17,-3 2,-23 -35,-4 -19,-12 6,-9 2,-8 -3,-1 -18,5 -38,-5 -14,-7 h -35 l -3,1 -8,18 -10,15 -11,9 -4,-1 -4,-15 -4,-4 -28,-6 -28,8 -9,4 -36,44 -2,5 1,2 25,10 7,12 4,15 6,12 2,28 -7,14 v 6 l 5,11 31,22 31,18 h 31 l 15,8 6,-2 -8,-19 12,-11 28,-11 29,1 15,5 43,20 47,7 8,3 13,10 8,12 16,-5 2,-15 2,-4 10,-7 9,-9 19,-10 -14,-6 -3,-4 -2,-9 -6,-3 -2,-4 2,-6 11,-1 7,-9 4,-1 13,2 14,5 2,-1 v -2 l -3,-6 v -4 l 3,-4 12,1 9,-2 h 26 l -1,-7 2,-6 z m -540,60 h 3 l 3,-4 -1,-3 4,-4 -1,-2 h -3 v -4 l 3,-3 -1,-3 4,-5 v -3 l -5,-3 -9,-1 -3,-4 h -6 l -2,1 -1,5 2,3 10,5 2,4 v 5 l -4,13 1,2 z m 25,88 2,-4 -1,-3 3,-5 -3,-3 h -7 l 2,5 -1,7 h 3 z m -45,-42 h 2 v -4 l -4,-2 -1,1 2,4 z m 268,84 7,-8 -7,-4 -2,-3 1,-2 -2,-1 -2,2 -2,10 1,4 3,1 z m 41,-16 6,-9 3,-8 v -4 l -2,-2 -7,7 -3,8 1,8 z m -6,23 2,-2 -2,-2 -2,2 z m -268,-77 5,-6 v -3 l -2,-1 -5,2 -2,3 1,5 z"
     id="屯门区" />
  <path
     stroke="#ffff00"
     stroke-opacity="1"
     stroke-width="0.5"
     stroke-linecap="round"
     stroke-linejoin="round"
     stroke-dasharray="none"
     fill="#1e90ff"
     fill-opacity="1"
     fill-rule="evenodd"
     d="m 590.99999,250.99998 1,-8 -2,-5 -22,-20 -16,-26 -3,-8 3,-15 38,-62 h -8 l -6,-2 -13,-14 -4,-2 -20,5 -18,2 -34,11 -3,-1 v -39 l 6,-16 v -20 l -1,-5 -10,-12 -1,-4 2,-19 -5,-7 v -6 l 7,-15 v -5 l -6,-15 -2,-20 -8,10 -10,7 -8,-1 -3,-5 -7,-3 -23,5 -13,10 -6,14 v 11 l -12,9 -11,1 -12,-5 -13,-3 -41,-6 -8,3 -2,7 13,23 -1,4 -7,8 -12,6 v 4 l 3,5 v 5 l -6,9 h -11 l -6,-11 -14,-14 -29,-7 -10,-1 -4,2 -3,26 -37,35 -24,45 -7,4 -34,13 -17,11 -13,15 -13,26 -19,27 -33,13 28,6 4,4 4,15 4,1 11,-9 10,-15 8,-18 3,-1 h 35 l 14,7 38,5 18,-5 3,1 -2,8 -6,9 18,12 36,4 -2,23 17,3 v 30 l 126,2 1,-12 21,-1 v 10 l -7,1 v 19 l 29,1 v 14 l 5,-7 7,-3 2,2 3,-1 3,-4 17,-9 15,-13 8,-2 13,6 3,-1 23,-23 5,-2 h 18 l 6,-3 18,-15 16,-3 3,-6 z"
     id="元朗区" />
  <path
     stroke="#ffff00"
     stroke-opacity="1"
     stroke-width="0.5"
     stroke-linecap="round"
     stroke-linejoin="round"
     stroke-dasharray="none"
     fill="#1e90ff"
     fill-opacity="1"
     fill-rule="evenodd"
     d="m 1210,-45.00002 -4,-4 -11,-2 -27,17 -38,12 -15,10 h -2 l -10,-9 -6,-2 -3,-4 -7,-3 -2,-2 -1,-5 -4,-3 -3,-1 -8,3 -3,-4 h -7 l 2,-2 v -3 l -4,-2 -3,2 -15,-1 v -4 l 4,-7 3,-10 4,1 1,-8 13,-14 -2,-2 h -6 l -2,2 -2,-2 -8,7 -4,-2 9,-15 -3,-4 -15,2 -4,-4 -3,1 2,9 -4,3 -14,-4 -11.00001,3 -1,-3 2,-10 3.00001,-4 9,-6 v -5 l -3,-6 -10.00001,-1 -2,-8 -2,-2 -8,-1 -3,-9 -3,-2 v -3 l 8,-6 1,-4 -1,-2 -5,1 -5,-3 -7,1 -2,5 -9,-3 -5,4 -4,-1 -1,-5 -2,-1 -9,-1 -6,2 -26,47 -13,1 -1,9 -2,3 -10,4 -2,-4 -6,-2 -3,2 v 4 l -5,4 -8,1 -4,4 h -11 l -3,-1 v -3 l 4,-14 8,-5 16,-23 4,-2 19,-1 2,-2 -3,-2 -3,-7 2,-2 -1,-7 -5,-7 -8,-3 -1,-4 -4,-2 -5,-7 -6,4 h -9 l -7,-7 -8,2 h -17 l -1,-4 h -3 l -5,2 h -6 l -6,4 -6,-1 -5,4 -4,1 -3,-3 -5,2 -14,-3 -2,5 -10,-5 -1,-12 -4,-2 -16,1 -4,-4 -5,-1 -5,6 -3,1 -4,-1 -4,-8 -4,1 -13,20 -3,2 -7,-1 -2,2 -1,9 -1,2 h -3 l -2,7 1,4 3,1 v -2 h 3 l -1,4 -4,1 -5,6 -1,7 -10,2 -1,-2 -7,-1 -2,-2 h -4 l -3,-2 -5,1 -8,5 -10,-1 -7,7 h -9 l -8,5 -8,10 -8,2 -2,2 -2,7 -2,2 -8,4 -7,-3 -1,-18 -3,-1 -4,7 -13,-2 -11,3 h -6 l -14,-10 -9,3 -11,13 -13,3 -7,5 3,6 11,6 6,6 v 5 l -3,5 1,15 7,20 v 5 l -6,12 -1,9 5,7 -2,19 1,4 10,12 1,5 v 20 l -6,16 -1,36 1,3 3,1 34,-11 18,-2 20,-5 4,2 13,14 6,2 h 10 l 7,-2 11,-6 35,-26 14,-3 2,-2 2,-9 -4,-7 3,-2 20,-2 2,12 3,1 6,-3 10,2 2,-2 v -6 l 7,-15 8,-9 11,-6 20,-3 h 20 l 8,4 23,1 11,4 h 31 l 12,6 3,-2 3,-7 12,-13 8,-15 11,-9 10,-13 4,-12 2,-2 5,-1 5,4 5,7 3,2 8,1 16,20 5,3 12,2 22,-2 8,-3 33.00001,-4 20,1 10,3 45,20 h 11 l 14,-5 18,-11 5,-10 32,-16 z m -111,20 12,-5 5,-5 v -4 l 3,-3 10,5 h 4 l 4,-8 12,-3 8,-8 2,-4 6,-3 v -3 l -7,-6 -6,2 -2,-2 3,-5 -6,-9 -17,-9 -2,1 -2,3 3,4 -1,9 2,5 -2,7 -4,3 v 4 l -6,2 v 4 l -5,1 2,4 -1,3 h -3 l -1,-6 -3,-3 h -5 l -2,4 -4,-3 -4,2 h -3 l -1,-3 -2,1 2,8 h 4 l 3,3 v 3 h -3 v 4 h -2 v 3 l 5,5 z m 16,-86 3,-5 1,-8 -2,-4 -6,2 -2,-1 -13,-12 -1,-9 -9,-3 1,-9 2,-2 5,-1 4,1 10,9 5,2 5,-3 3,-5 h 5 l 1,-6 6,5 h 4 l 7,-4 2,-3 6,-1 1,-2 -4,-2 h -9 l -4,-2 -11,2 -9,-4 -3,4 -30,-3 -1,-3 2,-5 -6,-4 -4,1 -7,6 v 3 l 2,4 5,3 1,6 -12,1 -1,4 22,23 -4,2 -1,-5 -3,1 -2,3 h -6 l -3,2 v 5 l -6,8 v 3 l 2,2 8,-4 4,2 9,-2 3,2 14,-7 1,-3 2,1 -3,10 1,2 13,2 z m 43,28 3,-1 3,-5 -2,-20 4,-4 1,-5 -3,-10 -3,-4 h -4 l -3,2 v 18 l -4,5 -5,-1 -5,-6 -2,-6 -6,-4 h -3 l -2,2 -4,9 1,10 2,2 9,3 12,9 6,1 2,4 z m -142,-85 2,-1 -1,-5 -8,-8 -2,1 3,8 5,1 v 4 z m 15,56 h 2 l 4,-5 -2,-2 -3,1 -1,-3 -4,-1 2,9 z m -48.00001,-40 h 5 l 4,-3 -1,-4 -9,2 -1,4 z m 80.00001,81 6,-1 1,-3 -3,-2 -3,1 -2,-1 v -2 l -4,1 -1,1 2,5 2,1 z m -75.00001,-101 5,-1 -1,-3 -5,1 -1,2 z m 80.00001,58 2,-2 h -3 z m -178.00001,4 1,-3 -2,2 z m -46,13 1,-1 -2,-3 -3,1 1,2 z m 275.00001,-31 11,-8 1,-5 -2,-3 -6,-1 -6,4 v 12 z m -5,114 2,-1 v -2 h -2 l -1,2 z m -142.00001,-156 2,-3 -1,-1 z m 221.00001,34 2,-6 -2,-4 -3,-1 -4,3 6,8 z m -190,-7 v -2 l -3.00001,1 z m 43,30 1,-2 -2,-1 -2,1 v 2 z m -47.00001,-63 2.00001,-1 h -2.00001 z m 22.00001,53 1,-2 h -2 z m 1,10 2,-1 v -2 l -2,-1 -1,3 z m 44,20 2,-2 h -3 z m 9,51 v -2 z m -68,-89 v -3 l -1,2 z m 49,38 1,-1 -2,1 z"
     id="北区" />
  <path
     stroke="#ffff00"
     stroke-opacity="1"
     stroke-width="0.5"
     stroke-linecap="round"
     stroke-linejoin="round"
     stroke-dasharray="none"
     fill="#1e90ff"
     fill-opacity="1"
     fill-rule="evenodd"
     d="m 1210,-45.00002 -28,20 -10,3 -18,10 -5,10 -4,3 -14,8 -14,5 h -11 l -6,-2 -39,-18 -10,-3 -20,-1 -33.00001,4 -8,3 -22,2 -12,-2 -5,-3 -16,-20 -8,-1 -13,-13 -5,1 -2,2 -4,12 -10,13 -11,9 -8,15 -12,13 -3,7 -3,2 -12,-6 h -31 l -11,-4 -23,-1 -8,-4 h -20 l -20,3 -11,6 -8,9 -7,15 v 6 l -2,2 -8,-2 -8,3 -3,-1 -2,-12 -20,2 -3,2 4,7 -2,9 -2,2 -14,3 -35,26 -11,6 -9,2 -38,62 -3,15 3,8 16,26 22,20 2,5 -1,8 2,-3 33,-2 20,3 10,-3 3,2 2,12 30,-1 39,-3 3,-5 5,-1 v -3 l 2,-2 29,-2 3,-5 32,-2 4,-3 6,-17 3,-4 22,-17 -27,-17 -3,-4 -3,-7 v -5 l 6,-23 5,-5 11,-2 6,4 -2,8 1,8 18,2 v 2 l 4,1 18,-6 9,1 9,-3 7,-4 9,-9 6,-12 -1,-3 -6,-4 h -5 l -7,4 -8,16 -4,4 -5,1 -10,-2 -7,-4 v -2 l 2,-6 7,1 1,-4 -10,-3 h -2 l -1,2 -2,-4 -15,-5 -1,-6 3,-6 1,-10 8,-5 h 3 l 7,4 21,-2 8,-5 h 6 l 1,5 7,4 27,30 1,15 4,10 4,3 5,1 6,-2 28,-13 9,-9 8,-15 5.00001,-5 28,-14 6,-9 11,-2 22,-11 8,-2 1,-2 16,-10 20,-7 15,-9 4,-6 v -6 h 5 l 4,-2 21,-17 16,-21 11,-7 18,-15 5,-7 -1,-4 z m -251.00001,230 v 25 l -6,15 v 4 l 5,9 -3,42 1,6 10,17 -1,16 6,8 -1,21 13,-12 12,-3 31.00001,-4 2,-2 5,-14 4,-3 3,-1 16,2 2,-2 8,-22 -2,-14 2,-10 2,-3 4,-3 6,-1 23,2 6,-3 4,-5 v -27 l 7,-3 34,6 17,15 22,10 h 8 l 17,-9 7,1 17,16 22,10 1,7 2,2 15,-6 8,-11 5,-19 5,-9 v -39 l -8,-16 -1,-10 14,-3 -2,-4 2,-7 7,-10 -1,-14 -1,-5 -4,-5 -8,-6 -19,-8 -3,1 v 26 l -7,2 -1,3 -3,2 -5,-1 -5,2 -1,3 2,19 4,2 -1,11 -2,4 -5,4 -8,-8 -3,-1 -14,1 2,-14 -1,-7 -6,-11 1,-19 4,-7 15,-4 5,-8 -8,-23 -2,-16 -8,-15 -5,-2 -5,2 -4,11 -3,1 -2,3 3,15 -1,4 -5,5 -2,6 -6,1 -2,-2 -1,-5 3,-7 -2,-11 -4,-5 -6,1 -8,4 -3,-3 -1,-5 1,-11 -5,-6 -6,-2 -12,5 -11,7 -10,12 -9,5 -4,4 -19,37 h -12 l -10,2 -4,11 -3,2 h -9 l -19,17 -5,5 -5,9 -1,15 -3,5 -4,2 -21,-5 -35.00001,5 z m 322.00001,-86 5,-3 4,-7 -1,-7 8,-8 2,-12 -6,-7 -4,-1 -1,-2 3,-9 v -5 l -3,-4 -12,-4 -6,3 -4,7 -8,5 -1,3 7,8 1,7 3,3 1,10 2,3 -1,15 1,3 5,2 z m -408.00001,80 v 6 l 4,-6 -3,-5 z m 398.00001,-177 3,-2 4,1 2,-2 3,-13 10,-12 -1,-2 -4,2 -14,-2 -7,5 -1,7 -4,1 -1,2 8,14 z m -403.00001,110 4,3 5,-1 -1,-11 -3,3 -6,2 z m 635.00001,-240 8,-3 4,-5 2,-6 -2,-4 -5,-2 -14,-1 -10,-12 -2,-9 1,-11 -2,-3 h -5 l -12,6 -4,5 -1,9 5,18 4,7 22,10 z m -310,190 2,-2 1,-8 -4,-4 -1,10 -2,2 z m -214.00001,97 1,-2 -2,-2 z m 97.00001,-54 -1,-4 -1,2 z m 236,-62 h 2 l -7,-6 v 4 z m -118,26 2,-4 h -2 l -1,3 z m 7,-15 2,-2 -1,-2 -2,-1 -2,2 1,1 z m 276,46 v -5 l -3,-3 h -2 l 2,5 z"
     id="大埔区" />
  <path
     stroke="#ffff00"
     stroke-opacity="1"
     stroke-width="0.5"
     stroke-linecap="round"
     stroke-linejoin="round"
     stroke-dasharray="none"
     fill="#1e90ff"
     fill-opacity="1"
     fill-rule="evenodd"
     d="m 1303,164.99998 -14,3 1,10 8,16 v 39 l -5,9 -5,19 -8,11 -15,6 -2,-2 -1,-7 -22,-10 -17,-16 -3,-1 h -4 l -17,9 h -8 l -22,-10 -17,-15 -34,-6 -3,1 -4,2 -1,4 1,23 -4,5 -6,3 -23,-2 -6,1 -6,6 -2,10 2,14 -8,22 -2,2 -16,-2 -5,2 -2,2 -5,14 -4,3 -29.00001,3 -12,3 -13,12 3,14 -2,2 -24,4 -2,3 v 8 l -2,7 -16,16 -24,16 -14,3 -5,-1 -2,2 -2,6 2,10 h -3 l -2,6 -1,14 10,48 2,4 10,1 12,35 7,1 5,5 2,-1 1,-7 2,-1 v 15 l 4,2 6,-4 3,1 -7,16 -5,7 -1,9 1,3 19,19 3,6 v 5 l -10,6 -9,21 v 10 l 7,4 4,7 1,-7 18,-21 15,-14 10,-1 7,5 5,8 1,8 4.00001,4 -10.00001,21 -2,13 3,16 12.00001,7 1,6 13,23 10,2 7,-3 5,-11 3,-4 6,-3 1,-6 4,-2 11,3 7,11 15,11 2,4 8,6 6,-3 2,-8 2,-2 h 7 l 4,-2 4,-4 2,-10 -3,-7 -9,-7 v -24 l -5,-3 -10,-1 -1,-4 3,-5 11,-6 7,-10 17,-8 3,-5 1,-10 -7,-17 -12,-12 -3,-10 -5,-6 -21,1 -5,-2 -8,-11 -5,-11 v -7 l -5,-7 -8,-4 -22,-4 -8,-7 -6,-11 -11,-47 v -7 l 2,-2 5,-1 3,2 9,-1 9,-18 v -18 l -8,-6 -4,-7 -2,-17 5,-17 v -9 l 4,-10 4,-5 -3,-15 1,-4 3,-5 8,-5 5,-1 10,4 11,13 15,1 2,3 1,7 4,1 5,-3 16,2 14,-2 v -5 l -4,-3 3,-9 -1,-2 11,-4 h 6 l 3,2 2,8 5,4 -5,12 v 4 l 2,3 h 11 l 10,8 21,8 2,3 1,3 -2,14 -5,6 -4,12 2,8 4,6 13,10 -2,6 2,11 12,16 7,1 10,-3 11,-13 3,1 -2,8 5,10 1,6 3,3 3,18 5,4 8,-2 4,-12 6,-8 -5,-9 v -17 l 3,-1 3,3 8,2 1,-2 h 4 l 2,-2 -2,-6 1,-1 12,3 7,-4 2,-3 v -4 l 4,-5 4,-1 3,-3 3,1 -2,-5 -7,-1 v -2 l 3,-6 8,-2 4,-4 1,-14 5,1 8,8 6,3 5,-1 4,-5 v -12 l -5,-12 1,-4 4,-3 3,-5 -3,-16 v -16 l -4,-6 -8,-6 -8,-1 -11,-14 -4,-4 -9,-4 -3,-5 5,-22 8,-5 v -10 l 2,-5 3,-5 11,-8 4,-2 h 9 l 6,5 11,16 7,5 12,1 9,-2 5,-8 -10,-22 -7,-6 -2,-4 1,-9 -5,-17 2,-6 3,-3 v -6 l -12,-1 -5,-8 -6,2 v -6 l -2,-3 -8,5 -9,1 -18,6 -10,-5 -16,1 -3,-3 z m -228,587 -10,10 -3,-3 h -4 l -8,6 -6,8 -1,4 2,6 -3,6 2,4 8,6 13,4 -3,6 3,6 6,-1 2,-3 1,-7 6,-2 8,2 2,-1 3,-10 -2,-7 1,-2 6,-1 v -8 l -5,-2 -3,-6 v -2 h 2 v -3 l 3,1 1,-3 -1,-3 -5,-3 2,-6 -4,-1 -9,4 z m 93,-266 3,-1 3,-4 1,-4 -2,-6 6,-3 v -8 l 3,-1 1,-3 -2,-8 3,-9 -11,-9 -13,-4 -1,-10 5,-2 -4,-15 -7,-8 v -21 l -16,-7 -6,2 -8,-3 -5,3 -7,-2 -8,1 -1,7 2,10 5,2 6,7 -2,6 -3,-1 -2,2 2,4 -3,2 v 2 l 5,4 h 2 l 1,-4 h 2 v 4 l -4,4 3,2 v 17 l 3,6 -7,6 -2,5 1,10 10,15 7,7 7,3 4,-1 3,-4 h 3 l 15,6 z m 111,78 v 4 l 4,9 3,4 5,3 v 9 l 7,5 2,-1 -1,-7 2,-4 8,-1 -3,-6 -4,-3 1,-4 h 2 v -3 l -5,-11 -6,-4 2,-2 -2,-1 -12,1 -3,2 -1,6 z m -198,-38 -2,3 1,4 9,14 10,3 6,-1 2,2 1,-2 -2,-6 3,-3 -1,-3 -10,-12 -4,-1 -9,-9 -2,2 -1,6 z m 10,-75 h 4 l 2,-3 v -6 l -3,-7 -2,-13 4,-6 v -5 l -5,-4 -5,-8 v -5 l -2,-2 v -4 l 6,2 2,-1 v -5 l -6,-5 h -3 l -8,5 -3,13 -9,9 7,9 4,2 4,5 1,15 2,2 6,1 1,2 -2,4 1,5 z m 90,87 h 2 l 5,-7 h 3 l 3,-17 -10,-8 -1,-6 -5,-10 -12,-4 -15,5 -4,7 5,11 v 7 l 5,3 -2,5 5,11 6,1 8,-2 4,4 z m 64,228 2,-1 v -3 l 5,2 h 3 l 1,-2 -2,-4 4,-3 -3,-15 -2,-1 -3,3 1,5 -2,3 -7,-1 1,15 z m 50,-236 2,-2 v -3 h 4 l 1,-2 v -3 l -4,-1 -1,-3 v -4 l 5,-10 -1,-7 -3,-3 -4,-1 -3,1 -2,4 -6,-2 -5,3 v 15 l -2,8 3,5 5,-1 8,5 z m -51,49 2,-2 2,-10 7,1 3,-2 4,-10 -2,-6 2,-3 8,-5 v -9 h -8 l -4,7 -11,-2 -5,5 -7,19 3,15 3,2 z m -60,-166 3,-3 v -10 l 2,-5 -1,-9 -20,-12 -4,1 -3,3 v 11 l 8,7 5,-5 v -5 l 2,2 v 12 l 3,5 1,6 z m 55,322 h 2 l 5,-5 1,-7 3,-4 -1,-3 3,-3 v -2 l -2,-1 h -7 v 5 l -6,3 -2,10 1,7 z m 90,-204 2,-2 -1,-2 -7,-3 -2,-3 h -5 v -3 l -3,-1 -3,2 v 8 l 7,3 h 7 z m -182,-177 4,-1 4,-5 v -7 h -6 l -3,5 v 7 z m -97,18 2,-2 v -4 l -5,-5 -4,-1 -2,2 1,5 3,-1 1,4 2,1 z m 111,164 -1,1 2,1 z m -101,-149 3,-1 v -4 l 5,-3 v -2 l -6,1 -2,3 -3,1 -1,4 z m -17,339 1,-2 z m 208,-16 1,-2 -3,-2 v 3 z m -96,-90 2,-3 h -2 l -1,2 z m 224,-467 3,-1 v -2 h -2 l -1,-3 -2,2 v 3 z m -84,395 -2,-2 -1,1 4,3 z m -190,-158 h 3 l 2,-4 -7,-6 -3,1 3,9 z m 203,129 4,-2 v -4 l -5,-5 h -2 l -1,3 2,3 -1,4 z m -107,-8 4,-1 1,-3 -3,-6 -4,1 -2,5 2,3 z m 102,25 1,-2 -2,-1 -3,2 z m -167,78 2,-1 -2,-3 -2,1 1,2 z m 25,3 h 3 l -2,-4 h -2 l -2,3 z m -19,-278 1,-2 -2,-3 -2,1 1,2 z m 3,16 v -4 l -2,1 1,3 z m -56,43 3,-1 v -3 l -5,-3 -2,2 3,4 z m 205,70 1,-1 h -2 z m -224,-95 2,-3 -1,-3 -4,-2 -2,1 4,7 z m 300,49 2,-4 -1,-4 -3,-1 -2,1 2,7 z m -307,0 h 2 v -6 h -2 l -2,3 1,2 z m 238,117 2,-1 -4,-3 1,4 z m -120,9 1,-3 h -2 v 2 z m -6,-138 v -4 h -4 v 3 z m 6,9 -1,1 h 2 z m 140,78 2,-1 h -4 z m -177,204 5,-3 v -5 l -2,-4 -4,-1 -5,4 -1,5 4,3 z m 95,64 2,-3 -4,-4 -3,1 1,5 z m 160,-572 2,-2 -2,-2 -1,3 z m -45,107 2,-1 -1,-3 h -3 v 3 z m -297,37 1,-2 -3,-1 -1,2 z m 248,142 2,-1 -1,-4 -3,1 -1,3 z m -8,60 1,-3 h -2 z m -140,45 1,-4 -2,-2 -1,4 z m -22,25 v -5 h -2 v 3 z m 163,115 1,-2 -2,-1 -1,3 z m 9,6 1,-3 -4,-3 -1,2 3,3 z m 91,-532 h 2 l -1,-2 -1,1 z m -45,98 2,-2 -1,-4 h -3 l -1,5 z m -302,53 1,-2 -3,-1 v 2 z m 49,20 1,-2 -2,-1 z m -26,13 1,-1 -2,-3 -2,1 v 2 z m 33,13 v -3 h -3 v 3 z m 127,341 1,-1 -2,-1 v 2 z m 19,-250 h 2 l -1,-3 -2,3 z"
     id="西贡区" />
  <path
     stroke="#ffff00"
     stroke-opacity="1"
     stroke-width="0.5"
     stroke-linecap="round"
     stroke-linejoin="round"
     stroke-dasharray="none"
     fill="#1e90ff"
     fill-opacity="1"
     fill-rule="evenodd"
     d="m 838.99999,194.99998 -22,17 -11,23 -7,2 -27,1 -3,5 -29,2 -2,2 v 3 l -5,1 -3,5 -12,1 -3,16 6,23 v 34 l -4,3 -19,2 -2,2 -3,12 -18,18 -5,3 -21,5 1,7 -6,13 v 9 l 6,22 -2,8 -7,9 v 8 l 4,20 11,11 2,-3 15,-6 h 27 l 18,-3 11,1 10,-6 h 12 l 19,-8 29,-5 3,-5 -2,-4 3,-2 11,4 7,-6 9,3 h 15 l 26,-4 h 11 l -2,-10 4,-8 h 13 l 12,-5 18,-13 14,-13 2,-3 2,-7 v -8 l 2,-3 24,-4 2,-2 -3,-14 1,-21 -6,-8 1,-16 -10,-17 -1,-6 3,-42 -5,-9 v -4 l 6,-15 v -25 l -3,1 -9,-3 -12,-1 -14,1 -6,5 1,7 -4,8 -4,3 -7,2 -34,3 -12,-3 -6,-5 z"
     id="沙田区" />
  <path
     stroke="#ffff00"
     stroke-opacity="1"
     stroke-width="0.5"
     stroke-linecap="round"
     stroke-linejoin="round"
     stroke-dasharray="none"
     fill="#1e90ff"
     fill-opacity="1"
     fill-rule="evenodd"
     d="m 454.99999,516.99998 7,2 14,10 12,13 4,2 32,-3 36,1 6,2 6,5 12,20 6,7 30,14 13,9 6,9 1,8 -2,8 -5,8 31,-1 v -58 l -56,2 -4,-1 -1,-12 -6,-8 3,-6 39,-23 2,-3 -3,-4 -26,-7 -5,-12 2,-5 2,-2 6,1 9,-6 13,2 7,-1 7,4 2,-2 1,-8 -11,-11 -4,-20 v -8 l 7,-9 2,-8 -6,-22 v -9 l 6,-13 -1,-7 -13,3 -3,-4 -1,-10 -7,-1 -6,1 -18,9 -18,6 -1,2 6,8 1,6 -7,14 v 3 l -5,6 -19,10 -9,1 v -21 l -78,5 -28,14 z"
     id="葵青区" />
  <path
     stroke="#ffff00"
     stroke-opacity="1"
     stroke-width="0.5"
     stroke-linecap="round"
     stroke-linejoin="round"
     stroke-dasharray="none"
     fill="#1e90ff"
     fill-opacity="1"
     fill-rule="evenodd"
     d="m 390.99999,569.99998 -218,-9 -89,54 -9,-2 -7,-10 v -7 l 8,-5 31,1 15,-16 5,-23 -2,-10 -12,-6 -45,6 -24,7 -5,-8 -5,-1 -117,41 -4,7 1,4 8,7 -13,28 -1,6 8,16 v 11 l -2,5 -21,25 -2,11 -7,1 -5,4 -14,4 -16,2 -3,4 -6,16 -8,12 -5,-5 -7,-1 -8,2 -4,4 -14,8 -1,5 4,12 h 5 l 11,-4 5,1 1,2 -2,13 -3,4 -23,7 -5,3 -2,5 v 14 l -2,2 -11,1 -8,7 -5,7 -1,16 3,24 2,5 7,8 -4,14 1,7 4,9 6,5 4,6 -6,21 1,5 10,-1 3,-2 h 6 l 5,-2 5,-4 5,-8 11,-7 6,-1 17,3 12,-5 31,-22 4,-8 4,-15 8,-5 16,-2 3,4 2,10 13,15 16,12 22,2 19,-4 25,-1 8,-2 4,-3 3,-7 1,-11 -3,-9 1,-3 22,-5 14,-9 13,-17 4,-2 31,-3 27,-13 h 9 l 7,2 -6,18 v 12 l 7,14 13,16 17,15 11,2 8,-4 15,-12 17,-3 5,-8 16,-8 3,-11 3,-2 8,2 7,-7 3,-9 4,-5 1,-5 -2,-4 -13,-3 -9,-4 -6,-9 -10,2 -6,-1 -7,-8 -7,-2 -2,-2 -2,-7 1,-4 6,-7 31,-14 1,-4 v -4 l -4,-7 -8,-7 -5,-8 -12,-10 -2,-5 -7,-4 -1,-2 3,-10 5,-3 3,1 8,8 10,4 3,4 15,5 13,-2 12,1 2,-4 v -7 l -7,-27 6,-5 -2,-6 1,-18 -5,-2 -1,-6 1,-3 11,-3 6,-4 3,-6 -3,-14 2,-12 7,-8 4,-1 18,1 26,-4 19,-11 5,-7 v -4 z m -72,332 -4,-5 1,-8 3,-4 15,-5 -1,-4 -10,-1 8,-5 2,-4 v -4 l -4,-4 -6,4 -12,1 -8,4 -1,8 3,2 v 3 l -3,2 -1,4 -3,3 -3,-1 -3,2 v 2 l 6,6 9,-1 3,4 1,7 -2,6 -14,2 -5,11 h -6 l -6,3 3,4 v 5 l 4,2 6,-1 1,1 -2,3 1,2 h 3 l 9,-6 3,-5 5,-1 v -3 l 5,-5 h 7 l 1,-3 3,1 7,8 2,-2 1,-5 5,-2 2,-5 4,-2 v -2 l -3,-3 -1,-4 -4,-2 -4,1 -3,3 h -3 z m 310,-21 v -7 l -3,-7 -3,-3 -4,-1 -4,2 -6,8 -7,-3 -6,-8 3,-5 -2,-2 -1,-6 -13,-9 -2,-3 1,-8 4,-5 2,-7 v -5 l -3,-3 -8,-1 -2,-5 -2,-1 -3,2 -2,5 -26,10 -5,4 -1,6 3,3 8,2 2,2 -6,10 1,2 6,2 v 2 l -10,4 -16,12 -2,3 -1,6 6,21 17,1 3,-3 7,-3 7,-5 2,-5 v -9 l 4,-1 6,4 4,11 v 12 l -2,10 1,5 4,4 -3,37 -5,7 -9,6 -4,6 v 12 l 6,7 14,4 h 7 l 10,5.00002 6,-1 9,-12.00002 3,1 8,11.00002 5,3 5,-1 1,-13.00002 -9,-19 v -5 l 9,6 14,15 11,6 h 7 l 3,-4 -2,-7 -12,-22 -6,-18 2,-4 19,-17 15,2 5,-1 10,-15 -1,-5 -6,-4 -15,1 -2,-4 -3,-2 h -7 l -9,3 -7,6 -13,-2 -11,3 -9,4 -8,6 -1,4 h -3 l -3,-10 21,-16 6,-7 z m -430,88 13,-8 2,-9 -6,-4 -2,3 -3,-2 1,-5 2,-2 -1,-6 -3,-2 v -5 l -6,-2 -3,1 -1,-2 -3,4 -4,2 -1,4 -3,1 -3,7 -1,8 8,7 6,2 6,7 z m -214,35.00002 2,-2 -2,-4.00002 2,-2 2,-1 3,3 V 1001 l 6,-3.00002 -1,-2 h -3 l 2,-2 -4,-4 h -4 l -6,-6 h -4 l -2,3 h -2 l -3,-2 -4,-8 -11,-6 -1,8 -2,3 2,4 -3,9 1,3 5,1 5,-3 1,-3 6,-2 4,1 v 8 l 2,3.00002 4,-4.00002 2,1 V 1003 Z m 981,16 -10,19 2,8 2,1 6,-3 -1,5 h -2 l -1,2 2,4 13,2 1,2 -8,13 1,1 h 7 l 9,-5 5,-8 -1,-6 9,-8 H 1003 l -1,4 4,3 22,-2 1,-3 -4,-14 -4,-7 1,-4 3,-2 1,-3 -7,-14 -9,-5.00002 -4,-7 -7.00001,1 -6,8.00002 -11,3 -9,6 -4,5 z m -1020,51 4,-1 5,-8 15,2 5,-5 6,1 1,-1 -2,-8 -2,-2 h -3 l 1,-9 8,-1 4,-4 -8,-6 -3,2 -7,-3 -5,1 -2,8 4,4 -4,6 h -5 l -1,4 -3,1 -4,-4 -6,1 -9,6 -1,2 2,6 8,5 z m 391,-323.00002 -13,-1 -4,2 -10,-2 -1,6 h -3 l -1,4 5,7 h 11 l 3,2 4,4 2,7 2,1 3,-3 4,1 2,2 -1,5 5,8 1,7 9,6 h 3 l 6,-8 v -4 l 3,-2 v -3 l -6,-10 -3,-2 4,-12 v -6 l -2,-5 -7,-3 -4,-1 -5,2 z m 14,-65 8,-2 14,-8 1,-4 -8,-4 -4,-7 -8,1 -5,5 -2,-4 7,-6 7,-3 2,-3 v -2 l -5,-5 -33,7 -4,6 11,3 4,11 3,1 -2,3 1,6 10,5 z m -416,342.00002 4,-3 4,2 v -7 h -2 l -2,4 -8,1 1,1 z m 1006,-23 4,-3.00002 -1,-6 3,-1 10,4 v 3 l 16,-7 3,-4 2,-11 -4,-12 -3,-2 h -5 l -26,5 -3,2 v 21 l 3,3 -1,6 z m -567,-248.00002 h 3 l 11,-8 3,-7 3,-3 -4,-8 -5,-1 -6,3 h -4 l -10,8 1,6 -2,2 2,4 4,3 z m 691.00001,241 5,-3 v -10 l 2,-4 -1,-8 -6,-7 -4,4 -2,7 -3,-2 -5,4 4,16 5,2 z M 2.99999,1078 l 3,-4 -1,-2 -2,1 -2,5 z m 8,-74 2,-1 v -3.00002 l -7,-4 -1,2 5,6.00002 z m 388,-346.00002 7,-3 v -2 l -7,-3 -4,1 -1,2 2,1 v 3 z m -447,360.00002 2,-1 -3,-4 -3,4 z M 1115,984.99998 l 2,-1 4,-9 v -6 l -2,-1 -6,15 1,1 z m -665.00001,-310 12,-1 v -4 l -2,-2 v -2 l 2,-1 v -6 l -2,-1 -10,3 -5,5 -1,6 3,3 z m -440,333.00002 -1,-3 -2,1 z m -257,-121.00002 4,-1 2,-8 -10,-1 -1,6 4,3 z m 1205,167.00002 -4,3 -1,3 3,1 6,-3 v -2 l -3,-3 z m -340,-193.00002 6,-3 2,-4 -1,-3 -4,-1 -5,3 1,7 z m -633,192.00002 v -4 l -1,3 z m 85,-164.00002 3,-3 -2,-1 -2,2 z m 1040.00001,104 4,-2 v -7 l -6,4 v 4 z m -37,-22 2,-1 -1,-6 -3,3 z M 918.99999,1013 l 2,-1 -2,-2 -2,-1 -1,2 z m -961,5 v -2 l -1,1 z"
     id="离岛区" />
</svg>