<svg xmlns="http://www.w3.org/2000/svg" id="svg1" version="1.1" viewBox="-251 -228 1793 1981">
  <path id="哈尔滨市" fill="#ff6347" fill-opacity="1" fill-rule="evenodd" stroke="#ffffff" stroke-dasharray="none" stroke-linecap="round" stroke-linejoin="round" stroke-opacity="1" stroke-width="0.5" d="m339 1372-2 2-7 1v5h2l-1 6 2 6-2 13 4 3-2 1 2 1 3 7 3-1 5 4 1 6 3-1 9 8 5-1 2 2h3v5h12l1 3h6l3 3 1-3 3-1h4l1 2 4-2v-3l3 1-1-1 2-4 1 3 5-3 2 1 9-9 1 2 3-2 8-2 2 1 4-2 10 5v2l5 5h6v2h4l3 3 1 4 4-2 2 3 2-3 2 2 7-1 1 2h4l-1 2 2 1v8l5 5 1 4 4 3-1 1 4 8h2v5l-2 4-7 1-3 5 1 3-3 6 2 11 6 9-2 7 2 4v7l-2 3 2 1 1 5 5-5 1-4 5 1 6-6 4-1 2 1-2 3 6 2 2-5 15 2 8 3 8 6 5 1 2 4-4 6-7-2-3 3 2 3-2 2 2 5 4 4-3 7 5 3v4l4 3 3 6 6 6v3l-4 6 4 7 2-1 5 5 3-2 2-5v7l2 6-1 6 7 5 4-3 4 1 3 3h5l6-4 7-1 3-3h3l6-5-2-2 1-2-4-2 1-2h3v-6h2l-2-6-4-2 4-3 1-3-2-3h-2l-2-7 2-4 3 3h8l1 2 4-4 3-12 2-3h3l-3-4 5-11 3-1v-2l10-11v-4l3-2 2-6 4-1 4 3 8-3 4 2h5l3 3 8-2 5-6h3l1-5-4-2 3-1 5-8 9-3-2-1 3-4h-2l7-10 2 2 6-2 3-4 4-1 2 2h3l-2-9h-2l-1-4 4-5-2-2v-6l-4-1-1-3 2-3 8 2v-2l3-3h4l2-2-3-2v-3h-3l1-5 4-6 3 1 6-6v-6l-3-1v-3l-2-2-6 3-4-3-1-7-3-2 3-3 14-6v-7l-6-3-4-6 3-11-2-6h-3l-1-7 2-3h5l9 5 5-4 7-1v-9l6-3-2-2v-7h8v-6l4-2 3 3 2-4-1-1h5l1-2 6-3 1-2-2-3 3-3-1-3 2-2 3 2 3-3 5 4 7-5 6 2 3-2-1-5 2-1-2-7 3-3h5l1 3 3 1 3 7h4l2 3 3-2 7-1 2 3 3-2 3 1 4-2-2-10 2-4-1-4 2-1v-4l-2-1 1-3 8-2 4-5 4-2-3-4h-2l-2-6-4-3v-4l-2-3-6-3-5-9-3-2-2-6-1 1-7-3-4-6 6-2h8l4 5 2-2v-3h5l3-3v-5h3l1-6-3-5v-9l6-15-1-1-4 4-4 1-2 4 4 13-6-3-3 1v-2h-4l-1-2 3-2 4-10h-2l-2 3-3-2v3l-6 3-8-12-13 13-8 5-10-1-5-4-1-4-6-5-14-3-5 4-3-2 1-1-3-5-6-1-10 2-3 4h-2l-5 8 1 3-2 5-5-2-3 3-3-1-3-5-8 14-9-5-5-1v-2l-8 3-2 5-6-3-3 3h-8l-1-5 2-5-1-4-3-1v-2l-8 1-3-3-4 1-2-3-11-5-5 1-4 4 1 3-3 3-17-3-7 3 1 6-4 2-2-3-5 3 1 3h-5v-2h-3l-12-6-5-5h-11l-4-6-3 2-1 3-11 5-2-2-12 10h-2l-3-3h-4l-1-13-3-6-5-3h-3l-2-4-11-1-6 5-4-1-7 2-5 6h-4l1 2-10 4v2h-2v3l-5 2-1 2-15 6 1 2-4 2 1 1-3 3 1 3-5 3-3-1-1 3-4-1-3 5-4 2v3l-3 1-3 6v6l-3 7v4l-4 5-7 3-9 9-1 5-4 6-9-2-3 5h-6l-3-2-4 1 2 1-2 1v2l-5-4-2 2 8 13v5l4-2 6 1 2 13 5 4-2 2-1 7 3 4-2 2 1 13h-4l-1-4-3 1 1 7-3 2-2-2h-5l-5 3-3-3-2 4-3 2-8-7-7 1v4l-4 2 2 7-8 1v8l-5 7-6 7-2-2-7 2z"/>
  <path id="齐齐哈尔市" fill="#ff6347" fill-opacity="1" fill-rule="evenodd" stroke="#ffffff" stroke-dasharray="none" stroke-linecap="round" stroke-linejoin="round" stroke-opacity="1" stroke-width="0.5" d="m209 728-5 1v4l-2 1 2 2-2 9-2-1-3 2-2 5 1 6-5 5 2 10-1 6-2 2v5l-3 3-2 8h-2l-4 5 4 4-2 3 1 7 2 2-6 4 2 4-1 10 4 4-1 4 5 7-3 4 3 5-2 2 1 2-2 1-1 5-5 7 3 1v2l-5 5h-2l-2 5-6 2 1-4 2-1v-3l4-1-1-5 2-3-7-1v-8l-3-7 1-1-6-4-1-6-5-6v-5l2-1-2-8 2-3-4-4 2-10-7-6-2 3-21 16-43 47-27 34-29 12-3 3-5 13-11 17-17 8-12 8-12 5-11 12-22 13-6 9-5 18-11 10v4l5 5v5l5 4 5 10-1 1 12 14 4 2 3 4 3-1 8 4h6l2 2 4-1-1 4-9 9v5l3 3v4h6l4-4h2l1 8-1 4-2 1 3 5 1 11 2 4 2-1 7 5 1 6 3 2 6-5 4 2 8-1 2-2 1-7 4-6v-6l2-2 2 2 2-2h5l5 7 4-2 4-13v-5l-6-7-7 1-1-7 6 3 6 6v2l5 2 7-5 4 2 1-2v7l-5 14 4 4h6l2-4v-8h4l-1 5 3 3-1 2-5 2 2 2h5v16l-4 8H45l-14 2-6 3h-6l1 8-7 6-3-1-3-4-11 2 1 2h-2l-1-6-4 1v7l-6 1 1 26 22 35 5-4h4l5 4 7 1 4 4 3-4h4l3 2 6-5 6 5 2-1 1 2 3-1 2-3 23-3 8-7-1-2 2-6-2-5 4-3-2-4 1-2-5-6 2-3-4-3 2-2v-3l-4-2 4-6v-4l-2-1-3-8-4-3v-10l4-4-3-5 7 1 5-2v10l4 2 3-4 6-1 3-4 3-1-2-12 1-1-6-3v-4l-3-1v-3l2-1v-5l8-10 1-4-2-6 10-1 2-6-3-2 6-3 5-8 6-4 19-2 9-8 1-8-3-7v-5l4-7v-4l6-3v4h14v2l6 4 23-15 2-5 6-1 22-11 4 16h12v2h19l2 17h24l119-17 1-4h2l5-10-1-2 4-3-1-3 3-14 2-3h-3l-1-3-1-24h6l-1-13 5-8-2-1-2-7 5-11 3-2-2-21-2 1-1-3h2l-1-4 3-2-1-3 5-1 2-2-7-5-5-12h-7l-12 5h-9l-1 3-4-1v-12l-2-1-2-5-6-2-6 2-5-3-14 1-6-5-3 1-4-3v-4l-13-3-3-7-4-19h2l-1-13h-8l-2-2-2 1 1-9 7 4 2-4 4 2 3-3v-2h3l1-3h3l-2-6 10-8h5l2-5-6-9-5-2-9-9-2-5-3-1-3 9h-4l-5 4h-3l-7-10h-2l-1-7-14 6-2 5-4 1v6l-2 3-5-2-13 13h-8v3l-5-5-10 2-5-5-3 3-3-2-1-8-6-5 3-2v-13l-3 1-9-2-7-2-4-3v-2h-5z"/>
  <path id="鸡西市" fill="#ff6347" fill-opacity="1" fill-rule="evenodd" stroke="#ffffff" stroke-dasharray="none" stroke-linecap="round" stroke-linejoin="round" stroke-opacity="1" stroke-width="0.5" d="m1115 1303-8 2-1-4-4 2-1-3-5 2h-2l-2-3-1 2h-4l-2 7-4-1-3 3v5l-6 5 3 16-10 1-6 3-2 4 4 2-7 10-1 4-3-2v-4l-8 2-3-4-2 3-4-4-6 2-1-2-7-1-3-7-9 4-1 8-7 2-3-4-2 3-5-2-1 2h-3l-4 11 1 5-2 4h-3l-4 5h-3l1 4-2 4-13 9-2 5h-2l-2 4h-2l-2 7 2 4-7 14 1 3 3 1v2l-5 4v2l-4 2 2 1 3 9 6 3 2-4 7-4 10 8 4 10 2 2 2-1 3 5 7-1v-3l3-3 5 3h4l1 4 7 6v8l3 2 2 4 3-2 9-1 6-4-2-5 2-3 3 1 4-3 2 3h4v3l7-2 2 2 5-5v-4l3-1 2-3 3 2 4-1 3 3 4 1 4-1 1-2-2-3 6-3 5-6 8-6v-2l7-5v-7l-2 1-3-2 4-10h2l3-4 5 4h5l-2-3 7-12-1-3 8-5h3l2 10 6 2 3 3 111 36 7 5h4v2l5-4h3l5-4 3-6 4-2 1-3h4v-5l-2-4 2-1-4-10v-4l-2 1v-6l2-3v-4l2-2-1-3 4-3-1-12 4-2v-4l5-9 5-1 4-4 1 1 6-5 5-1 2-2 3 1v-8l4-2 3 2 1-3-3-2v-2l5-1-1-6-4-2-3 1 3-6 4-1v-2l-2-1v-5l4 1 1-2-5-3 1-7h3l-1-5h2l3-6 4 2 2 3h2l3-5v-8h7l2-3 2-10 6-10v-2l-7-10v-5l9-3 4-4 3-7 2 2v3h2l4-5-1-3 5-1v-9l2-5h-4l-3-2v-4l9-4 1-2-2-6-4-4h-6l-1-5 3-4-1-6-3 2-5-3h-7l-2 3-9-6-4 3-7-2-5 1-4 4-3-9-7 5-3-3-7-2v-6l-4-2-5 4-6 2-1 10-2 3 2 3-2 4-8 1-4-4-3 3 1 5-5 5 3 3-4 5h-3l-5 5 5 1v6l-8 12v8l-3 4 1 2-7 2v3l-4 3-6-3-1 2-3-1v-2l-6-7h-2l-6 4-2 4 1 2-6 2-3 9h-4l-11 15-5 1-8-8h-10v4l-5 3 2 6-3 2 3 5-1 5-3 5-4-1-1 5-6-2-11 3-7 4h-8l1-2-5-4 1-3-2-3-4 2-4 13-3 1-2-3-2 4h-3l2-2-3-7 2-3-1-4z"/>
  <path id="鹤岗市" fill="#ff6347" fill-opacity="1" fill-rule="evenodd" stroke="#ffffff" stroke-dasharray="none" stroke-linecap="round" stroke-linejoin="round" stroke-opacity="1" stroke-width="0.5" d="m986 839-3 2v2h-5v2l-5 1-1 3-3-2-2 2h-7l-8 3-4-2-2-4-3-2-2 3-3-2-1 3h-4v3h-11l-3 2v5l-3 2 2 1-2 9 3 3-2 3-9-2-7 6h-3l-7-10h-2l-6-6-1-5-10-11h-5v5l-3 5h-5l-2 3 3 5v8l-2 2 1 3-8 6-1 3 2 2-1 13 6 5-6 4h-8v4l2 2-1 4h4l-2 7 2 4 5-1-2 3 2 1v6l2 1 1 7h3l2 4 8 3 5 5-2 7 4 5-2 3v4l-3 2 1 7 4 1-1 2-4-1-3 4v8l4 3-2 3 2 5-2-1-6 4v4l7 7 3 1-2 2v3h-6v3l10 5 1 6 7 2 3 5h5l9 3 2 4v10l4 2 2 4 15 7 7 1 3-1-2-5 1-4 5 1v-4l5-1 11 2 11-6 4-5-1-3 6-1-9-11v-2l-4-2-4-6v-3l8-2 8 2 3 3 11 4 24-5-1 7 2 6-4 2 1 4 11 1 6 4 3-1 1-4 9-1 5 4 13 4 7-7 9-4 2-3 6 2v-2l9 4 11-3 5 2 7-6 6 1 9-2 5 6 5-2h7l3-11 2-2-2-1v-7l11-5 1-2 9-1 8-8 3-1v-3l8-7 2-5 5-1 4-10-1-3 4-2 1-4-2-8 6-2 3-5-23-10-8 5-2 5-4 1-4-1-16 3-8-3-3 1-1 5-3 3-9-3-9 2-15-7-3 1-3 5-5 4h-5l-6-15-11-2-7 3h-21l-7 6-9 2-11-1-6-3-2-4-1-18-9-19-15-14-4-7-6-3-3-9v-6l12-12v-6l3-7 4-1 4-7-4-8z"/>
  <path id="双鸭山市" fill="#ff6347" fill-opacity="1" fill-rule="evenodd" stroke="#ffffff" stroke-dasharray="none" stroke-linecap="round" stroke-linejoin="round" stroke-opacity="1" stroke-width="0.5" d="m1464 1013 1-55h6v-9h-5v-19l-7-1 1 4-2 1v3l-2 2h-3l-2 3-2-1-3 9 2 1 1 3-2 3 1 2-4 4v4l-3 2 1 1-4 5-6 1-4 3-4 8-10-6-2 3 1 6h-7v8l-2-2-8 4-5-4-6 1-5-3-5 3-15-2-7 4-6 16-4 1-14-6-7 11-6 14-7 6v19l-5 5v6l-2 2v3l-2 1v5l-2 2 4 3-1 4h-4l2 3-4 2v2h3v4h-4l3 1h-3l-4 3 2 2-3 2 1 7h-5v3l-6 1-5 3 1 2h-3l-1 4-4-1-2 6-10 2 2 1-2 4-4-1-4 4v-5h-4l-6-3-2-4-9 3-3-2-10 4h-5l-2-7h-8l-6 2 2 10-10-3 1-1-10-5-2 2-4-3 2-1-4-11 4-1 4-5-1-4 3-2-4-2-23-4v-3l-17 1-11 5-1 10 4 1v3h-10v-3h-3v2l-5 5v-4l-25-1v-23l3-12-19 1v8l-25 12-17 2-1-5-2-2-4 4-2-4-9 8-14 2 1 5h3l-2 2 2 2h-3v2l-2 1v4h-4v-2l-10 8-4-3-3 1 1 8-2 2 2 7h5v3l3 2-1 6 3 1-4 10 3 5 2-2h5l3 4 12-2 4 3 4 9v5l7 4-1 7 6 4v5l3 2h8l2 3 5 2 3-2 2 1 6 7-1 4 7 2 9 9h13l5 5h10l1 3 3-1 8 2 1 5-4 3 1 12 9 4 1 2 7-1 7-4h3l2 2-2 3-1 7 3 4h-3l-4 3-5 8-4 1-2 6 1 9-2 3 3 7-2 2h3l2-4 2 3 3-1 4-13 4-2 2 3-1 3 5 4-1 2h8l18-7 6 2 1-5 4 1 3-5 1-5-3-5 3-2-2-6 5-3v-4h10l8 8 5-1 11-15h4l3-9 6-2-1-2 2-4 6-4h2l6 7v2l3 1 1-2 6 3 4-3v-3l7-2-1-2 3-4v-8l8-12v-6l-5-1 5-5h3l4-5-3-3 5-5-1-5 3-3 4 4 8-1 2-4-2-3 3-8v-5l6-2 5-4 4 2v6l7 2 3 3 7-5 3 9 4-4 5-1 7 2 4-3 9 6 2-3h7l5 3 3-2 1 4 3-3 2-11 3-4 10-7 3-22 2-4-4-9 3-4v-7l2-2 2-8-1-8 5-5 2-10 3-6 7-1 3-2 2-5-3-14-7-8 2-14 12-9v-4l6-8 13-1 5-2z"/>
  <path id="大庆市" fill="#ff6347" fill-opacity="1" fill-rule="evenodd" stroke="#ffffff" stroke-dasharray="none" stroke-linecap="round" stroke-linejoin="round" stroke-opacity="1" stroke-width="0.5" d="m284 1044-2-18h-19v-2h-12l-4-16-22 11-6 1-2 5-23 15-6-4v-2h-14v-4l-6 3v4l-4 7v5l3 7-1 8-9 8-19 2-6 4-5 8-6 3 3 2-2 6-10 1 2 6-1 4-8 10v5l-2 1v3l3 1v4l6 3-1 1 2 12-3 1-3 4-6 1-3 4-4-2v-10l-5 2-7-1 3 5-4 4v10l4 3 3 8 2 1v4l-4 6 4 2v3l-2 2 4 3-2 3 5 6-1 2 2 4-4 3 2 5-2 6 1 2h6l2 5-2 2 3 2 2-6 3-1 1 3-2 3 4 7-3 3 2 8 4-1 1 3-2 3 2 2-2 5 3 4-1 4 3 2 1 4h-5l-2 3 3 2v3l-5 1-1 3 1 5 4 5 7 3 2 8-5 2v2l4 4-7 4v6l5-1 6 6v3l5 3v2l-2 1 3 1v3l-2 2 2 3 5 1 6-3v6l2 2h3l-1 6 4 3 9-1 1 6-2 3 3 8 5 3 5-4 3 1 8 8 5-2-1-4 2-2 5 3h4l4-3 5 2 4-5h2l2 6 5-3 7 2v-10l4-8 3 2 1 5 10 2 4 12 4 1-2 7 6-1 3-4 6 2 12-3 3 3 2-4 4 5h3l8-12-1-5h7l2 3 12-5 3-4 6 2 11-2 2-2-2-6v-6l2-3-4-2v-6l-2-1 2-1v-4l3 2 1-2 3 2 3-4-8-9h-3v-4l7 1-1-2h2v-5l-8 1-3-21-36 5-8-49-9 2-4-2-5 1-1-5-3-1-3-4-6 2v-13l-3-2-4 1 3 4-1 13 4 2 4-1 2 6 9-1-4 8-4 2-2 7-6 5-2-2 3-3-1-2-5 1 2-3-2-3-13 2-7 4-4-3 6-4 1-4-3-11 1-7 7-2-1-4 3-2 9-2 1-14h-6v-2h3v-11l-7-5 7-2 3-8 2-1 2 2 10-1 1 2-7 5h4l1 4h7l3 3 4-5-4-4 4-4-3-3-5 1-6-5 5-4 4 8 4-2-3-4 2-3-3-6 2-2-9-12 4-2 1 2 7-1 1-3-8-7-1-3h-2l-2-4-5-2 7-10v-3l-5-2 10-24 9-9 5 3v-3l-3-3-4-10 2-7 4-5z"/>
  <path id="伊春市" fill="#ff6347" fill-opacity="1" fill-rule="evenodd" stroke="#ffffff" stroke-dasharray="none" stroke-linecap="round" stroke-linejoin="round" stroke-opacity="1" stroke-width="0.5" d="m658 1178 1-1 17 3 3-3-1-3 4-4 5-1 11 5 2 3 4-1 3 3 8-1v2l3 1 1 4-2 5 1 5h8l3-3 6 3 2-5 8-3v2l5 1 9 5 8-14 3 5 3 1 3-3 5 2 2-5-1-3 5-8h2l3-4 10-2 6 1 3 5-1 1 3 2 5-4h4l2-7 6-5v-3l2-2h11l4-4-1-11-1-2h-5l-3-2-5-12-4-4v-4l2-3-5-3v-5l6 2 2-4-4-8 2 1 3-2 9-1 4-4 1-3-3-7 5-1 4-5-1-4 4-2 1-16 3-1 3 3 3-1 3-7 2-1-6-3v-3h6v-3l2-2-3-1-7-7v-4l6-4 2 1-2-5 2-3-4-3v-8l3-4 4 1 1-2-4-1-1-7 3-2v-4l2-3-4-5 2-7-5-5-8-3-2-4h-3l-1-7-2-1v-6l-2-1 2-3-5 1-2-4 2-7h-4l1-4-2-2v-4h8l6-4-6-5 1-13-2-2 1-3 8-6-1-3 2-2v-8l-3-5 2-3h5l3-5v-5h5l10 11 1 5 6 6h2l7 10h3l7-6 9 2 2-3-3-3 2-5v-4l-2-1 3-2v-5l3-2h11v-3h4l1-3 3 2 2-3 3 2 2 4 4 2 8-3h7l2-2 3 2 1-3 5-1v-2h5v-2l3-2-3-4-3-9 1-5 4-6v-3l-4-4-5 1-8 5-3-2-2-19-7-2-2-2v-4l11-29 8-13 1-3-2-3-5-1-10 5h-5l-3-1-2-6-5-3-21 9h-5l-4-7-20-15-5-9-10-3-3-3 2-9-8-3-2-4 1-7-2-2-8-1-4-5 1-9-4-6-7-2-9 4-6-4-2-19-3-6-9-3-4-1-4 2-2 4 1 8-3 3h-5l-2-2-2 1-6-3-7 9-2 10 9 21-2 17h3l2 5 4 2 6 2 9-2 4 3 1 4-2 5 3 5v3l9 3-3 2 3 3-3 1 2 3-1 3 2 1-8 6-4 7-9-2-1 2h-4l-1 2-4-1-4 5 1 4-3 1-7-4v3h-2l-1 3 9 11-5 6 1 5-9 3-3-1-6 7-4 1v3l-4 6 1 3-3 3 1 8-5 6 3 2-7 7 1 9-3 1 1 9-7 1-1 4-5-1-3-7-2-14-4-8-3 1-6-2-15 6-3-1-1 3-4-1-5 3-2 6-4 3-2 4v5l-3 2-4 11 2 6-3 4h-4l-3-2-6 5h-3l-4 3-1 4-5 4 4 1v3h2l-3 4v5l2 3-1 9h9l3 4 8 2 3 4v13l-6-2-2 4 1 3-3 9 1-1 6 4 1 4-4 4v4l-3 3 3 5v6l-6 4 1 3-3 5 1 3 2-1 6 5 1 6 5 1-1 7 5 5 1-2 2 2 6 1 1 10h2l3-3 2-7h2l-1-4 2-2 2 4v6l-7 9 1 11-2 2v3l-17 12v4l-2 1-4-2-3 2-5 5-1 4-5 2-2-1-1 2-9 3h-5l-1-2-6 2-1-2-5-1-3 1-2 3-7-2-16 12-6 2-1-1-1 2h-7v3l7 4-1 3 3 3 6 1 3 6 7 5 6 9 3 2v3l4 3 10 15 3 1 4 7-1 3 8 8 8 1 4 3z"/>
  <path id="佳木斯市" fill="#ff6347" fill-opacity="1" fill-rule="evenodd" stroke="#ffffff" stroke-dasharray="none" stroke-linecap="round" stroke-linejoin="round" stroke-opacity="1" stroke-width="0.5" d="m1464 1013 3-3 6-2 1-8 6-5 4-7 3-1 1-9 12-16 1-4-2-5-12-11v-12l-3-3-6-2-1-7-6-7v-10l10-12v-4l6-7v-20l2-2 3 1 19-13 19-7 9-6 2-8-4-4-5 4-10-2-8 2-5 9-4 3-7 1-8-6-16-1-6-2-12 2-9 5h-21l-9 9-4 1-5-2-9 7-22 5-4 3-7 2-6 13-12-2-3 3-2 8-5 5h-9l-6-2-13 4-8-5-11-2-12 4-5 6-1 6-3 4-14 6-8 13h-7l-6-5h-4l-4 3v5l4 7-9 11-3 7v10l-5 4h-4l-3 5-6 2 2 8-1 4-4 2 1 3-4 10-5 1-2 5-8 7v3l-3 1-8 8-9 1-1 2-11 5v7l2 1-2 2-1 7-4 5-5-1-5 2-5-6-9 2-6-1-7 6-5-2-11 3-9-4v2l-6-2-2 3-9 4-7 7-13-4-5-4-9 1-1 4-3 1-6-4-11-1-1-4 4-2-2-6 1-7-24 5-11-4-3-3-8-2-8 2v3l4 6 4 2v2l9 11-6 1 1 3-4 5-11 6-11-2-5 1v4l-5-1-1 4 2 5-3 1-7-1-15-7-2-4-4-2v-10l-2-4-9-3h-5l-3-5-7-2-1-6-4-2-2 1-3 7-3 1-3-3-3 1-1 16-4 2 1 4-4 5-5 1 3 7-1 3-4 4h-5l-7 3-2-1 4 8-2 4-6-2v5l5 3-2 3v4l4 4 5 12 3 2h5l1 2 1 11-4 4h-11l-2 2v3l-6 5-3 8h6l5 2 6 5 1 4 5 4 10 1 8-5 13-13 8 12 6-3v-3l3 2 2-3h2l-4 10-3 2 1 2h4v2l3-1 6 3-4-13 2-4 4-1 4-4 1 1-6 15v9l3 5-1 6h-3v5l-3 3h-5v3l-2 2-4-5h-8l-6 2 4 6 7 3 1-1 2 6 3 2 5 9 6 3 2 3v4l4 3 2 6h2l9 8h6l2 2h4l3 2 2-1 1 5 5 2 2-1 6 6 2-1 1 3 8 5 5 6h5l1-10 7 1 2-3h6l2-2 7-1 6 3 2-2h11l4-8 10 11 1-4 4-1 3 2 2-5 3-2 4 2 1 15 5-6-1-1 5-2-2-9 1-2 3 1-1-8-3 2 1-4 2 1 4-2 4-16-3-3 1-3-9-9-7-2 1-4-6-7-2-1-3 2-5-2-2-3h-8l-3-2v-5l-6-4 1-7-7-4v-5l-4-9-4-3-12 2-3-4h-5l-2 2-3-5 4-10-3-1 1-6-3-2v-3h-5l-2-7 2-2-1-8 3-1 4 3 10-8v2h4v-4l2-1v-2h3l-2-2 2-2h-3l-1-5 14-2 9-8 2 4 4-4 2 2 1 5 17-2 25-12v-8l19-1-3 12v23l25 1v4l5-5v-2h3v3h10v-3l-4-1 1-10 11-5 17-1v3l23 4 4 2-3 2 1 4-4 5-4 1 4 11-2 1 4 3 2-2 10 5-1 1 10 3-2-10 6-2h8l2 7h5l10-4 3 2 9-3 2 4 6 3h4v5l4-4 4 1 2-4-2-1 10-2 2-6 4 1 1-4h3l-1-2 5-3 6-1v-3h5l-1-7 3-2-2-2 4-3h3l-3-1h4v-4h-3v-2l4-2-2-3h4l1-4-4-3 2-2v-5l2-1v-3l2-2v-6l5-5v-19l7-6 6-14 7-11 14 6 4-1 6-16 7-4 15 2 5-3 5 3 6-1 5 4 8-4 2 2v-8h7l-1-6 2-3 10 6 2-5 6-5 6-2 4-5-1-1 3-2v-4l4-4-1-2 2-3-1-3-2-1 3-9 2 1 2-3h3l2-2v-3l2-1-1-4 7 1v19h5v9h-6v36zm-385 226-2 9 1 1 2-5 4 5v2l-4 3 2 8 3-1v-2l3-3-1-7 8-4-8-2-3 1-4-3z"/>
  <path id="七台河市" fill="#ff6347" fill-opacity="1" fill-rule="evenodd" stroke="#ffffff" stroke-dasharray="none" stroke-linecap="round" stroke-linejoin="round" stroke-opacity="1" stroke-width="0.5" d="m1095 1245-8 4 1 7-3 3v2l-3 1-2-8 4-3v-2l-4-5-2 5-1-1 2-9h-13l-1 3 3 3-4 16-4 2-2-1-1 4 3-2 1 8-3-1-1 2 2 9-5 2 1 1-5 6-1-15-4-2-3 2-2 5-3-2-4 1-1 4-10-11-4 8h-11l-2 2-6-3-7 1-2 2h-6l-2 3-7-1-1 10h-5l-1-3-4-3-5-1-4-7-2 1-6-6-2 1-5-2-1-5-2 1-3-2h-4l-2-2h-6l-6-4-4 2-4 5-8 2-1 3 2 1v4l-2 1 1 4-2 4 2 10 7 4 3 6h-2l-1 4 3 3-2 3 2 3v8l-1 5-3 4 2 6 4-3v8l5-1 2-2 2 5 8 4 2-6 4-4h3l9 12 9-4 2 5 11 2 1-4h3l4-8h2l6 7h3l1-2 5 2 2-3 3 4 7-2 1-8 9-4 3 7 7 1 1 2 6-2 4 4 2-3 3 4 8-2v4l3 2 1-4 7-10-4-2 2-4 6-3 10-1-3-16 6-5v-5l3-3 4 1 2-7h4l1-2 2 3 7-2 1 3 4-2 1 4 8-2 2-6 4-1 5-8 4-3h3l-3-4 1-7 2-3-2-2h-3l-7 4-7 1-1-2-9-4-1-12 4-3-1-5-8-2-3 1z"/>
  <path id="牡丹江市" fill="#ff6347" fill-opacity="1" fill-rule="evenodd" stroke="#ffffff" stroke-dasharray="none" stroke-linecap="round" stroke-linejoin="round" stroke-opacity="1" stroke-width="0.5" d="m660 1569 5-4v-2l10-6 2 4 5 3 1 4 4 3-1 4 3 7-1 5-3 1 3 4v6l-2 5 2 2-3 8 3 8 7 8 6 12 2 10 7 8-2 4 1 6 8-2 4 2 4 6-5 7 5 10-4 4 3 2 2-1 2 3 7 23 5 8 10-2 1 3 7 2 3-3 7-1 2-2 2 1 3-3h2l1 2 8-6v-7l-2-3v-8l2-2-2-3-1-11 6-6 3 1 1 3 3-1v-2l7 2 3-3h2l2-5 4-1 2-4 4-1 4 2 10-2 7 1 5-2 6 2-1-4 5 1v-7l2-2-1-4h2l9-9 1 2 4-4 2 2 2-2 5 2 3 4-2 1 5 8-2 9 2 7h3l2 3 5-2 2-6h3l2-2-1-4 5-5h6l3-2 2-5 4-4 2-7 4-2 2 2v5l-4 12 6 7-2 3 2 7-3 2 3 3 1 10 4 4-4 8 3 9 5 1 2-2h3l1 3 5 2 3-1 3 3 6-1-1 6 6 1v3l7 1 1 3h3l3 4 2-1v2l4 2 2 9 3 3h6l1-4 11-9h3l15 15 5-4 2 1 4-3 1-3 7 1 2-2-1-4-3 1-10-6 1-9h3l2-4-4-2 3-4v-6l-2-2-1-6h2l-2-3 2-2-2-10 6-21-2-12 2-1-1-3 2-5 5-2-25-119-3-2v-5l-2-1-1-6-3 1-3-2-3-6-3 1-1-7-2-4-3-2v-8l-7-6-1-4h-4l-5-3-3 3v3l-7 1-3-5-2 1-2-2-4-10-5-3v-2l-5-3-7 4-2 4-6-3-3-9-2-1 4-2v-2l5-4v-2l-3-1-1-3 7-14-2-4 2-7h2l2-4h2l2-5 13-9 2-4-1-4h3l4-5h3l2-4-1-5 4-11-6-7h-2l-4 8h-3l-1 4h-4l-7-2-2-5-9 4-9-12h-3l-4 4-2 6-8-4-2-5-2 2-5 1v-8l-4 3-2-4 4-11v-8l-2-3 2-3-3-3 1-4h2l-3-6-7-4-4 2-3-1-3 2-2-3-7 1-3 2-2-3h-4l-3-7-3-1-1-3h-5l-3 3 2 7-2 1 1 5-3 2-6-2-7 5-5-4-3 3-3-2-2 2 1 3-3 3 2 3-1 2-6 3-1 2h-5l1 1-2 4-3-3-4 2v6h-8v7l2 2-6 3v9l-7 1-5 4-9-5h-5l-2 3 1 7h3l2 6-3 11 4 6 6 3v7l-14 6-3 3 3 2 1 7 4 3 6-3 2 2v3l3 1v6l-6 6-3-1-4 6-1 5h3v3l3 2-2 2h-4l-3 3v2l-8-2-2 3 1 3 4 1v6l2 2-4 5 1 4h2l2 9h-3l-2-2-4 1-3 4-6 2-2-2-7 10h2l-3 4 2 1-9 3-5 8-3 1 4 2-1 5h-3l-5 6-8 2-3-3h-5l-4-2-8 3-4-3-4 1-2 6-3 2v4l-10 11v2l-3 1-5 11 3 3z"/>
  <path id="黑河市" fill="#ff6347" fill-opacity="1" fill-rule="evenodd" stroke="#ffffff" stroke-dasharray="none" stroke-linecap="round" stroke-linejoin="round" stroke-opacity="1" stroke-width="0.5" d="m372 329 2 3h-5v7l-3-1 1-4-2-1-3 6 2 1-2 3-4-1 2 5-6 3 2 3-5 3-2-1v8l-5-4-3 1-2 5 2-1 3 2-2 3 5 4v3l-5 3 3 3-2 3 3 4-1 5 3 8-6 7-2-1 1 3-3 2-2-3-2 1-2 4-3 2h2l-6 3-3 6-5-2-4 3 3 6-1 2-5-4-3 2 2 1 1 5-2 2 3 2-3 2 1 4-3 1 2 2-4 1-1 3h-2v6l-3 1 3 6h-4l2 3-1 2-8 3v4l-1-1-4 3 4 5h-5l-1 3-3-4-3 3 1 3-4 2 4 2-2 2 9 5-3 2-4-2-3 2-1 2 5 1v4l-2 3-5 2-1 6-3-1-3 2 5 6-2 3 3 2 2 4-3 3 2 3-2 2-6 1 6 8v7l-3 4 3 2v11l-5 7 1-3-4-4h-4l-1 3 4 8 2-3 5 7 3 1v3l-2 1 2 2v4h-3l2 7h2l-2 3 6 7-2 4v8l2 1v5l-2 1 1 7-6 8 3 5-2 2v11l-5 1-3 5v3l-4 1-1 3-11-5v-5l-7 3-10-5-6 4-3 9-4 2 3 7-2 3 1 2-2 5-5 8-2 11 11-1v2l4 3 16 4 3-1v13l-3 2 6 5 1 8 3 2 3-3 5 5 10-2 5 5v-3h8l13-13 5 2 2-3v-6l4-1 2-5 14-6 1 7h2l7 10h3l5-4h4l3-9 3 1 2 5 9 9 5 2 6 9-2 5h-5l-10 8 2 6h-3l-1 3h-3v2l-3 3-4-2-2 4-7-4-1 9 2-1 2 2h8l1 13h-2l4 19 3 7 13 3v4l4 3 3-1 6 5 14-1 5 3 6-2 6 2 2 5 2 1v12l4 1 1-3h9l12-5h7l5 12 7 5-2 2-5 1 1 3-3 2 1 4h-2l1 3 2-1 2 21-3 2-5 11 2 7 2 1-5 8 1 13h-6l1 24 1 3h3l3-5v-5l9-7 4-1 4-4-1-2 6-4 5 1 1-3h5l1 2 11 4 6-2 9-8h5l4-3 2 1 2-3 12 3 5-1v-2l16 1 14-8h8l7-2h4v4l4 8 2-4 7-5v-4h3l2-4v-6l2-3 4-2v-4h2l3-3v-5l-2-3 2-2-2-4h-2l3-6 13-7 3 4h7l4 3 3-5 2 2 5-4 1-4 4-3h3l6-5 3 2h4l3-4-2-6 4-11 3-2v-5l2-4 4-3 2-6 5-3 4 1 1-3 3 1 15-6 6 2 3-1 4 8 2 14 3 7 5 1 1-4 7-1-1-9 3-1-1-9 7-7-3-2 5-6-1-8 3-3-1-3 4-6v-3l4-1 6-7 3 1 9-3-1-5 5-6-9-11 1-3h2v-3l7 4 3-1-1-4 4-5 4 1 1-2h4l1-2 9 2 4-7 8-6-2-1 1-3-2-3 3-1-3-3 3-2-9-3v-3l-3-5 2-5-1-4-4-3-9 2-6-2-4-2-2-5h-3l2-17-9-21 4-14 5-5 6 3 2-1-5-6h-6l-5 2-4 6h-8l-4-5-5-15-9-1-6-5-4-1-10 4-4-2v-6l7-9-1-4-3-2-5-1-2 5-2 1-9-3-3-3-11-2-8 3-12 1-2 6-3 2h-2l-4-4h-6l-4 4-4 1-6-2h-7l-11-8-6-1-4 3h-3l-11-3-5-8-9-6-3-6-1-14-2-3-12-2-4-7 2-20-7-14 1-12 11-16 3-9v-10l-1-2-27-9-3-2-5-9 5-13-1-7-1-2-6-1-2-2 4-13 5-4 1-7-4-9-6-8 2-17-9-6-12-27-14-14h-2l-3 11-3-1-13 3-24 2-2-2-4 3h-21l-4-6h-3l-6-7-8-6h-5l-4-2-8 7-6-1v6l-4 5-9-1z"/>
  <path id="绥化市" fill="#ff6347" fill-opacity="1" fill-rule="evenodd" stroke="#ffffff" stroke-dasharray="none" stroke-linecap="round" stroke-linejoin="round" stroke-opacity="1" stroke-width="0.5" d="m339 1372 2 4 7-2 2 2 11-14v-8l8-1-2-7 4-2v-4l2-1h5l8 7 3-2 2-4 3 3 5-3h5l2 2 3-2-1-7 3-1 1 4h4l-1-13 2-2-3-4 1-7 2-2-5-4-2-13-6-1-4 2v-5l-8-13 2-2 5 4v-2l2-1-2-1 4-1 3 2h6l3-5 9 2 4-6 1-5 9-9 7-3 4-5v-4l3-7v-6l3-6 3-1v-3l4-2 3-5 4 1 1-3 3 1 5-3-1-3 3-3-1-1 4-2-1-2 15-6 1-2 5-2v-3h2v-2l10-4-1-2h4l5-6 7-2 4 1 6-5 11 1 2 4h3l5 3 3 6v11l1 2h4l3 3h2l12-10 2 2 11-5 1-3 3-2 4 6h11l5 5 12 6h3v2h5l-1-3 5-3 2 3 4-2-1-6 6-2-16-4-8-8 1-3-4-7-3-1-23-32-7-5-3-6-6-1-3-3 1-3-7-4v-3h7l1-2 1 1 6-2 16-12 7 2 2-3 3-1 5 1 1 2 6-2 1 2h5l9-3 1-2 2 1 5-2 1-4 5-5 3-2 4 2 2-1v-4l7-6 6-2 4-4v-3l2-2-1-11 7-9v-6l-2-4-2 2 1 4h-2l-2 7-3 3h-2l-1-10-6-1-2-2-1 2-5-5 1-7-5-1-1-6-6-5-2 1-1-3 3-5-1-3 6-4v-6l-3-5 3-3v-4l4-4-1-4-6-4-1 1 3-9-1-3 2-4 6 2 1-5-1-8-3-4-8-2-3-4h-9l1-9-2-3v-5l3-4h-2v-3l-6-3-3 5-4-3h-7l-3-4-13 7-3 6h2l2 4-2 2 2 3v5l-3 3h-2v4l-4 2-2 3v6l-2 4h-3v4l-9 9-4-8v-4h-4l-7 2h-8l-14 8-16-1v2l-5 1-12-3-2 3-2-1-4 3h-5l-9 8-6 2-11-4-1-2h-5l-1 3-5-1-6 4 1 2-4 4-4 1-9 7-1 8-4 5-3 14 1 3-4 3 1 2-5 10h-2l-1 4-79 12-19 1-21 4-24 1v27l-2 1-4 11 4 10 3 3v3l-5-3-9 9-10 24 5 2v3l-7 10 5 2 2 4h2l1 3 8 7-1 3-7 1-1-2-4 2 9 12-2 2 3 6-2 3 3 4-4 2-4-8-5 4 6 5 5-1 3 3-4 4 4 4-4 5-3-3h-7l-1-4h-4l7-5-1-2-10 1-2-2-2 1-3 8-7 2 7 5v11h-3v2h6l-1 14-9 2-3 2 1 4-7 2-1 7 3 11-1 4-6 4 4 3 7-4 13-2 2 3-2 3 5-1 1 2-3 3 2 2 6-5 2-7 4-2 4-8-9 1-2-6-4 1-4-2 1-13-3-4 4-1 3 2v13l6-2 3 4 3 1 1 5 5-1 4 2 9-2 8 49 36-5 3 21 8-1v5h-2l1 2-7-1v4h3l8 9-3 4-3-2-1 2-3-2v4l-2 1 2 1v6l4 2-2 3v6z"/>
  <path id="大兴安岭地区" fill="#ff6347" fill-opacity="1" fill-rule="evenodd" stroke="#ffffff" stroke-dasharray="none" stroke-linecap="round" stroke-linejoin="round" stroke-opacity="1" stroke-width="0.5" d="m503 317-6-10-8-7-3-28 3-10 6-9 1-6-2-2h-3l-8 3v3l4 4v7l-3 1-6-3-3-5v-10l3-3h11v-9l-2-4-10-1-5-4-1-3 3-10 4-5v-3l-19-9-2-5 7-5 1-3-2-8 1-7-2-4h-6l-1-6-5-3-10-23-5-8-6-5 1-7-3-6 1-4 5-3h4v-4l2-2 3-13-20-11-8-1-5-3-1-3 3-4 11-9 4 1v-4l-14-3-1-4 4-6v-7L405 6l-9 2-2-2 3-10-8-10-7-6-4-1-2 6-8-6-2-11 3-4h9l1-7-4-7 9-3v-4l-7-6-5 1-2 6-4 2-2-5-2-1-2-7-9-10v-5l-2-2h-9l-2 4h-4l-6 4-2-8 2-5 8-4v-6l2-3-1-2-8-3-5-7v-5l-4-4h-3l-8 7-3-2v-8l-7-2-14-8h-3l-8-8-8-4-7-1h-13l-9 2-10 6 2 10-1 4h-3l-5-9-6 1-7-2-3-3 2-3-1-4-5-3-15 1-9-1-1-2-7-1-3-6-4-2-4-7-2-9-4-2-8-8-6 1-6 6-5-2-3-4v-3l-3-3h-6l-2-5-13-12-4-2h-9l-6-2-4 1-6-8-6-4-5 1v5l-2 4h-5l3-6-1-4-4-2-3 4 2 7-1 3-4-3-2-6h-8l-14-6-9 6-4 6-6 2-5-2-6 1-14 5-6 4-9 1-28-1-9 2-5-1-5 3h-3l-7-6-4-7-11 8h-13l-7 9h-30l-16 8-7-1-13 9-13 3 2 4 4 2 9 11 3-1 6 5v9l-3 1v3l8 7h3l2 2 3 7-1 3 5 5v3l-2 1-2 7-9 4-7 18-6 5-1 4 2 4-4 6-7 5-4 6h-3l-3 8-4 3-3 5h-2l-2 3-8 2-2 5-6 4-1 3-7 4 1 3 4 2 7-2 6 3 1 4 3 3 7 3 1 5 7 4 3-1 3 6 6-1 3 4h7l5 5-3 6 7 10v5l7 2 9 6h8l6-3 4-10 9-11-1-4 5-1 2-2-2-2 4-3 4-12 4-1 1 5 4 4 13-1 4 13h3l7 9 3-5 2 7 3 4-1 10 11 3 3 3 12-2 3 1 1 3 7-2 3 3v3l-2 1 1 8-5 9-6 3-8 1 2 5-3 9 4 2 1 12 3 5h5l1 12-3 6 2 3 1 9 5 11v3l-3 4 10 24 4 5-3 4 7 8-4 5 3 3v3l-3 4 2 4 4 2v7l6 2 2 3-1 6 6 10 7-2 9 5 3-1 10 5v2l5 3h4l5-4h15l1-3 3-1 10 1 3-2v-2l10-3v-4l2-2 1-5 3-5h2l5 6 4 2 6-2 6 10 5 4 2-2 7-2h10l2-4h13l3-2 3 1 4 5v3l5 3h4l1 4h8l3-6-1-6 2-6h5l1-4 9 1 4 2 5 7h9l7-5 2-7 2-1 11 3 2-2v-4l8-8-2-5-2-1 2-5 7-2 3-4h5l3-5-1-9 2-7 3-6h4v5l6-1 5 3 1-3 5 2 3-1 4 5 4-3 3 3 1 5 19 20 2 5 5 3-2 3 10 14v2l7 5 2 8 6 7 1 3-2 3 9 1 4 3 3 11-1 4h5l3 3v3l2 1 3-4 3 2v4l-2 3 6 3-2 2h3v2l3 1-3 7 2 2-1 4h4v3l-2 1-2 7-1-2-2 3h11l4-5v-6l6 1 8-7 4 2h5l8 6 6 7h3l4 6h21l4-3 2 2 24-2 13-3 3 1 3-11zm-372 84h-8l-1 2 2 4h-8l-1 4-5 2 3 3v12l-2 5-2 2h-4l-3 5-4-2-1-4-5-1-2-8-3-1-3 3 1 8-3 4 3 1-1 6 2 1v3l3 4h2l4 4 1 3-2 8 3 4h4l2 5h3l3-5h3l1-2 7 4 6-4v-4l7 3 1-2 3 4 5-3h7v8l5 2 5-4-2-4 1-6 2-2-3-4 4-6-4-1v-3l2-6h4l6-5-3-13 3-2 1-3-2-8 1-5-1-2h-7l-2 2-6 1-6-5h-11z"/>
</svg>
