<?xml version="1.0" encoding="UTF-8" standalone="no"?>
<svg
   width="1793"
   height="1981"
   viewBox="-251 -228 1793 1981"
   version="1.1"
   id="svg1"
   xmlns="http://www.w3.org/2000/svg"
   xmlns:svg="http://www.w3.org/2000/svg">
  <defs
     id="defs1" />
  <path
     stroke="#ffff00"
     stroke-opacity="1"
     stroke-width="0.5"
     stroke-linecap="round"
     stroke-linejoin="round"
     stroke-dasharray="none"
     fill="#1e90ff"
     fill-opacity="1"
     fill-rule="evenodd"
     d="m 338.99998,1372 -2,2 -7,1 v 5 h 2 l -1,6 2,6 -2,13 4,3 -2,1 2,1 3,7 3,-1 5,4 1,6 3,-1 9,8 5,-1 2,2 h 3 v 5 h 12 l 1,3 h 6 l 3,3 1,-3 3,-1 h 4 l 1,2 4,-2 v -3 l 3,1 -1,-1 2,-4 1,3 5,-3 2,1 9,-9 1,2 3,-2 8,-2 2,1 4,-2 10,5 v 2 l 5,5 h 6 v 2 h 4 l 3,3 1,4 4,-2 2,3 2,-3 2,2 7,-1 1,2 h 4 l -1,2 2,1 v 8 l 5,5 1,4 4,3 -1,1 4,8 h 2 v 5 l -2,4 -7,1 -3,5 1,3 -3,6 2,11 6,9 -2,7 2,4 v 7 l -2,3 2,1 1,5 5,-5 1,-4 5,1 6,-6 4,-1 2,1 -2,3 6,2 2,-5 15,2 8,3 8,6 5,1 2,4 -4,6 -7,-2 -3,3 2,3 -2,2 2,5 4,4 -3,7 5,3 v 4 l 4,3 3,6 6,6 v 3 l -4,6 4,7 2,-1 5,5 3,-2 2,-5 v 7 l 2,6 -1,6 7,5 4,-3 4,1 3,3 h 5 l 6,-4 7,-1 3,-3 h 3 l 6,-5 -2,-2 1,-2 -4,-2 1,-2 h 3 v -6 h 2 l -2,-6 -4,-2 4,-3 1,-3 -2,-3 h -2 l -2,-7 2,-4 3,3 h 8 l 1,2 4,-4 3,-12 2,-3 h 3 l -3,-4 5,-11 3,-1 v -2 l 10,-11 v -4 l 3,-2 2,-6 4,-1 4,3 8,-3 4,2 h 5 l 3,3 8,-2 5,-6 h 3 l 1,-5 -4,-2 3,-1 5,-8 9,-3 -2,-1 3,-4 h -2 l 7,-10 2,2 6,-2 3,-4 4,-1 2,2 h 3 l -2,-9 h -2 l -1,-4 4,-5 -2,-2 v -6 l -4,-1 -1,-3 2,-3 8,2 v -2 l 3,-3 h 4 l 2,-2 -3,-2 v -3 h -3 l 1,-5 4,-6 3,1 6,-6 v -6 l -3,-1 v -3 l -2,-2 -6,3 -4,-3 -1,-7 -3,-2 3,-3 14,-6 v -7 l -6,-3 -4,-6 3,-11 -2,-6 h -3 l -1,-7 2,-3 h 5 l 9,5 5,-4 7,-1 v -9 l 6,-3 -2,-2 v -7 h 8 v -6 l 4,-2 3,3 2,-4 -1,-1 h 5 l 1,-2 6,-3 1,-2 -2,-3 3,-3 -1,-3 2,-2 3,2 3,-3 5,4 7,-5 6,2 3,-2 -1,-5 2,-1 -2,-7 3,-3 h 5 l 1,3 3,1 3,7 h 4 l 2,3 3,-2 7,-1 2,3 3,-2 3,1 4,-2 -2,-10 2,-4 -1,-4 2,-1 v -4 l -2,-1 1,-3 8,-2 4,-5 4,-2 -3,-4 h -2 l -2,-6 -4,-3 v -4 l -2,-3 -6,-3 -5,-9 -3,-2 -2,-6 -1,1 -7,-3 -4,-6 6,-2 h 8 l 4,5 2,-2 v -3 h 5 l 3,-3 v -5 h 3 l 1,-6 -3,-5 v -9 l 6,-15 -1,-1 -4,4 -4,1 -2,4 4,13 -6,-3 -3,1 v -2 h -4 l -1,-2 3,-2 4,-10 h -2 l -2,3 -3,-2 v 3 l -6,3 -8,-12 -13,13 -8,5 -10,-1 -5,-4 -1,-4 -6,-5 -14,-3 -5,4 -3,-2 1,-1 -3,-5 -6,-1 -10,2 -3,4 h -2 l -5,8 1,3 -2,5 -5,-2 -3,3 -3,-1 -3,-5 -8,14 -9,-5 -5,-1 v -2 l -8,3 -2,5 -6,-3 -3,3 h -8 l -1,-5 2,-5 -1,-4 -3,-1 v -2 l -8,1 -3,-3 -4,1 -2,-3 -11,-5 -5,1 -4,4 1,3 -3,3 -17,-3 -7,3 1,6 -4,2 -2,-3 -5,3 1,3 h -5 v -2 h -3 l -12,-6 -5,-5 h -11 l -4,-6 -3,2 -1,3 -11,5 -2,-2 -12,10 h -2 l -3,-3 h -4 l -1,-13 -3,-6 -5,-3 h -3 l -2,-4 -11,-1 -6,5 -4,-1 -7,2 -5,6 h -4 l 1,2 -10,4 v 2 h -2 v 3 l -5,2 -1,2 -15,6 1,2 -4,2 1,1 -3,3 1,3 -5,3 -3,-1 -1,3 -4,-1 -3,5 -4,2 v 3 l -3,1 -3,6 v 6 l -3,7 v 4 l -4,5 -7,3 -9,9 -1,5 -4,6 -9,-2 -3,5 h -6 l -3,-2 -4,1 2,1 -2,1 v 2 l -5,-4 -2,2 8,13 v 5 l 4,-2 6,1 2,13 5,4 -2,2 -1,7 3,4 -2,2 1,13 h -4 l -1,-4 -3,1 1,7 -3,2 -2,-2 h -5 l -5,3 -3,-3 -2,4 -3,2 -8,-7 -7,1 v 4 l -4,2 2,7 -8,1 v 8 l -5,7 -6,7 -2,-2 -7,2 z"
     id="哈尔滨市" />
  <path
     stroke="#ffff00"
     stroke-opacity="1"
     stroke-width="0.5"
     stroke-linecap="round"
     stroke-linejoin="round"
     stroke-dasharray="none"
     fill="#1e90ff"
     fill-opacity="1"
     fill-rule="evenodd"
     d="m 208.99998,727.99999 -5,1 v 4 l -2,1 2,2 -2,9 -2,-1 -3,2 -2,5 1,6 -5,5 2,10 -1,6 -2,2 v 5 l -3,3 -2,8 h -2 l -4,5 4,4 -2,3 1,7 2,2 -6,4 2,4 -1,10 4,4 -1,4 5,7 -3,4 3,5 -2,2 1,2 -2,1 -1,5 -5,7 3,1 v 2 l -5,5 h -2 l -2,5 -6,2 1,-4 2,-1 v -3 l 4,-1 -1,-5 2,-3 -7,-1 v -8 l -3,-7 1,-1 -6,-4 -1,-6 -5,-6 v -5 l 2,-1 -2,-8 2,-3 -4,-4 2,-10 -7,-6 -2,3 -21,16 -43,47 -27,34 -29,12 -3,3 -5,13 -11,17 -17,8 -12,8 -12,5 -11,12 -22,13 -6,9.00001 -5,18 -11,10 v 4 l 5,5 v 5 l 5,4 5,10 -1,1 12,14 4,2 3,4 3,-1 8,4 h 6 l 2,2 4,-1 -1,4 -9,9 v 5 l 3,3 v 4 h 6 l 4,-4 h 2 l 1,8 -1,4 -2,1 3,5 1,11 2,4 2,-1 7,5 1,6 3,2 6,-5 4,2 8,-1 2,-2 1,-7 4,-6 v -6 l 2,-2 2,2 2,-2 h 5 l 5,7 4,-2 4,-13 v -5 l -6,-7 -7,1 -1,-7 6,3 6,6 v 2 l 5,2 7,-5 4,2 1,-2 v 7 l -5,14 4,4 h 6 l 2,-4 v -8 h 4 l -1,5 3,3 -1,2 -5,2 2,2 h 5 v 16 l -4,8 h -16 l -14,2 -6,3 h -6 l 1,8 -7,6 -3,-1 -3,-4 -11,2 1,2 h -2 l -1,-6 -4,1 v 7 l -6,1 1,26 22,35 5,-4 h 4 l 5,4 7,1 4,4 3,-4 h 4 l 3,2 6,-5 6,5 2,-1 1,2 3,-1 2,-3 23,-3 8,-7 -1,-2 2,-6 -2,-5 4,-3 -2,-4 1,-2 -5,-6 2,-3 -4,-3 2,-2 v -3 l -4,-2 4,-6 v -4 l -2,-1 -3,-8 -4,-3 v -10 l 4,-4 -3,-5 7,1 5,-2 v 10 l 4,2 3,-4 6,-1 3,-4 3,-1 -2,-12 1,-1 -6,-3 v -4 l -3,-1 v -3 l 2,-1 v -5 l 8,-10 1,-4 -2,-6 10,-1 2,-6 -3,-2 6,-3 5,-8 6,-4 19,-2 9,-8 1,-8 -3,-7 v -5 l 4,-7 v -4 l 6,-3 v 4 h 14 v 2 l 6,4 23,-15 2,-5 6,-1 22,-11 4,16 h 12 v 2 h 19 l 2,17 h 24 l 119,-17 1,-4 h 2 l 5,-10 -1,-2 4,-3 -1,-3 3,-14.00001 2,-3 h -3 l -1,-3 -1,-24 h 6 l -1,-13 5,-8 -2,-1 -2,-7 5,-11 3,-2 -2,-21 -2,1 -1,-3 h 2 l -1,-4 3,-2 -1,-3 5,-1 2,-2 -7,-5 -5,-12 h -7 l -12,5 h -9 l -1,3 -4,-1 v -12 l -2,-1 -2,-5 -6,-2 -6,2 -5,-3 -14,1 -6,-5 -3,1 -4,-3 v -4 l -13,-3 -3,-7 -4,-19 h 2 l -1,-13 h -8 l -2,-2 -2,1 1,-9 7,4 2,-4 4,2 3,-3 v -2 h 3 l 1,-3 h 3 l -2,-6 10,-8 h 5 l 2,-5 -6,-9 -5,-2 -9,-9 -2,-5 -3,-1 -3,9 h -4 l -5,4 h -3 l -7,-10 h -2 l -1,-7 -14,6 -2,5 -4,1 v 6 l -2,3 -5,-2 -13,13 h -8 v 3 l -5,-5 -10,2 -5,-5 -3,3 -3,-2 -1,-8 -6,-5 3,-2 v -13 l -3,1 -9,-2 -7,-2 -4,-3 v -2 h -5 z"
     id="齐齐哈尔市" />
  <path
     stroke="#ffff00"
     stroke-opacity="1"
     stroke-width="0.5"
     stroke-linecap="round"
     stroke-linejoin="round"
     stroke-dasharray="none"
     fill="#1e90ff"
     fill-opacity="1"
     fill-rule="evenodd"
     d="m 1115,1303 -8,2 -1,-4 -4,2 -1,-3 -5,2 h -2 l -2,-3 -1,2 h -4 l -2,7 -4,-1 -3,3 v 5 l -6,5 3,16 -10,1 -6,3 -2,4 4,2 -7,10 -1,4 -3,-2 v -4 l -8,2 -3,-4 -2,3 -4,-4 -6,2 -1,-2 -7,-1 -3,-7 -9,4 -1,8 -7.00002,2 -3,-4 -2,3 -5,-2 -1,2 h -3 l -4,11 1,5 -2,4 h -3 l -4,5 h -3 l 1,4 -2,4 -13,9 -2,5 h -2 l -2,4 h -2 l -2,7 2,4 -7,14 1,3 3,1 v 2 l -5,4 v 2 l -4,2 2,1 3,9 6,3 2,-4 7,-4 10,8 4,10 2,2 2,-1 3,5 7,-1 v -3 l 3,-3 5,3 h 4 l 1,4 7.00002,6 v 8 l 3,2 2,4 3,-2 9,-1 6,-4 -2,-5 2,-3 3,1 4,-3 2,3 h 4 v 3 l 7,-2 2,2 5,-5 v -4 l 3,-1 2,-3 3,2 4,-1 3,3 4,1 4,-1 1,-2 -2,-3 6,-3 5,-6 8,-6 v -2 l 7,-5 v -7 l -2,1 -3,-2 4,-10 h 2 l 3,-4 5,4 h 5 l -2,-3 7,-12 -1,-3 8,-5 h 3 l 2,10 6,2 3,3 111,36 7,5 h 4 v 2 l 5,-4 h 3 l 5,-4 3,-6 4,-2 1,-3 h 4 v -5 l -2,-4 2,-1 -4,-10 v -4 l -2,1 v -6 l 2,-3 v -4 l 2,-2 -1,-3 4,-3 -1,-12 4,-2 v -4 l 5,-9 5,-1 4,-4 1,1 6,-5 5,-1 2,-2 3,1 v -8 l 4,-2 3,2 1,-3 -3,-2 v -2 l 5,-1 -1,-6 -4,-2 -3,1 3,-6 4,-1 v -2 l -2,-1 v -5 l 4,1 1,-2 -5,-3 1,-7 h 3 l -1,-5 h 2 l 3,-6 4,2 2,3 h 2 l 3,-5 v -8 h 7 l 2,-3 2,-10 6,-10 v -2 l -7,-10 v -5 l 9,-3 4,-4 3,-7 2,2 v 3 h 2 l 4,-5 -1,-3 5,-1 v -9 l 2,-5 h -4 l -3,-2 v -4 l 9,-4 1,-2 -2,-6 -4,-4 h -6 l -1,-5 3,-4 -1,-6 -3,2 -5,-3 h -7 l -2,3 -9,-6 -4,3 -7,-2 -5,1 -4,4 -3,-9 -7,5 -3,-3 -7,-2 v -6 l -4,-2 -5,4 -6,2 -1,10 -2,3 2,3 -2,4 -8,1 -4,-4 -3,3 1,5 -5,5 3,3 -4,5 h -3 l -5,5 5,1 v 6 l -8,12 v 8 l -3,4 1,2 -7,2 v 3 l -4,3 -6,-3 -1,2 -3,-1 v -2 l -6,-7 h -2 l -6,4 -2,4 1,2 -6,2 -3,9 h -4 l -11,15 -5,1 -8,-8 h -10 v 4 l -5,3 2,6 -3,2 3,5 -1,5 -3,5 -4,-1 -1,5 -6,-2 -11,3 -7,4 h -8 l 1,-2 -5,-4 1,-3 -2,-3 -4,2 -4,13 -3,1 -2,-3 -2,4 h -3 l 2,-2 -3,-7 2,-3 -1,-4 z"
     id="鸡西市" />
  <path
     stroke="#ffff00"
     stroke-opacity="1"
     stroke-width="0.5"
     stroke-linecap="round"
     stroke-linejoin="round"
     stroke-dasharray="none"
     fill="#1e90ff"
     fill-opacity="1"
     fill-rule="evenodd"
     d="m 985.99998,838.99999 -3,2 v 2 h -5 v 2 l -5,1 -1,3 -3,-2 -2,2 h -7 l -8,3 -4,-2 -2,-4 -3,-2 -2,3 -3,-2 -1,3 h -4 v 3 h -11 l -3,2 v 5 l -3,2 2,1 -2,9 3,3 -2,3 -9,-2 -7,6 h -3 l -7,-10 h -2 l -6,-6 -1,-5 -10,-11 h -5 v 5 l -3,5 h -5 l -2,3 3,5 v 8 l -2,2 1,3 -8,6 -1,3 2,2 -1,13 6,5 -6,4 h -8 v 4 l 2,2 -1,4 h 4 l -2,7 2,4 5,-1 -2,3 2,1 v 6 l 2,1 1,7 h 3 l 2,4 8,3 5,5 -2,7 4,5 -2,3 v 4 l -3,2 1,7 4,1 -1,2 -4,-1 -3,4 V 1004 l 4,3 -2,3 2,5 -2,-1 -6,4 v 4 l 7,7 3,1 -2,2 v 3 h -6 v 3 l 10,5 1,6 7,2 3,5 h 5 l 9,3 2,4 v 10 l 4,2 2,4 15,7 7,1 3,-1 -2,-5 1,-4 5,1 v -4 l 5,-1 11,2 11,-6 4,-5 -1,-3 6,-1 -9,-11 v -2 l -4,-2 -4,-6 v -3 l 8,-2 8,2 3,3 11,4 24.00002,-5 -1,7 2,6 -4,2 1,4 11,1 6,4 3,-1 1,-4 9,-1 5,4 13,4 7,-7 9,-4 2,-3 6,2 v -2 l 9,4 11,-3 5,2 7,-6 6,1 9,-2 5,6 5,-2 h 7 l 3,-11 2,-2 -2,-1 v -7 l 11,-5 1,-2 9,-1 8,-8 3,-1 v -3 l 8,-7 2,-5.00001 5,-1 4,-10 -1,-3 4,-2 1,-4 -2,-8 6,-2 3,-5 -23,-10 -8,5 -2,5 -4,1 -4,-1 -16,3 -8,-3 -3,1 -1,5 -3,3 -9,-3 -9,2 -15,-7 -3,1 -3,5 -5,4 h -5 l -6,-15 -11,-2 -7,3 h -21 l -7,6 -9,2 -11,-1 -6,-3 -2,-4 -1,-18 -9.00002,-19 -15,-14 -4,-7 -6,-3 -3,-9 v -6 l 12,-12 v -6 l 3,-7 4,-1 4,-7 -4,-8 z"
     id="鹤岗市" />
  <path
     stroke="#ffff00"
     stroke-opacity="1"
     stroke-width="0.5"
     stroke-linecap="round"
     stroke-linejoin="round"
     stroke-dasharray="none"
     fill="#1e90ff"
     fill-opacity="1"
     fill-rule="evenodd"
     d="m 1464,1013 1,-55.00001 h 6 v -9 h -5 v -19 l -7,-1 1,4 -2,1 v 3 l -2,2 h -3 l -2,3 -2,-1 -3,9 2,1 1,3 -2,3 1,2 -4,4 v 4 l -3,2 1,1 -4,5 -6,1 -4,3 -4,8 -10,-6 -2,3 1,6 h -7 v 8 l -2,-2 -8,4 -5,-4 -6,1 -5,-3 -5,3 -15,-2 -7,4 -6,16.00001 -4,1 -14,-6 -7,11 -6,14 -7,6 v 19 l -5,5 v 6 l -2,2 v 3 l -2,1 v 5 l -2,2 4,3 -1,4 h -4 l 2,3 -4,2 v 2 h 3 v 4 h -4 l 3,1 h -3 l -4,3 2,2 -3,2 1,7 h -5 v 3 l -6,1 -5,3 1,2 h -3 l -1,4 -4,-1 -2,6 -10,2 2,1 -2,4 -4,-1 -4,4 v -5 h -4 l -6,-3 -2,-4 -9,3 -3,-2 -10,4 h -5 l -2,-7 h -8 l -6,2 2,10 -10,-3 1,-1 -10,-5 -2,2 -4,-3 2,-1 -4,-11 4,-1 4,-5 -1,-4 3,-2 -4,-2 -23,-4 v -3 l -17,1 -11,5 -1,10 4,1 v 3 h -10 v -3 h -3 v 2 l -5,5 v -4 l -25,-1 v -23 l 3,-12 -19,1 v 8 l -25,12 -17,2 -1,-5 -2,-2 -4,4 -2,-4 -9,8 -14.00002,2 1,5 h 3 l -2,2 2,2 h -3 v 2 l -2,1 v 4 h -4 v -2 l -10,8 -4,-3 -3,1 1,8 -2,2 2,7 h 5 v 3 l 3,2 -1,6 3,1 -4,10 3,5 2,-2 h 5 l 3,4 12.00002,-2 4,3 4,9 v 5 l 7,4 -1,7 6,4 v 5 l 3,2 h 8 l 2,3 5,2 3,-2 2,1 6,7 -1,4 7,2 9,9 h 13 l 5,5 h 10 l 1,3 3,-1 8,2 1,5 -4,3 1,12 9,4 1,2 7,-1 7,-4 h 3 l 2,2 -2,3 -1,7 3,4 h -3 l -4,3 -5,8 -4,1 -2,6 1,9 -2,3 3,7 -2,2 h 3 l 2,-4 2,3 3,-1 4,-13 4,-2 2,3 -1,3 5,4 -1,2 h 8 l 18,-7 6,2 1,-5 4,1 3,-5 1,-5 -3,-5 3,-2 -2,-6 5,-3 v -4 h 10 l 8,8 5,-1 11,-15 h 4 l 3,-9 6,-2 -1,-2 2,-4 6,-4 h 2 l 6,7 v 2 l 3,1 1,-2 6,3 4,-3 v -3 l 7,-2 -1,-2 3,-4 v -8 l 8,-12 v -6 l -5,-1 5,-5 h 3 l 4,-5 -3,-3 5,-5 -1,-5 3,-3 4,4 8,-1 2,-4 -2,-3 3,-8 v -5 l 6,-2 5,-4 4,2 v 6 l 7,2 3,3 7,-5 3,9 4,-4 5,-1 7,2 4,-3 9,6 2,-3 h 7 l 5,3 3,-2 1,4 3,-3 2,-11 3,-4 10,-7 3,-22 2,-4 -4,-9 3,-4 v -7 l 2,-2 2,-8 -1,-8 5,-5 2,-10 3,-6 7,-1 3,-2 2,-5 -3,-14 -7,-8 2,-14 12,-9 v -4 l 6,-8 13,-1 5,-2 z"
     id="双鸭山市" />
  <path
     stroke="#ffff00"
     stroke-opacity="1"
     stroke-width="0.5"
     stroke-linecap="round"
     stroke-linejoin="round"
     stroke-dasharray="none"
     fill="#1e90ff"
     fill-opacity="1"
     fill-rule="evenodd"
     d="m 283.99998,1044 -2,-18 h -19 v -2 h -12 l -4,-16 -22,11 -6,1 -2,5 -23,15 -6,-4 v -2 h -14 v -4 l -6,3 v 4 l -4,7 v 5 l 3,7 -1,8 -9,8 -19,2 -6,4 -5,8 -6,3 3,2 -2,6 -10,1 2,6 -1,4 -8,10 v 5 l -2,1 v 3 l 3,1 v 4 l 6,3 -1,1 2,12 -3,1 -3,4 -6,1 -3,4 -4,-2 v -10 l -5,2 -7,-1 3,5 -4,4 v 10 l 4,3 3,8 2,1 v 4 l -4,6 4,2 v 3 l -2,2 4,3 -2,3 5,6 -1,2 2,4 -4,3 2,5 -2,6 1,2 h 6 l 2,5 -2,2 3,2 2,-6 3,-1 1,3 -2,3 4,7 -3,3 2,8 4,-1 1,3 -2,3 2,2 -2,5 3,4 -1,4 3,2 1,4 h -5 l -2,3 3,2 v 3 l -5,1 -1,3 1,5 4,5 7,3 2,8 -5,2 v 2 l 4,4 -7,4 v 6 l 5,-1 6,6 v 3 l 5,3 v 2 l -2,1 3,1 v 3 l -2,2 2,3 5,1 6,-3 v 6 l 2,2 h 3 l -1,6 4,3 9,-1 1,6 -2,3 3,8 5,3 5,-4 3,1 8,8 5,-2 -1,-4 2,-2 5,3 h 4 l 4,-3 5,2 4,-5 h 2 l 2,6 5,-3 7,2 v -10 l 4,-8 3,2 1,5 10,2 4,12 4,1 -2,7 6,-1 3,-4 6,2 12,-3 3,3 2,-4 4,5 h 3 l 8,-12 -1,-5 h 7 l 2,3 12,-5 3,-4 6,2 11,-2 2,-2 -2,-6 v -6 l 2,-3 -4,-2 v -6 l -2,-1 2,-1 v -4 l 3,2 1,-2 3,2 3,-4 -8,-9 h -3 v -4 l 7,1 -1,-2 h 2 v -5 l -8,1 -3,-21 -36,5 -8,-49 -9,2 -4,-2 -5,1 -1,-5 -3,-1 -3,-4 -6,2 v -13 l -3,-2 -4,1 3,4 -1,13 4,2 4,-1 2,6 9,-1 -4,8 -4,2 -2,7 -6,5 -2,-2 3,-3 -1,-2 -5,1 2,-3 -2,-3 -13,2 -7,4 -4,-3 6,-4 1,-4 -3,-11 1,-7 7,-2 -1,-4 3,-2 9,-2 1,-14 h -6 v -2 h 3 v -11 l -7,-5 7,-2 3,-8 2,-1 2,2 10,-1 1,2 -7,5 h 4 l 1,4 h 7 l 3,3 4,-5 -4,-4 4,-4 -3,-3 -5,1 -6,-5 5,-4 4,8 4,-2 -3,-4 2,-3 -3,-6 2,-2 -9,-12 4,-2 1,2 7,-1 1,-3 -8,-7 -1,-3 h -2 l -2,-4 -5,-2 7,-10 v -3 l -5,-2 10,-24 9,-9 5,3 v -3 l -3,-3 -4,-10 2,-7 4,-5 z"
     id="大庆市" />
  <path
     stroke="#ffff00"
     stroke-opacity="1"
     stroke-width="0.5"
     stroke-linecap="round"
     stroke-linejoin="round"
     stroke-dasharray="none"
     fill="#1e90ff"
     fill-opacity="1"
     fill-rule="evenodd"
     d="m 657.99998,1178 1,-1 17,3 3,-3 -1,-3 4,-4 5,-1 11,5 2,3 4,-1 3,3 8,-1 v 2 l 3,1 1,4 -2,5 1,5 h 8 l 3,-3 6,3 2,-5 8,-3 v 2 l 5,1 9,5 8,-14 3,5 3,1 3,-3 5,2 2,-5 -1,-3 5,-8 h 2 l 3,-4 10,-2 6,1 3,5 -1,1 3,2 5,-4 h 4 l 2,-7 6,-5 v -3 l 2,-2 h 11 l 4,-4 -1,-11 -1,-2 h -5 l -3,-2 -5,-12 -4,-4 v -4 l 2,-3 -5,-3 v -5 l 6,2 2,-4 -4,-8 2,1 3,-2 9,-1 4,-4 1,-3 -3,-7 5,-1 4,-5 -1,-4 4,-2 1,-16 3,-1 3,3 3,-1 3,-7 2,-1 -6,-3 v -3 h 6 v -3 l 2,-2 -3,-1 -7,-7 v -4 l 6,-4 2,1 -2,-5 2,-3 -4,-3 v -8.00001 l 3,-4 4,1 1,-2 -4,-1 -1,-7 3,-2 v -4 l 2,-3 -4,-5 2,-7 -5,-5 -8,-3 -2,-4 h -3 l -1,-7 -2,-1 v -6 l -2,-1 2,-3 -5,1 -2,-4 2,-7 h -4 l 1,-4 -2,-2 v -4 h 8 l 6,-4 -6,-5 1,-13 -2,-2 1,-3 8,-6 -1,-3 2,-2 v -8 l -3,-5 2,-3 h 5 l 3,-5 v -5 h 5 l 10,11 1,5 6,6 h 2 l 7,10 h 3 l 7,-6 9,2 2,-3 -3,-3 2,-5 v -4 l -2,-1 3,-2 v -5 l 3,-2 h 11 v -3 h 4 l 1,-3 3,2 2,-3 3,2 2,4 4,2 8,-3 h 7 l 2,-2 3,2 1,-3 5,-1 v -2 h 5 v -2 l 3,-2 -3,-4 -3,-9 1,-5 4,-6 v -3 l -4,-4 -5,1 -8,5 -3,-2 -2,-19 -7,-2 -2,-2 v -4 l 11,-29 8,-13 1,-3 -2,-3 -5,-1 -10,5 h -5 l -3,-1 -2,-6 -5,-3 -21,9 h -5 l -4,-7 -20,-15 -5,-9 -10,-3 -3,-3 2,-9 -8,-3 -2,-4 1,-7 -2,-2 -8,-1 -4,-5 1,-9 -4,-6 -7,-2 -9,4 -6,-4 -2,-19 -3,-6 -9,-3 -4,-1 -4,2 -2,4 1,8 -3,3 h -5 l -2,-2 -2,1 -6,-3 -7,9 -2,10 9,21 -2,17 h 3 l 2,5 4,2 6,2 9,-2 4,3 1,4 -2,5 3,5 v 3 l 9,3 -3,2 3,3 -3,1 2,3 -1,3 2,1 -8,6 -4,7 -9,-2 -1,2 h -4 l -1,2 -4,-1 -4,5 1,4 -3,1 -7,-4 v 3 h -2 l -1,3 9,11 -5,6 1,5 -9,3 -3,-1 -6,7 -4,1 v 3 l -4,6 1,3 -3,3 1,8 -5,6 3,2 -7,7 1,9 -3,1 1,9 -7,1 -1,4 -5,-1 -3,-7 -2,-14 -4,-8 -3,1 -6,-2 -15,6 -3,-1 -1,3 -4,-1 -5,3 -2,6 -4,3 -2,4 v 5 l -3,2 -4,11 2,6 -3,4 h -4 l -3,-2 -6,5 h -3 l -4,3 -1,4 -5,4 4,1 v 3 h 2 l -3,4 v 5 l 2,3 -1,9 h 9 l 3,4 8,2 3,4 v 13 l -6,-2 -2,4 1,3 -3,9 1,-1 6,4 1,4 -4,4 v 4 l -3,3 3,5 v 6 l -6,4 1,3 -3,5 1,3 2,-1 6,5.00001 1,6 5,1 -1,7 5,5 1,-2 2,2 6,1 1,10 h 2 l 3,-3 2,-7 h 2 l -1,-4 2,-2 2,4 v 6 l -7,9 1,11 -2,2 v 3 l -17,12 v 4 l -2,1 -4,-2 -3,2 -5,5 -1,4 -5,2 -2,-1 -1,2 -9,3 h -5 l -1,-2 -6,2 -1,-2 -5,-1 -3,1 -2,3 -7,-2 -16,12 -6,2 -1,-1 -1,2 h -7 v 3 l 7,4 -1,3 3,3 6,1 3,6 7,5 6,9 3,2 v 3 l 4,3 10,15 3,1 4,7 -1,3 8,8 8,1 4,3 z"
     id="伊春市" />
  <path
     stroke="#ffff00"
     stroke-opacity="1"
     stroke-width="0.5"
     stroke-linecap="round"
     stroke-linejoin="round"
     stroke-dasharray="none"
     fill="#1e90ff"
     fill-opacity="1"
     fill-rule="evenodd"
     d="m 1464,1013 3,-3 6,-2 1,-8.00001 6,-5 4,-7 3,-1 1,-9 12,-16 1,-4 -2,-5 -12,-11 v -12 l -3,-3 -6,-2 -1,-7 -6,-7 v -10 l 10,-12 v -4 l 6,-7 v -20 l 2,-2 3,1 19,-13 19,-7 9,-6 2,-8 -4,-4 -5,4 -10,-2 -8,2 -5,9 -4,3 -7,1 -8,-6 -16,-1 -6,-2 -12,2 -9,5 h -21 l -9,9 -4,1 -5,-2 -9,7 -22,5 -4,3 -7,2 -6,13 -12,-2 -3,3 -2,8 -5,5 h -9 l -6,-2 -13,4 -8,-5 -11,-2 -12,4 -5,6 -1,6 -3,4 -14,6 -8,13 h -7 l -6,-5 h -4 l -4,3 v 5 l 4,7 -9,11 -3,7 v 10 l -5,4 h -4 l -3,5 -6,2 2,8 -1,4 -4,2 1,3 -4,10 -5,1 -2,5.00001 -8,7 v 3 l -3,1 -8,8 -9,1 -1,2 -11,5 v 7 l 2,1 -2,2 -1,7 -4,5 -5,-1 -5,2 -5,-6 -9,2 -6,-1 -7,6 -5,-2 -11,3 -9,-4 v 2 l -6,-2 -2,3 -9,4 -7,7 -13,-4 -5,-4 -9,1 -1,4 -3,1 -6,-4 -11,-1 -1,-4 4,-2 -2,-6 1,-7 -24.00002,5 -11,-4 -3,-3 -8,-2 -8,2 v 3 l 4,6 4,2 v 2 l 9,11 -6,1 1,3 -4,5 -11,6 -11,-2 -5,1 v 4 l -5,-1 -1,4 2,5 -3,1 -7,-1 -15,-7 -2,-4 -4,-2 v -10 l -2,-4 -9,-3 h -5 l -3,-5 -7,-2 -1,-6 -4,-2 -2,1 -3,7 -3,1 -3,-3 -3,1 -1,16 -4,2 1,4 -4,5 -5,1 3,7 -1,3 -4,4 h -5 l -7,3 -2,-1 4,8 -2,4 -6,-2 v 5 l 5,3 -2,3 v 4 l 4,4 5,12 3,2 h 5 l 1,2 1,11 -4,4 h -11 l -2,2 v 3 l -6,5 -3,8 h 6 l 5,2 6,5 1,4 5,4 10,1 8,-5 13,-13 8,12 6,-3 v -3 l 3,2 2,-3 h 2 l -4,10 -3,2 1,2 h 4 v 2 l 3,-1 6,3 -4,-13 2,-4 4,-1 4,-4 1,1 -6,15 v 9 l 3,5 -1,6 h -3 v 5 l -3,3 h -5 v 3 l -2,2 -4,-5 h -8 l -6,2 4,6 7,3 1,-1 2,6 3,2 5,9 6,3 2,3 v 4 l 4,3 2,6 h 2 l 9,8 h 6 l 2,2 h 4 l 3,2 2,-1 1,5 5,2 2,-1 6,6 2,-1 1,3 8,5 5,6 h 5 l 1,-10 7,1 2,-3 h 6 l 2,-2 7,-1 6.00002,3 2,-2 h 11 l 4,-8 10,11 1,-4 4,-1 3,2 2,-5 3,-2 4,2 1,15 5,-6 -1,-1 5,-2 -2,-9 1,-2 3,1 -1,-8 -3,2 1,-4 2,1 4,-2 4,-16 -3,-3 1,-3 -9,-9 -7,-2 1,-4 -6,-7 -2,-1 -3,2 -5,-2 -2,-3 h -8 l -3,-2 v -5 l -6,-4 1,-7 -7,-4 v -5 l -4,-9 -4,-3 -12.00002,2 -3,-4 h -5 l -2,2 -3,-5 4,-10 -3,-1 1,-6 -3,-2 v -3 h -5 l -2,-7 2,-2 -1,-8 3,-1 4,3 10,-8 v 2 h 4 v -4 l 2,-1 v -2 h 3 l -2,-2 2,-2 h -3 l -1,-5 14.00002,-2 9,-8 2,4 4,-4 2,2 1,5 17,-2 25,-12 v -8 l 19,-1 -3,12 v 23 l 25,1 v 4 l 5,-5 v -2 h 3 v 3 h 10 v -3 l -4,-1 1,-10 11,-5 17,-1 v 3 l 23,4 4,2 -3,2 1,4 -4,5 -4,1 4,11 -2,1 4,3 2,-2 10,5 -1,1 10,3 -2,-10 6,-2 h 8 l 2,7 h 5 l 10,-4 3,2 9,-3 2,4 6,3 h 4 v 5 l 4,-4 4,1 2,-4 -2,-1 10,-2 2,-6 4,1 1,-4 h 3 l -1,-2 5,-3 6,-1 v -3 h 5 l -1,-7 3,-2 -2,-2 4,-3 h 3 l -3,-1 h 4 v -4 h -3 v -2 l 4,-2 -2,-3 h 4 l 1,-4 -4,-3 2,-2 v -5 l 2,-1 v -3 l 2,-2 v -6 l 5,-5 v -19 l 7,-6 6,-14 7,-11 14,6 4,-1 6,-16.00001 7,-4 15,2 5,-3 5,3 6,-1 5,4 8,-4 2,2 v -8 h 7 l -1,-6 2,-3 10,6 2,-5 6,-5 6,-2 4,-5 -1,-1 3,-2 v -4 l 4,-4 -1,-2 2,-3 -1,-3 -2,-1 3,-9 2,1 2,-3 h 3 l 2,-2 v -3 l 2,-1 -1,-4 7,1 v 19 h 5 v 9 h -6 v 36 z m -385,226 -2,9 1,1 2,-5 4,5 v 2 l -4,3 2,8 3,-1 v -2 l 3,-3 -1,-7 8,-4 -8,-2 -3,1 -4,-3 z"
     id="佳木斯市" />
  <path
     stroke="#ffff00"
     stroke-opacity="1"
     stroke-width="0.5"
     stroke-linecap="round"
     stroke-linejoin="round"
     stroke-dasharray="none"
     fill="#1e90ff"
     fill-opacity="1"
     fill-rule="evenodd"
     d="m 1095,1245 -8,4 1,7 -3,3 v 2 l -3,1 -2,-8 4,-3 v -2 l -4,-5 -2,5 -1,-1 2,-9 h -13 l -1,3 3,3 -4,16 -4,2 -2,-1 -1,4 3,-2 1,8 -3,-1 -1,2 2,9 -5,2 1,1 -5,6 -1,-15 -4,-2 -3,2 -2,5 -3,-2 -4,1 -1,4 -10,-11 -4,8 h -11 l -2,2 -6.00002,-3 -7,1 -2,2 h -6 l -2,3 -7,-1 -1,10 h -5 l -1,-3 -4,-3 -5,-1 -4,-7 -2,1 -6,-6 -2,1 -5,-2 -1,-5 -2,1 -3,-2 h -4 l -2,-2 h -6 l -6,-4 -4,2 -4,5 -8,2 -1,3 2,1 v 4 l -2,1 1,4 -2,4 2,10 7,4 3,6 h -2 l -1,4 3,3 -2,3 2,3 v 8 l -1,5 -3,4 2,6 4,-3 v 8 l 5,-1 2,-2 2,5 8,4 2,-6 4,-4 h 3 l 9,12 9,-4 2,5 11,2 1,-4 h 3 l 4,-8 h 2 l 6,7 h 3 l 1,-2 5,2 2,-3 3,4 7.00002,-2 1,-8 9,-4 3,7 7,1 1,2 6,-2 4,4 2,-3 3,4 8,-2 v 4 l 3,2 1,-4 7,-10 -4,-2 2,-4 6,-3 10,-1 -3,-16 6,-5 v -5 l 3,-3 4,1 2,-7 h 4 l 1,-2 2,3 7,-2 1,3 4,-2 1,4 8,-2 2,-6 4,-1 5,-8 4,-3 h 3 l -3,-4 1,-7 2,-3 -2,-2 h -3 l -7,4 -7,1 -1,-2 -9,-4 -1,-12 4,-3 -1,-5 -8,-2 -3,1 z"
     id="七台河市" />
  <path
     stroke="#ffff00"
     stroke-opacity="1"
     stroke-width="0.5"
     stroke-linecap="round"
     stroke-linejoin="round"
     stroke-dasharray="none"
     fill="#1e90ff"
     fill-opacity="1"
     fill-rule="evenodd"
     d="m 659.99998,1569 5,-4 v -2 l 10,-6 2,4 5,3 1,4 4,3 -1,4 3,7 -1,5 -3,1 3,4 v 6 l -2,5 2,2 -3,8 3,8 7,8 6,12 2,10 7,8 -2,4 1,6 8,-2 4,2 4,6 -5,7 5,10 -4,4 3,2 2,-1 2,3 7,23 5,8 10,-2 1,3 7,2 3,-3 7,-1 2,-2 2,1 3,-3 h 2 l 1,2 8,-6 v -7 l -2,-3 v -8 l 2,-2 -2,-3 -1,-11 6,-6 3,1 1,3 3,-1 v -2 l 7,2 3,-3 h 2 l 2,-5 4,-1 2,-4 4,-1 4,2 10,-2 7,1 5,-2 6,2 -1,-4 5,1 v -7 l 2,-2 -1,-4 h 2 l 9,-9 1,2 4,-4 2,2 2,-2 5,2 3,4 -2,1 5,8 -2,9 2,7 h 3 l 2,3 5,-2 2,-6 h 3 l 2,-2 -1,-4 5,-5 h 6 l 3,-2 2,-5 4,-4 2,-7 4,-2 2,2 v 5 l -4,12 6,7 -2,3 2,7 -3,2 3,3 1,10 4,4 -4,8 3,9 5,1 2,-2 h 3 l 1,3 5,2 3,-1 3,3 6,-1 -1,6 6,1 v 3 l 7,1 1,3 h 3 l 3,4 2,-1 v 2 l 4,2 2,9 3,3 H 1002 l 1,-4 11,-9 h 3 l 15,15 5,-4 2,1 4,-3 1,-3 7,1 2,-2 -1,-4 -3,1 -10,-6 1,-9 h 3 l 2,-4 -4,-2 3,-4 v -6 l -2,-2 -1,-6 h 2 l -2,-3 2,-2 -2,-10 6,-21 -2,-12 2,-1 -1,-3 2,-5 5,-2 -25,-119 -3,-2 v -5 l -2,-1 -1,-6 -3,1 -3,-2 -3,-6 -3,1 -1,-7 -2,-4 -3,-2 v -8 l -7.00002,-6 -1,-4 h -4 l -5,-3 -3,3 v 3 l -7,1 -3,-5 -2,1 -2,-2 -4,-10 -5,-3 v -2 l -5,-3 -7,4 -2,4 -6,-3 -3,-9 -2,-1 4,-2 v -2 l 5,-4 v -2 l -3,-1 -1,-3 7,-14 -2,-4 2,-7 h 2 l 2,-4 h 2 l 2,-5 13,-9 2,-4 -1,-4 h 3 l 4,-5 h 3 l 2,-4 -1,-5 4,-11 -6,-7 h -2 l -4,8 h -3 l -1,4 h -4 l -7,-2 -2,-5 -9,4 -9,-12 h -3 l -4,4 -2,6 -8,-4 -2,-5 -2,2 -5,1 v -8 l -4,3 -2,-4 4,-11 v -8 l -2,-3 2,-3 -3,-3 1,-4 h 2 l -3,-6 -7,-4 -4,2 -3,-1 -3,2 -2,-3 -7,1 -3,2 -2,-3 h -4 l -3,-7 -3,-1 -1,-3 h -5 l -3,3 2,7 -2,1 1,5 -3,2 -6,-2 -7,5 -5,-4 -3,3 -3,-2 -2,2 1,3 -3,3 2,3 -1,2 -6,3 -1,2 h -5 l 1,1 -2,4 -3,-3 -4,2 v 6 h -8 v 7 l 2,2 -6,3 v 9 l -7,1 -5,4 -9,-5 h -5 l -2,3 1,7 h 3 l 2,6 -3,11 4,6 6,3 v 7 l -14,6 -3,3 3,2 1,7 4,3 6,-3 2,2 v 3 l 3,1 v 6 l -6,6 -3,-1 -4,6 -1,5 h 3 v 3 l 3,2 -2,2 h -4 l -3,3 v 2 l -8,-2 -2,3 1,3 4,1 v 6 l 2,2 -4,5 1,4 h 2 l 2,9 h -3 l -2,-2 -4,1 -3,4 -6,2 -2,-2 -7,10 h 2 l -3,4 2,1 -9,3 -5,8 -3,1 4,2 -1,5 h -3 l -5,6 -8,2 -3,-3 h -5 l -4,-2 -8,3 -4,-3 -4,1 -2,6 -3,2 v 4 l -10,11 v 2 l -3,1 -5,11 3,3 z"
     id="牡丹江市" />
  <path
     stroke="#ffff00"
     stroke-opacity="1"
     stroke-width="0.5"
     stroke-linecap="round"
     stroke-linejoin="round"
     stroke-dasharray="none"
     fill="#1e90ff"
     fill-opacity="1"
     fill-rule="evenodd"
     d="m 371.99998,328.99999 2,3 h -5 v 7 l -3,-1 1,-4 -2,-1 -3,6 2,1 -2,3 -4,-1 2,5 -6,3 2,3 -5,3 -2,-1 v 8 l -5,-4 -3,1 -2,5 2,-1 3,2 -2,3 5,4 v 3 l -5,3 3,3 -2,3 3,4 -1,5 3,8 -6,7 -2,-1 1,3 -3,2 -2,-3 -2,1 -2,4 -3,2 h 2 l -6,3 -3,6 -5,-2 -4,3 3,6 -1,2 -5,-4 -3,2 2,1 1,5 -2,2 3,2 -3,2 1,4 -3,1 2,2 -4,1 -1,3 h -2 v 6 l -3,1 3,6 h -4 l 2,3 -1,2 -8,3 v 4 l -1,-1 -4,3 4,5 h -5 l -1,3 -3,-4 -3,3 1,3 -4,2 4,2 -2,2 9,5 -3,2 -4,-2 -3,2 -1,2 5,1 v 4 l -2,3 -5,2 -1,6 -3,-1 -3,2 5,6 -2,3 3,2 2,4 -3,3 2,3 -2,2 -6,1 6,8 v 7 l -3,4 3,2 v 11 l -5,7 1,-3 -4,-4 h -4 l -1,3 4,8 2,-3 5,7 3,1 v 3 l -2,1 2,2 v 4 h -3 l 2,7 h 2 l -2,3 6,7 -2,4 v 8 l 2,1 v 5 l -2,1 1,7 -6,8 3,5 -2,2 v 11 l -5,1 -3,5 v 3 l -4,1 -1,3 -11,-5 v -5 l -7,3 -10,-5 -6,4 -3,9 -4,2 3,7 -2,3 1,2 -2,5 -5,8 -2,11 11,-1 v 2 l 4,3 16,4 3,-1 v 13 l -3,2 6,5 1,8 3,2 3,-3 5,5 10,-2 5,5 v -3 h 8 l 13,-13 5,2 2,-3 v -6 l 4,-1 2,-5 14,-6 1,7 h 2 l 7,10 h 3 l 5,-4 h 4 l 3,-9 3,1 2,5 9,9 5,2 6,9 -2,5 h -5 l -10,8 2,6 h -3 l -1,3 h -3 v 2 l -3,3 -4,-2 -2,4 -7,-4 -1,9 2,-1 2,2 h 8 l 1,13 h -2 l 4,19 3,7 13,3 v 4 l 4,3 3,-1 6,5 14,-1 5,3 6,-2 6,2 2,5 2,1 v 12 l 4,1 1,-3 h 9 l 12,-5 h 7 l 5,12 7,5 -2,2 -5,1 1,3 -3,2 1,4 h -2 l 1,3 2,-1 2,21 -3,2 -5,11 2,7 2,1 -5,8 1,13 h -6 l 1,24 1,3 h 3 l 3,-5 v -5 l 9,-7 4,-1 4,-4 -1,-2 6,-4 5,1 1,-3 h 5 l 1,2 11,4 6,-2 9,-8 h 5 l 4,-3 2,1 2,-3 12,3 5,-1 v -2 l 16,1 14,-8 h 8 l 7,-2 h 4 v 4 l 4,8 2,-4 7,-5 v -4 h 3 l 2,-4 v -6 l 2,-3 4,-2 v -4 h 2 l 3,-3 v -5 l -2,-3 2,-2 -2,-4 h -2 l 3,-6 13,-7 3,4 h 7 l 4,3 3,-5 2,2 5,-4 1,-4 4,-3 h 3 l 6,-5 3,2 h 4 l 3,-4 -2,-6 4,-11 3,-2 v -5 l 2,-4 4,-3 2,-6 5,-3 4,1 1,-3 3,1 15,-6 6,2 3,-1 4,8 2,14 3,7 5,1 1,-4 7,-1 -1,-9 3,-1 -1,-9 7,-7 -3,-2 5,-6 -1,-8 3,-3 -1,-3 4,-6 v -3 l 4,-1 6,-7 3,1 9,-3 -1,-5 5,-6 -9,-11 1,-3 h 2 v -3 l 7,4 3,-1 -1,-4 4,-5 4,1 1,-2 h 4 l 1,-2 9,2 4,-7 8,-6 -2,-1 1,-3 -2,-3 3,-1 -3,-3 3,-2 -9,-3 v -3 l -3,-5 2,-5 -1,-4 -4,-3 -9,2 -6,-2 -4,-2 -2,-5 h -3 l 2,-17 -9,-21 4,-14 5,-5 6,3 2,-1 -5,-6 h -6 l -5,2 -4,6 h -8 l -4,-5 -5,-15 -9,-1 -6,-5 -4,-1 -10,4 -4,-2 v -6 l 7,-9 -1,-4 -3,-2 -5,-1 -2,5 -2,1 -9,-3 -3,-3 -11,-2 -8,3 -12,1 -2,6 -3,2 h -2 l -4,-4 h -6 l -4,4 -4,1 -6,-2 h -7 l -11,-8 -6,-1 -4,3 h -3 l -11,-3 -5,-8 -9,-6 -3,-6 -1,-14 -2,-3 -12,-2 -4,-7 2,-20 -7,-14 1,-12 11,-16 3,-9 v -10 l -1,-2 -27,-9 -3,-2 -5,-9 5,-13 -1,-7 -1,-2 -6,-1 -2,-2 4,-13 5,-4 1,-7 -4,-9 -6,-8 2,-17 -9,-6 -12,-27 -14,-14 h -2 l -3,11 -3,-1 -13,3 -24,2 -2,-2 -4,3 h -21 l -4,-6 h -3 l -6,-7 -8,-6 h -5 l -4,-2 -8,7 -6,-1 v 6 l -4,5 -9,-1 z"
     id="黑河市" />
  <path
     stroke="#ffff00"
     stroke-opacity="1"
     stroke-width="0.5"
     stroke-linecap="round"
     stroke-linejoin="round"
     stroke-dasharray="none"
     fill="#1e90ff"
     fill-opacity="1"
     fill-rule="evenodd"
     d="m 338.99998,1372 2,4 7,-2 2,2 11,-14 v -8 l 8,-1 -2,-7 4,-2 v -4 l 2,-1 h 5 l 8,7 3,-2 2,-4 3,3 5,-3 h 5 l 2,2 3,-2 -1,-7 3,-1 1,4 h 4 l -1,-13 2,-2 -3,-4 1,-7 2,-2 -5,-4 -2,-13 -6,-1 -4,2 v -5 l -8,-13 2,-2 5,4 v -2 l 2,-1 -2,-1 4,-1 3,2 h 6 l 3,-5 9,2 4,-6 1,-5 9,-9 7,-3 4,-5 v -4 l 3,-7 v -6 l 3,-6 3,-1 v -3 l 4,-2 3,-5 4,1 1,-3 3,1 5,-3 -1,-3 3,-3 -1,-1 4,-2 -1,-2 15,-6 1,-2 5,-2 v -3 h 2 v -2 l 10,-4 -1,-2 h 4 l 5,-6 7,-2 4,1 6,-5 11,1 2,4 h 3 l 5,3 3,6 v 11 l 1,2 h 4 l 3,3 h 2 l 12,-10 2,2 11,-5 1,-3 3,-2 4,6 h 11 l 5,5 12,6 h 3 v 2 h 5 l -1,-3 5,-3 2,3 4,-2 -1,-6 6,-2 -16,-4 -8,-8 1,-3 -4,-7 -3,-1 -23,-32 -7,-5 -3,-6 -6,-1 -3,-3 1,-3 -7,-4 v -3 h 7 l 1,-2 1,1 6,-2 16,-12 7,2 2,-3 3,-1 5,1 1,2 6,-2 1,2 h 5 l 9,-3 1,-2 2,1 5,-2 1,-4 5,-5 3,-2 4,2 2,-1 v -4 l 7,-6 6,-2 4,-4 v -3 l 2,-2 -1,-11 7,-9 v -6 l -2,-4 -2,2 1,4 h -2 l -2,7 -3,3 h -2 l -1,-10 -6,-1 -2,-2 -1,2 -5,-5 1,-7 -5,-1 -1,-6 -6,-5.00001 -2,1 -1,-3 3,-5 -1,-3 6,-4 v -6 l -3,-5 3,-3 v -4 l 4,-4 -1,-4 -6,-4 -1,1 3,-9 -1,-3 2,-4 6,2 1,-5 -1,-8 -3,-4 -8,-2 -3,-4 h -9 l 1,-9 -2,-3 v -5 l 3,-4 h -2 v -3 l -6,-3 -3,5 -4,-3 h -7 l -3,-4 -13,7 -3,6 h 2 l 2,4 -2,2 2,3 v 5 l -3,3 h -2 v 4 l -4,2 -2,3 v 6 l -2,4 h -3 v 4 l -9,9 -4,-8 v -4 h -4 l -7,2 h -8 l -14,8 -16,-1 v 2 l -5,1 -12,-3 -2,3 -2,-1 -4,3 h -5 l -9,8 -6,2 -11,-4 -1,-2 h -5 l -1,3 -5,-1 -6,4 1,2 -4,4 -4,1 -9,7 -1,8 -4,5 -3,14.00001 1,3 -4,3 1,2 -5,10 h -2 l -1,4 -79,12 -19,1 -21,4 -24,1 v 27 l -2,1 -4,11 4,10 3,3 v 3 l -5,-3 -9,9 -10,24 5,2 v 3 l -7,10 5,2 2,4 h 2 l 1,3 8,7 -1,3 -7,1 -1,-2 -4,2 9,12 -2,2 3,6 -2,3 3,4 -4,2 -4,-8 -5,4 6,5 5,-1 3,3 -4,4 4,4 -4,5 -3,-3 h -7 l -1,-4 h -4 l 7,-5 -1,-2 -10,1 -2,-2 -2,1 -3,8 -7,2 7,5 v 11 h -3 v 2 h 6 l -1,14 -9,2 -3,2 1,4 -7,2 -1,7 3,11 -1,4 -6,4 4,3 7,-4 13,-2 2,3 -2,3 5,-1 1,2 -3,3 2,2 6,-5 2,-7 4,-2 4,-8 -9,1 -2,-6 -4,1 -4,-2 1,-13 -3,-4 4,-1 3,2 v 13 l 6,-2 3,4 3,1 1,5 5,-1 4,2 9,-2 8,49 36,-5 3,21 8,-1 v 5 h -2 l 1,2 -7,-1 v 4 h 3 l 8,9 -3,4 -3,-2 -1,2 -3,-2 v 4 l -2,1 2,1 v 6 l 4,2 -2,3 v 6 z"
     id="绥化市" />
  <path
     stroke="#ffff00"
     stroke-opacity="1"
     stroke-width="0.5"
     stroke-linecap="round"
     stroke-linejoin="round"
     stroke-dasharray="none"
     fill="#1e90ff"
     fill-opacity="1"
     fill-rule="evenodd"
     d="m 502.99998,316.99999 -6,-10 -8,-7 -3,-28 3,-10 6,-9 1,-6 -2,-2 h -3 l -8,3 v 3 l 4,4 v 7 l -3,1 -6,-3 -3,-5 v -10 l 3,-3 h 11 v -9 l -2,-4 -10,-1 -5,-4 -1,-3 3,-10 4,-5 v -3 l -19,-9 -2,-5 7,-5 1,-3 -2,-8 1,-7 -2,-4 h -6 l -1,-6 -5,-3 -10,-23 -5,-8 -6,-5 1,-7 -3,-6 1,-4 5,-3 h 4 v -4 l 2,-2 3,-13 -20,-11 -8,-1 -5,-3 -1,-3 3,-4 11,-9 4,1 v -4 l -14,-3 -1,-4 4,-6 v -7 l -10,-18 -9,2 -2,-2 3,-10 -8,-10 -7,-6 -4,-1 -2,6 -8,-6 -2,-11 3,-4 h 9 l 1,-7 -4,-7 9,-3 v -4 l -7,-6 -5,1 -2,6 -4,2 -2,-5 -2,-1 -2,-7 -9,-10 v -5 l -2,-2 h -9 l -2,4 h -4 l -6,4 -2,-8 2,-5 8,-4 v -6 l 2,-3 -1,-2 -8,-3 -5,-7 v -5 l -4,-4 h -3 l -8,7 -3,-2 v -8 l -7,-2 -14,-8 h -3 l -8,-8 -8,-4 -7,-1 h -13 l -9,2 -10,6 2,10 -1,4 h -3 l -5,-9 -6,1 -7,-2 -3,-3 2,-3 -1,-4 -5,-3 -15,1 -9,-1 -1,-2 -7,-1 -3,-6 -4,-2 -4,-7 -2,-9 -4,-2 -8,-8 -6,1 -6,6 -5,-2 -3,-4 v -3 l -3,-3 h -6 l -2,-5 -13,-12 -4,-2 h -9 l -6,-2 -4,1 -6,-8 -6,-4 -5,1 v 5 l -2,4 h -5 l 3,-6 -1,-4 -4,-2 -3,4 2,7 -1,3 -4,-3 -2,-6 h -8 l -14,-6 -9,6 -4,6 -6,2 -5,-2 -6,1 -14,5 -6,4 -9,1 -28,-1 -9,2 -5,-1 -5,3 h -3 l -7,-6 -4,-7 -11,8 h -13 l -7,9 h -30 l -16,8 -7,-1 -13,9 -13,3 2,4 4,2 9,11 3,-1 6,5 v 9 l -3,1 v 3 l 8,7 h 3 l 2,2 3,7 -1,3 5,5 v 3 l -2,1 -2,7 -9,4 -7,18 -6,5 -1,4 2,4 -4,6 -7,5 -4,6 h -3 l -3,8 -4,3 -3,5 h -2 l -2,3 -8,2 -2,5 -6,4 -1,3 -7,4 1,3 4,2 7,-2 6,3 1,4 3,3 7,3 1,5 7,4 3,-1 3,6 6,-1 3,4 h 7 l 5,5 -3,6 7,10 v 5 l 7,2 9,6 h 8 l 6,-3 4,-10 9,-11 -1,-4 5,-1 2,-2 -2,-2 4,-3 4,-12 4,-1 1,5 4,4 13,-1 4,13 h 3 l 7,9 3,-5 2,7 3,4 -1,10 11,3 3,3 12,-2 3,1 1,3 7,-2 3,3 v 3 l -2,1 1,8 -5,9 -6,3 -8,1 2,5 -3,9 4,2 1,12 3,5 h 5 l 1,12 -3,6 2,3 1,9 5,11 v 3 l -3,4 10,24 4,5 -3,4 7,8 -4,5 3,3 v 3 l -3,4 2,4 4,2 v 7 l 6,2 2,3 -1,6 6,10 7,-2 9,5 3,-1 10,5 v 2 l 5,3 h 4 l 5,-4 h 15 l 1,-3 3,-1 10,1 3,-2 v -2 l 10,-3 v -4 l 2,-2 1,-5 3,-5 h 2 l 5,6 4,2 6,-2 6,10 5,4 2,-2 7,-2 h 10 l 2,-4 h 13 l 3,-2 3,1 4,5 v 3 l 5,3 h 4 l 1,4 h 8 l 3,-6 -1,-6 2,-6 h 5 l 1,-4 9,1 4,2 5,7 h 9 l 7,-5 2,-7 2,-1 11,3 2,-2 v -4 l 8,-8 -2,-5 -2,-1 2,-5 7,-2 3,-4 h 5 l 3,-5 -1,-9 2,-7 3,-6 h 4 v 5 l 6,-1 5,3 1,-3 5,2 3,-1 4,5 4,-3 3,3 1,5 19,20 2,5 5,3 -2,3 10,14 v 2 l 7,5 2,8 6,7 1,3 -2,3 9,1 4,3 3,11 -1,4 h 5 l 3,3 v 3 l 2,1 3,-4 3,2 v 4 l -2,3 6,3 -2,2 h 3 v 2 l 3,1 -3,7 2,2 -1,4 h 4 v 3 l -2,1 -2,7 -1,-2 -2,3 h 11 l 4,-5 v -6 l 6,1 8,-7 4,2 h 5 l 8,6 6,7 h 3 l 4,6 h 21 l 4,-3 2,2 24,-2 13,-3 3,1 3,-11 z m -372,84 h -8 l -1,2 2,4 h -8 l -1,4 -5,2 3,3 v 12 l -2,5 -2,2 h -4 l -3,5 -4,-2 -1,-4 -5,-1 -2,-8 -3,-1 -3,3 1,8 -3,4 3,1 -1,6 2,1 v 3 l 3,4 h 2 l 4,4 1,3 -2,8 3,4 h 4 l 2,5 h 3 l 3,-5 h 3 l 1,-2 7,4 6,-4 v -4 l 7,3 1,-2 3,4 5,-3 h 7 v 8 l 5,2 5,-4 -2,-4 1,-6 2,-2 -3,-4 4,-6 -4,-1 v -3 l 2,-6 h 4 l 6,-5 -3,-13 3,-2 1,-3 -2,-8 1,-5 -1,-2 h -7 l -2,2 -6,1 -6,-5 h -11 z"
     id="大兴安岭地区" />
</svg>