<?xml version="1.0" encoding="UTF-8" standalone="no"?>
<svg
   width="1014.9999"
   height="1022"
   viewBox="-166 -118 1014.9999 1022"
   version="1.1"
   id="svg1"
   xmlns="http://www.w3.org/2000/svg"
   xmlns:svg="http://www.w3.org/2000/svg">
  <defs
     id="defs1" />
  <path
     stroke="#1e90ff"
     stroke-opacity="0"
     stroke-width="0"
	 stroke-linecap="round"
     stroke-linejoin="round"
     fill="#1e90ff"
     fill-opacity="1"
     fill-rule="evenodd"
     d="m 50.99999,393 -7,1 v -2 l -2,1 -7,-4 h -3 l -2,-2 1,-1 -8,-1 -8,9 1,1 -5,-2 -2,-9 -4,-4 h -2 l -2,3 -2,9 2,1 -2,4 -13,3 -2,18 h -2 l 4,1 v 6 l -2,1 3,4 h 2 l -2,5 h -2 l 5,26 -2,-1 v 2 l 4,2 v 6 l -2,1 5,1 -4,2 3,4 -2,6 2,-1 2,5 -3,1 3,4 -3,1 -1,3 -3,2 1,3 h -3 l 1,-2 h -2 l -1,-2 -9,2 -1,-3 h -2 l -3,4 v 2 l 2,1 -4,8 -4,-5 -4,1 v -2 l -4,3 -3,5 -8,1 -17,1 -23,-6 -16,-2 -18,6 -5,-2 -13,1 -6,7 -2,6 -9,10 -1,5 2,2 h 3 l 2,2 8,-2 -1,2 2,-1 v 3 l 7,1 h 2 v -3 l 4,9 4,1 2,5 -4,1 -3,24 5,11 -1,15 1,2 6,1 1,5 5,-2 6,2 h 10 l -3,-6 h 10 l 1,-5 -2,-1 v -4 l 3,-1 4,2 2,6 h 3 l -1,4 h 14 l 1,2 h 4 v 3 l 2,2 v 9 l -2,1 1,2 3,-1 3,13 2,2 -1,3 -5,2 -2,3 3,8 h -3 l 1,3 h 2 l 1,9 3,6 -1,24 h 4 l -2,4 -2,-1 v 2 l -5,1 -1,5 2,6 11,1 v 4 l 6,1 3,3 -1,6 -2,-2 -2,2 2,2 -2,4 1,3 -3,4 2,2 -1,2 -2,-1 -5,6 h -2 l -1,2 -1,-1 -2,5 h -2 l -2,3 v 2 l 2,1 -2,2 2,3 -1,2 3,1 4,-6 2,2 5,-7 3,-1 v 2 l 11,4 6,13 5,-1 -1,-4 h -4 l 3,-5 -1,-1 2,-1 1,2 h 3 l -1,-5 11,-5 -2,-5 5,-5 h 10 l 13,-7 v 2 l 5,5 6,-4 1,2 4,2 1,-1 1,3 -2,3 v 5 l -2,2 10,-1 3,3 -2,1 1,3 h 2 l 1,-2 v 4 l -4,5 -3,8 -2,15 1,3 h -5 l -2,3 4,6 13,1 2,-2 13,3 v 2 l 7,-3 v 2 l 3,2 6,-2 2,-4 3,1 1,-2 v 2 l 4,4 h 2 v -8 l 4,-2 h 9 l 4,8 1,-1 1,2 5,16 3,3 14,7 8,9 1,-1 2,2 -1,6 2,2 -5,11 2,7 h 2 l -1,3 4,18 11,-1 41,2 11,-3 33,-33 14,-10 66,-38 61,-26 35,-9 24,-2 82,1 80,3 8,1 7,5 14,25 19,-10 -12,-27 1,-4 22,-21 6,-11 4,-31 -2,-30 -4,-28 -10,-41 -10,-26 -12,-16 -42,-47 -4,-8 -22,-21 -32,-35 -48,-74 -15,-17 -87,-59 -48,-14 -12,-5 -10,-10 1,-2 6,3 -11,-7 4,3 -1,2 -18,-17 -56,-44 1,-7 -21,-12 -24,-9 -15,8 v 2 h -3 l 2,-3 -1,-2 h -3 l -1,4 -3,-4 -4,1 -4,4 1,3 -2,4 -4,2 -2,-2 -1,2 -7,-1 1,2 -3,1 v 2 l -6,-2 -2,4 -8,4 1,-5 -7,6 1,-4 h -3 l -2,-11 -3,2 -2,-1 1,4 h -2 l -3,5 2,1 -1,3 h -3 v 2 h -9 l 1,-2 -6,2 -3,5 -5,2 -7,6 v 5 l -4,3 -9,2 -5,-1 -10,5 v 7 l 11,3 1,4 -6,1 -3,4 h -4 v 2 h 2 v 3 l 5,2 -1,2 3,1 -4,3 1,2 -4,4 3,1 -4,1 1,2 -4,2 3,2 1,3 -8,3 v 2 l -5,2 h -6 l -7,3 1,3 4,2 -8,4 v -2 h -2 v 2 l 1,12 7,-1 2,3 -2,1 v 3 l 9,-1 1,2 -1,6 3,8 h -2 v 2 l -3,3 2,15 7,-1 3,-6 7,14 -1,2 3,3 h 3 l 1,3 -4,3 v 2 z m 599,-291 -190,-49 -53,-20 h -11 l -11,-6 -7,-2 -2,3 -4,-1 -21,-10 -19,-16 -19,-7 -10,-8 -26,-4 -23,-10 -8,-9 -7,-14 4,-1 -4,-8 -4,-3 -15,-20 -45,-30 -9,-4 -22,3 -59,29 -13,13 -46,53 19,4 105,118 41,38 20,16 16,-28 6,-4 h 23 l 27,14 55,37 51,23 48,11 58,28 41,17 28,7 18,1 14,-1 12,-4 46,-25 8,-11 3,-14 -2,-16 -4,-15 z m -143,262 4,-1 5,3 h 4 l 1,-2 -2,-30 -2,-15 -9,-15 -8,-9 -20,-14 -14,-4 -19,-10 -17,-3 -49,-19 -15,-4 -7,-8 -6,-17 -4,-2 -30,-7 -6,1 -3,3 1,6 24,17 21,23 84,50 42,28 14,25 5,3 z m 337,-93 h 4 l -2,-2 z m -321,53 1,21 3,7 5,7 20,18 9,2 9,-2 25,3 23,7 32,3 30,-2 40,13 11,8 8,2 5,-6 13,-38 v -7 l -4,-5 -55,-3 -65,-11 -78,-32 -12,-1 -8,-4 h -17 l -1,3 5,11 z m -127,-75 5,-1 2,-3 -1,-3 -19,-18 -16,-4 -8,1 1,5 6,7 23,15 z m -146,649 h 2 z m 376,-453 -1,6 5,27 3,8 5,7 8,1 19,-3 11,-26 v -22 l -2,-3 -29,-8 -13,1 -3,4 z m -379,445 h -2 l 4,3 3,-1 -2,-2 z m 335,-467 v 13 l 5,9 14,17 8,1 2,-2 2,-8 2,-16 -3,-8 -19,-7 h -5 z m -346,455 v 2 l 2,-1 z"
     id="Shanghai" />
</svg>
