<?xml version="1.0" encoding="UTF-8" standalone="no"?>
<svg
   width="790.99994"
   height="815"
   viewBox="-166 -118 790.99994 815"
   version="1.1"
   id="svg1"
   xmlns="http://www.w3.org/2000/svg"
   xmlns:svg="http://www.w3.org/2000/svg">
  <defs
     id="defs1" />
  <path
     stroke="#1e90ff"
     stroke-opacity="0"
     stroke-width="0"
	 stroke-linecap="round"
     stroke-linejoin="round"
     fill="#1e90ff"
     fill-opacity="1"
     fill-rule="evenodd"
     d="m 389,110.99998 1,-3 -2,-2 2,-2 3,1 v -2 l -3,-1 7,-3 5,-9 8,-7 h 2 l 1,-5 3,-2 2,-9 2,2 6,-1 v 5 l 6,5 3,-1 2,2 -1,2 4,4 2,-2 5,-1 v -4 l 4,-4 1,-4 h 2 l 2,-6 6,1 v 2 l 5,3 h 3 l -1,1 h 2 l 2,7 h 3 l 4,3 10,-4 h 3 l 1,3 4,-4 h 2 l 2,2 v 3 l 2,1 18,-13 h 4 l 3,2 2,-1 1,4 5,-7 v -5 l 2,-3 -1,-3 -1,1 2,-5 4,-3 -1,-2 2,-2 -2,-12 -2,-2 4,-3 -7,-1 v -7 l 4,-3 v -3 l -3,-5 -6,1 v -5 l -2,-3 -2,1 -6,-2 -1,-2 -5,4 h -3 v 4 l -8,11 -11,3 -2,-1 -15,6 -2,-1 v -2 l -3,-2 -1,1 -12,-9 v -3 l -7,-5 3,-2 4,1 2,-4 4,-3 v -4 l -4,-1 v -4 h 3 l 2,-4 -1,-3 -4,1 -2,-7 -2,-1 -4,4 -2,-1 1,-1 -2,-2 -2,-7 1,-9 -2,-1 v -2 l 10,-3 1,-3 4,-1 1,-3 -2,-2 -3,-1 -5,4 -4,-2 -2,-3 -2,3 h -9 l -2,3 -4,-2 -11,2 v -2 h -6 v -3 l -2,-2 -2,9 -3,2 -1,4 7,15 v 8 l -9,7 h -2 l -2,4 h -2 v -3 l -5,-3 -7,3 -1,4 -8,7 -3,5 v 3 l 2,2 h 3 l 2,6 5,-1 -6,7 1,7 -2,4 -16,15 -3,4 1,5 h -7 l -1,4 -6,8 v 3 l -3,2 -5,-1 -2,3 -4,1 -3,-4 -4,6 -2,6 2,16 -3,12 2,2 -1,5 1,4 9,14 -1,1 2,9 2,1 v 7 l 2,6 v 3 l -6,3 v 14 h -8 l -2,-2 -4,6 h -4 l -6,6 v 3 l -4,1 -7,-4 3,-9 -8,-3 v 2 l -14,5 -4,5 -8,2 -2,4 -6,4 -6,8 -8,-3 -6,1 -3,-2 -6,6 h -2 l 1,-4 h -2 l -2,-3 1,-4 -3,-1 -4,-6 h -3 l -1,-2 -5,2 -4,-4 1,-4 5,-1 -3,-10 -3,-1 -8,-8 -6,-1 v -3 l -1,1 -2,-3 -1,-3 1,-2 h 5 l 2,-7 -2,-1 v -2 l 5,-5 -1,-2 -4,-1 v 6 h -6 v -2 l -3,-3 2,-1 -1,-2 3,-4 -3,-2 v -2 l -9,-2 -1,-5 -11,-7 2,-8 -2,-1 3,-9 h -9 l -3,-3 -1,-7 -2,-2 1,-3 -2,-1 -6,-12 -3,2 1,-7 -5,-11 -2,1 2,-3 -2,-1 1,-2 -6,-2 v -5 l -7,-8 2,-4 -2,-1 -2,-6 -2,2 -2,-1 -2,6 -6,5 -1,-2 -8,-4 -3,3 -4,9 h -2 v 2 l -2,1 -3,-1 1,-6 -2,-2 2,-2 v -3 l -9,-2 -3,-3 2,-3 -7,-9 -4,-2 -5,-11 1,-4 2,1 1,-2 3,2 1,-3 6,-1 -1,-2 2,-2 -3,-3 2,-1 v -3 l -3,-3 -7,-2 v -8 l -6,-2 -3,-10 -4,-4 h -4 v -3 h -4 l 1,-2 -4,-5 h -4 l -2,-2 -1,-13 -4,4 -5,-1 -2,5 1,3 -7,6 v 6 l -4,1 -3,7 -3,-1 -3,3 v 3 l 3,5 -2,1 3,4 -3,4 -1,5 2,2 -2,8 1,7 -9,-8 -1,-6 -5,-3 -1,-4 -3,-1 1,-1 -4,-5 2,-2 1,-6 -2,-5 1,-4 -2,-1 1,-2 -4,-9 -2,-12 2,-14 -2,-20 1,-8 -7,1 -2,2 -4,-1 -1,7 5,9 -6,6 -3,1 v 10 l 5,2 v 3 l -5,1 v 2 l -2,1 h -4 l -2,-3 -2,-13 -4,-6 -5,4 h -7 v 3 l 2,1 -1,4 2,5 -1,3 2,9 -1,2 -7,3 4,12 -1,8 5,1 1,5 2,2 -1,2 3,2 2,4 -3,2 -1,9 -6,3 -2,3 -6,-1 -3,1 -2,3 -4,-1 v 2 l -3,3 h -2 l -1,-7 -2,-2 1,-6 -6,-8 -3,-7 -4,2 -1,3 -2,-2 v 3 l 3,2 2,8 -8,3 v 5 h -2 l -1,2 2,4 -3,12 2,5 h 3 l 2,5 -3,6 3,2 4,8 -3,2 4,4 v 2 h 2 l 3,14 5,1 5,-4 v -11 l 2,-1 2,3 6,1 2,-2 3,6 5,2 2,-2 3,3 -1,14 2,6 3,3 -3,8 2,1 -3,4 1,13 5,3 v 3 l -3,2 2,8 v 4 l -2,3 3,6 -2,10 2,1 1,9 -2,4 -1,18 -3,6 -3,2 -1,6 4,1 2,5 -2,4 1,2 -6,4 v -6 h -3 l -2,2 -1,-1 -1,2 3,15 4,1 3,3 1,7 -5,6 -4,-1 -3,-3 h -4 l -6,11 v 5 l -4,1 -1,2 v 6 l -7,3 -1,2 -6,-7 -7,-1 1,7 -2,3 -3,1 3,6 -2,7 h -4 l -2,7 -5,1 -7,9 h -3 l -6,-6 -4,12 -5,8 -2,-1 -1,11 2,3 v 4 l 3,3 h 2 l 1,3 -3,2 -6,-2 -5,6 -7,2 -2,3 2,1 v 12 l -1,11 -3,6 1,1 12,-3 1,5 3,3 v 2 l -5,2 1,4 h 5 l 4,4 -3,3 -1,4 h 2 l 1,2 -2,2 v 3 l -4,2 -1,3 -4,2 -1,4 -5,2 v 2 l -4,2 v 2 l 10,5 1,3 3,-3 3,1 1,-3 4,-1 v -2 l 3,-3 1,1 3,-3 h 5 v -4 h 4 l 15,-8 h 8 l 2,-2 13,2 9,-3 h 8 l 4,4 5,-2 3,1 7,-3 h 9 l 2,-2 2,4 -8,8 h -3 l -5,6 -2,-2 -3,3 3,1 v 11 l -3,3 h 2 v 2 h 9 l 5,15 3,1 v 3 l -7,5 v 2 l 2,5 5,-1 3,6 1,7 -4,2 h 3 l 2,2 v 4 l -4,6 v 3 l 15,2 v 5 l 5,2 8,-2 5,3 9,-5 3,3 12,3 v 6 l 4,8 v 2 l -2,1 -8,-4 -1,2 2,7 -4,2 -3,6 -5,1 -1,2 4,7 2,9 -2,4 2,3 -4,6 h -2 l -3,4 -3,1 2,5 -4,4 1,5 -3,2 -3,5 1,1 h -2 l 1,2 4,4 4,-1 1,2 H 6 l 6,-3 h 2 l 2,3 4,-2 2,2 1,-2 10,5 -1,2 2,1 1,-3 h 4 l 5,2 1,2 h 3 l 1,-4 9,1 -2,2 4,7 -5,10 v 4 l 4,10 5,5 5,-4 7,4 v 2 h -2 l -1,3 -3,2 2,9 4,2 1,-3 h 2 l 4,5 3,-2 1,1 5,-5 h 4 l 3,-2 3,7 2,1 4,-1 5,2 8,-3 2,-3 h 4 l 2,-4 3,-1 1,-4 8,-8 2,1 3,-2 7,-1 6,-6 h 3 v 8 l 4,4 v 6 l -2,2 6,1 v 5 h 2 l -3,3 v 5 l -5,1 4,8 6,3 -3,6 7,6 9,-5 13,-2 6,1 v 6 l 6,-2 3,3 v 2 h 6 l 3,-6 h 3 v -4 l -4,-4 -4,-1 -1,-4 2,-7 -1,-7 3,-3 -2,-3 v -4 l 3,1 4,-4 -2,-3 -3,1 -1,-8 -2,-1 3,-10 -3,-1 -1,-3 -3,-2 -1,-5 -2,1 -6,-3 2,-4 -5,-11 3,-2 v -2 l -5,-7 2,-4 5,-1 2,-8 2,-1 -2,-3 3,-8 8,-2 5,4 v 3 l 7,5 1,-6 6,1 6,-3 8,3 1,3 4,-3 8,1 -1,-4 6,-9 3,-1 -1,-2 3,-1 2,-4 -2,-4 5,-2 2,-7 4,-1 6,6 4,-2 4,5 3,-1 15,9 7,12 h 5 l 4,4 h 4 l 1,-7 9,-4 -2,-6 3,-3 8,-3 v -6 l 4,-4 v -3 l 10,5 v 6 l 2,4 7,6 4,-7 -1,-4 7,-9 21,23 8,6 4,-1 3,-21 7,-8 13,-3 1,10 10,4 18,-15 h 2 l 1,3 1,-2 5,2 5,-1 4,-7 8,-4 v -3 l -4,-6 -1,-8 6,-1 1,-5 2,-1 4,3 2,-5 6,-2 5,-4 1,2 7,-4 5,2 2,-8 h 2 l 4,-5 4,7 4,4 2,-1 4,4 2,5 4,2 -2,-5 6,-8 7,-3 v 2 l 3,-1 -2,-2 2,-1 -5,-4 h 5 l 4,-3 1,-3 h 5 v -4 l 4,-2 12,3 1,4 7,-4 6,-8 -2,-3 4,-12 -2,-7 5,-3 -2,-4 h 2 l -5,-6 -4,-9 -4,-3 v -4 l -2,-2 -2,1 -1,-3 -3,2 -3,-2 -2,1 -1,8 -3,-2 -2,3 h -4 v -3 l -3,-2 -2,2 -4,-1 -2,3 h -3 l -1,-9 -3,-1 -5,1 -3,3 v 7 l -2,1 -7,-2 -9,-8 -4,2 2,2 -3,2 -7,-8 v -3 h 4 l 1,-4 -6,-7 2,-5 -5,-5 -2,1 -1,-5 -8,-2 -8,3 -2,-2 -7,-2 h -10 l -2,3 2,8 -1,2 -9,-6 2,-2 -2,-2 h -3 l -1,-6 -2,-1 v -3 l -4,-7 v -4 l -2,-2 6,-11 -1,-6 16,-18 -2,-6 h -6 l 6,-2 4,-10 -1,-2 2,-2 6,5 v -6 l 2,-1 -1,-3 h -8 l -2,-2 -6,-1 v -6 l -9,-5 1,-12 -10,3 -1,2 -2,-3 2,-2 -1,-6 h -5 l -1,-2 h -2 l -2,-5 1,-11 4,3 3,-3 v -4 l 3,-2 -1,-2 2,-3 -1,-3 -2,1 v -2 l 5,-10 -1,-7 h 4 l 2,-2 2,-16 4,-6 6,-2 v -2 l 2,-1 -1,-7 -3,-2 -2,-6 -4,-1 1,-5 -2,-2 -6,1 -3,-2 1,-5 -4,-7 -2,1 -2,6 -6,4 -2,-3 -2,2 h -4 l -6,-3 -4,1 -5,8 1,4 -2,1 h -17 l -4,-2 -7,-10 2,-2 -1,-4 2,-3 -1,-2 -1,1 -3,-2 -1,-5 1,-6 5,-1 v -9 l -2,-1 -2,-6 -3,-3 h -2 l -2,3 z"
     id="Yunnan" />
</svg>
