<?xml version="1.0" encoding="UTF-8" standalone="no"?>
<svg
   width="1316"
   height="1042"
   viewBox="-1191 -71 1316 1042"
   version="1.1"
   id="svg1"
   xmlns="http://www.w3.org/2000/svg"
   xmlns:svg="http://www.w3.org/2000/svg">
  <defs
     id="defs1" />
  <path
     stroke="#1e90ff"
     stroke-opacity="0"
     stroke-width="0"
	 stroke-linecap="round"
     stroke-linejoin="round"
     fill="#1e90ff"
     fill-opacity="1"
     fill-rule="evenodd"
     d="m -502,804 v 3 l -3,3 -12,22 -2,11 -4,-1 -2,2 -7,-3 h -9 l -1,8 -3,2 v 3 h -8 l -3,4 -3,-6 h 2 l 3,-5 -1,-3 -11,5 -7,9 v 3 l -2,2 h -3 l -5,-7 h -4 v 3 l -2,1 -11,-8 -1,4 3,2 1,4 -9,4 h -2 l -3,-3 -2,1 4,3 -3,3 2,2 -3,-1 -5,4 -1,3 -3,2 1,2 -3,5 -3,3 -2,-2 -5,7 -3,1 v 6 l -3,-1 -4,6 -6,5 -4,9 1,2 -2,2 v 2 l 6,5 -2,7 -4,2 -3,-5 -4,-2 2,3 -2,17 -8,3 -4,-2 -5,2 -8,-1 -5,3 -5,-3 -2,-7 -11,-3 -2,-3 -2,2 -7,-5 h -4 l 2,-3 -12,-9 -2,-1 -1,2 -5,1 -21,-8 -3,-4 6,-4 4,-18 12,-14 v -7 l -5,-3 -1,-5 -2,-1 1,-6 -3,-4 -3,2 -3,-1 -5,6 h -10 l 1,6 -2,2 -5,-1 -4,10 -4,4 1,2 -4,5 -3,9 1,6 -2,9 2,5 -4,6 v 6 l 3,4 -4,12 -6,2 -1,4 -9,-1 -8,2 -9,6 -28,4 v 3 l -10,3 -15,-12 -8,-9 -13,-5 -2,-7 v -6 l 8,-4 -1,-7 -4,-8 20,-14 8,-14 6,-3 2,-8 -8,-13 2,-7 -11,-2 -23,7 -15,14 -19,-5 -6,-4 -29,9 12,12 -7,5 -7,8 -4,-1 -4,2 -2,-4 -10,-3 v -3 l -4,-2 -2,-5 1,-5 -12,5 v -3 l -6,-2 v -22 h -15 v -5 l -8,-1 -1,-6 -3,-5 -15,-6 -4,-4 -7,-2 h -10 3 l 11,-7 h 4 l 4,-3 3,-8 8,-5 v -16 l 3,-4 v -6 l -8,-12 -18,-1 -5,5 -17,-1 -1,7 -3,4 -3,-1 -2,-5 -9,5 1,5 -6,-5 v -5 l -5,2 3,4 -13,7 -1,-21 -16,-11 -16,-21 v -2 l 10,-11 -31,-70 47,9 60,5 21,-5 14,1 2,-3 24,1 33,9 10,1 12,17 18,5 h 12 l 32,16 20,5 h 11 l 19,-4 v 13 h 18 l 4,4 10,-10 h 3 l 20,-12 48,-21 22,-4 2,-3 7,-3 h 2 l 3,3 h 16 l 4,-2 10,-1 28,4 6,-4 18,1 5,-1 19,-11 9,-1 11,-5 13,-13 5,-9 15,-17 13,-5 5,-4 4,1 11,-12 7,-1 1,-4 -5,-12 -9,-7 -5,-7 -2,-8 -4,-2 v -4 l 7,-12 -1,-5 3,-8 7,-12 10,-8 18,2 2,-1 8,9 11,6 13,3 17,1 5,2 8,-7 h 3 l 2,-4 10,-2 3,-6 6,-4 6,-7 4,-7 v -4 l 9,-4 8,4 h 3 l 17,-1 16,-4 10,-11 5,-2 v -2 l 4,1 4,-3 2,-4 1,1 v -5 l -2,-2 2,-6 6,-11 8,-10 11,-6 25,1 v -4 l 3,-7 -1,-4 8,-1 5,6 3,-2 h 4 l 2,-4 10,-5 h 3 l 6,-4 12,3 2,-2 2,2 5,1 v -3 l 3,-3 h 3 v 2 l 2,1 2,-1 5,6 h 7 l 2,3 h 3 l 2,-2 h 6 l 5,1 1,2 4,-2 2,-3 h 4 l 1,-16 -3,-1 -3,-6 1,-3 -2,-5 -7,-8 h -2 l -1,-3 -9,-9 h -2 l 2,-3 -9,-5 -1,-8 -16,-7 -10,-15 h -6 v -2 l -7,1 -2,-2 h -6 l -4,2 -9,-1 -20,26 -13,-13 -14,-5 -15,4 -9,-2 -7,4 -7,9 -17,-16 -2,-16 13,-7 -1,-18 13,-21 -2,-4 31,-68 16,11 9,4 h 10 l 7,5 8,3 2,-5 h 4 l 1,-2 5,1 2,-4 1,1 2,-2 1,-3 8,-4 v -3 h 4 v -3 l 4,-5 2,1 2,-2 14,-3 6,1 5,-8 2,1 5,-8 -2,-2 3,-7 -1,-3 h -9 l 1,-1 -2,-3 6,-4 -1,-2 2,-8 5,-4 -1,-1 h 3 l 2,-5 v -9 l 4,-4 2,-6 h 3 l 2,-5 2,-1 1,-5 -2,-3 8,-10 v -4 h 2 l 4,-18 h 2 v -3 l 6,-2 3,-3 v -2 l 3,-1 6,-7 2,1 v -2 l 5,-2 6,-17 -2,-3 1,-4 h -2 l -1,-3 -3,-2 V 2 l 3,-5 v -7 l 2,-1 -14,-8 -2,2 h -5 l -4,3 -5,-1 -2,-4 2,-5 -2,-5 5,-3 2,1 1,-3 4,-2 v -2 h 2 l 5,-9 9,-7 4,-8 5,-2 -1,-2 6,-3 13,2 4,-3 8,-1 8,7 -1,5 6,5 v 7 l -4,1 -5,13 -5,4 -1,3 -4,4 h -3 l -6,7 7,1 1,3 7,6 6,1 2,2 -1,2 2,5 6,3 5,-1 1,-4 3,-2 v -3 l 3,-1 3,-6 2,3 h 4 l 5,7 1,-1 2,7 14,3 -2,8 -5,1 v 5 l 2,7 2,-1 1,5 -2,2 3,8 -1,2 4,7 v 6 l 2,1 -1,6 5,7 1,4 8,2 6,4 2,-2 2,1 13,-4 2,-6 4,3 2,-1 4,5 7,-1 v -2 h 7 l 2,3 6,2 4,-8 6,4 h 3 l 4,-4 h 4 l 3,-5 v -3 l 6,-4 1,-8 h 2 v 2 l 2,-1 5,1 1,2 2,-1 8,9 11,17 -1,3 5,1 v 5 l 4,2 2,-1 -1,3 4,3 -1,4 2,1 -4,7 -1,-2 -1,3 h -2 l 1,2 -2,1 -2,5 -1,-2 -3,2 3,3 -1,2 2,9 -9,8 h -4 l 1,3 -2,-1 v 6 l -3,2 v 5 l -3,4 -3,1 2,2 h -3 l -2,2 3,3 h -2 v 4 l -2,1 -1,3 -1,-1 2,7 -3,3 2,2 v 9 l -4,1 5,8 -1,4 2,1 1,6 -1,5 -2,2 v 6 l -5,5 -3,-2 v -2 h -6 l -5,5 v 6 l -5,13 h -2 v 4 l -2,2 1,3 -2,8 -3,2 2,6 -2,2 v 5 l 3,5 -3,9 1,1 -4,4 h -2 l 3,-3 v -2 l -3,-2 v -5 l -2,-1 -3,-8 1,-7 -3,-2 -13,11 -20,24 -11,5 -3,8 -3,3 -14,7 -4,5 -8,4 -4,10 -4,3 7,12 5,5 7,2 1,2 -3,2 1,5 4,-2 1,10 5,6 7,-1 2,-8 h 4 l 1,2 2,-1 1,-6 -4,-2 v -2 l 5,4 5,-2 -2,8 3,1 1,-4 2,3 -2,1 3,1 v 6 l -2,2 -15,2 1,3 -3,2 -2,-2 h -5 l -1,3 h -2 v 9 l 8,13 -2,2 -1,5 -3,2 -12,2 2,11 -3,5 1,4 -2,4 h -3 l -1,-4 -4,-4 -3,3 v -5 l -2,-4 h -4 v 4 l -5,4 -3,-4 -4,-1 -3,-6 -5,-3 -3,1 -1,-2 -3,2 2,2 v 6 l -3,5 -5,3 3,3 5,1 2,-2 5,2 2,4 -1,8 8,4 1,2 -2,3 v 5 l 4,1 v 4 l -4,2 -2,3 1,4 -2,4 v 6 l 2,9 h 2 l -1,2 -2,-1 v 2 h 3 l -3,4 1,6 5,3 v 3 h 2 l 1,4 -1,10 2,2 h 7 l 8,-3 5,-6 12,-8 5,-1 -1,7 4,4 4,8 4,3 -2,9 3,3 -1,1 4,7 3,13 -1,3 H 4 l 2,2 -1,1 h -6 v 4 l 3,1 2,4 3,-3 2,3 1,-1 3,3 h 4 v 6 l -2,1 1,2 -2,1 1,2 -4,11 -5,-2 -9,3 -4,4 v 5 l 2,1 -6,2 -1,2 -4,-1 -2,2 v -2 l -4,4 -5,-4 h -5 l -3,-3 -6,-1 -4,1 1,3 4,1 -5,6 -6,-4 -4,3 -3,-3 -5,3 -4,10 -1,-1 -6,6 h -2 l -1,-3 h -2 l 1,-2 -2,2 -9,1 -14,14 -8,-2 v 2 l -7,1 -5,5 -2,-1 -5,4 1,2 -2,1 v 2 l -4,1 -4,4 -1,2 2,1 h -2 l -6,7 1,3 -2,2 -4,-3 2,-2 -10,-20 v -7 h -4 l -10,-5 2,-4 -3,-2 -1,3 -7,3 -4,6 6,7 -4,23 2,5 4,2 v 2 l -3,-1 2,4 -1,5 -3,1 1,1 -2,4 h -2 l -2,3 -10,-2 -4,1 -2,-5 -4,1 -1,2 -10,-2 -6,3 -2,-2 1,-2 -4,-6 2,-2 -1,-4 h -3 l -1,-5 -4,-5 2,-5 6,3 2,-6 -3,-4 2,-3 -4,-2 3,-2 -3,-3 -2,4 h -3 l 1,-3 -3,-2 1,-4 -6,-4 4,-3 -2,-2 v -4 l -11,-14 -3,2 -11,-1 -1,3 -3,2 h 2 v 3 l -4,1 -3,-2 h -8 l -1,2 -8,4 1,10 -1,2 h -5 l 5,6 -1,5 -3,2 -8,3 h -3 l -4,-3 -2,3 -2,-1 1,-2 -2,-2 -6,5 -2,4 h -3 l -1,6 h -4 l -5,-11 -27,16 2,1 1,4 -3,1 -1,-2 -1,3 h -3 v -2 l -5,-1 -11,1 2,-2 -1,-10 3,-3 -4,-16 -2,-2 -2,2 -9,-1 -5,6 2,4 -4,2 -3,-1 -6,10 v 6 l 2,4 -2,3 1,4 -6,-2 -3,1 -5,2 v 2 l -3,3 4,1 -2,5 3,4 1,-2 1,3 -6,7 -3,1 8,9 3,1 -1,6 4,6 -3,1 v 11 l -5,1 -3,3 h -2 l -2,-3 -11,10 -8,2 h -3 l -3,-6 -16,5 -2,7 -5,3 -13,-8 -5,2 z M 46,160 47,148 h 2 v -6 l 2,-2 -1,-5 -5,1 -2,-2 -9,-1 v 2 h -2 l -1,2 v 6 l -4,4 -5,-5 h -2 v 7 l 4,5 v 3 l 4,3 3,-2 2,1 10,-2 v 3 z"
     id="Neimenggu" />
</svg>
