<?xml version="1.0" encoding="UTF-8" standalone="no"?>
<svg
   width="762"
   height="772"
   viewBox="-166 -118 762 772"
   version="1.1"
   id="svg1"
   xmlns="http://www.w3.org/2000/svg"
   xmlns:svg="http://www.w3.org/2000/svg">
  <defs
     id="defs1" />
  <path
     stroke="#1e90ff"
     stroke-opacity="0"
     stroke-width="0"
	 stroke-linecap="round"
     stroke-linejoin="round"
     fill="#1e90ff"
     fill-opacity="1"
     fill-rule="evenodd"
     d="m 490,211 6,-10 -2,-10 3,-2 7,-10 -9,-7 -2,-3 2,-2 -3,-1 v -5 l -4,-7 -4,-1 3,-8 h 17 l 1,-2 -7,-11 2,-1 -1,-2 7,-6 h 4 l 2,-3 h 5 l 5,-6 8,1 6,-3 1,2 5,1 4,6 4,1 5,-6 7,3 3,-4 -3,-2 v -5 l -3,-5 2,-8 4,-4 7,-1 2,-7 -1,-2 2,-1 -3,-1 5,-1 v 2 l 4,2 1,5 3,1 2,-2 h 4 v -8 l 5,-1 -4,-7 -8,-4 -4,2 -6,-2 -5,1 -1,-3 -2,1 -2,-2 -7,-1 -8,1 -3,3 -3,-1 -4,3 h -6 l -2,4 -6,4 -11,-1 -4,-2 v -2 l -6,-6 -8,2 -12,-9 -5,-1 h -4 l -1,2 -4,-3 h -19 l -2,-4 -9,3 -2,-1 -2,2 -6,-1 -8,2 -2,2 h -7 l -9,-5 -7,-1 -1,-5 -7,-5 -2,-6 -5,-3 v -6 l -2,-4 1,-4 -10,-1 V 9 l -6,-3 1,-5 -3,-4 -5,-2 -2,-4 -12,-4 -1,-3 h -2 l -3,4 -2,-1 v -4 l -2,-2 1,-2 -8,-9 -3,-2 h -4 l 1,-4 h -4 l -3,-3 h -4 l -2,-5 -4,-2 3,-8 -3,-1 v -2 l -4,-1 v -2 l -5,-5 v -6 l -4,-4 1,-4 2,-1 -1,-9 3,-3 v -3 l 3,-4 -2,-6 -2,-5 -4,1 -7,-4 -2,-3 -5,-2 h -3 l -2,3 -3,1 -1,8 2,3 1,7 -3,6 v 9 l -6,4 h -3 l -7,-8 -3,-1 -1,3 h -9 l -6,3 -1,3 h -4 l -7,-3 -4,2 -4,-3 -3,2 -3,13 3,2 3,7 -1,1 h 2 l 3,6 v 11 h -4 l -2,-2 -8,1 -2,-2 h -4 l -2,2 -3,-3 h -3 v -3 l -5,-5 -1,-6 -4,-5 -2,1 -2,3 h -3 l -4,3 -2,4 v 8 l 12,12 v 2 l 3,2 2,4 3,1 1,3 3,2 2,9 6,5 5,1 6,11 2,-1 3,12 -4,4 -4,-2 -2,2 -8,-2 -1,-4 -2,-1 -15,5 -13,-2 -7,2 -2,3 2,4 -2,2 -6,-6 -5,1 -7,-13 -3,-1 -5,4 -2,10 1,1 -3,3 -1,4 -6,3 v 3 l -5,4 -2,5 -2,1 -6,24 -10,-3 -4,7 -5,3 v 3 l 4,5 -7,2 -2,-2 -8,5 -2,5 h -3 l -12,6 v -5 l -9,11 h -3 v 2 l -5,1 -6,-13 -21,-6 -8,11 h -7 l -5,2 -3,-1 -7,3 -2,13 -8,1 -2,-2 -12,11 -2,-1 -1,2 1,3 -7,13 3,4 v -2 h 9 l 2,3 h 3 l -4,10 1,5 2,-1 -2,3 1,3 -2,-1 v 4 l 7,6 h 2 v 3 l 15,19 v 2 l 4,3 3,-1 2,2 -1,6 22,3 v 4 l 2,3 -1,4 2,1 -2,2 2,3 1,-1 2,2 v 2 l 3,1 -2,3 3,4 3,9 2,1 2,8 -9,2 -2,-1 -7,4 -2,6 H 7 l -5,9 1,5 -3,3 -3,7 h -3 l -2,-2 -3,3 2,1 -3,6 3,9 h -7 l 1,2 -5,-3 -8,-2 -5,-7 v -4 l -5,1 -4,7 -3,-1 -2,5 2,4 -2,4 -5,4 h -4 l -6,-3 -3,1 4,2 -5,1 -1,-3 -13,2 -1,-1 -4,2 v 4 l -3,1 -14,-2 -3,11 -2,1 -3,-3 -5,2 -3,3 -1,5 -3,2 h -6 l -6,5 -3,6 -5,3 -4,5 -8,3 -1,4 -4,5 v 2 l 3,2 v 4 l -5,1 -3,4 -2,6 2,3 -1,7 7,-1 7,6 h 3 l 3,2 5,8 4,1 6,6 1,2 -5,7 6,4 v 3 l -2,1 v 4 l -4,7 2,3 4,1 1,3 2,-1 12,9 v 4 h -2 l -3,4 -15,3 -2,3 -6,-6 -3,-1 -9,8 -5,-2 -4,1 -1,4 -2,1 4,1 -1,3 2,5 10,6 6,-1 3,2 v 18 l 3,2 v 3 l -4,4 1,2 -2,2 2,2 -3,3 -2,6 11,-1 1,4 4,2 1,9 -4,3 1,11 1,-3 6,-5 -1,-2 5,-3 10,10 -1,3 6,1 2,-4 h 2 l 1,-2 2,1 4,-2 6,3 v -3 h 3 l 1,2 h 5 l 3,-5 v -3 l 2,4 5,2 1,5 2,2 2,9 h -2 l -1,2 9,2 2,8 h 2 v -2 l 4,1 5,15 h 5 l 1,3 v -4 l 6,3 h 13 l 3,2 -4,-12 4,-2 v -3 h 5 l 2,-4 3,-2 2,3 2,-1 v 2 l 6,-1 4,-6 -2,-3 h 7 l 2,-2 -1,-1 2,-4 -3,-1 -1,-3 2,-5 7,4 3,7 4,2 v 4 h 2 l 1,2 4,-2 v -3 h 2 l 1,-11 5,1 2,8 4,-1 2,-5 5,1 -1,5 6,2 21,-2 1,-2 2,4 3,1 1,-2 h 2 v 2 h 6 l 4,-2 1,-4 9,-2 v -2 l 7,1 4,5 h 5 l 2,5 h 3 v 2 h 2 l 2,3 v 20 l 3,2 1,5 7,2 1,2 1,-1 8,2 6,7 v 3 l 5,5 6,2 4,-1 2,2 h 15 l 9,4 6,-3 v -2 h 2 l -2,-11 -2,-1 v -2 h -3 l -3,3 v -5 l -6,2 3,-6 v -5 l -4,-1 v -2 l -2,-1 v -6 l 7,1 1,7 h 7 l -2,-8 h 9 v -2 l 5,-2 -2,-9 13,2 v -5 l 4,-2 3,-4 v -2 h -2 l 1,-9 3,-1 4,3 v -5 3 l 2,1 3,-3 4,-1 -1,-4 h 2 l -2,-4 h 13 l 1,-2 h 2 l 4,11 6,1 v -3 l 4,3 4,-1 -1,-1 2,-1 h 3 l 7,3 2,-1 2,5 2,1 8,-2 -9,-8 -1,-5 4,1 5,-3 2,1 v 2 l 5,1 2,-2 5,3 4,4 2,6 h 2 v -2 l 2,1 v -7 l 11,-4 2,2 3,-1 v -2 l 2,-1 -5,-5 v -2 l 9,-7 v -7 l 20,-5 -1,-6 -5,1 2,-4 -4,-10 1,-4 h 5 l 4,-3 2,1 -3,-12 h -2 v -4 l 2,-1 1,2 4,-3 -2,-4 2,-2 h 6 l 3,2 v -4 h 3 l -2,-3 -4,-1 -1,-3 3,-1 -5,-4 -2,-12 -5,-7 -3,1 2,7 -2,2 -6,-7 -5,1 -5,-3 -2,-5 h -2 l -7,-8 -6,-3 v -3 l -1,2 h -2 v 3 l -6,-4 -2,-11 v -18 l -7,-4 -2,-3 3,-9 4,-5 -2,-11 3,-8 h 13 l 2,2 1,-9 13,-3 3,5 h 2 l 15,-5 2,4 2,-1 1,-4 4,2 v 2 l 2,-1 v 3 l 7,-4 3,7 5,-1 6,4 h 8 v -2 h 2 l -1,-2 4,-5 6,-2 -1,-3 h 4 l 1,-2 h 2 v -2 l 4,-1 v 2 l 2,-5 h 6 l 13,6 6,-3 2,-3 -1,-1 9,3 1,-2 -2,-2 2,-2 2,5 3,2 -1,1 3,-1 v -5 l 3,-3 -1,-5 5,1 v -2 l 5,-6 4,-2 7,2 2,3 4,-8 5,2 3,-9 6,-2 3,3 6,-1 3,-2 v -2 h -2 l 2,-2 -2,-1 4,-3 -4,-7 h 3 l 2,-2 2,2 1,-2 h 2 l 1,2 v -2 l 5,1 -1,-1 6,-5 -4,-3 -3,3 h -2 l -1,-7 5,-1 -6,-3 v -4 l 6,-1 -2,-3 -5,-3 h -5 l -4,2 -4,-8 1,-5 -2,-3 -2,-13 -3,3 -2,-1 v 2 l -8,2 -1,-9 -7,-6 -1,-8 2,-3 -6,-2 -2,-10 -2,-1 -2,-5 h -6 z"
     id="Beijing" />
</svg>
