<?xml version="1.0" encoding="UTF-8" standalone="no"?>
<svg
   width="940"
   height="808"
   viewBox="-166 -118 940 808"
   version="1.1"
   id="svg1"
   xmlns="http://www.w3.org/2000/svg"
   xmlns:svg="http://www.w3.org/2000/svg">
  <defs
     id="defs1" />
  <path
     stroke="#1e90ff"
     stroke-opacity="0"
     stroke-width="0"
	 stroke-linecap="round"
     stroke-linejoin="round"
     fill="#1e90ff"
     fill-opacity="1"
     fill-rule="evenodd"
     d="m 20,580 14,6 9,10 13,23 4,35 -2,6 3,10 6,11 8,2 7,-1 13,8 3,-3 -1,-17 8,-10 -1,-17 2,-36 12,-44 6,-11 3,-13 9,-4 16,-11 8,-9 5,-13 15,-21 6,-13 3,-15 7,-4 4,-6 -3,-12 5,-15 7,-10 3,-19 4,-13 1,-11 18,-76 6,-17 -3,-12 1,-6 6,-7 2,-9 22,-32 3,-17 7,-11 4,-11 1,-17 -6,-11 -4,-18 1,-15 16,-20 15,-13 -6,-6 h -6 l -6,-22 -13,1 -11,-5 h -6 l -8,-6 -1,-7 -8,-3 -6,-11 -7,-3 h -9 l -17,8 -5,6 -8,16 -9,4 -21,3 -13,9 -6,1 -14,7 -3,9 -9,11 -9,18 -3,17 -13,16 -11,6 -13,11 -9,22 -17,24 -5,12 -9,14 -3,12 -11,13 -21,38 -6,17 -13,7 -13,21 -1,22 4,17 -2,32 -5,10 -11,43 2,5 18,9 3,21 10,35 13,32 4,5 z m 746,-691 8,-2 -2,-5 -6,1 z m -199,36 4,3 7,-3 1,-5 -6,-4 -7,5 z m -692,436 h 10 l -4,-10 -13,-1 -3,5 -5,-1 v 11 l 2,5 h 6 z m 732,-474 7,-1 -5,-4 z m -758,459 v 10 l -6,3 10,-1 v -12 z m -1,47 -1,7 h 4 z m 11,-55 8,9 2,-8 -5,-3 z m 348,196 1,7 7,1 v -8 z m 7,116 v 7 l 5,5 11,6 1,-6 -5,-2 v -10 z m 107,-679 -1,5 6,-1 z m -487,456 v 5 l 6,-5 z m 170,175 7,-2 -2,-3 z"
     id="Taiwan" />
</svg>
