<?xml version="1.0" encoding="UTF-8" standalone="no"?>
<svg
   width="1246.5"
   height="967.5116"
   viewBox="-1191 -71 1246.5 967.5116"
   version="1.1"
   id="svg1"
   xmlns="http://www.w3.org/2000/svg"
   xmlns:svg="http://www.w3.org/2000/svg">
  <defs
     id="defs1" />
  <path
     stroke="#1e90ff"
     stroke-opacity="0"
     stroke-width="0"
	 stroke-linecap="round"
     stroke-linejoin="round"
     fill="#1e90ff"
     fill-opacity="1"
     fill-rule="evenodd"
     d="m -364,700.46686 3,-2 7,-1 h 19 l 20,2 2,-1 5,4 h 9 l 3,-2 1,-3 4,-2 6,4 3,-1 4,-5 6,3 2,-2 5,3 2,-1 5,1 1,2 h 4 l 3,-3 v -9 l 2,-2 5,1 4,-3 1,-2 h -2 l 3,-4 h 3 v -3 l 2,3 h 3 l 3,-5 3,1 v -3 l 8,-6 -3,-1 v -4 l -2,1 v -4 l 4,-1 1,-3 h -2 l 4,-4 h -3 l -2,-2 7,-1 v -2 l -3,-3 1,-4 3,1 1,-2 h 6 l 1,-2 -2,-2 v -3 l 3,-1 1,3 h 2 v -3 l -2,-2 1,-2 h 3 l -2,3 1,2 4,-1 1,-4 3,3 3,-1 2,3 4,2 6,9 h 2 v -3 l 2,-1 -1,-3 4,-2 2,-5 -3,-1 3,-3 h 2 l 3,6 9,-1 4,-8 -2,-3 2,-9 -2,-4 3,-3 v -3 h 3 v -2 h -3 l 1,-3 -2,-2 2,-2 1,2 h 2 l -2,-4 3,-2 -5,-7 6,-11 1,-12 2,-1 2,-11 4,-1 -3,-5 2,-3 6,-1 -3,-1 v -3 l 6,-2 h 2 l 1,6 5,-1 3,3 11,-4 4,2 -3,4 1,4 -3,1 4,4 5,-2 5,2 h 7 l 1,5 -2,2 -2,11 2,2 -2,2 v 7 l 2,4 4,2 4,7 7,6 2,5 4,-3 3,2 -3,6 3,4 4,-2 -2,-8 3,-4 5,1 1,12 4,10 4,3 -2,5 1,3 7,2 1,-1 -6,-3 v -7 l -4,-4 v -8 h 5 l 3,-8 -5,-12 -8,-6 -8,3 -9,-8 h 4 v -2 l 5,-5 8,-3 4,-5 3,1 13,-7 5,4 2,-3 6,1 -1,-2 3,-5 h 5 l 6,5 3,-1 v -2 l 5,-1 4,3 8,-1 -3,-9 2,-3 1,2 4,-1 2,2 h 3 l 4,-4 1,-5 h -3 l -2,-2 1,-4 -2,-7 2,-2 v -3 h 7 v -8 l 3,-1 3,-5 -2,-4 2,-4 -3,-2 1,-6 6,-5 v -3 l 2,-2 v -9 l 2,-6 h 2 l 2,-3 v -4 l -2,-1 v -2 l 3,-10 -2,-2 v 3 l -2,2 h -7 v 2 l -5,4 -3,-1 -2,3 h -2 l -7,-5 -8,-9 h -3 l -11,9 -1,4 -7,-1 -2,-2 -2,-9 h -2 l -2,-4 -3,1 -2,-4 h -3 l -1,-3 h -3 v -2 l -4,1 v -3 h -5 l -1,-7 -4,1 -4,-3 -2,2 -6,-3 -1,-3 -7,2 -3,-2 -3,-9 4,-7 -4,-4 -1,-10 -2,-2 2,-5 -2,-1 v -4 l 2,-3 -3,-6 -3,-1 4,-12 v -5 l -3,-2 -5,6 v 3 l -4,4 -2,6 -9,1 -5,7 1,2 -5,2 -1,5 -4,3 -4,-1 v -2 l -2,-1 -1,1 -2,-7 2,-9 -2,-3 1,-1 h -2 l -2,-3 2,-2 -1,-2 -1,1 -1,-3 -4,-2 h -2 l -1,2 -1,-2 -5,4 -1,-2 -9,9 h -2 l 1,4 -2,2 v 7 l -5,-1 v 2 l -2,1 h -15 l -5,2 h -5 l -4,-2 -4,1 -2,4 -6,4 v 2 l -7,3 -4,-2 -2,3 h -2 l -1,-3 -3,-1 -6,6 1,11 2,1 -2,4 2,18 -8,6 -1,-2 h -2 l -3,3 -2,-1 -2,2 -7,1 -3,3 -7,-2 -2,-3 h -3 l -1,2 h -5 l -5,-8 -7,-23 -2,-3 -2,1 -3,-2 1,-2 4,-1 -6,-11 3,-6 2,-1 -5,-7 -3,-1 -2,2 h -6 l 1,-10 -5,-4 -4,-14 -6,-12 -7,-8 -1,-7 -2,-1 3,-6 -2,-4 2,-5 v -6 l -3,-4 h 3 l 1,-6 -3,-6 1,-4 -4,-4 -1,-4 -5,-3 -2,-4 -10,6 v 3 l -5,3 h -3 l -3,4 -2,9 -4,6 -3,-3 -2,2 -1,-2 -2,1 -3,-3 -2,2 -1,2 2,1 v 6 h 2 v 3 l 2,-1 -1,4 -4,3 6,5 v 3 h -2 v 6 h -3 l -1,2 4,2 -1,2 2,2 -7,6 -3,-1 -2,3 h -5 l -7,5 h -6 l -3,-3 -4,-1 -4,3 -7,-5 v -18 l -1,-1 -2,5 -3,2 -5,-5 -2,1 -4,-7 1,-4 3,-2 v -3 l -11,-13 -2,-6 -5,-3 3,-7 -5,-6 -1,-3 2,-2 -2,-3 6,-3 4,2 4,-6 -2,-4 -5,-1 -5,-5 -5,-1 -5,-4 -1,1 -15,-2 v 3 l -2,2 -6,-2 2,-3 -2,-1 -4,1 -6,6 -5,-1 -1,4 -5,5 -1,-1 v -4 l -2,-1 2,-3 -2,-11 2,-7 -6,-9 -1,-11 4,-14 7,-1 2,-4 -1,-3 h 2 l -1,-2 h -2 l 1,-1 -3,-6 h -3 l 2,-2 -4,-3 -1,-4 -6,-6 1,-7 -2,-1 v -3 h -11 l -2,-2 -2,3 -2,-3 -4,2 -1,-4 -9,-5 h -4 l -5,-5 v -2 l -9,-5 -4,2 -3,-1 -8,2 -1,2 h -2 l -1,-2 -9,9 -3,-1 -4,3 -1,-3 -2,4 1,1 -3,-1 v 3 h -2 v 2 l -6,-2 -3,2 -1,-1 -1,3 -1,-2 -8,-1 -1,-3 h -12 l -1,-6 h -9 l -9,-8 -3,1 -1,-6 -4,-2 1,-1 h -5 l -3,-9 -3,-1 -1,-2 2,-7.000001 -2,-12 2,-2 h -2 l 2,-2 -1,-2 h -2 v -5 l -6,1 -1,-2 h -3 l -6,6 -9,3 -2,-3 h -7 l 1,4 -8,13 h -3 l -4,-5 -2,4 -3,-3 -12,3 -6,-2 -3,4 -6,1 v -3 l 3,-3 -5,-2 -3,-11 -11,-3 -1,-5 -3,-2 -2,7 -2,1 1,8 -2,3 -5,-3 -6,3 -2,-2 v -4 h -2 l -4,5 -5,-2 -6,4 -7,-4 -2,1 1,3 -3,4 h -2 l -9,-9 -6,2 -1,2 -4,-2 -4,-7 2,-5 -1,-6 -9,1 -4,-3 1,-5 -6,-4 2,-3 -1,-2 -6,3 -5,-1 -2,-3 3,-4 -4,-2 2,-1 v -2 l -5,-3 -2,-6 -4,-3 -4,1 -2,-4 1,-2 7,-4 -3,-3 -1,-4 5,-1 -2,-8.0000002 -9,-4 -3,-6 1,-5 5,-1.9999998 1,-2 -4,-3 v -2 h 5 l 1,-2 -1,-4 -3,-3 2,-2 -3,-4 v -2 l 3,-2 -3,-3 2,-5 h -4 l -3,-6 v -2 l 3,-2 -4,-8 2,-2 -1,-4 -4,2 -1,5 -3,-2 2,-2 v -4 l -8,-1 -8,7 h -6 l -2,2 h -12 l -3,1 -5,5 -1,-3 -2,1 -6,-5 -6,5 -3,-2 h -5 l -2,4 -3,-1 -1,-3 -3,-2 -2,1 -11,-4 -10,8 -2,3 v 7 h -3 l 1,8 -5,1 -3,5 -33,5 5,29.9999998 -4,10.0000002 h -4 l -2,4 5,13 -5,5 1,3 h -2 l -1,3 -9,1 v -6 h -2 l -2,-7 -3,-1 -8,-9 -4,7 h -2 l -1,-13 -7,-11.0000002 -9,-1.00000001 -2,3.00000001 2,9.0000002 -5,-1 -2,6 h -2 l 1,1 -2,1 1,1 -3,1 1,1 -2,-1 -1,2 -3,-5 -3,-1 v -3 l -10,-5.0000002 h -3 l -4,-4 -2,-7 -4,-2 v -3 l -3,-1 -2,-3.9999998 -2,2.9999998 -7,-3.9999998 -1,-3 -8,1 -2,-4 h -3 l -7,4 -1,2 3,1 4,6.9999998 v 13 l -6,6.0000002 v 5 l -2,4 -8,6 -4,-1 -2,3 3,3 v 2 l 12,6 7,1 v -3 l 5,-3 h 6 l 4,2 2,-1 3,4 4,11 -4,12 3,3 1,8 8,7 13,5 2,6 -5,10.000001 1,11 12,4 -1,12 -2,3 -3,2 h -7 l -4,7 1,14 -2,8 -3,3 v 17 h -4 v 2 l 1,3 h 2 l 4,12 v 7 h 7 l 2,2 -4,3 -4,-3 -1,4 v 2 l 7,-1 1,2 -2,3 -4,2 v 3 l -2,2 2,11 3,5 -1,2 9,4 3,5 v 8 l 8,1 1,12 -1,18 -3,8 1,2 6,4 21,-1 25,-9 3,-6 8,-9 12,-5 22,-17 7,-3 h 6 l 2,15 -1,4 h -3 l 2,7 6,4 h 3 l 10,16 3,10 3,3 8,3 v 4 l -3,2 -2,6 1,1 -3,1 v 10 l 5,3 v 2 l 4,4 -3,3 1,2 h 2 l 4,4 2,9 3,5 -1,5 5,7 -2,7 5,7 -1,4 3,6 v 3 l -4,1 1,4 -2,3 -9,-3 -1,1 1,4 2,-1 2,2 -1,4 -12,-3 -7,3 v 2 l 3,3 -2,5 8,3 6,12 3,-2 v -3 l 5,-2 5,8 3,-2 8,8 h 12 l 1,-9 5,-4 v -5 l 3,-3 2,1 1,-2 1,2 6,2 3,3 -3,7 7,6 -1,3 h 3 l 6,4 3,6 h 2 l 4,4 8,-2 v 2 h 2 v 6 l 11,1 1,-2 1,2 1,-1 1,3 h 5 l 2,2 -1,7 1,3 2,1 -1,1 5,2 12,12 -12,13 4,4 h 7 l 3,3 -1,5 -6,4 -1,-1 -1,6 h 8 l 4,10 v -4 l 7,-5 3,1 v -3 l 5,-2 3,-6 5,-4 -1,-3 h 3 v -2 l 2,-1 v -7 l 3,-5 8,-3 5,-9 8,1 3,-3 1,1 v 10 l -6,7 3,8 v 12 l -2,5 v 6 l 3,12 4,-1 1,-4 8,3 2,6 -2,2 3,2 -4,4 3,4 -3,3 6,3 v 6 l 3,2 8,-1 -2,6 1,4 -2,3 2,6 -3,3 2,-1 3,2 v 2 l 4,2 v 4 l 5,2 3,5 -2,3 2,4 -4,2 2,5 -2,1 1,2 4,1 7,-2 2,3 3,1 -3,4 1,6 3,2 -2,2 h 2 l -3,6 3,-4 1,1 v 5 l -2,3 6,1 1,-6 2,-1 6,5 6,-1 3,4 -4,4 v 2 h -6 l 2,4 -8,11 1,2 -4,1 -3,4 h -3 v 3 l 7,3 v 2 l -5,1 -2,6 v 11 l 3,5 v 4 l 4,2 -2,1 1,2 -3,11 1,2 11,-4 3,3 h 2 v 3 l 3,3 -3,3 v 4 l 5,11 h 2 l -1,5 5,4 v 9 l 2,5 h 3 l 2,3 -1,3 h 4 l 3,4 -2,4 3,4 v 5 h 3 l 1,-2 2,6 8,-1 1,3 -2,2 -1,7 7,2 -4,6 -5,2 -1,3 3,2 -1,6 -5,5 -2,9 h -3 l -2,5 -6,2 -2,6 2,1 8,-4 4,2 3,5 h 5 l 3,-4 h 2 l 4,5 6,-3 1,-4 4,2 3,-2 v 5 l 6,-1 v -3 h 7 l -1,-2 h -5 l 4,-4 3,2 6,-9 -1,-4 5,-1 -2,-4 1,-2 2,1 2,-4 -3,-3 3,-3 4,1 11,-11 5,-1 v -5 l 3,-1 1,-6 4,-2 2,-7 6,-8 3,-1 v -2 l 7,-5 3,1 v 2 l -4,1 h 6 l 1,-2 -5,-7 1,-6 3,-6 3,-2 -2,-1 2,-7 4,-5 -3,-8 6,-5 v -4 l 2,-3 2,3 h 3 l 8,-9 -5,-4 1,-3 6,2 5,4 v 4 h 2 v -6 l 2,-3 h 2 l 1,4 2,-1 3,-9 8,-5 h 2 v 4 l -2,2 1,1 5,-1 4,3 -1,2 7,2 v 5 h 2 l 1,3 -3,-1 -3,3 6,6 3,-1 1,2 -2,1 1,2 h 3 l 1,4 h 6 v 2 h -4 l -4,6 h -2 l 2,2 3,-1 v 3 l 3,-2 2,2 3,-1 1,2 h 4 l -1,2 2,2 2,-3 3,2 -5,4 5,-1 8,4 1,-3 h 4 l 4,4 6,-1 v -3 l 2,2 7,-1 2,7 h 8 l 5,5 v -4 l 3,2 13,-2 1,4 2,-3 h 2 l 1,3 1,-3 h 2 l 2,3 2,-7 4,3 4,-5 v 3 h 3 l 3,3 3,-4 -1,3 h 2 l 1,3 1,-2 1,1 v 4 l 2,-1 2,1 v 2 l 1,-2 h 4 l -3,2 3,3 2,-3 4,-1 1,-3 5,-1 2,-6 3,-1 -2,-1 2,-3 v -5 h 2 l 5,-6 -1,-4 3,-2 v -5 h -2 l 1,-1 -2,-1 2,-1 -4,-3 -1,-5 -13,-8 -3,-7 v -5 h -2 l -3,-4 v -25 l -8,-6 -1,-3 z"
     id="Jilin" />
</svg>
