<?xml version="1.0" encoding="UTF-8" standalone="no"?>
<svg
   width="1018.5"
   height="872"
   viewBox="-166 -118 1018.5 872"
   version="1.1"
   id="svg1"
   xmlns="http://www.w3.org/2000/svg"
   xmlns:svg="http://www.w3.org/2000/svg">
  <defs
     id="defs1" />
  <path
     stroke="#1e90ff"
     stroke-opacity="0"
     stroke-width="0"
	 stroke-linecap="round"
     stroke-linejoin="round"
     fill="#1e90ff"
     fill-opacity="1"
     fill-rule="evenodd"
     d="m 242.5,750 -1,4 h 2 l 6,-6 3,2 6,-1 8,3 6,-8 6,-4 2,-4 8,-2 4,-5 14,-5 v -2 l 8,3 -3,9 7,4 4,-1 v -3 l 6,-6 h 4 l 4,-6 5,3 4,-1 2,-3 -1,-11 4,-1 2,-7 -3,-3 1,-7 -2,-2 -2,-9 1,-1 -3,-7 -6,-7 -1,-4 1,-5 -2,-3 3,-11 -2,-16 2,-6 4,-6 3,4 6,-4 5,1 3,-3 7,-14 h 6 l 2,-3 -2,-2 3,-4 16,-15 2,-4 -1,-7 6,-6 h -5 l -2,-7 -3,1 -2,-2 2,-8 9,-7 1,-4 6,-3 6,3 v 3 h 2 l 2,-4 h 2 l 9,-7 1,-2 -2,-3 v -6 l -4,-9 -3,-3 2,-1 v -3 l 4,-2 -1,-4 2,-5 2,2 v 3 l 3,-1 3,1 v 2 l 11,-2 3,2 3,-3 h 9 l 1,-3 7,5 5,-4 5,3 -1,3 -4,1 -1,3 -10,3 2,6 v 5 l -2,1 5,9 -1,1 2,1 4,-4 2,1 2,7 h 4 l 1,2 -1,3 -4,1 v 3 h 4 v 6 l -4,3 -2,4 h -7 l 7,6 v 3 l 11,7 v 2 l 3,-1 4,5 15,-6 1,1 11,-2 1,-3 3,-1 -1,-1 2,-3 h 2 l -1,-1 3,-3 1,-4 7,-4 1,2 9,2 1,7 6,-2 2,2 1,7 -4,3 1,8 h 6 l -4,3 2,2 v 6 l 2,1 4,-5 11,-2 5,2 1,3 5,1 2,5 h 2 l 2,-2 3,1 2,-1 v -2 l 6,-2 5,2 2,-3 5,-2 1,2 12,-3 v -2 h 6 l 6,3 13,-7 -2,-2 2,-3 -1,-3 h -2 v -4 l 2,-2 -3,-5 -4,-1 2,-4 -4,-7 -10,-5 -8,4 1,2 h -6 v -2 l -3,-1 -4,2 -3,-4 2,-8 -1,-2 h -3 l -5,-8 v 3 h -4 v 3 l -5,-1 -4,-4 v -11 l -3,-1 1,-7 6,-3 v -5 l 5,-3 1,2 3,-2 9,2 2,-2 -2,-1 v -5 l 4,-1 3,-8 4,2 2,5 h 5 l 2,6 4,-1 4,7 6,4 h 3 l 3,6 h 5 l -1,-5 -3,-3 1,-3 -4,-7 2,-1 -2,-1 -1,-6 -2,-1 v -4 l -2,-1 1,-6 -5,-6 -3,-2 -2,2 h -4 l -3,-2 -2,2 -1,-5 -4,-2 h -2 l -6,5 v 2 l -2,-1 v -2 h -8 l -6,-17 v -3 l 2,-1 h -2 l -1,-4 h -2 l 1,-5 -2,-5 2,-3 -4,4 h -2 l -1,-2 -2,2 v -2 h -12 l -1,-5 -4,1 -1,-4 2,-1 1,-4 -2,-2 h -5 l 3,-2 -1,-2 h -3 v 2 l -3,-1 1,-1 -4,-8 v -4 h 2 l 1,-4 1,2 1,-3 3,-1 1,-5 h 8 v -4 l 5,2 1,-3 h 2 l 1,-2 v -8 h 2 l 1,-2 h 9 l 3,-5 -4,-4 3,-3 -1,-2 3,-5 -6,-2 -1,-3 -3,-1 v -2 l -4,-1 -3,-3 3,-2 h -6 l 1,-3 h 9 l 1,-4 -3,-1 v -5 l 4,1 v 2 l 5,-1 1,-2 h -2 v -5 l 3,1 -1,-2 2,-1 1,-6 h 2 v -3 l 3,-1 2,5 3,-2 2,1 v 2 l 2,-1 2,2 h 8 l 4,4 1,-1 v 2 l 8,2 1,8 h 2 l -1,2 h 3 l 2,2 h 3 l 2,-5 3,1 1,-2 h 7 l -2,-3 h 3 l -1,-1 2,-1 h 9 l 1,-2 5,2 3,5 -3,2 2,5 4,3 v 3 l 2,1 v 5 l 3,4 5,1 4,-1 1,-2 2,2 5,1 3,-2 v -3 l 2,-2 4,5 2,1 v -3 l 2,2 2,-2 v -4 l 2,1 v -3 l 14,-15 2,-8 5,-6 2,-7 5,-7 1,1 2,-2 -2,-1 8,-10 -5,-5 -3,-6 2,-4 2,1 3,-4 -1,-3 2,-2 1,2 5,-1 5,3 8,-8 4,3 v 5 l 8,3 13,-12 -5,-2 v -7 h 4 l 2,-4 5,-3 -3,-1 v -3 l -2,-2 8,-10 -2,-3 -3,1 -2,-2 12,-6 3,-4 -3,-4 6,-4 1,-4 v -2 h -3 v -3 l 14,-2 -1,-3 h 4 l 2,-7 4,-3 2,1 6,-5 1,1 -3,-3 1,-4 h -2 l 3,-3 -4,-3 h -3 l 1,-3 -7,-2 v -2 l -5,-1 -5,-6 v -4 l -2,-2 4,-3 4,3 2,-2 -4,-3 4,-3 -2,-2 9,-1 1,-2 -8,-9 3,-2 7,1 3,-2 v -5 h -3 l -1,-2 -5,2 h -6 l -1,2 h -2 l -6,-5 -6,6 -2,-2 -2,2 -7,-1 -4,2 1,4 -3,3 -4,-2 -2,-3 -9,-3 -7,-13 -3,2 -4,-8 -3,-2 -6,1 -4,3 -4,-5 -3,1 -3,-9 1,-3 -5,-1 -2,3 -4,2 -5,9 -3,-1 -3,-5 -6,-2 -4,-7 2,-6 -4,-12 -4,-1 -10,2 v -2 h -6 l -2,2 h -3 l -1,-4 h -4 l -8,6 -12,2 -1,2 -5,-1 -2,4 -3,-1 -4,-5 -6,1 -2,-3 h -8 v -2 l -2,1 v -2 h -3 l -5,-5 v -2 l 3,-1 v -3 l -7,-4 -2,4 -2,-3 -4,3 -3,-2 -6,2 -1,6 -4,2 -1,-2 -3,2 -1,-1 -4,4 h -3 l -4,3 -1,-4 h -3 v -7 l -2,1 -1,-7 -3,-2 v -6 l -3,-1 h -3 l -2,5 -2,1 4,10 3,2 -1,4 -7,2 -7,6 -3,1 -4,-2 v 3 l -7,4 -3,1 -2,-5 -5,-1 -13,5 -6,-7 -2,3 h -5 l -4,-4 -6,1 -5,-6 -5,-1 -1,-2 h -5 l -8,-6 v -2 l -7,-1 -1,-11 2,-2 h 7 v -4 l 4,-2 v -2 l -8,-1 3,-5 -1,-2 2,-1 -3,-5 -4,-16 3,-1 6,2 -1,-2 3,-2 -5,-2 -7,2 -2,-7 -5,-1 1,-3 -4,-5 -2,-8 2,-3 -1,-4 -11,-8 -8,2 -9,-1 -8,2 -8,-4 h -4 l 2,-2 -1,-1 -1,2 -1,-2 -6,3 -1,3 -3,-1 2,-7 -3,-7 h -4 l -3,6 -8,1 -6,-3 v -4 h -11 l -1,-1 3,-9 -1,-3 -5,-2 4,-6 -1,-4 -3,-1 1,-3 4,1 1,-2 -6,-4 1,-5 -7,-4 -4,1 -3,-2 v -4 l -3,-6 -3,-2 h -3 l -2,5 -6,1 -1,3 h -4 l -3,4 -5,2 v 2 l -2,-1 -2,3 5,3 -1,4 -3,-2 -9,1 -4,2 -3,-2 -4,13 h -8 l 1,-3 -3,2 h -4 v 2 l -4,-2 h -3 l -2,2 10,11 1,4 -2,3 6,2 2,3 -3,1 -1,2 2,2 2,-3 1,1 -2,6 3,7 8,3 4,4 -3,1 1,9 -6,5 -2,-1 v 2 l -2,-2 -3,2 -1,-2 h -4 v 2 l -7,7 2,1 V 2 l -3,-1 -3,-5 -3,-1 -2,9 h -8 l -6,2 -6,9 -4,-2 2,-8 -7,-8 4,-2 1,1 3,-4 h 2 l 1,-8 5,-6 -2,-1 1,-3 h -2 v -7 l -2,-4 -4,-3 -1,6 -5,-1 -1,2 1,10 -7,2 -3,5 -2,7 3,3 3,-1 3,4 -2,1 -1,5 -3,1 1,2 -3,2 -2,7 -11,-10 -2,-4 h -8 l -2,2 1,6 -9,-12 h -10 l -5,5 -1,4 1,-1 v 3 l 3,2 -1,2 2,3 -3,2 1,3 3,1 v 7 l -5,-1 v 9 l 4,1 6,8 -1,11 -6,7 h -3 l -2,2 1,-4 -4,-1 -13,9 -6,-4 -6,-2 -2,2 -1,-3 -1,2 -6,-3 3,6 h -5 v 10 h -2 l -4,-3 h -3 l -4,-4 -3,-8 -2,-3 h -2 l -1,-3 -2,-1 -2,4 1,-7 -6,4 -7,-2 -2,2 -3,13 -2,-3 h -5 l -4,-4 5,-6 -3,-15 h -2 v -3 l -5,-1 1,-3 -8,-2 -1,-5 -4,-6 h -2 l 1,2 -3,9 -6,-1 -2,3 2,7 -5,13 1,1 h -2 l -2,-3 -5,-1 -1,-2 -3,1 -6,-8 -8,-1 -1,-2 -6,-2 h -3 l -1,2 h -5 l -2,-8 h -2 l 1,-3 -2,-1 -3,-6 h -5 l -3,-4 h -7 l -14,-7 -6,-8 1,-5 -5,-1 2,-3 v -7 l -4,-5 1,-7 -9,-8 1,-5 -4,-4 4,-2 -6,-6 -1,-3 -9,-5 1,-2 -3,-6 -2,1 -3,-3 2,-4 -1,-5 2,-3 -1,-5 -3,-4 1,-3 -6,-1 -12,2 -10,-5 h -6 l -8,-8 -12,-1 -3,5 -10,4 3,10 -1,2 h -3 v 7 l -2,4 -3,-2 -7,3 -2,-1 -4,3 h -6 v 4 l -2,1 5,10 -1,3 2,5 -3,6 1,2 3,2 7,1 -1,6 3,3 v 3 h 3 l 2,2 h 6 l 1,2 6,2 v 2 l -4,4 h -2 v 2 h -5 l -4,13 -9,8 6,12 -5,2 3,3 -15,5 v 6 l 2,1 1,6 -1,5 4,5 v 3 l 5,4 v 2 h 3 l 3,3 5,1 2,4 7,4 9,2 v 2 l 13,2 13,9 h 3 l 9,6 v 12 l 4,2 4,10 12,12 v 9 l -3,1 2,6 -1,3 h 2 l 2,5 h 2 l 4,6 -1,1 3,1 1,6 6,7 7,5 6,7 h 2 l 9,11 -7,7 v 3 l -3,3 -3,-1 -5,-8 h -4 l -3,3 -1,8 2,1 v 2 l -2,2 7,3 3,4 v 4 l 9,9 -3,11 7,7 h 2 l 2,4 5,2 1,4 -5,4 1,9 2,2 -1,7 4,13 -1,7 2,1 v 5 l -2,2 2,4 v 7 l 3,2 -1,2 3,4 -1,6 3,9 -5,12 1,3 -3,14 6,10 -1,5 2,4 v 19 h 2 l 3,6 -1,8 2,22 -2,14 2,12 4,9 -1,2 2,1 -1,4 2,5 -1,6 -2,2 4,4 -1,2 3,1 1,4 5,3 -1,3 2,3 4,2 1,3 4,3 -2,-6 3,-9 -2,-2 1,-5 3,-4 -3,-4 2,-1 -3,-5 v -3 l 3,-3 3,1 1,-4 6,-4 v -6 l 7,-6 -1,-3 2,-5 5,1 4,-4 1,13 2,2 h 4 l 4,5 -1,2 h 4 v 2 l 4,1 4,4 v 3 l 2,1 v 5 l 7,3 1,3 -2,5 7,2 4,3 v 3 l -2,1 3,3 -2,2 1,2 -6,2 -1,2 -3,-2 -1,2 -2,-1 -1,4 6,12 3,1 7,9 -2,3 3,3 9,2 v 3 l -2,2 2,2 -1,6 h 5 v -2 h 2 l 4,-9 3,-3 8,4 1,2 5,-5 3,-6 2,1 2,-2 2,6 2,1 -1,6 6,6 v 5 l 6,2 -1,2 2,1 -2,3 2,-1 v 3 l 5,8 -1,7 2,-2 3,3 4,9 2,1 -1,3 2,2 3,10 h 10 l -3,9 2,1 -2,8 8,4 v 2 l 3,1 1,5 9,2 v 2 l 3,2 -3,4 1,2 -2,1 3,3 v 2 h 6 l -1,-5 2,-1 4,2 -2,2 1,1 -4,3 v 2 l 2,1 -2,7 h -5 v 5 l 2,3 1,-1 v 3 l 6,1 12,11 2,8 -5,1 -1,4 4,4 5,-2 1,2 h 3 l 4,6 3,1 -1,4 2,3 z m 402,-426 v 2 z m 65,13 z m -129,-10 z"
     id="Sichuan" />
</svg>
