<?xml version="1.0" encoding="UTF-8" standalone="no"?>
<svg
   width="495"
   height="800.5"
   viewBox="-166 -118 495 800.5"
   version="1.1"
   id="svg1"
   xmlns="http://www.w3.org/2000/svg"
   xmlns:svg="http://www.w3.org/2000/svg">
  <defs
     id="defs1" />
  <path
     stroke="#1e90ff"
     stroke-opacity="0"
     stroke-width="0"
	 stroke-linecap="round"
     stroke-linejoin="round"
     fill="#1e90ff"
     fill-opacity="1"
     fill-rule="evenodd"
     d="m 234.5,299.5 -1,5 5,4 6,-1 1,2 6,-4 -2,-3 2,-2 v 3 l 4,1 -4,5 -1,4 h -2 l -1,3 2,4 5,-3 2,2 8,-1 2,2 -1,2 5,4 2,-2 h 8 l 7,2 5,-1 2,1 2,7 6,2 1,3 h 4 l 4,3 2,-4 2,1 v 6 l 2,1 1,5 10,3 v 11 l -10,2 -1,5 -21,6 -4,16 -34,24 -5,7 -7,15 v 20 l 3,10 3,25 15,4 1,3 -3,8 -6,2 -6,15 v 8 l -4,8 -9,-1 -16,-6 -10,10 -34,6 -4,3 v 19 l 3,5 6,3 21,3 3,2 1,28 -4,10 -29,11 -3,6 -1,7 -30,6 -3,-1 -4,3 2,3 -5,2 -2,-1 v -5 l -3,1 -1,-2 -12,-1 1,2 -2,2 -2,-1 -14,4 -6,5 -2,-1 -4,2 3,2 -4,5 -10,4 v -8 l -5,1 1,5 -3,2 v 2 l -1,-2 h -8 l -6,5 -3,-8 h -3 v 4 l -10,3 -1,-3 -3,3 -5,-10 8,-3 -9,2 v -2 l 3,-5 4,-1 -1,-2 2,-1 v -2 l -1,-3 -10,-4 3,-4 -5,1 2,-3 v -3 l -2,-1 -4,2 -1,5 h -3 l 1,2 -2,2 -12,3 -6,-1 v 4 l -5,4 h -4 l -2,5 h -4 v 2 l -4,-1 -2,-4 h 2 v -2 h -4 v -3 l -6,-1 -2,-13 h -2 l 1,-1 -4,-2 2,-1 2,-14 2,-3 -5,-1 v -2 l -3,1 v -3 l -2,2 2,-8 -1,-1 -10,3 v 5 l -8,-1 v -2 l -17,3 v 2 l -7,-1 v 4 h -4 l 2,-4 -7,3 h -9 l -2,-10 1,-5 -3,-2 v -13 h -2 l -1,2 -17,-1 -6,-2 -2,1 v 3 h -2 l -4,-2 -3,1 -2,-6 h -5 l 2,-12 h -3 v -2 h -2 l 1,-6 2,1 v -2 h -2 l 1,-3 -2,-1 3,-4 v -4 l 2,-3 h -3 l 1,-9 -8,-1 -1,-21 h -5 v -16 l 1,-3 h 2 l 1,-2 4,-15 8,-9 v -5 l 2,-4 -1,-3 2,-1 v -5 l -3,-1 2,-8 6,2 v -2 l 2,1 1,-4 2,-1 h 4 l -1,2 h -4 v 2 l 5,-2 2,2 h 5 l 2,2 14,-2 4,-2 -1,-7 3,-1 2,-3 1,1 4,-7 h 2 l 3,-9 3,1 2,-5 h -2 v -2 h 2 l -2,-7 -4,-6 -5,-2 -9,1 -2,-10 v -12 l -1,-2 h -2 v -5 l 6,-1 1,-6 3,4 3,-3 -2,-2 v -4 h -4 v -20 l -1,-4 h -2 l -2,-3 h 2 v -2 l 6,-1 -1,-4 2,-1 1,-11 -6,-1 -1,-3 2,-4 -2,-1 -8,9 v -2 l -7,2 -2,-9 4,-1 v -3 l -3,1 -3,-4 7,-1 v -2 l 2,-1 -2,-5 1,-1 -2,-2 v -2 l 2,-1 -1,-3 6,-1 4,-8 2,1 2,-3 -5,-1 -2,-3 -9,3 -2,-1 v -3 l -4,-3 h -2 l -1,3 -2,-2 -2,1 -1,-3 2,1 v -3 l -3,-4 h -2 l 2,-3 11,-5 -1,-6 -2,-2 2,-1 -1,-4 4,-1 -1,-10 h -2 l 1,2 h -5 l -4,-8 -3,-1 4,-9 4,-4 -4,-9 4,-1 -3,-3 3,-2 -1,2 3,2 -1,-8 3,-1 2,2 3,-1 v -2 l 2,-1 -5,-5 v -2 l 9,-7 v -7 l 20,-5 v -5 l 3,-1 -1,-2 2,-2 v -4 h 6 l 1,2 1,-2 h 5 v 4 l -1,-2 -2,4 v 4 l 3,4 h -2 v 3 l 4,2 v 8 l 2,3 3,-2 1,5 11,-3 4,-5 23,8 8,4 1,2 h 3 v 2 l 6,2 -1,-3 4,2 7,-4 -2,-1 3,-4 h 5 v -2 l 2,-1 -3,-2 v -2 h -2 v -3 l -2,-1 3,-6 2,-17 -1,-2 -2,1 v -2 l 2,-1 -1,-2 h -5 v -7 l 5,-1 -2,-4 4,-2 h 5 v -2 h 3 v -2 h 3 l 1,-2 -9,-9 -1,-6 -4,-2 -3,2 -1,-10 1,-2 2,2 1,-3 9,-1 v -4 l 6,-1 v 2 l 5,1 6,-2 7,2 -2,-2 1,-4 2,-1 -5,-8 h -2 l -1,3 -3,-1 -1,2 -2,-2 -11,-2 -4,-2 -1,-3 -1,2 h -2 l -1,-1 3,-2 -2,-2 v 2 l -2,1 v -2 h -4 l 2,-6 -3,-6 3,-2 v -2 l -5,-1 -3,-4 5,-2 -1,-4 4,-2 -4,-5 1,1 5,-3 v -5 h 3 l 1,2 2,-4 -1,-5 4,-1 4,-6 -2,-14 -2,-2 v -11 l -2,-2 v -5 h 13 l 2,-2 -5,-7 2,-1 -2,-6 5,1 v -2 l 5,-6 4,-2 7,2 2,3 4,-8 5,2 3,-9 6,-2 3,3 9,-3 v -2 h -2 l 2,-2 -2,-1 4,-3 -4,-7 h 5 v -2 l 2,2 1,-2 h 2 l 1,2 v -2 l 5,1 -1,-1 6,-5 -4,-3 -3,3 h -2 l -1,-6 1,-2 h 4 l -6,-3 v -4 l 6,-1 -2,-3 3,-4 3,3 4,-4 v -5 l 5,1 3,-3 h 4 l 12,5 2,4 6,3 15,-3 2,3 5,-1 3,5 -3,6 3,3 1,10 5,5 4,-1 3,5 4,1 v 3 l 1,2 h 3 l 2,7 5,2 1,8 2,1 -3,2 -2,4 2,3 7,-5 2,4 v 5 l 2,-2 3,2 1,-6 h 6 l 5,7 8,1 3,-2 3,4 h -2 l 1,4 h 4 v 2 l 3,1 -1,4 -6,3 -3,-1 -2,13 5,4 1,-5 3,1 1,-2 h 4 l 1,4 1,-1 4,3 -2,2 1,5 -5,14 -3,-2 -2,1 -2,-2 -2,4 -6,-4 h -5 l -1,-3 h -2 l -3,-3 -8,1 -5,4 -13,1 -3,2 -7,-3 2,-2 -5,-4 -1,-3 -11,-1 -1,2 h -2 v -2 l -5,-1 -1,2 -3,-2 v 4 l 4,6 -3,3 -3,9 -6,2 -1,7 5,2 -2,4 -2,-1 -4,2 3,1 1,4 -3,-1 -1,2 2,6 3,-1 1,11 5,9 4,4 v -2 l 1,1 v 3 l -2,1 1,2 -3,-1 1,7 3,-1 4,6 1,5 h 2 l -5,2 v 5 l -3,4 3,3 -1,4 -2,-1 -2,2 3,2 3,-3 1,3 h 5 l 1,2 7,3 -1,1 2,3 -2,1 -1,-2 -1,4 -1,-1 v 2 l -2,1 2,2 -1,1 h 3 l 1,4 4,3 9,1 3,3 2,-2 2,1 1,2 -2,3 2,1 v 2 h 3 l -2,2 3,1 -1,3 2,2 2,-1 -2,4 2,3 -3,8 -3,-2 v 5 h -3 l -2,4 1,4 -3,-1 -1,4 h -4 l 1,7 5,-6 1,5 4,-1 2,3 -2,4 2,3 6,-4 1,-3 3,-1 4,5 5,3 -1,4 -6,-2 -1,2 1,3 7,2 v 8 l 3,4 3,-3 h 3 l 5,-6 -4,-6 v -3 l 1,-3 6,-1 -2,-6 7,-5 8,1 1,-2 h 3 l 9,5 5,1 h 4 l 1,-2 6,-2 22,9 1,2 -8,17 -2,1 3,9 -5,3 -1,10 -2,1 2,1 1,4 -5,5 -3,-1 -1,6 h -2 l 1,21 -9,1 v 3 h 4 l 1,8 2,3 -3,3 -2,-4 -5,2 h -7 z m -15,-13 -10,-5 -14,1 1,9 -10,1 -2,-12 -5,1 v 2 h -4 l -3,4 v -3 h -2 v -2 l -6,1 -1,-5 -4,-1 1,1 -5,5 -7,1 v 2 l -6,4 2,3 -6,2 1,1 -4,2 1,5 -1,1 -2,-2 v 2 l -3,2 3,5 2,-1 1,5 21,-5 1,2 h 7 v 3 l 9,-3 -1,4 4,7 v 3 l 5,-1 2,-3 1,-16 6,-1 7,4 14,-2 14,-10 -1,-8 z"
     id="Tianjin" />
</svg>
