<?xml version="1.0" encoding="UTF-8" standalone="no"?>
<svg
   width="614.42584"
   height="949.5"
   viewBox="-166 -118 614.42584 949.5"
   version="1.1"
   id="svg1"
   xmlns="http://www.w3.org/2000/svg"
   xmlns:svg="http://www.w3.org/2000/svg">
  <defs
     id="defs1" />
  <path
     stroke="#1e90ff"
     stroke-opacity="0"
     stroke-width="0"
	 stroke-linecap="round"
     stroke-linejoin="round"
     fill="#1e90ff"
     fill-opacity="1"
     fill-rule="evenodd"
     d="m 227.40995,519.49998 4,1 4,-2 v -13 l 4,-2 1,2 2,-1 -3,-6 4,-3 h 3 l 1,-2 3,1 v -3 h 4 l 3,4 1,-2 3,4 h 2 l -3,-7 3,-11 3,-2 -4,-6 1,-4 -3,-2 2,-2 v -3 l -2,-2 -3,3 -2,-3 2,-3 -6,-6 h -3 l -2,-2 1,-3 -3,-4 v -3 l 7,9 h -2 l 2,2 2,-1 1,-6 5,2 4,-1 v -11 l 2,1 2,-2 -3,-4 -1,-6 -7,-16 2,-1 4,3 4,-1 1,3 h 2 l 2,-4 2,3 5,-1 v 3 l 4,2 2,4 1,-3 -2,-2 3,-4 -1,-3 3,-6 7,4 1,3 6,4 2,-1 4,4 4,-3 -1,-2 h 2 l -1,-3 -4,-2 3,-2 8,5 2,4 4,1 h 3 l -2,-2 1,-1 2,2 h 4 v -7 l 3,3 h 6 l 3,3 7,-4 9,-2 10,10 2,-2 7,3 -2,-2 v -5 l 6,6 4,-7 1,-8 -3,-8 -9,-7 7,-2 v -3 l -3,-6 -4,-3 -2,-18 3,-7 2,-19 11,-8 5,-14 -1,-2 -7,1 -3,-6 2,1 7,-2 v -2 l 7,-7 3,1 1,-4 -6,-1 -1,-5 8,2 10,-5 3,-14 4,-2 h 9 l 3,-3 -2,-1 1,-1 7,5 7,-16 v -3 l -4,-3 -14,-5 -13,-12 -8,2 -5,-1 -1,-2 5,-11 -2,-3 -6,-1 -3,-6 -4,-3 -5,-8 -16,-5 -3,-5 -3,-1 -4,-5 -2,1 -7,-2 -2,5 h -10 l -4,4 -19,-2 -35,-12 -5,-5 -18,-7 -15,-8 -5,-7 -5,-2 -1,-3 21,-17 9,-17.999996 2,-30 9,-28 8,-7 15,-22.9999997 21,-22.0000003 4,-17 -1,-9 -5,-4 -13,-6 -3,-5 -5,-18 -5,-5 -1,-9 3,-6 v -9.000004 l -3,-4 1,-3 -3,-6 h -5 l -1,-2 -13,6 -6,-1 -8,-4 -3,7 -5,6 -6,3 -3,9.000004 -19,-5 -21,5 v 20 l 2,4 -2,5 -6,3 -12,-2 -3,-5 -3,1 -10,17 -4,11 v 3 l 2,2 -5,12 -5,1 -12,14.0000003 3,7 h 3 l -4,7 h -2 l -6,7.9999997 -7,5 v 3 l 2,1 v 8 l -4,5 2,5 -4,5 v 3 l -4,4 1,7 3,4 -3,4 1,12 -3,3 -2,9 3,6.999996 -4,2 -1,6 2,5 -3,5 4,11 4,5 -4,13 -11,9 -3,19 5,13 9,13 -8,16 2,15 -7,15 -5,4 -12,5 -10,-2 -1,13 -1,4 -2,1 -28,1 -8,-3 -16,2 -12.0000005,5 h -4 l -7,5 -13.9999995,6 -16,12 -29,3 -11,6 -70,7 -2,10 -6,1 -3,3 h -7 l -6,5 2,3 8,-2 4,1 7,-5 6,-1 5,6 7,-1 3,-3 5,3 3,-2 21,5 -3,8 1,4 7,3 2,-1 v 2 l -5,5 h -2 l -4,6 -6,-2 v 5 h -2 l -2,8 5,9 16,-1 11,-9 3,4 h 6 l 1,2 5,2 v 7 l 5,5 2,7 4,4 -1,4 7,4 v 8 l 2,2 7,-1 2,1 v 4 l 5,2 4,-4 2,3 h 3 l 4,3 9.9999995,1 v 6 l 3,6 -1,11 h 13 l 5.0000005,5 v 4 l 4,2 -1,2 6,7 3,9 -4,5 -8,-2 -1,3 -6.0000005,-1 v 2 h -2 l -4.99999996,7 4.99999996,9 -1,6 2,3 h 2 l 1,5 4.0000005,2 -1,1 2,6 -5.0000005,4 2.0000005,3 4,2 h 4 l 3,-3 9,11 -1,10 1,2 3,-1 2,2 1,10 h 2 l 1,2 -1,2 h -2 v 2 l 3,3 1,4 5,1 4,7 v 4 l -3,2 v 10 l 4,2 4,13 2,1 -5,12 -5,-2 -3,2 -2,-1 -4,6 -2,-1 -1,3 -3,1 -3,4 1,2 h -4 l -3,21 3,7 -3,1 4,7 2,-1 6,3 1,3 -5,2 2,4 -1,2 h 2 l -2,3 2,3 4,-7 2,2 2,-1 v 7 l 1,2 2,-1 2,2 -1,6 4,-1 v 4 l 6,3 4,-2 2,2 1,-2 3,1 v 8 l 2,-2 -1,-4 h 5 v -2 l 5,-1 8,-5 2,3 1,-2 1,2 7,1 1,2 3,-2 1,4 -3,4 -2,-1 -1,-5 -3,5 -3,1 v 3 l 6,1 -1,7 2,2 2,-1 2,5 2,-3 1,1 -1,3 h -2 l 7,6 -2,1 4,4 3,-2 2,4 -1,5 3,-1 v 10 l 2,1 3,-5 1,-6 3,1 v -2 l 20,4 2,2 2,-1 v 7 l 9,-2 1,2 1,-4 h 3 l 1,2 -6,3 v 7 l 2,2 1,8 1,2 h 2 l 1,8 2,1 -1,-2 2,-1 1,-4 7,-6 2,-4 3,6 h 8 l 2,10 -1,2 2,2 v 3 l 4,1 4,10 2,-1 5,9 h 3 v 2 l 2,1 2,-3 -1,-5 1,-1 2,2 5,-3 1,1 2,-4 8,-4 3,-4 1,-5 2,-1 -2,-4 1,-9 -3,-8 1,-6 h -4 l -1,-5 -4,-4 4,-14 3,1 -3,-10 -2,-2 1,-3 -2,-4 h -2 v -6 l 6,-7 4,-1 1,-3 h 5 l 1,3 v -4 l 7,1 3,2 h 2 l 1,-3 2,3 1,-3 3,6 5,2 3,-5 11,9 3,-1 v -7 l 2,-1 7,4 4,-5 v -3 l 2,2 h 6 v -8 h 3 v 3 h 2 l 1,-3 1,1 1,-5 -3,-4 4,1 1,-2 -2,-4 -2,1 -4,-6 v -6 l -6,-2 3,-1 v -3 l 4,-2 4,1 -1,-3 2,-2 2,2 2,-2 1,1 v -5 l -7,2 -2,-5 h 3 v 3 l 2,1 v -3 l 3,-5 h 2 l 1,-5 -4,-2 v -3 l 2,-1 v -8 h 2 l -1,-2 h 2 v -4 l -3,-3 1,-4 -4,2 1,-5 -2,2 -2,-2 1,-4 h -2 l -1,-3 -2,1 -5,-9 h -3 l -1,-6 -2,4 -1,-2 -2,1 v 2 l -4,-4 -3,3 -6,-5 -4,1 -6,-10 -4,3 -1,-1 v 2 l -2,-6 -1,4 -5,-2 v -3 l -2,-1 -1,5 -2,-4 -1,1 -3,-2 -1,7 -3,2 -10,-7 -3,-5 2,-2 6,7 v -4 l -3,-3 2,-3 v -9 l 1,-2 h 3 v -3 l -7,-2 v -5 l 3,2 1,-3 -2,-4 4,-6 -4,-3 -1,-3 -2,4 -1,-4 h -5 l -3,-5 -3,1 v -3 l -3,-4 -6,-1 -1,-5 5,3 1,-4 4,3 7,1 -1,-4 4,-1 -5,-5 v -3 z m -71,264 v -8 h -5 l -17,6 -2,2 h -5 l -1,8 10,-2 3,-2 v 2 l 5,-3 1,-3 1,3 2,-1 -1,-2 2,-3 3,-1 1,3 z m 3,7 -2,-4 v 3 z m 0,-8 v 1 z"
     id="Ningxia" />
</svg>
