<?xml version="1.0" encoding="UTF-8" standalone="no"?>
<svg
   width="613.2149"
   height="799"
   viewBox="-166 -118 613.2149 799"
   version="1.1"
   id="svg1"
   xmlns="http://www.w3.org/2000/svg"
   xmlns:svg="http://www.w3.org/2000/svg">
  <defs
     id="defs1" />
  <path
     stroke="#1e90ff"
     stroke-opacity="0"
     stroke-width="0"
	 stroke-linecap="round"
     stroke-linejoin="round"
     fill="#1e90ff"
     fill-opacity="1"
     fill-rule="evenodd"
     d="m -86,219 -4,-8 -1,1 -4,-2 1,-2 -5,-1 1,-4 -11,2 -3,2 -1,-6 -4,2 -1,-3 -4,3 v -2 l -4,-2 2,-1 -2,-2 v -3 l 1,-1 1,2 1,-4 -2,1 -1,-4 -2,2 v -17 l 1,-2 3,1 -3,-4 v -4 l 2,-1 -1,-2 -5,-1 -2,-5 -14,-2 v -4 l -3,-1 -9,1 v -3 l -3,-3 -4,-1 v -2 l 2,-1 -1,-3 3,1 3,-2 -2,-1 -1,-8 h -2 v -7 l 3,-1 1,-3 3,1 5,5 v 2 l 6,3 h 15 l 5,-6 2,2 5,-4 5,1 1,-11 4,-1 v -7 l 2,-1 -1,-6 h 2 l 2,-6 h -2 l -2,-4 1,-1 -4,-1 2,-4 -2,-4 5,-8 -1,-3 3,-3 4,2 3,-8 10,-1 2,2 2,-2 4,1 1,-3 9,-1 -5,-11 V 25 l -5,-6 3,-2 4,2 v -7 l 3,-4 -1,-4 h -9 l -2,-3 3,-3 -1,-3 2,-7 2,-1 v -5 h 2 l -1,-2 6,-1 1,-5 2,1 9,-3 4,2 1,-2 9,7 1,4 h 3 v -4 h 2 l 4,4 h 4 l 4,3 2,3 -3,8 1,2 9,6 1,6 -3,-1 2,1 2,7 3,-1 v 2 l 5,3 3,7 h 2 l 3,-3 4,1 v -2 l 4,1 7,-7 2,1 2,-2 6,-1 2,-3 h 4 V 8 L 37,5 45,4 V 2 h 4 v -3 l 2,-1 7,3 2,-1 1,-12 -6,-5 v -3 l -9,-15 1,-5 3,-3 -3,-7 6,-8 -2,-2 -8,-2 -5,4 h -2 l -1,-3 -4,3 -7,-1 2,-3 -1,-3 -9,-4 -1,-3 h -2 l -1,-2 -7,-2 1,-2 -8,-10 6,-7 -2,-5 1,-6 h 2 l 4,4 5,-9 4,1 8,-6 7,-2 v 4 l 6,2 2,7 5,5 2,-1 7,7 h -3 v 2 l 19,2 6,3 7,10 h 5 l 6,-3 7,3 -1,3 3,2 v 3 l -2,2 v 7 l 7,4 v 2 h 4 l -3,12 12,6 1,4 h 4 l -1,3 13,3 3,-3 4,2 1,-2 5,-1 8,10 13,-6 3,4 v 4 l 4,4 5,-2 v -5 h 2 l 6,7 v 8 l 4,7 h 7 l -2,20 -3,3 2,1 v 2 l 2,1 10,-4 8,3 3,-3 3,2 3,-6 1,2 7,2 5,-3 6,-1 5,3 h 5 l -4,4 2,1 v 8 l -8,7 v 22 l -7,-3 -4,8 -1,6 2,2 v 3 l -5,4 -3,-1 1,3 h 2 l -1,6 -2,3 -4,2 v 4 l 1,2 4,-1 2,3 v 5 l 6,4 v 2 h 4 l 10,-5 2,-2 -1,-2 2,-3 5,3 2,6 -2,8 1,3 h -2 3 v 2 l -2,2 h 3 l 3,12 2,2 5,1 -10,5 2,12 5,-1 v 2 h 2 l -1,9 5,4 2,-2 2,1 1,7 5,1 5,-5 1,3 3,1 h 12 l 8,-4 11,4 5,-4 -3,-4 v -12 l 9,-1 v -8 h 4 v -5 l 6,-3 1,3 5,1 1,-2 9,-2 3,5 -2,1 v 2 h 4 l 1,5 6,8 h 11 v 5 l 3,8 v 15 l 2,5 -1,5 h -3 l -1,-4 -1,1 -1,4 -2,1 1,3 -3,7 1,1 h -2 l -6,6 -3,-2 v -3 l -3,-5 -8,2 -5,-7 -7,-1 2,-1 -1,-2 2,-2 h -3 l -5,3 h -3 v -5 l -3,3 h -2 l -3,-3 -3,2 -2,-1 v -2 h -3 v 3 l -1,-2 v 2 l -5,-1 -3,3 -4,-3 -4,1 v 4 l 5,4 1,3 -3,3 v 3 l 5,2 8,-1 v 8 l -2,4 2,2 1,-1 -1,5 2,4 -6,3 1,11 -3,4 -8,2 -4,-1 -2,2 -3,-1 -2,3 1,6 -1,-1 v 2 l -8,7 -3,-1 -3,5 v 4 l 2,2 -2,1 v 3 l -2,2 1,2 -2,5 3,3 11,5 v 4 l 4,2 -3,9 h 3 l 2,3 2,-1 v 3 l -2,1 5,2 2,-3 h 6 l 1,-2 h 2 l 1,5 h 3 l 3,3 -6,5 -1,-1 v 5 l 5,2 4,-1 1,2 3,-6 4,-2 3,2 -2,2 2,5 h 8 v 5 h 2 l -1,2 2,2 -2,5 h 2 v 4 l -4,17 -1,-1 -2,3 -8,2 v -4 l -2,1 -4,9 v 4 l -2,-1 3,3 4,1 4,7 10,-2 17,2 2,-2 7,2 4,-1 7,-9 5,1 1,4 h 7 l 1,2 4,-2 h 5 l 2,-6 3,5 -2,9 1,2 5,1 h -2 v 3 h 3 l 1,-2 8,5 v -2 l 7,1 5,7 h 3 l 2,-3 4,4 -2,2 v 11 l -6,6 v 5 l -4,7 3,10 -3,1 -4,7 -5,1 v 10 l -6,9 h -3 l -3,-6 -5,3 -5,6 -9,2 3,4 v 2 l -3,1 v 5 l 4,3 7,-3 1,13 2,1 v 4 l 3,4 4,1 -7,4 -3,-3 -4,1 -4,4 -2,-1 -3,8 -3,-2 v 2 l -10,-2 -5,-3 -3,3 -5,-1 -5,-4 v -2 l -4,-1 -10,6 3,15 h 3 l 1,2 -11,7 6,1 -1,5 h -2 l 1,8 3,1 -1,17 h -6 v 6 l -9,9 -3,-1 v 2 l 2,1 -4,2 1,11 -13,14 -3,-2 -6,3 -5,7 -5,2 v 8 l -2,2 h -13 l -3,5 -6,-3 -1,2 2,9 h -5 l -4,-2 -4,2 -2,4 -8,-4 v -5 l -2,-3 3,-2 -1,-2 -5,-4 -6,-2 -1,-4 -7,-1 -1,2 -3,-1 -3,3 h -8 l -9,-4 -4,3 -3,-1 -2,2 h -4 l -2,-1 -1,-5 -4,-4 -8,5 -5,-2 -1,1 -2,-6 1,-4 h -5 l -6,-6 1,-8 -5,-5 v -10 l -4,1 -1,4 -3,1 -3,-6 -5,4 -5,-1 v -11 l -5,-3 -9,2 -2,3 v 5 l -7,4 2,3 5,2 1,3 -4,4 2,3 -1,3 -8,4 -9,1 -1,3 -4,1 -9,6 -3,5 -4,2 -5,-1 1,-3 -2,-1 h -2 l -5,5 v -4 l -9,-7 4,-5 v -2 h -3 v -2 h 2 l 2,-6 h 2 l 8,-10 2,2 4,-3 9,-12 2,-8 -1,-3 -3,-2 -3,2 -1,-1 v 2 l -1,-7 -3,2 -5,-8 -13,-4 -9,2 -3,7 -2,16 -10,1 -28,17 -4,-5 -3,-1 -9,1 -1,-12 -7,-10 2,-9 v -15 l -2,-1 -2,-5 1,-6 -9,-7 -2,-6 -10,-2 2,-4 -4,-6 4,-6 4,-1 -4,-1 v -2 l -3,-1 v -5 l 3,-5 -2,-1 v -2 l -2,-1 -1,-4 -4,-5 -4,1 -1,-7 -6,-6 v -3 l 4,-8 3,1 7,-3 v -2 h -2 l 1,-5 -2,-2 2,-4 3,-3 6,-2 v -2 l 5,-2 5,-5 8,-1 -2,-8 h -6 l -1,-3 -3,-2 h -4 l -1,-4 -7,-6 -1,-5 h -3 l -3,3 -2,-1 -5,3 -2,-1 -4,-9 -4,-4 -6,-1 -9,10 -6,-7 -1,-9 -3,-3 -4,1 -2,-3 v -5 l -2,-4 -3,-1 -2,2 -4,-2 2,-6 -2,-2 2,-7 -2,-3 v -4 l 5,-4 3,-9 7,-5 -2,-4 1,-3 6,-6 3,1 6,-6 8,-4 2,-3 7,3 1,-3 4,-1 6,4 4,-4 1,2 h 4 l 4,-6 -3,-3 v -7 l 3,-5 -1,-7 2,-4 v -10 l 2,-2 -2,-6 2,-9 -4,-10 1,-7 -3,-15 1,-3 -3,-6 v -4 h -2 l 3,-5 -5,-3 8,-9 h 2 l -4,-1 -7,8 v 3 h -2 l -6,6 1,-3 -2,-3 -2,4 -7,-3 v 4 l -3,1 1,2 -2,6 -2,1 v -4 l -3,4 -3,-3 -6,3 1,-1 -8,-8 z M 68,634 v 2 z m 1,2 -1,1 2,-1 z"
     id="Anhui" />
</svg>
