<?xml version="1.0" encoding="UTF-8" standalone="no"?>
<svg
   width="1438"
   height="911"
   viewBox="-166 -118 1438 911"
   version="1.1"
   id="svg1"
   xmlns="http://www.w3.org/2000/svg"
   xmlns:svg="http://www.w3.org/2000/svg">
  <defs
     id="defs1" />
  <path
     stroke="#1e90ff"
     stroke-opacity="0"
     stroke-width="0"
	 stroke-linecap="round"
     stroke-linejoin="round"
     fill="#1e90ff"
     fill-opacity="1"
     fill-rule="evenodd"
     d="m 124,687 8,-10 19,-2 10,-3 1,-4 4,2 h 6 l 1,-2 3,2 2,-1 2,2 11,2 1,-5 h 2 l -3,-5 2,1 v -4 l 2,1 v 10 h 2 l -1,-9 h 2 l 1,8 6,1 12,7 v 5 l 8,-1 2,2 -8,1 -1,5 7,-1 2,7 -5,1 v 3 l 3,2 v 3 h 2 v 2 l 3,1 h 5 l 9,10 1,4 -3,5 2,8 5,-2 10,19 -2,8 4,20 h 7 v -2 l 8,-2 2,-4 -3,-2 2,-2 1,3 2,-1 -2,-4 3,-1 -1,-7 6,-2 -2,-3 h -3 l 1,-2 5,-1 -1,2 h 6 l -2,-2 4,-3 h 5 l 4,2 2,6 3,2 8,12 h 3 l 1,4 1,-2 8,2 2,-2 4,3 h 4 l 3,-6 h 4 l 2,-2 1,1 5,-5 2,-7 21,6 -2,-14 2,-8 -1,-7 20,1 1,-5 5,1 2,-3 h 3 l 5,2 v 2 l 3,1 v 2 h 2 v -3 l 6,2 6,-1 3,2 -2,2 4,4 -2,6 -4,3 v 2 l 8,3 2,-2 1,3 8,2 -4,8 -4,2 -2,3 9,7 -2,16 h 2 l 1,-2 3,3 3,-1 v -6 l 2,2 2,-2 h 7 l 2,-1 v -3 h 11 l 1,2 h 4 l 5,-3 2,-10 3,-3 2,-8 -4,-15 3,-7 3,1 4,-4 -3,-4 2,-4 h 5 l 4,-4 1,-5 4,2 4,-2 h 6 v 4 l 6,2 3,-2 7,4 5,-4 4,1 8,-7 -5,-4 -3,1 -4,-2 v -4 l 4,-1 v -3 l -2,-1 8,-2 2,-7 -3,-3 6,-1 5,-15 6,-7 1,-19 11,-5 3,3 15,-4 h 16 l 3,-4 1,-5 12,-3 3,1 4,-4 8,2 4,9 8,-2 1,2 5,1 -2,-2 7,-7 h 4 l -2,-4 -5,-3 v -3 l 4,-1 v -2 l -3,1 2,-15 7,-12 5,-5 5,-3 6,6 v -6 l 3,-1 -2,-1 v -4 l 8,-3 1,-3 -2,-2 v -5 l 2,-6 5,-6 2,-9 4,-8 2,-12 h 3 l 7,-6 h 6 v 6 l 2,3 3,-2 1,2 3,-1 -1,-8 5,-7 2,7 2,-1 4,3 5,-5 6,-2 v -2 l -3,-3 v -3 l 2,-5 6,-4 -1,-3 h -3 l -2,-2 1,-5 h 6 l 2,2 -1,2 4,3 -1,3 h 5 l 7,-15 -1,-4 -2,-1 6,-15 3,-3 4,1 4,-3 v -3 h 2 l 1,-3 1,3 4,-3 2,-4 5,-2 1,2 -3,1 -5,10 6,-1 1,-4 8,-11 10,-3 2,-6 -1,-3 -4,-1 -3,3 1,2 -2,-1 -2,4 h -2 l 4,-7 -2,-3 -10,7 6,-8 -1,-3 2,-1 v -3 l -11,-1 -5,-6 -6,-2 -2,-6 h 4 l 2,-3 v -7 l 7,-7 7,-2 1,5 7,-2 v 4 l 3,-1 v 2 l 2,-2 h 4 l -3,-9 5,-1 7,7 2,5 -2,1 -5,9 -1,5 -3,2 v 3 l -4,6 -1,3 3,1 -1,-2 2,1 2,-2 1,2 3,-1 v 2 l 4,-1 1,2 1,-3 3,-1 6,1 3,-3 1,1 4,-6 3,-1 3,2 9,-2 v -4 l 4,1 1,-2 1,3 h 4 l 3,-4 2,2 8,-4 7,1 1,-4 -2,1 v -3 l -2,-2 h 2 l -2,-2 -1,-14 -2,-2 2,-3 -1,-6 -5,1 v -3 l 2,-2 -2,-6 1,-2 5,2 10,-1 -3,-7 h -2 l -3,-3 -1,-4 5,-5 2,-5 h 5 v -6 l 12,-1 3,2 -1,4 4,3 v 3 l -2,1 1,6 4,2 -1,1 4,-2 2,-7 3,-2 1,2 2,-3 -3,-1 -2,-5 2,-2 5,2 3,-4 -2,-10 5,-7 -2,-4 -8,-3 -3,1 -5,-8 -6,-2 v -2 l 6,-2 4,1 4,2 v 6 l 5,3 14,1 3,-2 1,-3 20,-13 6,-1 5,-4 3,1 8,-7 14,-3 3,3 5,-1 1,-3 -4,-3 1,-2 3,-2 8,-1 10,-12 10,-6 1,1 -3,2 -1,3 h -3 l -9,6 7,4 v 3 h 5 l -3,3 6,1 2,-2 -3,-6 5,2 3,-2 1,6 8,3 -4,-13 v -3 l 2,-2 5,-3 7,-1 2,-2 2,1 5,-3 2,-8 29,-13 7,-1 3,-5 h 6 l 5,20 2,-8 7,-2 2,-2 -1,-2 6,-3 2,2 -4,9 7,3 1,-2 h 2 l 3,6 -3,3 v 2 l 9,-1 4,3 h 16 l 2,2 1,-2 5,-2 2,-4 -1,-1 6,2 6,-4 2,1 1,-2 -7,-7 1,-1 h 9 l 2,1 -1,4 2,2 3,-1 6,-8 v -7 l 2,-3 -2,-8 2,-5 5,-3 -2,-4 -14,5 -7,-1 v -2 l 4,-3 v -13 l 2,-6 2,-1 h 14 l 1,-4 -2,-3 9,-3 1,-3 -5,-4 v -5 l -2,-1 v -3 h -4 v -4 l 2,-2 -1,-2 7,-8 v -2 l -4,1 4,-7 3,-1 2,-4 10,3 v -2 l 4,-3 -2,-4 -4,-3 h -3 l 1,3 -3,-3 -1,2 -1,-2 -9,1 -3,3 -5,1 -12,-3 1,-3 -2,-1 -3,3 h -5 l -4,2 h -14 l -10,-3 -1,-4 2,-1 -10,-5 v 2 l -7,1 -2,6 -3,-2 -2,-4 -1,-8 -4,-2 1,-3 4,-1 3,-4 -5,-3 1,-2 h -3 l -2,-2 v 3 l -3,1 -7,-5 1,7 -1,1 -3,-2 -1,3 h -5 l -1,5 -3,1 v 3 l -3,1 -17,4 -25,1 -15,-2 -1,-3 -5,-1 -11,7 -1,5 -6,-3 -1,-2 -9,-3 -4,-4 v -7 l -11,-8 -2,-8 9,-1 -9,-7 -7,-2 -1,2 3,2 v 4 l -10,4 -10,1 -12,-3 -6,-6 2,-6 -1,-3 -3,-1 4,-8 -4,-6 -12,1 -1,-2 -3,3 -3,-1 -7,-9 -4,-1 -6,-5 1,-7 -2,-2 -3,1 -6,-3 -14,2 -10,-3 -4,1 -14,9 h -6 l -5,6 -13,2 -1,2 -9,-2 -4,1 -11,11 -4,2 -27,2 v 4 l 5,3 h 4 l 1,2 -1,5 -10,1 1,4 -2,4 7,7 -4,6 -14,11 -11,4 -4,4 -9,1 -5,4 -7,2 -2,6 -17,3 -1,8 8,8 v 6 l 2,2 v 2 l -6,1 v 2 h 5 l -2,3 -9,3 -10,15 -6,6 -3,-2 h -7 v -3 l -20,6 h -13 l -2,-1 -2,-5 1,5 -22,2 -7,2 -7,-11 2,-7 -3,-4 -4,1 -7,-4 -3,1 v 6 l -3,-1 3,-11 -3,-1 v -2 l 4,-3 -2,-1 -12,11 -1,-1 2,-10 3,-1 2,2 -2,-3 -4,1 -1,6 -4,-1 -3,1 -1,4 -4,-1 -2,-3 -1,-10 -7,-3 -4,-6 -1,-5 6,-3 -2,-2 h -5 l -7,-33 9,-22 7,-4 23,-3 h 15 l 5,-2 7,-21 2,-12 -1,-9 -3,-6 -5,-3 -4,1 -5,9 -9,5 -5,-2 -5,-22 -19,-16 -5,-24 -12,-10 -10,-4 h -24 l -18,4 -3,2 -2,12 -8,5 -7,-7 v -4 l -6,-4 -6,-1 -3,5 -5,-4 -14,-1 -20,-5 -7,-9 -12,-6 h -13 l -4,2 -23,-18 v -5 l -13,16 -3,1 -3,11 2,2 -6,3 v 7 l -5,2 -2,6 -5,5 h -18 l -7,2 -1,6 -6,12 -2,10 -4,4 -10,17 -6,2 -11,-4 h -5 l -8,5 -16,-2 -6,2 -14,-2 -9,4 -19,-3 h -8 l -6,2 -9,-3 -2,5 -7,7 v 9 l -4,-2 v 5 l -3,2 -2,-1 v 2 l -4,2 -2,8 -3,3 -1,-2 v 4 l -7,10 -9,6 h 2 l -15,17 -4,1 -5,10 -6,-8 -6,-4 2,-8 -6,-1 -2,-3 h -3 l 3,1 -5,2 -1,-1 -3,9 1,2 h -2 v 3 h 3 l -2,2 1,4 -3,1 v 3 l -6,-6 -1,3 h -2 l 1,4 3,1 -3,5 v 3 l 7,-1 -1,1 4,5 -3,3 -1,-1 -5,7 -7,-1 -5,-4 -11,3 H 59 v 3 l -5,-1 -2,3 -3,-1 2,2 -6,2 1,2 -2,1 2,3 -3,5 2,3 -2,2 1,6 -3,4 -3,-1 -5,4 v 7 l -3,5 -3,1 1,5 -3,13 h -2 v 3 l -8,7 -1,4 -3,1 -3,4 4,5 -1,3 -3,4 -2,-1 1,5 -2,4 -3,-1 -5,5 -5,10 v 6 h -4 l -5,4 -12,5 -2,-2 v 2 l -4,-2 v 2 h -2 l -1,2 -3,-1 -2,2 h -3 v 4 l -3,3 v 3 l -2,1 -1,4 -11,9 1,2 -4,6 -2,-2 -2,4 1,1 -2,1 v 2 h 2 l -3,2 -1,8 -4,5 h -3 v 7 h -3 v 2 h 2 v 3 h 2 l -1,3 2,-1 3,3 v 4 l -4,5 8,3 2,3 v 5 l 4,7 -2,3 1,2 9,-4 v 8 l 4,4 h 4 l 1,6 h 2 l 1,28 -3,10 -2,2 1,2 -3,2 1,9 -10,5 -2,4 h -4 l -1,4 2,8 -2,11 -3,1 2,1 -3,15 5,4 8,-7 10,-13 5,-3 v -6 l 3,-2 v 4 l 2,2 6,-2 6,-5 h 11 l 8,-5 v -3 l 2,-2 4,-2 3,2 7,-2 2,-4 -1,-1 3,-3 4,-1 8,2 6,-5 4,2 3,-3 10,-3 7,-6 6,-8 7,-1 v 4 l -4,8 1,3 -1,4 h -2 l -3,13 -2,1 -10,-2 -13,3 -1,8 -6,1 v 2 h 2 l 1,3 -3,9 v -3 l -2,3 h -4 v 2 l -3,-1 -1,2 -8,-2 -2,3 H 4 v 2 H 1 l -1,3 h -2 v 3 h -2 l -3,11 -13,4 h -6 l -1,2 -3,-2 -2,2 h -8 l -17,23 -1,5 -5,8 -2,-1 -1,3 -1,-1 -1,2 h -2 v 2 l 3,1 h -2 l 1,11 -9,3 -7,5 1,2 -3,3 -4,2 -18,1 -2,1 -1,4 v -5 l -1,4 h -2 l -2,-3 -3,9 h -6 l -3,7 -2,1 v 5 h -2 l -8,10 3,1 -9,4 1,11 -13,4 -4,5 v 2 l 8,9 v 3 l -10,5 -2,5 6,2 1,2 -5,5 5,2 2,-5 3,1 -1,4 5,3 3,5 4,-5 h 12 l 1,3 2,1 9,-6 9,-1 1,4 3,1 2,5 3,-1 5,3 3,-3 1,4 h -2 l -2,7 9,1 -2,5 v 8 l 3,1 3,-2 3,1 2,-2 h 3 l 11,7 h 5 l 2,3 -1,1 3,1 4,13 -3,5 2,3 v 8 l 3,4 v 4 l 10,12 7,3 12,-1 12,4 2,-3 v -6 h 3 l 15,4 6,5 2,-1 v -2 l 2,1 22,-4 2,-1 v -4 l 3,-3 7,6 12,-3 8,12 h 2 l 7,-6 4,1 5,5 7,-13 7,2 2,-4 h 3 l 4,-3 -2,-4 6,-12 -3,-3 -3,1 2,-8 6,-1 v -14 z m 1051,-597 6,1 -6,-4 -2,3 z m 13,170 1,2 1,-1 z m -136,-182 3,-2 -1,-1 -2,2 z m -142,-91 -1,6 h 2 l -2,1 7,6 1,-7 -5,-8 z m -7,-8 3,4 5,1 -2,-6 -5,-2 -2,1 z m -7,1 -1,3 2,-2 z m 152,285 1,-1 z M 860,28 l 2,-4 h -5 l 1,4 z m 24,381 -1,1 3,1 z m 74,-71 -3,-4 -5,2 3,2 3,-1 z m 2,-17 -2,-1 -1,2 z m -23,134 2,-1 z m -35,-463 1,-5 -3,4 z m -173,530 1,2 v -3 z m 185,-582 2,-2 h 5 l -2,-3 -3,-1 -3,-6 -1,10 z m 31,-45 -1,-6 h -3 l -1,2 2,3 z M 806,484 v 3 l 3,2 3,-1 -3,-9 z m 124,-587 3,-1 -2,-3 z m 12,-10 h 5 v -3 l -3,-2 -3,4 z m -51,101 1,-8 h -5 v 5 z m 32,-79 4,-3 h 4 l 1,-3 -6,-2 -4,7 z m 149,361 2,-3 -1,-1 z m -123,-299 1,-2 -3,-2 v 2 z m -31,406 -1,2 2,2 z m -173,-243 1,-1 -2,-1 z m 285,237 2,1 -1,-2 z m 199,-269 h 2 l -2,-1 z m -334,-157 1,-3 -1,-1 -2,2 z m 42,24 v 2 z m -42,-7 1,-3 -2,2 z m -938,492 -1,4 5,-2 -2,-2 z"
     id="Shandong" />
</svg>
