<?xml version="1.0" encoding="UTF-8" standalone="no"?>
<svg
   width="558.99292"
   height="1002.7222"
   viewBox="-166 -118 558.99292 1002.7222"
   version="1.1"
   id="svg1"
   xmlns="http://www.w3.org/2000/svg"
   xmlns:svg="http://www.w3.org/2000/svg">
  <defs
     id="defs1" />
  <path
     stroke="#1e90ff"
     stroke-opacity="0"
     stroke-width="0"
	 stroke-linecap="round"
     stroke-linejoin="round"
     fill="#1e90ff"
     fill-opacity="1"
     fill-rule="evenodd"
     d="m -120.5,702.22223 1,12 2,1 1,4 -3,5 -1,6 -9,12 -8,25 -10,12 v 18 l -5,14 -2,1 1,6 -3,2 -3,7 h -2 l -4,10 2,15 v 10 l -2,5 1,3 7,10 h 7 l 8,3 10,-3 6,4 10,-4 12,1 5.999997,-8 h 5 l 4,6 8,-5 3,-4 2,-9 7,4 7,-6 11,-2 4,-8 2,-1 8,4 4,-5 5,2 6,-4 7,3 5,-4 3.9999998,2 5,-1 3,-3 5,1 10.0000002,-15 5,-2 -2,-6 9,-2 1,-2 h 3 l 5,-3 1,-5 19,-2 2,2 h 5 l 3,3 3,-1 v -17 l -3,-6 5,-3 v -4 l -3,-6 21,5 v 2 l 3,1 8.000003,-3 -2.000003,5 H 109.5 l 3,-3 h 4 l 5,2 4,-1 3,2 3,-1 4,2 9,-2 -3,-4 3,-2 v 3 l 2,-2 v 2 l 7,4 v 5 l 3,-4 4,1 7,-8 11,2 3,-2 1,-4 4,-2 2,1 v -8 l 2,-4 17,5 3,-3 v -4 l 2,-1 v -4 h 2 l 1,-6 5,-1 10,4 v -5 l -2,-1 3,-2 1,2 h 3 l 9,-8 3,2 6,-3 3,1 v -8 l 6,-8 v -7 l 3,5 h 6 l -1,-8 -3,-2 1,-2 -2,-6 2,-5 -3,-3 3,-1 -2,-1 v -3 l 5,-1 2,2 2,-3 v -2 h -2 l -1,-3 3,-7 -1,-8 -2,-2 2,-3 5,2 1,-3 -2,-2 2,-2 h -3 l -1,-2 3,-2 -2,-9 -2,-2 h 5 l 2,-2 -8,-6 6,-2 -1,-2 2,-1 -3,-3 3,-2 v -3 l 2,-1 -1,-6 3,-4 -1,-9 -2,-7 h -5 l -6,-5 -5,-1 -1,-4 -3,-2 v -5 l 1,-2 h 2 l 1,-3 -2,-4 -4,-1 1,-4 -2,-2 -6,-1 -1,-3 4,-8 -4,1 -2,-2 5,-5 4,1 5,-4 4,1 10,-6 -1,-10 3,-5 2,-1 3,2 1,4 6,-3 v -4 l -4,-10 5,-6 -3,-3 2,-7 -4,-3 2,-5 -1,-6 8,-4 3,-7 4,-4 3,-12 7,-6 2,-9 3,-3 h 2 l 3,-12 11,-17 -1,-3 3,-9 -1,-4 -6,-1 -2,-3 -9,3 v -5 l 5,-3 1,-4 -5,-6 -3,1 -2,-4 -1,-12 -3,-2 -5,-10 -3,-1 v -11 l -8,-9 1,-7 2,1 -1,-4 -13,1 -1,-2 2,-2 -3,-1 v -3 l -4,1 -4,-4 -7,1 -6,-7 1,-12 -4,-7 7,-13 -4,-5 2,-11 5,-4 1,-10 12,-1 1,-8 2,-2 2,2 4,-1 4,-9 h 4 v -6 l 3,-5 -7,-4 -4,-6 v -16 l 4,-1 12,-13 4,1 4,-6 3,1 2,-1 1,-4 6,-2 2,7 4,2 1,5 6,-2 5,2 14,-5 2,2 4,-1 3,-5 -1,-5 3,-7 7,1 1,-3 h 2 l 1,-5 -7,-4 2,-3 -1,-4 7,-11 -1,-9 3,-5 1,-7.000001 3,-1 1,-5 3,-3 1,-7 -1,-1 -6,3 -2,-8 -8,-1 -3,-6 1,-21 -4,-7 2,-2 -1,-6 -14,1 v -2 l -8,2 -3,-2 v -2 l 3,-2 v -3 l -6,3 -10,-3 -1,1 -3,-2 -3,1 -3,-12.9999996 -12,-3 -2,1 1,-4 h 4 l 3,-4 1,-10.0000004 5,1 3,8.0000004 6,-3 1,-6.0000004 -4,-12 4,-2 3,1 v 2 h 3 l 4,-3 7,-1 3,-6 5,1 5,-3 h 9 l 9,-3 7,-10 v -3 l -4,-2 -3,1 -3,-4 -6,3 -11,-3 -4,-9 2,-3 -4,-5 3,-11 v -2 l -3,-1 2,-6 -10,-7 -1,-4.999999 -8,-13 -6,1 -4,4 1,8 -4,8.999999 5,6 -2,8 -6,2 h -9 l -2,4 -8,6 -9,-11 -4,8 -10,4 -17,17 -22,5 h -9 l -5,-12 -4,-4 -45,15 -5,18 -14,8 -4,-1 -12,-10 -22,-11 -5,1 -9,7 h -4 l -3.000003,5 1.000003,2 -8.000003,7 -3,11 -4,3.0000004 v 4 l -5,6 -8,17.9999996 -5,6 -1,5 -9,12 1,12 -6,8 2,3 -1,6 -4,-1 -3,2 -5,-3 -7,5 -8,-2 -2,-3 -8,-4 -4,2 -14.0000002,-5 -8.9999998,4 0.9999998,2 3,1 -2,2 -1,-2 -1.9999998,1 1,9 -2,3 2,4 -1,3 -5,2 -3,4 -2,7.000001 h -23 l -7,8 1,2 4,-1 1,6 3,-3 1,1 -2,3 4,5 5,-1 -3,3 -2,5 1,2 -7,15 1,3 -4,12 -6,6 -7,1 -7,7 3,8 1,9 -3,1 2,5 -2,2 -2,7 -3,1 1,4 -6,8 v 5 l -4,8 2,7 3,1 -2,3 v 7 l -5,1 1,10 -5,2 -2,-2 h -3 l -3,2 -3,12 -5.999997,2 -5,7 -11,2 -2,13 -1,2 h -4 l -2,4 1,10 -2,4 v 10 l 3,8 -1,5 9,5 8,14 1,5 3,3 7,3 1.999997,3 v 3 l -4.999997,1 -1,4 4,3 4.999997,1 3,3 -4,4 1,7 3,5 -4,4 -1,11 -2,3 -11.999997,2 -3,9 2,4 7,2 v 4 l -2,1 1,5 -4,1 -1,4 -14,18 -1,5 -5,4 -5,7 -4,1 v 2 l 3,2 -1,1 -7,-2 -1,2 6,7 -3,13 h -3 v 2 l 5,1 1,2 -2,4 2,1 -1,4 -4,5 6,2 -2,5 3,-2 1,1 -2,3 1,4 h -3 l -2,-2 -1,3 4,3 3,6 6,6 -1,5 2,3 v 8 l -4,6 3,4 -5,15 2,3 v 10 l -2,4 -1,14 3,6 -1,4 4,6 v 6 l 3,6 -2,2 2,4 -1,7 h 5 v 6 l 2,2 1,9 z"
     id="Shanxi" />
</svg>
