<?xml version="1.0" encoding="UTF-8" standalone="no"?>
<svg
   width="1372.7507"
   height="1049.5"
   viewBox="-166 -118 1372.7507 1049.5"
   version="1.1"
   id="svg1"
   xmlns="http://www.w3.org/2000/svg"
   xmlns:svg="http://www.w3.org/2000/svg">
  <defs
     id="defs1" />
  <path
     stroke="#1e90ff"
     stroke-opacity="0"
     stroke-width="0"
	 stroke-linecap="round"
     stroke-linejoin="round"
     fill="#1e90ff"
     fill-opacity="1"
     fill-rule="evenodd"
     d="m 459.25073,557.5 1,12 9,10 3,9 4,3 10,13 6,3 9,-7 3,-12 14,-4 6,-4 1,-5 6,-4 h 4 l 5,-4 6,1 -2,-14 -4,-6 1,-7 11,-5 -2,-12 5,-3 -2,-6 4,-2 8,-13 v -4 h -10 l -2,7 -6,-2 11,-13 7,-1 4,-7 7,-1 2,-2 -4,-22 -8,-16 4,-2 5,-1 4,3 6,20 4,6 6,5 v 6 h 4 l 1,12 5,7 10,-7 6,-7 14,3 2,-3 h 3 l 2,-4 11,-1 2,-4 11,1 1,3 5,-4 9,-2 3,-4 14,-3 4,2 2,5 6,7 2,16 5,3 4,-1 4,-5 11,-3 3,-4 -2,-8 -5,-1 -5,-5 2,-6 6,-7 v -3 h -16 l 8,-6 9,-2 -1,-4 -2,-1 17,-9 2,-4 10,4 -3,9 -1,10 3,17 23,-1 2,4 v 6 l 8,-3 -1,-11 3,-6 13,-12 h 3 l 2,-2 -3,-3 v -2 l 2,-2 h 4 l -1,-4 3,-4 16,-3 1,3 5,3 v -6 l 2,-4 6,-1 5,2 -4,3 v 5 l 14,-2 5,2 v 10 l 8,8 h 8 l 2,-2 6,-1 19,10 1,-5 -3,-2 v -2 l 4,-6 4,-1 v -4 l -1,-1 -3,2 -8,-2 5,-6 2,-8 9,-7 h 9 l 3,4 11,1 6,5 1,13 4,3 12,-11 h 5 l 3,-3 6,1 7,-6 10,-4 4.99997,2 1,3 4,1 2,-3 h 3 l 7,-6 9,-10 14,-8 h 3 l 3,3 9,4 12,-4 h 12 l 3,-5 v -4 l 6,-3 -1,-2 3,-2 -2,-1 v -14 l -2,-2 2,-6 16,-3 13,-13 12,3 4,-1 2,-5 -4,-3 -2,-4 -1,-9 4,-7 5,-4 4,-8 3,-1 v -6 l 4,-7 h -2 l 3,-8 3,-3 3,1 1,3 13,2 6,-7 h 10 l 17,-5 v -13 l -6,-2 -2,-3 -4,2 -2,-4 -5,-1 -2,-4 -4,-2 -1,-12 -5,-8 v -8 l -2,-3 -9,-1 3,-2 v -3 l -3,-3 -1,-4 3,-1 2,-3 v -4 l -2,-3 2,-4 -2,-2 -2,1 -1,-4 -3,-2 3,-5 h -3 l -2,-2 v -5 l 1,-7 12,-10 -1,-3 -3,-2 -1,1 -3,-4 -4,-1 1,-13 -4,1 -1,-6 2,-2 -5,-6 2,-4 -4,-5 -2,1 -6,-10 v -2 h 3 l 1,-2 -5,-7 -4,3 1,-2 -4,-2 -3,-6 -4,-3 v -2 l 2,-1 -1,-4 7,-8 v -3 l 3,-4 -3,-4 -4,-1 -5,5 -2,-2 h -6 l -1,2 -2,-1 -11,4 -6,-2 -8,8 -4,1 -4,-2 1,-6 -5,-14 h -8 l -1,-3 -4,-2 v -5 l -3,-5 h -2 l -3,-3 1,-3 7,-4 -4,-3 v -4 h -3 l -1,2 -2,-1 -3,9 h -2 l -6,5 h -7 l -2,2 -3,-2 3,-4 -2,-2 h -4 l -1,-5 h -2 l -2,-4 h -2 l -5,6 -11,-1 v 3 l -2,-3 -4.99997,-2 -7,-9 -2,2 -3,-1 -2,-3 -3,1 -10,-2 -2,-3 -3,1 1,7 4,2 -2,3 -6,1 1,-5 -9,-3 -2,3 v 6 h -4 l 1,5 h -2 l -3,9 2,3 -3,5 v 3 l 3,2 -1,3 2,2 4,-1 1,2 v 2 l -8,4 3,1 2,3 -1,3 h 2 l 10,12 -1,2 -11,-1 -7,5 -11,-1 v -8 l -3,-4 -4,-2 -2,1 -1,-2 -4,-1 -6,2 -3,-5 -1,-8 -6,-4 1,-2 -6,-4 1,-2 -4,-4 -5,-1 -9,-5 -2,3 h -3 l -3,8 -9,-4 -7,1 -2,5 -2,-1 -2,2 -2,-1 -4,3 h -3 v 3 l 2,1 h -9 l -4,2 -1,4 -2,-2 -1,1 -4,-7 h -4 l -1,-2 -2,3 1,2 -4,4 -4,-2 -8,2 -4,3 v -3 h -4 l -4,17 h -2 v 3 l -3,1 -2,-7 -2,-1 -3,3 -5,-4 h -6 l -3,-2 -4,2 1,8 -6,8 -5,-5 -2,-6 -5,2 -2,-1 -6,8 h -6 l -5,-4 -6,5 h -3 l -2,4 -8,5 -3,-3 -2,1 1,-6 -3,-1 v -6 h -2 v -2 l -3,-2 -10,2 -5,-12 h -3 l -4,-3 h -12 v -2 h 3 l -4,-7 7,1 12,-3 3,-6 h 4 l 4,-3 v -7 l 2,-2 -1,-3 7,-11 h 2 l 3,-6 -3,-4 2,-2 -1,-6 6,-2 -1,-2 6,-1 v -4 l 4,-2 5,1 2,-5 3,1 5,-11 5,-1 2,2 1,-3 1,2 h 6 l 4,-3 v -2 l 13,-4 v -7 l -2,-2 h -4 l -3,-2 1,-1 -2,-3 h 3 l -1,-4 4,-1 2,-3 3,2 1,-2 -2,1 v -2 l 2,-1 -1,-6 -1,-2 h -2 v -4 h -2 v -2 l -4,-2 -1,2 -4,-3 h -7 l -3,-6 h -2 v -5 l -2,-2 -1,2 h -2 l 1,-3 -7,-4 -6,4 1,3 -2,1 -4,1 -5,-3 -6,11 h -3 l -3,3 -13,-4 -3,8 1,2 -6,-3 -1,2 -11,-1 -2,-4 -3,3 -1,-2 -4,2 -3,-1 -1,2 -2,-1 -6,6 -5,-1 -3,6 -2,-1 1,-2 -3,-3 2,-2 v -3 l 5,-2 -5,-3 2,-3 h 2 v -5 l -5,-1 4,-2 -1,-2 -3,2 -6,-4 -1,-2 4,-4 -1,-2 -7,-2 -5,3 h -9 l 1,5 -2,7 -7,3 -1,4 -4,3 h -10 l 1,-1 -2,-5 -2,-1 -1,3 -2,-2 -7,1 -1,4 -3,-1 -1,2 h -9 l -4,4 -1,-7 -5,-2 -2,-3 -4,3 -3,-4 h -5 l -1,2 -2,-1 -2,2 -8,-9 h -6 l -2,-7 -6,-3 -3,2 1,-5 -2,-3 1,-2 -3,-3 1,-2 h -2 l -2,5 -2,-3 -1,2 -4,-4 -6,4 -1,4 -5,1 -1,-3 -3,-1 -1,5 -5,2 2,9 -7,-1 1,2 h -2 l -1,4 -10,6 -1,3 -2,-2 -8,1 -3,2 -1,3 h -2 l -1,5 h -3 l -2,-2 -1,-6 -5,2 -2,-2 -1,1 3,17 7,2 3,-2 5,1 1,-2 4,2 3,-1 4,8 h 2 l 1,2 -11,6 -1,6 9,11 -7,10 v 2 l 3,2 -1,4 4,4 v 6 l -5,5 h -14 l -6,5 h -17 l 1,-8 -2,-3 -5,-1 -1,-9 -5,-5 v -11 l -12,-11 -4,-1 -5,3 -17,-2 -1,-2 -8,-1 v -5 l -2,-2 -3,2 v 4 l -3,3 -5,-2 2,-2 -6,-6 -9,3 -2,4 -4,-2 -4,1 -2,-5 h -11 l 1,3 -8,27 1,2 -6,7 v 5 l 4,6 6,2 -2,12 1,1 -4,5 -1,-2 -3,1 -5,3 v 2 l -7,3 -1,3 -4,3 v 5 l -3,3 -10,2 -4,7 v 3 l 3,5 -4,1 -1,3 2,6 6,4 3,5 h 2 l 1,4 1,6 -3,1 -1,7 6,4 4,6 v 4 l 2,1 1,4 v 5 l -6,9 -4,3 h -3 v 5 l -6,-1 -3,3 1,2 -6,3 -6,-1 -1,10 3,4 -2,9 5,13 3,2 v 5 l 3,5 -5,8 h -5 l -1,2 -2,-2 h -3 l 1,6 -2,2 -4,-1 -2,5 2,3 v 8 h -2 l -1,5 -2,-2 -8,1 -1,-2 -5,-1 -1,-2 h -3 l -1,4 -7,-4 -3,10 -2,-1 1,11 h -3 l 1,2 8,1 v 3 l -4,2 -3,4 -2,3 v 4 l -6,-1 -3,2 -3,-1 -2,2 -9,1 v 13 l -5,9 v 3 h -2 l -4,6 h -5 l -2,4 v 14 l -5,7 v 4 l 2,1 v 2 l -4,4 v 3 l 4,1 -1,6 4,5 -1,9 1,-1 2,2 -6,3 2,4 -1,6 1,3 4,3 6,-1 v 7 l -4,4 h -3 l -1,2 2,3 -7,4 2,8 -3,8 -10,9 -3,5 1,2 -9,5 -4,7 -3,-1 v 2 l -5,1 -13.999995,-1 -3,2 h -4 l 5,7 -6,9 -8,1 -3,3 -1,-2 -6,1 1,2 -4,3 -8,-1 v 4 l -2,2 -4,-1 -9,2 -1,4 h -2 l -3,-5 -4,1 1,4 -3,1 2,1 v 6 l -3,4 v 7 l -7,-1 -3,-2 -1,1 2,5 h 3 l 1,2 -1,13 6,2 1,6 5,4 v 3 l 3,1 -1,2 -5,1 -6,-4 -2,3 -4,1 -1,5 -6,2 v 6 l 4,4 v 3 l -4,3 -5,2 -1,-2 -4.0000005,-1 1,-4 -8,-3 -9,10 h -3.9999995 v -2 l -11,-10 h -3 v 3 l -6,6 -6,-7 -4,9 7,4 v 6 l -2,1 1,7 -2,4 3,7 -1,-1 -1,6 4,2 3,4 -3,3 h 2 l 2,4 -2,4 -9,1 -8,-6 -1,5 -3,-1 -6,4 -10,-4 h -6 l -1,3 -2,-4 h -2 l -3,4 1,2 h -2 v -3 l -3,4 -5,2 -3,-3 -10.000005,-1 -7,6 1,1 -3,6 1,8 -2,3 2,3 -3,2 v 5 h -2 l -1,3 v 3 l 2,1 -4,4 -4,-2 -2,2 -2,-1 -1,3 -7,-1 v 3 l -4,-2 -2,-7 -2,1 -4,13 2,4 v 5 l 4,5 2,14 6,3 h 14 l 2,2 -8,14 h -17 l -2,3 1,23 -18,21 2,10 -4,35 14,33 2,19 9,1 4,8 v 11 l 5,6 9,3 1,2 v 7 l -2,3 -4,2 v 5 l 1,3 9,8 -2,17 1,2 3,2 4,-1 8,-8 15.000005,-1 7,8 6,1 8,-2 4,-5 h 8 l 5,3 2,-2 9,-2 5,-6 h 6 l 5,-2 10,-15 9.9999995,-10 1,-7 -8.9999995,-21 -2,-13 -4,-8 -10,2 -4,-3 3,-7 v -12 l -2,-7 -12,-6 h -7 l -4,2 -7,-4 h -4 l -6,-9 1,-15 5,-5 v -9 h 2 l -1,3 4,5 2,-2 v -4 l 9,-10 9,-2 6,-6 2,2 2,-1 4,-12 5,1 7,-6 7.9999995,3 5,-2 12.0000005,-1 6,-4 10,-15 10,-10 5,-2 17,2 7,-2 19,-12 8,-3 16.999995,-1 22,-5 1,1 -4,7 -4,-2 1,7 h 5 l 20,-17 10,-2 5,3 h 3 l 8,-4 1,3 h 3 l 8,-5 8,3 5,-3 v -7 l 3,-5 8,-4 h 11 l 6,6 -3,2 v 3 l 6,-2 h 2 l 1,2 11,-9 h 9 l 10,-6 -1,-3 -4,-2 -5,1 -3,-3 v -8 l 8,-7 25,-10 6,-1 4,2 1,10 6,2 2,5 4,2 8,-2 1,1 2,-2 h 5 l 11,-4 5,-15 11,4 6,6 h 19 l 28,-33 h 9 l 8,14 5,2 h 6 l 8,-6 9,-12 3,-14 -4,-8 v -6 l 8,-8 z m 738.99997,-263 h -4 l 1,-5 -4,1 -3,4 -2,-3 h -3 l -8,7 -6,-5 -7,3 -1,5 20,4 5,-1 8,4 4,-5 -2,-2 v -3 l 3,-1 -1,-1 z m -795.99997,373 8,-5 -4,-4 4,-8 -2,-6 1,-4 2,-5 9,-4 v -5 l -12,1 -1,2 -4,-2 v 6 l -7,2 -6,6 1,2 -2,1 2,2 4,1 3,-3 5,2 -1,3 -4,1 -4,8 1,2 4,-2 -1,5 h 3 l -1,2 z m -44,-4 5,-1 -3,-2 4,-4 6,3 h 4 l 3,-3 v -2 h 4 l 1,-2 -5,-2 1,-4 5,-4 -1,-4 -10,2 -3,2 -1,3 -5,2 v 2 l 2,1 -7,5 -2,6 1,2 z m 385,-194 2,3 v -3 l -4,-2 1,2 z m -109,96 v -5 l -4,2 1,2 z m 33,14 2,-2 13,-3 -1,-2 3,-1 v -2 l -4,3 -11,3 -3,3 z m -94,1 3,-1 -1,-3 h -4 l -1,2 2,2 z m -576.9999955,181 7,-2 4,-12 5.0000005,-7 v -4 l -8.0000005,4 -1,-2 -10,2 -5.9999995,-4 -7,5 -4,1 v 3 h 3 l 2,3 8.9999995,3 4,5 v 4 z m 343.9999955,-113 2,3 h 2 l 2,-8 h -2 l -1,3 z m -348.9999955,114 -9.9999995,3 -9,-6 h -5 l -6,3 -8,-2 -6,11 -12,9 -2,6 1,3 2,1 5,-3 12,-2 7,-5 11,-1 11,1 5,7 1,5 1.9999995,2 h 3 l 2,-4 v -10 l 4,-12 v -2 l -6,-4 z M 593.25073,582.5 v 2 l 3,-2 h -2 z m 34,29 4,-4 -4,2 z m -333,60 4,-1 h -2 v -2 l -2,1 z m 297,-120 -1,-3 -1,1 z m 34,22 v 2 l 1,-2 z m 115,-79 1,-2 4,-1 -7,-1 z m -158,95 3,-3 -1,-4 -6,2 3,3 v 2 z m 49,15 3,1 1,-2 h 2 l -1,-2 -3,1 z m -56,-7 3,-1 2,-3 -2,-2 h -4 l 1,4 z m 35,-22 h 4 l -3,-3 z m -141,40 3,-4 3,-1 1,2 4,-3 v -2 l -4,2 -2,-3 -3,2 -2,-1 -1,6 z m -356,90 2,-4 -2,2 z m 490,-146 -2,1 h 3 z m -11,-55 1,-2 -2,-3 h -3 l -2,2 4,2 z m 2,55 2,-3 -2,-5 -2,1 v 6 z m 66,25 h 5 l 1,-4 h -8 v 4 z m -187,7 1,2 v -2 z m 180,-4 3,-2 v -3 h -3 l -1,2 -4,1 3,1 z m -185,11 -2,1 v 3 l 6,-6 -2,-2 -2,2 z m -83,43 h 2 l -1,-3 -1,1 z m 351,-191 1,2 1,-2 z m -172,124 v 3 l 2,-1 -1,-3 z m 564.99997,248 v 5 l 21,2 1,10 -3,7 -4,4 -4,2 -15,1 4,5 h 17 l 8,-6 5,-10 -1,-11 -3,-6 -5,-4 -12,-1 z m -561.99997,-228 5,-1 v -3 l -3,-1 -2,3 z m 211,-113 v 2 l 3,-2 -2,-1 z m -491,179 v -2 z m 135,1 h 2 l 1,-3 -3,-1 -4,2 1,2 z m 26,-49 1,-2 h 3 l -1,-5 h -4 l -3,2 3,4 z m -166,42 3,-2 h -3 z m 98,7 2,-2 h -2 z m 363,-212 1,2 z m -136,110 -2,-1 -1,2 z m 150,-91 -1,-2 v 2 z m -185,86 h 2 z m 170,-57 1,1 1,-4 z m -374,166 2,-1 v -2 h -3 l -1,2 z m -396.999995,177 h 6 l -1,-4 -4,-2 -2,4 z m 855.999995,-410 v -2 z m -201,147 2,-1 v -2 z m 496.99997,260 -2,-3 -2,2 z m -551.99997,-275 1,2 z m -187,96 h -2 z m -369.999995,132 -10.0000005,-3 -7,8 v 7 l 2,3 h 9 l 7.0000005,-11 z m 826.999995,-353 2,-1 z m -842.9999955,471 2,1 5,-7 -1,-4 -2,6 z M 648.25073,589.5 h 3 l -1,-1 z m -674.999995,157 v 2 l 4,1 1,-3 h -3 z m 623.999995,-265 2,2 -3,-3 z m -190,186 3,-3 -4,2 z m 141,-127 v 2 l 3,-1 z m -578.999995,217 6,2 v -2 l -2,-1 z m 1009.999995,1 2,7 6,6 9,2 4.99997,-3 -1,-10 -5.99997,-7 h -11 l -3,3 z m -3,23 2,7 3,3 3,2 h 5 v -5 l -2,-4 -6,-6 -4,1 z m -380,-297 1,1 v -2 z"
     id="Guangdong" />
</svg>
