<?xml version="1.0" encoding="UTF-8" standalone="no"?>
<svg
   width="980"
   height="771.15778"
   viewBox="-166 -118 980 771.15778"
   version="1.1"
   id="svg1"
   xmlns="http://www.w3.org/2000/svg"
   xmlns:svg="http://www.w3.org/2000/svg">
  <defs
     id="defs1" />
  <path
     stroke="#1e90ff"
     stroke-opacity="0"
     stroke-width="0"
	 stroke-linecap="round"
     stroke-linejoin="round"
     fill="#1e90ff"
     fill-opacity="1"
     fill-rule="evenodd"
     d="m 518,-44.842215 v -2 l -10,2 -1,-3 h 2 l -2,-4 2,-5 2,1 2,-3 v -4 l -2,-1 -2,2 -3,-3 -2,1 -1,-5 -5,1 -3,3 -3,-1 -4,4 h -2 l -4,-5 -4,6 -6,3 3,3 v 2 l -2,4 -3,2 v 3 l -3,4 -3,1 -2,11 1,4 h -3 l -2,2 h -6 v -2 l -6,-1 v -7 l -4,-3 -1,2 3,3 -5,4 -2,-3 1,-4 -1,-2 h -2 l -5,3 h -11 v 4 l -1,-1 -1,3 -3,1 1,1 -3,-1 -6,3 1,5 6,1 4,-7 h 3 v -2 l 3,2 2,-2 5,2 -6,13.0000002 1,8 6,4 -2,2 -1,-1 -5,4 -7,-3 -3,-3 -5,2 h -2 l -1,-2 h -5 l 1,1 h -3 l -3,3 -3,-4 v -2.00000001 l 2,-0.99999999 -3,-4 1,-3 h -13 v 6 h -3 l -1,5 5,4 -3,-2 -5,2 v 2 l -3,1.9999998 3,4 -3,-2 -1,7 -2,1 1,2 h 3 l 1,3 v 11 l -4,-4 -1,-4 -3,-1 v -2 l -5,-4 -4,-6 -7,1 v 2 l -2,-1 -4,-7.9999998 -4,-2 -2,-3 h -3 v 2 l -2,-1 -3,6.9999998 -5,2 -1,2 2,2 -3,1 -1,-3 -3,-1 -5,3 3,1 2,3 -2,2 -5,1 2,1 -1,4 -2,1 2,5 -2,2 1,4 -1,5 h -2 v 3 l -5,3 -9,-1 -5,3 h -3 l -2,3 -8,2 v 2 l -4,2 -2,-2 -4,2 -4,-2 4,-4 -5,-6 v -6 l -7,6 v -3 l -5,-6 v -8 l -4,1 -3,8 -2,-1 v 2 h -4 l -5,4 v 2 l -1,-2 -4,1 v -13 l -6,2 -3,-8 v -4 l 2,-2 -7,-4 -2,3 -6,-2 v -4 l 1,1 2,-2 v -4 l -2,-2 1,-1 -6,-5.9999998 -5,-2 -2,-8 -2,-1 -3,3 v 2 l -16,1.99999999 2,6.00000001 -8,3.9999998 -2,7 -2,-1 -3,2 3,11 4,2 v 10 l -3,2 1,2 -3,2 -6,-3 -3,3 -2,7 -12,2 -4,-2 -4,3 -4,-2 -8,2 v 4 l -6,4 -1,3 h -5 l -4,5 -7,1 -4,4 -15,4 -1,2 -12,-1 -3,4 -5,-1 -1,1 7,9 v 10.000005 l -3,8 -4,1 -4,6 -9,4 -3,7 -8,-6 -2,-7 -10,-1 -1,2 -7,2 -5,-2 -8,-7 -10,-1 -4,-5 -3,2 -9,-2 -9,-17.000005 -5,-2 -11,3 -5,-1 v -4 l -7,-3 v -2 l -4,1 -3,4 -2,-1 -14,14 v 10.000005 l -2,2 -15,4 -5,3 v 4 l -3,4 -10,3 -2,5 -5,-1 -1,-3 -9,-2 -5,-7 -8,-3 -4,10 -6,3 3,1 v -2 l 4,3 v 8 l 2,5 h 2 l 1,2 v 5 l 3,2 1,7 h 5 l 2,3 -2,3 6,3 4,5 4,-2 -3,-12 2,-3 4,1 1,-3 4,2 17,2 2,3 6,-1 8,-4 9,4 -1,5 h 4 l 8,6 -3,7 -2,1 5,4 2,5 3,1 v 4 l -3,3 -4,-1 v 5 l 2,1 v 3 l 8,6 4,-3 -2,-2 6,-3 3,4 7,3 v 3 l 11,4 3,-2 1,-9 2,-3 -1,-1 9,-2 4,2 3,13 4,-1 3,-4 5,1 3,-2 5,2 -2,3 1,2 6,-1 2,-3 4,2 2,-1 v -7 l 2,-4 4,2 6,-2 2,4 1,-1 4,2 v 5 l 3,4 2,-1 1,2 -2,4 h 2 l 4,5 3,8 6,4 -3,1 2,4 -7,5 3,12 -5,18 3,2 -8,6 -3,6 h -3 l -5,5 -1,-6 h -4 l -3,-2 -3,1 -3,-4 h -5 l -5,4 v 4 l -7,2 -2,4 -5,4 h -9 2 l 6,5 -3,2 4,3 -3,1 -2,-4 h -2 l -4,5 h -3 l -4,8 -4,1 -1,2 3,5 -1,2 h 2 l 2,6 -1,10 8,1 2,-2 10,3 1,-1 1,4 6,2 3,4 5,1 5,10 h 2 v -3 l 4,-1 9,1 2,-2 -1,-4 2,-2 5,1 3,-2 3,3 h 13 l 8,10 -1,2 3,4 9,1 2,-3 h 6 l 1,-2 3,1 1,-2 h 4 l 5,-7 5,4 4,-1 3,5 5,4 2,-4 h 2 l 4,2 -1,2 8,6 -1,1 6,-1 4,3 -3,4 -7,4 v 4 l 2,1 -3,2 v 3 h -2 l -2,5 1,1 -2,2 2,2 -1,2 -8,2 -4,-3 v -2 h -3 l -3,18 -3,2 v 6 l 3,4 -3,6 5,2 h 8 l 1,7 3,1 -1,2 2,6 -1,2 h -2 l -1,3 5,4 h -2 v 3 l 3,8 -2,3 1,2 -4,6 2,5 5,-4 v -3 l 2,-1 4,1 4,5 6,-2 8,2 1,5 4,2 5,-3 h 3 l 5,4 v 3 l -6,5 v 5 l 3,2 h 6 l 17,13 4,1 1,-2 6,-3 8,12 v 7 l 3,2 10,-10 3,2 v 3 l 2,2 -2,2 7,2 3,-4 5,2 8,-2 2,1 16,-7 4,2 3,-1 3,2 v 3 l 2,3 4,1 3,7 10,-2 3,3 10,3 8,-3 -6,-5 4,-1 3,-4 3,-1 3,2 v 4 l -5,8 v 2 h 2 l 12,-7 10,1 12,-3 10,-14 5,-4 4,2 3,4 3,-3 2,5 -3,4 2,1 2,-3 v -4 h 2 l 1,4 3,2 v -2 l 5,-2 h 3 l 2,2 6,-2 8,5 19,1 2,2 5,1 v 7 l -11,4 -3,4 1,3 5,1 7,5 h 6 l 8,-5 31,-4 6,2 2,-1 -1,-3 3,-1 6,-10 3,1 4,8 5,3 11,1 v -5 l -5,-12 1,-1 -2,-2 3,-10 h 2 v 4 l 3,2 1,-2 8,-2 3,1 2,-3 -1,-3 1,-2 h 2 l -1,-3 3,-2 -1,-10 6,-8 3,-1 6,3 4,-1 1,-3 1,2 3,-4 2,3 6,-3 9,3 4,-2 1,-3 6,4 7,-1 -1,-5 -2,-1 3,-2 -5,-3 -1,-17 h 2 v -4 l -5,-4 3,-6 4,4 h 2 l 3,-6 11,9 3,-1 v -2 l 4,-4 6,2 -1,3 h 3 l 1,2 6,-4 -1,-4 -3,-3 3,-3 h 3 l 1,-4 h 2 l 1,-3 5,3 4,-2 -5,-6 -1,-4 -4,-1 v -10 l -3,-1 -1,-4 8,2 -1,-4 3,-8 v -5 h 2 l 3,4 4,-4 9,-1 v -3 l 5,1 5,-5 3,1 1,-2 h 6 l 4,-6 -3,-6 3,1 4,-3 8,2 7,-3 1,-4 4,-1 4,-7 5,-4 4,-6 -1,-8 4,-1 1,-2 -2,-2 6,-4 v -5 l -4,1 -4,-4 v -7 l 3,-2 -2,-5 1,-2 -3,-4 1,-4 h -3 v -4 l 4,-3 -2,-1 v -4 l 3,-4 -1,-3 2,-10 4,1 v -2 l 7,-8 1,-13 8,-2 7,1 2,-6 h 2 l 1,-3 h 3 v -3 l -6,-1 1,-9 1,1 2,-7 5,2 1,-3 h 2 l 5,4 7,1 2,-4 v -10 h 3 l 1,-6 3,2 1,-2 h 3 l 4,-6 -8,-17 v -17 l 5,1 2,-2 1,1 v -2 l 4,-3 2,1 v -3 l 4,-2 6,-10 -3,-4 -2,-7 -5,-3 v -3 l 3,-2 v -5 l -9,-9 -2,-4 4,-3 -2,-5 3,-5 8,-3 -4,-3 -6,-1 -1,2 h -8 l -1,-3 -7,1 -4,-3 h -10 v 2 l -5,2 -3,4 v 7 h -8 l -3,6 -1,-1 -3,2 -6,-6 -4,1 -1,-2 h -2 l 5,-7 -1,-2 3,-7 -4,-7 1,-4.000005 -2,-3 3,-2 v -3 l -5,-4 1,-4 4,-2 v -3 l -6,-2 2,-8 -1,-2 -2,1 -2,-4 h -3 l -2,4 -5,-1 -6,-6 -9,10 -8,5 -5,1 v 13 l -16,4 2,-2 v -4 l -3,-2 1,-2 -3,-4 v -6 l 4,-6 -1,-1 2,-6 1,-2 6,-2 8,-6 1,-3 -2,-6 5,-3 5,-9 6,-1 4,-3 1,-4 h 2 l 3,-4 5,-21.9999998 -4,-6.0000002 v -10 l 1,-2 h 4 l 6,-2 2,-3 h 3 v -12 l 7,-1 v -2 h -4 l -1,-3 -5,2 -4,-1 v -3 l -3,2 -1,-2 -3,1 -4,3 v 3 l -5,-1 -4,-5 1,-2 -2,-4 -4,-2 4,-8 -1,-1 3,-2 v -3 l 4,-1 -3,-3 4,-4 -2,-6 2,-3 v -7 h 2 l 1,-3 -2,-3.999995 h -9 l -1,-6 -9,1 -17,-5 1,-3 -4,-4 -4,2 v 7 l -3,1 2,2 -2,6.999995 -1,-2.999995 h -2 l -6,1 -2,1.999995 -3,-1 -7,2 -3,-2.999995 2,-3 -1,-4 -3,3 -7,-3 -3,1 -3,-3 -7,6 -2,7.999995 -4,7 -4,3 -2,-2 -12,12 -7,17 -8,2 -2,-1 v -8 l -6,-6 -4,3 v 3 l -2,1 h -2 l -3,-3 -2,3 -4,-5 4,-12 v -5 l -9,1 -2,-3 -4,1 -2,-3 -7,6 -5,18 -2,1 -6,-2 -4,6 v 2 l 3,1 3,8 -2,6 -4,2 z m -601,135 -2,2 z m 514,548.000005 2,1 v -3 l 3,2 2,-6 -1,-2 h -2 l -4,2 v 2 z m 15,14 2,1 -2,-2 z m -47,-96 v 2 h 3 z"
     id="Guangxi" />
</svg>
