<?xml version="1.0" encoding="UTF-8" standalone="no"?>
<svg
   width="1042.7555"
   height="912.84906"
   viewBox="-166 -118 1042.7555 912.84906"
   version="1.1"
   id="svg1"
   xmlns="http://www.w3.org/2000/svg"
   xmlns:svg="http://www.w3.org/2000/svg">
  <defs
     id="defs1" />
  <path
     stroke="#1e90ff"
     stroke-opacity="0"
     stroke-width="0"
	 stroke-linecap="round"
     stroke-linejoin="round"
     fill="#1e90ff"
     fill-opacity="1"
     fill-rule="evenodd"
     d="m 523.49995,-48.500009 -3,-7 2,-4 -4,-2 -1,-3 -3,1 -4,-2 1,-2 -5,-3 -3,1 -2,-3 -1,1 -1,-2 -6,-2 -1,-2 3,-2 3,-6 -12,-6 -2,-5 h -2 l 1,-3 7,-4.000001 -1,-3 -3,-2 2,-1 -2,-7 -6,-1 v 2 l -8,1 v 3 l -4,1 -9,-2 -1,-2 -4,-1 -11,2 -2,5 -5,4 1,7.000001 3,3 -3,5 2,3 -7,7 -2,6 -8,4 h -5 l -4,4 -14,-1 -7,3 -4,11 h -2 v 2 l -2,1 -2,13 4,31 -1,2 4,6 v 14 l -7,8 v 3 l -4,-1 -6,2 -2,-2 -9,9 -4,1 -2,4 -4,-4 v -2 l -3,-1 -2,-3 -11,2 -4,-2 h -10 l -5,3 -4,-2 -3,2 -8,-4 -3,1 -10,-8 -3,1 -2,-4 h -5 l -2,-3 h -8 l -7,28 -2,2 -5,18 -10,23 -2,11 -5,2.999999 v 7 l -3,7 v 12 l 12,7 2,5 -1,9 -4,2 -9,-4 -8,2 -3,-3 -6,2 -6,-10 -9,3 v 2 l -6,3 -2,-1 -8,2 -17,8 -6,-4 v 2 l -6,3 h -7 l -2,4 h -2 l -1,-2 -6,3 -4,-2 -10,10 3,2 2,5 8,-3 2,7 4,2 5,6 -3,8 3,14 -1,7 6,21 11,23 -4,7 4,2 1,11 -6,-1 -13,7 5,5 5,2 v 2 l -11,4 h -4 l -5,12 5,8 -3,2 v 3 l 2,2 -1,2 3,2 v 6 l -5,2 -1,3 2,4 -3,3 -10,-1 -3,2 -3,8 -3,-1 -8,4 -4,-1 -4,4 h -3.999999 l -3,4 -12,4 -6,6 h -4 l -4,6 -3,-1 -5,4 -6,2 h -8 l -1,9 -14,5 v 5 l -2,2 -9,2 h -5 v -2 l -3,-1 -5.0000004,2 h -6 l -3,-1 v -2 l -5,-1 -2,3 h -2.9999996 l -1,3 -4,2 -2,8 -4,3 2,4 -1,5 h -2 l -3,4 -2,7 h -2 l -3,3 -1,-1 -2,3 -2,-6 -5,4 h -9 l -3,5 -4,-2 -5,3 -2,-5 3,-6 -4,-3 -1,-7 -1,-2 h -2 l -15,13 -12,-1 -6.000001,-3 -2,4 5,6 h -9 v 2 l -6,3 -1,3 -5,5 -4,2 h -3 l -1,-2 -6,1 -2,2 h -3 l -4,4 h 2 l -3,5 v 3 l -3,3 v 4 l 3,1 2,8 -2,1 -2,6 -12,1 -1,3 -4,2 3,2 -1,5 7,7 2,7 4,-1 v 7 l -3,-1 -3,5 2,1 3,12 2,3 h 2 l 1,3 8,-1 -1,-2 4,-5 16,2 13,6 3,3 v 4 l -3,5 v 9 l 4,9 h 2 v 10 l 4.000001,4 -6.000001,6 2,5 5.000001,5 2,-1 3,5 -1,6 -9.000001,2 -1,3 -4,1 -3,-4 -4,3 -1,-2 h -2 l -1,2 -3,-1 -2,6 2,4 1,-1 2,3 h 2 l 4,-3 1,4 h 3 l 1,-2 4,7 2.000001,-1 -1.000001,-2 5.000001,-2 h 6 v 2 l 11,2 -1,3 2,1 1,9 4,-1 v -2 h 4 l 4,1 7,5 3,4 -1,2 3,3 2,6 -2,4 4,6 h -3 l 1,3 -4,2 1,4 3,3 3,-1 3,7 v 4 l 9,1 1,-3 2,1 6,-4 2,2 v 7 l 4,1 3,4 9.9999996,5 4,-1 6,5 5,-1 7.0000004,4 9,-1 2,2 6,-4 4,3 v -2 h 4 l 2,2 v -2 h 4 l -1,3 -5,4 1,8 2,6 4,3 -2,2 4,3 v 5 h 2 l -1,9 2,1 1,5 6,1 1,3 2,-2 3,1 v 3 l 3,-2 4,1 2,4 5,2 1,3 3,-1 4,2 -1,-3 2,-2 8,1 13.999999,-3 h 12 l 3,-3 v -8 l 2,-1 -1,-3 2,-5 3,-1 v -2 l 2,-1 -1,-7 2,-3 2,1 6,-5 -1,-1 2,-2 h 4 l -4,-5 2,-4 3,-1 2,-3 4,3 h 7 l 1,3 7,-1 3,2 h 6 v -4 l 3,-1 4,2 1,3 h 3 v -2 h 4 l 6,3 1,4 h 7 l 3,-2 h 9 l 1,-2 h 2 l 2,-2 v -7 l 9,-3 4,-3 v -5 h 3 l 1,-3 h 6 l 8,4 3,-3 8,1 -1,2 2,2 v 7 l 4,1 v 2 l 5,2 2,-2 10,2 2,2 2,-1 v 2 h 4 l 3,-2 h 9 l 1,-2 4,-1 7,4 14,-7 -1,-4 16,-5 12,-6 10,-2 3,2 1,3 7,1 2,2 4,-5 7,-3 h 7 l 5,-4 6,-11 v -5 l 12,-5 2,1 9,-2 2,-3 h 4 l 2,2 h 2 l 3,-3 7,1 2,-3 h 5 l 3,-4 h 3 l 2,4 h 4 l 16,-2 3,-3 7,1 2,-2 2,1 1,-2 6,1 v -2 l 6,3 3,-1 2,4 3,1 2,3 3,1 v -2 l 6,-2 9,7 4,-1 1,-2 3,4 h 4 l 5,4 10,3 2,2 h 8 v -4 l 3,-3 1,-4 6,1 -1,2 6,3 h 12 l 4,2 2,-1 9,7 3,-1 2,-4 6,1 v -7 l -2,-1 1,-4 -2,-1 v -12 l -13,-3 -2,-5 2,-3 -1,-6 7,-5 h 5 l 3,-3 h 3 l 3,-3 h 5 l -1,-8 -4,-3 -4,-14 -2,-2 -5,1 -2,-3 h -2 l 1,-3 -5,-4 -11,-5 v -34 l -8,1 v 4 h -3 l -7,-6 2,-3 -3,-1 v -4 l 14,-1 2,-1 v -2 l 8,-5 -1,-2 5,1 26,-6 18,-7 4,1 10,-5 19,-4 -3,-4 1,-1 -2,-8 9,-8 5,-9 5,-21 2,-17 5,-9 1,-16 38,-5 3,-8 -1,-5 17,-23 16,-15 10,-2 5,-8 13,-6 3,3 -1,2 3,5 3,2 1,-4 11,-10 4,-2 9,-1 8,-4 3,-4 1,-4 -2,-6 4,-4 -6,-7 1,-5 -4,-2 2,-6 4,-4 13,-8 -1,-11 -21,-20 -2,-12 -6,-11 -9,-26 -10,-1 2,-4 1,-9 2,-3 -1,-1 -19,2 -2,-2 -10,-3 -5,-7 -7,-4 h -5 l -1,-5 -5,-5 -32,-19 -4,1 -5,-3 -18,-1 -2,-2 -5,-1 -12,4 -9,-2 -3,1 -6,-5 h -14 l -5,2 -6,-1 -5,-5 -3,3 -2,-2 h -4 l -6,-5 -11,1 -1,-1 2,-2 -3,-4 -1,1 -2,-9 -4,-4 v -4 l 2,-11 3,-7 11,-12.999999 -6,-19 4,-4 4,-12 -3,-2 2,-9 -5,-7 1,-3 -2,-1 -1,-5 -6,-2 -9,-14 -4,-8 2,-4 -3,-1 1,-4.00000002 -6,-11.99999998 2,-1 -9,-5 h -3 l -3,-4 1,-6 -6,-1 v 3 h -9 l -1,-4 -4,-1 v -2 l -2,-1 v -4 l -2,-1 -8,-1 -1,2 -6,3 -7,-1 -7,-9 -5,1 -5,-5 z"
     id="Xinjiang" />
</svg>
