<?xml version="1.0" encoding="UTF-8" standalone="no"?>
<svg
   width="1022.5256"
   height="948.5"
   viewBox="-166 -118 1022.5256 948.5"
   version="1.1"
   id="svg1"
   xmlns="http://www.w3.org/2000/svg"
   xmlns:svg="http://www.w3.org/2000/svg">
  <defs
     id="defs1" />
  <path
     stroke="#1e90ff"
     stroke-opacity="0"
     stroke-width="0"
	 stroke-linecap="round"
     stroke-linejoin="round"
     fill="#1e90ff"
     fill-opacity="1"
     fill-rule="evenodd"
     d="m 207.15358,35.5 -6,4 h -4 l -1,-2 h -11 v 3 l -9,1 -2,2 -2,-2 v 6 l -3,1 -3,-3 -1,2 h -2 l 2,-16 -9,-7 2,-3 4,-2 4,-8 -8,-2 -1,-3 -2,2 -8,-3 v -2 l 4,-3 2,-5 -4,-5 2,-2 -3,-2 -6,1 -6,-2 v 3 h -2 v -2 l -3,-1 v -2 l -5,-2 h -3 l -2,3 -5,-1 -1,5 -20.000001,-1 1,7 -2,8 2,14 -21,-6 -2,7 -5,5 -2,-1 -1,2 h -4 l -3,6 h -4 l -4,-3 -2,2 -8,-2 -1,2 v -4 h -4 l -8,-12 -3,-2 -1,-5 -5,-3 h -4 l -6.0000003,2 v 2 l 2.0000003,-1 1,2 H 5.1535787 l 1,-2 -5,1 -0.99999996,2 H 3.1535787 l 2,2 -2,3 h -3.99999996 l 1,7 -3.00000004,1 2.00000004,4 -1.00000004,1 -2,-3 -2,2 3,2 -2,4 -2,-1 -5.9999997,3 v 2 h -7 l -4,-20 2,-8 -9,-19 -6,2 -2,-8 2,-8 -9,-11 h -5 l -3,-1 v -2 h -2 v -3 l -3,-2 v -3 l 4,-1 -1,-7 -7,1 1,-5 8,-1 -2,-2 -8,1 v -5 l -12,-7 -6,-1 -1,-8 h -2 l 1,9 h -2 v -10 l -2,-1 v 4 l -2,-1 1,3 2,1 -2,1 -1,5 -10.999999,-2 -2,-2 -2,1 -3,-2 -1,2 h -6 l -4,-2 -1,4 -10,3 -21,3 -7,10 v 21 l -6,1 -1,2 -1,6 3,-1 3,3 -6,12 4,3 9,-3 v 5 l 8,3 3,6 -1,3 7,5 -1,2 h 5 l 7,7 h 2 l -1,4 -3,-1 v 2 h 9 l 7,3 14.999999,1 5,4 2,5 8,9 h 4 l 11,-4 11,4 -2,4 v 2 l 4,1 -2,7 v 9 l 2,3 7,3 1,4 3,-2 1,1 v 8 l -4,9 h 2 l 2,3 1,-1 7,3 3,3 h 3 l 1,6 5,1 -1,3 7,3 4,-1 1.9999997,2 h 6 l 6,-3 1,2 3,1 1,-4 5.0000003,1 2,-2 4,4 -1,2 3,1 3,6 2,1 18,-8 3,2 2,4 v 5 l 5,6 7,-3 2,-4 -2,-3 1,-1 3,1 7,9 -1,4 2,8 5,10 2,2 7,-3 1,2 -2,13 1,7 -3,9 h -2 v 3 l 5,6 10,-6 h 8.000001 l 9,4 v -2 l 3,-2 4,2 3,-2 2,-6 1,3 9,1 v 2 l 2,-1 -1,-1 7,-2 v -2 h 10 l 5,4 h 7 l -6,6 3,1 v 11 l -10,10 1,6 -2,13 -2,1 2,2 v 9 l -11,-3 -1,4 -3,3 -2,11 3,8 -7,5 h -4 l 1,3 h 3 l -3,12 -7,4 2,2 -2,4 1,2 h 6 l 3,3 -2,2 1,5 h 3 l 6,6 v 4 l 20,-8 2,-2 2,-8 5,1 3,3 2,4 v 5 l -1,9 -2,2 h 2 l 1,4 h -4 l 4,1 1,3 -3,-1 v 2 l 4,1 3,17 3,3 h 7 l 1,2 -14,7 3,17 2,-2 h 4 l 1,2 h 2 v 13 l 1,2 h 3 l 2,4 3,-3 3,1 v 10 l 10,1 5,-5 2,3 4,1 14,-2 3,3 12,-6 12,6 9,-4 -4,-12 2,-2 -1,-11 1,-1 8,2 4,-2 v -13 l 1,-1 4,2 v -2 l 2,-1 v -7 l 3,1 3,-2 2,1 v 4 h 7 l 11,-4 h 5 l 2,7 h -2 l -1,4 5,-1 2,8 9,10 15,1 5,25 -1,15 4,7 -2,3 v 4 l -4,-1 -2,-4 -1,1 -1,5 -4,2 3,3 v 2 l -5,8 1,2 -9,5 -2,3 h -2 l -2,-7 -3,-1 -1,-5 -4,-1 -4,3 h -3 l -3,-2 v -3 l -5,-4 v -2 h -3 l -1,2 -5,-2 2,-1 -1,-4 3,-2 h -5 v 2 l -1,-1 -1,2 -4,1 -4,-1 -1,-6 -4,4 h -3 l -2,-1 v -2 l -3,-1 -3,3 -3,-2 v -2 h -5 l 1,4 -8,-1 -5,3 -1,-3 -5,-2 -5,3 -1,5 8,6 -1,3 3,2 -2,3 h -3 v 4 l 7,3 3,-2 5,2 3,-1 v 12 l -2,5 2,3 1,-1 1,6 -2,1 3,3 -1,2 h -3 l 2,2 -7,3 v 2 h 2 l -2,7 3,2 -1,4 -5,6 -8,2 -4,-1 -10,3 -2,-1 -3,4 3,8 -2,-1 v 5 l -5,1 -1,3 -11,4 -4,5 2,2 -1,4 2,3 -2,1 v 5 l -4,7 v 6 l 19,11 -1,4 7,4 -4,13 h 4 l 1,3 h 4 v 4 l 4,4 3,-4 4,1 2,-3 3,1 1,-2 3,1 2,6 h 5 l 3,4 -10,8 v 5 l 3,2 h 11 v 3 l 5,-7 v -4 l 5,-1 5,3 -3,2 3,8 h 3 v -2 l 8,1 2,6 h -2 l 3,2 -1,2 2,3 -2,7 3,1 -4,18 1,5 -4,6 -9,5 -6,1 1,-3 -1,-2 h -2 l -6,14 -1,6 -3,-2 1,1 4,3 6,1 3,4 v 4 l 3,2 14,-2 3,1 5,-2 13,3 h 3 l 2,-2 11,2 2,-2 3,1 1,-3 8,-6 1,-3 h 3 l 1,-2 4,2 v 6 l 2,-2 1,2 4,2 4,-1 1,2 5,-3 8,1 2,-9 5,7 -3,12 1,4 1,-1 1,2 3,-2 2,1 -3,1 1,3 5,-1 6,3 1,2 3,-1 1,2 2,-3 4,2 3,-1 5,4 4,7 h 3 l 3,-4 12,-9 4,4 2,-3 12,-3 3,3 -1,2 4,2 3,-3 v -3 l 7,1 2,2 8,-2 v 2 l 3,3 2,9 10,16 9,5 15,14 21,3 10,-1 12,-4 -3,9 2,6 2,-3 8,-2 -1,-5 4,1 v 8 l 3,3 -2,3 3,3 -1,5 4,4 2,7 3,2 11,-17 5,-4 h 10 l 2,2 v -4 l 1,1 4,-5 3,3 1,-1 -1,-2 h 2 v -8 l -3,-6 -2,-1 2,-4 h 5 l 4,2 3,-3 h 2 l -1,-4 10,-2 5,3 h 3 l 5,-3 2,-7 -2,-3 2,-7 -2,-2 h -4 l -3,-2 3,-3 v -2 l 11,-3 16,2 1,-2 3,1 v -3 l 6,-1 -2,-24 h 3 l 2,-5 3,4 2,-3 4,3 4,-2 -3,-6 -1,2 h -2 v -9 h -2 v -2 l -2,1 v -3 l 2,-1 -1,-1 6,-3 2,-5 -2,-2 3,-2 -3,-2 7,-3 v -2 l 5,-4 3,1 1,-4 2,4 4,-3 h 6 v -2 l 2,-1 2,1 4,-3 5,-9 -15,-13 -26,-30 -5,-1 15,-16 18,-8 4,1 9,5 8,10 -1,1 2,3 6,4 16,5 4,4 28,10 47,12 -1,-22 -15,-32 -3,-13 -3,-6 -15,-16 -2,-6 -31,-12 -9,-2 -3,-3 3,-3 -7,-4 -8,-1 v -4 l 4,-1 3,-3 -1,-11 -8,-4 -1,-18 -3,-14 -2,-3 -12,-6 -15,-2 -21,-10 -5,-9 -9,-1 -10,-7 -11,-1 4,-5 -1,-5 -2,-5 -9,-4 v -3 h 7 l 3,-10 2,-22 -6,-12 -3,-19 -3,-5 -8,-4 v -10 l -5,-30 -4,-2 2,-9 -2,-4 -10,-2 -5,-7 -4,-21 -12,-31 -12,-20 -9,-25 -9,-17 -22,-51 -3,-19 -3,-6 -5,-20 1,-2 -63,-33 -8,-3 -20,-3 -5,-7 -26,-12 -3,-4 -7,-3 -5,-7 h -4 l -13,-9 2,-5 2,1 1,-4 h 3 l 3,-5 -3,1 -9,-4 -14,-1 -1,-2 h 12 l 5,3 h 3 l 2,-3 -11,-5 1,3 -12,1 -1,-2 -3,-1 -2,2 h -4 l -9,-6 -6,-1 -5,-7 1,-5 -3,-8 2,-6 1,-19 3,-9 8,-6 2,9 3,-1 -2,-8 2,-1 -1,-4 -3,-5 -6,-2 h -2 l -4,4 -3,-1 -12,3 -3,9 h -17 l -15,4 -3,-3 -11,5 -1,19 -6,7 -6,16 -5,-1 3,4 -2,7 -8,2 2,1 v 3 l -4,1 v 4 l 4,2 3,-1 5,4 -7,6 h -5 l -5,4 -7,-4 -3,2 -6,-2 v -4 h -6 l -2,2 -6,-2 -1,5 -4,4 h -5 l -2,4 3,4 v 3 h -7 l -3,7 3,19 -1,4 -3,3 z m 83,633 -2,-1 -2,3 2,1 z m 462,-217 1,2 h 5 l -1,-3 z"
     id="Jiangsu" />
</svg>
