<?xml version="1.0" encoding="UTF-8" standalone="no"?>
<svg
   width="630.97321"
   height="810.5"
   viewBox="-166 -118 630.97321 810.5"
   version="1.1"
   id="svg1"
   xmlns="http://www.w3.org/2000/svg"
   xmlns:svg="http://www.w3.org/2000/svg">
  <defs
     id="defs1" />
  <path
     stroke="#1e90ff"
     stroke-opacity="0"
     stroke-width="0"
	 stroke-linecap="round"
     stroke-linejoin="round"
     fill="#1e90ff"
     fill-opacity="1"
     fill-rule="evenodd"
     d="m 332.5,197.5 h 3 l 4,-3 2,-4 h 2 l 5,7 1,-2 1,1 2,11 8,3 2,3 3,-1 3,4 h 2 l 6,-7 -1,-6 4,-4 5,-2 v -2 l 2,2 6,-2 4,-4 3,2 4,-4 h 4 l 2,2 2,-1 4,3 v -5 l 2,-3 h 3 l -1,-4 4,-3 6,2 3,-1 2,-3 2,1 2,-2 11,-1 v -8 l 3,-3 -1,-3 -4,-1 -3,-3 4,-5 14,-7 2,-3 -2,-10 -3,-2 3,-4 2,-8 -8,-2 4,-2 -4,-7 v -7.000002 l 3,-3 -2,-3 2,-1 v -3 l -3,-2 1,-1 -4,-1 2,-2 -4,-13 -10,-5 -3,-12 -2,-1 -7,3 -1,-2 h 2 l 2,-3 -3,-2 -2,-4 -7,-1 -1,-4 -2,3 v -2 l -1,1 -4,-6 1,-5 -5,-4 2,-2 -2,-2 1,-3 -2,-3 1,-6 4,-0.9999997 2,-3 -2,-6.99999998 h 11 l 3,-3.00000002 -2,-1 6,-5 v -5.0000003 l -10,-8 1,-3 -2,-3 3,-2 -1,-2 -5,-4 -6,-2 -1,-4 -4,-1 h -3 l -1,2 -3,-1 -3,3 h -8 l -8,-4 -5,3 -3,-1 -2,2 h -4 l -2,-1 -1,-5 -4,-4 -8,5 -5,-2 -1,1 -2,-3 1,-7 h -5 l -6,-6 1,-8 -5,-5 v -10 l -4,1 -1,4 -3,1 -3,-6 -7,4 -3,-1 v -11 l -5,-3 -9,2 -2,3 v 5 l -7,4 3,4 4,1 1,3 -4,4 2,3 -1,3 -8,4 -9,1 -1,3 -4,1 -9,6 -3,5 -4,2 -5,-1 1,-3 -2,-1 h -2 l -5,5 v -4 l -9,-7 4,-5 v -2 h -3 v -2 h 2 l 2,-6 h 2 l 8,-10 2,2 4,-3 9,-12 2,-8 -1,-2.999998 -3,-2 -4,3 -1,-7 -3,2 -5,-8 -13,-4 -9,2 -3,7 -2,15.999998 -10,1 -28,17 -4,-5 -3,-1 -9,1 -19,13 -6,2 -13,-5 -10,-6 -7,-7 -5,-2 -20,2 -1,3 -3,1 -2,7 1,3 -15,15 -1,-1 -6,2 -2,3 -3,-2 v -4 h -14 l -4,-4 -2,1 v 2 l 4,2 -2,6 1,1 -2,1 h 7 l -2,2 -1,5 1,6 -9,-2 2,-4 -2,-2 -7,2 -4,-3 -3,1 -1,2 -2,-1 -1,5 h 3 l -2,3 -2,1 -2,-1 v -2 l -3,1 v -3 l -5,8 2,1 1,4 3,-1 v -4 l 4,-2 -1,2 2,2 -2,2 v 4 h -2 l -3,4 h -2 l -1,-2 -7,4 -4,-1 -3,3 h -3 v -3 l -2,-2 -6,1 -7,2 -4,4 -9,4.0000003 h -7 l -3,-2 1,-1 -13,3 -5,-6.0000003 -6,2 v 9.0000003 l -2,4 1,4 h -4 l -2,2 -8,1.9999997 -11,1 v 3 l -3,2 v 3 l -7,3 -1,4 -3,1 -1,7 3,15 1,1 4,-2 v 4 l 3,5 1,-2 h 3 l 1,3 -2,2 3,6 6,-2 1,2 h 2 l 1,4 -2,2 2,3 v 4 l -4,8 1,12 -6,7.000002 2,3 5,1 2,3 8,4 -3,6 -3,1 3,1 4,5 h 4 l -1,4 2,2 -2,2 1,2 -5,5 h -2 l -2,6 h -5 v 2 l -5,5 v 3 l -7,2 -4,-1 -4,2 3,9 2,1 2,5 -2,4 -9,-1 1,3 h -5 l -4,4 h -3 l -1,-2 -3,5 -3,-2 -9,7 -3,9 4,2 1,9 -9,8 1,2 -11,13 -2,7 1,1 -4,6 v 3 l 4,1 1,-2 1,2 v 3 l -4,4 v 6 l 4,4 -3,2 2,6 5,-1 5,3 9,-5 h 7 l 7,-3 v 5 l -3,7 3,2 -3,8 -10,16 v 4 l 3,1 1,-2 2,8 4,4 h 2 l 3,8 h 4 l 1,2 -3,3 v 3 l -2,1 v 6 h -2 l -5,8 3,10 v 10 l 1,2 2,-1 v 3 l 3,3 h 12 l 3,4 11,2 -5,14 4,-1 -2,11 h -2 l -5,5 2,5 -3,6 1,4 -7,4 1,2 -5,6 v 3 l 2,2 7,-5 2,1 1,-2 v 2 l 2,-1 1,3 4,-1 6,-5 5,-1 1,2 4,-1 2,4 -2,1 3,3 -7,4 -10,3 v 5 l -8,-2 -2,7 -3,2 v 2 l 3,2 v 14 l -8,8 -1,8 -6,7 2,10 4,7 3,2 -1,3 2,2 -1,5 h -2 l -3,4 1,4 -2,2 1,2 h 7 l -2,4 1,2 3,2 h 4 l -3,2 4,3 -3,3 3,3 h -2 l -3,4 3,4 3,-4 3,1 2,-3 8,-3 h 4 l 2,3 10,-1 1,2 3,-7 8,3 6,-4 3,-6 4,2 4,-2 -1,-2 4,-2 6,3 -1,1 h 3 v 4 h 2 l 3,5 3,-1 2,2 h 4 l 2,5 3,1 1,5 h -2 v 2 l -1,-1 -4,2 v 3 l -2,1 v 2 l 7,3 v 4 l -9,4 -3,4 -11,-1 -3,8 h -2 l -2,3 -6,1 v 2 l -8,4 1,5 h -2 l 2,2 v 3 l -8,10 -1,9 -5,2 -3,5 -13,1 3,5 h -2 l 13,3 4,9 4,-2 1,1 v -2 l 6,4 -1,4 2,1 v 4 h 2 l 1,2 14,-10 1,2 6,1 4,-6 2,1 4,-2 2,7 3,1 4,-5 -1,-7 h 7 l 5,3 3,-2 2,1 -1,2 2,3 3,-3 3,-12 5,2 3,-3 6,1 4,-6 4,2 1,3 3,2 1,-3 6,-2 3,1 -1,-3 8,-3 1,1 3,-4 3,-1 7,4 2,-6 h 2 l 3,-3 7,4 8,8 -1,1 4,3 2,9 3,1 2,-2 7,3 3,3 v 5 l 8,1 5,-4 h 8 l -8,-9 v -4 l -3,-1 4,-1 2,-3 -4,-1 -3,-5 3,-5 -2,-3 2,-6 h 2 l -1,-3 h 3 l -1,-2 3,-5 3,1 2,4 6,-1 -3,-3 -1,-3 2,-2 -3,-3 v -2 l 1,-1 5,3 v -2 l -2,-3 h -3 l -1,-4 h 2 l 3,-3 1,1 1,-2 -2,-5 -4,-1 1,-2 -2,-1 2,-4 -1,-2 h -3 v -8 h 3 l 3,-3 h 4 l 2,-9 5,1 2,-2 1,-3 -1,-3 h -2 l 2,-2 v -7 l 2,-1 v -8 h -2 v -3 l 4,-3 v -4 l 4,-3 -3,-6 v -3 l 2,-2 1,1 -1,-9 1,1 v -2 h 5 v -3 l 2,-1 1,-4 5,-1 v 2 l 2,-4 -6,-6 -1,-5 8,-6 12,-2 6,-6 5,-1 -1,-6 3,-4 h 2 v -2 l 3,-3 9,-7 -3,-9 -4,3 -6,-2 1,-6 -1,1 -1,-5 2,-5 3,-2 -1,-1 3,-2 v -2 l 7,-5 3,-7 6,3 -1,3 6,-1 1,-9 4,-4 v -2 l -6,-1 1,-1 -2,-1 2,-1 -5,-6 -3,-1 3,-6 1,-7 -3,-1 -5,-8 6,-9 -1,-10 7,-7 7,-11 6,-4 7,1 3,-4 h 9 l 6,-3 h 4 l 1,2 4,-6 11,-6 -1,-7 7,-8 h 2 l 5,-5 2,-7 -1,-2 h -3 v -3 l -5,-2 v -6 l 4,-4 -1,-7 -2,-1 v -11 l -3,-4 -4,3 -4,-2 -2,-10 5,-6 h 2 l 4,6 2,-1 1,-2 -2,-4 2,-3 11,2 1,-4 3,-2 2,1 v -2 h 2 l 2,-3 v -3 l 2,1 2,-2 -1,-8 -1,-2 h -2 v -4 h 3 l 2,-3 3,2 -1,3 h 3 l 1,-3 9,-5 z m -96,-259.000002 v -2 z m 1,0 -1,1 2,-1 z"
     id="Jiangxi" />
</svg>
