<?xml version="1.0" encoding="UTF-8" standalone="no"?>
<svg
   width="809.5"
   height="773"
   viewBox="-166 -118 809.5 773"
   version="1.1"
   id="svg1"
   xmlns="http://www.w3.org/2000/svg"
   xmlns:svg="http://www.w3.org/2000/svg">
  <defs
     id="defs1" />
  <path
     stroke="#1e90ff"
     stroke-opacity="0"
     stroke-width="0"
	 stroke-linecap="round"
     stroke-linejoin="round"
     fill="#1e90ff"
     fill-opacity="1"
     fill-rule="evenodd"
     d="m -83,323 -1,4 3,6 v 7 l -3,2 4,15 -4,2 1,3 -3,6 2,2 h -2 l 4,3 v 2 l 5,3 -2,6 1,1 3,-4 h 2 l 5,4 3,5 4,1 2,7 -6,3 v 2 h 12 v 3 l 4,5 -4,9 1,6 1,1 3,-3 2,7 11,4 5,12 h 4 l 2,-2 -1,-1 2,2 -2,5 -2,-2 v 2 l -2,-1 2,2 h 3 v 2 l 6,5 2,3 v 4 l 4,4 2,1 8,-6 1,4 h 9 l 12,11 6,1 2,4 10,-2 6,8 -1,1 3,1 4,-3 h 3 v 4 l 3,2 v 2 l 9,6 1,-1 h -2 v -3 l 2,-1 2,3 -1,1 h 7 l 13,10 v -3 l 4,-4 h 4 l 8,4 -1,-2 2,-2 8,-3 1,1 2,-4 5,4 3,-1 5,3 9,2 2,-2 v 2 l 3,2 6,-5 9,-4 1,3 4,-2 10,3 1,-7 4,-1 7,5 3,-1 2,4 h 4 l 1,-6 7,-3 3,4 5,3 3,5 3,1 1,2 -2,1 4,4 h 4 l 6,5 13,-9 h 2 l 1,4 2,-1 v -5 h 2 v -2 h 3 v -2 h 3 l 3,-7 9,-1 4,5 -1,3 4,1 -3,3 v 2 l 3,3 -4,10 1,4 2,2 2,-1 v 3 l -4,11 -1,1 -1,-2 h -2 l 1,6 8,7 -1,3 h -2 l -1,5 7,3 -1,5 4,2 v 10 l 5,2 3,-1 2,-5 h 2 l 3,4 v 9 l 2,1 3,6 3,-3 6,-1 1,-2 2,1 6,-7 -1,-1 5,-1 1,-2 h 3 l 4,3 2,-1 -1,1 8,12 h 7 l 3,2 4,-1 6,3 3,-2 h 5 v -4 l 2,4 3,-2 v -2 h 4 l 1,10 -2,2 v 4 l -3,3 1,12 2,1 3,-3 6,-1 4,6 3,-1 v 4 l 8,-1 3,7 4,1 2,3 3,-3 4,1 5,-2 2,2 3,-4 h 2 l 3,4 v -5 l 3,-4 2,2 7,1 2,-3 -1,-4 3,-4 v -3 h 5 l 2,1 v 3 l 7,3 -3,10 v 7 l 1,3 h 4 v 5 l 6,-1 1,2 4,-3 h 5 l 2,-7 -2,-3 v -4 l 5,-4 3,-9 7,-6 -2,-4 7,-8 3,1 6,-6 8,-4 2,-3 8,3 -1,-2 5,-2 5,2 1,2 4,-4 1,2 h 4 l 4,-6 -3,-3 v -7 l 3,-6 -1,-6 2,-6 1,1 -1,-9 2,-4 -2,-4 2,-10 -4,-9 1,-6 -3,-16 1,-3 -3,-6 v -4 h -2 l 3,-5 -5,-3 8,-9 h 2 l -4,-1 -7,8 v 3 h -2 l -5,5 v -3 l -2,-2 -1,3 -3,1 -5,-3 v 4 l -3,1 1,2 -2,6 -2,1 1,-3 -4,3 -3,-3 -6,3 1,-1 -7,-6 -1,-5 -9,-7 1,-2 -4,-1 v -4 l -3,2 -11,1 -1,-1 2,-1 -2,-1 v -2 l -4,2 -1,-3 h -2 l -2,3 v -2 l -4,-2 2,-2 -2,-4 1,-1 1,2 1,-4 -2,1 -1,-4 -2,2 v -17 l 1,-2 2,1 -2,-4 v -4 l 2,-1 -1,-2 -5,-1 -2,-5 -14,-2 v -3 l -3,-2 -8,1 -1,-3 -7,-4 2,-3 -1,-3 3,1 3,-2 -2,-1 -1,-8 h -2 v -7 l 4,-3 4,1 4,4 v 2 l 6,3 h 15 l 5,-6 2,2 5,-4 5,1 1,-11 4,-1 v -6 l 2,-2 -1,-6 h 3 l 1,-6 h -2 l -2,-4 1,-1 -4,-1 2,-4 -2,-4 2,-3 h 2 v -8 l 3,-3 4,2 3,-8 10,-1 2,2 2,-2 4,1 1,-3 9,-1 -5,-11 -1,-12 -4,-6 3,-2 4,2 v -7 l 3,-4 -1,-4 h -9 l -2,-1 v -2 l 3,-3 -1,-3 2,-7 2,-1 v -5 h 2 l -1,-2 6,-1 1,-5 2,1 9,-3 4,2 1,-2 9,7 1,4 h 3 v -4 h 2 l 4,4 h 4 l 4,3 2,3 -3,8 1,2 9,6 1,6 -3,-1 2,1 2,7 3,-1 v 2 l 5,3 3,7 h 2 l 3,-3 4,1 v -2 l 4,1 7,-7 2,1 2,-2 6,-1 2,-3 h 4 v -6 l 3,-3 8,-1 v -2 h 4 v -3 l 2,-1 7,3 2,-1 1,-12 -5,-4 -5,-13 -4,-3 -1,-3 1,-5 3,-3 -3,-7 6,-8 -10,-4 -5,4 h -2 v -3 l -5,3 h -5 l -2,-1 2,-3 -2,-4 -8,-3 -1,-3 h -2 l -1,-2 -7,-2 -1,-5 -6,-7 6,-7 -2,-5 1,-6 -7,4 -5,-9 -9,2 -4,-4 -2,1 v 4 l -2,1 -16,3 -1,-1 -2,2 -8,-5 h -5 l -2,-2 -1,5 -2,2 -8,-3 -8,1 -6,-2 -7,-9 v -3 l -2,-2 -1,-10 2,-1 -3,-10 h -2 l -2,-4 -10,-4 -8,2 -2,-1 1,-9 -6,-1 2,-7 h -8 l -4,-7 h -7 l -6,5 -2,-3 h -7 l -4,3 -2,-3 -4,-2 1,-3 h -2 l -1,3 -4,-1 3,-3 v -2 h -3 l -1,-2 1,-3 4,-1 3,-3 v -2 l -6,-6 2,-4 3,-2 7,-1 v -9 l 6,-2 -2,-2 7,-7 3,-9 h 5 l 2,-6 1,2 h 2 v -2 3 l 2,-4 h 13 l 9,-9 7,-2 -2,-9 2,-1 V 9 l 1,1 1,-2 1,1 V 7 l 1,1 3,-5 V 0 l 9,-14 6,-3 h 7 l 14,-4 v -5 h 2 v -3 l 1,1 1,-3 1,1 v -3 h 3 l 2,-3 6,1 6,-2 v -2 l 1,2 2,-6 -2,-4 5,-1 v -5 l 10,-2 7,1 3,-10 2,-2 -1,-3 2,-2 1,-6 -5,1 -5,7 -11,4 -1,2 -4,-1 -5,4 -5,-2 -3,1 -4,6 -8,1 -7,7 -5,-1 -8,5 -11,4 -7,10 -5,4 -4,-2 2,-10 -2,-1 3,-1 1,-4 v -4 l -2,-3 2,-5 10,-6 v -7 l 2,-2 -1,-1 4,-9 -2,-7 h -2 v 4 l -6,1 v -2 l -2,4 h -2 l -1,4 -6,3 -3,-3 1,-4 -3,-2 -5,-8 -5,-3 -4,3 -6,-3 -3,6 -4,-1 -3,3 v 8 l -6,6 h -4 l -6,4 v -9 l -2,-3 1,-3 -6,-1 -2,3 -2,-1 -2,2 -6,-2 -2,1 -3,-4 -2,2 h -9 l -3,3 h -6 l 1,-3 h -2 l -5,-5 h -4 l -7,-5 h -4 l -1,-3 -6,-1 -2,-3 h -6 l -6,-3 -2,2 -2,-3 h -2 l -1,4 -3,1 v -4 l -2,-1 -13,-1 -2,-3 v -2 l 2,-1 -1,-2 h -3 v -4 h -2 l -1,2 -3,-3 v 3 l 2,2 -1,2 -3,-6 -2,-1 v 4 h -2 l -3,3 -4,-6 -4,1 v 3 h -4 l -3,-3 h -3 l 1,-2 -2,1 -1,-2 h -2 l -2,4 1,3 -3,4 1,6 -6,8 3,-1 v 5 l -6,2 7,4 -1,4 h -5 l 3,4 1,7 -3,1 -1,2 5,1 v 2 h -2 l 2,2 -1,3 -5,-2 -2,1 3,9 -3,10 3,3 v 2 l -2,3 -2,-2 -6,2 3,3 -3,1 3,3 -2,8 2,3 -1,2 4,4 v 6 h -6 l -3,-5 -1,1 1,6 -6,8 v 7 l -9,2 -3,-1 -9,8 h -3 l -1,-2 -3,1 4,2 h -2 l -1,2 1,3 -10,-4 -5,1 v 5 l -3,1 v 4 l -2,1 v 4 l -2,1 v 2 l -18,-5 v 3 l -2,1 1,8 -3,-1 -4,2 -1,4 -3,2 -10,-2 -8,8 h -6 l -1,3 v -5 l -5,-2 -2,-4 -2,2 -1,-3 -2,2 3,4 h -5 l -4,2 -4,-2 -3,1 -3,-2 -4,1 -8,-3 -4,4 H 82 l 2,-5 -8,3 -3,-1 v -2 l -11,-3 -2,1 -8,-3 3,6 v 4 l -5,3 3,7 -1,18 -5,-4 h -6 l -1,-2 h -8 l -2,2 -3,-2 -6,2 -1,5 -5,3 h -3 l -1,2 -9,2 2,6 -5,2 -4,7 -3,2 -1,5 h -7 l -6,4 -6,-2 -5,4 -6,-3 -7,4 -4,-2 -5,5 -7,-4 -3,1 -4,8 -11,2 -7,6 h -2 l -1,-3 -4,-1 -2,9 -9,9 h -2 l -4,-6 h -4 l -7,8 -12,-1 -8,4 -8,-4 -8,3 -6,-2 -2,5 5,1 -4,3 v 8 l 3,4 1,5 4,4 h 4 l 5,10 -1,4 h -3 l -5,5 -1,2 2,5 14,5 1,3 h 4 v 2 h 4 l 3,3 -4,7 -3,2 v 12 h 3 l 1,-2 4,7 v 3 l 3,1 v 3 l -6,3 v 3 l -5,1 3,8 h 7 l 6,3 2,4 5,2 2,-1 6,13 -1,5 7,7 12,4 4,5 z m 3,59 v -2 l -2,2 z M 496,-44 v -2 l -2,1 1,2 z M 272,519 v -3 l -3,3 1,1 1,-3 z M 139,507 h -1 z"
     id="Henan" />
</svg>
