<?xml version="1.0" encoding="UTF-8" standalone="no"?>
<svg
   width="583.43378"
   height="774.48578"
   viewBox="-1191 -71 583.43378 774.48578"
   version="1.1"
   id="svg1"
   xmlns="http://www.w3.org/2000/svg"
   xmlns:svg="http://www.w3.org/2000/svg">
  <defs
     id="defs1" />
  <path
     stroke="#1e90ff"
     stroke-opacity="0"
     stroke-width="0"
	 stroke-linecap="round"
     stroke-linejoin="round"
     fill="#1e90ff"
     fill-opacity="1"
     fill-rule="evenodd"
     d="m -926.56624,133.07844 4,6 h 6 v -3 l -3,-4 1,-3 6,1 1,-2 h 3 l 3,2 2,-6 -1,-2 2,-3 h 2 l 1,2 h 2 l 1,3 -2,6 1,3 3,2 -1,2 5,3 4,6 h 4 l 4,7 3,1 v 3 l 5,5 4,2 3,-2 13,1 11,5 8,-4 9,3 -1,3 h -2 l -1,-2 -5,6 2,4 -4,1 -7,-2 -4,2 -2,3 2,3 h -4 l -1,2 2,5 3,2 -3,3 1,2 -2,1 v 2 h 2 l 5,11 3,-1 2,7 9,-3 5,3 6,1 v 5 l 5,4 v 2 h 2 l -1,4 2,-1 1,3 3,-2 1,2 h 3 l 2,2 -3,5 4,-1 v 7 h -5 l -2,-2 -7,2 -4,-3 h -4 l -1,5 -2,1 1,9 4,8 -2,3 5,3 v 2 l -2,1 6,3 2,7 -2,1 -2,5 2,-2 2,4 2,-2 2,2 h -2 l 3,5 4,-8 h 10 l 6,3 -3,5 1,2 h -2 l -2,12 -2,4 h -4 v 2 h 5 l -2,3 1,1 3,-1 8,2 4,4 1,-1 1,3 3,1 v 3 h -3 l -1,4 4,-2 5,4 9,17 8,3 h 6 v 5 l 10,7 h 5 l 6,-7 -7,-14 5,-2 -1,-3 6,-3 11,3 5,-1 4,-3 1,2 7,-4 -5,5 v 2 h 3 l 9,-8 1,-3 5,-3 9,-12 7,-2 5,-6 -5,-10 8,-27 4,-2 v -2 l 6,-6 h 7 v -3 l -2,-1 4,-7 h 4 l 3,-3 2,1 1,-2 1,2 14,-8 v 3 h 3 l -3,-6 v -5 h -6 v -3 l -3,-3 2,-5 -1,-7 -3,1 -4,-3 v -2 l -4,2 2,-6 -6,-12 2,-10 -5,-6 2,-4 -6,-2 -3,3 h -16 l -7,-5 1,-4 -7,1 -1,-5 4,-4 -1,-2 -6,3 h -5 l -1,-2 -5,-2 -4,-6 -5,-1 2,-3 h -3 l -2,-3 -1,1 v -5 l 2,-1 3,-14 h 9 v -3 l 2,-1 -7,-3 -1,-4 2,-3 7,1 3,-2 1,-5 4,-1 5,-5 1,-2 -2,-2 4,-2.000003 v -2 l 2,-1 v -7 h -2 l -1,3 -18,-3 -3,1 -2,-2 -1,2 h -4 l -4,-5 v -4 l -7,3 -1,3 -6,-1 -2,-2 h -12 l -12,2 -1,3 h -2 l -3,-4 v -4 l 2,-1 -2,-2 v -3 l -2,-3 -5,-2 3,-2 1,-9 -9,-5 v -4 l -4,-5 -3,-8 v -6 l 3,-3 h 5 l 2,5 2,1 2,-1 4,-8 1,-4 -7,-6 4,-3 V 7.0784366 l -2,-3 h -3 l -2,-2 6,-3.00000004 -4,-4.99999996 h -3 v 4 l -2,3 -8,-1.00000004 4,-4.99999996 -6,-4 v -8.9999996 l -5,-1 -6,-6 7,-4 1,-3 -4,-4 v -8 l -20,-23 1,-3 -2,-1 -7,4 -10,-2 h -11 l -4,2 v 4 l -4,4 h 2 v 6 l -2,1 -10,-2 -9,2 -8,-2 -1,2 -6,1 -1,3 -8,4 -3,4 3,20 -1,2 -11,-2 4,6 h 2 l 4,7.9999996 -2,11 -4,-1 -3,4 -3,-2 -2,1 -1,4.0000004 h -6 l -3,3 h -6 l -3,-1 -3,-5.0000004 -4,4.0000004 h -6 l 2,-5.0000004 -3,-3 h -5 l -2,2 v 3 l -6,3.0000004 -4,10 -2,-1 -6,2 2,6 -2,3 h -8 l -9,-20 -6,2 -2,-1 -2,3 -7,3 -1,2 h -3 l -3,5 h -2 l -17.99996,12 -8,2 -2,3 1,2 h 2 l -1,5 3,4 -6,1 -2,-4 h -2 v 4 l -6,2 -1,-3 -8,-3 -4,3 -3,-2 h -8 l -6,3 -1,-1 3,-5 1,-6 -1,-10 -3,-4 7,-5 -2,-4 1,-8 -2,-9.0000004 -1,1 v -3 l -3,-3 v -5 l -4,-4.9999996 1,-1 h -3 l -4,3.9999996 -7,-1 -3,2 -5,-2.9999996 -7,1.9999996 -1,6 h -2 l -1,2.99999996 4,8.00000004 -3,3.0000004 h -12 v 3 h -2 l 1,1 -4,6 -8,9 v 7 l 3,3 -2,4 4,7 h -3 l 1,13 -12,-3 -2,2 -5,-1 -7,6 h -2 l -4,6 -1,3 6,2 -1,7 -3,2 2,3 3,1 v 4 l 2,2 v -4 l 3,2 1,3 -4,7.000003 h -5 l -5,8 h -4 l 14,15 2,5 1,-1 5,3 -2,1 1,5 2,2 -2,3 3,5 2,-1 v 3 l 7,12 2,1 3,7 2,-1 2,3 -1,4 h 2 l 1,2 -3,8 3,4 -1,2 2,6 7,2 5,-2 2,3 h 6 l -2,5 -9,7 h -7 l -4,2 -3,-1 -2,2 v 3 h -5 l -3,2 -5,-2 -2,2 3,8 -1,4 -4,3 -3,-6 -2,-1 -2,2 v 5 l -2,3 h -3 v 3 l 1,-1 8,2 3,9 11,2 4,-2 1,2 -2,3 2,3 5,-3 1,2 10,-1 1,4 -2,2 2,4 v 16 l 2,4 6,1 1,5 4,-2 1,3 -3,5 v 3 l -3,1 v 5 l -3,3 v 10 l -3,1 -1,4 1,3 -2,2 6,3 -1,3 -2,2 -5,-1 -3,6 1,3 -4,4 -2,-1 -7,1 -3,2 h -8 l -1,-4 -3,-1 -1,-5 -4,2 -1,3 -3,-1 -3,5 -3,-1 -8,9 -3,1 v 12 l 7,6 -1,8 h -3 l -3,6 h -4 l -2,2 -1,5 -8,1 -1,6 -3,4 -2,7 4,4 -5,5 -1,4 3,5 -1,8 2,4 8,1 2,3 3,-1 3,3 -2,1 1,1 h 9 l -2,7 h 2 l 4,6 v 8 h 3 l 2,6 3,3 2,11 h 2 l 4,4 -5,8 7,-1 5,2 1,3 -2,10 -8,13 v 5 l -5,3 -1,6 -4,3 -3,10 -5,8 -6,3 v 8 l 2,1 -1,5 2,3 -3,4 3,7 -1,3 -4,2 -1,-3 -2,-1 -3,4 v 7 l -7,4 h -3 l -3,3 h -5 l -1,3 h 4 l -3,6 1,2 h 4 l 1,4 4,4 v 2 l -4,1 1,5 3,4 h 4 l 4,4 h 3 l 2,7 2,-1 6,4 6,-2 2,4 5,-2 -1,-3 3,5 v -5 l 3,2 1,-2 v 4 l 3,-1 -2,4 2,2 11,2 -1,2 h 3 l 1,-3 2,2 2,-1 3,2 5,-1 1,3 h 5 l 6,5 5,1 2,3 3,1 v 2 h 4 l 6,-3 2,1 1,-2 4,4 h 5 l 3,-1 v -2 h 2 l 3,1 v 10 l 3,-2 h 4 l 5,-5 1,-8 4,1 1,-3 3,-1 2,2 3,-2 4,2 3,6 2,1 1,5 h 3 l 5,-8 1,2 4,-4 3,3 -2,-15 -4,-1 v -4 h -3 l -2,2 -1,-1 1,-3 -2,-2 v -4 l -4,-2 1,-5 h -2 l -2,-5 3,-1 -1,-2 h 2 l 2,-3 2,-8 5,-4 8,-13 h 6.99996 l 10,-4 2,-8 3,-3 h 2 l 3,-7 -2,-3 7,-7 6,-17 2,-3 1,1 2,-2 v -11 l 5,-3 13,-3 2,3 h 4 l 5,-5 -2,-2 h -4 l 2,-3 -2,-4 2,-1 3,3 -1,-1 2,-1 v -8 l 4,-3 1,2 h 2 v 4 l 6,6 13,-16 3,-1 3,-7 h 2 l 1,-5 5,-2 -1,-3 2,2 4,-10 h 44 l 7,-3 6,3 3,-2 3,-7 3,-3 5,-11 -1,-2 3,-2 h 11 l 3,-6 3,-1 -1,-3 4,-2 h -2 l 2,-6 13,-14 1,-3 -2,-1 -8,2 -6,-1 -5,-6 v -3 l -7,-6 -1,-3 h 4 l -4,-1 v -10 l -8,1 -1,2 -6,-2 -10,6 v -2 l -6,3 h -4 l -2,-3 2,-2 -2,-5 -12,6 -5,-6 2,-4 -3,-1 v -2 l -15,3 v -8 l -11,-1 v -9 l -3,-3 -1,-9 4,-8 v -6 h 10 l 6,-8 -2,-3 -3,-1 -2,-7 h 2 v -2 l 2,1 -2,-9 2,-4 -2,-1 v -2 l -4,2 -1,-4 h 2 v -3 l 3,-4 h -4 l -4,-3 3,-2 v -6 l -3,-3 2,-3 -1,-2 2,-2 h -3 l 1,2 -4,-3 h -5 l 3,3 -2,1 -4,-2 -2,1 -3,-3 h -4 v 2 l -4,1 -1,5 h -4 l 1,2 -4,1 1,2 -4,-2 v 2 l 2,1 -1,3 h 3 l 1,3 -2,1 -8,-1 -4,-4 h -2 l -3,-4 v -4 l -2,-3 -3,-1 -6,2 h -8 l -1,-2 -3,1 v -2 l -1,3 -2,1 -3,-4 h -2 l 1,2 -1,2 -1,-1 -1,3 -3,-1 -3,3 v 2 h -6 l -1,-4 -4,-2 -1,-5 -2,-1 -7,3 -3.99996,-4 -2,4 v -6 l -4,-1 2,-6 -2,-5 -3,-1 -1,-4 5,-2 2,2 4,-1 0.99996,-3 -4.99996,-2 1,-8 -8,-6 2,-9 10.99996,-9 1,1 1,-3 11,-2 1,1 4,-6 3,3 4,1 -1,-3 1,-2 h 2 l 2,-6 7,-3 -5,-11 -5,-1 -8,-10 1,-5 -4,-2 1,-4 4,-3 2,1 1,-4 5,-1 2,-2 6,1 1,3 h 2 l 2,-3 9,-3 -1,-2 4,-2 1,-4 7,-11 2,1 v 2 l 4,1 v -2 l 9,-1 4,2 v -4 l -11,-13 v -2 z m 77,104 h -5 l -2,2 -5,-2 -7,6 -4,-3 h -9 l -4,1 v 2 l -3,-1 -2,9 2,1 v 7 l 4,2 3,4 4,1 v -2 l 2,2 2,7 -2,-1 -1,6 -3,2 3,3 v -2 h 3 l 1,8 5,-2 10,5 5,-4 -2,-2 v -10 l 4,-2 -4,-4 v -2 l 9,-2 -1,-3 -2,1 -5,-2 -2,-3 1,-2 -2,-1 6,-9 -2,-8 4,-1 z m 52,83 v -2 l -4,-2 h -4 l 1,3 h -3 v -3 l -3,1 -4,-2 -7,7 1,3 6,-2 5,4 2,-1 v -4 l 6,1 z m 77,38 h 2 l -1,-3 -2,1 z m 22,-10 -5,4 4,1 1,-2 z m -3,-2 -2,3 1,1 1,-2 z"
     id="Hebei" />
</svg>
