<?xml version="1.0" encoding="UTF-8" standalone="no"?>
<svg
   width="877"
   height="843.58496"
   viewBox="-166 -118 877 843.58496"
   version="1.1"
   id="svg1"
   xmlns="http://www.w3.org/2000/svg"
   xmlns:svg="http://www.w3.org/2000/svg">
  <defs
     id="defs1" />
  <path
     stroke="#1e90ff"
     stroke-opacity="0"
     stroke-width="0"
	 stroke-linecap="round"
     stroke-linejoin="round"
     fill="#1e90ff"
     fill-opacity="1"
     fill-rule="evenodd"
     d="m -107.50001,241.08494 -4,-4 h -2 l -1,4 2,12 -13,-2 -5,2 -3,5 h -2 l 3,4 v 6 l -7,7 1,4 -7,3 -4,-3 -2,2 h -6 l 2,4 v 7 l -1,3 h -4 l -2,2 -3,8 3,2 -1,7 3,2 -3,3 7,6 v 3 l -2,1 6,12 2,-3 -2,5 5,-6 v 5 l 2,2 2,1 3,-2 4,2 3,5 5,3 -7,7 2,1 10,-4 2,1 5,14 2,2 -2,1 3,3 10,2 3,5 2.999999,12 -1,6 1,-1 6,6 v 5 l -2,1 2,4 -3,4 -1,11 3,2 v 4 l 3,3 -5,3 12,5 -6,11 1,1 -3,1 -1,3 4,3 3,5 v 6 h 3 l -1,2 h -2 l -2,4 -5,2 1,6 h 2 l -1,1 4,3 3,-1 2,2 2,-2 -2,-6 2,-1 2,2 h 3 l 3,-1 v -2 h 7 l 2,6 h 5 l 3,-4 5,1 8,-9 2,1 3,9 7,5 h 4 l 2,3 -1,4 h -2 l -6,8 h 7 v 11 l -10,6 -5,5 v 3 l 3,2 -1,13 5,7 11,5 3,6 -1,8 4,11 -2,1 v 2 l 3,1 3,9 h 2.0000003 l 1,3 h 2 v 3 h -4.0000003 l 1.0000003,3 -2.0000003,1 6.0000003,9 v 3 l 2,1 -2,6 1,4 -3,2 -1,3 -4.0000003,2 -2,4 h 3 l 1,4 2.0000003,-1 v 5 h 2 v 3 h 5.99999995 l 4.00000005,3 2,-5 4,-1 0.9999997,-2 -1.9999997,-1 1.9999997,-2 5,1 3,4 9,3 5,-4 3,2 v 2 l -2,1 v 4 l 2,2 h 9 l 8,3 4,-1 v -2 l 1,2 h 3 l 3,-8 9,-4 3,-3 -1,-3 6,-5 7,-1 4,6 3,-1 4,-5 2.000001,-7 -1.000001,-3 3.000001,-5 1,-8 6,-2 v -3 l 5,2 8,-2 5,1 2,1 v 5 l -1,3 -3,1 1,8 8,1 v 4 l -3,4 h 6 l 3,5 -1,3 2,3 v 4 l -2,1 v 3 l -3,1 4,3 1,5 h 2 l 5,6 -2,2 8,6 -1,3 -2,-1 1,4 4,-1 4,3 1,-2 3,1 1,-2 -2,-1 2,-2 2,2 h 3 l -1,1 7,-2 7,1 -1,-4 4,-4 v -3 l 5,-1 1,-2 3,4 1,-1 2,5 5,1 8,-9 v -2 h 6 v -5 l 6,-2 3,1 4,-2 4,2 5,-4 2,1 -1,5 3,4 h 8 v -3 l 3,2 1,-1 2,4 v 7 l 5,4 10,14 -2,2 h -4 l 3,4 -3,4 5,6 v 2 l 6,6 6,1 10,-4 5,-17 -4,-2 v -2 l 4,-6 -1,-4 2,-3 16,-8 1,-12 5,-9 v -3 l -3,-3 -1,-5 h -3 l -5,-9 v -3 l 9,-10 4,-12 10,-7 2,-3 1,-9 4,3 2,-3 5,4 13,-22 6,-7 6,2 8,11 h 9 l 7,4 h 8 l -4,4 3,1 2,-5 h 5 l 3,-8 -1,-3 -6,-3 -1,-6 -15,4 -15,-12 4,-6 3,-11 7,-16 7,-6 2,3 4,19 2,2 20,-2 7,-6 2,-10 3,-5 h 2 l 1,2 5,-1 1,-4 3,-2 2,-8 8,-8 2,-7 5,-6 7,-1 7,3 3,10 8,-2 2,-4 3,-2 -1,-3 5,-11 -1,1 -1,-3 -5,2 v -2 l 4,-4 v -3 l 6,-3 -1,-7 -4,-1 2,-6 -6,-10 -1,-8 -9,-5 -5,-13 -3,-2 19,-5 6,-4 2,-4 3,-18 -3,-12 -5,-1 1,-1 17,4 3,-5 -6,-16 -5,-3 -1,-12 -2,-3 -8,-3 -1,-4 2,-9 -8,-5 -2,-6 20,10 6,-3 3,-6 2,12 h 6 l 9,5 4,-4 h 3 l 2,4 -2,2 1,1 h 5 l 1,4 h 5 l 1,-5 3,-2 -3,-2 3,-3 v -10 l -9,-5 2,-3 h 4 v -10 l 4,-4 h 2 l -1,-3 -3,-2 h -7 l 3,-10 -5,-4 1,-6 4,-5 3,-1 3,-7 v -4 l -3,-3 -2,-6 6,-8 -2,-4 2,-6 -6,-9 -10,-3 -3,3 -4,1 -7,-5 19,-20 12,-3 8,-13 17,-11 v -5 l -4,-2 -4,1 -3,3 h -13 l -1,-6 -6,-7 -3,1 -6,6 h -3 l -22,-15 h -11 l -4,-3 -9,-13 h -3 l -2,-2 -6,-14 -17,-23.999999 -19,-17 -4,-7 -8,-5 -9,-2 h -10 l -24,-23 -6,-10 17,-8.0000001 v -2 l 7,-5 8,-2 4,-6.9999999 h 3 v -10 l -7,-7 -3,-6 h -3 v 2 l -2,-1 -3,2 -4,-2 h -5 l -1,-1 3,-9 -3,-2 1,-2 -2,-1 -3,-1 -7,2 1,2 -4,2 -1,3 -1,-3 -4,-2 -3,3 -1,-2 6,-9 -2,-3 h -3 v -3 l 2,-1 -2,-13 1,-1 -2,-9 h -4 l -1,-3 h -2 v 3 h -10 v 2 l -7,3 -6,-3 -10,2 v 4 l -4,3 -4,-2 h -5 l -2,4 2,1 3,6 v 8 h -2 l 1,2 -1,1 -3,-3 -4,5 -1,-1 v 4 l -2,-2 h -10 l -5,4 -11,17 -3,-2 -2,-7 -4,-4 1,-5 -3,-3 2,-3 -4,-4 2,-3 -1,-4 -3,-1 v 5 l -8,2 -2,3 -2,-6 3,-9 -12,4 -10,1 -21,-3 -15,-14 -9,-5 -10,-16.000001 -2,-9 -3,-3 v -2 l -8,2 -2,-2 -7,-1 v 3 l -3,3 -4,-2 1,-2 -3,-3 -12,3 -2,3 -4,-4 -3,1 -7,8 v 3 l 4,2 -3,5.000001 1,13 -9,9 -1,10 -3,2 -1,11 3,3 v 5 l -4,1 -5,11 -3,1 -3,-2 -2.000001,2 v 14 l -6,9.9999999 -3,3 h -4 l -3,-7.9999999 h -3 l -6,2.9999999 -6,10 h -12 l -1,3 4,5 v 2.0000001 l -5,5 1,4 4,1 2,3 10,-5 2,6 -2,4 1,9 3,1 v 6 h 2 l 1,5 5,1 2,2 -5,4 -5,1 -1,-3 -3,-2 -5,2 -4,5 h -6 l -2,10 -2,1 v -3 l -6,2 -7,-3 -8,-1 -3,-3 -5,4 -6,-1 -7.9999997,-5 v -3 h -5 l -1,-2 -10,8 -4.0000003,1 v 7 l 2.0000003,6 -1,1 2,1 2,6 4,1 0.99999995,2 -12.00000025,7 h -3 l -1,3 6,1.999999 3.0000003,-1 -1,7 -3.0000003,1 -1,2 2,8 h 2.0000003 l 2,3 -2,2 3,2 -3,4 2,6 -1,9 -4.0000003,-1 -1,2 h -5 l 1,8 -12,12 -2,-2 -2,1 -1,3 3,2 -5,2 -1,5 3,6 -1,4 -5,7 h -3 l -5,8 -6,6 -4,-3 -8,3 -7,10 -7,4 v 11 l -5,3 -4,-1 -3,2 -3,-2 h -5.999999 l -4,7 z m 712,-123 v -2 h 8 l -1,-6 -7,1 -3,-2 h -9 l -1,-2 -5,1 -8,-8.999999 -3,-1 -9,2.999999 -9,-2.999999 -8,-5 -3,3 10,19.999999 -3,3 7,8 2,6 2,1 7,-4 h 6 l 2,5 9,-1 13,5 7,6 6,-2 2,1 4,-8 -1,-6 2,-1 -7,-6 -3,-5 h -4 z m 67,-158.999999 3,1 -4,-3 z m -86,133 -1,4 1,4.999999 2,2 5,-4.999999 -1,-1 4,-2 v -2 l 2,-1 -7,-1 v -2 l -2,1 z m 10,101.999999 7,5 1,-2 5,2 1,-2 h -4 l -6,-3 v -2 l -4,-1 z m 40,-217.999999 3,1 v 3 l -3,5 2,1 1,-2 1,2 7,-2 1,1 1,-2 2,2 1,-2 h 5 l -3,-2 2,-1 -1,-1 -8,3 -4,-5 -6,-2 z m -48,86 -3,3 -4,-1 -6,4 h -7 l 1,2 16,10 h 9 l 2,3 h 4 v -6 l 2,-4 -3,-3 5,-3 h -3 l -2,-4 1,-1 h -7 l -2,-4 -1,2 z m 28,17 -7,1 1,4 h 2 l 1,-2 h 9 l 3,-4 h 3 v 3 h 2 l 1,3 h 2 v -2 l 4,-3 -4,-2 v -3 h -9 l -8,2 z m -53,224.999999 -2,5 h 4 l 1,-2 3,1 3,-4 h -5 l 2,-5 -4,-2 -1,5 2,1 z m 118,-351.999999 -1,1 4,2 1,-1 1,-2 -4,-2 z m -150,443.999999 3,2 v -3 l 8,-5 h -3 l -3,3 h -5 l 1,3 z m 170,-430.999999 v 1 z m -188,439.999999 v 2 l 3,-2 5,2 3,-4 -4,2 -4,-3 -1,3 z m 106,-260 -1,3 6,6 3,1 v 9 l 2,2 5,1 v -4 l -3,-1 1,-3 3,-1 v -2 h 2 l 1,-5 -5,-2 h 4 l -2,-4 1,-2 -3,-1 -2,2 -5,-3 -3,1 -1,-2 z m 18,-99.999999 2,-1 -3,-3 1,-3 -5,-3 -6,-1 2,-2 -2,-1 -3,3 -7,-2 -2,1 -3,-2 -2,1 1,12 6,2 6,-1 1,-2 10,2 z m -36,324.999999 h 2 z m -9,-114 4,-3 v -2 h 3 v -2 l -4,1 -2,3 -2,-1 z m -145,267 2,-2 z m 97,-121 4,-3 h -5 z m -15,-14 4,-2 2,-5 -2,-2 -2,2 v 4 z m 89,-365.999999 h -2 l 5,3 v -5 l -1,1 z m 22,20 7,2 -4,-4 -1,2 z m -138,425.999999 -1,2 2,-1 z m 143,-384.999999 1,2 4,1 v -2 l -2,-1 z m -38,80.999999 h -6 l -2,2 1,3 h 2 l 2,4 6,5 5,2 3,-2 -3,-3 1,-3 -4,-1 4,-1 1,-3 -7,-3 z m 7,-137.999999 2,2 1,-1 z m -16,180.999999 v 2 l 2,-1 z m -227,413 1,1 2,-4 -1,-1 -2,2 z m 315,-529.999999 1,2 1,-5 -1,1 z m -50,34.999999 1,2 -1,-4 z m -43,46 1,2 1,-3 h -3 z m -73,153 6,6 3,-1 -1,-8 h -8 z m -107,301 -2,1 1,1 5,-3 -2,-1 z m 179,-380 2,1 v -2 z m -29,-34 v 4 l 2,-2 v -3 z m 43,153 1,2 v -2 z m 48,-278.999999 1,-2 h -3 z m -106,-117 3,7 v 8 l 7,9.9999999 13,10 12,3 v -4 h -4 l -6,-4 -1,-3 -12,-5 -3,-4.9999999 v -9 l -4,-11 z m 126,121 2,1 v 2 h 2 l -1,-5 h -2 z m -66,-4 2,-1 -2,-1 z m -70,364.999999 4,-1 2,-4 -4,-1 v -2 h -2 l -3,3 h 2 l -1,5 z m -38,40 2,1 -1,-3 -1,1 z m -103,75 v 3 l 2,-4 z m 195,-360 5,-9 -5,-8 -7,-4 -1,-5 -4,-4 -2,2 h -4 l -3,2 -4,12 5,3 4,-3 2,1 5,6 1,5 h 6 z m 9,-7 v 2 h 2 z m 42,-222.999999 1,-2 -3,-1 v 3 z m -19,29.9999999 -1,1 4,2 z m -51,1 -5,1 3,4.0000001 3,-2.0000001 -1,-1 4,-1 z m 51,158.9999991 2,3 1,-3 z m -24,38 h 3 z m -45,90 4,2 -2,-2 z m -104,238 v -4 l -2,2 h 2 l -1,3 z m 191,-388 -2,1 2,3 z m 20,-146.9999991 v -2 l 3,-1 v -2 h -2 l -3,-2.9999999 -2,5.9999999 z m -71,88.0000001 v 2 l 2,1 3,-1 -4,-3 z m 45,-83.0000001 h 1 z m -81,240.9999991 2,1 -1,-1 z m -155,355 1,2 2,-1 -1,-2 z m 0,-2 h 4 l -2,-1 z m 135,-135 3,-2 1,1 5,-5 -6,1 -3,3 z m 61,-374.999999 7,1 -1,-3 h -3 l -1,2 z m -42,150.999999 h 5 l -2,-2 z m -52,85 -1,-3 z m 85,-110 -2,3 3,-3 z m -84,111 3,1 z m 67,-227.999999 -1,-5 h -3 l -4,3 2,6 5,-4 z m 60,43.999999 1,-6 h 3 l 1,-2 -3,-2 1,-2 h -5 l -3,10 2,1 z m -92,-26 -7,-2 1,7 -3,5 1,8 -2,3 3,3 v 2 l 5,1 10,-6 -1,-13 h -4 l -2,-6 h -2 z m -142,550 v -2 l -4,-4 -4,-1 1,2 -3,-1 1,2 h -2 l 3,4 v -3 l 5,1 z m 222,-577.999999 h 2 z m -90,33.999999 h 4 l -2,-3 -4,-1 z m 22,184 3,5 2,-1 -2,-4 1,-1 z m 67,-135 2,1 -2,-3 z m -52,15 -5,3 1,6 h 3 l 2,-8 z m -206,429 1,1 v -2 z m 57,16 1,2 1,-2 z m 236,-631.9999991 2,1 z m -67,8 1,-2 -3,1 z m 104,92.0000001 h 2 l -1,-2 z m -35,-104.0000001 3,2 1,-1 -2,-2 z m -106,115.9999991 -6,4 1,3 3,1 -1,3 h 4 l 2,-4 1,-4 -3,-2 z m -156,484 -2,3 4,-1 -1,-3 z m 159,-519.999999 h 4 l 4,-4 -4,-8 -7,3 -4,5 h 2 z m 131,20 h 2 v 2 l 1,-1 -2,-4 h -2 z m -183,236.999999 1,1 z m 1,143 h 2 z m 100,-299 -1,1 h 3 z m -54,161 2,1 2,-2 h -4 z m 88,-344.999999 -1,1.9999999 5,-0.9999999 z m -103,471.999999 h 2 l -1,-1 z m 29,-168 v 2 l 1,-2 z m -71,-287.9999991 3,-1 h -3 z m 102,131.9999991 -2,-2 -5,3 8,4 3,-1 z m -9,-49.999999 v 2 l 4,-2 -1,-1 z m -48,20.999999 -1,3 2,-1 z m 65,79 2,2 v -2 z m -40,69 h 3 z m -156,342 2,1 z m 191,-408 4,2 v -2 l -2,-1 z m -249,423 3,3 -2,-3 z m 266,-423 4,-1 v -3 h -6 l -4,-2 1,-4 -3,-2 -6,1 v 2 l 7,8 h 4 z m -194,396 h -2 z m 169,-575.9999991 3,-1 h -2 z m 20,13.0000001 -1,2 4,-1 v -2 l -2,-1 z m -114,478.999999 2,1 v -2 z m 63,-230 1,-3 -3,2 z m 142,-168 1,3 4,-1 -2,-3 h -3 z m -104,71 h -3 l 5,3 v -2 z m -248,447 -1,2 2,-3 z m 240,-482 -3,2 2,2 h 5 l -1,-4 z m 56,-2 -2,1 1,1 z m -173,396 2,-3 3,-1 v -2 l -5,3 z m 176,-487.999999 1,2 v -2 z m -205,484.999999 5,-3 v -2 l -2,3 h -3 z m 180,-523.9999991 -1,1 3,-2 z m -12,69.0000001 -2,3 v 4 l 7,-3 h 4 l -3,-4 z m 3,85.999999 2,2 h 5 l 1,-2 h 3 l 1,-4 -9,-1 -3,2 z m 66,-200.999999 3,-2 -3,-1 -1,2 z m 25,25 2,-1 v -6 l -7,3 v 2 h 4 z m -147,124.999999 -2,1 2,3 1,-2 z m -140,518 2,-2 h -2 z m -20,-67 10,-5 -3,-4 -11,-1 -6,4 -1,3 2,2 6,-1 z m 131,-139 -2,2 3,-2 z m 46,-289 1,4 3,-2 -3,-4 z m 14,6 h -3 z m -30,-22 h 2 l -1,-3 -2,2 z m -197,490 -2,2 2,-1 z m 272,-631.999999 -1,-4 z m -39,280.999999 -1,1 h 2 z m -90,61 h 2 l -1,-1 z m 109,-319.9999991 2,-1 v -2 l -3,3 z m -200,557.9999991 10,-5 -8,-2 -4,4 z m 178,-381 3,-1 h -3 z m 53,-33 h -2 l 1,2 2,-1 z m -238,404 4,-2 -3,1 z m 308,-560.999999 -1,-6 -3,-1 -2,2 4,3 z m -151,167.999999 3,-1 -2,-2 -2,1 z m 23,-17 1,1 v -2 z m -7,8 -1,-2 h -2 v 3 h 3 z m 24,48 h 1 z m -3,-51 11,6 v -2 l -6,-4 -8,-3 z m -19,-1 3,1 1,-3 -3,-1 z m -25,-21 -1,2 2,1 v -3 z m 11,23 1,5 4,-5 -1,-2 h -2 z m -180,411 9,-4 -3,-2 -6,3 z m 221,-392 4,-1 -5,-1 z m -11,21 -1,2 h 2 v -2 z m -46,276 v -2 z m 12,-304 1,1 1,-2 z m 51,-7 3,2 2,-2 -1,-2 -4,1 z m -14,50 1,2 h 2 v -2 z m -31,-61 2,1 -1,-2 z m -175,530 2,1 -3,-2 z m 6,-9 v 2 h 2 z m 216,-502 3,1 -1,-2 z m -219,498 h -2 l 2,2 z"
     id="Zhejiang" />
</svg>
