<?xml version="1.0" encoding="UTF-8" standalone="no"?>
<svg
   width="595.97571"
   height="1079"
   viewBox="-166 -118 595.97571 1079"
   version="1.1"
   id="svg1"
   xmlns="http://www.w3.org/2000/svg"
   xmlns:svg="http://www.w3.org/2000/svg">
  <defs
     id="defs1" />
  <path
     stroke="#1e90ff"
     stroke-opacity="0"
     stroke-width="0"
	 stroke-linecap="round"
     stroke-linejoin="round"
     fill="#1e90ff"
     fill-opacity="1"
     fill-rule="evenodd"
     d="m -67.524287,-109 -7,3 h -15 l -3,-2 -9.000003,2 -5,8 -12,-3 -3,1 -7,7 1,4 -5,3 -3,5 -16,12 -3,4 h -4 l -3,3 -3,5 -1,9 3,9 -2,13 4,7 v 17 l 14,3 5,7 10,-1 4,5 7,-1 5,4 13,4 12.000003,-3 2,-10 9,-2 h 10 l 3,-9 8,-7 5,-2 11,-1 v -7 l 5,-2 3,-25 7,-16 7,-4 5,-7 10.0000002,-6 -6.0000002,-26 -11,-1 -8,-9 -10,6 -9,-3 -4,1 -2,3 -10,-1 z m 135,1067 h 5 l -1,-3 -3,1 z m 67.999997,-276 5,-4 -3,5 4,-4 2,-7 -2,-1 v 5 l -4,3 z M 54.475713,959 v 2 h 4 v -4 h -4 z m -35,-868 4,-1 -2,3 4,-2 -1,-2 -5,1 z m 401.999997,127 1,6 7,-1 -7,-1 v -4 l 2,-3 -2,1 z M 69.475713,953 h 4 l -3,-2 z m -32,-802 4,-1 1,-2 -2,-3 -6,2 h 6 l 1,2 z m -6,-4 -4,3 -1,3 h 3 l 5,-3 -5,2 -1,-2 5,-4 z m 144.999997,569 1,3 9,2 20,-7 3,-2 3,-9 5,-3 v -6 h -8 l -9,5 -4,5 -7,5 -11,5 z m 5,-82 4,6 1,-2 -4,-4 z m -1,2 1,3 h 2 l -2,-3 z M 52.475713,142 l 5,1 2,-3 h -5 z m -15,-9 3,-4 -3,-2 2,4 z m 157.999997,508 1,3 3,-1 -2,-3 z M 69.475713,97 l -1,2 h 5 z m 157.999997,441 2,1 2,-3 h -3 z m 74,41 2,4 2,-1 1,-7 h -3 z m -79,-16 2,3 3,-4 z m -54,151 v 3 l 4,-1 v -2 z m -277,19 v 2 h 3 l 12.000003,-13 h 16 l -9,-4 h -6 l -4,1 -8.000003,7 z m 438,-100 1,2 3,-3 -2,-1 z M 85.475713,164 l 6,-1 2,-2 -1,-2 -8,2 -1,2 z m 3,472 3,2 4,-1 -3,-2 z M 213.47571,506 h 6 l 2,-2 -1,-3 h -2 z M 80.475713,144 l -1,2 10,-2 -1,-2 z m 262.999997,390 -2,6 h 7 l 5,-2 -1,-2 -8,1 2,-4 z M 76.475713,103 l -1,-4 h -2 z m -54,30 3,2 v -2 z m 256.999997,434 3,2 2,-3 -4,-1 z m -53,110 1,2 3,-1 -1,-1 z m -11,6 h 6 l 2,-2 -2,-1 z m 43,-17 1,2 6,2 2,-3 -7,-2 z m -82,24 v 3 l 5,1 -2,-5 z m 99,-88 h 2 l -1,-4 z m 66,12 1,3 1,-3 z m -182,13 1,1 5,-3 -1,-1 z m 68,-132 7,-5 v -2 h -2 l -4,4 z m -5,-28 3,-1 v -5 h -3 z m 19,37 1,1 1,-4 z M 26.475713,132 l 3,2 -1,-3 z m 152.999997,502 -2,-1 -1,2 2,1 z m -257.999997,67 1,2 6,-2 2,-7 h -3 l -5,4 z m 436.999997,-239 3,5 -2,-6 z M 34.475713,124 l 2,2 v -2 z m 52,9 6,-4 -1,-1 -5,3 z m -48,27 1,2 4,-3 z m 134.999997,399 1,1 -1,-8 z m 61,121 -1,3 h 2 z m 31,-132 1,1 2,-2 z m -37,-396 7,-2 h -7 z m 82,453 h -3 l 1,3 3,-2 z m -149,6 h 2 z m 64,106 2,2 2,-3 h -3 z m -11,-204 5,-4 -2,-1 z m 211,-3 2,1 2,-3 v -2 l -2,-1 z m -227,35 6,-3 h -4 z m 29,-81 3,3 -1,-4 z m 125,63 5,1 -1,-2 z M -44.524287,683 v 3 l 6,-1 3,-5 -2,-1 -7,3 z M 264.47571,658 v 2 l 2,-3 z m -132,28 3,-3 z m 55,-186 h 3 l -1,-2 z m 205,39 3,1 -2,-3 z m -196,-378 6,1 v -2 z m -231.999997,529 2,1 v -2 z m 315.999997,-31 1,2 h 2 v -4 h -3 z M 24.475713,720 h 3 l 2,-3 -3,-1 z m 8,-73 v 3 l 4,-2 -2,-2 z m -77,57 1,1 2,-2 -2,-1 z m 121,-74 3,1 v -2 z m -27,56 3,2 3,-2 -4,-2 z m 264.999997,-132 2,2 v -4 z m 79,-39 9,1 1,-2 -8,-2 z m -155,225 -3,3 h 4 z M 33.475713,713 h 2 l 3,-3 -2,-2 -2,1 z m 55,121 2,2 v -4 z M 221.47571,636 h 3 l 2,-3 h -4 z m 17,56 1,2 3,-2 -1,-2 z m -81,66 -2,3 h 2 z m 199,-617 1,3 2,-2 v -2 l -2,-1 z m 42,413 2,2 v -3 z m -280,-625 h 3 l -1,-4 h -2 z m 93,233 5,-2 -3,-1 z m -39,-211 5,-1 v -4 h -7 v 2 z M 96.475713,878 v 3 l 2,1 1.999997,-2 -1.999997,-3 z m -65,-181 4,1 v -3 h -4 z m 39,-63 2,1 v -2 z m 40.999997,67 3,1 v -3 z m -19.999997,148 2,6 2,-1 -2,-6 z m -3,-6 1,2 1,-4 h -2 z m 181.999997,-543 3,2 2,-1 -1,-2 z m -158,585 3,1 v -4 l -3,1 z m -21.999997,-7 v 2 l 3,-1 v -2 z m -22,-765 3,-1 -4,-2 z m 1,71 1,-3 -3,2 z m 24,677 2,2 3,-2 v -2 h -3 z m 150.999997,-138 2,2 2,-1 v -3 z m -218.999997,-20 2,3 2,-5 -1,-1 z m 153.999997,-528 2,2 v -2 z m 63,-14 h -2 l 1,3 z m 118,461 h -4 l 3,2 z M 95.475713,138 l 3,-1 -2,-2 z m 200.999997,392 1,2 2,-2 z m -208.999997,60 3,2 v -3 z m 134.999997,-403 -2,2 2,1 z m 173,303 -2,1 2,2 z m 25,2 h -2 l 2,2 z m -227,109 1,2 1,-3 z"
     id="Hainan" />
</svg>
