<?xml version="1.0" encoding="UTF-8" standalone="no"?>
<svg
   width="308.5"
   height="256"
   viewBox="0 0 1234 1024"
   version="1.1"
   id="svg1"
   xmlns="http://www.w3.org/2000/svg"
   xmlns:svg="http://www.w3.org/2000/svg">
  <defs
     id="defs1" />
  <path
     stroke="#1e90ff"
     stroke-opacity="0"
     stroke-width="0"
	 stroke-linecap="round"
     stroke-linejoin="round"
     fill="#1e90ff"
     fill-opacity="1"
     fill-rule="evenodd"
     d="M331.580952 214.552381c4.87619 4.87619 0 14.628571-14.628571 9.752381-9.752381-4.87619-14.628571 0-24.380952 14.628571-14.628571 14.628571-29.257143 24.380952-48.761905 29.257143-14.628571 9.752381-24.380952 14.628571-39.009524 24.380953-14.628571 4.87619-24.380952 14.628571-39.009524 29.257142-14.628571 14.628571-24.380952 24.380952-39.009524 29.257143-9.752381 0-29.257143 19.504762-34.133333 24.380953-9.752381 9.752381-19.504762 24.380952-39.009524 24.380952s-29.257143 4.87619-39.009524 24.380952c-9.752381 19.504762-4.87619 29.257143 0 39.009524 9.752381 9.752381 14.628571 14.628571 0 29.257143s-14.628571 39.009524-14.628571 53.638095c0 14.628571 4.87619 19.504762 9.752381 34.133334s4.87619 24.380952 4.87619 43.885714 0 19.504762-9.752381 34.133333c-9.752381 14.628571 0 29.257143 14.628572 39.009524s14.628571 34.133333 14.628571 48.761905c0 19.504762 4.87619 24.380952-4.87619 39.009524-9.752381 14.628571-9.752381 34.133333 4.87619 48.761904 9.752381 14.628571 9.752381 14.628571 29.257143 14.628572 14.628571 0 39.009524 0 43.885714 9.752381 9.752381 9.752381 19.504762 19.504762 34.133334 19.504762 14.628571 0 29.257143 4.87619 34.133333 19.504762 4.87619 14.628571 19.504762 19.504762 34.133333 14.628571 19.504762-4.87619 43.885714-4.87619 48.761905 14.628571s19.504762 29.257143 39.009524 24.380953c19.504762-9.752381 29.257143-9.752381 48.761905-4.876191 19.504762 9.752381 34.133333 4.87619 48.761905 9.752381 14.628571 4.87619 43.885714 9.752381 34.133333 24.380953-9.752381 14.628571 0 24.380952 14.628571 9.752381s24.380952-9.752381 24.380953 0c-4.87619 14.628571 14.628571 9.752381 9.752381 19.504762-4.87619 14.628571 4.87619 14.628571 14.628571 9.752381 9.752381-4.87619 14.628571-14.628571 9.752381-24.380953-4.87619-9.752381-4.87619-9.752381 4.876191-14.628571 9.752381-4.87619 9.752381 0 19.504761-4.876191s14.628571 4.87619 14.628572 14.628572c4.87619 9.752381 9.752381 9.752381 14.628571 0 4.87619-9.752381 9.752381-19.504762-4.87619-24.380953-14.628571-4.87619-14.628571-9.752381 0-9.752381s14.628571-4.87619 14.628571-14.628571c0-14.628571 4.87619-19.504762 14.628572-34.133333 9.752381-14.628571 19.504762-29.257143 24.380952-19.504762 9.752381 9.752381 19.504762 9.752381 34.133333 0 14.628571-9.752381 29.257143-19.504762 48.761905-24.380953 19.504762-4.87619 29.257143 0 14.628572 9.752381s-24.380952 19.504762-4.876191 24.380953c19.504762 4.87619 24.380952 0 39.009524-4.876191 14.628571-4.87619 24.380952-14.628571 24.380952-39.009524 0-19.504762 0-24.380952 14.628572-43.885714s34.133333-29.257143 48.761904-39.009524c14.628571-14.628571 29.257143-19.504762 53.638096-19.504762 24.380952 0 48.761905 0 53.638095-19.504762 4.87619-19.504762 9.752381-34.133333 24.380952-39.009523 14.628571-4.87619 29.257143-9.752381 24.380953-19.504762-4.87619-9.752381-4.87619-4.87619-4.876191-19.504762s-9.752381-14.628571-9.752381 0c0 19.504762 0 24.380952-9.752381 24.380952-9.752381 4.87619-9.752381-9.752381-19.504762-9.752381s-14.628571-9.752381 0-14.628571c9.752381-4.87619 9.752381-4.87619 14.628572-14.628572 4.87619-9.752381 4.87619-4.87619 14.628571-14.628571 9.752381-4.87619 9.752381-14.628571 9.752381-29.257143s-4.87619-29.257143 9.752381-39.009524c14.628571-14.628571 24.380952-24.380952 14.628572-29.257143-9.752381-4.87619-4.87619-4.87619-4.876191-19.504761 0-9.752381-4.87619-9.752381 4.876191-9.752381 9.752381-4.87619 14.628571-9.752381 19.504762-34.133334s9.752381-39.009524 19.504761-43.885714c14.628571-9.752381 19.504762-14.628571 24.380953-29.257143 4.87619-14.628571 4.87619-19.504762 14.628571-24.380952 9.752381-4.87619 9.752381-9.752381 14.628572-19.504762 0-9.752381 9.752381-14.628571 19.504762-19.504762 9.752381-4.87619 29.257143-14.628571 24.380952-29.257143 0-14.628571-4.87619-14.628571-19.504762-29.257143-14.628571-14.628571-9.752381-14.628571 4.876191-19.504762 14.628571 0 29.257143-4.87619 39.009523-14.628571 9.752381-9.752381 9.752381 0 4.876191 4.87619s-4.87619 9.752381-4.876191 9.752381 0 9.752381-14.628571 9.752381c-14.628571-4.87619-9.752381 9.752381-4.876191 24.380953s4.87619 24.380952 24.380953 4.87619c14.628571-14.628571 24.380952-19.504762 34.133333-34.133333 9.752381-14.628571 14.628571-9.752381 24.380953-4.876191 14.628571 4.87619 14.628571-4.87619 0-14.628571-9.752381-9.752381-9.752381-19.504762-9.752381-39.009524s0-39.009524-9.752381-53.638095c-9.752381-19.504762-4.87619-19.504762-9.752381-34.133334-19.504762 0-19.504762 4.87619-24.380953-9.75238-4.87619-14.628571-9.752381-24.380952-29.257143-19.504762-14.628571 4.87619-29.257143 0-43.885714-9.752381-14.628571-9.752381-19.504762-14.628571-34.133333-24.380953-14.628571-9.752381-19.504762-19.504762-19.504762-34.133333-4.87619-14.628571-9.752381-9.752381-9.752381 0s-4.87619 19.504762-19.504762 19.504762c-19.504762 0-39.009524 0-34.133333 19.504762 4.87619 19.504762 4.87619 29.257143 0 34.133333-4.87619 9.752381-9.752381 9.752381-14.628572 0-4.87619-9.752381-9.752381-19.504762-24.380952-24.380952-14.628571-4.87619-24.380952-14.628571-34.133333-19.504762-14.628571-9.752381-29.257143-14.628571-43.885715 0-14.628571 14.628571-19.504762 14.628571-39.009524 14.628571-19.504762-4.87619-34.133333-4.87619-48.761904 4.876191-9.752381 9.752381-39.009524 19.504762-14.628572 19.504762 14.628571 0 14.628571 14.628571-4.87619 9.752381-19.504762-4.87619-29.257143-9.752381-43.885714 0-14.628571 9.752381-14.628571 9.752381-14.628572 24.380952s-4.87619 19.504762-9.752381 9.752381c-4.87619-4.87619 0-4.87619-4.87619-4.876191s0-4.87619-4.876191-9.752381c-4.87619-9.752381-9.752381-19.504762-24.380952-24.380952-14.628571 0-19.504762 4.87619-29.257143 19.504762-9.752381 14.628571-24.380952 29.257143-14.628571 4.87619s14.628571-34.133333 4.87619-34.133333c-9.752381 0-4.87619 4.87619-9.752381 19.504762-4.87619 14.628571-9.752381 19.504762-14.628571 9.752381-4.87619-9.752381-9.752381-9.752381-14.628572-9.752381-9.752381 4.87619-9.752381 0-19.504762-9.752381-4.87619-9.752381-24.380952-19.504762-39.009524-9.752381-19.504762 9.752381-24.380952 9.752381-39.009523 19.504762-19.504762 14.628571-24.380952 29.257143-19.504762 39.009524 4.87619 9.752381 14.628571 19.504762 0 19.504762-9.752381 0-9.752381 0-19.504762 4.87619-4.87619 4.87619-9.752381 4.87619-14.628572-4.87619-4.87619-9.752381-19.504762-14.628571-34.133333-14.628572-14.628571 4.87619-24.380952 4.87619-34.133333 0-4.87619-9.752381-14.628571-14.628571-29.257143 0l-43.885714 29.257143c-19.504762 9.752381-14.628571 24.380952-9.752381 34.133334 4.87619 9.752381 19.504762 14.628571 34.133333 0 0 0 4.87619-4.87619 14.628571-9.752381 9.752381-4.87619 19.504762-4.87619 14.628572 4.87619-4.87619 4.87619-4.87619 19.504762-4.876191 19.504762"
     id="Hainan" />
</svg>
