<svg xmlns="http://www.w3.org/2000/svg" id="svg1" version="1.1" viewBox="-166 -118 595.97571 1079">
  <path id="Hainan" fill="#ff6347" fill-opacity="1" fill-rule="evenodd" stroke="#ff6347" stroke-linecap="round" stroke-linejoin="round" stroke-opacity="0" stroke-width="0" d="m-67.524-109-7 3h-15l-3-2-9 2-5 8-12-3-3 1-7 7 1 4-5 3-3 5-16 12-3 4h-4l-3 3-3 5-1 9 3 9-2 13 4 7v17l14 3 5 7 10-1 4 5 7-1 5 4 13 4 12-3 2-10 9-2h10l3-9 8-7 5-2 11-1v-7l5-2 3-25 7-16 7-4 5-7 10-6-6-26-11-1-8-9-10 6-9-3-4 1-2 3-10-1zm135 1067h5l-1-3-3 1zm68-276 5-4-3 5 4-4 2-7-2-1v5l-4 3zm-81 277v2h4v-4h-4zm-35-868 4-1-2 3 4-2-1-2-5 1zm402 127 1 6 7-1-7-1v-4l2-3-2 1zm-352 735h4l-3-2zm-32-802 4-1 1-2-2-3-6 2h6l1 2zm-6-4-4 3-1 3h3l5-3-5 2-1-2 5-4zm145 569 1 3 9 2 20-7 3-2 3-9 5-3v-6h-8l-9 5-4 5-7 5-11 5zm5-82 4 6 1-2-4-4zm-1 2 1 3h2l-2-3zm-128-494 5 1 2-3h-5zm-15-9 3-4-3-2 2 4zm158 508 1 3 3-1-2-3zm-126-544-1 2h5zm158 441 2 1 2-3h-3zm74 41 2 4 2-1 1-7h-3zm-79-16 2 3 3-4zm-54 151v3l4-1v-2zm-277 19v2h3l12-13h16l-9-4h-6l-4 1-8 7zm438-100 1 2 3-3-2-1zm-244-469 6-1 2-2-1-2-8 2-1 2zm3 472 3 2 4-1-3-2zm125-130h6l2-2-1-3h-2zm-133-362-1 2 10-2-1-2zm263 390-2 6h7l5-2-1-2-8 1 2-4zm-267-431-1-4h-2zm-54 30 3 2v-2zm257 434 3 2 2-3-4-1zm-53 110 1 2 3-1-1-1zm-11 6h6l2-2-2-1zm43-17 1 2 6 2 2-3-7-2zm-82 24v3l5 1-2-5zm99-88h2l-1-4zm66 12 1 3 1-3zm-182 13 1 1 5-3-1-1zm68-132 7-5v-2h-2l-4 4zm-5-28 3-1v-5h-3zm19 37 1 1 1-4zm-215-372 3 2-1-3zm153 502-2-1-1 2 2 1zm-258 67 1 2 6-2 2-7h-3l-5 4zm437-239 3 5-2-6zm-324-338 2 2v-2zm52 9 6-4-1-1-5 3zm-48 27 1 2 4-3zm135 399 1 1-1-8zm61 121-1 3h2zm31-132 1 1 2-2zm-37-396 7-2h-7zm82 453h-3l1 3 3-2zm-149 6h2zm64 106 2 2 2-3h-3zm-11-204 5-4-2-1zm211-3 2 1 2-3v-2l-2-1zm-227 35 6-3h-4zm29-81 3 3-1-4zm125 63 5 1-1-2zm-397 156v3l6-1 3-5-2-1-7 3zm309-25v2l2-3zm-132 28 3-3zm55-186h3l-1-2zm205 39 3 1-2-3zm-196-378 6 1v-2zm-232 529 2 1v-2zm316-31 1 2h2v-4h-3zm-256 61h3l2-3-3-1zm8-73v3l4-2-2-2zm-77 57 1 1 2-2-2-1zm121-74 3 1v-2zm-27 56 3 2 3-2-4-2zm265-132 2 2v-4zm79-39 9 1 1-2-8-2zm-155 225-3 3h4zm-205-27h2l3-3-2-2-2 1zm55 121 2 2v-4zm133-198h3l2-3h-4zm17 56 1 2 3-2-1-2zm-81 66-2 3h2zm199-617 1 3 2-2v-2l-2-1zm42 413 2 2v-3zm-280-625h3l-1-4h-2zm93 233 5-2-3-1zm-39-211 5-1v-4h-7v2zm-76 927v3l2 1 2-2-2-3zm-65-181 4 1v-3h-4zm39-63 2 1v-2zm41 67 3 1v-3zm-20 148 2 6 2-1-2-6zm-3-6 1 2 1-4h-2zm182-543 3 2 2-1-1-2zm-158 585 3 1v-4l-3 1zm-22-7v2l3-1v-2zm-22-765 3-1-4-2zm1 71 1-3-3 2zm24 677 2 2 3-2v-2h-3zm151-138 2 2 2-1v-3zm-219-20 2 3 2-5-1-1zm154-528 2 2v-2zm63-14h-2l1 3zm118 461h-4l3 2zm-265-484 3-1-2-2zm201 392 1 2 2-2zm-209 60 3 2v-3zm135-403-2 2 2 1zm173 303-2 1 2 2zm25 2h-2l2 2zm-227 109 1 2 1-3z"/>
</svg>
