<?xml version="1.0" encoding="UTF-8" standalone="no"?>
<svg
   width="1415"
   height="904.5"
   viewBox="-166 -118 1415 904.5"
   version="1.1"
   id="svg1"
   xmlns="http://www.w3.org/2000/svg"
   xmlns:svg="http://www.w3.org/2000/svg">
  <defs
     id="defs1" />
  <path
     stroke="#1e90ff"
     stroke-opacity="0"
     stroke-width="0"
	 stroke-linecap="round"
     stroke-linejoin="round"
     fill="#1e90ff"
     fill-opacity="1"
     fill-rule="evenodd"
     d="m 321.5,-94.5 -2,-2 -3,1 5,-6 -6,-7 -3,-1 -2,-4 h -3 l -2,1 -6,11 -11,-3 -1,2 -5,1 -2,2 1,7 -2,2 -1,-2 -2,2 -9,1 -4,3 -1,7 -3,1 -6,-7 -2,-6 -5,2 -6,-2 -1,-11 -3,-10 -2,-1 h -5 l -2,2 v 4 l -8,7 -3,4 1,1 h -18 v -3 l -6,3 -1,3 -7,-2 -12,2 -12,-11 -23,4 -4,-1 -3,-3 -5,2 -3,-1 -7,-5 -13,-4 -21,4 -10,-6 -3,2 -2,-1 v -3 l -2,-2 h -4 l -2,2 v 7 l -3,1 -7,-3 -7,1 -2,7 -3,1 -8,11 5,2 h 8 l 9,4 3,3 3,-2 1,2 6,-2 10,1 3,3 16,7 1,2 -2,16 -4,17 6,6 9,-3 2,-4 h 3 l 2,2 h 6 l 2,4 h 11 l 8,3 3,4 12,6 2,4 3,-1 -3,7 2,3 4,-1 1,4 -2,13 9,12 -7,9 -11,-6 -4,2 1,6 -11,8 -6,-1 -4,-6 -5,1 -6,-4 h -6 l -6,3 h -5 l -11,-2 -6,-4 -17,1 -3,5 4,8 -4,4 -5,2 -2,2 v 3 l -5,3 v 5 l -4,4 v 8 h -3 l -2,4 2,12 -3,5 6,7 4,9 h 4 l 4,2 2,3 -3,9 1,5 5,7 -6,12 v 8 l 8,11 v 4 l -2,3 -5,1 -2,5 4,4 6,15 -1,2 h -5 l -2,3 v 8 l 2,2 -4,3 6,4 5,-2 h 9 l 1,3 6,1 -1,2 3,6 -1,7 5,6 -4,1 1,4 -4,2 v 4 h 11 l 3,2 3,-3 h 3 l 11,8 5,-1 4,3 7,-1 -8,7 1,2 2,1 2,-2 h 4 l 12,14 h 11 l 2,4 h 2 v 5 l 4,7 -1,4 2,3 -2,5 1,6 3,1 -1,4 2,10 3,3 v 2 l -2,2 v 4 l -5,3 -2,-1 -5,6 v 4 l 2,3 -2,5 3,1 v 9 l 5,-1 1,3 -5,11 2,3 -6,9 -1,5 -4,3 -2,7 h -5 l -3,-5 -4,-2 v -5 l -2,-6 -2,-1 -9,2 -1,-2 -8,-2 -14,8 -7,2 -12,10 1,5 -3,2 v -3 l -3,3 -6,2 1,5 -2,4 -4,3 -7,2 v 6 l -3,4 -6,2 v -6 l -4,2 -6,7 -5,2 -11,18 -8,9 -2,-2 -1,-5 5,-7 -3,-5 -6,-5 3,-3 -3,1 -3,-4 -8,8 h -4 l -1,2 h 4 l -5,2 -5,6 -4,-1 -4,6 -2,-3 h -3 l 1,-1 -6,-7 -2,-6 5,-3 2,-3 -1,-3 h -11 l -2,-2 -4,2 -2,3 -2,-1 -2,2 h -4 l -4,5 -5,2 -14,18 -5,3 -5,-5 -8,4 -3,-2 -3,-7 -2,-1 -2,-9 -4,-1 -5,3 2,8 -8,6 1,2 -4,1 v 2 l -4,4 -2,-4 h -5 l -3,-3 h -4 l -4,3 -7,-1 -3,3 2,6 -2,3 2,1 1,3 -2,5 h -3 v 4 l 4,1 2,3 5,-1 1,3 6,6 h 3 l 2,2 -1,2 2,1 2,5 4,3 h 3 l -3,6 -3,13 3,2 -6,17 h -2 l -1,2 v 2 h 3 l -1,10 3,2 -5,11 v 17 l -2,-3 -7,3 -6,-3 -6,5 -2,-2 v 2 l -4,3 v 4 l 5,1 1,-4 1,3 3,1 v 9 l 3,-1 1,3 -2,5 h 5 l 1,2 4,1 2,4 2,-1 -1,-4 h 3 l 5,-4 -5,-3 6,-11 4,-3 v -3 l 4,-4 4,-1 2,1 v 2 h 5 l 2,8 h -2 l 4,3 -1,11 2,2 -1,4 2,4 -2,2 h 7 l -2,3 4,1 4,5 5,-1 -1,-4 -4,-3 6,-1 2,7 -1,3 h -2 l 1,2 3,-1 2,2 3,-8 v 4 l 3,-2 2,5 2,-2 3,3 -3,7 3,2 3,-4 v 5 l 2,2 -5,4 v 11 l -3,3 v 3 l 1,5 2,2 7,1 4,5 -2,2 -3,16 10,-1 5,-7 6,1 1,-7 3,-2 5,2 1,3 h 2 l 3,5 v 8 l -2,5 7,4 -6,12 5,9 h 3 l 1,-2 2,1 8,6 3,6 3,1 1,-2 h 4 l -3,-8 3,-2 v -6 l -3,-5 10,-6 7,-7 v -4 h -2 v -13 l 5,-3 4,2 -4,-8 1,-3 4,-3 2,1 -1,-2 3,-2 -2,-3 v -5 h 6 l -2,-3 v -5 h 3 l 2,4 2,-1 -2,-3 1,-5 h 5 l 3,-7 v -2 h -2 l 1,-2 h 4 l -2,-2 1,-2 8,4 9,-6 6,2 4,6 2,-2 h 5 l 3,-2 -3,-4 3,-5 -1,-3 8,-3 v -5 l 3,-3 -4,-2 v -2 h 3 l 4,-4 14,-2 7,2 7,-3 6,2 h 8 l 8,-3 9,-1 8,7 h 5 l 11,5 8,7 1,7 3,1 5,-2 3,6 3,1 8,-6 h 5 l 1,-6 3,-4 7,4 h 4 l 16,-11 5,-6 -5,-11 -3,-3 -3,1 -1,-2 -5,-1 v -3 l -3,-3 1,-4 -7,-3 1,-7 9,-9 -1,-2 -8,-2 -3,-3 2,-1 -1,-6 h 19 l 9,-5 7,4 -1,1 2,3 4,2 1,-2 h 3 l 4,-3 -2,-12 3,-2 7,1 2,-2 h 6 l 5,3 h 9 l 1,10 13,1 6,2 38,2 3,2 2,4 h 3 l 2,2 v 3 l 4,3 1,-1 4,8 1,-2 h 6 v 6 l 4,2 6,-4 7,3 9,-2 4,7 h 19 l 2,2 6,-1 6,-6 5,-1 7,3 2,1 v 2 l 4,1 v 3 l 2,-1 4,5 h 9 l 1,3 4,2 4,-1 1,1 -3,4 1,3 4,2 2,-1 v 2 l 4,1 10,7 -2,-3 2,-2 v 3 l 2,2 -3,10 1,3 5,-1 3,6 2,-1 1,2 h 4 l 3,-2 3,3 3,7 v -3 l 4,-1 v -2 l 3,-3 v 9 l 8,4 h 3 l 1,2 v 4 l -4,7 v 8 l 2,-4 4,-2 1,-3 h 9 l 10,-12 3,-8 11,1 1,4 5,3 7,-6 7,3 3,-1 3,2 1,3 5,-2 1,3 8,-14 1,2 6,-4 v -2 l 5,-1 v -7 l 3,-3 -2,-2 12,-10 h 6 l 1,-2 -3,-1 3,-1 6,3 1,2 v 3 l -2,-2 -1,2 2,8 v 9 h 2 l 3,-3 3,-8 5,-4 1,-3 3,-1 1,2 -5,15 -17,16 7,30 h 4 l 3,-5 8,-6 5,1 3,15 3,4 2,-3 -1,-3 h 6 l 2,2 2,-2 13,-18 9,-8 9,-14 14,-16 10,-7 21,-19 2,3 -1,4 -2,1 v 5 l -3,4 2,9 -4,6 v 3 l 2,2 9,1 h 7 l 3,-3 h 2 l 3,9 4,1 1,6 3,-1 1,4 h 2 l -6,8 -5,1 v 2 l -9,4 2,3 7,-1 8,8 3,1 2,4 v 2 l -3,3 1,3 -3,4 -10,1 -2,4 v 7 l -5,3 -4,14 h 5 l 4,6 1,-2 5,1 v 6 l -5,7 1,5 4,6 -1,7 2,1 2,-4 3,-2 v 4 l 3,6 6,-8 10,-2 v 7 l 5,2 5,-1 -1,6 3,2 9,-4 1,-10 4,-2 3,-5 9,-6 5,-10 18,-3 3,1 8,-4 h 5 l -1,-7 3,-5 -2,-4 2,-2 -1,-5 2,-1 7,-3 3,1 4,7 h 5 l 5,-3 h 5 l 3,-2 2,5 h 12 l 6,-4 7,-2 5,-6 h 5 l 5,-3 h 10 l 2,2 v 4 l 3,1 5,-5 4,1 4,-3 7,-2 2,1 v 2 l 3,-1 3,-5 h 4 l 2,-10 -2,-1 v -3 l -5,3 2,4 -5,4 -2,-7 h -2 l -1,-2 4,-4 3,-7 v 5 l 5,-3 v 5 l 2,1 3,-2 2,-3 -3,-2 1,-6 h 3 l 5,-4 6,6 10,-3 2,2 -2,6 12,2 v -13 l 4,-3 -1,-2 -7,2 -2,-2 2,-1 v -6 l 2,-4 -4,-1 -3,-4 3,-3 3,4 7,3 17,-1 1,8 2,1 8,-6 h 6 v -2 l 20,-18 -1,-5 2,-10 5,-2 1,-4 7,1 22,-3 7,3 10,9 14,9 17,6 6,-1 15,-7 5,-6 11,-7 v -12 l -2,-5 -9,-11 v -12 l 3,-5 -2,-5 1,-14 -6,-9 2,-8 -3,-4 h -3 l -3,-5 -4,-1 -2,-8 -5,-3 -6,1 -3,-2 2,-5 -6,-9 3,-4 h 2 l 2,-4 h 3 l 1,-2 -4,-1 -5,-5 1,-6 4,-7 -6,-6 -2,-6 -5,-6 h -6 l -2,-3 1,-6 -9,-9 v -5 l 5,-11 h 4 l 2,2 5,-1 3,-4 v -2 h -2 l 2,-3 -3,-6 v -4 l 3,-4 3,-3 9,-2 1,-3 13,-10 h 4 l 1,-2 h 6 l -2,-11 h -8 l -2,-5 -8,-3 -3,1 -1,-6 -7,-4 -4,-11 -2,-1 -6,4 -4,-1 -8,4 -2,-6 -3,-2 -7,-11 -9,-2 -4,6 -5,2 -1,5 -2,2 -5,-4 -3,-6 -2,-13 -4,-4 -7,1 -3,-4 1,-7 h -2 l -1,-6 -4,-1 -3,2 -6,-2 2,-2 -1,-3 3,-4 -4,-3 h -7 l -1,3 -3,2 h -2 l -1,-3 -3,-1 -3,3 -2,-1 2,-4 -2,-3 -6,-1 -2,-4 2,-4 -1,-5 4,-14 -8,-2 -5,-9 -7,2 v 4 l -3,2 -1,3 2,6 -4,2 1,2 h -6 l -8,-4 -2,5 -2,1 2,2 -2,1 v 3 l -3,-1 -1,-4 -2,-1 -5,5 -2,-1 -8,2 -3,-2 -7,5 -3,-5 h -4 l -3,-4 1,-5 -15,-1 v -4 h -5 l -3,-6 h -2 v -2 h -5 l -3,1 -2,4 h -5 l -2,-18 2,-3 h 2 l 1,-7 h 2 l 1,-2 -3,-2 2,-10 -1,-2 -2,1 -3,-2 -1,4 -3,2 -2,-5 h -2 v 5 h -7 l -2,2 -2,-1 -1,2 -5,-1 v -2 l -3,-1 -5,1 -4,-3 -11,1 -10,-18 -3,1 -2,-3 -5,-2 -3,1 v 2 l -6,-1 -2,8 -4,1 -2,4 h -3 l -2,3 h -8 l -7,4 -2,-7 -3,-2 1,-4 -2,-3 2,-6 -4,-3 v -2 h -2 l -3,2 -2,4 -7,2 -5,-8 1,-9 -5,-3 2,-7 -11,-4 2,-7 h 2 l 2,-4 -8,-7 v -2 l -3,-1 -1,-9 5,2 2,-10 4,-5 -2,-5 -1,1 -3,-3 -2,-5 v -4 h 2 l -2,-5 1,-2 5,-2 -4,-6 3,-9 h -2 l -1,2 -2,-2 2,-4 -2,-1 -1,-4 h -5 l -1,-2 h -7 v 2 h -2 l -3,6 -2,1 v 4 l -2,1 -4,-2 v 2 l 2,1 -3,1 -2,-2 1,3 -6,3 2,5 -2,1 v -6 h -4 l -18,13 -6,-2 v -2 l -3,-2 h -6 l -5,-5 v -2 l 3,-2 -2,-2 -5,-1 v -3 l -7,-5 -8,-9 -8,2 -2,2 -2,8 h -5 l -2,-5 -6,1 -9,-7 -5,2 -2,4 v 6 h -3 l -4,-4 h -9 l -2,3 -4,-5 -17,9 -1,3 h -3 l -5,-3 h -7 l -14,-7 -4,2 -8,-5 -2,6 -2,-2 -5,2 -3,-1 -6,5 1,3 -11,-6 v 2 l -4,-1 -7,6 v 4 l -18,-12 v -2 l -5,-2 -6,2 2,-2 -3,-4 -4,1 3,1 -2,4 h 3 l -1,2 -4,-3 -1,-3 h -4 l -5,-4 1,-3 -4,-2 v -6 h -3 l -6,5 h -2 l -1,-2 h -2 l 1,-2 -3,-1 -5,-10 -15,3 -2,-5 -9,-2 -17,-15 -8,-2 -4,2 -1,-6 h -2 l -11,9 -8,-8 v -5 l -9,-9 -2,-3 1,-2 -9,-3 1,-1 2,2 1,-2 2,2 2,-2 1,-5 -2,-3 v 2 l -4,3 -5,-1 -1,-6 -5,-10 -16,-7 v -7 l -2,-2 -5,4 -1,-1 -1,-9 2,-6 3,-1 1,-2 -3,-8 -3,-2 v -4 l -11,-2 -5,1 -1,-3 8,-4 v -3 l -3,-3 1,-3 -6,-2 -3,-3 -1,-4 -4,-2 -3,-4 -5,2 -3,4 -1,-1 z m 496,192 -2,-2 -1,1 1,4 2,-2 z m -496,-199 -2,3 2,4 2,-5 z m 304,183 h 4 v -2 z m 34,545 -1,2 5,4 1,-2 z"
     id="Hubei" />
</svg>
