<?xml version="1.0" encoding="UTF-8" standalone="no"?>
<svg
   width="205.58475"
   height="339.55994"
   viewBox="111 138 205.58475 339.55994"
   version="1.1"
   id="svg1"
   xmlns="http://www.w3.org/2000/svg"
   xmlns:svg="http://www.w3.org/2000/svg">
  <defs
     id="defs1" />
  <path
     stroke="#1e90ff"
     stroke-opacity="0"
     stroke-width="0"
	 stroke-linecap="round"
     stroke-linejoin="round"
     fill="#1e90ff"
     fill-opacity="1"
     fill-rule="evenodd"
     d="m 171.5,418.12241 -2,39 3,17 20,3 44,-6 8,-2 54,-51 18,-23 -31,-94 -51,-101 v -17 l -6,-18 -18,-12 -30,-12 -3,2 v -5 l -10,2 -9,-2 -3,2 -6,11 -9,-2 h -10 l -5,4 7,18 v 13 l -5,25 -13,19 3,2 -6,10 v 8 l 3,16 8,11 v 4 l 22,48 29,36 z m 95,-239 h -30 l -1,21 3,3 h 20 l 7,-4 1,-3 z"
     id="Aomen" />
</svg>
