<?xml version="1.0" encoding="UTF-8" standalone="no"?>
<svg
   width="1054.5"
   height="832.5"
   viewBox="-166 -118 1054.5 832.5"
   version="1.1"
   id="svg1"
   xmlns="http://www.w3.org/2000/svg"
   xmlns:svg="http://www.w3.org/2000/svg">
  <defs
     id="defs1" />
  <path
     stroke="#1e90ff"
     stroke-opacity="0"
     stroke-width="0"
	 stroke-linecap="round"
     stroke-linejoin="round"
     fill="#1e90ff"
     fill-opacity="1"
     fill-rule="evenodd"
     d="m 746,470 -2,1 -2,5 3,6 h -2 l -1,4 4,9 v 5 l -7,7 -2,-1 v 3 l -8,-9 v -4 l -4,-3 -4,6 -3,-8 -11,4 v -2 l 10,-4 h -2 v -2 l -7,-2 h -3 l -1,4 -2,-7 h -3 l 1,-1 -2,-1 v -2 l -3,-1 1,-7 v 3 l 2,-2 -6,-2 -6,2 v 3 l -1,-3 h -3 l -6,-8 -2,2 -1,-1 v -3 l 2,-1 -3,-1 -2,-3 1,-10 h 2 l -1,-1 4,-2 1,-3 4,1 1,-4 -3,-6 1,-6 -5,-6 -2,-10 -3,-3 h -4 l 1,-2 -5,-11 3,-4 h 5 l 1,-5 -6,-7 h -4 l -1,-8 -13,-3 -7,-14 -5,-3 -4,3 h -6 v -7 l 6,-3 v -2 l -1,1 -3,-3 2,-2 -5,-2 -7,1 -4,-2 -5,2 -5,-1 -6,2 -20,-16 -13,-15 -18,-6 -2,-19 11,-5 -4,-16 -4,-5 29,-19 12,-21 8,-4 2,-4 v -8 l -10,-17 3,-10 -1,-1 -7,-3 h -9 l -30,10 -23,20 -25,-6 -11,-7 -28,11 -12,2 6,8 10,9 -9,7 -10,12 -8,-2 -3,3 -3,-5 -15,-5 v -6 l -6,-2 -2,-6 2,-6 -17,6 -1,-5 -3,-2 -1,2 -4,-2 v -4 l 2,-3 -1,-24 h -22 v -7 l -12,-2 v -8 l -4,-7 -8,-1 -6,-5 -9,-2 -5,-6 -10,-3 h -15 l 2,-1 2,2 14,-8 2,-3 h 6 l 3,-2 3,-3 2,-7 3,-4 10,-7 V 76 l 5,-6 v -9 l -12,-16 -25,-2 -6,7 -26,-1 v 10 l -3,2 -1,4 -4,-2 -4,-7 -12,6 v 9 l -7,-8 -1,-6 -7,2 4,6 -18,9 -1,-30 -5,-2 -18,-13 -22,-29 -1,-3 15,-16 -43,-99 -13,3 h -15 l -23,3 -18,11 -5,5 -3,9 5,2 -1,8 9,9 -7,6 4,12 -6,8 -12,6 -12,2 -7,3 -15,13 -2,7 -7,-11 1,-2 -3,-2 -1,-3 h -2 l -16,9 -4,4 -3,7 -14,3 -23,20 -11,13 -13,20 1,8 -4,11 -16,1 -38,7 -1,22 -7,13 -3,24 -7,30 -8,12 -12,11 2,11 -1,3 7,2 2,-5 22,-4 2,1 5,-3 2,2 h 5 l 4,-3 2,2 -1,3 5,6 -2,11 h 4 l 3,2 11,-2 h 18 l 7,4 h 3 v 4 l -8,1 2,5 10,3 27,-4 10,28 v 5 l 2,1 5,-3 h 12 l 10,-4 4,2 1,-1 1,2 4,-2 8,10 4,-2 5,2 2,-1 2,2 2,-2 2,1 5,-4 1,1 6,-5 1,2 6,2 1,-1 2,6 5,2 v 2 l 7,5 4,-1 7,3 1,-1 2,2 3,-2 -1,-1 3,-6 4,-3 17,5 -3,-11 3,-2 3,-6 -3,-2 3,-2 h 4 l 2,-2 -3,-2 3,-1 -1,-3 h 4 l 1,2 6,2 6,-3 v -7 l -3,-2 1,-5 h -2 v -10 h -2 l -2,-6 2,-5 v -7 l 3,-3 -3,-5 h 17 l 5,3 2,-1 8,4 3,4 11,5 2,4 8,3 9,6 h 3 l 5,6 10,-9 -1,-2 4,-10 5,1 4,3 -1,1 2,2 h 5 l 3,2 3,-2 -1,-2 8,-6 1,-3 h 4 v 2 l 5,2 4,4 7,1 3,3 -3,3 10,10 h 3 l 11,11 1,4 3,-1 2,6 4,4 9,7 24,11 2,4 h 3 l -1,-7 -5,-8 -4,-2 -1,-3 1,-3 3,-1 6,5 5,1 1,7 1,-2 h 2 l 2,4 -1,1 5,3 2,-2 1,4 2,-2 8,4 1,-2 6,1 3,1 2,4 4,3 4,-2 2,1 -3,11 2,3 3,-1 3,3 1,-1 8,7 1,3 7,2 5,4 5,-7 3,1 9,4 3,5 -1,1 9,3 1,4 9,-6 h 3 l 3,6 -1,2 7,6 -2,5 5,3 1,3 7,2 -1,2 7,3 4,7 2,2 h 3 l 6,7 1,3 h -10 l 1,6 -4,4 5,2 3,5 9,7 1,2 -6,3 -2,2 v 3 l 8,5 -1,1 3,2 -2,1 4,6 -1,2 5,10 h 3 l 11,10 -5,1 -3,7 -4,2 3,3 h 3 v 4 l -2,3 v 10 l -10,-2 -3,3 h -2 l -2,4 5,13 3,2 v 2 l -5,2 h 3 l -2,3 -3,-3 -8,-1 -3,-3 -7,13 -7,-1 -2,3 3,4 -3,3 6,3 2,7 -6,3 -2,6 -7,2 -7,7 -1,3 2,2 -6,-1 -4,2 1,22 4,4 h 6 l 3,3 1,-1 7,12 h -5 l -2,7 -4,-2 -2,1 v 4 l -3,1 1,2 -4,2 -1,4 -4,-2 -1,1 v -2 l -2,2 h -5 l -2,4 -1,-3 h -3 l -2,-2 1,-1 -7,-5 -3,2 -1,-2 -10,-2 v -2 l -6,-2 v -2 l -3,-1 -9,1 -6,-5 -9,5 v 6 l -3,5 11,15 -1,1 3,2 v 2 l 12,6 -1,1 3,3 v 4 l -2,2 1,4 4,-2 12,3 v -2 l 8,-2 5,8 -1,5 2,3 h 6 l 3,-5 h 3 l 1,-3 3,1 1,8 3,3 -2,1 -3,9 -7,3 v 2 l 5,5 -1,5 3,1 4,-6 10,-2 1,-6 6,5 1,-2 -2,-7 5,-6 7,2 2,-1 v -2 l 3,-2 v -6 h 2 l -9,-6 -2,-4 2,-4 -1,-2 -1,2 -1,-1 2,-1 -1,-3 -4,-1 1,-5 -8,-8 2,-2 5,2 v -2 l 3,1 2,-2 -1,2 h 6 l 2,-9 2,1 10,-2 2,2 1,-1 -4,-5 6,-3 2,-4 3,1 2,-3 h 3 l 1,-3 h 3 l 2,1 2,7 2,2 2,-1 6,2 -1,4 4,3 -4,3 h 2 l 1,3 -3,4 3,1 1,3 -2,6 1,1 3,1 3,-2 2,1 -1,2 5,3 5,-1 2,-4 h 3 l 3,5 -2,5 9,-4 1,1 -2,1 9,3 17,-2 8,6 -1,5 4,8 v 3 h 2 l 3,5 9,1 -3,1 1,2 -7,-1 5,15 -2,5 5,1 -3,6 -6,1 1,8 4,1 4,4 6,1 1,2 2,-1 5,6 4,-1 2,3 6,-2 4,5 9,-4 5,3 5,-1 4,-4 1,2 5,-2 2,-3 4,-2 1,1 1,-2 -5,-10 h 2 l 1,-4 4,2 h 5 l 1,3 16,-6 2,1 4,-8 -1,-5 2,-1 -3,-2 2,-4 1,3 h 2 l -1,-4 -11,-4 -3,-3 1,-2 -3,-4 h 8 v -9 l 3,-2 1,-3 4,-2 v -2 h 8 l 2,1 v 2 l 5,2 6,-4 3,1 6,-3 2,2 1,6 1,-1 3,2 2,-3 1,-7 -3,-5 h -3 v -6 l -2,-1 2,-3 -1,-4 -3,1 -1,-3 4,-5 2,-10 4,-1 1,-3 -1,-6 -2,-2 -3,1 3,-4 3,1 v 2 h 7 v -6 l 2,-3 -5,-2 -3,-5 -9,-6 -8,2 1,-4 -2,-1 7,-6 2,1 v -5 l 6,-5 h 2 l -6,-14 v -6 h 2 l 4,-5 4,1 4,-1 1,-2 8,2 4,-1 5,2 2,3 5,1 v 4 l 6,3 1,4 h 3 l 2,-4 h 9 l 7,2 2,-5 5,1 -1,3 3,-2 9,-1 4,-3 h -2 l 1,-2 h -2 l -4,-4 -7,-13 3,-1 3,-5 8,5 6,-1 v 2 l 6,-1 8,-4 3,1 1,3 4,-1 3,-3 3,2 h 6 l 3,-2 2,1 3,-3 1,-7 -2,-7 2,-3 -6,-5 v -11 l -2,-10 1,-3 9,-4 v -3 l 2,-2 -1,-3 2,-8 -4,-8 v -10 l -2,-4 h -3 l -4,-3 1,2 -2,2 -5,-2 -3,-8 h -5 l -1,-2 -1,2 -1,-2 h -2 l 1,-5 h -2 l -2,6 h -2 l -1,-2 h -2 v -2 h -4 l -1,-6 -2,1 v 2 -2 l -3,1 1,-3 -5,-6 -13,-5 h -8 l -4,-6 h -11 l -3,-15 h -2 l -3,-4 -6,2 -4,-2 v 2 l -3,1 -5,-4 -1,5 -1,-2 -6,-3 -2,4 -4,-2 -1,2 -1,-2 h -3 l 4,9 -2,1 v 4 l -3,-1 -1,3 -3,-4 5,6 -1,1 h 2 l 1,2 -1,1 2,3 -2,8 -2,-2 -3,1 -2,2 1,2 h -3 l 1,3 -4,2 v 2 l 2,1 -2,2 -5,-1 6,6 4,1 -1,6 -1,-1 v 2 l 3,1 h -2 v 10 h 2 l 2,-3 2,2 1,-2 v 2 h 5 l 5,5 h 3 l 1,-2 5,6 v 2 h 2 l -1,1 2,4 -2,5 h 2 l -2,4 -2,-1 1,2 2,-1 -1,3 -1,-1 v 2 l -1,-1 -3,3 h 2 l 3,6 h -2 l 2,1 -2,3 -1,-1 -4,4 -4,-1 -1,3 -4,-3 -1,2 -2,-1 v -2 h -6 z m -29,19 v 3 l 2,-4 z M 510,420 v 1 z m 208,73 1,2 z m 28,-23 z"
     id="Gansu" />
</svg>
