<?xml version="1.0" encoding="UTF-8" standalone="no"?>
<svg
   width="888"
   height="965.5"
   viewBox="-166 -118 888 965.5"
   version="1.1"
   id="svg1"
   xmlns="http://www.w3.org/2000/svg"
   xmlns:svg="http://www.w3.org/2000/svg">
  <defs
     id="defs1" />
  <path
     stroke="#1e90ff"
     stroke-opacity="0"
     stroke-width="0"
	 stroke-linecap="round"
     stroke-linejoin="round"
     fill="#1e90ff"
     fill-opacity="1"
     fill-rule="evenodd"
     d="m 293.5,642 2,-1 2,2 2,-1 -1,-3 4,-1 4,-4 h 6 l 8,2 7,7 v 2 l -2,1 3,4 -1,5 4,1 6,-3 1,-3 7,-3 v -3 l 4,-3 2,-5 -1,-5 h -2 l -1,2 -3,-2 1,-8 2,-2 3,4 6,-3 6,-8 h -2 l 5,-2 3,-7 v -3 l -9,-1 v -7 l -4,1 v 3 h -7 l -4,-2 -1,-7 9,-5 v 3 l 6,2 1,3 h 2 l 1,-4 h 3 l 7,-5 5,3 2,-1 -2,-1 1,-2 5,-2 h 5 l 2,2 5,1 11,-2 -1,-3 h -6 l -4,-2 -3,-4 5,-6 7,4 6,-1 3,-3 h -4 l -1,-3 -1,1 -2,-2 v -4 l 3,-1 1,-5 3,-4 -2,-3 -6,3 -1,4 -3,1 -3,-2 1,-2 -11,-9 4,-1 1,-2 4,1 7,-4 -4,-2 -1,-5 7,-3 -3,-9 -4,1 -1,-3 -5,-4 h -3 l 3,-1 v -2 h 3 l 4,-3 h 13 l -2,3 h -2 l -1,-2 -4,8 2,5 12,-4 2,3 2,-1 -2,7 h -5 l -2,2 2,8 7,5 1,-2 10,1 1,2 h -2 l -4,4 2,4 -5,1 3,1 2,7 h 2 l -1,-2 4,-7 -1,-5 3,-2 1,-6 v -5 l -5,-1 2,-2 -1,-2 -4,-1 -2,-4 4,-6 h 2 l 1,4 7,5 3,1 5,-3 6,3 1,3 8,-6 -3,-9 3,-1 4,2 1,-2 7,-2 1,-5 -2,1 -7,-3 -4,-4 -2,-5 -9,-1 -1,4 -5,-11 -9,-1 -1,-3 h -3 l 1,-8 3,-2 5,3 7,-4 -3,-5 7,-4 v 2 h 3 l -2,10 5,4 12,-1 -2,-12 2,-10 8,3 v 3 h 10 l -2,4 1,4 -3,4 1,4 4,-7 h 6 l -1,5 4,5 -4,6 2,2 v -2 l 4,-2 2,1 v 3 l 3,-1 1,-3 5,-4 -1,-3 -4,-3 1,-3 3,-1 2,4 -1,3 2,3 -2,4 3,5 -2,2 2,2 7,-1 4,-3 v -2 l -3,2 -2,-1 4,-2 1,1 v -9 h 2 l 1,-2 -3,-4 v 2 l -6,-1 3,-2 1,-4 5,-1 2,6 h 3 l 3,4 h 4 l 3,4 3,1 2,-4 -4,-1 v -3 l 12,-6 h 2 l 1,2 h 4 v -5 l -6,-1 -3,-2 -1,-3 2,-5 4,-2 2,2 3,-1 3,-3 v -3 l -3,1 -5,-2 -2,-2 2,-2 -1,-2 -5,-3 -6,-1 2,-9 -11,6 -8,8 1,4 3,1 2,5 -1,5 2,1 -5,1 -4,4 v 4 l -4,1 v -4 l -3,3 h -2 l -2,-6 1,-11 -3,-6 h -12 l -1,-1 2,-2 v -5 l -12,-1 -1,-6 4,-2 9,-3 h 11 l 2,-4 -2,-2 4,-2 2,-5 -2,-11 2,-17 11,-3 5,-18 -1,-7 h -8 l -4,-13 -2,-4 -4,-2 -3,-10 7,-5 4,-1 3,-6 -2,-6 1,-1 18,-4 5,3 3,-2 -2,-6 7,-3 3,1 v 2 h 9 l 1,-3 7,-6 1,-4 -15,3 1,-3 -4,-4 -5,-9 1,-3 -9,-27 -7,-3 -2,-3 -7,1 -4,-2 -13,5 -6,-6 8,-5 4,-8 -1,-2 4,-1 1,-4 -2,-5 2,4 9,8 14,-1 4,2 3,-2 6,4 v 5 l 2,1 7,-4 -2,-2 v -4 l 6,-7 1,-5 -2,-4 3,-3 h 5 l -1,1 3,1 14,-2 1,2 -4,5 -4,2 v 3 l -5,1 -4,6 v 8 l -2,1 -2,7 -2,-2 h -7 l -10,7 v 4 l -2,2 1,2 -2,2 v 3 l 2,2 h 10 l 3,-5 4,-1 3,-3 -2,-4 5,-4 8,1 9,-7 6,3 8,-5 2,-2 h -3 v -3 h -3 l -1,-6 8,-4 3,-4 -3,-1 1,-2 -2,-1 -4,2 -3,-2 5,-10 -6,1 -2,-4 2,-2 h -7 l -3,-3 1,-5 12,-4 1,-8 h 10 l 2,2 3,-1 5,2 3,-6 v -7 l 5,-3 -1,-9 h -3 l 8,-2 -3,-10 7,-1 13,2 12,-12 -6,-6 v -2 l -5,-6 3,-4 -3,-3 6,-3 -10,-14 -5,-4 v -7 l -2,-4 -1,1 -3,-2 v 3 h -8 l -3,-4 1,-5 -2,-1 -5,4 -4,-2 -4,2 h -8 l -1,6 h -6 v 2 l -8,9 -5,-1 -2,-5 -1,1 -3,-4 -1,2 -5,1 1,1 -5,8 1,2 -7,-1 -7,2 1,-1 h -3 l -2,-2 -2,2 2,1 -1,2 -3,-1 -1,2 -4,-3 -4,1 -1,-4 h 3 v -2 l -6,-4 v -4 l -5,-6 -3,-1 v -4 l -4,-3 h 2 l 1,-4 2,-1 v -6 l -2,-1 1,-3 -4,-6 -3,2 -2,-1 3,-8 -8,-1 -1,-8 3,-1 1,-3 v -5 l -2,-1 -5,-1 -4,2 h -7 l -2,-2 v 3 l -6,2 -1,8 -3,5 1,3 -2,7 -4,5 -3,1 -2,-5 -2,-1 -7,1 -6,5 1,3 -3,3 -9,4 -3,8 h -3 l -1,-2 v 2 l -4,1 -8,-3 h -9 l -2,-2 v -4 l 2,-1 v -2 l -3,-2 -4,4 -4,-2 -1,2 -2,-3 h -3 l -3,-4 -5,-1 -2,2 2,1 -1,2 -4,1 -2,5 -4,-3 h -6 v -3 l -4,-4 -1,-4 h -3 l 2,-4 4,-2 1,-3 3,-2 -1,-4 2,-6 -2,-1 v -3 l -6,-9 2,-1 -1,-3 h 4 V 5 h -2 l -3,-4 -3,-8 -3,-1 v -2 l 2,-1 -4,-11 1,-8 -3,-6 -11,-5 -5,-7 1,-13 -3,-2 v -3 l 5,-5 10,-6 v -11 h -7 l 1,-3 5,-5 h 2 l 1,-4 -2,-3 h -4 l -7,-5 -4,-10 -3,1 -5,8 -6,-1 -3,4 h -5 l -2,-6 h -7 v 2 l -3,1 h -3 l -2,-2 -2,1 2,6 -2,2 -2,-2 -7,-1 1,-2 h -2 l -1,-7 -8,6 h -3 l -1,2 -3,1 -1,3 -5,3 v 2 l 3,1 1,3 6,1 1,4 -3,3 1,5 -2,1 v 7 h -9 l -10,5 -2,-2 -3,4 -4,2 -9,-3 -6,4 2,5 h -4 l -3,3 1,8 h -4 l -3,-4 -3,1 -2,-2 -2,2 h -3 l -1,-2 -2,4 -4,2 -1,-2 -3,-1 -4,2 -2,3 h -4 l -4,3 -2,-2 -13,11 1,8 -6,6 v 3 l -3,2 -4,-3 -2,-4 -5,2 -2,-4 -3,-2 -8,-2 -1,-5 -3,-4 -1,-8 -2,2 -2,-2 v -4 l -7,-4 -3,6 -5,5 -3,-2 -10,10 -7,2 -2,4 h -4 l -1,-6 h -2 l -5.000003,5 -2,-1 v 5 l 3,1 1,3 -1,6 2,4 -2,3 h -3 v 3 l -3,5 -3,2 -8,1 v 6 l -5,1 -10,-3 -2,1 -2,4 3,5 h -2 l 1,3 h -3 l -6,-8 h -3 l -4,3 -1,5 -1,-1 -1,2 4,7 -2,6 7,4 4,-4 h 2 l 3,6 v 10 l 2,2 -1,3 3,2 1,6 -5,8 -1,9 2,2 6,1 -1,4 h 4 v 2 l 2,1 -1,4 -4,8 -5,5 h -3 l -2,5 -3,1 -4,5 -1,3 2,7 -16,8 -5,9 -2,-2 -6,-1 -6,5 -8,-2 -10.00000003,4 -1,3 -3.99999997,-2 -10,3 -9,10 -5,9 -10,10 -1,7 3,8 -9,12 6,10 4,1 1,2 -5,18 7,5 v 2 l 3,2 -2,2 3,2 -1,1 2,2 5,-1 v 3 l -6,10 1,7 -4,3 h -6 v -7 l -2,1 -4,-3 -4,5 v 5 l -7,3 -1,3 -3,2 v 3 l -2,2 h -3 l 2,1 -1,3 -3,1 -2,3 1,3 -2,1 2,4 -1,2 2,1 -1,7 8,2 5,-3 3,3 1,9 -2,3 -10,7 -4,4 v 3 l -3,1 -4,5 2,8 -8,1 -5,7 -8,4 -5,1 -1,-2 -8.999997,3 -1,3 h -3 l -4,4 v 7 l 5,3 4,7 -1,5 h -2 v -3 l -6,1 -3,4 1,2 -2,1 v 4 l -5,2 -3,-2 v 3 l -1,-1 -1,3 2,1 -1,3 2,3 -4,4 -1,4 2,2 v 4 l 2,3 -2,3 h -3 v 7 l -4,1 v 2 l -2,1 v 4 h 3 l -2,4 2,3 v 4 l -3,1 1,4 -3,3 v 7 l 2,3 -1,1 2,1 -4,6 -2,-2 v 2 l -2,1 -3,-2 v 6 l -3,6 -6,1 -8,4 -1,7 2,2 h -2 l 1,2 4,1 2,4 -3,2 2,3 -1,3 5,1 2,3 -1,2 h 2 l 1,2 -7,6 h -3 l 1,4 4,2 5,6 -2,1 -2,-2 -2,1 v -2 l -2,-1 -2,1 v 2 l 6,8 10,2 3,-1 1,3 4,1 2,-2 5,7 7,4 2,3 v -3 l 11,1 5,-6 h 2 l 2,4 h 1.999997 l 1,5 6,1 -3,4 3,3 2,-2 h 7 l 6,-5 h 2 l 3,-9 2,1 1,-2 h 3 v 4 l 4,3 -7,4 v 4 l 1,2 h 3 l 3,5 v 5 l 4,2 1,3 h 8 l 5,13 -2,6 4,3 8,-3 v -2 l 3,-1 2,-3 5,2 12,-4 2,1 1,-2 h 6 l 2,2 5,-5 4,1 3,4 -3,4 v 3 l -7.00000003,8 1.00000003,4 -2.00000003,1 v 2 l 4.00000003,3 3,6 4,2 -1,2 4,-3 5,7 -4,2 v 2 l 6,10 2,-1 4,5 -2,4 5,6 -2,2 1,5 4,1 -1,13 h 4 l 3,4 1,-1 3,2 1,3 -12,10 -1,6 v 6 l 2,2 h 3 l -1,4 h -2 l 3,3 v 3 h 3 l 2,2 -2,4 2,3 v 4 l -2,3 -3,1 1,4 3,3 v 3 l -3,1 4,2 h 5 l 2,3 v 8 l 5,8 1,12 4,2 2,4 5,1 2,4 4,-2 2,3 6,2 v 13 l 18,-1 2,4 H 101.5 l 12,-1 8,-4 3,1 4,-3 v -3 l -2,-1 v -5 l 8,-4 v -4 h -2 v -2 l 3,-5 12,-2 6,3 4,-10 7,-9 -2,-4 1,-7 3,-5 3,-3 13,1 5,-3 3,-9 11,-12 8,-1 3,-6 1,-11 8,-8 3,-1 2,-7 3,-4 7,-2 3,-4 h 7 l 2,-2 v -3 l 6,-2 -2,-9 -1,-2 h -3 l -2,-8 -7,-1 2,-9 -7,-2 1,-6 8,-20 4,-5 6,-2 3,5 13,9 25,-5 v -5 l -3,-1 z m 7,13 -3,1 1,3 -3,2 1,3 -3,2 -10,-6 -4,2 3,11 h -4 l -1,2 3,4 6,2 3,-6 4,-3 h 6 l 5,2 v 3 l 5,-2 v -2 l 2,-1 -1,-1 2,-1 -2,-4 1,-4 -3,-5 -7,-5 z m 193,-137 7,3 v 2 l 3,2 5,-1 v -6 h 3 l 2,-2 -6,-1 -1,2 -7,-3 -1,-5 -4,-1 v -3 l -2,3 h -2 v 2 h -3 l 2,2 -1,5 z m 187,-238 -2,1 v -3 h -2 l -1,3 2,-1 3,4 2,-2 -1,-3 z m -109,160 v -5 l -3,2 -1,-2 1,4 z m 148,-286 v 3 h 2 v -3 z m -3,-3 v 2 l 2,-1 -2,-2 z m -81,15 -1,4 4,-1 v -2 l -2,1 2,-3 -2,1 z m -122,265 4,-3 2,-5 -6,3 -1,4 -1,-3 -2,2 z m 77,-119 2,1 1,-3 -4,-2 -5,3 v 6 l 2,-4 z m -7,55 5,-4 -4,1 z m 64,-201 1,-1 -7,1 2,2 h 4 z m -93,53 h 4 l -6,-2 z m -18,267 5,-2 -2,-3 -5,2 z m -2,10 3,-2 -2,-6 -3,4 1,4 z m -267,181 7,-4 1,-4 -3,-2 -4,1 -1,4 h -2 v 4 z m 386,-452 4,2 -3,-3 z m -81,-10 v 2 l 4,1 v 3 h 4 l -2,-2 2,-4 h -5 z m -399,588 2,-1 -3,-1 z m -5,-3 1,2 v -2 z m 94,-144 v -4 l -2,-2 -6,-2 -3,-3 -5,1 -5,5 -3,15 3,5 4,2 h 5 l 4,-2 9,-10 z m 314,-328 5,-3 1,1 2,-3 -4,-1 -1,2 -3,-1 1,-2 h -3 v 6 z m -52,1 h 3 v -4 l -3,-1 -3,-4 -3,1 2,6 4,1 z m 44,-57 2,-1 -1,-1 z m -15,-32 2,2 1,-3 z m -300,454 1,-3 -2,-1 z m 241,-203 h 2 v -4 l -4,3 z m 159,-278 v 2 l 4,-2 -2,-2 z m -57,43 5,-1 1,-5 -2,-1 v 2 h -4 l -2,4 z m 21,-13 -1,1 3,-1 -1,-2 z m -89,184 2,3 9,-2 -1,-5 -2,2 h -6 z m 86,-210 1,-2 -3,-1 v 2 z m -1,31 h 3 v -3 h -2 l 1,2 z m -83,157 2,-1 -2,-1 z m -17,99 -1,-1 -1,2 z m 17,-174 2,-3 -4,1 3,5 z m -55,204 v -3 l -1,2 z m 182,-374 1,2 3,-2 z m -249,361 -1,-1 -1,3 z m 182,-276 -1,2 2,-2 -1,-2 z m -44,-14 3,3 4,-3 2,1 1,-3 -3,-2 -7,2 z m -45,273 h 3 l -1,-3 z m 44,-7 1,2 1,-2 z m 29,-226 -2,2 3,-1 z m 15,36 1,-2 z m -177,244 h 2 l -2,-2 z m -247,248 v -3 z m 413,-436 3,-3 -5,1 z m -162,174 h 2 z m 108,-115 3,-2 -3,1 z m -9,98 2,-1 -1,-1 z m -37,-50 2,-1 -1,-1 z m -184,176 3,1 -2,-2 z m 176,-152 v -2 l -1,2 z m -232,176 1,-2 -3,-1 1,3 z m 314,-436 h 2 l -1,-2 z m 111,-102 4,-1 h -2 z m -49,112 3,-2 v -2 l 3,-1 -1,-6 h -2 l -6,7 1,3 z m 15,-66 2,-1 -1,-2 -2,2 z m -116,329 1,2 v -2 z m 101,-251 h 2 v -2 z m -91,76 2,1 -2,-2 z m 64,-30 1,-3 -2,2 z m 43,-14 2,-2 -2,1 z m -105,135 v 2 h 3 l 2,-1 -2,-2 z m 130,-254 6,-2 -4,-7 -3,-2 h -3 l -3,3 v 3 l 4,4 z m -40,24 1,2 h 3 v -3 h -2 z m -86,35 h 5 l 11,-6 1,-4 -2,-1 -7,3 -7,-3 -3,2 v 8 z m -16,195 2,-2 z m -102,99 1,1 2,-3 -1,-1 -3,2 z m 138,-304 2,-1 -2,-1 z m -75,274 2,-1 -3,-1 z m 17,69 v -2 l -2,-1 z"
     id="Fujian" />
</svg>
