<?xml version="1.0" encoding="UTF-8" standalone="no"?>
<svg
   width="1334.8206"
   height="730.5"
   viewBox="-166 -118 1334.8206 730.5"
   version="1.1"
   id="svg1"
   xmlns="http://www.w3.org/2000/svg"
   xmlns:svg="http://www.w3.org/2000/svg">
  <defs
     id="defs1" />
  <path
     stroke="#1e90ff"
     stroke-opacity="0"
     stroke-width="0"
	 stroke-linecap="round"
     stroke-linejoin="round"
     fill="#1e90ff"
     fill-opacity="1"
     fill-rule="evenodd"
     d="m 887.49999,191.5 1,-2 h -2 v -2 l -8,-7 -5,6 -4,-1 -3,4 -2,-3 -2,6 h -11 l -1,5 -3,1 -3,-2 -4,1 -4,-3 -3,2 h -4 v -4 l -9,-5 -4,1 -2,3 -7,4 -3,-6 h -4 l -1,2 -10,-10 -4,-1 -1,2 h -3 l -2,2 -4,-6 v -3 l -7,3 -5,-2 -3,1 -6,-4 -1,3 -21,-3 1,1 -7,2 -4,-2 v -4 l 2,-1 -1,-3 -6,-1 -10,4 -4,-7 -2,1 -2,-4 h -4 l -1,-2 -5,-1 -6,-4 -3,-5 h -4 l -3,3 -4,-3 h -4 l -3,-3 h -2 l -3,3 -1,-1 -2,3 -4,-3 h -8 l -3,3 -1,-3 h -5 l -4,-2 -3,1 -10,-8 -12,-4 -7,-11 -9,-2 -2,-5 -4,-2 -2,-3 v -11 l -5,-1 2,-4 -3,-1 -2,-4 -4,-1 -7,-7 -4,-7 2,-1 v -3 l 2,-2 h 4 v -2 l 4,-1 -1,-2 2,-1 -1,-2 3,-10 -3,-1 1,-1 -2,-1 v -18 l -4,-1 -1,-5 3,-3 h 2 v -2 l 4,-3 -1,-4 -2,-1 v -3 l -2,-1 h -5 l -3,3 -5,-1 -1,-9 2,-7 -4,-2 -6,-8 6,-5 -3,-1 2,-2 -1,-2 7,-5 h 5 l 3,-5 h 2 l -4,-5 v -3 h 3 l 1,-2 -3,-4 2,-1 -1,-4 1,-3 h 2 l -1,-3 2,-4 -16,-1 -4,-4 -1,1 -3,-2 -1,-10 4,2 8,-1 3,-1 v -2 l 3,-2 -12,-4 -8,-6 -6,-1 -4,-5 -2,3 -4,1 -2,-1 v -2 l -9,-3 -2,-3 -6,1 -4,4 -3,-2 -2,-4 -5,-1 -1,-5 h -6 l -3,-3 h -5 l -2,1 1,1 -8,-1 -7,4 -10,-1 -4,3 -10,2 -2,-1 -11,3 -6,-1 -2,-5 h -5 l -4,5 -7,1 -3,4 -9,-1 -5,4 h -2 l -2,-3 h -8 l -3,4 -6,2 -13,1 -3,3 h -5 l -2,3 h -3 v 7 l -1,3 h -2 l -1,5 -3,3 v 3 l -9,7 h -9 l -7,2 -1,2 h -2 l -3,6 -3,1 -2,-2 -10,-3 v -2 l -6,-3 v -2 l -9,4 -6,-1 -18,11 -13,2 -2,2 -6,1 1,6 -19,10 -1,-2 -3,1 -1,-3 h -3 l -2,-2 -5,1 -3,4 h -13 l -2,2 h -7 v -2 l -19,-4 -2,2 -6,-1 -3,-5 -5,-1 -2,-15 h -4 l -2,-2 -5,1 -4,3 -7,-4 h -6 l -4.000001,-2 -3,1 -2,4 h -3 l -1,8 h -4 l -5,5 -9,3 v 10 l -4,2 -1,-1 -3,3 h -8 l -7,3 h -11 l -1,-3 -9,-6 -9,3 -2,-4 h -3 l -4.9999997,-3 -2,2 v 3 h -2 l 1,2 h -4.00000004 l -6.99999996,-2 H -17.500011 v -2 h -2 l -1,-2 h -9 l -4,-2 v -2 h -2 l -2,4 -5,1 -3,6 7,7 -7,1 -3,6 -6,5 -3,-1 -3,3 1,10 -3,1 v 3 h -4 l 1,3 -3,7 v 4 l -2,1 1,2 -3,6 1,3 -4,4 h -6 l -2,2 -8,-2 -2,2 -1,-1 -8.999999,3 -2,-2 -6,3 -5,-2 -5,2 -3,-1 -1,4 2,4 h -4 l -4,13 -1,1 -2,-2 -3,3 -2,-1 -3,4 h -6 v 5 h 3 l 2,2 v 6 l 2,1 -1,9 2,5 -6,4 v 2 l 1,2 h 3 l -1,4 7,12 h 3 l 4,3 v 3 l 4,1 4,8 5,3 v 13 l 6,5 -2,13 h 4 l 1,4 -2,4 3,6 -3,3 1,1 -2,2 h -4 l -3,3 -2,8 h -7 l -2,3 -12,-11 -2,-7 2,-2 -3,-5 v -3 l -5,4 -15,6 -2,3 5,7 -1,4 3,7 -2,5 -3,1 v 2 l 3,5 2,-2 4,4 v 2 l 3,1 -1,1 11,7 v 2 l -7,6 v 2 l 3,3 3,8 h 3 v 3 l 3,2 -4,5 -3,1 -1,4 h 2 l 2,3 -2,3 2,6 5,2 v -2 l 1,3 5,5 v 2 l 3,1 -2,4 3,6 5,3 6,-1 3,5 6,-1 -1,-4 3,-1 3,-4 1.999999,5 4,-1 6,6 4,-1 1,-2 6,4 4,6 6,1 -2,2 5,3 v 6 l 3,2 2,5 h 3 v 2 h 14 l 3,4 h 5 l 1,2 7,3 5,-1 4,4 h 2 l 6.0000003,7 6,1 1,3 2.99999996,-1 4.00000004,2 3,11 2,1 -1,3 1.9999997,2 8,1 2,-4 -1,-6 h 3 l 5,-4 2,-6 v -2 l -2,-1 2,-8 8,4 1,-4 1,-1 2,2 1,-3 7,3 1,2 12,3 1,-1 2,3 5,-1 1,-2 2,1 2,3 -2,6 h 2 v 2 l 3,1 -1,7 4,2 1,-1 4,3 1,-1 11,7 h 4.000001 l 5,6 -1,3 h 7 v 2 l -3,3 h 5 l 1,3 3,1 v 2 l 8,-2 1,4 3,-1 5,5 3,-2 2,1 v 2 l 2,-1 4,2 1,5 h 3 l 6,7 2,8 7,8 2,-1 -1,2 4,2 6,-7 3,1 3,-4 6,-2 h 5 l 1,2 h 7 l 1,4 h 5 l -3,5 3,4 -1,5 4,1 -2,6 1,5 2,-1 1,2 8,1 v 2 h 2 l -1,2 4,5 h 9 l 5,5 v 2 l 10,5 7,-1 6,-7 h 3 l 3,3 h 2 v 7 l -2,4 -3,2 v 9 h 6 l 5,4 5,-1 1,2 6,-5 9,3 v 3 l 3,-2 2,-7 h 2 l 3,11 2,3 4,1 1,4 2,1 v 4 l 5,5 -2,3 4,3 6,-1 2,-2 -3,-6 v -5 h 3 v -2 l 4,-3 2,5 v 9 l 3,-1 3,3 1,-2 v 2 l 4,1 1,2 7,-4 -1,-3 4,-8 h 2 l 1,3 h 2 l 3,-3 4,1 v 3 l 2,2 h 5 l 5,5 9,3 2,5 4,2 h 3 l 2,-2 7,2 4,-3 1,1 -2,1 3,1 7,-3 2,1 v 2 l 5,-1 v 2 h 4 l 7,-10 2,2 7,2 h 7 l 1,2 2,-1 v -6 l 4,1 1,-2 h 2 v 2 l 3,-2 7,-1 5,-4 5,1 v -4 l 6,-2 2,3 h 5 l 6,5 2,11 -2,13 -3,3 -1,4 v 7 l 1,4 2,3 h 2 l 3,8 h 2 l 2,4 6,-2 v -3 l 5,-3 2,-4 -5,-7 1,-5 3,-2 -2,-5 3,-2 4,-9 8,-6 5,-6 2,-4 -1,-2 3,-4 h 2 l 5,-5 11,-3 v -3 l 4,1 4,4 4,-1 4,4 9,-4 3,3 5,-1 v 2 h 2 l 4,5 h 8 l 5,3 7,-4 5,3 1,-1 3,6 6,2 2,-1 v 4 l 7,4 h 3 l 3,-8 3,-2 h 4 l 4,-6 8,5 3,5 7,3 v 2 h -3 l -2,3 h 5 l 2,4 -6,10 2,2 v 4 l 11,6 3,-2 h 5 l 4,2 4,-1 4,6 4,9 h -3 l -4,14 7,8 -1,8 31,-7 h 4 l 9,4 7,-2 9,3 37,-5 14,-7 1,-9 4,-6 23,-24 16,-1 17,-7 15,-10 17,-8 7,-15 8,-2 10,-6 7,-1 3,-2 5,1 v 3 l 8,4 h 3 l 1,-2 5,1 7,-2 1,6 5,2 h 2 l 1,-3 2,1 3,6 H 1004.5 l 4,6 10,4 1,3 h 6 l 5,2 2,4 h 3 v 4 l 2,1 1,-3 13,-10 3,3 2,-1 -1,-2 h 2 l -1,-4 2,-3 -2,-4 -4,1 -1,-2 2,-2 2,-7 -1,-3 h 3 v -3 l 2,-1 2,2 1,-3 3,-1 -2,-1 2,-8 -1,-2 4,-5 2,2 4,-1 4,2 1,8 4,5 h 3 l 1,-3 h 3 l 7,8 -1,3 2,2 4,-1 v 3 l 3,1 2,-1 v -3 l 6,-3 -4,-8 h 2 l 3,-3 6,11 2,10 8,-5 6,1 6,-5 -1,-4 3,-3 -5,-11 -3,-1 1,-5 -3,-8 6,-5 -2,-4 v -10 l -2,-3 h 5 l 4,-3 4,6 v 8 l 6,1 v -2 h 3 v -3 l -4,-3 1,-5 h 2 l 4,-4 -3,-8 1,-5 3,2 1,-2 5,-2 -4,-7 -1,-17 -3,-6 1,-13 3,-10 -1,-9 -2,-5 -2,-1 1,-4 -2,-3 v -15 l -4,-17 v -2 l 4,-1 -1,-4 -5,-2 v -2 l -6,-5 2,-8 -5,-4 -4,-8 -5,-3 h 2 l -1,-8 2,-3 3,1 6,6 7,-9 -7,-8 -3,-1 -5,-7 -4,-2 v -2 l -3,-2 1,-2 -3,-2 v -3 l -7,-6 1,-2 -2,-3 3,-2 v -6 l -9,-9 -5,-10 v -7 l -6,-4 h -3 l -4,-4 -10,-4 h -4 l -3,-2 h -16 l -4,-4 -5,3 -1,-1 -1,3 3,1 v 2 l -3,3 4,1 2,8 -4,4 -1,-2 h -3 l -3,9 4,4 -2,2 1,2 h -3 l -2,-3 -2,2 2,2 h -3 l -1,2 -9,-1 -1,-2 -5,2 1,4 -3,-2 -2,4 -5,-4 -1,1 -3,-2 2,7 3,4 -3,2 v 3 l 5,8 -4,3 -3,-1 -2,-3 h -2 v 2 l -3,-3 -3,2 -7.00001,-4 -4,-6 -1,-6 h -9 l -4,2 2,2 -3,7 4,2 -1,2 2,5 -2,1 1,2 -2,2 h -3 v -7 l -6,-2 -5,-6 v -2 h -4 l -6,10 -2,-1 v -3 l -4,-2 -8,-1 -2,3 -4,-1 -4,-4 -3,-7 -3,-2 2,-6 h 4 l -2,-2 v -2 h 2 l -1,-8 -3,-2 -2,1 v 2 h -3 l -3,-3 1,-1 -3,-9 -8,5 -2,-2 1,-3 11,-2 -3,-4 -9,1 -6,-3 -3,2 -2,-1 -1,-5 -3,1 -3,-2 -1,-3 z"
     id="Xizang" />
</svg>
