<?xml version="1.0" encoding="UTF-8" standalone="no"?>
<svg
   width="1090.9402"
   height="939.5"
   viewBox="-166 -118 1090.9402 939.5"
   version="1.1"
   id="svg1"
   xmlns="http://www.w3.org/2000/svg"
   xmlns:svg="http://www.w3.org/2000/svg">
  <defs
     id="defs1" />
  <path
     stroke="#1e90ff"
     stroke-opacity="0"
     stroke-width="0"
	 stroke-linecap="round"
     stroke-linejoin="round"
     fill="#1e90ff"
     fill-opacity="1"
     fill-rule="evenodd"
     d="m 795.5,315 4,-3 1,-4 3,-1 v -4 l -2,-2 1,-2 -3,-1 1,-2 9,-4 5,-7 h 4 l 2,-3 3,2 3,-4 -2,-8 1,-1 3,3 2,-2 5,-1 -1,-3 h 3 l 2,-7 -2,-3 5,-3 -1,-3 -4,4 -1,-2 h 2 v -2 l 4,-4 h 2 l 1,2 -1,5 h 2 l 7,-7 h 2 l 6,6 9,-1 2,-2 -1,-8 4,-4 10,-9 5,-3 5,1 2,-3 3,-1 -2,-4 3,-7 -2,-10 2,-2 -2,-3 -5,-2 -3,-5 -9,1 3,-3 -3,-2 v -3 l -6,-4 2,-2 h -2 l 2,-2 1,-8 -4,-4 2,-2 h -3 l -1,-13 -2,-6 1,-2 h 2 v -4 l 8,-4 3,-5 -6,-6 h -2 l -5,7 -2,-1 1,-9 2,-1 v -5 l 4,-7 1,-10 3,-9 2,-1 3,-7 h 3 l -7,-1 -1,2 -1,-1 2,-3 -4,-2 -5,4 -3,-1 v -3 l -4,-3 -1,-6 3,-4 v -3 l -4,-4 -1,-9 v -6 l 3,-6 -8,4 -3,-2 -4,3 -3,5 v 3 h -2 v 3 h -2 v 7 l -3,5 2,1 -2,4 1,3 -5,6 1,2 -6,4 -1,3 v 3 l 3,4 -3,6 -8,-5 v -2 l -2,-1 -3,5 v 6 l -2,2 h -3 l -5,-5 -5,-1 1,-4 -3,-2 h -4 l -8,4 -3,-2 -3,-8 -3,1 -7,10 -1,-6 -4,-1 -2,-11 8,-7 -2,-2 3,-5 1,-7 -4,-3 4,-6 -1,-3 -5,-2 -1,-4 -3,-1 -3,-6 -2,4 -5,2 -2,-1 -3,2 v 3 l 10,10 -6,5 -2,5 4,3 -2,2 -10,2 -2,-4 h -4 V 54 l 2,-3 h 4 v -6 l -7,-13 2,-2 -2,-4 7,-3 -1,-10 2,-4 4,-3 -1,-3 h -9 l -1,-5 h -2 l -1,3 -4,-1 -7,3 v 2 h -5 l -6,-1 -20,-10 3,-6 v -5 l 5,-5 3,-6 -2,-4 -5,-2 v -24 l -5,-5 -3,-10 -2,-9 2,-6 -1,-2 -6,-1 -2,10 -3,3 -3,-1 1,-3 -5,-2 -1,-3 -5,1 -3,3 -4,-1 -4,-4 -8,-2 -8,10 h -17 l -4,6 h -4 v 4 l -3,1 v 5 l -5,-1 -6,-4 3,-10 -7,-3 4,-19 -7,-8 h -2 l -1,-5 -5,4 -1,5 -4,3 -7,-1 v -3 l -6,-1 h -4 l -1,4 -3,-2 1,-2 -2,-8 -2,-3 h -2 l -4,5 h -3 l -8,5 -2,-1 v -4 l -4,-2 -2,3 -5,1 v 3 l 2,2 -1,5 4,2 -3,7 -4,1 -2,-2 -2,2 2,7 2,-1 1,4 -4,3 -2,4 1,3 h 5 l 3,7 5,1 v 2 l -4,4 -1,8 -1,-1 -3,5 1,2 -2,2 -10,2 3,2 -4,4 -12,4 -2,6 -5,-2 -2,-9 3,-4 -6,-1 2,-6 -2,-4 -2,2 v -2 l -3,2 h -4 v -2 h -9 l -1,3 -5,1 v -2 h 2 l -1,-4 -3,1 -1,4 2,1 -3,1 v -3 l -4,-1 v 5 l -6,2 1,4 -2,4 2,8 -7,1 -5,-9 -3,3 h -4 l -4,5 v -2 h -3 l -4,5 1,4 6,6 -2,1 v 2 l 5,1 -3,14 h -6 l -1,5 -3,2 -3,-6 -2,-1 -1,2 h -3 v 5 l 1,2 3,1 v 2 l -8,2 -2,3 v 5 l 4,10 -3,1 -1,2 h -6 l 1,-5 -7,-3 -2,3 -3,-2 v -3 l -4,1 -3,-3 -2,1 1,4 -4,1 v -8 h 3 l 6,-6 -2,-9 1,-3 3,1 2,-4 -4,-3 6,-2 -1,-4 -2,2 -3,-2 v -5 h -5 l -5,-6 v -8 l -7,-5 v -3 l -6,-2 -3,-6 -4,4 2,4 -2,1 v 3 l 8,8 v 4 l 3,1 1,6 2,2 -2,3 h -3 l 1,5 -2,5 v 3 l 3,5 2,-1 -3,3 -1,-4 -5,-3 -1,2 3,6 4,3 -1,2 -3,1 h -2 l -6,-6 -1,1 -7,-3 -4,7 1,12 -6,1 -7,-6 -3,-7 -3,-1 v 2 l -11,-9 h -4 l -5,-13 h -11 l -1,-4 -3,-1 1,-2 -2,-3 -9,-2 v -5 l -5,-5 -4,-1 -2,-3 -1,6 -2,2 1,2 -3,1 -1,6 -8,2 v 4 l 2,1 -2,5 3,3 -3,1 -1,2 -2,-2 -3,1 -2,-2 -2,2 -7,-1 -2,-2 -5,5 v -3 l -4,-2 -3,5 h -5 l -2,11 h -2 l -1,3 -8,1 1,2 -3,7 v 7 l 6,2 1,12 2,1 -4,12 2,-2 1,2 h 3 l 3,5 8,3 2,-7 8,-1 -3,-2 v -2 l 3,-2 2,5 5,1 4,11 h 5 v 2 l 3,2 -6,14 v 2 l 4,4 -1,2 4,2 1,-2 h 6 l 2,-3 3,1 2,7 7,-3 1,2 3,1 -1,-5 2,-2 15,-6 15,7 1,3 3,1 1,4 3,1 3,5 v 4 h -2 l -2,4 1,3 8,2 4,5 2,6 -3,8 -2,1 1,2 h 4 v 4 l 3,3 -5,5 3,3 h 2 l -13,9 -5,3 -9,2 -12,-5 -12,1 v 3 l -7,3 -7,-1 -10,5 -2,-4 h -3 l -6,3 -5,6 -14,-3 -8,2 v 5 l -12,1 -2,4 -4,-1 v -3 l -4,-5 1,-3 h -8 l -4,-7 -3,-1 -1,-2 -7,-2 -4,2 -2,-2 -3,3 h -7 v 2 l -3,-1 -1,2 h -3 l -2,4 h -3 l -4,6 1,9 -3,4 2,4 -9,7 -3,5 1,1 -2,1 4,1 1,6 -5,8 1,1 -2,10 -7,10 -1,1 v -5 l -3,-4 -2,1 -6,-3 -4,2 -6,-1 -4.000005,2 v 2 l -2,-1 -6,6 -11,5 -5,4 -2,4 -6,4 -4,-3 2,-6 -6,-4 h -3 l -4,4 v 2 l -3,1 -3,-6 -3,3 -3,-2 -7,4 -10,1 -3,2 -7.9999995,-5 -4,1 -7,-12 2,-3 -3,1 -2,-1 1,-3 -11.0000005,-2 -1,-2 h -3 l -1,-5 -1,1 -7,-3 -4,1 -2,4 2,4 -4,4 h -2 l -3,6 -2,2 -1,-1 v 2 l -5,5 v 4 l 2,2 -5,4 -4,-2 2,4 -6,-2 v 2 l -3,3 -7,-9 v -3 l -4,-3 -5,1 -12,-9 -1,-11 -6,3 -3.999995,-2 v -2 h -3 l -2,-2 -3,12 h -2 v 8 l -3,3 h -2 l -2,10 -4,-1 v 3 l -3,2 -4,-1 -1,4 -2,-1 1,2 -5,7 h -3 l -5,10 -3,1 1,3 -3,3 -4,-1 -2,2 -2,-1 -5,3 v 3 l 3,2 3,-1 1,6 -8,-3 -2,6 4,7 -3,1 2,1 6,-4 4,-5 h 5 l 5,6 4,12 4,2 -2,7 v 5 l 2,3 -4,4 -6,1 -1,5 h -2 v 7 l 3,5 -1,2 2,1 v 3 l 4,3 3,-2 1,4 -2,5 v 9 l -2,4 4,5 -1,4 6,3 4,8 h 4 l 4,4 4,-2 h 20.999995 l 1,2 6,-1 2,2 4,-3 -2,-8 1,-3 11,-14 6,-1 12,6 2,-2 h 2 l 1,2 4,-3 4,1 3,3 7,-2 2,-4 3,-1 3,-12 4,-1 9.0000005,14 -2.0000005,4 1.0000005,6 4,3 3,-2 h 10 l 2.9999995,2 2,4 -2,7 h 3 l 5,3 4,6 -1,6 6,3 v 8 l 3,6 -4,2 v 4 l -3,2 -10,2 -2,5 -6.9999995,8 2,8 -4,8 -2,1 v 8 l 2,6 -5,6 -8.0000005,-3 3.0000005,7 -2,5 1,4 -5.0000005,10 1,3 -6,7 1,3 h 3 l 1,5 -3,5 1,4 -3,3 v 3 l -2,-1 -1,8 -4,6 h -2 l -7,-6 v 12 l -3,8 v 3 l 3,1 -2,2 3,3 1,4 4,-1 2,2 v 3 l 3,-4 8,4 -1,3 2,1 v 7 l -1,4 -2,1 3,5 2,-1 v -3 h 7.0000005 l 7,-7 4,2 1,-2 1,1 -3,23 4,3 1,-2 4.9999995,3 -1,1 5,4 5,1 1,11 -2,1 4,3 2,-2 h 6 l 1,3 8,3 v -2 l 5,1 1,3 h 2 l 1,-2 2,1 2,5 -3,1 v 8 l 2,6 h -3 l -10,-11 -4,4 1,5 -3,6 -4,3 -1,10 -3,2 -10,1 12,1 3,4 2,8 -5,2 1,2 -5,3 -5,11 -7,4 -4,8 -5.9999995,7 -1,4 2,3 -3,8 7.9999995,5 h 4 l 7,11 12,2 v 3 l 2,2 h 6 l 1,-5 3,-2 14,-4 6,-13 29,-9 v -16 l 6.000005,-6 1,-4 9,-6 2,-3 h 4 l 4,-5 6,-2 1,3 h 3 v 3 l 6,2 v 5 l 12,1 6,-3 12,2 3,4 4,12 3,1 2,7 9,3 h 5 l 3,-2 3,1 4,5 h 9 l 9,4 2,3 4,1 1,3 7,4 h 4 l 6,-3 1,-3 h 3 l 2,2 9,-1 2,8 6,5 1,3 6,3 4,-10 7,-5 5,-1 1,-3 4,-2 2,-5 4,1 3,-7 -1,-2 3,-2 v -15 l -10,-14 2,-1 7,2 4,-6 5,2 6,-2 5,1 24,-8 5,-5 9,-2 3,-4 4,-2 7,-1 1,-4 6,-3 2,-3 1,-6 9,-3 7,4 6,-5 4,3 12,-3 6,1 3,-3 v -7 l 2,-3 4,-1 7,3 4,-1 -2,-3 5,-4 v -16 l -5,-1 -4,-16 3,-2 3,1 4,-11 7,-1 3,-2 -2,-6 1,-3 5,-3 5,2 11,-3 3,-5 5,-1 2,4 v 7 l 11,6 2,5 1,-1 3,2 h -2 l 2,4 v 5 l -1,3 h -3 v 5 l 10,3 2,-4 5,4 h 3 l 1,2 -2,2 -1,5 5,12 8,-2 2,5 -4,9 2,4 h 5 v -2 l 2,2 8,-7 4,-2 3,1 -1,-3 2,2 5,-11 5,-1 2,1 -2,3 v 7 l 7,8 v 5 l 8,-9 h 2 v 8 l 6,9 -1,4 -3,2 1,2 2,-2 2,2 5,-3 4,3 6,-5 10,-3 4,-4 7,-2 2,-2 h 14 l 7,-3 1,-4 2,-1 v -5 l 2,-2 -1,-6 2,-2 v -3 l -2,-4 2,-2 1,-5 -2,-2 7,-1 2,-2 -4,-6 -1,1 -2,-2 7,-4 5,2 1,4 h 5 v -2 l -3,-2 1,-3 7,-3 6,-11 6,-1 2,5 8,4 3,10 3,1 1,-2 9,-2 4,6 v 3 l 2,-1 4,2 3,7 4,2 2,3 -1,3 5,5 h 2 l -2,-20 h -4 l -1,-3 2,-2 2,-9 4,3 -1,-3 -4,-3 h 3 l 2,-5 4,-3 6,3 v -4 l -5,-3 v -7 h 4 l 1,-7 h 5 l 1,-3 h 8 l 4,2 -1,5 3,5 -2,1 -1,4 3,1 v 2 l 3,2 2,-5 6,1 -1,-1 7,-1 v 3 h 4 l 3,-3 h 4 l 4,3 v 2 h 3 l 6,4 12,-7 -7,-4 -1,-10 -2,-3 4,-10 4,-3 v -5 l -4,-2 v -2 l -5,4 -5,-3 v 2 l -3,1 -7,9 -3,-2 -2,2 -3,-1 -1,-4 v -3 l 8,-5 4,2 v -3 h 3 l 2,-4 2,1 -2,-4 1,-1 3,1 4,-3 8,4 1,-3 6,-4 5,3 v 4 l -2,2 3,5 2,-4 6,-3 -3,-1 1,-2 -3,-1 2,-2 5,3 2,11 12,4 6,-1 v -3 l 5,1 -2,-6 2,-15 h 3 l 2,-2 4,-5 1,-6 3,-1 4,-6 -1,-3 -4,-3 9,-6 5,-7 -1,-4 -5,-1 v -10 l 2,2 2,-2 6,1 1,-6 -3,-5 -3,1 -2,-3 1,-2 -3,-5 h 2 v -2 l -3,-1 -2,-6 3,-9 4,-3 -2,-3 -4,2 -1,3 -12,2 -4,3 h -2 l -1,-3 -7,-4 -2,1 -2,-4 -1,-3 4,-4 6,-16 9,-5 1,-2 -3,-1 v -2 l 4,-4 -1,-5 5,-4 -2,-6 h -2 l 1,-6 -2,-5 -3,-2 -2,-5 -3,2 -6,-3 -4,-7 10,-1 3,2 6,-4 -1,-3 5,1 2,-4 4,-3 8,-1 -1,-14 -2,-1 -3,-6 h -3 l 2,-2 -2,-4 14,-8 3,1 5,-4 -2,-8 -1,2 h -2 l 2,-8 -4,-6 v -6 l -5,-1 v 5 l -6,-3 h 4 l 1,-2 h -3 v -3 l -2,-1 3,-7 h -3 l -3,3 -5,-7 h -2 v -2 l -2,1 v 3 l -2,-3 -1,2 -3,-1 -4,1 v 2 h -7 l -3,2 -3,-1 -1,-4 h -2 l -9,12 -2,2 -2,-1 -2,5 -2,-2 -4,2 -6,-1 3,-7 3,-1 v -2 h -10 l -4,4 h -7 l -2,4 -12,7 2,2 v 3 l -3,2 h -2 l -1,-4 v 2 l -8,4 1,-3 -2,-3 h -3 l -2,-4 1,-2 h -3 l -7,-5 3,-3 3,2 4,-2 2,-3 h 5 z m -692,447 3,-3 z m 800,-387 1,14 4,3 3,-1 -1,-6 -4,-7 v -2 l 3,-3 v -7 l -4,-2 -1,-3 -6,7 3,6 3,-1 z m 18,16 -1,1 -3,-2 v 4 l -4,-2 -1,1 3,2 v 3 l 6,-3 3,-6 -3,-2 v 3 z"
     id="Guizhou" />
</svg>
