<?xml version="1.0" encoding="UTF-8" standalone="no"?>
<svg
   width="894.92804"
   height="816.40625"
   viewBox="-1191 -71 894.92804 816.40625"
   version="1.1"
   id="svg1"
   xmlns="http://www.w3.org/2000/svg"
   xmlns:svg="http://www.w3.org/2000/svg">
  <defs
     id="defs1" />
  <path
     stroke="#1e90ff"
     stroke-opacity="0"
     stroke-width="0"
	 stroke-linecap="round"
     stroke-linejoin="round"
     fill="#1e90ff"
     fill-opacity="1"
     fill-rule="evenodd"
     d="m -589.57192,570.01047 3,-1 -1,-2 2,2 v 4 l 4,-5 1,2 3,-1 5,-4 1,-5 3,1 1,3 18,-4 15,2 8,3 13,-4 -1,8 6,5 4,-16 5,-3 v -5 l 3,-6 6,-1 1,-5 7,-4 v 2 l 3,-4 -1,-7 -3,-2 v -2 l 5,-7 10,-12 4,-1 4,-6 13,-12 14,-6 2,-8 18,-14 3,-5 1,3 3,2 8,-4 6,2 v -3 l -5,-2 -1,-3 2,-4 13,-5 10,-8 9,-1 1,-5 4,-2 3,3 6,-2 5,4 1,-7 4,-1 1,-5 3,-3 9,-1 v -5 l 4,-5 h 2 v 3 l 3,2 9,-2 -7,-6 2,-3 3,-1 4,-6 -3,-6 -4,-2 -8,4 -2,-1 2,-6 6,-2 3,-6 2,1 1,-7 6,-7 1,-6 -3,-1 v -2 l 1,-2 5,-2 4,-6 -7,-2 1,-7 2,-2 -1,-3 -7,1 -2,-6 -2,2 h -3 v -5 l -3,-4 2,-4 -3,-4 h -4 v -5 l -3,-1 -3,-5 v -9 h -2 l -3,-5 1,-4 -3,-2 -4,-8 v -3 l 3,-5 -2,-1 -1,-5 h -2 l -3,-3 -11,4 -1,-2 3,-11 -1,-2 2,-1 -4,-2 v -4 l -2,-1 -1,-4 1,-15 1,-2 5,-1 v -2 l -7,-3 v -3 h 3 l 3,-4 4,-1 -1,-2 8,-11 -2,-4 h 6 v -2 l 4,-4 -3,-4 h -8 l -4,-4 -2,1 -1,6 -6,-1 2,-3 v -5 l -1,-1 -1,4 h -3 l 4,-5 -2,-1 2,-2 -4,-2 v -6 l 3,-4 -8,-4 -3,2 -6,-1 v -2 l 2,-1 -2,-5 4,-2 v -2 l -2,-1 2,-4 -3,-5 -5,-2 v -4 l -4,-2 v -2 l -3,-2 -2,1 3,-4 -3,-2.000001 1,-5 2,-2 -1,-4 2,-5 -8,1 -4,-3 2,-3 -4,-4 h -3 l 3,-4 -3,-4 4,-4 -2,-2 1,-3 -2,-5 -6,-3 h -2 l -2,5 h -3 l -1,-2 -2,-16 2,-5 1,-11 -2,-1 v -4 l -2,-3 2,-1 V 7.0104692 l 4,-4 -1,-7 2,-3 -2,-1 -3,3 h -10 v 4.00000004 l -4,3.99999996 -8,4 -2,3.9999998 v 7 l -2,1 v 2 h -3 l 1,3 -5,4 -5,7 -3,1 v 3 l -3,-1 -5,3 -2,2 v 4 l -4,-10 h -8 l 1,-6 1,1 4,-2 3,-4 v -3 l -2,-3 -5,1 -7,-5 12,-12.9999998 v -2 l -4,-0.99999996 -4,-6.00000004 -9,-5.0000002 1,-1 -2,-1 -1,-3 v -9 h -6 l -2,-4 -2,2 -6,-2 -5,1 v -6 h -2 v -2 l -8,2 -6,-4 v -2 l -5,-6 -7,-2 1,-3 -7,-5 3,-8 -3,-3 -6,-2 -1,-2 -1,2 -5,2 1,1 -7,11 1,3 -2,5 h 3 l -2,3 2,1 -2,1 2,3 h -2 v 6 l -5,2 2,7 -4,2 3,6 -3,1 1,3 -3,4.0000002 v 8.00000004 l -3,4.99999996 h -2 l 2,2 -4,2.9999998 1,4 -6,1 -2,-3 -4,-1 -3,-2.9999998 -12,5.9999998 -15,3 -10,12 1,7 -2,5 1,2 6,2 -1,2 h -4 l -14,6 -3,4 -10,-2 -3,4 -3,-3 h -6 l -1,6 -4,4 1,1 -16,-13 h -10 l -4,2 -5,-3 -2,-4 1,-1 -2,-2 -21,-2 -6,2 2,6 -1,1 2,2 11,1 v 3 l -8,8 v 4 l -5,1 -2,2 -2,-3 -2,1 v -2 l -7,-1 -4,-5 -3,-1 v 9 l -2,-2 -2,1 -10,-3 v -2 l -3,1 v -2 h -3 v 2 h -3 v 2 l -7,-1 -1,3 h -3 v 3 l -3,2 1,4 h -3 l 2,1 -2,1 3,3 -1,3 -3,-1 2,4 -5,4 v 4 l -2,-2 -1,3.000001 -1,-2.000001 -2,1 -2,5.000001 v -2 h -2 l -1,2 -5,2 -2,5 -5,4 h -3 l -3,-3 -1,-5 -1,1 -3,-3 v -4 l -4,5 -3,-1 -3,2 -2,-2 -1,2 -3,-3 -4,4 h -2 l -1,-2 -2,2 h -3 v 4 l -4,-2 -6,4 -1,1 2,1 -2,5 -5,4 -1,-1 -5,2 v 2 l -4,2 v 3 l -5,5 h -2 l -1,4 h -5 l -2,5 -3,-2 -2,2 -8,-2 -4,-3 -4,2 -2,-1 -1,5 -7,-1 -1,4 -4,2 -6,-1 -15,12 -5,-2 -14,8 -1,4 4,1 -2,1 v 4 l -5,1 1,6 -6,4 2,2 -6,-2 -6,3 1,2 -3.99998,3 v 4 l -3,-1 1,3 -2,-2 -2,4 4,1 1,2 -6,1 -9,7 v 3 l -8,11 2,5 -5,6 -7,-2 -2,-5 1,-5 2,-2 h -2 l 2,-8 -3,1 -5,-10 -1,-6 h -2 l -1,-2 v -7 l -8,-12 1,-2 -3,-2 -1,-5 -4,-3 v -8 l 2,-4 -1,-8 -13,1 -4,-3 -2,1 -3,-3 h -5 l -2,-3 -1,1 -1,-4 -3,-1 -2,-3 -4,1 2,-5 2,-1 v -6 l -9,-5 -1,6 -8,7 -5,1 -2,2 h -5 l -1,3 -6,3 -1,5 -5,6 4,2 3,6 2,1 1,5 h 5 l 1,2 h 2 l 1,3 -1,12 -6,7 -1,7 3,3 -3,6 2,3 -3,11 -3,4 4,3 -3,4 h 2 l 1,3 -3,3 2,5 v 7 l 1,-1 5,6 7,3 1,2 -1,3 -7,-1 3,8 h 2 l 1,2 v 6 l -4,3 v 6 l -7,3 -1,2 2,2 v 9 l -2,-1 v -2 l -2,4 -7,1 1,7 -5,6 v 3 h -5 l -1,2 3,2 -1,3 -6,7 -7,2 -1,8 -6,4 1,-2 -3,1 -5,-2 -4,4 v 5 l 10,5 -2,2 v 3 l -7,2 -4,-2 -2,1 -2,6 1,6 -5,9 -1,6 8,4 -2,4 8,2 4,8 h 2 l 1,2 2,-1 5,5 2,-2 2,2 3,-1 4,-4 h 2 l 3,3 -6,7 2,2 v 3 h 9 l 1,1 -2,5 7,5 26,1 4,-4 7,1 1,4 -2,4 7,8 -2,3 1,5 -2,5 2,7 7,11 -2,1 1,1 -3,6 6,-3 3,6 3,2 v -2 h 4 l 2,11 -3,6 4,4 v 6 l 1,-1 2,2 5,-2 3,3 -2,5 2,3 h 7 l 4,-4 1,-5 3,-2 h 4 l 11,-4 h 6 l 3,-3 15,-6 11.99998,-8 h 11 l 4,-2 3,-10 2,-2 1,-10 9,-7 -1,-7 h 2 l 1,-2 v -8 l 8,-2 2,-6 h 2 l 2,-4 9,-7 4,-6 v -10 l 2,-3 h 13 l 5,-5 h 7 v -5 l -7,-1 2,-7 -3,-1 v -3 l 1,-1 1,2 h 2 l 2,5 3,-3 2,1 2,-1 2,-6 3,-1 1,-5 3,-1 h 3 l 6,4 h 10 l 19,3 v -8 h 7 l 4,5 h 4 l -1,5 7,-4 h 3 l 3,3 6,-1 5,-5 1,1 4,-5 5,-2 1,6 4,3 -1,3 7,5 6,1 -2,6 3,13 9,1 5,4 8,-1 3,-3 1,2 -3,6 2,6 13,12 -2,2 1,4 h 5 v 2 l -8,-1 v 3 h 3 l 1,3 -3,3 -5,-1 2,7 h -4 l 1,4 -2,1 -5,-3 -2,2 v 2 l 4,3 -4,4 -3,-3 -6,1 v 11 l -2,2 -11,1 5,12 h 3 l 1,3 -2,4 -2,1 -2,-2 -11,14 -7,3 -7,17 -9,-1 -5,6 -2,-1 -1,3 -6,4 -7,-1 -1,4 -4,5 -3,1 2,9 -4,2 6,7 -1,7 -6,1 v 6 h -4 l -2,2 -14,1 -8,6 -1,9 3,2 1,3 h 2 l 2,-4 2,3 v 2 l -7,4 1,3 h 2 l -3,3 v 4 l 2,3 6,-2 2,3 3,-1 11,3 v 5 l 4,1 v 4 l 3,3 3,-2 1,1 6,-6 16,-4 3,-3 1,5 -1,3 -1,-2 -5,3 2,5 -2,1 -1,-2 h -4 l -4,1 -1,2 1,3 2,-1 1,2 h 2 l -1,3 h -5 l 2,3 -2,1 2,6 h 4 l 2,1 v 2 h 2 l 2,4 -3,5 -6,3 -1,-1 5,-5 -6,-7 -4,4 4,5 -1,4 h -3 l -7,7 -12,1 -4,-6 h -2 l -6,8 2,6 -8,1 -7,5 h -3 v -2 l -3,-1 h -6 l -5,5 v 6 l 4,1 1,2 -3,4 3,9 -2,2 2,10 9,1 3,-6 5,-5 6,-1 4,-5 8,2 11,-2 3,1 7,-10 12,3 4,-2 1,1 3,-9 -9,-5 -3,2 -1,-2 5,-3 2,-4 -2,-2 2,-1 8,2 4,-3 -1,-2 4,1 2,8 3,4 4,1 4,-3 h 3 l 1,-1 -2,-1 v -4 l -7,-5 h 7 l 1,2 h 2 l -3,-7 7,5 4,-6 4,-2 5,3 1,-3 -3,-4 1,-2 h 3 l 6,-5 5,-1 v -2 l -5,-2 -1,-7 4,-1 v -2 l 12,-6 4,-8 3,-3 1,1 1,-3 7,-3 1,-3 5,-5 11,2 5,-3 6,-8 6,-3 4,-6 3,1 16,-8 v -3 l 2,3 3,-3 -1,-2 2,-2 h 11 l 4,2 1,-4 5,-4 -1,-2 2,-1 1,2 h 2 l -2,-2 6,-2 1,2 2,-1 -1,-2 5,3 v 2 l 4,-5 6,2 2,-2 -2,-3 h 9 l 1,-2 -3,-1 1,-3 -4,-2 2,-1 2,2 v -3 l 2,-1 13,2 v 4 l 6,-2 1,1 7,-7 z m -122,83 2,3 3,-2 h 5 l 2,2 4,-2 h -3 l -4,-3 -5,1 -5,-3 -1,2 -1,-3 -6,1 7,4 z m -24,13 4,-4 -9,3 1,1 -4,2 v 4 l 2,2 4,-1 v -2 l 2,-1 2,2 1,-1 -3,-4 z m 33,-5 9,-1 -2,4 8,-4 -2,-3 -8,2 -5,-1 -1,2 z m 16,34 -3,-3 -1,1 -1,-3 -1,1 1,4 5,2 z m -43,-25 -2,-2 -1,1 z m -77,49 v 2 l 2,-1 -1,-4 -2,2 z m 76,-58 h 4 l -2,-2 z m 0,-7 5,2 -3,-2 z m 78,-46 -6,-3 -5,7 h 4 v 3 l 3,1 4,-3 1,-3 z m -92,57 h -1 z m -2,-12 -2,-1 2,2 1,-1 z m 99,-35 v -4 l -1,3 z m -60,46 2,-1 -1,-2 -2,2 z m -11,-2 5,-2 -7,-1 -1,1 2,1 z m 40,27 v 3 l 2,-1 v -2 z m -2,-4 1,1 z m -126,27 h 1 z m 134,-23 1,-2 h -4 l 3,3 z m -268,-237 6,-3 v -4 l -4,-2 1,2 h -2 l -3,6 z m 89,216 -2,-4 -3,1 h 2 z m 207,-40 v -2 l 2,-1 -6,-3 1,5 h 2 z m -205,38 1,-1 h -2 z m 165,-6 -1,1 2,1 3,-2 -2,1 z m 1,25 1,2 v -2 z m 48,9 h 2 l 4,-5 -2,-7 -2,-1 v 3 l -4,-1 1,11 z m -20,-37 2,-1 h -4 l 1,1 z m -237,28 2,-1 -1,-2 -1,1 z m 343,-117 v -2 l -2,1 z m -14,6 5,-1 -1,-2 h -4 l -1,3 z m -177,67 h -2 l -1,3 2,1 3,-3 -1,-1 z m -222,-176 v -2 z m 540,-1 2,-2 -4,2 z m -494,241 v 2 h 2 l -1,-2 z"
     id="Liaoning" />
</svg>
