<?xml version="1.0" encoding="UTF-8" standalone="no"?>
<svg
   width="894.8114"
   height="852.5"
   viewBox="-166 -118 894.8114 852.5"
   version="1.1"
   id="svg1"
   xmlns="http://www.w3.org/2000/svg"
   xmlns:svg="http://www.w3.org/2000/svg">
  <defs
     id="defs1" />
  <path
     stroke="#1e90ff"
     stroke-opacity="0"
     stroke-width="0"
	 stroke-linecap="round"
     stroke-linejoin="round"
     fill="#1e90ff"
     fill-opacity="1"
     fill-rule="evenodd"
     d="m 385.31144,560 2,9 5,5 v 24 l 5,2 2,4 -3,6 -5,5 -1,9 -2,2 20,10 6,1 h 5 v -2 l 7,-3 4,1 1,-3 4,3 -1,2 h 9 l 1,3 -4,3 -2,4 1,10 -7,3 v 6 l 7,13 v 6 h -4 l -2,3 v 10 h 4 l 2,4 10,-2 2,-3 -4,-3 2,-4 6,-5 -6,-8 -4,-2 v -3 l 3,-2 2,1 5,-2 2,-4 4,7 3,2 v 2 l 5,2 1,3 -3,6 v 2 l 3,1 -1,7 -3,5 2,2 -8,7 2,11 4,1 1,6 2,-4 4,-2 4,-5 3,8 3,2 2,-2 9,-2 4,2 -1,4 5,1 5,5 h 3 l 2,-2 v -6 l 3,-5 2,1 v 2 l 9,5 v -3 l 2,-1 -3,-9 11,-15 -1,-3 2,-4 -2,-1 3,-5 v -7 h 2 v -3 h 2 v -3 l 7,-8 3,2 8,-4 v -10 l 2,-1 3,-7 h 3 l -2,-8 -2,-2 h -2 l -1,3 -4,2 -4,-3 -6,4 -3,-2 -1,-3 2,-3 14,-7 -3,-4 7,-6 -1,-2 3,-2 -5,-5 -4,-1 1,-2 h -3 l 1,-7 -2,-3 1,-5 -2,-3 2,-6 3,-3 v -9 l 2,-4 3,-1 2,-9 4,-5 -1,-5 -10,-4 h -4 l -2,-6 1,-1 -3,-6 -10,-7 -1,2 h -3 l -3,-4 -2,-5 6,-12 -2,-2 -5,-1 2,-6 -1,-10 -4,-3 -1,-3 -5,-2 -3,2 -1,7 -6,-1 -5,7 -10,1 3,-16 2,-2 -4,-5 -7,-1 -2,-2 -1,-5 v -3 l 4,-4 -2,-7 1,-3 5,-4 -2,-2 v -5 l -3,4 -3,-2 3,-7 -3,-3 -2,2 -2,-5 -3,2 -1,-1 2,-3 -4,5 1,3 -3,-2 -3,1 -1,-2 h 2 l 1,-3 -2,-7 -6,1 4,3 v 5 l -2,-2 -2,2 -4,-5 -4,-1 2,-3 h -7 l 2,-2 -2,-4 1,-4 -2,-2 1,-11 -5,-3 h 3 l -2,-7 -5,-1 v -2 l -2,-1 -4,1 -4,4 v 3 l -4,3 -6,11 5,3 -5,4 h -3 l 2,3 -2,2 -8,-7 h -5 l 2,-8 -5,1 1,-9 -3,-1 -1,-3 h -2 l 1,4 h -5 v -5 l 4,-3 -1,-1 1,-1 2,2 6,-5 4,3 9,-3 2,3 v -17 l 5,-11 -3,-2 1,-10 h -3 v -2 l 1,-2 h 2 l 6,-17 -3,-2 3,-15 3,-4 h -3 l -4,-3 v -2 l -4,-4 1,-2 -2,-2 h -3 l -6,-6 -1,-3 -5,1 -2,-3 -4,-1 v -3 l 3,-1 2,-5 -3,-5 2,-2 -2,-6 2,-3 h 10 l 2,-2 h 4 l 3,3 h 5 l 2,4 4,-6 4,-1 -1,-2 8,-6 -2,-8 5,-3 4,1 2,9 2,1 v 3 l 3,2 v 2 l 3,2 8,-4 4,5 8,-5 12,-16 5,-2 4,-5 h 4 l 2,-2 2,1 2,-3 4,-2 5,3 3,-2 1,2 3,-2 2,2 -4,12 5,9 -1,1 h 3 l 1,2 5,-5 h 4 l 5,-5 5,-2 h -4 l 5,-2 8,-8 3,4 3,-1 -3,3 6,5 3,5 -5,7 1,5 2,2 8,-9 11,-18 5,-2 8,-9 h 2 v 6 l 6,-2 3,-4 v -6 l 7,-2 4,-3 2,-4 -1,-5 6,-2 3,-3 v 3 l 3,-2 -1,-5 12,-10 7,-2 14,-8 7,2 2,2 9,-2 2,1 2,11 7,7 h 5 l 2,-7 4,-3 1,-5 6,-9 -2,-2 2,-7 2,-2 -1,-1 2,-2 -1,-3 -5,1 v -9 l -3,-1 2,-5 -2,-3 v -4 l 5,-6 2,1 4,-2 1,-5 2,-2 -4,-9 V 87 l -3,-1 -1,-6 2,-5 -1,-7 -4,-7 v -5 h -2 l -2,-5 -11,1 -12,-14 h -4 l -2,2 -3,-2 v -2 l 8,-6 -7,1 -4,-3 -5,1 -11,-8 h -3 l -3,3 -3,-2 -9,1 -3,-2 1,-3 4,-2 v -4 l 3,-1 -5,-6 1,-7 -2,-2 v -6 l -6,-1 -1,-3 h -9 l -5,2 -6,-4 -20,3 -5,-2 -10,4 -16,-1 -4,-2 v -4 l -5,-5 2,-3 3,-1 -1,-4 -6,-3 -2,1 -6,-2 -1,-8 -28,-23 -1,1 -12,-6 h -12 l -5,-3 -7,-9 -11,-3 -4,-4 -1,-6 h -13 l -4,-3 -1,-3 -12,-9 -6,-1 -7,-6 -6,5 h -4 l -4,-3 h -7 l -3,4 h -2 l 7,7 4,9 4,2 v 4 l -4,3 -10,-4 -2,2 h -3 l 3,7 -6,4 7,6 -3,4 -8,-6 -2,2 -6,1 -1,4 3,2 2,4 -1,4 5,3 8,11 h 6 l 2,6 8,4 3,-1 v 5 l 14,7 -5,5 2,1 v 7 l 5,5 -5,1 -6,6 -3,1 -1,3 -1,-2 -3,-1 -10,10 1,2 -2,2 2,2 v 3 h -8 v 7 l -4,2 -8,-1 -1,2 h -4 l -3,-2 -3,3 -6,1 1,5 h 5 l 1,3 -3,3 1,6 -2,3 -4,1 -5,4 1,3 4,2 v 5 l -4,1 -3,4 -6,3 -3,3 v 2 l -10,2 -3,2 2,2 -1,3 2,1 7,-3 -1,3 3,3 -6,12 h -2 l -4,7 -3,1 3,4 1,6 6,2 -1,3 -10,3 -3,9 -7,-2 -2,5 2,10 9,3 -27,24 -15,-5 -2,-3 1,-7 h -2 l -2,-4 -4,-1 -2,3 h -2 l -8,11 -3,1 -3,-2 v -3 h -6 l -1,-2 -9,2 -3,-3 -5,4 3,5 h -2 l 1,2 -3,1 -1,3 h -2 l 1,2 -3,1 -1,-2 v 6 l -4,1 2,5 4,4 v 5 l 11,7 -10,16 -6,5 2,3 -1,2 -3,2 -2,-1 -9,13 -4,15 -3,5 -6,5 -6,16 -6,11 -15,16 -1,3 -5,2 v 5 l -2,-2 -3,1 -1,2 2,4 -2,3 -3,1 -1,-2 h -2 l 1,4 h -4 l -5,-5 -2,-5 -3,1 -4,8 -6,1 v 2 l -5,-2 -4,2 -4,-5 -2,3 -6,1 v 2 l -2,1 h -3 l -1,-2 -1,2 -5,-2 -1,-6 -5,-5 1,-8 h -3 v -2 l -3,1 1,-8 -7,-4 1,-2 h -2 l -2,-5 2,-1 -3,-3 -1,1 v -2 l 6,-3 -6,-9 h -4 l -5,-5 -3,1 v 3 l -4,-1 -3,3 -2,-2 h -3 l -1,-2 -5,1 1,-1 -2,-1 -1,2 2,1 -1,2 -1,-2 -1,1 1,3 h -5 l 4,4 -4,3 -5,-2 2,2 h -8 l -1,2 -1,-1 v 3 l -7,-3 v 7 l -4,2 1,-2 -4,-1 2,2 -1,2 -4.0000001,-1 v 4 l -2,-2 v -5 l -4,2 -2.99999998,-3 1,-3 H -2.6885601 l -1,-10 -4,-8 -1,1 -2.9999999,-3 h -2 l 2,4 h -2 v -2 l -3,1 -1,-3 h -2 v -4 h -2 l -1,2 -2,-1 -6,-7 h -16 v -2 l -4,-3 -3,2 v -4 l -5,1 2,2 -2,1 v -5 l -5,4 -2,-2 2,-2 -5,-6 -5,3 -2,5 -2,-1 -2,5 2,1 -4,8 -3,1 2,3 -6,1 v 7 l 2,2 2,-1 v 3 h -2 v 2 h -9 l -5,-4 h -4 l -2,4 2,1 -1,3 3,3 h 4 l 1,2 -3,1 v 4 h -5 l -2,2 -2,-1 -3,2 -2,-2 -4,1 -2,3 v 2 l 4,2 5,-4 2,1 v 3 l -5,2 6,6 1,-1 2,2 h 4 v 5 l 4,3 2,-1 3,6 h 6 l 1,3 3,-2 2,4 -4,4 -2,5 2,4 -2,1 -3,6 2,2 -1,3 4,1 v 7 l -4,4 -6,-3 -3,3 -1,-1 -3,2 -4,-2 -2,6 -3,-1 -2,6 2,2 -3,3 1,2 -3,5 1,2 h -2 l -1,-2 -2,2 2,1 -4,3 2,3 h -2 l -7,-6 -3,3 2,6 h -9 l -3,-2 -3,3 -2,-1 v 6 l -3,1 1,4 h -5 l -3,6 h -2 l 1,-1 -2,-2 -2,4 1,3 -3,1 -2,4 1,4 5,5 v 7 l 3,3 v 2 l -2,1 1,2 3,-2 2,1 3,-3 3,1 1,3 h -2 v 2 l -3,1 h 9 l 4,5 v 3 l -2,2 2,1 -4,4 v 8 h 5 l 1,-3 4,4 -2,4 5,3 3,-2 2,5 4,-2 10,-1 3,1 -1,3 5,-5 2,2 -1,2 2,2 h 3 v -5 l 2,1 2,-4 3,-2 2,2 -4,1 v 4 l 3,6 -1,13 3,1 1,8 3,-1 2,2 -3,1 -2,3 3,4 v 3 l 3,1 -3,6 4,6 -1,4 3,3 h 2 l 4,5 -1,2 h -2 l 1,2 6,-2 4,4 4,-2 3,6 3,1 v -4 l 2,-2 8,-6 5,-1 -3,-2 2,-1 3,1 4,5 4,-1 -1,8 2,2 4,-3 5,5 6,-2 2.9999999,1 4,-4 8,6 h 2 v 2 l 5.0000001,4 2,4 -3.0000001,4 1.0000001,1 -2.0000001,1 4.0000001,8 1,8 3,1 3,5 v 7 l 3,2 -3,3 5,4 -1,3 4,7 -2,4 1,1 -2,1 2,5 1,-2 3,3 3,-1 -1,-1 4,-7 7,3 1,-1 6,6 4,-1 2,-2 -7,-8 1,-3 5,3 1,4 3,-3 -2,1 -3,-5 v -3 l 2,-5 -1,-5 h 3 l 2,-2 -6,-14 -8,-8 v -3 l 2,-1 -2,-4 4,-4 3,6 6,2 v 3 l 7,5 v 8 l 3,4 5,3 2,-1 v 5 l 3,2 2,-2 1,4 h -5 l -1,2 4,3 v 2 l -2,2 -2,-1 -2,3 2,9 -6,6 h -3 v 8 l 4,-1 -1,-4 2,-1 3,3 4,-1 v 3 l 3,2 2,-3 7,3 -1,5 3,1 7,-4 -4,-10 v -5 l 2,-3 8,-2 v -2 l -4,-3 v -5 h 3 l 1,-2 2,1 3,6 3,-2 1,-5 h 5 l 4,-14 -5,-1 v -2 l 2,-1 -6,-6 -1,-4 4,-5 h 3 v 2 l 4,-5 h 4 l 3,-3 5,9 7,-1 v -4 l -2,-3 2,-5 -1,-4 6,-2 v -5 h 3 l 1,4 3,-1 -2,-1 1,-4 3,-1 1,4 h -2 v 2 l 5,-1 1,-3 h 9 v 2 h 7 l 2,-2 2,4 -2,6 6,1 -3,4 2,9 5,2 2,-6 12,-4 4,-4 -3,-2 5,-2 2,1 5,-3 -1,-2 3,-5 1,1 v -5 l 4,-5 1,-4 h -4 l -4,-8 h -5 l -1,-4 6,-6 -1,-4 -2,1 -2,-7 1,-2 3,2 4,-1 3,-7 -4,-2 1,-5 -2,-5 5,-1 2,-3 4,2 v 4 l 2,1 7,-5 h 4 l 3,-3 v -2 h 3 l 4,14 2,1 1,-4 h 4 l 6,1 1,3 6,1 4,-3 1,-4 5,-5 1,5 h 2 l 1,3 6,4 -4,20 7,3 -3,10 6,4 5,1 v -5 l 3,-1 v -4 h 4 l 4,-6 h 17 l 2,-4 7,-6 7,2 7,5 4,-3 5,-1 1,3 5,2 -1,3 3,1 3,-3 2,-10 6,1 1,2 -2,6 2,9 z m 144,-333 v -5 h -2 l -2,2 2,5 2,-1 z m -641,97 -2,-1 z m 640,-96 -1,1 2,1 z m -372,113 v 1 z"
     id="Chongqing" />
</svg>
