<?xml version="1.0" encoding="UTF-8" standalone="no"?>
<svg
   width="524.5"
   height="884.70184"
   viewBox="-166 -118 524.5 884.70184"
   version="1.1"
   id="svg1"
   xmlns="http://www.w3.org/2000/svg"
   xmlns:svg="http://www.w3.org/2000/svg">
  <defs
     id="defs1" />
  <path
     stroke="#1e90ff"
     stroke-opacity="0"
     stroke-width="0"
	 stroke-linecap="round"
     stroke-linejoin="round"
     fill="#1e90ff"
     fill-opacity="1"
     fill-rule="evenodd"
     d="m 284.5,473.49998 -7,-12 1,-3 3,-2 -3,-1 1,-3 -8,-2 -6,-9 2,-3 -2,-17 3,-7 6,-7 v -4 l 4,-11 1,-13 6,-8 6,-18 5,-6 4,-10 -3,-8 v -8 l -3,-9 1,-2 -4,-1 v -11 l -2,-2 1,-1 -5,-14 1,-11 2,-2 v -7 l -2,-2 3,-8 -1,-7 2,-2 v -12 l -10,-11 v -2 l 4,2 v -4 l 2,-2 -2,-1 -1,2 -1,-1 2,-2 -5,-3 h 2 l 2,-3 v -6 l -4,-2 3,-2 1,-10 -4,-4 3,-1 3,2 -2,-4 3,-1 7,-8 12,-19 h 2 l -1,-4 2,-1 v -3 h -4 l -2,-2 1,-8 9,-1 5,-13 -3,-9 3,-1 v -2 l -8,-4 -1,-2 5,-2.000001 v -2 l -7,-4 -8,-16 -6,-3 -1,-2 2,-2 -3,-6 v -7 l 2,-3 -1,-7 1,-3 4,-1 1,-9 6,-1 5,-5 5,-2 2,-9 5,-1 1,2 3,-2 V 9.4999793 l 3,-2 1,-7.00000001 -2,-1 -1,-3.99999999 3,-9.0000003 4,-6 -1,-3 3,-1 2,-6 -1,-3 2,-2 -3,-11 1,-3 9,-3 4,-4 3,-9 -1,-2 8,-17 h -3 l -3,-3 1,-2 -3,1 v -4 l -5,1 -2,-2 1,-3 h -3 l -1,-3 9,-11.999999 1,-5 -2,-2 -3,3 -6,1 v -2 l -7,6 -6,1 -10,14.999999 h -2 l -3,9 -4,5 h -6 l -9,-14 -2,3 -6,-2 -2,3 2,1 -4,4 -9,-8 -3,-4 2,-1 -12,-3.999999 -2,3.999999 1,3 h 2 l 5,13 -19,9 -4,-1 -5,-7 -3,3 8,7 -6,6 2,4 -5,-2 -18,16 2,2 v 4 l -2,1 -1,5 -10,9 -3,-3 -6,5 -4,8 -6,2 -1,4.0000003 4,4 -3,4 h -2 l -3,-3 -8,8 -1,4 -8,7.9999997 -4,2 v 6 l -4,3 -4,11 1,2 -3,5 2,6 10,7 -2,4 2,4 h -3 l -2,5 -7,7 -5,-11 -3,-3 -5,-1 3,6 -4,14 1,10 -2,12.000001 h -6 l -1,2 -6,2 -9,-5 -10,5 -8,2 -8,-4 -4,1 -5,4 -11,-3 v -6 l -3,-4.000001 -1,-6 -22,-7 -5,-4 -3,2 -1,7 -2,3 -2,-1 -9,3 -1,6.000001 -2,2 h -6 l -1,2 3,1 v 2 h -3 l -3,4 h -4 l 1,3 h 4 l -2,8 -6,4 -2,13 1,9 4,6 -4,1 6,6 v 5 l -3,4 -2,-3 2,20 -1,2 2,2 2,-1 3,2 h 10 l 5,4 -1,2 2,3 4,-1 5,2 3,-2 4,4 2,-1 7,4 1,-1 5,4 2,-1 3,7 v 4 l 3,-1 1,2 v -3 l 2,-1 2,2 -2,4 5,5 2,-3 1,3 4,1 v 2 h 2 l 2,-3 1,-5 h 3 l -2,3 1,4 h 3 l 1,3 1,-3 2,2 4,-1 5,6 2,6 -1,1 h 2 l 3,3 h 4 l 1,-6 5,4 5,1 3,5 -1,15 6,13 -2,6 v 7 l -3,8 -8,1 v 2 l -4,2 -2,4 2,2 v 22 l 2,6 7,5 -1,6 2,10 -2,9 -1,3 -3,2 -2,-1 -5,3 -12,-1 -1,-2 -10,5 -1,-5 -3,-1 -9,3 -4,3 -6,1 h -3 l 1,-2 -9,1 -7,-5 h -6 l 1,4 -1,-1 -5,2 -1,2 1,2 h 2 l 3,6 v 6 l 4,3 3,6 5,1 -1,2 h 2 v 2 l -6,2 1,1 -3,-1 -9,2 -4,2 1,1 h -2 v -5 h -5 l -3,6 h -7 l -3,-2 -5,1 -4,-2 -4,1 -3,6 -2,-2 v 2 l -3,-2 -1,-4 -7,-3 -2,-7 -5,-1 -3,-4 h -4 l -1,-2 -21,-2 v 2 l -4,1 h -5 l -3,-2 -3,1 -2,6 -3,1 1,3 -2,2 4,11 3,2 2,10 -4,3 -3,-1 -1,4 -3,1 -1,3 2,3 -2,2 -2,-2 -10,8 2,1 v 6 h 6 l 5,-2 3,1 5,5 1,-1 1,2 h 3 l -1,2 2,1 2,6 8,2 -3,4 2,4 -4,6 -3,-2 -3,1 -2,-3 -5,-1 -2,6 3,-2 2,1 1,8 2,2 -3,4 -5,1 v 6 l -3,3 1,6 -6,7 1,4 5,-1 1,4 -3,6 3,3 -1,6 5,1 4,7 v 5 l -2,2 1,3 -2,3 -5,-2 -1,1 -2,-2 -1,-8 h -6 l -3,3 -4,-2 -6,5 -5,1 -4,-2 1,-1 -4,1 v -3 h 2 l -4,-2 -5,2 -4,-2 -2,1 -4,6 -2,-1 -5,8 -1,11 -3,1 -6,-2 -2,2 4,5 -1,3 2,2 9,5 h 4 l 5,4 v 5 l -3,-5 -3,6 h 2 l 2,4 h -2 l 1,4 -2,2 2,1 -1,6 -5,6 -3,-2 -9,5 -7,1 -1,2 h -5 l -2,-3 -5,-1 -2,1 v 4 l 3,2 1,7 2,-1 1,8 2,-1 1,4 4,-3 h 3 l 4,-4 1,1 2,-2 2,2 3,-2 2,-6 2,1 11,-4 2,3 2,-4 7,4 v 3 l -3,2 5,6 h 3 v 2 l 2,-1 v 2 h 8 l 2,3 6,-1 4,5 3,1 2,-4 5,1 2,-2 13,-3 6,-5 h 4 l 1,5 1,-2 2,1 2,-2 h 6 l 1,2 9,-2 4,1 4,12 -2,6 4,7 6,2 3,5 3,1 5,-9 4,-2 2,-3 h 3 l 2,1 -1,3 1,4 2,1 v 4 l 3,-1 3,5 12,-4 6,10 3,-2 7,13 9,3 5,5 4,-3 -1,-4 6,-2 4,1 3,-2 2,2 6,-6 6,5 3,-2 h 6 l 5,-2 1,2 h 3 v 5 l 4,3 h 3 l 8,8 5,-1 5,7 5,1 2,3 4,2 12,3 12,9 2,6 7,2 1,3 -2,1 2,5 12,1 16,-2 2,-2 -2,-1 v -4 l 5,-2 -5,-9 1,-3 h 2 l 1,-4 -4,-7 3,-9 -3,-3 v -9 h -3 l -5,-8 v -9 l 3,-3 -1,-3 2,-1 4,-8 4,-2 -1,-6 10,-2 8,4 8,-2 6,2 2,3 h 3 l 5,-4 v -3 l 2,-1 4,3 5,-4 -4,-6 v -9 l -3,-1 1,-3 -5,-4 -9,-5 -12,-2 v 2 l -6,1 -2,-3 3,-17 -10,-6 -10,1 -2,-2 -8,-1 -3,-2 3,-2 4,-7 7,1 2,-1 1,-4 3,3 3,-1 4,3 10,-2 18,6 11,-2 8,6 5,-2 3,2 2,-3 10,1 7,-9 3,1 2,4 v 5 l 2,2 3,-1 1,3 3,3 h 2 l 1,-4 3,-2 h 5 l 1,-5 h 8 l 4,-6 h 3 v -7 l 3,-1 v -5 l -3,-6 3,-4 -2,-12 -6,-5 -6,-1 -1,-3 h -2 l -2,-4 v -6 l -3,-5 h -4 l -3,-4 -4,-2 h -5 l -2,-4 3,-2 v -2 l 5,-2 v -3 h -2 l -3,-7 -3,1 v -8 l 5,-7 -2,-2 -6,-1 v -3 h -4 l -6,-3 -2,-4 5,-5 2,1 -2,-10 h -2 z m 54,102 v 1 z m -451,78 z"
     id="Shaanxi" />
</svg>
