<?xml version="1.0" encoding="UTF-8" standalone="no"?>
<svg
   width="1244.1014"
   height="850.68683"
   viewBox="-166 -118 1244.1014 850.68683"
   version="1.1"
   id="svg1"
   xmlns="http://www.w3.org/2000/svg"
   xmlns:svg="http://www.w3.org/2000/svg">
  <defs
     id="defs1" />
  <path
     stroke="#1e90ff"
     stroke-opacity="0"
     stroke-width="0"
	 stroke-linecap="round"
     stroke-linejoin="round"
     fill="#1e90ff"
     fill-opacity="1"
     fill-rule="evenodd"
     d="m 1025.1014,127.5 11,-3 3,1 -4,-9 h -3 l -3,-5 h -4 l -3,-3 v -3 l -4,-3 1,-1 -12,-7 1,-2 -9.99998,-4 -2,-4 -6,-3 2,-7 -2,-4 -4,-1 1,-1 -4,-4 2,-3 -5,-8 h -5 l -6,5 -1,3 h -5 v -3 l -2,-2 -12,-4 1,-2 -6,-9 -14,-4 -6,5 -2,4 -7,-6 -2,1 -9,-4 -5,-9 h -3 l -10,-8 -4,2 -2,-2 -1,-4 3,-4 v -8 l 2,-1 -3,-2 -4,3 -4,-1 -6,-9 -4,-2 -2,1 -6,-2 -3,3 -1,-2 -3,1 -2,-3 h -3 l -1,-2 -2,3 h -2 v -4 l -2,-1 -2,2 -7,-4 1,-2 -3,-5 -3,2 -2,-9 -7,-2 -1,-2 -6,-2 -2,-3 -6,6 3,3 -1,1 7,3 2,7 4,3 2,12 -5,-1 -1,-3 -16,-10 -10,-3 -16,-9 -1,-3 -6,-3 -5,-6 -1,-6 -2,-2 -4,1 -3,-7 -4,-3 -1,-3 -9,-7 -4,-1 -7,-8 -7,-5 v -2 l 4,-3 -5,-4 -9,-1 -5,-3 -1,-3 -6,-3 -1,-3 h -5 l -2,4 -3,1 -3,6 -5,2 1,2 -3,3 -6,-3 -6,1 -3,-3 1,-2 -3,-1 -2,-3 -9,-1 -1,10 -3,4 1,3 -14,12 -8,-8 -9,-3 -7,-6 -12,-3 -1,-5 -17,-9 -4,-5 h -3 l -2,-3 -3,1 -3,-3 -16,-4 h -18 l 4,7 -4,5 -2,22 5,3 -1,11 3,4 -1,6 1,2 3,1 v 10 l -8,4 -16,-6 1,4 -3,2 3,3 v 2 l -9,1 -3,2 4,3 -1,5 -7,7 1,6 2,1 1,8 -19,-6 h -7 l -4,4 -3,7 1,3 -5,2 -1,-3 h -2 l -1,2 -11,-4 h -2 l -1,2 -2,-1 -14,-13 -3,1 -3,-8 -9,-3 -2,-3 -17,12 -3,-2 -3,3 -2,-3 -2,2 -4,-2 -2,1 -2,-2 -5,3 -3,-4 h -2 l -2,-3 1,-2 -5,-2 -2,-3 -4,2 -3,-2 -1,1 -1,-2 -11,1 -3,3 -5,1 h -14 l -10,4 -2,-1 v -8 l -14,-39 -36,4 -2,2 -8,-1 -9,-6 -1,-4 1,-2 h 11 v -5 h -5 l -10,-7 -36,2 -2,2 -12,-4 2,-14 -6,-7 1,-7 -2,-2 -7,4 h -6 l -3,-3 -5,1 -2,3 -3,-1 -16,4 -1,-1 -14,2 -3,4 v 3 l -5,1 1,3 -14.000002,1 -8,5 -17,2 -10,5 v 2 l -2,1 -20,2 -8,4 -1,-1 -3,2 h -5 l -16.0000002,8 -2,-1 -6,3 -31.9999998,7 -3,2 v -2 l -7,1 -7,-2 -3,2 3,3 -4,3 1,1 -8,2 1,2 -7,1 v 4 l -4,4 -5,1 -4,-3 -5,2 -12,-1 -1.999998,2 v 6 l 1.999998,3 4,1 -3,6 13,12 6,1 1,-8 15,-2 -1,68 6,1 v 2 h 7 l 18,11 2,3 -1,6 4,1 4,5 4,-2 7,2 3,5 1.9999998,12 3,2 2,4 v 8 l 9,5 v 6 l 2,3 -1,4 2,3 -8.99999998,1 -3.00000002,-2 -5,2 v 4 l -7.9999998,1 -1,4 -4,2 -10,-1 -6,5 -2,4 -5,2 -1,3 v 5 l 3,4 -3,1 -2,6 h 2 l 1,8 h 7 v 3 l 2,1 7,-1 11,4 v 10 l 2,1 -3,12 5,3 -3,6 5,3 -1,6 2,1 v 7 l -3,1 -4,-2 h -5 l -5,8 -6,2 -4,-2 -3,-6 -11,-6 -8,1 -4,-2 -4,2 -22,-4 -10,-5 v -4 l -6.999998,-1 -1,-3 h -4 l 3,2 -1,5 -1,4 -7,6 1,7 -8,-2 -6,2 -9,-3 -5,5 -11,3 h -4 l -5,-3 -1,3 3,3 v 5 l -2,2 1,2 4,2 2,-1 4,3 -1,1 2,2 5,-1 5,2 11,-2 2,2 -3,5 1,4 -3,1 v 10 l -2,2 4,7 h -5 l -1,5 v 4 l 6,3 h -2 l -6,7 -2,-1 -5,4 -9,2 -1,1 2,3 -2,5 3,2 -7,5 2,1 4,9 2,2 h 4 l 1,2 -3,19 2,3 5,2 6,-2 1,-2 3,2 4,-2 3,2 -1,4 3,1 v 4 l 2,1 -4,2 -2,3 1,2 h -4 l -3,2 -1,3 v 5 l 4,3 h 3 l -2,7 3,2 1,15 -2,2 6,6 v 2 l -4,3 1,4 -1,7 -2,1 1,2 -5,2 v 3 h -6 l -4,5 1,2 -2,1 5,10 7,6 2,5 4,-1 6,7 3,1 -3,4 1,2 7,2 v 15 l 3,4 5,2 1,7 12.999998,3 12,17 4,3 7,-1 20,14 3,-1 6,4 7,-1 2,4 2,-4 h 8 l 2,2 4,-1 4.9999998,4 3,-4 6.00000002,-3 18.00000018,6 1,2 2,-1 v -2 l 4,-2 3,1 2,3 -1,1 3,3 8,3 1,2 6,2 3,3 5,-1 2,6 4,-1 -1,2 6,7 6,-1 v -2 l 7,-1 4,-3 1,2 h 5 l 2,5 -3,2 v 6 l 2,2 h 7 v -2 l 4.000002,1 2,-1 -1,-2 5,2 4,-2 3,3 h 11 l 3,2 3,-1 2,-4 9,5 3,-1 5,4 v -2 h 8 l 3,-3 2,1 v 3 l 2,1 2,7 9,-2 1,-2 6,1 2,4 h 4 v 4 l 3,1 4,5 6,-4 2,7 h 3 l 1,3 4,-1 6,-5 2,-5 h 7 l 9,3 v 3 l 4,5 4,1 4,-2 5,4 h 2 l 2,-3 8,4 1,-2 h 3 l -1,-3 2,-4 9,2 v -2 l 7,-1 v -4 l 2,-3 4,3 4,-5 v 2 l 5,-1 3,-3 h 2 l 2,-5 14,13 -1,3 h 3 l 2,5 4,2 3,-1 2,6 h 8 l 7,4 13,-2 1,4 3,1 -15,3 -2,5 3,2 6,-2 3,-2 1,-3 h 2 l 4,16 3,3 h 5 l -1,-3 3,-1 3,3 2,10 -3,3 3,3 -7,2 -1,3 4,5 3,9 6,6 1,3 h 6 v -2 h 2 l 1,-2 11,2 4,2 4,7 3,-3 -1,-3 5,-9 8,1 v 3 l 5,6 10,4 1,10 h 4 l 2,-3 -1,-3 3,-1 v -4 l -3,-4 1,-1 -5,-3 1,-7 h 2 l 1,-4 -3,-3 h 3 l 3,-3 4,2 9,-1 1,8 5,8 10,7 4,-3 4,3 1,-2 8,6 h 2 l 1,-3 h 3 l 1,-4 -6,-9 -1,-4 3,-1 2,-3 -5,-5 -1,-6 -2,-2 h 7 l 4,2 2,4 v -4 h 2 l 1,-2 4,3 2,-2 -3,-4 2,-2 h 5 l 2,2 6,1 3,-1 4,2 1,-3 3,1 1,-2 -2,-3 1,-2 3,4 h 5 l -1,-3 2,-3 -4,-1 -1,-5 3,-12 2,-1 2,1 v 2 l 7,-2 v -7 l -3,-7 -4,-1 5,-7 -6,-4 1,-2 2,-1 1,2 7,-4 1,3 4,3 h 21 -3 l -9,-9 -5,-1 -11,-9 v -3 l -4,-5 v -10 l -1,-2 h -2 l 2,-7 14,-4 -2,-2 3,-3 v -2 l -5,-10 4,-6 5,-2 5,-14 4,1 v -2 h 2 l 5,-6 -7,-2 -1,-2 h -6 l -2,-2 h -3 l -3,-6 1,-6 h -7 l -3,-3 -1,-3 3,-5 -2,-5 1,-3 -5,-10 2,-1 v -4 h 6 l 4,-3 2,1 7,-3 3,2 2,-4 v -7 h 3 l 1,-2 -3,-9 11,-6 1,-3 3,-1 10,2 8,7 h 6 l 10,5 13,-2 5,1 -1,4 3,3 1,4 v 3 l -3,3 2,2 v 3 l -2,2 3,3 2,-1 3,9 8,4 1,4 6,5 -4,2 4,4 -1,5 9,8 -1,7 4,5 v 7 l -2,3 5,1 -1,5 6,8 9,3 v 2 l 5,2 h 7 v 2 h 2 l 1,2 h 5 l 3,6 2,1 -1,3 h 2 l 2,8 h 5 l 1,-2 h 3 l 6,2 1,2 8,1 6,8 3,-1 1,2 5,1 2,3 h 2 l -1,-1 5,-15 -1,-8 7,1 3,-9 -1,-2 h 2 l 4,6 1,5 8,2 -1,3 5,1 v 3 h 2 l 3,15 -5,6 2,1 v 2 l 7,1 2,3 3,-13 h 9 l 6,-4 -2,6 1,1 2,-4 3,4 h 2 l 7,13 11,5 -1,-8 2,-3 2,2 2,-1 -3,-5 6,2 1,-2 1,3 2,-2 12,6 13,-9 4,1 -1,4 8,-5 3,-4 1,-11 -6,-8 -4,-1 v -9 l 5,1 v -7 l -4,-4 3,-2 -2,-3 1,-2 h -2 l -2,-4 1,-4 5,-5 h 10 l 8,12 v -6 l 2,-2 7,1 14,13 2,-7 3,-2 -1,-2 3,-1 3,-6 -3,-4 -3,1 -3,-3 2,-7 3,-5 5,-1 2,-6 v -4 h -2 l -2,4 -10,-1 -2,-14 -2,-5 -2,1 -1,-3 -11,2 v 2 l -4,2 -3,-2 -8,-1 -2,-2 -2,2 -5,1 v -7 l 2,-2 1,-5 -8,-8 -2,1 -3,-1 -1,-3 h -4 l -9,-16 -2,-1 -3,-8 -7,-7 4,-7 -1,-2 2,-6 4,-2 3,-5 h 5 l 11,6 h 15 l -1,3 9,5 14,4 1,2 6,-1 v 2 l 2,-1 4,2 v 2 l 3,1 -1,3 2,2 3,-1 1,3 2,-1 v 2 l 3,-5 h 7 l 2,-3 1,2 7,3 1,-7 4,1 1,-7 4,-1 v -5 l 2,-1 6,2 3,-9 h 6.99998 l -7.99998,-10 v -4 l -2,-3 -5,-3 -11,-2 -4,-4 -1,-32 6,-3 7,2 -1,-3 4,-8 6,-3 1,-2 3.99998,-1 1,-2 h 5 l 6,-12 5,-1 -3,-10 -8,-5 3,-1 v -3 l -3,-5 1,-4 2,-1 8,3 4,-3 v -5 l 1,1 4,-8 v -5 l 8,5 10,1 4,4 4,-4 -5,1 1,-2 6,-2 -3,-3 -1,-8 h -2 l -3,-5 -2,-8 2,-5 h 3 l 4,-5 6,2 3,-1 5,3 v -11 l 3,-8 -2,-3 1,-2 -6,-3 -1,-2 5,-2 4,-10 3,-2 h 5 l -5,-3 1,-2 -10,-5 -2,-4 h -5 l -2,-7 -5,-8 2,-4 -5,-7 3,-1 -5,-3 1,-2 h -3 l -5,-4 -3,-7 1,-3 2,1 5,-5 3,1 -5,-7 -7,-5 -6,-8 h -2 v -2 l -5,-1 5,-6 v -4 z m 32,84 -1,-3 z"
     id="Qinghai" />
</svg>
