<?xml version="1.0" encoding="UTF-8" standalone="no"?>
<svg
   width="1250.5"
   height="908.5"
   viewBox="11 -315 1250.5 908.5"
   version="1.1"
   id="svg1"
   xmlns="http://www.w3.org/2000/svg"
   xmlns:svg="http://www.w3.org/2000/svg">
  <defs
     id="defs1" />
  <path
     stroke="#1e90ff"
     stroke-opacity="0"
     stroke-width="0"
	 stroke-linecap="round"
     stroke-linejoin="round"
     fill="#1e90ff"
     fill-opacity="1"
     fill-rule="evenodd"
     d="m 525,-224 -6,7 -10,6 -3,-1 -2,-4 -5,-2 -16,4 -5,3 -8,10 -1,11 -2,3 -11,5 -29,-8 -21,-3 -2,1 -4,3 -1,4 10,16 -6,9 -8,3 2,9 -2,6 -3,2 h -8 l -4,-8 -10,-10 -20,-5 -10,1 -2,18 -4,6 -12,9 -10,10 -17,32 -34,14 -7,5 -9,11 -10,19 -13,19 -7,4 -42,14 -26,31 -1,5 14,4 7,6 2,5 7,20 2,12 -1,7 -5,10 v 4 l 4,8 44,28 h 22 l 10,6 5,-2 -6,-13 8,-7 15,-7 14,-2 11,1 11,3 30,15 34,5 5,2 10,7 3,4 3,6 v 5 l -7,16 -15,13 -124,75 -6,-1 -6,-8 v -5 l 6,-3 h 22 l 11,-11 3,-16 -1,-7 -8,-4 -33,4 -17,5 -3,-6 -3,-1 -83,29 -3,6 6,7 -2,7 -7,13 1,9 4,6 -1,12 -14,16 -3,9 -18,7 -11,1 -3,3 -9,20 -4,-4 h -7 l -7,3 -10,8 3,10 3,1 12,-3 1,2 -2,9 -5,4 -13,3 -4,3 -1,13 -2,2 -3,-1 -5,2 -5,4 -4,6 v 21 l 3,10 5,6 -3,10 1,5 1,4 8,8 -4,19 8,1 3,-2 7,-1 11,-12 4,-2 4,-1 12,3 9,-4 22,-16 3,-5 3,-11 5,-3 9,-2 4,1 2,9 9,11 12,9 h 20 l 32,-4 5,-7 v -12 l -2,-3 1,-2 21,-6 16,-17 22,-2 20,-9 11,1 v 3 l -5,10 1,8 5,10 9,12 12,10 10,1 14,-10 12,-3 4,-6 11,-7 2,-6 3,-2 5,2 5,-5 2,-7 3,-3 v -3 l -1,-3 -16,-5 -4,-7 -10,2 -7,-7 -6,-2 -1,-2 1,-6 4,-5 22,-10 1,-3 -3,-7 -25,-26 2,-7 6,-2 5,6 4,1 7,6 9,3 18,-2 1,-9 -5,-17 4,-4 v -17 l -5,-2 v -4 l 2,-2 7,-1 4,-4 2,-4 -2,-9 4,-12 9,-4 13,1 19,-4 9,-6 3,-5 v -10 l 15,-25 4,-5 10,-5 7,-1 14,2 10,7 9,10 h 55 l 7,8 5,10 5,5 8,5 13,5 9,7 4,6 1,5 -1,6 -3,5 -17,9 -11,10 -18,11 -2,5 -1,12 2,7 13,15 22,35 16,9 11,13 12,9 9,3 9,12 8,-4 8,1 9,4 4,-2 4,-16 6,-13 8,1 12,13 12,2 v 19 l -3,3 -6,-1 -2,2 2,4 11,6 4,5 -5,10 v 6 l 2,2 11,-1 9,-6 2,1 5,36 5,6 17,-2 7,-4 1,-6 -8,-13 v -11 l 8,-7 11,-6 7,-2 4,1 13,21 6,2 20,1 6,-2 1,3 6,3 1,-3 -2,-2 3,-6 -3,-3 -1,-4 -5,-1 -1,-2 -4,-23 -4,-7 v -2 l 3,-1 4,1 2,-4 h 5 l 1,-5 -9,1 -2,-2 1,-9 -6,-9 -1,-5 -3,-3 v -3 l 3,-4 6,-3 4,-7 1,-11 -2,-8 4,-4 -19,-19 -9,-12 -3,-7 4,-16 23,-25 5,-1 6,2 8,16 -7,15 -1,9 2,11 9,5 1,5 8,15 4,2 9,-2 3,-8 6,-4 1,-5 3,-1 8,2 5,8 11,8 4,6 h 3 l 4,-2 2,-7 9,-1 3,-6 v -4 l -2,-5 -6,-5 v -17 l -3,-2 -7,-1 -1,-5 9,-5 8,-9 8,-2 3,-6 1,-7 -4,-12 -4,-2 -5,-6 -1,-6 -5,-6 h -18 l -3,-3 -6,-13 v -5 l -3,-4 -6,-3 -16,-3 -6,-5 -4,-8 -8,-38 1,-2 13,1 3,-8 3,-3 v -15 l -5,-4 -3,-5 -2,-12 4,-12 v -7 l 6,-11 -3,-10 3,-6 6,-4 h 6 l 12,12 h 10 l 2,2 1,5 3,1 3,-2 h 4 l 3,2 14,-2 1,-2 -3,-4 2,-6 -1,-2 12,-3 4,8 3,1 -3,10 1,5 h 8 l 7,6 15,5 2,2 v 8 l -8,17 5,10 9,7 -2,5 2,7 10,12 h 6 l 4,-2 7,-9 3,1 -1,5 6,14 2,12 4,3 5,-1 7,-14 -3,-6 v -13 l 7,3 h 3 l 1,-2 2,1 1,-7 7,3 8,-5 v -4 l 2,-3 8,-2 -7,-6 2,-4 6,-1 3,-3 1,-10 h 2 l 11,8 4,-1 2,-3 1,-8 -4,-9 4,-5 1,-4 -2,-11 1,-10 -9,-10 h -6 l -7,-10 -11,-7 -1,-5 4,-13 6,-3 -1,-8 4,-6 7,-6 7,-2 5,2 10,13 5,4 h 13 l 5,-4 -7,-18 -5,-4 -1,-3 v -8 l -3,-11 4,-8 -2,-3 -6,1 -4,-6 -5,1 -1,-6 h -3 l -3,3 -15,5 h -4 l -5,-3 h -13 l -6,-13 1,-5 5,-7 -2,-13 -2,-4 -6,-4 -14,-6 -2,1 1,4 -2,5 2,6 -1,3 h -2 l -5,5 -4,-1 -4,3 -1,4 2,4 v 5 l 3,3 -1,7 -3,6 h -2 l -8,-6 h -9 v -16 l -4,-6 1,-14 3,-4 10,-3 3,-4 v -5 l -5,-14 -1,-11 -6,-10 -3,-2 -5,3 -1,5 -4,4 1,14 -7,8 -4,-1 2,-9 -3,-10 -2,-1 -8,4 -2,-1 -2,-5 1,-6 -4,-6 -7,-1 -14,8 -6,8 -10,7 -13,26 h -15 l -3,9 -9,2 -17,15 -4,10 v 7 l -5,5 h -4 l -11,-4 -31,5 -26,-2 -4,4 v 5 l -3,6 -8,3 -23,2 -9,-2 -15,-12 -15,-9 -5,-8 3,-15 5,-9 h 11 v 14 l 13,1 3,2 6,-3 16,-1 11,-6 6,-8 2,-5 -1,-3 -8,-2 -5,3 -5,11 -6,4 -8,-2 -4,-3 1,-5 6,-1 -2,-2 -6,-2 -1,2 -2,-3 -11,-4 2,-14 2,-3 4,-2 7,3 h 7 l 8,-1 6,-4 h 4 l 2,5 4,2 18,21 2,14 5,5 h 8 l 20,-10 6,-6 6,-11 7,-6 16,-7 3,-5 9,-2 19,-9 14,-9 15,-5 10,-7 3,-4 1,-5 3,1 9,-6 12,-12 7,-10 8,-5 16,-14 v -5 l -4,-5 h -10 l -17,11 -27,9 -10,6 h -2 l -7,-6 -4,-1 -3,-4 -4,-1 -2,-2 -1,-5 -4,-1 -7,2 -1,-3 -5,1 2,-4 -16,-1 4,-14 h 4 v -5 l 10,-11 -9,-1 -6,5 -2,-1 6,-11 -2,-3 -11,1 -2,-2 h -3 l 2,5 -3,4 -10,-3 -8,2 -1,-2 2,-7 2,-3 7,-4 v -4 l -3,-4 h -6 l -3,-8 h -5 l -5,-10 6,-7 -1,-2 -3,1 -4,-2 h -5 l -1,4 -7,-2 -3,3 -3,-1 -2,-4 -8,-1 -5,4 -16,30 -9,1 -2,9 h -3 l -3,3 -5,-5 h -2 l -2,2 v 3 l -9,3 -3,3 h -8 l -2,-1 v -2 l 3,-10 6,-3 11,-16 3,-2 15,-2 -3,-2 -1,-11 -2,-3 -7,-4 -6,-8 -2,-1 -4,3 h -6 l -5,-5 -16,1 -5,-2 -8,1 -4,3 -4,-1 -4,3 -5,-2 -2,2 -11,-2 -1,2 -7,-2 -1,-9 h -14 l -3,-4 h -3 l -6,5 -3,-1 -3,-5 h -2 l -3,3 -7,11 -8,2 -1,7 -3,1 -1,5 3,4 v -2 h 2 l -1,3 -6,5 -1,5 -7,2 -1,-2 h -5 l -1,-2 -9,-1 -5,4 h -9 l -4,4 h -6 l -6,4 -5,7 -7,2 -3,7 -6,2 h -3 l -2,-3 v -10 l -2,-2 -3,5 -9,-2 -12,3 -8,-6 -5,-1 -6,4 -5,7 -10,2 -4,4 1,4 11,6 2,6 z m -110,693 -3,-4 1,-6 13,-6 -3,-3 h -5 l 7,-7 -1,-5 -7,3 h -8 l -5,3 -1,6 2,1 v 2 l -5,6 -4,2 3,5 6,-1 4,3 1,2 -2,7 -8,1 -2,1 -4,8 -8,1 2,7 3,2 4,-1 1,1 -2,1 1,2 h 2 l 7,-4 2,-4 h 3 v -3 l 3,-3 h 5 l 1,-2 h 3 l 2,4 3,2 1,-4 4,-2 1,-4 4,-1 v -2 l -3,-2 v -3 l -3,-1 -7,3 z m 552,-656 8,-3 3,-3 v -4 l 3,-1 6,3 h 4 l 3,-6 8,-2 7,-9 4,-1 v -3 l -5,-4 -4,1 v -5 l -4,-6 -12,-6 -3,3 3,2 v 13 l -4,7 -4,2 v 2 l -4,3 2,1 -1,2 -3,-1 -2,-6 -4,1 -1,3 -3,-3 -2,2 h -3 l -1,-2 v 6 h 3 l 2,2 -1,5 -2,1 4,5 z M 634,454 v -5 l -4,-7 h -6 l -2,6 -2,1 -5,-3 -4,-5 v -2 l 2,-1 -2,-7 -10,-6 -1,-5 5,-11 v -4 l -2,-2 -5,-1 -3,-4 -7,7 h -4 l -2,2 -10,3 -3,3 -1,4 9,5 -4,7 6,3 -21,15 4,19 h 12 l 12,-7 2,-4 v -6 l 2,-1 4,3 4,8 -2,15 3,7 -2,26 -3,5 -7,4 -2,4 v 9 l 4,5 10,3 5,-1 3,3 8,1 4,-7 3,-2 7,9 7,1 1,-9 -7,-14 v -3 h 2 l 15,14 8,5 h 4 l 3,-3 -1,-5 -13,-24 1,-7 14,-12 13,1 8,-11 -1,-3 -4,-4 -11,1 -3,-4 h -5 l -7,2 -5,4 -9,-1 -8,2 -12,7 -1,3 -4,-7 15,-11 4,-5 z m 344,-702 3,-9 -3,-3 -3,2 -10,-8 -1,-8 -7,-2 1,-6 2,-2 h 3 l 10,7 4,1 6,-6 h 3 v -3 l 7,3 12,-7 -7,-3 -3,2 -2,-2 -8,1 -7,-3 -1,3 -21,-2 -2,-2 2,-4 -7,-2 -5,5 v 2 l 1,3 5,4 v 2 h -7 l -3,2 v 2 l 16,16 -3,1 v -2 l -3,-1 -1,3 -7,1 -1,6 -3,5 2,2 4,-3 13,1 8,-4 2,-3 2,1 -2,9 5,-1 4,2 z m -648,764 9,-5 1,-6 -3,-4 -2,2 -2,-1 2,-9 -3,-2 v -3 l -7,-2 -9,10 -1,8 1,3 9,3 4,6 z m -151,25 1,-6 h 2 l 2,4 4,-2 -3,-2 1,-1 -2,-3 h -3 l -4,-4 h -3 l -2,2 -6,-7 -7,-4 -3,7 v 12 h 4 l 8,-6 3,1 1,8 3,-2 h 2 v 2 z m 771,-178 -7,7 -4,-3 -7,5 -4,6 v 9 l -2,2 1,3 15,7 1,1 -3,3 1,3 5,2 3,-9 h 10 l 2,-2 v -10 l 1,-2 h 3 l 1,-6 -5,-2 1,-2 -2,-2 1,-3 h 2 l 1,-2 -4,-4 1,-4 -3,-1 -6,3 z m 65,-188 3,-1 2,-3 -1,-7 5,-4 -1,-2 3,-5 -2,-6 3,-4 -8,-8 -10,-4 v -6 l 3,-2 v -4 l -2,-6 -5,-4 V 92 l -11,-4 h -22 l -3,2 v 8 l 1,3 4,1 3,3 v 6 h -3 v 4 l -2,1 2,3 2,1 2,-3 2,3 -3,2 3,6 -1,8 2,5 -7,7 1,7 12,16 5,2 7,-4 11,5 z m -143,378 -4,6 -2,10 2,3 4,-2 v 4 l -2,-1 -1,2 1,2 11,3 -6,9 1,2 11,-4 4,-6 -1,-4 6,-6 h 2 l 1,5 18,-3 -6,-15 v -2 l 4,-4 -3,-3 -2,-7 -6,-4 -4,-5 h -5 l -3,7 -12,4 -4,3 -1,3 z m -721,35 5,-2 2,-4 10,1 4,-3 4,1 1,-1 -2,-6 -3,-1 v -6 l 9,-4 -1,-2 -12,-3 -3,1 -2,5 3,3 -3,4 h -3 l -3,4 -3,-3 h -5 l -5,5 -1,4 7,5 z m 276,-228 -8,-1 -3,2 -7,-2 -1,4 -3,2 3,6 h 8 l 3,2 5,8 2,-2 3,1 v 5 l 3,3 2,7 6,4 h 4 l 3,-5 v -3 l 2,-1 v -3 l -7,-8 3,-8 v -5 l -1,-3 -5,-3 -7,1 z m 667,-130 3,9 5,5 v 5 l 2,4 h 5 v -8 h 6 v -2 l -5,-5 v -2 h 2 v -3 l -3,-7 -5,-3 2,-2 h -10 l -2,1 -1,5 z m -140,-27 -2,2 8,12 7,3 6,-1 v -8 l -7,-9 -3,-1 -6,-6 -2,1 -1,5 z m -516,111 5,-1 10,-6 1,-3 -5,-2 -2,-2 v -3 l -5,-1 -5,4 -3,-2 12,-9 -3,-5 -24,5 -2,2 1,3 6,2 2,6 3,2 -2,4 1,2 7,4 z M 961,150 h 3 l 1,-2 -4,-19 4,-4 v -4 l -4,-2 -4,-6 -1,-5 v -3 l 4,2 2,-1 v -2 l -5,-5 h -2 l -5,4 -4,12 -5,3 9,9 3,13 5,2 v 8 z m 63,62 9,-7 1,-10 -7,-7 -3,-5 -1,-6 -9,-2 -11,3 -3,5 4,8 v 5 l 3,1 v 7 l 4,6 9,-1 2,2 z m 71,-311 4,-2 2,-10 6,-6 1,-8 -4,-5 -4,-2 3,-7 -3,-6 h -4 l -5,-3 -13,13 4,4 2,7 2,2 v 7 l 2,2 -1,10 4,4 z M 144,555 h 4 l 2,-3 -1,-2 -3,3 -5,1 z m 864,-783 3,-1 2,-6 -2,-5 v -6 l 3,-3 v -7 l -4,-6 -4,1 -1,13 -3,3 h -3 l -5,-9 -6,-3 -4,5 v 10 l 22,13 z m -153,767 2,-2 v -4 l 2,-1 7,3 v 2 l 9,-3 4,-4 2,-8 -3,-9 -6,-1 -11,3 h -7 l -2,2 v 15 l 2,2 -1,4 z m -124,-119 4,-3 h 4 l 3,-3 v -3 h -10 l -5,-2 -2,5 4,5 z m 339,-48 1,-2 6,1 -1,-4 3,-2 -2,-10 -2,-1 -2,2 1,3 -2,3 -3,-1 -2,3 1,7 z m 35,-167 2,-1 v -2 l 3,-1 v -2 l -3,-1 -1,-5 4,-7 -1,-5 -4,-3 -3,1 -1,3 -4,-2 -3,1 -2,9 v 11 l 7,1 4,3 z M 107,113 h 3 l 2,-3 -1,-2 3,-3 -3,-1 v -3 l 2,-2 -1,-2 3,-6 -16,-6 -2,5 1,2 7,3 2,7 -3,9 1,1 z M 807,-43 v 5 l 2,-4 -2,-4 z m 262,284 2,-2 v -6 h 4 l 4,-2 2,-3 v -8 l 6,-6 v -6 h -5 l -5,5 -6,-2 -3,4 -6,17 5,9 z m -43,-118 3,-2 1,-17 -7,-5 -11,-3 -2,10 4,5 h 2 l 3,-4 v -3 l 2,1 v 9 l 3,8 z m 62,-291 5,-1 5,-12 5,-4 v -4 l -4,2 -8,-2 -6,3 -1,6 -3,2 6,10 z m -22,519 3,-2 6,-14 -4,-3 h -2 l -1,5 -5,4 1,9 z m 63,-145 1,-1 -6,-5 -4,-1 v -2 l -2,-1 -3,2 1,6 4,2 h 5 z m -675,158 8,-4 6,-9 v -2 l -4,-4 -9,2 -7,6 -1,5 1,3 3,2 z m 488,170 4,-1 v -8 l 2,-5 -6,-8 -3,7 h -5 l -2,4 2,3 v 4 l 5,4 z m -751,59 3,-2 -1,-2 -3,2 v 2 z m 612,-683 5,2 2,-6 -1,-2 -6,2 -1,2 z m 198,171 5,-4 v -5 h -4 l -2,2 v 7 z m -804,460 2,-1 v -2 l -4,-3 -2,2 3,4 z m 1055,-801 6,-2 3,-3 v -7 l -4,-2 h -10 l -7,-9 -1,-14 -1,-2 h -3 l -9,4 -2,4 -1,6 3,13 3,4 16,8 z m -320,354 2,-4 -7,-5 -2,2 5,6 z m -807,81 3,-8 -2,-3 -5,1 2,9 z m 885,35 -1,1 h 2 z m -71,-105 2,-1 v -3 l 4,-2 v -2 l -8,4 -1,3 z m -301,290 4,-1 h -7 z m 289,-50 v -2 z m -19,-633 1,-3 -6,-7 -2,1 3,6 3,1 v 2 z m 10,40 h 2 l 2,-3 -5,-5 -2,2 2,1 v 4 z m 156,581 1,-1 -3,-2 v 2 z m -189,-609 6,-3 -1,-3 -6,2 -1,3 z m 56,57 4,-1 1,-2 -6,-3 -3,2 3,4 z M 94,146 v -4 l -2,-1 v 4 z m 912,123 1,-1 -2,1 z m 27,-394 2,-8 -2,-2 -2,2 -1,6 z m 131,64 3,-1 -3,-3 -1,3 z m -882,266 6,-7 -6,-1 -1,-5 -2,2 -1,7 2,3 z m 189,91 6,-2 -5,-4 -4,3 2,2 z m -315,255 1,-1 -2,-3 -2,1 v 2 z m 949,-333 h -2 l 3,2 z M 888,-291 h 4 l -1,-2 -4,1 z m -6,234 -1,-2 z m 89,164 3,-3 -1,-2 -6,-2 2,6 z m 143,91 3,-2 v -3 l -3,-3 h -2 l -1,2 2,2 -1,3 z m -534,108 7,-1 2,-2 -6,-5 -4,4 z m 152,155 7,-4 -2,-4 -5,-2 -4,1 1,6 2,2 z m 246,66 4,-7 -1,-5 -2,2 v 6 l -2,4 z m -34,-777 2,-1 h -2 z m -125,3 1,-2 -2,2 z m -311,555 8,-1 -1,-11 -11,6 -1,2 2,4 z m 303,169 1,-1 -5,-3 v 2 l 3,2 z m -615,67 -1,-2 z m 590,-781 1,-2 -2,-1 -1,2 z m 253,429 h 3 l -2,-7 -3,1 v 6 z m 71,18 h 2 v -2 l -4,1 z m -117,55 1,-1 -2,-2 v 2 z m 18,2 h 2 l -4,-3 -1,2 z m -996,191 3,-1 1,-5 -7,-1 -1,4 3,3 z m 852,118 -4,4 2,1 4,-2 -1,-3 z m 113,-835 8,-6 v -6 l -3,-1 -6,3 v 9 z m -3,80 2,-1 h -3 z m 20,249 -1,-3 -1,2 z m 2,12 v -3 l -1,3 z m -40,30 3,-2 -4,-2 v 4 z m 146,50 -2,-1 z m -222,274 2,-1 -1,-3 h -8 l 5,3 z m -256,4 4,-2 v -6 l -6,2 v 5 z m -448,136 1,-3 -2,2 z M 950,-95 v -3 l -1,2 z m -4,190 2,-2 -4,-4 -2,2 3,3 z m 212,34 1,-5 -4,-1 2,6 z m -217,1 2,-4 -1,-1 -2,4 z m 169,82 1,-2 h -3 v 2 z m -85,6 h -1 z m -786,241 2,-1 h -3 z m 735,74 3,-1 v -5 h -2 l -2,5 z m -97,-822 v -3 z m 156,24 1,-5 -3,-3 -3,2 4,5 z m -135,-5 1,-2 -3,1 z m 31,21 v -2 h -2 v 2 z m 188,111 h 2 v -2 l -5,-3 v 3 z m -83,18 1,-2 -2,-1 v 2 z m -14,241 1,-2 -3,-1 v 2 z m 103,61 h 2 -3 z m -125,144 4,-1 -1,-7 -3,-1 -5,5 3,4 z m 68,46 1,-2 -3,-3 -2,1 1,3 z m -118,146 2,-3 -1,-3 -2,3 z m 76,-391 1,1 z M 896,-293 v -2 z m 16,37 -1,-1 z m 0,7 v -1 z m 31,14 v -1 z m 7,37 -1,-2 z m 89,67 v -3 l -2,2 z m 195,32 -2,-5 v 4 z m -56,66 2,-1 -1,-2 z m -31,76 1,-3 -3,2 z m -210,26 -2,-2 v 2 z m 175,101 2,-1 -1,-2 h -2 l -1,2 z m -800,24 6,-12 -1,-4 h -2 l -4,5 -1,10 z m -5,16 2,-1 -1,-2 -2,1 z m 800,2 1,-2 h -2 z m -100,32 2,-1 -3,-3 v 2 z m -15,17 -1,-3 v 2 z m -400,41 2,-1 -1,-2 -1,-1 -2,2 z m 515,41 1,-2 h -2 v 2 z m 7,4 -1,-4 h -2 l 2,4 z m -212,-609 -1,-1 z m 276,233 v -1 z m -32,69 2,-1 -4,-3 v 4 z m -214,38 1,-2 -2,1 z m 35,14 1,-2 h -2 z m -18,9 v -2 h -2 v 2 z m 23,10 v -3 h -2 v 2 z m -854,45 4,-4 -1,-3 h -4 l -2,3 1,3 z m 944,196 1,-1 h -2 z m -223,195 1,-1 h -3 z m -679,4 -1,-1 z m 915,-376 2,-1 -1,-1 z m -139,-409 1,-2 -2,1 z"
     id="Xianggang" />
</svg>
