<?xml version="1.0" encoding="UTF-8" standalone="no"?>
<svg
   width="895.5"
   height="989.17542"
   viewBox="-1191 -71 895.5 989.17542"
   version="1.1"
   id="svg1"
   xmlns="http://www.w3.org/2000/svg"
   xmlns:svg="http://www.w3.org/2000/svg">
  <defs
     id="defs1" />
  <path
     stroke="#1e90ff"
     stroke-opacity="0"
     stroke-width="0"
	 stroke-linecap="round"
     stroke-linejoin="round"
     fill="#1e90ff"
     fill-opacity="1"
     fill-rule="evenodd"
     d="m -901,730 v 14 l 9,11 6,4 h 4 l 1,3 3,-1 3,3 5,1 1,-2 h 5 l 2,-4 v 2 l 3,-2 1,1 5,-4 9,-2 7,6 5,1 2,4 10,-1 1,7 6,6 2,6 -4,3 -3,7 4,10 -1,11 2,2 2,-4 3,1 3,-4 h 2 v 2 l 3,1 1,-2 h 8 l 10,5 1,3 -2,2 -5,1 v 3 l 3,3 -1,4 8,11 -2,5 6,5 3,-3 v 9 l 4,3 4,-1 1,2 5,-3 7,-1 3,-3 -2,-3 2,-1 v -6 h -2 l 2,-4 -3,-3 1,-4 4,2 4,-1 1,-7 3,-1 6,-6 h 2 l 5,7 2,6 -3,3 2,2 -1,12 8,12 v 5 l 4,5 v 4 h 6 l 2,3 -3,4 2,5 -2,1 2,2 1,-1 3,6 1,7 3,4 5,-1 4,3 2,-2 12,-4 -1,-17 2,-4 3,2 h 5 l 3,-4 h 2 l 1,-3 h 18 l 3,-3 -1,-4 8,-6 5,1 2,2 v 9 l 1,3 3,2 3,-4 h 2 v -3 l 2,-2 5,-1 3,-7 3,-2 1,5 -2,4 3,4 v 10 l 3,4 -2,4 1,4 h 4 l 7,4 3,-1 -1,3 h 3 l 7,6 1,-1 3,7 2,1 3,1 2,-4 4,-3 4,2 4,5 5,-1 6,-3 v -3 l -2,1 -4,-3 v -5 h 2 v -16 l -2,-3 4,-10 -2,-7 2,-4 3,-1 -13,-60 -3,-7 h -3 l -3,-6 6,-2 2,-4 3,-2 4,1 v 2 l 4,-2 2,1 1,-4 3,-2 h 3 l 2,2 4,-1 -1,-2 8,-5 5,-6 v -3 l -2,-1 2,-5 2,-1 5,2 -1,-2 7,-10 h 2 l 2,6 52,18 7,1 3,3 h 4 l 10,-9 -2,-17 3,-5 v -5 l 2,-2 -1,-2 3,-4 11,-6 h 3 l -1,-3 4,-2 -2,-1 1,-1 h 2 l -1,-4 h -3 l 4,-4 v -12 l 1,1 v -2 l 2,-1 3,2 2,-3 v -4 l 4,1 1,-7 3,-2 -3,-11 5,-2 3,-5 2,2 2,-3 -1,-1 h 3 l 1,-3 v -5 h -4 l 6,-6 -3,-4 -4,-1 v -2 l 5,-12 6,-3 v -8 l 2,-6 -2,-4 4,-11 -1,-3 4,-7 -1,-1 3,-4 3,1 2,-4 v -5 l -5,-6 1,-7 6,-4 4,-7 11,-1 4,-3 1,-4 6,-6 1,-4 6,-8 v -5 l -7,-5 v -7 l -4,-2 -1,-4 -3,-3 v -5 l 6,-6 3,-6 v -9 l 11,-8 10,-3 5,-4 v -3 l -1,-2 -3,2 h -9 l -4,6 -4,1 -4,-4 -11,-1 -14,4 -7,-1 -5,5 h -4 l -4,3 h -4 l -13,5 -3,6 -8,1 -1,6 -6,1 -3,-2 -7,2 -8,-3 -5,1 -5,4 -2,5 -7,3 -4,6 -6,-2 -4,2 1,5 -4,6 -1,8 -5,3 -12,-5 -6,5 h -16 l -2,4 -16,-4 -5,5 h -3 l -2,-2 -1,-5 -6,-1 h -12 l -5,4 -10,1 -4,-4 -1,-9 -4,-10 -8,-6 -2,-4 -3,-1 v -3 l -2,-2 3,-6 4,-3 1,-6 4,-5 -7,-10 2,-10 h -4 l -4,3 -2,-2 -1,-9 -4,-2 5,-17 5,-6 -1,-3 -2,-1 -8,3 -5,-5 -13,4 -14,-14 -7,-4 1,-4 -4,-2 -1,-6 -5,-1 -2,-4 1,-3 -2,-3 -4,-1 -4,2 -3,-2 -1,-10 -6,-4 -5,2 -1,6 -4,-1 -2,-3 h -3 l -5,4 h -4 l -4,-10 h -4 l -4,-3 -6,2 -2,-1 -1,-2 4,-6 -2,-3 -4,2 -9,-3 -13,1 -2,4 -7,-1 -3,2 -7,-1 -5,-4 -4,-1 -1,2 -7,-1 -3,-5 -4,-2 -2,-4 v -6 l -9,-6 -1,-4 2,-7 -4,-5 v -6 l 6,-10 1,-9 -15,-7 -2,-4 2,-10 -5,-3 2,-6 3,-2 -2,-8 -3,-4 1,-8 -5,-4 -7,-16 -4,-2 -3,-5 -6,-5 -1,-15 5,-9 v -3 h -6 l -1,2 3,4 -1,2 -4,-2 -2,-5 3,-4 3,1 2,-2 -1,-3 -1,-2 -7,-2 -1,-2 4,-8 -10,-8 4,-4 -2,-4 1,-3 -1,-2 h -3 l -1,-4 -2,-1 -10,-18 -1,-8 2,-2 h 3 l 2,-9 -16,-8 v -4 l 6,-4 2,1 v -3 l -7,-1 -1,-2 3,-6 -6,-9 h -5 l 2,-6 -8,-7 -2,-1 -1,2 h -2 l -2,-2 -1,-5 2,-3 4,1 1,-2 -2,-6 5,-2 -5,-4 -4,5 -7,-10 -1,-4 -2,-1 h -4 l -6,4 -1,-1 1,-6 4,-2 1,-5 -4,-2 -5,-8 h -2 l -3,3 -2,-1 -1,-4 -11,-5 -4,-4 -7,-2 h -7 l -10,4 2,5 -1,2 h -2 l -2,-4 -7,-1 v -5 l -7,-2 -8,1 -4,-2 -1,-3 -3,-1 -3,-8 -5,-5 -9,3 -3,-6 h -3 l -9,-9 h -10 l -3,-5 -3,-1 h -2 l -3,5 v -6 l -4,1 2,4 -1,1 -2,-1 -1,-3 h -4 l -7,-3 -9,7 -6,-1 -14,6 -14,-1 -12,2 -5,-7 -5,4 h -7 l -3,5 h -16 l -24,10 8,8 4,2 v 4 l -2,1 v 2 l 6,3 3,5 -1,1 3,2 -2,6 -5,2 -3,9 -4,4 1,3 -2,3 -14,15 h -4 l -8,8 3,3 h 5 l 13,13 3,-1 8,4 -2,4 3,2 1,5 8,4 h 6 l 3,-7 4,-3 v -4 l 3,-1 4,-7 -1,-2 h 2 l 3,4 5,-1 2,2 1,5 h 2 l 3,4 2,-2 3,6 -1,4 6,2 1,2 6,-1 2,2 h 5 l -1,8 -5,4 h -4 v 7 l 3,10 h 3 l -1,9 3,7 v 8 l 4,12 3,2 -2,2 3,3 v 7 l -2,2 8,9 -1,3 3,5 4,-1 11,4 2,3 h 2 l 3,-2 2,1 2,-2 2,1 3,-2 h 5 l 1,-2 4,-1 3,-3 2,-5 5,4 3,-1 5,7 10,-2 3,-3 h 6 l 6,6 6,2 3,-9 h 2 l 1,-2 h 4 l 4,5 h 5 l 4,-3 v -3 l 7,1 2,-5 3,-2 -2,-3 1,-2 8,-4 1,-10 2,-3 h 2 v 3 l 6,-1 9,3 1,3 13,14 -1,1 10,14 3,6 -1,1 6,2 2,5 -1,3 5,1 v 2 l 2,-2 v 4 l 6,5 -2,3 3,5 -4,4 1,1 h -2 v 4 l -3,-3 v 4 l -3,1 1,1 -3,3 1,1 -4,2 1,3 -3,-2 -3,3 h 2 v 2 l 3,2 -3,3 3,12 -5,5 -1,-2 -6,8 -5,1 1,3 h -4 v 4 l 2,1 -2,1 1,2 -4,3 v 3 l -2,1 1,3 -3,4 h -2 v 2 l -3,1 3,2 h -4 l -4,4 2,1 v 2 l 3,1 -1,2 -2,-2 -2,2 3,3 -8,6 3,3 -1,1 2,4 v 3 l -4,1 3,4 v 12 l -3,4 1,-2 -4,-2 1,4 4,4 h 2 v 2 h -2 l 2,3 h -2 l 2,4 -1,1 3,3 v 12 l -4,6 2,2 -1,6 -3,1 -4,6 -5,-3 v -2 l -4,1 -4,-2 -3,2 -1,4 -3,1 2,4 -5,9 -1,6 h -2 l -1,7 -3,1 -2,17 -3,9 h -2 l -1,2 2,2 v 6 l -3,2 4,15 -1,2 2,2 -2,1 1,1 -3,4 v 4 l -2,3 -1,-1 -1,3 -3,1 4,-8 -4,-1 1,-4 -8,-14 2,-1 -2,-4 v -8 l -3,-3 -12,9 -13,16 -8,7 -11,15 -19,10 -4,11 -4,4 -20,11 -5,5 -13,8 -4,13 -6,4 v 2 l 13,20 4,3 1,-1 11,4 -5,5 -1,3 2,4 6,-3 v 13 l 2,4 5,2 v 3 l 2,1 2,-2 3,1 4,-2 4,-10 h 5 l 2,3 2,-1 2,-9 -3,-4 -4,1 v -3 l 8,6 6,-2 -2,10 2,2 h 3 l 1,-6 h 2 l -1,3 2,1 -3,2 3,1 -1,12 -19,2 -3,2 1,3 -5,2 -2,-2 -6,2 v -3 l -2,1 v 3 l -3,1 v 13 l 9,12 2,5 5,-2 8,4 1,-2 4,2 3,-3 4,3 3,-2 9,-1 7,-4 h 3 v 4 l 3,-3 2,6 -2,2 4,5 -1,5 3,7 -3,1 1,3 h -2 l -1,4 7,6 v 2 l -3,2 2,2 -4,3 1,2 h 3 l 5,6 -1,2 2,4 2,1 3,-2 v 3 l 3,2 -1,1 2,3 4,-1 v 5 l 3,5 4,-2 5,4 2,-1 v -2 l 5,1 5,-1 2,-2 1,3 4,-2 2,2 3,-9 2,1 v 2 l 5,1 2,6 h 2 v 4 l 5,-3 2,2 4,-2 3,1 1,-2 2,3 3,-2 2,-6 5,1 6,-2 3,-3 1,2 z m -100,-487 h -3 v 3 h -4 v 2 l -3,1 1,7 -5,7 -5,-4 -1,-4 -2,-1 -1,2 v 10 l 6,7 v 6 l 4,2 5,-3 h 6 v -2 l 11,1 1,4 2,1 2,-2 -1,-2 2,-4 v -5 l -2,-2 6,-6 v -15 l -3,-1 -4,2 -1,-2 -8,-1 z"
     id="Heilongjiang" />
</svg>
